ISO-10303-21;
HEADER;
FILE_DESCRIPTION (( 'STEP AP214' ),
    '1' );
FILE_NAME ('elevated-cell_62.STEP',
    '2026-06-19T13:50:03',
    ( '' ),
    ( '' ),
    'SwSTEP 2.0',
    'SolidWorks 2023',
    '' );
FILE_SCHEMA (( 'AUTOMOTIVE_DESIGN' ));
ENDSEC;

DATA;
#1 = CYLINDRICAL_SURFACE ( 'NONE', #423, 0.5000000000000004441 ) ;
#2 = EDGE_CURVE ( 'NONE', #164, #311, #40, .T. ) ;
#3 = ORIENTED_EDGE ( 'NONE', *, *, #610, .T. ) ;
#4 = CARTESIAN_POINT ( 'NONE',  ( 8.000000000000000000, -8.000000000000000000, 6.839999999999999858 ) ) ;
#5 = DIRECTION ( 'NONE',  ( 0.000000000000000000, 0.000000000000000000, -1.000000000000000000 ) ) ;
#6 = EDGE_LOOP ( 'NONE', ( #382, #636 ) ) ;
#7 = ADVANCED_FACE ( 'NONE', ( #416 ), #493, .F. ) ;
#8 = CARTESIAN_POINT ( 'NONE',  ( -7.799999999999999822, -7.799999999999999822, 0.000000000000000000 ) ) ;
#9 = DIRECTION ( 'NONE',  ( 0.000000000000000000, 0.000000000000000000, -1.000000000000000000 ) ) ;
#10 = EDGE_LOOP ( 'NONE', ( #106, #661 ) ) ;
#11 = FACE_OUTER_BOUND ( 'NONE', #866, .T. ) ;
#12 = AXIS2_PLACEMENT_3D ( 'NONE', #378, #58, #538 ) ;
#13 = CARTESIAN_POINT ( 'NONE',  ( -7.900000000000000355, -7.900000000000001243, 0.000000000000000000 ) ) ;
#14 = CARTESIAN_POINT ( 'NONE',  ( 8.000000000000000000, -8.000000000000000000, 6.600000000000000533 ) ) ;
#15 = ORIENTED_EDGE ( 'NONE', *, *, #57, .T. ) ;
#16 = DIRECTION ( 'NONE',  ( -0.000000000000000000, 0.000000000000000000, 1.000000000000000000 ) ) ;
#17 = EDGE_CURVE ( 'NONE', #241, #311, #405, .T. ) ;
#18 = DIRECTION ( 'NONE',  ( 0.000000000000000000, 1.000000000000000000, 0.000000000000000000 ) ) ;
#19 = CARTESIAN_POINT ( 'NONE',  ( 8.400000000000000355, 7.899999999999995914, 0.000000000000000000 ) ) ;
#20 = CARTESIAN_POINT ( 'NONE',  ( 8.400000000000000355, -7.899999999999998579, 6.600000000000000533 ) ) ;
#21 = ORIENTED_EDGE ( 'NONE', *, *, #466, .T. ) ;
#22 = DIRECTION ( 'NONE',  ( 0.000000000000000000, 1.000000000000000000, 0.000000000000000000 ) ) ;
#23 = ORIENTED_EDGE ( 'NONE', *, *, #466, .F. ) ;
#24 = CIRCLE ( 'NONE', #335, 0.3100000000000005529 ) ;
#25 = FACE_OUTER_BOUND ( 'NONE', #340, .T. ) ;
#26 = AXIS2_PLACEMENT_3D ( 'NONE', #251, #320, #642 ) ;
#27 = EDGE_LOOP ( 'NONE', ( #307, #143, #770, #529 ) ) ;
#28 = CARTESIAN_POINT ( 'NONE',  ( -8.400000000000000355, -7.900000000000001243, 6.600000000000000533 ) ) ;
#29 = EDGE_CURVE ( 'NONE', #262, #368, #838, .T. ) ;
#30 = DIRECTION ( 'NONE',  ( 1.000000000000000000, 0.000000000000000000, 0.000000000000000000 ) ) ;
#31 = ORIENTED_EDGE ( 'NONE', *, *, #836, .T. ) ;
#32 = ORIENTED_EDGE ( 'NONE', *, *, #436, .T. ) ;
#33 = FACE_OUTER_BOUND ( 'NONE', #863, .T. ) ;
#34 = DIRECTION ( 'NONE',  ( 0.000000000000000000, 1.000000000000000000, 0.000000000000000000 ) ) ;
#35 = VERTEX_POINT ( 'NONE', #816 ) ;
#36 = DIRECTION ( 'NONE',  ( -0.000000000000000000, 0.000000000000000000, 1.000000000000000000 ) ) ;
#37 = DIRECTION ( 'NONE',  ( -1.000000000000000000, 0.000000000000000000, 0.000000000000000000 ) ) ;
#38 = DIRECTION ( 'NONE',  ( -1.000000000000000000, -1.850371707708594563E-16, 0.000000000000000000 ) ) ;
#39 = ORIENTED_EDGE ( 'NONE', *, *, #2, .T. ) ;
#40 = CIRCLE ( 'NONE', #884, 0.3100000000000005529 ) ;
#41 = LINE ( 'NONE', #357, #557 ) ;
#42 = VECTOR ( 'NONE', #85, 100.0000000000000000 ) ;
#43 = EDGE_CURVE ( 'NONE', #449, #431, #108, .T. ) ;
#44 = CIRCLE ( 'NONE', #26, 0.3100000000000005529 ) ;
#45 = AXIS2_PLACEMENT_3D ( 'NONE', #798, #5, #91 ) ;
#46 = DIRECTION ( 'NONE',  ( 0.000000000000000000, 0.000000000000000000, -1.000000000000000000 ) ) ;
#47 = CARTESIAN_POINT ( 'NONE',  ( -7.799999999999999822, -7.799999999999999822, 2.174999999999999822 ) ) ;
#48 = VERTEX_POINT ( 'NONE', #427 ) ;
#49 = CARTESIAN_POINT ( 'NONE',  ( -7.500000000000000000, 7.499999999999995559, 6.940000000000000391 ) ) ;
#50 = EDGE_CURVE ( 'NONE', #698, #750, #719, .T. ) ;
#51 = DIRECTION ( 'NONE',  ( 0.000000000000000000, 1.000000000000000000, 0.000000000000000000 ) ) ;
#52 = VERTEX_POINT ( 'NONE', #668 ) ;
#53 = CARTESIAN_POINT ( 'NONE',  ( -5.266666666666666607, 5.266666666666666607, 9.573333333333334139 ) ) ;
#54 = VERTEX_POINT ( 'NONE', #510 ) ;
#55 = LINE ( 'NONE', #369, #228 ) ;
#56 = DIRECTION ( 'NONE',  ( 0.000000000000000000, 0.000000000000000000, -1.000000000000000000 ) ) ;
#57 = EDGE_CURVE ( 'NONE', #521, #1009, #75, .T. ) ;
#58 = DIRECTION ( 'NONE',  ( 0.000000000000000000, 0.000000000000000000, 1.000000000000000000 ) ) ;
#59 = FACE_OUTER_BOUND ( 'NONE', #302, .T. ) ;
#60 = VERTEX_POINT ( 'NONE', #76 ) ;
#61 = CARTESIAN_POINT ( 'NONE',  ( 8.400000000000000355, -8.399999999999998579, 6.600000000000000533 ) ) ;
#62 = CIRCLE ( 'NONE', #720, 0.3100000000000005529 ) ;
#63 = ORIENTED_EDGE ( 'NONE', *, *, #751, .F. ) ;
#64 = ORIENTED_EDGE ( 'NONE', *, *, #17, .F. ) ;
#65 = EDGE_CURVE ( 'NONE', #576, #241, #789, .T. ) ;
#66 = CARTESIAN_POINT ( 'NONE',  ( 7.500000000000000000, -7.500000000000000000, 0.000000000000000000 ) ) ;
#67 = CARTESIAN_POINT ( 'NONE',  ( 8.000000000000000000, -8.000000000000000000, 6.839999999999999858 ) ) ;
#68 = EDGE_LOOP ( 'NONE', ( #420, #534, #286, #784 ) ) ;
#69 = CARTESIAN_POINT ( 'NONE',  ( -7.900000000000000355, -7.900000000000001243, 6.600000000000000533 ) ) ;
#70 = DIRECTION ( 'NONE',  ( 0.000000000000000000, 1.000000000000000000, 0.000000000000000000 ) ) ;
#71 = ORIENTED_EDGE ( 'NONE', *, *, #371, .F. ) ;
#72 = VERTEX_POINT ( 'NONE', #146 ) ;
#73 = DIRECTION ( 'NONE',  ( 1.000000000000000000, 0.000000000000000000, 0.000000000000000000 ) ) ;
#74 = ADVANCED_FACE ( 'NONE', ( #299 ), #457, .F. ) ;
#75 = CIRCLE ( 'NONE', #654, 0.5000000000000004441 ) ;
#76 = CARTESIAN_POINT ( 'NONE',  ( -7.799999999999998934, 8.110000000000001208, 2.174999999999999822 ) ) ;
#77 = ORIENTED_EDGE ( 'NONE', *, *, #344, .F. ) ;
#78 = CIRCLE ( 'NONE', #655, 0.5000000000000004441 ) ;
#79 = AXIS2_PLACEMENT_3D ( 'NONE', #495, #813, #105 ) ;
#80 = VERTEX_POINT ( 'NONE', #229 ) ;
#81 = AXIS2_PLACEMENT_3D ( 'NONE', #605, #545, #152 ) ;
#82 = DIRECTION ( 'NONE',  ( 0.000000000000000000, -1.000000000000000000, 0.000000000000000000 ) ) ;
#83 = LINE ( 'NONE', #481, #392 ) ;
#84 = ORIENTED_EDGE ( 'NONE', *, *, #518, .F. ) ;
#85 = DIRECTION ( 'NONE',  ( 0.000000000000000000, 0.000000000000000000, -1.000000000000000000 ) ) ;
#86 = DIRECTION ( 'NONE',  ( 0.000000000000000000, 1.000000000000000000, 0.000000000000000000 ) ) ;
#87 = ORIENTED_EDGE ( 'NONE', *, *, #393, .F. ) ;
#88 = ADVANCED_FACE ( 'NONE', ( #544 ), #509, .F. ) ;
#89 = DIRECTION ( 'NONE',  ( 0.000000000000000000, 1.000000000000000000, 0.000000000000000000 ) ) ;
#90 = CARTESIAN_POINT ( 'NONE',  ( 7.799999999999999822, -7.799999999999999822, 0.000000000000000000 ) ) ;
#91 = DIRECTION ( 'NONE',  ( 0.000000000000000000, 1.000000000000000000, 0.000000000000000000 ) ) ;
#92 = ORIENTED_EDGE ( 'NONE', *, *, #350, .F. ) ;
#93 = VECTOR ( 'NONE', #741, 100.0000000000000000 ) ;
#94 = PLANE ( 'NONE',  #488 ) ;
#95 = EDGE_CURVE ( 'NONE', #643, #274, #261, .T. ) ;
#96 = CIRCLE ( 'NONE', #905, 0.5000000000000004441 ) ;
#97 = PLANE ( 'NONE',  #920 ) ;
#98 = VECTOR ( 'NONE', #463, 100.0000000000000000 ) ;
#99 = ORIENTED_EDGE ( 'NONE', *, *, #868, .T. ) ;
#100 = DIRECTION ( 'NONE',  ( 0.000000000000000000, -1.000000000000000000, 0.000000000000000000 ) ) ;
#101 = LINE ( 'NONE', #803, #148 ) ;
#102 = LINE ( 'NONE', #554, #440 ) ;
#103 = ORIENTED_EDGE ( 'NONE', *, *, #266, .F. ) ;
#104 = CARTESIAN_POINT ( 'NONE',  ( 0.000000000000000000, -7.900000000000000355, 6.940000000000000391 ) ) ;
#105 = DIRECTION ( 'NONE',  ( 0.000000000000000000, 1.000000000000000000, 0.000000000000000000 ) ) ;
#106 = ORIENTED_EDGE ( 'NONE', *, *, #65, .T. ) ;
#107 = CARTESIAN_POINT ( 'NONE',  ( 8.400000000000000355, 8.400000000000002132, 6.600000000000000533 ) ) ;
#108 = LINE ( 'NONE', #503, #963 ) ;
#109 = ADVANCED_FACE ( 'NONE', ( #25 ), #886, .F. ) ;
#110 = LINE ( 'NONE', #969, #824 ) ;
#111 = FACE_OUTER_BOUND ( 'NONE', #951, .T. ) ;
#112 = ORIENTED_EDGE ( 'NONE', *, *, #737, .F. ) ;
#113 = VECTOR ( 'NONE', #630, 100.0000000000000000 ) ;
#114 =( LENGTH_UNIT ( ) NAMED_UNIT ( * ) SI_UNIT ( .CENTI., .METRE. ) );
#115 = AXIS2_PLACEMENT_3D ( 'NONE', #800, #957, #896 ) ;
#116 = ORIENTED_EDGE ( 'NONE', *, *, #504, .T. ) ;
#117 = EDGE_CURVE ( 'NONE', #614, #698, #667, .T. ) ;
#118 = CARTESIAN_POINT ( 'NONE',  ( 7.500000000000000000, -7.499999999999995559, 6.940000000000000391 ) ) ;
#119 = CARTESIAN_POINT ( 'NONE',  ( -7.899999999999994138, -8.400000000000002132, 0.000000000000000000 ) ) ;
#120 = ORIENTED_EDGE ( 'NONE', *, *, #918, .F. ) ;
#121 = CARTESIAN_POINT ( 'NONE',  ( 8.000000000000000000, 8.000000000000000000, 6.940000000000000391 ) ) ;
#122 = FACE_OUTER_BOUND ( 'NONE', #564, .T. ) ;
#123 = ORIENTED_EDGE ( 'NONE', *, *, #883, .F. ) ;
#124 = ADVANCED_FACE ( 'NONE', ( #724 ), #1, .T. ) ;
#125 = DIRECTION ( 'NONE',  ( 0.000000000000000000, -1.000000000000000000, 0.000000000000000000 ) ) ;
#126 = LINE ( 'NONE', #916, #305 ) ;
#127 = EDGE_LOOP ( 'NONE', ( #842, #265 ) ) ;
#128 = EDGE_CURVE ( 'NONE', #184, #641, #647, .T. ) ;
#129 = CARTESIAN_POINT ( 'NONE',  ( 8.000000000000000000, 8.000000000000000000, 6.600000000000000533 ) ) ;
#130 = AXIS2_PLACEMENT_3D ( 'NONE', #707, #484, #805 ) ;
#131 = VECTOR ( 'NONE', #487, 100.0000000000000000 ) ;
#132 = VECTOR ( 'NONE', #199, 100.0000000000000000 ) ;
#133 = LINE ( 'NONE', #284, #574 ) ;
#134 = VERTEX_POINT ( 'NONE', #492 ) ;
#135 = LINE ( 'NONE', #832, #946 ) ;
#136 = EDGE_CURVE ( 'NONE', #387, #514, #102, .T. ) ;
#137 = DIRECTION ( 'NONE',  ( 0.000000000000000000, -1.000000000000000000, 0.000000000000000000 ) ) ;
#138 = DIRECTION ( 'NONE',  ( -1.000000000000000000, 0.000000000000000000, 0.000000000000000000 ) ) ;
#139 = ORIENTED_EDGE ( 'NONE', *, *, #294, .F. ) ;
#140 = DIRECTION ( 'NONE',  ( -1.000000000000000000, 0.000000000000000000, 0.000000000000000000 ) ) ;
#141 = LINE ( 'NONE', #214, #165 ) ;
#142 = ADVANCED_FACE ( 'NONE', ( #270 ), #179, .F. ) ;
#143 = ORIENTED_EDGE ( 'NONE', *, *, #136, .F. ) ;
#144 = CARTESIAN_POINT ( 'NONE',  ( -7.900000000000000355, -8.400000000000002132, 6.600000000000000533 ) ) ;
#145 = VECTOR ( 'NONE', #303, 100.0000000000000000 ) ;
#146 = CARTESIAN_POINT ( 'NONE',  ( 8.000000000000000000, 8.000000000000000000, 6.600000000000000533 ) ) ;
#147 = PRODUCT_CONTEXT ( 'NONE', #983, 'mechanical' ) ;
#148 = VECTOR ( 'NONE', #328, 100.0000000000000000 ) ;
#149 = AXIS2_PLACEMENT_3D ( 'NONE', #61, #612, #855 ) ;
#150 = ORIENTED_EDGE ( 'NONE', *, *, #460, .F. ) ;
#151 = CARTESIAN_POINT ( 'NONE',  ( 8.400000000000000355, 8.400000000000002132, 0.000000000000000000 ) ) ;
#152 = DIRECTION ( 'NONE',  ( 0.000000000000000000, 1.000000000000000000, 0.000000000000000000 ) ) ;
#153 = EDGE_LOOP ( 'NONE', ( #3, #944, #603, #860 ) ) ;
#154 = EDGE_LOOP ( 'NONE', ( #633, #909, #247, #695 ) ) ;
#155 = CARTESIAN_POINT ( 'NONE',  ( -7.799999999999999822, -7.489999999999999325, 2.174999999999999822 ) ) ;
#156 = ADVANCED_FACE ( 'NONE', ( #415 ), #979, .T. ) ;
#157 = ORIENTED_EDGE ( 'NONE', *, *, #768, .T. ) ;
#158 = VERTEX_POINT ( 'NONE', #569 ) ;
#159 = CARTESIAN_POINT ( 'NONE',  ( 0.000000000000000000, 0.000000000000000000, 6.940000000000000391 ) ) ;
#160 = EDGE_CURVE ( 'NONE', #524, #449, #78, .T. ) ;
#161 = CIRCLE ( 'NONE', #275, 0.3100000000000005529 ) ;
#162 = LINE ( 'NONE', #407, #966 ) ;
#163 = AXIS2_PLACEMENT_3D ( 'NONE', #635, #9, #171 ) ;
#164 = VERTEX_POINT ( 'NONE', #329 ) ;
#165 = VECTOR ( 'NONE', #70, 100.0000000000000000 ) ;
#166 = DIRECTION ( 'NONE',  ( 0.000000000000000000, 1.000000000000000000, 0.000000000000000000 ) ) ;
#167 = CARTESIAN_POINT ( 'NONE',  ( -8.000000000000000000, 7.900000000000000355, 6.940000000000000391 ) ) ;
#168 = VERTEX_POINT ( 'NONE', #881 ) ;
#169 = CARTESIAN_POINT ( 'NONE',  ( -7.799999999999998934, 7.800000000000001599, 0.000000000000000000 ) ) ;
#170 = EDGE_CURVE ( 'NONE', #712, #643, #391, .T. ) ;
#171 = DIRECTION ( 'NONE',  ( 0.000000000000000000, 1.000000000000000000, 0.000000000000000000 ) ) ;
#172 = ORIENTED_EDGE ( 'NONE', *, *, #160, .F. ) ;
#173 = FACE_OUTER_BOUND ( 'NONE', #1000, .T. ) ;
#174 = CARTESIAN_POINT ( 'NONE',  ( -7.799999999999998934, 8.110000000000001208, 2.174999999999999822 ) ) ;
#175 = AXIS2_PLACEMENT_3D ( 'NONE', #739, #818, #876 ) ;
#176 = MANIFOLD_SOLID_BREP ( 'Fillet1', #453 ) ;
#177 = CIRCLE ( 'NONE', #197, 0.3100000000000005529 ) ;
#178 = CYLINDRICAL_SURFACE ( 'NONE', #175, 0.5000000000000004441 ) ;
#179 = PLANE ( 'NONE',  #591 ) ;
#180 = AXIS2_PLACEMENT_3D ( 'NONE', #288, #850, #51 ) ;
#181 = DIRECTION ( 'NONE',  ( 0.000000000000000000, 1.000000000000000000, 0.000000000000000000 ) ) ;
#182 = LINE ( 'NONE', #14, #840 ) ;
#183 = CYLINDRICAL_SURFACE ( 'NONE', #442, 0.3100000000000005529 ) ;
#184 = VERTEX_POINT ( 'NONE', #432 ) ;
#185 = ADVANCED_FACE ( 'NONE', ( #526 ), #97, .F. ) ;
#186 = DIRECTION ( 'NONE',  ( -1.000000000000000000, 0.000000000000000000, 0.000000000000000000 ) ) ;
#187 = CARTESIAN_POINT ( 'NONE',  ( 7.799999999999999822, -7.799999999999999822, 2.174999999999999822 ) ) ;
#188 = LINE ( 'NONE', #342, #231 ) ;
#189 = EDGE_LOOP ( 'NONE', ( #331, #464 ) ) ;
#190 = CARTESIAN_POINT ( 'NONE',  ( 7.799999999999999822, 7.489999999999999325, 2.174999999999999822 ) ) ;
#191 = ADVANCED_FACE ( 'NONE', ( #672 ), #752, .T. ) ;
#192 = CARTESIAN_POINT ( 'NONE',  ( 7.799999999999999822, 7.799999999999999822, 2.174999999999999822 ) ) ;
#193 = CARTESIAN_POINT ( 'NONE',  ( 8.400000000000000355, -7.899999999999998579, 6.600000000000000533 ) ) ;
#194 = VERTEX_POINT ( 'NONE', #919 ) ;
#195 = MECHANICAL_DESIGN_GEOMETRIC_PRESENTATION_REPRESENTATION (  '', ( #1002 ), #790 ) ;
#196 = DIRECTION ( 'NONE',  ( -1.000000000000000000, 0.000000000000000000, 0.000000000000000000 ) ) ;
#197 = AXIS2_PLACEMENT_3D ( 'NONE', #714, #943, #18 ) ;
#198 = VERTEX_POINT ( 'NONE', #600 ) ;
#199 = DIRECTION ( 'NONE',  ( 0.000000000000000000, -1.000000000000000000, 0.000000000000000000 ) ) ;
#200 = DIRECTION ( 'NONE',  ( 0.5773502691896257311, 0.5773502691896257311, 0.5773502691896257311 ) ) ;
#201 = ORIENTED_EDGE ( 'NONE', *, *, #43, .F. ) ;
#202 = DIRECTION ( 'NONE',  ( -1.850371707708594563E-16, 1.000000000000000000, 0.000000000000000000 ) ) ;
#203 = DIRECTION ( 'NONE',  ( 0.000000000000000000, 0.000000000000000000, -1.000000000000000000 ) ) ;
#204 = EDGE_CURVE ( 'NONE', #184, #927, #928, .T. ) ;
#205 = CARTESIAN_POINT ( 'NONE',  ( 7.799999999999999822, 8.110000000000001208, 2.174999999999999822 ) ) ;
#206 = EDGE_LOOP ( 'NONE', ( #343, #773, #548, #537 ) ) ;
#207 = CARTESIAN_POINT ( 'NONE',  ( -8.400000000000000355, -8.400000000000002132, 6.600000000000000533 ) ) ;
#208 = DIRECTION ( 'NONE',  ( 0.000000000000000000, -1.000000000000000000, 0.000000000000000000 ) ) ;
#209 = DIRECTION ( 'NONE',  ( 0.000000000000000000, 0.000000000000000000, -1.000000000000000000 ) ) ;
#210 = EDGE_LOOP ( 'NONE', ( #452, #77, #682, #814 ) ) ;
#211 = AXIS2_PLACEMENT_3D ( 'NONE', #791, #82, #396 ) ;
#212 = VECTOR ( 'NONE', #825, 100.0000000000000000 ) ;
#213 = CARTESIAN_POINT ( 'NONE',  ( 7.500000000000000000, -7.500000000000000000, 0.000000000000000000 ) ) ;
#214 = CARTESIAN_POINT ( 'NONE',  ( 7.500000000000000000, -7.499999999999995559, 6.940000000000000391 ) ) ;
#215 = ORIENTED_EDGE ( 'NONE', *, *, #932, .T. ) ;
#216 = CARTESIAN_POINT ( 'NONE',  ( 8.000000000000000000, -8.000000000000000000, 6.940000000000000391 ) ) ;
#217 = ORIENTED_EDGE ( 'NONE', *, *, #316, .T. ) ;
#218 = EDGE_CURVE ( 'NONE', #54, #289, #351, .T. ) ;
#219 =( NAMED_UNIT ( * ) SI_UNIT ( $, .STERADIAN. ) SOLID_ANGLE_UNIT ( ) );
#220 = ORIENTED_EDGE ( 'NONE', *, *, #279, .F. ) ;
#221 = CARTESIAN_POINT ( 'NONE',  ( 8.000000000000000000, -8.000000000000000000, 6.940000000000000391 ) ) ;
#222 = ORIENTED_EDGE ( 'NONE', *, *, #333, .T. ) ;
#223 = APPLICATION_CONTEXT ( 'automotive_design' ) ;
#224 = ADVANCED_FACE ( 'NONE', ( #276 ), #595, .F. ) ;
#225 = EDGE_LOOP ( 'NONE', ( #847, #31, #599, #63 ) ) ;
#226 = ORIENTED_EDGE ( 'NONE', *, *, #589, .T. ) ;
#227 = CYLINDRICAL_SURFACE ( 'NONE', #638, 0.5000000000000004441 ) ;
#228 = VECTOR ( 'NONE', #693, 100.0000000000000000 ) ;
#229 = CARTESIAN_POINT ( 'NONE',  ( -7.799999999999998934, 7.490000000000001101, 0.000000000000000000 ) ) ;
#230 = FACE_OUTER_BOUND ( 'NONE', #446, .T. ) ;
#231 = VECTOR ( 'NONE', #952, 100.0000000000000000 ) ;
#232 = EDGE_CURVE ( 'NONE', #80, #703, #903, .T. ) ;
#233 = ORIENTED_EDGE ( 'NONE', *, *, #218, .T. ) ;
#234 = CARTESIAN_POINT ( 'NONE',  ( -7.799999999999998934, 7.490000000000001101, 2.174999999999999822 ) ) ;
#235 = ORIENTED_EDGE ( 'NONE', *, *, #565, .T. ) ;
#236 = ORIENTED_EDGE ( 'NONE', *, *, #553, .F. ) ;
#237 = CARTESIAN_POINT ( 'NONE',  ( 8.000000000000000000, 8.000000000000000000, 6.839999999999999858 ) ) ;
#238 = DIRECTION ( 'NONE',  ( 0.000000000000000000, -1.000000000000000000, 0.000000000000000000 ) ) ;
#239 = ORIENTED_EDGE ( 'NONE', *, *, #746, .T. ) ;
#240 = PLANE ( 'NONE',  #718 ) ;
#241 = VERTEX_POINT ( 'NONE', #604 ) ;
#242 = CYLINDRICAL_SURFACE ( 'NONE', #163, 0.3100000000000005529 ) ;
#243 = VECTOR ( 'NONE', #353, 100.0000000000000000 ) ;
#244 = DIRECTION ( 'NONE',  ( 0.000000000000000000, -1.000000000000000000, 0.000000000000000000 ) ) ;
#245 = EDGE_CURVE ( 'NONE', #308, #35, #135, .T. ) ;
#246 = CARTESIAN_POINT ( 'NONE',  ( 7.900000000000000355, 7.900000000000000355, 6.940000000000000391 ) ) ;
#247 = ORIENTED_EDGE ( 'NONE', *, *, #57, .F. ) ;
#248 = DIRECTION ( 'NONE',  ( 0.000000000000000000, 1.000000000000000000, 0.000000000000000000 ) ) ;
#249 = FACE_OUTER_BOUND ( 'NONE', #225, .T. ) ;
#250 = ORIENTED_EDGE ( 'NONE', *, *, #531, .F. ) ;
#251 = CARTESIAN_POINT ( 'NONE',  ( -7.799999999999999822, -7.799999999999999822, 0.000000000000000000 ) ) ;
#252 = DIRECTION ( 'NONE',  ( 1.000000000000000000, 0.000000000000000000, 0.000000000000000000 ) ) ;
#253 = ORIENTED_EDGE ( 'NONE', *, *, #536, .T. ) ;
#254 = VECTOR ( 'NONE', #967, 100.0000000000000000 ) ;
#255 = FACE_OUTER_BOUND ( 'NONE', #27, .T. ) ;
#256 = AXIS2_PLACEMENT_3D ( 'NONE', #169, #722, #404 ) ;
#257 = EDGE_CURVE ( 'NONE', #198, #134, #41, .T. ) ;
#258 = CIRCLE ( 'NONE', #45, 0.3100000000000005529 ) ;
#259 = DIRECTION ( 'NONE',  ( 0.000000000000000000, -0.000000000000000000, -1.000000000000000000 ) ) ;
#260 = ORIENTED_EDGE ( 'NONE', *, *, #1016, .F. ) ;
#261 = LINE ( 'NONE', #20, #93 ) ;
#262 = VERTEX_POINT ( 'NONE', #450 ) ;
#263 = DIRECTION ( 'NONE',  ( -0.000000000000000000, 0.000000000000000000, 1.000000000000000000 ) ) ;
#264 = PLANE ( 'NONE',  #291 ) ;
#265 = ORIENTED_EDGE ( 'NONE', *, *, #29, .F. ) ;
#266 = EDGE_CURVE ( 'NONE', #865, #35, #447, .T. ) ;
#267 = PRESENTATION_STYLE_ASSIGNMENT (( #973 ) ) ;
#268 = VERTEX_POINT ( 'NONE', #519 ) ;
#269 = ORIENTED_EDGE ( 'NONE', *, *, #553, .T. ) ;
#270 = FACE_OUTER_BOUND ( 'NONE', #923, .T. ) ;
#271 = VERTEX_POINT ( 'NONE', #766 ) ;
#272 = DIRECTION ( 'NONE',  ( 0.000000000000000000, -1.000000000000000000, 0.000000000000000000 ) ) ;
#273 = CARTESIAN_POINT ( 'NONE',  ( -7.900000000000000355, 7.899999999999998579, 0.000000000000000000 ) ) ;
#274 = VERTEX_POINT ( 'NONE', #848 ) ;
#275 = AXIS2_PLACEMENT_3D ( 'NONE', #476, #796, #401 ) ;
#276 = FACE_OUTER_BOUND ( 'NONE', #622, .T. ) ;
#277 = AXIS2_PLACEMENT_3D ( 'NONE', #216, #846, #138 ) ;
#278 = PRODUCT_DEFINITION_FORMATION_WITH_SPECIFIED_SOURCE ( 'ANY', '', #471, .NOT_KNOWN. ) ;
#279 = EDGE_CURVE ( 'NONE', #72, #732, #837, .T. ) ;
#280 = CARTESIAN_POINT ( 'NONE',  ( -7.799999999999999822, -7.489999999999999325, 2.174999999999999822 ) ) ;
#281 = UNCERTAINTY_MEASURE_WITH_UNIT (LENGTH_MEASURE( 1.000000000000000082E-05 ), #386, 'distance_accuracy_value', 'NONE');
#282 = ORIENTED_EDGE ( 'NONE', *, *, #170, .T. ) ;
#283 = DIRECTION ( 'NONE',  ( 0.000000000000000000, 1.000000000000000000, 0.000000000000000000 ) ) ;
#284 = CARTESIAN_POINT ( 'NONE',  ( 5.266666666666666607, -5.266666666666666607, 9.573333333333334139 ) ) ;
#285 = DIRECTION ( 'NONE',  ( 0.000000000000000000, -1.000000000000000000, 0.000000000000000000 ) ) ;
#286 = ORIENTED_EDGE ( 'NONE', *, *, #730, .F. ) ;
#287 = CARTESIAN_POINT ( 'NONE',  ( 7.500000000000000000, 7.499999999999998224, 0.000000000000000000 ) ) ;
#288 = CARTESIAN_POINT ( 'NONE',  ( -7.799999999999998934, 7.800000000000001599, 2.174999999999999822 ) ) ;
#289 = VERTEX_POINT ( 'NONE', #49 ) ;
#290 = EDGE_CURVE ( 'NONE', #643, #431, #55, .T. ) ;
#291 = AXIS2_PLACEMENT_3D ( 'NONE', #568, #480, #727 ) ;
#292 = PLANE ( 'NONE',  #822 ) ;
#293 = EDGE_LOOP ( 'NONE', ( #725, #715, #567, #409 ) ) ;
#294 = EDGE_CURVE ( 'NONE', #524, #308, #1001, .T. ) ;
#295 = CARTESIAN_POINT ( 'NONE',  ( -7.799999999999998934, 7.800000000000001599, 0.000000000000000000 ) ) ;
#296 = SHAPE_DEFINITION_REPRESENTATION ( #945, #397 ) ;
#297 = VERTEX_POINT ( 'NONE', #540 ) ;
#298 = CARTESIAN_POINT ( 'NONE',  ( 5.266666666666666607, 5.266666666666666607, 9.573333333333334139 ) ) ;
#299 = FACE_OUTER_BOUND ( 'NONE', #550, .T. ) ;
#300 = LINE ( 'NONE', #67, #98 ) ;
#301 = ORIENTED_EDGE ( 'NONE', *, *, #610, .F. ) ;
#302 = EDGE_LOOP ( 'NONE', ( #215, #588, #92, #901 ) ) ;
#303 = DIRECTION ( 'NONE',  ( 0.000000000000000000, 0.000000000000000000, -1.000000000000000000 ) ) ;
#304 = VECTOR ( 'NONE', #771, 100.0000000000000000 ) ;
#305 = VECTOR ( 'NONE', #200, 100.0000000000000000 ) ;
#306 = ADVANCED_FACE ( 'NONE', ( #309, #454 ), #777, .T. ) ;
#307 = ORIENTED_EDGE ( 'NONE', *, *, #565, .F. ) ;
#308 = VERTEX_POINT ( 'NONE', #713 ) ;
#309 = FACE_OUTER_BOUND ( 'NONE', #293, .T. ) ;
#310 = CARTESIAN_POINT ( 'NONE',  ( 7.500000000000000000, -7.500000000000000000, 0.000000000000000000 ) ) ;
#311 = VERTEX_POINT ( 'NONE', #549 ) ;
#312 = EDGE_CURVE ( 'NONE', #576, #164, #930, .T. ) ;
#313 = CARTESIAN_POINT ( 'NONE',  ( 8.000000000000000000, -8.000000000000000000, 6.940000000000000391 ) ) ;
#314 = DIRECTION ( 'NONE',  ( 0.000000000000000000, 1.000000000000000000, 0.000000000000000000 ) ) ;
#315 = ORIENTED_EDGE ( 'NONE', *, *, #737, .T. ) ;
#316 = EDGE_CURVE ( 'NONE', #194, #521, #785, .T. ) ;
#317 = AXIS2_PLACEMENT_3D ( 'NONE', #893, #497, #252 ) ;
#318 = AXIS2_PLACEMENT_3D ( 'NONE', #433, #512, #754 ) ;
#319 = ORIENTED_EDGE ( 'NONE', *, *, #717, .T. ) ;
#320 = DIRECTION ( 'NONE',  ( 0.000000000000000000, 0.000000000000000000, -1.000000000000000000 ) ) ;
#321 = EDGE_CURVE ( 'NONE', #641, #1007, #858, .T. ) ;
#322 = LINE ( 'NONE', #399, #706 ) ;
#323 = ORIENTED_EDGE ( 'NONE', *, *, #491, .F. ) ;
#324 = FACE_OUTER_BOUND ( 'NONE', #835, .T. ) ;
#325 = DIRECTION ( 'NONE',  ( 1.000000000000000000, 1.850371707708594563E-16, 0.000000000000000000 ) ) ;
#326 = EDGE_CURVE ( 'NONE', #826, #897, #938, .T. ) ;
#327 = CYLINDRICAL_SURFACE ( 'NONE', #336, 0.3100000000000005529 ) ;
#328 = DIRECTION ( 'NONE',  ( -0.000000000000000000, 0.000000000000000000, 1.000000000000000000 ) ) ;
#329 = CARTESIAN_POINT ( 'NONE',  ( 7.799999999999999822, 8.110000000000001208, 0.000000000000000000 ) ) ;
#330 = ORIENTED_EDGE ( 'NONE', *, *, #836, .F. ) ;
#331 = ORIENTED_EDGE ( 'NONE', *, *, #436, .F. ) ;
#332 = AXIS2_PLACEMENT_3D ( 'NONE', #462, #864, #854 ) ;
#333 = EDGE_CURVE ( 'NONE', #268, #897, #24, .T. ) ;
#334 = LINE ( 'NONE', #118, #756 ) ;
#335 = AXIS2_PLACEMENT_3D ( 'NONE', #8, #624, #637 ) ;
#336 = AXIS2_PLACEMENT_3D ( 'NONE', #649, #961, #22 ) ;
#337 = CARTESIAN_POINT ( 'NONE',  ( 8.400000000000000355, 7.899999999999995914, 6.600000000000000533 ) ) ;
#338 = ORIENTED_EDGE ( 'NONE', *, *, #536, .F. ) ;
#339 = DIRECTION ( 'NONE',  ( 1.000000000000000000, 1.652117596168387756E-16, 0.000000000000000000 ) ) ;
#340 = EDGE_LOOP ( 'NONE', ( #496, #765, #479, #917 ) ) ;
#341 = PLANE ( 'NONE',  #594 ) ;
#342 = CARTESIAN_POINT ( 'NONE',  ( 8.000000000000000000, -8.000000000000000000, 6.600000000000000533 ) ) ;
#343 = ORIENTED_EDGE ( 'NONE', *, *, #257, .F. ) ;
#344 = EDGE_CURVE ( 'NONE', #297, #729, #1010, .T. ) ;
#345 = DIRECTION ( 'NONE',  ( -1.000000000000000000, 0.000000000000000000, 0.000000000000000000 ) ) ;
#346 = DIRECTION ( 'NONE',  ( 0.000000000000000000, 1.000000000000000000, 0.000000000000000000 ) ) ;
#347 = DIRECTION ( 'NONE',  ( 1.000000000000000000, 1.850371707708594563E-16, 0.000000000000000000 ) ) ;
#348 = DIRECTION ( 'NONE',  ( 0.000000000000000000, -1.000000000000000000, 0.000000000000000000 ) ) ;
#349 = EDGE_LOOP ( 'NONE', ( #656, #485, #856, #937 ) ) ;
#350 = EDGE_CURVE ( 'NONE', #750, #729, #780, .T. ) ;
#351 = LINE ( 'NONE', #374, #821 ) ;
#352 = CARTESIAN_POINT ( 'NONE',  ( -7.799999999999998934, 7.800000000000001599, 2.174999999999999822 ) ) ;
#353 = DIRECTION ( 'NONE',  ( 1.000000000000000000, 1.652117596168387756E-16, 0.000000000000000000 ) ) ;
#354 = AXIS2_PLACEMENT_3D ( 'NONE', #843, #760, #683 ) ;
#355 = VERTEX_POINT ( 'NONE', #234 ) ;
#356 = VECTOR ( 'NONE', #902, 100.0000000000000000 ) ;
#357 = CARTESIAN_POINT ( 'NONE',  ( -8.400000000000000355, -8.400000000000002132, 6.600000000000000533 ) ) ;
#358 = VECTOR ( 'NONE', #16, 100.0000000000000000 ) ;
#359 = DIRECTION ( 'NONE',  ( 1.000000000000000000, 0.000000000000000000, 0.000000000000000000 ) ) ;
#360 = LINE ( 'NONE', #834, #212 ) ;
#361 = UNCERTAINTY_MEASURE_WITH_UNIT (LENGTH_MEASURE( 1.000000000000000082E-05 ), #114, 'distance_accuracy_value', 'NONE');
#362 = VERTEX_POINT ( 'NONE', #699 ) ;
#363 = DIRECTION ( 'NONE',  ( 0.000000000000000000, 0.000000000000000000, -1.000000000000000000 ) ) ;
#364 = CARTESIAN_POINT ( 'NONE',  ( 7.900000000000000355, 7.900000000000001243, 6.600000000000000533 ) ) ;
#365 = ADVANCED_FACE ( 'NONE', ( #389 ), #227, .T. ) ;
#366 = EDGE_LOOP ( 'NONE', ( #831, #217, #686, #913 ) ) ;
#367 = CARTESIAN_POINT ( 'NONE',  ( -7.900000000000000355, 7.899999999999998579, 6.600000000000000533 ) ) ;
#368 = VERTEX_POINT ( 'NONE', #552 ) ;
#369 = CARTESIAN_POINT ( 'NONE',  ( 8.400000000000000355, -8.399999999999998579, 6.600000000000000533 ) ) ;
#370 = CARTESIAN_POINT ( 'NONE',  ( -8.400000000000000355, -7.900000000000001243, 0.000000000000000000 ) ) ;
#371 = EDGE_CURVE ( 'NONE', #297, #732, #384, .T. ) ;
#372 = CARTESIAN_POINT ( 'NONE',  ( 7.900000000000000355, 0.000000000000000000, 6.940000000000000391 ) ) ;
#373 = ORIENTED_EDGE ( 'NONE', *, *, #723, .T. ) ;
#374 = CARTESIAN_POINT ( 'NONE',  ( 7.500000000000000000, 7.499999999999995559, 6.940000000000000391 ) ) ;
#375 = VECTOR ( 'NONE', #325, 100.0000000000000000 ) ;
#376 = AXIS2_PLACEMENT_3D ( 'NONE', #47, #994, #764 ) ;
#377 = VECTOR ( 'NONE', #272, 100.0000000000000000 ) ;
#378 = CARTESIAN_POINT ( 'NONE',  ( 7.900000000000000355, 7.900000000000001243, 6.600000000000000533 ) ) ;
#379 = EDGE_LOOP ( 'NONE', ( #989, #112, #220, #627 ) ) ;
#380 = DIRECTION ( 'NONE',  ( 0.000000000000000000, 0.000000000000000000, -1.000000000000000000 ) ) ;
#381 = FACE_OUTER_BOUND ( 'NONE', #795, .T. ) ;
#382 = ORIENTED_EDGE ( 'NONE', *, *, #2, .F. ) ;
#383 = ORIENTED_EDGE ( 'NONE', *, *, #218, .F. ) ;
#384 = LINE ( 'NONE', #1014, #145 ) ;
#385 = ADVANCED_FACE ( 'NONE', ( #867 ), #470, .F. ) ;
#386 =( LENGTH_UNIT ( ) NAMED_UNIT ( * ) SI_UNIT ( .CENTI., .METRE. ) );
#387 = VERTEX_POINT ( 'NONE', #4 ) ;
#388 = ORIENTED_EDGE ( 'NONE', *, *, #700, .T. ) ;
#389 = FACE_OUTER_BOUND ( 'NONE', #154, .T. ) ;
#390 = AXIS2_PLACEMENT_3D ( 'NONE', #90, #894, #498 ) ;
#391 = CIRCLE ( 'NONE', #130, 0.5000000000000004441 ) ;
#392 = VECTOR ( 'NONE', #711, 100.0000000000000000 ) ;
#393 = EDGE_CURVE ( 'NONE', #387, #168, #710, .T. ) ;
#394 = AXIS2_PLACEMENT_3D ( 'NONE', #364, #859, #997 ) ;
#395 = ORIENTED_EDGE ( 'NONE', *, *, #279, .T. ) ;
#396 = DIRECTION ( 'NONE',  ( 1.000000000000000000, 0.000000000000000000, 0.000000000000000000 ) ) ;
#397 = ADVANCED_BREP_SHAPE_REPRESENTATION ( 'elevated-cell_62', ( #176, #1005 ), #543 ) ;
#398 = ADVANCED_FACE ( 'NONE', ( #941 ), #240, .T. ) ;
#399 = CARTESIAN_POINT ( 'NONE',  ( -8.000000000000000000, -8.000000000000000000, 6.600000000000000533 ) ) ;
#400 = ORIENTED_EDGE ( 'NONE', *, *, #294, .T. ) ;
#401 = DIRECTION ( 'NONE',  ( 0.000000000000000000, 1.000000000000000000, 0.000000000000000000 ) ) ;
#402 = DIRECTION ( 'NONE',  ( -1.000000000000000000, 0.000000000000000000, 0.000000000000000000 ) ) ;
#403 = ORIENTED_EDGE ( 'NONE', *, *, #326, .T. ) ;
#404 = DIRECTION ( 'NONE',  ( 0.000000000000000000, 1.000000000000000000, 0.000000000000000000 ) ) ;
#405 = LINE ( 'NONE', #190, #254 ) ;
#406 = CIRCLE ( 'NONE', #541, 0.3100000000000005529 ) ;
#407 = CARTESIAN_POINT ( 'NONE',  ( -8.000000000000000000, 8.000000000000000000, 6.839999999999999858 ) ) ;
#408 = VECTOR ( 'NONE', #817, 100.0000000000000000 ) ;
#409 = ORIENTED_EDGE ( 'NONE', *, *, #117, .T. ) ;
#410 = EDGE_CURVE ( 'NONE', #48, #982, #161, .T. ) ;
#411 = CARTESIAN_POINT ( 'NONE',  ( -7.500000000000000000, -7.500000000000002665, 0.000000000000000000 ) ) ;
#412 = EDGE_LOOP ( 'NONE', ( #323, #971 ) ) ;
#413 = LINE ( 'NONE', #174, #131 ) ;
#414 = FACE_BOUND ( 'NONE', #127, .T. ) ;
#415 = FACE_OUTER_BOUND ( 'NONE', #210, .T. ) ;
#416 = FACE_OUTER_BOUND ( 'NONE', #702, .T. ) ;
#417 = EDGE_CURVE ( 'NONE', #368, #262, #406, .T. ) ;
#418 = LINE ( 'NONE', #869, #736 ) ;
#419 = CARTESIAN_POINT ( 'NONE',  ( -8.000000000000000000, -8.000000000000000000, 6.839999999999999858 ) ) ;
#420 = ORIENTED_EDGE ( 'NONE', *, *, #204, .T. ) ;
#421 = CARTESIAN_POINT ( 'NONE',  ( -7.900000000000000355, -8.000000000000000000, 6.940000000000000391 ) ) ;
#422 = ADVANCED_FACE ( 'NONE', ( #11 ), #178, .T. ) ;
#423 = AXIS2_PLACEMENT_3D ( 'NONE', #502, #631, #582 ) ;
#424 = VECTOR ( 'NONE', #566, 100.0000000000000000 ) ;
#425 = CARTESIAN_POINT ( 'NONE',  ( -8.000000000000000000, -8.000000000000000000, 6.940000000000000391 ) ) ;
#426 = EDGE_LOOP ( 'NONE', ( #648, #482 ) ) ;
#427 = CARTESIAN_POINT ( 'NONE',  ( 7.799999999999999822, -7.489999999999999325, 2.174999999999999822 ) ) ;
#428 = CARTESIAN_POINT ( 'NONE',  ( 8.400000000000000355, -8.399999999999998579, 6.600000000000000533 ) ) ;
#429 = EDGE_CURVE ( 'NONE', #198, #271, #575, .T. ) ;
#430 = DIRECTION ( 'NONE',  ( 0.7071067811865475727, 0.000000000000000000, 0.7071067811865475727 ) ) ;
#431 = VERTEX_POINT ( 'NONE', #337 ) ;
#432 = CARTESIAN_POINT ( 'NONE',  ( -7.500000000000000000, -7.500000000000002665, 0.000000000000000000 ) ) ;
#433 = CARTESIAN_POINT ( 'NONE',  ( 0.000000000000000000, 0.000000000000000000, 6.600000000000000533 ) ) ;
#434 = CARTESIAN_POINT ( 'NONE',  ( 7.500000000000000000, 7.499999999999998224, 0.000000000000000000 ) ) ;
#435 = EDGE_LOOP ( 'NONE', ( #87, #508, #253, #964 ) ) ;
#436 = EDGE_CURVE ( 'NONE', #703, #80, #704, .T. ) ;
#437 =( NAMED_UNIT ( * ) SI_UNIT ( $, .STERADIAN. ) SOLID_ANGLE_UNIT ( ) );
#438 = FACE_BOUND ( 'NONE', #379, .T. ) ;
#439 = LINE ( 'NONE', #448, #558 ) ;
#440 = VECTOR ( 'NONE', #196, 100.0000000000000000 ) ;
#441 = EDGE_LOOP ( 'NONE', ( #150, #319, #560, #646 ) ) ;
#442 = AXIS2_PLACEMENT_3D ( 'NONE', #665, #808, #248 ) ;
#443 = ADVANCED_FACE ( 'NONE', ( #490, #962, #579, #414, #660, #173 ), #264, .F. ) ;
#444 = CARTESIAN_POINT ( 'NONE',  ( -7.900000000000000355, -7.900000000000001243, 6.600000000000000533 ) ) ;
#445 = FACE_OUTER_BOUND ( 'NONE', #426, .T. ) ;
#446 = EDGE_LOOP ( 'NONE', ( #235, #956, #84, #1013 ) ) ;
#447 = LINE ( 'NONE', #990, #304 ) ;
#448 = CARTESIAN_POINT ( 'NONE',  ( -7.500000000000000000, -7.499999999999995559, 6.940000000000000391 ) ) ;
#449 = VERTEX_POINT ( 'NONE', #19 ) ;
#450 = CARTESIAN_POINT ( 'NONE',  ( 7.799999999999999822, -8.110000000000001208, 0.000000000000000000 ) ) ;
#451 = DIRECTION ( 'NONE',  ( 0.000000000000000000, 1.000000000000000000, 0.000000000000000000 ) ) ;
#452 = ORIENTED_EDGE ( 'NONE', *, *, #350, .T. ) ;
#453 = CLOSED_SHELL ( 'NONE', ( #978, #7, #804, #499, #861, #185, #1011, #109, #142, #443, #992, #619, #781, #398, #691, #191, #844, #597, #88, #224, #74, #904, #306, #477, #628, #659, #385, #809, #581, #998, #156, #422, #365, #124, #972 ) ) ;
#454 = FACE_BOUND ( 'NONE', #763, .T. ) ;
#455 = VECTOR ( 'NONE', #380, 100.0000000000000000 ) ;
#456 = AXIS2_PLACEMENT_3D ( 'NONE', #640, #874, #801 ) ;
#457 = PLANE ( 'NONE',  #774 ) ;
#458 = APPLICATION_PROTOCOL_DEFINITION ( 'draft international standard', 'automotive_design', 1998, #223 ) ;
#459 = ORIENTED_EDGE ( 'NONE', *, *, #312, .F. ) ;
#460 = EDGE_CURVE ( 'NONE', #355, #60, #887, .T. ) ;
#461 = DIRECTION ( 'NONE',  ( 0.5773502691896257311, 0.5773502691896257311, -0.5773502691896257311 ) ) ;
#462 = CARTESIAN_POINT ( 'NONE',  ( 7.799999999999999822, 7.799999999999999822, 2.174999999999999822 ) ) ;
#463 = DIRECTION ( 'NONE',  ( 0.000000000000000000, -1.000000000000000000, 0.000000000000000000 ) ) ;
#464 = ORIENTED_EDGE ( 'NONE', *, *, #232, .F. ) ;
#465 = ORIENTED_EDGE ( 'NONE', *, *, #868, .F. ) ;
#466 = EDGE_CURVE ( 'NONE', #362, #289, #970, .T. ) ;
#467 = DIRECTION ( 'NONE',  ( 0.000000000000000000, 0.000000000000000000, -1.000000000000000000 ) ) ;
#468 = ORIENTED_EDGE ( 'NONE', *, *, #312, .T. ) ;
#469 = ORIENTED_EDGE ( 'NONE', *, *, #410, .T. ) ;
#470 = PLANE ( 'NONE',  #211 ) ;
#471 = PRODUCT ( 'elevated-cell_62', 'elevated-cell_62', '', ( #147 ) ) ;
#472 = AXIS2_PLACEMENT_3D ( 'NONE', #287, #202, #515 ) ;
#473 = EDGE_CURVE ( 'NONE', #501, #168, #188, .T. ) ;
#474 = CIRCLE ( 'NONE', #792, 0.5000000000000004441 ) ;
#475 = ORIENTED_EDGE ( 'NONE', *, *, #761, .F. ) ;
#476 = CARTESIAN_POINT ( 'NONE',  ( 7.799999999999999822, -7.799999999999999822, 2.174999999999999822 ) ) ;
#477 = ADVANCED_FACE ( 'NONE', ( #111 ), #94, .F. ) ;
#478 = FACE_OUTER_BOUND ( 'NONE', #1020, .T. ) ;
#479 = ORIENTED_EDGE ( 'NONE', *, *, #644, .T. ) ;
#480 = DIRECTION ( 'NONE',  ( 0.000000000000000000, 0.000000000000000000, 1.000000000000000000 ) ) ;
#481 = CARTESIAN_POINT ( 'NONE',  ( -7.799999999999998934, 7.490000000000001101, 2.174999999999999822 ) ) ;
#482 = ORIENTED_EDGE ( 'NONE', *, *, #761, .T. ) ;
#483 = CARTESIAN_POINT ( 'NONE',  ( -8.000000000000000000, -8.000000000000000000, 6.600000000000000533 ) ) ;
#484 = DIRECTION ( 'NONE',  ( 0.000000000000000000, 0.000000000000000000, 1.000000000000000000 ) ) ;
#485 = ORIENTED_EDGE ( 'NONE', *, *, #797, .F. ) ;
#486 = VECTOR ( 'NONE', #140, 100.0000000000000000 ) ;
#487 = DIRECTION ( 'NONE',  ( 0.000000000000000000, 0.000000000000000000, -1.000000000000000000 ) ) ;
#488 = AXIS2_PLACEMENT_3D ( 'NONE', #425, #30, #716 ) ;
#489 = ORIENTED_EDGE ( 'NONE', *, *, #204, .F. ) ;
#490 = FACE_BOUND ( 'NONE', #153, .T. ) ;
#491 = EDGE_CURVE ( 'NONE', #897, #268, #44, .T. ) ;
#492 = CARTESIAN_POINT ( 'NONE',  ( -8.400000000000000355, -7.900000000000001243, 6.600000000000000533 ) ) ;
#493 = CYLINDRICAL_SURFACE ( 'NONE', #1015, 0.3100000000000005529 ) ;
#494 = DIRECTION ( 'NONE',  ( -0.000000000000000000, 0.000000000000000000, 1.000000000000000000 ) ) ;
#495 = CARTESIAN_POINT ( 'NONE',  ( -7.799999999999999822, -7.799999999999999822, 2.174999999999999822 ) ) ;
#496 = ORIENTED_EDGE ( 'NONE', *, *, #290, .F. ) ;
#497 = DIRECTION ( 'NONE',  ( -0.000000000000000000, 0.7071067811865475727, 0.7071067811865475727 ) ) ;
#498 = DIRECTION ( 'NONE',  ( 0.000000000000000000, 1.000000000000000000, 0.000000000000000000 ) ) ;
#499 = ADVANCED_FACE ( 'NONE', ( #324 ), #183, .F. ) ;
#500 = CARTESIAN_POINT ( 'NONE',  ( -7.799999999999999822, -7.489999999999999325, 0.000000000000000000 ) ) ;
#501 = VERTEX_POINT ( 'NONE', #483 ) ;
#502 = CARTESIAN_POINT ( 'NONE',  ( 7.900000000000000355, -7.899999999999998579, 6.600000000000000533 ) ) ;
#503 = CARTESIAN_POINT ( 'NONE',  ( 8.400000000000000355, 7.900000000000001243, 6.600000000000000533 ) ) ;
#504 = EDGE_CURVE ( 'NONE', #1007, #54, #101, .T. ) ;
#505 = DIRECTION ( 'NONE',  ( 0.000000000000000000, 0.000000000000000000, -1.000000000000000000 ) ) ;
#506 = VECTOR ( 'NONE', #467, 100.0000000000000000 ) ;
#507 = LINE ( 'NONE', #852, #572 ) ;
#508 = ORIENTED_EDGE ( 'NONE', *, *, #136, .T. ) ;
#509 = PLANE ( 'NONE',  #985 ) ;
#510 = CARTESIAN_POINT ( 'NONE',  ( 7.500000000000000000, 7.499999999999995559, 6.940000000000000391 ) ) ;
#511 = EDGE_CURVE ( 'NONE', #826, #158, #935, .T. ) ;
#512 = DIRECTION ( 'NONE',  ( 0.000000000000000000, 0.000000000000000000, 1.000000000000000000 ) ) ;
#513 = DIRECTION ( 'NONE',  ( -0.000000000000000000, -0.000000000000000000, -1.000000000000000000 ) ) ;
#514 = VERTEX_POINT ( 'NONE', #419 ) ;
#515 = DIRECTION ( 'NONE',  ( -1.000000000000000000, -1.850371707708594563E-16, 0.000000000000000000 ) ) ;
#516 = DIRECTION ( 'NONE',  ( 0.000000000000000000, 0.000000000000000000, -1.000000000000000000 ) ) ;
#517 = EDGE_LOOP ( 'NONE', ( #469, #663 ) ) ;
#518 = EDGE_CURVE ( 'NONE', #297, #623, #976, .T. ) ;
#519 = CARTESIAN_POINT ( 'NONE',  ( -7.799999999999999822, -8.110000000000001208, 0.000000000000000000 ) ) ;
#520 = DIRECTION ( 'NONE',  ( 0.5773502691896257311, -0.5773502691896257311, -0.5773502691896257311 ) ) ;
#521 = VERTEX_POINT ( 'NONE', #119 ) ;
#522 = VECTOR ( 'NONE', #346, 100.0000000000000000 ) ;
#523 = DIRECTION ( 'NONE',  ( 0.000000000000000000, 0.000000000000000000, 1.000000000000000000 ) ) ;
#524 = VERTEX_POINT ( 'NONE', #769 ) ;
#525 = PRODUCT_DEFINITION ( 'UNKNOWN', '', #278, #758 ) ;
#526 = FACE_OUTER_BOUND ( 'NONE', #206, .T. ) ;
#527 = ORIENTED_EDGE ( 'NONE', *, *, #615, .F. ) ;
#528 = PLANE ( 'NONE',  #1019 ) ;
#529 = ORIENTED_EDGE ( 'NONE', *, *, #117, .F. ) ;
#530 = CARTESIAN_POINT ( 'NONE',  ( -7.500000000000000000, -7.500000000000002665, 0.000000000000000000 ) ) ;
#531 = EDGE_CURVE ( 'NONE', #521, #52, #757, .T. ) ;
#532 = DIRECTION ( 'NONE',  ( 0.000000000000000000, -1.000000000000000000, 0.000000000000000000 ) ) ;
#533 = DIRECTION ( 'NONE',  ( -1.000000000000000000, 0.000000000000000000, 0.000000000000000000 ) ) ;
#534 = ORIENTED_EDGE ( 'NONE', *, *, #892, .T. ) ;
#535 = CYLINDRICAL_SURFACE ( 'NONE', #180, 0.3100000000000005529 ) ;
#536 = EDGE_CURVE ( 'NONE', #514, #501, #360, .T. ) ;
#537 = ORIENTED_EDGE ( 'NONE', *, *, #877, .T. ) ;
#538 = DIRECTION ( 'NONE',  ( 0.000000000000000000, -1.000000000000000000, 0.000000000000000000 ) ) ;
#539 = ORIENTED_EDGE ( 'NONE', *, *, #491, .T. ) ;
#540 = CARTESIAN_POINT ( 'NONE',  ( -8.000000000000000000, 8.000000000000000000, 6.839999999999999858 ) ) ;
#541 = AXIS2_PLACEMENT_3D ( 'NONE', #650, #563, #89 ) ;
#542 = VECTOR ( 'NONE', #38, 100.0000000000000000 ) ;
#543 =( GEOMETRIC_REPRESENTATION_CONTEXT ( 3 ) GLOBAL_UNCERTAINTY_ASSIGNED_CONTEXT ( ( #281 ) ) GLOBAL_UNIT_ASSIGNED_CONTEXT ( ( #386, #701, #219 ) ) REPRESENTATION_CONTEXT ( 'NONE', 'WORKASPACE' ) );
#544 = FACE_OUTER_BOUND ( 'NONE', #580, .T. ) ;
#545 = DIRECTION ( 'NONE',  ( -0.7071067811865475727, 0.000000000000000000, 0.7071067811865475727 ) ) ;
#546 = ORIENTED_EDGE ( 'NONE', *, *, #751, .T. ) ;
#547 = EDGE_CURVE ( 'NONE', #289, #927, #439, .T. ) ;
#548 = ORIENTED_EDGE ( 'NONE', *, *, #918, .T. ) ;
#549 = CARTESIAN_POINT ( 'NONE',  ( 7.799999999999999822, 7.489999999999999325, 0.000000000000000000 ) ) ;
#550 = EDGE_LOOP ( 'NONE', ( #775, #851, #787, #651 ) ) ;
#551 = ORIENTED_EDGE ( 'NONE', *, *, #290, .T. ) ;
#552 = CARTESIAN_POINT ( 'NONE',  ( 7.799999999999999822, -7.489999999999999325, 0.000000000000000000 ) ) ;
#553 = EDGE_CURVE ( 'NONE', #865, #524, #912, .T. ) ;
#554 = CARTESIAN_POINT ( 'NONE',  ( -8.000000000000000000, -8.000000000000000000, 6.839999999999999858 ) ) ;
#555 = CARTESIAN_POINT ( 'NONE',  ( 7.900000000000000355, -8.399999999999998579, 6.600000000000000533 ) ) ;
#556 = CARTESIAN_POINT ( 'NONE',  ( 7.799999999999999822, -7.799999999999999822, 2.174999999999999822 ) ) ;
#557 = VECTOR ( 'NONE', #678, 100.0000000000000000 ) ;
#558 = VECTOR ( 'NONE', #348, 100.0000000000000000 ) ;
#559 = LINE ( 'NONE', #167, #872 ) ;
#560 = ORIENTED_EDGE ( 'NONE', *, *, #232, .T. ) ;
#561 = DIRECTION ( 'NONE',  ( -0.000000000000000000, -0.000000000000000000, 1.000000000000000000 ) ) ;
#562 = ORIENTED_EDGE ( 'NONE', *, *, #160, .T. ) ;
#563 = DIRECTION ( 'NONE',  ( 0.000000000000000000, 0.000000000000000000, -1.000000000000000000 ) ) ;
#564 = EDGE_LOOP ( 'NONE', ( #593, #995 ) ) ;
#565 = EDGE_CURVE ( 'NONE', #514, #614, #126, .T. ) ;
#566 = DIRECTION ( 'NONE',  ( 0.000000000000000000, 0.000000000000000000, -1.000000000000000000 ) ) ;
#567 = ORIENTED_EDGE ( 'NONE', *, *, #948, .T. ) ;
#568 = CARTESIAN_POINT ( 'NONE',  ( 0.000000000000000000, 0.000000000000000000, 0.000000000000000000 ) ) ;
#569 = CARTESIAN_POINT ( 'NONE',  ( -7.799999999999999822, -8.110000000000001208, 2.174999999999999822 ) ) ;
#570 = CARTESIAN_POINT ( 'NONE',  ( 7.799999999999999822, 7.799999999999999822, 0.000000000000000000 ) ) ;
#571 = AXIS2_PLACEMENT_3D ( 'NONE', #159, #936, #244 ) ;
#572 = VECTOR ( 'NONE', #613, 100.0000000000000000 ) ;
#573 = PLANE ( 'NONE',  #986 ) ;
#574 = VECTOR ( 'NONE', #520, 100.0000000000000000 ) ;
#575 = LINE ( 'NONE', #880, #753 ) ;
#576 = VERTEX_POINT ( 'NONE', #205 ) ;
#577 = CARTESIAN_POINT ( 'NONE',  ( 8.000000000000000000, -7.900000000000000355, 6.940000000000000391 ) ) ;
#578 = LINE ( 'NONE', #121, #657 ) ;
#579 = FACE_BOUND ( 'NONE', #6, .T. ) ;
#580 = EDGE_LOOP ( 'NONE', ( #21, #666, #489, #740 ) ) ;
#581 = ADVANCED_FACE ( 'NONE', ( #59 ), #528, .T. ) ;
#582 = DIRECTION ( 'NONE',  ( 0.000000000000000000, 1.000000000000000000, 0.000000000000000000 ) ) ;
#583 = CARTESIAN_POINT ( 'NONE',  ( 7.799999999999999822, 7.799999999999999822, 2.174999999999999822 ) ) ;
#584 = DIRECTION ( 'NONE',  ( 0.000000000000000000, 0.000000000000000000, -1.000000000000000000 ) ) ;
#585 = PLANE ( 'NONE',  #376 ) ;
#586 = ORIENTED_EDGE ( 'NONE', *, *, #371, .T. ) ;
#587 = CARTESIAN_POINT ( 'NONE',  ( 8.400000000000000355, -8.399999999999998579, 6.600000000000000533 ) ) ;
#588 = ORIENTED_EDGE ( 'NONE', *, *, #1008, .F. ) ;
#589 = EDGE_CURVE ( 'NONE', #271, #308, #96, .T. ) ;
#590 = LINE ( 'NONE', #669, #857 ) ;
#591 = AXIS2_PLACEMENT_3D ( 'NONE', #107, #958, #339 ) ;
#592 = AXIS2_PLACEMENT_3D ( 'NONE', #645, #955, #314 ) ;
#593 = ORIENTED_EDGE ( 'NONE', *, *, #708, .T. ) ;
#594 = AXIS2_PLACEMENT_3D ( 'NONE', #743, #906, #347 ) ;
#595 = PLANE ( 'NONE',  #472 ) ;
#596 = CYLINDRICAL_SURFACE ( 'NONE', #776, 0.3100000000000005529 ) ;
#597 = ADVANCED_FACE ( 'NONE', ( #122 ), #830, .T. ) ;
#598 = DIRECTION ( 'NONE',  ( 0.000000000000000000, -1.000000000000000000, 0.000000000000000000 ) ) ;
#599 = ORIENTED_EDGE ( 'NONE', *, *, #29, .T. ) ;
#600 = CARTESIAN_POINT ( 'NONE',  ( -8.400000000000000355, 7.899999999999993250, 6.600000000000000533 ) ) ;
#601 = DIRECTION ( 'NONE',  ( 0.000000000000000000, 0.000000000000000000, 1.000000000000000000 ) ) ;
#602 = CARTESIAN_POINT ( 'NONE',  ( 7.900000000000000355, 8.400000000000002132, 6.600000000000000533 ) ) ;
#603 = ORIENTED_EDGE ( 'NONE', *, *, #128, .T. ) ;
#604 = CARTESIAN_POINT ( 'NONE',  ( 7.799999999999999822, 7.489999999999999325, 2.174999999999999822 ) ) ;
#605 = CARTESIAN_POINT ( 'NONE',  ( -7.900000000000000355, 0.000000000000000000, 6.940000000000000391 ) ) ;
#606 = FACE_OUTER_BOUND ( 'NONE', #435, .T. ) ;
#607 = VECTOR ( 'NONE', #73, 100.0000000000000000 ) ;
#608 = ORIENTED_EDGE ( 'NONE', *, *, #621, .T. ) ;
#609 = CIRCLE ( 'NONE', #12, 0.5000000000000004441 ) ;
#610 = EDGE_CURVE ( 'NONE', #1007, #362, #908, .T. ) ;
#611 = CIRCLE ( 'NONE', #778, 0.3100000000000005529 ) ;
#612 = DIRECTION ( 'NONE',  ( -1.652117596168387756E-16, 1.000000000000000000, 0.000000000000000000 ) ) ;
#613 = DIRECTION ( 'NONE',  ( 0.000000000000000000, 1.000000000000000000, 0.000000000000000000 ) ) ;
#614 = VERTEX_POINT ( 'NONE', #749 ) ;
#615 = EDGE_CURVE ( 'NONE', #35, #198, #474, .T. ) ;
#616 = FACE_OUTER_BOUND ( 'NONE', #366, .T. ) ;
#617 = ORIENTED_EDGE ( 'NONE', *, *, #829, .T. ) ;
#618 = ORIENTED_EDGE ( 'NONE', *, *, #644, .F. ) ;
#619 = ADVANCED_FACE ( 'NONE', ( #445 ), #585, .T. ) ;
#620 = DIRECTION ( 'NONE',  ( 1.000000000000000000, 0.000000000000000000, 0.000000000000000000 ) ) ;
#621 = EDGE_CURVE ( 'NONE', #274, #52, #625, .T. ) ;
#622 = EDGE_LOOP ( 'NONE', ( #116, #233, #23, #301 ) ) ;
#623 = VERTEX_POINT ( 'NONE', #999 ) ;
#624 = DIRECTION ( 'NONE',  ( 0.000000000000000000, 0.000000000000000000, -1.000000000000000000 ) ) ;
#625 = CIRCLE ( 'NONE', #675, 0.5000000000000004441 ) ;
#626 = VECTOR ( 'NONE', #263, 100.0000000000000000 ) ;
#627 = ORIENTED_EDGE ( 'NONE', *, *, #768, .F. ) ;
#628 = ADVANCED_FACE ( 'NONE', ( #606 ), #924, .F. ) ;
#629 = ORIENTED_EDGE ( 'NONE', *, *, #266, .T. ) ;
#630 = DIRECTION ( 'NONE',  ( -1.000000000000000000, -1.652117596168387756E-16, 0.000000000000000000 ) ) ;
#631 = DIRECTION ( 'NONE',  ( 0.000000000000000000, 0.000000000000000000, -1.000000000000000000 ) ) ;
#632 = CARTESIAN_POINT ( 'NONE',  ( 7.900000000000000355, -7.900000000000000355, 6.940000000000000391 ) ) ;
#633 = ORIENTED_EDGE ( 'NONE', *, *, #942, .F. ) ;
#634 = DIRECTION ( 'NONE',  ( 0.000000000000000000, 0.000000000000000000, -1.000000000000000000 ) ) ;
#635 = CARTESIAN_POINT ( 'NONE',  ( 7.799999999999999822, 7.799999999999999822, 2.174999999999999822 ) ) ;
#636 = ORIENTED_EDGE ( 'NONE', *, *, #700, .F. ) ;
#637 = DIRECTION ( 'NONE',  ( 0.000000000000000000, 1.000000000000000000, 0.000000000000000000 ) ) ;
#638 = AXIS2_PLACEMENT_3D ( 'NONE', #69, #705, #1021 ) ;
#639 = VECTOR ( 'NONE', #676, 100.0000000000000000 ) ;
#640 = CARTESIAN_POINT ( 'NONE',  ( -7.799999999999998934, 7.800000000000001599, 2.174999999999999822 ) ) ;
#641 = VERTEX_POINT ( 'NONE', #900 ) ;
#642 = DIRECTION ( 'NONE',  ( 0.000000000000000000, 1.000000000000000000, 0.000000000000000000 ) ) ;
#643 = VERTEX_POINT ( 'NONE', #193 ) ;
#644 = EDGE_CURVE ( 'NONE', #274, #449, #507, .T. ) ;
#645 = CARTESIAN_POINT ( 'NONE',  ( 7.799999999999999822, -7.799999999999999822, 2.174999999999999822 ) ) ;
#646 = ORIENTED_EDGE ( 'NONE', *, *, #723, .F. ) ;
#647 = LINE ( 'NONE', #310, #375 ) ;
#648 = ORIENTED_EDGE ( 'NONE', *, *, #511, .T. ) ;
#649 = CARTESIAN_POINT ( 'NONE',  ( 7.799999999999999822, -7.799999999999999822, 2.174999999999999822 ) ) ;
#650 = CARTESIAN_POINT ( 'NONE',  ( 7.799999999999999822, -7.799999999999999822, 0.000000000000000000 ) ) ;
#651 = ORIENTED_EDGE ( 'NONE', *, *, #321, .F. ) ;
#652 = FILL_AREA_STYLE_COLOUR ( '', #674 ) ;
#653 = DIRECTION ( 'NONE',  ( 0.000000000000000000, 1.000000000000000000, 0.000000000000000000 ) ) ;
#654 = AXIS2_PLACEMENT_3D ( 'NONE', #13, #664, #786 ) ;
#655 = AXIS2_PLACEMENT_3D ( 'NONE', #728, #810, #827 ) ;
#656 = ORIENTED_EDGE ( 'NONE', *, *, #170, .F. ) ;
#657 = VECTOR ( 'NONE', #516, 100.0000000000000000 ) ;
#658 = FACE_OUTER_BOUND ( 'NONE', #759, .T. ) ;
#659 = ADVANCED_FACE ( 'NONE', ( #926 ), #292, .F. ) ;
#660 = FACE_BOUND ( 'NONE', #412, .T. ) ;
#661 = ORIENTED_EDGE ( 'NONE', *, *, #883, .T. ) ;
#662 = SURFACE_SIDE_STYLE ('',( #733 ) ) ;
#663 = ORIENTED_EDGE ( 'NONE', *, *, #849, .T. ) ;
#664 = DIRECTION ( 'NONE',  ( -0.000000000000000000, -0.000000000000000000, -1.000000000000000000 ) ) ;
#665 = CARTESIAN_POINT ( 'NONE',  ( -7.799999999999999822, -7.799999999999999822, 2.174999999999999822 ) ) ;
#666 = ORIENTED_EDGE ( 'NONE', *, *, #547, .T. ) ;
#667 = LINE ( 'NONE', #577, #356 ) ;
#668 = CARTESIAN_POINT ( 'NONE',  ( 7.900000000000000355, -8.399999999999998579, 0.000000000000000000 ) ) ;
#669 = CARTESIAN_POINT ( 'NONE',  ( -7.799999999999999822, -8.110000000000001208, 2.174999999999999822 ) ) ;
#670 = DIRECTION ( 'NONE',  ( 0.000000000000000000, -1.000000000000000000, 0.000000000000000000 ) ) ;
#671 = ORIENTED_EDGE ( 'NONE', *, *, #873, .T. ) ;
#672 = FACE_OUTER_BOUND ( 'NONE', #10, .T. ) ;
#673 = PLANE ( 'NONE',  #318 ) ;
#674 = COLOUR_RGB ( '',0.7921568627450980005, 0.8196078431372548767, 0.9333333333333333481 ) ;
#675 = AXIS2_PLACEMENT_3D ( 'NONE', #988, #685, #598 ) ;
#676 = DIRECTION ( 'NONE',  ( 0.5773502691896257311, -0.5773502691896257311, 0.5773502691896257311 ) ) ;
#677 = EDGE_LOOP ( 'NONE', ( #734, #811, #690, #157 ) ) ;
#678 = DIRECTION ( 'NONE',  ( 0.000000000000000000, -1.000000000000000000, 0.000000000000000000 ) ) ;
#679 = EDGE_CURVE ( 'NONE', #431, #865, #609, .T. ) ;
#680 = FACE_OUTER_BOUND ( 'NONE', #68, .T. ) ;
#681 = DIRECTION ( 'NONE',  ( 0.000000000000000000, 0.000000000000000000, -1.000000000000000000 ) ) ;
#682 = ORIENTED_EDGE ( 'NONE', *, *, #518, .T. ) ;
#683 = DIRECTION ( 'NONE',  ( 0.000000000000000000, 1.000000000000000000, 0.000000000000000000 ) ) ;
#684 = CARTESIAN_POINT ( 'NONE',  ( 7.500000000000000000, 7.499999999999998224, 0.000000000000000000 ) ) ;
#685 = DIRECTION ( 'NONE',  ( -0.000000000000000000, -0.000000000000000000, -1.000000000000000000 ) ) ;
#686 = ORIENTED_EDGE ( 'NONE', *, *, #531, .T. ) ;
#687 = CARTESIAN_POINT ( 'NONE',  ( -7.799999999999999822, -7.799999999999999822, 2.174999999999999822 ) ) ;
#688 = CARTESIAN_POINT ( 'NONE',  ( 8.400000000000000355, -8.399999999999998579, 0.000000000000000000 ) ) ;
#689 = VECTOR ( 'NONE', #862, 100.0000000000000000 ) ;
#690 = ORIENTED_EDGE ( 'NONE', *, *, #393, .T. ) ;
#691 = ADVANCED_FACE ( 'NONE', ( #478 ), #242, .F. ) ;
#692 = VECTOR ( 'NONE', #681, 100.0000000000000000 ) ;
#693 = DIRECTION ( 'NONE',  ( 0.000000000000000000, 1.000000000000000000, 0.000000000000000000 ) ) ;
#694 = APPLICATION_PROTOCOL_DEFINITION ( 'draft international standard', 'automotive_design', 1998, #983 ) ;
#695 = ORIENTED_EDGE ( 'NONE', *, *, #316, .F. ) ;
#696 = CARTESIAN_POINT ( 'NONE',  ( 7.799999999999999822, 8.110000000000001208, 2.174999999999999822 ) ) ;
#697 = PLANE ( 'NONE',  #81 ) ;
#698 = VERTEX_POINT ( 'NONE', #632 ) ;
#699 = CARTESIAN_POINT ( 'NONE',  ( -7.500000000000000000, 7.499999999999995559, 0.000000000000000000 ) ) ;
#700 = EDGE_CURVE ( 'NONE', #311, #164, #177, .T. ) ;
#701 =( NAMED_UNIT ( * ) PLANE_ANGLE_UNIT ( ) SI_UNIT ( $, .RADIAN. ) );
#702 = EDGE_LOOP ( 'NONE', ( #123, #745, #388, #459 ) ) ;
#703 = VERTEX_POINT ( 'NONE', #939 ) ;
#704 = CIRCLE ( 'NONE', #256, 0.3100000000000005529 ) ;
#705 = DIRECTION ( 'NONE',  ( 0.000000000000000000, 0.000000000000000000, -1.000000000000000000 ) ) ;
#706 = VECTOR ( 'NONE', #100, 100.0000000000000000 ) ;
#707 = CARTESIAN_POINT ( 'NONE',  ( 7.900000000000000355, -7.899999999999998579, 6.600000000000000533 ) ) ;
#708 = EDGE_CURVE ( 'NONE', #60, #355, #755, .T. ) ;
#709 = ORIENTED_EDGE ( 'NONE', *, *, #589, .F. ) ;
#710 = LINE ( 'NONE', #313, #806 ) ;
#711 = DIRECTION ( 'NONE',  ( 0.000000000000000000, 0.000000000000000000, -1.000000000000000000 ) ) ;
#712 = VERTEX_POINT ( 'NONE', #555 ) ;
#713 = CARTESIAN_POINT ( 'NONE',  ( -7.899999999999994138, 8.399999999999998579, 0.000000000000000000 ) ) ;
#714 = CARTESIAN_POINT ( 'NONE',  ( 7.799999999999999822, 7.799999999999999822, 0.000000000000000000 ) ) ;
#715 = ORIENTED_EDGE ( 'NONE', *, *, #793, .T. ) ;
#716 = DIRECTION ( 'NONE',  ( 0.000000000000000000, 1.000000000000000000, 0.000000000000000000 ) ) ;
#717 = EDGE_CURVE ( 'NONE', #355, #80, #83, .T. ) ;
#718 = AXIS2_PLACEMENT_3D ( 'NONE', #556, #871, #166 ) ;
#719 = LINE ( 'NONE', #742, #522 ) ;
#720 = AXIS2_PLACEMENT_3D ( 'NONE', #187, #584, #833 ) ;
#721 = DIRECTION ( 'NONE',  ( 0.000000000000000000, 1.000000000000000000, 0.000000000000000000 ) ) ;
#722 = DIRECTION ( 'NONE',  ( 0.000000000000000000, 0.000000000000000000, -1.000000000000000000 ) ) ;
#723 = EDGE_CURVE ( 'NONE', #60, #703, #413, .T. ) ;
#724 = FACE_OUTER_BOUND ( 'NONE', #349, .T. ) ;
#725 = ORIENTED_EDGE ( 'NONE', *, *, #50, .T. ) ;
#726 = LINE ( 'NONE', #882, #1004 ) ;
#727 = DIRECTION ( 'NONE',  ( 0.000000000000000000, -1.000000000000000000, 0.000000000000000000 ) ) ;
#728 = CARTESIAN_POINT ( 'NONE',  ( 7.900000000000000355, 7.900000000000001243, 0.000000000000000000 ) ) ;
#729 = VERTEX_POINT ( 'NONE', #794 ) ;
#730 = EDGE_CURVE ( 'NONE', #641, #802, #418, .T. ) ;
#731 = CARTESIAN_POINT ( 'NONE',  ( 7.500000000000000000, -7.499999999999995559, 6.940000000000000391 ) ) ;
#732 = VERTEX_POINT ( 'NONE', #807 ) ;
#733 = SURFACE_STYLE_FILL_AREA ( #815 ) ;
#734 = ORIENTED_EDGE ( 'NONE', *, *, #829, .F. ) ;
#735 = VECTOR ( 'NONE', #461, 100.0000000000000000 ) ;
#736 = VECTOR ( 'NONE', #494, 100.0000000000000000 ) ;
#737 = EDGE_CURVE ( 'NONE', #732, #501, #322, .T. ) ;
#738 = LINE ( 'NONE', #762, #132 ) ;
#739 = CARTESIAN_POINT ( 'NONE',  ( -7.900000000000000355, 7.899999999999998579, 6.600000000000000533 ) ) ;
#740 = ORIENTED_EDGE ( 'NONE', *, *, #954, .F. ) ;
#741 = DIRECTION ( 'NONE',  ( 0.000000000000000000, 0.000000000000000000, -1.000000000000000000 ) ) ;
#742 = CARTESIAN_POINT ( 'NONE',  ( 7.900000000000000355, 8.000000000000000000, 6.940000000000000391 ) ) ;
#743 = CARTESIAN_POINT ( 'NONE',  ( 7.500000000000000000, -7.500000000000000000, 0.000000000000000000 ) ) ;
#744 = DIRECTION ( 'NONE',  ( 0.000000000000000000, -1.000000000000000000, 0.000000000000000000 ) ) ;
#745 = ORIENTED_EDGE ( 'NONE', *, *, #17, .T. ) ;
#746 = EDGE_CURVE ( 'NONE', #514, #297, #162, .T. ) ;
#747 = DIRECTION ( 'NONE',  ( 1.000000000000000000, 0.000000000000000000, 0.000000000000000000 ) ) ;
#748 = DIRECTION ( 'NONE',  ( 0.000000000000000000, 1.000000000000000000, 0.000000000000000000 ) ) ;
#749 = CARTESIAN_POINT ( 'NONE',  ( -7.900000000000000355, -7.900000000000000355, 6.940000000000000391 ) ) ;
#750 = VERTEX_POINT ( 'NONE', #246 ) ;
#751 = EDGE_CURVE ( 'NONE', #48, #368, #878, .T. ) ;
#752 = PLANE ( 'NONE',  #354 ) ;
#753 = VECTOR ( 'NONE', #259, 100.0000000000000000 ) ;
#754 = DIRECTION ( 'NONE',  ( 0.000000000000000000, -1.000000000000000000, 0.000000000000000000 ) ) ;
#755 = CIRCLE ( 'NONE', #456, 0.3100000000000005529 ) ;
#756 = VECTOR ( 'NONE', #359, 100.0000000000000000 ) ;
#757 = LINE ( 'NONE', #688, #243 ) ;
#758 = PRODUCT_DEFINITION_CONTEXT ( 'detailed design', #223, 'design' ) ;
#759 = EDGE_LOOP ( 'NONE', ( #891, #201, #172, #236 ) ) ;
#760 = DIRECTION ( 'NONE',  ( 0.000000000000000000, 0.000000000000000000, -1.000000000000000000 ) ) ;
#761 = EDGE_CURVE ( 'NONE', #158, #826, #258, .T. ) ;
#762 = CARTESIAN_POINT ( 'NONE',  ( -7.500000000000000000, -7.500000000000002665, 0.000000000000000000 ) ) ;
#763 = EDGE_LOOP ( 'NONE', ( #934, #993, #383, #260 ) ) ;
#764 = DIRECTION ( 'NONE',  ( 0.000000000000000000, 1.000000000000000000, 0.000000000000000000 ) ) ;
#765 = ORIENTED_EDGE ( 'NONE', *, *, #95, .T. ) ;
#766 = CARTESIAN_POINT ( 'NONE',  ( -8.400000000000000355, 7.899999999999993250, 0.000000000000000000 ) ) ;
#767 = FACE_OUTER_BOUND ( 'NONE', #441, .T. ) ;
#768 = EDGE_CURVE ( 'NONE', #168, #72, #182, .T. ) ;
#769 = CARTESIAN_POINT ( 'NONE',  ( 7.900000000000000355, 8.400000000000002132, 0.000000000000000000 ) ) ;
#770 = ORIENTED_EDGE ( 'NONE', *, *, #932, .F. ) ;
#771 = DIRECTION ( 'NONE',  ( -1.000000000000000000, -1.652117596168387756E-16, 0.000000000000000000 ) ) ;
#772 = DIRECTION ( 'NONE',  ( 1.000000000000000000, 0.000000000000000000, 0.000000000000000000 ) ) ;
#773 = ORIENTED_EDGE ( 'NONE', *, *, #429, .T. ) ;
#774 = AXIS2_PLACEMENT_3D ( 'NONE', #213, #620, #782 ) ;
#775 = ORIENTED_EDGE ( 'NONE', *, *, #730, .T. ) ;
#776 = AXIS2_PLACEMENT_3D ( 'NONE', #352, #505, #748 ) ;
#777 = PLANE ( 'NONE',  #571 ) ;
#778 = AXIS2_PLACEMENT_3D ( 'NONE', #192, #203, #839 ) ;
#779 = ORIENTED_EDGE ( 'NONE', *, *, #417, .T. ) ;
#780 = LINE ( 'NONE', #298, #735 ) ;
#781 = ADVANCED_FACE ( 'NONE', ( #812 ), #889, .F. ) ;
#782 = DIRECTION ( 'NONE',  ( 0.000000000000000000, 1.000000000000000000, 0.000000000000000000 ) ) ;
#783 = CYLINDRICAL_SURFACE ( 'NONE', #394, 0.5000000000000004441 ) ;
#784 = ORIENTED_EDGE ( 'NONE', *, *, #128, .F. ) ;
#785 = LINE ( 'NONE', #144, #506 ) ;
#786 = DIRECTION ( 'NONE',  ( 0.000000000000000000, -1.000000000000000000, 0.000000000000000000 ) ) ;
#787 = ORIENTED_EDGE ( 'NONE', *, *, #504, .F. ) ;
#788 = EDGE_LOOP ( 'NONE', ( #71, #879, #617, #395 ) ) ;
#789 = CIRCLE ( 'NONE', #332, 0.3100000000000005529 ) ;
#790 =( GEOMETRIC_REPRESENTATION_CONTEXT ( 3 ) GLOBAL_UNCERTAINTY_ASSIGNED_CONTEXT ( ( #361 ) ) GLOBAL_UNIT_ASSIGNED_CONTEXT ( ( #114, #910, #437 ) ) REPRESENTATION_CONTEXT ( 'NONE', 'WORKASPACE' ) );
#791 = CARTESIAN_POINT ( 'NONE',  ( 8.000000000000000000, 8.000000000000000000, 6.940000000000000391 ) ) ;
#792 = AXIS2_PLACEMENT_3D ( 'NONE', #367, #523, #285 ) ;
#793 = EDGE_CURVE ( 'NONE', #750, #623, #559, .T. ) ;
#794 = CARTESIAN_POINT ( 'NONE',  ( 8.000000000000000000, 8.000000000000000000, 6.839999999999999858 ) ) ;
#795 = EDGE_LOOP ( 'NONE', ( #465, #977, #403, #539 ) ) ;
#796 = DIRECTION ( 'NONE',  ( 0.000000000000000000, 0.000000000000000000, -1.000000000000000000 ) ) ;
#797 = EDGE_CURVE ( 'NONE', #52, #712, #726, .T. ) ;
#798 = CARTESIAN_POINT ( 'NONE',  ( -7.799999999999999822, -7.799999999999999822, 2.174999999999999822 ) ) ;
#799 = ORIENTED_EDGE ( 'NONE', *, *, #942, .T. ) ;
#800 = CARTESIAN_POINT ( 'NONE',  ( -7.799999999999998934, 7.800000000000001599, 2.174999999999999822 ) ) ;
#801 = DIRECTION ( 'NONE',  ( 0.000000000000000000, 1.000000000000000000, 0.000000000000000000 ) ) ;
#802 = VERTEX_POINT ( 'NONE', #731 ) ;
#803 = CARTESIAN_POINT ( 'NONE',  ( 7.500000000000000000, 7.499999999999998224, 0.000000000000000000 ) ) ;
#804 = ADVANCED_FACE ( 'NONE', ( #249 ), #327, .F. ) ;
#805 = DIRECTION ( 'NONE',  ( 0.000000000000000000, -1.000000000000000000, 0.000000000000000000 ) ) ;
#806 = VECTOR ( 'NONE', #634, 100.0000000000000000 ) ;
#807 = CARTESIAN_POINT ( 'NONE',  ( -8.000000000000000000, 8.000000000000000000, 6.600000000000000533 ) ) ;
#808 = DIRECTION ( 'NONE',  ( 0.000000000000000000, 0.000000000000000000, -1.000000000000000000 ) ) ;
#809 = ADVANCED_FACE ( 'NONE', ( #255 ), #573, .T. ) ;
#810 = DIRECTION ( 'NONE',  ( -0.000000000000000000, -0.000000000000000000, -1.000000000000000000 ) ) ;
#811 = ORIENTED_EDGE ( 'NONE', *, *, #1008, .T. ) ;
#812 = FACE_OUTER_BOUND ( 'NONE', #925, .T. ) ;
#813 = DIRECTION ( 'NONE',  ( 0.000000000000000000, 0.000000000000000000, -1.000000000000000000 ) ) ;
#814 = ORIENTED_EDGE ( 'NONE', *, *, #793, .F. ) ;
#815 = FILL_AREA_STYLE ('',( #652 ) ) ;
#816 = CARTESIAN_POINT ( 'NONE',  ( -7.899999999999994138, 8.399999999999998579, 6.600000000000000533 ) ) ;
#817 = DIRECTION ( 'NONE',  ( 1.000000000000000000, 1.652117596168387756E-16, 0.000000000000000000 ) ) ;
#818 = DIRECTION ( 'NONE',  ( 0.000000000000000000, 0.000000000000000000, -1.000000000000000000 ) ) ;
#819 = ORIENTED_EDGE ( 'NONE', *, *, #615, .T. ) ;
#820 = DIRECTION ( 'NONE',  ( -0.000000000000000000, -0.000000000000000000, 1.000000000000000000 ) ) ;
#821 = VECTOR ( 'NONE', #996, 100.0000000000000000 ) ;
#822 = AXIS2_PLACEMENT_3D ( 'NONE', #221, #533, #532 ) ;
#823 = LINE ( 'NONE', #895, #947 ) ;
#824 = VECTOR ( 'NONE', #125, 100.0000000000000000 ) ;
#825 = DIRECTION ( 'NONE',  ( 0.000000000000000000, 0.000000000000000000, -1.000000000000000000 ) ) ;
#826 = VERTEX_POINT ( 'NONE', #280 ) ;
#827 = DIRECTION ( 'NONE',  ( 0.000000000000000000, -1.000000000000000000, 0.000000000000000000 ) ) ;
#828 = LINE ( 'NONE', #428, #408 ) ;
#829 = EDGE_CURVE ( 'NONE', #729, #72, #578, .T. ) ;
#830 = PLANE ( 'NONE',  #922 ) ;
#831 = ORIENTED_EDGE ( 'NONE', *, *, #873, .F. ) ;
#832 = CARTESIAN_POINT ( 'NONE',  ( -7.900000000000000355, 8.399999999999998579, 6.600000000000000533 ) ) ;
#833 = DIRECTION ( 'NONE',  ( 0.000000000000000000, 1.000000000000000000, 0.000000000000000000 ) ) ;
#834 = CARTESIAN_POINT ( 'NONE',  ( -8.000000000000000000, -8.000000000000000000, 6.940000000000000391 ) ) ;
#835 = EDGE_LOOP ( 'NONE', ( #475, #99, #222, #853 ) ) ;
#836 = EDGE_CURVE ( 'NONE', #982, #262, #823, .T. ) ;
#837 = LINE ( 'NONE', #129, #486 ) ;
#838 = CIRCLE ( 'NONE', #390, 0.3100000000000005529 ) ;
#839 = DIRECTION ( 'NONE',  ( 0.000000000000000000, 1.000000000000000000, 0.000000000000000000 ) ) ;
#840 = VECTOR ( 'NONE', #86, 100.0000000000000000 ) ;
#841 = ORIENTED_EDGE ( 'NONE', *, *, #257, .T. ) ;
#842 = ORIENTED_EDGE ( 'NONE', *, *, #417, .F. ) ;
#843 = CARTESIAN_POINT ( 'NONE',  ( 7.799999999999999822, 7.799999999999999822, 2.174999999999999822 ) ) ;
#844 = ADVANCED_FACE ( 'NONE', ( #33 ), #596, .F. ) ;
#845 = CARTESIAN_POINT ( 'NONE',  ( 0.000000000000000000, 0.000000000000000000, 0.000000000000000000 ) ) ;
#846 = DIRECTION ( 'NONE',  ( 0.000000000000000000, 1.000000000000000000, 0.000000000000000000 ) ) ;
#847 = ORIENTED_EDGE ( 'NONE', *, *, #849, .F. ) ;
#848 = CARTESIAN_POINT ( 'NONE',  ( 8.400000000000000355, -7.899999999999998579, 0.000000000000000000 ) ) ;
#849 = EDGE_CURVE ( 'NONE', #982, #48, #62, .T. ) ;
#850 = DIRECTION ( 'NONE',  ( 0.000000000000000000, 0.000000000000000000, -1.000000000000000000 ) ) ;
#851 = ORIENTED_EDGE ( 'NONE', *, *, #1016, .T. ) ;
#852 = CARTESIAN_POINT ( 'NONE',  ( 8.400000000000000355, -8.399999999999998579, 0.000000000000000000 ) ) ;
#853 = ORIENTED_EDGE ( 'NONE', *, *, #326, .F. ) ;
#854 = DIRECTION ( 'NONE',  ( 0.000000000000000000, 1.000000000000000000, 0.000000000000000000 ) ) ;
#855 = DIRECTION ( 'NONE',  ( -1.000000000000000000, -1.652117596168387756E-16, 0.000000000000000000 ) ) ;
#856 = ORIENTED_EDGE ( 'NONE', *, *, #621, .F. ) ;
#857 = VECTOR ( 'NONE', #911, 100.0000000000000000 ) ;
#858 = LINE ( 'NONE', #66, #689 ) ;
#859 = DIRECTION ( 'NONE',  ( 0.000000000000000000, 0.000000000000000000, -1.000000000000000000 ) ) ;
#860 = ORIENTED_EDGE ( 'NONE', *, *, #321, .T. ) ;
#861 = ADVANCED_FACE ( 'NONE', ( #915, #438 ), #673, .T. ) ;
#862 = DIRECTION ( 'NONE',  ( 0.000000000000000000, 1.000000000000000000, 0.000000000000000000 ) ) ;
#863 = EDGE_LOOP ( 'NONE', ( #875, #959, #373, #32 ) ) ;
#864 = DIRECTION ( 'NONE',  ( 0.000000000000000000, 0.000000000000000000, -1.000000000000000000 ) ) ;
#865 = VERTEX_POINT ( 'NONE', #975 ) ;
#866 = EDGE_LOOP ( 'NONE', ( #527, #980, #709, #974 ) ) ;
#867 = FACE_OUTER_BOUND ( 'NONE', #788, .T. ) ;
#868 = EDGE_CURVE ( 'NONE', #158, #268, #590, .T. ) ;
#869 = CARTESIAN_POINT ( 'NONE',  ( 7.500000000000000000, -7.500000000000000000, 0.000000000000000000 ) ) ;
#870 = AXIS2_PLACEMENT_3D ( 'NONE', #295, #363, #283 ) ;
#871 = DIRECTION ( 'NONE',  ( 0.000000000000000000, 0.000000000000000000, -1.000000000000000000 ) ) ;
#872 = VECTOR ( 'NONE', #402, 100.0000000000000000 ) ;
#873 = EDGE_CURVE ( 'NONE', #194, #712, #828, .T. ) ;
#874 = DIRECTION ( 'NONE',  ( 0.000000000000000000, 0.000000000000000000, -1.000000000000000000 ) ) ;
#875 = ORIENTED_EDGE ( 'NONE', *, *, #717, .F. ) ;
#876 = DIRECTION ( 'NONE',  ( 0.000000000000000000, 1.000000000000000000, 0.000000000000000000 ) ) ;
#877 = EDGE_CURVE ( 'NONE', #1009, #134, #899, .T. ) ;
#878 = LINE ( 'NONE', #950, #424 ) ;
#879 = ORIENTED_EDGE ( 'NONE', *, *, #344, .T. ) ;
#880 = CARTESIAN_POINT ( 'NONE',  ( -8.400000000000000355, 7.899999999999998579, 6.600000000000000533 ) ) ;
#881 = CARTESIAN_POINT ( 'NONE',  ( 8.000000000000000000, -8.000000000000000000, 6.600000000000000533 ) ) ;
#882 = CARTESIAN_POINT ( 'NONE',  ( 7.900000000000000355, -8.399999999999998579, 6.600000000000000533 ) ) ;
#883 = EDGE_CURVE ( 'NONE', #241, #576, #611, .T. ) ;
#884 = AXIS2_PLACEMENT_3D ( 'NONE', #570, #888, #181 ) ;
#885 = AXIS2_PLACEMENT_3D ( 'NONE', #587, #186, #238 ) ;
#886 = PLANE ( 'NONE',  #885 ) ;
#887 = CIRCLE ( 'NONE', #115, 0.3100000000000005529 ) ;
#888 = DIRECTION ( 'NONE',  ( 0.000000000000000000, 0.000000000000000000, -1.000000000000000000 ) ) ;
#889 = CYLINDRICAL_SURFACE ( 'NONE', #592, 0.3100000000000005529 ) ;
#890 = CARTESIAN_POINT ( 'NONE',  ( -7.500000000000000000, 7.499999999999995559, 0.000000000000000000 ) ) ;
#891 = ORIENTED_EDGE ( 'NONE', *, *, #679, .F. ) ;
#892 = EDGE_CURVE ( 'NONE', #927, #802, #334, .T. ) ;
#893 = CARTESIAN_POINT ( 'NONE',  ( 0.000000000000000000, 7.900000000000000355, 6.940000000000000391 ) ) ;
#894 = DIRECTION ( 'NONE',  ( 0.000000000000000000, 0.000000000000000000, -1.000000000000000000 ) ) ;
#895 = CARTESIAN_POINT ( 'NONE',  ( 7.799999999999999822, -8.110000000000001208, 2.174999999999999822 ) ) ;
#896 = DIRECTION ( 'NONE',  ( 0.000000000000000000, 1.000000000000000000, 0.000000000000000000 ) ) ;
#897 = VERTEX_POINT ( 'NONE', #500 ) ;
#898 = DIRECTION ( 'NONE',  ( 0.000000000000000000, 0.000000000000000000, -1.000000000000000000 ) ) ;
#899 = LINE ( 'NONE', #28, #626 ) ;
#900 = CARTESIAN_POINT ( 'NONE',  ( 7.500000000000000000, -7.500000000000000000, 0.000000000000000000 ) ) ;
#901 = ORIENTED_EDGE ( 'NONE', *, *, #50, .F. ) ;
#902 = DIRECTION ( 'NONE',  ( 1.000000000000000000, 0.000000000000000000, 0.000000000000000000 ) ) ;
#903 = CIRCLE ( 'NONE', #870, 0.3100000000000005529 ) ;
#904 = ADVANCED_FACE ( 'NONE', ( #680 ), #341, .F. ) ;
#905 = AXIS2_PLACEMENT_3D ( 'NONE', #273, #513, #744 ) ;
#906 = DIRECTION ( 'NONE',  ( 1.850371707708594563E-16, -1.000000000000000000, 0.000000000000000000 ) ) ;
#907 = AXIS2_PLACEMENT_3D ( 'NONE', #444, #601, #208 ) ;
#908 = LINE ( 'NONE', #434, #542 ) ;
#909 = ORIENTED_EDGE ( 'NONE', *, *, #877, .F. ) ;
#910 =( NAMED_UNIT ( * ) PLANE_ANGLE_UNIT ( ) SI_UNIT ( $, .RADIAN. ) );
#911 = DIRECTION ( 'NONE',  ( 0.000000000000000000, 0.000000000000000000, -1.000000000000000000 ) ) ;
#912 = LINE ( 'NONE', #602, #692 ) ;
#913 = ORIENTED_EDGE ( 'NONE', *, *, #797, .T. ) ;
#914 = DIRECTION ( 'NONE',  ( -0.000000000000000000, -0.000000000000000000, 1.000000000000000000 ) ) ;
#915 = FACE_OUTER_BOUND ( 'NONE', #940, .T. ) ;
#916 = CARTESIAN_POINT ( 'NONE',  ( -5.266666666666666607, -5.266666666666666607, 9.573333333333334139 ) ) ;
#917 = ORIENTED_EDGE ( 'NONE', *, *, #43, .T. ) ;
#918 = EDGE_CURVE ( 'NONE', #271, #1009, #110, .T. ) ;
#919 = CARTESIAN_POINT ( 'NONE',  ( -7.899999999999994138, -8.400000000000002132, 6.600000000000000533 ) ) ;
#920 = AXIS2_PLACEMENT_3D ( 'NONE', #207, #747, #984 ) ;
#921 = PLANE ( 'NONE',  #149 ) ;
#922 = AXIS2_PLACEMENT_3D ( 'NONE', #1006, #209, #34 ) ;
#923 = EDGE_LOOP ( 'NONE', ( #400, #929, #103, #269 ) ) ;
#924 = PLANE ( 'NONE',  #277 ) ;
#925 = EDGE_LOOP ( 'NONE', ( #330, #1012, #546, #779 ) ) ;
#926 = FACE_OUTER_BOUND ( 'NONE', #677, .T. ) ;
#927 = VERTEX_POINT ( 'NONE', #991 ) ;
#928 = LINE ( 'NONE', #530, #1018 ) ;
#929 = ORIENTED_EDGE ( 'NONE', *, *, #245, .T. ) ;
#930 = LINE ( 'NONE', #696, #42 ) ;
#931 = CYLINDRICAL_SURFACE ( 'NONE', #968, 0.3100000000000005529 ) ;
#932 = EDGE_CURVE ( 'NONE', #698, #387, #133, .T. ) ;
#933 = PRESENTATION_LAYER_ASSIGNMENT (  '', '', ( #1002 ) ) ;
#934 = ORIENTED_EDGE ( 'NONE', *, *, #892, .F. ) ;
#935 = CIRCLE ( 'NONE', #79, 0.3100000000000005529 ) ;
#936 = DIRECTION ( 'NONE',  ( 0.000000000000000000, 0.000000000000000000, 1.000000000000000000 ) ) ;
#937 = ORIENTED_EDGE ( 'NONE', *, *, #95, .F. ) ;
#938 = LINE ( 'NONE', #155, #455 ) ;
#939 = CARTESIAN_POINT ( 'NONE',  ( -7.799999999999998934, 8.110000000000001208, 0.000000000000000000 ) ) ;
#940 = EDGE_LOOP ( 'NONE', ( #629, #819, #841, #799, #671, #282, #551, #953 ) ) ;
#941 = FACE_OUTER_BOUND ( 'NONE', #517, .T. ) ;
#942 = EDGE_CURVE ( 'NONE', #134, #194, #949, .T. ) ;
#943 = DIRECTION ( 'NONE',  ( 0.000000000000000000, 0.000000000000000000, -1.000000000000000000 ) ) ;
#944 = ORIENTED_EDGE ( 'NONE', *, *, #954, .T. ) ;
#945 = PRODUCT_DEFINITION_SHAPE ( 'NONE', 'NONE',  #525 ) ;
#946 = VECTOR ( 'NONE', #914, 100.0000000000000000 ) ;
#947 = VECTOR ( 'NONE', #46, 100.0000000000000000 ) ;
#948 = EDGE_CURVE ( 'NONE', #623, #614, #981, .T. ) ;
#949 = CIRCLE ( 'NONE', #907, 0.5000000000000004441 ) ;
#950 = CARTESIAN_POINT ( 'NONE',  ( 7.799999999999999822, -7.489999999999999325, 2.174999999999999822 ) ) ;
#951 = EDGE_LOOP ( 'NONE', ( #338, #239, #586, #315 ) ) ;
#952 = DIRECTION ( 'NONE',  ( 1.000000000000000000, 0.000000000000000000, 0.000000000000000000 ) ) ;
#953 = ORIENTED_EDGE ( 'NONE', *, *, #679, .T. ) ;
#954 = EDGE_CURVE ( 'NONE', #362, #184, #738, .T. ) ;
#955 = DIRECTION ( 'NONE',  ( 0.000000000000000000, 0.000000000000000000, -1.000000000000000000 ) ) ;
#956 = ORIENTED_EDGE ( 'NONE', *, *, #948, .F. ) ;
#957 = DIRECTION ( 'NONE',  ( 0.000000000000000000, 0.000000000000000000, -1.000000000000000000 ) ) ;
#958 = DIRECTION ( 'NONE',  ( 1.652117596168387756E-16, -1.000000000000000000, 0.000000000000000000 ) ) ;
#959 = ORIENTED_EDGE ( 'NONE', *, *, #708, .F. ) ;
#960 = PRODUCT_RELATED_PRODUCT_CATEGORY ( 'part', '', ( #471 ) ) ;
#961 = DIRECTION ( 'NONE',  ( 0.000000000000000000, 0.000000000000000000, -1.000000000000000000 ) ) ;
#962 = FACE_BOUND ( 'NONE', #189, .T. ) ;
#963 = VECTOR ( 'NONE', #820, 100.0000000000000000 ) ;
#964 = ORIENTED_EDGE ( 'NONE', *, *, #473, .T. ) ;
#965 = DIRECTION ( 'NONE',  ( 0.000000000000000000, -1.000000000000000000, 0.000000000000000000 ) ) ;
#966 = VECTOR ( 'NONE', #721, 100.0000000000000000 ) ;
#967 = DIRECTION ( 'NONE',  ( 0.000000000000000000, 0.000000000000000000, -1.000000000000000000 ) ) ;
#968 = AXIS2_PLACEMENT_3D ( 'NONE', #687, #56, #451 ) ;
#969 = CARTESIAN_POINT ( 'NONE',  ( -8.400000000000000355, -8.400000000000002132, 0.000000000000000000 ) ) ;
#970 = LINE ( 'NONE', #890, #358 ) ;
#971 = ORIENTED_EDGE ( 'NONE', *, *, #333, .F. ) ;
#972 = ADVANCED_FACE ( 'NONE', ( #658 ), #783, .T. ) ;
#973 = SURFACE_STYLE_USAGE ( .BOTH. , #662 ) ;
#974 = ORIENTED_EDGE ( 'NONE', *, *, #429, .F. ) ;
#975 = CARTESIAN_POINT ( 'NONE',  ( 7.900000000000000355, 8.400000000000002132, 6.600000000000000533 ) ) ;
#976 = LINE ( 'NONE', #53, #639 ) ;
#977 = ORIENTED_EDGE ( 'NONE', *, *, #511, .F. ) ;
#978 = ADVANCED_FACE ( 'NONE', ( #767 ), #535, .F. ) ;
#979 = PLANE ( 'NONE',  #317 ) ;
#980 = ORIENTED_EDGE ( 'NONE', *, *, #245, .F. ) ;
#981 = LINE ( 'NONE', #421, #377 ) ;
#982 = VERTEX_POINT ( 'NONE', #1003 ) ;
#983 = APPLICATION_CONTEXT ( 'automotive_design' ) ;
#984 = DIRECTION ( 'NONE',  ( 0.000000000000000000, 1.000000000000000000, 0.000000000000000000 ) ) ;
#985 = AXIS2_PLACEMENT_3D ( 'NONE', #411, #345, #965 ) ;
#986 = AXIS2_PLACEMENT_3D ( 'NONE', #104, #987, #37 ) ;
#987 = DIRECTION ( 'NONE',  ( 0.000000000000000000, -0.7071067811865475727, 0.7071067811865475727 ) ) ;
#988 = CARTESIAN_POINT ( 'NONE',  ( 7.900000000000000355, -7.899999999999998579, 0.000000000000000000 ) ) ;
#989 = ORIENTED_EDGE ( 'NONE', *, *, #473, .F. ) ;
#990 = CARTESIAN_POINT ( 'NONE',  ( 8.400000000000000355, 8.400000000000002132, 6.600000000000000533 ) ) ;
#991 = CARTESIAN_POINT ( 'NONE',  ( -7.500000000000000000, -7.499999999999995559, 6.940000000000000391 ) ) ;
#992 = ADVANCED_FACE ( 'NONE', ( #381 ), #931, .F. ) ;
#993 = ORIENTED_EDGE ( 'NONE', *, *, #547, .F. ) ;
#994 = DIRECTION ( 'NONE',  ( 0.000000000000000000, 0.000000000000000000, -1.000000000000000000 ) ) ;
#995 = ORIENTED_EDGE ( 'NONE', *, *, #460, .T. ) ;
#996 = DIRECTION ( 'NONE',  ( -1.000000000000000000, 0.000000000000000000, 0.000000000000000000 ) ) ;
#997 = DIRECTION ( 'NONE',  ( 0.000000000000000000, 1.000000000000000000, 0.000000000000000000 ) ) ;
#998 = ADVANCED_FACE ( 'NONE', ( #230 ), #697, .T. ) ;
#999 = CARTESIAN_POINT ( 'NONE',  ( -7.900000000000000355, 7.900000000000000355, 6.940000000000000391 ) ) ;
#1000 = EDGE_LOOP ( 'NONE', ( #120, #226, #139, #562, #618, #608, #250, #15 ) ) ;
#1001 = LINE ( 'NONE', #151, #113 ) ;
#1002 = STYLED_ITEM ( 'NONE', ( #267 ), #176 ) ;
#1003 = CARTESIAN_POINT ( 'NONE',  ( 7.799999999999999822, -8.110000000000001208, 2.174999999999999822 ) ) ;
#1004 = VECTOR ( 'NONE', #561, 100.0000000000000000 ) ;
#1005 = AXIS2_PLACEMENT_3D ( 'NONE', #845, #137, #772 ) ;
#1006 = CARTESIAN_POINT ( 'NONE',  ( -7.799999999999998934, 7.800000000000001599, 2.174999999999999822 ) ) ;
#1007 = VERTEX_POINT ( 'NONE', #684 ) ;
#1008 = EDGE_CURVE ( 'NONE', #729, #387, #300, .T. ) ;
#1009 = VERTEX_POINT ( 'NONE', #370 ) ;
#1010 = LINE ( 'NONE', #237, #607 ) ;
#1011 = ADVANCED_FACE ( 'NONE', ( #616 ), #921, .F. ) ;
#1012 = ORIENTED_EDGE ( 'NONE', *, *, #410, .F. ) ;
#1013 = ORIENTED_EDGE ( 'NONE', *, *, #746, .F. ) ;
#1014 = CARTESIAN_POINT ( 'NONE',  ( -8.000000000000000000, 8.000000000000000000, 6.940000000000000391 ) ) ;
#1015 = AXIS2_PLACEMENT_3D ( 'NONE', #583, #898, #653 ) ;
#1016 = EDGE_CURVE ( 'NONE', #802, #54, #141, .T. ) ;
#1017 = ORIENTED_EDGE ( 'NONE', *, *, #65, .F. ) ;
#1018 = VECTOR ( 'NONE', #36, 100.0000000000000000 ) ;
#1019 = AXIS2_PLACEMENT_3D ( 'NONE', #372, #430, #670 ) ;
#1020 = EDGE_LOOP ( 'NONE', ( #64, #1017, #468, #39 ) ) ;
#1021 = DIRECTION ( 'NONE',  ( 0.000000000000000000, 1.000000000000000000, 0.000000000000000000 ) ) ;
ENDSEC;
END-ISO-10303-21;
