ISO-10303-21;
HEADER;
FILE_DESCRIPTION (( 'STEP AP214' ),
    '1' );
FILE_NAME ('elevated-cell-base_60.STEP',
    '2026-06-10T13:07:02',
    ( '' ),
    ( '' ),
    'SwSTEP 2.0',
    'SolidWorks 2023',
    '' );
FILE_SCHEMA (( 'AUTOMOTIVE_DESIGN' ));
ENDSEC;

DATA;
#1 = ORIENTED_EDGE ( 'NONE', *, *, #228, .T. ) ;
#2 = DIRECTION ( 'NONE',  ( 0.000000000000000000, 0.000000000000000000, -1.000000000000000000 ) ) ;
#3 = PRODUCT_DEFINITION_FORMATION_WITH_SPECIFIED_SOURCE ( 'ANY', '', #774, .NOT_KNOWN. ) ;
#4 = DIRECTION ( 'NONE',  ( 1.000000000000000000, 1.888134395621014649E-16, 0.000000000000000000 ) ) ;
#5 = ORIENTED_EDGE ( 'NONE', *, *, #85, .T. ) ;
#6 = DIRECTION ( 'NONE',  ( 0.000000000000000000, 0.000000000000000000, -1.000000000000000000 ) ) ;
#7 = EDGE_LOOP ( 'NONE', ( #727, #150, #421, #614 ) ) ;
#8 = FACE_OUTER_BOUND ( 'NONE', #582, .T. ) ;
#9 = ORIENTED_EDGE ( 'NONE', *, *, #397, .F. ) ;
#10 = CARTESIAN_POINT ( 'NONE',  ( 15.73000000000000043, 15.73000000000000043, 0.7999999999999998224 ) ) ;
#11 = CARTESIAN_POINT ( 'NONE',  ( -0.8500000000000007550, -1.849999999999996092, 0.4000000000000000222 ) ) ;
#12 = EDGE_CURVE ( 'NONE', #177, #286, #776, .T. ) ;
#13 = AXIS2_PLACEMENT_3D ( 'NONE', #990, #434, #519 ) ;
#14 = ORIENTED_EDGE ( 'NONE', *, *, #420, .F. ) ;
#15 = DIRECTION ( 'NONE',  ( 0.000000000000000000, 0.000000000000000000, 1.000000000000000000 ) ) ;
#16 = EDGE_LOOP ( 'NONE', ( #132, #826 ) ) ;
#17 = CARTESIAN_POINT ( 'NONE',  ( -0.8300000000000042899, 7.350000000000001421, 1.000000000000000000 ) ) ;
#18 = VECTOR ( 'NONE', #518, 100.0000000000000000 ) ;
#19 = EDGE_CURVE ( 'NONE', #610, #87, #965, .T. ) ;
#20 = ORIENTED_EDGE ( 'NONE', *, *, #182, .T. ) ;
#21 = LINE ( 'NONE', #245, #332 ) ;
#22 = DIRECTION ( 'NONE',  ( 1.000000000000000000, -8.280302987956117279E-17, 0.000000000000000000 ) ) ;
#23 = ORIENTED_EDGE ( 'NONE', *, *, #549, .T. ) ;
#24 = ADVANCED_FACE ( 'NONE', ( #487 ), #809, .F. ) ;
#25 = CARTESIAN_POINT ( 'NONE',  ( 0.000000000000000000, 0.000000000000000000, 0.000000000000000000 ) ) ;
#26 = DIRECTION ( 'NONE',  ( 0.000000000000000000, -1.000000000000000000, 0.000000000000000000 ) ) ;
#27 = ORIENTED_EDGE ( 'NONE', *, *, #820, .T. ) ;
#28 = CIRCLE ( 'NONE', #462, 0.3000000000000030420 ) ;
#29 = CARTESIAN_POINT ( 'NONE',  ( -0.4500000000000003997, 15.45000000000000284, 0.000000000000000000 ) ) ;
#30 = DIRECTION ( 'NONE',  ( 0.000000000000000000, 1.000000000000000000, 0.000000000000000000 ) ) ;
#31 = VECTOR ( 'NONE', #376, 100.0000000000000000 ) ;
#32 = AXIS2_PLACEMENT_3D ( 'NONE', #141, #355, #689 ) ;
#33 = ORIENTED_EDGE ( 'NONE', *, *, #577, .T. ) ;
#34 = LINE ( 'NONE', #500, #265 ) ;
#35 = CARTESIAN_POINT ( 'NONE',  ( -1.030000000000004468, 15.73000000000000576, 0.4000000000000000222 ) ) ;
#36 = EDGE_CURVE ( 'NONE', #286, #177, #726, .T. ) ;
#37 = FACE_BOUND ( 'NONE', #900, .T. ) ;
#38 = ORIENTED_EDGE ( 'NONE', *, *, #553, .T. ) ;
#39 = CARTESIAN_POINT ( 'NONE',  ( 15.54999999999999716, 16.55000000000000071, 0.000000000000000000 ) ) ;
#40 = DIRECTION ( 'NONE',  ( 0.000000000000000000, 1.000000000000000000, -0.000000000000000000 ) ) ;
#41 = DIRECTION ( 'NONE',  ( -0.000000000000000000, -0.000000000000000000, 1.000000000000000000 ) ) ;
#42 = EDGE_CURVE ( 'NONE', #389, #718, #431, .T. ) ;
#43 = EDGE_LOOP ( 'NONE', ( #557, #357, #405, #971 ) ) ;
#44 = CIRCLE ( 'NONE', #594, 0.3000000000000030420 ) ;
#45 = DIRECTION ( 'NONE',  ( 0.000000000000000000, 0.000000000000000000, -1.000000000000000000 ) ) ;
#46 = ORIENTED_EDGE ( 'NONE', *, *, #61, .T. ) ;
#47 = EDGE_CURVE ( 'NONE', #961, #231, #491, .T. ) ;
#48 = LINE ( 'NONE', #433, #812 ) ;
#49 = DIRECTION ( 'NONE',  ( 0.000000000000000000, -1.000000000000000000, 0.000000000000000000 ) ) ;
#50 = VERTEX_POINT ( 'NONE', #190 ) ;
#51 = CARTESIAN_POINT ( 'NONE',  ( -1.030000000000004468, -1.029999999999998916, 0.4000000000000000222 ) ) ;
#52 = PLANE ( 'NONE',  #845 ) ;
#53 = ADVANCED_FACE ( 'NONE', ( #37, #592, #725, #416, #821, #663 ), #119, .T. ) ;
#54 = CARTESIAN_POINT ( 'NONE',  ( 15.54999999999999716, -0.8499999999999994227, 0.000000000000000000 ) ) ;
#55 = ORIENTED_EDGE ( 'NONE', *, *, #622, .F. ) ;
#56 = CARTESIAN_POINT ( 'NONE',  ( 14.69999999999999929, 2.775557561562891351E-15, 0.000000000000000000 ) ) ;
#57 = VERTEX_POINT ( 'NONE', #880 ) ;
#58 = ADVANCED_FACE ( 'NONE', ( #655 ), #956, .F. ) ;
#59 = FACE_OUTER_BOUND ( 'NONE', #386, .T. ) ;
#60 = AXIS2_PLACEMENT_3D ( 'NONE', #64, #973, #761 ) ;
#61 = EDGE_CURVE ( 'NONE', #514, #772, #264, .T. ) ;
#62 = VECTOR ( 'NONE', #597, 100.0000000000000000 ) ;
#63 = CARTESIAN_POINT ( 'NONE',  ( 15.14999999999999680, 15.45000000000000284, 1.000000000000000000 ) ) ;
#64 = CARTESIAN_POINT ( 'NONE',  ( 16.54999999999999716, 16.55000000000000071, 0.000000000000000000 ) ) ;
#65 = EDGE_LOOP ( 'NONE', ( #947, #467, #201, #86, #527, #166, #256, #375 ) ) ;
#66 = CARTESIAN_POINT ( 'NONE',  ( 15.54999999999999716, -0.8499999999999994227, 0.000000000000000000 ) ) ;
#67 = EDGE_CURVE ( 'NONE', #298, #656, #593, .T. ) ;
#68 = LINE ( 'NONE', #372, #18 ) ;
#69 = DIRECTION ( 'NONE',  ( 0.5773502691896263972, -0.5773502691896245098, -0.5773502691896263972 ) ) ;
#70 = ORIENTED_EDGE ( 'NONE', *, *, #756, .T. ) ;
#71 = DIRECTION ( 'NONE',  ( -1.888134395621014649E-16, 1.000000000000000000, 0.000000000000000000 ) ) ;
#72 = CARTESIAN_POINT ( 'NONE',  ( -0.8500000000000020872, -0.8499999999999979794, 0.000000000000000000 ) ) ;
#73 = EDGE_LOOP ( 'NONE', ( #222, #187, #307, #137 ) ) ;
#74 = AXIS2_PLACEMENT_3D ( 'NONE', #440, #678, #446 ) ;
#75 = VECTOR ( 'NONE', #280, 100.0000000000000142 ) ;
#76 = ORIENTED_EDGE ( 'NONE', *, *, #471, .T. ) ;
#77 = EDGE_CURVE ( 'NONE', #819, #354, #349, .T. ) ;
#78 = LINE ( 'NONE', #310, #728 ) ;
#79 = AXIS2_PLACEMENT_3D ( 'NONE', #249, #665, #889 ) ;
#80 = ORIENTED_EDGE ( 'NONE', *, *, #950, .T. ) ;
#81 = DIRECTION ( 'NONE',  ( 0.000000000000000000, 0.000000000000000000, -1.000000000000000000 ) ) ;
#82 =( NAMED_UNIT ( * ) PLANE_ANGLE_UNIT ( ) SI_UNIT ( $, .RADIAN. ) );
#83 = ORIENTED_EDGE ( 'NONE', *, *, #730, .T. ) ;
#84 = FACE_OUTER_BOUND ( 'NONE', #859, .T. ) ;
#85 = EDGE_CURVE ( 'NONE', #651, #898, #28, .T. ) ;
#86 = ORIENTED_EDGE ( 'NONE', *, *, #608, .T. ) ;
#87 = VERTEX_POINT ( 'NONE', #521 ) ;
#88 = DIRECTION ( 'NONE',  ( 0.000000000000000000, 0.000000000000000000, 1.000000000000000000 ) ) ;
#89 = ORIENTED_EDGE ( 'NONE', *, *, #706, .T. ) ;
#90 = DIRECTION ( 'NONE',  ( 8.280302987956117279E-17, 1.000000000000000000, 0.000000000000000000 ) ) ;
#91 =( LENGTH_UNIT ( ) NAMED_UNIT ( * ) SI_UNIT ( .CENTI., .METRE. ) );
#92 = ORIENTED_EDGE ( 'NONE', *, *, #112, .F. ) ;
#93 = DIRECTION ( 'NONE',  ( 0.000000000000000000, 1.000000000000000000, 0.000000000000000000 ) ) ;
#94 = CARTESIAN_POINT ( 'NONE',  ( 7.349999999999997868, 7.350000000000001421, 0.4000000000000000222 ) ) ;
#95 = EDGE_CURVE ( 'NONE', #445, #50, #916, .T. ) ;
#96 = VERTEX_POINT ( 'NONE', #223 ) ;
#97 = SURFACE_STYLE_FILL_AREA ( #806 ) ;
#98 = FACE_OUTER_BOUND ( 'NONE', #73, .T. ) ;
#99 = PRESENTATION_STYLE_ASSIGNMENT (( #336 ) ) ;
#100 = PLANE ( 'NONE',  #460 ) ;
#101 = ORIENTED_EDGE ( 'NONE', *, *, #47, .F. ) ;
#102 = ORIENTED_EDGE ( 'NONE', *, *, #182, .F. ) ;
#103 = AXIS2_PLACEMENT_3D ( 'NONE', #186, #41, #426 ) ;
#104 = PLANE ( 'NONE',  #888 ) ;
#105 = VECTOR ( 'NONE', #160, 100.0000000000000000 ) ;
#106 = DIRECTION ( 'NONE',  ( 0.000000000000000000, -1.000000000000000000, 0.000000000000000000 ) ) ;
#107 = CLOSED_SHELL ( 'NONE', ( #865, #702, #163, #659, #907, #457, #24, #343, #939, #242, #488, #58, #541, #974, #53, #155, #881, #288, #365, #522, #993, #437, #743, #627, #671, #805, #763, #645, #189, #960, #799 ) ) ;
#108 = DIRECTION ( 'NONE',  ( -1.000000000000000000, 1.508455196501571429E-16, 0.000000000000000000 ) ) ;
#109 = VECTOR ( 'NONE', #783, 100.0000000000000000 ) ;
#110 = ORIENTED_EDGE ( 'NONE', *, *, #517, .T. ) ;
#111 = DIRECTION ( 'NONE',  ( 5.855058393063011923E-17, 0.7071067811865487940, -0.7071067811865462405 ) ) ;
#112 = EDGE_CURVE ( 'NONE', #284, #514, #371, .T. ) ;
#113 = CARTESIAN_POINT ( 'NONE',  ( -0.4500000000000003997, 15.15000000000000213, 1.000000000000000000 ) ) ;
#114 = CARTESIAN_POINT ( 'NONE',  ( 16.54999999999999716, -1.849999999999998757, 0.000000000000000000 ) ) ;
#115 = VERTEX_POINT ( 'NONE', #773 ) ;
#116 = DIRECTION ( 'NONE',  ( -1.000000000000000000, 1.508455196501571429E-16, 0.000000000000000000 ) ) ;
#117 = DIRECTION ( 'NONE',  ( 0.000000000000000000, 0.000000000000000000, -1.000000000000000000 ) ) ;
#118 = VERTEX_POINT ( 'NONE', #623 ) ;
#119 = PLANE ( 'NONE',  #509 ) ;
#120 = ORIENTED_EDGE ( 'NONE', *, *, #255, .F. ) ;
#121 = FACE_BOUND ( 'NONE', #664, .T. ) ;
#122 = AXIS2_PLACEMENT_3D ( 'NONE', #895, #193, #534 ) ;
#123 = FACE_OUTER_BOUND ( 'NONE', #784, .T. ) ;
#124 = ORIENTED_EDGE ( 'NONE', *, *, #406, .F. ) ;
#125 = EDGE_CURVE ( 'NONE', #354, #576, #698, .T. ) ;
#126 = VECTOR ( 'NONE', #701, 100.0000000000000000 ) ;
#127 = CARTESIAN_POINT ( 'NONE',  ( -1.030000000000004468, 15.73000000000000576, 0.4000000000000000222 ) ) ;
#128 = CARTESIAN_POINT ( 'NONE',  ( 14.69999999999999929, 2.775557561562891351E-15, 0.000000000000000000 ) ) ;
#129 = DIRECTION ( 'NONE',  ( 1.000000000000000000, -1.508455196501571429E-16, 0.000000000000000000 ) ) ;
#130 = FACE_BOUND ( 'NONE', #816, .T. ) ;
#131 = DIRECTION ( 'NONE',  ( 0.7071067811865475727, 0.000000000000000000, -0.7071067811865475727 ) ) ;
#132 = ORIENTED_EDGE ( 'NONE', *, *, #136, .F. ) ;
#133 = CARTESIAN_POINT ( 'NONE',  ( -1.030000000000004468, 15.73000000000000576, 0.4000000000000000222 ) ) ;
#134 = EDGE_LOOP ( 'NONE', ( #905, #550, #677, #181 ) ) ;
#135 = DIRECTION ( 'NONE',  ( 0.000000000000000000, 0.000000000000000000, -1.000000000000000000 ) ) ;
#136 = EDGE_CURVE ( 'NONE', #344, #50, #281, .T. ) ;
#137 = ORIENTED_EDGE ( 'NONE', *, *, #420, .T. ) ;
#138 = CIRCLE ( 'NONE', #313, 1.000000000000000888 ) ;
#139 = DIRECTION ( 'NONE',  ( 0.000000000000000000, 1.000000000000000000, 0.000000000000000000 ) ) ;
#140 = AXIS2_PLACEMENT_3D ( 'NONE', #72, #2, #696 ) ;
#141 = CARTESIAN_POINT ( 'NONE',  ( 7.349999999999997868, 7.350000000000001421, 1.000000000000000000 ) ) ;
#142 = ORIENTED_EDGE ( 'NONE', *, *, #432, .T. ) ;
#143 = VECTOR ( 'NONE', #178, 100.0000000000000000 ) ;
#144 = CARTESIAN_POINT ( 'NONE',  ( -0.4500000000000017875, -0.1499999999999987454, 1.000000000000000000 ) ) ;
#145 = DIRECTION ( 'NONE',  ( -0.000000000000000000, -0.000000000000000000, 1.000000000000000000 ) ) ;
#146 = ORIENTED_EDGE ( 'NONE', *, *, #566, .F. ) ;
#147 = CARTESIAN_POINT ( 'NONE',  ( 14.69999999999999929, 14.70000000000000284, 1.000000000000000000 ) ) ;
#148 = CARTESIAN_POINT ( 'NONE',  ( -0.4500000000000017875, -0.4499999999999990119, 1.000000000000000000 ) ) ;
#149 = EDGE_CURVE ( 'NONE', #115, #469, #693, .T. ) ;
#150 = ORIENTED_EDGE ( 'NONE', *, *, #860, .F. ) ;
#151 = DIRECTION ( 'NONE',  ( 0.5773502691896256200, -0.5773502691896258421, 0.5773502691896257311 ) ) ;
#152 = AXIS2_PLACEMENT_3D ( 'NONE', #835, #145, #996 ) ;
#153 = AXIS2_PLACEMENT_3D ( 'NONE', #572, #263, #648 ) ;
#154 = APPLICATION_CONTEXT ( 'automotive_design' ) ;
#155 = ADVANCED_FACE ( 'NONE', ( #366 ), #436, .F. ) ;
#156 = ORIENTED_EDGE ( 'NONE', *, *, #195, .F. ) ;
#157 = CARTESIAN_POINT ( 'NONE',  ( -1.850000000000001643, 15.55000000000000249, 0.000000000000000000 ) ) ;
#158 = AXIS2_PLACEMENT_3D ( 'NONE', #842, #750, #441 ) ;
#159 = EDGE_LOOP ( 'NONE', ( #896, #737, #777, #83 ) ) ;
#160 = DIRECTION ( 'NONE',  ( 1.000000000000000000, -1.656060597591223456E-16, 0.000000000000000000 ) ) ;
#161 = ORIENTED_EDGE ( 'NONE', *, *, #415, .F. ) ;
#162 = DIRECTION ( 'NONE',  ( 1.888134395621014649E-16, -1.000000000000000000, 0.000000000000000000 ) ) ;
#163 = ADVANCED_FACE ( 'NONE', ( #846 ), #383, .F. ) ;
#164 = ORIENTED_EDGE ( 'NONE', *, *, #377, .F. ) ;
#165 = DIRECTION ( 'NONE',  ( 0.000000000000000000, 1.000000000000000000, 0.000000000000000000 ) ) ;
#166 = ORIENTED_EDGE ( 'NONE', *, *, #890, .T. ) ;
#167 = CARTESIAN_POINT ( 'NONE',  ( -1.850000000000001643, 15.55000000000000249, 0.4000000000000000222 ) ) ;
#168 = EDGE_CURVE ( 'NONE', #831, #318, #548, .T. ) ;
#169 = CARTESIAN_POINT ( 'NONE',  ( 4.556666666666663090, 10.14333333333333620, 6.386666666666665826 ) ) ;
#170 = VECTOR ( 'NONE', #185, 100.0000000000000000 ) ;
#171 = EDGE_LOOP ( 'NONE', ( #909, #254, #571, #788 ) ) ;
#172 = DIRECTION ( 'NONE',  ( -1.171011678612600412E-16, -0.7071067811865475727, -0.7071067811865475727 ) ) ;
#173 = VECTOR ( 'NONE', #555, 100.0000000000000000 ) ;
#174 = EDGE_LOOP ( 'NONE', ( #692, #543, #588, #161 ) ) ;
#175 = DIRECTION ( 'NONE',  ( 0.000000000000000000, -1.000000000000000000, 0.000000000000000000 ) ) ;
#176 = CARTESIAN_POINT ( 'NONE',  ( -0.4500000000000003997, 15.15000000000000213, 1.000000000000000000 ) ) ;
#177 = VERTEX_POINT ( 'NONE', #300 ) ;
#178 = DIRECTION ( 'NONE',  ( 1.000000000000000000, -1.508455196501571429E-16, 0.000000000000000000 ) ) ;
#179 = CARTESIAN_POINT ( 'NONE',  ( 15.52999999999999936, 15.52999999999999936, 1.000000000000000000 ) ) ;
#180 = DIRECTION ( 'NONE',  ( -1.000000000000000000, 1.508455196501571429E-16, 0.000000000000000000 ) ) ;
#181 = ORIENTED_EDGE ( 'NONE', *, *, #415, .T. ) ;
#182 = EDGE_CURVE ( 'NONE', #537, #867, #982, .T. ) ;
#183 = AXIS2_PLACEMENT_3D ( 'NONE', #326, #81, #401 ) ;
#184 = AXIS2_PLACEMENT_3D ( 'NONE', #54, #205, #438 ) ;
#185 = DIRECTION ( 'NONE',  ( -0.000000000000000000, -1.000000000000000000, 0.000000000000000000 ) ) ;
#186 = CARTESIAN_POINT ( 'NONE',  ( -0.8500000000000007550, 15.55000000000000249, 0.4000000000000000222 ) ) ;
#187 = ORIENTED_EDGE ( 'NONE', *, *, #722, .F. ) ;
#188 = DIRECTION ( 'NONE',  ( 0.000000000000000000, 1.000000000000000000, 0.000000000000000000 ) ) ;
#189 = ADVANCED_FACE ( 'NONE', ( #923 ), #687, .T. ) ;
#190 = CARTESIAN_POINT ( 'NONE',  ( -0.4500000000000017875, -0.7499999999999993339, 0.000000000000000000 ) ) ;
#191 = ORIENTED_EDGE ( 'NONE', *, *, #36, .T. ) ;
#192 = DIRECTION ( 'NONE',  ( 0.000000000000000000, 1.000000000000000000, 0.000000000000000000 ) ) ;
#193 = DIRECTION ( 'NONE',  ( -1.000000000000000000, 0.000000000000000000, 0.000000000000000000 ) ) ;
#194 = ORIENTED_EDGE ( 'NONE', *, *, #688, .F. ) ;
#195 = EDGE_CURVE ( 'NONE', #690, #87, #607, .T. ) ;
#196 = CARTESIAN_POINT ( 'NONE',  ( 15.14999999999999680, -0.4499999999999990119, 1.000000000000000000 ) ) ;
#197 = CARTESIAN_POINT ( 'NONE',  ( 16.54999999999999716, 16.55000000000000071, 0.4000000000000000222 ) ) ;
#198 = AXIS2_PLACEMENT_3D ( 'NONE', #196, #275, #408 ) ;
#199 = CIRCLE ( 'NONE', #13, 0.3000000000000008216 ) ;
#200 = DIRECTION ( 'NONE',  ( 0.000000000000000000, 0.000000000000000000, -1.000000000000000000 ) ) ;
#201 = ORIENTED_EDGE ( 'NONE', *, *, #775, .T. ) ;
#202 = DIRECTION ( 'NONE',  ( 0.000000000000000000, 1.000000000000000000, -0.000000000000000000 ) ) ;
#203 = VECTOR ( 'NONE', #340, 100.0000000000000000 ) ;
#204 = LINE ( 'NONE', #208, #384 ) ;
#205 = DIRECTION ( 'NONE',  ( 0.000000000000000000, 0.000000000000000000, -1.000000000000000000 ) ) ;
#206 = ORIENTED_EDGE ( 'NONE', *, *, #980, .F. ) ;
#207 = LINE ( 'NONE', #758, #710 ) ;
#208 = CARTESIAN_POINT ( 'NONE',  ( 0.000000000000000000, 0.000000000000000000, 0.000000000000000000 ) ) ;
#209 = DIRECTION ( 'NONE',  ( 0.000000000000000000, 0.000000000000000000, 1.000000000000000000 ) ) ;
#210 = CARTESIAN_POINT ( 'NONE',  ( -1.030000000000004468, 15.73000000000000576, 0.7999999999999998224 ) ) ;
#211 = DIRECTION ( 'NONE',  ( 0.000000000000000000, 0.000000000000000000, -1.000000000000000000 ) ) ;
#212 = EDGE_CURVE ( 'NONE', #177, #398, #849, .T. ) ;
#213 = ORIENTED_EDGE ( 'NONE', *, *, #212, .T. ) ;
#214 = CARTESIAN_POINT ( 'NONE',  ( 16.54999999999999716, 16.55000000000000071, 0.000000000000000000 ) ) ;
#215 = EDGE_LOOP ( 'NONE', ( #804, #825, #606, #611 ) ) ;
#216 = VECTOR ( 'NONE', #785, 100.0000000000000000 ) ;
#217 = DIRECTION ( 'NONE',  ( 0.000000000000000000, 0.000000000000000000, -1.000000000000000000 ) ) ;
#218 = AXIS2_PLACEMENT_3D ( 'NONE', #581, #732, #180 ) ;
#219 = AXIS2_PLACEMENT_3D ( 'NONE', #551, #162, #394 ) ;
#220 = ORIENTED_EDGE ( 'NONE', *, *, #602, .F. ) ;
#221 = LINE ( 'NONE', #978, #62 ) ;
#222 = ORIENTED_EDGE ( 'NONE', *, *, #233, .F. ) ;
#223 = CARTESIAN_POINT ( 'NONE',  ( 15.54999999999999716, 16.55000000000000071, 0.4000000000000000222 ) ) ;
#224 = EDGE_LOOP ( 'NONE', ( #686, #628, #335, #393 ) ) ;
#225 = FACE_OUTER_BOUND ( 'NONE', #411, .T. ) ;
#226 = VERTEX_POINT ( 'NONE', #293 ) ;
#227 = CARTESIAN_POINT ( 'NONE',  ( 15.14999999999999680, -0.7499999999999993339, 1.000000000000000000 ) ) ;
#228 = EDGE_CURVE ( 'NONE', #977, #537, #207, .T. ) ;
#229 = VERTEX_POINT ( 'NONE', #287 ) ;
#230 = CARTESIAN_POINT ( 'NONE',  ( -0.4500000000000017875, -0.4499999999999990119, 1.000000000000000000 ) ) ;
#231 = VERTEX_POINT ( 'NONE', #210 ) ;
#232 = FACE_OUTER_BOUND ( 'NONE', #339, .T. ) ;
#233 = EDGE_CURVE ( 'NONE', #651, #499, #612, .T. ) ;
#234 = CIRCLE ( 'NONE', #827, 0.3000000000000030420 ) ;
#235 = CARTESIAN_POINT ( 'NONE',  ( 0.07349999999999998201, 0.07350000000000000977, 0.01000000000000000021 ) ) ;
#236 = VERTEX_POINT ( 'NONE', #556 ) ;
#237 = CARTESIAN_POINT ( 'NONE',  ( 15.73000000000000043, -1.030000000000000249, 0.4000000000000000222 ) ) ;
#238 = CIRCLE ( 'NONE', #532, 0.3000000000000008216 ) ;
#239 = ORIENTED_EDGE ( 'NONE', *, *, #42, .F. ) ;
#240 = PLANE ( 'NONE',  #869 ) ;
#241 = ORIENTED_EDGE ( 'NONE', *, *, #926, .F. ) ;
#242 = ADVANCED_FACE ( 'NONE', ( #232, #540 ), #240, .F. ) ;
#243 = DIRECTION ( 'NONE',  ( -1.000000000000000000, 8.280302987956117279E-17, 0.000000000000000000 ) ) ;
#244 = CARTESIAN_POINT ( 'NONE',  ( 7.349999999999997868, -0.8300000000000016254, 1.000000000000000000 ) ) ;
#245 = CARTESIAN_POINT ( 'NONE',  ( 15.54999999999999716, -1.849999999999998757, 0.000000000000000000 ) ) ;
#246 = CARTESIAN_POINT ( 'NONE',  ( 15.54999999999999716, -1.849999999999998757, 0.000000000000000000 ) ) ;
#247 = VECTOR ( 'NONE', #279, 100.0000000000000000 ) ;
#248 = ORIENTED_EDGE ( 'NONE', *, *, #19, .T. ) ;
#249 = CARTESIAN_POINT ( 'NONE',  ( 15.54999999999999716, 15.55000000000000249, 0.4000000000000000222 ) ) ;
#250 = CARTESIAN_POINT ( 'NONE',  ( 15.73000000000000043, 15.73000000000000043, 0.4000000000000000222 ) ) ;
#251 = ORIENTED_EDGE ( 'NONE', *, *, #303, .F. ) ;
#252 = CARTESIAN_POINT ( 'NONE',  ( 14.69999999999999929, 2.775557561562891351E-15, 1.000000000000000000 ) ) ;
#253 = CARTESIAN_POINT ( 'NONE',  ( -0.4500000000000003997, 15.15000000000000213, 0.000000000000000000 ) ) ;
#254 = ORIENTED_EDGE ( 'NONE', *, *, #559, .F. ) ;
#255 = EDGE_CURVE ( 'NONE', #115, #298, #927, .T. ) ;
#256 = ORIENTED_EDGE ( 'NONE', *, *, #584, .T. ) ;
#257 = PLANE ( 'NONE',  #153 ) ;
#258 = DIRECTION ( 'NONE',  ( -1.000000000000000000, 1.656060597591223456E-16, 0.000000000000000000 ) ) ;
#259 = EDGE_CURVE ( 'NONE', #231, #284, #311, .T. ) ;
#260 = EDGE_LOOP ( 'NONE', ( #800, #839, #213, #694 ) ) ;
#261 = VECTOR ( 'NONE', #26, 100.0000000000000000 ) ;
#262 = DIRECTION ( 'NONE',  ( 0.000000000000000000, 0.000000000000000000, -1.000000000000000000 ) ) ;
#263 = DIRECTION ( 'NONE',  ( 1.000000000000000000, 0.000000000000000000, 0.000000000000000000 ) ) ;
#264 = LINE ( 'NONE', #658, #919 ) ;
#265 = VECTOR ( 'NONE', #418, 100.0000000000000000 ) ;
#266 = ORIENTED_EDGE ( 'NONE', *, *, #136, .T. ) ;
#267 = FACE_OUTER_BOUND ( 'NONE', #373, .T. ) ;
#268 = EDGE_CURVE ( 'NONE', #690, #587, #780, .T. ) ;
#269 = DIRECTION ( 'NONE',  ( 1.000000000000000000, -1.656060597591223949E-16, 0.000000000000000000 ) ) ;
#270 = ORIENTED_EDGE ( 'NONE', *, *, #529, .F. ) ;
#271 = ORIENTED_EDGE ( 'NONE', *, *, #850, .T. ) ;
#272 = CARTESIAN_POINT ( 'NONE',  ( -0.4500000000000003997, 15.45000000000000284, 1.000000000000000000 ) ) ;
#273 = LINE ( 'NONE', #444, #695 ) ;
#274 = ORIENTED_EDGE ( 'NONE', *, *, #149, .F. ) ;
#275 = DIRECTION ( 'NONE',  ( 0.000000000000000000, 0.000000000000000000, -1.000000000000000000 ) ) ;
#276 = DIRECTION ( 'NONE',  ( 0.000000000000000000, 0.000000000000000000, -1.000000000000000000 ) ) ;
#277 = ORIENTED_EDGE ( 'NONE', *, *, #268, .F. ) ;
#278 = VECTOR ( 'NONE', #450, 100.0000000000000000 ) ;
#279 = DIRECTION ( 'NONE',  ( -0.000000000000000000, -0.000000000000000000, 1.000000000000000000 ) ) ;
#280 = DIRECTION ( 'NONE',  ( -0.5773502691896263972, -0.5773502691896242878, -0.5773502691896263972 ) ) ;
#281 = CIRCLE ( 'NONE', #810, 0.3000000000000008216 ) ;
#282 =( GEOMETRIC_REPRESENTATION_CONTEXT ( 3 ) GLOBAL_UNCERTAINTY_ASSIGNED_CONTEXT ( ( #979 ) ) GLOBAL_UNIT_ASSIGNED_CONTEXT ( ( #813, #953, #882 ) ) REPRESENTATION_CONTEXT ( 'NONE', 'WORKASPACE' ) );
#283 = CYLINDRICAL_SURFACE ( 'NONE', #952, 1.000000000000000888 ) ;
#284 = VERTEX_POINT ( 'NONE', #931 ) ;
#285 = FACE_OUTER_BOUND ( 'NONE', #292, .T. ) ;
#286 = VERTEX_POINT ( 'NONE', #227 ) ;
#287 = CARTESIAN_POINT ( 'NONE',  ( 15.14999999999999680, 15.45000000000000284, 0.000000000000000000 ) ) ;
#288 = ADVANCED_FACE ( 'NONE', ( #98 ), #482, .F. ) ;
#289 = DIRECTION ( 'NONE',  ( -1.000000000000000000, 8.280302987956119744E-17, 0.000000000000000000 ) ) ;
#290 = EDGE_LOOP ( 'NONE', ( #643, #854, #530, #740 ) ) ;
#291 = DIRECTION ( 'NONE',  ( 0.000000000000000000, 1.000000000000000000, 0.000000000000000000 ) ) ;
#292 = EDGE_LOOP ( 'NONE', ( #156, #660, #417, #220 ) ) ;
#293 = CARTESIAN_POINT ( 'NONE',  ( 0.000000000000000000, 14.69999999999999929, 0.000000000000000000 ) ) ;
#294 = PRODUCT_DEFINITION ( 'UNKNOWN', '', #3, #672 ) ;
#295 = FACE_OUTER_BOUND ( 'NONE', #435, .T. ) ;
#296 = EDGE_LOOP ( 'NONE', ( #38, #503, #449, #142 ) ) ;
#297 = CARTESIAN_POINT ( 'NONE',  ( -1.030000000000004468, -1.029999999999998916, 0.4000000000000000222 ) ) ;
#298 = VERTEX_POINT ( 'NONE', #853 ) ;
#299 = CIRCLE ( 'NONE', #793, 0.3000000000000030420 ) ;
#300 = CARTESIAN_POINT ( 'NONE',  ( 15.14999999999999680, -0.1499999999999987454, 1.000000000000000000 ) ) ;
#301 = ORIENTED_EDGE ( 'NONE', *, *, #483, .T. ) ;
#302 = CARTESIAN_POINT ( 'NONE',  ( 15.14999999999999680, 14.84999999999999964, 1.000000000000000000 ) ) ;
#303 = EDGE_CURVE ( 'NONE', #831, #656, #392, .T. ) ;
#304 = CARTESIAN_POINT ( 'NONE',  ( 15.73000000000000043, 15.73000000000000043, 0.7999999999999998224 ) ) ;
#305 = EDGE_LOOP ( 'NONE', ( #14, #124 ) ) ;
#306 = CARTESIAN_POINT ( 'NONE',  ( -1.850000000000001643, 15.55000000000000249, 0.000000000000000000 ) ) ;
#307 = ORIENTED_EDGE ( 'NONE', *, *, #932, .T. ) ;
#308 = FACE_OUTER_BOUND ( 'NONE', #224, .T. ) ;
#309 = VERTEX_POINT ( 'NONE', #404 ) ;
#310 = CARTESIAN_POINT ( 'NONE',  ( 15.73000000000000043, -1.030000000000000249, 0.7999999999999998224 ) ) ;
#311 = LINE ( 'NONE', #862, #105 ) ;
#312 = AXIS2_PLACEMENT_3D ( 'NONE', #790, #90, #22 ) ;
#313 = AXIS2_PLACEMENT_3D ( 'NONE', #751, #135, #995 ) ;
#314 = EDGE_CURVE ( 'NONE', #231, #772, #720, .T. ) ;
#315 = EDGE_LOOP ( 'NONE', ( #33, #364 ) ) ;
#316 = DIRECTION ( 'NONE',  ( -0.000000000000000000, -0.000000000000000000, 1.000000000000000000 ) ) ;
#317 = AXIS2_PLACEMENT_3D ( 'NONE', #448, #211, #766 ) ;
#318 = VERTEX_POINT ( 'NONE', #11 ) ;
#319 = CARTESIAN_POINT ( 'NONE',  ( 16.54999999999999716, -0.8499999999999979794, 0.000000000000000000 ) ) ;
#320 = APPLICATION_PROTOCOL_DEFINITION ( 'draft international standard', 'automotive_design', 1998, #154 ) ;
#321 = EDGE_LOOP ( 'NONE', ( #796, #621, #975, #266 ) ) ;
#322 = DIRECTION ( 'NONE',  ( 0.000000000000000000, 1.000000000000000000, 0.000000000000000000 ) ) ;
#323 = DIRECTION ( 'NONE',  ( 1.000000000000000000, -8.280302987956117279E-17, 0.000000000000000000 ) ) ;
#324 = ORIENTED_EDGE ( 'NONE', *, *, #749, .T. ) ;
#325 = EDGE_CURVE ( 'NONE', #772, #690, #461, .T. ) ;
#326 = CARTESIAN_POINT ( 'NONE',  ( 15.14999999999999680, 15.15000000000000213, 1.000000000000000000 ) ) ;
#327 = VECTOR ( 'NONE', #504, 100.0000000000000000 ) ;
#328 = VECTOR ( 'NONE', #528, 100.0000000000000000 ) ;
#329 = ORIENTED_EDGE ( 'NONE', *, *, #722, .T. ) ;
#330 = DIRECTION ( 'NONE',  ( 0.000000000000000000, 0.000000000000000000, -1.000000000000000000 ) ) ;
#331 = EDGE_CURVE ( 'NONE', #57, #831, #388, .T. ) ;
#332 = VECTOR ( 'NONE', #15, 100.0000000000000000 ) ;
#333 = DIRECTION ( 'NONE',  ( 1.000000000000000000, 0.000000000000000000, 0.000000000000000000 ) ) ;
#334 = CARTESIAN_POINT ( 'NONE',  ( 7.349999999999997868, 7.350000000000001421, 0.000000000000000000 ) ) ;
#335 = ORIENTED_EDGE ( 'NONE', *, *, #837, .T. ) ;
#336 = SURFACE_STYLE_USAGE ( .BOTH. , #403 ) ;
#337 = CARTESIAN_POINT ( 'NONE',  ( 16.54999999999999716, 15.55000000000000249, 0.4000000000000000222 ) ) ;
#338 = CARTESIAN_POINT ( 'NONE',  ( 15.73000000000000043, 15.73000000000000043, 0.4000000000000000222 ) ) ;
#339 = EDGE_LOOP ( 'NONE', ( #251, #427, #350, #80, #711, #465, #472, #757 ) ) ;
#340 = DIRECTION ( 'NONE',  ( -0.000000000000000000, -0.000000000000000000, -1.000000000000000000 ) ) ;
#341 = CARTESIAN_POINT ( 'NONE',  ( 16.54999999999999716, -0.8499999999999979794, 0.000000000000000000 ) ) ;
#342 = DIRECTION ( 'NONE',  ( 0.000000000000000000, 0.000000000000000000, -1.000000000000000000 ) ) ;
#343 = ADVANCED_FACE ( 'NONE', ( #8 ), #717, .F. ) ;
#344 = VERTEX_POINT ( 'NONE', #547 ) ;
#345 = CIRCLE ( 'NONE', #492, 0.3000000000000030420 ) ;
#346 = DIRECTION ( 'NONE',  ( -1.000000000000000000, -1.888134395621014649E-16, 0.000000000000000000 ) ) ;
#347 = LINE ( 'NONE', #502, #382 ) ;
#348 = MECHANICAL_DESIGN_GEOMETRIC_PRESENTATION_REPRESENTATION (  '', ( #515 ), #282 ) ;
#349 = LINE ( 'NONE', #56, #795 ) ;
#350 = ORIENTED_EDGE ( 'NONE', *, *, #871, .F. ) ;
#351 = CARTESIAN_POINT ( 'NONE',  ( 16.54999999999999716, 15.55000000000000249, 0.000000000000000000 ) ) ;
#352 = CARTESIAN_POINT ( 'NONE',  ( -1.030000000000004468, 15.73000000000000576, 0.7999999999999998224 ) ) ;
#353 = ORIENTED_EDGE ( 'NONE', *, *, #168, .F. ) ;
#354 = VERTEX_POINT ( 'NONE', #552 ) ;
#355 = DIRECTION ( 'NONE',  ( 0.000000000000000000, 0.000000000000000000, -1.000000000000000000 ) ) ;
#356 = CARTESIAN_POINT ( 'NONE',  ( 14.69999999999999929, 14.70000000000000284, 0.000000000000000000 ) ) ;
#357 = ORIENTED_EDGE ( 'NONE', *, *, #233, .T. ) ;
#358 = DIRECTION ( 'NONE',  ( 0.000000000000000000, 0.000000000000000000, -1.000000000000000000 ) ) ;
#359 = DIRECTION ( 'NONE',  ( 0.000000000000000000, -1.000000000000000000, 0.000000000000000000 ) ) ;
#360 = ORIENTED_EDGE ( 'NONE', *, *, #112, .T. ) ;
#361 = VECTOR ( 'NONE', #165, 100.0000000000000000 ) ;
#362 = VECTOR ( 'NONE', #794, 100.0000000000000000 ) ;
#363 = FACE_OUTER_BOUND ( 'NONE', #215, .T. ) ;
#364 = ORIENTED_EDGE ( 'NONE', *, *, #566, .T. ) ;
#365 = ADVANCED_FACE ( 'NONE', ( #308 ), #477, .F. ) ;
#366 = FACE_OUTER_BOUND ( 'NONE', #321, .T. ) ;
#367 = CIRCLE ( 'NONE', #317, 0.3000000000000008216 ) ;
#368 = PLANE ( 'NONE',  #986 ) ;
#369 = VERTEX_POINT ( 'NONE', #468 ) ;
#370 = LINE ( 'NONE', #904, #442 ) ;
#371 = LINE ( 'NONE', #304, #31 ) ;
#372 = CARTESIAN_POINT ( 'NONE',  ( 15.14999999999999680, 15.45000000000000284, 1.000000000000000000 ) ) ;
#373 = EDGE_LOOP ( 'NONE', ( #539, #567, #991, #277 ) ) ;
#374 = LINE ( 'NONE', #128, #247 ) ;
#375 = ORIENTED_EDGE ( 'NONE', *, *, #640, .T. ) ;
#376 = DIRECTION ( 'NONE',  ( -0.5773502691896258421, -0.5773502691896257311, 0.5773502691896258421 ) ) ;
#377 = EDGE_CURVE ( 'NONE', #819, #913, #946, .T. ) ;
#378 = ORIENTED_EDGE ( 'NONE', *, *, #19, .F. ) ;
#379 = CARTESIAN_POINT ( 'NONE',  ( 15.14999999999999680, 15.15000000000000213, 1.000000000000000000 ) ) ;
#380 = VECTOR ( 'NONE', #129, 100.0000000000000000 ) ;
#381 = ORIENTED_EDGE ( 'NONE', *, *, #591, .F. ) ;
#382 = VECTOR ( 'NONE', #414, 100.0000000000000000 ) ;
#383 = CYLINDRICAL_SURFACE ( 'NONE', #74, 0.3000000000000008216 ) ;
#384 = VECTOR ( 'NONE', #511, 100.0000000000000000 ) ;
#385 = SHAPE_DEFINITION_REPRESENTATION ( #646, #650 ) ;
#386 = EDGE_LOOP ( 'NONE', ( #194, #570, #353, #928 ) ) ;
#387 = CARTESIAN_POINT ( 'NONE',  ( 15.14999999999999680, -0.7499999999999993339, 1.000000000000000000 ) ) ;
#388 = LINE ( 'NONE', #473, #901 ) ;
#389 = VERTEX_POINT ( 'NONE', #246 ) ;
#390 = DIRECTION ( 'NONE',  ( 0.000000000000000000, 1.000000000000000000, 0.000000000000000000 ) ) ;
#391 = EDGE_CURVE ( 'NONE', #369, #484, #712, .T. ) ;
#392 = LINE ( 'NONE', #707, #361 ) ;
#393 = ORIENTED_EDGE ( 'NONE', *, *, #496, .T. ) ;
#394 = DIRECTION ( 'NONE',  ( -1.000000000000000000, -1.888134395621014649E-16, 0.000000000000000000 ) ) ;
#395 = ORIENTED_EDGE ( 'NONE', *, *, #61, .F. ) ;
#396 = CARTESIAN_POINT ( 'NONE',  ( 0.000000000000000000, 0.000000000000000000, 0.000000000000000000 ) ) ;
#397 = EDGE_CURVE ( 'NONE', #913, #811, #560, .T. ) ;
#398 = VERTEX_POINT ( 'NONE', #667 ) ;
#399 = CARTESIAN_POINT ( 'NONE',  ( 15.14999999999999680, -0.7499999999999993339, 0.000000000000000000 ) ) ;
#400 = AXIS2_PLACEMENT_3D ( 'NONE', #962, #262, #578 ) ;
#401 = DIRECTION ( 'NONE',  ( 0.000000000000000000, 1.000000000000000000, 0.000000000000000000 ) ) ;
#402 = ORIENTED_EDGE ( 'NONE', *, *, #876, .T. ) ;
#403 = SURFACE_SIDE_STYLE ('',( #97 ) ) ;
#404 = CARTESIAN_POINT ( 'NONE',  ( 15.73000000000000043, -1.030000000000000249, 0.4000000000000000222 ) ) ;
#405 = ORIENTED_EDGE ( 'NONE', *, *, #406, .T. ) ;
#406 = EDGE_CURVE ( 'NONE', #499, #229, #44, .T. ) ;
#407 = FACE_OUTER_BOUND ( 'NONE', #159, .T. ) ;
#408 = DIRECTION ( 'NONE',  ( 0.000000000000000000, 1.000000000000000000, 0.000000000000000000 ) ) ;
#409 = VECTOR ( 'NONE', #748, 100.0000000000000000 ) ;
#410 = AXIS2_PLACEMENT_3D ( 'NONE', #626, #642, #857 ) ;
#411 = EDGE_LOOP ( 'NONE', ( #636, #395, #92, #877 ) ) ;
#412 = CARTESIAN_POINT ( 'NONE',  ( 15.73000000000000043, -1.030000000000000249, 0.7999999999999998224 ) ) ;
#413 = AXIS2_PLACEMENT_3D ( 'NONE', #526, #276, #918 ) ;
#414 = DIRECTION ( 'NONE',  ( -0.000000000000000000, -0.000000000000000000, 1.000000000000000000 ) ) ;
#415 = EDGE_CURVE ( 'NONE', #236, #309, #968, .T. ) ;
#416 = FACE_BOUND ( 'NONE', #767, .T. ) ;
#417 = ORIENTED_EDGE ( 'NONE', *, *, #314, .F. ) ;
#418 = DIRECTION ( 'NONE',  ( -0.000000000000000000, -0.000000000000000000, -1.000000000000000000 ) ) ;
#419 = LINE ( 'NONE', #35, #917 ) ;
#420 = EDGE_CURVE ( 'NONE', #229, #499, #742, .T. ) ;
#421 = ORIENTED_EDGE ( 'NONE', *, *, #789, .F. ) ;
#422 = ORIENTED_EDGE ( 'NONE', *, *, #602, .T. ) ;
#423 = CARTESIAN_POINT ( 'NONE',  ( 14.69999999999999929, 14.70000000000000284, 0.000000000000000000 ) ) ;
#424 = CARTESIAN_POINT ( 'NONE',  ( 15.54999999999999716, 16.55000000000000071, 0.000000000000000000 ) ) ;
#425 = ORIENTED_EDGE ( 'NONE', *, *, #860, .T. ) ;
#426 = DIRECTION ( 'NONE',  ( 0.000000000000000000, 1.000000000000000000, 0.000000000000000000 ) ) ;
#427 = ORIENTED_EDGE ( 'NONE', *, *, #168, .T. ) ;
#428 = VECTOR ( 'NONE', #943, 100.0000000000000000 ) ;
#429 = DIRECTION ( 'NONE',  ( 0.000000000000000000, -1.000000000000000000, 0.000000000000000000 ) ) ;
#430 = DIRECTION ( 'NONE',  ( 0.000000000000000000, 1.000000000000000000, 0.000000000000000000 ) ) ;
#431 = LINE ( 'NONE', #114, #459 ) ;
#432 = EDGE_CURVE ( 'NONE', #576, #562, #565, .T. ) ;
#433 = CARTESIAN_POINT ( 'NONE',  ( 15.73000000000000043, -1.030000000000000249, 0.4000000000000000222 ) ) ;
#434 = DIRECTION ( 'NONE',  ( 0.000000000000000000, 0.000000000000000000, -1.000000000000000000 ) ) ;
#435 = EDGE_LOOP ( 'NONE', ( #915, #76, #46, #604 ) ) ;
#436 = CYLINDRICAL_SURFACE ( 'NONE', #983, 0.3000000000000008216 ) ;
#437 = ADVANCED_FACE ( 'NONE', ( #818 ), #257, .F. ) ;
#438 = DIRECTION ( 'NONE',  ( 0.000000000000000000, 1.000000000000000000, 0.000000000000000000 ) ) ;
#439 = ORIENTED_EDGE ( 'NONE', *, *, #212, .F. ) ;
#440 = CARTESIAN_POINT ( 'NONE',  ( 15.14999999999999680, -0.4499999999999990119, 1.000000000000000000 ) ) ;
#441 = DIRECTION ( 'NONE',  ( 0.000000000000000000, 1.000000000000000000, 0.000000000000000000 ) ) ;
#442 = VECTOR ( 'NONE', #830, 100.0000000000000000 ) ;
#443 = AXIS2_PLACEMENT_3D ( 'NONE', #544, #172, #852 ) ;
#444 = CARTESIAN_POINT ( 'NONE',  ( 16.54999999999999716, 15.55000000000000249, 0.000000000000000000 ) ) ;
#445 = VERTEX_POINT ( 'NONE', #486 ) ;
#446 = DIRECTION ( 'NONE',  ( 0.000000000000000000, 1.000000000000000000, 0.000000000000000000 ) ) ;
#447 = AXIS2_PLACEMENT_3D ( 'NONE', #379, #779, #322 ) ;
#448 = CARTESIAN_POINT ( 'NONE',  ( 15.14999999999999680, -0.4499999999999990119, 0.000000000000000000 ) ) ;
#449 = ORIENTED_EDGE ( 'NONE', *, *, #876, .F. ) ;
#450 = DIRECTION ( 'NONE',  ( 0.000000000000000000, 0.000000000000000000, -1.000000000000000000 ) ) ;
#451 = CARTESIAN_POINT ( 'NONE',  ( -0.4500000000000017875, -0.4499999999999990119, 0.000000000000000000 ) ) ;
#452 = EDGE_CURVE ( 'NONE', #961, #236, #951, .T. ) ;
#453 = CARTESIAN_POINT ( 'NONE',  ( 14.69999999999999929, 14.70000000000000284, 0.000000000000000000 ) ) ;
#454 = EDGE_LOOP ( 'NONE', ( #944, #1, #20, #886 ) ) ;
#455 = DIRECTION ( 'NONE',  ( 0.000000000000000000, 0.000000000000000000, -1.000000000000000000 ) ) ;
#456 = CARTESIAN_POINT ( 'NONE',  ( -0.4500000000000017875, -0.7499999999999993339, 1.000000000000000000 ) ) ;
#457 = ADVANCED_FACE ( 'NONE', ( #802 ), #100, .F. ) ;
#458 = CYLINDRICAL_SURFACE ( 'NONE', #447, 0.3000000000000030420 ) ;
#459 = VECTOR ( 'NONE', #108, 100.0000000000000000 ) ;
#460 = AXIS2_PLACEMENT_3D ( 'NONE', #250, #580, #954 ) ;
#461 = LINE ( 'NONE', #17, #261 ) ;
#462 = AXIS2_PLACEMENT_3D ( 'NONE', #516, #358, #525 ) ;
#463 = VECTOR ( 'NONE', #346, 100.0000000000000000 ) ;
#464 = PRODUCT_CONTEXT ( 'NONE', #154, 'mechanical' ) ;
#465 = ORIENTED_EDGE ( 'NONE', *, *, #789, .T. ) ;
#466 = CARTESIAN_POINT ( 'NONE',  ( 14.69999999999999929, 2.775557561562891351E-15, 1.000000000000000000 ) ) ;
#467 = ORIENTED_EDGE ( 'NONE', *, *, #688, .T. ) ;
#468 = CARTESIAN_POINT ( 'NONE',  ( 16.54999999999999716, -0.8499999999999979794, 0.4000000000000000222 ) ) ;
#469 = VERTEX_POINT ( 'NONE', #424 ) ;
#470 = DIRECTION ( 'NONE',  ( -0.7071067811865475727, -0.000000000000000000, -0.7071067811865475727 ) ) ;
#471 = EDGE_CURVE ( 'NONE', #587, #514, #875, .T. ) ;
#472 = ORIENTED_EDGE ( 'NONE', *, *, #820, .F. ) ;
#473 = CARTESIAN_POINT ( 'NONE',  ( -1.850000000000001643, -0.8499999999999979794, 0.000000000000000000 ) ) ;
#474 = ORIENTED_EDGE ( 'NONE', *, *, #559, .T. ) ;
#475 = LINE ( 'NONE', #306, #173 ) ;
#476 = EDGE_CURVE ( 'NONE', #118, #913, #891, .T. ) ;
#477 = CYLINDRICAL_SURFACE ( 'NONE', #410, 0.3000000000000030420 ) ;
#478 = EDGE_CURVE ( 'NONE', #957, #977, #234, .T. ) ;
#479 = VECTOR ( 'NONE', #217, 100.0000000000000000 ) ;
#480 = ORIENTED_EDGE ( 'NONE', *, *, #95, .T. ) ;
#481 = DIRECTION ( 'NONE',  ( 0.000000000000000000, -1.000000000000000000, 0.000000000000000000 ) ) ;
#482 = CYLINDRICAL_SURFACE ( 'NONE', #183, 0.3000000000000030420 ) ;
#483 = EDGE_CURVE ( 'NONE', #977, #957, #299, .T. ) ;
#484 = VERTEX_POINT ( 'NONE', #341 ) ;
#485 = CYLINDRICAL_SURFACE ( 'NONE', #652, 0.3000000000000008216 ) ;
#486 = CARTESIAN_POINT ( 'NONE',  ( -0.4500000000000017875, -0.7499999999999993339, 1.000000000000000000 ) ) ;
#487 = FACE_OUTER_BOUND ( 'NONE', #174, .T. ) ;
#488 = ADVANCED_FACE ( 'NONE', ( #407 ), #662, .F. ) ;
#489 = ORIENTED_EDGE ( 'NONE', *, *, #67, .F. ) ;
#490 = FACE_OUTER_BOUND ( 'NONE', #682, .T. ) ;
#491 = LINE ( 'NONE', #959, #409 ) ;
#492 = AXIS2_PLACEMENT_3D ( 'NONE', #253, #45, #188 ) ;
#493 = CIRCLE ( 'NONE', #140, 1.000000000000000000 ) ;
#494 = ORIENTED_EDGE ( 'NONE', *, *, #471, .F. ) ;
#495 = CARTESIAN_POINT ( 'NONE',  ( -0.8500000000000007550, 15.55000000000000249, 0.000000000000000000 ) ) ;
#496 = EDGE_CURVE ( 'NONE', #867, #537, #345, .T. ) ;
#497 = CARTESIAN_POINT ( 'NONE',  ( 15.14999999999999680, 15.15000000000000213, 0.000000000000000000 ) ) ;
#498 = ORIENTED_EDGE ( 'NONE', *, *, #640, .F. ) ;
#499 = VERTEX_POINT ( 'NONE', #569 ) ;
#500 = CARTESIAN_POINT ( 'NONE',  ( -0.8500000000000007550, -1.849999999999996092, 0.000000000000000000 ) ) ;
#501 = EDGE_CURVE ( 'NONE', #610, #961, #419, .T. ) ;
#502 = CARTESIAN_POINT ( 'NONE',  ( 0.000000000000000000, 14.69999999999999929, 0.000000000000000000 ) ) ;
#503 = ORIENTED_EDGE ( 'NONE', *, *, #517, .F. ) ;
#504 = DIRECTION ( 'NONE',  ( -0.000000000000000000, -0.000000000000000000, 1.000000000000000000 ) ) ;
#505 = ORIENTED_EDGE ( 'NONE', *, *, #476, .F. ) ;
#506 = FACE_BOUND ( 'NONE', #545, .T. ) ;
#507 = CARTESIAN_POINT ( 'NONE',  ( 15.52999999999999936, 7.350000000000001421, 1.000000000000000000 ) ) ;
#508 = ORIENTED_EDGE ( 'NONE', *, *, #391, .F. ) ;
#509 = AXIS2_PLACEMENT_3D ( 'NONE', #334, #892, #573 ) ;
#510 = VECTOR ( 'NONE', #49, 100.0000000000000000 ) ;
#511 = DIRECTION ( 'NONE',  ( -0.000000000000000000, -1.000000000000000000, 0.000000000000000000 ) ) ;
#512 = AXIS2_PLACEMENT_3D ( 'NONE', #736, #342, #969 ) ;
#513 = LINE ( 'NONE', #685, #630 ) ;
#514 = VERTEX_POINT ( 'NONE', #179 ) ;
#515 = STYLED_ITEM ( 'NONE', ( #99 ), #844 ) ;
#516 = CARTESIAN_POINT ( 'NONE',  ( 15.14999999999999680, 15.15000000000000213, 1.000000000000000000 ) ) ;
#517 = EDGE_CURVE ( 'NONE', #226, #118, #347, .T. ) ;
#518 = DIRECTION ( 'NONE',  ( 0.000000000000000000, 0.000000000000000000, -1.000000000000000000 ) ) ;
#519 = DIRECTION ( 'NONE',  ( 0.000000000000000000, 1.000000000000000000, 0.000000000000000000 ) ) ;
#520 = VERTEX_POINT ( 'NONE', #337 ) ;
#521 = CARTESIAN_POINT ( 'NONE',  ( -1.030000000000004468, -1.029999999999998916, 0.7999999999999998224 ) ) ;
#522 = ADVANCED_FACE ( 'NONE', ( #123 ), #739, .F. ) ;
#523 = DIRECTION ( 'NONE',  ( 0.000000000000000000, 0.000000000000000000, 1.000000000000000000 ) ) ;
#524 = CARTESIAN_POINT ( 'NONE',  ( -0.4500000000000017875, -0.4499999999999990119, 1.000000000000000000 ) ) ;
#525 = DIRECTION ( 'NONE',  ( 0.000000000000000000, 1.000000000000000000, 0.000000000000000000 ) ) ;
#526 = CARTESIAN_POINT ( 'NONE',  ( 15.54999999999999716, 15.55000000000000249, 0.000000000000000000 ) ) ;
#527 = ORIENTED_EDGE ( 'NONE', *, *, #149, .T. ) ;
#528 = DIRECTION ( 'NONE',  ( 0.000000000000000000, -1.000000000000000000, 0.000000000000000000 ) ) ;
#529 = EDGE_CURVE ( 'NONE', #398, #752, #649, .T. ) ;
#530 = ORIENTED_EDGE ( 'NONE', *, *, #921, .F. ) ;
#531 = DIRECTION ( 'NONE',  ( 0.000000000000000000, 0.000000000000000000, -1.000000000000000000 ) ) ;
#532 = AXIS2_PLACEMENT_3D ( 'NONE', #902, #989, #670 ) ;
#533 = ORIENTED_EDGE ( 'NONE', *, *, #501, .F. ) ;
#534 = DIRECTION ( 'NONE',  ( 0.000000000000000000, 1.000000000000000000, -0.000000000000000000 ) ) ;
#535 = EDGE_CURVE ( 'NONE', #930, #520, #273, .T. ) ;
#536 = DIRECTION ( 'NONE',  ( 0.000000000000000000, 0.000000000000000000, 1.000000000000000000 ) ) ;
#537 = VERTEX_POINT ( 'NONE', #616 ) ;
#538 = PLANE ( 'NONE',  #443 ) ;
#539 = ORIENTED_EDGE ( 'NONE', *, *, #195, .T. ) ;
#540 = FACE_BOUND ( 'NONE', #134, .T. ) ;
#541 = ADVANCED_FACE ( 'NONE', ( #363 ), #755, .F. ) ;
#542 = DIRECTION ( 'NONE',  ( 1.000000000000000000, 1.888134395621014649E-16, -0.000000000000000000 ) ) ;
#543 = ORIENTED_EDGE ( 'NONE', *, *, #622, .T. ) ;
#544 = CARTESIAN_POINT ( 'NONE',  ( 15.73000000000000043, 15.73000000000000043, 0.7999999999999998224 ) ) ;
#545 = EDGE_LOOP ( 'NONE', ( #925, #191 ) ) ;
#546 = AXIS2_PLACEMENT_3D ( 'NONE', #992, #683, #617 ) ;
#547 = CARTESIAN_POINT ( 'NONE',  ( -0.4500000000000017875, -0.1499999999999987454, 0.000000000000000000 ) ) ;
#548 = CIRCLE ( 'NONE', #152, 1.000000000000000000 ) ;
#549 = EDGE_CURVE ( 'NONE', #587, #631, #513, .T. ) ;
#550 = ORIENTED_EDGE ( 'NONE', *, *, #501, .T. ) ;
#551 = CARTESIAN_POINT ( 'NONE',  ( 14.69999999999999929, 2.775557561562891351E-15, 0.000000000000000000 ) ) ;
#552 = CARTESIAN_POINT ( 'NONE',  ( 14.69999999999999929, 2.775557561562891351E-15, 0.000000000000000000 ) ) ;
#553 = EDGE_CURVE ( 'NONE', #562, #118, #370, .T. ) ;
#554 = ORIENTED_EDGE ( 'NONE', *, *, #432, .F. ) ;
#555 = DIRECTION ( 'NONE',  ( -0.000000000000000000, -0.000000000000000000, -1.000000000000000000 ) ) ;
#556 = CARTESIAN_POINT ( 'NONE',  ( 15.73000000000000043, 15.73000000000000043, 0.4000000000000000222 ) ) ;
#557 = ORIENTED_EDGE ( 'NONE', *, *, #85, .F. ) ;
#558 = CARTESIAN_POINT ( 'NONE',  ( 15.14999999999999680, 15.15000000000000213, 1.000000000000000000 ) ) ;
#559 = EDGE_CURVE ( 'NONE', #354, #811, #374, .T. ) ;
#560 = LINE ( 'NONE', #870, #933 ) ;
#561 = VECTOR ( 'NONE', #269, 100.0000000000000000 ) ;
#562 = VERTEX_POINT ( 'NONE', #147 ) ;
#563 = AXIS2_PLACEMENT_3D ( 'NONE', #235, #851, #619 ) ;
#564 = LINE ( 'NONE', #817, #903 ) ;
#565 = LINE ( 'NONE', #735, #841 ) ;
#566 = EDGE_CURVE ( 'NONE', #445, #599, #199, .T. ) ;
#567 = ORIENTED_EDGE ( 'NONE', *, *, #706, .F. ) ;
#568 = CARTESIAN_POINT ( 'NONE',  ( -1.850000000000001643, -0.8499999999999979794, 0.4000000000000000222 ) ) ;
#569 = CARTESIAN_POINT ( 'NONE',  ( 15.14999999999999680, 14.84999999999999964, 0.000000000000000000 ) ) ;
#570 = ORIENTED_EDGE ( 'NONE', *, *, #850, .F. ) ;
#571 = ORIENTED_EDGE ( 'NONE', *, *, #77, .F. ) ;
#572 = CARTESIAN_POINT ( 'NONE',  ( 14.69999999999999929, 2.775557561562891351E-15, 0.000000000000000000 ) ) ;
#573 = DIRECTION ( 'NONE',  ( 0.000000000000000000, 1.000000000000000000, 0.000000000000000000 ) ) ;
#574 = AXIS2_PLACEMENT_3D ( 'NONE', #676, #200, #768 ) ;
#575 = AXIS2_PLACEMENT_3D ( 'NONE', #924, #88, #481 ) ;
#576 = VERTEX_POINT ( 'NONE', #356 ) ;
#577 = EDGE_CURVE ( 'NONE', #599, #445, #778, .T. ) ;
#578 = DIRECTION ( 'NONE',  ( 0.000000000000000000, 1.000000000000000000, 0.000000000000000000 ) ) ;
#579 = VECTOR ( 'NONE', #675, 100.0000000000000000 ) ;
#580 = DIRECTION ( 'NONE',  ( -1.656060597591223456E-16, -1.000000000000000000, 0.000000000000000000 ) ) ;
#581 = CARTESIAN_POINT ( 'NONE',  ( 16.54999999999999716, 16.55000000000000071, 0.000000000000000000 ) ) ;
#582 = EDGE_LOOP ( 'NONE', ( #815, #89, #378, #206 ) ) ;
#583 = FACE_OUTER_BOUND ( 'NONE', #260, .T. ) ;
#584 = EDGE_CURVE ( 'NONE', #930, #484, #914, .T. ) ;
#585 = DIRECTION ( 'NONE',  ( 0.000000000000000000, 1.000000000000000000, 0.000000000000000000 ) ) ;
#586 = ORIENTED_EDGE ( 'NONE', *, *, #478, .T. ) ;
#587 = VERTEX_POINT ( 'NONE', #843 ) ;
#588 = ORIENTED_EDGE ( 'NONE', *, *, #770, .F. ) ;
#589 = DIRECTION ( 'NONE',  ( 1.000000000000000000, -1.508455196501571429E-16, 0.000000000000000000 ) ) ;
#590 = DIRECTION ( 'NONE',  ( 0.000000000000000000, 1.000000000000000000, 0.000000000000000000 ) ) ;
#591 = EDGE_CURVE ( 'NONE', #599, #344, #771, .T. ) ;
#592 = FACE_BOUND ( 'NONE', #762, .T. ) ;
#593 = CIRCLE ( 'NONE', #103, 1.000000000000000888 ) ;
#594 = AXIS2_PLACEMENT_3D ( 'NONE', #958, #964, #747 ) ;
#595 = FACE_OUTER_BOUND ( 'NONE', #669, .T. ) ;
#596 = VECTOR ( 'NONE', #202, 100.0000000000000000 ) ;
#597 = DIRECTION ( 'NONE',  ( 0.000000000000000000, -1.000000000000000000, 0.000000000000000000 ) ) ;
#598 = UNCERTAINTY_MEASURE_WITH_UNIT (LENGTH_MEASURE( 1.000000000000000082E-05 ), #91, 'distance_accuracy_value', 'NONE');
#599 = VERTEX_POINT ( 'NONE', #834 ) ;
#600 = COLOUR_RGB ( '',0.7921568627450980005, 0.8196078431372548767, 0.9333333333333333481 ) ;
#601 = CARTESIAN_POINT ( 'NONE',  ( 15.14999999999999680, -0.1499999999999987454, 1.000000000000000000 ) ) ;
#602 = EDGE_CURVE ( 'NONE', #87, #231, #838, .T. ) ;
#603 = CARTESIAN_POINT ( 'NONE',  ( 15.73000000000000043, 15.73000000000000043, 0.4000000000000000222 ) ) ;
#604 = ORIENTED_EDGE ( 'NONE', *, *, #325, .T. ) ;
#605 = CARTESIAN_POINT ( 'NONE',  ( 15.73000000000000043, -1.030000000000000249, 0.7999999999999998224 ) ) ;
#606 = ORIENTED_EDGE ( 'NONE', *, *, #584, .F. ) ;
#607 = LINE ( 'NONE', #981, #75 ) ;
#608 = EDGE_CURVE ( 'NONE', #744, #115, #138, .T. ) ;
#609 = FACE_OUTER_BOUND ( 'NONE', #7, .T. ) ;
#610 = VERTEX_POINT ( 'NONE', #297 ) ;
#611 = ORIENTED_EDGE ( 'NONE', *, *, #535, .T. ) ;
#612 = LINE ( 'NONE', #638, #362 ) ;
#613 = LINE ( 'NONE', #197, #579 ) ;
#614 = ORIENTED_EDGE ( 'NONE', *, *, #535, .F. ) ;
#615 = AXIS2_PLACEMENT_3D ( 'NONE', #497, #117, #430 ) ;
#616 = CARTESIAN_POINT ( 'NONE',  ( -0.4500000000000003997, 14.85000000000000142, 0.000000000000000000 ) ) ;
#617 = DIRECTION ( 'NONE',  ( 0.000000000000000000, 1.000000000000000000, 0.000000000000000000 ) ) ;
#618 = VECTOR ( 'NONE', #192, 100.0000000000000000 ) ;
#619 = DIRECTION ( 'NONE',  ( 1.000000000000000000, 0.000000000000000000, -0.000000000000000000 ) ) ;
#620 = LINE ( 'NONE', #387, #126 ) ;
#621 = ORIENTED_EDGE ( 'NONE', *, *, #577, .F. ) ;
#622 = EDGE_CURVE ( 'NONE', #284, #631, #221, .T. ) ;
#623 = CARTESIAN_POINT ( 'NONE',  ( 0.000000000000000000, 14.69999999999999929, 1.000000000000000000 ) ) ;
#624 = EDGE_LOOP ( 'NONE', ( #498, #508, #681, #782 ) ) ;
#625 = CARTESIAN_POINT ( 'NONE',  ( 15.54999999999999716, -1.849999999999998757, 0.4000000000000000222 ) ) ;
#626 = CARTESIAN_POINT ( 'NONE',  ( -0.4500000000000003997, 15.15000000000000213, 1.000000000000000000 ) ) ;
#627 = ADVANCED_FACE ( 'NONE', ( #285 ), #848, .F. ) ;
#628 = ORIENTED_EDGE ( 'NONE', *, *, #478, .F. ) ;
#629 = DIRECTION ( 'NONE',  ( 0.000000000000000000, -1.000000000000000000, 0.000000000000000000 ) ) ;
#630 = VECTOR ( 'NONE', #69, 100.0000000000000142 ) ;
#631 = VERTEX_POINT ( 'NONE', #605 ) ;
#632 = CIRCLE ( 'NONE', #184, 1.000000000000000000 ) ;
#633 = DIRECTION ( 'NONE',  ( 0.000000000000000000, 0.000000000000000000, -1.000000000000000000 ) ) ;
#634 = AXIS2_PLACEMENT_3D ( 'NONE', #10, #470, #629 ) ;
#635 =( NAMED_UNIT ( * ) SI_UNIT ( $, .STERADIAN. ) SOLID_ANGLE_UNIT ( ) );
#636 = ORIENTED_EDGE ( 'NONE', *, *, #314, .T. ) ;
#637 = CARTESIAN_POINT ( 'NONE',  ( -0.8300000000000042899, 15.53000000000000469, 1.000000000000000000 ) ) ;
#638 = CARTESIAN_POINT ( 'NONE',  ( 15.14999999999999680, 14.84999999999999964, 1.000000000000000000 ) ) ;
#639 = EDGE_LOOP ( 'NONE', ( #324, #554, #985, #474 ) ) ;
#640 = EDGE_CURVE ( 'NONE', #484, #389, #632, .T. ) ;
#641 = LINE ( 'NONE', #466, #109 ) ;
#642 = DIRECTION ( 'NONE',  ( 0.000000000000000000, 0.000000000000000000, -1.000000000000000000 ) ) ;
#643 = ORIENTED_EDGE ( 'NONE', *, *, #47, .T. ) ;
#644 = LINE ( 'NONE', #39, #203 ) ;
#645 = ADVANCED_FACE ( 'NONE', ( #59 ), #787, .T. ) ;
#646 = PRODUCT_DEFINITION_SHAPE ( 'NONE', 'NONE',  #294 ) ;
#647 = AXIS2_PLACEMENT_3D ( 'NONE', #338, #803, #741 ) ;
#648 = DIRECTION ( 'NONE',  ( 0.000000000000000000, -1.000000000000000000, 0.000000000000000000 ) ) ;
#649 = CIRCLE ( 'NONE', #574, 0.3000000000000008216 ) ;
#650 = ADVANCED_BREP_SHAPE_REPRESENTATION ( 'elevated-cell-base_60', ( #844, #563 ), #938 ) ;
#651 = VERTEX_POINT ( 'NONE', #302 ) ;
#652 = AXIS2_PLACEMENT_3D ( 'NONE', #653, #754, #976 ) ;
#653 = CARTESIAN_POINT ( 'NONE',  ( 15.14999999999999680, -0.4499999999999990119, 1.000000000000000000 ) ) ;
#654 = DIRECTION ( 'NONE',  ( 1.000000000000000000, 1.888134395621014649E-16, 0.000000000000000000 ) ) ;
#655 = FACE_OUTER_BOUND ( 'NONE', #863, .T. ) ;
#656 = VERTEX_POINT ( 'NONE', #167 ) ;
#657 = DIRECTION ( 'NONE',  ( 0.000000000000000000, 0.000000000000000000, -1.000000000000000000 ) ) ;
#658 = CARTESIAN_POINT ( 'NONE',  ( 7.349999999999999645, 15.53000000000000291, 1.000000000000000000 ) ) ;
#659 = ADVANCED_FACE ( 'NONE', ( #864 ), #861, .F. ) ;
#660 = ORIENTED_EDGE ( 'NONE', *, *, #325, .F. ) ;
#661 = FACE_OUTER_BOUND ( 'NONE', #454, .T. ) ;
#662 = PLANE ( 'NONE',  #963 ) ;
#663 = FACE_OUTER_BOUND ( 'NONE', #65, .T. ) ;
#664 = EDGE_LOOP ( 'NONE', ( #586, #301 ) ) ;
#665 = DIRECTION ( 'NONE',  ( -0.000000000000000000, -0.000000000000000000, 1.000000000000000000 ) ) ;
#666 = AXIS2_PLACEMENT_3D ( 'NONE', #558, #6, #93 ) ;
#667 = CARTESIAN_POINT ( 'NONE',  ( 15.14999999999999680, -0.1499999999999987454, 0.000000000000000000 ) ) ;
#668 = ORIENTED_EDGE ( 'NONE', *, *, #911, .T. ) ;
#669 = EDGE_LOOP ( 'NONE', ( #248, #422, #101, #533 ) ) ;
#670 = DIRECTION ( 'NONE',  ( 0.000000000000000000, 1.000000000000000000, 0.000000000000000000 ) ) ;
#671 = ADVANCED_FACE ( 'NONE', ( #225 ), #538, .F. ) ;
#672 = PRODUCT_DEFINITION_CONTEXT ( 'detailed design', #970, 'design' ) ;
#673 = ORIENTED_EDGE ( 'NONE', *, *, #988, .F. ) ;
#674 = EDGE_LOOP ( 'NONE', ( #966, #873, #700, #439 ) ) ;
#675 = DIRECTION ( 'NONE',  ( 0.000000000000000000, -1.000000000000000000, 0.000000000000000000 ) ) ;
#676 = CARTESIAN_POINT ( 'NONE',  ( 15.14999999999999680, -0.4499999999999990119, 0.000000000000000000 ) ) ;
#677 = ORIENTED_EDGE ( 'NONE', *, *, #452, .T. ) ;
#678 = DIRECTION ( 'NONE',  ( 0.000000000000000000, 0.000000000000000000, -1.000000000000000000 ) ) ;
#679 = VECTOR ( 'NONE', #323, 100.0000000000000000 ) ;
#680 = FACE_BOUND ( 'NONE', #941, .T. ) ;
#681 = ORIENTED_EDGE ( 'NONE', *, *, #950, .F. ) ;
#682 = EDGE_LOOP ( 'NONE', ( #715, #697, #489, #120 ) ) ;
#683 = DIRECTION ( 'NONE',  ( 0.000000000000000000, 0.000000000000000000, -1.000000000000000000 ) ) ;
#684 = CARTESIAN_POINT ( 'NONE',  ( 16.54999999999999716, -1.849999999999998757, 0.000000000000000000 ) ) ;
#685 = CARTESIAN_POINT ( 'NONE',  ( 15.73000000000000043, -1.030000000000000249, 0.7999999999999998224 ) ) ;
#686 = ORIENTED_EDGE ( 'NONE', *, *, #228, .F. ) ;
#687 = CYLINDRICAL_SURFACE ( 'NONE', #808, 1.000000000000000222 ) ;
#688 = EDGE_CURVE ( 'NONE', #718, #57, #493, .T. ) ;
#689 = DIRECTION ( 'NONE',  ( 0.000000000000000000, 1.000000000000000000, 0.000000000000000000 ) ) ;
#690 = VERTEX_POINT ( 'NONE', #868 ) ;
#691 = DIRECTION ( 'NONE',  ( 0.000000000000000000, 1.000000000000000000, -0.000000000000000000 ) ) ;
#692 = ORIENTED_EDGE ( 'NONE', *, *, #921, .T. ) ;
#693 = LINE ( 'NONE', #910, #380 ) ;
#694 = ORIENTED_EDGE ( 'NONE', *, *, #529, .T. ) ;
#695 = VECTOR ( 'NONE', #209, 100.0000000000000000 ) ;
#696 = DIRECTION ( 'NONE',  ( 0.000000000000000000, 1.000000000000000000, 0.000000000000000000 ) ) ;
#697 = ORIENTED_EDGE ( 'NONE', *, *, #730, .F. ) ;
#698 = LINE ( 'NONE', #832, #596 ) ;
#699 = CIRCLE ( 'NONE', #79, 1.000000000000000888 ) ;
#700 = ORIENTED_EDGE ( 'NONE', *, *, #988, .T. ) ;
#701 = DIRECTION ( 'NONE',  ( 0.000000000000000000, 0.000000000000000000, -1.000000000000000000 ) ) ;
#702 = ADVANCED_FACE ( 'NONE', ( #716 ), #458, .F. ) ;
#703 = DIRECTION ( 'NONE',  ( 0.000000000000000000, 0.000000000000000000, 1.000000000000000000 ) ) ;
#704 = ORIENTED_EDGE ( 'NONE', *, *, #496, .F. ) ;
#705 = PLANE ( 'NONE',  #634 ) ;
#706 = EDGE_CURVE ( 'NONE', #631, #87, #78, .T. ) ;
#707 = CARTESIAN_POINT ( 'NONE',  ( -1.850000000000001643, 16.55000000000000426, 0.4000000000000000222 ) ) ;
#708 = ORIENTED_EDGE ( 'NONE', *, *, #749, .F. ) ;
#709 = DIRECTION ( 'NONE',  ( 0.000000000000000000, 0.000000000000000000, -1.000000000000000000 ) ) ;
#710 = VECTOR ( 'NONE', #987, 100.0000000000000000 ) ;
#711 = ORIENTED_EDGE ( 'NONE', *, *, #894, .F. ) ;
#712 = LINE ( 'NONE', #319, #883 ) ;
#713 = EDGE_CURVE ( 'NONE', #286, #752, #620, .T. ) ;
#714 = AXIS2_PLACEMENT_3D ( 'NONE', #495, #801, #175 ) ;
#715 = ORIENTED_EDGE ( 'NONE', *, *, #608, .F. ) ;
#716 = FACE_OUTER_BOUND ( 'NONE', #43, .T. ) ;
#717 = PLANE ( 'NONE',  #312 ) ;
#718 = VERTEX_POINT ( 'NONE', #945 ) ;
#719 = CARTESIAN_POINT ( 'NONE',  ( -0.4500000000000003997, 15.45000000000000284, 1.000000000000000000 ) ) ;
#720 = LINE ( 'NONE', #169, #759 ) ;
#721 = ORIENTED_EDGE ( 'NONE', *, *, #553, .F. ) ;
#722 = EDGE_CURVE ( 'NONE', #898, #651, #922, .T. ) ;
#723 = CARTESIAN_POINT ( 'NONE',  ( -1.850000000000001643, 16.55000000000000426, 0.000000000000000000 ) ) ;
#724 = AXIS2_PLACEMENT_3D ( 'NONE', #524, #455, #291 ) ;
#725 = FACE_BOUND ( 'NONE', #305, .T. ) ;
#726 = CIRCLE ( 'NONE', #198, 0.3000000000000008216 ) ;
#727 = ORIENTED_EDGE ( 'NONE', *, *, #890, .F. ) ;
#728 = VECTOR ( 'NONE', #243, 100.0000000000000000 ) ;
#729 = LINE ( 'NONE', #797, #143 ) ;
#730 = EDGE_CURVE ( 'NONE', #656, #744, #475, .T. ) ;
#731 = CARTESIAN_POINT ( 'NONE',  ( 0.000000000000000000, 0.000000000000000000, 1.000000000000000000 ) ) ;
#732 = DIRECTION ( 'NONE',  ( -1.508455196501571429E-16, -1.000000000000000000, 0.000000000000000000 ) ) ;
#733 = VERTEX_POINT ( 'NONE', #625 ) ;
#734 = LINE ( 'NONE', #719, #746 ) ;
#735 = CARTESIAN_POINT ( 'NONE',  ( 14.69999999999999929, 14.70000000000000284, 0.000000000000000000 ) ) ;
#736 = CARTESIAN_POINT ( 'NONE',  ( 15.14999999999999680, -0.4499999999999990119, 1.000000000000000000 ) ) ;
#737 = ORIENTED_EDGE ( 'NONE', *, *, #331, .T. ) ;
#738 = CYLINDRICAL_SURFACE ( 'NONE', #714, 1.000000000000000888 ) ;
#739 = PLANE ( 'NONE',  #122 ) ;
#740 = ORIENTED_EDGE ( 'NONE', *, *, #452, .F. ) ;
#741 = DIRECTION ( 'NONE',  ( 0.000000000000000000, 1.000000000000000000, -0.000000000000000000 ) ) ;
#742 = CIRCLE ( 'NONE', #615, 0.3000000000000030420 ) ;
#743 = ADVANCED_FACE ( 'NONE', ( #929 ), #856, .F. ) ;
#744 = VERTEX_POINT ( 'NONE', #157 ) ;
#745 = DIRECTION ( 'NONE',  ( 1.508455196501571429E-16, 1.000000000000000000, 0.000000000000000000 ) ) ;
#746 = VECTOR ( 'NONE', #330, 100.0000000000000000 ) ;
#747 = DIRECTION ( 'NONE',  ( 0.000000000000000000, 1.000000000000000000, 0.000000000000000000 ) ) ;
#748 = DIRECTION ( 'NONE',  ( -0.000000000000000000, -0.000000000000000000, 1.000000000000000000 ) ) ;
#749 = EDGE_CURVE ( 'NONE', #811, #562, #641, .T. ) ;
#750 = DIRECTION ( 'NONE',  ( -0.000000000000000000, -0.000000000000000000, 1.000000000000000000 ) ) ;
#751 = CARTESIAN_POINT ( 'NONE',  ( -0.8500000000000007550, 15.55000000000000249, 0.000000000000000000 ) ) ;
#752 = VERTEX_POINT ( 'NONE', #399 ) ;
#753 = DIRECTION ( 'NONE',  ( 0.000000000000000000, -1.000000000000000000, 0.000000000000000000 ) ) ;
#754 = DIRECTION ( 'NONE',  ( 0.000000000000000000, 0.000000000000000000, -1.000000000000000000 ) ) ;
#755 = PLANE ( 'NONE',  #60 ) ;
#756 = EDGE_CURVE ( 'NONE', #389, #733, #21, .T. ) ;
#757 = ORIENTED_EDGE ( 'NONE', *, *, #67, .T. ) ;
#758 = CARTESIAN_POINT ( 'NONE',  ( -0.4500000000000003997, 14.85000000000000142, 1.000000000000000000 ) ) ;
#759 = VECTOR ( 'NONE', #151, 100.0000000000000142 ) ;
#760 = FACE_OUTER_BOUND ( 'NONE', #786, .T. ) ;
#761 = DIRECTION ( 'NONE',  ( 0.000000000000000000, 1.000000000000000000, -0.000000000000000000 ) ) ;
#762 = EDGE_LOOP ( 'NONE', ( #704, #102 ) ) ;
#763 = ADVANCED_FACE ( 'NONE', ( #84 ), #705, .F. ) ;
#764 = VECTOR ( 'NONE', #316, 100.0000000000000000 ) ;
#765 = DIRECTION ( 'NONE',  ( 0.000000000000000000, 0.000000000000000000, -1.000000000000000000 ) ) ;
#766 = DIRECTION ( 'NONE',  ( 0.000000000000000000, 1.000000000000000000, 0.000000000000000000 ) ) ;
#767 = EDGE_LOOP ( 'NONE', ( #270, #673 ) ) ;
#768 = DIRECTION ( 'NONE',  ( 0.000000000000000000, 1.000000000000000000, 0.000000000000000000 ) ) ;
#769 = ORIENTED_EDGE ( 'NONE', *, *, #871, .T. ) ;
#770 = EDGE_CURVE ( 'NONE', #309, #631, #936, .T. ) ;
#771 = LINE ( 'NONE', #144, #278 ) ;
#772 = VERTEX_POINT ( 'NONE', #637 ) ;
#773 = CARTESIAN_POINT ( 'NONE',  ( -0.8500000000000007550, 16.55000000000000426, 0.000000000000000000 ) ) ;
#774 = PRODUCT ( 'elevated-cell-base_60', 'elevated-cell-base_60', '', ( #464 ) ) ;
#775 = EDGE_CURVE ( 'NONE', #57, #744, #942, .T. ) ;
#776 = CIRCLE ( 'NONE', #512, 0.3000000000000008216 ) ;
#777 = ORIENTED_EDGE ( 'NONE', *, *, #303, .T. ) ;
#778 = CIRCLE ( 'NONE', #724, 0.3000000000000008216 ) ;
#779 = DIRECTION ( 'NONE',  ( 0.000000000000000000, 0.000000000000000000, -1.000000000000000000 ) ) ;
#780 = LINE ( 'NONE', #244, #679 ) ;
#781 = CIRCLE ( 'NONE', #158, 1.000000000000000000 ) ;
#782 = ORIENTED_EDGE ( 'NONE', *, *, #756, .F. ) ;
#783 = DIRECTION ( 'NONE',  ( 0.000000000000000000, 1.000000000000000000, -0.000000000000000000 ) ) ;
#784 = EDGE_LOOP ( 'NONE', ( #887, #164, #241, #110 ) ) ;
#785 = DIRECTION ( 'NONE',  ( -0.000000000000000000, -0.000000000000000000, 1.000000000000000000 ) ) ;
#786 = EDGE_LOOP ( 'NONE', ( #769, #271, #239, #70 ) ) ;
#787 = CYLINDRICAL_SURFACE ( 'NONE', #575, 1.000000000000000222 ) ;
#788 = ORIENTED_EDGE ( 'NONE', *, *, #377, .T. ) ;
#789 = EDGE_CURVE ( 'NONE', #520, #96, #699, .T. ) ;
#790 = CARTESIAN_POINT ( 'NONE',  ( 15.73000000000000043, -1.030000000000000249, 0.4000000000000000222 ) ) ;
#791 = EDGE_LOOP ( 'NONE', ( #146, #480, #668, #381 ) ) ;
#792 = CARTESIAN_POINT ( 'NONE',  ( -1.850000000000001643, 16.55000000000000426, 0.000000000000000000 ) ) ;
#793 = AXIS2_PLACEMENT_3D ( 'NONE', #113, #657, #30 ) ;
#794 = DIRECTION ( 'NONE',  ( 0.000000000000000000, 0.000000000000000000, -1.000000000000000000 ) ) ;
#795 = VECTOR ( 'NONE', #4, 100.0000000000000000 ) ;
#796 = ORIENTED_EDGE ( 'NONE', *, *, #95, .F. ) ;
#797 = CARTESIAN_POINT ( 'NONE',  ( 16.54999999999999716, 16.55000000000000071, 0.4000000000000000222 ) ) ;
#798 = CARTESIAN_POINT ( 'NONE',  ( -0.8500000000000007550, 16.55000000000000426, 0.000000000000000000 ) ) ;
#799 = ADVANCED_FACE ( 'NONE', ( #490 ), #738, .T. ) ;
#800 = ORIENTED_EDGE ( 'NONE', *, *, #713, .F. ) ;
#801 = DIRECTION ( 'NONE',  ( 0.000000000000000000, 0.000000000000000000, 1.000000000000000000 ) ) ;
#802 = FACE_OUTER_BOUND ( 'NONE', #290, .T. ) ;
#803 = DIRECTION ( 'NONE',  ( -1.000000000000000000, 0.000000000000000000, 0.000000000000000000 ) ) ;
#804 = ORIENTED_EDGE ( 'NONE', *, *, #894, .T. ) ;
#805 = ADVANCED_FACE ( 'NONE', ( #267 ), #104, .F. ) ;
#806 = FILL_AREA_STYLE ('',( #878 ) ) ;
#807 = CARTESIAN_POINT ( 'NONE',  ( 15.73000000000000043, 15.73000000000000043, 0.4000000000000000222 ) ) ;
#808 = AXIS2_PLACEMENT_3D ( 'NONE', #66, #536, #753 ) ;
#809 = PLANE ( 'NONE',  #647 ) ;
#810 = AXIS2_PLACEMENT_3D ( 'NONE', #451, #765, #840 ) ;
#811 = VERTEX_POINT ( 'NONE', #252 ) ;
#812 = VECTOR ( 'NONE', #289, 100.0000000000000000 ) ;
#813 =( LENGTH_UNIT ( ) NAMED_UNIT ( * ) SI_UNIT ( .CENTI., .METRE. ) );
#814 = DIRECTION ( 'NONE',  ( -0.000000000000000000, -0.000000000000000000, 1.000000000000000000 ) ) ;
#815 = ORIENTED_EDGE ( 'NONE', *, *, #770, .T. ) ;
#816 = EDGE_LOOP ( 'NONE', ( #9, #505, #721, #708 ) ) ;
#817 = CARTESIAN_POINT ( 'NONE',  ( 16.54999999999999716, -1.849999999999998757, 0.4000000000000000222 ) ) ;
#818 = FACE_OUTER_BOUND ( 'NONE', #639, .T. ) ;
#819 = VERTEX_POINT ( 'NONE', #25 ) ;
#820 = EDGE_CURVE ( 'NONE', #298, #96, #729, .T. ) ;
#821 = FACE_BOUND ( 'NONE', #16, .T. ) ;
#822 = ORIENTED_EDGE ( 'NONE', *, *, #255, .T. ) ;
#823 = LINE ( 'NONE', #603, #872 ) ;
#824 = DIRECTION ( 'NONE',  ( 0.000000000000000000, 0.000000000000000000, -1.000000000000000000 ) ) ;
#825 = ORIENTED_EDGE ( 'NONE', *, *, #391, .T. ) ;
#826 = ORIENTED_EDGE ( 'NONE', *, *, #911, .F. ) ;
#827 = AXIS2_PLACEMENT_3D ( 'NONE', #176, #824, #585 ) ;
#828 = PLANE ( 'NONE',  #858 ) ;
#829 = PRESENTATION_LAYER_ASSIGNMENT (  '', '', ( #515 ) ) ;
#830 = DIRECTION ( 'NONE',  ( -1.000000000000000000, -1.888134395621014649E-16, 0.000000000000000000 ) ) ;
#831 = VERTEX_POINT ( 'NONE', #568 ) ;
#832 = CARTESIAN_POINT ( 'NONE',  ( 14.69999999999999929, 2.775557561562891351E-15, 0.000000000000000000 ) ) ;
#833 = DIRECTION ( 'NONE',  ( -0.000000000000000000, -0.000000000000000000, 1.000000000000000000 ) ) ;
#834 = CARTESIAN_POINT ( 'NONE',  ( -0.4500000000000017875, -0.1499999999999987454, 1.000000000000000000 ) ) ;
#835 = CARTESIAN_POINT ( 'NONE',  ( -0.8500000000000020872, -0.8499999999999979794, 0.4000000000000000222 ) ) ;
#836 = DIRECTION ( 'NONE',  ( 1.000000000000000000, 0.000000000000000000, 0.000000000000000000 ) ) ;
#837 = EDGE_CURVE ( 'NONE', #957, #867, #734, .T. ) ;
#838 = LINE ( 'NONE', #920, #855 ) ;
#839 = ORIENTED_EDGE ( 'NONE', *, *, #12, .F. ) ;
#840 = DIRECTION ( 'NONE',  ( 0.000000000000000000, 1.000000000000000000, 0.000000000000000000 ) ) ;
#841 = VECTOR ( 'NONE', #814, 100.0000000000000000 ) ;
#842 = CARTESIAN_POINT ( 'NONE',  ( 15.54999999999999716, -0.8499999999999994227, 0.4000000000000000222 ) ) ;
#843 = CARTESIAN_POINT ( 'NONE',  ( 15.52999999999999936, -0.8300000000000016254, 1.000000000000000000 ) ) ;
#844 = MANIFOLD_SOLID_BREP ( 'Fillet1', #107 ) ;
#845 = AXIS2_PLACEMENT_3D ( 'NONE', #453, #71, #542 ) ;
#846 = FACE_OUTER_BOUND ( 'NONE', #674, .T. ) ;
#847 = ORIENTED_EDGE ( 'NONE', *, *, #77, .T. ) ;
#848 = PLANE ( 'NONE',  #885 ) ;
#849 = LINE ( 'NONE', #601, #949 ) ;
#850 = EDGE_CURVE ( 'NONE', #318, #718, #34, .T. ) ;
#851 = DIRECTION ( 'NONE',  ( 0.000000000000000000, 1.000000000000000000, -0.000000000000000000 ) ) ;
#852 = DIRECTION ( 'NONE',  ( 1.000000000000000000, -1.656060597591223456E-16, 0.000000000000000000 ) ) ;
#853 = CARTESIAN_POINT ( 'NONE',  ( -0.8500000000000007550, 16.55000000000000426, 0.4000000000000000222 ) ) ;
#854 = ORIENTED_EDGE ( 'NONE', *, *, #259, .T. ) ;
#855 = VECTOR ( 'NONE', #691, 100.0000000000000000 ) ;
#856 = PLANE ( 'NONE',  #219 ) ;
#857 = DIRECTION ( 'NONE',  ( 0.000000000000000000, 1.000000000000000000, 0.000000000000000000 ) ) ;
#858 = AXIS2_PLACEMENT_3D ( 'NONE', #133, #836, #359 ) ;
#859 = EDGE_LOOP ( 'NONE', ( #360, #494, #23, #55 ) ) ;
#860 = EDGE_CURVE ( 'NONE', #96, #469, #644, .T. ) ;
#861 = CYLINDRICAL_SURFACE ( 'NONE', #935, 0.3000000000000008216 ) ;
#862 = CARTESIAN_POINT ( 'NONE',  ( 15.73000000000000043, 15.73000000000000043, 0.7999999999999998224 ) ) ;
#863 = EDGE_LOOP ( 'NONE', ( #27, #425, #274, #822 ) ) ;
#864 = FACE_OUTER_BOUND ( 'NONE', #791, .T. ) ;
#865 = ADVANCED_FACE ( 'NONE', ( #661 ), #948, .F. ) ;
#866 = DIRECTION ( 'NONE',  ( 0.000000000000000000, 1.000000000000000000, 0.000000000000000000 ) ) ;
#867 = VERTEX_POINT ( 'NONE', #29 ) ;
#868 = CARTESIAN_POINT ( 'NONE',  ( -0.8300000000000042899, -0.8300000000000001821, 1.000000000000000000 ) ) ;
#869 = AXIS2_PLACEMENT_3D ( 'NONE', #94, #633, #866 ) ;
#870 = CARTESIAN_POINT ( 'NONE',  ( 14.69999999999999929, 2.775557561562891351E-15, 1.000000000000000000 ) ) ;
#871 = EDGE_CURVE ( 'NONE', #733, #318, #564, .T. ) ;
#872 = VECTOR ( 'NONE', #833, 100.0000000000000000 ) ;
#873 = ORIENTED_EDGE ( 'NONE', *, *, #713, .T. ) ;
#874 = LINE ( 'NONE', #423, #463 ) ;
#875 = LINE ( 'NONE', #507, #997 ) ;
#876 = EDGE_CURVE ( 'NONE', #576, #226, #874, .T. ) ;
#877 = ORIENTED_EDGE ( 'NONE', *, *, #259, .F. ) ;
#878 = FILL_AREA_STYLE_COLOUR ( '', #600 ) ;
#879 = DIRECTION ( 'NONE',  ( 0.000000000000000000, 1.000000000000000000, 0.000000000000000000 ) ) ;
#880 = CARTESIAN_POINT ( 'NONE',  ( -1.850000000000001643, -0.8499999999999979794, 0.000000000000000000 ) ) ;
#881 = ADVANCED_FACE ( 'NONE', ( #583 ), #485, .F. ) ;
#882 =( NAMED_UNIT ( * ) SI_UNIT ( $, .STERADIAN. ) SOLID_ANGLE_UNIT ( ) );
#883 = VECTOR ( 'NONE', #937, 100.0000000000000000 ) ;
#884 = CARTESIAN_POINT ( 'NONE',  ( 15.73000000000000043, 15.73000000000000043, 0.4000000000000000222 ) ) ;
#885 = AXIS2_PLACEMENT_3D ( 'NONE', #352, #131, #590 ) ;
#886 = ORIENTED_EDGE ( 'NONE', *, *, #837, .F. ) ;
#887 = ORIENTED_EDGE ( 'NONE', *, *, #476, .T. ) ;
#888 = AXIS2_PLACEMENT_3D ( 'NONE', #412, #111, #893 ) ;
#889 = DIRECTION ( 'NONE',  ( 0.000000000000000000, 1.000000000000000000, 0.000000000000000000 ) ) ;
#890 = EDGE_CURVE ( 'NONE', #469, #930, #967, .T. ) ;
#891 = LINE ( 'NONE', #731, #170 ) ;
#892 = DIRECTION ( 'NONE',  ( 0.000000000000000000, 0.000000000000000000, -1.000000000000000000 ) ) ;
#893 = DIRECTION ( 'NONE',  ( -1.000000000000000000, 8.280302987956117279E-17, 0.000000000000000000 ) ) ;
#894 = EDGE_CURVE ( 'NONE', #520, #369, #613, .T. ) ;
#895 = CARTESIAN_POINT ( 'NONE',  ( 0.000000000000000000, 0.000000000000000000, 0.000000000000000000 ) ) ;
#896 = ORIENTED_EDGE ( 'NONE', *, *, #775, .F. ) ;
#897 = ORIENTED_EDGE ( 'NONE', *, *, #125, .T. ) ;
#898 = VERTEX_POINT ( 'NONE', #63 ) ;
#899 = CARTESIAN_POINT ( 'NONE',  ( -0.4500000000000003997, 14.85000000000000142, 1.000000000000000000 ) ) ;
#900 = EDGE_LOOP ( 'NONE', ( #934, #847, #897, #402 ) ) ;
#901 = VECTOR ( 'NONE', #703, 100.0000000000000000 ) ;
#902 = CARTESIAN_POINT ( 'NONE',  ( -0.4500000000000017875, -0.4499999999999990119, 0.000000000000000000 ) ) ;
#903 = VECTOR ( 'NONE', #116, 100.0000000000000000 ) ;
#904 = CARTESIAN_POINT ( 'NONE',  ( 14.69999999999999929, 14.70000000000000284, 1.000000000000000000 ) ) ;
#905 = ORIENTED_EDGE ( 'NONE', *, *, #980, .T. ) ;
#906 = DIRECTION ( 'NONE',  ( 0.000000000000000000, 0.000000000000000000, -1.000000000000000000 ) ) ;
#907 = ADVANCED_FACE ( 'NONE', ( #595 ), #828, .F. ) ;
#908 = CARTESIAN_POINT ( 'NONE',  ( 15.54999999999999716, 15.55000000000000249, 0.000000000000000000 ) ) ;
#909 = ORIENTED_EDGE ( 'NONE', *, *, #397, .T. ) ;
#910 = CARTESIAN_POINT ( 'NONE',  ( 16.54999999999999716, 16.55000000000000071, 0.000000000000000000 ) ) ;
#911 = EDGE_CURVE ( 'NONE', #50, #344, #238, .T. ) ;
#912 = PLANE ( 'NONE',  #32 ) ;
#913 = VERTEX_POINT ( 'NONE', #972 ) ;
#914 = LINE ( 'NONE', #214, #328 ) ;
#915 = ORIENTED_EDGE ( 'NONE', *, *, #268, .T. ) ;
#916 = LINE ( 'NONE', #456, #479 ) ;
#917 = VECTOR ( 'NONE', #879, 100.0000000000000000 ) ;
#918 = DIRECTION ( 'NONE',  ( 0.000000000000000000, 1.000000000000000000, 0.000000000000000000 ) ) ;
#919 = VECTOR ( 'NONE', #258, 100.0000000000000000 ) ;
#920 = CARTESIAN_POINT ( 'NONE',  ( -1.030000000000004468, 15.73000000000000576, 0.7999999999999998224 ) ) ;
#921 = EDGE_CURVE ( 'NONE', #236, #284, #823, .T. ) ;
#922 = CIRCLE ( 'NONE', #666, 0.3000000000000030420 ) ;
#923 = FACE_OUTER_BOUND ( 'NONE', #624, .T. ) ;
#924 = CARTESIAN_POINT ( 'NONE',  ( -0.8500000000000020872, -0.8499999999999979794, 0.000000000000000000 ) ) ;
#925 = ORIENTED_EDGE ( 'NONE', *, *, #12, .T. ) ;
#926 = EDGE_CURVE ( 'NONE', #226, #819, #204, .T. ) ;
#927 = LINE ( 'NONE', #798, #428 ) ;
#928 = ORIENTED_EDGE ( 'NONE', *, *, #331, .F. ) ;
#929 = FACE_OUTER_BOUND ( 'NONE', #171, .T. ) ;
#930 = VERTEX_POINT ( 'NONE', #351 ) ;
#931 = CARTESIAN_POINT ( 'NONE',  ( 15.73000000000000043, 15.73000000000000043, 0.7999999999999998224 ) ) ;
#932 = EDGE_CURVE ( 'NONE', #898, #229, #68, .T. ) ;
#933 = VECTOR ( 'NONE', #654, 100.0000000000000000 ) ;
#934 = ORIENTED_EDGE ( 'NONE', *, *, #926, .T. ) ;
#935 = AXIS2_PLACEMENT_3D ( 'NONE', #230, #709, #390 ) ;
#936 = LINE ( 'NONE', #237, #764 ) ;
#937 = DIRECTION ( 'NONE',  ( -0.000000000000000000, -0.000000000000000000, -1.000000000000000000 ) ) ;
#938 =( GEOMETRIC_REPRESENTATION_CONTEXT ( 3 ) GLOBAL_UNCERTAINTY_ASSIGNED_CONTEXT ( ( #598 ) ) GLOBAL_UNIT_ASSIGNED_CONTEXT ( ( #91, #82, #635 ) ) REPRESENTATION_CONTEXT ( 'NONE', 'WORKASPACE' ) );
#939 = ADVANCED_FACE ( 'NONE', ( #295, #130, #121, #680, #506, #984 ), #912, .F. ) ;
#940 = APPLICATION_PROTOCOL_DEFINITION ( 'draft international standard', 'automotive_design', 1998, #970 ) ;
#941 = EDGE_LOOP ( 'NONE', ( #329, #5 ) ) ;
#942 = LINE ( 'NONE', #792, #618 ) ;
#943 = DIRECTION ( 'NONE',  ( 0.000000000000000000, 0.000000000000000000, 1.000000000000000000 ) ) ;
#944 = ORIENTED_EDGE ( 'NONE', *, *, #483, .F. ) ;
#945 = CARTESIAN_POINT ( 'NONE',  ( -0.8500000000000007550, -1.849999999999996092, 0.000000000000000000 ) ) ;
#946 = LINE ( 'NONE', #396, #216 ) ;
#947 = ORIENTED_EDGE ( 'NONE', *, *, #42, .T. ) ;
#948 = CYLINDRICAL_SURFACE ( 'NONE', #400, 0.3000000000000030420 ) ;
#949 = VECTOR ( 'NONE', #906, 100.0000000000000000 ) ;
#950 = EDGE_CURVE ( 'NONE', #733, #369, #781, .T. ) ;
#951 = LINE ( 'NONE', #884, #561 ) ;
#952 = AXIS2_PLACEMENT_3D ( 'NONE', #908, #523, #429 ) ;
#953 =( NAMED_UNIT ( * ) PLANE_ANGLE_UNIT ( ) SI_UNIT ( $, .RADIAN. ) );
#954 = DIRECTION ( 'NONE',  ( -1.000000000000000000, 1.656060597591223456E-16, 0.000000000000000000 ) ) ;
#955 = PRODUCT_RELATED_PRODUCT_CATEGORY ( 'part', '', ( #774 ) ) ;
#956 = PLANE ( 'NONE',  #218 ) ;
#957 = VERTEX_POINT ( 'NONE', #272 ) ;
#958 = CARTESIAN_POINT ( 'NONE',  ( 15.14999999999999680, 15.15000000000000213, 0.000000000000000000 ) ) ;
#959 = CARTESIAN_POINT ( 'NONE',  ( -1.030000000000004468, 15.73000000000000576, 0.4000000000000000222 ) ) ;
#960 = ADVANCED_FACE ( 'NONE', ( #609 ), #283, .T. ) ;
#961 = VERTEX_POINT ( 'NONE', #127 ) ;
#962 = CARTESIAN_POINT ( 'NONE',  ( -0.4500000000000003997, 15.15000000000000213, 1.000000000000000000 ) ) ;
#963 = AXIS2_PLACEMENT_3D ( 'NONE', #723, #333, #106 ) ;
#964 = DIRECTION ( 'NONE',  ( 0.000000000000000000, 0.000000000000000000, -1.000000000000000000 ) ) ;
#965 = LINE ( 'NONE', #51, #327 ) ;
#966 = ORIENTED_EDGE ( 'NONE', *, *, #36, .F. ) ;
#967 = CIRCLE ( 'NONE', #413, 1.000000000000000888 ) ;
#968 = LINE ( 'NONE', #807, #510 ) ;
#969 = DIRECTION ( 'NONE',  ( 0.000000000000000000, 1.000000000000000000, 0.000000000000000000 ) ) ;
#970 = APPLICATION_CONTEXT ( 'automotive_design' ) ;
#971 = ORIENTED_EDGE ( 'NONE', *, *, #932, .F. ) ;
#972 = CARTESIAN_POINT ( 'NONE',  ( 0.000000000000000000, 0.000000000000000000, 1.000000000000000000 ) ) ;
#973 = DIRECTION ( 'NONE',  ( -1.000000000000000000, 0.000000000000000000, 0.000000000000000000 ) ) ;
#974 = ADVANCED_FACE ( 'NONE', ( #760 ), #368, .F. ) ;
#975 = ORIENTED_EDGE ( 'NONE', *, *, #591, .T. ) ;
#976 = DIRECTION ( 'NONE',  ( 0.000000000000000000, 1.000000000000000000, 0.000000000000000000 ) ) ;
#977 = VERTEX_POINT ( 'NONE', #899 ) ;
#978 = CARTESIAN_POINT ( 'NONE',  ( 15.73000000000000043, 15.73000000000000043, 0.7999999999999998224 ) ) ;
#979 = UNCERTAINTY_MEASURE_WITH_UNIT (LENGTH_MEASURE( 1.000000000000000082E-05 ), #813, 'distance_accuracy_value', 'NONE');
#980 = EDGE_CURVE ( 'NONE', #309, #610, #48, .T. ) ;
#981 = CARTESIAN_POINT ( 'NONE',  ( 4.556666666666655985, 4.556666666666640886, 6.386666666666659609 ) ) ;
#982 = CIRCLE ( 'NONE', #546, 0.3000000000000030420 ) ;
#983 = AXIS2_PLACEMENT_3D ( 'NONE', #148, #531, #139 ) ;
#984 = FACE_BOUND ( 'NONE', #315, .T. ) ;
#985 = ORIENTED_EDGE ( 'NONE', *, *, #125, .F. ) ;
#986 = AXIS2_PLACEMENT_3D ( 'NONE', #684, #745, #589 ) ;
#987 = DIRECTION ( 'NONE',  ( 0.000000000000000000, 0.000000000000000000, -1.000000000000000000 ) ) ;
#988 = EDGE_CURVE ( 'NONE', #752, #398, #367, .T. ) ;
#989 = DIRECTION ( 'NONE',  ( 0.000000000000000000, 0.000000000000000000, -1.000000000000000000 ) ) ;
#990 = CARTESIAN_POINT ( 'NONE',  ( -0.4500000000000017875, -0.4499999999999990119, 1.000000000000000000 ) ) ;
#991 = ORIENTED_EDGE ( 'NONE', *, *, #549, .F. ) ;
#992 = CARTESIAN_POINT ( 'NONE',  ( -0.4500000000000003997, 15.15000000000000213, 0.000000000000000000 ) ) ;
#993 = ADVANCED_FACE ( 'NONE', ( #994 ), #52, .F. ) ;
#994 = FACE_OUTER_BOUND ( 'NONE', #296, .T. ) ;
#995 = DIRECTION ( 'NONE',  ( 0.000000000000000000, 1.000000000000000000, 0.000000000000000000 ) ) ;
#996 = DIRECTION ( 'NONE',  ( 0.000000000000000000, 1.000000000000000000, 0.000000000000000000 ) ) ;
#997 = VECTOR ( 'NONE', #40, 100.0000000000000000 ) ;
ENDSEC;
END-ISO-10303-21;
