ISO-10303-21;
HEADER;
FILE_DESCRIPTION (( 'STEP AP214' ),
    '1' );
FILE_NAME ('elevated-cell-base_62.STEP',
    '2026-06-16T01:09:46',
    ( '' ),
    ( '' ),
    'SwSTEP 2.0',
    'SolidWorks 2023',
    '' );
FILE_SCHEMA (( 'AUTOMOTIVE_DESIGN' ));
ENDSEC;

DATA;
#1 = CARTESIAN_POINT ( 'NONE',  ( 14.69999999999999929, 2.775557561562891351E-15, 1.000000000000000000 ) ) ;
#2 = ORIENTED_EDGE ( 'NONE', *, *, #41, .F. ) ;
#3 = DIRECTION ( 'NONE',  ( -0.000000000000000000, -0.000000000000000000, -1.000000000000000000 ) ) ;
#4 = PLANE ( 'NONE',  #880 ) ;
#5 = LINE ( 'NONE', #624, #800 ) ;
#6 = ORIENTED_EDGE ( 'NONE', *, *, #336, .T. ) ;
#7 = LINE ( 'NONE', #469, #978 ) ;
#8 = EDGE_CURVE ( 'NONE', #436, #249, #929, .T. ) ;
#9 = CARTESIAN_POINT ( 'NONE',  ( -0.8500000000000007550, -1.849999999999996092, 0.000000000000000000 ) ) ;
#10 = VERTEX_POINT ( 'NONE', #829 ) ;
#11 = CARTESIAN_POINT ( 'NONE',  ( -0.4500000000000003997, 15.15000000000000213, 1.000000000000000000 ) ) ;
#12 = DIRECTION ( 'NONE',  ( 0.000000000000000000, 0.000000000000000000, -1.000000000000000000 ) ) ;
#13 = VECTOR ( 'NONE', #72, 100.0000000000000000 ) ;
#14 = VECTOR ( 'NONE', #668, 100.0000000000000000 ) ;
#15 = ADVANCED_FACE ( 'NONE', ( #519 ), #439, .F. ) ;
#16 = EDGE_CURVE ( 'NONE', #715, #797, #319, .T. ) ;
#17 = VERTEX_POINT ( 'NONE', #284 ) ;
#18 = DIRECTION ( 'NONE',  ( 0.000000000000000000, 0.000000000000000000, -1.000000000000000000 ) ) ;
#19 = EDGE_CURVE ( 'NONE', #577, #166, #299, .T. ) ;
#20 = VERTEX_POINT ( 'NONE', #591 ) ;
#21 = DIRECTION ( 'NONE',  ( 1.000000000000000000, 1.888134395621014649E-16, -0.000000000000000000 ) ) ;
#22 = CARTESIAN_POINT ( 'NONE',  ( 15.73000000000000043, -1.030000000000000249, 0.7999999999999998224 ) ) ;
#23 = ORIENTED_EDGE ( 'NONE', *, *, #193, .F. ) ;
#24 = ORIENTED_EDGE ( 'NONE', *, *, #530, .F. ) ;
#25 = LINE ( 'NONE', #636, #245 ) ;
#26 = VECTOR ( 'NONE', #62, 100.0000000000000000 ) ;
#27 = AXIS2_PLACEMENT_3D ( 'NONE', #917, #841, #372 ) ;
#28 = DIRECTION ( 'NONE',  ( 0.000000000000000000, -1.000000000000000000, 0.000000000000000000 ) ) ;
#29 = AXIS2_PLACEMENT_3D ( 'NONE', #140, #296, #307 ) ;
#30 = ADVANCED_BREP_SHAPE_REPRESENTATION ( 'elevated-cell-base_62', ( #666, #621 ), #130 ) ;
#31 = VERTEX_POINT ( 'NONE', #369 ) ;
#32 = VERTEX_POINT ( 'NONE', #763 ) ;
#33 = CARTESIAN_POINT ( 'NONE',  ( 15.73000000000000043, 15.73000000000000043, 0.4000000000000000222 ) ) ;
#34 = EDGE_CURVE ( 'NONE', #877, #619, #479, .T. ) ;
#35 = DIRECTION ( 'NONE',  ( -0.000000000000000000, -0.000000000000000000, 1.000000000000000000 ) ) ;
#36 = EDGE_LOOP ( 'NONE', ( #856, #43 ) ) ;
#37 = VERTEX_POINT ( 'NONE', #670 ) ;
#38 =( NAMED_UNIT ( * ) PLANE_ANGLE_UNIT ( ) SI_UNIT ( $, .RADIAN. ) );
#39 = PRODUCT_DEFINITION_FORMATION_WITH_SPECIFIED_SOURCE ( 'ANY', '', #52, .NOT_KNOWN. ) ;
#40 = CARTESIAN_POINT ( 'NONE',  ( 0.000000000000000000, 14.69999999999999929, 1.000000000000000000 ) ) ;
#41 = EDGE_CURVE ( 'NONE', #730, #306, #748, .T. ) ;
#42 = EDGE_LOOP ( 'NONE', ( #544, #401, #734, #643 ) ) ;
#43 = ORIENTED_EDGE ( 'NONE', *, *, #597, .F. ) ;
#44 = DIRECTION ( 'NONE',  ( 0.000000000000000000, 0.000000000000000000, -1.000000000000000000 ) ) ;
#45 = VECTOR ( 'NONE', #294, 100.0000000000000000 ) ;
#46 = AXIS2_PLACEMENT_3D ( 'NONE', #960, #121, #438 ) ;
#47 = VECTOR ( 'NONE', #509, 100.0000000000000000 ) ;
#48 = ORIENTED_EDGE ( 'NONE', *, *, #234, .T. ) ;
#49 = EDGE_LOOP ( 'NONE', ( #6, #923 ) ) ;
#50 = CARTESIAN_POINT ( 'NONE',  ( 15.54999999999999716, -1.849999999999998757, 0.4000000000000000222 ) ) ;
#51 = LINE ( 'NONE', #814, #127 ) ;
#52 = PRODUCT ( 'elevated-cell-base_62', 'elevated-cell-base_62', '', ( #861 ) ) ;
#53 = DIRECTION ( 'NONE',  ( 0.5773502691896256200, -0.5773502691896258421, 0.5773502691896257311 ) ) ;
#54 = EDGE_CURVE ( 'NONE', #122, #570, #759, .T. ) ;
#55 = EDGE_LOOP ( 'NONE', ( #989, #112, #995, #705 ) ) ;
#56 = CARTESIAN_POINT ( 'NONE',  ( 14.69999999999999929, 14.70000000000000284, 0.000000000000000000 ) ) ;
#57 = DIRECTION ( 'NONE',  ( 0.000000000000000000, 1.000000000000000000, 0.000000000000000000 ) ) ;
#58 = DIRECTION ( 'NONE',  ( 1.000000000000000000, -1.508455196501571429E-16, 0.000000000000000000 ) ) ;
#59 = EDGE_LOOP ( 'NONE', ( #202, #604, #839, #963 ) ) ;
#60 = DIRECTION ( 'NONE',  ( 0.000000000000000000, 0.000000000000000000, 1.000000000000000000 ) ) ;
#61 = CARTESIAN_POINT ( 'NONE',  ( -0.4500000000000003997, 15.15000000000000213, 1.000000000000000000 ) ) ;
#62 = DIRECTION ( 'NONE',  ( 0.000000000000000000, -1.000000000000000000, 0.000000000000000000 ) ) ;
#63 = AXIS2_PLACEMENT_3D ( 'NONE', #548, #664, #287 ) ;
#64 = VECTOR ( 'NONE', #754, 100.0000000000000000 ) ;
#65 = EDGE_LOOP ( 'NONE', ( #711, #635, #349, #869 ) ) ;
#66 = CARTESIAN_POINT ( 'NONE',  ( -0.4500000000000017875, -0.1399999999999984590, 1.000000000000000000 ) ) ;
#67 = FACE_BOUND ( 'NONE', #36, .T. ) ;
#68 = ADVANCED_FACE ( 'NONE', ( #602 ), #677, .F. ) ;
#69 = CARTESIAN_POINT ( 'NONE',  ( 15.52999999999999936, -0.8300000000000016254, 1.000000000000000000 ) ) ;
#70 = ORIENTED_EDGE ( 'NONE', *, *, #993, .T. ) ;
#71 = CARTESIAN_POINT ( 'NONE',  ( 15.73000000000000043, 15.73000000000000043, 0.7999999999999998224 ) ) ;
#72 = DIRECTION ( 'NONE',  ( 0.000000000000000000, 1.000000000000000000, -0.000000000000000000 ) ) ;
#73 = DIRECTION ( 'NONE',  ( 0.000000000000000000, 1.000000000000000000, -0.000000000000000000 ) ) ;
#74 = EDGE_LOOP ( 'NONE', ( #780, #482 ) ) ;
#75 = LINE ( 'NONE', #452, #64 ) ;
#76 = DIRECTION ( 'NONE',  ( 0.000000000000000000, 0.000000000000000000, -1.000000000000000000 ) ) ;
#77 = DIRECTION ( 'NONE',  ( -0.000000000000000000, -0.000000000000000000, 1.000000000000000000 ) ) ;
#78 = VECTOR ( 'NONE', #465, 100.0000000000000000 ) ;
#79 = CIRCLE ( 'NONE', #640, 0.3099999999999991651 ) ;
#80 = VERTEX_POINT ( 'NONE', #891 ) ;
#81 = LINE ( 'NONE', #442, #162 ) ;
#82 = AXIS2_PLACEMENT_3D ( 'NONE', #341, #648, #114 ) ;
#83 = PLANE ( 'NONE',  #562 ) ;
#84 = CARTESIAN_POINT ( 'NONE',  ( 15.54999999999999716, -0.8499999999999994227, 0.000000000000000000 ) ) ;
#85 = VERTEX_POINT ( 'NONE', #218 ) ;
#86 = DIRECTION ( 'NONE',  ( -1.888134395621014649E-16, 1.000000000000000000, 0.000000000000000000 ) ) ;
#87 = EDGE_CURVE ( 'NONE', #259, #363, #428, .T. ) ;
#88 = CARTESIAN_POINT ( 'NONE',  ( 0.000000000000000000, 0.000000000000000000, 0.000000000000000000 ) ) ;
#89 = FACE_OUTER_BOUND ( 'NONE', #940, .T. ) ;
#90 = ORIENTED_EDGE ( 'NONE', *, *, #915, .F. ) ;
#91 = EDGE_CURVE ( 'NONE', #249, #822, #895, .T. ) ;
#92 = CARTESIAN_POINT ( 'NONE',  ( 15.73000000000000043, -1.030000000000000249, 0.7999999999999998224 ) ) ;
#93 = ORIENTED_EDGE ( 'NONE', *, *, #956, .F. ) ;
#94 = DIRECTION ( 'NONE',  ( 0.000000000000000000, 1.000000000000000000, 0.000000000000000000 ) ) ;
#95 = AXIS2_PLACEMENT_3D ( 'NONE', #228, #536, #155 ) ;
#96 = EDGE_CURVE ( 'NONE', #32, #412, #126, .T. ) ;
#97 = ORIENTED_EDGE ( 'NONE', *, *, #926, .T. ) ;
#98 = DIRECTION ( 'NONE',  ( -0.000000000000000000, -0.000000000000000000, 1.000000000000000000 ) ) ;
#99 = FACE_OUTER_BOUND ( 'NONE', #592, .T. ) ;
#100 = VERTEX_POINT ( 'NONE', #983 ) ;
#101 = ORIENTED_EDGE ( 'NONE', *, *, #871, .F. ) ;
#102 = CARTESIAN_POINT ( 'NONE',  ( -0.4500000000000003997, 14.84000000000000341, 1.000000000000000000 ) ) ;
#103 = CARTESIAN_POINT ( 'NONE',  ( -0.4500000000000017875, -0.1399999999999984590, 1.000000000000000000 ) ) ;
#104 = VERTEX_POINT ( 'NONE', #69 ) ;
#105 = EDGE_CURVE ( 'NONE', #100, #37, #373, .T. ) ;
#106 = ORIENTED_EDGE ( 'NONE', *, *, #634, .F. ) ;
#107 = DIRECTION ( 'NONE',  ( -1.508455196501571429E-16, -1.000000000000000000, 0.000000000000000000 ) ) ;
#108 = AXIS2_PLACEMENT_3D ( 'NONE', #902, #131, #73 ) ;
#109 = AXIS2_PLACEMENT_3D ( 'NONE', #629, #767, #685 ) ;
#110 = FACE_OUTER_BOUND ( 'NONE', #735, .T. ) ;
#111 = PRESENTATION_LAYER_ASSIGNMENT (  '', '', ( #177 ) ) ;
#112 = ORIENTED_EDGE ( 'NONE', *, *, #950, .T. ) ;
#113 = ORIENTED_EDGE ( 'NONE', *, *, #365, .F. ) ;
#114 = DIRECTION ( 'NONE',  ( 0.000000000000000000, 1.000000000000000000, 0.000000000000000000 ) ) ;
#115 = ADVANCED_FACE ( 'NONE', ( #967 ), #681, .T. ) ;
#116 = PLANE ( 'NONE',  #414 ) ;
#117 = ORIENTED_EDGE ( 'NONE', *, *, #732, .F. ) ;
#118 = EDGE_LOOP ( 'NONE', ( #513, #935, #719, #441 ) ) ;
#119 = PLANE ( 'NONE',  #641 ) ;
#120 = EDGE_CURVE ( 'NONE', #570, #37, #534, .T. ) ;
#121 = DIRECTION ( 'NONE',  ( 0.000000000000000000, 0.000000000000000000, -1.000000000000000000 ) ) ;
#122 = VERTEX_POINT ( 'NONE', #289 ) ;
#123 = ORIENTED_EDGE ( 'NONE', *, *, #842, .T. ) ;
#124 = LINE ( 'NONE', #56, #14 ) ;
#125 = DIRECTION ( 'NONE',  ( 0.5773502691896263972, -0.5773502691896245098, -0.5773502691896263972 ) ) ;
#126 = CIRCLE ( 'NONE', #241, 1.000000000000000888 ) ;
#127 = VECTOR ( 'NONE', #522, 100.0000000000000000 ) ;
#128 = EDGE_CURVE ( 'NONE', #17, #913, #280, .T. ) ;
#129 = AXIS2_PLACEMENT_3D ( 'NONE', #878, #804, #653 ) ;
#130 =( GEOMETRIC_REPRESENTATION_CONTEXT ( 3 ) GLOBAL_UNCERTAINTY_ASSIGNED_CONTEXT ( ( #713 ) ) GLOBAL_UNIT_ASSIGNED_CONTEXT ( ( #174, #322, #244 ) ) REPRESENTATION_CONTEXT ( 'NONE', 'WORKASPACE' ) );
#131 = DIRECTION ( 'NONE',  ( -1.000000000000000000, 0.000000000000000000, 0.000000000000000000 ) ) ;
#132 = EDGE_LOOP ( 'NONE', ( #370, #776 ) ) ;
#133 = DIRECTION ( 'NONE',  ( 1.888134395621014649E-16, -1.000000000000000000, 0.000000000000000000 ) ) ;
#134 = DIRECTION ( 'NONE',  ( 0.000000000000000000, 1.000000000000000000, 0.000000000000000000 ) ) ;
#135 = VERTEX_POINT ( 'NONE', #201 ) ;
#136 = CARTESIAN_POINT ( 'NONE',  ( 15.14999999999999680, 15.46000000000000085, 0.000000000000000000 ) ) ;
#137 = CARTESIAN_POINT ( 'NONE',  ( -0.8500000000000020872, -0.8499999999999979794, 0.4000000000000000222 ) ) ;
#138 = FACE_OUTER_BOUND ( 'NONE', #386, .T. ) ;
#139 = EDGE_LOOP ( 'NONE', ( #281, #113, #236, #197 ) ) ;
#140 = CARTESIAN_POINT ( 'NONE',  ( 15.73000000000000043, -1.030000000000000249, 0.7999999999999998224 ) ) ;
#141 = ADVANCED_FACE ( 'NONE', ( #138 ), #816, .F. ) ;
#142 = FACE_OUTER_BOUND ( 'NONE', #139, .T. ) ;
#143 = DIRECTION ( 'NONE',  ( -1.000000000000000000, 1.656060597591223456E-16, 0.000000000000000000 ) ) ;
#144 = VECTOR ( 'NONE', #211, 100.0000000000000000 ) ;
#145 = ORIENTED_EDGE ( 'NONE', *, *, #549, .T. ) ;
#146 = CARTESIAN_POINT ( 'NONE',  ( -1.030000000000004468, -1.029999999999998916, 0.4000000000000000222 ) ) ;
#147 = EDGE_CURVE ( 'NONE', #104, #100, #185, .T. ) ;
#148 = FACE_BOUND ( 'NONE', #678, .T. ) ;
#149 = CARTESIAN_POINT ( 'NONE',  ( -0.4500000000000003997, 15.15000000000000213, 0.000000000000000000 ) ) ;
#150 = ORIENTED_EDGE ( 'NONE', *, *, #353, .F. ) ;
#151 = LINE ( 'NONE', #683, #384 ) ;
#152 = CARTESIAN_POINT ( 'NONE',  ( 15.14999999999999680, 14.83999999999999986, 0.000000000000000000 ) ) ;
#153 = LINE ( 'NONE', #157, #639 ) ;
#154 = ORIENTED_EDGE ( 'NONE', *, *, #420, .T. ) ;
#155 = DIRECTION ( 'NONE',  ( 0.000000000000000000, 1.000000000000000000, 0.000000000000000000 ) ) ;
#156 = DIRECTION ( 'NONE',  ( 0.000000000000000000, 1.000000000000000000, 0.000000000000000000 ) ) ;
#157 = CARTESIAN_POINT ( 'NONE',  ( 14.69999999999999929, 14.70000000000000284, 0.000000000000000000 ) ) ;
#158 = EDGE_CURVE ( 'NONE', #427, #10, #153, .T. ) ;
#159 = AXIS2_PLACEMENT_3D ( 'NONE', #706, #18, #94 ) ;
#160 = ORIENTED_EDGE ( 'NONE', *, *, #308, .T. ) ;
#161 = CARTESIAN_POINT ( 'NONE',  ( 16.54999999999999716, -0.8499999999999979794, 0.000000000000000000 ) ) ;
#162 = VECTOR ( 'NONE', #899, 100.0000000000000142 ) ;
#163 = DIRECTION ( 'NONE',  ( -0.7071067811865475727, -0.000000000000000000, -0.7071067811865475727 ) ) ;
#164 = CARTESIAN_POINT ( 'NONE',  ( -0.4500000000000003997, 15.15000000000000213, 1.000000000000000000 ) ) ;
#165 = EDGE_CURVE ( 'NONE', #166, #984, #411, .T. ) ;
#166 = VERTEX_POINT ( 'NONE', #314 ) ;
#167 = APPLICATION_PROTOCOL_DEFINITION ( 'draft international standard', 'automotive_design', 1998, #690 ) ;
#168 = DIRECTION ( 'NONE',  ( 0.000000000000000000, 1.000000000000000000, 0.000000000000000000 ) ) ;
#169 = CYLINDRICAL_SURFACE ( 'NONE', #657, 1.000000000000000222 ) ;
#170 = EDGE_LOOP ( 'NONE', ( #581, #876, #582, #801 ) ) ;
#171 = PLANE ( 'NONE',  #337 ) ;
#172 = EDGE_CURVE ( 'NONE', #498, #913, #843, .T. ) ;
#173 = ORIENTED_EDGE ( 'NONE', *, *, #993, .F. ) ;
#174 =( LENGTH_UNIT ( ) NAMED_UNIT ( * ) SI_UNIT ( .CENTI., .METRE. ) );
#175 = CIRCLE ( 'NONE', #674, 0.3099999999999991651 ) ;
#176 = DIRECTION ( 'NONE',  ( 0.000000000000000000, 0.000000000000000000, 1.000000000000000000 ) ) ;
#177 = STYLED_ITEM ( 'NONE', ( #893 ), #666 ) ;
#178 = PRODUCT_RELATED_PRODUCT_CATEGORY ( 'part', '', ( #52 ) ) ;
#179 = AXIS2_PLACEMENT_3D ( 'NONE', #488, #556, #620 ) ;
#180 = ORIENTED_EDGE ( 'NONE', *, *, #950, .F. ) ;
#181 = LINE ( 'NONE', #102, #757 ) ;
#182 = ORIENTED_EDGE ( 'NONE', *, *, #239, .F. ) ;
#183 = ORIENTED_EDGE ( 'NONE', *, *, #574, .T. ) ;
#184 = CYLINDRICAL_SURFACE ( 'NONE', #563, 0.3100000000000003864 ) ;
#185 = LINE ( 'NONE', #338, #78 ) ;
#186 = EDGE_CURVE ( 'NONE', #913, #10, #799, .T. ) ;
#187 = VERTEX_POINT ( 'NONE', #9 ) ;
#188 = ORIENTED_EDGE ( 'NONE', *, *, #676, .F. ) ;
#189 = CARTESIAN_POINT ( 'NONE',  ( -1.850000000000001643, 16.55000000000000426, 0.000000000000000000 ) ) ;
#190 = AXIS2_PLACEMENT_3D ( 'NONE', #900, #421, #195 ) ;
#191 = CARTESIAN_POINT ( 'NONE',  ( -0.8300000000000042899, 7.350000000000001421, 1.000000000000000000 ) ) ;
#192 = CARTESIAN_POINT ( 'NONE',  ( -0.8500000000000007550, 15.55000000000000249, 0.000000000000000000 ) ) ;
#193 = EDGE_CURVE ( 'NONE', #135, #570, #859, .T. ) ;
#194 = ORIENTED_EDGE ( 'NONE', *, *, #165, .T. ) ;
#195 = DIRECTION ( 'NONE',  ( 0.000000000000000000, 1.000000000000000000, 0.000000000000000000 ) ) ;
#196 = EDGE_LOOP ( 'NONE', ( #93, #555, #793, #340 ) ) ;
#197 = ORIENTED_EDGE ( 'NONE', *, *, #54, .F. ) ;
#198 = CARTESIAN_POINT ( 'NONE',  ( 16.54999999999999716, 16.55000000000000071, 0.000000000000000000 ) ) ;
#199 = ADVANCED_FACE ( 'NONE', ( #110 ), #169, .T. ) ;
#200 = LINE ( 'NONE', #510, #773 ) ;
#201 = CARTESIAN_POINT ( 'NONE',  ( -1.030000000000004468, 15.73000000000000576, 0.4000000000000000222 ) ) ;
#202 = ORIENTED_EDGE ( 'NONE', *, *, #353, .T. ) ;
#203 = CARTESIAN_POINT ( 'NONE',  ( -0.4500000000000017875, -0.4499999999999990119, 1.000000000000000000 ) ) ;
#204 = FACE_OUTER_BOUND ( 'NONE', #65, .T. ) ;
#205 = VECTOR ( 'NONE', #494, 100.0000000000000000 ) ;
#206 = ADVANCED_FACE ( 'NONE', ( #89 ), #784, .F. ) ;
#207 = VECTOR ( 'NONE', #885, 100.0000000000000000 ) ;
#208 = COLOUR_RGB ( '',0.7921568627450980005, 0.8196078431372548767, 0.9333333333333333481 ) ;
#209 = DIRECTION ( 'NONE',  ( 0.000000000000000000, 1.000000000000000000, 0.000000000000000000 ) ) ;
#210 = ORIENTED_EDGE ( 'NONE', *, *, #87, .F. ) ;
#211 = DIRECTION ( 'NONE',  ( 0.000000000000000000, 0.000000000000000000, -1.000000000000000000 ) ) ;
#212 = CARTESIAN_POINT ( 'NONE',  ( -0.4500000000000017875, -0.7599999999999995648, 1.000000000000000000 ) ) ;
#213 = DIRECTION ( 'NONE',  ( -1.656060597591223456E-16, -1.000000000000000000, 0.000000000000000000 ) ) ;
#214 = EDGE_CURVE ( 'NONE', #625, #331, #175, .T. ) ;
#215 = ORIENTED_EDGE ( 'NONE', *, *, #889, .T. ) ;
#216 = DIRECTION ( 'NONE',  ( -1.000000000000000000, -1.888134395621014649E-16, 0.000000000000000000 ) ) ;
#217 = FACE_OUTER_BOUND ( 'NONE', #196, .T. ) ;
#218 = CARTESIAN_POINT ( 'NONE',  ( 15.73000000000000043, -1.030000000000000249, 0.4000000000000000222 ) ) ;
#219 = EDGE_CURVE ( 'NONE', #790, #558, #992, .T. ) ;
#220 = ORIENTED_EDGE ( 'NONE', *, *, #906, .F. ) ;
#221 = CYLINDRICAL_SURFACE ( 'NONE', #693, 0.3100000000000003864 ) ;
#222 = FACE_BOUND ( 'NONE', #49, .T. ) ;
#223 = CIRCLE ( 'NONE', #303, 1.000000000000000888 ) ;
#224 = DIRECTION ( 'NONE',  ( 0.000000000000000000, 0.000000000000000000, -1.000000000000000000 ) ) ;
#225 = AXIS2_PLACEMENT_3D ( 'NONE', #352, #736, #661 ) ;
#226 = CIRCLE ( 'NONE', #484, 0.3099999999999991651 ) ;
#227 = ORIENTED_EDGE ( 'NONE', *, *, #737, .T. ) ;
#228 = CARTESIAN_POINT ( 'NONE',  ( 15.14999999999999680, 15.15000000000000213, 0.000000000000000000 ) ) ;
#229 = CARTESIAN_POINT ( 'NONE',  ( -0.8300000000000042899, -0.8300000000000001821, 1.000000000000000000 ) ) ;
#230 = CARTESIAN_POINT ( 'NONE',  ( -0.8500000000000007550, 16.55000000000000426, 0.000000000000000000 ) ) ;
#231 = EDGE_LOOP ( 'NONE', ( #599, #173, #429, #311 ) ) ;
#232 = DIRECTION ( 'NONE',  ( 0.000000000000000000, 0.000000000000000000, -1.000000000000000000 ) ) ;
#233 = DIRECTION ( 'NONE',  ( 0.000000000000000000, -1.000000000000000000, 0.000000000000000000 ) ) ;
#234 = EDGE_CURVE ( 'NONE', #85, #646, #721, .T. ) ;
#235 = DIRECTION ( 'NONE',  ( -0.000000000000000000, -0.000000000000000000, 1.000000000000000000 ) ) ;
#236 = ORIENTED_EDGE ( 'NONE', *, *, #120, .F. ) ;
#237 = CARTESIAN_POINT ( 'NONE',  ( 15.54999999999999716, 16.55000000000000071, 0.000000000000000000 ) ) ;
#238 = LINE ( 'NONE', #546, #722 ) ;
#239 = EDGE_CURVE ( 'NONE', #887, #135, #394, .T. ) ;
#240 = CYLINDRICAL_SURFACE ( 'NONE', #63, 0.3100000000000003864 ) ;
#241 = AXIS2_PLACEMENT_3D ( 'NONE', #450, #455, #209 ) ;
#242 = AXIS2_PLACEMENT_3D ( 'NONE', #539, #389, #700 ) ;
#243 = ORIENTED_EDGE ( 'NONE', *, *, #486, .F. ) ;
#244 =( NAMED_UNIT ( * ) SI_UNIT ( $, .STERADIAN. ) SOLID_ANGLE_UNIT ( ) );
#245 = VECTOR ( 'NONE', #949, 100.0000000000000000 ) ;
#246 = CARTESIAN_POINT ( 'NONE',  ( -0.4500000000000017875, -0.4499999999999990119, 0.000000000000000000 ) ) ;
#247 = CARTESIAN_POINT ( 'NONE',  ( -1.030000000000004468, 15.73000000000000576, 0.4000000000000000222 ) ) ;
#248 = EDGE_CURVE ( 'NONE', #31, #647, #695, .T. ) ;
#249 = VERTEX_POINT ( 'NONE', #230 ) ;
#250 = DIRECTION ( 'NONE',  ( 1.000000000000000000, 0.000000000000000000, -0.000000000000000000 ) ) ;
#251 = CARTESIAN_POINT ( 'NONE',  ( 15.73000000000000043, -1.030000000000000249, 0.4000000000000000222 ) ) ;
#252 = ORIENTED_EDGE ( 'NONE', *, *, #956, .T. ) ;
#253 = ADVANCED_FACE ( 'NONE', ( #922 ), #543, .T. ) ;
#254 = SURFACE_STYLE_FILL_AREA ( #712 ) ;
#255 = ORIENTED_EDGE ( 'NONE', *, *, #325, .T. ) ;
#256 = CARTESIAN_POINT ( 'NONE',  ( 0.000000000000000000, 14.69999999999999929, 0.000000000000000000 ) ) ;
#257 = CYLINDRICAL_SURFACE ( 'NONE', #932, 0.3100000000000003864 ) ;
#258 = AXIS2_PLACEMENT_3D ( 'NONE', #198, #107, #345 ) ;
#259 = VERTEX_POINT ( 'NONE', #875 ) ;
#260 = EDGE_LOOP ( 'NONE', ( #495, #445, #863, #503 ) ) ;
#261 = CARTESIAN_POINT ( 'NONE',  ( 15.14999999999999680, 15.15000000000000213, 0.000000000000000000 ) ) ;
#262 = DIRECTION ( 'NONE',  ( 0.000000000000000000, 1.000000000000000000, 0.000000000000000000 ) ) ;
#263 = EDGE_CURVE ( 'NONE', #619, #877, #515, .T. ) ;
#264 = ORIENTED_EDGE ( 'NONE', *, *, #574, .F. ) ;
#265 = EDGE_LOOP ( 'NONE', ( #329, #764, #948, #760 ) ) ;
#266 = CARTESIAN_POINT ( 'NONE',  ( 15.73000000000000043, 15.73000000000000043, 0.7999999999999998224 ) ) ;
#267 = CARTESIAN_POINT ( 'NONE',  ( -0.4500000000000003997, 14.84000000000000341, 1.000000000000000000 ) ) ;
#268 = EDGE_CURVE ( 'NONE', #587, #100, #5, .T. ) ;
#269 = ORIENTED_EDGE ( 'NONE', *, *, #732, .T. ) ;
#270 = ORIENTED_EDGE ( 'NONE', *, *, #889, .F. ) ;
#271 = LINE ( 'NONE', #578, #866 ) ;
#272 = CIRCLE ( 'NONE', #961, 1.000000000000000000 ) ;
#273 = DIRECTION ( 'NONE',  ( 1.000000000000000000, -1.656060597591223456E-16, 0.000000000000000000 ) ) ;
#274 = AXIS2_PLACEMENT_3D ( 'NONE', #514, #954, #437 ) ;
#275 = VERTEX_POINT ( 'NONE', #470 ) ;
#276 = ADVANCED_FACE ( 'NONE', ( #927 ), #240, .F. ) ;
#277 = VERTEX_POINT ( 'NONE', #584 ) ;
#278 = DIRECTION ( 'NONE',  ( 0.000000000000000000, 0.000000000000000000, -1.000000000000000000 ) ) ;
#279 = CARTESIAN_POINT ( 'NONE',  ( 15.73000000000000043, 15.73000000000000043, 0.4000000000000000222 ) ) ;
#280 = LINE ( 'NONE', #523, #815 ) ;
#281 = ORIENTED_EDGE ( 'NONE', *, *, #882, .F. ) ;
#282 = LINE ( 'NONE', #726, #946 ) ;
#283 = CARTESIAN_POINT ( 'NONE',  ( 14.69999999999999929, 2.775557561562891351E-15, 0.000000000000000000 ) ) ;
#284 = CARTESIAN_POINT ( 'NONE',  ( 14.69999999999999929, 2.775557561562891351E-15, 0.000000000000000000 ) ) ;
#285 = EDGE_LOOP ( 'NONE', ( #422, #724, #117, #958 ) ) ;
#286 = CARTESIAN_POINT ( 'NONE',  ( 15.14999999999999680, -0.4499999999999990119, 1.000000000000000000 ) ) ;
#287 = DIRECTION ( 'NONE',  ( 0.000000000000000000, 1.000000000000000000, 0.000000000000000000 ) ) ;
#288 = VECTOR ( 'NONE', #959, 100.0000000000000000 ) ;
#289 = CARTESIAN_POINT ( 'NONE',  ( -1.030000000000004468, -1.029999999999998916, 0.7999999999999998224 ) ) ;
#290 = ORIENTED_EDGE ( 'NONE', *, *, #554, .T. ) ;
#291 = CARTESIAN_POINT ( 'NONE',  ( 16.54999999999999716, 15.55000000000000249, 0.000000000000000000 ) ) ;
#292 = FACE_BOUND ( 'NONE', #487, .T. ) ;
#293 = EDGE_CURVE ( 'NONE', #797, #715, #368, .T. ) ;
#294 = DIRECTION ( 'NONE',  ( -1.000000000000000000, 1.508455196501571429E-16, 0.000000000000000000 ) ) ;
#295 = VERTEX_POINT ( 'NONE', #40 ) ;
#296 = DIRECTION ( 'NONE',  ( 5.855058393063011923E-17, 0.7071067811865487940, -0.7071067811865462405 ) ) ;
#297 = DIRECTION ( 'NONE',  ( -0.000000000000000000, -0.000000000000000000, -1.000000000000000000 ) ) ;
#298 = ADVANCED_FACE ( 'NONE', ( #501 ), #971, .F. ) ;
#299 = LINE ( 'NONE', #377, #26 ) ;
#300 = ORIENTED_EDGE ( 'NONE', *, *, #486, .T. ) ;
#301 = LINE ( 'NONE', #146, #500 ) ;
#302 = CARTESIAN_POINT ( 'NONE',  ( 15.54999999999999716, -0.8499999999999994227, 0.4000000000000000222 ) ) ;
#303 = AXIS2_PLACEMENT_3D ( 'NONE', #361, #35, #57 ) ;
#304 = DIRECTION ( 'NONE',  ( 0.000000000000000000, 0.000000000000000000, -1.000000000000000000 ) ) ;
#305 = CIRCLE ( 'NONE', #979, 0.3100000000000003864 ) ;
#306 = VERTEX_POINT ( 'NONE', #747 ) ;
#307 = DIRECTION ( 'NONE',  ( -1.000000000000000000, 8.280302987956117279E-17, 0.000000000000000000 ) ) ;
#308 = EDGE_CURVE ( 'NONE', #753, #587, #728, .T. ) ;
#309 = DIRECTION ( 'NONE',  ( 0.000000000000000000, 1.000000000000000000, 0.000000000000000000 ) ) ;
#310 = DIRECTION ( 'NONE',  ( 0.000000000000000000, 0.000000000000000000, 1.000000000000000000 ) ) ;
#311 = ORIENTED_EDGE ( 'NONE', *, *, #158, .T. ) ;
#312 = CARTESIAN_POINT ( 'NONE',  ( 15.14999999999999680, 14.83999999999999986, 1.000000000000000000 ) ) ;
#313 = DIRECTION ( 'NONE',  ( 0.000000000000000000, 1.000000000000000000, 0.000000000000000000 ) ) ;
#314 = CARTESIAN_POINT ( 'NONE',  ( 16.54999999999999716, -0.8499999999999979794, 0.4000000000000000222 ) ) ;
#315 = VERTEX_POINT ( 'NONE', #743 ) ;
#316 = DIRECTION ( 'NONE',  ( -0.000000000000000000, -0.000000000000000000, 1.000000000000000000 ) ) ;
#317 = EDGE_CURVE ( 'NONE', #135, #753, #51, .T. ) ;
#318 = DIRECTION ( 'NONE',  ( 0.000000000000000000, 1.000000000000000000, 0.000000000000000000 ) ) ;
#319 = CIRCLE ( 'NONE', #830, 0.3099999999999991651 ) ;
#320 = CIRCLE ( 'NONE', #594, 1.000000000000000000 ) ;
#321 = VERTEX_POINT ( 'NONE', #824 ) ;
#322 =( NAMED_UNIT ( * ) PLANE_ANGLE_UNIT ( ) SI_UNIT ( $, .RADIAN. ) );
#323 = MECHANICAL_DESIGN_GEOMETRIC_PRESENTATION_REPRESENTATION (  '', ( #177 ), #533 ) ;
#324 = LINE ( 'NONE', #633, #740 ) ;
#325 = EDGE_CURVE ( 'NONE', #577, #275, #223, .T. ) ;
#326 = EDGE_LOOP ( 'NONE', ( #696, #575 ) ) ;
#327 = LINE ( 'NONE', #410, #723 ) ;
#328 = UNCERTAINTY_MEASURE_WITH_UNIT (LENGTH_MEASURE( 1.000000000000000082E-05 ), #583, 'distance_accuracy_value', 'NONE');
#329 = ORIENTED_EDGE ( 'NONE', *, *, #186, .T. ) ;
#330 = DIRECTION ( 'NONE',  ( -1.000000000000000000, 8.280302987956117279E-17, 0.000000000000000000 ) ) ;
#331 = VERTEX_POINT ( 'NONE', #267 ) ;
#332 = VECTOR ( 'NONE', #933, 100.0000000000000000 ) ;
#333 = AXIS2_PLACEMENT_3D ( 'NONE', #388, #617, #168 ) ;
#334 = ORIENTED_EDGE ( 'NONE', *, *, #802, .F. ) ;
#335 = DIRECTION ( 'NONE',  ( 0.000000000000000000, 0.000000000000000000, -1.000000000000000000 ) ) ;
#336 = EDGE_CURVE ( 'NONE', #790, #397, #532, .T. ) ;
#337 = AXIS2_PLACEMENT_3D ( 'NONE', #392, #163, #851 ) ;
#338 = CARTESIAN_POINT ( 'NONE',  ( 15.52999999999999936, 7.350000000000001421, 1.000000000000000000 ) ) ;
#339 = ORIENTED_EDGE ( 'NONE', *, *, #19, .T. ) ;
#340 = ORIENTED_EDGE ( 'NONE', *, *, #588, .F. ) ;
#341 = CARTESIAN_POINT ( 'NONE',  ( 15.14999999999999680, -0.4499999999999990119, 1.000000000000000000 ) ) ;
#342 = CARTESIAN_POINT ( 'NONE',  ( -0.4500000000000003997, 14.84000000000000341, 0.000000000000000000 ) ) ;
#343 = EDGE_LOOP ( 'NONE', ( #48, #145, #407, #811 ) ) ;
#344 = VERTEX_POINT ( 'NONE', #417 ) ;
#345 = DIRECTION ( 'NONE',  ( -1.000000000000000000, 1.508455196501571429E-16, 0.000000000000000000 ) ) ;
#346 = DIRECTION ( 'NONE',  ( 1.000000000000000000, -8.280302987956117279E-17, 0.000000000000000000 ) ) ;
#347 = EDGE_CURVE ( 'NONE', #647, #17, #976, .T. ) ;
#348 = ORIENTED_EDGE ( 'NONE', *, *, #505, .F. ) ;
#349 = ORIENTED_EDGE ( 'NONE', *, *, #347, .F. ) ;
#350 = CIRCLE ( 'NONE', #333, 1.000000000000000888 ) ;
#351 = AXIS2_PLACEMENT_3D ( 'NONE', #593, #904, #832 ) ;
#352 = CARTESIAN_POINT ( 'NONE',  ( 16.54999999999999716, -1.849999999999998757, 0.000000000000000000 ) ) ;
#353 = EDGE_CURVE ( 'NONE', #423, #104, #596, .T. ) ;
#354 = ORIENTED_EDGE ( 'NONE', *, *, #8, .F. ) ;
#355 = ORIENTED_EDGE ( 'NONE', *, *, #34, .T. ) ;
#356 = FACE_OUTER_BOUND ( 'NONE', #826, .T. ) ;
#357 = CARTESIAN_POINT ( 'NONE',  ( -0.8500000000000020872, -0.8499999999999979794, 0.000000000000000000 ) ) ;
#358 = CARTESIAN_POINT ( 'NONE',  ( -1.030000000000004468, 15.73000000000000576, 0.4000000000000000222 ) ) ;
#359 = ORIENTED_EDGE ( 'NONE', *, *, #477, .T. ) ;
#360 = DIRECTION ( 'NONE',  ( 0.000000000000000000, 1.000000000000000000, 0.000000000000000000 ) ) ;
#361 = CARTESIAN_POINT ( 'NONE',  ( 15.54999999999999716, 15.55000000000000249, 0.4000000000000000222 ) ) ;
#362 = CARTESIAN_POINT ( 'NONE',  ( 7.349999999999999645, 15.53000000000000291, 1.000000000000000000 ) ) ;
#363 = VERTEX_POINT ( 'NONE', #342 ) ;
#364 = DIRECTION ( 'NONE',  ( -0.000000000000000000, -0.000000000000000000, 1.000000000000000000 ) ) ;
#365 = EDGE_CURVE ( 'NONE', #37, #423, #649, .T. ) ;
#366 = CARTESIAN_POINT ( 'NONE',  ( 0.000000000000000000, 0.000000000000000000, 1.000000000000000000 ) ) ;
#367 = AXIS2_PLACEMENT_3D ( 'NONE', #192, #502, #838 ) ;
#368 = CIRCLE ( 'NONE', #46, 0.3099999999999991651 ) ;
#369 = CARTESIAN_POINT ( 'NONE',  ( 0.000000000000000000, 14.69999999999999929, 0.000000000000000000 ) ) ;
#370 = ORIENTED_EDGE ( 'NONE', *, *, #293, .T. ) ;
#371 = CARTESIAN_POINT ( 'NONE',  ( 15.14999999999999680, -0.1399999999999984590, 1.000000000000000000 ) ) ;
#372 = DIRECTION ( 'NONE',  ( 0.000000000000000000, 1.000000000000000000, 0.000000000000000000 ) ) ;
#373 = LINE ( 'NONE', #362, #689 ) ;
#374 = EDGE_LOOP ( 'NONE', ( #395, #860, #957, #264 ) ) ;
#375 = DIRECTION ( 'NONE',  ( 0.000000000000000000, -1.000000000000000000, 0.000000000000000000 ) ) ;
#376 = CARTESIAN_POINT ( 'NONE',  ( 15.73000000000000043, -1.030000000000000249, 0.4000000000000000222 ) ) ;
#377 = CARTESIAN_POINT ( 'NONE',  ( 16.54999999999999716, 16.55000000000000071, 0.4000000000000000222 ) ) ;
#378 = EDGE_CURVE ( 'NONE', #570, #587, #805, .T. ) ;
#379 = ORIENTED_EDGE ( 'NONE', *, *, #655, .F. ) ;
#380 = DIRECTION ( 'NONE',  ( 0.000000000000000000, 0.000000000000000000, 1.000000000000000000 ) ) ;
#381 = DIRECTION ( 'NONE',  ( 0.000000000000000000, 1.000000000000000000, 0.000000000000000000 ) ) ;
#382 = AXIS2_PLACEMENT_3D ( 'NONE', #987, #977, #911 ) ;
#383 = CARTESIAN_POINT ( 'NONE',  ( 16.54999999999999716, -0.8499999999999979794, 0.000000000000000000 ) ) ;
#384 = VECTOR ( 'NONE', #909, 100.0000000000000000 ) ;
#385 = EDGE_CURVE ( 'NONE', #363, #259, #79, .T. ) ;
#386 = EDGE_LOOP ( 'NONE', ( #667, #718, #23, #182 ) ) ;
#387 = CARTESIAN_POINT ( 'NONE',  ( -1.030000000000004468, -1.029999999999998916, 0.4000000000000000222 ) ) ;
#388 = CARTESIAN_POINT ( 'NONE',  ( 15.54999999999999716, 15.55000000000000249, 0.000000000000000000 ) ) ;
#389 = DIRECTION ( 'NONE',  ( 0.000000000000000000, 0.000000000000000000, -1.000000000000000000 ) ) ;
#390 = ORIENTED_EDGE ( 'NONE', *, *, #263, .T. ) ;
#391 = CYLINDRICAL_SURFACE ( 'NONE', #179, 0.3099999999999991651 ) ;
#392 = CARTESIAN_POINT ( 'NONE',  ( 15.73000000000000043, 15.73000000000000043, 0.7999999999999998224 ) ) ;
#393 = ADVANCED_FACE ( 'NONE', ( #204 ), #116, .F. ) ;
#394 = LINE ( 'NONE', #951, #709 ) ;
#395 = ORIENTED_EDGE ( 'NONE', *, *, #420, .F. ) ;
#396 = LINE ( 'NONE', #237, #742 ) ;
#397 = VERTEX_POINT ( 'NONE', #212 ) ;
#398 = CARTESIAN_POINT ( 'NONE',  ( -0.4500000000000017875, -0.1399999999999984590, 0.000000000000000000 ) ) ;
#399 = EDGE_CURVE ( 'NONE', #32, #275, #810, .T. ) ;
#400 = VECTOR ( 'NONE', #346, 100.0000000000000000 ) ;
#401 = ORIENTED_EDGE ( 'NONE', *, *, #105, .F. ) ;
#402 = CIRCLE ( 'NONE', #95, 0.3099999999999991651 ) ;
#403 = DIRECTION ( 'NONE',  ( 0.000000000000000000, 1.000000000000000000, 0.000000000000000000 ) ) ;
#404 = ORIENTED_EDGE ( 'NONE', *, *, #554, .F. ) ;
#405 = CARTESIAN_POINT ( 'NONE',  ( 15.14999999999999680, -0.4499999999999990119, 1.000000000000000000 ) ) ;
#406 = ADVANCED_FACE ( 'NONE', ( #506 ), #425, .F. ) ;
#407 = ORIENTED_EDGE ( 'NONE', *, *, #901, .F. ) ;
#408 = DIRECTION ( 'NONE',  ( 0.000000000000000000, 0.000000000000000000, -1.000000000000000000 ) ) ;
#409 = EDGE_LOOP ( 'NONE', ( #269, #154, #564, #725, #520, #908, #290, #476 ) ) ;
#410 = CARTESIAN_POINT ( 'NONE',  ( 15.14999999999999680, 15.46000000000000085, 1.000000000000000000 ) ) ;
#411 = LINE ( 'NONE', #383, #671 ) ;
#412 = VERTEX_POINT ( 'NONE', #966 ) ;
#413 = EDGE_CURVE ( 'NONE', #104, #646, #200, .T. ) ;
#414 = AXIS2_PLACEMENT_3D ( 'NONE', #820, #133, #890 ) ;
#415 = ORIENTED_EDGE ( 'NONE', *, *, #768, .F. ) ;
#416 = DIRECTION ( 'NONE',  ( 0.000000000000000000, 0.000000000000000000, -1.000000000000000000 ) ) ;
#417 = CARTESIAN_POINT ( 'NONE',  ( 16.54999999999999716, 15.55000000000000249, 0.000000000000000000 ) ) ;
#418 = ORIENTED_EDGE ( 'NONE', *, *, #650, .F. ) ;
#419 = ORIENTED_EDGE ( 'NONE', *, *, #91, .F. ) ;
#420 = EDGE_CURVE ( 'NONE', #187, #315, #692, .T. ) ;
#421 = DIRECTION ( 'NONE',  ( 0.000000000000000000, 0.000000000000000000, -1.000000000000000000 ) ) ;
#422 = ORIENTED_EDGE ( 'NONE', *, *, #41, .T. ) ;
#423 = VERTEX_POINT ( 'NONE', #229 ) ;
#424 = DIRECTION ( 'NONE',  ( 0.000000000000000000, 1.000000000000000000, 0.000000000000000000 ) ) ;
#425 = PLANE ( 'NONE',  #225 ) ;
#426 = PRODUCT_DEFINITION ( 'UNKNOWN', '', #39, #867 ) ;
#427 = VERTEX_POINT ( 'NONE', #772 ) ;
#428 = CIRCLE ( 'NONE', #561, 0.3099999999999991651 ) ;
#429 = ORIENTED_EDGE ( 'NONE', *, *, #708, .F. ) ;
#430 = LINE ( 'NONE', #884, #47 ) ;
#431 = AXIS2_PLACEMENT_3D ( 'NONE', #357, #526, #982 ) ;
#432 = AXIS2_PLACEMENT_3D ( 'NONE', #261, #12, #792 ) ;
#433 = DIRECTION ( 'NONE',  ( 0.000000000000000000, 1.000000000000000000, 0.000000000000000000 ) ) ;
#434 = VECTOR ( 'NONE', #98, 100.0000000000000000 ) ;
#435 = DIRECTION ( 'NONE',  ( 0.000000000000000000, 0.000000000000000000, -1.000000000000000000 ) ) ;
#436 = VERTEX_POINT ( 'NONE', #691 ) ;
#437 = DIRECTION ( 'NONE',  ( 0.000000000000000000, 1.000000000000000000, 0.000000000000000000 ) ) ;
#438 = DIRECTION ( 'NONE',  ( 0.000000000000000000, 1.000000000000000000, 0.000000000000000000 ) ) ;
#439 = PLANE ( 'NONE',  #707 ) ;
#440 = ADVANCED_FACE ( 'NONE', ( #531 ), #83, .F. ) ;
#441 = ORIENTED_EDGE ( 'NONE', *, *, #186, .F. ) ;
#442 = CARTESIAN_POINT ( 'NONE',  ( 4.556666666666655985, 4.556666666666640886, 6.386666666666659609 ) ) ;
#443 = FACE_BOUND ( 'NONE', #74, .T. ) ;
#444 = DIRECTION ( 'NONE',  ( 0.000000000000000000, 1.000000000000000000, 0.000000000000000000 ) ) ;
#445 = ORIENTED_EDGE ( 'NONE', *, *, #336, .F. ) ;
#446 = FACE_OUTER_BOUND ( 'NONE', #898, .T. ) ;
#447 = ADVANCED_FACE ( 'NONE', ( #680, #538, #910, #986, #463, #222 ), #836, .F. ) ;
#448 = CARTESIAN_POINT ( 'NONE',  ( 7.349999999999997868, 7.350000000000001421, 0.000000000000000000 ) ) ;
#449 = AXIS2_PLACEMENT_3D ( 'NONE', #746, #278, #572 ) ;
#450 = CARTESIAN_POINT ( 'NONE',  ( -0.8500000000000007550, 15.55000000000000249, 0.4000000000000000222 ) ) ;
#451 = EDGE_LOOP ( 'NONE', ( #188, #183, #947, #300 ) ) ;
#452 = CARTESIAN_POINT ( 'NONE',  ( 15.73000000000000043, 15.73000000000000043, 0.4000000000000000222 ) ) ;
#453 = DIRECTION ( 'NONE',  ( 0.000000000000000000, 0.000000000000000000, -1.000000000000000000 ) ) ;
#454 = EDGE_CURVE ( 'NONE', #739, #306, #320, .T. ) ;
#455 = DIRECTION ( 'NONE',  ( -0.000000000000000000, -0.000000000000000000, 1.000000000000000000 ) ) ;
#456 = ORIENTED_EDGE ( 'NONE', *, *, #413, .T. ) ;
#457 = DIRECTION ( 'NONE',  ( 0.000000000000000000, 0.000000000000000000, 1.000000000000000000 ) ) ;
#458 = DIRECTION ( 'NONE',  ( -0.000000000000000000, -0.000000000000000000, 1.000000000000000000 ) ) ;
#459 = ADVANCED_FACE ( 'NONE', ( #292, #148, #67, #443, #684, #542 ), #4, .T. ) ;
#460 = DIRECTION ( 'NONE',  ( 0.000000000000000000, -1.000000000000000000, 0.000000000000000000 ) ) ;
#461 = ORIENTED_EDGE ( 'NONE', *, *, #708, .T. ) ;
#462 = CARTESIAN_POINT ( 'NONE',  ( -1.850000000000001643, 16.55000000000000426, 0.4000000000000000222 ) ) ;
#463 = FACE_BOUND ( 'NONE', #701, .T. ) ;
#464 = VECTOR ( 'NONE', #589, 100.0000000000000000 ) ;
#465 = DIRECTION ( 'NONE',  ( 0.000000000000000000, 1.000000000000000000, -0.000000000000000000 ) ) ;
#466 = CIRCLE ( 'NONE', #274, 0.3100000000000003864 ) ;
#467 = ORIENTED_EDGE ( 'NONE', *, *, #628, .T. ) ;
#468 = FACE_OUTER_BOUND ( 'NONE', #231, .T. ) ;
#469 = CARTESIAN_POINT ( 'NONE',  ( -1.850000000000001643, -0.8499999999999979794, 0.000000000000000000 ) ) ;
#470 = CARTESIAN_POINT ( 'NONE',  ( 15.54999999999999716, 16.55000000000000071, 0.4000000000000000222 ) ) ;
#471 = ORIENTED_EDGE ( 'NONE', *, *, #317, .F. ) ;
#472 = CARTESIAN_POINT ( 'NONE',  ( -0.8500000000000007550, -1.849999999999996092, 0.000000000000000000 ) ) ;
#473 = ADVANCED_FACE ( 'NONE', ( #217 ), #762, .F. ) ;
#474 = DIRECTION ( 'NONE',  ( 0.000000000000000000, -1.000000000000000000, 0.000000000000000000 ) ) ;
#475 = DIRECTION ( 'NONE',  ( -0.000000000000000000, -0.000000000000000000, 1.000000000000000000 ) ) ;
#476 = ORIENTED_EDGE ( 'NONE', *, *, #871, .T. ) ;
#477 = EDGE_CURVE ( 'NONE', #17, #427, #611, .T. ) ;
#478 = CARTESIAN_POINT ( 'NONE',  ( 16.54999999999999716, 16.55000000000000071, 0.000000000000000000 ) ) ;
#479 = CIRCLE ( 'NONE', #850, 0.3100000000000003864 ) ;
#480 = VECTOR ( 'NONE', #330, 100.0000000000000000 ) ;
#481 = VECTOR ( 'NONE', #316, 100.0000000000000000 ) ;
#482 = ORIENTED_EDGE ( 'NONE', *, *, #34, .F. ) ;
#483 = SHAPE_DEFINITION_REPRESENTATION ( #590, #30 ) ;
#484 = AXIS2_PLACEMENT_3D ( 'NONE', #11, #791, #545 ) ;
#485 = CARTESIAN_POINT ( 'NONE',  ( 16.54999999999999716, 15.55000000000000249, 0.4000000000000000222 ) ) ;
#486 = EDGE_CURVE ( 'NONE', #412, #436, #238, .T. ) ;
#487 = EDGE_LOOP ( 'NONE', ( #980, #662, #359, #461 ) ) ;
#488 = CARTESIAN_POINT ( 'NONE',  ( -0.4500000000000003997, 15.15000000000000213, 1.000000000000000000 ) ) ;
#489 = LINE ( 'NONE', #92, #480 ) ;
#490 = ADVANCED_FACE ( 'NONE', ( #142 ), #758, .F. ) ;
#491 = ORIENTED_EDGE ( 'NONE', *, *, #308, .F. ) ;
#492 = ORIENTED_EDGE ( 'NONE', *, *, #737, .F. ) ;
#493 = DIRECTION ( 'NONE',  ( 0.000000000000000000, -1.000000000000000000, 0.000000000000000000 ) ) ;
#494 = DIRECTION ( 'NONE',  ( 1.000000000000000000, 1.888134395621014649E-16, 0.000000000000000000 ) ) ;
#495 = ORIENTED_EDGE ( 'NONE', *, *, #518, .F. ) ;
#496 = ADVANCED_FACE ( 'NONE', ( #622 ), #991, .F. ) ;
#497 = VECTOR ( 'NONE', #569, 100.0000000000000000 ) ;
#498 = VERTEX_POINT ( 'NONE', #366 ) ;
#499 = FACE_OUTER_BOUND ( 'NONE', #551, .T. ) ;
#500 = VECTOR ( 'NONE', #364, 100.0000000000000000 ) ;
#501 = FACE_OUTER_BOUND ( 'NONE', #55, .T. ) ;
#502 = DIRECTION ( 'NONE',  ( 0.000000000000000000, 0.000000000000000000, -1.000000000000000000 ) ) ;
#503 = ORIENTED_EDGE ( 'NONE', *, *, #603, .T. ) ;
#504 = CARTESIAN_POINT ( 'NONE',  ( -1.850000000000001643, -0.8499999999999979794, 0.4000000000000000222 ) ) ;
#505 = EDGE_CURVE ( 'NONE', #730, #166, #272, .T. ) ;
#506 = FACE_OUTER_BOUND ( 'NONE', #285, .T. ) ;
#507 = ORIENTED_EDGE ( 'NONE', *, *, #147, .F. ) ;
#508 = VERTEX_POINT ( 'NONE', #152 ) ;
#509 = DIRECTION ( 'NONE',  ( -1.000000000000000000, 1.508455196501571429E-16, 0.000000000000000000 ) ) ;
#510 = CARTESIAN_POINT ( 'NONE',  ( 15.73000000000000043, -1.030000000000000249, 0.7999999999999998224 ) ) ;
#511 = CARTESIAN_POINT ( 'NONE',  ( 16.54999999999999716, 16.55000000000000071, 0.000000000000000000 ) ) ;
#512 = VECTOR ( 'NONE', #53, 100.0000000000000142 ) ;
#513 = ORIENTED_EDGE ( 'NONE', *, *, #172, .F. ) ;
#514 = CARTESIAN_POINT ( 'NONE',  ( -0.4500000000000017875, -0.4499999999999990119, 1.000000000000000000 ) ) ;
#515 = CIRCLE ( 'NONE', #242, 0.3100000000000003864 ) ;
#516 = AXIS2_PLACEMENT_3D ( 'NONE', #697, #765, #981 ) ;
#517 = CARTESIAN_POINT ( 'NONE',  ( -0.4500000000000003997, 15.15000000000000213, 0.000000000000000000 ) ) ;
#518 = EDGE_CURVE ( 'NONE', #397, #277, #846, .T. ) ;
#519 = FACE_OUTER_BOUND ( 'NONE', #807, .T. ) ;
#520 = ORIENTED_EDGE ( 'NONE', *, *, #91, .T. ) ;
#521 = CARTESIAN_POINT ( 'NONE',  ( 14.69999999999999929, 2.775557561562891351E-15, 1.000000000000000000 ) ) ;
#522 = DIRECTION ( 'NONE',  ( 1.000000000000000000, -1.656060597591223949E-16, 0.000000000000000000 ) ) ;
#523 = CARTESIAN_POINT ( 'NONE',  ( 14.69999999999999929, 2.775557561562891351E-15, 0.000000000000000000 ) ) ;
#524 = EDGE_LOOP ( 'NONE', ( #354, #243, #658, #379 ) ) ;
#525 = CARTESIAN_POINT ( 'NONE',  ( 15.14999999999999680, 15.46000000000000085, 1.000000000000000000 ) ) ;
#526 = DIRECTION ( 'NONE',  ( 0.000000000000000000, 0.000000000000000000, -1.000000000000000000 ) ) ;
#527 = CARTESIAN_POINT ( 'NONE',  ( 15.14999999999999680, 15.15000000000000213, 1.000000000000000000 ) ) ;
#528 = ORIENTED_EDGE ( 'NONE', *, *, #399, .T. ) ;
#529 = CARTESIAN_POINT ( 'NONE',  ( 15.14999999999999680, -0.7599999999999995648, 0.000000000000000000 ) ) ;
#530 = EDGE_CURVE ( 'NONE', #822, #344, #350, .T. ) ;
#531 = FACE_OUTER_BOUND ( 'NONE', #265, .T. ) ;
#532 = CIRCLE ( 'NONE', #190, 0.3100000000000003864 ) ;
#533 =( GEOMETRIC_REPRESENTATION_CONTEXT ( 3 ) GLOBAL_UNCERTAINTY_ASSIGNED_CONTEXT ( ( #328 ) ) GLOBAL_UNIT_ASSIGNED_CONTEXT ( ( #583, #38, #808 ) ) REPRESENTATION_CONTEXT ( 'NONE', 'WORKASPACE' ) );
#534 = LINE ( 'NONE', #972, #512 ) ;
#535 = ORIENTED_EDGE ( 'NONE', *, *, #698, .F. ) ;
#536 = DIRECTION ( 'NONE',  ( 0.000000000000000000, 0.000000000000000000, -1.000000000000000000 ) ) ;
#537 = EDGE_CURVE ( 'NONE', #85, #887, #559, .T. ) ;
#538 = FACE_BOUND ( 'NONE', #118, .T. ) ;
#539 = CARTESIAN_POINT ( 'NONE',  ( 15.14999999999999680, -0.4499999999999990119, 0.000000000000000000 ) ) ;
#540 = EDGE_LOOP ( 'NONE', ( #535, #682, #97, #571 ) ) ;
#541 = DIRECTION ( 'NONE',  ( 0.000000000000000000, 1.000000000000000000, 0.000000000000000000 ) ) ;
#542 = FACE_OUTER_BOUND ( 'NONE', #409, .T. ) ;
#543 = CYLINDRICAL_SURFACE ( 'NONE', #787, 1.000000000000000222 ) ;
#544 = ORIENTED_EDGE ( 'NONE', *, *, #120, .T. ) ;
#545 = DIRECTION ( 'NONE',  ( 0.000000000000000000, 1.000000000000000000, 0.000000000000000000 ) ) ;
#546 = CARTESIAN_POINT ( 'NONE',  ( -1.850000000000001643, 15.55000000000000249, 0.000000000000000000 ) ) ;
#547 = VECTOR ( 'NONE', #475, 100.0000000000000000 ) ;
#548 = CARTESIAN_POINT ( 'NONE',  ( -0.4500000000000017875, -0.4499999999999990119, 1.000000000000000000 ) ) ;
#549 = EDGE_CURVE ( 'NONE', #646, #122, #489, .T. ) ;
#550 = CIRCLE ( 'NONE', #630, 0.3100000000000003864 ) ;
#551 = EDGE_LOOP ( 'NONE', ( #528, #672, #419, #919 ) ) ;
#552 = CARTESIAN_POINT ( 'NONE',  ( 15.14999999999999680, -0.1399999999999984590, 0.000000000000000000 ) ) ;
#553 = DIRECTION ( 'NONE',  ( -0.000000000000000000, -0.000000000000000000, -1.000000000000000000 ) ) ;
#554 = EDGE_CURVE ( 'NONE', #344, #984, #644, .T. ) ;
#555 = ORIENTED_EDGE ( 'NONE', *, *, #650, .T. ) ;
#556 = DIRECTION ( 'NONE',  ( 0.000000000000000000, 0.000000000000000000, -1.000000000000000000 ) ) ;
#557 = FACE_OUTER_BOUND ( 'NONE', #872, .T. ) ;
#558 = VERTEX_POINT ( 'NONE', #398 ) ;
#559 = LINE ( 'NONE', #251, #912 ) ;
#560 = ADVANCED_FACE ( 'NONE', ( #557, #782 ), #638, .F. ) ;
#561 = AXIS2_PLACEMENT_3D ( 'NONE', #149, #435, #134 ) ;
#562 = AXIS2_PLACEMENT_3D ( 'NONE', #606, #905, #233 ) ;
#563 = AXIS2_PLACEMENT_3D ( 'NONE', #203, #969, #424 ) ;
#564 = ORIENTED_EDGE ( 'NONE', *, *, #676, .T. ) ;
#565 = CARTESIAN_POINT ( 'NONE',  ( -0.4500000000000003997, 15.46000000000000085, 1.000000000000000000 ) ) ;
#566 = EDGE_LOOP ( 'NONE', ( #953, #227, #355, #270 ) ) ;
#567 = ORIENTED_EDGE ( 'NONE', *, *, #505, .T. ) ;
#568 = CARTESIAN_POINT ( 'NONE',  ( -1.850000000000001643, 16.55000000000000426, 0.000000000000000000 ) ) ;
#569 = DIRECTION ( 'NONE',  ( -0.000000000000000000, -1.000000000000000000, 0.000000000000000000 ) ) ;
#570 = VERTEX_POINT ( 'NONE', #703 ) ;
#571 = ORIENTED_EDGE ( 'NONE', *, *, #219, .F. ) ;
#572 = DIRECTION ( 'NONE',  ( 0.000000000000000000, 1.000000000000000000, 0.000000000000000000 ) ) ;
#573 = CARTESIAN_POINT ( 'NONE',  ( 15.73000000000000043, 15.73000000000000043, 0.7999999999999998224 ) ) ;
#574 = EDGE_CURVE ( 'NONE', #315, #739, #7, .T. ) ;
#575 = ORIENTED_EDGE ( 'NONE', *, *, #926, .F. ) ;
#576 = AXIS2_PLACEMENT_3D ( 'NONE', #376, #751, #997 ) ;
#577 = VERTEX_POINT ( 'NONE', #485 ) ;
#578 = CARTESIAN_POINT ( 'NONE',  ( 15.54999999999999716, -1.849999999999998757, 0.000000000000000000 ) ) ;
#579 = AXIS2_PLACEMENT_3D ( 'NONE', #985, #457, #375 ) ;
#580 = CARTESIAN_POINT ( 'NONE',  ( 16.54999999999999716, 16.55000000000000071, 0.4000000000000000222 ) ) ;
#581 = ORIENTED_EDGE ( 'NONE', *, *, #537, .T. ) ;
#582 = ORIENTED_EDGE ( 'NONE', *, *, #317, .T. ) ;
#583 =( LENGTH_UNIT ( ) NAMED_UNIT ( * ) SI_UNIT ( .CENTI., .METRE. ) );
#584 = CARTESIAN_POINT ( 'NONE',  ( -0.4500000000000017875, -0.7599999999999995648, 0.000000000000000000 ) ) ;
#585 = APPLICATION_CONTEXT ( 'automotive_design' ) ;
#586 = DIRECTION ( 'NONE',  ( 0.000000000000000000, 0.000000000000000000, -1.000000000000000000 ) ) ;
#587 = VERTEX_POINT ( 'NONE', #870 ) ;
#588 = EDGE_CURVE ( 'NONE', #625, #259, #324, .T. ) ;
#589 = DIRECTION ( 'NONE',  ( -0.000000000000000000, -0.000000000000000000, 1.000000000000000000 ) ) ;
#590 = PRODUCT_DEFINITION_SHAPE ( 'NONE', 'NONE',  #426 ) ;
#591 = CARTESIAN_POINT ( 'NONE',  ( 15.14999999999999680, -0.7599999999999995648, 1.000000000000000000 ) ) ;
#592 = EDGE_LOOP ( 'NONE', ( #492, #656, #215, #390 ) ) ;
#593 = CARTESIAN_POINT ( 'NONE',  ( 15.54999999999999716, -0.8499999999999994227, 0.000000000000000000 ) ) ;
#594 = AXIS2_PLACEMENT_3D ( 'NONE', #137, #925, #381 ) ;
#595 = CIRCLE ( 'NONE', #351, 1.000000000000000000 ) ;
#596 = LINE ( 'NONE', #894, #400 ) ;
#597 = EDGE_CURVE ( 'NONE', #508, #848, #916, .T. ) ;
#598 = DIRECTION ( 'NONE',  ( 0.000000000000000000, 1.000000000000000000, 0.000000000000000000 ) ) ;
#599 = ORIENTED_EDGE ( 'NONE', *, *, #809, .T. ) ;
#600 = FACE_OUTER_BOUND ( 'NONE', #566, .T. ) ;
#601 = DIRECTION ( 'NONE',  ( 0.000000000000000000, 0.000000000000000000, -1.000000000000000000 ) ) ;
#602 = FACE_OUTER_BOUND ( 'NONE', #973, .T. ) ;
#603 = EDGE_CURVE ( 'NONE', #558, #277, #305, .T. ) ;
#604 = ORIENTED_EDGE ( 'NONE', *, *, #147, .T. ) ;
#605 = CARTESIAN_POINT ( 'NONE',  ( 15.54999999999999716, 16.55000000000000071, 0.000000000000000000 ) ) ;
#606 = CARTESIAN_POINT ( 'NONE',  ( 14.69999999999999929, 2.775557561562891351E-15, 0.000000000000000000 ) ) ;
#607 = DIRECTION ( 'NONE',  ( 0.000000000000000000, 1.000000000000000000, -0.000000000000000000 ) ) ;
#608 = ORIENTED_EDGE ( 'NONE', *, *, #268, .T. ) ;
#609 = DIRECTION ( 'NONE',  ( -1.171011678612600412E-16, -0.7071067811865475727, -0.7071067811865475727 ) ) ;
#610 = VECTOR ( 'NONE', #607, 100.0000000000000000 ) ;
#611 = LINE ( 'NONE', #828, #13 ) ;
#612 = VECTOR ( 'NONE', #273, 100.0000000000000000 ) ;
#613 = CIRCLE ( 'NONE', #82, 0.3100000000000003864 ) ;
#614 = CARTESIAN_POINT ( 'NONE',  ( 0.000000000000000000, 0.000000000000000000, 0.000000000000000000 ) ) ;
#615 = ORIENTED_EDGE ( 'NONE', *, *, #87, .T. ) ;
#616 = LINE ( 'NONE', #371, #144 ) ;
#617 = DIRECTION ( 'NONE',  ( 0.000000000000000000, 0.000000000000000000, -1.000000000000000000 ) ) ;
#618 = DIRECTION ( 'NONE',  ( 1.000000000000000000, 0.000000000000000000, 0.000000000000000000 ) ) ;
#619 = VERTEX_POINT ( 'NONE', #552 ) ;
#620 = DIRECTION ( 'NONE',  ( 0.000000000000000000, 1.000000000000000000, 0.000000000000000000 ) ) ;
#621 = AXIS2_PLACEMENT_3D ( 'NONE', #632, #936, #250 ) ;
#622 = FACE_OUTER_BOUND ( 'NONE', #343, .T. ) ;
#623 = ADVANCED_FACE ( 'NONE', ( #99 ), #257, .F. ) ;
#624 = CARTESIAN_POINT ( 'NONE',  ( 15.73000000000000043, 15.73000000000000043, 0.7999999999999998224 ) ) ;
#625 = VERTEX_POINT ( 'NONE', #565 ) ;
#626 = LINE ( 'NONE', #256, #434 ) ;
#627 = LINE ( 'NONE', #794, #481 ) ;
#628 = EDGE_CURVE ( 'NONE', #797, #848, #327, .T. ) ;
#629 = CARTESIAN_POINT ( 'NONE',  ( 0.000000000000000000, 0.000000000000000000, 0.000000000000000000 ) ) ;
#630 = AXIS2_PLACEMENT_3D ( 'NONE', #688, #232, #541 ) ;
#631 = EDGE_LOOP ( 'NONE', ( #418, #952, #687, #615 ) ) ;
#632 = CARTESIAN_POINT ( 'NONE',  ( 0.07349999999999998201, 0.07350000000000000977, 0.01000000000000000021 ) ) ;
#633 = CARTESIAN_POINT ( 'NONE',  ( -0.4500000000000003997, 15.46000000000000085, 1.000000000000000000 ) ) ;
#634 = EDGE_CURVE ( 'NONE', #647, #498, #627, .T. ) ;
#635 = ORIENTED_EDGE ( 'NONE', *, *, #128, .F. ) ;
#636 = CARTESIAN_POINT ( 'NONE',  ( -0.8500000000000007550, 16.55000000000000426, 0.000000000000000000 ) ) ;
#637 = ORIENTED_EDGE ( 'NONE', *, *, #783, .F. ) ;
#638 = PLANE ( 'NONE',  #159 ) ;
#639 = VECTOR ( 'NONE', #77, 100.0000000000000000 ) ;
#640 = AXIS2_PLACEMENT_3D ( 'NONE', #517, #879, #654 ) ;
#641 = AXIS2_PLACEMENT_3D ( 'NONE', #189, #874, #493 ) ;
#642 = ORIENTED_EDGE ( 'NONE', *, *, #19, .F. ) ;
#643 = ORIENTED_EDGE ( 'NONE', *, *, #378, .F. ) ;
#644 = LINE ( 'NONE', #478, #896 ) ;
#645 = CARTESIAN_POINT ( 'NONE',  ( 15.73000000000000043, -1.030000000000000249, 0.4000000000000000222 ) ) ;
#646 = VERTEX_POINT ( 'NONE', #22 ) ;
#647 = VERTEX_POINT ( 'NONE', #88 ) ;
#648 = DIRECTION ( 'NONE',  ( 0.000000000000000000, 0.000000000000000000, -1.000000000000000000 ) ) ;
#649 = LINE ( 'NONE', #191, #865 ) ;
#650 = EDGE_CURVE ( 'NONE', #331, #363, #181, .T. ) ;
#651 = ORIENTED_EDGE ( 'NONE', *, *, #413, .F. ) ;
#652 = ORIENTED_EDGE ( 'NONE', *, *, #768, .T. ) ;
#653 = DIRECTION ( 'NONE',  ( 0.000000000000000000, 1.000000000000000000, -0.000000000000000000 ) ) ;
#654 = DIRECTION ( 'NONE',  ( 0.000000000000000000, 1.000000000000000000, 0.000000000000000000 ) ) ;
#655 = EDGE_CURVE ( 'NONE', #249, #32, #25, .T. ) ;
#656 = ORIENTED_EDGE ( 'NONE', *, *, #833, .F. ) ;
#657 = AXIS2_PLACEMENT_3D ( 'NONE', #84, #310, #460 ) ;
#658 = ORIENTED_EDGE ( 'NONE', *, *, #96, .F. ) ;
#659 = FACE_OUTER_BOUND ( 'NONE', #540, .T. ) ;
#660 = VECTOR ( 'NONE', #408, 100.0000000000000000 ) ;
#661 = DIRECTION ( 'NONE',  ( 1.000000000000000000, -1.508455196501571429E-16, 0.000000000000000000 ) ) ;
#662 = ORIENTED_EDGE ( 'NONE', *, *, #347, .T. ) ;
#663 = ADVANCED_FACE ( 'NONE', ( #786 ), #171, .F. ) ;
#664 = DIRECTION ( 'NONE',  ( 0.000000000000000000, 0.000000000000000000, -1.000000000000000000 ) ) ;
#665 = CARTESIAN_POINT ( 'NONE',  ( 15.73000000000000043, 15.73000000000000043, 0.4000000000000000222 ) ) ;
#666 = MANIFOLD_SOLID_BREP ( 'Fillet1', #738 ) ;
#667 = ORIENTED_EDGE ( 'NONE', *, *, #901, .T. ) ;
#668 = DIRECTION ( 'NONE',  ( -1.000000000000000000, -1.888134395621014649E-16, 0.000000000000000000 ) ) ;
#669 = CARTESIAN_POINT ( 'NONE',  ( 15.14999999999999680, 15.15000000000000213, 1.000000000000000000 ) ) ;
#670 = CARTESIAN_POINT ( 'NONE',  ( -0.8300000000000042899, 15.53000000000000469, 1.000000000000000000 ) ) ;
#671 = VECTOR ( 'NONE', #553, 100.0000000000000000 ) ;
#672 = ORIENTED_EDGE ( 'NONE', *, *, #962, .T. ) ;
#673 = FACE_OUTER_BOUND ( 'NONE', #42, .T. ) ;
#674 = AXIS2_PLACEMENT_3D ( 'NONE', #164, #779, #318 ) ;
#675 = DIRECTION ( 'NONE',  ( 0.000000000000000000, 1.000000000000000000, 0.000000000000000000 ) ) ;
#676 = EDGE_CURVE ( 'NONE', #315, #436, #778, .T. ) ;
#677 = PLANE ( 'NONE',  #108 ) ;
#678 = EDGE_LOOP ( 'NONE', ( #210, #741 ) ) ;
#679 = DIRECTION ( 'NONE',  ( 0.000000000000000000, 1.000000000000000000, 0.000000000000000000 ) ) ;
#680 = FACE_OUTER_BOUND ( 'NONE', #59, .T. ) ;
#681 = CYLINDRICAL_SURFACE ( 'NONE', #382, 1.000000000000000888 ) ;
#682 = ORIENTED_EDGE ( 'NONE', *, *, #518, .T. ) ;
#683 = CARTESIAN_POINT ( 'NONE',  ( 0.000000000000000000, 0.000000000000000000, 1.000000000000000000 ) ) ;
#684 = FACE_BOUND ( 'NONE', #326, .T. ) ;
#685 = DIRECTION ( 'NONE',  ( 0.000000000000000000, 1.000000000000000000, -0.000000000000000000 ) ) ;
#686 = ADVANCED_FACE ( 'NONE', ( #659 ), #184, .F. ) ;
#687 = ORIENTED_EDGE ( 'NONE', *, *, #588, .T. ) ;
#688 = CARTESIAN_POINT ( 'NONE',  ( -0.4500000000000017875, -0.4499999999999990119, 0.000000000000000000 ) ) ;
#689 = VECTOR ( 'NONE', #907, 100.0000000000000000 ) ;
#690 = APPLICATION_CONTEXT ( 'automotive_design' ) ;
#691 = CARTESIAN_POINT ( 'NONE',  ( -1.850000000000001643, 15.55000000000000249, 0.000000000000000000 ) ) ;
#692 = CIRCLE ( 'NONE', #431, 1.000000000000000000 ) ;
#693 = AXIS2_PLACEMENT_3D ( 'NONE', #286, #840, #679 ) ;
#694 = VECTOR ( 'NONE', #3, 100.0000000000000000 ) ;
#695 = LINE ( 'NONE', #614, #497 ) ;
#696 = ORIENTED_EDGE ( 'NONE', *, *, #603, .F. ) ;
#697 = CARTESIAN_POINT ( 'NONE',  ( 15.14999999999999680, -0.4499999999999990119, 1.000000000000000000 ) ) ;
#698 = EDGE_CURVE ( 'NONE', #397, #790, #466, .T. ) ;
#699 = CARTESIAN_POINT ( 'NONE',  ( 7.349999999999997868, 7.350000000000001421, 1.000000000000000000 ) ) ;
#700 = DIRECTION ( 'NONE',  ( 0.000000000000000000, 1.000000000000000000, 0.000000000000000000 ) ) ;
#701 = EDGE_LOOP ( 'NONE', ( #903, #785 ) ) ;
#702 = ADVANCED_FACE ( 'NONE', ( #965 ), #819, .F. ) ;
#703 = CARTESIAN_POINT ( 'NONE',  ( -1.030000000000004468, 15.73000000000000576, 0.7999999999999998224 ) ) ;
#704 = DIRECTION ( 'NONE',  ( -0.5773502691896258421, -0.5773502691896257311, 0.5773502691896258421 ) ) ;
#705 = ORIENTED_EDGE ( 'NONE', *, *, #628, .F. ) ;
#706 = CARTESIAN_POINT ( 'NONE',  ( 7.349999999999997868, 7.350000000000001421, 0.4000000000000000222 ) ) ;
#707 = AXIS2_PLACEMENT_3D ( 'NONE', #665, #213, #143 ) ;
#708 = EDGE_CURVE ( 'NONE', #427, #31, #124, .T. ) ;
#709 = VECTOR ( 'NONE', #262, 100.0000000000000000 ) ;
#710 = AXIS2_PLACEMENT_3D ( 'NONE', #71, #609, #914 ) ;
#711 = ORIENTED_EDGE ( 'NONE', *, *, #172, .T. ) ;
#712 = FILL_AREA_STYLE ('',( #939 ) ) ;
#713 = UNCERTAINTY_MEASURE_WITH_UNIT (LENGTH_MEASURE( 1.000000000000000082E-05 ), #174, 'distance_accuracy_value', 'NONE');
#714 = ADVANCED_FACE ( 'NONE', ( #974 ), #119, .F. ) ;
#715 = VERTEX_POINT ( 'NONE', #888 ) ;
#716 = FACE_OUTER_BOUND ( 'NONE', #631, .T. ) ;
#717 = DIRECTION ( 'NONE',  ( 0.000000000000000000, 0.000000000000000000, -1.000000000000000000 ) ) ;
#718 = ORIENTED_EDGE ( 'NONE', *, *, #54, .T. ) ;
#719 = ORIENTED_EDGE ( 'NONE', *, *, #809, .F. ) ;
#720 = DIRECTION ( 'NONE',  ( 0.000000000000000000, 0.000000000000000000, -1.000000000000000000 ) ) ;
#721 = LINE ( 'NONE', #645, #852 ) ;
#722 = VECTOR ( 'NONE', #297, 100.0000000000000000 ) ;
#723 = VECTOR ( 'NONE', #862, 100.0000000000000000 ) ;
#724 = ORIENTED_EDGE ( 'NONE', *, *, #970, .T. ) ;
#725 = ORIENTED_EDGE ( 'NONE', *, *, #8, .T. ) ;
#726 = CARTESIAN_POINT ( 'NONE',  ( 15.14999999999999680, -0.7599999999999995648, 1.000000000000000000 ) ) ;
#727 = ADVANCED_FACE ( 'NONE', ( #499 ), #798, .F. ) ;
#728 = LINE ( 'NONE', #279, #464 ) ;
#729 = EDGE_LOOP ( 'NONE', ( #180, #818, #467, #796 ) ) ;
#730 = VERTEX_POINT ( 'NONE', #50 ) ;
#731 = PLANE ( 'NONE',  #129 ) ;
#732 = EDGE_CURVE ( 'NONE', #80, #187, #430, .T. ) ;
#733 = DIRECTION ( 'NONE',  ( 1.000000000000000000, 1.888134395621014649E-16, 0.000000000000000000 ) ) ;
#734 = ORIENTED_EDGE ( 'NONE', *, *, #268, .F. ) ;
#735 = EDGE_LOOP ( 'NONE', ( #101, #769, #348, #637 ) ) ;
#736 = DIRECTION ( 'NONE',  ( 1.508455196501571429E-16, 1.000000000000000000, 0.000000000000000000 ) ) ;
#737 = EDGE_CURVE ( 'NONE', #20, #877, #282, .T. ) ;
#738 = CLOSED_SHELL ( 'NONE', ( #473, #298, #795, #686, #141, #15, #775, #496, #447, #560, #714, #727, #68, #406, #459, #276, #623, #702, #975, #206, #988, #440, #393, #490, #934, #855, #663, #253, #199, #837, #115 ) ) ;
#739 = VERTEX_POINT ( 'NONE', #504 ) ;
#740 = VECTOR ( 'NONE', #942, 100.0000000000000000 ) ;
#741 = ORIENTED_EDGE ( 'NONE', *, *, #385, .F. ) ;
#742 = VECTOR ( 'NONE', #777, 100.0000000000000000 ) ;
#743 = CARTESIAN_POINT ( 'NONE',  ( -1.850000000000001643, -0.8499999999999979794, 0.000000000000000000 ) ) ;
#744 = CARTESIAN_POINT ( 'NONE',  ( 16.54999999999999716, -1.849999999999998757, 0.4000000000000000222 ) ) ;
#745 = ORIENTED_EDGE ( 'NONE', *, *, #882, .T. ) ;
#746 = CARTESIAN_POINT ( 'NONE',  ( 15.14999999999999680, 15.15000000000000213, 1.000000000000000000 ) ) ;
#747 = CARTESIAN_POINT ( 'NONE',  ( -0.8500000000000007550, -1.849999999999996092, 0.4000000000000000222 ) ) ;
#748 = LINE ( 'NONE', #744, #45 ) ;
#749 = ORIENTED_EDGE ( 'NONE', *, *, #378, .T. ) ;
#750 = FACE_OUTER_BOUND ( 'NONE', #806, .T. ) ;
#751 = DIRECTION ( 'NONE',  ( 8.280302987956117279E-17, 1.000000000000000000, 0.000000000000000000 ) ) ;
#752 = CARTESIAN_POINT ( 'NONE',  ( -1.030000000000004468, 15.73000000000000576, 0.7999999999999998224 ) ) ;
#753 = VERTEX_POINT ( 'NONE', #33 ) ;
#754 = DIRECTION ( 'NONE',  ( 0.000000000000000000, -1.000000000000000000, 0.000000000000000000 ) ) ;
#755 = AXIS2_PLACEMENT_3D ( 'NONE', #699, #921, #675 ) ;
#756 = EDGE_CURVE ( 'NONE', #20, #321, #613, .T. ) ;
#757 = VECTOR ( 'NONE', #720, 100.0000000000000000 ) ;
#758 = PLANE ( 'NONE',  #27 ) ;
#759 = LINE ( 'NONE', #752, #610 ) ;
#760 = ORIENTED_EDGE ( 'NONE', *, *, #128, .T. ) ;
#761 = DIRECTION ( 'NONE',  ( 0.000000000000000000, 1.000000000000000000, 0.000000000000000000 ) ) ;
#762 = CYLINDRICAL_SURFACE ( 'NONE', #994, 0.3099999999999991651 ) ;
#763 = CARTESIAN_POINT ( 'NONE',  ( -0.8500000000000007550, 16.55000000000000426, 0.4000000000000000222 ) ) ;
#764 = ORIENTED_EDGE ( 'NONE', *, *, #158, .F. ) ;
#765 = DIRECTION ( 'NONE',  ( 0.000000000000000000, 0.000000000000000000, -1.000000000000000000 ) ) ;
#766 = CARTESIAN_POINT ( 'NONE',  ( -0.4500000000000017875, -0.7599999999999995648, 1.000000000000000000 ) ) ;
#767 = DIRECTION ( 'NONE',  ( -1.000000000000000000, 0.000000000000000000, 0.000000000000000000 ) ) ;
#768 = EDGE_CURVE ( 'NONE', #587, #646, #813, .T. ) ;
#769 = ORIENTED_EDGE ( 'NONE', *, *, #165, .F. ) ;
#770 = LINE ( 'NONE', #996, #817 ) ;
#771 = VECTOR ( 'NONE', #58, 100.0000000000000000 ) ;
#772 = CARTESIAN_POINT ( 'NONE',  ( 14.69999999999999929, 14.70000000000000284, 0.000000000000000000 ) ) ;
#773 = VECTOR ( 'NONE', #125, 100.0000000000000142 ) ;
#774 = DIRECTION ( 'NONE',  ( 0.000000000000000000, -1.000000000000000000, 0.000000000000000000 ) ) ;
#775 = ADVANCED_FACE ( 'NONE', ( #356 ), #731, .F. ) ;
#776 = ORIENTED_EDGE ( 'NONE', *, *, #16, .T. ) ;
#777 = DIRECTION ( 'NONE',  ( -0.000000000000000000, -0.000000000000000000, -1.000000000000000000 ) ) ;
#778 = LINE ( 'NONE', #568, #789 ) ;
#779 = DIRECTION ( 'NONE',  ( 0.000000000000000000, 0.000000000000000000, -1.000000000000000000 ) ) ;
#780 = ORIENTED_EDGE ( 'NONE', *, *, #263, .F. ) ;
#781 = PLANE ( 'NONE',  #868 ) ;
#782 = FACE_BOUND ( 'NONE', #170, .T. ) ;
#783 = EDGE_CURVE ( 'NONE', #80, #730, #271, .T. ) ;
#784 = PLANE ( 'NONE',  #109 ) ;
#785 = ORIENTED_EDGE ( 'NONE', *, *, #756, .T. ) ;
#786 = FACE_OUTER_BOUND ( 'NONE', #928, .T. ) ;
#787 = AXIS2_PLACEMENT_3D ( 'NONE', #847, #918, #774 ) ;
#788 = VECTOR ( 'NONE', #76, 100.0000000000000000 ) ;
#789 = VECTOR ( 'NONE', #360, 100.0000000000000000 ) ;
#790 = VERTEX_POINT ( 'NONE', #66 ) ;
#791 = DIRECTION ( 'NONE',  ( 0.000000000000000000, 0.000000000000000000, -1.000000000000000000 ) ) ;
#792 = DIRECTION ( 'NONE',  ( 0.000000000000000000, 1.000000000000000000, 0.000000000000000000 ) ) ;
#793 = ORIENTED_EDGE ( 'NONE', *, *, #385, .T. ) ;
#794 = CARTESIAN_POINT ( 'NONE',  ( 0.000000000000000000, 0.000000000000000000, 0.000000000000000000 ) ) ;
#795 = ADVANCED_FACE ( 'NONE', ( #600 ), #221, .F. ) ;
#796 = ORIENTED_EDGE ( 'NONE', *, *, #943, .T. ) ;
#797 = VERTEX_POINT ( 'NONE', #525 ) ;
#798 = PLANE ( 'NONE',  #258 ) ;
#799 = LINE ( 'NONE', #1, #332 ) ;
#800 = VECTOR ( 'NONE', #704, 100.0000000000000000 ) ;
#801 = ORIENTED_EDGE ( 'NONE', *, *, #906, .T. ) ;
#802 = EDGE_CURVE ( 'NONE', #344, #577, #920, .T. ) ;
#803 = ORIENTED_EDGE ( 'NONE', *, *, #248, .F. ) ;
#804 = DIRECTION ( 'NONE',  ( -1.000000000000000000, 0.000000000000000000, 0.000000000000000000 ) ) ;
#805 = LINE ( 'NONE', #573, #612 ) ;
#806 = EDGE_LOOP ( 'NONE', ( #745, #812, #651, #150 ) ) ;
#807 = EDGE_LOOP ( 'NONE', ( #886, #749, #491, #471 ) ) ;
#808 =( NAMED_UNIT ( * ) SI_UNIT ( $, .STERADIAN. ) SOLID_ANGLE_UNIT ( ) );
#809 = EDGE_CURVE ( 'NONE', #10, #295, #770, .T. ) ;
#810 = LINE ( 'NONE', #580, #207 ) ;
#811 = ORIENTED_EDGE ( 'NONE', *, *, #537, .F. ) ;
#812 = ORIENTED_EDGE ( 'NONE', *, *, #549, .F. ) ;
#813 = LINE ( 'NONE', #266, #288 ) ;
#814 = CARTESIAN_POINT ( 'NONE',  ( 15.73000000000000043, 15.73000000000000043, 0.4000000000000000222 ) ) ;
#815 = VECTOR ( 'NONE', #825, 100.0000000000000000 ) ;
#816 = PLANE ( 'NONE',  #944 ) ;
#817 = VECTOR ( 'NONE', #216, 100.0000000000000000 ) ;
#818 = ORIENTED_EDGE ( 'NONE', *, *, #293, .F. ) ;
#819 = CYLINDRICAL_SURFACE ( 'NONE', #449, 0.3099999999999991651 ) ;
#820 = CARTESIAN_POINT ( 'NONE',  ( 14.69999999999999929, 2.775557561562891351E-15, 0.000000000000000000 ) ) ;
#821 = CARTESIAN_POINT ( 'NONE',  ( 15.14999999999999680, -0.4499999999999990119, 0.000000000000000000 ) ) ;
#822 = VERTEX_POINT ( 'NONE', #605 ) ;
#823 = LINE ( 'NONE', #462, #853 ) ;
#824 = CARTESIAN_POINT ( 'NONE',  ( 15.14999999999999680, -0.1399999999999984590, 1.000000000000000000 ) ) ;
#825 = DIRECTION ( 'NONE',  ( -0.000000000000000000, -0.000000000000000000, 1.000000000000000000 ) ) ;
#826 = EDGE_LOOP ( 'NONE', ( #160, #652, #881, #220 ) ) ;
#827 = CYLINDRICAL_SURFACE ( 'NONE', #579, 1.000000000000000888 ) ;
#828 = CARTESIAN_POINT ( 'NONE',  ( 14.69999999999999929, 2.775557561562891351E-15, 0.000000000000000000 ) ) ;
#829 = CARTESIAN_POINT ( 'NONE',  ( 14.69999999999999929, 14.70000000000000284, 1.000000000000000000 ) ) ;
#830 = AXIS2_PLACEMENT_3D ( 'NONE', #527, #224, #598 ) ;
#831 = ORIENTED_EDGE ( 'NONE', *, *, #962, .F. ) ;
#832 = DIRECTION ( 'NONE',  ( 0.000000000000000000, 1.000000000000000000, 0.000000000000000000 ) ) ;
#833 = EDGE_CURVE ( 'NONE', #321, #20, #835, .T. ) ;
#834 = VECTOR ( 'NONE', #733, 100.0000000000000000 ) ;
#835 = CIRCLE ( 'NONE', #516, 0.3100000000000003864 ) ;
#836 = PLANE ( 'NONE',  #755 ) ;
#837 = ADVANCED_FACE ( 'NONE', ( #446 ), #827, .T. ) ;
#838 = DIRECTION ( 'NONE',  ( 0.000000000000000000, 1.000000000000000000, 0.000000000000000000 ) ) ;
#839 = ORIENTED_EDGE ( 'NONE', *, *, #105, .T. ) ;
#840 = DIRECTION ( 'NONE',  ( 0.000000000000000000, 0.000000000000000000, -1.000000000000000000 ) ) ;
#841 = DIRECTION ( 'NONE',  ( 0.7071067811865475727, 0.000000000000000000, -0.7071067811865475727 ) ) ;
#842 = EDGE_CURVE ( 'NONE', #295, #498, #151, .T. ) ;
#843 = LINE ( 'NONE', #854, #205 ) ;
#844 = ORIENTED_EDGE ( 'NONE', *, *, #802, .T. ) ;
#845 = PLANE ( 'NONE',  #710 ) ;
#846 = LINE ( 'NONE', #766, #788 ) ;
#847 = CARTESIAN_POINT ( 'NONE',  ( -0.8500000000000020872, -0.8499999999999979794, 0.000000000000000000 ) ) ;
#848 = VERTEX_POINT ( 'NONE', #136 ) ;
#849 = LINE ( 'NONE', #472, #694 ) ;
#850 = AXIS2_PLACEMENT_3D ( 'NONE', #821, #586, #444 ) ;
#851 = DIRECTION ( 'NONE',  ( 0.000000000000000000, -1.000000000000000000, 0.000000000000000000 ) ) ;
#852 = VECTOR ( 'NONE', #235, 100.0000000000000000 ) ;
#853 = VECTOR ( 'NONE', #761, 100.0000000000000000 ) ;
#854 = CARTESIAN_POINT ( 'NONE',  ( 14.69999999999999929, 2.775557561562891351E-15, 1.000000000000000000 ) ) ;
#855 = ADVANCED_FACE ( 'NONE', ( #750 ), #990, .F. ) ;
#856 = ORIENTED_EDGE ( 'NONE', *, *, #943, .F. ) ;
#857 = LINE ( 'NONE', #312, #660 ) ;
#858 = SURFACE_STYLE_USAGE ( .BOTH. , #930 ) ;
#859 = LINE ( 'NONE', #247, #547 ) ;
#860 = ORIENTED_EDGE ( 'NONE', *, *, #970, .F. ) ;
#861 = PRODUCT_CONTEXT ( 'NONE', #690, 'mechanical' ) ;
#862 = DIRECTION ( 'NONE',  ( 0.000000000000000000, 0.000000000000000000, -1.000000000000000000 ) ) ;
#863 = ORIENTED_EDGE ( 'NONE', *, *, #219, .T. ) ;
#864 = DIRECTION ( 'NONE',  ( -1.000000000000000000, 8.280302987956119744E-17, 0.000000000000000000 ) ) ;
#865 = VECTOR ( 'NONE', #955, 100.0000000000000000 ) ;
#866 = VECTOR ( 'NONE', #380, 100.0000000000000000 ) ;
#867 = PRODUCT_DEFINITION_CONTEXT ( 'detailed design', #585, 'design' ) ;
#868 = AXIS2_PLACEMENT_3D ( 'NONE', #924, #86, #21 ) ;
#869 = ORIENTED_EDGE ( 'NONE', *, *, #634, .T. ) ;
#870 = CARTESIAN_POINT ( 'NONE',  ( 15.73000000000000043, 15.73000000000000043, 0.7999999999999998224 ) ) ;
#871 = EDGE_CURVE ( 'NONE', #984, #80, #595, .T. ) ;
#872 = EDGE_LOOP ( 'NONE', ( #90, #964, #2, #567, #642, #255, #873, #892 ) ) ;
#873 = ORIENTED_EDGE ( 'NONE', *, *, #399, .F. ) ;
#874 = DIRECTION ( 'NONE',  ( 1.000000000000000000, 0.000000000000000000, 0.000000000000000000 ) ) ;
#875 = CARTESIAN_POINT ( 'NONE',  ( -0.4500000000000003997, 15.46000000000000085, 0.000000000000000000 ) ) ;
#876 = ORIENTED_EDGE ( 'NONE', *, *, #239, .T. ) ;
#877 = VERTEX_POINT ( 'NONE', #529 ) ;
#878 = CARTESIAN_POINT ( 'NONE',  ( 15.73000000000000043, 15.73000000000000043, 0.4000000000000000222 ) ) ;
#879 = DIRECTION ( 'NONE',  ( 0.000000000000000000, 0.000000000000000000, -1.000000000000000000 ) ) ;
#880 = AXIS2_PLACEMENT_3D ( 'NONE', #448, #453, #313 ) ;
#881 = ORIENTED_EDGE ( 'NONE', *, *, #234, .F. ) ;
#882 = EDGE_CURVE ( 'NONE', #423, #122, #81, .T. ) ;
#883 = ORIENTED_EDGE ( 'NONE', *, *, #214, .T. ) ;
#884 = CARTESIAN_POINT ( 'NONE',  ( 16.54999999999999716, -1.849999999999998757, 0.000000000000000000 ) ) ;
#885 = DIRECTION ( 'NONE',  ( 1.000000000000000000, -1.508455196501571429E-16, 0.000000000000000000 ) ) ;
#886 = ORIENTED_EDGE ( 'NONE', *, *, #193, .T. ) ;
#887 = VERTEX_POINT ( 'NONE', #387 ) ;
#888 = CARTESIAN_POINT ( 'NONE',  ( 15.14999999999999680, 14.83999999999999986, 1.000000000000000000 ) ) ;
#889 = EDGE_CURVE ( 'NONE', #321, #619, #616, .T. ) ;
#890 = DIRECTION ( 'NONE',  ( -1.000000000000000000, -1.888134395621014649E-16, 0.000000000000000000 ) ) ;
#891 = CARTESIAN_POINT ( 'NONE',  ( 15.54999999999999716, -1.849999999999998757, 0.000000000000000000 ) ) ;
#892 = ORIENTED_EDGE ( 'NONE', *, *, #96, .T. ) ;
#893 = PRESENTATION_STYLE_ASSIGNMENT (( #858 ) ) ;
#894 = CARTESIAN_POINT ( 'NONE',  ( 7.349999999999997868, -0.8300000000000016254, 1.000000000000000000 ) ) ;
#895 = LINE ( 'NONE', #511, #771 ) ;
#896 = VECTOR ( 'NONE', #474, 100.0000000000000000 ) ;
#897 = VECTOR ( 'NONE', #60, 100.0000000000000000 ) ;
#898 = EDGE_LOOP ( 'NONE', ( #24, #831, #968, #334 ) ) ;
#899 = DIRECTION ( 'NONE',  ( -0.5773502691896263972, -0.5773502691896242878, -0.5773502691896263972 ) ) ;
#900 = CARTESIAN_POINT ( 'NONE',  ( -0.4500000000000017875, -0.4499999999999990119, 1.000000000000000000 ) ) ;
#901 = EDGE_CURVE ( 'NONE', #887, #122, #301, .T. ) ;
#902 = CARTESIAN_POINT ( 'NONE',  ( 16.54999999999999716, 16.55000000000000071, 0.000000000000000000 ) ) ;
#903 = ORIENTED_EDGE ( 'NONE', *, *, #833, .T. ) ;
#904 = DIRECTION ( 'NONE',  ( 0.000000000000000000, 0.000000000000000000, -1.000000000000000000 ) ) ;
#905 = DIRECTION ( 'NONE',  ( 1.000000000000000000, 0.000000000000000000, 0.000000000000000000 ) ) ;
#906 = EDGE_CURVE ( 'NONE', #753, #85, #75, .T. ) ;
#907 = DIRECTION ( 'NONE',  ( -1.000000000000000000, 1.656060597591223456E-16, 0.000000000000000000 ) ) ;
#908 = ORIENTED_EDGE ( 'NONE', *, *, #530, .T. ) ;
#909 = DIRECTION ( 'NONE',  ( -0.000000000000000000, -1.000000000000000000, 0.000000000000000000 ) ) ;
#910 = FACE_BOUND ( 'NONE', #938, .T. ) ;
#911 = DIRECTION ( 'NONE',  ( 0.000000000000000000, -1.000000000000000000, 0.000000000000000000 ) ) ;
#912 = VECTOR ( 'NONE', #864, 100.0000000000000000 ) ;
#913 = VERTEX_POINT ( 'NONE', #521 ) ;
#914 = DIRECTION ( 'NONE',  ( 1.000000000000000000, -1.656060597591223456E-16, 0.000000000000000000 ) ) ;
#915 = EDGE_CURVE ( 'NONE', #739, #412, #823, .T. ) ;
#916 = CIRCLE ( 'NONE', #432, 0.3099999999999991651 ) ;
#917 = CARTESIAN_POINT ( 'NONE',  ( -1.030000000000004468, 15.73000000000000576, 0.7999999999999998224 ) ) ;
#918 = DIRECTION ( 'NONE',  ( 0.000000000000000000, 0.000000000000000000, 1.000000000000000000 ) ) ;
#919 = ORIENTED_EDGE ( 'NONE', *, *, #655, .T. ) ;
#920 = LINE ( 'NONE', #291, #897 ) ;
#921 = DIRECTION ( 'NONE',  ( 0.000000000000000000, 0.000000000000000000, -1.000000000000000000 ) ) ;
#922 = FACE_OUTER_BOUND ( 'NONE', #374, .T. ) ;
#923 = ORIENTED_EDGE ( 'NONE', *, *, #698, .T. ) ;
#924 = CARTESIAN_POINT ( 'NONE',  ( 14.69999999999999929, 14.70000000000000284, 0.000000000000000000 ) ) ;
#925 = DIRECTION ( 'NONE',  ( -0.000000000000000000, -0.000000000000000000, 1.000000000000000000 ) ) ;
#926 = EDGE_CURVE ( 'NONE', #277, #558, #550, .T. ) ;
#927 = FACE_OUTER_BOUND ( 'NONE', #260, .T. ) ;
#928 = EDGE_LOOP ( 'NONE', ( #608, #507, #456, #415 ) ) ;
#929 = CIRCLE ( 'NONE', #367, 1.000000000000000888 ) ;
#930 = SURFACE_SIDE_STYLE ('',( #254 ) ) ;
#931 = AXIS2_PLACEMENT_3D ( 'NONE', #669, #44, #433 ) ;
#932 = AXIS2_PLACEMENT_3D ( 'NONE', #405, #717, #937 ) ;
#933 = DIRECTION ( 'NONE',  ( 0.000000000000000000, 1.000000000000000000, -0.000000000000000000 ) ) ;
#934 = ADVANCED_FACE ( 'NONE', ( #673 ), #845, .F. ) ;
#935 = ORIENTED_EDGE ( 'NONE', *, *, #842, .F. ) ;
#936 = DIRECTION ( 'NONE',  ( 0.000000000000000000, 1.000000000000000000, -0.000000000000000000 ) ) ;
#937 = DIRECTION ( 'NONE',  ( 0.000000000000000000, 1.000000000000000000, 0.000000000000000000 ) ) ;
#938 = EDGE_LOOP ( 'NONE', ( #883, #252 ) ) ;
#939 = FILL_AREA_STYLE_COLOUR ( '', #208 ) ;
#940 = EDGE_LOOP ( 'NONE', ( #123, #106, #803, #70 ) ) ;
#941 = APPLICATION_PROTOCOL_DEFINITION ( 'draft international standard', 'automotive_design', 1998, #585 ) ;
#942 = DIRECTION ( 'NONE',  ( 0.000000000000000000, 0.000000000000000000, -1.000000000000000000 ) ) ;
#943 = EDGE_CURVE ( 'NONE', #848, #508, #402, .T. ) ;
#944 = AXIS2_PLACEMENT_3D ( 'NONE', #358, #618, #28 ) ;
#945 = VECTOR ( 'NONE', #304, 100.0000000000000000 ) ;
#946 = VECTOR ( 'NONE', #416, 100.0000000000000000 ) ;
#947 = ORIENTED_EDGE ( 'NONE', *, *, #915, .T. ) ;
#948 = ORIENTED_EDGE ( 'NONE', *, *, #477, .F. ) ;
#949 = DIRECTION ( 'NONE',  ( 0.000000000000000000, 0.000000000000000000, 1.000000000000000000 ) ) ;
#950 = EDGE_CURVE ( 'NONE', #715, #508, #857, .T. ) ;
#951 = CARTESIAN_POINT ( 'NONE',  ( -1.030000000000004468, 15.73000000000000576, 0.4000000000000000222 ) ) ;
#952 = ORIENTED_EDGE ( 'NONE', *, *, #214, .F. ) ;
#953 = ORIENTED_EDGE ( 'NONE', *, *, #756, .F. ) ;
#954 = DIRECTION ( 'NONE',  ( 0.000000000000000000, 0.000000000000000000, -1.000000000000000000 ) ) ;
#955 = DIRECTION ( 'NONE',  ( 0.000000000000000000, -1.000000000000000000, 0.000000000000000000 ) ) ;
#956 = EDGE_CURVE ( 'NONE', #331, #625, #226, .T. ) ;
#957 = ORIENTED_EDGE ( 'NONE', *, *, #454, .F. ) ;
#958 = ORIENTED_EDGE ( 'NONE', *, *, #783, .T. ) ;
#959 = DIRECTION ( 'NONE',  ( 0.000000000000000000, -1.000000000000000000, 0.000000000000000000 ) ) ;
#960 = CARTESIAN_POINT ( 'NONE',  ( 15.14999999999999680, 15.15000000000000213, 1.000000000000000000 ) ) ;
#961 = AXIS2_PLACEMENT_3D ( 'NONE', #302, #458, #309 ) ;
#962 = EDGE_CURVE ( 'NONE', #275, #822, #396, .T. ) ;
#963 = ORIENTED_EDGE ( 'NONE', *, *, #365, .T. ) ;
#964 = ORIENTED_EDGE ( 'NONE', *, *, #454, .T. ) ;
#965 = FACE_OUTER_BOUND ( 'NONE', #729, .T. ) ;
#966 = CARTESIAN_POINT ( 'NONE',  ( -1.850000000000001643, 15.55000000000000249, 0.4000000000000000222 ) ) ;
#967 = FACE_OUTER_BOUND ( 'NONE', #524, .T. ) ;
#968 = ORIENTED_EDGE ( 'NONE', *, *, #325, .F. ) ;
#969 = DIRECTION ( 'NONE',  ( 0.000000000000000000, 0.000000000000000000, -1.000000000000000000 ) ) ;
#970 = EDGE_CURVE ( 'NONE', #306, #187, #849, .T. ) ;
#971 = CYLINDRICAL_SURFACE ( 'NONE', #931, 0.3099999999999991651 ) ;
#972 = CARTESIAN_POINT ( 'NONE',  ( 4.556666666666663090, 10.14333333333333620, 6.386666666666665826 ) ) ;
#973 = EDGE_LOOP ( 'NONE', ( #339, #194, #404, #844 ) ) ;
#974 = FACE_OUTER_BOUND ( 'NONE', #451, .T. ) ;
#975 = ADVANCED_FACE ( 'NONE', ( #716 ), #391, .F. ) ;
#976 = LINE ( 'NONE', #283, #834 ) ;
#977 = DIRECTION ( 'NONE',  ( 0.000000000000000000, 0.000000000000000000, 1.000000000000000000 ) ) ;
#978 = VECTOR ( 'NONE', #176, 100.0000000000000000 ) ;
#979 = AXIS2_PLACEMENT_3D ( 'NONE', #246, #335, #403 ) ;
#980 = ORIENTED_EDGE ( 'NONE', *, *, #248, .T. ) ;
#981 = DIRECTION ( 'NONE',  ( 0.000000000000000000, 1.000000000000000000, 0.000000000000000000 ) ) ;
#982 = DIRECTION ( 'NONE',  ( 0.000000000000000000, 1.000000000000000000, 0.000000000000000000 ) ) ;
#983 = CARTESIAN_POINT ( 'NONE',  ( 15.52999999999999936, 15.52999999999999936, 1.000000000000000000 ) ) ;
#984 = VERTEX_POINT ( 'NONE', #161 ) ;
#985 = CARTESIAN_POINT ( 'NONE',  ( 15.54999999999999716, 15.55000000000000249, 0.000000000000000000 ) ) ;
#986 = FACE_BOUND ( 'NONE', #132, .T. ) ;
#987 = CARTESIAN_POINT ( 'NONE',  ( -0.8500000000000007550, 15.55000000000000249, 0.000000000000000000 ) ) ;
#988 = ADVANCED_FACE ( 'NONE', ( #468 ), #781, .F. ) ;
#989 = ORIENTED_EDGE ( 'NONE', *, *, #16, .F. ) ;
#990 = PLANE ( 'NONE',  #29 ) ;
#991 = PLANE ( 'NONE',  #576 ) ;
#992 = LINE ( 'NONE', #103, #945 ) ;
#993 = EDGE_CURVE ( 'NONE', #31, #295, #626, .T. ) ;
#994 = AXIS2_PLACEMENT_3D ( 'NONE', #61, #601, #156 ) ;
#995 = ORIENTED_EDGE ( 'NONE', *, *, #597, .T. ) ;
#996 = CARTESIAN_POINT ( 'NONE',  ( 14.69999999999999929, 14.70000000000000284, 1.000000000000000000 ) ) ;
#997 = DIRECTION ( 'NONE',  ( 1.000000000000000000, -8.280302987956117279E-17, 0.000000000000000000 ) ) ;
ENDSEC;
END-ISO-10303-21;
