ISO-10303-21;
HEADER;
FILE_DESCRIPTION (( 'STEP AP214' ),
    '1' );
FILE_NAME ('elevated-cell-base_61.STEP',
    '2026-06-17T01:45:46',
    ( '' ),
    ( '' ),
    'SwSTEP 2.0',
    'SolidWorks 2023',
    '' );
FILE_SCHEMA (( 'AUTOMOTIVE_DESIGN' ));
ENDSEC;

DATA;
#1 = CARTESIAN_POINT ( 'NONE',  ( 14.69999999999999929, 14.70000000000000284, 0.000000000000000000 ) ) ;
#2 = CYLINDRICAL_SURFACE ( 'NONE', #813, 0.3049999999999990496 ) ;
#3 = VERTEX_POINT ( 'NONE', #554 ) ;
#4 =( NAMED_UNIT ( * ) SI_UNIT ( $, .STERADIAN. ) SOLID_ANGLE_UNIT ( ) );
#5 = VECTOR ( 'NONE', #943, 100.0000000000000000 ) ;
#6 = VECTOR ( 'NONE', #340, 100.0000000000000000 ) ;
#7 = CARTESIAN_POINT ( 'NONE',  ( 7.349999999999997868, 7.350000000000001421, 0.4000000000000000222 ) ) ;
#8 = AXIS2_PLACEMENT_3D ( 'NONE', #785, #691, #935 ) ;
#9 = CARTESIAN_POINT ( 'NONE',  ( 16.54999999999999716, 16.55000000000000071, 0.4000000000000000222 ) ) ;
#10 = EDGE_LOOP ( 'NONE', ( #315, #94, #60, #699 ) ) ;
#11 = CARTESIAN_POINT ( 'NONE',  ( -0.8500000000000007550, 16.55000000000000426, 0.4000000000000000222 ) ) ;
#12 = EDGE_CURVE ( 'NONE', #327, #241, #27, .T. ) ;
#13 = CARTESIAN_POINT ( 'NONE',  ( -0.8500000000000007550, -1.849999999999996092, 0.4000000000000000222 ) ) ;
#14 = ORIENTED_EDGE ( 'NONE', *, *, #692, .F. ) ;
#15 = ORIENTED_EDGE ( 'NONE', *, *, #976, .T. ) ;
#16 = DIRECTION ( 'NONE',  ( 1.508455196501571429E-16, 1.000000000000000000, 0.000000000000000000 ) ) ;
#17 = ADVANCED_FACE ( 'NONE', ( #326 ), #570, .F. ) ;
#18 = DIRECTION ( 'NONE',  ( 0.000000000000000000, 1.000000000000000000, 0.000000000000000000 ) ) ;
#19 = EDGE_CURVE ( 'NONE', #875, #539, #257, .T. ) ;
#20 = EDGE_LOOP ( 'NONE', ( #102, #527, #115, #529 ) ) ;
#21 = EDGE_LOOP ( 'NONE', ( #888, #280, #50, #723 ) ) ;
#22 = CYLINDRICAL_SURFACE ( 'NONE', #848, 0.3049999999999997158 ) ;
#23 = AXIS2_PLACEMENT_3D ( 'NONE', #126, #513, #770 ) ;
#24 = CARTESIAN_POINT ( 'NONE',  ( -1.850000000000001643, 15.55000000000000249, 0.4000000000000000222 ) ) ;
#25 = VECTOR ( 'NONE', #76, 100.0000000000000000 ) ;
#26 = PRODUCT_DEFINITION_FORMATION_WITH_SPECIFIED_SOURCE ( 'ANY', '', #862, .NOT_KNOWN. ) ;
#27 = LINE ( 'NONE', #408, #337 ) ;
#28 = CARTESIAN_POINT ( 'NONE',  ( 14.69999999999999929, 2.775557561562891351E-15, 1.000000000000000000 ) ) ;
#29 = CARTESIAN_POINT ( 'NONE',  ( 15.54999999999999716, -1.849999999999998757, 0.4000000000000000222 ) ) ;
#30 = EDGE_LOOP ( 'NONE', ( #510, #105, #119, #610 ) ) ;
#31 = ADVANCED_FACE ( 'NONE', ( #866 ), #707, .F. ) ;
#32 = UNCERTAINTY_MEASURE_WITH_UNIT (LENGTH_MEASURE( 1.000000000000000082E-05 ), #455, 'distance_accuracy_value', 'NONE');
#33 = ORIENTED_EDGE ( 'NONE', *, *, #619, .F. ) ;
#34 = DIRECTION ( 'NONE',  ( -0.000000000000000000, -0.000000000000000000, 1.000000000000000000 ) ) ;
#35 = DIRECTION ( 'NONE',  ( -1.000000000000000000, 8.280302987956119744E-17, 0.000000000000000000 ) ) ;
#36 = ORIENTED_EDGE ( 'NONE', *, *, #142, .F. ) ;
#37 = ADVANCED_FACE ( 'NONE', ( #171 ), #470, .F. ) ;
#38 = ORIENTED_EDGE ( 'NONE', *, *, #574, .F. ) ;
#39 = DIRECTION ( 'NONE',  ( 1.000000000000000000, 1.888134395621014649E-16, 0.000000000000000000 ) ) ;
#40 = AXIS2_PLACEMENT_3D ( 'NONE', #487, #417, #653 ) ;
#41 = DIRECTION ( 'NONE',  ( 0.000000000000000000, 0.000000000000000000, -1.000000000000000000 ) ) ;
#42 = CIRCLE ( 'NONE', #23, 0.3049999999999990496 ) ;
#43 = VECTOR ( 'NONE', #85, 100.0000000000000000 ) ;
#44 = EDGE_LOOP ( 'NONE', ( #483, #840 ) ) ;
#45 = ORIENTED_EDGE ( 'NONE', *, *, #777, .T. ) ;
#46 = DIRECTION ( 'NONE',  ( -0.000000000000000000, -0.000000000000000000, 1.000000000000000000 ) ) ;
#47 = DIRECTION ( 'NONE',  ( 8.280302987956117279E-17, 1.000000000000000000, 0.000000000000000000 ) ) ;
#48 = EDGE_CURVE ( 'NONE', #268, #668, #688, .T. ) ;
#49 = DIRECTION ( 'NONE',  ( 0.000000000000000000, 1.000000000000000000, 0.000000000000000000 ) ) ;
#50 = ORIENTED_EDGE ( 'NONE', *, *, #791, .T. ) ;
#51 = LINE ( 'NONE', #28, #90 ) ;
#52 = FACE_OUTER_BOUND ( 'NONE', #378, .T. ) ;
#53 = FACE_BOUND ( 'NONE', #884, .T. ) ;
#54 = ORIENTED_EDGE ( 'NONE', *, *, #287, .T. ) ;
#55 = DIRECTION ( 'NONE',  ( 0.000000000000000000, 0.000000000000000000, -1.000000000000000000 ) ) ;
#56 = CARTESIAN_POINT ( 'NONE',  ( -1.850000000000001643, 16.55000000000000426, 0.000000000000000000 ) ) ;
#57 = AXIS2_PLACEMENT_3D ( 'NONE', #429, #485, #901 ) ;
#58 = DIRECTION ( 'NONE',  ( 0.000000000000000000, 1.000000000000000000, 0.000000000000000000 ) ) ;
#59 = EDGE_CURVE ( 'NONE', #566, #84, #587, .T. ) ;
#60 = ORIENTED_EDGE ( 'NONE', *, *, #825, .F. ) ;
#61 = SURFACE_STYLE_FILL_AREA ( #748 ) ;
#62 = CARTESIAN_POINT ( 'NONE',  ( 15.54999999999999716, -0.8499999999999994227, 0.000000000000000000 ) ) ;
#63 = CARTESIAN_POINT ( 'NONE',  ( -0.4500000000000003997, 15.15000000000000213, 1.000000000000000000 ) ) ;
#64 = ORIENTED_EDGE ( 'NONE', *, *, #308, .F. ) ;
#65 =( NAMED_UNIT ( * ) PLANE_ANGLE_UNIT ( ) SI_UNIT ( $, .RADIAN. ) );
#66 = EDGE_CURVE ( 'NONE', #268, #188, #143, .T. ) ;
#67 = LINE ( 'NONE', #368, #25 ) ;
#68 = VERTEX_POINT ( 'NONE', #902 ) ;
#69 = LINE ( 'NONE', #511, #898 ) ;
#70 = CARTESIAN_POINT ( 'NONE',  ( 14.69999999999999929, 14.70000000000000284, 1.000000000000000000 ) ) ;
#71 = CIRCLE ( 'NONE', #372, 0.3049999999999997158 ) ;
#72 = AXIS2_PLACEMENT_3D ( 'NONE', #130, #186, #890 ) ;
#73 = CIRCLE ( 'NONE', #632, 1.000000000000000888 ) ;
#74 = ORIENTED_EDGE ( 'NONE', *, *, #288, .T. ) ;
#75 = LINE ( 'NONE', #292, #218 ) ;
#76 = DIRECTION ( 'NONE',  ( 0.000000000000000000, -1.000000000000000000, 0.000000000000000000 ) ) ;
#77 = ADVANCED_FACE ( 'NONE', ( #426 ), #2, .F. ) ;
#78 = EDGE_LOOP ( 'NONE', ( #603, #514, #254, #251 ) ) ;
#79 = APPLICATION_PROTOCOL_DEFINITION ( 'draft international standard', 'automotive_design', 1998, #685 ) ;
#80 = LINE ( 'NONE', #459, #229 ) ;
#81 = DIRECTION ( 'NONE',  ( 0.000000000000000000, 0.000000000000000000, -1.000000000000000000 ) ) ;
#82 = EDGE_CURVE ( 'NONE', #118, #98, #71, .T. ) ;
#83 = ADVANCED_FACE ( 'NONE', ( #897 ), #273, .F. ) ;
#84 = VERTEX_POINT ( 'NONE', #227 ) ;
#85 = DIRECTION ( 'NONE',  ( 0.000000000000000000, 0.000000000000000000, -1.000000000000000000 ) ) ;
#86 = CARTESIAN_POINT ( 'NONE',  ( 14.69999999999999929, 14.70000000000000284, 0.000000000000000000 ) ) ;
#87 = ORIENTED_EDGE ( 'NONE', *, *, #413, .F. ) ;
#88 = CIRCLE ( 'NONE', #599, 0.3049999999999997158 ) ;
#89 = EDGE_CURVE ( 'NONE', #720, #188, #504, .T. ) ;
#90 = VECTOR ( 'NONE', #39, 100.0000000000000000 ) ;
#91 = ORIENTED_EDGE ( 'NONE', *, *, #910, .T. ) ;
#92 = PLANE ( 'NONE',  #517 ) ;
#93 = DIRECTION ( 'NONE',  ( -0.000000000000000000, -0.000000000000000000, -1.000000000000000000 ) ) ;
#94 = ORIENTED_EDGE ( 'NONE', *, *, #836, .T. ) ;
#95 = APPLICATION_PROTOCOL_DEFINITION ( 'draft international standard', 'automotive_design', 1998, #519 ) ;
#96 = DIRECTION ( 'NONE',  ( -0.000000000000000000, -0.000000000000000000, 1.000000000000000000 ) ) ;
#97 = DIRECTION ( 'NONE',  ( 0.000000000000000000, -1.000000000000000000, 0.000000000000000000 ) ) ;
#98 = VERTEX_POINT ( 'NONE', #982 ) ;
#99 = DIRECTION ( 'NONE',  ( 0.000000000000000000, 1.000000000000000000, 0.000000000000000000 ) ) ;
#100 = CARTESIAN_POINT ( 'NONE',  ( 16.54999999999999716, -1.849999999999998757, 0.000000000000000000 ) ) ;
#101 = CARTESIAN_POINT ( 'NONE',  ( -1.030000000000004468, 15.73000000000000576, 0.7999999999999998224 ) ) ;
#102 = ORIENTED_EDGE ( 'NONE', *, *, #59, .T. ) ;
#103 = AXIS2_PLACEMENT_3D ( 'NONE', #789, #397, #206 ) ;
#104 = VECTOR ( 'NONE', #149, 100.0000000000000000 ) ;
#105 = ORIENTED_EDGE ( 'NONE', *, *, #308, .T. ) ;
#106 = CARTESIAN_POINT ( 'NONE',  ( 15.73000000000000043, -1.030000000000000249, 0.7999999999999998224 ) ) ;
#107 = AXIS2_PLACEMENT_3D ( 'NONE', #177, #332, #968 ) ;
#108 = CARTESIAN_POINT ( 'NONE',  ( -0.4500000000000003997, 15.45500000000000185, 0.000000000000000000 ) ) ;
#109 = EDGE_CURVE ( 'NONE', #431, #84, #940, .T. ) ;
#110 = ORIENTED_EDGE ( 'NONE', *, *, #89, .F. ) ;
#111 = ORIENTED_EDGE ( 'NONE', *, *, #48, .F. ) ;
#112 = LINE ( 'NONE', #198, #549 ) ;
#113 = DIRECTION ( 'NONE',  ( -0.000000000000000000, -0.000000000000000000, 1.000000000000000000 ) ) ;
#114 = ORIENTED_EDGE ( 'NONE', *, *, #555, .T. ) ;
#115 = ORIENTED_EDGE ( 'NONE', *, *, #543, .F. ) ;
#116 = CARTESIAN_POINT ( 'NONE',  ( 14.69999999999999929, 2.775557561562891351E-15, 0.000000000000000000 ) ) ;
#117 = CARTESIAN_POINT ( 'NONE',  ( -0.4500000000000003997, 15.15000000000000213, 0.000000000000000000 ) ) ;
#118 = VERTEX_POINT ( 'NONE', #977 ) ;
#119 = ORIENTED_EDGE ( 'NONE', *, *, #804, .F. ) ;
#120 = CARTESIAN_POINT ( 'NONE',  ( -1.030000000000004468, -1.029999999999998916, 0.7999999999999998224 ) ) ;
#121 = ADVANCED_FACE ( 'NONE', ( #826, #849, #53, #922, #156, #575 ), #284, .F. ) ;
#122 = CARTESIAN_POINT ( 'NONE',  ( -1.850000000000001643, -0.8499999999999979794, 0.000000000000000000 ) ) ;
#123 = VECTOR ( 'NONE', #35, 100.0000000000000000 ) ;
#124 = VECTOR ( 'NONE', #583, 100.0000000000000000 ) ;
#125 =( GEOMETRIC_REPRESENTATION_CONTEXT ( 3 ) GLOBAL_UNCERTAINTY_ASSIGNED_CONTEXT ( ( #32 ) ) GLOBAL_UNIT_ASSIGNED_CONTEXT ( ( #455, #844, #4 ) ) REPRESENTATION_CONTEXT ( 'NONE', 'WORKASPACE' ) );
#126 = CARTESIAN_POINT ( 'NONE',  ( 15.14999999999999680, -0.4499999999999990119, 0.000000000000000000 ) ) ;
#127 = VERTEX_POINT ( 'NONE', #906 ) ;
#128 = CARTESIAN_POINT ( 'NONE',  ( 15.14999999999999680, 15.15000000000000213, 0.000000000000000000 ) ) ;
#129 = EDGE_CURVE ( 'NONE', #241, #316, #196, .T. ) ;
#130 = CARTESIAN_POINT ( 'NONE',  ( 15.14999999999999680, -0.4499999999999990119, 0.000000000000000000 ) ) ;
#131 = DIRECTION ( 'NONE',  ( 0.000000000000000000, 1.000000000000000000, 0.000000000000000000 ) ) ;
#132 = ORIENTED_EDGE ( 'NONE', *, *, #272, .T. ) ;
#133 = SURFACE_SIDE_STYLE ('',( #61 ) ) ;
#134 = DIRECTION ( 'NONE',  ( 0.000000000000000000, 0.000000000000000000, -1.000000000000000000 ) ) ;
#135 = EDGE_CURVE ( 'NONE', #3, #330, #141, .T. ) ;
#136 = EDGE_CURVE ( 'NONE', #84, #3, #430, .T. ) ;
#137 = DIRECTION ( 'NONE',  ( -1.000000000000000000, 0.000000000000000000, 0.000000000000000000 ) ) ;
#138 = ORIENTED_EDGE ( 'NONE', *, *, #442, .T. ) ;
#139 = DIRECTION ( 'NONE',  ( 0.000000000000000000, 0.000000000000000000, -1.000000000000000000 ) ) ;
#140 = DIRECTION ( 'NONE',  ( 0.000000000000000000, 1.000000000000000000, 0.000000000000000000 ) ) ;
#141 = CIRCLE ( 'NONE', #215, 1.000000000000000000 ) ;
#142 = EDGE_CURVE ( 'NONE', #686, #962, #781, .T. ) ;
#143 = LINE ( 'NONE', #365, #598 ) ;
#144 = ORIENTED_EDGE ( 'NONE', *, *, #135, .F. ) ;
#145 = PLANE ( 'NONE',  #763 ) ;
#146 = DIRECTION ( 'NONE',  ( -0.000000000000000000, -0.000000000000000000, 1.000000000000000000 ) ) ;
#147 = EDGE_LOOP ( 'NONE', ( #837, #312, #806, #747 ) ) ;
#148 = SURFACE_STYLE_USAGE ( .BOTH. , #133 ) ;
#149 = DIRECTION ( 'NONE',  ( 0.000000000000000000, 0.000000000000000000, -1.000000000000000000 ) ) ;
#150 = EDGE_LOOP ( 'NONE', ( #952, #14, #650, #309 ) ) ;
#151 = DIRECTION ( 'NONE',  ( 0.000000000000000000, 1.000000000000000000, 0.000000000000000000 ) ) ;
#152 = CIRCLE ( 'NONE', #694, 0.3049999999999997158 ) ;
#153 = AXIS2_PLACEMENT_3D ( 'NONE', #725, #275, #484 ) ;
#154 = ORIENTED_EDGE ( 'NONE', *, *, #771, .T. ) ;
#155 = CARTESIAN_POINT ( 'NONE',  ( -0.4500000000000017875, -0.1449999999999992961, 1.000000000000000000 ) ) ;
#156 = FACE_BOUND ( 'NONE', #608, .T. ) ;
#157 = ORIENTED_EDGE ( 'NONE', *, *, #467, .F. ) ;
#158 = FACE_OUTER_BOUND ( 'NONE', #588, .T. ) ;
#159 = CARTESIAN_POINT ( 'NONE',  ( -0.4500000000000017875, -0.7549999999999987832, 0.000000000000000000 ) ) ;
#160 = EDGE_CURVE ( 'NONE', #544, #454, #42, .T. ) ;
#161 = ORIENTED_EDGE ( 'NONE', *, *, #325, .F. ) ;
#162 = FACE_OUTER_BOUND ( 'NONE', #387, .T. ) ;
#163 = DIRECTION ( 'NONE',  ( 0.000000000000000000, 0.000000000000000000, -1.000000000000000000 ) ) ;
#164 = ORIENTED_EDGE ( 'NONE', *, *, #135, .T. ) ;
#165 = FACE_OUTER_BOUND ( 'NONE', #907, .T. ) ;
#166 = CIRCLE ( 'NONE', #861, 0.3049999999999990496 ) ;
#167 = AXIS2_PLACEMENT_3D ( 'NONE', #371, #364, #151 ) ;
#168 = CARTESIAN_POINT ( 'NONE',  ( 15.52999999999999936, 15.52999999999999936, 1.000000000000000000 ) ) ;
#169 = STYLED_ITEM ( 'NONE', ( #204 ), #930 ) ;
#170 = CARTESIAN_POINT ( 'NONE',  ( 15.54999999999999716, 16.55000000000000071, 0.000000000000000000 ) ) ;
#171 = FACE_OUTER_BOUND ( 'NONE', #20, .T. ) ;
#172 = EDGE_CURVE ( 'NONE', #331, #850, #276, .T. ) ;
#173 = CARTESIAN_POINT ( 'NONE',  ( -0.8500000000000020872, -0.8499999999999979794, 0.4000000000000000222 ) ) ;
#174 = CARTESIAN_POINT ( 'NONE',  ( -1.030000000000004468, -1.029999999999998916, 0.4000000000000000222 ) ) ;
#175 = VERTEX_POINT ( 'NONE', #658 ) ;
#176 = ORIENTED_EDGE ( 'NONE', *, *, #804, .T. ) ;
#177 = CARTESIAN_POINT ( 'NONE',  ( 15.73000000000000043, 15.73000000000000043, 0.4000000000000000222 ) ) ;
#178 = EDGE_CURVE ( 'NONE', #774, #68, #970, .T. ) ;
#179 = CARTESIAN_POINT ( 'NONE',  ( 0.000000000000000000, 0.000000000000000000, 0.000000000000000000 ) ) ;
#180 = ORIENTED_EDGE ( 'NONE', *, *, #82, .T. ) ;
#181 = AXIS2_PLACEMENT_3D ( 'NONE', #887, #344, #638 ) ;
#182 = UNCERTAINTY_MEASURE_WITH_UNIT (LENGTH_MEASURE( 1.000000000000000082E-05 ), #299, 'distance_accuracy_value', 'NONE');
#183 = ORIENTED_EDGE ( 'NONE', *, *, #911, .T. ) ;
#184 = LINE ( 'NONE', #116, #6 ) ;
#185 = AXIS2_PLACEMENT_3D ( 'NONE', #100, #16, #552 ) ;
#186 = DIRECTION ( 'NONE',  ( 0.000000000000000000, 0.000000000000000000, -1.000000000000000000 ) ) ;
#187 = DIRECTION ( 'NONE',  ( 0.000000000000000000, 1.000000000000000000, -0.000000000000000000 ) ) ;
#188 = VERTEX_POINT ( 'NONE', #170 ) ;
#189 = CARTESIAN_POINT ( 'NONE',  ( 15.54999999999999716, 15.55000000000000249, 0.4000000000000000222 ) ) ;
#190 = CARTESIAN_POINT ( 'NONE',  ( 15.54999999999999716, -1.849999999999998757, 0.000000000000000000 ) ) ;
#191 = ADVANCED_FACE ( 'NONE', ( #314 ), #553, .T. ) ;
#192 = ORIENTED_EDGE ( 'NONE', *, *, #136, .F. ) ;
#193 = VERTEX_POINT ( 'NONE', #159 ) ;
#194 = CARTESIAN_POINT ( 'NONE',  ( 14.69999999999999929, 2.775557561562891351E-15, 0.000000000000000000 ) ) ;
#195 = CARTESIAN_POINT ( 'NONE',  ( -0.4500000000000017875, -0.4499999999999990119, 1.000000000000000000 ) ) ;
#196 = LINE ( 'NONE', #821, #200 ) ;
#197 = ORIENTED_EDGE ( 'NONE', *, *, #109, .T. ) ;
#198 = CARTESIAN_POINT ( 'NONE',  ( -1.030000000000004468, 15.73000000000000576, 0.4000000000000000222 ) ) ;
#199 = CARTESIAN_POINT ( 'NONE',  ( 15.73000000000000043, -1.030000000000000249, 0.4000000000000000222 ) ) ;
#200 = VECTOR ( 'NONE', #741, 100.0000000000000000 ) ;
#201 = AXIS2_PLACEMENT_3D ( 'NONE', #834, #988, #281 ) ;
#202 = CARTESIAN_POINT ( 'NONE',  ( 15.14999999999999680, -0.4499999999999990119, 1.000000000000000000 ) ) ;
#203 = ORIENTED_EDGE ( 'NONE', *, *, #726, .T. ) ;
#204 = PRESENTATION_STYLE_ASSIGNMENT (( #148 ) ) ;
#205 = DIRECTION ( 'NONE',  ( 0.000000000000000000, 1.000000000000000000, 0.000000000000000000 ) ) ;
#206 = DIRECTION ( 'NONE',  ( 0.000000000000000000, 1.000000000000000000, -0.000000000000000000 ) ) ;
#207 = ORIENTED_EDGE ( 'NONE', *, *, #777, .F. ) ;
#208 = DIRECTION ( 'NONE',  ( 0.000000000000000000, 0.000000000000000000, -1.000000000000000000 ) ) ;
#209 = DIRECTION ( 'NONE',  ( 0.000000000000000000, 1.000000000000000000, 0.000000000000000000 ) ) ;
#210 = ADVANCED_FACE ( 'NONE', ( #396, #701, #460, #473, #239, #938 ), #869, .T. ) ;
#211 = DIRECTION ( 'NONE',  ( 0.000000000000000000, 1.000000000000000000, 0.000000000000000000 ) ) ;
#212 = EDGE_LOOP ( 'NONE', ( #822, #237, #730, #854 ) ) ;
#213 = LINE ( 'NONE', #918, #615 ) ;
#214 = CARTESIAN_POINT ( 'NONE',  ( -1.850000000000001643, 16.55000000000000426, 0.000000000000000000 ) ) ;
#215 = AXIS2_PLACEMENT_3D ( 'NONE', #360, #496, #131 ) ;
#216 = EDGE_CURVE ( 'NONE', #690, #193, #278, .T. ) ;
#217 = VECTOR ( 'NONE', #384, 100.0000000000000142 ) ;
#218 = VECTOR ( 'NONE', #908, 100.0000000000000000 ) ;
#219 = VERTEX_POINT ( 'NONE', #13 ) ;
#220 = CARTESIAN_POINT ( 'NONE',  ( 15.14999999999999680, -0.4499999999999990119, 1.000000000000000000 ) ) ;
#221 = DIRECTION ( 'NONE',  ( 1.000000000000000000, -1.656060597591223456E-16, 0.000000000000000000 ) ) ;
#222 = VERTEX_POINT ( 'NONE', #174 ) ;
#223 = DIRECTION ( 'NONE',  ( -0.000000000000000000, -0.000000000000000000, 1.000000000000000000 ) ) ;
#224 = LINE ( 'NONE', #744, #104 ) ;
#225 = EDGE_LOOP ( 'NONE', ( #458, #91, #951, #402 ) ) ;
#226 = DIRECTION ( 'NONE',  ( 0.000000000000000000, 1.000000000000000000, 0.000000000000000000 ) ) ;
#227 = CARTESIAN_POINT ( 'NONE',  ( 16.54999999999999716, -0.8499999999999979794, 0.4000000000000000222 ) ) ;
#228 = VECTOR ( 'NONE', #318, 100.0000000000000000 ) ;
#229 = VECTOR ( 'NONE', #704, 100.0000000000000000 ) ;
#230 = ORIENTED_EDGE ( 'NONE', *, *, #388, .T. ) ;
#231 = DIRECTION ( 'NONE',  ( 0.000000000000000000, 1.000000000000000000, 0.000000000000000000 ) ) ;
#232 = ADVANCED_FACE ( 'NONE', ( #399 ), #950, .F. ) ;
#233 = DIRECTION ( 'NONE',  ( 0.000000000000000000, 1.000000000000000000, 0.000000000000000000 ) ) ;
#234 = ORIENTED_EDGE ( 'NONE', *, *, #491, .T. ) ;
#235 = CARTESIAN_POINT ( 'NONE',  ( 14.69999999999999929, 2.775557561562891351E-15, 0.000000000000000000 ) ) ;
#236 = DIRECTION ( 'NONE',  ( 0.000000000000000000, 0.000000000000000000, -1.000000000000000000 ) ) ;
#237 = ORIENTED_EDGE ( 'NONE', *, *, #507, .T. ) ;
#238 = DIRECTION ( 'NONE',  ( 0.000000000000000000, 0.000000000000000000, 1.000000000000000000 ) ) ;
#239 = FACE_BOUND ( 'NONE', #773, .T. ) ;
#240 = VECTOR ( 'NONE', #986, 100.0000000000000000 ) ;
#241 = VERTEX_POINT ( 'NONE', #695 ) ;
#242 = AXIS2_PLACEMENT_3D ( 'NONE', #958, #641, #954 ) ;
#243 = AXIS2_PLACEMENT_3D ( 'NONE', #993, #605, #297 ) ;
#244 = LINE ( 'NONE', #868, #217 ) ;
#245 = CARTESIAN_POINT ( 'NONE',  ( 15.14999999999999680, 15.15000000000000213, 1.000000000000000000 ) ) ;
#246 = VERTEX_POINT ( 'NONE', #856 ) ;
#247 = EDGE_CURVE ( 'NONE', #118, #505, #792, .T. ) ;
#248 = ORIENTED_EDGE ( 'NONE', *, *, #450, .T. ) ;
#249 = LINE ( 'NONE', #851, #584 ) ;
#250 = DIRECTION ( 'NONE',  ( 0.000000000000000000, 0.000000000000000000, 1.000000000000000000 ) ) ;
#251 = ORIENTED_EDGE ( 'NONE', *, *, #900, .T. ) ;
#252 = EDGE_CURVE ( 'NONE', #499, #737, #776, .T. ) ;
#253 = EDGE_CURVE ( 'NONE', #668, #720, #933, .T. ) ;
#254 = ORIENTED_EDGE ( 'NONE', *, *, #631, .T. ) ;
#255 = DIRECTION ( 'NONE',  ( 0.000000000000000000, 1.000000000000000000, 0.000000000000000000 ) ) ;
#256 = LINE ( 'NONE', #563, #814 ) ;
#257 = LINE ( 'NONE', #883, #912 ) ;
#258 = CIRCLE ( 'NONE', #581, 1.000000000000000888 ) ;
#259 = EDGE_LOOP ( 'NONE', ( #576, #389, #971, #87 ) ) ;
#260 = DIRECTION ( 'NONE',  ( -0.7071067811865475727, -0.000000000000000000, -0.7071067811865475727 ) ) ;
#261 = VECTOR ( 'NONE', #660, 100.0000000000000000 ) ;
#262 = DIRECTION ( 'NONE',  ( -0.000000000000000000, -0.000000000000000000, -1.000000000000000000 ) ) ;
#263 = EDGE_CURVE ( 'NONE', #876, #374, #717, .T. ) ;
#264 = EDGE_LOOP ( 'NONE', ( #571, #110, #471, #38 ) ) ;
#265 = ORIENTED_EDGE ( 'NONE', *, *, #916, .T. ) ;
#266 = DIRECTION ( 'NONE',  ( 0.000000000000000000, 1.000000000000000000, 0.000000000000000000 ) ) ;
#267 = FACE_OUTER_BOUND ( 'NONE', #291, .T. ) ;
#268 = VERTEX_POINT ( 'NONE', #863 ) ;
#269 = VERTEX_POINT ( 'NONE', #391 ) ;
#270 = FACE_OUTER_BOUND ( 'NONE', #857, .T. ) ;
#271 = CYLINDRICAL_SURFACE ( 'NONE', #320, 0.3049999999999990496 ) ;
#272 = EDGE_CURVE ( 'NONE', #686, #454, #469, .T. ) ;
#273 = PLANE ( 'NONE',  #728 ) ;
#274 = ORIENTED_EDGE ( 'NONE', *, *, #59, .F. ) ;
#275 = DIRECTION ( 'NONE',  ( 0.000000000000000000, 0.000000000000000000, -1.000000000000000000 ) ) ;
#276 = CIRCLE ( 'NONE', #464, 0.3049999999999997158 ) ;
#277 = DIRECTION ( 'NONE',  ( 0.000000000000000000, 1.000000000000000000, 0.000000000000000000 ) ) ;
#278 = CIRCLE ( 'NONE', #479, 0.3049999999999990496 ) ;
#279 = CARTESIAN_POINT ( 'NONE',  ( 16.54999999999999716, -0.8499999999999979794, 0.000000000000000000 ) ) ;
#280 = ORIENTED_EDGE ( 'NONE', *, *, #247, .T. ) ;
#281 = DIRECTION ( 'NONE',  ( 0.000000000000000000, 1.000000000000000000, 0.000000000000000000 ) ) ;
#282 = EDGE_CURVE ( 'NONE', #431, #219, #541, .T. ) ;
#283 = CYLINDRICAL_SURFACE ( 'NONE', #167, 0.3049999999999990496 ) ;
#284 = PLANE ( 'NONE',  #497 ) ;
#285 = VERTEX_POINT ( 'NONE', #108 ) ;
#286 = CARTESIAN_POINT ( 'NONE',  ( -0.4500000000000017875, -0.7549999999999987832, 1.000000000000000000 ) ) ;
#287 = EDGE_CURVE ( 'NONE', #98, #118, #88, .T. ) ;
#288 = EDGE_CURVE ( 'NONE', #800, #269, #782, .T. ) ;
#289 = PLANE ( 'NONE',  #373 ) ;
#290 = DIRECTION ( 'NONE',  ( 1.000000000000000000, -1.508455196501571429E-16, 0.000000000000000000 ) ) ;
#291 = EDGE_LOOP ( 'NONE', ( #920, #948, #446, #111 ) ) ;
#292 = CARTESIAN_POINT ( 'NONE',  ( -0.4500000000000017875, -0.1449999999999992961, 1.000000000000000000 ) ) ;
#293 = FACE_OUTER_BOUND ( 'NONE', #147, .T. ) ;
#294 = CIRCLE ( 'NONE', #564, 0.3049999999999997158 ) ;
#295 = VECTOR ( 'NONE', #96, 100.0000000000000000 ) ;
#296 = ORIENTED_EDGE ( 'NONE', *, *, #413, .T. ) ;
#297 = DIRECTION ( 'NONE',  ( 1.000000000000000000, 1.888134395621014649E-16, -0.000000000000000000 ) ) ;
#298 = ORIENTED_EDGE ( 'NONE', *, *, #407, .T. ) ;
#299 =( LENGTH_UNIT ( ) NAMED_UNIT ( * ) SI_UNIT ( .CENTI., .METRE. ) );
#300 = CARTESIAN_POINT ( 'NONE',  ( -0.4500000000000003997, 15.15000000000000213, 1.000000000000000000 ) ) ;
#301 = ORIENTED_EDGE ( 'NONE', *, *, #263, .T. ) ;
#302 = CARTESIAN_POINT ( 'NONE',  ( 15.54999999999999716, -1.849999999999998757, 0.000000000000000000 ) ) ;
#303 = DIRECTION ( 'NONE',  ( 0.000000000000000000, 1.000000000000000000, -0.000000000000000000 ) ) ;
#304 = VECTOR ( 'NONE', #523, 100.0000000000000000 ) ;
#305 = AXIS2_PLACEMENT_3D ( 'NONE', #173, #46, #562 ) ;
#306 = VECTOR ( 'NONE', #593, 100.0000000000000000 ) ;
#307 = ORIENTED_EDGE ( 'NONE', *, *, #353, .T. ) ;
#308 = EDGE_CURVE ( 'NONE', #219, #810, #614, .T. ) ;
#309 = ORIENTED_EDGE ( 'NONE', *, *, #772, .T. ) ;
#310 = LINE ( 'NONE', #700, #43 ) ;
#311 = DIRECTION ( 'NONE',  ( -1.000000000000000000, -1.888134395621014649E-16, 0.000000000000000000 ) ) ;
#312 = ORIENTED_EDGE ( 'NONE', *, *, #450, .F. ) ;
#313 = CARTESIAN_POINT ( 'NONE',  ( 15.14999999999999680, 15.45500000000000185, 0.000000000000000000 ) ) ;
#314 = FACE_OUTER_BOUND ( 'NONE', #264, .T. ) ;
#315 = ORIENTED_EDGE ( 'NONE', *, *, #619, .T. ) ;
#316 = VERTEX_POINT ( 'NONE', #24 ) ;
#317 = PLANE ( 'NONE',  #422 ) ;
#318 = DIRECTION ( 'NONE',  ( -0.000000000000000000, -0.000000000000000000, 1.000000000000000000 ) ) ;
#319 = ORIENTED_EDGE ( 'NONE', *, *, #798, .F. ) ;
#320 = AXIS2_PLACEMENT_3D ( 'NONE', #578, #134, #568 ) ;
#321 = AXIS2_PLACEMENT_3D ( 'NONE', #957, #328, #255 ) ;
#322 = EDGE_LOOP ( 'NONE', ( #859, #917, #654, #461 ) ) ;
#323 = PLANE ( 'NONE',  #799 ) ;
#324 = CARTESIAN_POINT ( 'NONE',  ( -0.4500000000000003997, 15.15000000000000213, 0.000000000000000000 ) ) ;
#325 = EDGE_CURVE ( 'NONE', #285, #175, #294, .T. ) ;
#326 = FACE_OUTER_BOUND ( 'NONE', #212, .T. ) ;
#327 = VERTEX_POINT ( 'NONE', #122 ) ;
#328 = DIRECTION ( 'NONE',  ( 0.000000000000000000, 0.000000000000000000, -1.000000000000000000 ) ) ;
#329 = PLANE ( 'NONE',  #242 ) ;
#330 = VERTEX_POINT ( 'NONE', #190 ) ;
#331 = VERTEX_POINT ( 'NONE', #824 ) ;
#332 = DIRECTION ( 'NONE',  ( -1.000000000000000000, 0.000000000000000000, 0.000000000000000000 ) ) ;
#333 = EDGE_CURVE ( 'NONE', #269, #537, #490, .T. ) ;
#334 = CARTESIAN_POINT ( 'NONE',  ( 15.73000000000000043, 15.73000000000000043, 0.4000000000000000222 ) ) ;
#335 = ORIENTED_EDGE ( 'NONE', *, *, #89, .T. ) ;
#336 = EDGE_CURVE ( 'NONE', #175, #285, #152, .T. ) ;
#337 = VECTOR ( 'NONE', #474, 100.0000000000000000 ) ;
#338 = VECTOR ( 'NONE', #735, 100.0000000000000142 ) ;
#339 = EDGE_LOOP ( 'NONE', ( #54, #180 ) ) ;
#340 = DIRECTION ( 'NONE',  ( -0.000000000000000000, -0.000000000000000000, 1.000000000000000000 ) ) ;
#341 = VECTOR ( 'NONE', #733, 100.0000000000000000 ) ;
#342 = EDGE_CURVE ( 'NONE', #903, #269, #652, .T. ) ;
#343 = FACE_OUTER_BOUND ( 'NONE', #10, .T. ) ;
#344 = DIRECTION ( 'NONE',  ( 0.000000000000000000, 0.000000000000000000, -1.000000000000000000 ) ) ;
#345 = ORIENTED_EDGE ( 'NONE', *, *, #825, .T. ) ;
#346 = DIRECTION ( 'NONE',  ( 0.000000000000000000, 0.000000000000000000, -1.000000000000000000 ) ) ;
#347 = CARTESIAN_POINT ( 'NONE',  ( 15.52999999999999936, -0.8300000000000016254, 1.000000000000000000 ) ) ;
#348 = EDGE_CURVE ( 'NONE', #454, #544, #746, .T. ) ;
#349 = CARTESIAN_POINT ( 'NONE',  ( 15.54999999999999716, -0.8499999999999994227, 0.4000000000000000222 ) ) ;
#350 = VERTEX_POINT ( 'NONE', #727 ) ;
#351 = LINE ( 'NONE', #410, #124 ) ;
#352 = PLANE ( 'NONE',  #386 ) ;
#353 = EDGE_CURVE ( 'NONE', #188, #659, #258, .T. ) ;
#354 = DIRECTION ( 'NONE',  ( -0.000000000000000000, -0.000000000000000000, -1.000000000000000000 ) ) ;
#355 = ORIENTED_EDGE ( 'NONE', *, *, #109, .F. ) ;
#356 = PLANE ( 'NONE',  #201 ) ;
#357 = VECTOR ( 'NONE', #113, 100.0000000000000000 ) ;
#358 = FACE_OUTER_BOUND ( 'NONE', #914, .T. ) ;
#359 = VECTOR ( 'NONE', #468, 100.0000000000000000 ) ;
#360 = CARTESIAN_POINT ( 'NONE',  ( 15.54999999999999716, -0.8499999999999994227, 0.000000000000000000 ) ) ;
#361 = EDGE_CURVE ( 'NONE', #850, #285, #812, .T. ) ;
#362 = ORIENTED_EDGE ( 'NONE', *, *, #325, .T. ) ;
#363 = CARTESIAN_POINT ( 'NONE',  ( -0.4500000000000017875, -0.4499999999999990119, 0.000000000000000000 ) ) ;
#364 = DIRECTION ( 'NONE',  ( 0.000000000000000000, 0.000000000000000000, -1.000000000000000000 ) ) ;
#365 = CARTESIAN_POINT ( 'NONE',  ( 16.54999999999999716, 16.55000000000000071, 0.000000000000000000 ) ) ;
#366 = ADVANCED_FACE ( 'NONE', ( #343 ), #352, .F. ) ;
#367 = ORIENTED_EDGE ( 'NONE', *, *, #129, .F. ) ;
#368 = CARTESIAN_POINT ( 'NONE',  ( 16.54999999999999716, 16.55000000000000071, 0.000000000000000000 ) ) ;
#369 = ORIENTED_EDGE ( 'NONE', *, *, #657, .T. ) ;
#370 = DIRECTION ( 'NONE',  ( 0.000000000000000000, 1.000000000000000000, 0.000000000000000000 ) ) ;
#371 = CARTESIAN_POINT ( 'NONE',  ( 15.14999999999999680, -0.4499999999999990119, 1.000000000000000000 ) ) ;
#372 = AXIS2_PLACEMENT_3D ( 'NONE', #435, #81, #667 ) ;
#373 = AXIS2_PLACEMENT_3D ( 'NONE', #56, #445, #754 ) ;
#374 = VERTEX_POINT ( 'NONE', #347 ) ;
#375 = CARTESIAN_POINT ( 'NONE',  ( 14.69999999999999929, 2.775557561562891351E-15, 1.000000000000000000 ) ) ;
#376 = FACE_OUTER_BOUND ( 'NONE', #708, .T. ) ;
#377 = ADVANCED_FACE ( 'NONE', ( #267 ), #573, .T. ) ;
#378 = EDGE_LOOP ( 'NONE', ( #766, #493, #265, #753 ) ) ;
#379 = PLANE ( 'NONE',  #992 ) ;
#380 = DIRECTION ( 'NONE',  ( 0.000000000000000000, -1.000000000000000000, 0.000000000000000000 ) ) ;
#381 = DIRECTION ( 'NONE',  ( 0.000000000000000000, 1.000000000000000000, -0.000000000000000000 ) ) ;
#382 = EDGE_CURVE ( 'NONE', #246, #488, #166, .T. ) ;
#383 = ORIENTED_EDGE ( 'NONE', *, *, #880, .F. ) ;
#384 = DIRECTION ( 'NONE',  ( -0.5773502691896263972, -0.5773502691896242878, -0.5773502691896263972 ) ) ;
#385 = CARTESIAN_POINT ( 'NONE',  ( 7.349999999999997868, 7.350000000000001421, 0.000000000000000000 ) ) ;
#386 = AXIS2_PLACEMENT_3D ( 'NONE', #964, #47, #661 ) ;
#387 = EDGE_LOOP ( 'NONE', ( #345, #74, #724, #955 ) ) ;
#388 = EDGE_CURVE ( 'NONE', #68, #499, #803, .T. ) ;
#389 = ORIENTED_EDGE ( 'NONE', *, *, #467, .T. ) ;
#390 = DIRECTION ( 'NONE',  ( -0.000000000000000000, -0.000000000000000000, 1.000000000000000000 ) ) ;
#391 = CARTESIAN_POINT ( 'NONE',  ( -1.030000000000004468, 15.73000000000000576, 0.7999999999999998224 ) ) ;
#392 = ORIENTED_EDGE ( 'NONE', *, *, #336, .F. ) ;
#393 = ORIENTED_EDGE ( 'NONE', *, *, #846, .T. ) ;
#394 = PLANE ( 'NONE',  #185 ) ;
#395 = ADVANCED_FACE ( 'NONE', ( #52 ), #271, .F. ) ;
#396 = FACE_BOUND ( 'NONE', #979, .T. ) ;
#397 = DIRECTION ( 'NONE',  ( -1.000000000000000000, 0.000000000000000000, 0.000000000000000000 ) ) ;
#398 = DIRECTION ( 'NONE',  ( -1.000000000000000000, 1.508455196501571429E-16, 0.000000000000000000 ) ) ;
#399 = FACE_OUTER_BOUND ( 'NONE', #21, .T. ) ;
#400 = EDGE_CURVE ( 'NONE', #597, #537, #585, .T. ) ;
#401 = VECTOR ( 'NONE', #209, 100.0000000000000000 ) ;
#402 = ORIENTED_EDGE ( 'NONE', *, *, #916, .F. ) ;
#403 = CIRCLE ( 'NONE', #975, 0.3049999999999990496 ) ;
#404 = ORIENTED_EDGE ( 'NONE', *, *, #252, .F. ) ;
#405 = DIRECTION ( 'NONE',  ( -1.000000000000000000, 8.280302987956117279E-17, 0.000000000000000000 ) ) ;
#406 = DIRECTION ( 'NONE',  ( 0.000000000000000000, 1.000000000000000000, 0.000000000000000000 ) ) ;
#407 = EDGE_CURVE ( 'NONE', #127, #222, #722, .T. ) ;
#408 = CARTESIAN_POINT ( 'NONE',  ( -1.850000000000001643, -0.8499999999999979794, 0.000000000000000000 ) ) ;
#409 = ORIENTED_EDGE ( 'NONE', *, *, #705, .F. ) ;
#410 = CARTESIAN_POINT ( 'NONE',  ( -1.030000000000004468, -1.029999999999998916, 0.4000000000000000222 ) ) ;
#411 = DIRECTION ( 'NONE',  ( -0.000000000000000000, -1.000000000000000000, 0.000000000000000000 ) ) ;
#412 = EDGE_LOOP ( 'NONE', ( #367, #592, #778, #197, #274, #492, #870, #393 ) ) ;
#413 = EDGE_CURVE ( 'NONE', #903, #350, #433, .T. ) ;
#414 = ORIENTED_EDGE ( 'NONE', *, *, #252, .T. ) ;
#415 = DIRECTION ( 'NONE',  ( 0.000000000000000000, -1.000000000000000000, 0.000000000000000000 ) ) ;
#416 = DIRECTION ( 'NONE',  ( 0.000000000000000000, 0.000000000000000000, -1.000000000000000000 ) ) ;
#417 = DIRECTION ( 'NONE',  ( 0.000000000000000000, 0.000000000000000000, -1.000000000000000000 ) ) ;
#418 = AXIS2_PLACEMENT_3D ( 'NONE', #349, #509, #58 ) ;
#419 = VECTOR ( 'NONE', #411, 100.0000000000000000 ) ;
#420 = ORIENTED_EDGE ( 'NONE', *, *, #440, .T. ) ;
#421 = DIRECTION ( 'NONE',  ( -1.000000000000000000, 1.508455196501571429E-16, 0.000000000000000000 ) ) ;
#422 = AXIS2_PLACEMENT_3D ( 'NONE', #235, #873, #456 ) ;
#423 = PRODUCT_DEFINITION_SHAPE ( 'NONE', 'NONE',  #965 ) ;
#424 = CARTESIAN_POINT ( 'NONE',  ( -1.030000000000004468, 15.73000000000000576, 0.4000000000000000222 ) ) ;
#425 = AXIS2_PLACEMENT_3D ( 'NONE', #220, #756, #604 ) ;
#426 = FACE_OUTER_BOUND ( 'NONE', #801, .T. ) ;
#427 = ORIENTED_EDGE ( 'NONE', *, *, #400, .F. ) ;
#428 = CARTESIAN_POINT ( 'NONE',  ( 15.73000000000000043, -1.030000000000000249, 0.7999999999999998224 ) ) ;
#429 = CARTESIAN_POINT ( 'NONE',  ( -0.8500000000000007550, 15.55000000000000249, 0.000000000000000000 ) ) ;
#430 = LINE ( 'NONE', #279, #913 ) ;
#431 = VERTEX_POINT ( 'NONE', #29 ) ;
#432 = CARTESIAN_POINT ( 'NONE',  ( 15.14999999999999680, -0.7549999999999987832, 1.000000000000000000 ) ) ;
#433 = LINE ( 'NONE', #334, #896 ) ;
#434 = ADVANCED_FACE ( 'NONE', ( #645 ), #329, .F. ) ;
#435 = CARTESIAN_POINT ( 'NONE',  ( 15.14999999999999680, 15.15000000000000213, 1.000000000000000000 ) ) ;
#436 = ORIENTED_EDGE ( 'NONE', *, *, #66, .F. ) ;
#437 = DIRECTION ( 'NONE',  ( 0.000000000000000000, 1.000000000000000000, 0.000000000000000000 ) ) ;
#438 = VECTOR ( 'NONE', #93, 100.0000000000000000 ) ;
#439 = CYLINDRICAL_SURFACE ( 'NONE', #498, 0.3049999999999997158 ) ;
#440 = EDGE_CURVE ( 'NONE', #316, #833, #256, .T. ) ;
#441 = DIRECTION ( 'NONE',  ( 0.000000000000000000, 1.000000000000000000, 0.000000000000000000 ) ) ;
#442 = EDGE_CURVE ( 'NONE', #962, #544, #886, .T. ) ;
#443 = EDGE_LOOP ( 'NONE', ( #639, #934 ) ) ;
#444 = LINE ( 'NONE', #841, #533 ) ;
#445 = DIRECTION ( 'NONE',  ( 1.000000000000000000, 0.000000000000000000, 0.000000000000000000 ) ) ;
#446 = ORIENTED_EDGE ( 'NONE', *, *, #846, .F. ) ;
#447 = LINE ( 'NONE', #214, #401 ) ;
#448 = EDGE_LOOP ( 'NONE', ( #298, #616, #296, #524 ) ) ;
#449 = DIRECTION ( 'NONE',  ( -1.000000000000000000, 1.656060597591223456E-16, 0.000000000000000000 ) ) ;
#450 = EDGE_CURVE ( 'NONE', #68, #990, #915, .T. ) ;
#451 = CARTESIAN_POINT ( 'NONE',  ( 15.73000000000000043, -1.030000000000000249, 0.7999999999999998224 ) ) ;
#452 = CIRCLE ( 'NONE', #711, 0.3049999999999997158 ) ;
#453 = AXIS2_PLACEMENT_3D ( 'NONE', #62, #516, #909 ) ;
#454 = VERTEX_POINT ( 'NONE', #981 ) ;
#455 =( LENGTH_UNIT ( ) NAMED_UNIT ( * ) SI_UNIT ( .CENTI., .METRE. ) );
#456 = DIRECTION ( 'NONE',  ( 0.000000000000000000, -1.000000000000000000, 0.000000000000000000 ) ) ;
#457 = DIRECTION ( 'NONE',  ( 0.000000000000000000, 0.000000000000000000, -1.000000000000000000 ) ) ;
#458 = ORIENTED_EDGE ( 'NONE', *, *, #382, .F. ) ;
#459 = CARTESIAN_POINT ( 'NONE',  ( 16.54999999999999716, 15.55000000000000249, 0.000000000000000000 ) ) ;
#460 = FACE_BOUND ( 'NONE', #648, .T. ) ;
#461 = ORIENTED_EDGE ( 'NONE', *, *, #263, .F. ) ;
#462 = FACE_OUTER_BOUND ( 'NONE', #30, .T. ) ;
#463 = DIRECTION ( 'NONE',  ( 1.000000000000000000, -8.280302987956117279E-17, 0.000000000000000000 ) ) ;
#464 = AXIS2_PLACEMENT_3D ( 'NONE', #63, #671, #49 ) ;
#465 = CIRCLE ( 'NONE', #305, 1.000000000000000000 ) ;
#466 = ORIENTED_EDGE ( 'NONE', *, *, #507, .F. ) ;
#467 = EDGE_CURVE ( 'NONE', #269, #755, #829, .T. ) ;
#468 = DIRECTION ( 'NONE',  ( 0.000000000000000000, -1.000000000000000000, 0.000000000000000000 ) ) ;
#469 = LINE ( 'NONE', #478, #879 ) ;
#470 = PLANE ( 'NONE',  #103 ) ;
#471 = ORIENTED_EDGE ( 'NONE', *, *, #718, .F. ) ;
#472 = CARTESIAN_POINT ( 'NONE',  ( 16.54999999999999716, 16.55000000000000071, 0.000000000000000000 ) ) ;
#473 = FACE_BOUND ( 'NONE', #44, .T. ) ;
#474 = DIRECTION ( 'NONE',  ( 0.000000000000000000, 0.000000000000000000, 1.000000000000000000 ) ) ;
#475 = ORIENTED_EDGE ( 'NONE', *, *, #442, .F. ) ;
#476 = CARTESIAN_POINT ( 'NONE',  ( -1.850000000000001643, 15.55000000000000249, 0.000000000000000000 ) ) ;
#477 = ADVANCED_FACE ( 'NONE', ( #376 ), #439, .F. ) ;
#478 = CARTESIAN_POINT ( 'NONE',  ( 15.14999999999999680, -0.1449999999999992961, 1.000000000000000000 ) ) ;
#479 = AXIS2_PLACEMENT_3D ( 'NONE', #706, #558, #547 ) ;
#480 = ORIENTED_EDGE ( 'NONE', *, *, #764, .F. ) ;
#481 = AXIS2_PLACEMENT_3D ( 'NONE', #189, #819, #266 ) ;
#482 = AXIS2_PLACEMENT_3D ( 'NONE', #743, #55, #99 ) ;
#483 = ORIENTED_EDGE ( 'NONE', *, *, #348, .F. ) ;
#484 = DIRECTION ( 'NONE',  ( 0.000000000000000000, 1.000000000000000000, 0.000000000000000000 ) ) ;
#485 = DIRECTION ( 'NONE',  ( 0.000000000000000000, 0.000000000000000000, 1.000000000000000000 ) ) ;
#486 = ADVANCED_FACE ( 'NONE', ( #835 ), #512, .T. ) ;
#487 = CARTESIAN_POINT ( 'NONE',  ( -0.4500000000000017875, -0.4499999999999990119, 1.000000000000000000 ) ) ;
#488 = VERTEX_POINT ( 'NONE', #155 ) ;
#489 = CARTESIAN_POINT ( 'NONE',  ( 14.69999999999999929, 2.775557561562891351E-15, 0.000000000000000000 ) ) ;
#490 = LINE ( 'NONE', #739, #338 ) ;
#491 = EDGE_CURVE ( 'NONE', #850, #331, #452, .T. ) ;
#492 = ORIENTED_EDGE ( 'NONE', *, *, #718, .T. ) ;
#493 = ORIENTED_EDGE ( 'NONE', *, *, #752, .F. ) ;
#494 = LINE ( 'NONE', #721, #978 ) ;
#495 = DIRECTION ( 'NONE',  ( 0.000000000000000000, 0.000000000000000000, -1.000000000000000000 ) ) ;
#496 = DIRECTION ( 'NONE',  ( 0.000000000000000000, 0.000000000000000000, -1.000000000000000000 ) ) ;
#497 = AXIS2_PLACEMENT_3D ( 'NONE', #591, #892, #579 ) ;
#498 = AXIS2_PLACEMENT_3D ( 'NONE', #300, #590, #226 ) ;
#499 = VERTEX_POINT ( 'NONE', #666 ) ;
#500 = DIRECTION ( 'NONE',  ( 0.000000000000000000, 1.000000000000000000, 0.000000000000000000 ) ) ;
#501 = EDGE_CURVE ( 'NONE', #327, #833, #447, .T. ) ;
#502 = VECTOR ( 'NONE', #577, 100.0000000000000000 ) ;
#503 = DIRECTION ( 'NONE',  ( 1.000000000000000000, -1.656060597591223949E-16, 0.000000000000000000 ) ) ;
#504 = LINE ( 'NONE', #830, #858 ) ;
#505 = VERTEX_POINT ( 'NONE', #905 ) ;
#506 = FILL_AREA_STYLE_COLOUR ( '', #926 ) ;
#507 = EDGE_CURVE ( 'NONE', #331, #175, #224, .T. ) ;
#508 = DIRECTION ( 'NONE',  ( 0.000000000000000000, 0.000000000000000000, -1.000000000000000000 ) ) ;
#509 = DIRECTION ( 'NONE',  ( -0.000000000000000000, -0.000000000000000000, 1.000000000000000000 ) ) ;
#510 = ORIENTED_EDGE ( 'NONE', *, *, #282, .T. ) ;
#511 = CARTESIAN_POINT ( 'NONE',  ( 0.000000000000000000, 0.000000000000000000, 1.000000000000000000 ) ) ;
#512 = CYLINDRICAL_SURFACE ( 'NONE', #630, 1.000000000000000222 ) ;
#513 = DIRECTION ( 'NONE',  ( 0.000000000000000000, 0.000000000000000000, -1.000000000000000000 ) ) ;
#514 = ORIENTED_EDGE ( 'NONE', *, *, #287, .F. ) ;
#515 = FACE_OUTER_BOUND ( 'NONE', #642, .T. ) ;
#516 = DIRECTION ( 'NONE',  ( 0.000000000000000000, 0.000000000000000000, 1.000000000000000000 ) ) ;
#517 = AXIS2_PLACEMENT_3D ( 'NONE', #7, #949, #540 ) ;
#518 = EDGE_CURVE ( 'NONE', #539, #990, #842, .T. ) ;
#519 = APPLICATION_CONTEXT ( 'automotive_design' ) ;
#520 = ADVANCED_FACE ( 'NONE', ( #995 ), #289, .F. ) ;
#521 = EDGE_LOOP ( 'NONE', ( #939, #967, #929, #561 ) ) ;
#522 =( NAMED_UNIT ( * ) SI_UNIT ( $, .STERADIAN. ) SOLID_ANGLE_UNIT ( ) );
#523 = DIRECTION ( 'NONE',  ( 0.000000000000000000, 0.000000000000000000, -1.000000000000000000 ) ) ;
#524 = ORIENTED_EDGE ( 'NONE', *, *, #891, .T. ) ;
#525 = DIRECTION ( 'NONE',  ( 0.000000000000000000, 1.000000000000000000, 0.000000000000000000 ) ) ;
#526 = CARTESIAN_POINT ( 'NONE',  ( 0.000000000000000000, 14.69999999999999929, 0.000000000000000000 ) ) ;
#527 = ORIENTED_EDGE ( 'NONE', *, *, #136, .T. ) ;
#528 = ADVANCED_FACE ( 'NONE', ( #594 ), #921, .T. ) ;
#529 = ORIENTED_EDGE ( 'NONE', *, *, #574, .T. ) ;
#530 = CARTESIAN_POINT ( 'NONE',  ( 15.73000000000000043, 15.73000000000000043, 0.7999999999999998224 ) ) ;
#531 = VECTOR ( 'NONE', #303, 100.0000000000000000 ) ;
#532 = DIRECTION ( 'NONE',  ( -0.000000000000000000, -0.000000000000000000, -1.000000000000000000 ) ) ;
#533 = VECTOR ( 'NONE', #984, 100.0000000000000000 ) ;
#534 = ORIENTED_EDGE ( 'NONE', *, *, #361, .T. ) ;
#535 = FACE_BOUND ( 'NONE', #448, .T. ) ;
#536 = CARTESIAN_POINT ( 'NONE',  ( 15.54999999999999716, 15.55000000000000249, 0.000000000000000000 ) ) ;
#537 = VERTEX_POINT ( 'NONE', #758 ) ;
#538 = DIRECTION ( 'NONE',  ( 1.888134395621014649E-16, -1.000000000000000000, 0.000000000000000000 ) ) ;
#539 = VERTEX_POINT ( 'NONE', #70 ) ;
#540 = DIRECTION ( 'NONE',  ( 0.000000000000000000, 1.000000000000000000, 0.000000000000000000 ) ) ;
#541 = LINE ( 'NONE', #796, #5 ) ;
#542 = ADVANCED_FACE ( 'NONE', ( #358 ), #283, .F. ) ;
#543 = EDGE_CURVE ( 'NONE', #659, #3, #67, .T. ) ;
#544 = VERTEX_POINT ( 'NONE', #989 ) ;
#545 = CARTESIAN_POINT ( 'NONE',  ( 0.000000000000000000, 14.69999999999999929, 1.000000000000000000 ) ) ;
#546 = CARTESIAN_POINT ( 'NONE',  ( 15.14999999999999680, 15.15000000000000213, 1.000000000000000000 ) ) ;
#547 = DIRECTION ( 'NONE',  ( 0.000000000000000000, 1.000000000000000000, 0.000000000000000000 ) ) ;
#548 = VECTOR ( 'NONE', #895, 100.0000000000000000 ) ;
#549 = VECTOR ( 'NONE', #500, 100.0000000000000000 ) ;
#550 = ORIENTED_EDGE ( 'NONE', *, *, #253, .T. ) ;
#551 = ORIENTED_EDGE ( 'NONE', *, *, #288, .F. ) ;
#552 = DIRECTION ( 'NONE',  ( 1.000000000000000000, -1.508455196501571429E-16, 0.000000000000000000 ) ) ;
#553 = CYLINDRICAL_SURFACE ( 'NONE', #959, 1.000000000000000888 ) ;
#554 = CARTESIAN_POINT ( 'NONE',  ( 16.54999999999999716, -0.8499999999999979794, 0.000000000000000000 ) ) ;
#555 = EDGE_CURVE ( 'NONE', #374, #719, #670, .T. ) ;
#556 = ORIENTED_EDGE ( 'NONE', *, *, #48, .T. ) ;
#557 = FACE_OUTER_BOUND ( 'NONE', #150, .T. ) ;
#558 = DIRECTION ( 'NONE',  ( 0.000000000000000000, 0.000000000000000000, -1.000000000000000000 ) ) ;
#559 = ORIENTED_EDGE ( 'NONE', *, *, #216, .F. ) ;
#560 = PRODUCT_DEFINITION_CONTEXT ( 'detailed design', #519, 'design' ) ;
#561 = ORIENTED_EDGE ( 'NONE', *, *, #19, .F. ) ;
#562 = DIRECTION ( 'NONE',  ( 0.000000000000000000, 1.000000000000000000, 0.000000000000000000 ) ) ;
#563 = CARTESIAN_POINT ( 'NONE',  ( -1.850000000000001643, 15.55000000000000249, 0.000000000000000000 ) ) ;
#564 = AXIS2_PLACEMENT_3D ( 'NONE', #324, #637, #820 ) ;
#565 = ORIENTED_EDGE ( 'NONE', *, *, #891, .F. ) ;
#566 = VERTEX_POINT ( 'NONE', #762 ) ;
#567 = CARTESIAN_POINT ( 'NONE',  ( 15.73000000000000043, 15.73000000000000043, 0.7999999999999998224 ) ) ;
#568 = DIRECTION ( 'NONE',  ( 0.000000000000000000, 1.000000000000000000, 0.000000000000000000 ) ) ;
#569 = ADVANCED_FACE ( 'NONE', ( #293 ), #600, .F. ) ;
#570 = CYLINDRICAL_SURFACE ( 'NONE', #181, 0.3049999999999997158 ) ;
#571 = ORIENTED_EDGE ( 'NONE', *, *, #353, .F. ) ;
#572 = CARTESIAN_POINT ( 'NONE',  ( 15.73000000000000043, 15.73000000000000043, 0.7999999999999998224 ) ) ;
#573 = CYLINDRICAL_SURFACE ( 'NONE', #57, 1.000000000000000888 ) ;
#574 = EDGE_CURVE ( 'NONE', #659, #566, #80, .T. ) ;
#575 = FACE_BOUND ( 'NONE', #443, .T. ) ;
#576 = ORIENTED_EDGE ( 'NONE', *, *, #342, .T. ) ;
#577 = DIRECTION ( 'NONE',  ( 0.000000000000000000, 1.000000000000000000, -0.000000000000000000 ) ) ;
#578 = CARTESIAN_POINT ( 'NONE',  ( -0.4500000000000017875, -0.4499999999999990119, 1.000000000000000000 ) ) ;
#579 = DIRECTION ( 'NONE',  ( 0.000000000000000000, 1.000000000000000000, 0.000000000000000000 ) ) ;
#580 = VECTOR ( 'NONE', #736, 100.0000000000000000 ) ;
#581 = AXIS2_PLACEMENT_3D ( 'NONE', #878, #41, #205 ) ;
#582 = ORIENTED_EDGE ( 'NONE', *, *, #946, .T. ) ;
#583 = DIRECTION ( 'NONE',  ( -0.000000000000000000, -0.000000000000000000, 1.000000000000000000 ) ) ;
#584 = VECTOR ( 'NONE', #390, 100.0000000000000000 ) ;
#585 = LINE ( 'NONE', #973, #548 ) ;
#586 = CIRCLE ( 'NONE', #482, 1.000000000000000888 ) ;
#587 = LINE ( 'NONE', #815, #580 ) ;
#588 = EDGE_LOOP ( 'NONE', ( #550, #335, #436, #556 ) ) ;
#589 = CARTESIAN_POINT ( 'NONE',  ( 15.14999999999999680, 15.15000000000000213, 0.000000000000000000 ) ) ;
#590 = DIRECTION ( 'NONE',  ( 0.000000000000000000, 0.000000000000000000, -1.000000000000000000 ) ) ;
#591 = CARTESIAN_POINT ( 'NONE',  ( 7.349999999999997868, 7.350000000000001421, 1.000000000000000000 ) ) ;
#592 = ORIENTED_EDGE ( 'NONE', *, *, #712, .T. ) ;
#593 = DIRECTION ( 'NONE',  ( 0.000000000000000000, 0.000000000000000000, -1.000000000000000000 ) ) ;
#594 = FACE_OUTER_BOUND ( 'NONE', #843, .T. ) ;
#595 = ADVANCED_FACE ( 'NONE', ( #462 ), #394, .F. ) ;
#596 = DIRECTION ( 'NONE',  ( 0.000000000000000000, 0.000000000000000000, -1.000000000000000000 ) ) ;
#597 = VERTEX_POINT ( 'NONE', #168 ) ;
#598 = VECTOR ( 'NONE', #290, 100.0000000000000000 ) ;
#599 = AXIS2_PLACEMENT_3D ( 'NONE', #245, #236, #233 ) ;
#600 = PLANE ( 'NONE',  #243 ) ;
#601 = CIRCLE ( 'NONE', #153, 0.3049999999999990496 ) ;
#602 = CIRCLE ( 'NONE', #749, 0.3049999999999997158 ) ;
#603 = ORIENTED_EDGE ( 'NONE', *, *, #247, .F. ) ;
#604 = DIRECTION ( 'NONE',  ( 0.000000000000000000, 1.000000000000000000, 0.000000000000000000 ) ) ;
#605 = DIRECTION ( 'NONE',  ( -1.888134395621014649E-16, 1.000000000000000000, 0.000000000000000000 ) ) ;
#606 = ADVANCED_FACE ( 'NONE', ( #855, #535 ), #92, .F. ) ;
#607 = VERTEX_POINT ( 'NONE', #313 ) ;
#608 = EDGE_LOOP ( 'NONE', ( #672, #893 ) ) ;
#609 = DIRECTION ( 'NONE',  ( -1.000000000000000000, -1.888134395621014649E-16, 0.000000000000000000 ) ) ;
#610 = ORIENTED_EDGE ( 'NONE', *, *, #625, .T. ) ;
#611 = CARTESIAN_POINT ( 'NONE',  ( 14.69999999999999929, 2.775557561562891351E-15, 0.000000000000000000 ) ) ;
#612 = CARTESIAN_POINT ( 'NONE',  ( 15.73000000000000043, 15.73000000000000043, 0.7999999999999998224 ) ) ;
#613 = VECTOR ( 'NONE', #311, 100.0000000000000000 ) ;
#614 = LINE ( 'NONE', #927, #438 ) ;
#615 = VECTOR ( 'NONE', #223, 100.0000000000000000 ) ;
#616 = ORIENTED_EDGE ( 'NONE', *, *, #817, .T. ) ;
#617 = ADVANCED_FACE ( 'NONE', ( #162 ), #323, .F. ) ;
#618 = CARTESIAN_POINT ( 'NONE',  ( 15.73000000000000043, 15.73000000000000043, 0.7999999999999998224 ) ) ;
#619 = EDGE_CURVE ( 'NONE', #127, #719, #249, .T. ) ;
#620 = CARTESIAN_POINT ( 'NONE',  ( 7.349999999999997868, -0.8300000000000016254, 1.000000000000000000 ) ) ;
#621 = EDGE_LOOP ( 'NONE', ( #301, #956, #680, #183 ) ) ;
#622 = ADVANCED_FACE ( 'NONE', ( #158 ), #931, .F. ) ;
#623 = DIRECTION ( 'NONE',  ( 1.000000000000000000, 0.000000000000000000, 0.000000000000000000 ) ) ;
#624 = CARTESIAN_POINT ( 'NONE',  ( 15.14999999999999680, 15.15000000000000213, 1.000000000000000000 ) ) ;
#625 = EDGE_CURVE ( 'NONE', #330, #431, #636, .T. ) ;
#626 = ORIENTED_EDGE ( 'NONE', *, *, #911, .F. ) ;
#627 = ORIENTED_EDGE ( 'NONE', *, *, #501, .F. ) ;
#628 = DIRECTION ( 'NONE',  ( -1.171011678612600412E-16, -0.7071067811865475727, -0.7071067811865475727 ) ) ;
#629 = DIRECTION ( 'NONE',  ( 0.000000000000000000, 0.000000000000000000, -1.000000000000000000 ) ) ;
#630 = AXIS2_PLACEMENT_3D ( 'NONE', #750, #674, #839 ) ;
#631 = EDGE_CURVE ( 'NONE', #98, #607, #310, .T. ) ;
#632 = AXIS2_PLACEMENT_3D ( 'NONE', #716, #34, #525 ) ;
#633 = PRESENTATION_LAYER_ASSIGNMENT (  '', '', ( #169 ) ) ;
#634 = ORIENTED_EDGE ( 'NONE', *, *, #178, .T. ) ;
#635 = EDGE_LOOP ( 'NONE', ( #176, #805, #983, #15, #793, #307, #732, #164 ) ) ;
#636 = LINE ( 'NONE', #302, #960 ) ;
#637 = DIRECTION ( 'NONE',  ( 0.000000000000000000, 0.000000000000000000, -1.000000000000000000 ) ) ;
#638 = DIRECTION ( 'NONE',  ( 0.000000000000000000, 1.000000000000000000, 0.000000000000000000 ) ) ;
#639 = ORIENTED_EDGE ( 'NONE', *, *, #752, .T. ) ;
#640 = CARTESIAN_POINT ( 'NONE',  ( 0.000000000000000000, 0.000000000000000000, 1.000000000000000000 ) ) ;
#641 = DIRECTION ( 'NONE',  ( 5.855058393063011923E-17, 0.7071067811865487940, -0.7071067811865462405 ) ) ;
#642 = EDGE_LOOP ( 'NONE', ( #409, #626, #714, #551 ) ) ;
#643 = ORIENTED_EDGE ( 'NONE', *, *, #740, .F. ) ;
#644 = CARTESIAN_POINT ( 'NONE',  ( 15.54999999999999716, 16.55000000000000071, 0.4000000000000000222 ) ) ;
#645 = FACE_OUTER_BOUND ( 'NONE', #322, .T. ) ;
#646 = CLOSED_SHELL ( 'NONE', ( #17, #232, #77, #31, #617, #867, #734, #366, #121, #606, #520, #622, #37, #595, #210, #395, #542, #683, #477, #83, #569, #684, #996, #853, #698, #434, #757, #486, #528, #191, #377 ) ) ;
#647 = VECTOR ( 'NONE', #788, 100.0000000000000000 ) ;
#648 = EDGE_LOOP ( 'NONE', ( #664, #784 ) ) ;
#649 = CIRCLE ( 'NONE', #321, 1.000000000000000000 ) ;
#650 = ORIENTED_EDGE ( 'NONE', *, *, #771, .F. ) ;
#651 = DIRECTION ( 'NONE',  ( 0.000000000000000000, 1.000000000000000000, -0.000000000000000000 ) ) ;
#652 = LINE ( 'NONE', #424, #357 ) ;
#653 = DIRECTION ( 'NONE',  ( 0.000000000000000000, 1.000000000000000000, 0.000000000000000000 ) ) ;
#654 = ORIENTED_EDGE ( 'NONE', *, *, #555, .F. ) ;
#655 = LINE ( 'NONE', #194, #341 ) ;
#656 = DIRECTION ( 'NONE',  ( 0.000000000000000000, 1.000000000000000000, 0.000000000000000000 ) ) ;
#657 = EDGE_CURVE ( 'NONE', #755, #719, #790, .T. ) ;
#658 = CARTESIAN_POINT ( 'NONE',  ( -0.4500000000000003997, 14.84500000000000242, 0.000000000000000000 ) ) ;
#659 = VERTEX_POINT ( 'NONE', #709 ) ;
#660 = DIRECTION ( 'NONE',  ( -0.5773502691896258421, -0.5773502691896257311, 0.5773502691896258421 ) ) ;
#661 = DIRECTION ( 'NONE',  ( 1.000000000000000000, -8.280302987956117279E-17, 0.000000000000000000 ) ) ;
#662 = CARTESIAN_POINT ( 'NONE',  ( 15.14999999999999680, -0.4499999999999990119, 1.000000000000000000 ) ) ;
#663 = AXIS2_PLACEMENT_3D ( 'NONE', #624, #874, #18 ) ;
#664 = ORIENTED_EDGE ( 'NONE', *, *, #900, .F. ) ;
#665 = FACE_OUTER_BOUND ( 'NONE', #259, .T. ) ;
#666 = CARTESIAN_POINT ( 'NONE',  ( 0.000000000000000000, 0.000000000000000000, 0.000000000000000000 ) ) ;
#667 = DIRECTION ( 'NONE',  ( 0.000000000000000000, 1.000000000000000000, 0.000000000000000000 ) ) ;
#668 = VERTEX_POINT ( 'NONE', #11 ) ;
#669 = DIRECTION ( 'NONE',  ( -0.000000000000000000, -1.000000000000000000, 0.000000000000000000 ) ) ;
#670 = LINE ( 'NONE', #451, #731 ) ;
#671 = DIRECTION ( 'NONE',  ( 0.000000000000000000, 0.000000000000000000, -1.000000000000000000 ) ) ;
#672 = ORIENTED_EDGE ( 'NONE', *, *, #142, .T. ) ;
#673 = CARTESIAN_POINT ( 'NONE',  ( -1.030000000000004468, 15.73000000000000576, 0.4000000000000000222 ) ) ;
#674 = DIRECTION ( 'NONE',  ( 0.000000000000000000, 0.000000000000000000, 1.000000000000000000 ) ) ;
#675 = ORIENTED_EDGE ( 'NONE', *, *, #129, .T. ) ;
#676 = CARTESIAN_POINT ( 'NONE',  ( -0.8300000000000042899, 7.350000000000001421, 1.000000000000000000 ) ) ;
#677 = VECTOR ( 'NONE', #629, 100.0000000000000000 ) ;
#678 = DIRECTION ( 'NONE',  ( 0.5773502691896263972, -0.5773502691896245098, -0.5773502691896263972 ) ) ;
#679 = VECTOR ( 'NONE', #405, 100.0000000000000000 ) ;
#680 = ORIENTED_EDGE ( 'NONE', *, *, #400, .T. ) ;
#681 = LINE ( 'NONE', #286, #306 ) ;
#682 = CARTESIAN_POINT ( 'NONE',  ( -0.4500000000000003997, 15.15000000000000213, 1.000000000000000000 ) ) ;
#683 = ADVANCED_FACE ( 'NONE', ( #687 ), #22, .F. ) ;
#684 = ADVANCED_FACE ( 'NONE', ( #557 ), #317, .F. ) ;
#685 = APPLICATION_CONTEXT ( 'automotive_design' ) ;
#686 = VERTEX_POINT ( 'NONE', #860 ) ;
#687 = FACE_OUTER_BOUND ( 'NONE', #78, .T. ) ;
#688 = LINE ( 'NONE', #751, #240 ) ;
#689 = PRODUCT_RELATED_PRODUCT_CATEGORY ( 'part', '', ( #862 ) ) ;
#690 = VERTEX_POINT ( 'NONE', #769 ) ;
#691 = DIRECTION ( 'NONE',  ( 0.000000000000000000, 1.000000000000000000, -0.000000000000000000 ) ) ;
#692 = EDGE_CURVE ( 'NONE', #774, #539, #787, .T. ) ;
#693 = DIRECTION ( 'NONE',  ( 0.000000000000000000, 0.000000000000000000, -1.000000000000000000 ) ) ;
#694 = AXIS2_PLACEMENT_3D ( 'NONE', #117, #416, #277 ) ;
#695 = CARTESIAN_POINT ( 'NONE',  ( -1.850000000000001643, -0.8499999999999979794, 0.4000000000000000222 ) ) ;
#696 = ORIENTED_EDGE ( 'NONE', *, *, #625, .F. ) ;
#697 = DIRECTION ( 'NONE',  ( -1.000000000000000000, -1.888134395621014649E-16, 0.000000000000000000 ) ) ;
#698 = ADVANCED_FACE ( 'NONE', ( #775 ), #925, .F. ) ;
#699 = ORIENTED_EDGE ( 'NONE', *, *, #407, .F. ) ;
#700 = CARTESIAN_POINT ( 'NONE',  ( 15.14999999999999680, 15.45500000000000185, 1.000000000000000000 ) ) ;
#701 = FACE_BOUND ( 'NONE', #703, .T. ) ;
#702 = EDGE_LOOP ( 'NONE', ( #818, #427, #207, #157 ) ) ;
#703 = EDGE_LOOP ( 'NONE', ( #161, #392 ) ) ;
#704 = DIRECTION ( 'NONE',  ( 0.000000000000000000, 0.000000000000000000, 1.000000000000000000 ) ) ;
#705 = EDGE_CURVE ( 'NONE', #876, #800, #244, .T. ) ;
#706 = CARTESIAN_POINT ( 'NONE',  ( -0.4500000000000017875, -0.4499999999999990119, 0.000000000000000000 ) ) ;
#707 = CYLINDRICAL_SURFACE ( 'NONE', #40, 0.3049999999999990496 ) ;
#708 = EDGE_LOOP ( 'NONE', ( #466, #899, #534, #362 ) ) ;
#709 = CARTESIAN_POINT ( 'NONE',  ( 16.54999999999999716, 15.55000000000000249, 0.000000000000000000 ) ) ;
#710 = CARTESIAN_POINT ( 'NONE',  ( 15.14999999999999680, 14.84500000000000242, 1.000000000000000000 ) ) ;
#711 = AXIS2_PLACEMENT_3D ( 'NONE', #682, #985, #140 ) ;
#712 = EDGE_CURVE ( 'NONE', #241, #219, #465, .T. ) ;
#713 = AXIS2_PLACEMENT_3D ( 'NONE', #572, #260, #415 ) ;
#714 = ORIENTED_EDGE ( 'NONE', *, *, #333, .F. ) ;
#715 = ORIENTED_EDGE ( 'NONE', *, *, #657, .F. ) ;
#716 = CARTESIAN_POINT ( 'NONE',  ( -0.8500000000000007550, 15.55000000000000249, 0.4000000000000000222 ) ) ;
#717 = LINE ( 'NONE', #620, #761 ) ;
#718 = EDGE_CURVE ( 'NONE', #566, #720, #881, .T. ) ;
#719 = VERTEX_POINT ( 'NONE', #428 ) ;
#720 = VERTEX_POINT ( 'NONE', #644 ) ;
#721 = CARTESIAN_POINT ( 'NONE',  ( 16.54999999999999716, -1.849999999999998757, 0.000000000000000000 ) ) ;
#722 = LINE ( 'NONE', #199, #123 ) ;
#723 = ORIENTED_EDGE ( 'NONE', *, *, #631, .F. ) ;
#724 = ORIENTED_EDGE ( 'NONE', *, *, #342, .F. ) ;
#725 = CARTESIAN_POINT ( 'NONE',  ( -0.4500000000000017875, -0.4499999999999990119, 1.000000000000000000 ) ) ;
#726 = EDGE_CURVE ( 'NONE', #737, #875, #51, .T. ) ;
#727 = CARTESIAN_POINT ( 'NONE',  ( 15.73000000000000043, 15.73000000000000043, 0.4000000000000000222 ) ) ;
#728 = AXIS2_PLACEMENT_3D ( 'NONE', #745, #137, #381 ) ;
#729 = AXIS2_PLACEMENT_3D ( 'NONE', #662, #457, #211 ) ;
#730 = ORIENTED_EDGE ( 'NONE', *, *, #336, .T. ) ;
#731 = VECTOR ( 'NONE', #678, 100.0000000000000142 ) ;
#732 = ORIENTED_EDGE ( 'NONE', *, *, #543, .T. ) ;
#733 = DIRECTION ( 'NONE',  ( 1.000000000000000000, 1.888134395621014649E-16, 0.000000000000000000 ) ) ;
#734 = ADVANCED_FACE ( 'NONE', ( #738 ), #972, .F. ) ;
#735 = DIRECTION ( 'NONE',  ( 0.5773502691896256200, -0.5773502691896258421, 0.5773502691896257311 ) ) ;
#736 = DIRECTION ( 'NONE',  ( 0.000000000000000000, -1.000000000000000000, 0.000000000000000000 ) ) ;
#737 = VERTEX_POINT ( 'NONE', #640 ) ;
#738 = FACE_OUTER_BOUND ( 'NONE', #936, .T. ) ;
#739 = CARTESIAN_POINT ( 'NONE',  ( 4.556666666666663090, 10.14333333333333620, 6.386666666666665826 ) ) ;
#740 = EDGE_CURVE ( 'NONE', #810, #327, #649, .T. ) ;
#741 = DIRECTION ( 'NONE',  ( 0.000000000000000000, 1.000000000000000000, 0.000000000000000000 ) ) ;
#742 = EDGE_LOOP ( 'NONE', ( #627, #966, #675, #420 ) ) ;
#743 = CARTESIAN_POINT ( 'NONE',  ( -0.8500000000000007550, 15.55000000000000249, 0.000000000000000000 ) ) ;
#744 = CARTESIAN_POINT ( 'NONE',  ( -0.4500000000000003997, 14.84500000000000242, 1.000000000000000000 ) ) ;
#745 = CARTESIAN_POINT ( 'NONE',  ( 0.000000000000000000, 0.000000000000000000, 0.000000000000000000 ) ) ;
#746 = CIRCLE ( 'NONE', #72, 0.3049999999999990496 ) ;
#747 = ORIENTED_EDGE ( 'NONE', *, *, #692, .T. ) ;
#748 = FILL_AREA_STYLE ('',( #506 ) ) ;
#749 = AXIS2_PLACEMENT_3D ( 'NONE', #589, #208, #370 ) ;
#750 = CARTESIAN_POINT ( 'NONE',  ( -0.8500000000000020872, -0.8499999999999979794, 0.000000000000000000 ) ) ;
#751 = CARTESIAN_POINT ( 'NONE',  ( -0.8500000000000007550, 16.55000000000000426, 0.000000000000000000 ) ) ;
#752 = EDGE_CURVE ( 'NONE', #488, #246, #601, .T. ) ;
#753 = ORIENTED_EDGE ( 'NONE', *, *, #216, .T. ) ;
#754 = DIRECTION ( 'NONE',  ( 0.000000000000000000, -1.000000000000000000, 0.000000000000000000 ) ) ;
#755 = VERTEX_POINT ( 'NONE', #567 ) ;
#756 = DIRECTION ( 'NONE',  ( 0.000000000000000000, 0.000000000000000000, -1.000000000000000000 ) ) ;
#757 = ADVANCED_FACE ( 'NONE', ( #270 ), #807, .F. ) ;
#758 = CARTESIAN_POINT ( 'NONE',  ( -0.8300000000000042899, 15.53000000000000469, 1.000000000000000000 ) ) ;
#759 = ORIENTED_EDGE ( 'NONE', *, *, #798, .T. ) ;
#760 = DIRECTION ( 'NONE',  ( 0.000000000000000000, -1.000000000000000000, 0.000000000000000000 ) ) ;
#761 = VECTOR ( 'NONE', #463, 100.0000000000000000 ) ;
#762 = CARTESIAN_POINT ( 'NONE',  ( 16.54999999999999716, 15.55000000000000249, 0.4000000000000000222 ) ) ;
#763 = AXIS2_PLACEMENT_3D ( 'NONE', #904, #838, #449 ) ;
#764 = EDGE_CURVE ( 'NONE', #374, #597, #802, .T. ) ;
#765 = CIRCLE ( 'NONE', #425, 0.3049999999999990496 ) ;
#766 = ORIENTED_EDGE ( 'NONE', *, *, #910, .F. ) ;
#767 = SHAPE_DEFINITION_REPRESENTATION ( #423, #768 ) ;
#768 = ADVANCED_BREP_SHAPE_REPRESENTATION ( 'elevated-cell-base_61', ( #930, #8 ), #125 ) ;
#769 = CARTESIAN_POINT ( 'NONE',  ( -0.4500000000000017875, -0.1449999999999992961, 0.000000000000000000 ) ) ;
#770 = DIRECTION ( 'NONE',  ( 0.000000000000000000, 1.000000000000000000, 0.000000000000000000 ) ) ;
#771 = EDGE_CURVE ( 'NONE', #947, #774, #885, .T. ) ;
#772 = EDGE_CURVE ( 'NONE', #947, #875, #184, .T. ) ;
#773 = EDGE_LOOP ( 'NONE', ( #559, #383 ) ) ;
#774 = VERTEX_POINT ( 'NONE', #811 ) ;
#775 = FACE_OUTER_BOUND ( 'NONE', #702, .T. ) ;
#776 = LINE ( 'NONE', #179, #228 ) ;
#777 = EDGE_CURVE ( 'NONE', #755, #597, #963, .T. ) ;
#778 = ORIENTED_EDGE ( 'NONE', *, *, #282, .F. ) ;
#779 = PRODUCT_CONTEXT ( 'NONE', #685, 'mechanical' ) ;
#780 = CARTESIAN_POINT ( 'NONE',  ( -1.030000000000004468, 15.73000000000000576, 0.4000000000000000222 ) ) ;
#781 = CIRCLE ( 'NONE', #729, 0.3049999999999990496 ) ;
#782 = LINE ( 'NONE', #101, #531 ) ;
#783 = VECTOR ( 'NONE', #651, 100.0000000000000000 ) ;
#784 = ORIENTED_EDGE ( 'NONE', *, *, #791, .F. ) ;
#785 = CARTESIAN_POINT ( 'NONE',  ( 0.07349999999999998201, 0.07350000000000000977, 0.01000000000000000021 ) ) ;
#786 = ORIENTED_EDGE ( 'NONE', *, *, #932, .F. ) ;
#787 = LINE ( 'NONE', #1, #295 ) ;
#788 = DIRECTION ( 'NONE',  ( 1.000000000000000000, -1.508455196501571429E-16, 0.000000000000000000 ) ) ;
#789 = CARTESIAN_POINT ( 'NONE',  ( 16.54999999999999716, 16.55000000000000071, 0.000000000000000000 ) ) ;
#790 = LINE ( 'NONE', #618, #359 ) ;
#791 = EDGE_CURVE ( 'NONE', #505, #607, #864, .T. ) ;
#792 = LINE ( 'NONE', #710, #677 ) ;
#793 = ORIENTED_EDGE ( 'NONE', *, *, #66, .T. ) ;
#794 = ORIENTED_EDGE ( 'NONE', *, *, #712, .F. ) ;
#795 = LINE ( 'NONE', #106, #679 ) ;
#796 = CARTESIAN_POINT ( 'NONE',  ( 16.54999999999999716, -1.849999999999998757, 0.4000000000000000222 ) ) ;
#797 = AXIS2_PLACEMENT_3D ( 'NONE', #385, #852, #406 ) ;
#798 = EDGE_CURVE ( 'NONE', #499, #947, #655, .T. ) ;
#799 = AXIS2_PLACEMENT_3D ( 'NONE', #780, #623, #380 ) ;
#800 = VERTEX_POINT ( 'NONE', #120 ) ;
#801 = EDGE_LOOP ( 'NONE', ( #786, #138, #987, #928 ) ) ;
#802 = LINE ( 'NONE', #953, #783 ) ;
#803 = LINE ( 'NONE', #969, #419 ) ;
#804 = EDGE_CURVE ( 'NONE', #330, #810, #494, .T. ) ;
#805 = ORIENTED_EDGE ( 'NONE', *, *, #740, .T. ) ;
#806 = ORIENTED_EDGE ( 'NONE', *, *, #178, .F. ) ;
#807 = PLANE ( 'NONE',  #713 ) ;
#808 = CARTESIAN_POINT ( 'NONE',  ( -0.4500000000000003997, 15.45500000000000185, 1.000000000000000000 ) ) ;
#809 = ORIENTED_EDGE ( 'NONE', *, *, #172, .T. ) ;
#810 = VERTEX_POINT ( 'NONE', #894 ) ;
#811 = CARTESIAN_POINT ( 'NONE',  ( 14.69999999999999929, 14.70000000000000284, 0.000000000000000000 ) ) ;
#812 = LINE ( 'NONE', #808, #831 ) ;
#813 = AXIS2_PLACEMENT_3D ( 'NONE', #202, #596, #441 ) ;
#814 = VECTOR ( 'NONE', #262, 100.0000000000000000 ) ;
#815 = CARTESIAN_POINT ( 'NONE',  ( 16.54999999999999716, 16.55000000000000071, 0.4000000000000000222 ) ) ;
#816 = AXIS2_PLACEMENT_3D ( 'NONE', #612, #628, #942 ) ;
#817 = EDGE_CURVE ( 'NONE', #222, #903, #112, .T. ) ;
#818 = ORIENTED_EDGE ( 'NONE', *, *, #333, .T. ) ;
#819 = DIRECTION ( 'NONE',  ( -0.000000000000000000, -0.000000000000000000, 1.000000000000000000 ) ) ;
#820 = DIRECTION ( 'NONE',  ( 0.000000000000000000, 1.000000000000000000, 0.000000000000000000 ) ) ;
#821 = CARTESIAN_POINT ( 'NONE',  ( -1.850000000000001643, 16.55000000000000426, 0.4000000000000000222 ) ) ;
#822 = ORIENTED_EDGE ( 'NONE', *, *, #172, .F. ) ;
#823 = CARTESIAN_POINT ( 'NONE',  ( 14.69999999999999929, 2.775557561562891351E-15, 0.000000000000000000 ) ) ;
#824 = CARTESIAN_POINT ( 'NONE',  ( -0.4500000000000003997, 14.84500000000000242, 1.000000000000000000 ) ) ;
#825 = EDGE_CURVE ( 'NONE', #222, #800, #351, .T. ) ;
#826 = FACE_OUTER_BOUND ( 'NONE', #621, .T. ) ;
#827 = EDGE_LOOP ( 'NONE', ( #643, #64, #794, #994 ) ) ;
#828 = CARTESIAN_POINT ( 'NONE',  ( -0.8300000000000042899, -0.8300000000000001821, 1.000000000000000000 ) ) ;
#829 = LINE ( 'NONE', #530, #845 ) ;
#830 = CARTESIAN_POINT ( 'NONE',  ( 15.54999999999999716, 16.55000000000000071, 0.000000000000000000 ) ) ;
#831 = VECTOR ( 'NONE', #508, 100.0000000000000000 ) ;
#832 = AXIS2_PLACEMENT_3D ( 'NONE', #128, #346, #877 ) ;
#833 = VERTEX_POINT ( 'NONE', #476 ) ;
#834 = CARTESIAN_POINT ( 'NONE',  ( -1.030000000000004468, 15.73000000000000576, 0.7999999999999998224 ) ) ;
#835 = FACE_OUTER_BOUND ( 'NONE', #827, .T. ) ;
#836 = EDGE_CURVE ( 'NONE', #719, #800, #795, .T. ) ;
#837 = ORIENTED_EDGE ( 'NONE', *, *, #518, .T. ) ;
#838 = DIRECTION ( 'NONE',  ( -1.656060597591223456E-16, -1.000000000000000000, 0.000000000000000000 ) ) ;
#839 = DIRECTION ( 'NONE',  ( 0.000000000000000000, -1.000000000000000000, 0.000000000000000000 ) ) ;
#840 = ORIENTED_EDGE ( 'NONE', *, *, #160, .F. ) ;
#841 = CARTESIAN_POINT ( 'NONE',  ( 15.73000000000000043, 15.73000000000000043, 0.4000000000000000222 ) ) ;
#842 = LINE ( 'NONE', #919, #924 ) ;
#843 = EDGE_LOOP ( 'NONE', ( #144, #192, #355, #696 ) ) ;
#844 =( NAMED_UNIT ( * ) PLANE_ANGLE_UNIT ( ) SI_UNIT ( $, .RADIAN. ) );
#845 = VECTOR ( 'NONE', #221, 100.0000000000000000 ) ;
#846 = EDGE_CURVE ( 'NONE', #668, #316, #73, .T. ) ;
#847 = CARTESIAN_POINT ( 'NONE',  ( 15.14999999999999680, -0.7549999999999987832, 1.000000000000000000 ) ) ;
#848 = AXIS2_PLACEMENT_3D ( 'NONE', #546, #693, #231 ) ;
#849 = FACE_BOUND ( 'NONE', #521, .T. ) ;
#850 = VERTEX_POINT ( 'NONE', #980 ) ;
#851 = CARTESIAN_POINT ( 'NONE',  ( 15.73000000000000043, -1.030000000000000249, 0.4000000000000000222 ) ) ;
#852 = DIRECTION ( 'NONE',  ( 0.000000000000000000, 0.000000000000000000, -1.000000000000000000 ) ) ;
#853 = ADVANCED_FACE ( 'NONE', ( #515 ), #356, .F. ) ;
#854 = ORIENTED_EDGE ( 'NONE', *, *, #361, .F. ) ;
#855 = FACE_OUTER_BOUND ( 'NONE', #412, .T. ) ;
#856 = CARTESIAN_POINT ( 'NONE',  ( -0.4500000000000017875, -0.7549999999999987832, 1.000000000000000000 ) ) ;
#857 = EDGE_LOOP ( 'NONE', ( #45, #480, #114, #715 ) ) ;
#858 = VECTOR ( 'NONE', #532, 100.0000000000000000 ) ;
#859 = ORIENTED_EDGE ( 'NONE', *, *, #705, .T. ) ;
#860 = CARTESIAN_POINT ( 'NONE',  ( 15.14999999999999680, -0.1449999999999992961, 1.000000000000000000 ) ) ;
#861 = AXIS2_PLACEMENT_3D ( 'NONE', #195, #495, #656 ) ;
#862 = PRODUCT ( 'elevated-cell-base_61', 'elevated-cell-base_61', '', ( #779 ) ) ;
#863 = CARTESIAN_POINT ( 'NONE',  ( -0.8500000000000007550, 16.55000000000000426, 0.000000000000000000 ) ) ;
#864 = CIRCLE ( 'NONE', #832, 0.3049999999999997158 ) ;
#865 =( GEOMETRIC_REPRESENTATION_CONTEXT ( 3 ) GLOBAL_UNCERTAINTY_ASSIGNED_CONTEXT ( ( #182 ) ) GLOBAL_UNIT_ASSIGNED_CONTEXT ( ( #299, #65, #522 ) ) REPRESENTATION_CONTEXT ( 'NONE', 'WORKASPACE' ) );
#866 = FACE_OUTER_BOUND ( 'NONE', #225, .T. ) ;
#867 = ADVANCED_FACE ( 'NONE', ( #665 ), #145, .F. ) ;
#868 = CARTESIAN_POINT ( 'NONE',  ( 4.556666666666655985, 4.556666666666640886, 6.386666666666659609 ) ) ;
#869 = PLANE ( 'NONE',  #797 ) ;
#870 = ORIENTED_EDGE ( 'NONE', *, *, #253, .F. ) ;
#871 = EDGE_CURVE ( 'NONE', #990, #737, #69, .T. ) ;
#872 = EDGE_LOOP ( 'NONE', ( #923, #404, #961, #248 ) ) ;
#873 = DIRECTION ( 'NONE',  ( 1.000000000000000000, 0.000000000000000000, 0.000000000000000000 ) ) ;
#874 = DIRECTION ( 'NONE',  ( 0.000000000000000000, 0.000000000000000000, -1.000000000000000000 ) ) ;
#875 = VERTEX_POINT ( 'NONE', #375 ) ;
#876 = VERTEX_POINT ( 'NONE', #828 ) ;
#877 = DIRECTION ( 'NONE',  ( 0.000000000000000000, 1.000000000000000000, 0.000000000000000000 ) ) ;
#878 = CARTESIAN_POINT ( 'NONE',  ( 15.54999999999999716, 15.55000000000000249, 0.000000000000000000 ) ) ;
#879 = VECTOR ( 'NONE', #163, 100.0000000000000000 ) ;
#880 = EDGE_CURVE ( 'NONE', #193, #690, #403, .T. ) ;
#881 = CIRCLE ( 'NONE', #481, 1.000000000000000888 ) ;
#882 = MECHANICAL_DESIGN_GEOMETRIC_PRESENTATION_REPRESENTATION (  '', ( #169 ), #865 ) ;
#883 = CARTESIAN_POINT ( 'NONE',  ( 14.69999999999999929, 2.775557561562891351E-15, 1.000000000000000000 ) ) ;
#884 = EDGE_LOOP ( 'NONE', ( #234, #809 ) ) ;
#885 = LINE ( 'NONE', #489, #502 ) ;
#886 = LINE ( 'NONE', #847, #304 ) ;
#887 = CARTESIAN_POINT ( 'NONE',  ( -0.4500000000000003997, 15.15000000000000213, 1.000000000000000000 ) ) ;
#888 = ORIENTED_EDGE ( 'NONE', *, *, #82, .F. ) ;
#889 = CARTESIAN_POINT ( 'NONE',  ( 15.73000000000000043, 15.73000000000000043, 0.7999999999999998224 ) ) ;
#890 = DIRECTION ( 'NONE',  ( 0.000000000000000000, 1.000000000000000000, 0.000000000000000000 ) ) ;
#891 = EDGE_CURVE ( 'NONE', #350, #127, #444, .T. ) ;
#892 = DIRECTION ( 'NONE',  ( 0.000000000000000000, 0.000000000000000000, -1.000000000000000000 ) ) ;
#893 = ORIENTED_EDGE ( 'NONE', *, *, #932, .T. ) ;
#894 = CARTESIAN_POINT ( 'NONE',  ( -0.8500000000000007550, -1.849999999999996092, 0.000000000000000000 ) ) ;
#895 = DIRECTION ( 'NONE',  ( -1.000000000000000000, 1.656060597591223456E-16, 0.000000000000000000 ) ) ;
#896 = VECTOR ( 'NONE', #503, 100.0000000000000000 ) ;
#897 = FACE_OUTER_BOUND ( 'NONE', #872, .T. ) ;
#898 = VECTOR ( 'NONE', #669, 100.0000000000000000 ) ;
#899 = ORIENTED_EDGE ( 'NONE', *, *, #491, .F. ) ;
#900 = EDGE_CURVE ( 'NONE', #607, #505, #602, .T. ) ;
#901 = DIRECTION ( 'NONE',  ( 0.000000000000000000, -1.000000000000000000, 0.000000000000000000 ) ) ;
#902 = CARTESIAN_POINT ( 'NONE',  ( 0.000000000000000000, 14.69999999999999929, 0.000000000000000000 ) ) ;
#903 = VERTEX_POINT ( 'NONE', #673 ) ;
#904 = CARTESIAN_POINT ( 'NONE',  ( 15.73000000000000043, 15.73000000000000043, 0.4000000000000000222 ) ) ;
#905 = CARTESIAN_POINT ( 'NONE',  ( 15.14999999999999680, 14.84500000000000242, 0.000000000000000000 ) ) ;
#906 = CARTESIAN_POINT ( 'NONE',  ( 15.73000000000000043, -1.030000000000000249, 0.4000000000000000222 ) ) ;
#907 = EDGE_LOOP ( 'NONE', ( #203, #997, #319, #414 ) ) ;
#908 = DIRECTION ( 'NONE',  ( 0.000000000000000000, 0.000000000000000000, -1.000000000000000000 ) ) ;
#909 = DIRECTION ( 'NONE',  ( 0.000000000000000000, -1.000000000000000000, 0.000000000000000000 ) ) ;
#910 = EDGE_CURVE ( 'NONE', #246, #193, #681, .T. ) ;
#911 = EDGE_CURVE ( 'NONE', #537, #876, #991, .T. ) ;
#912 = VECTOR ( 'NONE', #187, 100.0000000000000000 ) ;
#913 = VECTOR ( 'NONE', #354, 100.0000000000000000 ) ;
#914 = EDGE_LOOP ( 'NONE', ( #475, #36, #132, #941 ) ) ;
#915 = LINE ( 'NONE', #526, #974 ) ;
#916 = EDGE_CURVE ( 'NONE', #488, #690, #75, .T. ) ;
#917 = ORIENTED_EDGE ( 'NONE', *, *, #836, .F. ) ;
#918 = CARTESIAN_POINT ( 'NONE',  ( 15.73000000000000043, 15.73000000000000043, 0.4000000000000000222 ) ) ;
#919 = CARTESIAN_POINT ( 'NONE',  ( 14.69999999999999929, 14.70000000000000284, 1.000000000000000000 ) ) ;
#920 = ORIENTED_EDGE ( 'NONE', *, *, #976, .F. ) ;
#921 = CYLINDRICAL_SURFACE ( 'NONE', #453, 1.000000000000000222 ) ;
#922 = FACE_BOUND ( 'NONE', #339, .T. ) ;
#923 = ORIENTED_EDGE ( 'NONE', *, *, #871, .T. ) ;
#924 = VECTOR ( 'NONE', #609, 100.0000000000000000 ) ;
#925 = PLANE ( 'NONE',  #816 ) ;
#926 = COLOUR_RGB ( '',0.7921568627450980005, 0.8196078431372548767, 0.9333333333333333481 ) ;
#927 = CARTESIAN_POINT ( 'NONE',  ( -0.8500000000000007550, -1.849999999999996092, 0.000000000000000000 ) ) ;
#928 = ORIENTED_EDGE ( 'NONE', *, *, #272, .F. ) ;
#929 = ORIENTED_EDGE ( 'NONE', *, *, #518, .F. ) ;
#930 = MANIFOLD_SOLID_BREP ( 'Fillet1', #646 ) ;
#931 = PLANE ( 'NONE',  #944 ) ;
#932 = EDGE_CURVE ( 'NONE', #962, #686, #765, .T. ) ;
#933 = LINE ( 'NONE', #9, #647 ) ;
#934 = ORIENTED_EDGE ( 'NONE', *, *, #382, .T. ) ;
#935 = DIRECTION ( 'NONE',  ( 1.000000000000000000, 0.000000000000000000, -0.000000000000000000 ) ) ;
#936 = EDGE_LOOP ( 'NONE', ( #582, #369, #33, #565 ) ) ;
#937 = DIRECTION ( 'NONE',  ( -1.508455196501571429E-16, -1.000000000000000000, 0.000000000000000000 ) ) ;
#938 = FACE_OUTER_BOUND ( 'NONE', #635, .T. ) ;
#939 = ORIENTED_EDGE ( 'NONE', *, *, #726, .F. ) ;
#940 = CIRCLE ( 'NONE', #418, 1.000000000000000000 ) ;
#941 = ORIENTED_EDGE ( 'NONE', *, *, #348, .T. ) ;
#942 = DIRECTION ( 'NONE',  ( 1.000000000000000000, -1.656060597591223456E-16, 0.000000000000000000 ) ) ;
#943 = DIRECTION ( 'NONE',  ( -1.000000000000000000, 1.508455196501571429E-16, 0.000000000000000000 ) ) ;
#944 = AXIS2_PLACEMENT_3D ( 'NONE', #472, #937, #398 ) ;
#945 = VECTOR ( 'NONE', #760, 100.0000000000000000 ) ;
#946 = EDGE_CURVE ( 'NONE', #350, #755, #213, .T. ) ;
#947 = VERTEX_POINT ( 'NONE', #823 ) ;
#948 = ORIENTED_EDGE ( 'NONE', *, *, #440, .F. ) ;
#949 = DIRECTION ( 'NONE',  ( 0.000000000000000000, 0.000000000000000000, -1.000000000000000000 ) ) ;
#950 = CYLINDRICAL_SURFACE ( 'NONE', #663, 0.3049999999999997158 ) ;
#951 = ORIENTED_EDGE ( 'NONE', *, *, #880, .T. ) ;
#952 = ORIENTED_EDGE ( 'NONE', *, *, #19, .T. ) ;
#953 = CARTESIAN_POINT ( 'NONE',  ( 15.52999999999999936, 7.350000000000001421, 1.000000000000000000 ) ) ;
#954 = DIRECTION ( 'NONE',  ( -1.000000000000000000, 8.280302987956117279E-17, 0.000000000000000000 ) ) ;
#955 = ORIENTED_EDGE ( 'NONE', *, *, #817, .F. ) ;
#956 = ORIENTED_EDGE ( 'NONE', *, *, #764, .T. ) ;
#957 = CARTESIAN_POINT ( 'NONE',  ( -0.8500000000000020872, -0.8499999999999979794, 0.000000000000000000 ) ) ;
#958 = CARTESIAN_POINT ( 'NONE',  ( 15.73000000000000043, -1.030000000000000249, 0.7999999999999998224 ) ) ;
#959 = AXIS2_PLACEMENT_3D ( 'NONE', #536, #250, #97 ) ;
#960 = VECTOR ( 'NONE', #238, 100.0000000000000000 ) ;
#961 = ORIENTED_EDGE ( 'NONE', *, *, #388, .F. ) ;
#962 = VERTEX_POINT ( 'NONE', #432 ) ;
#963 = LINE ( 'NONE', #889, #261 ) ;
#964 = CARTESIAN_POINT ( 'NONE',  ( 15.73000000000000043, -1.030000000000000249, 0.4000000000000000222 ) ) ;
#965 = PRODUCT_DEFINITION ( 'UNKNOWN', '', #26, #560 ) ;
#966 = ORIENTED_EDGE ( 'NONE', *, *, #12, .T. ) ;
#967 = ORIENTED_EDGE ( 'NONE', *, *, #871, .F. ) ;
#968 = DIRECTION ( 'NONE',  ( 0.000000000000000000, 1.000000000000000000, -0.000000000000000000 ) ) ;
#969 = CARTESIAN_POINT ( 'NONE',  ( 0.000000000000000000, 0.000000000000000000, 0.000000000000000000 ) ) ;
#970 = LINE ( 'NONE', #86, #613 ) ;
#971 = ORIENTED_EDGE ( 'NONE', *, *, #946, .F. ) ;
#972 = PLANE ( 'NONE',  #107 ) ;
#973 = CARTESIAN_POINT ( 'NONE',  ( 7.349999999999999645, 15.53000000000000291, 1.000000000000000000 ) ) ;
#974 = VECTOR ( 'NONE', #146, 100.0000000000000000 ) ;
#975 = AXIS2_PLACEMENT_3D ( 'NONE', #363, #139, #437 ) ;
#976 = EDGE_CURVE ( 'NONE', #833, #268, #586, .T. ) ;
#977 = CARTESIAN_POINT ( 'NONE',  ( 15.14999999999999680, 14.84500000000000242, 1.000000000000000000 ) ) ;
#978 = VECTOR ( 'NONE', #421, 100.0000000000000000 ) ;
#979 = EDGE_LOOP ( 'NONE', ( #230, #759, #154, #634 ) ) ;
#980 = CARTESIAN_POINT ( 'NONE',  ( -0.4500000000000003997, 15.45500000000000185, 1.000000000000000000 ) ) ;
#981 = CARTESIAN_POINT ( 'NONE',  ( 15.14999999999999680, -0.1449999999999992961, 0.000000000000000000 ) ) ;
#982 = CARTESIAN_POINT ( 'NONE',  ( 15.14999999999999680, 15.45500000000000185, 1.000000000000000000 ) ) ;
#983 = ORIENTED_EDGE ( 'NONE', *, *, #501, .T. ) ;
#984 = DIRECTION ( 'NONE',  ( 0.000000000000000000, -1.000000000000000000, 0.000000000000000000 ) ) ;
#985 = DIRECTION ( 'NONE',  ( 0.000000000000000000, 0.000000000000000000, -1.000000000000000000 ) ) ;
#986 = DIRECTION ( 'NONE',  ( 0.000000000000000000, 0.000000000000000000, 1.000000000000000000 ) ) ;
#987 = ORIENTED_EDGE ( 'NONE', *, *, #160, .T. ) ;
#988 = DIRECTION ( 'NONE',  ( 0.7071067811865475727, 0.000000000000000000, -0.7071067811865475727 ) ) ;
#989 = CARTESIAN_POINT ( 'NONE',  ( 15.14999999999999680, -0.7549999999999987832, 0.000000000000000000 ) ) ;
#990 = VERTEX_POINT ( 'NONE', #545 ) ;
#991 = LINE ( 'NONE', #676, #945 ) ;
#992 = AXIS2_PLACEMENT_3D ( 'NONE', #611, #538, #697 ) ;
#993 = CARTESIAN_POINT ( 'NONE',  ( 14.69999999999999929, 14.70000000000000284, 0.000000000000000000 ) ) ;
#994 = ORIENTED_EDGE ( 'NONE', *, *, #12, .F. ) ;
#995 = FACE_OUTER_BOUND ( 'NONE', #742, .T. ) ;
#996 = ADVANCED_FACE ( 'NONE', ( #165 ), #379, .F. ) ;
#997 = ORIENTED_EDGE ( 'NONE', *, *, #772, .F. ) ;
ENDSEC;
END-ISO-10303-21;
