ISO-10303-21;
HEADER;
FILE_DESCRIPTION (( 'STEP AP214' ),
    '1' );
FILE_NAME ('pillar-support_60.STEP',
    '2026-06-17T01:45:06',
    ( '' ),
    ( '' ),
    'SwSTEP 2.0',
    'SolidWorks 2023',
    '' );
FILE_SCHEMA (( 'AUTOMOTIVE_DESIGN' ));
ENDSEC;

DATA;
#1 = ORIENTED_EDGE ( 'NONE', *, *, #240, .F. ) ;
#2 = FACE_OUTER_BOUND ( 'NONE', #458, .T. ) ;
#3 =( LENGTH_UNIT ( ) NAMED_UNIT ( * ) SI_UNIT ( .CENTI., .METRE. ) );
#4 = COLOUR_RGB ( '',0.6941176470588235059, 0.09803921568627450844, 0.09803921568627450844 ) ;
#5 = ORIENTED_EDGE ( 'NONE', *, *, #365, .T. ) ;
#6 = CARTESIAN_POINT ( 'NONE',  ( -0.2399999999999996303, -0.3149999999999998912, 2.390000000000000568 ) ) ;
#7 = VECTOR ( 'NONE', #163, 100.0000000000000000 ) ;
#8 = ORIENTED_EDGE ( 'NONE', *, *, #916, .T. ) ;
#9 = DIRECTION ( 'NONE',  ( 0.000000000000000000, 0.000000000000000000, -1.000000000000000000 ) ) ;
#10 = AXIS2_PLACEMENT_3D ( 'NONE', #329, #49, #399 ) ;
#11 = FILL_AREA_STYLE ('',( #284 ) ) ;
#12 = EDGE_CURVE ( 'NONE', #1125, #154, #579, .T. ) ;
#13 = AXIS2_PLACEMENT_3D ( 'NONE', #296, #645, #1000 ) ;
#14 = VERTEX_POINT ( 'NONE', #53 ) ;
#15 = FACE_OUTER_BOUND ( 'NONE', #690, .T. ) ;
#16 = ORIENTED_EDGE ( 'NONE', *, *, #608, .T. ) ;
#17 = SURFACE_SIDE_STYLE ('',( #816 ) ) ;
#18 =( NAMED_UNIT ( * ) SI_UNIT ( $, .STERADIAN. ) SOLID_ANGLE_UNIT ( ) );
#19 = EDGE_CURVE ( 'NONE', #541, #973, #57, .T. ) ;
#20 = CARTESIAN_POINT ( 'NONE',  ( 0.2400000000000003797, 0.3149999999999998912, 2.630000000000000338 ) ) ;
#21 = VERTEX_POINT ( 'NONE', #40 ) ;
#22 =( NAMED_UNIT ( * ) SI_UNIT ( $, .STERADIAN. ) SOLID_ANGLE_UNIT ( ) );
#23 = DIRECTION ( 'NONE',  ( 0.1415218808486789215, 0.1415218808486787549, -0.9797668674139294875 ) ) ;
#24 = CIRCLE ( 'NONE', #510, 0.3000000000000000444 ) ;
#25 = LINE ( 'NONE', #807, #495 ) ;
#26 = ORIENTED_EDGE ( 'NONE', *, *, #81, .T. ) ;
#27 = CARTESIAN_POINT ( 'NONE',  ( 0.2400000000000003797, -0.3149999999999998912, 2.390000000000000568 ) ) ;
#28 = PLANE ( 'NONE',  #410 ) ;
#29 = VECTOR ( 'NONE', #928, 100.0000000000000000 ) ;
#30 = VECTOR ( 'NONE', #212, 100.0000000000000000 ) ;
#31 = DIRECTION ( 'NONE',  ( -1.000000000000000000, 0.000000000000000000, 0.000000000000000000 ) ) ;
#32 = EDGE_CURVE ( 'NONE', #134, #521, #689, .T. ) ;
#33 = ORIENTED_EDGE ( 'NONE', *, *, #966, .F. ) ;
#34 = FACE_OUTER_BOUND ( 'NONE', #1046, .T. ) ;
#35 = EDGE_LOOP ( 'NONE', ( #267, #669 ) ) ;
#36 = ORIENTED_EDGE ( 'NONE', *, *, #629, .F. ) ;
#37 = PLANE ( 'NONE',  #953 ) ;
#38 = PRODUCT_DEFINITION ( 'UNKNOWN', '', #800, #865 ) ;
#39 = DIRECTION ( 'NONE',  ( 1.000000000000000000, 9.035018104045874392E-17, -0.000000000000000000 ) ) ;
#40 = CARTESIAN_POINT ( 'NONE',  ( -0.5750000000000000666, 0.5749999999999999556, 5.000000000000000000 ) ) ;
#41 = VECTOR ( 'NONE', #191, 100.0000000000000000 ) ;
#42 = DIRECTION ( 'NONE',  ( 1.000000000000000000, 0.000000000000000000, 0.000000000000000000 ) ) ;
#43 = VERTEX_POINT ( 'NONE', #404 ) ;
#44 = DIRECTION ( 'NONE',  ( 1.000000000000000000, 0.000000000000000000, 0.000000000000000000 ) ) ;
#45 = CARTESIAN_POINT ( 'NONE',  ( 0.8349999999999999645, 0.2400000000000000744, 2.390000000000000568 ) ) ;
#46 = VECTOR ( 'NONE', #1093, 100.0000000000000000 ) ;
#47 = EDGE_CURVE ( 'NONE', #182, #481, #848, .T. ) ;
#48 = ORIENTED_EDGE ( 'NONE', *, *, #1097, .T. ) ;
#49 = DIRECTION ( 'NONE',  ( 0.000000000000000000, 0.000000000000000000, -1.000000000000000000 ) ) ;
#50 = ORIENTED_EDGE ( 'NONE', *, *, #75, .F. ) ;
#51 = CARTESIAN_POINT ( 'NONE',  ( 0.8349999999999999645, 0.2400000000000000744, 2.630000000000000338 ) ) ;
#52 = DIRECTION ( 'NONE',  ( 0.000000000000000000, -1.000000000000000000, -0.000000000000000000 ) ) ;
#53 = CARTESIAN_POINT ( 'NONE',  ( 0.2400000000000003797, -0.5749999999999999556, 2.630000000000000338 ) ) ;
#54 = ORIENTED_EDGE ( 'NONE', *, *, #756, .F. ) ;
#55 = LINE ( 'NONE', #313, #314 ) ;
#56 = DIRECTION ( 'NONE',  ( -1.000000000000000000, -1.508455196501571429E-16, 0.000000000000000000 ) ) ;
#57 = LINE ( 'NONE', #965, #548 ) ;
#58 = ORIENTED_EDGE ( 'NONE', *, *, #339, .T. ) ;
#59 = ADVANCED_FACE ( 'NONE', ( #242, #327 ), #678, .T. ) ;
#60 = DIRECTION ( 'NONE',  ( 0.000000000000000000, 0.000000000000000000, -1.000000000000000000 ) ) ;
#61 = CARTESIAN_POINT ( 'NONE',  ( -0.2399999999999996303, 0.5749999999999999556, 5.000000000000000000 ) ) ;
#62 = CARTESIAN_POINT ( 'NONE',  ( 0.2400000000000003797, 0.3149999999999998912, 5.000000000000000000 ) ) ;
#63 = VECTOR ( 'NONE', #482, 100.0000000000000000 ) ;
#64 = VERTEX_POINT ( 'NONE', #1051 ) ;
#65 = DIRECTION ( 'NONE',  ( -0.000000000000000000, 0.000000000000000000, -1.000000000000000000 ) ) ;
#66 = MECHANICAL_DESIGN_GEOMETRIC_PRESENTATION_REPRESENTATION (  '', ( #244 ), #225 ) ;
#67 = ADVANCED_FACE ( 'NONE', ( #411 ), #591, .F. ) ;
#68 = SURFACE_STYLE_USAGE ( .BOTH. , #427 ) ;
#69 = FILL_AREA_STYLE_COLOUR ( '', #970 ) ;
#70 = ORIENTED_EDGE ( 'NONE', *, *, #878, .T. ) ;
#71 = PLANE ( 'NONE',  #402 ) ;
#72 = PRESENTATION_STYLE_ASSIGNMENT (( #68 ) ) ;
#73 = EDGE_CURVE ( 'NONE', #490, #1079, #774, .T. ) ;
#74 = FACE_BOUND ( 'NONE', #484, .T. ) ;
#75 = EDGE_CURVE ( 'NONE', #973, #254, #152, .T. ) ;
#76 = ORIENTED_EDGE ( 'NONE', *, *, #1025, .T. ) ;
#77 = CARTESIAN_POINT ( 'NONE',  ( -0.3150000000000004463, 0.3150000000000005573, 10.20000000000000995 ) ) ;
#78 = AXIS2_PLACEMENT_3D ( 'NONE', #299, #633, #1001 ) ;
#79 = DIRECTION ( 'NONE',  ( 0.000000000000000000, 1.000000000000000000, 0.000000000000000000 ) ) ;
#80 = CARTESIAN_POINT ( 'NONE',  ( 0.000000000000000000, 0.000000000000000000, 11.39999999999999858 ) ) ;
#81 = EDGE_CURVE ( 'NONE', #1073, #389, #1122, .T. ) ;
#82 = VECTOR ( 'NONE', #698, 100.0000000000000000 ) ;
#83 = ORIENTED_EDGE ( 'NONE', *, *, #378, .F. ) ;
#84 = DIRECTION ( 'NONE',  ( 0.000000000000000000, -1.000000000000000000, 0.000000000000000000 ) ) ;
#85 = VECTOR ( 'NONE', #142, 100.0000000000000000 ) ;
#86 = CARTESIAN_POINT ( 'NONE',  ( 0.000000000000000000, 0.3000000000000000444, 0.000000000000000000 ) ) ;
#87 = VECTOR ( 'NONE', #895, 100.0000000000000000 ) ;
#88 = VERTEX_POINT ( 'NONE', #1044 ) ;
#89 = CARTESIAN_POINT ( 'NONE',  ( 0.2400000000000003797, -0.3149999999999998912, 5.000000000000000000 ) ) ;
#90 = EDGE_LOOP ( 'NONE', ( #674, #157, #945, #189 ) ) ;
#91 = FACE_OUTER_BOUND ( 'NONE', #650, .T. ) ;
#92 = CARTESIAN_POINT ( 'NONE',  ( -0.5750000000000000666, 0.5749999999999999556, 5.000000000000000000 ) ) ;
#93 = ORIENTED_EDGE ( 'NONE', *, *, #1158, .F. ) ;
#94 = CARTESIAN_POINT ( 'NONE',  ( 0.2400000000000003797, 0.5749999999999999556, 5.000000000000000000 ) ) ;
#95 = EDGE_CURVE ( 'NONE', #1082, #521, #683, .T. ) ;
#96 = ORIENTED_EDGE ( 'NONE', *, *, #601, .T. ) ;
#97 = CARTESIAN_POINT ( 'NONE',  ( 0.3149999999999997802, -0.3149999999999999467, 5.000000000000000000 ) ) ;
#98 = LINE ( 'NONE', #918, #874 ) ;
#99 = EDGE_LOOP ( 'NONE', ( #128, #139, #1028, #1094, #1159, #956, #174, #1006 ) ) ;
#100 = DIRECTION ( 'NONE',  ( 9.035018104045874392E-17, 1.000000000000000000, 0.000000000000000000 ) ) ;
#101 = VECTOR ( 'NONE', #44, 100.0000000000000000 ) ;
#102 = VERTEX_POINT ( 'NONE', #249 ) ;
#103 = CARTESIAN_POINT ( 'NONE',  ( -0.5750000000000000666, -0.5749999999999999556, 12.00000000000000000 ) ) ;
#104 = EDGE_CURVE ( 'NONE', #389, #967, #782, .T. ) ;
#105 = DIRECTION ( 'NONE',  ( -1.000000000000000000, 0.000000000000000000, 0.000000000000000000 ) ) ;
#106 = ORIENTED_EDGE ( 'NONE', *, *, #365, .F. ) ;
#107 = DIRECTION ( 'NONE',  ( -1.000000000000000000, -1.508455196501571676E-16, -0.000000000000000000 ) ) ;
#108 = EDGE_LOOP ( 'NONE', ( #850, #368, #757, #866 ) ) ;
#109 = LINE ( 'NONE', #725, #30 ) ;
#110 = DIRECTION ( 'NONE',  ( 0.000000000000000000, 1.000000000000000000, 0.000000000000000000 ) ) ;
#111 = DIRECTION ( 'NONE',  ( -1.000000000000000000, 0.000000000000000000, 0.000000000000000000 ) ) ;
#112 = ORIENTED_EDGE ( 'NONE', *, *, #652, .T. ) ;
#113 = PLANE ( 'NONE',  #663 ) ;
#114 = DIRECTION ( 'NONE',  ( 0.000000000000000000, -1.000000000000000000, 0.000000000000000000 ) ) ;
#115 = VECTOR ( 'NONE', #499, 100.0000000000000000 ) ;
#116 = EDGE_CURVE ( 'NONE', #815, #14, #1063, .T. ) ;
#117 = CARTESIAN_POINT ( 'NONE',  ( 0.2400000000000003797, 0.3149999999999998912, 2.390000000000000568 ) ) ;
#118 = ORIENTED_EDGE ( 'NONE', *, *, #1121, .F. ) ;
#119 = PRESENTATION_STYLE_ASSIGNMENT (( #198 ) ) ;
#120 = DIRECTION ( 'NONE',  ( 0.000000000000000000, 1.000000000000000000, 0.000000000000000000 ) ) ;
#121 =( GEOMETRIC_REPRESENTATION_CONTEXT ( 3 ) GLOBAL_UNCERTAINTY_ASSIGNED_CONTEXT ( ( #275 ) ) GLOBAL_UNIT_ASSIGNED_CONTEXT ( ( #431, #1068, #611 ) ) REPRESENTATION_CONTEXT ( 'NONE', 'WORKASPACE' ) );
#122 = LINE ( 'NONE', #1124, #858 ) ;
#123 = EDGE_LOOP ( 'NONE', ( #907, #1041, #337, #630, #106, #614, #665, #217 ) ) ;
#124 = LINE ( 'NONE', #1111, #350 ) ;
#125 = LINE ( 'NONE', #1030, #1002 ) ;
#126 = VERTEX_POINT ( 'NONE', #719 ) ;
#127 = CARTESIAN_POINT ( 'NONE',  ( 3.686287386450715076E-16, 0.5749999999999999556, 2.630000000000000338 ) ) ;
#128 = ORIENTED_EDGE ( 'NONE', *, *, #116, .F. ) ;
#129 = CARTESIAN_POINT ( 'NONE',  ( -0.2399999999999996303, -0.3149999999999998912, 2.630000000000000338 ) ) ;
#130 = CARTESIAN_POINT ( 'NONE',  ( 0.2400000000000003797, -0.5749999999999999556, 2.630000000000000338 ) ) ;
#131 = EDGE_LOOP ( 'NONE', ( #803, #276, #770, #453, #919, #501, #169, #370 ) ) ;
#132 = VECTOR ( 'NONE', #340, 100.0000000000000000 ) ;
#133 = CARTESIAN_POINT ( 'NONE',  ( 0.3149999999999997802, 0.3149999999999998912, 5.000000000000000000 ) ) ;
#134 = VERTEX_POINT ( 'NONE', #987 ) ;
#135 = DIRECTION ( 'NONE',  ( 0.000000000000000000, 0.000000000000000000, 1.000000000000000000 ) ) ;
#136 = DIRECTION ( 'NONE',  ( 0.000000000000000000, 1.000000000000000000, -0.000000000000000000 ) ) ;
#137 = ADVANCED_FACE ( 'NONE', ( #693 ), #805, .F. ) ;
#138 = VECTOR ( 'NONE', #65, 100.0000000000000000 ) ;
#139 = ORIENTED_EDGE ( 'NONE', *, *, #214, .T. ) ;
#140 = VECTOR ( 'NONE', #715, 100.0000000000000000 ) ;
#141 = COLOUR_RGB ( '',0.6941176470588235059, 0.09803921568627450844, 0.09803921568627450844 ) ;
#142 = DIRECTION ( 'NONE',  ( 0.000000000000000000, 0.000000000000000000, 1.000000000000000000 ) ) ;
#143 = VERTEX_POINT ( 'NONE', #1077 ) ;
#144 = LINE ( 'NONE', #577, #1031 ) ;
#145 = PLANE ( 'NONE',  #688 ) ;
#146 = ORIENTED_EDGE ( 'NONE', *, *, #710, .F. ) ;
#147 = ADVANCED_FACE ( 'NONE', ( #74, #528 ), #168, .T. ) ;
#148 = VECTOR ( 'NONE', #487, 100.0000000000000000 ) ;
#149 = VERTEX_POINT ( 'NONE', #628 ) ;
#150 = DIRECTION ( 'NONE',  ( 0.000000000000000000, 0.000000000000000000, 1.000000000000000000 ) ) ;
#151 = DIRECTION ( 'NONE',  ( 0.000000000000000000, 0.000000000000000000, -1.000000000000000000 ) ) ;
#152 = LINE ( 'NONE', #229, #754 ) ;
#153 = ADVANCED_FACE ( 'NONE', ( #885 ), #356, .T. ) ;
#154 = VERTEX_POINT ( 'NONE', #185 ) ;
#155 = DIRECTION ( 'NONE',  ( 1.000000000000000000, 0.000000000000000000, 0.000000000000000000 ) ) ;
#156 = CLOSED_SHELL ( 'NONE', ( #161, #285, #570, #488, #318, #452, #405, #923, #67, #1150, #172, #940, #439, #1064, #59, #137, #372, #432, #279, #825, #898, #540, #995, #288, #582, #1129, #726, #596, #704, #147, #635, #480, #808, #153, #646, #397 ) ) ;
#157 = ORIENTED_EDGE ( 'NONE', *, *, #116, .T. ) ;
#158 = DIRECTION ( 'NONE',  ( 0.000000000000000000, -1.000000000000000000, 0.000000000000000000 ) ) ;
#159 = CIRCLE ( 'NONE', #272, 0.2400000000000000189 ) ;
#160 = AXIS2_PLACEMENT_3D ( 'NONE', #876, #787, #1152 ) ;
#161 = ADVANCED_FACE ( 'NONE', ( #881 ), #612, .F. ) ;
#162 = VERTEX_POINT ( 'NONE', #1151 ) ;
#163 = DIRECTION ( 'NONE',  ( 0.000000000000000000, 0.000000000000000000, -1.000000000000000000 ) ) ;
#164 = CIRCLE ( 'NONE', #861, 0.3000000000000000444 ) ;
#165 = EDGE_CURVE ( 'NONE', #490, #882, #363, .T. ) ;
#166 = ORIENTED_EDGE ( 'NONE', *, *, #559, .T. ) ;
#167 = CARTESIAN_POINT ( 'NONE',  ( 0.5750000000000000666, -0.2399999999999997691, 5.000000000000000000 ) ) ;
#168 = PLANE ( 'NONE',  #1048 ) ;
#169 = ORIENTED_EDGE ( 'NONE', *, *, #253, .F. ) ;
#170 = DIRECTION ( 'NONE',  ( -0.000000000000000000, 0.9897283568439538826, -0.1429607626552378830 ) ) ;
#171 = DIRECTION ( 'NONE',  ( 0.000000000000000000, 0.000000000000000000, 1.000000000000000000 ) ) ;
#172 = ADVANCED_FACE ( 'NONE', ( #1157 ), #178, .F. ) ;
#173 = DIRECTION ( 'NONE',  ( 0.000000000000000000, -1.000000000000000000, 0.000000000000000000 ) ) ;
#174 = ORIENTED_EDGE ( 'NONE', *, *, #951, .F. ) ;
#175 = CARTESIAN_POINT ( 'NONE',  ( 0.5749999999999999556, 1.517883041479706208E-16, 2.630000000000000338 ) ) ;
#176 = VECTOR ( 'NONE', #744, 100.0000000000000000 ) ;
#177 = LINE ( 'NONE', #532, #87 ) ;
#178 = PLANE ( 'NONE',  #988 ) ;
#179 = VERTEX_POINT ( 'NONE', #278 ) ;
#180 = LINE ( 'NONE', #561, #46 ) ;
#181 = AXIS2_PLACEMENT_3D ( 'NONE', #117, #230, #216 ) ;
#182 = VERTEX_POINT ( 'NONE', #701 ) ;
#183 = DIRECTION ( 'NONE',  ( 0.000000000000000000, 1.000000000000000000, 0.000000000000000000 ) ) ;
#184 = AXIS2_PLACEMENT_3D ( 'NONE', #1156, #969, #79 ) ;
#185 = CARTESIAN_POINT ( 'NONE',  ( -0.5749999999999999556, -0.2399999999999998523, 2.630000000000000338 ) ) ;
#186 = EDGE_CURVE ( 'NONE', #143, #1004, #345, .T. ) ;
#187 = ORIENTED_EDGE ( 'NONE', *, *, #830, .T. ) ;
#188 = CARTESIAN_POINT ( 'NONE',  ( -0.5749999999999999556, 1.517883041479706208E-16, 2.630000000000000338 ) ) ;
#189 = ORIENTED_EDGE ( 'NONE', *, *, #271, .F. ) ;
#190 = LINE ( 'NONE', #558, #476 ) ;
#191 = DIRECTION ( 'NONE',  ( 0.000000000000000000, 0.000000000000000000, 1.000000000000000000 ) ) ;
#192 = ORIENTED_EDGE ( 'NONE', *, *, #12, .F. ) ;
#193 = EDGE_CURVE ( 'NONE', #21, #901, #983, .T. ) ;
#194 = DIRECTION ( 'NONE',  ( 0.000000000000000000, -1.000000000000000000, 0.000000000000000000 ) ) ;
#195 = MANIFOLD_SOLID_BREP ( 'Cut-Extrude3', #156 ) ;
#196 = UNCERTAINTY_MEASURE_WITH_UNIT (LENGTH_MEASURE( 1.000000000000000082E-05 ), #3, 'distance_accuracy_value', 'NONE');
#197 = ORIENTED_EDGE ( 'NONE', *, *, #889, .T. ) ;
#198 = SURFACE_STYLE_USAGE ( .BOTH. , #17 ) ;
#199 = VECTOR ( 'NONE', #377, 100.0000000000000000 ) ;
#200 = DIRECTION ( 'NONE',  ( -1.000000000000000000, 0.000000000000000000, 0.000000000000000000 ) ) ;
#201 = VERTEX_POINT ( 'NONE', #366 ) ;
#202 = DIRECTION ( 'NONE',  ( 1.000000000000000000, -9.035018104045874392E-17, 0.000000000000000000 ) ) ;
#203 = AXIS2_PLACEMENT_3D ( 'NONE', #6, #900, #194 ) ;
#204 = UNCERTAINTY_MEASURE_WITH_UNIT (LENGTH_MEASURE( 1.000000000000000082E-05 ), #751, 'distance_accuracy_value', 'NONE');
#205 = EDGE_LOOP ( 'NONE', ( #962, #634, #535, #400 ) ) ;
#206 = DIRECTION ( 'NONE',  ( 0.000000000000000000, -1.000000000000000000, 0.000000000000000000 ) ) ;
#207 = EDGE_CURVE ( 'NONE', #273, #979, #24, .T. ) ;
#208 = PRESENTATION_LAYER_ASSIGNMENT (  '', '', ( #702 ) ) ;
#209 = CARTESIAN_POINT ( 'NONE',  ( -0.8349999999999999645, -0.2399999999999997691, 2.390000000000000568 ) ) ;
#210 = PLANE ( 'NONE',  #660 ) ;
#211 = ORIENTED_EDGE ( 'NONE', *, *, #248, .F. ) ;
#212 = DIRECTION ( 'NONE',  ( 0.000000000000000000, 0.000000000000000000, 1.000000000000000000 ) ) ;
#213 = CARTESIAN_POINT ( 'NONE',  ( 0.3149999999999997802, -0.3149999999999999467, 5.000000000000000000 ) ) ;
#214 = EDGE_CURVE ( 'NONE', #815, #1004, #1112, .T. ) ;
#215 = AXIS2_PLACEMENT_3D ( 'NONE', #1139, #315, #508 ) ;
#216 = DIRECTION ( 'NONE',  ( 0.000000000000000000, 1.000000000000000000, 0.000000000000000000 ) ) ;
#217 = ORIENTED_EDGE ( 'NONE', *, *, #549, .T. ) ;
#218 = DIRECTION ( 'NONE',  ( 0.000000000000000000, 0.000000000000000000, -1.000000000000000000 ) ) ;
#219 = LINE ( 'NONE', #479, #993 ) ;
#220 = ORIENTED_EDGE ( 'NONE', *, *, #733, .T. ) ;
#221 = DIRECTION ( 'NONE',  ( -0.9897283568439537715, 0.000000000000000000, -0.1429607626552379662 ) ) ;
#222 = AXIS2_PLACEMENT_3D ( 'NONE', #1053, #150, #395 ) ;
#223 = PLANE ( 'NONE',  #1103 ) ;
#224 = ORIENTED_EDGE ( 'NONE', *, *, #352, .F. ) ;
#225 =( GEOMETRIC_REPRESENTATION_CONTEXT ( 3 ) GLOBAL_UNCERTAINTY_ASSIGNED_CONTEXT ( ( #729 ) ) GLOBAL_UNIT_ASSIGNED_CONTEXT ( ( #606, #786, #599 ) ) REPRESENTATION_CONTEXT ( 'NONE', 'WORKASPACE' ) );
#226 = ORIENTED_EDGE ( 'NONE', *, *, #186, .F. ) ;
#227 = CARTESIAN_POINT ( 'NONE',  ( 1.134659571895032304, 0.000000000000000000, 0.1638952714959493184 ) ) ;
#228 = CARTESIAN_POINT ( 'NONE',  ( -0.2399999999999996303, 0.3149999999999998912, 2.390000000000000568 ) ) ;
#229 = CARTESIAN_POINT ( 'NONE',  ( 0.5750000000000000666, -0.5749999999999999556, 12.00000000000000000 ) ) ;
#230 = DIRECTION ( 'NONE',  ( 1.000000000000000000, 0.000000000000000000, 0.000000000000000000 ) ) ;
#231 = EDGE_CURVE ( 'NONE', #21, #179, #391, .T. ) ;
#232 = EDGE_LOOP ( 'NONE', ( #264, #697, #768, #70, #1066, #1070, #796, #8 ) ) ;
#233 = DIRECTION ( 'NONE',  ( 0.000000000000000000, -1.000000000000000000, 0.000000000000000000 ) ) ;
#234 = FACE_OUTER_BOUND ( 'NONE', #131, .T. ) ;
#235 = ORIENTED_EDGE ( 'NONE', *, *, #733, .F. ) ;
#236 = DIRECTION ( 'NONE',  ( 1.000000000000000000, 1.508455196501571429E-16, 0.000000000000000000 ) ) ;
#237 = ORIENTED_EDGE ( 'NONE', *, *, #981, .F. ) ;
#238 = DIRECTION ( 'NONE',  ( -0.000000000000000000, 0.000000000000000000, -1.000000000000000000 ) ) ;
#239 = CARTESIAN_POINT ( 'NONE',  ( 0.3149999999999998912, 0.2400000000000000744, 5.000000000000000000 ) ) ;
#240 = EDGE_CURVE ( 'NONE', #541, #134, #98, .T. ) ;
#241 = AXIS2_PLACEMENT_3D ( 'NONE', #1062, #880, #784 ) ;
#242 = FACE_BOUND ( 'NONE', #362, .T. ) ;
#243 = CIRCLE ( 'NONE', #515, 0.3000000000000000444 ) ;
#244 = STYLED_ITEM ( 'NONE', ( #72 ), #452 ) ;
#245 = EDGE_LOOP ( 'NONE', ( #714, #1036, #679, #485 ) ) ;
#246 = CARTESIAN_POINT ( 'NONE',  ( 0.000000000000000000, 0.000000000000000000, 1.899999999999999911 ) ) ;
#247 = DIRECTION ( 'NONE',  ( 8.340016711426955288E-17, -1.000000000000000000, -0.000000000000000000 ) ) ;
#248 = EDGE_CURVE ( 'NONE', #661, #162, #468, .T. ) ;
#249 = CARTESIAN_POINT ( 'NONE',  ( -0.2399999999999996303, 0.3149999999999998912, 5.000000000000000000 ) ) ;
#250 = EDGE_LOOP ( 'NONE', ( #813, #1017 ) ) ;
#251 = DIRECTION ( 'NONE',  ( -1.000000000000000000, -0.000000000000000000, 0.000000000000000000 ) ) ;
#252 = DIRECTION ( 'NONE',  ( 1.508455196501571676E-16, -1.000000000000000000, -0.000000000000000000 ) ) ;
#253 = EDGE_CURVE ( 'NONE', #566, #126, #307, .T. ) ;
#254 = VERTEX_POINT ( 'NONE', #922 ) ;
#255 = APPLICATION_CONTEXT ( 'automotive_design' ) ;
#256 = CARTESIAN_POINT ( 'NONE',  ( -0.5749999999999999556, 0.2400000000000000744, 2.630000000000000338 ) ) ;
#257 = DIRECTION ( 'NONE',  ( 0.000000000000000000, -1.000000000000000000, 0.000000000000000000 ) ) ;
#258 = SURFACE_SIDE_STYLE ('',( #890 ) ) ;
#259 = VECTOR ( 'NONE', #542, 100.0000000000000000 ) ;
#260 = ORIENTED_EDGE ( 'NONE', *, *, #1091, .T. ) ;
#261 = EDGE_CURVE ( 'NONE', #102, #1105, #1096, .T. ) ;
#262 = DIRECTION ( 'NONE',  ( -1.000000000000000000, 0.000000000000000000, 0.000000000000000000 ) ) ;
#263 = DIRECTION ( 'NONE',  ( 1.000000000000000000, 1.508455196501571676E-16, 0.000000000000000000 ) ) ;
#264 = ORIENTED_EDGE ( 'NONE', *, *, #652, .F. ) ;
#265 = CARTESIAN_POINT ( 'NONE',  ( -0.5749999999999999556, -0.5750000000000000666, 5.000000000000000000 ) ) ;
#266 = DIRECTION ( 'NONE',  ( 0.1429607626552379940, 0.000000000000000000, 0.9897283568439537715 ) ) ;
#267 = ORIENTED_EDGE ( 'NONE', *, *, #207, .T. ) ;
#268 = CARTESIAN_POINT ( 'NONE',  ( 0.000000000000000000, -0.3000000000000000444, 11.39999999999999858 ) ) ;
#269 = AXIS2_PLACEMENT_3D ( 'NONE', #209, #114, #737 ) ;
#270 = DIRECTION ( 'NONE',  ( 0.000000000000000000, -0.9897283568439538826, -0.1429607626552378274 ) ) ;
#271 = EDGE_CURVE ( 'NONE', #644, #911, #832, .T. ) ;
#272 = AXIS2_PLACEMENT_3D ( 'NONE', #851, #753, #943 ) ;
#273 = VERTEX_POINT ( 'NONE', #545 ) ;
#274 = CARTESIAN_POINT ( 'NONE',  ( 0.2400000000000003797, 0.3149999999999998912, 2.630000000000000338 ) ) ;
#275 = UNCERTAINTY_MEASURE_WITH_UNIT (LENGTH_MEASURE( 1.000000000000000082E-05 ), #431, 'distance_accuracy_value', 'NONE');
#276 = ORIENTED_EDGE ( 'NONE', *, *, #47, .T. ) ;
#277 = AXIS2_PLACEMENT_3D ( 'NONE', #706, #270, #977 ) ;
#278 = CARTESIAN_POINT ( 'NONE',  ( -0.5750000000000000666, 0.5749999999999999556, 0.000000000000000000 ) ) ;
#279 = ADVANCED_FACE ( 'NONE', ( #383 ), #564, .F. ) ;
#280 = ORIENTED_EDGE ( 'NONE', *, *, #207, .F. ) ;
#281 = FACE_OUTER_BOUND ( 'NONE', #727, .T. ) ;
#282 = EDGE_LOOP ( 'NONE', ( #576, #324, #441, #844 ) ) ;
#283 = DIRECTION ( 'NONE',  ( 8.340016711426955288E-17, -1.000000000000000000, 0.000000000000000000 ) ) ;
#284 = FILL_AREA_STYLE_COLOUR ( '', #4 ) ;
#285 = ADVANCED_FACE ( 'NONE', ( #560 ), #927, .F. ) ;
#286 = ORIENTED_EDGE ( 'NONE', *, *, #19, .F. ) ;
#287 = LINE ( 'NONE', #451, #856 ) ;
#288 = ADVANCED_FACE ( 'NONE', ( #1101 ), #456, .F. ) ;
#289 = ORIENTED_EDGE ( 'NONE', *, *, #418, .F. ) ;
#290 = DIRECTION ( 'NONE',  ( 1.000000000000000000, 8.340016711426955288E-17, 0.000000000000000000 ) ) ;
#291 = LINE ( 'NONE', #213, #734 ) ;
#292 = LINE ( 'NONE', #274, #335 ) ;
#293 = VECTOR ( 'NONE', #155, 100.0000000000000000 ) ;
#294 = EDGE_CURVE ( 'NONE', #511, #901, #647, .T. ) ;
#295 = EDGE_LOOP ( 'NONE', ( #991, #742, #839, #947 ) ) ;
#296 = CARTESIAN_POINT ( 'NONE',  ( 0.000000000000000000, 0.000000000000000000, 5.000000000000000000 ) ) ;
#297 =( GEOMETRIC_REPRESENTATION_CONTEXT ( 3 ) GLOBAL_UNCERTAINTY_ASSIGNED_CONTEXT ( ( #204 ) ) GLOBAL_UNIT_ASSIGNED_CONTEXT ( ( #751, #765, #939 ) ) REPRESENTATION_CONTEXT ( 'NONE', 'WORKASPACE' ) );
#298 = COLOUR_RGB ( '',0.6941176470588235059, 0.09803921568627450844, 0.09803921568627450844 ) ;
#299 = CARTESIAN_POINT ( 'NONE',  ( 0.2400000000000003797, -0.3149999999999998912, 2.390000000000000568 ) ) ;
#300 = DIRECTION ( 'NONE',  ( 0.000000000000000000, 1.000000000000000000, 0.000000000000000000 ) ) ;
#301 = ORIENTED_EDGE ( 'NONE', *, *, #1121, .T. ) ;
#302 =( LENGTH_UNIT ( ) NAMED_UNIT ( * ) SI_UNIT ( .CENTI., .METRE. ) );
#303 =( LENGTH_UNIT ( ) NAMED_UNIT ( * ) SI_UNIT ( .CENTI., .METRE. ) );
#304 = CARTESIAN_POINT ( 'NONE',  ( 0.2400000000000003797, 0.5749999999999999556, 5.000000000000000000 ) ) ;
#305 = ORIENTED_EDGE ( 'NONE', *, *, #231, .T. ) ;
#306 = LINE ( 'NONE', #840, #643 ) ;
#307 = LINE ( 'NONE', #1019, #176 ) ;
#308 = EDGE_CURVE ( 'NONE', #746, #64, #291, .T. ) ;
#309 = ORIENTED_EDGE ( 'NONE', *, *, #696, .F. ) ;
#310 = VECTOR ( 'NONE', #1039, 100.0000000000000000 ) ;
#311 = FACE_OUTER_BOUND ( 'NONE', #654, .T. ) ;
#312 = ORIENTED_EDGE ( 'NONE', *, *, #104, .F. ) ;
#313 = CARTESIAN_POINT ( 'NONE',  ( 0.000000000000000000, -0.3000000000000000444, 11.39999999999999858 ) ) ;
#314 = VECTOR ( 'NONE', #401, 100.0000000000000000 ) ;
#315 = DIRECTION ( 'NONE',  ( -1.000000000000000000, 0.000000000000000000, 0.000000000000000000 ) ) ;
#316 = CARTESIAN_POINT ( 'NONE',  ( -0.5749999999999999556, -0.2399999999999997691, 2.630000000000000338 ) ) ;
#317 = CIRCLE ( 'NONE', #838, 0.3000000000000000444 ) ;
#318 = ADVANCED_FACE ( 'NONE', ( #472 ), #28, .F. ) ;
#319 = LINE ( 'NONE', #1021, #975 ) ;
#320 = ORIENTED_EDGE ( 'NONE', *, *, #165, .F. ) ;
#321 = CARTESIAN_POINT ( 'NONE',  ( 0.5749999999999999556, 0.5750000000000000666, 0.000000000000000000 ) ) ;
#322 = FACE_OUTER_BOUND ( 'NONE', #788, .T. ) ;
#323 = CARTESIAN_POINT ( 'NONE',  ( 3.469446951953614189E-16, -0.5749999999999999556, 2.630000000000000338 ) ) ;
#324 = ORIENTED_EDGE ( 'NONE', *, *, #19, .T. ) ;
#325 = LINE ( 'NONE', #51, #1015 ) ;
#326 = DIRECTION ( 'NONE',  ( -1.000000000000000000, -1.508455196501571676E-16, 0.000000000000000000 ) ) ;
#327 = FACE_OUTER_BOUND ( 'NONE', #295, .T. ) ;
#328 = AXIS2_PLACEMENT_3D ( 'NONE', #617, #523, #903 ) ;
#329 = CARTESIAN_POINT ( 'NONE',  ( 0.000000000000000000, 0.000000000000000000, 0.000000000000000000 ) ) ;
#330 = ORIENTED_EDGE ( 'NONE', *, *, #418, .T. ) ;
#331 = PLANE ( 'NONE',  #917 ) ;
#332 = EDGE_CURVE ( 'NONE', #414, #21, #594, .T. ) ;
#333 = CARTESIAN_POINT ( 'NONE',  ( 0.5750000000000000666, -0.5749999999999999556, 12.00000000000000000 ) ) ;
#334 = DIRECTION ( 'NONE',  ( -1.000000000000000000, -0.000000000000000000, -0.000000000000000000 ) ) ;
#335 = VECTOR ( 'NONE', #912, 100.0000000000000000 ) ;
#336 = CIRCLE ( 'NONE', #934, 0.3000000000000000444 ) ;
#337 = ORIENTED_EDGE ( 'NONE', *, *, #533, .T. ) ;
#338 = DIRECTION ( 'NONE',  ( 0.000000000000000000, -1.000000000000000000, 0.000000000000000000 ) ) ;
#339 = EDGE_CURVE ( 'NONE', #134, #88, #1127, .T. ) ;
#340 = DIRECTION ( 'NONE',  ( 0.000000000000000000, 1.000000000000000000, 0.000000000000000000 ) ) ;
#341 = AXIS2_PLACEMENT_3D ( 'NONE', #964, #671, #780 ) ;
#342 = EDGE_LOOP ( 'NONE', ( #625, #76, #1032, #305, #530, #1086, #385, #166 ) ) ;
#343 = DIRECTION ( 'NONE',  ( -0.000000000000000000, 0.000000000000000000, -1.000000000000000000 ) ) ;
#344 = FILL_AREA_STYLE_COLOUR ( '', #141 ) ;
#345 = LINE ( 'NONE', #978, #1027 ) ;
#346 = EDGE_CURVE ( 'NONE', #1164, #481, #657, .T. ) ;
#347 = VERTEX_POINT ( 'NONE', #853 ) ;
#348 = CARTESIAN_POINT ( 'NONE',  ( 0.5750000000000000666, 0.5749999999999999556, 12.00000000000000000 ) ) ;
#349 = CARTESIAN_POINT ( 'NONE',  ( 0.8349999999999999645, -0.2399999999999997691, 2.390000000000000568 ) ) ;
#350 = VECTOR ( 'NONE', #238, 100.0000000000000000 ) ;
#351 = CIRCLE ( 'NONE', #10, 0.3000000000000000444 ) ;
#352 = EDGE_CURVE ( 'NONE', #149, #1008, #613, .T. ) ;
#353 = ORIENTED_EDGE ( 'NONE', *, *, #1049, .T. ) ;
#354 = CARTESIAN_POINT ( 'NONE',  ( -0.5750000000000000666, -0.5749999999999999556, 12.00000000000000000 ) ) ;
#355 = PLANE ( 'NONE',  #277 ) ;
#356 = PLANE ( 'NONE',  #489 ) ;
#357 = EDGE_CURVE ( 'NONE', #911, #14, #409, .T. ) ;
#358 = EDGE_LOOP ( 'NONE', ( #392, #557, #627, #586 ) ) ;
#359 = CARTESIAN_POINT ( 'NONE',  ( -0.3149999999999998912, -0.2399999999999997691, 2.390000000000000568 ) ) ;
#360 = ORIENTED_EDGE ( 'NONE', *, *, #673, .F. ) ;
#361 = CARTESIAN_POINT ( 'NONE',  ( -0.2399999999999996858, 0.5749999999999999556, 5.000000000000000000 ) ) ;
#362 = EDGE_LOOP ( 'NONE', ( #899, #842 ) ) ;
#363 = CIRCLE ( 'NONE', #773, 0.3000000000000000444 ) ;
#364 = CYLINDRICAL_SURFACE ( 'NONE', #497, 0.3000000000000000444 ) ;
#365 = EDGE_CURVE ( 'NONE', #88, #746, #125, .T. ) ;
#366 = CARTESIAN_POINT ( 'NONE',  ( 0.3150000000000001132, 0.3150000000000002798, 10.20000000000000639 ) ) ;
#367 = CIRCLE ( 'NONE', #241, 0.2399999999999999356 ) ;
#368 = ORIENTED_EDGE ( 'NONE', *, *, #756, .T. ) ;
#369 = LINE ( 'NONE', #379, #955 ) ;
#370 = ORIENTED_EDGE ( 'NONE', *, *, #741, .T. ) ;
#371 = SURFACE_STYLE_FILL_AREA ( #11 ) ;
#372 = ADVANCED_FACE ( 'NONE', ( #396 ), #145, .F. ) ;
#373 = ORIENTED_EDGE ( 'NONE', *, *, #32, .F. ) ;
#374 = LINE ( 'NONE', #739, #259 ) ;
#375 = VERTEX_POINT ( 'NONE', #239 ) ;
#376 = LINE ( 'NONE', #834, #440 ) ;
#377 = DIRECTION ( 'NONE',  ( -1.000000000000000000, 0.000000000000000000, 0.000000000000000000 ) ) ;
#378 = EDGE_CURVE ( 'NONE', #1105, #511, #950, .T. ) ;
#379 = CARTESIAN_POINT ( 'NONE',  ( -0.5750000000000000666, 0.5749999999999999556, 0.000000000000000000 ) ) ;
#380 = ORIENTED_EDGE ( 'NONE', *, *, #95, .F. ) ;
#381 = FACE_OUTER_BOUND ( 'NONE', #358, .T. ) ;
#382 = VECTOR ( 'NONE', #509, 100.0000000000000000 ) ;
#383 = FACE_OUTER_BOUND ( 'NONE', #735, .T. ) ;
#384 = CARTESIAN_POINT ( 'NONE',  ( 0.5749999999999999556, 0.5750000000000000666, 5.000000000000000000 ) ) ;
#385 = ORIENTED_EDGE ( 'NONE', *, *, #1084, .F. ) ;
#386 = CARTESIAN_POINT ( 'NONE',  ( 0.2400000000000003242, 2.001604010742471858E-17, 5.000000000000000000 ) ) ;
#387 = SURFACE_STYLE_USAGE ( .BOTH. , #1024 ) ;
#388 = DIRECTION ( 'NONE',  ( 0.000000000000000000, -1.000000000000000000, 0.000000000000000000 ) ) ;
#389 = VERTEX_POINT ( 'NONE', #873 ) ;
#390 = LINE ( 'NONE', #321, #699 ) ;
#391 = LINE ( 'NONE', #640, #694 ) ;
#392 = ORIENTED_EDGE ( 'NONE', *, *, #533, .F. ) ;
#393 = CARTESIAN_POINT ( 'NONE',  ( 0.5749999999999999556, 0.5750000000000000666, 0.000000000000000000 ) ) ;
#394 = EDGE_LOOP ( 'NONE', ( #597, #976, #989, #1146, #407, #708 ) ) ;
#395 = DIRECTION ( 'NONE',  ( 0.000000000000000000, -1.000000000000000000, 0.000000000000000000 ) ) ;
#396 = FACE_OUTER_BOUND ( 'NONE', #474, .T. ) ;
#397 = ADVANCED_FACE ( 'NONE', ( #589 ), #496, .T. ) ;
#398 = DIRECTION ( 'NONE',  ( 0.000000000000000000, 0.000000000000000000, -1.000000000000000000 ) ) ;
#399 = DIRECTION ( 'NONE',  ( 0.000000000000000000, 1.000000000000000000, 0.000000000000000000 ) ) ;
#400 = ORIENTED_EDGE ( 'NONE', *, *, #687, .T. ) ;
#401 = DIRECTION ( 'NONE',  ( 0.000000000000000000, 0.000000000000000000, 1.000000000000000000 ) ) ;
#402 = AXIS2_PLACEMENT_3D ( 'NONE', #442, #170, #872 ) ;
#403 = DIRECTION ( 'NONE',  ( 0.000000000000000000, 0.000000000000000000, 1.000000000000000000 ) ) ;
#404 = CARTESIAN_POINT ( 'NONE',  ( 0.5749999999999999556, 0.2400000000000000744, 2.630000000000000338 ) ) ;
#405 = ADVANCED_FACE ( 'NONE', ( #1119 ), #416, .F. ) ;
#406 = CARTESIAN_POINT ( 'NONE',  ( -0.3149999999999998912, -0.2399999999999997691, 2.630000000000000338 ) ) ;
#407 = ORIENTED_EDGE ( 'NONE', *, *, #346, .T. ) ;
#408 = CARTESIAN_POINT ( 'NONE',  ( 0.5749999999999999556, 0.5750000000000000666, 0.000000000000000000 ) ) ;
#409 = LINE ( 'NONE', #130, #1168 ) ;
#410 = AXIS2_PLACEMENT_3D ( 'NONE', #862, #151, #958 ) ;
#411 = FACE_OUTER_BOUND ( 'NONE', #90, .T. ) ;
#412 = DIRECTION ( 'NONE',  ( -0.000000000000000000, 0.000000000000000000, -1.000000000000000000 ) ) ;
#413 = EDGE_CURVE ( 'NONE', #661, #102, #483, .T. ) ;
#414 = VERTEX_POINT ( 'NONE', #61 ) ;
#415 = DIRECTION ( 'NONE',  ( -1.508455196501571429E-16, 1.000000000000000000, 0.000000000000000000 ) ) ;
#416 = CYLINDRICAL_SURFACE ( 'NONE', #215, 0.2399999999999999356 ) ;
#417 = CARTESIAN_POINT ( 'NONE',  ( -0.3149999999999998912, -0.3149999999999999467, 10.20000000000000107 ) ) ;
#418 = EDGE_CURVE ( 'NONE', #102, #414, #422, .T. ) ;
#419 = ORIENTED_EDGE ( 'NONE', *, *, #1076, .F. ) ;
#420 = DIRECTION ( 'NONE',  ( -0.000000000000000000, 1.000000000000000000, -0.000000000000000000 ) ) ;
#421 = CIRCLE ( 'NONE', #877, 0.3000000000000000444 ) ;
#422 = LINE ( 'NONE', #578, #148 ) ;
#423 = DIRECTION ( 'NONE',  ( 0.000000000000000000, 0.000000000000000000, 1.000000000000000000 ) ) ;
#424 = VECTOR ( 'NONE', #9, 100.0000000000000000 ) ;
#425 = ORIENTED_EDGE ( 'NONE', *, *, #73, .T. ) ;
#426 = CARTESIAN_POINT ( 'NONE',  ( 3.686287386450715076E-16, 0.3149999999999998912, 2.630000000000000338 ) ) ;
#427 = SURFACE_SIDE_STYLE ('',( #1167 ) ) ;
#428 = FILL_AREA_STYLE ('',( #69 ) ) ;
#429 = ORIENTED_EDGE ( 'NONE', *, *, #294, .F. ) ;
#430 = DIRECTION ( 'NONE',  ( -1.000000000000000000, 0.000000000000000000, 0.000000000000000000 ) ) ;
#431 =( LENGTH_UNIT ( ) NAMED_UNIT ( * ) SI_UNIT ( .CENTI., .METRE. ) );
#432 = ADVANCED_FACE ( 'NONE', ( #322 ), #1055, .F. ) ;
#433 = DIRECTION ( 'NONE',  ( 0.000000000000000000, -1.000000000000000000, 0.000000000000000000 ) ) ;
#434 = ORIENTED_EDGE ( 'NONE', *, *, #445, .F. ) ;
#435 = LINE ( 'NONE', #513, #293 ) ;
#436 = PLANE ( 'NONE',  #184 ) ;
#437 = DIRECTION ( 'NONE',  ( -1.508455196501571676E-16, 1.000000000000000000, 0.000000000000000000 ) ) ;
#438 = VECTOR ( 'NONE', #1029, 100.0000000000000000 ) ;
#439 = ADVANCED_FACE ( 'NONE', ( #234 ), #223, .F. ) ;
#440 = VECTOR ( 'NONE', #915, 100.0000000000000000 ) ;
#441 = ORIENTED_EDGE ( 'NONE', *, *, #75, .T. ) ;
#442 = CARTESIAN_POINT ( 'NONE',  ( 0.000000000000000000, -1.134659571895030750, 0.1638952714959489854 ) ) ;
#443 = DIRECTION ( 'NONE',  ( 0.9897283568439537715, 0.000000000000000000, -0.1429607626552379940 ) ) ;
#444 = ORIENTED_EDGE ( 'NONE', *, *, #512, .T. ) ;
#445 = EDGE_CURVE ( 'NONE', #973, #88, #772, .T. ) ;
#446 = DIRECTION ( 'NONE',  ( 1.508455196501571429E-16, -1.000000000000000000, 0.000000000000000000 ) ) ;
#447 = ORIENTED_EDGE ( 'NONE', *, *, #959, .T. ) ;
#448 = CARTESIAN_POINT ( 'NONE',  ( 0.000000000000000000, 0.000000000000000000, 12.00000000000000000 ) ) ;
#449 = DIRECTION ( 'NONE',  ( 1.508455196501571429E-16, -1.000000000000000000, 0.000000000000000000 ) ) ;
#450 = ORIENTED_EDGE ( 'NONE', *, *, #81, .F. ) ;
#451 = CARTESIAN_POINT ( 'NONE',  ( -0.3149999999999998912, 0.2400000000000000744, 2.390000000000000568 ) ) ;
#452 = ADVANCED_FACE ( 'NONE', ( #1075 ), #436, .F. ) ;
#453 = ORIENTED_EDGE ( 'NONE', *, *, #794, .T. ) ;
#454 = AXIS2_PLACEMENT_3D ( 'NONE', #1059, #252, #607 ) ;
#455 = FILL_AREA_STYLE ('',( #1106 ) ) ;
#456 = PLANE ( 'NONE',  #78 ) ;
#457 = CIRCLE ( 'NONE', #894, 0.2399999999999999356 ) ;
#458 = EDGE_LOOP ( 'NONE', ( #914, #280, #621, #187 ) ) ;
#459 = DIRECTION ( 'NONE',  ( 0.000000000000000000, 0.000000000000000000, -1.000000000000000000 ) ) ;
#460 = ORIENTED_EDGE ( 'NONE', *, *, #779, .F. ) ;
#461 = LINE ( 'NONE', #1095, #424 ) ;
#462 = DIRECTION ( 'NONE',  ( 0.000000000000000000, 1.000000000000000000, 0.000000000000000000 ) ) ;
#463 = EDGE_CURVE ( 'NONE', #882, #490, #317, .T. ) ;
#464 = LINE ( 'NONE', #361, #1120 ) ;
#465 = VECTOR ( 'NONE', #944, 100.0000000000000000 ) ;
#466 = EDGE_LOOP ( 'NONE', ( #492, #224, #821, #197 ) ) ;
#467 = FACE_OUTER_BOUND ( 'NONE', #602, .T. ) ;
#468 = LINE ( 'NONE', #1014, #618 ) ;
#469 = DIRECTION ( 'NONE',  ( 0.000000000000000000, 0.000000000000000000, 1.000000000000000000 ) ) ;
#470 = VERTEX_POINT ( 'NONE', #1149 ) ;
#471 = DIRECTION ( 'NONE',  ( 0.000000000000000000, -1.000000000000000000, 0.000000000000000000 ) ) ;
#472 = FACE_OUTER_BOUND ( 'NONE', #506, .T. ) ;
#473 = CYLINDRICAL_SURFACE ( 'NONE', #1161, 0.2399999999999999356 ) ;
#474 = EDGE_LOOP ( 'NONE', ( #235, #96, #938, #419 ) ) ;
#475 = CARTESIAN_POINT ( 'NONE',  ( 0.5750000000000000666, -0.5749999999999999556, 0.000000000000000000 ) ) ;
#476 = VECTOR ( 'NONE', #639, 100.0000000000000000 ) ;
#477 = CARTESIAN_POINT ( 'NONE',  ( -0.8349999999999999645, 0.2400000000000000744, 5.000000000000000000 ) ) ;
#478 = ORIENTED_EDGE ( 'NONE', *, *, #1107, .T. ) ;
#479 = CARTESIAN_POINT ( 'NONE',  ( 0.3149999999999998357, 0.000000000000000000, 10.20000000000000284 ) ) ;
#480 = ADVANCED_FACE ( 'NONE', ( #902 ), #355, .T. ) ;
#481 = VERTEX_POINT ( 'NONE', #167 ) ;
#482 = DIRECTION ( 'NONE',  ( -1.000000000000000000, -1.508455196501571429E-16, 0.000000000000000000 ) ) ;
#483 = LINE ( 'NONE', #228, #846 ) ;
#484 = EDGE_LOOP ( 'NONE', ( #892, #1114 ) ) ;
#485 = ORIENTED_EDGE ( 'NONE', *, *, #294, .T. ) ;
#486 = LINE ( 'NONE', #587, #1163 ) ;
#487 = DIRECTION ( 'NONE',  ( 0.000000000000000000, 1.000000000000000000, 0.000000000000000000 ) ) ;
#488 = ADVANCED_FACE ( 'NONE', ( #91 ), #986, .F. ) ;
#489 = AXIS2_PLACEMENT_3D ( 'NONE', #811, #443, #266 ) ;
#490 = VERTEX_POINT ( 'NONE', #888 ) ;
#491 = CARTESIAN_POINT ( 'NONE',  ( 3.673940397442060115E-17, 0.3000000000000000444, 12.00000000000000000 ) ) ;
#492 = ORIENTED_EDGE ( 'NONE', *, *, #601, .F. ) ;
#493 = DIRECTION ( 'NONE',  ( -0.000000000000000000, 0.000000000000000000, -1.000000000000000000 ) ) ;
#494 = VECTOR ( 'NONE', #1087, 100.0000000000000000 ) ;
#495 = VECTOR ( 'NONE', #1009, 100.0000000000000000 ) ;
#496 = PLANE ( 'NONE',  #651 ) ;
#497 = AXIS2_PLACEMENT_3D ( 'NONE', #717, #1083, #544 ) ;
#498 = EDGE_CURVE ( 'NONE', #126, #967, #177, .T. ) ;
#499 = DIRECTION ( 'NONE',  ( -0.000000000000000000, 0.000000000000000000, -1.000000000000000000 ) ) ;
#500 = CARTESIAN_POINT ( 'NONE',  ( -0.3149999999999998912, 0.3149999999999998912, 5.000000000000000000 ) ) ;
#501 = ORIENTED_EDGE ( 'NONE', *, *, #878, .F. ) ;
#502 = CARTESIAN_POINT ( 'NONE',  ( -0.2399999999999996303, 0.3149999999999998912, 2.630000000000000338 ) ) ;
#503 = CARTESIAN_POINT ( 'NONE',  ( 0.3149999999999998912, 1.517883041479706208E-16, 2.630000000000000338 ) ) ;
#504 = VERTEX_POINT ( 'NONE', #86 ) ;
#505 = PRODUCT_RELATED_PRODUCT_CATEGORY ( 'part', '', ( #795 ) ) ;
#506 = EDGE_LOOP ( 'NONE', ( #380, #301, #609, #48, #226, #1136 ) ) ;
#507 = FACE_OUTER_BOUND ( 'NONE', #108, .T. ) ;
#508 = DIRECTION ( 'NONE',  ( 0.000000000000000000, -1.000000000000000000, 0.000000000000000000 ) ) ;
#509 = DIRECTION ( 'NONE',  ( 0.000000000000000000, 0.000000000000000000, 1.000000000000000000 ) ) ;
#510 = AXIS2_PLACEMENT_3D ( 'NONE', #1069, #1090, #110 ) ;
#511 = VERTEX_POINT ( 'NONE', #538 ) ;
#512 = EDGE_CURVE ( 'NONE', #604, #1079, #336, .T. ) ;
#513 = CARTESIAN_POINT ( 'NONE',  ( 0.3149999999999997802, -0.3149999999999999467, 5.000000000000000000 ) ) ;
#514 = AXIS2_PLACEMENT_3D ( 'NONE', #359, #202, #100 ) ;
#515 = AXIS2_PLACEMENT_3D ( 'NONE', #933, #857, #388 ) ;
#516 = CARTESIAN_POINT ( 'NONE',  ( -0.5750000000000000666, 0.5749999999999999556, 5.000000000000000000 ) ) ;
#517 = AXIS2_PLACEMENT_3D ( 'NONE', #27, #290, #908 ) ;
#518 = ORIENTED_EDGE ( 'NONE', *, *, #186, .T. ) ;
#519 = DIRECTION ( 'NONE',  ( 1.000000000000000000, 0.000000000000000000, 0.000000000000000000 ) ) ;
#520 = EDGE_CURVE ( 'NONE', #879, #14, #461, .T. ) ;
#521 = VERTEX_POINT ( 'NONE', #824 ) ;
#522 = CARTESIAN_POINT ( 'NONE',  ( 0.000000000000000000, 0.000000000000000000, 5.000000000000000000 ) ) ;
#523 = DIRECTION ( 'NONE',  ( 0.000000000000000000, 0.000000000000000000, 1.000000000000000000 ) ) ;
#524 = ORIENTED_EDGE ( 'NONE', *, *, #104, .T. ) ;
#525 = PLANE ( 'NONE',  #738 ) ;
#526 = DIRECTION ( 'NONE',  ( 0.000000000000000000, 0.000000000000000000, -1.000000000000000000 ) ) ;
#527 = EDGE_CURVE ( 'NONE', #999, #389, #376, .T. ) ;
#528 = FACE_OUTER_BOUND ( 'NONE', #282, .T. ) ;
#529 = EDGE_CURVE ( 'NONE', #996, #879, #552, .T. ) ;
#530 = ORIENTED_EDGE ( 'NONE', *, *, #1010, .T. ) ;
#531 = LINE ( 'NONE', #980, #1100 ) ;
#532 = CARTESIAN_POINT ( 'NONE',  ( 0.5749999999999999556, 0.5750000000000000666, 5.000000000000000000 ) ) ;
#533 = EDGE_CURVE ( 'NONE', #911, #996, #109, .T. ) ;
#534 = PRESENTATION_LAYER_ASSIGNMENT (  '', '', ( #781 ) ) ;
#535 = ORIENTED_EDGE ( 'NONE', *, *, #1123, .T. ) ;
#536 = CARTESIAN_POINT ( 'NONE',  ( -0.5750000000000000666, 0.5749999999999999556, 12.00000000000000000 ) ) ;
#537 = ORIENTED_EDGE ( 'NONE', *, *, #696, .T. ) ;
#538 = CARTESIAN_POINT ( 'NONE',  ( -0.3149999999999998912, 0.2400000000000000744, 5.000000000000000000 ) ) ;
#539 = CARTESIAN_POINT ( 'NONE',  ( 0.000000000000000000, 0.000000000000000000, 12.00000000000000000 ) ) ;
#540 = ADVANCED_FACE ( 'NONE', ( #381 ), #736, .F. ) ;
#541 = VERTEX_POINT ( 'NONE', #103 ) ;
#542 = DIRECTION ( 'NONE',  ( 1.000000000000000000, 1.508455196501571429E-16, 0.000000000000000000 ) ) ;
#543 = ORIENTED_EDGE ( 'NONE', *, *, #1049, .F. ) ;
#544 = DIRECTION ( 'NONE',  ( 0.000000000000000000, 1.000000000000000000, 0.000000000000000000 ) ) ;
#545 = CARTESIAN_POINT ( 'NONE',  ( 0.000000000000000000, 0.3000000000000000444, 1.899999999999999911 ) ) ;
#546 = ORIENTED_EDGE ( 'NONE', *, *, #413, .T. ) ;
#547 = CARTESIAN_POINT ( 'NONE',  ( 0.5750000000000000666, -0.5749999999999999556, 12.00000000000000000 ) ) ;
#548 = VECTOR ( 'NONE', #1145, 100.0000000000000000 ) ;
#549 = EDGE_CURVE ( 'NONE', #521, #143, #1089, .T. ) ;
#550 = EDGE_LOOP ( 'NONE', ( #320, #425, #478, #309 ) ) ;
#551 = AXIS2_PLACEMENT_3D ( 'NONE', #1128, #398, #600 ) ;
#552 = LINE ( 'NONE', #386, #1143 ) ;
#553 = CARTESIAN_POINT ( 'NONE',  ( 0.3149999999999997802, 0.3149999999999998912, 5.000000000000000000 ) ) ;
#554 = CIRCLE ( 'NONE', #758, 0.2399999999999999356 ) ;
#555 = EDGE_LOOP ( 'NONE', ( #16, #1088, #1, #1170 ) ) ;
#556 = CARTESIAN_POINT ( 'NONE',  ( -0.5749999999999999556, 1.517883041479706208E-16, 2.630000000000000338 ) ) ;
#557 = ORIENTED_EDGE ( 'NONE', *, *, #357, .T. ) ;
#558 = CARTESIAN_POINT ( 'NONE',  ( -0.5749999999999999556, -0.2399999999999998523, 5.000000000000000000 ) ) ;
#559 = EDGE_CURVE ( 'NONE', #1131, #154, #190, .T. ) ;
#560 = FACE_OUTER_BOUND ( 'NONE', #942, .T. ) ;
#561 = CARTESIAN_POINT ( 'NONE',  ( -0.5749999999999999556, 0.2400000000000000744, 2.630000000000000338 ) ) ;
#562 = EDGE_LOOP ( 'NONE', ( #595, #1011, #584, #289 ) ) ;
#563 = CARTESIAN_POINT ( 'NONE',  ( -0.2399999999999996303, 0.3149999999999998912, 2.390000000000000568 ) ) ;
#564 = PLANE ( 'NONE',  #269 ) ;
#565 = FACE_OUTER_BOUND ( 'NONE', #750, .T. ) ;
#566 = VERTEX_POINT ( 'NONE', #743 ) ;
#567 = DIRECTION ( 'NONE',  ( 0.000000000000000000, 1.000000000000000000, 0.000000000000000000 ) ) ;
#568 = AXIS2_PLACEMENT_3D ( 'NONE', #349, #433, #1085 ) ;
#569 = CARTESIAN_POINT ( 'NONE',  ( -0.2399999999999996858, -0.5749999999999999556, 5.000000000000000000 ) ) ;
#570 = ADVANCED_FACE ( 'NONE', ( #467 ), #828, .F. ) ;
#571 = CIRCLE ( 'NONE', #588, 0.2400000000000000189 ) ;
#572 = CARTESIAN_POINT ( 'NONE',  ( -0.5750000000000000666, 0.5749999999999999556, 5.000000000000000000 ) ) ;
#573 = ORIENTED_EDGE ( 'NONE', *, *, #710, .T. ) ;
#574 = DIRECTION ( 'NONE',  ( 0.000000000000000000, 0.000000000000000000, -1.000000000000000000 ) ) ;
#575 = ORIENTED_EDGE ( 'NONE', *, *, #95, .T. ) ;
#576 = ORIENTED_EDGE ( 'NONE', *, *, #864, .T. ) ;
#577 = CARTESIAN_POINT ( 'NONE',  ( -0.3149999999999998912, 0.3149999999999998912, 10.20000000000000107 ) ) ;
#578 = CARTESIAN_POINT ( 'NONE',  ( -0.2399999999999996303, 0.000000000000000000, 5.000000000000000000 ) ) ;
#579 = LINE ( 'NONE', #316, #910 ) ;
#580 = EDGE_LOOP ( 'NONE', ( #684, #871, #1110, #50 ) ) ;
#581 = DIRECTION ( 'NONE',  ( 1.000000000000000000, 0.000000000000000000, 0.000000000000000000 ) ) ;
#582 = ADVANCED_FACE ( 'NONE', ( #1018 ), #113, .F. ) ;
#583 = CARTESIAN_POINT ( 'NONE',  ( 0.5749999999999999556, 0.5750000000000000666, 5.000000000000000000 ) ) ;
#584 = ORIENTED_EDGE ( 'NONE', *, *, #916, .F. ) ;
#585 = CARTESIAN_POINT ( 'NONE',  ( 0.000000000000000000, -0.2399999999999997691, 5.000000000000000000 ) ) ;
#586 = ORIENTED_EDGE ( 'NONE', *, *, #529, .F. ) ;
#587 = CARTESIAN_POINT ( 'NONE',  ( -0.5750000000000000666, 0.5749999999999999556, 12.00000000000000000 ) ) ;
#588 = AXIS2_PLACEMENT_3D ( 'NONE', #426, #420, #519 ) ;
#589 = FACE_OUTER_BOUND ( 'NONE', #250, .T. ) ;
#590 = EDGE_CURVE ( 'NONE', #979, #273, #164, .T. ) ;
#591 = CYLINDRICAL_SURFACE ( 'NONE', #812, 0.2399999999999999911 ) ;
#592 = VERTEX_POINT ( 'NONE', #475 ) ;
#593 = CARTESIAN_POINT ( 'NONE',  ( 0.3149999999999997802, -0.3149999999999999467, 5.000000000000000000 ) ) ;
#594 = LINE ( 'NONE', #583, #941 ) ;
#595 = ORIENTED_EDGE ( 'NONE', *, *, #413, .F. ) ;
#596 = ADVANCED_FACE ( 'NONE', ( #2 ), #364, .F. ) ;
#597 = ORIENTED_EDGE ( 'NONE', *, *, #308, .F. ) ;
#598 = DIRECTION ( 'NONE',  ( 0.000000000000000000, 1.000000000000000000, 0.000000000000000000 ) ) ;
#599 =( NAMED_UNIT ( * ) SI_UNIT ( $, .STERADIAN. ) SOLID_ANGLE_UNIT ( ) );
#600 = DIRECTION ( 'NONE',  ( 0.000000000000000000, 1.000000000000000000, 0.000000000000000000 ) ) ;
#601 = EDGE_CURVE ( 'NONE', #1008, #43, #325, .T. ) ;
#602 = EDGE_LOOP ( 'NONE', ( #83, #921, #330, #1148, #777, #429 ) ) ;
#603 = DIRECTION ( 'NONE',  ( 1.000000000000000000, 1.508455196501571676E-16, -0.000000000000000000 ) ) ;
#604 = VERTEX_POINT ( 'NONE', #1137 ) ;
#605 = VECTOR ( 'NONE', #631, 100.0000000000000000 ) ;
#606 =( LENGTH_UNIT ( ) NAMED_UNIT ( * ) SI_UNIT ( .CENTI., .METRE. ) );
#607 = DIRECTION ( 'NONE',  ( -1.000000000000000000, 0.000000000000000000, 0.000000000000000000 ) ) ;
#608 = EDGE_CURVE ( 'NONE', #984, #855, #486, .T. ) ;
#609 = ORIENTED_EDGE ( 'NONE', *, *, #1084, .T. ) ;
#610 = CARTESIAN_POINT ( 'NONE',  ( -0.3149999999999998357, 0.000000000000000000, 10.20000000000000284 ) ) ;
#611 =( NAMED_UNIT ( * ) SI_UNIT ( $, .STERADIAN. ) SOLID_ANGLE_UNIT ( ) );
#612 = CYLINDRICAL_SURFACE ( 'NONE', #328, 0.3000000000000000444 ) ;
#613 = CIRCLE ( 'NONE', #1130, 0.2399999999999999356 ) ;
#614 = ORIENTED_EDGE ( 'NONE', *, *, #339, .F. ) ;
#615 = LINE ( 'NONE', #985, #1081 ) ;
#616 = EDGE_CURVE ( 'NONE', #644, #143, #306, .T. ) ;
#617 = CARTESIAN_POINT ( 'NONE',  ( 0.000000000000000000, 0.000000000000000000, 11.39999999999999858 ) ) ;
#618 = VECTOR ( 'NONE', #120, 100.0000000000000000 ) ;
#619 = ORIENTED_EDGE ( 'NONE', *, *, #1076, .T. ) ;
#620 = CARTESIAN_POINT ( 'NONE',  ( 0.5749999999999999556, 0.2400000000000000744, 5.000000000000000000 ) ) ;
#621 = ORIENTED_EDGE ( 'NONE', *, *, #629, .T. ) ;
#622 = EDGE_CURVE ( 'NONE', #855, #1105, #144, .T. ) ;
#623 = VECTOR ( 'NONE', #42, 100.0000000000000000 ) ;
#624 = COLOUR_RGB ( '',0.6941176470588235059, 0.09803921568627450844, 0.09803921568627450844 ) ;
#625 = ORIENTED_EDGE ( 'NONE', *, *, #905, .F. ) ;
#626 = DIRECTION ( 'NONE',  ( 0.000000000000000000, -1.000000000000000000, 0.000000000000000000 ) ) ;
#627 = ORIENTED_EDGE ( 'NONE', *, *, #520, .F. ) ;
#628 = CARTESIAN_POINT ( 'NONE',  ( 0.3149999999999998912, -0.2399999999999997691, 2.630000000000000338 ) ) ;
#629 = EDGE_CURVE ( 'NONE', #273, #504, #124, .T. ) ;
#630 = ORIENTED_EDGE ( 'NONE', *, *, #836, .T. ) ;
#631 = DIRECTION ( 'NONE',  ( 0.000000000000000000, 1.000000000000000000, 0.000000000000000000 ) ) ;
#632 = ORIENTED_EDGE ( 'NONE', *, *, #498, .T. ) ;
#633 = DIRECTION ( 'NONE',  ( 0.000000000000000000, 1.000000000000000000, -0.000000000000000000 ) ) ;
#634 = ORIENTED_EDGE ( 'NONE', *, *, #764, .T. ) ;
#635 = ADVANCED_FACE ( 'NONE', ( #957 ), #37, .T. ) ;
#636 = CARTESIAN_POINT ( 'NONE',  ( 0.3149999999999998912, 0.2400000000000000744, 2.630000000000000338 ) ) ;
#637 = VECTOR ( 'NONE', #1056, 100.0000000000000000 ) ;
#638 = ORIENTED_EDGE ( 'NONE', *, *, #779, .T. ) ;
#639 = DIRECTION ( 'NONE',  ( 0.000000000000000000, 0.000000000000000000, -1.000000000000000000 ) ) ;
#640 = CARTESIAN_POINT ( 'NONE',  ( -0.5750000000000000666, 0.5749999999999999556, 5.000000000000000000 ) ) ;
#641 = VECTOR ( 'NONE', #1058, 100.0000000000000142 ) ;
#642 = CARTESIAN_POINT ( 'NONE',  ( 0.5750000000000000666, 0.5749999999999999556, 12.00000000000000000 ) ) ;
#643 = VECTOR ( 'NONE', #948, 100.0000000000000000 ) ;
#644 = VERTEX_POINT ( 'NONE', #129 ) ;
#645 = DIRECTION ( 'NONE',  ( 0.000000000000000000, 0.000000000000000000, -1.000000000000000000 ) ) ;
#646 = ADVANCED_FACE ( 'NONE', ( #34 ), #655, .F. ) ;
#647 = LINE ( 'NONE', #477, #929 ) ;
#648 = CARTESIAN_POINT ( 'NONE',  ( -0.2399999999999996303, -0.5749999999999999556, 2.630000000000000338 ) ) ;
#649 = VECTOR ( 'NONE', #1043, 100.0000000000000000 ) ;
#650 = EDGE_LOOP ( 'NONE', ( #450, #360, #619, #730, #632, #312 ) ) ;
#651 = AXIS2_PLACEMENT_3D ( 'NONE', #868, #403, #52 ) ;
#652 = EDGE_CURVE ( 'NONE', #785, #162, #159, .T. ) ;
#653 = CARTESIAN_POINT ( 'NONE',  ( 0.5750000000000000666, -0.5749999999999999556, 5.000000000000000000 ) ) ;
#654 = EDGE_LOOP ( 'NONE', ( #93, #766, #1117, #524 ) ) ;
#655 = CYLINDRICAL_SURFACE ( 'NONE', #222, 0.3000000000000000444 ) ;
#656 = STYLED_ITEM ( 'NONE', ( #1108 ), #318 ) ;
#657 = LINE ( 'NONE', #762, #1020 ) ;
#658 = ORIENTED_EDGE ( 'NONE', *, *, #463, .F. ) ;
#659 = AXIS2_PLACEMENT_3D ( 'NONE', #556, #111, #626 ) ;
#660 = AXIS2_PLACEMENT_3D ( 'NONE', #384, #759, #1034 ) ;
#661 = VERTEX_POINT ( 'NONE', #502 ) ;
#662 = CARTESIAN_POINT ( 'NONE',  ( 3.673940397442060115E-17, -0.3000000000000000444, 0.000000000000000000 ) ) ;
#663 = AXIS2_PLACEMENT_3D ( 'NONE', #563, #926, #471 ) ;
#664 = CARTESIAN_POINT ( 'NONE',  ( 0.000000000000000000, -0.3150000000000007239, 10.20000000000000639 ) ) ;
#665 = ORIENTED_EDGE ( 'NONE', *, *, #32, .T. ) ;
#666 = ADVANCED_BREP_SHAPE_REPRESENTATION ( 'pillar-support_60', ( #195, #160 ), #297 ) ;
#667 = DIRECTION ( 'NONE',  ( 0.000000000000000000, 1.000000000000000000, 0.000000000000000000 ) ) ;
#668 = EDGE_CURVE ( 'NONE', #592, #1099, #390, .T. ) ;
#669 = ORIENTED_EDGE ( 'NONE', *, *, #590, .T. ) ;
#670 = CARTESIAN_POINT ( 'NONE',  ( 0.2400000000000003797, 0.3149999999999998912, 2.390000000000000568 ) ) ;
#671 = DIRECTION ( 'NONE',  ( -1.000000000000000000, -9.035018104045874392E-17, 0.000000000000000000 ) ) ;
#672 = CARTESIAN_POINT ( 'NONE',  ( 0.3149999999999997802, 0.3149999999999998912, 5.000000000000000000 ) ) ;
#673 = EDGE_CURVE ( 'NONE', #375, #1073, #867, .T. ) ;
#674 = ORIENTED_EDGE ( 'NONE', *, *, #959, .F. ) ;
#675 = DIRECTION ( 'NONE',  ( 1.000000000000000000, -0.000000000000000000, -0.000000000000000000 ) ) ;
#676 = CARTESIAN_POINT ( 'NONE',  ( 0.5749999999999999556, 0.5750000000000000666, 5.000000000000000000 ) ) ;
#677 = STYLED_ITEM ( 'NONE', ( #801 ), #195 ) ;
#678 = PLANE ( 'NONE',  #551 ) ;
#679 = ORIENTED_EDGE ( 'NONE', *, *, #981, .T. ) ;
#680 = CARTESIAN_POINT ( 'NONE',  ( 0.3149999999999998912, 0.2400000000000000744, 2.390000000000000568 ) ) ;
#681 = DIRECTION ( 'NONE',  ( -0.1415218808486789492, 0.1415218808486787549, -0.9797668674139294875 ) ) ;
#682 = MECHANICAL_DESIGN_GEOMETRIC_PRESENTATION_REPRESENTATION (  '', ( #781 ), #1035 ) ;
#683 = LINE ( 'NONE', #875, #637 ) ;
#684 = ORIENTED_EDGE ( 'NONE', *, *, #445, .T. ) ;
#685 = CARTESIAN_POINT ( 'NONE',  ( 0.8349999999999999645, -0.2399999999999997691, 2.630000000000000338 ) ) ;
#686 = SURFACE_SIDE_STYLE ('',( #884 ) ) ;
#687 = EDGE_CURVE ( 'NONE', #64, #481, #1118, .T. ) ;
#688 = AXIS2_PLACEMENT_3D ( 'NONE', #45, #136, #847 ) ;
#689 = LINE ( 'NONE', #417, #115 ) ;
#690 = EDGE_LOOP ( 'NONE', ( #752, #447, #904, #518 ) ) ;
#691 = CARTESIAN_POINT ( 'NONE',  ( 0.2400000000000003797, -0.5749999999999999556, 5.000000000000000000 ) ) ;
#692 = ORIENTED_EDGE ( 'NONE', *, *, #905, .T. ) ;
#693 = FACE_OUTER_BOUND ( 'NONE', #205, .T. ) ;
#694 = VECTOR ( 'NONE', #829, 100.0000000000000000 ) ;
#695 = SHAPE_DEFINITION_REPRESENTATION ( #891, #666 ) ;
#696 = EDGE_CURVE ( 'NONE', #882, #604, #55, .T. ) ;
#697 = ORIENTED_EDGE ( 'NONE', *, *, #1158, .T. ) ;
#698 = DIRECTION ( 'NONE',  ( 1.000000000000000000, 1.508455196501571429E-16, 0.000000000000000000 ) ) ;
#699 = VECTOR ( 'NONE', #415, 100.0000000000000000 ) ;
#700 = FILL_AREA_STYLE ('',( #344 ) ) ;
#701 = CARTESIAN_POINT ( 'NONE',  ( 0.5749999999999999556, -0.2399999999999996858, 2.630000000000000338 ) ) ;
#702 = STYLED_ITEM ( 'NONE', ( #791 ), #488 ) ;
#703 = VERTEX_POINT ( 'NONE', #662 ) ;
#704 = ADVANCED_FACE ( 'NONE', ( #963 ), #331, .T. ) ;
#705 = FACE_OUTER_BOUND ( 'NONE', #245, .T. ) ;
#706 = CARTESIAN_POINT ( 'NONE',  ( 0.000000000000000000, 1.134659571895030306, 0.1638952714959489021 ) ) ;
#707 = DIRECTION ( 'NONE',  ( 0.000000000000000000, -1.000000000000000000, -0.000000000000000000 ) ) ;
#708 = ORIENTED_EDGE ( 'NONE', *, *, #687, .F. ) ;
#709 = CARTESIAN_POINT ( 'NONE',  ( -0.8349999999999999645, 0.2400000000000000744, 2.390000000000000568 ) ) ;
#710 = EDGE_CURVE ( 'NONE', #201, #1073, #747, .T. ) ;
#711 = FILL_AREA_STYLE ('',( #1162 ) ) ;
#712 =( NAMED_UNIT ( * ) SI_UNIT ( $, .STERADIAN. ) SOLID_ANGLE_UNIT ( ) );
#713 = VECTOR ( 'NONE', #449, 100.0000000000000000 ) ;
#714 = ORIENTED_EDGE ( 'NONE', *, *, #1025, .F. ) ;
#715 = DIRECTION ( 'NONE',  ( 0.000000000000000000, 0.000000000000000000, 1.000000000000000000 ) ) ;
#716 = ORIENTED_EDGE ( 'NONE', *, *, #308, .T. ) ;
#717 = CARTESIAN_POINT ( 'NONE',  ( 0.000000000000000000, 0.000000000000000000, 1.899999999999999911 ) ) ;
#718 = VECTOR ( 'NONE', #338, 100.0000000000000000 ) ;
#719 = CARTESIAN_POINT ( 'NONE',  ( 0.5749999999999999556, 0.5750000000000000666, 5.000000000000000000 ) ) ;
#720 = EDGE_CURVE ( 'NONE', #1099, #179, #936, .T. ) ;
#721 = VECTOR ( 'NONE', #931, 100.0000000000000000 ) ;
#722 = ORIENTED_EDGE ( 'NONE', *, *, #748, .F. ) ;
#723 = CARTESIAN_POINT ( 'NONE',  ( -0.5749999999999999556, -0.5750000000000000666, 5.000000000000000000 ) ) ;
#724 = ORIENTED_EDGE ( 'NONE', *, *, #73, .F. ) ;
#725 = CARTESIAN_POINT ( 'NONE',  ( 0.2400000000000003797, -0.3149999999999998912, 2.390000000000000568 ) ) ;
#726 = ADVANCED_FACE ( 'NONE', ( #1037 ), #1126, .F. ) ;
#727 = EDGE_LOOP ( 'NONE', ( #33, #692, #192, #935 ) ) ;
#728 = DIRECTION ( 'NONE',  ( -1.508455196501571676E-16, 1.000000000000000000, 0.000000000000000000 ) ) ;
#729 = UNCERTAINTY_MEASURE_WITH_UNIT (LENGTH_MEASURE( 1.000000000000000082E-05 ), #606, 'distance_accuracy_value', 'NONE');
#730 = ORIENTED_EDGE ( 'NONE', *, *, #253, .T. ) ;
#731 = CARTESIAN_POINT ( 'NONE',  ( 0.000000000000000000, 0.000000000000000000, 1.899999999999999911 ) ) ;
#732 = LINE ( 'NONE', #642, #494 ) ;
#733 = EDGE_CURVE ( 'NONE', #1008, #375, #767, .T. ) ;
#734 = VECTOR ( 'NONE', #819, 100.0000000000000000 ) ;
#735 = EDGE_LOOP ( 'NONE', ( #543, #833, #823, #118 ) ) ;
#736 = PLANE ( 'NONE',  #517 ) ;
#737 = DIRECTION ( 'NONE',  ( 1.000000000000000000, 0.000000000000000000, 0.000000000000000000 ) ) ;
#738 = AXIS2_PLACEMENT_3D ( 'NONE', #709, #598, #262 ) ;
#739 = CARTESIAN_POINT ( 'NONE',  ( 0.5750000000000000666, -0.5749999999999999556, 5.000000000000000000 ) ) ;
#740 = VECTOR ( 'NONE', #681, 100.0000000000000142 ) ;
#741 = EDGE_CURVE ( 'NONE', #566, #43, #1132, .T. ) ;
#742 = ORIENTED_EDGE ( 'NONE', *, *, #720, .F. ) ;
#743 = CARTESIAN_POINT ( 'NONE',  ( 0.5749999999999999556, 0.2400000000000000744, 5.000000000000000000 ) ) ;
#744 = DIRECTION ( 'NONE',  ( -1.508455196501571429E-16, 1.000000000000000000, 0.000000000000000000 ) ) ;
#745 = PLANE ( 'NONE',  #181 ) ;
#746 = VERTEX_POINT ( 'NONE', #1142 ) ;
#747 = LINE ( 'NONE', #771, #1065 ) ;
#748 = EDGE_CURVE ( 'NONE', #855, #134, #790, .T. ) ;
#749 = CARTESIAN_POINT ( 'NONE',  ( 3.469446951953614189E-16, -0.3149999999999998912, 2.630000000000000338 ) ) ;
#750 = EDGE_LOOP ( 'NONE', ( #886, #112, #211, #460 ) ) ;
#751 =( LENGTH_UNIT ( ) NAMED_UNIT ( * ) SI_UNIT ( .CENTI., .METRE. ) );
#752 = ORIENTED_EDGE ( 'NONE', *, *, #214, .F. ) ;
#753 = DIRECTION ( 'NONE',  ( -1.508455196501571676E-16, 1.000000000000000000, 0.000000000000000000 ) ) ;
#754 = VECTOR ( 'NONE', #960, 100.0000000000000000 ) ;
#755 = CARTESIAN_POINT ( 'NONE',  ( -0.3149999999999998912, -0.3149999999999999467, 5.000000000000000000 ) ) ;
#756 = EDGE_CURVE ( 'NONE', #201, #855, #531, .T. ) ;
#757 = ORIENTED_EDGE ( 'NONE', *, *, #608, .F. ) ;
#758 = AXIS2_PLACEMENT_3D ( 'NONE', #175, #603, #84 ) ;
#759 = DIRECTION ( 'NONE',  ( 1.508455196501571676E-16, -1.000000000000000000, -0.000000000000000000 ) ) ;
#760 = ORIENTED_EDGE ( 'NONE', *, *, #1113, .T. ) ;
#761 = DIRECTION ( 'NONE',  ( 0.000000000000000000, 1.000000000000000000, 0.000000000000000000 ) ) ;
#762 = CARTESIAN_POINT ( 'NONE',  ( 0.5749999999999999556, 0.5750000000000000666, 5.000000000000000000 ) ) ;
#763 = CARTESIAN_POINT ( 'NONE',  ( 0.5749999999999999556, -0.2399999999999996858, 5.000000000000000000 ) ) ;
#764 = EDGE_CURVE ( 'NONE', #182, #149, #990, .T. ) ;
#765 =( NAMED_UNIT ( * ) PLANE_ANGLE_UNIT ( ) SI_UNIT ( $, .RADIAN. ) );
#766 = ORIENTED_EDGE ( 'NONE', *, *, #1033, .T. ) ;
#767 = LINE ( 'NONE', #680, #818 ) ;
#768 = ORIENTED_EDGE ( 'NONE', *, *, #498, .F. ) ;
#769 = LINE ( 'NONE', #849, #623 ) ;
#770 = ORIENTED_EDGE ( 'NONE', *, *, #346, .F. ) ;
#771 = CARTESIAN_POINT ( 'NONE',  ( 0.3149999999999997802, 0.3149999999999998912, 10.20000000000000107 ) ) ;
#772 = LINE ( 'NONE', #333, #740 ) ;
#773 = AXIS2_PLACEMENT_3D ( 'NONE', #80, #792, #173 ) ;
#774 = LINE ( 'NONE', #1140, #1155 ) ;
#775 = APPLICATION_PROTOCOL_DEFINITION ( 'draft international standard', 'automotive_design', 1998, #255 ) ;
#776 = AXIS2_PLACEMENT_3D ( 'NONE', #826, #728, #822 ) ;
#777 = ORIENTED_EDGE ( 'NONE', *, *, #193, .T. ) ;
#778 = LINE ( 'NONE', #348, #641 ) ;
#779 = EDGE_CURVE ( 'NONE', #999, #661, #571, .T. ) ;
#780 = DIRECTION ( 'NONE',  ( 9.035018104045874392E-17, -1.000000000000000000, 0.000000000000000000 ) ) ;
#781 = STYLED_ITEM ( 'NONE', ( #119 ), #570 ) ;
#782 = LINE ( 'NONE', #62, #132 ) ;
#783 = ORIENTED_EDGE ( 'NONE', *, *, #527, .F. ) ;
#784 = DIRECTION ( 'NONE',  ( 1.807003620809174632E-16, 1.000000000000000000, 0.000000000000000000 ) ) ;
#785 = VERTEX_POINT ( 'NONE', #1160 ) ;
#786 =( NAMED_UNIT ( * ) PLANE_ANGLE_UNIT ( ) SI_UNIT ( $, .RADIAN. ) );
#787 = DIRECTION ( 'NONE',  ( 0.000000000000000000, -1.000000000000000000, -0.000000000000000000 ) ) ;
#788 = EDGE_LOOP ( 'NONE', ( #930, #869, #220, #1061, #146, #1141, #5, #716 ) ) ;
#789 = APPLICATION_CONTEXT ( 'automotive_design' ) ;
#790 = LINE ( 'NONE', #610, #718 ) ;
#791 = PRESENTATION_STYLE_ASSIGNMENT (( #992 ) ) ;
#792 = DIRECTION ( 'NONE',  ( 0.000000000000000000, 0.000000000000000000, 1.000000000000000000 ) ) ;
#793 = MECHANICAL_DESIGN_GEOMETRIC_PRESENTATION_REPRESENTATION (  '', ( #677 ), #1138 ) ;
#794 = EDGE_CURVE ( 'NONE', #1164, #592, #883, .T. ) ;
#795 = PRODUCT ( 'pillar-support_60', 'pillar-support_60', '', ( #1060 ) ) ;
#796 = ORIENTED_EDGE ( 'NONE', *, *, #332, .F. ) ;
#797 = DIRECTION ( 'NONE',  ( 0.000000000000000000, -1.000000000000000000, 0.000000000000000000 ) ) ;
#798 = VECTOR ( 'NONE', #974, 100.0000000000000000 ) ;
#799 = CARTESIAN_POINT ( 'NONE',  ( 0.000000000000000000, 0.000000000000000000, 11.39999999999999858 ) ) ;
#800 = PRODUCT_DEFINITION_FORMATION_WITH_SPECIFIED_SOURCE ( 'ANY', '', #795, .NOT_KNOWN. ) ;
#801 = PRESENTATION_STYLE_ASSIGNMENT (( #897 ) ) ;
#802 = EDGE_CURVE ( 'NONE', #470, #592, #1074, .T. ) ;
#803 = ORIENTED_EDGE ( 'NONE', *, *, #889, .F. ) ;
#804 = FACE_OUTER_BOUND ( 'NONE', #863, .T. ) ;
#805 = PLANE ( 'NONE',  #568 ) ;
#806 = ORIENTED_EDGE ( 'NONE', *, *, #590, .F. ) ;
#807 = CARTESIAN_POINT ( 'NONE',  ( -0.5749999999999999556, 0.2400000000000000744, 5.000000000000000000 ) ) ;
#808 = ADVANCED_FACE ( 'NONE', ( #507 ), #71, .T. ) ;
#809 = ORIENTED_EDGE ( 'NONE', *, *, #261, .T. ) ;
#810 = DIRECTION ( 'NONE',  ( 0.000000000000000000, 0.000000000000000000, 1.000000000000000000 ) ) ;
#811 = CARTESIAN_POINT ( 'NONE',  ( -1.134659571895032526, 0.000000000000000000, 0.1638952714959494017 ) ) ;
#812 = AXIS2_PLACEMENT_3D ( 'NONE', #323, #952, #971 ) ;
#813 = ORIENTED_EDGE ( 'NONE', *, *, #463, .T. ) ;
#814 = PLANE ( 'NONE',  #203 ) ;
#815 = VERTEX_POINT ( 'NONE', #1154 ) ;
#816 = SURFACE_STYLE_FILL_AREA ( #455 ) ;
#817 = EDGE_CURVE ( 'NONE', #254, #201, #778, .T. ) ;
#818 = VECTOR ( 'NONE', #135, 100.0000000000000000 ) ;
#819 = DIRECTION ( 'NONE',  ( 0.000000000000000000, 1.000000000000000000, 0.000000000000000000 ) ) ;
#820 = PRESENTATION_LAYER_ASSIGNMENT (  '', '', ( #244 ) ) ;
#821 = ORIENTED_EDGE ( 'NONE', *, *, #764, .F. ) ;
#822 = DIRECTION ( 'NONE',  ( -1.000000000000000000, -1.508455196501571676E-16, 0.000000000000000000 ) ) ;
#823 = ORIENTED_EDGE ( 'NONE', *, *, #559, .F. ) ;
#824 = CARTESIAN_POINT ( 'NONE',  ( -0.3149999999999998912, -0.3149999999999999467, 5.000000000000000000 ) ) ;
#825 = ADVANCED_FACE ( 'NONE', ( #705 ), #525, .F. ) ;
#826 = CARTESIAN_POINT ( 'NONE',  ( 0.5750000000000000666, -0.5749999999999999556, 5.000000000000000000 ) ) ;
#827 = VERTEX_POINT ( 'NONE', #256 ) ;
#828 = PLANE ( 'NONE',  #13 ) ;
#829 = DIRECTION ( 'NONE',  ( -0.000000000000000000, 0.000000000000000000, -1.000000000000000000 ) ) ;
#830 = EDGE_CURVE ( 'NONE', #504, #703, #421, .T. ) ;
#831 = CARTESIAN_POINT ( 'NONE',  ( -0.2399999999999996303, -0.5749999999999999556, 5.000000000000000000 ) ) ;
#832 = CIRCLE ( 'NONE', #852, 0.2399999999999999911 ) ;
#833 = ORIENTED_EDGE ( 'NONE', *, *, #12, .T. ) ;
#834 = CARTESIAN_POINT ( 'NONE',  ( 0.2400000000000003797, 0.3149999999999998912, 2.390000000000000568 ) ) ;
#835 = DIRECTION ( 'NONE',  ( 0.000000000000000000, -1.000000000000000000, -0.000000000000000000 ) ) ;
#836 = EDGE_CURVE ( 'NONE', #996, #746, #435, .T. ) ;
#837 = DIRECTION ( 'NONE',  ( -1.000000000000000000, 0.000000000000000000, 0.000000000000000000 ) ) ;
#838 = AXIS2_PLACEMENT_3D ( 'NONE', #799, #171, #257 ) ;
#839 = ORIENTED_EDGE ( 'NONE', *, *, #668, .F. ) ;
#840 = CARTESIAN_POINT ( 'NONE',  ( -0.2399999999999996303, -0.3149999999999998912, 2.390000000000000568 ) ) ;
#841 =( NAMED_UNIT ( * ) PLANE_ANGLE_UNIT ( ) SI_UNIT ( $, .RADIAN. ) );
#842 = ORIENTED_EDGE ( 'NONE', *, *, #1113, .F. ) ;
#843 = DIRECTION ( 'NONE',  ( -0.000000000000000000, 1.000000000000000000, -0.000000000000000000 ) ) ;
#844 = ORIENTED_EDGE ( 'NONE', *, *, #1003, .T. ) ;
#845 = DIRECTION ( 'NONE',  ( 0.1415218808486789215, -0.1415218808486787827, -0.9797668674139294875 ) ) ;
#846 = VECTOR ( 'NONE', #1144, 100.0000000000000000 ) ;
#847 = DIRECTION ( 'NONE',  ( -1.000000000000000000, 0.000000000000000000, 0.000000000000000000 ) ) ;
#848 = LINE ( 'NONE', #763, #382 ) ;
#849 = CARTESIAN_POINT ( 'NONE',  ( 0.000000000000000000, 0.2400000000000000744, 5.000000000000000000 ) ) ;
#850 = ORIENTED_EDGE ( 'NONE', *, *, #817, .T. ) ;
#851 = CARTESIAN_POINT ( 'NONE',  ( 3.686287386450715076E-16, 0.5749999999999999556, 2.630000000000000338 ) ) ;
#852 = AXIS2_PLACEMENT_3D ( 'NONE', #749, #835, #105 ) ;
#853 = CARTESIAN_POINT ( 'NONE',  ( -0.3149999999999998912, 0.2400000000000000744, 2.630000000000000338 ) ) ;
#854 = EDGE_CURVE ( 'NONE', #347, #1125, #367, .T. ) ;
#855 = VERTEX_POINT ( 'NONE', #77 ) ;
#856 = VECTOR ( 'NONE', #469, 100.0000000000000000 ) ;
#857 = DIRECTION ( 'NONE',  ( 0.000000000000000000, 0.000000000000000000, 1.000000000000000000 ) ) ;
#858 = VECTOR ( 'NONE', #412, 100.0000000000000000 ) ;
#859 = ORIENTED_EDGE ( 'NONE', *, *, #240, .T. ) ;
#860 = CARTESIAN_POINT ( 'NONE',  ( 0.8349999999999999645, -0.2399999999999997691, 5.000000000000000000 ) ) ;
#861 = AXIS2_PLACEMENT_3D ( 'NONE', #1023, #218, #567 ) ;
#862 = CARTESIAN_POINT ( 'NONE',  ( 0.000000000000000000, 0.000000000000000000, 5.000000000000000000 ) ) ;
#863 = EDGE_LOOP ( 'NONE', ( #237, #1022, #353, #575, #373, #722, #925, #1134 ) ) ;
#864 = EDGE_CURVE ( 'NONE', #984, #541, #1147, .T. ) ;
#865 = PRODUCT_DEFINITION_CONTEXT ( 'detailed design', #255, 'design' ) ;
#866 = ORIENTED_EDGE ( 'NONE', *, *, #1003, .F. ) ;
#867 = LINE ( 'NONE', #593, #438 ) ;
#868 = CARTESIAN_POINT ( 'NONE',  ( 0.000000000000000000, 0.000000000000000000, 11.39999999999999858 ) ) ;
#869 = ORIENTED_EDGE ( 'NONE', *, *, #352, .T. ) ;
#870 = EDGE_CURVE ( 'NONE', #1052, #470, #1071, .T. ) ;
#871 = ORIENTED_EDGE ( 'NONE', *, *, #1165, .T. ) ;
#872 = DIRECTION ( 'NONE',  ( 0.000000000000000000, 0.1429607626552378552, 0.9897283568439537715 ) ) ;
#873 = CARTESIAN_POINT ( 'NONE',  ( 0.2400000000000003797, 0.3149999999999998912, 5.000000000000000000 ) ) ;
#874 = VECTOR ( 'NONE', #23, 100.0000000000000142 ) ;
#875 = CARTESIAN_POINT ( 'NONE',  ( -0.3149999999999998912, -0.3149999999999999467, 5.000000000000000000 ) ) ;
#876 = CARTESIAN_POINT ( 'NONE',  ( 0.000000000000000000, 0.000000000000000000, 0.000000000000000000 ) ) ;
#877 = AXIS2_PLACEMENT_3D ( 'NONE', #887, #60, #968 ) ;
#878 = EDGE_CURVE ( 'NONE', #126, #1099, #615, .T. ) ;
#879 = VERTEX_POINT ( 'NONE', #691 ) ;
#880 = DIRECTION ( 'NONE',  ( -1.000000000000000000, 9.035018104045874392E-17, -0.000000000000000000 ) ) ;
#881 = FACE_OUTER_BOUND ( 'NONE', #550, .T. ) ;
#882 = VERTEX_POINT ( 'NONE', #268 ) ;
#883 = LINE ( 'NONE', #1067, #798 ) ;
#884 = SURFACE_STYLE_FILL_AREA ( #711 ) ;
#885 = FACE_OUTER_BOUND ( 'NONE', #580, .T. ) ;
#886 = ORIENTED_EDGE ( 'NONE', *, *, #1033, .F. ) ;
#887 = CARTESIAN_POINT ( 'NONE',  ( 0.000000000000000000, 0.000000000000000000, 0.000000000000000000 ) ) ;
#888 = CARTESIAN_POINT ( 'NONE',  ( 3.673940397442060115E-17, 0.3000000000000000444, 11.39999999999999858 ) ) ;
#889 = EDGE_CURVE ( 'NONE', #182, #43, #554, .T. ) ;
#890 = SURFACE_STYLE_FILL_AREA ( #428 ) ;
#891 = PRODUCT_DEFINITION_SHAPE ( 'NONE', 'NONE',  #38 ) ;
#892 = ORIENTED_EDGE ( 'NONE', *, *, #512, .F. ) ;
#893 = CARTESIAN_POINT ( 'NONE',  ( 0.5750000000000000666, -0.5749999999999999556, 0.000000000000000000 ) ) ;
#894 = AXIS2_PLACEMENT_3D ( 'NONE', #188, #107, #300 ) ;
#895 = DIRECTION ( 'NONE',  ( -1.000000000000000000, -1.508455196501571429E-16, 0.000000000000000000 ) ) ;
#896 = VECTOR ( 'NONE', #31, 100.0000000000000000 ) ;
#897 = SURFACE_STYLE_USAGE ( .BOTH. , #258 ) ;
#898 = ADVANCED_FACE ( 'NONE', ( #804 ), #1166, .F. ) ;
#899 = ORIENTED_EDGE ( 'NONE', *, *, #830, .F. ) ;
#900 = DIRECTION ( 'NONE',  ( -1.000000000000000000, 0.000000000000000000, 0.000000000000000000 ) ) ;
#901 = VERTEX_POINT ( 'NONE', #1080 ) ;
#902 = FACE_OUTER_BOUND ( 'NONE', #1153, .T. ) ;
#903 = DIRECTION ( 'NONE',  ( 0.000000000000000000, -1.000000000000000000, 0.000000000000000000 ) ) ;
#904 = ORIENTED_EDGE ( 'NONE', *, *, #616, .T. ) ;
#905 = EDGE_CURVE ( 'NONE', #827, #154, #457, .T. ) ;
#906 = CARTESIAN_POINT ( 'NONE',  ( 3.673940397442060115E-17, -0.3000000000000000444, 1.899999999999999911 ) ) ;
#907 = ORIENTED_EDGE ( 'NONE', *, *, #616, .F. ) ;
#908 = DIRECTION ( 'NONE',  ( -8.340016711426955288E-17, 1.000000000000000000, 0.000000000000000000 ) ) ;
#909 = DIRECTION ( 'NONE',  ( -0.000000000000000000, 0.000000000000000000, -1.000000000000000000 ) ) ;
#910 = VECTOR ( 'NONE', #334, 100.0000000000000000 ) ;
#911 = VERTEX_POINT ( 'NONE', #1005 ) ;
#912 = DIRECTION ( 'NONE',  ( -0.000000000000000000, -1.000000000000000000, -0.000000000000000000 ) ) ;
#913 = UNCERTAINTY_MEASURE_WITH_UNIT (LENGTH_MEASURE( 1.000000000000000082E-05 ), #303, 'distance_accuracy_value', 'NONE');
#914 = ORIENTED_EDGE ( 'NONE', *, *, #1091, .F. ) ;
#915 = DIRECTION ( 'NONE',  ( 0.000000000000000000, 0.000000000000000000, 1.000000000000000000 ) ) ;
#916 = EDGE_CURVE ( 'NONE', #414, #162, #464, .T. ) ;
#917 = AXIS2_PLACEMENT_3D ( 'NONE', #246, #574, #761 ) ;
#918 = CARTESIAN_POINT ( 'NONE',  ( -0.5750000000000000666, -0.5749999999999999556, 12.00000000000000000 ) ) ;
#919 = ORIENTED_EDGE ( 'NONE', *, *, #668, .T. ) ;
#920 = CYLINDRICAL_SURFACE ( 'NONE', #659, 0.2400000000000000189 ) ;
#921 = ORIENTED_EDGE ( 'NONE', *, *, #261, .F. ) ;
#922 = CARTESIAN_POINT ( 'NONE',  ( 0.5750000000000000666, 0.5749999999999999556, 12.00000000000000000 ) ) ;
#923 = ADVANCED_FACE ( 'NONE', ( #281 ), #920, .F. ) ;
#924 = PLANE ( 'NONE',  #776 ) ;
#925 = ORIENTED_EDGE ( 'NONE', *, *, #622, .T. ) ;
#926 = DIRECTION ( 'NONE',  ( -1.000000000000000000, 0.000000000000000000, 0.000000000000000000 ) ) ;
#927 = CYLINDRICAL_SURFACE ( 'NONE', #949, 0.3000000000000000444 ) ;
#928 = DIRECTION ( 'NONE',  ( 1.508455196501571429E-16, -1.000000000000000000, 0.000000000000000000 ) ) ;
#929 = VECTOR ( 'NONE', #200, 100.0000000000000000 ) ;
#930 = ORIENTED_EDGE ( 'NONE', *, *, #1123, .F. ) ;
#931 = DIRECTION ( 'NONE',  ( 1.000000000000000000, 0.000000000000000000, 0.000000000000000000 ) ) ;
#932 = AXIS2_PLACEMENT_3D ( 'NONE', #670, #233, #581 ) ;
#933 = CARTESIAN_POINT ( 'NONE',  ( 0.000000000000000000, 0.000000000000000000, 12.00000000000000000 ) ) ;
#934 = AXIS2_PLACEMENT_3D ( 'NONE', #448, #810, #206 ) ;
#935 = ORIENTED_EDGE ( 'NONE', *, *, #854, .F. ) ;
#936 = LINE ( 'NONE', #408, #63 ) ;
#937 = DIRECTION ( 'NONE',  ( 1.508455196501571676E-16, -1.000000000000000000, 0.000000000000000000 ) ) ;
#938 = ORIENTED_EDGE ( 'NONE', *, *, #741, .F. ) ;
#939 =( NAMED_UNIT ( * ) SI_UNIT ( $, .STERADIAN. ) SOLID_ANGLE_UNIT ( ) );
#940 = ADVANCED_FACE ( 'NONE', ( #1104 ), #924, .F. ) ;
#941 = VECTOR ( 'NONE', #56, 100.0000000000000000 ) ;
#942 = EDGE_LOOP ( 'NONE', ( #806, #260, #760, #36 ) ) ;
#943 = DIRECTION ( 'NONE',  ( 1.000000000000000000, 0.000000000000000000, 0.000000000000000000 ) ) ;
#944 = DIRECTION ( 'NONE',  ( 1.000000000000000000, 0.000000000000000000, 0.000000000000000000 ) ) ;
#945 = ORIENTED_EDGE ( 'NONE', *, *, #357, .F. ) ;
#946 = CARTESIAN_POINT ( 'NONE',  ( -0.5750000000000000666, -0.2399999999999997691, 5.000000000000000000 ) ) ;
#947 = ORIENTED_EDGE ( 'NONE', *, *, #802, .F. ) ;
#948 = DIRECTION ( 'NONE',  ( 0.000000000000000000, 0.000000000000000000, 1.000000000000000000 ) ) ;
#949 = AXIS2_PLACEMENT_3D ( 'NONE', #731, #909, #462 ) ;
#950 = LINE ( 'NONE', #755, #649 ) ;
#951 = EDGE_CURVE ( 'NONE', #879, #1164, #374, .T. ) ;
#952 = DIRECTION ( 'NONE',  ( 0.000000000000000000, -1.000000000000000000, 0.000000000000000000 ) ) ;
#953 = AXIS2_PLACEMENT_3D ( 'NONE', #227, #221, #1042 ) ;
#954 = CARTESIAN_POINT ( 'NONE',  ( -0.3149999999999998912, -0.2399999999999997691, 5.000000000000000000 ) ) ;
#955 = VECTOR ( 'NONE', #446, 100.0000000000000000 ) ;
#956 = ORIENTED_EDGE ( 'NONE', *, *, #794, .F. ) ;
#957 = FACE_OUTER_BOUND ( 'NONE', #555, .T. ) ;
#958 = DIRECTION ( 'NONE',  ( 0.000000000000000000, 1.000000000000000000, 0.000000000000000000 ) ) ;
#959 = EDGE_CURVE ( 'NONE', #815, #644, #997, .T. ) ;
#960 = DIRECTION ( 'NONE',  ( 0.000000000000000000, 1.000000000000000000, 0.000000000000000000 ) ) ;
#961 = APPLICATION_PROTOCOL_DEFINITION ( 'draft international standard', 'automotive_design', 1998, #789 ) ;
#962 = ORIENTED_EDGE ( 'NONE', *, *, #47, .F. ) ;
#963 = FACE_OUTER_BOUND ( 'NONE', #35, .T. ) ;
#964 = CARTESIAN_POINT ( 'NONE',  ( 0.3149999999999998912, -0.2399999999999997691, 2.390000000000000568 ) ) ;
#965 = CARTESIAN_POINT ( 'NONE',  ( 0.5750000000000000666, -0.5749999999999999556, 12.00000000000000000 ) ) ;
#966 = EDGE_CURVE ( 'NONE', #827, #347, #180, .T. ) ;
#967 = VERTEX_POINT ( 'NONE', #94 ) ;
#968 = DIRECTION ( 'NONE',  ( 0.000000000000000000, 1.000000000000000000, 0.000000000000000000 ) ) ;
#969 = DIRECTION ( 'NONE',  ( 0.000000000000000000, 0.000000000000000000, -1.000000000000000000 ) ) ;
#970 = COLOUR_RGB ( '',1.000000000000000000, 1.000000000000000000, 1.000000000000000000 ) ;
#971 = DIRECTION ( 'NONE',  ( 1.000000000000000000, 0.000000000000000000, 0.000000000000000000 ) ) ;
#972 = VECTOR ( 'NONE', #430, 100.0000000000000000 ) ;
#973 = VERTEX_POINT ( 'NONE', #547 ) ;
#974 = DIRECTION ( 'NONE',  ( -0.000000000000000000, 0.000000000000000000, -1.000000000000000000 ) ) ;
#975 = VECTOR ( 'NONE', #1026, 100.0000000000000000 ) ;
#976 = ORIENTED_EDGE ( 'NONE', *, *, #836, .F. ) ;
#977 = DIRECTION ( 'NONE',  ( 0.000000000000000000, 0.1429607626552377997, -0.9897283568439537715 ) ) ;
#978 = CARTESIAN_POINT ( 'NONE',  ( -0.2399999999999996303, -0.3149999999999998912, 5.000000000000000000 ) ) ;
#979 = VERTEX_POINT ( 'NONE', #906 ) ;
#980 = CARTESIAN_POINT ( 'NONE',  ( 0.000000000000000000, 0.3150000000000005018, 10.20000000000000639 ) ) ;
#981 = EDGE_CURVE ( 'NONE', #347, #511, #287, .T. ) ;
#982 =( GEOMETRIC_REPRESENTATION_CONTEXT ( 3 ) GLOBAL_UNCERTAINTY_ASSIGNED_CONTEXT ( ( #913 ) ) GLOBAL_UNIT_ASSIGNED_CONTEXT ( ( #303, #841, #18 ) ) REPRESENTATION_CONTEXT ( 'NONE', 'WORKASPACE' ) );
#983 = LINE ( 'NONE', #516, #713 ) ;
#984 = VERTEX_POINT ( 'NONE', #536 ) ;
#985 = CARTESIAN_POINT ( 'NONE',  ( 0.5749999999999999556, 0.5750000000000000666, 5.000000000000000000 ) ) ;
#986 = PLANE ( 'NONE',  #1054 ) ;
#987 = CARTESIAN_POINT ( 'NONE',  ( -0.3150000000000004463, -0.3150000000000006128, 10.20000000000000995 ) ) ;
#988 = AXIS2_PLACEMENT_3D ( 'NONE', #92, #263, #437 ) ;
#989 = ORIENTED_EDGE ( 'NONE', *, *, #529, .T. ) ;
#990 = LINE ( 'NONE', #685, #972 ) ;
#991 = ORIENTED_EDGE ( 'NONE', *, *, #1010, .F. ) ;
#992 = SURFACE_STYLE_USAGE ( .BOTH. , #686 ) ;
#993 = VECTOR ( 'NONE', #843, 100.0000000000000000 ) ;
#994 = MECHANICAL_DESIGN_GEOMETRIC_PRESENTATION_REPRESENTATION (  '', ( #702 ), #121 ) ;
#995 = ADVANCED_FACE ( 'NONE', ( #15 ), #814, .F. ) ;
#996 = VERTEX_POINT ( 'NONE', #89 ) ;
#997 = LINE ( 'NONE', #648, #605 ) ;
#998 = UNCERTAINTY_MEASURE_WITH_UNIT (LENGTH_MEASURE( 1.000000000000000082E-05 ), #302, 'distance_accuracy_value', 'NONE');
#999 = VERTEX_POINT ( 'NONE', #20 ) ;
#1000 = DIRECTION ( 'NONE',  ( 0.000000000000000000, 1.000000000000000000, 0.000000000000000000 ) ) ;
#1001 = DIRECTION ( 'NONE',  ( -1.000000000000000000, 0.000000000000000000, 0.000000000000000000 ) ) ;
#1002 = VECTOR ( 'NONE', #1133, 100.0000000000000000 ) ;
#1003 = EDGE_CURVE ( 'NONE', #254, #984, #732, .T. ) ;
#1004 = VERTEX_POINT ( 'NONE', #831 ) ;
#1005 = CARTESIAN_POINT ( 'NONE',  ( 0.2400000000000003797, -0.3149999999999998912, 2.630000000000000338 ) ) ;
#1006 = ORIENTED_EDGE ( 'NONE', *, *, #520, .T. ) ;
#1007 = MECHANICAL_DESIGN_GEOMETRIC_PRESENTATION_REPRESENTATION (  '', ( #656 ), #982 ) ;
#1008 = VERTEX_POINT ( 'NONE', #636 ) ;
#1009 = DIRECTION ( 'NONE',  ( 0.000000000000000000, 0.000000000000000000, 1.000000000000000000 ) ) ;
#1010 = EDGE_CURVE ( 'NONE', #179, #470, #369, .T. ) ;
#1011 = ORIENTED_EDGE ( 'NONE', *, *, #248, .T. ) ;
#1012 =( NAMED_UNIT ( * ) PLANE_ANGLE_UNIT ( ) SI_UNIT ( $, .RADIAN. ) );
#1013 = VECTOR ( 'NONE', #797, 100.0000000000000000 ) ;
#1014 = CARTESIAN_POINT ( 'NONE',  ( -0.2399999999999996303, 0.3149999999999998912, 2.630000000000000338 ) ) ;
#1015 = VECTOR ( 'NONE', #675, 100.0000000000000000 ) ;
#1016 = FACE_OUTER_BOUND ( 'NONE', #232, .T. ) ;
#1017 = ORIENTED_EDGE ( 'NONE', *, *, #165, .T. ) ;
#1018 = FACE_OUTER_BOUND ( 'NONE', #562, .T. ) ;
#1019 = CARTESIAN_POINT ( 'NONE',  ( 0.5749999999999999556, 0.5750000000000000666, 5.000000000000000000 ) ) ;
#1020 = VECTOR ( 'NONE', #1050, 100.0000000000000000 ) ;
#1021 = CARTESIAN_POINT ( 'NONE',  ( 0.3149999999999998912, -0.2399999999999997691, 2.390000000000000568 ) ) ;
#1022 = ORIENTED_EDGE ( 'NONE', *, *, #854, .T. ) ;
#1023 = CARTESIAN_POINT ( 'NONE',  ( 0.000000000000000000, 0.000000000000000000, 1.899999999999999911 ) ) ;
#1024 = SURFACE_SIDE_STYLE ('',( #371 ) ) ;
#1025 = EDGE_CURVE ( 'NONE', #827, #901, #25, .T. ) ;
#1026 = DIRECTION ( 'NONE',  ( 0.000000000000000000, 0.000000000000000000, 1.000000000000000000 ) ) ;
#1027 = VECTOR ( 'NONE', #158, 100.0000000000000000 ) ;
#1028 = ORIENTED_EDGE ( 'NONE', *, *, #1097, .F. ) ;
#1029 = DIRECTION ( 'NONE',  ( 0.000000000000000000, 1.000000000000000000, 0.000000000000000000 ) ) ;
#1030 = CARTESIAN_POINT ( 'NONE',  ( 0.3149999999999997802, -0.3149999999999999467, 10.20000000000000107 ) ) ;
#1031 = VECTOR ( 'NONE', #1047, 100.0000000000000000 ) ;
#1032 = ORIENTED_EDGE ( 'NONE', *, *, #193, .F. ) ;
#1033 = EDGE_CURVE ( 'NONE', #785, #999, #292, .T. ) ;
#1034 = DIRECTION ( 'NONE',  ( 1.000000000000000000, 1.508455196501571676E-16, 0.000000000000000000 ) ) ;
#1035 =( GEOMETRIC_REPRESENTATION_CONTEXT ( 3 ) GLOBAL_UNCERTAINTY_ASSIGNED_CONTEXT ( ( #998 ) ) GLOBAL_UNIT_ASSIGNED_CONTEXT ( ( #302, #1012, #22 ) ) REPRESENTATION_CONTEXT ( 'NONE', 'WORKASPACE' ) );
#1036 = ORIENTED_EDGE ( 'NONE', *, *, #966, .T. ) ;
#1037 = FACE_OUTER_BOUND ( 'NONE', #1092, .T. ) ;
#1038 = DIRECTION ( 'NONE',  ( 1.807003620809174632E-16, -1.000000000000000000, 0.000000000000000000 ) ) ;
#1039 = DIRECTION ( 'NONE',  ( -1.000000000000000000, 0.000000000000000000, 0.000000000000000000 ) ) ;
#1040 = LINE ( 'NONE', #585, #896 ) ;
#1041 = ORIENTED_EDGE ( 'NONE', *, *, #271, .T. ) ;
#1042 = DIRECTION ( 'NONE',  ( 0.1429607626552379662, 0.000000000000000000, -0.9897283568439537715 ) ) ;
#1043 = DIRECTION ( 'NONE',  ( 0.000000000000000000, -1.000000000000000000, 0.000000000000000000 ) ) ;
#1044 = CARTESIAN_POINT ( 'NONE',  ( 0.3150000000000001132, -0.3150000000000002798, 10.20000000000000639 ) ) ;
#1045 = LINE ( 'NONE', #572, #29 ) ;
#1046 = EDGE_LOOP ( 'NONE', ( #724, #658, #537, #444 ) ) ;
#1047 = DIRECTION ( 'NONE',  ( -0.000000000000000000, 0.000000000000000000, -1.000000000000000000 ) ) ;
#1048 = AXIS2_PLACEMENT_3D ( 'NONE', #539, #1072, #707 ) ;
#1049 = EDGE_CURVE ( 'NONE', #1125, #1082, #1171, .T. ) ;
#1050 = DIRECTION ( 'NONE',  ( -1.508455196501571429E-16, 1.000000000000000000, 0.000000000000000000 ) ) ;
#1051 = CARTESIAN_POINT ( 'NONE',  ( 0.3149999999999998912, -0.2399999999999997691, 5.000000000000000000 ) ) ;
#1052 = VERTEX_POINT ( 'NONE', #723 ) ;
#1053 = CARTESIAN_POINT ( 'NONE',  ( 0.000000000000000000, 0.000000000000000000, 11.39999999999999858 ) ) ;
#1054 = AXIS2_PLACEMENT_3D ( 'NONE', #522, #526, #183 ) ;
#1055 = PLANE ( 'NONE',  #341 ) ;
#1056 = DIRECTION ( 'NONE',  ( 0.000000000000000000, -1.000000000000000000, 0.000000000000000000 ) ) ;
#1057 = ORIENTED_EDGE ( 'NONE', *, *, #622, .F. ) ;
#1058 = DIRECTION ( 'NONE',  ( -0.1415218808486789492, -0.1415218808486787827, -0.9797668674139294875 ) ) ;
#1059 = CARTESIAN_POINT ( 'NONE',  ( 3.469446951953614189E-16, -0.5749999999999999556, 2.630000000000000338 ) ) ;
#1060 = PRODUCT_CONTEXT ( 'NONE', #789, 'mechanical' ) ;
#1061 = ORIENTED_EDGE ( 'NONE', *, *, #673, .T. ) ;
#1062 = CARTESIAN_POINT ( 'NONE',  ( -0.3149999999999998912, 1.517883041479706208E-16, 2.630000000000000338 ) ) ;
#1063 = CIRCLE ( 'NONE', #454, 0.2399999999999999911 ) ;
#1064 = ADVANCED_FACE ( 'NONE', ( #1016 ), #210, .F. ) ;
#1065 = VECTOR ( 'NONE', #493, 100.0000000000000000 ) ;
#1066 = ORIENTED_EDGE ( 'NONE', *, *, #720, .T. ) ;
#1067 = CARTESIAN_POINT ( 'NONE',  ( 0.5750000000000000666, -0.5749999999999999556, 5.000000000000000000 ) ) ;
#1068 =( NAMED_UNIT ( * ) PLANE_ANGLE_UNIT ( ) SI_UNIT ( $, .RADIAN. ) );
#1069 = CARTESIAN_POINT ( 'NONE',  ( 0.000000000000000000, 0.000000000000000000, 1.899999999999999911 ) ) ;
#1070 = ORIENTED_EDGE ( 'NONE', *, *, #231, .F. ) ;
#1071 = LINE ( 'NONE', #265, #138 ) ;
#1072 = DIRECTION ( 'NONE',  ( 0.000000000000000000, 0.000000000000000000, 1.000000000000000000 ) ) ;
#1073 = VERTEX_POINT ( 'NONE', #133 ) ;
#1074 = LINE ( 'NONE', #893, #82 ) ;
#1075 = FACE_OUTER_BOUND ( 'NONE', #394, .T. ) ;
#1076 = EDGE_CURVE ( 'NONE', #375, #566, #769, .T. ) ;
#1077 = CARTESIAN_POINT ( 'NONE',  ( -0.2399999999999996303, -0.3149999999999998912, 5.000000000000000000 ) ) ;
#1078 = PRESENTATION_LAYER_ASSIGNMENT (  '', '', ( #677 ) ) ;
#1079 = VERTEX_POINT ( 'NONE', #491 ) ;
#1080 = CARTESIAN_POINT ( 'NONE',  ( -0.5750000000000000666, 0.2400000000000000744, 5.000000000000000000 ) ) ;
#1081 = VECTOR ( 'NONE', #343, 100.0000000000000000 ) ;
#1082 = VERTEX_POINT ( 'NONE', #954 ) ;
#1083 = DIRECTION ( 'NONE',  ( -0.000000000000000000, 0.000000000000000000, -1.000000000000000000 ) ) ;
#1084 = EDGE_CURVE ( 'NONE', #1131, #1052, #1045, .T. ) ;
#1085 = DIRECTION ( 'NONE',  ( 1.000000000000000000, 0.000000000000000000, 0.000000000000000000 ) ) ;
#1086 = ORIENTED_EDGE ( 'NONE', *, *, #870, .F. ) ;
#1087 = DIRECTION ( 'NONE',  ( -1.000000000000000000, 0.000000000000000000, 0.000000000000000000 ) ) ;
#1088 = ORIENTED_EDGE ( 'NONE', *, *, #748, .T. ) ;
#1089 = LINE ( 'NONE', #97, #721 ) ;
#1090 = DIRECTION ( 'NONE',  ( 0.000000000000000000, 0.000000000000000000, -1.000000000000000000 ) ) ;
#1091 = EDGE_CURVE ( 'NONE', #979, #703, #122, .T. ) ;
#1092 = EDGE_LOOP ( 'NONE', ( #783, #638, #546, #809, #1057, #54, #573, #26 ) ) ;
#1093 = DIRECTION ( 'NONE',  ( 1.000000000000000000, 0.000000000000000000, 0.000000000000000000 ) ) ;
#1094 = ORIENTED_EDGE ( 'NONE', *, *, #870, .T. ) ;
#1095 = CARTESIAN_POINT ( 'NONE',  ( 0.2400000000000003797, -0.5749999999999999556, 5.000000000000000000 ) ) ;
#1096 = LINE ( 'NONE', #553, #199 ) ;
#1097 = EDGE_CURVE ( 'NONE', #1052, #1004, #1115, .T. ) ;
#1098 = CARTESIAN_POINT ( 'NONE',  ( -0.3149999999999998912, -0.2399999999999997691, 2.390000000000000568 ) ) ;
#1099 = VERTEX_POINT ( 'NONE', #393 ) ;
#1100 = VECTOR ( 'NONE', #251, 100.0000000000000000 ) ;
#1101 = FACE_OUTER_BOUND ( 'NONE', #123, .T. ) ;
#1102 = VECTOR ( 'NONE', #236, 100.0000000000000000 ) ;
#1103 = AXIS2_PLACEMENT_3D ( 'NONE', #676, #326, #937 ) ;
#1104 = FACE_OUTER_BOUND ( 'NONE', #99, .T. ) ;
#1105 = VERTEX_POINT ( 'NONE', #500 ) ;
#1106 = FILL_AREA_STYLE_COLOUR ( '', #624 ) ;
#1107 = EDGE_CURVE ( 'NONE', #1079, #604, #243, .T. ) ;
#1108 = PRESENTATION_STYLE_ASSIGNMENT (( #387 ) ) ;
#1109 = LINE ( 'NONE', #304, #85 ) ;
#1110 = ORIENTED_EDGE ( 'NONE', *, *, #817, .F. ) ;
#1111 = CARTESIAN_POINT ( 'NONE',  ( 0.000000000000000000, 0.3000000000000000444, 1.899999999999999911 ) ) ;
#1112 = LINE ( 'NONE', #569, #41 ) ;
#1113 = EDGE_CURVE ( 'NONE', #703, #504, #351, .T. ) ;
#1114 = ORIENTED_EDGE ( 'NONE', *, *, #1107, .F. ) ;
#1115 = LINE ( 'NONE', #1135, #1102 ) ;
#1116 = PRESENTATION_LAYER_ASSIGNMENT (  '', '', ( #656 ) ) ;
#1117 = ORIENTED_EDGE ( 'NONE', *, *, #527, .T. ) ;
#1118 = LINE ( 'NONE', #860, #101 ) ;
#1119 = FACE_OUTER_BOUND ( 'NONE', #466, .T. ) ;
#1120 = VECTOR ( 'NONE', #459, 100.0000000000000000 ) ;
#1121 = EDGE_CURVE ( 'NONE', #1082, #1131, #1040, .T. ) ;
#1122 = LINE ( 'NONE', #672, #310 ) ;
#1123 = EDGE_CURVE ( 'NONE', #149, #64, #319, .T. ) ;
#1124 = CARTESIAN_POINT ( 'NONE',  ( 3.673940397442060115E-17, -0.3000000000000000444, 1.899999999999999911 ) ) ;
#1125 = VERTEX_POINT ( 'NONE', #406 ) ;
#1126 = PLANE ( 'NONE',  #932 ) ;
#1127 = LINE ( 'NONE', #664, #465 ) ;
#1128 = CARTESIAN_POINT ( 'NONE',  ( 0.000000000000000000, 0.000000000000000000, 0.000000000000000000 ) ) ;
#1129 = ADVANCED_FACE ( 'NONE', ( #311 ), #745, .F. ) ;
#1130 = AXIS2_PLACEMENT_3D ( 'NONE', #503, #39, #1038 ) ;
#1131 = VERTEX_POINT ( 'NONE', #946 ) ;
#1132 = LINE ( 'NONE', #620, #7 ) ;
#1133 = DIRECTION ( 'NONE',  ( -0.000000000000000000, 0.000000000000000000, -1.000000000000000000 ) ) ;
#1134 = ORIENTED_EDGE ( 'NONE', *, *, #378, .T. ) ;
#1135 = CARTESIAN_POINT ( 'NONE',  ( 0.5750000000000000666, -0.5749999999999999556, 5.000000000000000000 ) ) ;
#1136 = ORIENTED_EDGE ( 'NONE', *, *, #549, .F. ) ;
#1137 = CARTESIAN_POINT ( 'NONE',  ( 0.000000000000000000, -0.3000000000000000444, 12.00000000000000000 ) ) ;
#1138 =( GEOMETRIC_REPRESENTATION_CONTEXT ( 3 ) GLOBAL_UNCERTAINTY_ASSIGNED_CONTEXT ( ( #196 ) ) GLOBAL_UNIT_ASSIGNED_CONTEXT ( ( #3, #1169, #712 ) ) REPRESENTATION_CONTEXT ( 'NONE', 'WORKASPACE' ) );
#1139 = CARTESIAN_POINT ( 'NONE',  ( 0.3149999999999998912, 1.517883041479706208E-16, 2.630000000000000338 ) ) ;
#1140 = CARTESIAN_POINT ( 'NONE',  ( 3.673940397442060115E-17, 0.3000000000000000444, 11.39999999999999858 ) ) ;
#1141 = ORIENTED_EDGE ( 'NONE', *, *, #1165, .F. ) ;
#1142 = CARTESIAN_POINT ( 'NONE',  ( 0.3149999999999997802, -0.3149999999999999467, 5.000000000000000000 ) ) ;
#1143 = VECTOR ( 'NONE', #283, 100.0000000000000000 ) ;
#1144 = DIRECTION ( 'NONE',  ( 0.000000000000000000, 0.000000000000000000, 1.000000000000000000 ) ) ;
#1145 = DIRECTION ( 'NONE',  ( 1.000000000000000000, 0.000000000000000000, 0.000000000000000000 ) ) ;
#1146 = ORIENTED_EDGE ( 'NONE', *, *, #951, .T. ) ;
#1147 = LINE ( 'NONE', #354, #1013 ) ;
#1148 = ORIENTED_EDGE ( 'NONE', *, *, #332, .T. ) ;
#1149 = CARTESIAN_POINT ( 'NONE',  ( -0.5749999999999999556, -0.5750000000000000666, 0.000000000000000000 ) ) ;
#1150 = ADVANCED_FACE ( 'NONE', ( #565 ), #473, .F. ) ;
#1151 = CARTESIAN_POINT ( 'NONE',  ( -0.2399999999999996858, 0.5749999999999999556, 2.630000000000000338 ) ) ;
#1152 = DIRECTION ( 'NONE',  ( 1.000000000000000000, 0.000000000000000000, -0.000000000000000000 ) ) ;
#1153 = EDGE_LOOP ( 'NONE', ( #859, #58, #434, #286 ) ) ;
#1154 = CARTESIAN_POINT ( 'NONE',  ( -0.2399999999999996858, -0.5749999999999999556, 2.630000000000000338 ) ) ;
#1155 = VECTOR ( 'NONE', #423, 100.0000000000000000 ) ;
#1156 = CARTESIAN_POINT ( 'NONE',  ( 0.000000000000000000, 0.000000000000000000, 5.000000000000000000 ) ) ;
#1157 = FACE_OUTER_BOUND ( 'NONE', #342, .T. ) ;
#1158 = EDGE_CURVE ( 'NONE', #785, #967, #1109, .T. ) ;
#1159 = ORIENTED_EDGE ( 'NONE', *, *, #802, .T. ) ;
#1160 = CARTESIAN_POINT ( 'NONE',  ( 0.2400000000000003797, 0.5749999999999999556, 2.630000000000000338 ) ) ;
#1161 = AXIS2_PLACEMENT_3D ( 'NONE', #127, #667, #837 ) ;
#1162 = FILL_AREA_STYLE_COLOUR ( '', #298 ) ;
#1163 = VECTOR ( 'NONE', #845, 100.0000000000000142 ) ;
#1164 = VERTEX_POINT ( 'NONE', #653 ) ;
#1165 = EDGE_CURVE ( 'NONE', #88, #201, #219, .T. ) ;
#1166 = PLANE ( 'NONE',  #514 ) ;
#1167 = SURFACE_STYLE_FILL_AREA ( #700 ) ;
#1168 = VECTOR ( 'NONE', #247, 100.0000000000000000 ) ;
#1169 =( NAMED_UNIT ( * ) PLANE_ANGLE_UNIT ( ) SI_UNIT ( $, .RADIAN. ) );
#1170 = ORIENTED_EDGE ( 'NONE', *, *, #864, .F. ) ;
#1171 = LINE ( 'NONE', #1098, #140 ) ;
ENDSEC;
END-ISO-10303-21;
