ISO-10303-21;
HEADER;
FILE_DESCRIPTION (( 'STEP AP214' ),
    '1' );
FILE_NAME ('pillar-support_62.STEP',
    '2026-06-05T23:33:47',
    ( '' ),
    ( '' ),
    'SwSTEP 2.0',
    'SolidWorks 2023',
    '' );
FILE_SCHEMA (( 'AUTOMOTIVE_DESIGN' ));
ENDSEC;

DATA;
#1 = EDGE_CURVE ( 'NONE', #896, #482, #280, .T. ) ;
#2 = FACE_OUTER_BOUND ( 'NONE', #576, .T. ) ;
#3 = DIRECTION ( 'NONE',  ( 1.000000000000000000, 1.508455196501571429E-16, 0.000000000000000000 ) ) ;
#4 = VERTEX_POINT ( 'NONE', #107 ) ;
#5 = ORIENTED_EDGE ( 'NONE', *, *, #427, .T. ) ;
#6 = FACE_OUTER_BOUND ( 'NONE', #1119, .T. ) ;
#7 = CARTESIAN_POINT ( 'NONE',  ( -0.2399999999999996303, 0.3149999999999998912, 5.000000000000000000 ) ) ;
#8 = LINE ( 'NONE', #1000, #804 ) ;
#9 = VERTEX_POINT ( 'NONE', #548 ) ;
#10 = EDGE_CURVE ( 'NONE', #917, #712, #209, .T. ) ;
#11 = LINE ( 'NONE', #1021, #385 ) ;
#12 = LINE ( 'NONE', #188, #178 ) ;
#13 = CARTESIAN_POINT ( 'NONE',  ( 0.5749999999999999556, 0.5750000000000000666, 5.000000000000000000 ) ) ;
#14 = CARTESIAN_POINT ( 'NONE',  ( 0.5750000000000000666, -0.5749999999999999556, 0.000000000000000000 ) ) ;
#15 = EDGE_CURVE ( 'NONE', #1018, #1004, #819, .T. ) ;
#16 = CIRCLE ( 'NONE', #773, 0.3099999999999999978 ) ;
#17 = DIRECTION ( 'NONE',  ( 0.000000000000000000, -1.000000000000000000, 0.000000000000000000 ) ) ;
#18 = AXIS2_PLACEMENT_3D ( 'NONE', #447, #19, #564 ) ;
#19 = DIRECTION ( 'NONE',  ( 0.000000000000000000, 0.000000000000000000, 1.000000000000000000 ) ) ;
#20 = COLOUR_RGB ( '',0.6941176470588235059, 0.09803921568627450844, 0.09803921568627450844 ) ;
#21 = LINE ( 'NONE', #368, #538 ) ;
#22 = VERTEX_POINT ( 'NONE', #834 ) ;
#23 = ORIENTED_EDGE ( 'NONE', *, *, #84, .F. ) ;
#24 = DIRECTION ( 'NONE',  ( 1.508455196501571429E-16, -1.000000000000000000, 0.000000000000000000 ) ) ;
#25 = ORIENTED_EDGE ( 'NONE', *, *, #304, .F. ) ;
#26 = CYLINDRICAL_SURFACE ( 'NONE', #1091, 0.2400000000000000189 ) ;
#27 = DIRECTION ( 'NONE',  ( 0.000000000000000000, 0.000000000000000000, -1.000000000000000000 ) ) ;
#28 = LINE ( 'NONE', #40, #718 ) ;
#29 = ORIENTED_EDGE ( 'NONE', *, *, #348, .T. ) ;
#30 = DIRECTION ( 'NONE',  ( 1.000000000000000000, 0.000000000000000000, 0.000000000000000000 ) ) ;
#31 = EDGE_CURVE ( 'NONE', #384, #47, #28, .T. ) ;
#32 = LINE ( 'NONE', #448, #865 ) ;
#33 = LINE ( 'NONE', #909, #69 ) ;
#34 = FACE_OUTER_BOUND ( 'NONE', #156, .T. ) ;
#35 = ORIENTED_EDGE ( 'NONE', *, *, #265, .T. ) ;
#36 = AXIS2_PLACEMENT_3D ( 'NONE', #705, #1156, #246 ) ;
#37 = CIRCLE ( 'NONE', #485, 0.2399999999999999911 ) ;
#38 = EDGE_CURVE ( 'NONE', #670, #917, #663, .T. ) ;
#39 = CARTESIAN_POINT ( 'NONE',  ( -0.2399999999999996303, 0.3149999999999998912, 2.630000000000000338 ) ) ;
#40 = CARTESIAN_POINT ( 'NONE',  ( 0.000000000000000000, -0.3150000000000007239, 10.20000000000000639 ) ) ;
#41 = EDGE_LOOP ( 'NONE', ( #29, #200, #505, #391 ) ) ;
#42 = CARTESIAN_POINT ( 'NONE',  ( 0.000000000000000000, 0.3150000000000005018, 10.20000000000000639 ) ) ;
#43 = CARTESIAN_POINT ( 'NONE',  ( 0.2400000000000003797, -0.3149999999999998912, 2.390000000000000568 ) ) ;
#44 = LINE ( 'NONE', #498, #217 ) ;
#45 = EDGE_LOOP ( 'NONE', ( #372, #416, #961, #867, #740, #95, #254, #253 ) ) ;
#46 = DIRECTION ( 'NONE',  ( 0.000000000000000000, 0.000000000000000000, 1.000000000000000000 ) ) ;
#47 = VERTEX_POINT ( 'NONE', #930 ) ;
#48 = EDGE_CURVE ( 'NONE', #944, #1032, #624, .T. ) ;
#49 = AXIS2_PLACEMENT_3D ( 'NONE', #316, #987, #266 ) ;
#50 = VECTOR ( 'NONE', #838, 100.0000000000000000 ) ;
#51 = DIRECTION ( 'NONE',  ( 0.1429607626552379662, 0.000000000000000000, -0.9897283568439537715 ) ) ;
#52 = LINE ( 'NONE', #395, #268 ) ;
#53 = FACE_OUTER_BOUND ( 'NONE', #399, .T. ) ;
#54 = ORIENTED_EDGE ( 'NONE', *, *, #497, .T. ) ;
#55 = DIRECTION ( 'NONE',  ( 0.000000000000000000, 1.000000000000000000, 0.000000000000000000 ) ) ;
#56 = EDGE_CURVE ( 'NONE', #146, #937, #33, .T. ) ;
#57 = CARTESIAN_POINT ( 'NONE',  ( 0.5749999999999999556, 0.2400000000000000744, 2.630000000000000338 ) ) ;
#58 = ORIENTED_EDGE ( 'NONE', *, *, #381, .F. ) ;
#59 = DIRECTION ( 'NONE',  ( -1.000000000000000000, 0.000000000000000000, 0.000000000000000000 ) ) ;
#60 = EDGE_CURVE ( 'NONE', #836, #747, #221, .T. ) ;
#61 = DIRECTION ( 'NONE',  ( -1.508455196501571429E-16, 1.000000000000000000, 0.000000000000000000 ) ) ;
#62 = DIRECTION ( 'NONE',  ( 0.000000000000000000, 0.000000000000000000, 1.000000000000000000 ) ) ;
#63 = CARTESIAN_POINT ( 'NONE',  ( 0.000000000000000000, 0.3099999999999999978, 1.899999999999999911 ) ) ;
#64 = ORIENTED_EDGE ( 'NONE', *, *, #830, .F. ) ;
#65 = VECTOR ( 'NONE', #1142, 100.0000000000000142 ) ;
#66 =( NAMED_UNIT ( * ) PLANE_ANGLE_UNIT ( ) SI_UNIT ( $, .RADIAN. ) );
#67 = LINE ( 'NONE', #63, #310 ) ;
#68 = ORIENTED_EDGE ( 'NONE', *, *, #762, .T. ) ;
#69 = VECTOR ( 'NONE', #93, 100.0000000000000000 ) ;
#70 = LINE ( 'NONE', #888, #845 ) ;
#71 = CARTESIAN_POINT ( 'NONE',  ( 0.5750000000000000666, -0.5749999999999999556, 5.000000000000000000 ) ) ;
#72 = VERTEX_POINT ( 'NONE', #592 ) ;
#73 = CARTESIAN_POINT ( 'NONE',  ( 0.3149999999999998912, 1.517883041479706208E-16, 2.630000000000000338 ) ) ;
#74 = VERTEX_POINT ( 'NONE', #597 ) ;
#75 = CARTESIAN_POINT ( 'NONE',  ( 0.3149999999999997802, 0.3149999999999998912, 5.000000000000000000 ) ) ;
#76 = EDGE_CURVE ( 'NONE', #569, #88, #414, .T. ) ;
#77 = CARTESIAN_POINT ( 'NONE',  ( -0.5749999999999999556, 0.2400000000000000744, 2.630000000000000338 ) ) ;
#78 = AXIS2_PLACEMENT_3D ( 'NONE', #626, #1078, #532 ) ;
#80 = CARTESIAN_POINT ( 'NONE',  ( 0.2400000000000003797, -0.3149999999999998912, 2.630000000000000338 ) ) ;
#79 = VECTOR ( 'NONE', #179, 100.0000000000000000 ) ;
#81 = ORIENTED_EDGE ( 'NONE', *, *, #585, .F. ) ;
#82 = VECTOR ( 'NONE', #169, 100.0000000000000142 ) ;
#83 = FACE_OUTER_BOUND ( 'NONE', #676, .T. ) ;
#84 = EDGE_CURVE ( 'NONE', #1149, #362, #496, .T. ) ;
#85 = ADVANCED_FACE ( 'NONE', ( #125 ), #786, .F. ) ;
#86 = CYLINDRICAL_SURFACE ( 'NONE', #680, 0.3099999999999999978 ) ;
#87 = LINE ( 'NONE', #814, #79 ) ;
#88 = VERTEX_POINT ( 'NONE', #772 ) ;
#89 = CARTESIAN_POINT ( 'NONE',  ( -0.3150000000000004463, -0.3150000000000006128, 10.20000000000000995 ) ) ;
#90 = DIRECTION ( 'NONE',  ( 1.000000000000000000, -0.000000000000000000, -0.000000000000000000 ) ) ;
#91 = EDGE_CURVE ( 'NONE', #527, #801, #864, .T. ) ;
#92 = CARTESIAN_POINT ( 'NONE',  ( 0.3149999999999997802, -0.3149999999999999467, 5.000000000000000000 ) ) ;
#93 = DIRECTION ( 'NONE',  ( 0.000000000000000000, -1.000000000000000000, 0.000000000000000000 ) ) ;
#94 = CARTESIAN_POINT ( 'NONE',  ( 0.3149999999999998912, -0.2399999999999997691, 2.390000000000000568 ) ) ;
#95 = ORIENTED_EDGE ( 'NONE', *, *, #860, .F. ) ;
#96 = LINE ( 'NONE', #129, #1134 ) ;
#97 = LINE ( 'NONE', #642, #788 ) ;
#98 = ORIENTED_EDGE ( 'NONE', *, *, #132, .F. ) ;
#99 = VECTOR ( 'NONE', #477, 100.0000000000000000 ) ;
#100 = ORIENTED_EDGE ( 'NONE', *, *, #111, .F. ) ;
#101 = AXIS2_PLACEMENT_3D ( 'NONE', #1162, #1070, #252 ) ;
#102 = LINE ( 'NONE', #666, #897 ) ;
#103 = ORIENTED_EDGE ( 'NONE', *, *, #884, .T. ) ;
#104 = AXIS2_PLACEMENT_3D ( 'NONE', #413, #149, #1146 ) ;
#105 = CARTESIAN_POINT ( 'NONE',  ( -0.3149999999999998912, -0.2399999999999997691, 5.000000000000000000 ) ) ;
#106 = CARTESIAN_POINT ( 'NONE',  ( 0.000000000000000000, 0.000000000000000000, 1.899999999999999911 ) ) ;
#107 = CARTESIAN_POINT ( 'NONE',  ( -0.5750000000000000666, 0.5749999999999999556, 5.000000000000000000 ) ) ;
#108 = ORIENTED_EDGE ( 'NONE', *, *, #60, .T. ) ;
#109 = DIRECTION ( 'NONE',  ( 9.035018104045874392E-17, -1.000000000000000000, 0.000000000000000000 ) ) ;
#110 = ORIENTED_EDGE ( 'NONE', *, *, #852, .T. ) ;
#111 = EDGE_CURVE ( 'NONE', #527, #197, #963, .T. ) ;
#112 = DIRECTION ( 'NONE',  ( 0.000000000000000000, 1.000000000000000000, 0.000000000000000000 ) ) ;
#113 = ORIENTED_EDGE ( 'NONE', *, *, #91, .T. ) ;
#114 = DIRECTION ( 'NONE',  ( 0.1429607626552379940, 0.000000000000000000, 0.9897283568439537715 ) ) ;
#115 = ORIENTED_EDGE ( 'NONE', *, *, #570, .F. ) ;
#116 = ORIENTED_EDGE ( 'NONE', *, *, #15, .F. ) ;
#117 = ORIENTED_EDGE ( 'NONE', *, *, #111, .T. ) ;
#119 = AXIS2_PLACEMENT_3D ( 'NONE', #765, #46, #307 ) ;
#118 = CARTESIAN_POINT ( 'NONE',  ( -0.2399999999999996303, -0.3149999999999998912, 2.390000000000000568 ) ) ;
#120 = ORIENTED_EDGE ( 'NONE', *, *, #892, .T. ) ;
#121 = AXIS2_PLACEMENT_3D ( 'NONE', #1007, #453, #112 ) ;
#122 =( GEOMETRIC_REPRESENTATION_CONTEXT ( 3 ) GLOBAL_UNCERTAINTY_ASSIGNED_CONTEXT ( ( #614 ) ) GLOBAL_UNIT_ASSIGNED_CONTEXT ( ( #870, #124, #850 ) ) REPRESENTATION_CONTEXT ( 'NONE', 'WORKASPACE' ) );
#123 = EDGE_CURVE ( 'NONE', #264, #849, #150, .T. ) ;
#124 =( NAMED_UNIT ( * ) PLANE_ANGLE_UNIT ( ) SI_UNIT ( $, .RADIAN. ) );
#125 = FACE_OUTER_BOUND ( 'NONE', #667, .T. ) ;
#126 = ORIENTED_EDGE ( 'NONE', *, *, #76, .T. ) ;
#127 = SURFACE_SIDE_STYLE ('',( #945 ) ) ;
#128 = ORIENTED_EDGE ( 'NONE', *, *, #585, .T. ) ;
#129 = CARTESIAN_POINT ( 'NONE',  ( 0.3149999999999997802, -0.3149999999999999467, 5.000000000000000000 ) ) ;
#130 = LINE ( 'NONE', #846, #700 ) ;
#131 = PLANE ( 'NONE',  #972 ) ;
#132 = EDGE_CURVE ( 'NONE', #594, #612, #1153, .T. ) ;
#133 = DIRECTION ( 'NONE',  ( 0.000000000000000000, 0.000000000000000000, 1.000000000000000000 ) ) ;
#134 = EDGE_LOOP ( 'NONE', ( #315, #619, #946, #649 ) ) ;
#135 = APPLICATION_PROTOCOL_DEFINITION ( 'draft international standard', 'automotive_design', 1998, #738 ) ;
#136 = FILL_AREA_STYLE_COLOUR ( '', #20 ) ;
#137 =( NAMED_UNIT ( * ) SI_UNIT ( $, .STERADIAN. ) SOLID_ANGLE_UNIT ( ) );
#138 = ORIENTED_EDGE ( 'NONE', *, *, #1, .T. ) ;
#139 = ADVANCED_FACE ( 'NONE', ( #53 ), #131, .F. ) ;
#140 = MECHANICAL_DESIGN_GEOMETRIC_PRESENTATION_REPRESENTATION (  '', ( #328 ), #1167 ) ;
#141 = FACE_OUTER_BOUND ( 'NONE', #433, .T. ) ;
#142 = STYLED_ITEM ( 'NONE', ( #220 ), #831 ) ;
#143 = PLANE ( 'NONE',  #405 ) ;
#144 = DIRECTION ( 'NONE',  ( 0.000000000000000000, 0.000000000000000000, 1.000000000000000000 ) ) ;
#145 = CARTESIAN_POINT ( 'NONE',  ( -0.2399999999999996303, -0.3149999999999998912, 2.390000000000000568 ) ) ;
#146 = VERTEX_POINT ( 'NONE', #778 ) ;
#147 = ADVANCED_FACE ( 'NONE', ( #579 ), #396, .T. ) ;
#148 = PLANE ( 'NONE',  #78 ) ;
#149 = DIRECTION ( 'NONE',  ( 0.000000000000000000, 1.000000000000000000, 0.000000000000000000 ) ) ;
#150 = LINE ( 'NONE', #510, #522 ) ;
#151 = DIRECTION ( 'NONE',  ( 0.000000000000000000, 0.000000000000000000, 1.000000000000000000 ) ) ;
#152 = ORIENTED_EDGE ( 'NONE', *, *, #868, .F. ) ;
#153 = EDGE_CURVE ( 'NONE', #872, #560, #638, .T. ) ;
#154 = DIRECTION ( 'NONE',  ( -1.000000000000000000, 0.000000000000000000, 0.000000000000000000 ) ) ;
#155 = PLANE ( 'NONE',  #1033 ) ;
#156 = EDGE_LOOP ( 'NONE', ( #120, #378, #23, #377 ) ) ;
#157 = CARTESIAN_POINT ( 'NONE',  ( 0.3149999999999998912, 0.2400000000000000744, 2.630000000000000338 ) ) ;
#158 = AXIS2_PLACEMENT_3D ( 'NONE', #278, #726, #807 ) ;
#159 = UNCERTAINTY_MEASURE_WITH_UNIT (LENGTH_MEASURE( 1.000000000000000082E-05 ), #1059, 'distance_accuracy_value', 'NONE');
#160 = EDGE_CURVE ( 'NONE', #9, #937, #684, .T. ) ;
#161 = CARTESIAN_POINT ( 'NONE',  ( 0.5749999999999999556, -0.2399999999999996858, 5.000000000000000000 ) ) ;
#162 = ORIENTED_EDGE ( 'NONE', *, *, #1164, .F. ) ;
#163 = VERTEX_POINT ( 'NONE', #319 ) ;
#164 = CARTESIAN_POINT ( 'NONE',  ( -0.5749999999999999556, -0.2399999999999998523, 2.630000000000000338 ) ) ;
#165 = ADVANCED_FACE ( 'NONE', ( #330 ), #953, .T. ) ;
#166 = FACE_OUTER_BOUND ( 'NONE', #1027, .T. ) ;
#167 = VERTEX_POINT ( 'NONE', #351 ) ;
#168 = DIRECTION ( 'NONE',  ( 1.000000000000000000, 0.000000000000000000, 0.000000000000000000 ) ) ;
#169 = DIRECTION ( 'NONE',  ( -0.1415218808486789492, 0.1415218808486787549, -0.9797668674139294875 ) ) ;
#170 = CARTESIAN_POINT ( 'NONE',  ( -0.5749999999999999556, -0.2399999999999997691, 2.630000000000000338 ) ) ;
#171 = ORIENTED_EDGE ( 'NONE', *, *, #1138, .F. ) ;
#172 = ADVANCED_FACE ( 'NONE', ( #141 ), #406, .F. ) ;
#173 = DIRECTION ( 'NONE',  ( 0.000000000000000000, 1.000000000000000000, 0.000000000000000000 ) ) ;
#174 = EDGE_CURVE ( 'NONE', #482, #74, #776, .T. ) ;
#175 = VECTOR ( 'NONE', #24, 100.0000000000000000 ) ;
#176 = CARTESIAN_POINT ( 'NONE',  ( 0.8349999999999999645, 0.2400000000000000744, 2.630000000000000338 ) ) ;
#177 = VECTOR ( 'NONE', #503, 100.0000000000000000 ) ;
#179 = DIRECTION ( 'NONE',  ( 1.508455196501571429E-16, -1.000000000000000000, 0.000000000000000000 ) ) ;
#178 = VECTOR ( 'NONE', #911, 100.0000000000000000 ) ;
#180 = EDGE_LOOP ( 'NONE', ( #58, #969, #728, #103, #1103, #247 ) ) ;
#181 = PRODUCT_DEFINITION_FORMATION_WITH_SPECIFIED_SOURCE ( 'ANY', '', #374, .NOT_KNOWN. ) ;
#182 = CARTESIAN_POINT ( 'NONE',  ( 3.796405077356794548E-17, 0.3099999999999999978, 11.39999999999999858 ) ) ;
#183 = EDGE_CURVE ( 'NONE', #167, #569, #780, .T. ) ;
#184 = FACE_OUTER_BOUND ( 'NONE', #478, .T. ) ;
#185 = CARTESIAN_POINT ( 'NONE',  ( -0.3149999999999998912, -0.3149999999999999467, 5.000000000000000000 ) ) ;
#186 = ORIENTED_EDGE ( 'NONE', *, *, #411, .T. ) ;
#187 = DIRECTION ( 'NONE',  ( -0.000000000000000000, 1.000000000000000000, -0.000000000000000000 ) ) ;
#188 = CARTESIAN_POINT ( 'NONE',  ( -0.3149999999999998357, 0.000000000000000000, 10.20000000000000284 ) ) ;
#189 = CARTESIAN_POINT ( 'NONE',  ( 0.000000000000000000, 0.3099999999999999978, 1.899999999999999911 ) ) ;
#190 = ORIENTED_EDGE ( 'NONE', *, *, #531, .F. ) ;
#191 = ORIENTED_EDGE ( 'NONE', *, *, #724, .T. ) ;
#192 = LINE ( 'NONE', #906, #65 ) ;
#193 = LINE ( 'NONE', #556, #603 ) ;
#194 = CARTESIAN_POINT ( 'NONE',  ( 0.8349999999999999645, -0.2399999999999997691, 5.000000000000000000 ) ) ;
#195 = ORIENTED_EDGE ( 'NONE', *, *, #392, .T. ) ;
#196 = AXIS2_PLACEMENT_3D ( 'NONE', #1090, #363, #657 ) ;
#197 = VERTEX_POINT ( 'NONE', #785 ) ;
#198 = VECTOR ( 'NONE', #833, 100.0000000000000000 ) ;
#199 = CARTESIAN_POINT ( 'NONE',  ( -0.5749999999999999556, 1.517883041479706208E-16, 2.630000000000000338 ) ) ;
#200 = ORIENTED_EDGE ( 'NONE', *, *, #31, .T. ) ;
#201 = AXIS2_PLACEMENT_3D ( 'NONE', #572, #208, #299 ) ;
#202 = FACE_OUTER_BOUND ( 'NONE', #134, .T. ) ;
#203 = DIRECTION ( 'NONE',  ( -1.000000000000000000, -1.508455196501571429E-16, 0.000000000000000000 ) ) ;
#204 = ORIENTED_EDGE ( 'NONE', *, *, #474, .T. ) ;
#205 = ADVANCED_FACE ( 'NONE', ( #6 ), #1083, .T. ) ;
#206 = DIRECTION ( 'NONE',  ( 0.000000000000000000, 1.000000000000000000, 0.000000000000000000 ) ) ;
#207 = VERTEX_POINT ( 'NONE', #235 ) ;
#208 = DIRECTION ( 'NONE',  ( 0.000000000000000000, -1.000000000000000000, -0.000000000000000000 ) ) ;
#209 = LINE ( 'NONE', #1017, #429 ) ;
#210 = CARTESIAN_POINT ( 'NONE',  ( -0.5750000000000000666, -0.5749999999999999556, 12.00000000000000000 ) ) ;
#211 = ADVANCED_FACE ( 'NONE', ( #1139 ), #445, .F. ) ;
#212 = DIRECTION ( 'NONE',  ( 0.000000000000000000, 1.000000000000000000, 0.000000000000000000 ) ) ;
#213 = ORIENTED_EDGE ( 'NONE', *, *, #183, .T. ) ;
#215 = AXIS2_PLACEMENT_3D ( 'NONE', #1010, #471, #114 ) ;
#214 = PLANE ( 'NONE',  #36 ) ;
#216 = ORIENTED_EDGE ( 'NONE', *, *, #174, .F. ) ;
#217 = VECTOR ( 'NONE', #1031, 100.0000000000000000 ) ;
#218 = PRESENTATION_LAYER_ASSIGNMENT (  '', '', ( #142 ) ) ;
#219 = EDGE_CURVE ( 'NONE', #944, #747, #891, .T. ) ;
#220 = PRESENTATION_STYLE_ASSIGNMENT (( #1035 ) ) ;
#221 = CIRCLE ( 'NONE', #366, 0.3099999999999999978 ) ;
#222 =( LENGTH_UNIT ( ) NAMED_UNIT ( * ) SI_UNIT ( .CENTI., .METRE. ) );
#223 = ORIENTED_EDGE ( 'NONE', *, *, #671, .F. ) ;
#224 = CARTESIAN_POINT ( 'NONE',  ( -0.2399999999999996303, 0.3149999999999998912, 2.390000000000000568 ) ) ;
#225 = DIRECTION ( 'NONE',  ( 0.000000000000000000, 0.000000000000000000, 1.000000000000000000 ) ) ;
#226 = ORIENTED_EDGE ( 'NONE', *, *, #598, .T. ) ;
#227 = CARTESIAN_POINT ( 'NONE',  ( 0.000000000000000000, 0.000000000000000000, 0.000000000000000000 ) ) ;
#228 = FACE_OUTER_BOUND ( 'NONE', #890, .T. ) ;
#229 =( NAMED_UNIT ( * ) PLANE_ANGLE_UNIT ( ) SI_UNIT ( $, .RADIAN. ) );
#230 = EDGE_CURVE ( 'NONE', #1032, #836, #544, .T. ) ;
#231 = PRESENTATION_STYLE_ASSIGNMENT (( #401 ) ) ;
#232 = VERTEX_POINT ( 'NONE', #75 ) ;
#233 = VECTOR ( 'NONE', #1046, 100.0000000000000000 ) ;
#234 = AXIS2_PLACEMENT_3D ( 'NONE', #490, #225, #669 ) ;
#235 = CARTESIAN_POINT ( 'NONE',  ( -0.3149999999999998912, -0.3149999999999999467, 5.000000000000000000 ) ) ;
#236 = AXIS2_PLACEMENT_3D ( 'NONE', #245, #893, #241 ) ;
#237 = CARTESIAN_POINT ( 'NONE',  ( 3.796405077356794548E-17, 0.3099999999999999978, 11.39999999999999858 ) ) ;
#238 = DIRECTION ( 'NONE',  ( 1.508455196501571676E-16, -1.000000000000000000, -0.000000000000000000 ) ) ;
#239 = ORIENTED_EDGE ( 'NONE', *, *, #497, .F. ) ;
#240 = EDGE_CURVE ( 'NONE', #965, #594, #960, .T. ) ;
#241 = DIRECTION ( 'NONE',  ( 1.000000000000000000, 0.000000000000000000, 0.000000000000000000 ) ) ;
#242 = DIRECTION ( 'NONE',  ( -1.000000000000000000, 0.000000000000000000, 0.000000000000000000 ) ) ;
#243 = ORIENTED_EDGE ( 'NONE', *, *, #56, .T. ) ;
#244 = ADVANCED_FACE ( 'NONE', ( #346, #1044 ), #720, .T. ) ;
#245 = CARTESIAN_POINT ( 'NONE',  ( -0.8349999999999999645, -0.2399999999999997691, 2.390000000000000568 ) ) ;
#246 = DIRECTION ( 'NONE',  ( 0.000000000000000000, 1.000000000000000000, 0.000000000000000000 ) ) ;
#247 = ORIENTED_EDGE ( 'NONE', *, *, #411, .F. ) ;
#248 = CIRCLE ( 'NONE', #196, 0.2399999999999999911 ) ;
#249 = EDGE_CURVE ( 'NONE', #872, #734, #412, .T. ) ;
#250 = AXIS2_PLACEMENT_3D ( 'NONE', #733, #1101, #1095 ) ;
#251 = PLANE ( 'NONE',  #1154 ) ;
#252 = DIRECTION ( 'NONE',  ( 1.807003620809174632E-16, -1.000000000000000000, 0.000000000000000000 ) ) ;
#253 = ORIENTED_EDGE ( 'NONE', *, *, #687, .T. ) ;
#254 = ORIENTED_EDGE ( 'NONE', *, *, #318, .F. ) ;
#255 = DIRECTION ( 'NONE',  ( -0.000000000000000000, 0.9897283568439538826, -0.1429607626552378830 ) ) ;
#256 = DIRECTION ( 'NONE',  ( -1.000000000000000000, -1.508455196501571676E-16, 0.000000000000000000 ) ) ;
#257 = FACE_BOUND ( 'NONE', #719, .T. ) ;
#258 = ORIENTED_EDGE ( 'NONE', *, *, #551, .T. ) ;
#259 = ADVANCED_FACE ( 'NONE', ( #83 ), #148, .F. ) ;
#260 = CARTESIAN_POINT ( 'NONE',  ( 0.2400000000000003797, -0.5749999999999999556, 5.000000000000000000 ) ) ;
#261 = DIRECTION ( 'NONE',  ( -1.000000000000000000, 0.000000000000000000, 0.000000000000000000 ) ) ;
#262 = FACE_OUTER_BOUND ( 'NONE', #41, .T. ) ;
#263 = ORIENTED_EDGE ( 'NONE', *, *, #1164, .T. ) ;
#264 = VERTEX_POINT ( 'NONE', #260 ) ;
#265 = EDGE_CURVE ( 'NONE', #1018, #430, #982, .T. ) ;
#266 = DIRECTION ( 'NONE',  ( 0.000000000000000000, 1.000000000000000000, 0.000000000000000000 ) ) ;
#267 = LINE ( 'NONE', #546, #460 ) ;
#268 = VECTOR ( 'NONE', #935, 100.0000000000000000 ) ;
#269 = DIRECTION ( 'NONE',  ( 0.000000000000000000, 0.1429607626552377997, -0.9897283568439537715 ) ) ;
#270 = EDGE_LOOP ( 'NONE', ( #152, #853, #839, #936 ) ) ;
#271 = CARTESIAN_POINT ( 'NONE',  ( 0.2400000000000003797, 0.3149999999999998912, 5.000000000000000000 ) ) ;
#272 = DIRECTION ( 'NONE',  ( 0.000000000000000000, -1.000000000000000000, 0.000000000000000000 ) ) ;
#273 = CARTESIAN_POINT ( 'NONE',  ( -0.5749999999999999556, -0.5750000000000000666, 0.000000000000000000 ) ) ;
#274 = EDGE_LOOP ( 'NONE', ( #513, #435, #369, #651, #699, #648, #784, #397 ) ) ;
#275 = DIRECTION ( 'NONE',  ( -1.000000000000000000, -9.035018104045874392E-17, 0.000000000000000000 ) ) ;
#276 = ORIENTED_EDGE ( 'NONE', *, *, #1148, .T. ) ;
#277 = ADVANCED_FACE ( 'NONE', ( #436 ), #803, .F. ) ;
#278 = CARTESIAN_POINT ( 'NONE',  ( 0.2400000000000003797, -0.3149999999999998912, 2.390000000000000568 ) ) ;
#279 = DIRECTION ( 'NONE',  ( -0.000000000000000000, 0.000000000000000000, -1.000000000000000000 ) ) ;
#280 = LINE ( 'NONE', #1110, #1019 ) ;
#281 = VERTEX_POINT ( 'NONE', #899 ) ;
#282 = DIRECTION ( 'NONE',  ( 0.000000000000000000, 0.000000000000000000, 1.000000000000000000 ) ) ;
#283 = ORIENTED_EDGE ( 'NONE', *, *, #240, .F. ) ;
#284 = DIRECTION ( 'NONE',  ( 0.000000000000000000, 0.000000000000000000, 1.000000000000000000 ) ) ;
#285 = EDGE_CURVE ( 'NONE', #1160, #855, #1131, .T. ) ;
#286 = LINE ( 'NONE', #185, #439 ) ;
#287 = DIRECTION ( 'NONE',  ( -1.508455196501571429E-16, 1.000000000000000000, 0.000000000000000000 ) ) ;
#288 = AXIS2_PLACEMENT_3D ( 'NONE', #199, #387, #206 ) ;
#289 = EDGE_LOOP ( 'NONE', ( #886, #643 ) ) ;
#290 = CARTESIAN_POINT ( 'NONE',  ( 0.3149999999999997802, 0.3149999999999998912, 5.000000000000000000 ) ) ;
#291 = ORIENTED_EDGE ( 'NONE', *, *, #337, .F. ) ;
#292 = VECTOR ( 'NONE', #1140, 100.0000000000000000 ) ;
#293 = APPLICATION_CONTEXT ( 'automotive_design' ) ;
#294 = DIRECTION ( 'NONE',  ( 0.000000000000000000, 0.000000000000000000, 1.000000000000000000 ) ) ;
#295 = DIRECTION ( 'NONE',  ( 1.000000000000000000, 0.000000000000000000, 0.000000000000000000 ) ) ;
#296 = ORIENTED_EDGE ( 'NONE', *, *, #1130, .T. ) ;
#297 = LINE ( 'NONE', #271, #918 ) ;
#298 = ORIENTED_EDGE ( 'NONE', *, *, #799, .F. ) ;
#299 = DIRECTION ( 'NONE',  ( 1.000000000000000000, 0.000000000000000000, -0.000000000000000000 ) ) ;
#300 = FILL_AREA_STYLE ('',( #1135 ) ) ;
#301 = ORIENTED_EDGE ( 'NONE', *, *, #628, .T. ) ;
#302 = SURFACE_STYLE_FILL_AREA ( #512 ) ;
#303 = ORIENTED_EDGE ( 'NONE', *, *, #715, .T. ) ;
#304 = EDGE_CURVE ( 'NONE', #612, #877, #1111, .T. ) ;
#305 =( NAMED_UNIT ( * ) SI_UNIT ( $, .STERADIAN. ) SOLID_ANGLE_UNIT ( ) );
#306 = DIRECTION ( 'NONE',  ( 1.807003620809174632E-16, 1.000000000000000000, 0.000000000000000000 ) ) ;
#307 = DIRECTION ( 'NONE',  ( 0.000000000000000000, -1.000000000000000000, -0.000000000000000000 ) ) ;
#308 = SURFACE_STYLE_USAGE ( .BOTH. , #127 ) ;
#309 = ORIENTED_EDGE ( 'NONE', *, *, #230, .F. ) ;
#310 = VECTOR ( 'NONE', #984, 100.0000000000000000 ) ;
#311 = VECTOR ( 'NONE', #261, 100.0000000000000000 ) ;
#312 = DIRECTION ( 'NONE',  ( 1.000000000000000000, 0.000000000000000000, 0.000000000000000000 ) ) ;
#313 = DIRECTION ( 'NONE',  ( 1.000000000000000000, 0.000000000000000000, 0.000000000000000000 ) ) ;
#314 = VECTOR ( 'NONE', #469, 100.0000000000000000 ) ;
#315 = ORIENTED_EDGE ( 'NONE', *, *, #265, .F. ) ;
#316 = CARTESIAN_POINT ( 'NONE',  ( 0.000000000000000000, 0.000000000000000000, 1.899999999999999911 ) ) ;
#317 =( LENGTH_UNIT ( ) NAMED_UNIT ( * ) SI_UNIT ( .CENTI., .METRE. ) );
#318 = EDGE_CURVE ( 'NONE', #22, #492, #644, .T. ) ;
#319 = CARTESIAN_POINT ( 'NONE',  ( 0.5750000000000000666, -0.2399999999999997691, 5.000000000000000000 ) ) ;
#320 = PLANE ( 'NONE',  #1132 ) ;
#321 = EDGE_LOOP ( 'NONE', ( #681, #1112, #841, #779 ) ) ;
#322 = CARTESIAN_POINT ( 'NONE',  ( 0.2400000000000003797, 0.5749999999999999556, 5.000000000000000000 ) ) ;
#323 = CARTESIAN_POINT ( 'NONE',  ( 0.2400000000000003797, 0.3149999999999998912, 2.390000000000000568 ) ) ;
#324 = CARTESIAN_POINT ( 'NONE',  ( 0.3149999999999998912, -0.2399999999999997691, 2.390000000000000568 ) ) ;
#325 = CARTESIAN_POINT ( 'NONE',  ( 0.3149999999999997802, -0.3149999999999999467, 5.000000000000000000 ) ) ;
#326 = ORIENTED_EDGE ( 'NONE', *, *, #84, .T. ) ;
#327 = AXIS2_PLACEMENT_3D ( 'NONE', #94, #275, #109 ) ;
#328 = STYLED_ITEM ( 'NONE', ( #1037 ), #506 ) ;
#329 = AXIS2_PLACEMENT_3D ( 'NONE', #407, #688, #306 ) ;
#330 = FACE_OUTER_BOUND ( 'NONE', #755, .T. ) ;
#331 = FILL_AREA_STYLE ('',( #1161 ) ) ;
#332 = CARTESIAN_POINT ( 'NONE',  ( -0.2399999999999996303, 0.3149999999999998912, 2.390000000000000568 ) ) ;
#333 = DIRECTION ( 'NONE',  ( 0.000000000000000000, 1.000000000000000000, 0.000000000000000000 ) ) ;
#334 = ORIENTED_EDGE ( 'NONE', *, *, #174, .T. ) ;
#335 = LINE ( 'NONE', #170, #459 ) ;
#336 = ORIENTED_EDGE ( 'NONE', *, *, #342, .F. ) ;
#337 = EDGE_CURVE ( 'NONE', #750, #444, #916, .T. ) ;
#338 = ORIENTED_EDGE ( 'NONE', *, *, #437, .T. ) ;
#339 = EDGE_CURVE ( 'NONE', #362, #232, #102, .T. ) ;
#340 = AXIS2_PLACEMENT_3D ( 'NONE', #948, #1136, #313 ) ;
#341 = VECTOR ( 'NONE', #27, 100.0000000000000000 ) ;
#342 = EDGE_CURVE ( 'NONE', #1032, #944, #577, .T. ) ;
#343 = CARTESIAN_POINT ( 'NONE',  ( 0.5750000000000000666, -0.5749999999999999556, 12.00000000000000000 ) ) ;
#344 = DIRECTION ( 'NONE',  ( 0.000000000000000000, -1.000000000000000000, -0.000000000000000000 ) ) ;
#345 = ORIENTED_EDGE ( 'NONE', *, *, #10, .F. ) ;
#346 = FACE_BOUND ( 'NONE', #470, .T. ) ;
#347 = LINE ( 'NONE', #375, #976 ) ;
#348 = EDGE_CURVE ( 'NONE', #444, #384, #11, .T. ) ;
#349 = CARTESIAN_POINT ( 'NONE',  ( 3.796405077356794548E-17, -0.3099999999999999978, 0.000000000000000000 ) ) ;
#350 = ORIENTED_EDGE ( 'NONE', *, *, #348, .F. ) ;
#351 = CARTESIAN_POINT ( 'NONE',  ( 0.5749999999999999556, -0.2399999999999996858, 2.630000000000000338 ) ) ;
#352 = CARTESIAN_POINT ( 'NONE',  ( 0.000000000000000000, 0.000000000000000000, 5.000000000000000000 ) ) ;
#353 = UNCERTAINTY_MEASURE_WITH_UNIT (LENGTH_MEASURE( 1.000000000000000082E-05 ), #317, 'distance_accuracy_value', 'NONE');
#354 = ADVANCED_FACE ( 'NONE', ( #549 ), #379, .T. ) ;
#355 = DIRECTION ( 'NONE',  ( 1.000000000000000000, 0.000000000000000000, 0.000000000000000000 ) ) ;
#356 = ORIENTED_EDGE ( 'NONE', *, *, #966, .T. ) ;
#357 = PLANE ( 'NONE',  #215 ) ;
#358 = PRESENTATION_LAYER_ASSIGNMENT (  '', '', ( #438 ) ) ;
#359 = DIRECTION ( 'NONE',  ( -1.000000000000000000, -1.508455196501571429E-16, 0.000000000000000000 ) ) ;
#361 = DIRECTION ( 'NONE',  ( 0.000000000000000000, -1.000000000000000000, 0.000000000000000000 ) ) ;
#360 = AXIS2_PLACEMENT_3D ( 'NONE', #978, #1152, #256 ) ;
#362 = VERTEX_POINT ( 'NONE', #735 ) ;
#363 = DIRECTION ( 'NONE',  ( 1.508455196501571676E-16, -1.000000000000000000, -0.000000000000000000 ) ) ;
#364 = ORIENTED_EDGE ( 'NONE', *, *, #762, .F. ) ;
#365 = EDGE_CURVE ( 'NONE', #9, #801, #248, .T. ) ;
#366 = AXIS2_PLACEMENT_3D ( 'NONE', #454, #144, #695 ) ;
#367 = DIRECTION ( 'NONE',  ( 0.000000000000000000, -1.000000000000000000, 0.000000000000000000 ) ) ;
#368 = CARTESIAN_POINT ( 'NONE',  ( 0.3149999999999997802, -0.3149999999999999467, 10.20000000000000107 ) ) ;
#369 = ORIENTED_EDGE ( 'NONE', *, *, #551, .F. ) ;
#370 = ORIENTED_EDGE ( 'NONE', *, *, #249, .T. ) ;
#371 = CARTESIAN_POINT ( 'NONE',  ( -0.5750000000000000666, -0.5749999999999999556, 12.00000000000000000 ) ) ;
#372 = ORIENTED_EDGE ( 'NONE', *, *, #380, .F. ) ;
#373 = ADVANCED_FACE ( 'NONE', ( #34 ), #357, .T. ) ;
#374 = PRODUCT ( 'pillar-support_62', 'pillar-support_62', '', ( #1133 ) ) ;
#375 = CARTESIAN_POINT ( 'NONE',  ( 0.5750000000000000666, -0.5749999999999999556, 5.000000000000000000 ) ) ;
#376 = CARTESIAN_POINT ( 'NONE',  ( -0.5750000000000000666, 0.5749999999999999556, 12.00000000000000000 ) ) ;
#377 = ORIENTED_EDGE ( 'NONE', *, *, #1155, .F. ) ;
#378 = ORIENTED_EDGE ( 'NONE', *, *, #879, .T. ) ;
#379 = PLANE ( 'NONE',  #480 ) ;
#380 = EDGE_CURVE ( 'NONE', #1018, #952, #617, .T. ) ;
#381 = EDGE_CURVE ( 'NONE', #232, #923, #672, .T. ) ;
#382 = MECHANICAL_DESIGN_GEOMETRIC_PRESENTATION_REPRESENTATION (  '', ( #862 ), #990 ) ;
#383 = CARTESIAN_POINT ( 'NONE',  ( 0.2400000000000003797, 0.5749999999999999556, 5.000000000000000000 ) ) ;
#384 = VERTEX_POINT ( 'NONE', #89 ) ;
#385 = VECTOR ( 'NONE', #998, 100.0000000000000142 ) ;
#386 = CIRCLE ( 'NONE', #919, 0.3099999999999999978 ) ;
#387 = DIRECTION ( 'NONE',  ( -1.000000000000000000, -1.508455196501571676E-16, -0.000000000000000000 ) ) ;
#388 = ORIENTED_EDGE ( 'NONE', *, *, #392, .F. ) ;
#389 =( GEOMETRIC_REPRESENTATION_CONTEXT ( 3 ) GLOBAL_UNCERTAINTY_ASSIGNED_CONTEXT ( ( #353 ) ) GLOBAL_UNIT_ASSIGNED_CONTEXT ( ( #317, #584, #305 ) ) REPRESENTATION_CONTEXT ( 'NONE', 'WORKASPACE' ) );
#390 = LINE ( 'NONE', #501, #920 ) ;
#391 = ORIENTED_EDGE ( 'NONE', *, *, #729, .F. ) ;
#392 = EDGE_CURVE ( 'NONE', #1081, #22, #932, .T. ) ;
#393 = LINE ( 'NONE', #325, #1054 ) ;
#394 = ORIENTED_EDGE ( 'NONE', *, *, #664, .T. ) ;
#395 = CARTESIAN_POINT ( 'NONE',  ( -0.2399999999999996303, -0.5749999999999999556, 2.630000000000000338 ) ) ;
#396 = PLANE ( 'NONE',  #119 ) ;
#397 = ORIENTED_EDGE ( 'NONE', *, *, #744, .T. ) ;
#398 = LINE ( 'NONE', #145, #424 ) ;
#399 = EDGE_LOOP ( 'NONE', ( #665, #927, #835, #64 ) ) ;
#400 = FACE_OUTER_BOUND ( 'NONE', #1066, .T. ) ;
#402 = AXIS2_PLACEMENT_3D ( 'NONE', #456, #730, #757 ) ;
#401 = SURFACE_STYLE_USAGE ( .BOTH. , #493 ) ;
#403 = ORIENTED_EDGE ( 'NONE', *, *, #473, .F. ) ;
#404 = CIRCLE ( 'NONE', #121, 0.3099999999999999978 ) ;
#405 = AXIS2_PLACEMENT_3D ( 'NONE', #759, #771, #312 ) ;
#406 = CYLINDRICAL_SURFACE ( 'NONE', #49, 0.3099999999999999978 ) ;
#407 = CARTESIAN_POINT ( 'NONE',  ( -0.3149999999999998912, 1.517883041479706208E-16, 2.630000000000000338 ) ) ;
#408 = CARTESIAN_POINT ( 'NONE',  ( -0.2399999999999996858, -0.5749999999999999556, 5.000000000000000000 ) ) ;
#409 = FILL_AREA_STYLE ('',( #1128 ) ) ;
#410 = ORIENTED_EDGE ( 'NONE', *, *, #1118, .F. ) ;
#411 = EDGE_CURVE ( 'NONE', #923, #734, #297, .T. ) ;
#412 = LINE ( 'NONE', #322, #938 ) ;
#413 = CARTESIAN_POINT ( 'NONE',  ( -0.8349999999999999645, 0.2400000000000000744, 2.390000000000000568 ) ) ;
#414 = LINE ( 'NONE', #324, #511 ) ;
#415 =( LENGTH_UNIT ( ) NAMED_UNIT ( * ) SI_UNIT ( .CENTI., .METRE. ) );
#416 = ORIENTED_EDGE ( 'NONE', *, *, #15, .T. ) ;
#417 = CARTESIAN_POINT ( 'NONE',  ( 0.8349999999999999645, -0.2399999999999997691, 2.630000000000000338 ) ) ;
#418 = CARTESIAN_POINT ( 'NONE',  ( -0.3150000000000004463, 0.3150000000000005573, 10.20000000000000995 ) ) ;
#419 = SURFACE_SIDE_STYLE ('',( #876 ) ) ;
#420 = ADVANCED_FACE ( 'NONE', ( #840 ), #562, .F. ) ;
#421 = FACE_OUTER_BOUND ( 'NONE', #959, .T. ) ;
#422 = ORIENTED_EDGE ( 'NONE', *, *, #153, .F. ) ;
#423 = AXIS2_PLACEMENT_3D ( 'NONE', #631, #725, #173 ) ;
#424 = VECTOR ( 'NONE', #133, 100.0000000000000000 ) ;
#425 = MECHANICAL_DESIGN_GEOMETRIC_PRESENTATION_REPRESENTATION (  '', ( #805 ), #791 ) ;
#426 = DIRECTION ( 'NONE',  ( 0.000000000000000000, 1.000000000000000000, 0.000000000000000000 ) ) ;
#427 = EDGE_CURVE ( 'NONE', #167, #877, #1151, .T. ) ;
#428 = CARTESIAN_POINT ( 'NONE',  ( -0.5750000000000000666, 0.5749999999999999556, 0.000000000000000000 ) ) ;
#429 = VECTOR ( 'NONE', #287, 100.0000000000000000 ) ;
#430 = VERTEX_POINT ( 'NONE', #650 ) ;
#431 =( NAMED_UNIT ( * ) SI_UNIT ( $, .STERADIAN. ) SOLID_ANGLE_UNIT ( ) );
#432 = DIRECTION ( 'NONE',  ( 0.000000000000000000, 0.000000000000000000, 1.000000000000000000 ) ) ;
#433 = EDGE_LOOP ( 'NONE', ( #115, #303, #1011, #1002 ) ) ;
#434 = DIRECTION ( 'NONE',  ( 0.000000000000000000, -1.000000000000000000, 0.000000000000000000 ) ) ;
#435 = ORIENTED_EDGE ( 'NONE', *, *, #160, .T. ) ;
#436 = FACE_OUTER_BOUND ( 'NONE', #625, .T. ) ;
#437 = EDGE_CURVE ( 'NONE', #197, #264, #1120, .T. ) ;
#438 = STYLED_ITEM ( 'NONE', ( #231 ), #455 ) ;
#439 = VECTOR ( 'NONE', #361, 100.0000000000000000 ) ;
#440 = CARTESIAN_POINT ( 'NONE',  ( 0.000000000000000000, 0.000000000000000000, 11.39999999999999858 ) ) ;
#441 = VECTOR ( 'NONE', #1015, 100.0000000000000000 ) ;
#442 = DIRECTION ( 'NONE',  ( 1.000000000000000000, 1.508455196501571676E-16, 0.000000000000000000 ) ) ;
#443 = ORIENTED_EDGE ( 'NONE', *, *, #446, .T. ) ;
#444 = VERTEX_POINT ( 'NONE', #210 ) ;
#445 = CYLINDRICAL_SURFACE ( 'NONE', #1088, 0.2399999999999999356 ) ;
#446 = EDGE_CURVE ( 'NONE', #750, #896, #192, .T. ) ;
#447 = CARTESIAN_POINT ( 'NONE',  ( 0.000000000000000000, 0.000000000000000000, 11.39999999999999858 ) ) ;
#448 = CARTESIAN_POINT ( 'NONE',  ( 0.3149999999999997802, -0.3149999999999999467, 5.000000000000000000 ) ) ;
#449 = ORIENTED_EDGE ( 'NONE', *, *, #474, .F. ) ;
#450 = DIRECTION ( 'NONE',  ( 0.000000000000000000, -1.000000000000000000, 0.000000000000000000 ) ) ;
#451 = DIRECTION ( 'NONE',  ( 1.508455196501571429E-16, -1.000000000000000000, 0.000000000000000000 ) ) ;
#452 = UNCERTAINTY_MEASURE_WITH_UNIT (LENGTH_MEASURE( 1.000000000000000082E-05 ), #415, 'distance_accuracy_value', 'NONE');
#453 = DIRECTION ( 'NONE',  ( 0.000000000000000000, 0.000000000000000000, -1.000000000000000000 ) ) ;
#454 = CARTESIAN_POINT ( 'NONE',  ( 0.000000000000000000, 0.000000000000000000, 12.00000000000000000 ) ) ;
#455 = ADVANCED_FACE ( 'NONE', ( #698 ), #320, .F. ) ;
#456 = CARTESIAN_POINT ( 'NONE',  ( 0.5749999999999999556, 1.517883041479706208E-16, 2.630000000000000338 ) ) ;
#457 = VECTOR ( 'NONE', #168, 100.0000000000000000 ) ;
#458 = LINE ( 'NONE', #812, #994 ) ;
#459 = VECTOR ( 'NONE', #708, 100.0000000000000000 ) ;
#461 = CARTESIAN_POINT ( 'NONE',  ( -0.5749999999999999556, -0.2399999999999998523, 5.000000000000000000 ) ) ;
#460 = VECTOR ( 'NONE', #451, 100.0000000000000000 ) ;
#462 = ORIENTED_EDGE ( 'NONE', *, *, #48, .F. ) ;
#463 = ORIENTED_EDGE ( 'NONE', *, *, #1138, .T. ) ;
#464 = ADVANCED_FACE ( 'NONE', ( #854 ), #575, .F. ) ;
#465 = CARTESIAN_POINT ( 'NONE',  ( 0.000000000000000000, 0.000000000000000000, 1.899999999999999911 ) ) ;
#466 = ORIENTED_EDGE ( 'NONE', *, *, #687, .F. ) ;
#467 = DIRECTION ( 'NONE',  ( -1.508455196501571429E-16, 1.000000000000000000, 0.000000000000000000 ) ) ;
#468 = CARTESIAN_POINT ( 'NONE',  ( 3.796405077356794548E-17, -0.3099999999999999978, 1.899999999999999911 ) ) ;
#469 = DIRECTION ( 'NONE',  ( 0.000000000000000000, 0.000000000000000000, 1.000000000000000000 ) ) ;
#470 = EDGE_LOOP ( 'NONE', ( #518, #223 ) ) ;
#471 = DIRECTION ( 'NONE',  ( 0.9897283568439537715, 0.000000000000000000, -0.1429607626552379940 ) ) ;
#472 = ORIENTED_EDGE ( 'NONE', *, *, #939, .F. ) ;
#473 = EDGE_CURVE ( 'NONE', #281, #146, #398, .T. ) ;
#474 = EDGE_CURVE ( 'NONE', #72, #88, #393, .T. ) ;
#475 = CARTESIAN_POINT ( 'NONE',  ( 0.2400000000000003797, -0.5749999999999999556, 5.000000000000000000 ) ) ;
#476 = DIRECTION ( 'NONE',  ( 0.000000000000000000, -1.000000000000000000, 0.000000000000000000 ) ) ;
#477 = DIRECTION ( 'NONE',  ( -1.000000000000000000, 0.000000000000000000, 0.000000000000000000 ) ) ;
#478 = EDGE_LOOP ( 'NONE', ( #283, #634, #25, #98 ) ) ;
#479 = EDGE_CURVE ( 'NONE', #855, #560, #1057, .T. ) ;
#480 = AXIS2_PLACEMENT_3D ( 'NONE', #465, #749, #828 ) ;
#481 = CARTESIAN_POINT ( 'NONE',  ( -0.5749999999999999556, -0.5750000000000000666, 5.000000000000000000 ) ) ;
#482 = VERTEX_POINT ( 'NONE', #951 ) ;
#483 = AXIS2_PLACEMENT_3D ( 'NONE', #1166, #442, #525 ) ;
#484 = ORIENTED_EDGE ( 'NONE', *, *, #1155, .T. ) ;
#485 = AXIS2_PLACEMENT_3D ( 'NONE', #967, #528, #154 ) ;
#486 = DIRECTION ( 'NONE',  ( -1.000000000000000000, 0.000000000000000000, 0.000000000000000000 ) ) ;
#487 = ORIENTED_EDGE ( 'NONE', *, *, #637, .T. ) ;
#488 = DIRECTION ( 'NONE',  ( 0.000000000000000000, 1.000000000000000000, 0.000000000000000000 ) ) ;
#489 = EDGE_LOOP ( 'NONE', ( #685, #915, #882, #243 ) ) ;
#490 = CARTESIAN_POINT ( 'NONE',  ( 0.000000000000000000, 0.000000000000000000, 12.00000000000000000 ) ) ;
#491 =( NAMED_UNIT ( * ) SI_UNIT ( $, .STERADIAN. ) SOLID_ANGLE_UNIT ( ) );
#492 = VERTEX_POINT ( 'NONE', #1123 ) ;
#493 = SURFACE_SIDE_STYLE ('',( #302 ) ) ;
#494 = ORIENTED_EDGE ( 'NONE', *, *, #1039, .T. ) ;
#495 = DIRECTION ( 'NONE',  ( -0.000000000000000000, -1.000000000000000000, -0.000000000000000000 ) ) ;
#496 = LINE ( 'NONE', #943, #526 ) ;
#497 = EDGE_CURVE ( 'NONE', #761, #1081, #44, .T. ) ;
#498 = CARTESIAN_POINT ( 'NONE',  ( -0.3149999999999998912, -0.2399999999999997691, 2.390000000000000568 ) ) ;
#499 = ORIENTED_EDGE ( 'NONE', *, *, #219, .F. ) ;
#500 = SHAPE_DEFINITION_REPRESENTATION ( #571, #636 ) ;
#501 = CARTESIAN_POINT ( 'NONE',  ( -0.2399999999999996858, 0.5749999999999999556, 5.000000000000000000 ) ) ;
#502 = CARTESIAN_POINT ( 'NONE',  ( 0.000000000000000000, 0.000000000000000000, 5.000000000000000000 ) ) ;
#504 = AXIS2_PLACEMENT_3D ( 'NONE', #811, #187, #30 ) ;
#503 = DIRECTION ( 'NONE',  ( 0.000000000000000000, 1.000000000000000000, 0.000000000000000000 ) ) ;
#505 = ORIENTED_EDGE ( 'NONE', *, *, #892, .F. ) ;
#506 = ADVANCED_FACE ( 'NONE', ( #858 ), #214, .F. ) ;
#507 = VECTOR ( 'NONE', #3, 100.0000000000000000 ) ;
#508 = DIRECTION ( 'NONE',  ( 0.000000000000000000, 1.000000000000000000, 0.000000000000000000 ) ) ;
#509 = CARTESIAN_POINT ( 'NONE',  ( 0.2400000000000003797, -0.5749999999999999556, 2.630000000000000338 ) ) ;
#510 = CARTESIAN_POINT ( 'NONE',  ( 0.5750000000000000666, -0.5749999999999999556, 5.000000000000000000 ) ) ;
#511 = VECTOR ( 'NONE', #62, 100.0000000000000000 ) ;
#512 = FILL_AREA_STYLE ('',( #588 ) ) ;
#513 = ORIENTED_EDGE ( 'NONE', *, *, #365, .F. ) ;
#514 = DIRECTION ( 'NONE',  ( 0.000000000000000000, 0.000000000000000000, 1.000000000000000000 ) ) ;
#515 = PLANE ( 'NONE',  #104 ) ;
#516 = DIRECTION ( 'NONE',  ( 1.000000000000000000, 1.508455196501571429E-16, 0.000000000000000000 ) ) ;
#517 = PLANE ( 'NONE',  #483 ) ;
#518 = ORIENTED_EDGE ( 'NONE', *, *, #637, .F. ) ;
#519 = ADVANCED_FACE ( 'NONE', ( #1060 ), #611, .F. ) ;
#520 = DIRECTION ( 'NONE',  ( -1.000000000000000000, -1.508455196501571429E-16, 0.000000000000000000 ) ) ;
#521 = ORIENTED_EDGE ( 'NONE', *, *, #781, .F. ) ;
#522 = VECTOR ( 'NONE', #516, 100.0000000000000000 ) ;
#523 = CIRCLE ( 'NONE', #101, 0.2399999999999999356 ) ;
#524 = PRESENTATION_STYLE_ASSIGNMENT (( #971 ) ) ;
#525 = DIRECTION ( 'NONE',  ( -1.508455196501571676E-16, 1.000000000000000000, 0.000000000000000000 ) ) ;
#526 = VECTOR ( 'NONE', #783, 100.0000000000000142 ) ;
#527 = VERTEX_POINT ( 'NONE', #80 ) ;
#528 = DIRECTION ( 'NONE',  ( 0.000000000000000000, -1.000000000000000000, -0.000000000000000000 ) ) ;
#529 = DIRECTION ( 'NONE',  ( 0.000000000000000000, 1.000000000000000000, 0.000000000000000000 ) ) ;
#530 = ORIENTED_EDGE ( 'NONE', *, *, #939, .T. ) ;
#531 = EDGE_CURVE ( 'NONE', #1121, #4, #1065, .T. ) ;
#532 = DIRECTION ( 'NONE',  ( -1.000000000000000000, 0.000000000000000000, 0.000000000000000000 ) ) ;
#533 = FACE_OUTER_BOUND ( 'NONE', #535, .T. ) ;
#534 = PLANE ( 'NONE',  #250 ) ;
#535 = EDGE_LOOP ( 'NONE', ( #239, #933, #466, #388 ) ) ;
#536 = CARTESIAN_POINT ( 'NONE',  ( -0.5749999999999999556, 0.2400000000000000744, 2.630000000000000338 ) ) ;
#537 = VECTOR ( 'NONE', #568, 100.0000000000000000 ) ;
#538 = VECTOR ( 'NONE', #279, 100.0000000000000000 ) ;
#539 = AXIS2_PLACEMENT_3D ( 'NONE', #950, #578, #295 ) ;
#540 = CARTESIAN_POINT ( 'NONE',  ( -0.5749999999999999556, 1.517883041479706208E-16, 2.630000000000000338 ) ) ;
#541 = VECTOR ( 'NONE', #1040, 100.0000000000000000 ) ;
#542 = LINE ( 'NONE', #468, #198 ) ;
#543 = ORIENTED_EDGE ( 'NONE', *, *, #10, .T. ) ;
#544 = LINE ( 'NONE', #869, #731 ) ;
#545 = ADVANCED_FACE ( 'NONE', ( #968 ), #517, .F. ) ;
#546 = CARTESIAN_POINT ( 'NONE',  ( -0.5750000000000000666, 0.5749999999999999556, 5.000000000000000000 ) ) ;
#547 = DIRECTION ( 'NONE',  ( 0.000000000000000000, 1.000000000000000000, 0.000000000000000000 ) ) ;
#548 = CARTESIAN_POINT ( 'NONE',  ( -0.2399999999999996858, -0.5749999999999999556, 2.630000000000000338 ) ) ;
#549 = FACE_OUTER_BOUND ( 'NONE', #1048, .T. ) ;
#550 = CARTESIAN_POINT ( 'NONE',  ( 3.796405077356794548E-17, -0.3099999999999999978, 1.899999999999999911 ) ) ;
#551 = EDGE_CURVE ( 'NONE', #492, #937, #615, .T. ) ;
#552 = CARTESIAN_POINT ( 'NONE',  ( 0.5749999999999999556, 0.5750000000000000666, 5.000000000000000000 ) ) ;
#553 = VERTEX_POINT ( 'NONE', #428 ) ;
#554 = ORIENTED_EDGE ( 'NONE', *, *, #437, .F. ) ;
#555 = VECTOR ( 'NONE', #514, 100.0000000000000000 ) ;
#556 = CARTESIAN_POINT ( 'NONE',  ( 0.5749999999999999556, 0.5750000000000000666, 5.000000000000000000 ) ) ;
#557 = VECTOR ( 'NONE', #922, 100.0000000000000000 ) ;
#558 = ADVANCED_FACE ( 'NONE', ( #257, #974 ), #155, .T. ) ;
#559 = LINE ( 'NONE', #904, #557 ) ;
#560 = VERTEX_POINT ( 'NONE', #889 ) ;
#561 = ORIENTED_EDGE ( 'NONE', *, *, #1062, .T. ) ;
#562 = PLANE ( 'NONE',  #327 ) ;
#563 = ORIENTED_EDGE ( 'NONE', *, *, #837, .T. ) ;
#564 = DIRECTION ( 'NONE',  ( 0.000000000000000000, -1.000000000000000000, 0.000000000000000000 ) ) ;
#565 = DIRECTION ( 'NONE',  ( -1.000000000000000000, -1.508455196501571676E-16, 0.000000000000000000 ) ) ;
#566 = DIRECTION ( 'NONE',  ( 1.000000000000000000, 1.508455196501571429E-16, 0.000000000000000000 ) ) ;
#567 = ORIENTED_EDGE ( 'NONE', *, *, #593, .T. ) ;
#568 = DIRECTION ( 'NONE',  ( -1.000000000000000000, 0.000000000000000000, 0.000000000000000000 ) ) ;
#569 = VERTEX_POINT ( 'NONE', #717 ) ;
#570 = EDGE_CURVE ( 'NONE', #1009, #764, #679, .T. ) ;
#571 = PRODUCT_DEFINITION_SHAPE ( 'NONE', 'NONE',  #993 ) ;
#572 = CARTESIAN_POINT ( 'NONE',  ( 0.000000000000000000, 0.000000000000000000, 0.000000000000000000 ) ) ;
#573 = CARTESIAN_POINT ( 'NONE',  ( -0.3149999999999998912, -0.2399999999999997691, 2.390000000000000568 ) ) ;
#574 = CARTESIAN_POINT ( 'NONE',  ( 0.000000000000000000, 0.000000000000000000, 11.39999999999999858 ) ) ;
#575 = PLANE ( 'NONE',  #602 ) ;
#576 = EDGE_LOOP ( 'NONE', ( #499, #336, #975, #108 ) ) ;
#577 = CIRCLE ( 'NONE', #802, 0.3099999999999999978 ) ;
#578 = DIRECTION ( 'NONE',  ( 0.000000000000000000, -1.000000000000000000, 0.000000000000000000 ) ) ;
#579 = FACE_OUTER_BOUND ( 'NONE', #289, .T. ) ;
#580 = AXIS2_PLACEMENT_3D ( 'NONE', #73, #242, #434 ) ;
#581 = VECTOR ( 'NONE', #61, 100.0000000000000000 ) ;
#582 = ORIENTED_EDGE ( 'NONE', *, *, #1020, .F. ) ;
#583 = AXIS2_PLACEMENT_3D ( 'NONE', #574, #1030, #476 ) ;
#584 =( NAMED_UNIT ( * ) PLANE_ANGLE_UNIT ( ) SI_UNIT ( $, .RADIAN. ) );
#585 = EDGE_CURVE ( 'NONE', #167, #163, #607, .T. ) ;
#586 = DIRECTION ( 'NONE',  ( 0.000000000000000000, 0.000000000000000000, -1.000000000000000000 ) ) ;
#587 = CARTESIAN_POINT ( 'NONE',  ( 0.2400000000000003797, -0.5749999999999999556, 2.630000000000000338 ) ) ;
#588 = FILL_AREA_STYLE_COLOUR ( '', #880 ) ;
#589 = VERTEX_POINT ( 'NONE', #349 ) ;
#590 = LINE ( 'NONE', #668, #1170 ) ;
#591 = DIRECTION ( 'NONE',  ( 1.000000000000000000, -9.035018104045874392E-17, 0.000000000000000000 ) ) ;
#592 = CARTESIAN_POINT ( 'NONE',  ( 0.3149999999999997802, -0.3149999999999999467, 5.000000000000000000 ) ) ;
#593 = EDGE_CURVE ( 'NONE', #384, #207, #629, .T. ) ;
#594 = VERTEX_POINT ( 'NONE', #881 ) ;
#595 = DIRECTION ( 'NONE',  ( 0.000000000000000000, 0.000000000000000000, -1.000000000000000000 ) ) ;
#596 = CYLINDRICAL_SURFACE ( 'NONE', #539, 0.2399999999999999911 ) ;
#597 = CARTESIAN_POINT ( 'NONE',  ( -0.3149999999999998912, 0.2400000000000000744, 5.000000000000000000 ) ) ;
#598 = EDGE_CURVE ( 'NONE', #764, #616, #67, .T. ) ;
#600 = VECTOR ( 'NONE', #1144, 100.0000000000000000 ) ;
#599 = CARTESIAN_POINT ( 'NONE',  ( 0.000000000000000000, 0.000000000000000000, 5.000000000000000000 ) ) ;
#601 = ORIENTED_EDGE ( 'NONE', *, *, #902, .F. ) ;
#602 = AXIS2_PLACEMENT_3D ( 'NONE', #118, #486, #691 ) ;
#603 = VECTOR ( 'NONE', #467, 100.0000000000000000 ) ;
#604 = CARTESIAN_POINT ( 'NONE',  ( 0.000000000000000000, -1.134659571895030750, 0.1638952714959489854 ) ) ;
#605 = ORIENTED_EDGE ( 'NONE', *, *, #183, .F. ) ;
#606 = LINE ( 'NONE', #343, #82 ) ;
#607 = LINE ( 'NONE', #161, #661 ) ;
#608 = ORIENTED_EDGE ( 'NONE', *, *, #570, .T. ) ;
#609 = ADVANCED_FACE ( 'NONE', ( #421 ), #895, .F. ) ;
#610 = CARTESIAN_POINT ( 'NONE',  ( 0.5749999999999999556, 0.5750000000000000666, 5.000000000000000000 ) ) ;
#611 = CYLINDRICAL_SURFACE ( 'NONE', #580, 0.2399999999999999356 ) ;
#612 = VERTEX_POINT ( 'NONE', #789 ) ;
#613 = PLANE ( 'NONE',  #360 ) ;
#614 = UNCERTAINTY_MEASURE_WITH_UNIT (LENGTH_MEASURE( 1.000000000000000082E-05 ), #870, 'distance_accuracy_value', 'NONE');
#615 = LINE ( 'NONE', #71, #507 ) ;
#616 = VERTEX_POINT ( 'NONE', #1159 ) ;
#617 = CIRCLE ( 'NONE', #288, 0.2399999999999999356 ) ;
#618 =( GEOMETRIC_REPRESENTATION_CONTEXT ( 3 ) GLOBAL_UNCERTAINTY_ASSIGNED_CONTEXT ( ( #452 ) ) GLOBAL_UNIT_ASSIGNED_CONTEXT ( ( #415, #774, #137 ) ) REPRESENTATION_CONTEXT ( 'NONE', 'WORKASPACE' ) );
#619 = ORIENTED_EDGE ( 'NONE', *, *, #380, .T. ) ;
#620 = VECTOR ( 'NONE', #1125, 100.0000000000000000 ) ;
#621 = DIRECTION ( 'NONE',  ( 0.000000000000000000, 0.000000000000000000, 1.000000000000000000 ) ) ;
#622 = EDGE_CURVE ( 'NONE', #761, #952, #335, .T. ) ;
#623 = CARTESIAN_POINT ( 'NONE',  ( 0.000000000000000000, 0.000000000000000000, 0.000000000000000000 ) ) ;
#624 = CIRCLE ( 'NONE', #583, 0.3099999999999999978 ) ;
#625 = EDGE_LOOP ( 'NONE', ( #1163, #924, #226, #487 ) ) ;
#626 = CARTESIAN_POINT ( 'NONE',  ( 0.2400000000000003797, -0.3149999999999998912, 2.390000000000000568 ) ) ;
#627 = CARTESIAN_POINT ( 'NONE',  ( -0.3149999999999998912, 0.2400000000000000744, 2.390000000000000568 ) ) ;
#628 = EDGE_CURVE ( 'NONE', #569, #965, #523, .T. ) ;
#629 = LINE ( 'NONE', #722, #957 ) ;
#630 = ORIENTED_EDGE ( 'NONE', *, *, #123, .T. ) ;
#631 = CARTESIAN_POINT ( 'NONE',  ( 0.000000000000000000, 0.000000000000000000, 1.899999999999999911 ) ) ;
#632 = CARTESIAN_POINT ( 'NONE',  ( 0.000000000000000000, -0.3099999999999999978, 11.39999999999999858 ) ) ;
#633 = LINE ( 'NONE', #194, #1069 ) ;
#634 = ORIENTED_EDGE ( 'NONE', *, *, #1028, .T. ) ;
#635 = DIRECTION ( 'NONE',  ( -1.000000000000000000, 0.000000000000000000, 0.000000000000000000 ) ) ;
#636 = ADVANCED_BREP_SHAPE_REPRESENTATION ( 'pillar-support_62', ( #831, #201 ), #389 ) ;
#637 = EDGE_CURVE ( 'NONE', #616, #589, #16, .T. ) ;
#638 = CIRCLE ( 'NONE', #340, 0.2400000000000000189 ) ;
#639 = VECTOR ( 'NONE', #355, 100.0000000000000000 ) ;
#640 = VECTOR ( 'NONE', #1074, 100.0000000000000000 ) ;
#641 = DIRECTION ( 'NONE',  ( -1.000000000000000000, 0.000000000000000000, 0.000000000000000000 ) ) ;
#642 = CARTESIAN_POINT ( 'NONE',  ( 0.5749999999999999556, 0.5750000000000000666, 5.000000000000000000 ) ) ;
#643 = ORIENTED_EDGE ( 'NONE', *, *, #48, .T. ) ;
#644 = LINE ( 'NONE', #1104, #175 ) ;
#645 = ADVANCED_FACE ( 'NONE', ( #166 ), #534, .F. ) ;
#646 = FACE_OUTER_BOUND ( 'NONE', #989, .T. ) ;
#647 = DIRECTION ( 'NONE',  ( 0.000000000000000000, 1.000000000000000000, 0.000000000000000000 ) ) ;
#648 = ORIENTED_EDGE ( 'NONE', *, *, #1108, .F. ) ;
#649 = ORIENTED_EDGE ( 'NONE', *, *, #837, .F. ) ;
#650 = CARTESIAN_POINT ( 'NONE',  ( -0.3149999999999998912, 0.2400000000000000744, 2.630000000000000338 ) ) ;
#651 = ORIENTED_EDGE ( 'NONE', *, *, #860, .T. ) ;
#652 = CARTESIAN_POINT ( 'NONE',  ( 0.5750000000000000666, 0.5749999999999999556, 12.00000000000000000 ) ) ;
#653 = EDGE_CURVE ( 'NONE', #764, #1009, #386, .T. ) ;
#654 = CARTESIAN_POINT ( 'NONE',  ( 0.5749999999999999556, 0.5750000000000000666, 0.000000000000000000 ) ) ;
#655 = ORIENTED_EDGE ( 'NONE', *, *, #664, .F. ) ;
#656 = ORIENTED_EDGE ( 'NONE', *, *, #1062, .F. ) ;
#657 = DIRECTION ( 'NONE',  ( -1.000000000000000000, 0.000000000000000000, 0.000000000000000000 ) ) ;
#658 = ORIENTED_EDGE ( 'NONE', *, *, #1039, .F. ) ;
#659 = AXIS2_PLACEMENT_3D ( 'NONE', #874, #686, #51 ) ;
#660 = CYLINDRICAL_SURFACE ( 'NONE', #18, 0.3099999999999999978 ) ;
#661 = VECTOR ( 'NONE', #151, 100.0000000000000000 ) ;
#662 = LINE ( 'NONE', #92, #639 ) ;
#663 = LINE ( 'NONE', #14, #1094 ) ;
#664 = EDGE_CURVE ( 'NONE', #207, #146, #662, .T. ) ;
#665 = ORIENTED_EDGE ( 'NONE', *, *, #1148, .F. ) ;
#666 = CARTESIAN_POINT ( 'NONE',  ( 0.3149999999999997802, 0.3149999999999998912, 10.20000000000000107 ) ) ;
#667 = EDGE_LOOP ( 'NONE', ( #364, #195, #1038, #258, #1169, #655 ) ) ;
#668 = CARTESIAN_POINT ( 'NONE',  ( 0.5750000000000000666, -0.5749999999999999556, 12.00000000000000000 ) ) ;
#669 = DIRECTION ( 'NONE',  ( 0.000000000000000000, -1.000000000000000000, 0.000000000000000000 ) ) ;
#670 = VERTEX_POINT ( 'NONE', #273 ) ;
#671 = EDGE_CURVE ( 'NONE', #589, #616, #404, .T. ) ;
#672 = LINE ( 'NONE', #290, #537 ) ;
#673 = ORIENTED_EDGE ( 'NONE', *, *, #690, .F. ) ;
#674 = FACE_OUTER_BOUND ( 'NONE', #321, .T. ) ;
#675 = DIRECTION ( 'NONE',  ( 1.000000000000000000, 0.000000000000000000, 0.000000000000000000 ) ) ;
#676 = EDGE_LOOP ( 'NONE', ( #403, #356, #117, #1087, #1096, #711, #567, #394 ) ) ;
#677 = VECTOR ( 'NONE', #1141, 100.0000000000000000 ) ;
#678 = DIRECTION ( 'NONE',  ( 9.035018104045874392E-17, 1.000000000000000000, 0.000000000000000000 ) ) ;
#679 = CIRCLE ( 'NONE', #822, 0.3099999999999999978 ) ;
#680 = AXIS2_PLACEMENT_3D ( 'NONE', #440, #284, #367 ) ;
#681 = ORIENTED_EDGE ( 'NONE', *, *, #806, .F. ) ;
#682 = EDGE_CURVE ( 'NONE', #553, #670, #87, .T. ) ;
#683 = CARTESIAN_POINT ( 'NONE',  ( 0.3149999999999998357, 0.000000000000000000, 10.20000000000000284 ) ) ;
#684 = LINE ( 'NONE', #408, #677 ) ;
#685 = ORIENTED_EDGE ( 'NONE', *, *, #160, .F. ) ;
#686 = DIRECTION ( 'NONE',  ( -0.9897283568439537715, 0.000000000000000000, -0.1429607626552379662 ) ) ;
#687 = EDGE_CURVE ( 'NONE', #22, #952, #908, .T. ) ;
#688 = DIRECTION ( 'NONE',  ( -1.000000000000000000, 9.035018104045874392E-17, -0.000000000000000000 ) ) ;
#689 =( LENGTH_UNIT ( ) NAMED_UNIT ( * ) SI_UNIT ( .CENTI., .METRE. ) );
#690 = EDGE_CURVE ( 'NONE', #88, #163, #633, .T. ) ;
#691 = DIRECTION ( 'NONE',  ( 0.000000000000000000, -1.000000000000000000, 0.000000000000000000 ) ) ;
#692 = ORIENTED_EDGE ( 'NONE', *, *, #1106, .F. ) ;
#693 = DIRECTION ( 'NONE',  ( 0.000000000000000000, -1.000000000000000000, 0.000000000000000000 ) ) ;
#694 = CARTESIAN_POINT ( 'NONE',  ( 0.5749999999999999556, 0.5750000000000000666, 5.000000000000000000 ) ) ;
#695 = DIRECTION ( 'NONE',  ( 0.000000000000000000, -1.000000000000000000, 0.000000000000000000 ) ) ;
#696 = PRESENTATION_LAYER_ASSIGNMENT (  '', '', ( #862 ) ) ;
#697 = EDGE_CURVE ( 'NONE', #1160, #923, #559, .T. ) ;
#698 = FACE_OUTER_BOUND ( 'NONE', #741, .T. ) ;
#699 = ORIENTED_EDGE ( 'NONE', *, *, #38, .T. ) ;
#700 = VECTOR ( 'NONE', #495, 100.0000000000000000 ) ;
#701 = AXIS2_PLACEMENT_3D ( 'NONE', #832, #988, #641 ) ;
#702 = CARTESIAN_POINT ( 'NONE',  ( 0.3149999999999998912, 0.2400000000000000744, 2.390000000000000568 ) ) ;
#703 = SURFACE_STYLE_FILL_AREA ( #331 ) ;
#704 = DIRECTION ( 'NONE',  ( 0.000000000000000000, -1.000000000000000000, 0.000000000000000000 ) ) ;
#705 = CARTESIAN_POINT ( 'NONE',  ( 0.000000000000000000, 0.000000000000000000, 5.000000000000000000 ) ) ;
#706 = ORIENTED_EDGE ( 'NONE', *, *, #339, .T. ) ;
#707 = FACE_OUTER_BOUND ( 'NONE', #274, .T. ) ;
#708 = DIRECTION ( 'NONE',  ( -1.000000000000000000, -0.000000000000000000, -0.000000000000000000 ) ) ;
#709 = ORIENTED_EDGE ( 'NONE', *, *, #690, .T. ) ;
#710 = FACE_OUTER_BOUND ( 'NONE', #848, .T. ) ;
#711 = ORIENTED_EDGE ( 'NONE', *, *, #31, .F. ) ;
#712 = VERTEX_POINT ( 'NONE', #654 ) ;
#713 = AXIS2_PLACEMENT_3D ( 'NONE', #227, #595, #55 ) ;
#714 = PRESENTATION_LAYER_ASSIGNMENT (  '', '', ( #328 ) ) ;
#715 = EDGE_CURVE ( 'NONE', #1009, #589, #542, .T. ) ;
#716 = LINE ( 'NONE', #694, #640 ) ;
#717 = CARTESIAN_POINT ( 'NONE',  ( 0.3149999999999998912, -0.2399999999999997691, 2.630000000000000338 ) ) ;
#718 = VECTOR ( 'NONE', #675, 100.0000000000000000 ) ;
#719 = EDGE_LOOP ( 'NONE', ( #1129, #298 ) ) ;
#720 = PLANE ( 'NONE',  #713 ) ;
#721 = DIRECTION ( 'NONE',  ( -0.000000000000000000, 0.000000000000000000, -1.000000000000000000 ) ) ;
#722 = CARTESIAN_POINT ( 'NONE',  ( -0.3149999999999998912, -0.3149999999999999467, 10.20000000000000107 ) ) ;
#723 = ORIENTED_EDGE ( 'NONE', *, *, #628, .F. ) ;
#724 = EDGE_CURVE ( 'NONE', #594, #232, #32, .T. ) ;
#725 = DIRECTION ( 'NONE',  ( -0.000000000000000000, 0.000000000000000000, -1.000000000000000000 ) ) ;
#726 = DIRECTION ( 'NONE',  ( 1.000000000000000000, 8.340016711426955288E-17, 0.000000000000000000 ) ) ;
#727 = LINE ( 'NONE', #475, #341 ) ;
#728 = ORIENTED_EDGE ( 'NONE', *, *, #132, .T. ) ;
#729 = EDGE_CURVE ( 'NONE', #444, #1043, #8, .T. ) ;
#730 = DIRECTION ( 'NONE',  ( 1.000000000000000000, 1.508455196501571676E-16, -0.000000000000000000 ) ) ;
#731 = VECTOR ( 'NONE', #1049, 100.0000000000000000 ) ;
#732 = PLANE ( 'NONE',  #701 ) ;
#733 = CARTESIAN_POINT ( 'NONE',  ( 0.2400000000000003797, 0.3149999999999998912, 2.390000000000000568 ) ) ;
#734 = VERTEX_POINT ( 'NONE', #383 ) ;
#735 = CARTESIAN_POINT ( 'NONE',  ( 0.3150000000000001132, 0.3150000000000002798, 10.20000000000000639 ) ) ;
#736 = ORIENTED_EDGE ( 'NONE', *, *, #1020, .T. ) ;
#737 = CARTESIAN_POINT ( 'NONE',  ( -0.5750000000000000666, 0.2400000000000000744, 5.000000000000000000 ) ) ;
#738 = APPLICATION_CONTEXT ( 'automotive_design' ) ;
#739 = DIRECTION ( 'NONE',  ( 1.000000000000000000, 0.000000000000000000, 0.000000000000000000 ) ) ;
#740 = ORIENTED_EDGE ( 'NONE', *, *, #682, .T. ) ;
#741 = EDGE_LOOP ( 'NONE', ( #449, #1058, #338, #630, #494, #673 ) ) ;
#742 = DIRECTION ( 'NONE',  ( 0.000000000000000000, 0.000000000000000000, -1.000000000000000000 ) ) ;
#743 = ORIENTED_EDGE ( 'NONE', *, *, #249, .F. ) ;
#744 = EDGE_CURVE ( 'NONE', #264, #801, #727, .T. ) ;
#745 = CARTESIAN_POINT ( 'NONE',  ( -0.5750000000000000666, 0.5749999999999999556, 5.000000000000000000 ) ) ;
#746 = DIRECTION ( 'NONE',  ( 0.000000000000000000, 0.000000000000000000, -1.000000000000000000 ) ) ;
#747 = VERTEX_POINT ( 'NONE', #1109 ) ;
#748 = VERTEX_POINT ( 'NONE', #552 ) ;
#749 = DIRECTION ( 'NONE',  ( 0.000000000000000000, 0.000000000000000000, -1.000000000000000000 ) ) ;
#750 = VERTEX_POINT ( 'NONE', #376 ) ;
#751 = VECTOR ( 'NONE', #742, 100.0000000000000000 ) ;
#752 = AXIS2_PLACEMENT_3D ( 'NONE', #1080, #912, #269 ) ;
#754 = LINE ( 'NONE', #942, #900 ) ;
#753 = CIRCLE ( 'NONE', #329, 0.2399999999999999356 ) ;
#755 = EDGE_LOOP ( 'NONE', ( #326, #263, #1022, #692 ) ) ;
#756 = ORIENTED_EDGE ( 'NONE', *, *, #531, .T. ) ;
#757 = DIRECTION ( 'NONE',  ( 0.000000000000000000, -1.000000000000000000, 0.000000000000000000 ) ) ;
#758 = ORIENTED_EDGE ( 'NONE', *, *, #593, .F. ) ;
#759 = CARTESIAN_POINT ( 'NONE',  ( 0.8349999999999999645, -0.2399999999999997691, 2.390000000000000568 ) ) ;
#760 = ORIENTED_EDGE ( 'NONE', *, *, #981, .F. ) ;
#761 = VERTEX_POINT ( 'NONE', #1086 ) ;
#762 = EDGE_CURVE ( 'NONE', #1081, #207, #286, .T. ) ;
#763 = DIRECTION ( 'NONE',  ( 0.000000000000000000, 1.000000000000000000, 0.000000000000000000 ) ) ;
#764 = VERTEX_POINT ( 'NONE', #189 ) ;
#765 = CARTESIAN_POINT ( 'NONE',  ( 0.000000000000000000, 0.000000000000000000, 11.39999999999999858 ) ) ;
#766 = CARTESIAN_POINT ( 'NONE',  ( -0.2399999999999996303, 0.3149999999999998912, 2.630000000000000338 ) ) ;
#767 = ORIENTED_EDGE ( 'NONE', *, *, #285, .T. ) ;
#768 = ADVANCED_FACE ( 'NONE', ( #262 ), #1016, .T. ) ;
#769 = CARTESIAN_POINT ( 'NONE',  ( 0.5750000000000000666, 0.5749999999999999556, 12.00000000000000000 ) ) ;
#770 = VECTOR ( 'NONE', #693, 100.0000000000000000 ) ;
#771 = DIRECTION ( 'NONE',  ( 0.000000000000000000, -1.000000000000000000, 0.000000000000000000 ) ) ;
#772 = CARTESIAN_POINT ( 'NONE',  ( 0.3149999999999998912, -0.2399999999999997691, 5.000000000000000000 ) ) ;
#773 = AXIS2_PLACEMENT_3D ( 'NONE', #623, #979, #529 ) ;
#774 =( NAMED_UNIT ( * ) PLANE_ANGLE_UNIT ( ) SI_UNIT ( $, .RADIAN. ) );
#775 = ORIENTED_EDGE ( 'NONE', *, *, #981, .T. ) ;
#776 = LINE ( 'NONE', #1171, #770 ) ;
#777 = LINE ( 'NONE', #683, #292 ) ;
#778 = CARTESIAN_POINT ( 'NONE',  ( -0.2399999999999996303, -0.3149999999999998912, 5.000000000000000000 ) ) ;
#779 = ORIENTED_EDGE ( 'NONE', *, *, #966, .F. ) ;
#780 = LINE ( 'NONE', #417, #1012 ) ;
#781 = EDGE_CURVE ( 'NONE', #748, #734, #97, .T. ) ;
#782 = FACE_OUTER_BOUND ( 'NONE', #1025, .T. ) ;
#783 = DIRECTION ( 'NONE',  ( -0.1415218808486789492, -0.1415218808486787827, -0.9797668674139294875 ) ) ;
#784 = ORIENTED_EDGE ( 'NONE', *, *, #123, .F. ) ;
#785 = CARTESIAN_POINT ( 'NONE',  ( 0.2400000000000003797, -0.3149999999999998912, 5.000000000000000000 ) ) ;
#786 = PLANE ( 'NONE',  #1165 ) ;
#787 = ADVANCED_FACE ( 'NONE', ( #818 ), #996, .F. ) ;
#789 = CARTESIAN_POINT ( 'NONE',  ( 0.5749999999999999556, 0.2400000000000000744, 5.000000000000000000 ) ) ;
#788 = VECTOR ( 'NONE', #203, 100.0000000000000000 ) ;
#790 = ORIENTED_EDGE ( 'NONE', *, *, #1108, .T. ) ;
#791 =( GEOMETRIC_REPRESENTATION_CONTEXT ( 3 ) GLOBAL_UNCERTAINTY_ASSIGNED_CONTEXT ( ( #159 ) ) GLOBAL_UNIT_ASSIGNED_CONTEXT ( ( #1059, #66, #431 ) ) REPRESENTATION_CONTEXT ( 'NONE', 'WORKASPACE' ) );
#792 = CARTESIAN_POINT ( 'NONE',  ( 0.2400000000000003797, 0.3149999999999998912, 5.000000000000000000 ) ) ;
#793 = CARTESIAN_POINT ( 'NONE',  ( 0.5749999999999999556, 0.5750000000000000666, 5.000000000000000000 ) ) ;
#794 = ORIENTED_EDGE ( 'NONE', *, *, #830, .T. ) ;
#795 = EDGE_CURVE ( 'NONE', #47, #72, #21, .T. ) ;
#796 = DIRECTION ( 'NONE',  ( -1.000000000000000000, 0.000000000000000000, 0.000000000000000000 ) ) ;
#797 = DIRECTION ( 'NONE',  ( -0.000000000000000000, 0.000000000000000000, -1.000000000000000000 ) ) ;
#798 = ORIENTED_EDGE ( 'NONE', *, *, #795, .T. ) ;
#799 = EDGE_CURVE ( 'NONE', #747, #836, #1114, .T. ) ;
#800 = CARTESIAN_POINT ( 'NONE',  ( 0.000000000000000000, 0.000000000000000000, 12.00000000000000000 ) ) ;
#801 = VERTEX_POINT ( 'NONE', #509 ) ;
#802 = AXIS2_PLACEMENT_3D ( 'NONE', #816, #282, #450 ) ;
#803 = CYLINDRICAL_SURFACE ( 'NONE', #423, 0.3099999999999999978 ) ;
#804 = VECTOR ( 'NONE', #929, 100.0000000000000000 ) ;
#805 = STYLED_ITEM ( 'NONE', ( #524 ), #986 ) ;
#806 = EDGE_CURVE ( 'NONE', #9, #281, #52, .T. ) ;
#807 = DIRECTION ( 'NONE',  ( -8.340016711426955288E-17, 1.000000000000000000, 0.000000000000000000 ) ) ;
#808 = DIRECTION ( 'NONE',  ( 0.000000000000000000, 0.000000000000000000, -1.000000000000000000 ) ) ;
#809 = ORIENTED_EDGE ( 'NONE', *, *, #697, .T. ) ;
#810 = ORIENTED_EDGE ( 'NONE', *, *, #653, .T. ) ;
#811 = CARTESIAN_POINT ( 'NONE',  ( 3.686287386450715076E-16, 0.3149999999999998912, 2.630000000000000338 ) ) ;
#812 = CARTESIAN_POINT ( 'NONE',  ( 0.5749999999999999556, 0.5750000000000000666, 0.000000000000000000 ) ) ;
#813 = ADVANCED_FACE ( 'NONE', ( #674 ), #596, .F. ) ;
#814 = CARTESIAN_POINT ( 'NONE',  ( -0.5750000000000000666, 0.5749999999999999556, 0.000000000000000000 ) ) ;
#815 = ORIENTED_EDGE ( 'NONE', *, *, #76, .F. ) ;
#816 = CARTESIAN_POINT ( 'NONE',  ( 0.000000000000000000, 0.000000000000000000, 11.39999999999999858 ) ) ;
#817 = DIRECTION ( 'NONE',  ( 0.000000000000000000, 1.000000000000000000, 0.000000000000000000 ) ) ;
#818 = FACE_OUTER_BOUND ( 'NONE', #931, .T. ) ;
#819 = LINE ( 'NONE', #1122, #314 ) ;
#820 = CARTESIAN_POINT ( 'NONE',  ( 0.5749999999999999556, 0.2400000000000000744, 5.000000000000000000 ) ) ;
#821 = AXIS2_PLACEMENT_3D ( 'NONE', #604, #255, #1150 ) ;
#822 = AXIS2_PLACEMENT_3D ( 'NONE', #1076, #808, #333 ) ;
#823 = VECTOR ( 'NONE', #90, 100.0000000000000000 ) ;
#824 = LINE ( 'NONE', #176, #823 ) ;
#825 = DIRECTION ( 'NONE',  ( 1.508455196501571676E-16, -1.000000000000000000, 0.000000000000000000 ) ) ;
#826 = ORIENTED_EDGE ( 'NONE', *, *, #884, .F. ) ;
#827 = ORIENTED_EDGE ( 'NONE', *, *, #38, .F. ) ;
#828 = DIRECTION ( 'NONE',  ( 0.000000000000000000, 1.000000000000000000, 0.000000000000000000 ) ) ;
#829 = EDGE_LOOP ( 'NONE', ( #949, #656, #345, #827 ) ) ;
#830 = EDGE_CURVE ( 'NONE', #997, #1121, #754, .T. ) ;
#831 = MANIFOLD_SOLID_BREP ( 'Cut-Extrude3', #977 ) ;
#832 = CARTESIAN_POINT ( 'NONE',  ( 0.8349999999999999645, 0.2400000000000000744, 2.390000000000000568 ) ) ;
#833 = DIRECTION ( 'NONE',  ( -0.000000000000000000, 0.000000000000000000, -1.000000000000000000 ) ) ;
#834 = CARTESIAN_POINT ( 'NONE',  ( -0.5750000000000000666, -0.2399999999999997691, 5.000000000000000000 ) ) ;
#835 = ORIENTED_EDGE ( 'NONE', *, *, #852, .F. ) ;
#836 = VERTEX_POINT ( 'NONE', #1126 ) ;
#837 = EDGE_CURVE ( 'NONE', #430, #761, #753, .T. ) ;
#838 = DIRECTION ( 'NONE',  ( 0.000000000000000000, 0.000000000000000000, -1.000000000000000000 ) ) ;
#839 = ORIENTED_EDGE ( 'NONE', *, *, #479, .F. ) ;
#840 = FACE_OUTER_BOUND ( 'NONE', #1137, .T. ) ;
#841 = ORIENTED_EDGE ( 'NONE', *, *, #91, .F. ) ;
#842 = VECTOR ( 'NONE', #17, 100.0000000000000000 ) ;
#843 = ADVANCED_FACE ( 'NONE', ( #228 ), #863, .F. ) ;
#844 = DIRECTION ( 'NONE',  ( 1.000000000000000000, 0.000000000000000000, 0.000000000000000000 ) ) ;
#845 = VECTOR ( 'NONE', #796, 100.0000000000000000 ) ;
#846 = CARTESIAN_POINT ( 'NONE',  ( 0.2400000000000003797, 0.3149999999999998912, 2.630000000000000338 ) ) ;
#847 = ORIENTED_EDGE ( 'NONE', *, *, #381, .T. ) ;
#848 = EDGE_LOOP ( 'NONE', ( #116, #35, #985, #736 ) ) ;
#849 = VERTEX_POINT ( 'NONE', #1116 ) ;
#850 =( NAMED_UNIT ( * ) SI_UNIT ( $, .STERADIAN. ) SOLID_ANGLE_UNIT ( ) );
#851 = DIRECTION ( 'NONE',  ( 0.000000000000000000, 0.000000000000000000, -1.000000000000000000 ) ) ;
#852 = EDGE_CURVE ( 'NONE', #1121, #560, #390, .T. ) ;
#853 = ORIENTED_EDGE ( 'NONE', *, *, #153, .T. ) ;
#854 = FACE_OUTER_BOUND ( 'NONE', #489, .T. ) ;
#855 = VERTEX_POINT ( 'NONE', #39 ) ;
#856 = CARTESIAN_POINT ( 'NONE',  ( 0.2400000000000003797, 0.5749999999999999556, 2.630000000000000338 ) ) ;
#857 = CARTESIAN_POINT ( 'NONE',  ( 0.000000000000000000, 0.2400000000000000744, 5.000000000000000000 ) ) ;
#858 = FACE_OUTER_BOUND ( 'NONE', #180, .T. ) ;
#859 = ORIENTED_EDGE ( 'NONE', *, *, #1, .F. ) ;
#860 = EDGE_CURVE ( 'NONE', #492, #670, #947, .T. ) ;
#861 = APPLICATION_PROTOCOL_DEFINITION ( 'draft international standard', 'automotive_design', 1998, #293 ) ;
#862 = STYLED_ITEM ( 'NONE', ( #1041 ), #85 ) ;
#863 = PLANE ( 'NONE',  #1115 ) ;
#864 = LINE ( 'NONE', #587, #1050 ) ;
#865 = VECTOR ( 'NONE', #647, 100.0000000000000000 ) ;
#866 =( NAMED_UNIT ( * ) SI_UNIT ( $, .STERADIAN. ) SOLID_ANGLE_UNIT ( ) );
#867 = ORIENTED_EDGE ( 'NONE', *, *, #1118, .T. ) ;
#868 = EDGE_CURVE ( 'NONE', #872, #1160, #130, .T. ) ;
#869 = CARTESIAN_POINT ( 'NONE',  ( 0.000000000000000000, -0.3099999999999999978, 11.39999999999999858 ) ) ;
#870 =( LENGTH_UNIT ( ) NAMED_UNIT ( * ) SI_UNIT ( .CENTI., .METRE. ) );
#871 = DIRECTION ( 'NONE',  ( 0.000000000000000000, 1.000000000000000000, 0.000000000000000000 ) ) ;
#872 = VERTEX_POINT ( 'NONE', #856 ) ;
#873 = ADVANCED_FACE ( 'NONE', ( #400 ), #143, .F. ) ;
#874 = CARTESIAN_POINT ( 'NONE',  ( 1.134659571895032304, 0.000000000000000000, 0.1638952714959493184 ) ) ;
#875 = SURFACE_SIDE_STYLE ('',( #703 ) ) ;
#876 = SURFACE_STYLE_FILL_AREA ( #1147 ) ;
#877 = VERTEX_POINT ( 'NONE', #57 ) ;
#878 = DIRECTION ( 'NONE',  ( 1.000000000000000000, 0.000000000000000000, 0.000000000000000000 ) ) ;
#879 = EDGE_CURVE ( 'NONE', #47, #362, #777, .T. ) ;
#880 = COLOUR_RGB ( '',0.6941176470588235059, 0.09803921568627450844, 0.09803921568627450844 ) ;
#881 = CARTESIAN_POINT ( 'NONE',  ( 0.3149999999999998912, 0.2400000000000000744, 5.000000000000000000 ) ) ;
#882 = ORIENTED_EDGE ( 'NONE', *, *, #473, .T. ) ;
#883 = AXIS2_PLACEMENT_3D ( 'NONE', #323, #878, #426 ) ;
#884 = EDGE_CURVE ( 'NONE', #612, #748, #1045, .T. ) ;
#885 = CARTESIAN_POINT ( 'NONE',  ( 0.5749999999999999556, 0.5750000000000000666, 5.000000000000000000 ) ) ;
#886 = ORIENTED_EDGE ( 'NONE', *, *, #342, .T. ) ;
#887 = ORIENTED_EDGE ( 'NONE', *, *, #799, .T. ) ;
#888 = CARTESIAN_POINT ( 'NONE',  ( 0.3149999999999997802, 0.3149999999999998912, 5.000000000000000000 ) ) ;
#889 = CARTESIAN_POINT ( 'NONE',  ( -0.2399999999999996858, 0.5749999999999999556, 2.630000000000000338 ) ) ;
#890 = EDGE_LOOP ( 'NONE', ( #601, #563, #54, #68, #758, #171, #138, #334 ) ) ;
#891 = LINE ( 'NONE', #182, #600 ) ;
#892 = EDGE_CURVE ( 'NONE', #1043, #47, #606, .T. ) ;
#893 = DIRECTION ( 'NONE',  ( 0.000000000000000000, -1.000000000000000000, 0.000000000000000000 ) ) ;
#894 = UNCERTAINTY_MEASURE_WITH_UNIT (LENGTH_MEASURE( 1.000000000000000082E-05 ), #689, 'distance_accuracy_value', 'NONE');
#895 = PLANE ( 'NONE',  #973 ) ;
#896 = VERTEX_POINT ( 'NONE', #418 ) ;
#897 = VECTOR ( 'NONE', #910, 100.0000000000000000 ) ;
#898 = ORIENTED_EDGE ( 'NONE', *, *, #1106, .T. ) ;
#899 = CARTESIAN_POINT ( 'NONE',  ( -0.2399999999999996303, -0.3149999999999998912, 2.630000000000000338 ) ) ;
#900 = VECTOR ( 'NONE', #955, 100.0000000000000000 ) ;
#901 = VECTOR ( 'NONE', #1107, 100.0000000000000000 ) ;
#902 = EDGE_CURVE ( 'NONE', #430, #74, #1052, .T. ) ;
#903 = CARTESIAN_POINT ( 'NONE',  ( 0.5750000000000000666, -0.5749999999999999556, 12.00000000000000000 ) ) ;
#904 = CARTESIAN_POINT ( 'NONE',  ( 0.2400000000000003797, 0.3149999999999998912, 2.390000000000000568 ) ) ;
#905 = ORIENTED_EDGE ( 'NONE', *, *, #304, .T. ) ;
#906 = CARTESIAN_POINT ( 'NONE',  ( -0.5750000000000000666, 0.5749999999999999556, 12.00000000000000000 ) ) ;
#907 = LINE ( 'NONE', #1093, #441 ) ;
#908 = LINE ( 'NONE', #461, #50 ) ;
#909 = CARTESIAN_POINT ( 'NONE',  ( -0.2399999999999996303, -0.3149999999999998912, 5.000000000000000000 ) ) ;
#910 = DIRECTION ( 'NONE',  ( -0.000000000000000000, 0.000000000000000000, -1.000000000000000000 ) ) ;
#911 = DIRECTION ( 'NONE',  ( 0.000000000000000000, -1.000000000000000000, 0.000000000000000000 ) ) ;
#912 = DIRECTION ( 'NONE',  ( 0.000000000000000000, -0.9897283568439538826, -0.1429607626552378274 ) ) ;
#913 = ORIENTED_EDGE ( 'NONE', *, *, #879, .F. ) ;
#914 = ADVANCED_FACE ( 'NONE', ( #1063 ), #1067, .F. ) ;
#915 = ORIENTED_EDGE ( 'NONE', *, *, #806, .T. ) ;
#916 = LINE ( 'NONE', #371, #842 ) ;
#917 = VERTEX_POINT ( 'NONE', #983 ) ;
#918 = VECTOR ( 'NONE', #1097, 100.0000000000000000 ) ;
#919 = AXIS2_PLACEMENT_3D ( 'NONE', #106, #746, #547 ) ;
#920 = VECTOR ( 'NONE', #586, 100.0000000000000000 ) ;
#921 = FACE_OUTER_BOUND ( 'NONE', #1124, .T. ) ;
#922 = DIRECTION ( 'NONE',  ( 0.000000000000000000, 0.000000000000000000, 1.000000000000000000 ) ) ;
#923 = VERTEX_POINT ( 'NONE', #792 ) ;
#924 = ORIENTED_EDGE ( 'NONE', *, *, #653, .F. ) ;
#925 = ADVANCED_FACE ( 'NONE', ( #533 ), #962, .F. ) ;
#926 = CARTESIAN_POINT ( 'NONE',  ( 0.000000000000000000, -0.2399999999999997691, 5.000000000000000000 ) ) ;
#927 = ORIENTED_EDGE ( 'NONE', *, *, #479, .T. ) ;
#928 = CARTESIAN_POINT ( 'NONE',  ( 0.2400000000000003797, 0.3149999999999998912, 2.630000000000000338 ) ) ;
#929 = DIRECTION ( 'NONE',  ( 1.000000000000000000, 0.000000000000000000, 0.000000000000000000 ) ) ;
#930 = CARTESIAN_POINT ( 'NONE',  ( 0.3150000000000001132, -0.3150000000000002798, 10.20000000000000639 ) ) ;
#931 = EDGE_LOOP ( 'NONE', ( #1082, #128, #658, #790, #543, #472, #826, #905 ) ) ;
#932 = LINE ( 'NONE', #926, #99 ) ;
#933 = ORIENTED_EDGE ( 'NONE', *, *, #622, .T. ) ;
#934 = ADVANCED_FACE ( 'NONE', ( #707 ), #613, .F. ) ;
#935 = DIRECTION ( 'NONE',  ( 0.000000000000000000, 1.000000000000000000, 0.000000000000000000 ) ) ;
#936 = ORIENTED_EDGE ( 'NONE', *, *, #285, .F. ) ;
#937 = VERTEX_POINT ( 'NONE', #1158 ) ;
#938 = VECTOR ( 'NONE', #1073, 100.0000000000000000 ) ;
#939 = EDGE_CURVE ( 'NONE', #748, #712, #716, .T. ) ;
#940 = LINE ( 'NONE', #224, #1056 ) ;
#941 = MECHANICAL_DESIGN_GEOMETRIC_PRESENTATION_REPRESENTATION (  '', ( #142 ), #122 ) ;
#942 = CARTESIAN_POINT ( 'NONE',  ( -0.2399999999999996303, 0.000000000000000000, 5.000000000000000000 ) ) ;
#943 = CARTESIAN_POINT ( 'NONE',  ( 0.5750000000000000666, 0.5749999999999999556, 12.00000000000000000 ) ) ;
#944 = VERTEX_POINT ( 'NONE', #237 ) ;
#945 = SURFACE_STYLE_FILL_AREA ( #409 ) ;
#946 = ORIENTED_EDGE ( 'NONE', *, *, #622, .F. ) ;
#947 = LINE ( 'NONE', #481, #541 ) ;
#948 = CARTESIAN_POINT ( 'NONE',  ( 3.686287386450715076E-16, 0.5749999999999999556, 2.630000000000000338 ) ) ;
#949 = ORIENTED_EDGE ( 'NONE', *, *, #682, .F. ) ;
#950 = CARTESIAN_POINT ( 'NONE',  ( 3.469446951953614189E-16, -0.5749999999999999556, 2.630000000000000338 ) ) ;
#951 = CARTESIAN_POINT ( 'NONE',  ( -0.3149999999999998912, 0.3149999999999998912, 5.000000000000000000 ) ) ;
#952 = VERTEX_POINT ( 'NONE', #164 ) ;
#953 = PLANE ( 'NONE',  #821 ) ;
#954 = VECTOR ( 'NONE', #1003, 100.0000000000000000 ) ;
#955 = DIRECTION ( 'NONE',  ( 0.000000000000000000, 1.000000000000000000, 0.000000000000000000 ) ) ;
#956 = DIRECTION ( 'NONE',  ( 8.340016711426955288E-17, -1.000000000000000000, -0.000000000000000000 ) ) ;
#957 = VECTOR ( 'NONE', #797, 100.0000000000000000 ) ;
#958 = DIRECTION ( 'NONE',  ( 0.000000000000000000, 0.000000000000000000, -1.000000000000000000 ) ) ;
#959 = EDGE_LOOP ( 'NONE', ( #422, #370, #521, #530, #561, #410, #190, #110 ) ) ;
#960 = LINE ( 'NONE', #702, #555 ) ;
#961 = ORIENTED_EDGE ( 'NONE', *, *, #1130, .F. ) ;
#962 = PLANE ( 'NONE',  #236 ) ;
#963 = LINE ( 'NONE', #43, #233 ) ;
#964 = DIRECTION ( 'NONE',  ( 1.000000000000000000, 1.508455196501571676E-16, 0.000000000000000000 ) ) ;
#965 = VERTEX_POINT ( 'NONE', #157 ) ;
#966 = EDGE_CURVE ( 'NONE', #281, #527, #37, .T. ) ;
#967 = CARTESIAN_POINT ( 'NONE',  ( 3.469446951953614189E-16, -0.3149999999999998912, 2.630000000000000338 ) ) ;
#968 = FACE_OUTER_BOUND ( 'NONE', #45, .T. ) ;
#969 = ORIENTED_EDGE ( 'NONE', *, *, #724, .F. ) ;
#970 = ADVANCED_FACE ( 'NONE', ( #710 ), #515, .F. ) ;
#971 = SURFACE_STYLE_USAGE ( .BOTH. , #875 ) ;
#972 = AXIS2_PLACEMENT_3D ( 'NONE', #332, #1036, #704 ) ;
#974 = FACE_OUTER_BOUND ( 'NONE', #1117, .T. ) ;
#973 = AXIS2_PLACEMENT_3D ( 'NONE', #793, #238, #964 ) ;
#975 = ORIENTED_EDGE ( 'NONE', *, *, #230, .T. ) ;
#976 = VECTOR ( 'NONE', #721, 100.0000000000000000 ) ;
#977 = CLOSED_SHELL ( 'NONE', ( #1075, #172, #986, #506, #85, #455, #519, #1047, #813, #211, #545, #934, #787, #609, #244, #873, #1006, #420, #925, #970, #843, #1099, #464, #259, #139, #914, #645, #277, #354, #558, #205, #768, #165, #373, #1092, #147 ) ) ;
#978 = CARTESIAN_POINT ( 'NONE',  ( 0.5750000000000000666, -0.5749999999999999556, 5.000000000000000000 ) ) ;
#979 = DIRECTION ( 'NONE',  ( 0.000000000000000000, 0.000000000000000000, -1.000000000000000000 ) ) ;
#980 = ORIENTED_EDGE ( 'NONE', *, *, #219, .T. ) ;
#981 = EDGE_CURVE ( 'NONE', #997, #482, #70, .T. ) ;
#982 = LINE ( 'NONE', #536, #457 ) ;
#983 = CARTESIAN_POINT ( 'NONE',  ( 0.5750000000000000666, -0.5749999999999999556, 0.000000000000000000 ) ) ;
#984 = DIRECTION ( 'NONE',  ( -0.000000000000000000, 0.000000000000000000, -1.000000000000000000 ) ) ;
#985 = ORIENTED_EDGE ( 'NONE', *, *, #902, .T. ) ;
#986 = ADVANCED_FACE ( 'NONE', ( #782 ), #251, .F. ) ;
#987 = DIRECTION ( 'NONE',  ( -0.000000000000000000, 0.000000000000000000, -1.000000000000000000 ) ) ;
#988 = DIRECTION ( 'NONE',  ( 0.000000000000000000, 1.000000000000000000, -0.000000000000000000 ) ) ;
#989 = EDGE_LOOP ( 'NONE', ( #100, #113, #1098, #554 ) ) ;
#990 =( GEOMETRIC_REPRESENTATION_CONTEXT ( 3 ) GLOBAL_UNCERTAINTY_ASSIGNED_CONTEXT ( ( #894 ) ) GLOBAL_UNIT_ASSIGNED_CONTEXT ( ( #689, #229, #491 ) ) REPRESENTATION_CONTEXT ( 'NONE', 'WORKASPACE' ) );
#991 = VECTOR ( 'NONE', #520, 100.0000000000000000 ) ;
#992 = CARTESIAN_POINT ( 'NONE',  ( 3.686287386450715076E-16, 0.5749999999999999556, 2.630000000000000338 ) ) ;
#993 = PRODUCT_DEFINITION ( 'UNKNOWN', '', #181, #1085 ) ;
#994 = VECTOR ( 'NONE', #359, 100.0000000000000000 ) ;
#995 = DIRECTION ( 'NONE',  ( -1.000000000000000000, 0.000000000000000000, 0.000000000000000000 ) ) ;
#996 = PLANE ( 'NONE',  #1013 ) ;
#997 = VERTEX_POINT ( 'NONE', #7 ) ;
#998 = DIRECTION ( 'NONE',  ( 0.1415218808486789215, 0.1415218808486787549, -0.9797668674139294875 ) ) ;
#999 = LINE ( 'NONE', #745, #901 ) ;
#1000 = CARTESIAN_POINT ( 'NONE',  ( 0.5750000000000000666, -0.5749999999999999556, 12.00000000000000000 ) ) ;
#1001 = ORIENTED_EDGE ( 'NONE', *, *, #240, .T. ) ;
#1002 = ORIENTED_EDGE ( 'NONE', *, *, #598, .F. ) ;
#1003 = DIRECTION ( 'NONE',  ( 8.340016711426955288E-17, -1.000000000000000000, 0.000000000000000000 ) ) ;
#1004 = VERTEX_POINT ( 'NONE', #737 ) ;
#1005 = PLANE ( 'NONE',  #158 ) ;
#1006 = ADVANCED_FACE ( 'NONE', ( #184 ), #732, .F. ) ;
#1007 = CARTESIAN_POINT ( 'NONE',  ( 0.000000000000000000, 0.000000000000000000, 0.000000000000000000 ) ) ;
#1008 = DIRECTION ( 'NONE',  ( -0.000000000000000000, 0.000000000000000000, -1.000000000000000000 ) ) ;
#1009 = VERTEX_POINT ( 'NONE', #550 ) ;
#1010 = CARTESIAN_POINT ( 'NONE',  ( -1.134659571895032526, 0.000000000000000000, 0.1638952714959494017 ) ) ;
#1011 = ORIENTED_EDGE ( 'NONE', *, *, #671, .T. ) ;
#1012 = VECTOR ( 'NONE', #635, 100.0000000000000000 ) ;
#1013 = AXIS2_PLACEMENT_3D ( 'NONE', #13, #565, #825 ) ;
#1014 = COLOUR_RGB ( '',0.6941176470588235059, 0.09803921568627450844, 0.09803921568627450844 ) ;
#1015 = DIRECTION ( 'NONE',  ( -1.000000000000000000, 0.000000000000000000, 0.000000000000000000 ) ) ;
#1016 = PLANE ( 'NONE',  #752 ) ;
#1017 = CARTESIAN_POINT ( 'NONE',  ( 0.5749999999999999556, 0.5750000000000000666, 0.000000000000000000 ) ) ;
#1018 = VERTEX_POINT ( 'NONE', #77 ) ;
#1019 = VECTOR ( 'NONE', #1008, 100.0000000000000000 ) ;
#1020 = EDGE_CURVE ( 'NONE', #74, #1004, #907, .T. ) ;
#1021 = CARTESIAN_POINT ( 'NONE',  ( -0.5750000000000000666, -0.5749999999999999556, 12.00000000000000000 ) ) ;
#1022 = ORIENTED_EDGE ( 'NONE', *, *, #446, .F. ) ;
#1023 = LINE ( 'NONE', #42, #620 ) ;
#1024 = SURFACE_SIDE_STYLE ('',( #1029 ) ) ;
#1025 = EDGE_LOOP ( 'NONE', ( #216, #760, #794, #756, #296, #582 ) ) ;
#1026 = CARTESIAN_POINT ( 'NONE',  ( 0.2400000000000003242, 2.001604010742471858E-17, 5.000000000000000000 ) ) ;
#1027 = EDGE_LOOP ( 'NONE', ( #1157, #767, #276, #775, #859, #162, #706, #847 ) ) ;
#1028 = EDGE_CURVE ( 'NONE', #965, #877, #824, .T. ) ;
#1029 = SURFACE_STYLE_FILL_AREA ( #300 ) ;
#1030 = DIRECTION ( 'NONE',  ( 0.000000000000000000, 0.000000000000000000, 1.000000000000000000 ) ) ;
#1031 = DIRECTION ( 'NONE',  ( 0.000000000000000000, 0.000000000000000000, 1.000000000000000000 ) ) ;
#1032 = VERTEX_POINT ( 'NONE', #632 ) ;
#1033 = AXIS2_PLACEMENT_3D ( 'NONE', #800, #432, #344 ) ;
#1034 = PRESENTATION_LAYER_ASSIGNMENT (  '', '', ( #805 ) ) ;
#1035 = SURFACE_STYLE_USAGE ( .BOTH. , #1024 ) ;
#1036 = DIRECTION ( 'NONE',  ( -1.000000000000000000, 0.000000000000000000, 0.000000000000000000 ) ) ;
#1037 = PRESENTATION_STYLE_ASSIGNMENT (( #308 ) ) ;
#1038 = ORIENTED_EDGE ( 'NONE', *, *, #318, .T. ) ;
#1039 = EDGE_CURVE ( 'NONE', #849, #163, #193, .T. ) ;
#1040 = DIRECTION ( 'NONE',  ( -0.000000000000000000, 0.000000000000000000, -1.000000000000000000 ) ) ;
#1041 = PRESENTATION_STYLE_ASSIGNMENT (( #1053 ) ) ;
#1042 =( NAMED_UNIT ( * ) PLANE_ANGLE_UNIT ( ) SI_UNIT ( $, .RADIAN. ) );
#1043 = VERTEX_POINT ( 'NONE', #903 ) ;
#1044 = FACE_OUTER_BOUND ( 'NONE', #829, .T. ) ;
#1045 = LINE ( 'NONE', #610, #581 ) ;
#1046 = DIRECTION ( 'NONE',  ( 0.000000000000000000, 0.000000000000000000, 1.000000000000000000 ) ) ;
#1047 = ADVANCED_FACE ( 'NONE', ( #202 ), #26, .F. ) ;
#1048 = EDGE_LOOP ( 'NONE', ( #810, #608 ) ) ;
#1049 = DIRECTION ( 'NONE',  ( 0.000000000000000000, 0.000000000000000000, 1.000000000000000000 ) ) ;
#1050 = VECTOR ( 'NONE', #956, 100.0000000000000000 ) ;
#1051 = COLOUR_RGB ( '',1.000000000000000000, 1.000000000000000000, 1.000000000000000000 ) ;
#1052 = LINE ( 'NONE', #627, #1072 ) ;
#1053 = SURFACE_STYLE_USAGE ( .BOTH. , #419 ) ;
#1054 = VECTOR ( 'NONE', #763, 100.0000000000000000 ) ;
#1055 = PRODUCT_RELATED_PRODUCT_CATEGORY ( 'part', '', ( #374 ) ) ;
#1056 = VECTOR ( 'NONE', #294, 100.0000000000000000 ) ;
#1057 = LINE ( 'NONE', #766, #177 ) ;
#1058 = ORIENTED_EDGE ( 'NONE', *, *, #1145, .F. ) ;
#1059 =( LENGTH_UNIT ( ) NAMED_UNIT ( * ) SI_UNIT ( .CENTI., .METRE. ) );
#1060 = FACE_OUTER_BOUND ( 'NONE', #1143, .T. ) ;
#1061 = ORIENTED_EDGE ( 'NONE', *, *, #337, .T. ) ;
#1062 = EDGE_CURVE ( 'NONE', #712, #553, #458, .T. ) ;
#1063 = FACE_OUTER_BOUND ( 'NONE', #1071, .T. ) ;
#1064 = UNCERTAINTY_MEASURE_WITH_UNIT (LENGTH_MEASURE( 1.000000000000000082E-05 ), #222, 'distance_accuracy_value', 'NONE');
#1065 = LINE ( 'NONE', #885, #991 ) ;
#1066 = EDGE_LOOP ( 'NONE', ( #81, #213, #126, #709 ) ) ;
#1067 = PLANE ( 'NONE',  #883 ) ;
#1068 = VECTOR ( 'NONE', #1127, 100.0000000000000000 ) ;
#1070 = DIRECTION ( 'NONE',  ( 1.000000000000000000, 9.035018104045874392E-17, -0.000000000000000000 ) ) ;
#1069 = VECTOR ( 'NONE', #739, 100.0000000000000000 ) ;
#1071 = EDGE_LOOP ( 'NONE', ( #743, #1105, #809, #186 ) ) ;
#1072 = VECTOR ( 'NONE', #621, 100.0000000000000000 ) ;
#1073 = DIRECTION ( 'NONE',  ( 0.000000000000000000, 0.000000000000000000, 1.000000000000000000 ) ) ;
#1074 = DIRECTION ( 'NONE',  ( -0.000000000000000000, 0.000000000000000000, -1.000000000000000000 ) ) ;
#1075 = ADVANCED_FACE ( 'NONE', ( #921 ), #660, .F. ) ;
#1076 = CARTESIAN_POINT ( 'NONE',  ( 0.000000000000000000, 0.000000000000000000, 1.899999999999999911 ) ) ;
#1077 = ORIENTED_EDGE ( 'NONE', *, *, #1028, .F. ) ;
#1078 = DIRECTION ( 'NONE',  ( 0.000000000000000000, 1.000000000000000000, -0.000000000000000000 ) ) ;
#1079 = CARTESIAN_POINT ( 'NONE',  ( -0.2399999999999996303, 0.5749999999999999556, 5.000000000000000000 ) ) ;
#1080 = CARTESIAN_POINT ( 'NONE',  ( 0.000000000000000000, 1.134659571895030306, 0.1638952714959489021 ) ) ;
#1081 = VERTEX_POINT ( 'NONE', #105 ) ;
#1082 = ORIENTED_EDGE ( 'NONE', *, *, #427, .F. ) ;
#1083 = PLANE ( 'NONE',  #659 ) ;
#1084 = LINE ( 'NONE', #652, #311 ) ;
#1085 = PRODUCT_DEFINITION_CONTEXT ( 'detailed design', #738, 'design' ) ;
#1086 = CARTESIAN_POINT ( 'NONE',  ( -0.3149999999999998912, -0.2399999999999997691, 2.630000000000000338 ) ) ;
#1087 = ORIENTED_EDGE ( 'NONE', *, *, #1145, .T. ) ;
#1088 = AXIS2_PLACEMENT_3D ( 'NONE', #992, #508, #59 ) ;
#1089 = COLOUR_RGB ( '',0.6941176470588235059, 0.09803921568627450844, 0.09803921568627450844 ) ;
#1090 = CARTESIAN_POINT ( 'NONE',  ( 3.469446951953614189E-16, -0.5749999999999999556, 2.630000000000000338 ) ) ;
#1091 = AXIS2_PLACEMENT_3D ( 'NONE', #540, #995, #272 ) ;
#1092 = ADVANCED_FACE ( 'NONE', ( #2 ), #86, .F. ) ;
#1093 = CARTESIAN_POINT ( 'NONE',  ( -0.8349999999999999645, 0.2400000000000000744, 5.000000000000000000 ) ) ;
#1094 = VECTOR ( 'NONE', #566, 100.0000000000000000 ) ;
#1095 = DIRECTION ( 'NONE',  ( 1.000000000000000000, 0.000000000000000000, 0.000000000000000000 ) ) ;
#1096 = ORIENTED_EDGE ( 'NONE', *, *, #795, .F. ) ;
#1097 = DIRECTION ( 'NONE',  ( 0.000000000000000000, 1.000000000000000000, 0.000000000000000000 ) ) ;
#1098 = ORIENTED_EDGE ( 'NONE', *, *, #744, .F. ) ;
#1099 = ADVANCED_FACE ( 'NONE', ( #646 ), #1005, .F. ) ;
#1100 = DIRECTION ( 'NONE',  ( 0.000000000000000000, 0.000000000000000000, -1.000000000000000000 ) ) ;
#1101 = DIRECTION ( 'NONE',  ( 0.000000000000000000, -1.000000000000000000, 0.000000000000000000 ) ) ;
#1102 = ORIENTED_EDGE ( 'NONE', *, *, #339, .F. ) ;
#1103 = ORIENTED_EDGE ( 'NONE', *, *, #781, .T. ) ;
#1104 = CARTESIAN_POINT ( 'NONE',  ( -0.5750000000000000666, 0.5749999999999999556, 5.000000000000000000 ) ) ;
#1105 = ORIENTED_EDGE ( 'NONE', *, *, #868, .T. ) ;
#1106 = EDGE_CURVE ( 'NONE', #1149, #750, #1084, .T. ) ;
#1107 = DIRECTION ( 'NONE',  ( -0.000000000000000000, 0.000000000000000000, -1.000000000000000000 ) ) ;
#1108 = EDGE_CURVE ( 'NONE', #849, #917, #347, .T. ) ;
#1109 = CARTESIAN_POINT ( 'NONE',  ( 3.796405077356794548E-17, 0.3099999999999999978, 12.00000000000000000 ) ) ;
#1110 = CARTESIAN_POINT ( 'NONE',  ( -0.3149999999999998912, 0.3149999999999998912, 10.20000000000000107 ) ) ;
#1111 = LINE ( 'NONE', #820, #751 ) ;
#1112 = ORIENTED_EDGE ( 'NONE', *, *, #365, .T. ) ;
#1113 = MECHANICAL_DESIGN_GEOMETRIC_PRESENTATION_REPRESENTATION (  '', ( #438 ), #618 ) ;
#1114 = CIRCLE ( 'NONE', #234, 0.3099999999999999978 ) ;
#1115 = AXIS2_PLACEMENT_3D ( 'NONE', #573, #591, #678 ) ;
#1116 = CARTESIAN_POINT ( 'NONE',  ( 0.5750000000000000666, -0.5749999999999999556, 5.000000000000000000 ) ) ;
#1117 = EDGE_LOOP ( 'NONE', ( #1061, #1168, #484, #898 ) ) ;
#1118 = EDGE_CURVE ( 'NONE', #4, #553, #999, .T. ) ;
#1119 = EDGE_LOOP ( 'NONE', ( #443, #463, #350, #291 ) ) ;
#1120 = LINE ( 'NONE', #1026, #954 ) ;
#1121 = VERTEX_POINT ( 'NONE', #1079 ) ;
#1122 = CARTESIAN_POINT ( 'NONE',  ( -0.5749999999999999556, 0.2400000000000000744, 5.000000000000000000 ) ) ;
#1123 = CARTESIAN_POINT ( 'NONE',  ( -0.5749999999999999556, -0.5750000000000000666, 5.000000000000000000 ) ) ;
#1124 = EDGE_LOOP ( 'NONE', ( #462, #980, #887, #309 ) ) ;
#1125 = DIRECTION ( 'NONE',  ( -1.000000000000000000, -0.000000000000000000, 0.000000000000000000 ) ) ;
#1126 = CARTESIAN_POINT ( 'NONE',  ( 0.000000000000000000, -0.3099999999999999978, 12.00000000000000000 ) ) ;
#1127 = DIRECTION ( 'NONE',  ( 1.000000000000000000, 0.000000000000000000, 0.000000000000000000 ) ) ;
#1128 = FILL_AREA_STYLE_COLOUR ( '', #1089 ) ;
#1129 = ORIENTED_EDGE ( 'NONE', *, *, #60, .F. ) ;
#1130 = EDGE_CURVE ( 'NONE', #4, #1004, #267, .T. ) ;
#1131 = CIRCLE ( 'NONE', #504, 0.2400000000000000189 ) ;
#1132 = AXIS2_PLACEMENT_3D ( 'NONE', #599, #958, #871 ) ;
#1133 = PRODUCT_CONTEXT ( 'NONE', #293, 'mechanical' ) ;
#1134 = VECTOR ( 'NONE', #844, 100.0000000000000000 ) ;
#1135 = FILL_AREA_STYLE_COLOUR ( '', #1051 ) ;
#1136 = DIRECTION ( 'NONE',  ( -1.508455196501571676E-16, 1.000000000000000000, 0.000000000000000000 ) ) ;
#1137 = EDGE_LOOP ( 'NONE', ( #815, #301, #1001, #191, #1102, #913, #798, #204 ) ) ;
#1138 = EDGE_CURVE ( 'NONE', #896, #384, #12, .T. ) ;
#1139 = FACE_OUTER_BOUND ( 'NONE', #270, .T. ) ;
#1140 = DIRECTION ( 'NONE',  ( -0.000000000000000000, 1.000000000000000000, -0.000000000000000000 ) ) ;
#1141 = DIRECTION ( 'NONE',  ( 0.000000000000000000, 0.000000000000000000, 1.000000000000000000 ) ) ;
#1142 = DIRECTION ( 'NONE',  ( 0.1415218808486789215, -0.1415218808486787827, -0.9797668674139294875 ) ) ;
#1143 = EDGE_LOOP ( 'NONE', ( #1077, #723, #605, #5 ) ) ;
#1144 = DIRECTION ( 'NONE',  ( 0.000000000000000000, 0.000000000000000000, 1.000000000000000000 ) ) ;
#1145 = EDGE_CURVE ( 'NONE', #197, #72, #96, .T. ) ;
#1146 = DIRECTION ( 'NONE',  ( -1.000000000000000000, 0.000000000000000000, 0.000000000000000000 ) ) ;
#1147 = FILL_AREA_STYLE ('',( #136 ) ) ;
#1148 = EDGE_CURVE ( 'NONE', #855, #997, #940, .T. ) ;
#1149 = VERTEX_POINT ( 'NONE', #769 ) ;
#1150 = DIRECTION ( 'NONE',  ( 0.000000000000000000, 0.1429607626552378552, 0.9897283568439537715 ) ) ;
#1151 = CIRCLE ( 'NONE', #402, 0.2399999999999999356 ) ;
#1152 = DIRECTION ( 'NONE',  ( -1.508455196501571676E-16, 1.000000000000000000, 0.000000000000000000 ) ) ;
#1153 = LINE ( 'NONE', #857, #1068 ) ;
#1154 = AXIS2_PLACEMENT_3D ( 'NONE', #352, #1100, #817 ) ;
#1155 = EDGE_CURVE ( 'NONE', #1043, #1149, #590, .T. ) ;
#1156 = DIRECTION ( 'NONE',  ( 0.000000000000000000, 0.000000000000000000, -1.000000000000000000 ) ) ;
#1157 = ORIENTED_EDGE ( 'NONE', *, *, #697, .F. ) ;
#1158 = CARTESIAN_POINT ( 'NONE',  ( -0.2399999999999996303, -0.5749999999999999556, 5.000000000000000000 ) ) ;
#1159 = CARTESIAN_POINT ( 'NONE',  ( 0.000000000000000000, 0.3099999999999999978, 0.000000000000000000 ) ) ;
#1160 = VERTEX_POINT ( 'NONE', #928 ) ;
#1161 = FILL_AREA_STYLE_COLOUR ( '', #1014 ) ;
#1162 = CARTESIAN_POINT ( 'NONE',  ( 0.3149999999999998912, 1.517883041479706208E-16, 2.630000000000000338 ) ) ;
#1163 = ORIENTED_EDGE ( 'NONE', *, *, #715, .F. ) ;
#1164 = EDGE_CURVE ( 'NONE', #362, #896, #1023, .T. ) ;
#1165 = AXIS2_PLACEMENT_3D ( 'NONE', #502, #851, #212 ) ;
#1167 =( GEOMETRIC_REPRESENTATION_CONTEXT ( 3 ) GLOBAL_UNCERTAINTY_ASSIGNED_CONTEXT ( ( #1064 ) ) GLOBAL_UNIT_ASSIGNED_CONTEXT ( ( #222, #1042, #866 ) ) REPRESENTATION_CONTEXT ( 'NONE', 'WORKASPACE' ) );
#1166 = CARTESIAN_POINT ( 'NONE',  ( -0.5750000000000000666, 0.5749999999999999556, 5.000000000000000000 ) ) ;
#1168 = ORIENTED_EDGE ( 'NONE', *, *, #729, .T. ) ;
#1169 = ORIENTED_EDGE ( 'NONE', *, *, #56, .F. ) ;
#1170 = VECTOR ( 'NONE', #488, 100.0000000000000000 ) ;
#1171 = CARTESIAN_POINT ( 'NONE',  ( -0.3149999999999998912, -0.3149999999999999467, 5.000000000000000000 ) ) ;
ENDSEC;
END-ISO-10303-21;
