ISO-10303-21;
HEADER;
FILE_DESCRIPTION (( 'STEP AP214' ),
    '1' );
FILE_NAME ('pillar-support_61.STEP',
    '2026-06-17T01:45:41',
    ( '' ),
    ( '' ),
    'SwSTEP 2.0',
    'SolidWorks 2023',
    '' );
FILE_SCHEMA (( 'AUTOMOTIVE_DESIGN' ));
ENDSEC;

DATA;
#1 = CARTESIAN_POINT ( 'NONE',  ( -0.5750000000000000666, 0.5749999999999999556, 0.000000000000000000 ) ) ;
#2 = ORIENTED_EDGE ( 'NONE', *, *, #902, .F. ) ;
#3 = FACE_OUTER_BOUND ( 'NONE', #806, .T. ) ;
#4 = ADVANCED_FACE ( 'NONE', ( #719 ), #724, .F. ) ;
#5 = AXIS2_PLACEMENT_3D ( 'NONE', #1072, #1063, #157 ) ;
#6 = ORIENTED_EDGE ( 'NONE', *, *, #308, .T. ) ;
#7 = FACE_OUTER_BOUND ( 'NONE', #310, .T. ) ;
#8 = DIRECTION ( 'NONE',  ( 0.1415218808486789215, 0.1415218808486787549, -0.9797668674139294875 ) ) ;
#9 = ORIENTED_EDGE ( 'NONE', *, *, #171, .T. ) ;
#10 = DIRECTION ( 'NONE',  ( 0.1429607626552379662, 0.000000000000000000, -0.9897283568439537715 ) ) ;
#11 = ORIENTED_EDGE ( 'NONE', *, *, #425, .F. ) ;
#12 = EDGE_CURVE ( 'NONE', #917, #572, #397, .T. ) ;
#13 = DIRECTION ( 'NONE',  ( -0.1415218808486789492, -0.1415218808486787827, -0.9797668674139294875 ) ) ;
#14 = CARTESIAN_POINT ( 'NONE',  ( 0.2400000000000003797, -0.3149999999999998912, 2.390000000000000568 ) ) ;
#15 = CARTESIAN_POINT ( 'NONE',  ( 0.3149999999999997802, 0.3149999999999998912, 5.000000000000000000 ) ) ;
#16 = CARTESIAN_POINT ( 'NONE',  ( 0.2400000000000003797, -0.3149999999999998912, 2.630000000000000338 ) ) ;
#17 = EDGE_LOOP ( 'NONE', ( #11, #744, #1137, #808, #373, #186, #1008, #658 ) ) ;
#18 = FILL_AREA_STYLE_COLOUR ( '', #584 ) ;
#19 = DIRECTION ( 'NONE',  ( -0.000000000000000000, 0.000000000000000000, -1.000000000000000000 ) ) ;
#20 = DIRECTION ( 'NONE',  ( 1.000000000000000000, 0.000000000000000000, 0.000000000000000000 ) ) ;
#21 = ORIENTED_EDGE ( 'NONE', *, *, #1117, .F. ) ;
#22 = CARTESIAN_POINT ( 'NONE',  ( -0.5750000000000000666, -0.5749999999999999556, 12.00000000000000000 ) ) ;
#23 = VECTOR ( 'NONE', #325, 100.0000000000000000 ) ;
#24 = AXIS2_PLACEMENT_3D ( 'NONE', #1119, #868, #589 ) ;
#25 = CARTESIAN_POINT ( 'NONE',  ( 0.5749999999999999556, -0.2399999999999996858, 5.000000000000000000 ) ) ;
#26 = EDGE_CURVE ( 'NONE', #954, #415, #471, .T. ) ;
#27 = FACE_OUTER_BOUND ( 'NONE', #35, .T. ) ;
#28 = VECTOR ( 'NONE', #671, 100.0000000000000000 ) ;
#29 = VECTOR ( 'NONE', #1048, 100.0000000000000000 ) ;
#30 = ORIENTED_EDGE ( 'NONE', *, *, #540, .T. ) ;
#31 = CARTESIAN_POINT ( 'NONE',  ( 0.000000000000000000, 0.000000000000000000, 5.000000000000000000 ) ) ;
#32 = DIRECTION ( 'NONE',  ( 0.000000000000000000, 0.000000000000000000, 1.000000000000000000 ) ) ;
#33 = DIRECTION ( 'NONE',  ( 0.000000000000000000, 0.000000000000000000, 1.000000000000000000 ) ) ;
#34 = DIRECTION ( 'NONE',  ( 8.340016711426955288E-17, -1.000000000000000000, 0.000000000000000000 ) ) ;
#35 = EDGE_LOOP ( 'NONE', ( #451, #443, #2, #777 ) ) ;
#36 = DIRECTION ( 'NONE',  ( 0.000000000000000000, 0.000000000000000000, -1.000000000000000000 ) ) ;
#37 = LINE ( 'NONE', #691, #446 ) ;
#38 =( NAMED_UNIT ( * ) SI_UNIT ( $, .STERADIAN. ) SOLID_ANGLE_UNIT ( ) );
#39 = ORIENTED_EDGE ( 'NONE', *, *, #613, .T. ) ;
#40 = CARTESIAN_POINT ( 'NONE',  ( 0.000000000000000000, 0.000000000000000000, 1.899999999999999911 ) ) ;
#41 = CARTESIAN_POINT ( 'NONE',  ( 0.5750000000000000666, -0.5749999999999999556, 12.00000000000000000 ) ) ;
#42 = ADVANCED_FACE ( 'NONE', ( #302 ), #753, .T. ) ;
#43 = CARTESIAN_POINT ( 'NONE',  ( 0.3149999999999997802, 0.3149999999999998912, 5.000000000000000000 ) ) ;
#44 = ORIENTED_EDGE ( 'NONE', *, *, #1001, .F. ) ;
#45 = SURFACE_SIDE_STYLE ('',( #873 ) ) ;
#46 = AXIS2_PLACEMENT_3D ( 'NONE', #978, #710, #886 ) ;
#47 = EDGE_CURVE ( 'NONE', #441, #357, #382, .T. ) ;
#48 = CARTESIAN_POINT ( 'NONE',  ( 3.735172737399427023E-17, -0.3049999999999999933, 0.000000000000000000 ) ) ;
#49 = DIRECTION ( 'NONE',  ( 1.508455196501571676E-16, -1.000000000000000000, -0.000000000000000000 ) ) ;
#50 = ORIENTED_EDGE ( 'NONE', *, *, #666, .T. ) ;
#51 = DIRECTION ( 'NONE',  ( 1.000000000000000000, 0.000000000000000000, 0.000000000000000000 ) ) ;
#52 = ORIENTED_EDGE ( 'NONE', *, *, #94, .F. ) ;
#53 = DIRECTION ( 'NONE',  ( 1.000000000000000000, 0.000000000000000000, 0.000000000000000000 ) ) ;
#54 = CARTESIAN_POINT ( 'NONE',  ( -0.5750000000000000666, 0.2400000000000000744, 5.000000000000000000 ) ) ;
#55 = ORIENTED_EDGE ( 'NONE', *, *, #523, .T. ) ;
#56 = FACE_OUTER_BOUND ( 'NONE', #1126, .T. ) ;
#57 = CARTESIAN_POINT ( 'NONE',  ( -0.3149999999999998912, -0.2399999999999997691, 2.390000000000000568 ) ) ;
#58 = EDGE_CURVE ( 'NONE', #646, #717, #676, .T. ) ;
#59 = VECTOR ( 'NONE', #1025, 100.0000000000000000 ) ;
#60 = EDGE_CURVE ( 'NONE', #1005, #85, #561, .T. ) ;
#61 = DIRECTION ( 'NONE',  ( -1.000000000000000000, 0.000000000000000000, 0.000000000000000000 ) ) ;
#62 = VERTEX_POINT ( 'NONE', #769 ) ;
#63 = CARTESIAN_POINT ( 'NONE',  ( 0.000000000000000000, -0.3049999999999999933, 11.39999999999999858 ) ) ;
#64 = PLANE ( 'NONE',  #787 ) ;
#65 = CIRCLE ( 'NONE', #774, 0.3049999999999999933 ) ;
#66 = MECHANICAL_DESIGN_GEOMETRIC_PRESENTATION_REPRESENTATION (  '', ( #989 ), #522 ) ;
#67 = ORIENTED_EDGE ( 'NONE', *, *, #684, .F. ) ;
#68 = DIRECTION ( 'NONE',  ( 0.000000000000000000, 1.000000000000000000, 0.000000000000000000 ) ) ;
#69 = EDGE_LOOP ( 'NONE', ( #1086, #736, #615, #761 ) ) ;
#70 = CARTESIAN_POINT ( 'NONE',  ( 0.5750000000000000666, -0.5749999999999999556, 5.000000000000000000 ) ) ;
#71 = VERTEX_POINT ( 'NONE', #1109 ) ;
#72 = LINE ( 'NONE', #438, #162 ) ;
#73 = VERTEX_POINT ( 'NONE', #220 ) ;
#74 = VECTOR ( 'NONE', #547, 100.0000000000000000 ) ;
#75 = VERTEX_POINT ( 'NONE', #205 ) ;
#76 = CARTESIAN_POINT ( 'NONE',  ( -0.5749999999999999556, 0.2400000000000000744, 5.000000000000000000 ) ) ;
#77 = ORIENTED_EDGE ( 'NONE', *, *, #26, .F. ) ;
#78 = FACE_OUTER_BOUND ( 'NONE', #355, .T. ) ;
#79 = LINE ( 'NONE', #408, #859 ) ;
#80 = MECHANICAL_DESIGN_GEOMETRIC_PRESENTATION_REPRESENTATION (  '', ( #1160 ), #294 ) ;
#81 = VECTOR ( 'NONE', #1149, 100.0000000000000142 ) ;
#82 = CIRCLE ( 'NONE', #566, 0.2399999999999999356 ) ;
#83 = PRESENTATION_STYLE_ASSIGNMENT (( #1168 ) ) ;
#84 = CARTESIAN_POINT ( 'NONE',  ( 0.2400000000000003797, 0.5749999999999999556, 2.630000000000000338 ) ) ;
#85 = VERTEX_POINT ( 'NONE', #15 ) ;
#86 =( NAMED_UNIT ( * ) PLANE_ANGLE_UNIT ( ) SI_UNIT ( $, .RADIAN. ) );
#87 = DIRECTION ( 'NONE',  ( 0.000000000000000000, 1.000000000000000000, 0.000000000000000000 ) ) ;
#88 = ADVANCED_FACE ( 'NONE', ( #27 ), #1125, .F. ) ;
#89 = ORIENTED_EDGE ( 'NONE', *, *, #576, .F. ) ;
#90 = DIRECTION ( 'NONE',  ( 1.000000000000000000, 0.000000000000000000, 0.000000000000000000 ) ) ;
#91 = EDGE_CURVE ( 'NONE', #286, #135, #315, .T. ) ;
#92 = ORIENTED_EDGE ( 'NONE', *, *, #703, .T. ) ;
#93 = CARTESIAN_POINT ( 'NONE',  ( -0.3149999999999998912, 0.2400000000000000744, 2.390000000000000568 ) ) ;
#94 = EDGE_CURVE ( 'NONE', #194, #224, #309, .T. ) ;
#95 = EDGE_LOOP ( 'NONE', ( #598, #139, #304, #906, #556, #124, #506, #508 ) ) ;
#96 = CARTESIAN_POINT ( 'NONE',  ( 1.134659571895032304, 0.000000000000000000, 0.1638952714959493184 ) ) ;
#97 = COLOUR_RGB ( '',1.000000000000000000, 1.000000000000000000, 1.000000000000000000 ) ;
#98 = VERTEX_POINT ( 'NONE', #120 ) ;
#99 = CARTESIAN_POINT ( 'NONE',  ( -0.5750000000000000666, 0.5749999999999999556, 5.000000000000000000 ) ) ;
#100 = FACE_OUTER_BOUND ( 'NONE', #885, .T. ) ;
#101 = VECTOR ( 'NONE', #614, 100.0000000000000000 ) ;
#102 = CARTESIAN_POINT ( 'NONE',  ( 0.000000000000000000, 0.000000000000000000, 5.000000000000000000 ) ) ;
#103 = CIRCLE ( 'NONE', #429, 0.3049999999999999933 ) ;
#104 = CARTESIAN_POINT ( 'NONE',  ( 0.5750000000000000666, 0.5749999999999999556, 12.00000000000000000 ) ) ;
#105 = ORIENTED_EDGE ( 'NONE', *, *, #523, .F. ) ;
#106 = LINE ( 'NONE', #195, #74 ) ;
#107 = CARTESIAN_POINT ( 'NONE',  ( 0.3149999999999998912, 0.2400000000000000744, 2.390000000000000568 ) ) ;
#108 = CARTESIAN_POINT ( 'NONE',  ( 0.5750000000000000666, -0.5749999999999999556, 12.00000000000000000 ) ) ;
#109 = DIRECTION ( 'NONE',  ( 1.000000000000000000, 0.000000000000000000, -0.000000000000000000 ) ) ;
#110 = EDGE_LOOP ( 'NONE', ( #30, #463 ) ) ;
#111 = PLANE ( 'NONE',  #165 ) ;
#112 = EDGE_CURVE ( 'NONE', #71, #453, #487, .T. ) ;
#113 = CARTESIAN_POINT ( 'NONE',  ( 0.000000000000000000, 0.000000000000000000, 5.000000000000000000 ) ) ;
#114 = CARTESIAN_POINT ( 'NONE',  ( -0.2399999999999996303, -0.5749999999999999556, 2.630000000000000338 ) ) ;
#115 = DIRECTION ( 'NONE',  ( -1.000000000000000000, -1.508455196501571429E-16, 0.000000000000000000 ) ) ;
#116 = VERTEX_POINT ( 'NONE', #577 ) ;
#117 = LINE ( 'NONE', #311, #23 ) ;
#118 = DIRECTION ( 'NONE',  ( 0.000000000000000000, -1.000000000000000000, 0.000000000000000000 ) ) ;
#119 = VECTOR ( 'NONE', #34, 100.0000000000000000 ) ;
#120 = CARTESIAN_POINT ( 'NONE',  ( 0.2400000000000003797, 0.3149999999999998912, 5.000000000000000000 ) ) ;
#121 = CARTESIAN_POINT ( 'NONE',  ( 0.5749999999999999556, 0.5750000000000000666, 5.000000000000000000 ) ) ;
#122 = AXIS2_PLACEMENT_3D ( 'NONE', #316, #672, #109 ) ;
#123 = VECTOR ( 'NONE', #387, 100.0000000000000000 ) ;
#124 = ORIENTED_EDGE ( 'NONE', *, *, #1161, .F. ) ;
#125 = DIRECTION ( 'NONE',  ( 0.000000000000000000, 1.000000000000000000, 0.000000000000000000 ) ) ;
#126 = FACE_OUTER_BOUND ( 'NONE', #1093, .T. ) ;
#127 = ADVANCED_FACE ( 'NONE', ( #1043 ), #848, .F. ) ;
#128 = DIRECTION ( 'NONE',  ( 0.9897283568439537715, 0.000000000000000000, -0.1429607626552379940 ) ) ;
#129 = APPLICATION_PROTOCOL_DEFINITION ( 'draft international standard', 'automotive_design', 1998, #395 ) ;
#130 = ORIENTED_EDGE ( 'NONE', *, *, #1033, .F. ) ;
#131 = DIRECTION ( 'NONE',  ( -1.508455196501571429E-16, 1.000000000000000000, 0.000000000000000000 ) ) ;
#132 = DIRECTION ( 'NONE',  ( 0.000000000000000000, 1.000000000000000000, -0.000000000000000000 ) ) ;
#133 =( NAMED_UNIT ( * ) PLANE_ANGLE_UNIT ( ) SI_UNIT ( $, .RADIAN. ) );
#134 = EDGE_CURVE ( 'NONE', #717, #983, #1111, .T. ) ;
#135 = VERTEX_POINT ( 'NONE', #854 ) ;
#136 = CARTESIAN_POINT ( 'NONE',  ( -0.2399999999999996303, 0.3149999999999998912, 2.390000000000000568 ) ) ;
#137 = CARTESIAN_POINT ( 'NONE',  ( -0.5750000000000000666, 0.5749999999999999556, 0.000000000000000000 ) ) ;
#138 = LINE ( 'NONE', #603, #101 ) ;
#139 = ORIENTED_EDGE ( 'NONE', *, *, #1050, .T. ) ;
#140 = CARTESIAN_POINT ( 'NONE',  ( 0.3149999999999997802, -0.3149999999999999467, 5.000000000000000000 ) ) ;
#141 = AXIS2_PLACEMENT_3D ( 'NONE', #879, #1055, #743 ) ;
#142 = VECTOR ( 'NONE', #8, 100.0000000000000142 ) ;
#143 = PLANE ( 'NONE',  #735 ) ;
#144 = UNCERTAINTY_MEASURE_WITH_UNIT (LENGTH_MEASURE( 1.000000000000000082E-05 ), #751, 'distance_accuracy_value', 'NONE');
#145 = EDGE_CURVE ( 'NONE', #116, #1024, #944, .T. ) ;
#146 = LINE ( 'NONE', #510, #641 ) ;
#147 = VERTEX_POINT ( 'NONE', #1060 ) ;
#148 = CARTESIAN_POINT ( 'NONE',  ( 0.3149999999999998912, -0.2399999999999997691, 2.390000000000000568 ) ) ;
#149 = ORIENTED_EDGE ( 'NONE', *, *, #528, .F. ) ;
#150 = LINE ( 'NONE', #340, #810 ) ;
#151 = EDGE_CURVE ( 'NONE', #224, #1005, #819, .T. ) ;
#152 = ADVANCED_FACE ( 'NONE', ( #705 ), #178, .F. ) ;
#153 = CARTESIAN_POINT ( 'NONE',  ( 0.000000000000000000, 0.000000000000000000, 0.000000000000000000 ) ) ;
#154 = ORIENTED_EDGE ( 'NONE', *, *, #1068, .T. ) ;
#155 = CARTESIAN_POINT ( 'NONE',  ( 0.000000000000000000, -1.134659571895030750, 0.1638952714959489854 ) ) ;
#156 = ORIENTED_EDGE ( 'NONE', *, *, #826, .T. ) ;
#157 = DIRECTION ( 'NONE',  ( 0.000000000000000000, 1.000000000000000000, 0.000000000000000000 ) ) ;
#158 = ORIENTED_EDGE ( 'NONE', *, *, #151, .F. ) ;
#159 = CARTESIAN_POINT ( 'NONE',  ( 0.2400000000000003797, -0.3149999999999998912, 2.390000000000000568 ) ) ;
#160 = EDGE_CURVE ( 'NONE', #62, #781, #138, .T. ) ;
#161 = ORIENTED_EDGE ( 'NONE', *, *, #447, .F. ) ;
#162 = VECTOR ( 'NONE', #807, 100.0000000000000000 ) ;
#163 = DIRECTION ( 'NONE',  ( -1.508455196501571429E-16, 1.000000000000000000, 0.000000000000000000 ) ) ;
#164 = VECTOR ( 'NONE', #241, 100.0000000000000000 ) ;
#165 = AXIS2_PLACEMENT_3D ( 'NONE', #31, #36, #573 ) ;
#166 = EDGE_CURVE ( 'NONE', #85, #98, #870, .T. ) ;
#167 = EDGE_CURVE ( 'NONE', #572, #73, #981, .T. ) ;
#168 = VERTEX_POINT ( 'NONE', #692 ) ;
#169 = CARTESIAN_POINT ( 'NONE',  ( -0.5750000000000000666, 0.5749999999999999556, 12.00000000000000000 ) ) ;
#170 = ORIENTED_EDGE ( 'NONE', *, *, #1069, .T. ) ;
#171 = EDGE_CURVE ( 'NONE', #714, #415, #65, .T. ) ;
#172 = DIRECTION ( 'NONE',  ( 0.000000000000000000, 1.000000000000000000, 0.000000000000000000 ) ) ;
#173 = UNCERTAINTY_MEASURE_WITH_UNIT (LENGTH_MEASURE( 1.000000000000000082E-05 ), #271, 'distance_accuracy_value', 'NONE');
#174 = VERTEX_POINT ( 'NONE', #54 ) ;
#175 = DIRECTION ( 'NONE',  ( 0.000000000000000000, 0.000000000000000000, 1.000000000000000000 ) ) ;
#176 = ORIENTED_EDGE ( 'NONE', *, *, #12, .T. ) ;
#177 = CARTESIAN_POINT ( 'NONE',  ( 0.5750000000000000666, -0.5749999999999999556, 5.000000000000000000 ) ) ;
#178 = PLANE ( 'NONE',  #1039 ) ;
#179 = ORIENTED_EDGE ( 'NONE', *, *, #60, .F. ) ;
#180 = DIRECTION ( 'NONE',  ( 0.000000000000000000, 0.000000000000000000, 1.000000000000000000 ) ) ;
#181 = EDGE_LOOP ( 'NONE', ( #1065, #130, #170, #1083 ) ) ;
#182 = DIRECTION ( 'NONE',  ( -1.000000000000000000, 0.000000000000000000, 0.000000000000000000 ) ) ;
#183 = LINE ( 'NONE', #1, #468 ) ;
#184 = VECTOR ( 'NONE', #586, 100.0000000000000000 ) ;
#185 =( GEOMETRIC_REPRESENTATION_CONTEXT ( 3 ) GLOBAL_UNCERTAINTY_ASSIGNED_CONTEXT ( ( #882 ) ) GLOBAL_UNIT_ASSIGNED_CONTEXT ( ( #221, #133, #298 ) ) REPRESENTATION_CONTEXT ( 'NONE', 'WORKASPACE' ) );
#186 = ORIENTED_EDGE ( 'NONE', *, *, #145, .F. ) ;
#187 = LINE ( 'NONE', #442, #835 ) ;
#188 = EDGE_LOOP ( 'NONE', ( #250, #511, #243, #319 ) ) ;
#189 = LINE ( 'NONE', #380, #600 ) ;
#190 = EDGE_CURVE ( 'NONE', #1049, #453, #961, .T. ) ;
#191 = EDGE_CURVE ( 'NONE', #98, #385, #79, .T. ) ;
#192 = ORIENTED_EDGE ( 'NONE', *, *, #950, .T. ) ;
#193 = FACE_BOUND ( 'NONE', #936, .T. ) ;
#194 = VERTEX_POINT ( 'NONE', #448 ) ;
#195 = CARTESIAN_POINT ( 'NONE',  ( -0.2399999999999996858, 0.5749999999999999556, 5.000000000000000000 ) ) ;
#196 = CARTESIAN_POINT ( 'NONE',  ( -0.5750000000000000666, -0.5749999999999999556, 12.00000000000000000 ) ) ;
#197 = VERTEX_POINT ( 'NONE', #1167 ) ;
#198 = CARTESIAN_POINT ( 'NONE',  ( 0.3150000000000001132, 0.3150000000000002798, 10.20000000000000639 ) ) ;
#199 = AXIS2_PLACEMENT_3D ( 'NONE', #268, #647, #1013 ) ;
#200 = ORIENTED_EDGE ( 'NONE', *, *, #1159, .T. ) ;
#201 =( NAMED_UNIT ( * ) SI_UNIT ( $, .STERADIAN. ) SOLID_ANGLE_UNIT ( ) );
#202 = CARTESIAN_POINT ( 'NONE',  ( 0.2400000000000003797, 0.5749999999999999556, 5.000000000000000000 ) ) ;
#203 = VECTOR ( 'NONE', #896, 100.0000000000000000 ) ;
#204 = AXIS2_PLACEMENT_3D ( 'NONE', #1129, #490, #307 ) ;
#205 = CARTESIAN_POINT ( 'NONE',  ( -0.3149999999999998912, -0.2399999999999997691, 2.630000000000000338 ) ) ;
#206 = EDGE_CURVE ( 'NONE', #1070, #385, #227, .T. ) ;
#207 = ORIENTED_EDGE ( 'NONE', *, *, #826, .F. ) ;
#208 = CARTESIAN_POINT ( 'NONE',  ( -0.3149999999999998912, 0.3149999999999998912, 10.20000000000000107 ) ) ;
#209 = EDGE_CURVE ( 'NONE', #823, #749, #699, .T. ) ;
#210 = DIRECTION ( 'NONE',  ( 0.000000000000000000, -1.000000000000000000, -0.000000000000000000 ) ) ;
#211 = ORIENTED_EDGE ( 'NONE', *, *, #449, .F. ) ;
#212 = CYLINDRICAL_SURFACE ( 'NONE', #1041, 0.2399999999999999911 ) ;
#213 = CARTESIAN_POINT ( 'NONE',  ( -1.134659571895032526, 0.000000000000000000, 0.1638952714959494017 ) ) ;
#214 = CARTESIAN_POINT ( 'NONE',  ( 0.3149999999999997802, -0.3149999999999999467, 5.000000000000000000 ) ) ;
#215 = ORIENTED_EDGE ( 'NONE', *, *, #1029, .T. ) ;
#216 = FACE_OUTER_BOUND ( 'NONE', #417, .T. ) ;
#217 = FACE_OUTER_BOUND ( 'NONE', #619, .T. ) ;
#218 = EDGE_CURVE ( 'NONE', #646, #628, #240, .T. ) ;
#219 = VECTOR ( 'NONE', #716, 100.0000000000000000 ) ;
#220 = CARTESIAN_POINT ( 'NONE',  ( 0.5750000000000000666, -0.5749999999999999556, 0.000000000000000000 ) ) ;
#221 =( LENGTH_UNIT ( ) NAMED_UNIT ( * ) SI_UNIT ( .CENTI., .METRE. ) );
#222 = VECTOR ( 'NONE', #53, 100.0000000000000000 ) ;
#223 = VECTOR ( 'NONE', #353, 100.0000000000000000 ) ;
#224 = VERTEX_POINT ( 'NONE', #884 ) ;
#225 = PLANE ( 'NONE',  #204 ) ;
#226 = ADVANCED_FACE ( 'NONE', ( #957 ), #794, .F. ) ;
#227 = LINE ( 'NONE', #972, #526 ) ;
#228 = ORIENTED_EDGE ( 'NONE', *, *, #785, .F. ) ;
#229 = DIRECTION ( 'NONE',  ( 1.000000000000000000, 0.000000000000000000, 0.000000000000000000 ) ) ;
#230 = DIRECTION ( 'NONE',  ( 0.000000000000000000, 1.000000000000000000, 0.000000000000000000 ) ) ;
#231 = UNCERTAINTY_MEASURE_WITH_UNIT (LENGTH_MEASURE( 1.000000000000000082E-05 ), #531, 'distance_accuracy_value', 'NONE');
#232 = CARTESIAN_POINT ( 'NONE',  ( 0.3149999999999998357, 0.000000000000000000, 10.20000000000000284 ) ) ;
#233 = EDGE_LOOP ( 'NONE', ( #105, #460, #1051, #537 ) ) ;
#234 = ORIENTED_EDGE ( 'NONE', *, *, #112, .F. ) ;
#235 = LINE ( 'NONE', #956, #739 ) ;
#236 = DIRECTION ( 'NONE',  ( 1.000000000000000000, 0.000000000000000000, 0.000000000000000000 ) ) ;
#237 = ORIENTED_EDGE ( 'NONE', *, *, #308, .F. ) ;
#238 = VECTOR ( 'NONE', #19, 100.0000000000000000 ) ;
#239 = CARTESIAN_POINT ( 'NONE',  ( 0.5749999999999999556, 0.2400000000000000744, 5.000000000000000000 ) ) ;
#240 = CIRCLE ( 'NONE', #604, 0.2399999999999999911 ) ;
#241 = DIRECTION ( 'NONE',  ( 1.000000000000000000, 0.000000000000000000, 0.000000000000000000 ) ) ;
#242 = CARTESIAN_POINT ( 'NONE',  ( -0.3149999999999998912, -0.3149999999999999467, 5.000000000000000000 ) ) ;
#243 = ORIENTED_EDGE ( 'NONE', *, *, #160, .F. ) ;
#244 = PLANE ( 'NONE',  #46 ) ;
#245 = ORIENTED_EDGE ( 'NONE', *, *, #166, .T. ) ;
#246 = FILL_AREA_STYLE_COLOUR ( '', #529 ) ;
#247 = DIRECTION ( 'NONE',  ( -1.508455196501571676E-16, 1.000000000000000000, 0.000000000000000000 ) ) ;
#248 = ORIENTED_EDGE ( 'NONE', *, *, #371, .F. ) ;
#249 = PLANE ( 'NONE',  #465 ) ;
#250 = ORIENTED_EDGE ( 'NONE', *, *, #642, .F. ) ;
#251 = DIRECTION ( 'NONE',  ( 1.000000000000000000, 1.508455196501571429E-16, 0.000000000000000000 ) ) ;
#252 = PRODUCT_RELATED_PRODUCT_CATEGORY ( 'part', '', ( #756 ) ) ;
#253 = COLOUR_RGB ( '',0.6941176470588235059, 0.09803921568627450844, 0.09803921568627450844 ) ;
#254 = EDGE_CURVE ( 'NONE', #717, #1165, #776, .T. ) ;
#255 = ORIENTED_EDGE ( 'NONE', *, *, #1098, .F. ) ;
#256 = LINE ( 'NONE', #621, #1038 ) ;
#257 = AXIS2_PLACEMENT_3D ( 'NONE', #1116, #567, #1036 ) ;
#258 = FACE_OUTER_BOUND ( 'NONE', #678, .T. ) ;
#259 = VECTOR ( 'NONE', #609, 100.0000000000000000 ) ;
#260 = PRESENTATION_LAYER_ASSIGNMENT (  '', '', ( #989 ) ) ;
#261 = ORIENTED_EDGE ( 'NONE', *, *, #328, .F. ) ;
#262 = DIRECTION ( 'NONE',  ( 0.000000000000000000, 1.000000000000000000, 0.000000000000000000 ) ) ;
#263 = EDGE_LOOP ( 'NONE', ( #1054, #283 ) ) ;
#264 = CARTESIAN_POINT ( 'NONE',  ( -0.5749999999999999556, 1.517883041479706208E-16, 2.630000000000000338 ) ) ;
#265 = SURFACE_STYLE_FILL_AREA ( #1081 ) ;
#266 = CARTESIAN_POINT ( 'NONE',  ( 0.000000000000000000, 0.000000000000000000, 11.39999999999999858 ) ) ;
#267 = ORIENTED_EDGE ( 'NONE', *, *, #805, .T. ) ;
#268 = CARTESIAN_POINT ( 'NONE',  ( 0.5750000000000000666, -0.5749999999999999556, 5.000000000000000000 ) ) ;
#269 = CARTESIAN_POINT ( 'NONE',  ( 0.3149999999999998912, -0.2399999999999997691, 2.390000000000000568 ) ) ;
#270 = VECTOR ( 'NONE', #594, 100.0000000000000000 ) ;
#271 =( LENGTH_UNIT ( ) NAMED_UNIT ( * ) SI_UNIT ( .CENTI., .METRE. ) );
#272 = DIRECTION ( 'NONE',  ( -0.000000000000000000, -1.000000000000000000, -0.000000000000000000 ) ) ;
#273 = PRODUCT_DEFINITION ( 'UNKNOWN', '', #793, #1152 ) ;
#274 = ORIENTED_EDGE ( 'NONE', *, *, #560, .T. ) ;
#275 = ADVANCED_FACE ( 'NONE', ( #786 ), #496, .F. ) ;
#276 = CARTESIAN_POINT ( 'NONE',  ( -0.5750000000000000666, 0.5749999999999999556, 5.000000000000000000 ) ) ;
#277 = APPLICATION_CONTEXT ( 'automotive_design' ) ;
#278 = VECTOR ( 'NONE', #115, 100.0000000000000000 ) ;
#279 = CARTESIAN_POINT ( 'NONE',  ( -0.3149999999999998912, 0.3149999999999998912, 5.000000000000000000 ) ) ;
#280 = VECTOR ( 'NONE', #230, 100.0000000000000000 ) ;
#281 = EDGE_LOOP ( 'NONE', ( #1000, #728, #67, #878 ) ) ;
#282 = CARTESIAN_POINT ( 'NONE',  ( -0.8349999999999999645, 0.2400000000000000744, 2.390000000000000568 ) ) ;
#283 = ORIENTED_EDGE ( 'NONE', *, *, #988, .T. ) ;
#284 = CARTESIAN_POINT ( 'NONE',  ( 0.3149999999999997802, 0.3149999999999998912, 5.000000000000000000 ) ) ;
#285 = LINE ( 'NONE', #107, #296 ) ;
#286 = VERTEX_POINT ( 'NONE', #336 ) ;
#287 = CARTESIAN_POINT ( 'NONE',  ( 0.000000000000000000, 0.000000000000000000, 11.39999999999999858 ) ) ;
#288 = ORIENTED_EDGE ( 'NONE', *, *, #1150, .F. ) ;
#289 = FACE_OUTER_BOUND ( 'NONE', #367, .T. ) ;
#290 = CARTESIAN_POINT ( 'NONE',  ( 0.8349999999999999645, 0.2400000000000000744, 2.390000000000000568 ) ) ;
#291 = AXIS2_PLACEMENT_3D ( 'NONE', #791, #1067, #633 ) ;
#292 = ORIENTED_EDGE ( 'NONE', *, *, #1020, .T. ) ;
#293 = CARTESIAN_POINT ( 'NONE',  ( 0.5749999999999999556, 0.2400000000000000744, 2.630000000000000338 ) ) ;
#294 =( GEOMETRIC_REPRESENTATION_CONTEXT ( 3 ) GLOBAL_UNCERTAINTY_ASSIGNED_CONTEXT ( ( #173 ) ) GLOBAL_UNIT_ASSIGNED_CONTEXT ( ( #271, #865, #38 ) ) REPRESENTATION_CONTEXT ( 'NONE', 'WORKASPACE' ) );
#295 = AXIS2_PLACEMENT_3D ( 'NONE', #432, #1154, #51 ) ;
#296 = VECTOR ( 'NONE', #927, 100.0000000000000000 ) ;
#297 = CARTESIAN_POINT ( 'NONE',  ( 0.000000000000000000, 0.2400000000000000744, 5.000000000000000000 ) ) ;
#298 =( NAMED_UNIT ( * ) SI_UNIT ( $, .STERADIAN. ) SOLID_ANGLE_UNIT ( ) );
#299 = EDGE_LOOP ( 'NONE', ( #1099, #533, #1037, #192, #200, #790 ) ) ;
#300 = FILL_AREA_STYLE ('',( #947 ) ) ;
#301 = CARTESIAN_POINT ( 'NONE',  ( 0.5750000000000000666, -0.5749999999999999556, 12.00000000000000000 ) ) ;
#302 = FACE_OUTER_BOUND ( 'NONE', #281, .T. ) ;
#303 = LINE ( 'NONE', #214, #470 ) ;
#304 = ORIENTED_EDGE ( 'NONE', *, *, #1159, .F. ) ;
#305 = CARTESIAN_POINT ( 'NONE',  ( -0.5749999999999999556, -0.2399999999999998523, 2.630000000000000338 ) ) ;
#306 = EDGE_CURVE ( 'NONE', #755, #714, #414, .T. ) ;
#307 = DIRECTION ( 'NONE',  ( 0.000000000000000000, -1.000000000000000000, 0.000000000000000000 ) ) ;
#308 = EDGE_CURVE ( 'NONE', #1070, #147, #715, .T. ) ;
#309 = LINE ( 'NONE', #108, #836 ) ;
#310 = EDGE_LOOP ( 'NONE', ( #919, #161, #1096, #1118 ) ) ;
#311 = CARTESIAN_POINT ( 'NONE',  ( 0.8349999999999999645, -0.2399999999999997691, 5.000000000000000000 ) ) ;
#312 = EDGE_CURVE ( 'NONE', #861, #900, #146, .T. ) ;
#313 = FACE_OUTER_BOUND ( 'NONE', #69, .T. ) ;
#314 = VECTOR ( 'NONE', #492, 100.0000000000000000 ) ;
#315 = LINE ( 'NONE', #297, #184 ) ;
#316 = CARTESIAN_POINT ( 'NONE',  ( 0.000000000000000000, 0.000000000000000000, 0.000000000000000000 ) ) ;
#317 = AXIS2_PLACEMENT_3D ( 'NONE', #664, #210, #571 ) ;
#318 = AXIS2_PLACEMENT_3D ( 'NONE', #500, #32, #869 ) ;
#319 = ORIENTED_EDGE ( 'NONE', *, *, #344, .F. ) ;
#320 = CARTESIAN_POINT ( 'NONE',  ( -0.2399999999999996303, 0.3149999999999998912, 2.630000000000000338 ) ) ;
#321 = AXIS2_PLACEMENT_3D ( 'NONE', #995, #175, #912 ) ;
#322 = LINE ( 'NONE', #763, #469 ) ;
#323 = DIRECTION ( 'NONE',  ( 0.000000000000000000, 1.000000000000000000, 0.000000000000000000 ) ) ;
#324 = ORIENTED_EDGE ( 'NONE', *, *, #1050, .F. ) ;
#325 = DIRECTION ( 'NONE',  ( 1.000000000000000000, 0.000000000000000000, 0.000000000000000000 ) ) ;
#326 = CARTESIAN_POINT ( 'NONE',  ( -0.3149999999999998912, -0.3149999999999999467, 5.000000000000000000 ) ) ;
#327 = EDGE_CURVE ( 'NONE', #983, #946, #662, .T. ) ;
#328 = EDGE_CURVE ( 'NONE', #861, #168, #914, .T. ) ;
#329 = DIRECTION ( 'NONE',  ( 0.000000000000000000, 0.000000000000000000, 1.000000000000000000 ) ) ;
#330 = ORIENTED_EDGE ( 'NONE', *, *, #1113, .T. ) ;
#331 = PLANE ( 'NONE',  #734 ) ;
#332 = ADVANCED_FACE ( 'NONE', ( #920 ), #570, .F. ) ;
#333 = VERTEX_POINT ( 'NONE', #852 ) ;
#334 = LINE ( 'NONE', #521, #618 ) ;
#335 = VECTOR ( 'NONE', #1171, 100.0000000000000000 ) ;
#336 = CARTESIAN_POINT ( 'NONE',  ( 0.3149999999999998912, 0.2400000000000000744, 5.000000000000000000 ) ) ;
#337 = ORIENTED_EDGE ( 'NONE', *, *, #134, .F. ) ;
#338 = CARTESIAN_POINT ( 'NONE',  ( -0.3149999999999998912, 0.2400000000000000744, 5.000000000000000000 ) ) ;
#339 = VECTOR ( 'NONE', #480, 100.0000000000000000 ) ;
#340 = CARTESIAN_POINT ( 'NONE',  ( 0.3149999999999997802, -0.3149999999999999467, 5.000000000000000000 ) ) ;
#341 = DIRECTION ( 'NONE',  ( -0.000000000000000000, 1.000000000000000000, -0.000000000000000000 ) ) ;
#342 = ORIENTED_EDGE ( 'NONE', *, *, #327, .F. ) ;
#343 = CARTESIAN_POINT ( 'NONE',  ( 0.2400000000000003797, -0.5749999999999999556, 5.000000000000000000 ) ) ;
#344 = EDGE_CURVE ( 'NONE', #1049, #62, #553, .T. ) ;
#345 = ORIENTED_EDGE ( 'NONE', *, *, #60, .T. ) ;
#346 = CARTESIAN_POINT ( 'NONE',  ( -0.3149999999999998912, 0.2400000000000000744, 2.630000000000000338 ) ) ;
#347 =( NAMED_UNIT ( * ) SI_UNIT ( $, .STERADIAN. ) SOLID_ANGLE_UNIT ( ) );
#348 = EDGE_CURVE ( 'NONE', #932, #880, #558, .T. ) ;
#349 = ORIENTED_EDGE ( 'NONE', *, *, #515, .T. ) ;
#350 = CARTESIAN_POINT ( 'NONE',  ( 0.000000000000000000, 0.3150000000000005018, 10.20000000000000639 ) ) ;
#351 = VERTEX_POINT ( 'NONE', #1085 ) ;
#352 = VECTOR ( 'NONE', #606, 100.0000000000000000 ) ;
#353 = DIRECTION ( 'NONE',  ( 1.000000000000000000, 1.508455196501571429E-16, 0.000000000000000000 ) ) ;
#354 = VECTOR ( 'NONE', #477, 100.0000000000000000 ) ;
#355 = EDGE_LOOP ( 'NONE', ( #255, #6, #1139, #211 ) ) ;
#356 = LINE ( 'NONE', #104, #841 ) ;
#357 = VERTEX_POINT ( 'NONE', #1103 ) ;
#358 = CARTESIAN_POINT ( 'NONE',  ( -0.2399999999999996303, -0.3149999999999998912, 5.000000000000000000 ) ) ;
#359 = CARTESIAN_POINT ( 'NONE',  ( 0.8349999999999999645, 0.2400000000000000744, 2.630000000000000338 ) ) ;
#360 = ADVANCED_FACE ( 'NONE', ( #289 ), #1091, .F. ) ;
#361 = CARTESIAN_POINT ( 'NONE',  ( -0.2399999999999996303, 0.3149999999999998912, 2.630000000000000338 ) ) ;
#362 = ORIENTED_EDGE ( 'NONE', *, *, #863, .F. ) ;
#363 = LINE ( 'NONE', #358, #335 ) ;
#364 = SURFACE_STYLE_FILL_AREA ( #1009 ) ;
#365 = ORIENTED_EDGE ( 'NONE', *, *, #1161, .T. ) ;
#366 = CARTESIAN_POINT ( 'NONE',  ( -0.3150000000000004463, 0.3150000000000005573, 10.20000000000000995 ) ) ;
#367 = EDGE_LOOP ( 'NONE', ( #833, #1078, #607, #563, #179, #158, #484, #673 ) ) ;
#368 = CARTESIAN_POINT ( 'NONE',  ( -0.5750000000000000666, 0.5749999999999999556, 12.00000000000000000 ) ) ;
#369 = VECTOR ( 'NONE', #262, 100.0000000000000000 ) ;
#370 = SURFACE_SIDE_STYLE ('',( #364 ) ) ;
#371 = EDGE_CURVE ( 'NONE', #520, #420, #183, .T. ) ;
#372 = CIRCLE ( 'NONE', #892, 0.3049999999999999933 ) ;
#373 = ORIENTED_EDGE ( 'NONE', *, *, #407, .T. ) ;
#374 = DIRECTION ( 'NONE',  ( 0.000000000000000000, 0.000000000000000000, 1.000000000000000000 ) ) ;
#375 = VERTEX_POINT ( 'NONE', #279 ) ;
#376 = LINE ( 'NONE', #276, #656 ) ;
#377 = EDGE_CURVE ( 'NONE', #814, #71, #832, .T. ) ;
#378 = LINE ( 'NONE', #998, #773 ) ;
#379 = VERTEX_POINT ( 'NONE', #740 ) ;
#380 = CARTESIAN_POINT ( 'NONE',  ( 0.5750000000000000666, 0.5749999999999999556, 12.00000000000000000 ) ) ;
#381 = DIRECTION ( 'NONE',  ( 0.000000000000000000, 0.000000000000000000, 1.000000000000000000 ) ) ;
#382 = LINE ( 'NONE', #1030, #1057 ) ;
#383 = CARTESIAN_POINT ( 'NONE',  ( -0.5749999999999999556, -0.5750000000000000666, 5.000000000000000000 ) ) ;
#384 = VECTOR ( 'NONE', #475, 100.0000000000000000 ) ;
#385 = VERTEX_POINT ( 'NONE', #202 ) ;
#386 = DIRECTION ( 'NONE',  ( 0.000000000000000000, 0.000000000000000000, -1.000000000000000000 ) ) ;
#387 = DIRECTION ( 'NONE',  ( -1.000000000000000000, 0.000000000000000000, 0.000000000000000000 ) ) ;
#388 = AXIS2_PLACEMENT_3D ( 'NONE', #213, #128, #1105 ) ;
#389 = VECTOR ( 'NONE', #1143, 100.0000000000000000 ) ;
#390 = VECTOR ( 'NONE', #329, 100.0000000000000000 ) ;
#391 = CARTESIAN_POINT ( 'NONE',  ( 3.735172737399427023E-17, -0.3049999999999999933, 1.899999999999999911 ) ) ;
#392 = ORIENTED_EDGE ( 'NONE', *, *, #726, .T. ) ;
#393 = CARTESIAN_POINT ( 'NONE',  ( 0.000000000000000000, 0.000000000000000000, 1.899999999999999911 ) ) ;
#394 = LINE ( 'NONE', #301, #280 ) ;
#395 = APPLICATION_CONTEXT ( 'automotive_design' ) ;
#396 = EDGE_CURVE ( 'NONE', #823, #286, #285, .T. ) ;
#397 = LINE ( 'NONE', #491, #758 ) ;
#398 = LINE ( 'NONE', #383, #639 ) ;
#399 = ADVANCED_FACE ( 'NONE', ( #100 ), #467, .T. ) ;
#400 = ORIENTED_EDGE ( 'NONE', *, *, #560, .F. ) ;
#401 = CARTESIAN_POINT ( 'NONE',  ( 0.5749999999999999556, -0.2399999999999996858, 2.630000000000000338 ) ) ;
#402 = DIRECTION ( 'NONE',  ( 0.000000000000000000, 0.000000000000000000, 1.000000000000000000 ) ) ;
#403 = ORIENTED_EDGE ( 'NONE', *, *, #348, .F. ) ;
#404 = FACE_OUTER_BOUND ( 'NONE', #110, .T. ) ;
#405 = VECTOR ( 'NONE', #1002, 100.0000000000000000 ) ;
#406 = DIRECTION ( 'NONE',  ( 0.000000000000000000, -1.000000000000000000, 0.000000000000000000 ) ) ;
#407 = EDGE_CURVE ( 'NONE', #73, #1024, #565, .T. ) ;
#408 = CARTESIAN_POINT ( 'NONE',  ( 0.2400000000000003797, 0.3149999999999998912, 5.000000000000000000 ) ) ;
#409 = ORIENTED_EDGE ( 'NONE', *, *, #167, .F. ) ;
#410 = PRESENTATION_STYLE_ASSIGNMENT (( #857 ) ) ;
#411 = LINE ( 'NONE', #675, #222 ) ;
#412 = EDGE_CURVE ( 'NONE', #194, #895, #394, .T. ) ;
#413 = ADVANCED_FACE ( 'NONE', ( #126 ), #143, .F. ) ;
#414 = LINE ( 'NONE', #1147, #29 ) ;
#415 = VERTEX_POINT ( 'NONE', #48 ) ;
#416 = LINE ( 'NONE', #702, #682 ) ;
#417 = EDGE_LOOP ( 'NONE', ( #742, #478, #910, #176, #39, #207 ) ) ;
#418 = PLANE ( 'NONE',  #5 ) ;
#419 = DIRECTION ( 'NONE',  ( -1.000000000000000000, 0.000000000000000000, 0.000000000000000000 ) ) ;
#420 = VERTEX_POINT ( 'NONE', #772 ) ;
#421 = FACE_OUTER_BOUND ( 'NONE', #990, .T. ) ;
#422 = LINE ( 'NONE', #975, #1018 ) ;
#423 = AXIS2_PLACEMENT_3D ( 'NONE', #778, #762, #494 ) ;
#424 = CARTESIAN_POINT ( 'NONE',  ( -0.2399999999999996303, -0.3149999999999998912, 2.390000000000000568 ) ) ;
#425 = EDGE_CURVE ( 'NONE', #861, #749, #82, .T. ) ;
#426 = VERTEX_POINT ( 'NONE', #881 ) ;
#427 = AXIS2_PLACEMENT_3D ( 'NONE', #597, #132, #419 ) ;
#428 = LINE ( 'NONE', #148, #389 ) ;
#429 = AXIS2_PLACEMENT_3D ( 'NONE', #608, #1145, #172 ) ;
#430 = DIRECTION ( 'NONE',  ( 0.000000000000000000, -1.000000000000000000, 0.000000000000000000 ) ) ;
#431 = ORIENTED_EDGE ( 'NONE', *, *, #306, .T. ) ;
#432 = CARTESIAN_POINT ( 'NONE',  ( -0.8349999999999999645, -0.2399999999999997691, 2.390000000000000568 ) ) ;
#433 = ADVANCED_FACE ( 'NONE', ( #1046 ), #225, .F. ) ;
#434 = ORIENTED_EDGE ( 'NONE', *, *, #669, .F. ) ;
#435 = CARTESIAN_POINT ( 'NONE',  ( -0.2399999999999996303, -0.5749999999999999556, 5.000000000000000000 ) ) ;
#436 = EDGE_CURVE ( 'NONE', #71, #224, #411, .T. ) ;
#437 = ORIENTED_EDGE ( 'NONE', *, *, #58, .T. ) ;
#438 = CARTESIAN_POINT ( 'NONE',  ( 0.5749999999999999556, 0.5750000000000000666, 5.000000000000000000 ) ) ;
#439 = DIRECTION ( 'NONE',  ( 0.000000000000000000, -1.000000000000000000, 0.000000000000000000 ) ) ;
#440 = AXIS2_PLACEMENT_3D ( 'NONE', #1084, #182, #745 ) ;
#441 = VERTEX_POINT ( 'NONE', #670 ) ;
#442 = CARTESIAN_POINT ( 'NONE',  ( 0.2400000000000003797, 0.3149999999999998912, 2.630000000000000338 ) ) ;
#443 = ORIENTED_EDGE ( 'NONE', *, *, #209, .T. ) ;
#444 = AXIS2_PLACEMENT_3D ( 'NONE', #282, #1016, #816 ) ;
#445 = DIRECTION ( 'NONE',  ( 0.000000000000000000, 1.000000000000000000, 0.000000000000000000 ) ) ;
#446 = VECTOR ( 'NONE', #1052, 100.0000000000000000 ) ;
#447 = EDGE_CURVE ( 'NONE', #900, #823, #505, .T. ) ;
#448 = CARTESIAN_POINT ( 'NONE',  ( 0.5750000000000000666, -0.5749999999999999556, 12.00000000000000000 ) ) ;
#449 = EDGE_CURVE ( 'NONE', #693, #802, #893, .T. ) ;
#450 = CARTESIAN_POINT ( 'NONE',  ( 0.000000000000000000, 0.000000000000000000, 0.000000000000000000 ) ) ;
#451 = ORIENTED_EDGE ( 'NONE', *, *, #396, .F. ) ;
#452 = LINE ( 'NONE', #208, #384 ) ;
#453 = VERTEX_POINT ( 'NONE', #326 ) ;
#454 = DIRECTION ( 'NONE',  ( 0.000000000000000000, 1.000000000000000000, 0.000000000000000000 ) ) ;
#455 = EDGE_LOOP ( 'NONE', ( #518, #921, #1045, #1089 ) ) ;
#456 = CARTESIAN_POINT ( 'NONE',  ( 0.2400000000000003797, 0.3149999999999998912, 2.630000000000000338 ) ) ;
#457 = DIRECTION ( 'NONE',  ( 0.000000000000000000, 0.000000000000000000, 1.000000000000000000 ) ) ;
#458 = AXIS2_PLACEMENT_3D ( 'NONE', #686, #386, #851 ) ;
#459 = EDGE_CURVE ( 'NONE', #880, #174, #37, .T. ) ;
#460 = ORIENTED_EDGE ( 'NONE', *, *, #1077, .T. ) ;
#461 = DIRECTION ( 'NONE',  ( 1.807003620809174632E-16, 1.000000000000000000, 0.000000000000000000 ) ) ;
#462 = EDGE_CURVE ( 'NONE', #224, #1148, #1120, .T. ) ;
#463 = ORIENTED_EDGE ( 'NONE', *, *, #803, .T. ) ;
#464 = DIRECTION ( 'NONE',  ( -1.000000000000000000, 0.000000000000000000, 0.000000000000000000 ) ) ;
#465 = AXIS2_PLACEMENT_3D ( 'NONE', #159, #1157, #797 ) ;
#466 = EDGE_CURVE ( 'NONE', #979, #71, #322, .T. ) ;
#467 = PLANE ( 'NONE',  #792 ) ;
#468 = VECTOR ( 'NONE', #730, 100.0000000000000000 ) ;
#469 = VECTOR ( 'NONE', #1034, 100.0000000000000000 ) ;
#470 = VECTOR ( 'NONE', #20, 100.0000000000000000 ) ;
#471 = LINE ( 'NONE', #391, #238 ) ;
#472 = PLANE ( 'NONE',  #969 ) ;
#473 = ORIENTED_EDGE ( 'NONE', *, *, #449, .T. ) ;
#474 = EDGE_CURVE ( 'NONE', #983, #628, #235, .T. ) ;
#475 = DIRECTION ( 'NONE',  ( -0.000000000000000000, 0.000000000000000000, -1.000000000000000000 ) ) ;
#476 = DIRECTION ( 'NONE',  ( -1.508455196501571429E-16, 1.000000000000000000, 0.000000000000000000 ) ) ;
#477 = DIRECTION ( 'NONE',  ( -0.000000000000000000, 0.000000000000000000, -1.000000000000000000 ) ) ;
#478 = ORIENTED_EDGE ( 'NONE', *, *, #1113, .F. ) ;
#479 = FACE_OUTER_BOUND ( 'NONE', #263, .T. ) ;
#480 = DIRECTION ( 'NONE',  ( 0.000000000000000000, 0.000000000000000000, 1.000000000000000000 ) ) ;
#481 = DIRECTION ( 'NONE',  ( -1.000000000000000000, 0.000000000000000000, 0.000000000000000000 ) ) ;
#482 = VECTOR ( 'NONE', #569, 100.0000000000000000 ) ;
#483 = SHAPE_DEFINITION_REPRESENTATION ( #681, #696 ) ;
#484 = ORIENTED_EDGE ( 'NONE', *, *, #462, .T. ) ;
#485 = PLANE ( 'NONE',  #583 ) ;
#486 = CARTESIAN_POINT ( 'NONE',  ( -0.2399999999999996303, 0.3149999999999998912, 2.390000000000000568 ) ) ;
#487 = LINE ( 'NONE', #1115, #354 ) ;
#488 = ORIENTED_EDGE ( 'NONE', *, *, #574, .T. ) ;
#489 = LINE ( 'NONE', #862, #503 ) ;
#490 = DIRECTION ( 'NONE',  ( -1.000000000000000000, 0.000000000000000000, 0.000000000000000000 ) ) ;
#491 = CARTESIAN_POINT ( 'NONE',  ( 0.5750000000000000666, -0.5749999999999999556, 5.000000000000000000 ) ) ;
#492 = DIRECTION ( 'NONE',  ( 1.508455196501571429E-16, -1.000000000000000000, 0.000000000000000000 ) ) ;
#493 = EDGE_LOOP ( 'NONE', ( #403, #292, #498, #610, #234, #977, #731, #215 ) ) ;
#494 = DIRECTION ( 'NONE',  ( 0.000000000000000000, -1.000000000000000000, 0.000000000000000000 ) ) ;
#495 = CYLINDRICAL_SURFACE ( 'NONE', #318, 0.3049999999999999933 ) ;
#496 = PLANE ( 'NONE',  #875 ) ;
#497 = ADVANCED_FACE ( 'NONE', ( #217 ), #212, .F. ) ;
#498 = ORIENTED_EDGE ( 'NONE', *, *, #642, .T. ) ;
#499 = CARTESIAN_POINT ( 'NONE',  ( 0.5749999999999999556, 0.5750000000000000666, 0.000000000000000000 ) ) ;
#500 = CARTESIAN_POINT ( 'NONE',  ( 0.000000000000000000, 0.000000000000000000, 11.39999999999999858 ) ) ;
#501 = UNCERTAINTY_MEASURE_WITH_UNIT (LENGTH_MEASURE( 1.000000000000000082E-05 ), #722, 'distance_accuracy_value', 'NONE');
#502 = CLOSED_SHELL ( 'NONE', ( #524, #966, #332, #587, #4, #830, #737, #542, #497, #754, #152, #741, #915, #275, #970, #413, #88, #360, #925, #1004, #916, #898, #433, #226, #811, #1104, #591, #822, #842, #1080, #1047, #399, #930, #42, #127, #801 ) ) ;
#503 = VECTOR ( 'NONE', #229, 100.0000000000000000 ) ;
#504 = CARTESIAN_POINT ( 'NONE',  ( 3.686287386450715076E-16, 0.5749999999999999556, 2.630000000000000338 ) ) ;
#505 = CIRCLE ( 'NONE', #815, 0.2399999999999999356 ) ;
#506 = ORIENTED_EDGE ( 'NONE', *, *, #666, .F. ) ;
#507 = CARTESIAN_POINT ( 'NONE',  ( 3.735172737399427023E-17, 0.3049999999999999933, 12.00000000000000000 ) ) ;
#508 = ORIENTED_EDGE ( 'NONE', *, *, #160, .T. ) ;
#509 = CARTESIAN_POINT ( 'NONE',  ( 0.5749999999999999556, 1.517883041479706208E-16, 2.630000000000000338 ) ) ;
#510 = CARTESIAN_POINT ( 'NONE',  ( 0.8349999999999999645, -0.2399999999999997691, 2.630000000000000338 ) ) ;
#511 = ORIENTED_EDGE ( 'NONE', *, *, #1001, .T. ) ;
#512 = CARTESIAN_POINT ( 'NONE',  ( 0.3149999999999998912, -0.2399999999999997691, 2.630000000000000338 ) ) ;
#513 = ORIENTED_EDGE ( 'NONE', *, *, #474, .F. ) ;
#514 = DIRECTION ( 'NONE',  ( 0.000000000000000000, -1.000000000000000000, 0.000000000000000000 ) ) ;
#515 = EDGE_CURVE ( 'NONE', #135, #116, #582, .T. ) ;
#516 = DIRECTION ( 'NONE',  ( 0.000000000000000000, 1.000000000000000000, 0.000000000000000000 ) ) ;
#517 = EDGE_CURVE ( 'NONE', #889, #351, #1130, .T. ) ;
#518 = ORIENTED_EDGE ( 'NONE', *, *, #803, .F. ) ;
#519 = DIRECTION ( 'NONE',  ( -0.000000000000000000, 0.9897283568439538826, -0.1429607626552378830 ) ) ;
#520 = VERTEX_POINT ( 'NONE', #137 ) ;
#521 = CARTESIAN_POINT ( 'NONE',  ( 0.5749999999999999556, 0.5750000000000000666, 5.000000000000000000 ) ) ;
#522 =( GEOMETRIC_REPRESENTATION_CONTEXT ( 3 ) GLOBAL_UNCERTAINTY_ASSIGNED_CONTEXT ( ( #231 ) ) GLOBAL_UNIT_ASSIGNED_CONTEXT ( ( #531, #798, #347 ) ) REPRESENTATION_CONTEXT ( 'NONE', 'WORKASPACE' ) );
#523 = EDGE_CURVE ( 'NONE', #802, #441, #1040, .T. ) ;
#524 = ADVANCED_FACE ( 'NONE', ( #313 ), #495, .F. ) ;
#525 = ORIENTED_EDGE ( 'NONE', *, *, #466, .T. ) ;
#526 = VECTOR ( 'NONE', #1141, 100.0000000000000000 ) ;
#527 = FACE_OUTER_BOUND ( 'NONE', #17, .T. ) ;
#528 = EDGE_CURVE ( 'NONE', #814, #194, #874, .T. ) ;
#529 = COLOUR_RGB ( '',0.6941176470588235059, 0.09803921568627450844, 0.09803921568627450844 ) ;
#530 = ORIENTED_EDGE ( 'NONE', *, *, #517, .F. ) ;
#531 =( LENGTH_UNIT ( ) NAMED_UNIT ( * ) SI_UNIT ( .CENTI., .METRE. ) );
#532 = VECTOR ( 'NONE', #374, 100.0000000000000000 ) ;
#533 = ORIENTED_EDGE ( 'NONE', *, *, #726, .F. ) ;
#534 = CARTESIAN_POINT ( 'NONE',  ( 0.2400000000000003797, -0.3149999999999998912, 5.000000000000000000 ) ) ;
#535 = ORIENTED_EDGE ( 'NONE', *, *, #436, .F. ) ;
#536 = LINE ( 'NONE', #711, #1094 ) ;
#537 = ORIENTED_EDGE ( 'NONE', *, *, #47, .F. ) ;
#538 = DIRECTION ( 'NONE',  ( 0.000000000000000000, -1.000000000000000000, 0.000000000000000000 ) ) ;
#539 = ORIENTED_EDGE ( 'NONE', *, *, #462, .F. ) ;
#540 = EDGE_CURVE ( 'NONE', #755, #954, #103, .T. ) ;
#541 = CARTESIAN_POINT ( 'NONE',  ( -0.5750000000000000666, 0.5749999999999999556, 5.000000000000000000 ) ) ;
#542 = ADVANCED_FACE ( 'NONE', ( #993 ), #986, .F. ) ;
#543 = ORIENTED_EDGE ( 'NONE', *, *, #459, .T. ) ;
#544 = PLANE ( 'NONE',  #321 ) ;
#545 = VECTOR ( 'NONE', #843, 100.0000000000000000 ) ;
#546 = VERTEX_POINT ( 'NONE', #435 ) ;
#547 = DIRECTION ( 'NONE',  ( 0.000000000000000000, 0.000000000000000000, -1.000000000000000000 ) ) ;
#548 = VECTOR ( 'NONE', #908, 100.0000000000000000 ) ;
#549 = ORIENTED_EDGE ( 'NONE', *, *, #377, .T. ) ;
#550 = CARTESIAN_POINT ( 'NONE',  ( 0.2400000000000003797, 0.3149999999999998912, 2.390000000000000568 ) ) ;
#551 = ORIENTED_EDGE ( 'NONE', *, *, #703, .F. ) ;
#552 = LINE ( 'NONE', #284, #482 ) ;
#553 = LINE ( 'NONE', #1014, #123 ) ;
#554 = ORIENTED_EDGE ( 'NONE', *, *, #953, .T. ) ;
#555 = LINE ( 'NONE', #1095, #813 ) ;
#556 = ORIENTED_EDGE ( 'NONE', *, *, #371, .T. ) ;
#557 = PRESENTATION_STYLE_ASSIGNMENT (( #640 ) ) ;
#558 = LINE ( 'NONE', #93, #795 ) ;
#559 = MECHANICAL_DESIGN_GEOMETRIC_PRESENTATION_REPRESENTATION (  '', ( #907 ), #578 ) ;
#560 = EDGE_CURVE ( 'NONE', #379, #546, #899, .T. ) ;
#561 = LINE ( 'NONE', #939, #28 ) ;
#562 = DIRECTION ( 'NONE',  ( 0.000000000000000000, 0.000000000000000000, 1.000000000000000000 ) ) ;
#563 = ORIENTED_EDGE ( 'NONE', *, *, #595, .T. ) ;
#564 = LINE ( 'NONE', #99, #405 ) ;
#565 = LINE ( 'NONE', #934, #911 ) ;
#566 = AXIS2_PLACEMENT_3D ( 'NONE', #509, #968, #949 ) ;
#567 = DIRECTION ( 'NONE',  ( 0.000000000000000000, 0.000000000000000000, -1.000000000000000000 ) ) ;
#568 = ORIENTED_EDGE ( 'NONE', *, *, #894, .F. ) ;
#569 = DIRECTION ( 'NONE',  ( -1.000000000000000000, 0.000000000000000000, 0.000000000000000000 ) ) ;
#570 = PLANE ( 'NONE',  #987 ) ;
#571 = DIRECTION ( 'NONE',  ( -1.000000000000000000, 0.000000000000000000, 0.000000000000000000 ) ) ;
#572 = VERTEX_POINT ( 'NONE', #177 ) ;
#573 = DIRECTION ( 'NONE',  ( 0.000000000000000000, 1.000000000000000000, 0.000000000000000000 ) ) ;
#574 = EDGE_CURVE ( 'NONE', #917, #628, #536, .T. ) ;
#575 = DIRECTION ( 'NONE',  ( 1.000000000000000000, 0.000000000000000000, 0.000000000000000000 ) ) ;
#576 = EDGE_CURVE ( 'NONE', #420, #73, #804, .T. ) ;
#577 = CARTESIAN_POINT ( 'NONE',  ( 0.5749999999999999556, 0.5750000000000000666, 5.000000000000000000 ) ) ;
#578 =( GEOMETRIC_REPRESENTATION_CONTEXT ( 3 ) GLOBAL_UNCERTAINTY_ASSIGNED_CONTEXT ( ( #501 ) ) GLOBAL_UNIT_ASSIGNED_CONTEXT ( ( #722, #86, #201 ) ) REPRESENTATION_CONTEXT ( 'NONE', 'WORKASPACE' ) );
#579 = CARTESIAN_POINT ( 'NONE',  ( -0.5750000000000000666, 0.5749999999999999556, 5.000000000000000000 ) ) ;
#580 = ORIENTED_EDGE ( 'NONE', *, *, #191, .F. ) ;
#581 = DIRECTION ( 'NONE',  ( -1.000000000000000000, 0.000000000000000000, 0.000000000000000000 ) ) ;
#582 = LINE ( 'NONE', #942, #683 ) ;
#583 = AXIS2_PLACEMENT_3D ( 'NONE', #393, #1127, #125 ) ;
#584 = COLOUR_RGB ( '',0.6941176470588235059, 0.09803921568627450844, 0.09803921568627450844 ) ;
#585 = VECTOR ( 'NONE', #251, 100.0000000000000000 ) ;
#586 = DIRECTION ( 'NONE',  ( 1.000000000000000000, 0.000000000000000000, 0.000000000000000000 ) ) ;
#587 = ADVANCED_FACE ( 'NONE', ( #980 ), #418, .F. ) ;
#588 = ORIENTED_EDGE ( 'NONE', *, *, #1131, .F. ) ;
#589 = DIRECTION ( 'NONE',  ( 0.000000000000000000, -1.000000000000000000, -0.000000000000000000 ) ) ;
#590 = DIRECTION ( 'NONE',  ( 1.807003620809174632E-16, -1.000000000000000000, 0.000000000000000000 ) ) ;
#591 = ADVANCED_FACE ( 'NONE', ( #258 ), #64, .F. ) ;
#592 = DIRECTION ( 'NONE',  ( -1.000000000000000000, 0.000000000000000000, 0.000000000000000000 ) ) ;
#593 = ORIENTED_EDGE ( 'NONE', *, *, #747, .T. ) ;
#594 = DIRECTION ( 'NONE',  ( -1.000000000000000000, -1.508455196501571429E-16, 0.000000000000000000 ) ) ;
#595 = EDGE_CURVE ( 'NONE', #286, #85, #150, .T. ) ;
#596 = CARTESIAN_POINT ( 'NONE',  ( 3.469446951953614189E-16, -0.5749999999999999556, 2.630000000000000338 ) ) ;
#597 = CARTESIAN_POINT ( 'NONE',  ( 0.2400000000000003797, -0.3149999999999998912, 2.390000000000000568 ) ) ;
#598 = ORIENTED_EDGE ( 'NONE', *, *, #649, .F. ) ;
#599 = FACE_OUTER_BOUND ( 'NONE', #455, .T. ) ;
#600 = VECTOR ( 'NONE', #13, 100.0000000000000142 ) ;
#601 = EDGE_LOOP ( 'NONE', ( #985, #799, #50, #274, #551, #1153 ) ) ;
#602 = CARTESIAN_POINT ( 'NONE',  ( 0.3149999999999997802, -0.3149999999999999467, 10.20000000000000107 ) ) ;
#603 = CARTESIAN_POINT ( 'NONE',  ( -0.5749999999999999556, -0.2399999999999998523, 5.000000000000000000 ) ) ;
#604 = AXIS2_PLACEMENT_3D ( 'NONE', #723, #877, #592 ) ;
#605 = ORIENTED_EDGE ( 'NONE', *, *, #58, .F. ) ;
#606 = DIRECTION ( 'NONE',  ( 0.000000000000000000, 0.000000000000000000, -1.000000000000000000 ) ) ;
#607 = ORIENTED_EDGE ( 'NONE', *, *, #396, .T. ) ;
#608 = CARTESIAN_POINT ( 'NONE',  ( 0.000000000000000000, 0.000000000000000000, 1.899999999999999911 ) ) ;
#609 = DIRECTION ( 'NONE',  ( 0.000000000000000000, -1.000000000000000000, 0.000000000000000000 ) ) ;
#610 = ORIENTED_EDGE ( 'NONE', *, *, #190, .T. ) ;
#611 = PLANE ( 'NONE',  #661 ) ;
#612 = ORIENTED_EDGE ( 'NONE', *, *, #112, .T. ) ;
#613 = EDGE_CURVE ( 'NONE', #572, #168, #334, .T. ) ;
#614 = DIRECTION ( 'NONE',  ( 0.000000000000000000, 0.000000000000000000, -1.000000000000000000 ) ) ;
#615 = ORIENTED_EDGE ( 'NONE', *, *, #517, .T. ) ;
#616 = LINE ( 'NONE', #239, #352 ) ;
#617 = DIRECTION ( 'NONE',  ( 0.000000000000000000, 0.000000000000000000, -1.000000000000000000 ) ) ;
#618 = VECTOR ( 'NONE', #163, 100.0000000000000000 ) ;
#619 = EDGE_LOOP ( 'NONE', ( #605, #967, #513, #337 ) ) ;
#620 = VECTOR ( 'NONE', #1064, 100.0000000000000000 ) ;
#621 = CARTESIAN_POINT ( 'NONE',  ( 0.3149999999999997802, -0.3149999999999999467, 5.000000000000000000 ) ) ;
#622 = EDGE_CURVE ( 'NONE', #685, #814, #422, .T. ) ;
#623 = VECTOR ( 'NONE', #1124, 100.0000000000000000 ) ;
#624 = ORIENTED_EDGE ( 'NONE', *, *, #312, .T. ) ;
#625 = CARTESIAN_POINT ( 'NONE',  ( 0.2400000000000003797, 0.3149999999999998912, 2.390000000000000568 ) ) ;
#626 = ORIENTED_EDGE ( 'NONE', *, *, #377, .F. ) ;
#627 = FACE_BOUND ( 'NONE', #1027, .T. ) ;
#628 = VERTEX_POINT ( 'NONE', #891 ) ;
#629 = SURFACE_STYLE_USAGE ( .BOTH. , #697 ) ;
#630 = SURFACE_SIDE_STYLE ('',( #265 ) ) ;
#631 = DIRECTION ( 'NONE',  ( 0.000000000000000000, 0.000000000000000000, 1.000000000000000000 ) ) ;
#632 = ORIENTED_EDGE ( 'NONE', *, *, #134, .T. ) ;
#633 = DIRECTION ( 'NONE',  ( 0.000000000000000000, 1.000000000000000000, 0.000000000000000000 ) ) ;
#634 = DIRECTION ( 'NONE',  ( -1.000000000000000000, -9.035018104045874392E-17, 0.000000000000000000 ) ) ;
#635 = ORIENTED_EDGE ( 'NONE', *, *, #412, .T. ) ;
#636 = FACE_OUTER_BOUND ( 'NONE', #829, .T. ) ;
#637 = CIRCLE ( 'NONE', #257, 0.3049999999999999933 ) ;
#638 = ORIENTED_EDGE ( 'NONE', *, *, #91, .T. ) ;
#639 = VECTOR ( 'NONE', #855, 100.0000000000000000 ) ;
#640 = SURFACE_STYLE_USAGE ( .BOTH. , #1107 ) ;
#641 = VECTOR ( 'NONE', #938, 100.0000000000000000 ) ;
#642 = EDGE_CURVE ( 'NONE', #75, #1049, #887, .T. ) ;
#643 = DIRECTION ( 'NONE',  ( 0.000000000000000000, 0.000000000000000000, -1.000000000000000000 ) ) ;
#644 = ORIENTED_EDGE ( 'NONE', *, *, #327, .T. ) ;
#645 = LINE ( 'NONE', #720, #1058 ) ;
#646 = VERTEX_POINT ( 'NONE', #708 ) ;
#647 = DIRECTION ( 'NONE',  ( -1.508455196501571676E-16, 1.000000000000000000, 0.000000000000000000 ) ) ;
#648 = PRESENTATION_STYLE_ASSIGNMENT (( #1108 ) ) ;
#649 = EDGE_CURVE ( 'NONE', #197, #781, #831, .T. ) ;
#650 = EDGE_CURVE ( 'NONE', #646, #546, #738, .T. ) ;
#651 = EDGE_LOOP ( 'NONE', ( #1170, #525, #626, #1163 ) ) ;
#652 = DIRECTION ( 'NONE',  ( -1.000000000000000000, 0.000000000000000000, 0.000000000000000000 ) ) ;
#653 = ORIENTED_EDGE ( 'NONE', *, *, #254, .F. ) ;
#654 = CARTESIAN_POINT ( 'NONE',  ( 0.000000000000000000, 0.3049999999999999933, 1.899999999999999911 ) ) ;
#655 = DIRECTION ( 'NONE',  ( 0.000000000000000000, -0.9897283568439538826, -0.1429607626552378274 ) ) ;
#656 = VECTOR ( 'NONE', #818, 100.0000000000000000 ) ;
#657 = DIRECTION ( 'NONE',  ( 0.000000000000000000, 1.000000000000000000, -0.000000000000000000 ) ) ;
#658 = ORIENTED_EDGE ( 'NONE', *, *, #902, .T. ) ;
#659 = CARTESIAN_POINT ( 'NONE',  ( -0.2399999999999996858, -0.5749999999999999556, 5.000000000000000000 ) ) ;
#660 = PRESENTATION_LAYER_ASSIGNMENT (  '', '', ( #1160 ) ) ;
#661 = AXIS2_PLACEMENT_3D ( 'NONE', #155, #519, #800 ) ;
#662 = LINE ( 'NONE', #14, #1162 ) ;
#663 =( GEOMETRIC_REPRESENTATION_CONTEXT ( 3 ) GLOBAL_UNCERTAINTY_ASSIGNED_CONTEXT ( ( #144 ) ) GLOBAL_UNIT_ASSIGNED_CONTEXT ( ( #751, #746, #825 ) ) REPRESENTATION_CONTEXT ( 'NONE', 'WORKASPACE' ) );
#664 = CARTESIAN_POINT ( 'NONE',  ( 3.469446951953614189E-16, -0.3149999999999998912, 2.630000000000000338 ) ) ;
#665 = CARTESIAN_POINT ( 'NONE',  ( 0.2400000000000003242, 2.001604010742471858E-17, 5.000000000000000000 ) ) ;
#666 = EDGE_CURVE ( 'NONE', #62, #379, #376, .T. ) ;
#667 = ORIENTED_EDGE ( 'NONE', *, *, #805, .F. ) ;
#668 =( NAMED_UNIT ( * ) PLANE_ANGLE_UNIT ( ) SI_UNIT ( $, .RADIAN. ) );
#669 = EDGE_CURVE ( 'NONE', #1142, #520, #564, .T. ) ;
#670 = CARTESIAN_POINT ( 'NONE',  ( -0.2399999999999996303, 0.3149999999999998912, 5.000000000000000000 ) ) ;
#671 = DIRECTION ( 'NONE',  ( -0.000000000000000000, 0.000000000000000000, -1.000000000000000000 ) ) ;
#672 = DIRECTION ( 'NONE',  ( 0.000000000000000000, -1.000000000000000000, -0.000000000000000000 ) ) ;
#673 = ORIENTED_EDGE ( 'NONE', *, *, #909, .T. ) ;
#674 = LINE ( 'NONE', #499, #270 ) ;
#675 = CARTESIAN_POINT ( 'NONE',  ( 0.000000000000000000, -0.3150000000000007239, 10.20000000000000639 ) ) ;
#676 = LINE ( 'NONE', #114, #545 ) ;
#677 = VECTOR ( 'NONE', #1151, 100.0000000000000000 ) ;
#678 = EDGE_LOOP ( 'NONE', ( #568, #473, #55, #392, #1031, #817, #345, #245 ) ) ;
#679 = DIRECTION ( 'NONE',  ( 0.000000000000000000, -1.000000000000000000, 0.000000000000000000 ) ) ;
#680 = CARTESIAN_POINT ( 'NONE',  ( 0.8349999999999999645, -0.2399999999999997691, 2.390000000000000568 ) ) ;
#681 = PRODUCT_DEFINITION_SHAPE ( 'NONE', 'NONE',  #273 ) ;
#682 = VECTOR ( 'NONE', #1062, 100.0000000000000000 ) ;
#683 = VECTOR ( 'NONE', #131, 100.0000000000000000 ) ;
#684 = EDGE_CURVE ( 'NONE', #895, #1005, #189, .T. ) ;
#685 = VERTEX_POINT ( 'NONE', #368 ) ;
#686 = CARTESIAN_POINT ( 'NONE',  ( 0.000000000000000000, 0.000000000000000000, 1.899999999999999911 ) ) ;
#687 = DIRECTION ( 'NONE',  ( 1.000000000000000000, 0.000000000000000000, 0.000000000000000000 ) ) ;
#688 = DIRECTION ( 'NONE',  ( 1.000000000000000000, 1.508455196501571676E-16, 0.000000000000000000 ) ) ;
#689 = ORIENTED_EDGE ( 'NONE', *, *, #474, .T. ) ;
#690 =( LENGTH_UNIT ( ) NAMED_UNIT ( * ) SI_UNIT ( .CENTI., .METRE. ) );
#691 = CARTESIAN_POINT ( 'NONE',  ( -0.8349999999999999645, 0.2400000000000000744, 5.000000000000000000 ) ) ;
#692 = CARTESIAN_POINT ( 'NONE',  ( 0.5750000000000000666, -0.2399999999999997691, 5.000000000000000000 ) ) ;
#693 = VERTEX_POINT ( 'NONE', #456 ) ;
#694 = LINE ( 'NONE', #901, #203 ) ;
#695 = AXIS2_PLACEMENT_3D ( 'NONE', #136, #581, #679 ) ;
#696 = ADVANCED_BREP_SHAPE_REPRESENTATION ( 'pillar-support_61', ( #727, #122 ), #185 ) ;
#697 = SURFACE_SIDE_STYLE ('',( #704 ) ) ;
#698 = AXIS2_PLACEMENT_3D ( 'NONE', #290, #657, #481 ) ;
#699 = LINE ( 'NONE', #359, #1059 ) ;
#700 = AXIS2_PLACEMENT_3D ( 'NONE', #860, #33, #928 ) ;
#701 = ORIENTED_EDGE ( 'NONE', *, *, #847, .T. ) ;
#702 = CARTESIAN_POINT ( 'NONE',  ( 0.2400000000000003797, 0.3149999999999998912, 2.390000000000000568 ) ) ;
#703 = EDGE_CURVE ( 'NONE', #1165, #546, #363, .T. ) ;
#704 = SURFACE_STYLE_FILL_AREA ( #718 ) ;
#705 = FACE_OUTER_BOUND ( 'NONE', #95, .T. ) ;
#706 = ORIENTED_EDGE ( 'NONE', *, *, #595, .F. ) ;
#707 = DIRECTION ( 'NONE',  ( -1.000000000000000000, -1.508455196501571676E-16, 0.000000000000000000 ) ) ;
#708 = CARTESIAN_POINT ( 'NONE',  ( -0.2399999999999996858, -0.5749999999999999556, 2.630000000000000338 ) ) ;
#709 = ORIENTED_EDGE ( 'NONE', *, *, #171, .F. ) ;
#710 = DIRECTION ( 'NONE',  ( 1.000000000000000000, -9.035018104045874392E-17, 0.000000000000000000 ) ) ;
#711 = CARTESIAN_POINT ( 'NONE',  ( 0.2400000000000003797, -0.5749999999999999556, 5.000000000000000000 ) ) ;
#712 = AXIS2_PLACEMENT_3D ( 'NONE', #266, #631, #828 ) ;
#713 = EDGE_CURVE ( 'NONE', #979, #375, #452, .T. ) ;
#714 = VERTEX_POINT ( 'NONE', #846 ) ;
#715 = CIRCLE ( 'NONE', #1092, 0.2400000000000000189 ) ;
#716 = DIRECTION ( 'NONE',  ( -1.000000000000000000, -0.000000000000000000, 0.000000000000000000 ) ) ;
#717 = VERTEX_POINT ( 'NONE', #1166 ) ;
#718 = FILL_AREA_STYLE ('',( #246 ) ) ;
#719 = FACE_OUTER_BOUND ( 'NONE', #601, .T. ) ;
#720 = CARTESIAN_POINT ( 'NONE',  ( -0.3149999999999998912, -0.3149999999999999467, 5.000000000000000000 ) ) ;
#721 = ORIENTED_EDGE ( 'NONE', *, *, #649, .T. ) ;
#722 =( LENGTH_UNIT ( ) NAMED_UNIT ( * ) SI_UNIT ( .CENTI., .METRE. ) );
#723 = CARTESIAN_POINT ( 'NONE',  ( 3.469446951953614189E-16, -0.5749999999999999556, 2.630000000000000338 ) ) ;
#724 = PLANE ( 'NONE',  #812 ) ;
#725 = FACE_OUTER_BOUND ( 'NONE', #913, .T. ) ;
#726 = EDGE_CURVE ( 'NONE', #441, #375, #552, .T. ) ;
#727 = MANIFOLD_SOLID_BREP ( 'Cut-Extrude3', #502 ) ;
#728 = ORIENTED_EDGE ( 'NONE', *, *, #151, .T. ) ;
#729 = FILL_AREA_STYLE ('',( #924 ) ) ;
#730 = DIRECTION ( 'NONE',  ( 1.508455196501571429E-16, -1.000000000000000000, 0.000000000000000000 ) ) ;
#731 = ORIENTED_EDGE ( 'NONE', *, *, #713, .T. ) ;
#732 = CARTESIAN_POINT ( 'NONE',  ( -0.3149999999999998912, 1.517883041479706208E-16, 2.630000000000000338 ) ) ;
#733 = COLOUR_RGB ( '',0.6941176470588235059, 0.09803921568627450844, 0.09803921568627450844 ) ;
#734 = AXIS2_PLACEMENT_3D ( 'NONE', #1071, #707, #1066 ) ;
#735 = AXIS2_PLACEMENT_3D ( 'NONE', #680, #406, #687 ) ;
#736 = ORIENTED_EDGE ( 'NONE', *, *, #883, .T. ) ;
#737 = ADVANCED_FACE ( 'NONE', ( #7 ), #750, .F. ) ;
#738 = LINE ( 'NONE', #659, #59 ) ;
#739 = VECTOR ( 'NONE', #1028, 100.0000000000000000 ) ;
#740 = CARTESIAN_POINT ( 'NONE',  ( -0.5749999999999999556, -0.5750000000000000666, 5.000000000000000000 ) ) ;
#741 = ADVANCED_FACE ( 'NONE', ( #1097 ), #824, .F. ) ;
#742 = ORIENTED_EDGE ( 'NONE', *, *, #909, .F. ) ;
#743 = DIRECTION ( 'NONE',  ( 0.000000000000000000, 1.000000000000000000, 0.000000000000000000 ) ) ;
#744 = ORIENTED_EDGE ( 'NONE', *, *, #328, .T. ) ;
#745 = DIRECTION ( 'NONE',  ( 0.000000000000000000, -1.000000000000000000, 0.000000000000000000 ) ) ;
#746 =( NAMED_UNIT ( * ) PLANE_ANGLE_UNIT ( ) SI_UNIT ( $, .RADIAN. ) );
#747 = EDGE_CURVE ( 'NONE', #357, #147, #106, .T. ) ;
#748 = LINE ( 'NONE', #361, #369 ) ;
#749 = VERTEX_POINT ( 'NONE', #293 ) ;
#750 = CYLINDRICAL_SURFACE ( 'NONE', #440, 0.2399999999999999356 ) ;
#751 =( LENGTH_UNIT ( ) NAMED_UNIT ( * ) SI_UNIT ( .CENTI., .METRE. ) );
#752 = CIRCLE ( 'NONE', #423, 0.3049999999999999933 ) ;
#753 = PLANE ( 'NONE',  #388 ) ;
#754 = ADVANCED_FACE ( 'NONE', ( #78 ), #1102, .F. ) ;
#755 = VERTEX_POINT ( 'NONE', #654 ) ;
#756 = PRODUCT ( 'pillar-support_61', 'pillar-support_61', '', ( #952 ) ) ;
#757 = DIRECTION ( 'NONE',  ( 0.000000000000000000, 1.000000000000000000, 0.000000000000000000 ) ) ;
#758 = VECTOR ( 'NONE', #951, 100.0000000000000000 ) ;
#759 = AXIS2_PLACEMENT_3D ( 'NONE', #732, #1082, #461 ) ;
#760 = CARTESIAN_POINT ( 'NONE',  ( 0.3149999999999998912, 1.517883041479706208E-16, 2.630000000000000338 ) ) ;
#761 = ORIENTED_EDGE ( 'NONE', *, *, #1069, .F. ) ;
#762 = DIRECTION ( 'NONE',  ( 0.000000000000000000, 0.000000000000000000, 1.000000000000000000 ) ) ;
#763 = CARTESIAN_POINT ( 'NONE',  ( -0.3149999999999998357, 0.000000000000000000, 10.20000000000000284 ) ) ;
#764 = CARTESIAN_POINT ( 'NONE',  ( 0.5749999999999999556, 0.5750000000000000666, 5.000000000000000000 ) ) ;
#765 = CARTESIAN_POINT ( 'NONE',  ( -0.2399999999999996303, -0.3149999999999998912, 5.000000000000000000 ) ) ;
#766 = ORIENTED_EDGE ( 'NONE', *, *, #576, .T. ) ;
#767 = LINE ( 'NONE', #169, #81 ) ;
#768 = DIRECTION ( 'NONE',  ( 1.000000000000000000, 0.000000000000000000, 0.000000000000000000 ) ) ;
#769 = CARTESIAN_POINT ( 'NONE',  ( -0.5750000000000000666, -0.2399999999999997691, 5.000000000000000000 ) ) ;
#770 = ORIENTED_EDGE ( 'NONE', *, *, #12, .F. ) ;
#771 = FACE_OUTER_BOUND ( 'NONE', #1156, .T. ) ;
#772 = CARTESIAN_POINT ( 'NONE',  ( -0.5749999999999999556, -0.5750000000000000666, 0.000000000000000000 ) ) ;
#773 = VECTOR ( 'NONE', #180, 100.0000000000000000 ) ;
#774 = AXIS2_PLACEMENT_3D ( 'NONE', #153, #780, #516 ) ;
#775 = AXIS2_PLACEMENT_3D ( 'NONE', #264, #809, #430 ) ;
#776 = LINE ( 'NONE', #424, #390 ) ;
#777 = ORIENTED_EDGE ( 'NONE', *, *, #91, .F. ) ;
#778 = CARTESIAN_POINT ( 'NONE',  ( 0.000000000000000000, 0.000000000000000000, 12.00000000000000000 ) ) ;
#779 = DIRECTION ( 'NONE',  ( 1.000000000000000000, 9.035018104045874392E-17, -0.000000000000000000 ) ) ;
#780 = DIRECTION ( 'NONE',  ( 0.000000000000000000, 0.000000000000000000, -1.000000000000000000 ) ) ;
#781 = VERTEX_POINT ( 'NONE', #305 ) ;
#782 = FACE_OUTER_BOUND ( 'NONE', #493, .T. ) ;
#783 = ORIENTED_EDGE ( 'NONE', *, *, #1150, .T. ) ;
#784 = DIRECTION ( 'NONE',  ( 0.000000000000000000, 1.000000000000000000, 0.000000000000000000 ) ) ;
#785 = EDGE_CURVE ( 'NONE', #351, #889, #752, .T. ) ;
#786 = FACE_OUTER_BOUND ( 'NONE', #850, .T. ) ;
#787 = AXIS2_PLACEMENT_3D ( 'NONE', #625, #439, #1079 ) ;
#788 = ORIENTED_EDGE ( 'NONE', *, *, #206, .T. ) ;
#789 = FACE_OUTER_BOUND ( 'NONE', #188, .T. ) ;
#790 = ORIENTED_EDGE ( 'NONE', *, *, #459, .F. ) ;
#791 = CARTESIAN_POINT ( 'NONE',  ( -0.5749999999999999556, 1.517883041479706208E-16, 2.630000000000000338 ) ) ;
#792 = AXIS2_PLACEMENT_3D ( 'NONE', #840, #655, #1019 ) ;
#793 = PRODUCT_DEFINITION_FORMATION_WITH_SPECIFIED_SOURCE ( 'ANY', '', #756, .NOT_KNOWN. ) ;
#794 = PLANE ( 'NONE',  #427 ) ;
#795 = VECTOR ( 'NONE', #457, 100.0000000000000000 ) ;
#796 = ORIENTED_EDGE ( 'NONE', *, *, #254, .T. ) ;
#797 = DIRECTION ( 'NONE',  ( -8.340016711426955288E-17, 1.000000000000000000, 0.000000000000000000 ) ) ;
#798 =( NAMED_UNIT ( * ) PLANE_ANGLE_UNIT ( ) SI_UNIT ( $, .RADIAN. ) );
#799 = ORIENTED_EDGE ( 'NONE', *, *, #344, .T. ) ;
#800 = DIRECTION ( 'NONE',  ( 0.000000000000000000, 0.1429607626552378552, 0.9897283568439537715 ) ) ;
#801 = ADVANCED_FACE ( 'NONE', ( #479 ), #1134, .T. ) ;
#802 = VERTEX_POINT ( 'NONE', #320 ) ;
#803 = EDGE_CURVE ( 'NONE', #954, #755, #926, .T. ) ;
#804 = LINE ( 'NONE', #903, #585 ) ;
#805 = EDGE_CURVE ( 'NONE', #1024, #520, #674, .T. ) ;
#806 = EDGE_LOOP ( 'NONE', ( #324, #701, #1101, #543 ) ) ;
#807 = DIRECTION ( 'NONE',  ( -1.000000000000000000, -1.508455196501571429E-16, 0.000000000000000000 ) ) ;
#808 = ORIENTED_EDGE ( 'NONE', *, *, #167, .T. ) ;
#809 = DIRECTION ( 'NONE',  ( -1.000000000000000000, 0.000000000000000000, 0.000000000000000000 ) ) ;
#810 = VECTOR ( 'NONE', #784, 100.0000000000000000 ) ;
#811 = ADVANCED_FACE ( 'NONE', ( #959 ), #1123, .F. ) ;
#812 = AXIS2_PLACEMENT_3D ( 'NONE', #102, #1026, #935 ) ;
#813 = VECTOR ( 'NONE', #1100, 100.0000000000000000 ) ;
#814 = VERTEX_POINT ( 'NONE', #22 ) ;
#815 = AXIS2_PLACEMENT_3D ( 'NONE', #760, #779, #590 ) ;
#816 = DIRECTION ( 'NONE',  ( -1.000000000000000000, 0.000000000000000000, 0.000000000000000000 ) ) ;
#817 = ORIENTED_EDGE ( 'NONE', *, *, #953, .F. ) ;
#818 = DIRECTION ( 'NONE',  ( 1.508455196501571429E-16, -1.000000000000000000, 0.000000000000000000 ) ) ;
#819 = LINE ( 'NONE', #232, #1023 ) ;
#820 = FILL_AREA_STYLE_COLOUR ( '', #733 ) ;
#821 = PLANE ( 'NONE',  #444 ) ;
#822 = ADVANCED_FACE ( 'NONE', ( #771 ), #1032, .F. ) ;
#823 = VERTEX_POINT ( 'NONE', #941 ) ;
#824 = PLANE ( 'NONE',  #199 ) ;
#825 =( NAMED_UNIT ( * ) SI_UNIT ( $, .STERADIAN. ) SOLID_ANGLE_UNIT ( ) );
#826 = EDGE_CURVE ( 'NONE', #333, #168, #117, .T. ) ;
#827 = ORIENTED_EDGE ( 'NONE', *, *, #574, .F. ) ;
#828 = DIRECTION ( 'NONE',  ( 0.000000000000000000, -1.000000000000000000, 0.000000000000000000 ) ) ;
#829 = EDGE_LOOP ( 'NONE', ( #973, #1122, #897, #1017 ) ) ;
#830 = ADVANCED_FACE ( 'NONE', ( #216 ), #111, .F. ) ;
#831 = CIRCLE ( 'NONE', #291, 0.2399999999999999356 ) ;
#832 = LINE ( 'NONE', #196, #142 ) ;
#833 = ORIENTED_EDGE ( 'NONE', *, *, #876, .F. ) ;
#834 = DIRECTION ( 'NONE',  ( -0.9897283568439537715, 0.000000000000000000, -0.1429607626552379662 ) ) ;
#835 = VECTOR ( 'NONE', #272, 100.0000000000000000 ) ;
#836 = VECTOR ( 'NONE', #1021, 100.0000000000000142 ) ;
#837 = ORIENTED_EDGE ( 'NONE', *, *, #436, .T. ) ;
#838 = CARTESIAN_POINT ( 'NONE',  ( 3.686287386450715076E-16, 0.5749999999999999556, 2.630000000000000338 ) ) ;
#839 = AXIS2_PLACEMENT_3D ( 'NONE', #864, #402, #118 ) ;
#840 = CARTESIAN_POINT ( 'NONE',  ( 0.000000000000000000, 1.134659571895030306, 0.1638952714959489021 ) ) ;
#841 = VECTOR ( 'NONE', #652, 100.0000000000000000 ) ;
#842 = ADVANCED_FACE ( 'NONE', ( #404 ), #485, .T. ) ;
#843 = DIRECTION ( 'NONE',  ( 0.000000000000000000, 1.000000000000000000, 0.000000000000000000 ) ) ;
#844 = DIRECTION ( 'NONE',  ( 0.000000000000000000, 1.000000000000000000, 0.000000000000000000 ) ) ;
#845 = ORIENTED_EDGE ( 'NONE', *, *, #540, .F. ) ;
#846 = CARTESIAN_POINT ( 'NONE',  ( 0.000000000000000000, 0.3049999999999999933, 0.000000000000000000 ) ) ;
#847 = EDGE_CURVE ( 'NONE', #197, #932, #489, .T. ) ;
#848 = CYLINDRICAL_SURFACE ( 'NONE', #700, 0.3049999999999999933 ) ;
#849 = LINE ( 'NONE', #665, #119 ) ;
#850 = EDGE_LOOP ( 'NONE', ( #237, #788, #288, #940, #267, #434, #1075, #593 ) ) ;
#851 = DIRECTION ( 'NONE',  ( 0.000000000000000000, 1.000000000000000000, 0.000000000000000000 ) ) ;
#852 = CARTESIAN_POINT ( 'NONE',  ( 0.3149999999999998912, -0.2399999999999997691, 5.000000000000000000 ) ) ;
#853 = AXIS2_PLACEMENT_3D ( 'NONE', #40, #955, #757 ) ;
#854 = CARTESIAN_POINT ( 'NONE',  ( 0.5749999999999999556, 0.2400000000000000744, 5.000000000000000000 ) ) ;
#855 = DIRECTION ( 'NONE',  ( -0.000000000000000000, 0.000000000000000000, -1.000000000000000000 ) ) ;
#856 = ORIENTED_EDGE ( 'NONE', *, *, #166, .F. ) ;
#857 = SURFACE_STYLE_USAGE ( .BOTH. , #45 ) ;
#858 = DIRECTION ( 'NONE',  ( 0.000000000000000000, 0.000000000000000000, 1.000000000000000000 ) ) ;
#859 = VECTOR ( 'NONE', #323, 100.0000000000000000 ) ;
#860 = CARTESIAN_POINT ( 'NONE',  ( 0.000000000000000000, 0.000000000000000000, 11.39999999999999858 ) ) ;
#861 = VERTEX_POINT ( 'NONE', #401 ) ;
#862 = CARTESIAN_POINT ( 'NONE',  ( -0.5749999999999999556, 0.2400000000000000744, 2.630000000000000338 ) ) ;
#863 = EDGE_CURVE ( 'NONE', #685, #979, #767, .T. ) ;
#864 = CARTESIAN_POINT ( 'NONE',  ( 0.000000000000000000, 0.000000000000000000, 12.00000000000000000 ) ) ;
#865 =( NAMED_UNIT ( * ) PLANE_ANGLE_UNIT ( ) SI_UNIT ( $, .RADIAN. ) );
#866 = CARTESIAN_POINT ( 'NONE',  ( -0.5750000000000000666, 0.5749999999999999556, 5.000000000000000000 ) ) ;
#867 = ORIENTED_EDGE ( 'NONE', *, *, #847, .F. ) ;
#868 = DIRECTION ( 'NONE',  ( 0.000000000000000000, 0.000000000000000000, 1.000000000000000000 ) ) ;
#869 = DIRECTION ( 'NONE',  ( 0.000000000000000000, -1.000000000000000000, 0.000000000000000000 ) ) ;
#870 = LINE ( 'NONE', #43, #948 ) ;
#871 = LINE ( 'NONE', #121, #278 ) ;
#872 = VERTEX_POINT ( 'NONE', #63 ) ;
#873 = SURFACE_STYLE_FILL_AREA ( #300 ) ;
#874 = LINE ( 'NONE', #41, #164 ) ;
#875 = AXIS2_PLACEMENT_3D ( 'NONE', #1132, #49, #688 ) ;
#876 = EDGE_CURVE ( 'NONE', #900, #333, #428, .T. ) ;
#877 = DIRECTION ( 'NONE',  ( 1.508455196501571676E-16, -1.000000000000000000, -0.000000000000000000 ) ) ;
#878 = ORIENTED_EDGE ( 'NONE', *, *, #412, .F. ) ;
#879 = CARTESIAN_POINT ( 'NONE',  ( 0.000000000000000000, 0.000000000000000000, 1.899999999999999911 ) ) ;
#880 = VERTEX_POINT ( 'NONE', #338 ) ;
#881 = CARTESIAN_POINT ( 'NONE',  ( 3.735172737399427023E-17, 0.3049999999999999933, 11.39999999999999858 ) ) ;
#882 = UNCERTAINTY_MEASURE_WITH_UNIT (LENGTH_MEASURE( 1.000000000000000082E-05 ), #221, 'distance_accuracy_value', 'NONE');
#883 = EDGE_CURVE ( 'NONE', #426, #889, #694, .T. ) ;
#884 = CARTESIAN_POINT ( 'NONE',  ( 0.3150000000000001132, -0.3150000000000002798, 10.20000000000000639 ) ) ;
#885 = EDGE_LOOP ( 'NONE', ( #549, #837, #52, #149 ) ) ;
#886 = DIRECTION ( 'NONE',  ( 9.035018104045874392E-17, 1.000000000000000000, 0.000000000000000000 ) ) ;
#887 = LINE ( 'NONE', #57, #677 ) ;
#888 = DIRECTION ( 'NONE',  ( 1.000000000000000000, 1.508455196501571676E-16, 0.000000000000000000 ) ) ;
#889 = VERTEX_POINT ( 'NONE', #507 ) ;
#890 = CARTESIAN_POINT ( 'NONE',  ( 0.5750000000000000666, 0.5749999999999999556, 12.00000000000000000 ) ) ;
#891 = CARTESIAN_POINT ( 'NONE',  ( 0.2400000000000003797, -0.5749999999999999556, 2.630000000000000338 ) ) ;
#892 = AXIS2_PLACEMENT_3D ( 'NONE', #287, #562, #538 ) ;
#893 = CIRCLE ( 'NONE', #971, 0.2400000000000000189 ) ;
#894 = EDGE_CURVE ( 'NONE', #693, #98, #416, .T. ) ;
#895 = VERTEX_POINT ( 'NONE', #890 ) ;
#896 = DIRECTION ( 'NONE',  ( 0.000000000000000000, 0.000000000000000000, 1.000000000000000000 ) ) ;
#897 = ORIENTED_EDGE ( 'NONE', *, *, #894, .T. ) ;
#898 = ADVANCED_FACE ( 'NONE', ( #421 ), #249, .F. ) ;
#899 = LINE ( 'NONE', #70, #223 ) ;
#900 = VERTEX_POINT ( 'NONE', #512 ) ;
#901 = CARTESIAN_POINT ( 'NONE',  ( 3.735172737399427023E-17, 0.3049999999999999933, 11.39999999999999858 ) ) ;
#902 = EDGE_CURVE ( 'NONE', #135, #749, #616, .T. ) ;
#903 = CARTESIAN_POINT ( 'NONE',  ( 0.5750000000000000666, -0.5749999999999999556, 0.000000000000000000 ) ) ;
#904 = ORIENTED_EDGE ( 'NONE', *, *, #218, .F. ) ;
#905 = LINE ( 'NONE', #76, #532 ) ;
#906 = ORIENTED_EDGE ( 'NONE', *, *, #669, .T. ) ;
#907 = STYLED_ITEM ( 'NONE', ( #557 ), #727 ) ;
#908 = DIRECTION ( 'NONE',  ( -0.000000000000000000, 0.000000000000000000, -1.000000000000000000 ) ) ;
#909 = EDGE_CURVE ( 'NONE', #1148, #333, #974, .T. ) ;
#910 = ORIENTED_EDGE ( 'NONE', *, *, #1131, .T. ) ;
#911 = VECTOR ( 'NONE', #476, 100.0000000000000000 ) ;
#912 = DIRECTION ( 'NONE',  ( 0.000000000000000000, -1.000000000000000000, -0.000000000000000000 ) ) ;
#913 = EDGE_LOOP ( 'NONE', ( #1133, #1012, #635, #154 ) ) ;
#914 = LINE ( 'NONE', #25, #339 ) ;
#915 = ADVANCED_FACE ( 'NONE', ( #527 ), #331, .F. ) ;
#916 = ADVANCED_FACE ( 'NONE', ( #782 ), #244, .F. ) ;
#917 = VERTEX_POINT ( 'NONE', #343 ) ;
#918 = DIRECTION ( 'NONE',  ( 0.000000000000000000, 0.000000000000000000, -1.000000000000000000 ) ) ;
#919 = ORIENTED_EDGE ( 'NONE', *, *, #209, .F. ) ;
#920 = FACE_OUTER_BOUND ( 'NONE', #299, .T. ) ;
#921 = ORIENTED_EDGE ( 'NONE', *, *, #26, .T. ) ;
#922 = FACE_OUTER_BOUND ( 'NONE', #651, .T. ) ;
#923 = ORIENTED_EDGE ( 'NONE', *, *, #876, .T. ) ;
#924 = FILL_AREA_STYLE_COLOUR ( '', #97 ) ;
#925 = ADVANCED_FACE ( 'NONE', ( #789 ), #984, .F. ) ;
#926 = CIRCLE ( 'NONE', #458, 0.3049999999999999933 ) ;
#927 = DIRECTION ( 'NONE',  ( 0.000000000000000000, 0.000000000000000000, 1.000000000000000000 ) ) ;
#928 = DIRECTION ( 'NONE',  ( 0.000000000000000000, -1.000000000000000000, 0.000000000000000000 ) ) ;
#929 = CARTESIAN_POINT ( 'NONE',  ( 0.5749999999999999556, 0.5750000000000000666, 0.000000000000000000 ) ) ;
#930 = ADVANCED_FACE ( 'NONE', ( #56 ), #611, .T. ) ;
#931 = STYLED_ITEM ( 'NONE', ( #648 ), #332 ) ;
#932 = VERTEX_POINT ( 'NONE', #346 ) ;
#933 = VECTOR ( 'NONE', #858, 100.0000000000000000 ) ;
#934 = CARTESIAN_POINT ( 'NONE',  ( 0.5749999999999999556, 0.5750000000000000666, 0.000000000000000000 ) ) ;
#935 = DIRECTION ( 'NONE',  ( 0.000000000000000000, 1.000000000000000000, 0.000000000000000000 ) ) ;
#936 = EDGE_LOOP ( 'NONE', ( #709, #21 ) ) ;
#937 =( NAMED_UNIT ( * ) SI_UNIT ( $, .STERADIAN. ) SOLID_ANGLE_UNIT ( ) );
#938 = DIRECTION ( 'NONE',  ( -1.000000000000000000, 0.000000000000000000, 0.000000000000000000 ) ) ;
#939 = CARTESIAN_POINT ( 'NONE',  ( 0.3149999999999997802, 0.3149999999999998912, 10.20000000000000107 ) ) ;
#940 = ORIENTED_EDGE ( 'NONE', *, *, #145, .T. ) ;
#941 = CARTESIAN_POINT ( 'NONE',  ( 0.3149999999999998912, 0.2400000000000000744, 2.630000000000000338 ) ) ;
#942 = CARTESIAN_POINT ( 'NONE',  ( 0.5749999999999999556, 0.5750000000000000666, 5.000000000000000000 ) ) ;
#943 = EDGE_CURVE ( 'NONE', #453, #1165, #256, .T. ) ;
#944 = LINE ( 'NONE', #764, #620 ) ;
#945 = LINE ( 'NONE', #866, #314 ) ;
#946 = VERTEX_POINT ( 'NONE', #534 ) ;
#947 = FILL_AREA_STYLE_COLOUR ( '', #253 ) ;
#948 = VECTOR ( 'NONE', #61, 100.0000000000000000 ) ;
#949 = DIRECTION ( 'NONE',  ( 0.000000000000000000, -1.000000000000000000, 0.000000000000000000 ) ) ;
#950 = EDGE_CURVE ( 'NONE', #357, #1142, #72, .T. ) ;
#951 = DIRECTION ( 'NONE',  ( 1.000000000000000000, 1.508455196501571429E-16, 0.000000000000000000 ) ) ;
#952 = PRODUCT_CONTEXT ( 'NONE', #395, 'mechanical' ) ;
#953 = EDGE_CURVE ( 'NONE', #1005, #979, #1138, .T. ) ;
#954 = VERTEX_POINT ( 'NONE', #1076 ) ;
#955 = DIRECTION ( 'NONE',  ( -0.000000000000000000, 0.000000000000000000, -1.000000000000000000 ) ) ;
#956 = CARTESIAN_POINT ( 'NONE',  ( 0.2400000000000003797, -0.5749999999999999556, 2.630000000000000338 ) ) ;
#957 = FACE_OUTER_BOUND ( 'NONE', #1155, .T. ) ;
#958 = EDGE_LOOP ( 'NONE', ( #904, #994, #400, #365, #766, #409, #770, #488 ) ) ;
#959 = FACE_OUTER_BOUND ( 'NONE', #233, .T. ) ;
#960 = DIRECTION ( 'NONE',  ( 0.000000000000000000, -1.000000000000000000, 0.000000000000000000 ) ) ;
#961 = LINE ( 'NONE', #242, #259 ) ;
#962 = PRESENTATION_LAYER_ASSIGNMENT (  '', '', ( #907 ) ) ;
#963 =( GEOMETRIC_REPRESENTATION_CONTEXT ( 3 ) GLOBAL_UNCERTAINTY_ASSIGNED_CONTEXT ( ( #1073 ) ) GLOBAL_UNIT_ASSIGNED_CONTEXT ( ( #690, #668, #937 ) ) REPRESENTATION_CONTEXT ( 'NONE', 'WORKASPACE' ) );
#964 = ORIENTED_EDGE ( 'NONE', *, *, #684, .T. ) ;
#965 = CYLINDRICAL_SURFACE ( 'NONE', #141, 0.3049999999999999933 ) ;
#966 = ADVANCED_FACE ( 'NONE', ( #599 ), #965, .F. ) ;
#967 = ORIENTED_EDGE ( 'NONE', *, *, #218, .T. ) ;
#968 = DIRECTION ( 'NONE',  ( 1.000000000000000000, 1.508455196501571676E-16, -0.000000000000000000 ) ) ;
#969 = AXIS2_PLACEMENT_3D ( 'NONE', #450, #918, #844 ) ;
#970 = ADVANCED_FACE ( 'NONE', ( #193, #1087 ), #472, .T. ) ;
#971 = AXIS2_PLACEMENT_3D ( 'NONE', #1114, #1135, #768 ) ;
#972 = CARTESIAN_POINT ( 'NONE',  ( 0.2400000000000003797, 0.5749999999999999556, 5.000000000000000000 ) ) ;
#973 = ORIENTED_EDGE ( 'NONE', *, *, #206, .F. ) ;
#974 = LINE ( 'NONE', #140, #1022 ) ;
#975 = CARTESIAN_POINT ( 'NONE',  ( -0.5750000000000000666, -0.5749999999999999556, 12.00000000000000000 ) ) ;
#976 = DIRECTION ( 'NONE',  ( 1.000000000000000000, -0.000000000000000000, -0.000000000000000000 ) ) ;
#977 = ORIENTED_EDGE ( 'NONE', *, *, #466, .F. ) ;
#978 = CARTESIAN_POINT ( 'NONE',  ( -0.3149999999999998912, -0.2399999999999997691, 2.390000000000000568 ) ) ;
#979 = VERTEX_POINT ( 'NONE', #366 ) ;
#980 = FACE_OUTER_BOUND ( 'NONE', #1010, .T. ) ;
#981 = LINE ( 'NONE', #1053, #548 ) ;
#982 = AXIS2_PLACEMENT_3D ( 'NONE', #838, #445, #464 ) ;
#983 = VERTEX_POINT ( 'NONE', #16 ) ;
#984 = PLANE ( 'NONE',  #295 ) ;
#985 = ORIENTED_EDGE ( 'NONE', *, *, #190, .F. ) ;
#986 = CYLINDRICAL_SURFACE ( 'NONE', #775, 0.2400000000000000189 ) ;
#987 = AXIS2_PLACEMENT_3D ( 'NONE', #113, #643, #87 ) ;
#988 = EDGE_CURVE ( 'NONE', #426, #872, #1128, .T. ) ;
#989 = STYLED_ITEM ( 'NONE', ( #1056 ), #587 ) ;
#990 = EDGE_LOOP ( 'NONE', ( #342, #689, #827, #588 ) ) ;
#991 = DIRECTION ( 'NONE',  ( 1.000000000000000000, 0.000000000000000000, 0.000000000000000000 ) ) ;
#992 = EDGE_LOOP ( 'NONE', ( #248, #667, #1061, #89 ) ) ;
#993 = FACE_OUTER_BOUND ( 'NONE', #1112, .T. ) ;
#994 = ORIENTED_EDGE ( 'NONE', *, *, #650, .T. ) ;
#995 = CARTESIAN_POINT ( 'NONE',  ( 0.000000000000000000, 0.000000000000000000, 12.00000000000000000 ) ) ;
#996 = ORIENTED_EDGE ( 'NONE', *, *, #943, .T. ) ;
#997 = ORIENTED_EDGE ( 'NONE', *, *, #1020, .F. ) ;
#998 = CARTESIAN_POINT ( 'NONE',  ( 0.000000000000000000, -0.3049999999999999933, 11.39999999999999858 ) ) ;
#999 = STYLED_ITEM ( 'NONE', ( #410 ), #830 ) ;
#1000 = ORIENTED_EDGE ( 'NONE', *, *, #94, .T. ) ;
#1001 = EDGE_CURVE ( 'NONE', #75, #781, #555, .T. ) ;
#1002 = DIRECTION ( 'NONE',  ( -0.000000000000000000, 0.000000000000000000, -1.000000000000000000 ) ) ;
#1003 = DIRECTION ( 'NONE',  ( 9.035018104045874392E-17, -1.000000000000000000, 0.000000000000000000 ) ) ;
#1004 = ADVANCED_FACE ( 'NONE', ( #3 ), #821, .F. ) ;
#1005 = VERTEX_POINT ( 'NONE', #198 ) ;
#1006 = PRESENTATION_LAYER_ASSIGNMENT (  '', '', ( #931 ) ) ;
#1007 = DIRECTION ( 'NONE',  ( 0.000000000000000000, -1.000000000000000000, 0.000000000000000000 ) ) ;
#1008 = ORIENTED_EDGE ( 'NONE', *, *, #515, .F. ) ;
#1009 = FILL_AREA_STYLE ('',( #18 ) ) ;
#1010 = EDGE_LOOP ( 'NONE', ( #856, #706, #638, #349, #783, #580 ) ) ;
#1011 = PLANE ( 'NONE',  #1042 ) ;
#1012 = ORIENTED_EDGE ( 'NONE', *, *, #528, .T. ) ;
#1013 = DIRECTION ( 'NONE',  ( -1.000000000000000000, -1.508455196501571676E-16, 0.000000000000000000 ) ) ;
#1014 = CARTESIAN_POINT ( 'NONE',  ( 0.000000000000000000, -0.2399999999999997691, 5.000000000000000000 ) ) ;
#1015 = ORIENTED_EDGE ( 'NONE', *, *, #1068, .F. ) ;
#1016 = DIRECTION ( 'NONE',  ( 0.000000000000000000, 1.000000000000000000, 0.000000000000000000 ) ) ;
#1017 = ORIENTED_EDGE ( 'NONE', *, *, #191, .T. ) ;
#1018 = VECTOR ( 'NONE', #514, 100.0000000000000000 ) ;
#1019 = DIRECTION ( 'NONE',  ( 0.000000000000000000, 0.1429607626552377997, -0.9897283568439537715 ) ) ;
#1020 = EDGE_CURVE ( 'NONE', #932, #75, #1110, .T. ) ;
#1021 = DIRECTION ( 'NONE',  ( -0.1415218808486789492, 0.1415218808486787549, -0.9797668674139294875 ) ) ;
#1022 = VECTOR ( 'NONE', #68, 100.0000000000000000 ) ;
#1023 = VECTOR ( 'NONE', #341, 100.0000000000000000 ) ;
#1024 = VERTEX_POINT ( 'NONE', #929 ) ;
#1025 = DIRECTION ( 'NONE',  ( 0.000000000000000000, 0.000000000000000000, 1.000000000000000000 ) ) ;
#1026 = DIRECTION ( 'NONE',  ( 0.000000000000000000, 0.000000000000000000, -1.000000000000000000 ) ) ;
#1027 = EDGE_LOOP ( 'NONE', ( #228, #530 ) ) ;
#1028 = DIRECTION ( 'NONE',  ( 8.340016711426955288E-17, -1.000000000000000000, -0.000000000000000000 ) ) ;
#1029 = EDGE_CURVE ( 'NONE', #375, #880, #645, .T. ) ;
#1030 = CARTESIAN_POINT ( 'NONE',  ( -0.2399999999999996303, 0.000000000000000000, 5.000000000000000000 ) ) ;
#1031 = ORIENTED_EDGE ( 'NONE', *, *, #713, .F. ) ;
#1032 = CYLINDRICAL_SURFACE ( 'NONE', #853, 0.3049999999999999933 ) ;
#1033 = EDGE_CURVE ( 'NONE', #872, #426, #372, .T. ) ;
#1034 = DIRECTION ( 'NONE',  ( 0.000000000000000000, -1.000000000000000000, 0.000000000000000000 ) ) ;
#1035 = DIRECTION ( 'NONE',  ( 0.000000000000000000, 1.000000000000000000, 0.000000000000000000 ) ) ;
#1036 = DIRECTION ( 'NONE',  ( 0.000000000000000000, 1.000000000000000000, 0.000000000000000000 ) ) ;
#1037 = ORIENTED_EDGE ( 'NONE', *, *, #47, .T. ) ;
#1038 = VECTOR ( 'NONE', #991, 100.0000000000000000 ) ;
#1039 = AXIS2_PLACEMENT_3D ( 'NONE', #541, #888, #247 ) ;
#1040 = LINE ( 'NONE', #486, #933 ) ;
#1041 = AXIS2_PLACEMENT_3D ( 'NONE', #596, #960, #575 ) ;
#1042 = AXIS2_PLACEMENT_3D ( 'NONE', #96, #834, #10 ) ;
#1043 = FACE_OUTER_BOUND ( 'NONE', #181, .T. ) ;
#1044 = CARTESIAN_POINT ( 'NONE',  ( 0.3149999999999997802, -0.3149999999999999467, 5.000000000000000000 ) ) ;
#1045 = ORIENTED_EDGE ( 'NONE', *, *, #1117, .T. ) ;
#1046 = FACE_OUTER_BOUND ( 'NONE', #1106, .T. ) ;
#1047 = ADVANCED_FACE ( 'NONE', ( #922 ), #1011, .T. ) ;
#1048 = DIRECTION ( 'NONE',  ( -0.000000000000000000, 0.000000000000000000, -1.000000000000000000 ) ) ;
#1049 = VERTEX_POINT ( 'NONE', #1169 ) ;
#1050 = EDGE_CURVE ( 'NONE', #197, #174, #905, .T. ) ;
#1051 = ORIENTED_EDGE ( 'NONE', *, *, #747, .F. ) ;
#1052 = DIRECTION ( 'NONE',  ( -1.000000000000000000, 0.000000000000000000, 0.000000000000000000 ) ) ;
#1053 = CARTESIAN_POINT ( 'NONE',  ( 0.5750000000000000666, -0.5749999999999999556, 5.000000000000000000 ) ) ;
#1054 = ORIENTED_EDGE ( 'NONE', *, *, #1033, .T. ) ;
#1055 = DIRECTION ( 'NONE',  ( -0.000000000000000000, 0.000000000000000000, -1.000000000000000000 ) ) ;
#1056 = PRESENTATION_STYLE_ASSIGNMENT (( #629 ) ) ;
#1057 = VECTOR ( 'NONE', #1035, 100.0000000000000000 ) ;
#1058 = VECTOR ( 'NONE', #1007, 100.0000000000000000 ) ;
#1059 = VECTOR ( 'NONE', #976, 100.0000000000000000 ) ;
#1060 = CARTESIAN_POINT ( 'NONE',  ( -0.2399999999999996858, 0.5749999999999999556, 2.630000000000000338 ) ) ;
#1061 = ORIENTED_EDGE ( 'NONE', *, *, #407, .F. ) ;
#1062 = DIRECTION ( 'NONE',  ( 0.000000000000000000, 0.000000000000000000, 1.000000000000000000 ) ) ;
#1063 = DIRECTION ( 'NONE',  ( 0.000000000000000000, 0.000000000000000000, -1.000000000000000000 ) ) ;
#1064 = DIRECTION ( 'NONE',  ( -0.000000000000000000, 0.000000000000000000, -1.000000000000000000 ) ) ;
#1065 = ORIENTED_EDGE ( 'NONE', *, *, #883, .F. ) ;
#1066 = DIRECTION ( 'NONE',  ( 1.508455196501571676E-16, -1.000000000000000000, 0.000000000000000000 ) ) ;
#1067 = DIRECTION ( 'NONE',  ( -1.000000000000000000, -1.508455196501571676E-16, -0.000000000000000000 ) ) ;
#1068 = EDGE_CURVE ( 'NONE', #895, #685, #356, .T. ) ;
#1069 = EDGE_CURVE ( 'NONE', #872, #351, #378, .T. ) ;
#1070 = VERTEX_POINT ( 'NONE', #84 ) ;
#1071 = CARTESIAN_POINT ( 'NONE',  ( 0.5749999999999999556, 0.5750000000000000666, 5.000000000000000000 ) ) ;
#1072 = CARTESIAN_POINT ( 'NONE',  ( 0.000000000000000000, 0.000000000000000000, 5.000000000000000000 ) ) ;
#1073 = UNCERTAINTY_MEASURE_WITH_UNIT (LENGTH_MEASURE( 1.000000000000000082E-05 ), #690, 'distance_accuracy_value', 'NONE');
#1074 = MECHANICAL_DESIGN_GEOMETRIC_PRESENTATION_REPRESENTATION (  '', ( #931 ), #663 ) ;
#1075 = ORIENTED_EDGE ( 'NONE', *, *, #950, .F. ) ;
#1076 = CARTESIAN_POINT ( 'NONE',  ( 3.735172737399427023E-17, -0.3049999999999999933, 1.899999999999999911 ) ) ;
#1077 = EDGE_CURVE ( 'NONE', #802, #147, #748, .T. ) ;
#1078 = ORIENTED_EDGE ( 'NONE', *, *, #447, .T. ) ;
#1079 = DIRECTION ( 'NONE',  ( 1.000000000000000000, 0.000000000000000000, 0.000000000000000000 ) ) ;
#1080 = ADVANCED_FACE ( 'NONE', ( #627, #725 ), #544, .T. ) ;
#1081 = FILL_AREA_STYLE ('',( #820 ) ) ;
#1082 = DIRECTION ( 'NONE',  ( -1.000000000000000000, 9.035018104045874392E-17, -0.000000000000000000 ) ) ;
#1083 = ORIENTED_EDGE ( 'NONE', *, *, #785, .T. ) ;
#1084 = CARTESIAN_POINT ( 'NONE',  ( 0.3149999999999998912, 1.517883041479706208E-16, 2.630000000000000338 ) ) ;
#1085 = CARTESIAN_POINT ( 'NONE',  ( 0.000000000000000000, -0.3049999999999999933, 12.00000000000000000 ) ) ;
#1086 = ORIENTED_EDGE ( 'NONE', *, *, #988, .F. ) ;
#1087 = FACE_OUTER_BOUND ( 'NONE', #992, .T. ) ;
#1088 = MECHANICAL_DESIGN_GEOMETRIC_PRESENTATION_REPRESENTATION (  '', ( #999 ), #963 ) ;
#1089 = ORIENTED_EDGE ( 'NONE', *, *, #306, .F. ) ;
#1090 = SURFACE_STYLE_FILL_AREA ( #729 ) ;
#1091 = PLANE ( 'NONE',  #1146 ) ;
#1092 = AXIS2_PLACEMENT_3D ( 'NONE', #504, #1136, #236 ) ;
#1093 = EDGE_LOOP ( 'NONE', ( #261, #624, #923, #156 ) ) ;
#1094 = VECTOR ( 'NONE', #617, 100.0000000000000000 ) ;
#1095 = CARTESIAN_POINT ( 'NONE',  ( -0.5749999999999999556, -0.2399999999999997691, 2.630000000000000338 ) ) ;
#1096 = ORIENTED_EDGE ( 'NONE', *, *, #312, .F. ) ;
#1097 = FACE_OUTER_BOUND ( 'NONE', #958, .T. ) ;
#1098 = EDGE_CURVE ( 'NONE', #1070, #693, #187, .T. ) ;
#1099 = ORIENTED_EDGE ( 'NONE', *, *, #1029, .F. ) ;
#1100 = DIRECTION ( 'NONE',  ( -1.000000000000000000, -0.000000000000000000, -0.000000000000000000 ) ) ;
#1101 = ORIENTED_EDGE ( 'NONE', *, *, #348, .T. ) ;
#1102 = CYLINDRICAL_SURFACE ( 'NONE', #982, 0.2399999999999999356 ) ;
#1103 = CARTESIAN_POINT ( 'NONE',  ( -0.2399999999999996303, 0.5749999999999999556, 5.000000000000000000 ) ) ;
#1104 = ADVANCED_FACE ( 'NONE', ( #636 ), #1164, .F. ) ;
#1105 = DIRECTION ( 'NONE',  ( 0.1429607626552379940, 0.000000000000000000, 0.9897283568439537715 ) ) ;
#1106 = EDGE_LOOP ( 'NONE', ( #1158, #437, #796, #92 ) ) ;
#1107 = SURFACE_SIDE_STYLE ('',( #1090 ) ) ;
#1108 = SURFACE_STYLE_USAGE ( .BOTH. , #370 ) ;
#1109 = CARTESIAN_POINT ( 'NONE',  ( -0.3150000000000004463, -0.3150000000000006128, 10.20000000000000995 ) ) ;
#1110 = CIRCLE ( 'NONE', #759, 0.2399999999999999356 ) ;
#1111 = CIRCLE ( 'NONE', #317, 0.2399999999999999911 ) ;
#1112 = EDGE_LOOP ( 'NONE', ( #867, #721, #44, #997 ) ) ;
#1113 = EDGE_CURVE ( 'NONE', #946, #1148, #303, .T. ) ;
#1114 = CARTESIAN_POINT ( 'NONE',  ( 3.686287386450715076E-16, 0.3149999999999998912, 2.630000000000000338 ) ) ;
#1115 = CARTESIAN_POINT ( 'NONE',  ( -0.3149999999999998912, -0.3149999999999999467, 10.20000000000000107 ) ) ;
#1116 = CARTESIAN_POINT ( 'NONE',  ( 0.000000000000000000, 0.000000000000000000, 0.000000000000000000 ) ) ;
#1117 = EDGE_CURVE ( 'NONE', #415, #714, #637, .T. ) ;
#1118 = ORIENTED_EDGE ( 'NONE', *, *, #425, .T. ) ;
#1119 = CARTESIAN_POINT ( 'NONE',  ( 0.000000000000000000, 0.000000000000000000, 11.39999999999999858 ) ) ;
#1120 = LINE ( 'NONE', #602, #623 ) ;
#1121 = APPLICATION_PROTOCOL_DEFINITION ( 'draft international standard', 'automotive_design', 1998, #277 ) ;
#1122 = ORIENTED_EDGE ( 'NONE', *, *, #1098, .T. ) ;
#1123 = PLANE ( 'NONE',  #695 ) ;
#1124 = DIRECTION ( 'NONE',  ( -0.000000000000000000, 0.000000000000000000, -1.000000000000000000 ) ) ;
#1125 = PLANE ( 'NONE',  #698 ) ;
#1126 = EDGE_LOOP ( 'NONE', ( #964, #554, #362, #1015 ) ) ;
#1127 = DIRECTION ( 'NONE',  ( 0.000000000000000000, 0.000000000000000000, -1.000000000000000000 ) ) ;
#1128 = CIRCLE ( 'NONE', #712, 0.3049999999999999933 ) ;
#1129 = CARTESIAN_POINT ( 'NONE',  ( -0.2399999999999996303, -0.3149999999999998912, 2.390000000000000568 ) ) ;
#1130 = CIRCLE ( 'NONE', #839, 0.3049999999999999933 ) ;
#1131 = EDGE_CURVE ( 'NONE', #946, #917, #849, .T. ) ;
#1132 = CARTESIAN_POINT ( 'NONE',  ( 0.5749999999999999556, 0.5750000000000000666, 5.000000000000000000 ) ) ;
#1133 = ORIENTED_EDGE ( 'NONE', *, *, #622, .T. ) ;
#1134 = PLANE ( 'NONE',  #24 ) ;
#1135 = DIRECTION ( 'NONE',  ( -0.000000000000000000, 1.000000000000000000, -0.000000000000000000 ) ) ;
#1136 = DIRECTION ( 'NONE',  ( -1.508455196501571676E-16, 1.000000000000000000, 0.000000000000000000 ) ) ;
#1137 = ORIENTED_EDGE ( 'NONE', *, *, #613, .F. ) ;
#1138 = LINE ( 'NONE', #350, #219 ) ;
#1139 = ORIENTED_EDGE ( 'NONE', *, *, #1077, .F. ) ;
#1140 = PRESENTATION_LAYER_ASSIGNMENT (  '', '', ( #999 ) ) ;
#1141 = DIRECTION ( 'NONE',  ( 0.000000000000000000, 0.000000000000000000, 1.000000000000000000 ) ) ;
#1142 = VERTEX_POINT ( 'NONE', #579 ) ;
#1143 = DIRECTION ( 'NONE',  ( 0.000000000000000000, 0.000000000000000000, 1.000000000000000000 ) ) ;
#1144 = AXIS2_PLACEMENT_3D ( 'NONE', #550, #90, #454 ) ;
#1145 = DIRECTION ( 'NONE',  ( 0.000000000000000000, 0.000000000000000000, -1.000000000000000000 ) ) ;
#1146 = AXIS2_PLACEMENT_3D ( 'NONE', #269, #634, #1003 ) ;
#1147 = CARTESIAN_POINT ( 'NONE',  ( 0.000000000000000000, 0.3049999999999999933, 1.899999999999999911 ) ) ;
#1148 = VERTEX_POINT ( 'NONE', #1044 ) ;
#1149 = DIRECTION ( 'NONE',  ( 0.1415218808486789215, -0.1415218808486787827, -0.9797668674139294875 ) ) ;
#1150 = EDGE_CURVE ( 'NONE', #116, #385, #871, .T. ) ;
#1151 = DIRECTION ( 'NONE',  ( 0.000000000000000000, 0.000000000000000000, 1.000000000000000000 ) ) ;
#1152 = PRODUCT_DEFINITION_CONTEXT ( 'detailed design', #277, 'design' ) ;
#1153 = ORIENTED_EDGE ( 'NONE', *, *, #943, .F. ) ;
#1154 = DIRECTION ( 'NONE',  ( 0.000000000000000000, -1.000000000000000000, 0.000000000000000000 ) ) ;
#1155 = EDGE_LOOP ( 'NONE', ( #653, #632, #644, #330, #539, #535, #612, #996 ) ) ;
#1156 = EDGE_LOOP ( 'NONE', ( #77, #845, #431, #9 ) ) ;
#1157 = DIRECTION ( 'NONE',  ( 1.000000000000000000, 8.340016711426955288E-17, 0.000000000000000000 ) ) ;
#1158 = ORIENTED_EDGE ( 'NONE', *, *, #650, .F. ) ;
#1159 = EDGE_CURVE ( 'NONE', #1142, #174, #945, .T. ) ;
#1160 = STYLED_ITEM ( 'NONE', ( #83 ), #4 ) ;
#1161 = EDGE_CURVE ( 'NONE', #379, #420, #398, .T. ) ;
#1162 = VECTOR ( 'NONE', #381, 100.0000000000000000 ) ;
#1163 = ORIENTED_EDGE ( 'NONE', *, *, #622, .F. ) ;
#1164 = PLANE ( 'NONE',  #1144 ) ;
#1165 = VERTEX_POINT ( 'NONE', #765 ) ;
#1166 = CARTESIAN_POINT ( 'NONE',  ( -0.2399999999999996303, -0.3149999999999998912, 2.630000000000000338 ) ) ;
#1167 = CARTESIAN_POINT ( 'NONE',  ( -0.5749999999999999556, 0.2400000000000000744, 2.630000000000000338 ) ) ;
#1168 = SURFACE_STYLE_USAGE ( .BOTH. , #630 ) ;
#1169 = CARTESIAN_POINT ( 'NONE',  ( -0.3149999999999998912, -0.2399999999999997691, 5.000000000000000000 ) ) ;
#1170 = ORIENTED_EDGE ( 'NONE', *, *, #863, .T. ) ;
#1171 = DIRECTION ( 'NONE',  ( 0.000000000000000000, -1.000000000000000000, 0.000000000000000000 ) ) ;
ENDSEC;
END-ISO-10303-21;
