ISO-10303-21;
HEADER;
FILE_DESCRIPTION (( 'STEP AP214' ),
    '1' );
FILE_NAME ('ramp-wall-lower-hole_60.STEP',
    '2026-06-10T13:07:13',
    ( '' ),
    ( '' ),
    'SwSTEP 2.0',
    'SolidWorks 2023',
    '' );
FILE_SCHEMA (( 'AUTOMOTIVE_DESIGN' ));
ENDSEC;

DATA;
#1 = ADVANCED_FACE ( 'NONE', ( #7 ), #150, .F. ) ;
#2 = DIRECTION ( 'NONE',  ( -1.000000000000000000, 0.000000000000000000, -2.139492287038061508E-16 ) ) ;
#3 = VECTOR ( 'NONE', #83, 100.0000000000000000 ) ;
#4 = APPLICATION_CONTEXT ( 'automotive_design' ) ;
#5 = CARTESIAN_POINT ( 'NONE',  ( 0.000000000000000000, 0.000000000000000000, 0.000000000000000000 ) ) ;
#6 = APPLICATION_PROTOCOL_DEFINITION ( 'draft international standard', 'automotive_design', 1998, #4 ) ;
#7 = FACE_OUTER_BOUND ( 'NONE', #278, .T. ) ;
#8 = LINE ( 'NONE', #431, #429 ) ;
#9 =( LENGTH_UNIT ( ) NAMED_UNIT ( * ) SI_UNIT ( .CENTI., .METRE. ) );
#10 = CARTESIAN_POINT ( 'NONE',  ( 0.000000000000000000, 0.000000000000000000, 5.000000000000000000 ) ) ;
#11 = EDGE_CURVE ( 'NONE', #463, #356, #124, .T. ) ;
#12 = AXIS2_PLACEMENT_3D ( 'NONE', #380, #61, #244 ) ;
#13 = DIRECTION ( 'NONE',  ( 0.000000000000000000, -1.000000000000000000, 0.000000000000000000 ) ) ;
#14 = EDGE_LOOP ( 'NONE', ( #66, #539, #94, #394 ) ) ;
#15 = CARTESIAN_POINT ( 'NONE',  ( 0.2499999999999946709, 0.5999999999999999778, 2.395000000000004015 ) ) ;
#16 = DIRECTION ( 'NONE',  ( -2.465190328815661892E-32, 0.000000000000000000, 1.000000000000000000 ) ) ;
#17 = ORIENTED_EDGE ( 'NONE', *, *, #417, .F. ) ;
#18 = CARTESIAN_POINT ( 'NONE',  ( -2.395000000000002682, 0.5999999999999999778, 5.000000000000000000 ) ) ;
#19 = CARTESIAN_POINT ( 'NONE',  ( -2.695000000000001616, 0.5999999999999999778, 3.100000000000000089 ) ) ;
#20 = ORIENTED_EDGE ( 'NONE', *, *, #222, .F. ) ;
#21 = CARTESIAN_POINT ( 'NONE',  ( -2.395000000000002682, 0.5999999999999999778, 3.100000000000000089 ) ) ;
#22 = CIRCLE ( 'NONE', #383, 0.2999999999999996003 ) ;
#23 = VECTOR ( 'NONE', #110, 100.0000000000000142 ) ;
#24 = ORIENTED_EDGE ( 'NONE', *, *, #85, .F. ) ;
#25 = CARTESIAN_POINT ( 'NONE',  ( -7.500000000000000000, 0.000000000000000000, 5.000000000000002665 ) ) ;
#26 = CYLINDRICAL_SURFACE ( 'NONE', #126, 0.2999999999999996003 ) ;
#27 = VERTEX_POINT ( 'NONE', #216 ) ;
#28 = DIRECTION ( 'NONE',  ( -0.2302195854387859841, 0.000000000000000000, 0.9731387067013589354 ) ) ;
#29 = EDGE_CURVE ( 'NONE', #349, #295, #60, .T. ) ;
#30 = EDGE_LOOP ( 'NONE', ( #367, #147, #572, #293, #248 ) ) ;
#31 = CARTESIAN_POINT ( 'NONE',  ( -2.095000000000002416, 0.5999999999999999778, 5.000000000000000000 ) ) ;
#32 = VECTOR ( 'NONE', #272, 100.0000000000000000 ) ;
#33 = ORIENTED_EDGE ( 'NONE', *, *, #503, .F. ) ;
#34 = CARTESIAN_POINT ( 'NONE',  ( 0.000000000000000000, 1.199999999999999956, 5.000000000000000000 ) ) ;
#35 = CARTESIAN_POINT ( 'NONE',  ( -2.395000000000002682, 0.5999999999999999778, 3.100000000000000089 ) ) ;
#36 = ORIENTED_EDGE ( 'NONE', *, *, #104, .T. ) ;
#37 = EDGE_CURVE ( 'NONE', #519, #208, #571, .T. ) ;
#38 = LINE ( 'NONE', #403, #163 ) ;
#39 = DIRECTION ( 'NONE',  ( 0.000000000000000000, 0.000000000000000000, 1.000000000000000000 ) ) ;
#40 = ADVANCED_BREP_SHAPE_REPRESENTATION ( 'ramp-wall-lower-hole_60', ( #146, #484 ), #454 ) ;
#41 = ORIENTED_EDGE ( 'NONE', *, *, #346, .T. ) ;
#42 = UNCERTAINTY_MEASURE_WITH_UNIT (LENGTH_MEASURE( 1.000000000000000082E-05 ), #327, 'distance_accuracy_value', 'NONE');
#43 = CARTESIAN_POINT ( 'NONE',  ( 0.2499999999999946709, 0.5999999999999999778, 2.395000000000004015 ) ) ;
#44 = DIRECTION ( 'NONE',  ( 1.000000000000000000, 0.000000000000000000, 0.000000000000000000 ) ) ;
#45 = ORIENTED_EDGE ( 'NONE', *, *, #324, .T. ) ;
#46 = AXIS2_PLACEMENT_3D ( 'NONE', #122, #446, #352 ) ;
#47 = DIRECTION ( 'NONE',  ( 1.000000000000000000, 0.000000000000000000, 1.272130549049658700E-16 ) ) ;
#48 = AXIS2_PLACEMENT_3D ( 'NONE', #10, #496, #13 ) ;
#49 = VECTOR ( 'NONE', #529, 100.0000000000000000 ) ;
#50 = CYLINDRICAL_SURFACE ( 'NONE', #604, 0.2999999999999996558 ) ;
#51 = ADVANCED_FACE ( 'NONE', ( #382 ), #243, .F. ) ;
#52 =( NAMED_UNIT ( * ) SI_UNIT ( $, .STERADIAN. ) SOLID_ANGLE_UNIT ( ) );
#53 = ADVANCED_FACE ( 'NONE', ( #449 ), #213, .T. ) ;
#54 = PRESENTATION_STYLE_ASSIGNMENT (( #285 ) ) ;
#55 = VECTOR ( 'NONE', #292, 100.0000000000000000 ) ;
#56 = CIRCLE ( 'NONE', #115, 0.2999999999999996003 ) ;
#57 = ORIENTED_EDGE ( 'NONE', *, *, #517, .T. ) ;
#58 = DIRECTION ( 'NONE',  ( -1.000000000000000000, 0.000000000000000000, 0.000000000000000000 ) ) ;
#59 = ADVANCED_FACE ( 'NONE', ( #337 ), #525, .T. ) ;
#60 = LINE ( 'NONE', #593, #297 ) ;
#61 = DIRECTION ( 'NONE',  ( -0.000000000000000000, 1.000000000000000000, 0.000000000000000000 ) ) ;
#62 = LINE ( 'NONE', #242, #364 ) ;
#63 = CARTESIAN_POINT ( 'NONE',  ( -26.00442839046256438, 0.000000000000000000, -6.211122400498123142 ) ) ;
#64 = EDGE_LOOP ( 'NONE', ( #218, #342, #584, #36 ) ) ;
#65 = CARTESIAN_POINT ( 'NONE',  ( 0.000000000000000000, 0.8049999999999999378, 0.000000000000000000 ) ) ;
#66 = ORIENTED_EDGE ( 'NONE', *, *, #402, .F. ) ;
#67 = CYLINDRICAL_SURFACE ( 'NONE', #175, 0.2999999999999996558 ) ;
#68 = ADVANCED_FACE ( 'NONE', ( #177 ), #540, .F. ) ;
#69 = VERTEX_POINT ( 'NONE', #79 ) ;
#70 = FACE_OUTER_BOUND ( 'NONE', #528, .T. ) ;
#71 = EDGE_LOOP ( 'NONE', ( #189, #320, #493, #413, #549, #257, #245, #534 ) ) ;
#72 = EDGE_CURVE ( 'NONE', #182, #430, #265, .T. ) ;
#73 = DIRECTION ( 'NONE',  ( 1.000000000000000000, 0.000000000000000000, 0.000000000000000000 ) ) ;
#74 = CIRCLE ( 'NONE', #467, 0.2999999999999994893 ) ;
#75 = ORIENTED_EDGE ( 'NONE', *, *, #37, .F. ) ;
#76 = EDGE_CURVE ( 'NONE', #362, #430, #567, .T. ) ;
#77 = CARTESIAN_POINT ( 'NONE',  ( -9.280826643446893343, 0.5999999999999999778, -3.469446951953614189E-16 ) ) ;
#78 = ORIENTED_EDGE ( 'NONE', *, *, #160, .F. ) ;
#79 = CARTESIAN_POINT ( 'NONE',  ( -5.551115123125782702E-15, 0.8049999999999999378, 2.395000000000004015 ) ) ;
#80 = CARTESIAN_POINT ( 'NONE',  ( -9.280826643446893343, 0.5999999999999999778, -3.469446951953614189E-16 ) ) ;
#81 = EDGE_CURVE ( 'NONE', #445, #362, #478, .T. ) ;
#82 = ORIENTED_EDGE ( 'NONE', *, *, #533, .F. ) ;
#83 = DIRECTION ( 'NONE',  ( -2.262257333030263515E-15, 0.000000000000000000, 1.000000000000000000 ) ) ;
#84 = CARTESIAN_POINT ( 'NONE',  ( 0.000000000000000000, 0.8049999999999999378, 0.000000000000000000 ) ) ;
#85 = EDGE_CURVE ( 'NONE', #111, #127, #95, .T. ) ;
#86 = VECTOR ( 'NONE', #223, 100.0000000000000000 ) ;
#87 = ORIENTED_EDGE ( 'NONE', *, *, #195, .T. ) ;
#88 = LINE ( 'NONE', #139, #86 ) ;
#89 = LINE ( 'NONE', #144, #495 ) ;
#90 = ORIENTED_EDGE ( 'NONE', *, *, #284, .F. ) ;
#91 = PRODUCT ( 'ramp-wall-lower-hole_60', 'ramp-wall-lower-hole_60', '', ( #420 ) ) ;
#92 = CARTESIAN_POINT ( 'NONE',  ( -27.47382017840123325, 1.199999999999999956, -5.551115123125782702E-15 ) ) ;
#93 = DIRECTION ( 'NONE',  ( 0.000000000000000000, 0.000000000000000000, 1.000000000000000000 ) ) ;
#94 = ORIENTED_EDGE ( 'NONE', *, *, #114, .T. ) ;
#95 = LINE ( 'NONE', #555, #589 ) ;
#96 = CYLINDRICAL_SURFACE ( 'NONE', #354, 0.2999999999999996003 ) ;
#97 = CARTESIAN_POINT ( 'NONE',  ( 0.000000000000000000, 0.5999999999999999778, 2.395000000000003570 ) ) ;
#98 = AXIS2_PLACEMENT_3D ( 'NONE', #149, #564, #526 ) ;
#99 = EDGE_CURVE ( 'NONE', #498, #130, #458, .T. ) ;
#100 = ORIENTED_EDGE ( 'NONE', *, *, #209, .T. ) ;
#101 = DIRECTION ( 'NONE',  ( 0.000000000000000000, 0.000000000000000000, -1.000000000000000000 ) ) ;
#102 = FACE_OUTER_BOUND ( 'NONE', #116, .T. ) ;
#103 = ORIENTED_EDGE ( 'NONE', *, *, #361, .T. ) ;
#104 = EDGE_CURVE ( 'NONE', #69, #301, #411, .T. ) ;
#105 =( NAMED_UNIT ( * ) SI_UNIT ( $, .STERADIAN. ) SOLID_ANGLE_UNIT ( ) );
#106 = VECTOR ( 'NONE', #381, 100.0000000000000000 ) ;
#107 = CARTESIAN_POINT ( 'NONE',  ( 0.000000000000000000, 0.000000000000000000, 5.000000000000000000 ) ) ;
#108 = CARTESIAN_POINT ( 'NONE',  ( -26.00442839046255727, 1.199999999999999956, -6.211122400498121365 ) ) ;
#109 = ORIENTED_EDGE ( 'NONE', *, *, #319, .F. ) ;
#110 = DIRECTION ( 'NONE',  ( -0.2302195854387859286, 0.000000000000000000, 0.9731387067013588243 ) ) ;
#111 = VERTEX_POINT ( 'NONE', #134 ) ;
#112 = DIRECTION ( 'NONE',  ( 0.000000000000000000, 0.000000000000000000, 1.000000000000000000 ) ) ;
#113 = LINE ( 'NONE', #586, #514 ) ;
#114 = EDGE_CURVE ( 'NONE', #554, #602, #279, .T. ) ;
#115 = AXIS2_PLACEMENT_3D ( 'NONE', #18, #253, #159 ) ;
#116 = EDGE_LOOP ( 'NONE', ( #507, #314, #474, #582, #137, #158, #485, #339 ) ) ;
#117 = LINE ( 'NONE', #492, #568 ) ;
#118 = EDGE_LOOP ( 'NONE', ( #252, #206, #225, #185 ) ) ;
#119 = CARTESIAN_POINT ( 'NONE',  ( -0.8950000000000013500, 0.5999999999999999778, 3.100000000000000533 ) ) ;
#120 = ORIENTED_EDGE ( 'NONE', *, *, #332, .T. ) ;
#121 = EDGE_CURVE ( 'NONE', #576, #399, #328, .T. ) ;
#122 = CARTESIAN_POINT ( 'NONE',  ( -15.00000000000000178, 1.199999999999999956, 2.499999999999998224 ) ) ;
#123 = CARTESIAN_POINT ( 'NONE',  ( -9.897388286579776207, 1.127570259384924611E-15, -3.469446951953614189E-16 ) ) ;
#124 = CIRCLE ( 'NONE', #249, 0.2999999999999994893 ) ;
#125 = AXIS2_PLACEMENT_3D ( 'NONE', #326, #512, #191 ) ;
#126 = AXIS2_PLACEMENT_3D ( 'NONE', #21, #345, #341 ) ;
#127 = VERTEX_POINT ( 'NONE', #235 ) ;
#128 = DIRECTION ( 'NONE',  ( 0.9731387067013589354, -2.383957853025511309E-15, 0.2302195854387860396 ) ) ;
#129 = CARTESIAN_POINT ( 'NONE',  ( -15.00000000000000178, 0.8049999999999999378, 2.499999999999998224 ) ) ;
#130 = VERTEX_POINT ( 'NONE', #186 ) ;
#131 = CARTESIAN_POINT ( 'NONE',  ( 0.000000000000000000, 0.000000000000000000, 5.000000000000000000 ) ) ;
#132 = FACE_BOUND ( 'NONE', #500, .T. ) ;
#133 = EDGE_LOOP ( 'NONE', ( #590, #103, #595, #109 ) ) ;
#134 = CARTESIAN_POINT ( 'NONE',  ( 0.2499999999999946709, 0.8049999999999999378, 2.395000000000004015 ) ) ;
#135 = CARTESIAN_POINT ( 'NONE',  ( 0.2499999999999946709, 0.3950000000000000178, 3.816391647148975608E-15 ) ) ;
#136 =( GEOMETRIC_REPRESENTATION_CONTEXT ( 3 ) GLOBAL_UNCERTAINTY_ASSIGNED_CONTEXT ( ( #42 ) ) GLOBAL_UNIT_ASSIGNED_CONTEXT ( ( #327, #418, #282 ) ) REPRESENTATION_CONTEXT ( 'NONE', 'WORKASPACE' ) );
#137 = ORIENTED_EDGE ( 'NONE', *, *, #517, .F. ) ;
#138 = VECTOR ( 'NONE', #164, 100.0000000000000000 ) ;
#139 = CARTESIAN_POINT ( 'NONE',  ( 0.000000000000000000, 0.000000000000000000, 5.000000000000000000 ) ) ;
#140 = UNCERTAINTY_MEASURE_WITH_UNIT (LENGTH_MEASURE( 1.000000000000000082E-05 ), #9, 'distance_accuracy_value', 'NONE');
#141 = FACE_OUTER_BOUND ( 'NONE', #490, .T. ) ;
#142 = EDGE_LOOP ( 'NONE', ( #24, #171, #179, #57 ) ) ;
#143 = CARTESIAN_POINT ( 'NONE',  ( -7.500000000000041744, 1.199999999999999956, 4.999999999999996447 ) ) ;
#144 = CARTESIAN_POINT ( 'NONE',  ( 0.2499999999999946709, 0.3950000000000000178, 3.816391647148975608E-15 ) ) ;
#145 = ORIENTED_EDGE ( 'NONE', *, *, #37, .T. ) ;
#146 = MANIFOLD_SOLID_BREP ( 'Cut-Extrude4', #483 ) ;
#147 = ORIENTED_EDGE ( 'NONE', *, *, #81, .F. ) ;
#148 = VECTOR ( 'NONE', #384, 100.0000000000000000 ) ;
#149 = CARTESIAN_POINT ( 'NONE',  ( -15.00000000000000178, 0.000000000000000000, 2.499999999999998224 ) ) ;
#150 = PLANE ( 'NONE',  #12 ) ;
#151 = DIRECTION ( 'NONE',  ( -0.9731387067013588243, 0.000000000000000000, -0.2302195854387859841 ) ) ;
#152 = EDGE_CURVE ( 'NONE', #554, #27, #334, .T. ) ;
#153 = VECTOR ( 'NONE', #508, 100.0000000000000000 ) ;
#154 = DIRECTION ( 'NONE',  ( 0.000000000000000000, 1.000000000000000000, -0.000000000000000000 ) ) ;
#155 = AXIS2_PLACEMENT_3D ( 'NONE', #254, #251, #207 ) ;
#156 = CARTESIAN_POINT ( 'NONE',  ( -27.53536453439562237, 1.199999999999999956, 0.2601481315458259447 ) ) ;
#157 = CARTESIAN_POINT ( 'NONE',  ( -9.638982098468753534, 0.5999999999999999778, 1.513923915872412707 ) ) ;
#158 = ORIENTED_EDGE ( 'NONE', *, *, #533, .T. ) ;
#159 = DIRECTION ( 'NONE',  ( 1.000000000000000000, 0.000000000000000000, 0.000000000000000000 ) ) ;
#160 = EDGE_CURVE ( 'NONE', #295, #301, #375, .T. ) ;
#161 = CARTESIAN_POINT ( 'NONE',  ( -27.53536453439562237, 1.199999999999999956, 0.2601481315458259447 ) ) ;
#162 = VERTEX_POINT ( 'NONE', #131 ) ;
#163 = VECTOR ( 'NONE', #321, 100.0000000000000000 ) ;
#164 = DIRECTION ( 'NONE',  ( 0.000000000000000000, 0.000000000000000000, 1.000000000000000000 ) ) ;
#165 = AXIS2_PLACEMENT_3D ( 'NONE', #129, #575, #497 ) ;
#166 = ORIENTED_EDGE ( 'NONE', *, *, #332, .F. ) ;
#167 = PLANE ( 'NONE',  #523 ) ;
#168 = EDGE_CURVE ( 'NONE', #388, #130, #312, .T. ) ;
#169 = ORIENTED_EDGE ( 'NONE', *, *, #168, .T. ) ;
#170 = CARTESIAN_POINT ( 'NONE',  ( -0.8950000000000013500, 0.5999999999999999778, 3.100000000000000533 ) ) ;
#171 = ORIENTED_EDGE ( 'NONE', *, *, #247, .T. ) ;
#172 = DIRECTION ( 'NONE',  ( -0.9731387067013588243, 0.000000000000000000, -0.2302195854387859841 ) ) ;
#173 = LINE ( 'NONE', #302, #366 ) ;
#174 = AXIS2_PLACEMENT_3D ( 'NONE', #108, #128, #198 ) ;
#175 = AXIS2_PLACEMENT_3D ( 'NONE', #447, #28, #538 ) ;
#176 = ORIENTED_EDGE ( 'NONE', *, *, #121, .F. ) ;
#177 = FACE_OUTER_BOUND ( 'NONE', #118, .T. ) ;
#178 = DIRECTION ( 'NONE',  ( 0.9731387067013589354, 0.000000000000000000, 0.2302195854387859286 ) ) ;
#179 = ORIENTED_EDGE ( 'NONE', *, *, #577, .T. ) ;
#180 = EDGE_CURVE ( 'NONE', #162, #349, #88, .T. ) ;
#181 = FACE_OUTER_BOUND ( 'NONE', #142, .T. ) ;
#182 = VERTEX_POINT ( 'NONE', #92 ) ;
#183 = PLANE ( 'NONE',  #592 ) ;
#184 = COLOUR_RGB ( '',0.6941176470588235059, 0.09803921568627450844, 0.09803921568627450844 ) ;
#185 = ORIENTED_EDGE ( 'NONE', *, *, #72, .F. ) ;
#186 = CARTESIAN_POINT ( 'NONE',  ( 0.000000000000000000, 1.199999999999999956, 0.000000000000000000 ) ) ;
#187 = DIRECTION ( 'NONE',  ( -1.000000000000000000, -0.000000000000000000, -1.539277964350119435E-14 ) ) ;
#188 = EDGE_CURVE ( 'NONE', #182, #445, #38, .T. ) ;
#189 = ORIENTED_EDGE ( 'NONE', *, *, #104, .F. ) ;
#190 = DIRECTION ( 'NONE',  ( -0.2302195854387860119, 0.000000000000000000, 0.9731387067013588243 ) ) ;
#191 = DIRECTION ( 'NONE',  ( 0.9731387067013588243, 0.000000000000000000, 0.2302195854387859841 ) ) ;
#192 = ORIENTED_EDGE ( 'NONE', *, *, #121, .T. ) ;
#193 = CARTESIAN_POINT ( 'NONE',  ( 0.000000000000000000, 0.3950000000000000178, 0.000000000000000000 ) ) ;
#194 = FACE_OUTER_BOUND ( 'NONE', #30, .T. ) ;
#195 = EDGE_CURVE ( 'NONE', #69, #111, #596, .T. ) ;
#196 = LINE ( 'NONE', #338, #288 ) ;
#197 = CARTESIAN_POINT ( 'NONE',  ( -2.395000000000002682, 0.5999999999999999778, 5.000000000000000000 ) ) ;
#198 = DIRECTION ( 'NONE',  ( 0.2302195854387860119, 0.000000000000000000, -0.9731387067013588243 ) ) ;
#199 = PRESENTATION_LAYER_ASSIGNMENT (  '', '', ( #453 ) ) ;
#200 = AXIS2_PLACEMENT_3D ( 'NONE', #5, #101, #58 ) ;
#201 = SHAPE_DEFINITION_REPRESENTATION ( #438, #40 ) ;
#202 = ADVANCED_FACE ( 'NONE', ( #276 ), #461, .T. ) ;
#203 = ORIENTED_EDGE ( 'NONE', *, *, #374, .T. ) ;
#204 = CARTESIAN_POINT ( 'NONE',  ( 0.000000000000000000, 1.199999999999999956, 5.000000000000000000 ) ) ;
#205 = CARTESIAN_POINT ( 'NONE',  ( -9.897388286579774430, 0.5999999999999999778, -3.469446951953614189E-16 ) ) ;
#206 = ORIENTED_EDGE ( 'NONE', *, *, #81, .T. ) ;
#207 = DIRECTION ( 'NONE',  ( 1.000000000000000000, 0.000000000000000000, 0.000000000000000000 ) ) ;
#208 = VERTEX_POINT ( 'NONE', #143 ) ;
#209 = EDGE_CURVE ( 'NONE', #208, #388, #325, .T. ) ;
#210 = LINE ( 'NONE', #19, #138 ) ;
#211 = VECTOR ( 'NONE', #444, 100.0000000000000000 ) ;
#212 = ORIENTED_EDGE ( 'NONE', *, *, #471, .T. ) ;
#213 = PLANE ( 'NONE',  #48 ) ;
#214 = CARTESIAN_POINT ( 'NONE',  ( -9.897388286579774430, 0.5999999999999999778, -3.469446951953614189E-16 ) ) ;
#215 = ORIENTED_EDGE ( 'NONE', *, *, #76, .F. ) ;
#216 = CARTESIAN_POINT ( 'NONE',  ( -2.695000000000001616, 0.5999999999999999778, 3.100000000000000089 ) ) ;
#217 = CARTESIAN_POINT ( 'NONE',  ( 0.2499999999999946709, 0.3950000000000000178, 2.395000000000004015 ) ) ;
#218 = ORIENTED_EDGE ( 'NONE', *, *, #275, .F. ) ;
#219 = DIRECTION ( 'NONE',  ( 0.000000000000000000, 1.000000000000000000, 0.000000000000000000 ) ) ;
#220 = PRODUCT_DEFINITION_FORMATION_WITH_SPECIFIED_SOURCE ( 'ANY', '', #91, .NOT_KNOWN. ) ;
#221 = EDGE_LOOP ( 'NONE', ( #347, #385 ) ) ;
#222 = EDGE_CURVE ( 'NONE', #519, #362, #62, .T. ) ;
#223 = DIRECTION ( 'NONE',  ( 1.272130549049658700E-16, 0.000000000000000000, -1.000000000000000000 ) ) ;
#224 = DIRECTION ( 'NONE',  ( -0.2302195854387860119, 0.000000000000000000, 0.9731387067013589354 ) ) ;
#225 = ORIENTED_EDGE ( 'NONE', *, *, #76, .T. ) ;
#226 = CARTESIAN_POINT ( 'NONE',  ( -15.00000000000000178, 0.8049999999999999378, 2.395000000000000462 ) ) ;
#227 = PRODUCT_DEFINITION_CONTEXT ( 'detailed design', #4, 'design' ) ;
#228 = LINE ( 'NONE', #311, #250 ) ;
#229 = ORIENTED_EDGE ( 'NONE', *, *, #361, .F. ) ;
#230 = DIRECTION ( 'NONE',  ( 1.000000000000000000, 0.000000000000000000, 2.139492287038061508E-16 ) ) ;
#231 = CYLINDRICAL_SURFACE ( 'NONE', #581, 0.2999999999999994893 ) ;
#232 = MECHANICAL_DESIGN_GEOMETRIC_PRESENTATION_REPRESENTATION (  '', ( #453 ), #136 ) ;
#233 = ORIENTED_EDGE ( 'NONE', *, *, #543, .F. ) ;
#234 =( GEOMETRIC_REPRESENTATION_CONTEXT ( 3 ) GLOBAL_UNCERTAINTY_ASSIGNED_CONTEXT ( ( #433 ) ) GLOBAL_UNIT_ASSIGNED_CONTEXT ( ( #477, #239, #105 ) ) REPRESENTATION_CONTEXT ( 'NONE', 'WORKASPACE' ) );
#235 = CARTESIAN_POINT ( 'NONE',  ( 0.2499999999999946709, 0.8049999999999999378, 3.816391647148975608E-15 ) ) ;
#236 = DIRECTION ( 'NONE',  ( 1.000000000000000000, 0.000000000000000000, 0.000000000000000000 ) ) ;
#237 = DIRECTION ( 'NONE',  ( 1.000000000000000000, 0.000000000000000000, 0.000000000000000000 ) ) ;
#238 = FACE_BOUND ( 'NONE', #330, .T. ) ;
#239 =( NAMED_UNIT ( * ) PLANE_ANGLE_UNIT ( ) SI_UNIT ( $, .RADIAN. ) );
#240 = CIRCLE ( 'NONE', #442, 0.2999999999999996558 ) ;
#241 = APPLICATION_PROTOCOL_DEFINITION ( 'draft international standard', 'automotive_design', 1998, #579 ) ;
#242 = CARTESIAN_POINT ( 'NONE',  ( -7.500000000000000000, 0.000000000000000000, 5.000000000000002665 ) ) ;
#243 = PLANE ( 'NONE',  #353 ) ;
#244 = DIRECTION ( 'NONE',  ( 1.000000000000000000, 0.000000000000000000, 1.272130549049658700E-16 ) ) ;
#245 = ORIENTED_EDGE ( 'NONE', *, *, #29, .T. ) ;
#246 = CARTESIAN_POINT ( 'NONE',  ( -5.551115123125782702E-15, 0.3950000000000000178, 2.395000000000004015 ) ) ;
#247 = EDGE_CURVE ( 'NONE', #111, #460, #551, .T. ) ;
#248 = ORIENTED_EDGE ( 'NONE', *, *, #466, .F. ) ;
#249 = AXIS2_PLACEMENT_3D ( 'NONE', #426, #370, #262 ) ;
#250 = VECTOR ( 'NONE', #280, 100.0000000000000000 ) ;
#251 = DIRECTION ( 'NONE',  ( -2.465190328815661892E-32, 0.000000000000000000, 1.000000000000000000 ) ) ;
#252 = ORIENTED_EDGE ( 'NONE', *, *, #188, .T. ) ;
#253 = DIRECTION ( 'NONE',  ( -2.465190328815661892E-32, 0.000000000000000000, 1.000000000000000000 ) ) ;
#254 = CARTESIAN_POINT ( 'NONE',  ( -2.395000000000002682, 0.5999999999999999778, 3.100000000000000089 ) ) ;
#255 = ORIENTED_EDGE ( 'NONE', *, *, #209, .F. ) ;
#256 = EDGE_CURVE ( 'NONE', #602, #456, #22, .T. ) ;
#257 = ORIENTED_EDGE ( 'NONE', *, *, #180, .T. ) ;
#258 = AXIS2_PLACEMENT_3D ( 'NONE', #97, #47, #599 ) ;
#259 = CARTESIAN_POINT ( 'NONE',  ( 0.000000000000000000, 0.8049999999999999378, 0.000000000000000000 ) ) ;
#260 = CIRCLE ( 'NONE', #281, 0.2999999999999996558 ) ;
#261 = EDGE_LOOP ( 'NONE', ( #359, #391 ) ) ;
#262 = DIRECTION ( 'NONE',  ( 1.000000000000000000, 0.000000000000000000, 0.000000000000000000 ) ) ;
#263 = CARTESIAN_POINT ( 'NONE',  ( -2.695000000000001616, 0.5999999999999999778, 5.000000000000000000 ) ) ;
#264 = ORIENTED_EDGE ( 'NONE', *, *, #324, .F. ) ;
#265 = LINE ( 'NONE', #357, #473 ) ;
#266 = FACE_OUTER_BOUND ( 'NONE', #221, .T. ) ;
#267 = EDGE_CURVE ( 'NONE', #162, #388, #559, .T. ) ;
#268 = ORIENTED_EDGE ( 'NONE', *, *, #267, .T. ) ;
#269 = CARTESIAN_POINT ( 'NONE',  ( -1.195000000000001616, 0.5999999999999999778, 5.000000000000000000 ) ) ;
#270 = AXIS2_PLACEMENT_3D ( 'NONE', #609, #550, #237 ) ;
#271 = ORIENTED_EDGE ( 'NONE', *, *, #275, .T. ) ;
#272 = DIRECTION ( 'NONE',  ( 0.000000000000000000, 1.000000000000000000, 0.000000000000000000 ) ) ;
#273 = FACE_OUTER_BOUND ( 'NONE', #133, .T. ) ;
#274 = EDGE_LOOP ( 'NONE', ( #405, #166 ) ) ;
#275 = EDGE_CURVE ( 'NONE', #460, #301, #516, .T. ) ;
#276 = FACE_OUTER_BOUND ( 'NONE', #64, .T. ) ;
#277 = CARTESIAN_POINT ( 'NONE',  ( -7.500000000000000000, 0.000000000000000000, 5.000000000000002665 ) ) ;
#278 = EDGE_LOOP ( 'NONE', ( #401, #271, #78, #82 ) ) ;
#279 = LINE ( 'NONE', #464, #580 ) ;
#280 = DIRECTION ( 'NONE',  ( 0.000000000000000000, 1.000000000000000000, 0.000000000000000000 ) ) ;
#281 = AXIS2_PLACEMENT_3D ( 'NONE', #400, #224, #178 ) ;
#282 =( NAMED_UNIT ( * ) SI_UNIT ( $, .STERADIAN. ) SOLID_ANGLE_UNIT ( ) );
#283 = CARTESIAN_POINT ( 'NONE',  ( 0.000000000000000000, 0.3950000000000000178, 0.000000000000000000 ) ) ;
#284 = EDGE_CURVE ( 'NONE', #427, #476, #416, .T. ) ;
#285 = SURFACE_STYLE_USAGE ( .BOTH. , #333 ) ;
#286 = AXIS2_PLACEMENT_3D ( 'NONE', #15, #290, #377 ) ;
#287 = PLANE ( 'NONE',  #200 ) ;
#288 = VECTOR ( 'NONE', #419, 100.0000000000000000 ) ;
#289 = DIRECTION ( 'NONE',  ( -0.2302195854387860119, 0.000000000000000000, 0.9731387067013588243 ) ) ;
#290 = DIRECTION ( 'NONE',  ( 1.000000000000000000, 0.000000000000000000, 1.272130549049658700E-16 ) ) ;
#291 = ADVANCED_FACE ( 'NONE', ( #238, #102 ), #287, .T. ) ;
#292 = DIRECTION ( 'NONE',  ( 2.312964634635742267E-15, 1.000000000000000000, 5.782411586589359611E-16 ) ) ;
#293 = ORIENTED_EDGE ( 'NONE', *, *, #180, .F. ) ;
#294 = CARTESIAN_POINT ( 'NONE',  ( 0.2499999999999946709, 0.3950000000000000178, 3.816391647148975608E-15 ) ) ;
#295 = VERTEX_POINT ( 'NONE', #283 ) ;
#296 = CARTESIAN_POINT ( 'NONE',  ( 0.000000000000000000, 1.199999999999999956, 0.000000000000000000 ) ) ;
#297 = VECTOR ( 'NONE', #219, 100.0000000000000000 ) ;
#298 = CIRCLE ( 'NONE', #308, 0.2999999999999994893 ) ;
#299 = CARTESIAN_POINT ( 'NONE',  ( 0.000000000000000000, 1.199999999999999956, 5.000000000000000000 ) ) ;
#300 = EDGE_CURVE ( 'NONE', #349, #445, #196, .T. ) ;
#301 = VERTEX_POINT ( 'NONE', #246 ) ;
#302 = CARTESIAN_POINT ( 'NONE',  ( -9.359565976328978465, 0.5999999999999999778, -2.273376118000868473 ) ) ;
#303 = ORIENTED_EDGE ( 'NONE', *, *, #469, .F. ) ;
#304 = DIRECTION ( 'NONE',  ( -0.2302195854387859286, 0.000000000000000000, 0.9731387067013588243 ) ) ;
#305 = ORIENTED_EDGE ( 'NONE', *, *, #543, .T. ) ;
#306 = MECHANICAL_DESIGN_GEOMETRIC_PRESENTATION_REPRESENTATION (  '', ( #522 ), #234 ) ;
#307 = DIRECTION ( 'NONE',  ( 1.000000000000000000, 0.000000000000000000, 2.465190328815661892E-32 ) ) ;
#308 = AXIS2_PLACEMENT_3D ( 'NONE', #600, #313, #236 ) ;
#309 = VERTEX_POINT ( 'NONE', #157 ) ;
#310 = ADVANCED_FACE ( 'NONE', ( #194 ), #378, .F. ) ;
#311 = CARTESIAN_POINT ( 'NONE',  ( 0.2499999999999946709, 0.3950000000000000178, 3.816391647148975608E-15 ) ) ;
#312 = LINE ( 'NONE', #34, #343 ) ;
#313 = DIRECTION ( 'NONE',  ( -2.465190328815661892E-32, 0.000000000000000000, 1.000000000000000000 ) ) ;
#314 = ORIENTED_EDGE ( 'NONE', *, *, #351, .F. ) ;
#315 = DIRECTION ( 'NONE',  ( 1.000000000000000000, 0.000000000000000000, 0.000000000000000000 ) ) ;
#316 = LINE ( 'NONE', #499, #318 ) ;
#317 = VECTOR ( 'NONE', #520, 100.0000000000000000 ) ;
#318 = VECTOR ( 'NONE', #187, 100.0000000000000000 ) ;
#319 = EDGE_CURVE ( 'NONE', #476, #309, #475, .T. ) ;
#320 = ORIENTED_EDGE ( 'NONE', *, *, #471, .F. ) ;
#321 = DIRECTION ( 'NONE',  ( -2.449761618368254527E-15, -1.000000000000000000, 0.000000000000000000 ) ) ;
#322 = PLANE ( 'NONE',  #560 ) ;
#323 = VERTEX_POINT ( 'NONE', #294 ) ;
#324 = EDGE_CURVE ( 'NONE', #356, #576, #8, .T. ) ;
#325 = LINE ( 'NONE', #204, #317 ) ;
#326 = CARTESIAN_POINT ( 'NONE',  ( -9.930923710479159894, 0.5999999999999999778, 1.444858040240777353 ) ) ;
#327 =( LENGTH_UNIT ( ) NAMED_UNIT ( * ) SI_UNIT ( .CENTI., .METRE. ) );
#328 = CIRCLE ( 'NONE', #421, 0.2999999999999994893 ) ;
#329 = AXIS2_PLACEMENT_3D ( 'NONE', #502, #547, #455 ) ;
#330 = EDGE_LOOP ( 'NONE', ( #561, #90 ) ) ;
#331 = CARTESIAN_POINT ( 'NONE',  ( -8.775682752308163970, 0.5999999999999999778, -2.135244366737597765 ) ) ;
#332 = EDGE_CURVE ( 'NONE', #456, #602, #56, .T. ) ;
#333 = SURFACE_SIDE_STYLE ('',( #335 ) ) ;
#334 = CIRCLE ( 'NONE', #270, 0.2999999999999996003 ) ;
#335 = SURFACE_STYLE_FILL_AREA ( #428 ) ;
#336 = VECTOR ( 'NONE', #386, 100.0000000000000142 ) ;
#337 = FACE_OUTER_BOUND ( 'NONE', #504, .T. ) ;
#338 = CARTESIAN_POINT ( 'NONE',  ( 0.000000000000000000, 0.000000000000000000, 0.000000000000000000 ) ) ;
#339 = ORIENTED_EDGE ( 'NONE', *, *, #300, .T. ) ;
#340 = CARTESIAN_POINT ( 'NONE',  ( 0.000000000000000000, 0.000000000000000000, 0.000000000000000000 ) ) ;
#341 = DIRECTION ( 'NONE',  ( 1.000000000000000000, 0.000000000000000000, 0.000000000000000000 ) ) ;
#342 = ORIENTED_EDGE ( 'NONE', *, *, #247, .F. ) ;
#343 = VECTOR ( 'NONE', #501, 100.0000000000000000 ) ;
#344 = CIRCLE ( 'NONE', #155, 0.2999999999999996003 ) ;
#345 = DIRECTION ( 'NONE',  ( 0.000000000000000000, 0.000000000000000000, 1.000000000000000000 ) ) ;
#346 = EDGE_CURVE ( 'NONE', #208, #430, #435, .T. ) ;
#347 = ORIENTED_EDGE ( 'NONE', *, *, #152, .T. ) ;
#348 = DIRECTION ( 'NONE',  ( 0.9731387067013589354, 0.000000000000000000, 0.2302195854387859286 ) ) ;
#349 = VERTEX_POINT ( 'NONE', #340 ) ;
#350 = DIRECTION ( 'NONE',  ( -1.000000000000000000, -0.000000000000000000, -1.539277964350119435E-14 ) ) ;
#351 = EDGE_CURVE ( 'NONE', #130, #182, #574, .T. ) ;
#352 = DIRECTION ( 'NONE',  ( 1.000000000000000000, 0.000000000000000000, 1.272130549049658700E-16 ) ) ;
#353 = AXIS2_PLACEMENT_3D ( 'NONE', #585, #537, #172 ) ;
#354 = AXIS2_PLACEMENT_3D ( 'NONE', #35, #39, #372 ) ;
#355 = FACE_OUTER_BOUND ( 'NONE', #542, .T. ) ;
#356 = VERTEX_POINT ( 'NONE', #583 ) ;
#357 = CARTESIAN_POINT ( 'NONE',  ( -26.00442839046255727, 1.199999999999999956, -6.211122400498121365 ) ) ;
#358 = PLANE ( 'NONE',  #125 ) ;
#359 = ORIENTED_EDGE ( 'NONE', *, *, #11, .T. ) ;
#360 = CARTESIAN_POINT ( 'NONE',  ( 0.000000000000000000, 0.000000000000000000, 5.000000000000000000 ) ) ;
#361 = EDGE_CURVE ( 'NONE', #427, #531, #173, .T. ) ;
#362 = VERTEX_POINT ( 'NONE', #578 ) ;
#363 = DIRECTION ( 'NONE',  ( -2.465190328815661892E-32, 0.000000000000000000, 1.000000000000000000 ) ) ;
#364 = VECTOR ( 'NONE', #151, 100.0000000000000142 ) ;
#365 = ADVANCED_FACE ( 'NONE', ( #439 ), #167, .T. ) ;
#366 = VECTOR ( 'NONE', #304, 100.0000000000000142 ) ;
#367 = ORIENTED_EDGE ( 'NONE', *, *, #222, .T. ) ;
#368 = DIRECTION ( 'NONE',  ( 2.115516434118057955E-16, 0.000000000000000000, -1.000000000000000000 ) ) ;
#369 = DIRECTION ( 'NONE',  ( 0.000000000000000000, -1.000000000000000000, 0.000000000000000000 ) ) ;
#370 = DIRECTION ( 'NONE',  ( -2.465190328815661892E-32, 0.000000000000000000, 1.000000000000000000 ) ) ;
#371 = SURFACE_STYLE_USAGE ( .BOTH. , #603 ) ;
#372 = DIRECTION ( 'NONE',  ( 1.000000000000000000, 0.000000000000000000, 0.000000000000000000 ) ) ;
#373 = ORIENTED_EDGE ( 'NONE', *, *, #284, .T. ) ;
#374 = EDGE_CURVE ( 'NONE', #127, #498, #489, .T. ) ;
#375 = LINE ( 'NONE', #193, #3 ) ;
#376 = COLOUR_RGB ( '',1.000000000000000000, 1.000000000000000000, 1.000000000000000000 ) ;
#377 = DIRECTION ( 'NONE',  ( 0.000000000000000000, -1.000000000000000000, 0.000000000000000000 ) ) ;
#378 = PLANE ( 'NONE',  #98 ) ;
#379 = ADVANCED_FACE ( 'NONE', ( #70 ), #26, .F. ) ;
#380 = CARTESIAN_POINT ( 'NONE',  ( -15.00000000000000178, 0.3950000000000000178, 2.499999999999998224 ) ) ;
#381 = DIRECTION ( 'NONE',  ( 0.000000000000000000, 1.000000000000000000, 0.000000000000000000 ) ) ;
#382 = FACE_OUTER_BOUND ( 'NONE', #451, .T. ) ;
#383 = AXIS2_PLACEMENT_3D ( 'NONE', #197, #566, #524 ) ;
#384 = DIRECTION ( 'NONE',  ( 0.000000000000000000, 1.000000000000000000, 0.000000000000000000 ) ) ;
#385 = ORIENTED_EDGE ( 'NONE', *, *, #417, .T. ) ;
#386 = DIRECTION ( 'NONE',  ( -0.9731387067013588243, 0.000000000000000000, -0.2302195854387859841 ) ) ;
#387 = CARTESIAN_POINT ( 'NONE',  ( -9.280826643446891566, 1.127570259384924611E-15, -3.469446951953614189E-16 ) ) ;
#388 = VERTEX_POINT ( 'NONE', #299 ) ;
#389 = ADVANCED_FACE ( 'NONE', ( #588 ), #390, .F. ) ;
#390 = CYLINDRICAL_SURFACE ( 'NONE', #412, 0.2999999999999994893 ) ;
#391 = ORIENTED_EDGE ( 'NONE', *, *, #569, .T. ) ;
#392 = AXIS2_PLACEMENT_3D ( 'NONE', #43, #230, #368 ) ;
#393 = DIRECTION ( 'NONE',  ( -0.2302195854387860119, 0.000000000000000000, 0.9731387067013589354 ) ) ;
#394 = ORIENTED_EDGE ( 'NONE', *, *, #256, .T. ) ;
#395 = DIRECTION ( 'NONE',  ( 1.000000000000000000, 0.000000000000000000, 0.000000000000000000 ) ) ;
#396 = EDGE_CURVE ( 'NONE', #476, #427, #545, .T. ) ;
#397 = ORIENTED_EDGE ( 'NONE', *, *, #443, .T. ) ;
#398 = PLANE ( 'NONE',  #165 ) ;
#399 = VERTEX_POINT ( 'NONE', #432 ) ;
#400 = CARTESIAN_POINT ( 'NONE',  ( -9.930923710479159894, 0.5999999999999999778, 1.444858040240777353 ) ) ;
#401 = ORIENTED_EDGE ( 'NONE', *, *, #577, .F. ) ;
#402 = EDGE_CURVE ( 'NONE', #27, #456, #210, .T. ) ;
#403 = CARTESIAN_POINT ( 'NONE',  ( -27.47382017840123680, 6.730727086790011526E-14, -3.469446951953614189E-16 ) ) ;
#404 = FACE_OUTER_BOUND ( 'NONE', #440, .T. ) ;
#405 = ORIENTED_EDGE ( 'NONE', *, *, #256, .F. ) ;
#406 = FILL_AREA_STYLE_COLOUR ( '', #376 ) ;
#407 = DIRECTION ( 'NONE',  ( 0.9731387067013589354, 0.000000000000000000, 0.2302195854387859286 ) ) ;
#408 = ORIENTED_EDGE ( 'NONE', *, *, #402, .T. ) ;
#409 = CARTESIAN_POINT ( 'NONE',  ( 0.000000000000000000, 0.000000000000000000, 0.000000000000000000 ) ) ;
#410 = PLANE ( 'NONE',  #329 ) ;
#411 = CIRCLE ( 'NONE', #258, 0.2049999999999999600 ) ;
#412 = AXIS2_PLACEMENT_3D ( 'NONE', #119, #530, #395 ) ;
#413 = ORIENTED_EDGE ( 'NONE', *, *, #168, .F. ) ;
#414 = DIRECTION ( 'NONE',  ( -2.465190328815661892E-32, 0.000000000000000000, 1.000000000000000000 ) ) ;
#415 = DIRECTION ( 'NONE',  ( -0.2302195854387859841, 0.000000000000000000, 0.9731387067013589354 ) ) ;
#416 =( BOUNDED_CURVE ( )  B_SPLINE_CURVE ( 3, ( #480, #562, #518, #472 ),
 .UNSPECIFIED., .F., .F. ) 
 B_SPLINE_CURVE_WITH_KNOTS ( ( 4, 4 ),
 ( 0.000000000000000000, 3.141592653589793116 ),
 .UNSPECIFIED. ) 
 CURVE ( )  GEOMETRIC_REPRESENTATION_ITEM ( )  RATIONAL_B_SPLINE_CURVE ( ( 1.000000000000000000, 0.3333333333333333703, 0.3333333333333333703, 1.000000000000000000 ) ) 
 REPRESENTATION_ITEM ( '' )  );
#417 = EDGE_CURVE ( 'NONE', #27, #554, #344, .T. ) ;
#418 =( NAMED_UNIT ( * ) PLANE_ANGLE_UNIT ( ) SI_UNIT ( $, .RADIAN. ) );
#419 = DIRECTION ( 'NONE',  ( -1.000000000000000000, 0.000000000000000000, 0.000000000000000000 ) ) ;
#420 = PRODUCT_CONTEXT ( 'NONE', #579, 'mechanical' ) ;
#421 = AXIS2_PLACEMENT_3D ( 'NONE', #511, #414, #315 ) ;
#422 = ORIENTED_EDGE ( 'NONE', *, *, #503, .T. ) ;
#423 = ADVANCED_FACE ( 'NONE', ( #355 ), #398, .T. ) ;
#424 = ORIENTED_EDGE ( 'NONE', *, *, #114, .F. ) ;
#425 = CARTESIAN_POINT ( 'NONE',  ( 0.2499999999999946709, 0.3950000000000000178, 2.395000000000004015 ) ) ;
#426 = CARTESIAN_POINT ( 'NONE',  ( -0.8950000000000013500, 0.5999999999999999778, 3.100000000000000533 ) ) ;
#427 = VERTEX_POINT ( 'NONE', #205 ) ;
#428 = FILL_AREA_STYLE ('',( #570 ) ) ;
#429 = VECTOR ( 'NONE', #112, 100.0000000000000000 ) ;
#430 = VERTEX_POINT ( 'NONE', #161 ) ;
#431 = CARTESIAN_POINT ( 'NONE',  ( -1.195000000000001616, 0.5999999999999999778, 3.100000000000000533 ) ) ;
#432 = CARTESIAN_POINT ( 'NONE',  ( -0.5950000000000010836, 0.5999999999999999778, 5.000000000000000000 ) ) ;
#433 = UNCERTAINTY_MEASURE_WITH_UNIT (LENGTH_MEASURE( 1.000000000000000082E-05 ), #477, 'distance_accuracy_value', 'NONE');
#434 = ORIENTED_EDGE ( 'NONE', *, *, #72, .T. ) ;
#435 = LINE ( 'NONE', #486, #336 ) ;
#436 = CARTESIAN_POINT ( 'NONE',  ( -0.5950000000000010836, 0.5999999999999999778, 3.100000000000000533 ) ) ;
#437 = ORIENTED_EDGE ( 'NONE', *, *, #319, .T. ) ;
#438 = PRODUCT_DEFINITION_SHAPE ( 'NONE', 'NONE',  #548 ) ;
#439 = FACE_OUTER_BOUND ( 'NONE', #261, .T. ) ;
#440 = EDGE_LOOP ( 'NONE', ( #75, #606, #268, #255 ) ) ;
#441 = VECTOR ( 'NONE', #2, 100.0000000000000000 ) ;
#442 = AXIS2_PLACEMENT_3D ( 'NONE', #541, #393, #348 ) ;
#443 = EDGE_CURVE ( 'NONE', #463, #399, #113, .T. ) ;
#444 = DIRECTION ( 'NONE',  ( -2.262257333030263515E-15, 0.000000000000000000, 1.000000000000000000 ) ) ;
#445 = VERTEX_POINT ( 'NONE', #481 ) ;
#446 = DIRECTION ( 'NONE',  ( -0.000000000000000000, 1.000000000000000000, 0.000000000000000000 ) ) ;
#447 = CARTESIAN_POINT ( 'NONE',  ( -9.067624364318572106, 0.5999999999999999778, -2.204310242369233119 ) ) ;
#448 = ORIENTED_EDGE ( 'NONE', *, *, #346, .F. ) ;
#449 = FACE_OUTER_BOUND ( 'NONE', #71, .T. ) ;
#450 = FACE_OUTER_BOUND ( 'NONE', #14, .T. ) ;
#451 = EDGE_LOOP ( 'NONE', ( #41, #215, #20, #145 ) ) ;
#452 = DIRECTION ( 'NONE',  ( 0.000000000000000000, 0.000000000000000000, 1.000000000000000000 ) ) ;
#453 = STYLED_ITEM ( 'NONE', ( #557 ), #146 ) ;
#454 =( GEOMETRIC_REPRESENTATION_CONTEXT ( 3 ) GLOBAL_UNCERTAINTY_ASSIGNED_CONTEXT ( ( #140 ) ) GLOBAL_UNIT_ASSIGNED_CONTEXT ( ( #9, #470, #52 ) ) REPRESENTATION_CONTEXT ( 'NONE', 'WORKASPACE' ) );
#455 = DIRECTION ( 'NONE',  ( 1.000000000000000000, 0.000000000000000000, 2.465190328815661892E-32 ) ) ;
#456 = VERTEX_POINT ( 'NONE', #263 ) ;
#457 = ADVANCED_FACE ( 'NONE', ( #487 ), #67, .F. ) ;
#458 = LINE ( 'NONE', #409, #32 ) ;
#459 = DIRECTION ( 'NONE',  ( 1.272130549049658700E-16, -0.000000000000000000, -1.000000000000000000 ) ) ;
#460 = VERTEX_POINT ( 'NONE', #217 ) ;
#461 = CYLINDRICAL_SURFACE ( 'NONE', #392, 0.2049999999999999600 ) ;
#462 = FACE_BOUND ( 'NONE', #274, .T. ) ;
#463 = VERTEX_POINT ( 'NONE', #436 ) ;
#464 = CARTESIAN_POINT ( 'NONE',  ( -2.095000000000002416, 0.5999999999999999778, 3.100000000000000533 ) ) ;
#465 = CARTESIAN_POINT ( 'NONE',  ( -10.22286532248956803, 0.5999999999999999778, 1.375792164609141999 ) ) ;
#466 = EDGE_CURVE ( 'NONE', #519, #162, #117, .T. ) ;
#467 = AXIS2_PLACEMENT_3D ( 'NONE', #608, #363, #556 ) ;
#468 = FILL_AREA_STYLE ('',( #406 ) ) ;
#469 = EDGE_CURVE ( 'NONE', #531, #309, #240, .T. ) ;
#470 =( NAMED_UNIT ( * ) PLANE_ANGLE_UNIT ( ) SI_UNIT ( $, .RADIAN. ) );
#471 = EDGE_CURVE ( 'NONE', #498, #69, #535, .T. ) ;
#472 = CARTESIAN_POINT ( 'NONE',  ( -9.280826643446893343, 0.5999999999999999778, -3.469446951953614189E-16 ) ) ;
#473 = VECTOR ( 'NONE', #289, 100.0000000000000142 ) ;
#474 = ORIENTED_EDGE ( 'NONE', *, *, #99, .F. ) ;
#475 = LINE ( 'NONE', #331, #23 ) ;
#476 = VERTEX_POINT ( 'NONE', #80 ) ;
#477 =( LENGTH_UNIT ( ) NAMED_UNIT ( * ) SI_UNIT ( .CENTI., .METRE. ) );
#478 = LINE ( 'NONE', #63, #513 ) ;
#479 = ORIENTED_EDGE ( 'NONE', *, *, #11, .F. ) ;
#480 = CARTESIAN_POINT ( 'NONE',  ( -9.897388286579774430, 0.5999999999999999778, -3.469446951953614189E-16 ) ) ;
#481 = CARTESIAN_POINT ( 'NONE',  ( -27.47382017840123325, 0.000000000000000000, -4.163336342344337027E-15 ) ) ;
#482 = ADVANCED_FACE ( 'NONE', ( #181 ), #322, .T. ) ;
#483 = CLOSED_SHELL ( 'NONE', ( #527, #389, #379, #202, #291, #53, #553, #310, #59, #482, #1, #423, #51, #601, #563, #491, #365, #68, #457, #591 ) ) ;
#484 = AXIS2_PLACEMENT_3D ( 'NONE', #565, #154, #521 ) ;
#485 = ORIENTED_EDGE ( 'NONE', *, *, #29, .F. ) ;
#486 = CARTESIAN_POINT ( 'NONE',  ( -7.500000000000000000, 1.199999999999999956, 5.000000000000002665 ) ) ;
#487 = FACE_OUTER_BOUND ( 'NONE', #515, .T. ) ;
#488 = ORIENTED_EDGE ( 'NONE', *, *, #569, .F. ) ;
#489 = LINE ( 'NONE', #65, #505 ) ;
#490 = EDGE_LOOP ( 'NONE', ( #264, #479, #397, #305 ) ) ;
#491 = ADVANCED_FACE ( 'NONE', ( #141 ), #231, .F. ) ;
#492 = CARTESIAN_POINT ( 'NONE',  ( 0.000000000000000000, 0.000000000000000000, 5.000000000000000000 ) ) ;
#493 = ORIENTED_EDGE ( 'NONE', *, *, #99, .T. ) ;
#494 = PRESENTATION_LAYER_ASSIGNMENT (  '', '', ( #522 ) ) ;
#495 = VECTOR ( 'NONE', #459, 100.0000000000000000 ) ;
#496 = DIRECTION ( 'NONE',  ( 1.000000000000000000, 0.000000000000000000, 1.272130549049658700E-16 ) ) ;
#497 = DIRECTION ( 'NONE',  ( 1.000000000000000000, 0.000000000000000000, 1.272130549049658700E-16 ) ) ;
#498 = VERTEX_POINT ( 'NONE', #84 ) ;
#499 = CARTESIAN_POINT ( 'NONE',  ( 0.000000000000000000, 0.3950000000000000178, 0.000000000000000000 ) ) ;
#500 = EDGE_LOOP ( 'NONE', ( #233, #176 ) ) ;
#501 = DIRECTION ( 'NONE',  ( 1.272130549049658700E-16, 0.000000000000000000, -1.000000000000000000 ) ) ;
#502 = CARTESIAN_POINT ( 'NONE',  ( -2.395000000000002682, 0.5999999999999999778, 3.100000000000000089 ) ) ;
#503 = EDGE_CURVE ( 'NONE', #309, #531, #260, .T. ) ;
#504 = EDGE_LOOP ( 'NONE', ( #434, #448, #100, #169, #587 ) ) ;
#505 = VECTOR ( 'NONE', #350, 100.0000000000000000 ) ;
#506 = DIRECTION ( 'NONE',  ( 0.000000000000000000, 0.000000000000000000, 1.000000000000000000 ) ) ;
#507 = ORIENTED_EDGE ( 'NONE', *, *, #188, .F. ) ;
#508 = DIRECTION ( 'NONE',  ( 1.000000000000000000, 0.000000000000000000, 2.139492287038061508E-16 ) ) ;
#509 = DIRECTION ( 'NONE',  ( 1.000000000000000000, 0.000000000000000000, 0.000000000000000000 ) ) ;
#510 = EDGE_LOOP ( 'NONE', ( #488, #45, #192, #536 ) ) ;
#511 = CARTESIAN_POINT ( 'NONE',  ( -0.8950000000000013500, 0.5999999999999999778, 5.000000000000000000 ) ) ;
#512 = DIRECTION ( 'NONE',  ( -0.2302195854387860119, 0.000000000000000000, 0.9731387067013589354 ) ) ;
#513 = VECTOR ( 'NONE', #190, 100.0000000000000142 ) ;
#514 = VECTOR ( 'NONE', #532, 100.0000000000000000 ) ;
#515 = EDGE_LOOP ( 'NONE', ( #229, #373, #437, #422 ) ) ;
#516 = LINE ( 'NONE', #425, #441 ) ;
#517 = EDGE_CURVE ( 'NONE', #323, #127, #228, .T. ) ;
#518 = CARTESIAN_POINT ( 'NONE',  ( -9.280826643446891566, 1.199999999999999067, -3.469446951953614189E-16 ) ) ;
#519 = VERTEX_POINT ( 'NONE', #277 ) ;
#520 = DIRECTION ( 'NONE',  ( 1.000000000000000000, 0.000000000000000000, 0.000000000000000000 ) ) ;
#521 = DIRECTION ( 'NONE',  ( 1.000000000000000000, 0.000000000000000000, 1.272130549049658700E-16 ) ) ;
#522 = STYLED_ITEM ( 'NONE', ( #54 ), #291 ) ;
#523 = AXIS2_PLACEMENT_3D ( 'NONE', #170, #16, #307 ) ;
#524 = DIRECTION ( 'NONE',  ( 1.000000000000000000, 0.000000000000000000, 0.000000000000000000 ) ) ;
#525 = PLANE ( 'NONE',  #46 ) ;
#526 = DIRECTION ( 'NONE',  ( 1.000000000000000000, 0.000000000000000000, 1.272130549049658700E-16 ) ) ;
#527 = ADVANCED_FACE ( 'NONE', ( #273 ), #50, .F. ) ;
#528 = EDGE_LOOP ( 'NONE', ( #17, #408, #120, #424 ) ) ;
#529 = DIRECTION ( 'NONE',  ( -1.000000000000000000, 0.000000000000000000, 0.000000000000000000 ) ) ;
#530 = DIRECTION ( 'NONE',  ( 0.000000000000000000, 0.000000000000000000, 1.000000000000000000 ) ) ;
#531 = VERTEX_POINT ( 'NONE', #465 ) ;
#532 = DIRECTION ( 'NONE',  ( 0.000000000000000000, 0.000000000000000000, 1.000000000000000000 ) ) ;
#533 = EDGE_CURVE ( 'NONE', #323, #295, #316, .T. ) ;
#534 = ORIENTED_EDGE ( 'NONE', *, *, #160, .T. ) ;
#535 = LINE ( 'NONE', #259, #211 ) ;
#536 = ORIENTED_EDGE ( 'NONE', *, *, #443, .F. ) ;
#537 = DIRECTION ( 'NONE',  ( 0.2302195854387860119, 0.000000000000000000, -0.9731387067013589354 ) ) ;
#538 = DIRECTION ( 'NONE',  ( 0.9731387067013589354, 0.000000000000000000, 0.2302195854387859286 ) ) ;
#539 = ORIENTED_EDGE ( 'NONE', *, *, #152, .F. ) ;
#540 = PLANE ( 'NONE',  #174 ) ;
#541 = CARTESIAN_POINT ( 'NONE',  ( -9.930923710479159894, 0.5999999999999999778, 1.444858040240777353 ) ) ;
#542 = EDGE_LOOP ( 'NONE', ( #212, #87, #598, #203 ) ) ;
#543 = EDGE_CURVE ( 'NONE', #399, #576, #298, .T. ) ;
#544 = EDGE_LOOP ( 'NONE', ( #33, #303 ) ) ;
#545 =( BOUNDED_CURVE ( )  B_SPLINE_CURVE ( 3, ( #77, #387, #123, #214 ),
 .UNSPECIFIED., .F., .F. ) 
 B_SPLINE_CURVE_WITH_KNOTS ( ( 4, 4 ),
 ( 3.141592653589793116, 6.283185307179586232 ),
 .UNSPECIFIED. ) 
 CURVE ( )  GEOMETRIC_REPRESENTATION_ITEM ( )  RATIONAL_B_SPLINE_CURVE ( ( 1.000000000000000000, 0.3333333333333333703, 0.3333333333333333703, 1.000000000000000000 ) ) 
 REPRESENTATION_ITEM ( '' )  );
#546 = DIRECTION ( 'NONE',  ( 1.272130549049658700E-16, -0.000000000000000000, -1.000000000000000000 ) ) ;
#547 = DIRECTION ( 'NONE',  ( -2.465190328815661892E-32, 0.000000000000000000, 1.000000000000000000 ) ) ;
#548 = PRODUCT_DEFINITION ( 'UNKNOWN', '', #220, #227 ) ;
#549 = ORIENTED_EDGE ( 'NONE', *, *, #267, .F. ) ;
#550 = DIRECTION ( 'NONE',  ( -2.465190328815661892E-32, 0.000000000000000000, 1.000000000000000000 ) ) ;
#551 = CIRCLE ( 'NONE', #286, 0.2049999999999999600 ) ;
#552 = FACE_OUTER_BOUND ( 'NONE', #544, .T. ) ;
#553 = ADVANCED_FACE ( 'NONE', ( #132, #462, #404 ), #183, .T. ) ;
#554 = VERTEX_POINT ( 'NONE', #594 ) ;
#555 = CARTESIAN_POINT ( 'NONE',  ( 0.2499999999999946709, 0.8049999999999999378, 3.816391647148975608E-15 ) ) ;
#556 = DIRECTION ( 'NONE',  ( 1.000000000000000000, 0.000000000000000000, 0.000000000000000000 ) ) ;
#557 = PRESENTATION_STYLE_ASSIGNMENT (( #371 ) ) ;
#558 = DIRECTION ( 'NONE',  ( 1.000000000000000000, 0.000000000000000000, 1.272130549049658700E-16 ) ) ;
#559 = LINE ( 'NONE', #107, #106 ) ;
#560 = AXIS2_PLACEMENT_3D ( 'NONE', #135, #558, #369 ) ;
#561 = ORIENTED_EDGE ( 'NONE', *, *, #396, .F. ) ;
#562 = CARTESIAN_POINT ( 'NONE',  ( -9.897388286579776207, 1.199999999999999067, -3.469446951953614189E-16 ) ) ;
#563 = ADVANCED_FACE ( 'NONE', ( #266 ), #410, .T. ) ;
#564 = DIRECTION ( 'NONE',  ( -0.000000000000000000, 1.000000000000000000, 0.000000000000000000 ) ) ;
#565 = CARTESIAN_POINT ( 'NONE',  ( -0.1500000000000000222, 0.006000000000000000125, 0.02499999999999998404 ) ) ;
#566 = DIRECTION ( 'NONE',  ( -2.465190328815661892E-32, 0.000000000000000000, 1.000000000000000000 ) ) ;
#567 = LINE ( 'NONE', #156, #55 ) ;
#568 = VECTOR ( 'NONE', #73, 100.0000000000000000 ) ;
#569 = EDGE_CURVE ( 'NONE', #356, #463, #74, .T. ) ;
#570 = FILL_AREA_STYLE_COLOUR ( '', #184 ) ;
#571 = LINE ( 'NONE', #25, #148 ) ;
#572 = ORIENTED_EDGE ( 'NONE', *, *, #300, .F. ) ;
#573 = PRODUCT_RELATED_PRODUCT_CATEGORY ( 'part', '', ( #91 ) ) ;
#574 = LINE ( 'NONE', #296, #49 ) ;
#575 = DIRECTION ( 'NONE',  ( -0.000000000000000000, 1.000000000000000000, 0.000000000000000000 ) ) ;
#576 = VERTEX_POINT ( 'NONE', #269 ) ;
#577 = EDGE_CURVE ( 'NONE', #460, #323, #89, .T. ) ;
#578 = CARTESIAN_POINT ( 'NONE',  ( -27.53536453439562948, 0.000000000000000000, 0.2601481315458259447 ) ) ;
#579 = APPLICATION_CONTEXT ( 'automotive_design' ) ;
#580 = VECTOR ( 'NONE', #452, 100.0000000000000000 ) ;
#581 = AXIS2_PLACEMENT_3D ( 'NONE', #597, #93, #509 ) ;
#582 = ORIENTED_EDGE ( 'NONE', *, *, #374, .F. ) ;
#583 = CARTESIAN_POINT ( 'NONE',  ( -1.195000000000001616, 0.5999999999999999778, 3.100000000000000533 ) ) ;
#584 = ORIENTED_EDGE ( 'NONE', *, *, #195, .F. ) ;
#585 = CARTESIAN_POINT ( 'NONE',  ( -7.500000000000000000, 0.000000000000000000, 5.000000000000002665 ) ) ;
#586 = CARTESIAN_POINT ( 'NONE',  ( -0.5950000000000010836, 0.5999999999999999778, 3.100000000000000533 ) ) ;
#587 = ORIENTED_EDGE ( 'NONE', *, *, #351, .T. ) ;
#588 = FACE_OUTER_BOUND ( 'NONE', #510, .T. ) ;
#589 = VECTOR ( 'NONE', #546, 100.0000000000000000 ) ;
#590 = ORIENTED_EDGE ( 'NONE', *, *, #396, .T. ) ;
#591 = ADVANCED_FACE ( 'NONE', ( #552 ), #358, .F. ) ;
#592 = AXIS2_PLACEMENT_3D ( 'NONE', #360, #506, #44 ) ;
#593 = CARTESIAN_POINT ( 'NONE',  ( 0.000000000000000000, 0.000000000000000000, 0.000000000000000000 ) ) ;
#594 = CARTESIAN_POINT ( 'NONE',  ( -2.095000000000002416, 0.5999999999999999778, 3.100000000000000533 ) ) ;
#595 = ORIENTED_EDGE ( 'NONE', *, *, #469, .T. ) ;
#596 = LINE ( 'NONE', #226, #153 ) ;
#597 = CARTESIAN_POINT ( 'NONE',  ( -0.8950000000000013500, 0.5999999999999999778, 3.100000000000000533 ) ) ;
#598 = ORIENTED_EDGE ( 'NONE', *, *, #85, .T. ) ;
#599 = DIRECTION ( 'NONE',  ( 0.000000000000000000, -1.000000000000000000, 0.000000000000000000 ) ) ;
#600 = CARTESIAN_POINT ( 'NONE',  ( -0.8950000000000013500, 0.5999999999999999778, 5.000000000000000000 ) ) ;
#601 = ADVANCED_FACE ( 'NONE', ( #450 ), #96, .F. ) ;
#602 = VERTEX_POINT ( 'NONE', #31 ) ;
#603 = SURFACE_SIDE_STYLE ('',( #607 ) ) ;
#604 = AXIS2_PLACEMENT_3D ( 'NONE', #605, #415, #407 ) ;
#605 = CARTESIAN_POINT ( 'NONE',  ( -9.067624364318572106, 0.5999999999999999778, -2.204310242369233119 ) ) ;
#606 = ORIENTED_EDGE ( 'NONE', *, *, #466, .T. ) ;
#607 = SURFACE_STYLE_FILL_AREA ( #468 ) ;
#608 = CARTESIAN_POINT ( 'NONE',  ( -0.8950000000000013500, 0.5999999999999999778, 3.100000000000000533 ) ) ;
#609 = CARTESIAN_POINT ( 'NONE',  ( -2.395000000000002682, 0.5999999999999999778, 3.100000000000000089 ) ) ;
ENDSEC;
END-ISO-10303-21;
