ISO-10303-21;
HEADER;
FILE_DESCRIPTION (( 'STEP AP214' ),
    '1' );
FILE_NAME ('ramp-wall-lower-hole_62.STEP',
    '2026-06-10T13:07:59',
    ( '' ),
    ( '' ),
    'SwSTEP 2.0',
    'SolidWorks 2023',
    '' );
FILE_SCHEMA (( 'AUTOMOTIVE_DESIGN' ));
ENDSEC;

DATA;
#1 = ORIENTED_EDGE ( 'NONE', *, *, #258, .T. ) ;
#2 = ORIENTED_EDGE ( 'NONE', *, *, #486, .T. ) ;
#3 = VECTOR ( 'NONE', #122, 100.0000000000000142 ) ;
#4 = DIRECTION ( 'NONE',  ( -2.465190328815661892E-32, 0.000000000000000000, 1.000000000000000000 ) ) ;
#5 = AXIS2_PLACEMENT_3D ( 'NONE', #345, #162, #350 ) ;
#6 = CARTESIAN_POINT ( 'NONE',  ( -1.205000000000000515, 0.5999999999999999778, 3.100000000000000533 ) ) ;
#7 = ORIENTED_EDGE ( 'NONE', *, *, #452, .T. ) ;
#8 = LINE ( 'NONE', #562, #262 ) ;
#9 = CARTESIAN_POINT ( 'NONE',  ( 0.2499999999999946709, 0.5999999999999999778, 2.395000000000004015 ) ) ;
#10 = VERTEX_POINT ( 'NONE', #134 ) ;
#11 = CARTESIAN_POINT ( 'NONE',  ( 0.2499999999999946709, 0.3950000000000000178, 3.816391647148975608E-15 ) ) ;
#12 = LINE ( 'NONE', #61, #585 ) ;
#13 = EDGE_LOOP ( 'NONE', ( #216, #307, #373, #406, #283, #445, #24, #2 ) ) ;
#14 = EDGE_CURVE ( 'NONE', #103, #223, #46, .T. ) ;
#15 = FACE_BOUND ( 'NONE', #364, .T. ) ;
#16 = DIRECTION ( 'NONE',  ( -2.465190328815661892E-32, 0.000000000000000000, 1.000000000000000000 ) ) ;
#17 = ORIENTED_EDGE ( 'NONE', *, *, #27, .F. ) ;
#18 = VECTOR ( 'NONE', #509, 100.0000000000000000 ) ;
#19 = DIRECTION ( 'NONE',  ( 0.000000000000000000, 1.000000000000000000, 0.000000000000000000 ) ) ;
#20 = VERTEX_POINT ( 'NONE', #89 ) ;
#21 = FACE_OUTER_BOUND ( 'NONE', #56, .T. ) ;
#22 = EDGE_CURVE ( 'NONE', #260, #242, #182, .T. ) ;
#23 = CARTESIAN_POINT ( 'NONE',  ( 0.000000000000000000, 0.000000000000000000, 5.000000000000000000 ) ) ;
#24 = ORIENTED_EDGE ( 'NONE', *, *, #550, .F. ) ;
#25 = LINE ( 'NONE', #590, #467 ) ;
#26 = ORIENTED_EDGE ( 'NONE', *, *, #229, .F. ) ;
#27 = EDGE_CURVE ( 'NONE', #211, #156, #453, .T. ) ;
#28 = CIRCLE ( 'NONE', #429, 0.3099999999999988320 ) ;
#29 = CARTESIAN_POINT ( 'NONE',  ( -27.53536453439562948, 0.000000000000000000, 0.2601481315458259447 ) ) ;
#30 = CARTESIAN_POINT ( 'NONE',  ( 0.2499999999999946709, 0.3950000000000000178, 3.816391647148975608E-15 ) ) ;
#31 = VERTEX_POINT ( 'NONE', #506 ) ;
#32 = CARTESIAN_POINT ( 'NONE',  ( 0.000000000000000000, 0.3950000000000000178, 0.000000000000000000 ) ) ;
#33 = FACE_OUTER_BOUND ( 'NONE', #363, .T. ) ;
#34 = ORIENTED_EDGE ( 'NONE', *, *, #425, .T. ) ;
#35 = ADVANCED_FACE ( 'NONE', ( #312, #357 ), #219, .T. ) ;
#36 = CARTESIAN_POINT ( 'NONE',  ( 0.000000000000000000, 0.8049999999999999378, 0.000000000000000000 ) ) ;
#37 = ORIENTED_EDGE ( 'NONE', *, *, #87, .T. ) ;
#38 = VECTOR ( 'NONE', #266, 100.0000000000000000 ) ;
#39 = AXIS2_PLACEMENT_3D ( 'NONE', #248, #200, #441 ) ;
#40 = PRODUCT_RELATED_PRODUCT_CATEGORY ( 'part', '', ( #144 ) ) ;
#41 =( NAMED_UNIT ( * ) SI_UNIT ( $, .STERADIAN. ) SOLID_ANGLE_UNIT ( ) );
#42 = SURFACE_STYLE_FILL_AREA ( #135 ) ;
#43 = EDGE_LOOP ( 'NONE', ( #7, #70, #120, #91 ) ) ;
#44 = ADVANCED_FACE ( 'NONE', ( #311 ), #602, .T. ) ;
#45 = AXIS2_PLACEMENT_3D ( 'NONE', #468, #273, #569 ) ;
#46 = LINE ( 'NONE', #414, #597 ) ;
#47 = EDGE_CURVE ( 'NONE', #369, #351, #139, .T. ) ;
#48 = EDGE_LOOP ( 'NONE', ( #435, #113, #595, #137 ) ) ;
#49 = EDGE_CURVE ( 'NONE', #299, #78, #457, .T. ) ;
#50 = DIRECTION ( 'NONE',  ( 0.000000000000000000, 0.000000000000000000, 1.000000000000000000 ) ) ;
#51 = DIRECTION ( 'NONE',  ( 1.000000000000000000, 0.000000000000000000, 1.272130549049658700E-16 ) ) ;
#52 = ORIENTED_EDGE ( 'NONE', *, *, #413, .T. ) ;
#53 = AXIS2_PLACEMENT_3D ( 'NONE', #166, #388, #68 ) ;
#54 = CARTESIAN_POINT ( 'NONE',  ( 0.000000000000000000, 0.000000000000000000, 5.000000000000000000 ) ) ;
#55 = DIRECTION ( 'NONE',  ( -0.000000000000000000, 1.000000000000000000, 0.000000000000000000 ) ) ;
#56 = EDGE_LOOP ( 'NONE', ( #233, #564, #201, #82 ) ) ;
#57 = CYLINDRICAL_SURFACE ( 'NONE', #392, 0.3099999999999988320 ) ;
#58 = CARTESIAN_POINT ( 'NONE',  ( -7.500000000000041744, 1.199999999999999956, 4.999999999999996447 ) ) ;
#59 = ADVANCED_FACE ( 'NONE', ( #520 ), #191, .F. ) ;
#60 = DIRECTION ( 'NONE',  ( 1.000000000000000000, 0.000000000000000000, 2.465190328815661892E-32 ) ) ;
#61 = CARTESIAN_POINT ( 'NONE',  ( -27.47382017840123680, 6.730727086790011526E-14, -3.469446951953614189E-16 ) ) ;
#62 = ORIENTED_EDGE ( 'NONE', *, *, #533, .F. ) ;
#63 = DIRECTION ( 'NONE',  ( 1.000000000000000000, 0.000000000000000000, 1.272130549049658700E-16 ) ) ;
#64 = ORIENTED_EDGE ( 'NONE', *, *, #269, .T. ) ;
#65 = CIRCLE ( 'NONE', #310, 0.2049999999999999600 ) ;
#66 = CARTESIAN_POINT ( 'NONE',  ( -15.00000000000000178, 0.8049999999999999378, 2.499999999999998224 ) ) ;
#67 = ORIENTED_EDGE ( 'NONE', *, *, #229, .T. ) ;
#68 = DIRECTION ( 'NONE',  ( 1.000000000000000000, 0.000000000000000000, 0.000000000000000000 ) ) ;
#69 = CARTESIAN_POINT ( 'NONE',  ( -2.395000000000002682, 0.5999999999999999778, 3.100000000000000089 ) ) ;
#70 = ORIENTED_EDGE ( 'NONE', *, *, #194, .T. ) ;
#71 =( BOUNDED_CURVE ( )  B_SPLINE_CURVE ( 3, ( #469, #286, #99, #328 ),
 .UNSPECIFIED., .F., .T. ) 
 B_SPLINE_CURVE_WITH_KNOTS ( ( 4, 4 ),
 ( 3.141592653589793116, 6.283185307179586232 ),
 .UNSPECIFIED. ) 
 CURVE ( )  GEOMETRIC_REPRESENTATION_ITEM ( )  RATIONAL_B_SPLINE_CURVE ( ( 1.000000000000000000, 0.3333333333333333703, 0.3333333333333333703, 1.000000000000000000 ) ) 
 REPRESENTATION_ITEM ( '' )  );
#72 = DIRECTION ( 'NONE',  ( 1.272130549049658700E-16, 0.000000000000000000, -1.000000000000000000 ) ) ;
#73 = LINE ( 'NONE', #531, #263 ) ;
#74 = EDGE_LOOP ( 'NONE', ( #136, #592 ) ) ;
#75 = CIRCLE ( 'NONE', #221, 0.3100000000000009970 ) ;
#76 = CARTESIAN_POINT ( 'NONE',  ( -27.53536453439562237, 1.199999999999999956, 0.2601481315458259447 ) ) ;
#77 = DIRECTION ( 'NONE',  ( 1.000000000000000000, 0.000000000000000000, 2.465190328815661892E-32 ) ) ;
#78 = VERTEX_POINT ( 'NONE', #366 ) ;
#79 = EDGE_CURVE ( 'NONE', #462, #390, #508, .T. ) ;
#80 = DIRECTION ( 'NONE',  ( 0.9731387067013589354, 0.000000000000000000, 0.2302195854387857898 ) ) ;
#81 = DIRECTION ( 'NONE',  ( 0.000000000000000000, -1.000000000000000000, 0.000000000000000000 ) ) ;
#82 = ORIENTED_EDGE ( 'NONE', *, *, #278, .T. ) ;
#83 = CARTESIAN_POINT ( 'NONE',  ( 0.000000000000000000, 0.000000000000000000, 0.000000000000000000 ) ) ;
#84 =( NAMED_UNIT ( * ) PLANE_ANGLE_UNIT ( ) SI_UNIT ( $, .RADIAN. ) );
#85 = CIRCLE ( 'NONE', #417, 0.2049999999999999600 ) ;
#86 = AXIS2_PLACEMENT_3D ( 'NONE', #538, #490, #587 ) ;
#87 = EDGE_CURVE ( 'NONE', #322, #151, #145, .T. ) ;
#88 = CARTESIAN_POINT ( 'NONE',  ( -0.1500000000000000222, 0.006000000000000000125, 0.02499999999999998404 ) ) ;
#89 = CARTESIAN_POINT ( 'NONE',  ( -27.47382017840123325, 0.000000000000000000, -4.163336342344337027E-15 ) ) ;
#90 = EDGE_CURVE ( 'NONE', #360, #275, #240, .T. ) ;
#91 = ORIENTED_EDGE ( 'NONE', *, *, #79, .F. ) ;
#92 = VERTEX_POINT ( 'NONE', #54 ) ;
#93 =( GEOMETRIC_REPRESENTATION_CONTEXT ( 3 ) GLOBAL_UNCERTAINTY_ASSIGNED_CONTEXT ( ( #553 ) ) GLOBAL_UNIT_ASSIGNED_CONTEXT ( ( #129, #84, #607 ) ) REPRESENTATION_CONTEXT ( 'NONE', 'WORKASPACE' ) );
#94 = ORIENTED_EDGE ( 'NONE', *, *, #133, .T. ) ;
#95 = EDGE_CURVE ( 'NONE', #103, #242, #472, .T. ) ;
#96 = FACE_OUTER_BOUND ( 'NONE', #487, .T. ) ;
#97 = FACE_OUTER_BOUND ( 'NONE', #522, .T. ) ;
#98 = FACE_OUTER_BOUND ( 'NONE', #74, .T. ) ;
#99 = CARTESIAN_POINT ( 'NONE',  ( -9.907664313965327096, -0.02000000000000057288, -3.469446951953614189E-16 ) ) ;
#100 = AXIS2_PLACEMENT_3D ( 'NONE', #255, #586, #118 ) ;
#101 = DIRECTION ( 'NONE',  ( -2.465190328815661892E-32, 0.000000000000000000, 1.000000000000000000 ) ) ;
#102 = LINE ( 'NONE', #512, #18 ) ;
#103 = VERTEX_POINT ( 'NONE', #11 ) ;
#104 = DIRECTION ( 'NONE',  ( 1.000000000000000000, 0.000000000000000000, 0.000000000000000000 ) ) ;
#105 = CARTESIAN_POINT ( 'NONE',  ( -9.270550616061342453, 0.5999999999999999778, -3.469446951953614189E-16 ) ) ;
#106 = EDGE_LOOP ( 'NONE', ( #334, #466, #117, #504 ) ) ;
#107 = DIRECTION ( 'NONE',  ( 1.000000000000000000, 0.000000000000000000, 0.000000000000000000 ) ) ;
#108 = CYLINDRICAL_SURFACE ( 'NONE', #172, 0.3100000000000009970 ) ;
#109 = ORIENTED_EDGE ( 'NONE', *, *, #449, .T. ) ;
#110 = STYLED_ITEM ( 'NONE', ( #479 ), #609 ) ;
#111 = CARTESIAN_POINT ( 'NONE',  ( -7.500000000000000000, 0.000000000000000000, 5.000000000000002665 ) ) ;
#112 = DIRECTION ( 'NONE',  ( 0.000000000000000000, 0.000000000000000000, 1.000000000000000000 ) ) ;
#113 = ORIENTED_EDGE ( 'NONE', *, *, #27, .T. ) ;
#114 = AXIS2_PLACEMENT_3D ( 'NONE', #292, #112, #170 ) ;
#115 = DIRECTION ( 'NONE',  ( 0.000000000000000000, 0.000000000000000000, 1.000000000000000000 ) ) ;
#116 = LINE ( 'NONE', #124, #418 ) ;
#117 = ORIENTED_EDGE ( 'NONE', *, *, #510, .T. ) ;
#118 = DIRECTION ( 'NONE',  ( 1.000000000000000000, 0.000000000000000000, 0.000000000000000000 ) ) ;
#119 = DIRECTION ( 'NONE',  ( 0.000000000000000000, -1.000000000000000000, 0.000000000000000000 ) ) ;
#120 = ORIENTED_EDGE ( 'NONE', *, *, #284, .T. ) ;
#121 = COLOUR_RGB ( '',1.000000000000000000, 1.000000000000000000, 1.000000000000000000 ) ;
#122 = DIRECTION ( 'NONE',  ( -0.2302195854387859286, 0.000000000000000000, 0.9731387067013588243 ) ) ;
#123 = ADVANCED_FACE ( 'NONE', ( #196 ), #377, .F. ) ;
#124 = CARTESIAN_POINT ( 'NONE',  ( 0.000000000000000000, 0.000000000000000000, 0.000000000000000000 ) ) ;
#125 = ORIENTED_EDGE ( 'NONE', *, *, #133, .F. ) ;
#126 = CARTESIAN_POINT ( 'NONE',  ( -9.369297363395993727, 0.5999999999999999778, -2.275678313855256540 ) ) ;
#127 = EDGE_LOOP ( 'NONE', ( #17, #305, #168, #442 ) ) ;
#128 = CARTESIAN_POINT ( 'NONE',  ( -27.47382017840123325, 1.199999999999999956, -5.551115123125782702E-15 ) ) ;
#129 =( LENGTH_UNIT ( ) NAMED_UNIT ( * ) SI_UNIT ( .CENTI., .METRE. ) );
#130 = ADVANCED_FACE ( 'NONE', ( #96 ), #57, .F. ) ;
#131 = SURFACE_SIDE_STYLE ('',( #42 ) ) ;
#132 = AXIS2_PLACEMENT_3D ( 'NONE', #565, #101, #511 ) ;
#133 = EDGE_CURVE ( 'NONE', #20, #339, #371, .T. ) ;
#134 = CARTESIAN_POINT ( 'NONE',  ( -0.5850000000000021849, 0.5999999999999999778, 3.100000000000000533 ) ) ;
#135 = FILL_AREA_STYLE ('',( #551 ) ) ;
#136 = ORIENTED_EDGE ( 'NONE', *, *, #267, .F. ) ;
#137 = ORIENTED_EDGE ( 'NONE', *, *, #14, .F. ) ;
#138 = AXIS2_PLACEMENT_3D ( 'NONE', #521, #55, #560 ) ;
#139 = LINE ( 'NONE', #514, #448 ) ;
#140 = DIRECTION ( 'NONE',  ( 1.000000000000000000, 0.000000000000000000, 1.272130549049658700E-16 ) ) ;
#141 = DIRECTION ( 'NONE',  ( -0.000000000000000000, 1.000000000000000000, 0.000000000000000000 ) ) ;
#142 = FACE_OUTER_BOUND ( 'NONE', #106, .T. ) ;
#143 = ADVANCED_FACE ( 'NONE', ( #98 ), #415, .F. ) ;
#144 = PRODUCT ( 'ramp-wall-lower-hole_62', 'ramp-wall-lower-hole_62', '', ( #548 ) ) ;
#145 = LINE ( 'NONE', #324, #547 ) ;
#146 = MECHANICAL_DESIGN_GEOMETRIC_PRESENTATION_REPRESENTATION (  '', ( #110 ), #498 ) ;
#147 = ADVANCED_FACE ( 'NONE', ( #518 ), #460, .T. ) ;
#148 = AXIS2_PLACEMENT_3D ( 'NONE', #515, #16, #197 ) ;
#149 = DIRECTION ( 'NONE',  ( -0.2302195854387860119, 0.000000000000000000, 0.9731387067013588243 ) ) ;
#150 = LINE ( 'NONE', #574, #488 ) ;
#151 = VERTEX_POINT ( 'NONE', #330 ) ;
#152 = EDGE_CURVE ( 'NONE', #480, #260, #8, .T. ) ;
#153 = PLANE ( 'NONE',  #539 ) ;
#154 = EDGE_CURVE ( 'NONE', #151, #236, #402, .T. ) ;
#155 = DIRECTION ( 'NONE',  ( -0.2302195854387859841, 0.000000000000000000, 0.9731387067013589354 ) ) ;
#156 = VERTEX_POINT ( 'NONE', #426 ) ;
#157 = DIRECTION ( 'NONE',  ( -0.000000000000000000, 1.000000000000000000, 0.000000000000000000 ) ) ;
#158 = DIRECTION ( 'NONE',  ( -2.465190328815661892E-32, 0.000000000000000000, 1.000000000000000000 ) ) ;
#159 = ORIENTED_EDGE ( 'NONE', *, *, #293, .T. ) ;
#160 = CARTESIAN_POINT ( 'NONE',  ( 0.2499999999999946709, 0.8049999999999999378, 3.816391647148975608E-15 ) ) ;
#161 = VECTOR ( 'NONE', #185, 100.0000000000000000 ) ;
#162 = DIRECTION ( 'NONE',  ( -0.2302195854387859841, 0.000000000000000000, 0.9731387067013589354 ) ) ;
#163 = EDGE_LOOP ( 'NONE', ( #174, #532, #379, #257 ) ) ;
#164 = CARTESIAN_POINT ( 'NONE',  ( -27.53536453439562237, 1.199999999999999956, 0.2601481315458259447 ) ) ;
#165 = ORIENTED_EDGE ( 'NONE', *, *, #589, .F. ) ;
#166 = CARTESIAN_POINT ( 'NONE',  ( -0.8950000000000013500, 0.5999999999999999778, 3.100000000000000533 ) ) ;
#167 = CYLINDRICAL_SURFACE ( 'NONE', #5, 0.3100000000000009970 ) ;
#168 = ORIENTED_EDGE ( 'NONE', *, *, #152, .F. ) ;
#169 = CARTESIAN_POINT ( 'NONE',  ( -26.00442839046255727, 1.199999999999999956, -6.211122400498121365 ) ) ;
#170 = DIRECTION ( 'NONE',  ( 1.000000000000000000, 0.000000000000000000, 0.000000000000000000 ) ) ;
#171 = ORIENTED_EDGE ( 'NONE', *, *, #584, .T. ) ;
#172 = AXIS2_PLACEMENT_3D ( 'NONE', #232, #155, #566 ) ;
#173 = DIRECTION ( 'NONE',  ( 1.000000000000000000, 0.000000000000000000, 2.139492287038061508E-16 ) ) ;
#174 = ORIENTED_EDGE ( 'NONE', *, *, #492, .F. ) ;
#175 = ADVANCED_FACE ( 'NONE', ( #374, #15, #573 ), #153, .T. ) ;
#176 = CARTESIAN_POINT ( 'NONE',  ( 0.2499999999999946709, 0.8049999999999999378, 3.816391647148975608E-15 ) ) ;
#177 = ORIENTED_EDGE ( 'NONE', *, *, #296, .F. ) ;
#178 = CIRCLE ( 'NONE', #517, 0.3100000000000009970 ) ;
#179 = DIRECTION ( 'NONE',  ( -1.000000000000000000, 0.000000000000000000, -2.139492287038061508E-16 ) ) ;
#180 = EDGE_LOOP ( 'NONE', ( #190, #249 ) ) ;
#181 = ORIENTED_EDGE ( 'NONE', *, *, #237, .T. ) ;
#182 = LINE ( 'NONE', #176, #38 ) ;
#183 = PLANE ( 'NONE',  #559 ) ;
#184 = VECTOR ( 'NONE', #558, 100.0000000000000142 ) ;
#185 = DIRECTION ( 'NONE',  ( 1.000000000000000000, 0.000000000000000000, 0.000000000000000000 ) ) ;
#186 = DIRECTION ( 'NONE',  ( 0.000000000000000000, 0.000000000000000000, 1.000000000000000000 ) ) ;
#187 = EDGE_LOOP ( 'NONE', ( #220, #94, #384, #588 ) ) ;
#188 = DIRECTION ( 'NONE',  ( 1.000000000000000000, 0.000000000000000000, 0.000000000000000000 ) ) ;
#189 = CARTESIAN_POINT ( 'NONE',  ( 0.000000000000000000, 1.199999999999999956, 0.000000000000000000 ) ) ;
#190 = ORIENTED_EDGE ( 'NONE', *, *, #452, .F. ) ;
#191 = CYLINDRICAL_SURFACE ( 'NONE', #475, 0.3099999999999988320 ) ;
#192 = PLANE ( 'NONE',  #138 ) ;
#193 = ORIENTED_EDGE ( 'NONE', *, *, #599, .T. ) ;
#194 = EDGE_CURVE ( 'NONE', #31, #502, #344, .T. ) ;
#195 = AXIS2_PLACEMENT_3D ( 'NONE', #410, #141, #63 ) ;
#196 = FACE_OUTER_BOUND ( 'NONE', #163, .T. ) ;
#197 = DIRECTION ( 'NONE',  ( 1.000000000000000000, 0.000000000000000000, 0.000000000000000000 ) ) ;
#198 = EDGE_LOOP ( 'NONE', ( #542, #177 ) ) ;
#199 = CARTESIAN_POINT ( 'NONE',  ( 0.000000000000000000, 0.8049999999999999378, 0.000000000000000000 ) ) ;
#200 = DIRECTION ( 'NONE',  ( -2.465190328815661892E-32, 0.000000000000000000, 1.000000000000000000 ) ) ;
#201 = ORIENTED_EDGE ( 'NONE', *, *, #22, .T. ) ;
#202 = DIRECTION ( 'NONE',  ( 0.000000000000000000, 1.000000000000000000, 0.000000000000000000 ) ) ;
#203 = LINE ( 'NONE', #400, #450 ) ;
#204 = ORIENTED_EDGE ( 'NONE', *, *, #543, .F. ) ;
#205 = APPLICATION_CONTEXT ( 'automotive_design' ) ;
#206 = CARTESIAN_POINT ( 'NONE',  ( -9.930923710479159894, 0.5999999999999999778, 1.444858040240777353 ) ) ;
#207 = CARTESIAN_POINT ( 'NONE',  ( 0.2499999999999946709, 0.3950000000000000178, 3.816391647148975608E-15 ) ) ;
#208 = ORIENTED_EDGE ( 'NONE', *, *, #90, .F. ) ;
#209 = FACE_OUTER_BOUND ( 'NONE', #187, .T. ) ;
#210 = DIRECTION ( 'NONE',  ( 0.000000000000000000, 1.000000000000000000, 0.000000000000000000 ) ) ;
#211 = VERTEX_POINT ( 'NONE', #341 ) ;
#212 = LINE ( 'NONE', #337, #309 ) ;
#213 = DIRECTION ( 'NONE',  ( 1.000000000000000000, 0.000000000000000000, 1.272130549049658700E-16 ) ) ;
#214 = VERTEX_POINT ( 'NONE', #111 ) ;
#215 = CARTESIAN_POINT ( 'NONE',  ( 0.2499999999999946709, 0.5999999999999999778, 2.395000000000004015 ) ) ;
#216 = ORIENTED_EDGE ( 'NONE', *, *, #458, .F. ) ;
#217 = VECTOR ( 'NONE', #419, 100.0000000000000000 ) ;
#218 = VECTOR ( 'NONE', #282, 100.0000000000000142 ) ;
#219 = PLANE ( 'NONE',  #528 ) ;
#220 = ORIENTED_EDGE ( 'NONE', *, *, #458, .T. ) ;
#221 = AXIS2_PLACEMENT_3D ( 'NONE', #206, #525, #291 ) ;
#222 = ADVANCED_FACE ( 'NONE', ( #21 ), #537, .T. ) ;
#223 = VERTEX_POINT ( 'NONE', #32 ) ;
#224 = CARTESIAN_POINT ( 'NONE',  ( -0.8950000000000013500, 0.5999999999999999778, 3.100000000000000533 ) ) ;
#225 = CARTESIAN_POINT ( 'NONE',  ( -9.907664313965325320, 0.5999999999999999778, -3.469446951953614189E-16 ) ) ;
#226 = VECTOR ( 'NONE', #493, 100.0000000000000000 ) ;
#227 = AXIS2_PLACEMENT_3D ( 'NONE', #69, #437, #77 ) ;
#228 = CARTESIAN_POINT ( 'NONE',  ( -2.395000000000002682, 0.5999999999999999778, 3.100000000000000089 ) ) ;
#229 = EDGE_CURVE ( 'NONE', #214, #360, #212, .T. ) ;
#230 = DIRECTION ( 'NONE',  ( -1.000000000000000000, 0.000000000000000000, 0.000000000000000000 ) ) ;
#231 = DIRECTION ( 'NONE',  ( 0.000000000000000000, 0.000000000000000000, 1.000000000000000000 ) ) ;
#232 = CARTESIAN_POINT ( 'NONE',  ( -9.067624364318572106, 0.5999999999999999778, -2.204310242369233119 ) ) ;
#233 = ORIENTED_EDGE ( 'NONE', *, *, #272, .T. ) ;
#234 = CARTESIAN_POINT ( 'NONE',  ( -2.395000000000002682, 0.5999999999999999778, 5.000000000000000000 ) ) ;
#235 = CARTESIAN_POINT ( 'NONE',  ( -15.00000000000000178, 0.3950000000000000178, 2.499999999999998224 ) ) ;
#236 = VERTEX_POINT ( 'NONE', #399 ) ;
#237 = EDGE_CURVE ( 'NONE', #92, #353, #540, .T. ) ;
#238 = COLOUR_RGB ( '',0.6941176470588235059, 0.09803921568627450844, 0.09803921568627450844 ) ;
#239 = VECTOR ( 'NONE', #385, 100.0000000000000000 ) ;
#240 = LINE ( 'NONE', #382, #161 ) ;
#241 = DIRECTION ( 'NONE',  ( 0.000000000000000000, 1.000000000000000000, 0.000000000000000000 ) ) ;
#242 = VERTEX_POINT ( 'NONE', #160 ) ;
#243 = LINE ( 'NONE', #76, #226 ) ;
#244 = CARTESIAN_POINT ( 'NONE',  ( -2.395000000000002682, 0.5999999999999999778, 5.000000000000000000 ) ) ;
#245 = VERTEX_POINT ( 'NONE', #297 ) ;
#246 = CARTESIAN_POINT ( 'NONE',  ( -9.930923710479159894, 0.5999999999999999778, 1.444858040240777353 ) ) ;
#247 = EDGE_CURVE ( 'NONE', #480, #156, #85, .T. ) ;
#248 = CARTESIAN_POINT ( 'NONE',  ( -2.395000000000002682, 0.5999999999999999778, 3.100000000000000089 ) ) ;
#249 = ORIENTED_EDGE ( 'NONE', *, *, #413, .F. ) ;
#250 = CARTESIAN_POINT ( 'NONE',  ( -0.5850000000000021849, 0.5999999999999999778, 5.000000000000000000 ) ) ;
#251 = VECTOR ( 'NONE', #598, 100.0000000000000000 ) ;
#252 = CYLINDRICAL_SURFACE ( 'NONE', #114, 0.3099999999999988320 ) ;
#253 = ORIENTED_EDGE ( 'NONE', *, *, #499, .T. ) ;
#254 = EDGE_CURVE ( 'NONE', #339, #280, #243, .T. ) ;
#255 = CARTESIAN_POINT ( 'NONE',  ( -0.8950000000000013500, 0.5999999999999999778, 5.000000000000000000 ) ) ;
#256 = LINE ( 'NONE', #207, #336 ) ;
#257 = ORIENTED_EDGE ( 'NONE', *, *, #49, .T. ) ;
#258 = EDGE_CURVE ( 'NONE', #302, #10, #583, .T. ) ;
#259 = DIRECTION ( 'NONE',  ( 0.000000000000000000, -1.000000000000000000, 0.000000000000000000 ) ) ;
#260 = VERTEX_POINT ( 'NONE', #534 ) ;
#261 = LINE ( 'NONE', #403, #251 ) ;
#262 = VECTOR ( 'NONE', #320, 100.0000000000000000 ) ;
#263 = VECTOR ( 'NONE', #210, 100.0000000000000000 ) ;
#264 = DIRECTION ( 'NONE',  ( 1.000000000000000000, 0.000000000000000000, 1.272130549049658700E-16 ) ) ;
#265 = EDGE_LOOP ( 'NONE', ( #554, #52, #513, #401 ) ) ;
#266 = DIRECTION ( 'NONE',  ( 1.272130549049658700E-16, -0.000000000000000000, -1.000000000000000000 ) ) ;
#267 = EDGE_CURVE ( 'NONE', #390, #502, #178, .T. ) ;
#268 = VECTOR ( 'NONE', #72, 100.0000000000000000 ) ;
#269 = EDGE_CURVE ( 'NONE', #351, #280, #25, .T. ) ;
#270 = DIRECTION ( 'NONE',  ( 0.9731387067013588243, 0.000000000000000000, 0.2302195854387859841 ) ) ;
#271 = CARTESIAN_POINT ( 'NONE',  ( -9.907664313965327096, 1.220000000000000639, -3.469446951953614189E-16 ) ) ;
#272 = EDGE_CURVE ( 'NONE', #343, #480, #530, .T. ) ;
#273 = DIRECTION ( 'NONE',  ( 0.000000000000000000, 0.000000000000000000, 1.000000000000000000 ) ) ;
#274 = CARTESIAN_POINT ( 'NONE',  ( -9.629250711401740048, 0.5999999999999999778, 1.516226111726800774 ) ) ;
#275 = VERTEX_POINT ( 'NONE', #300 ) ;
#276 = VECTOR ( 'NONE', #443, 100.0000000000000000 ) ;
#277 = DIRECTION ( 'NONE',  ( 0.000000000000000000, 0.000000000000000000, 1.000000000000000000 ) ) ;
#278 = EDGE_CURVE ( 'NONE', #242, #343, #576, .T. ) ;
#279 = FACE_OUTER_BOUND ( 'NONE', #48, .T. ) ;
#280 = VERTEX_POINT ( 'NONE', #164 ) ;
#281 = CARTESIAN_POINT ( 'NONE',  ( -0.8950000000000013500, 0.5999999999999999778, 3.100000000000000533 ) ) ;
#282 = DIRECTION ( 'NONE',  ( -0.9731387067013588243, 0.000000000000000000, -0.2302195854387859841 ) ) ;
#283 = ORIENTED_EDGE ( 'NONE', *, *, #95, .F. ) ;
#284 = EDGE_CURVE ( 'NONE', #502, #390, #75, .T. ) ;
#285 = DIRECTION ( 'NONE',  ( -1.000000000000000000, 0.000000000000000000, 0.000000000000000000 ) ) ;
#286 = CARTESIAN_POINT ( 'NONE',  ( -9.270550616061342453, -0.02000000000000057288, -3.469446951953614189E-16 ) ) ;
#287 =( GEOMETRIC_REPRESENTATION_CONTEXT ( 3 ) GLOBAL_UNCERTAINTY_ASSIGNED_CONTEXT ( ( #459 ) ) GLOBAL_UNIT_ASSIGNED_CONTEXT ( ( #407, #545, #405 ) ) REPRESENTATION_CONTEXT ( 'NONE', 'WORKASPACE' ) );
#288 = EDGE_LOOP ( 'NONE', ( #26, #398, #34, #208 ) ) ;
#289 = STYLED_ITEM ( 'NONE', ( #451 ), #35 ) ;
#290 = VECTOR ( 'NONE', #241, 100.0000000000000000 ) ;
#291 = DIRECTION ( 'NONE',  ( 0.9731387067013589354, 0.000000000000000000, 0.2302195854387857898 ) ) ;
#292 = CARTESIAN_POINT ( 'NONE',  ( -2.395000000000002682, 0.5999999999999999778, 3.100000000000000089 ) ) ;
#293 = EDGE_CURVE ( 'NONE', #322, #245, #28, .T. ) ;
#294 = DIRECTION ( 'NONE',  ( -0.2302195854387860119, 0.000000000000000000, 0.9731387067013588243 ) ) ;
#295 = ORIENTED_EDGE ( 'NONE', *, *, #449, .F. ) ;
#296 = EDGE_CURVE ( 'NONE', #78, #299, #358, .T. ) ;
#297 = CARTESIAN_POINT ( 'NONE',  ( -2.085000000000003517, 0.5999999999999999778, 3.100000000000000533 ) ) ;
#298 = FILL_AREA_STYLE ('',( #591 ) ) ;
#299 = VERTEX_POINT ( 'NONE', #250 ) ;
#300 = CARTESIAN_POINT ( 'NONE',  ( 0.000000000000000000, 1.199999999999999956, 5.000000000000000000 ) ) ;
#301 = PRESENTATION_LAYER_ASSIGNMENT (  '', '', ( #289 ) ) ;
#302 = VERTEX_POINT ( 'NONE', #478 ) ;
#303 = DIRECTION ( 'NONE',  ( 1.000000000000000000, 0.000000000000000000, 1.272130549049658700E-16 ) ) ;
#304 = FACE_OUTER_BOUND ( 'NONE', #527, .T. ) ;
#305 = ORIENTED_EDGE ( 'NONE', *, *, #477, .F. ) ;
#306 = DIRECTION ( 'NONE',  ( 0.2302195854387860119, 0.000000000000000000, -0.9731387067013588243 ) ) ;
#307 = ORIENTED_EDGE ( 'NONE', *, *, #47, .F. ) ;
#308 = DIRECTION ( 'NONE',  ( -1.000000000000000000, -0.000000000000000000, -1.539277964350119435E-14 ) ) ;
#309 = VECTOR ( 'NONE', #202, 100.0000000000000000 ) ;
#310 = AXIS2_PLACEMENT_3D ( 'NONE', #9, #140, #378 ) ;
#311 = FACE_OUTER_BOUND ( 'NONE', #491, .T. ) ;
#312 = FACE_BOUND ( 'NONE', #180, .T. ) ;
#313 = UNCERTAINTY_MEASURE_WITH_UNIT (LENGTH_MEASURE( 1.000000000000000082E-05 ), #497, 'distance_accuracy_value', 'NONE');
#314 = ORIENTED_EDGE ( 'NONE', *, *, #499, .F. ) ;
#315 = AXIS2_PLACEMENT_3D ( 'NONE', #281, #4, #60 ) ;
#316 = VECTOR ( 'NONE', #230, 100.0000000000000000 ) ;
#317 = CARTESIAN_POINT ( 'NONE',  ( 0.2499999999999946709, 0.3950000000000000178, 3.816391647148975608E-15 ) ) ;
#318 = LINE ( 'NONE', #321, #290 ) ;
#319 = PRODUCT_DEFINITION_CONTEXT ( 'detailed design', #205, 'design' ) ;
#320 = DIRECTION ( 'NONE',  ( 1.000000000000000000, 0.000000000000000000, 2.139492287038061508E-16 ) ) ;
#321 = CARTESIAN_POINT ( 'NONE',  ( 0.000000000000000000, 0.000000000000000000, 5.000000000000000000 ) ) ;
#322 = VERTEX_POINT ( 'NONE', #440 ) ;
#323 = APPLICATION_CONTEXT ( 'automotive_design' ) ;
#324 = CARTESIAN_POINT ( 'NONE',  ( -2.705000000000001847, 0.5999999999999999778, 3.100000000000000089 ) ) ;
#325 = FACE_OUTER_BOUND ( 'NONE', #43, .T. ) ;
#326 = ORIENTED_EDGE ( 'NONE', *, *, #247, .F. ) ;
#327 = CARTESIAN_POINT ( 'NONE',  ( -8.765951365241150484, 0.5999999999999999778, -2.132942170883209698 ) ) ;
#328 = CARTESIAN_POINT ( 'NONE',  ( -9.907664313965325320, 0.5999999999999999778, -3.469446951953614189E-16 ) ) ;
#329 = ORIENTED_EDGE ( 'NONE', *, *, #533, .T. ) ;
#330 = CARTESIAN_POINT ( 'NONE',  ( -2.705000000000001847, 0.5999999999999999778, 5.000000000000000000 ) ) ;
#331 = CARTESIAN_POINT ( 'NONE',  ( -9.270550616061342453, 0.5999999999999999778, -3.469446951953614189E-16 ) ) ;
#332 = CARTESIAN_POINT ( 'NONE',  ( 0.000000000000000000, 0.5999999999999999778, 2.395000000000003570 ) ) ;
#333 = DIRECTION ( 'NONE',  ( 1.000000000000000000, 0.000000000000000000, 0.000000000000000000 ) ) ;
#334 = ORIENTED_EDGE ( 'NONE', *, *, #22, .F. ) ;
#335 = VECTOR ( 'NONE', #149, 100.0000000000000142 ) ;
#336 = VECTOR ( 'NONE', #342, 100.0000000000000000 ) ;
#337 = CARTESIAN_POINT ( 'NONE',  ( -7.500000000000000000, 0.000000000000000000, 5.000000000000002665 ) ) ;
#338 = DIRECTION ( 'NONE',  ( 0.000000000000000000, 0.000000000000000000, 1.000000000000000000 ) ) ;
#339 = VERTEX_POINT ( 'NONE', #29 ) ;
#340 = ADVANCED_FACE ( 'NONE', ( #209 ), #489, .F. ) ;
#341 = CARTESIAN_POINT ( 'NONE',  ( 0.2499999999999946709, 0.3950000000000000178, 2.395000000000004015 ) ) ;
#342 = DIRECTION ( 'NONE',  ( 1.272130549049658700E-16, -0.000000000000000000, -1.000000000000000000 ) ) ;
#343 = VERTEX_POINT ( 'NONE', #36 ) ;
#344 = LINE ( 'NONE', #126, #3 ) ;
#345 = CARTESIAN_POINT ( 'NONE',  ( -9.067624364318572106, 0.5999999999999999778, -2.204310242369233119 ) ) ;
#346 = ORIENTED_EDGE ( 'NONE', *, *, #486, .F. ) ;
#347 = DIRECTION ( 'NONE',  ( 0.9731387067013589354, -2.383957853025511309E-15, 0.2302195854387860396 ) ) ;
#348 = AXIS2_PLACEMENT_3D ( 'NONE', #215, #173, #352 ) ;
#349 = EDGE_CURVE ( 'NONE', #214, #92, #261, .T. ) ;
#350 = DIRECTION ( 'NONE',  ( 0.9731387067013589354, 0.000000000000000000, 0.2302195854387857898 ) ) ;
#351 = VERTEX_POINT ( 'NONE', #128 ) ;
#352 = DIRECTION ( 'NONE',  ( 2.115516434118057955E-16, 0.000000000000000000, -1.000000000000000000 ) ) ;
#353 = VERTEX_POINT ( 'NONE', #83 ) ;
#354 =( NAMED_UNIT ( * ) PLANE_ANGLE_UNIT ( ) SI_UNIT ( $, .RADIAN. ) );
#355 = ORIENTED_EDGE ( 'NONE', *, *, #367, .F. ) ;
#356 = PRESENTATION_LAYER_ASSIGNMENT (  '', '', ( #110 ) ) ;
#357 = FACE_OUTER_BOUND ( 'NONE', #13, .T. ) ;
#358 = CIRCLE ( 'NONE', #100, 0.3099999999999988320 ) ;
#359 = ADVANCED_FACE ( 'NONE', ( #496 ), #544, .T. ) ;
#360 = VERTEX_POINT ( 'NONE', #58 ) ;
#361 = APPLICATION_PROTOCOL_DEFINITION ( 'draft international standard', 'automotive_design', 1998, #323 ) ;
#362 = EDGE_CURVE ( 'NONE', #10, #302, #411, .T. ) ;
#363 = EDGE_LOOP ( 'NONE', ( #326, #394, #171, #355, #474, #181, #567, #571 ) ) ;
#364 = EDGE_LOOP ( 'NONE', ( #516, #387 ) ) ;
#365 = AXIS2_PLACEMENT_3D ( 'NONE', #88, #601, #264 ) ;
#366 = CARTESIAN_POINT ( 'NONE',  ( -1.205000000000000515, 0.5999999999999999778, 5.000000000000000000 ) ) ;
#367 = EDGE_CURVE ( 'NONE', #275, #369, #150, .T. ) ;
#368 = LINE ( 'NONE', #465, #404 ) ;
#369 = VERTEX_POINT ( 'NONE', #189 ) ;
#370 = CIRCLE ( 'NONE', #39, 0.3099999999999988320 ) ;
#371 = LINE ( 'NONE', #422, #335 ) ;
#372 = LINE ( 'NONE', #461, #316 ) ;
#373 = ORIENTED_EDGE ( 'NONE', *, *, #584, .F. ) ;
#374 = FACE_BOUND ( 'NONE', #198, .T. ) ;
#375 = LINE ( 'NONE', #6, #529 ) ;
#376 = ORIENTED_EDGE ( 'NONE', *, *, #492, .T. ) ;
#377 = CYLINDRICAL_SURFACE ( 'NONE', #45, 0.3099999999999988320 ) ;
#378 = DIRECTION ( 'NONE',  ( 0.000000000000000000, -1.000000000000000000, 0.000000000000000000 ) ) ;
#379 = ORIENTED_EDGE ( 'NONE', *, *, #589, .T. ) ;
#380 = AXIS2_PLACEMENT_3D ( 'NONE', #430, #470, #270 ) ;
#381 = ADVANCED_FACE ( 'NONE', ( #325 ), #108, .F. ) ;
#382 = CARTESIAN_POINT ( 'NONE',  ( 0.000000000000000000, 1.199999999999999956, 5.000000000000000000 ) ) ;
#383 = DIRECTION ( 'NONE',  ( -2.449761618368254527E-15, -1.000000000000000000, 0.000000000000000000 ) ) ;
#384 = ORIENTED_EDGE ( 'NONE', *, *, #254, .T. ) ;
#385 = DIRECTION ( 'NONE',  ( -2.262257333030263515E-15, 0.000000000000000000, 1.000000000000000000 ) ) ;
#386 = CARTESIAN_POINT ( 'NONE',  ( -0.5850000000000021849, 0.5999999999999999778, 3.100000000000000533 ) ) ;
#387 = ORIENTED_EDGE ( 'NONE', *, *, #154, .F. ) ;
#388 = DIRECTION ( 'NONE',  ( -2.465190328815661892E-32, 0.000000000000000000, 1.000000000000000000 ) ) ;
#389 = SURFACE_STYLE_FILL_AREA ( #298 ) ;
#390 = VERTEX_POINT ( 'NONE', #274 ) ;
#391 = EDGE_CURVE ( 'NONE', #223, #156, #102, .T. ) ;
#392 = AXIS2_PLACEMENT_3D ( 'NONE', #228, #231, #104 ) ;
#393 = CARTESIAN_POINT ( 'NONE',  ( 0.000000000000000000, 0.000000000000000000, 5.000000000000000000 ) ) ;
#394 = ORIENTED_EDGE ( 'NONE', *, *, #272, .F. ) ;
#395 = ADVANCED_FACE ( 'NONE', ( #279 ), #183, .F. ) ;
#396 = DIRECTION ( 'NONE',  ( -2.465190328815661892E-32, 0.000000000000000000, 1.000000000000000000 ) ) ;
#397 = DIRECTION ( 'NONE',  ( 1.000000000000000000, 0.000000000000000000, 1.272130549049658700E-16 ) ) ;
#398 = ORIENTED_EDGE ( 'NONE', *, *, #349, .T. ) ;
#399 = CARTESIAN_POINT ( 'NONE',  ( -2.085000000000003517, 0.5999999999999999778, 5.000000000000000000 ) ) ;
#400 = CARTESIAN_POINT ( 'NONE',  ( -2.085000000000003517, 0.5999999999999999778, 3.100000000000000533 ) ) ;
#401 = ORIENTED_EDGE ( 'NONE', *, *, #267, .T. ) ;
#402 = CIRCLE ( 'NONE', #500, 0.3099999999999988320 ) ;
#403 = CARTESIAN_POINT ( 'NONE',  ( 0.000000000000000000, 0.000000000000000000, 5.000000000000000000 ) ) ;
#404 = VECTOR ( 'NONE', #423, 100.0000000000000142 ) ;
#405 =( NAMED_UNIT ( * ) SI_UNIT ( $, .STERADIAN. ) SOLID_ANGLE_UNIT ( ) );
#406 = ORIENTED_EDGE ( 'NONE', *, *, #278, .F. ) ;
#407 =( LENGTH_UNIT ( ) NAMED_UNIT ( * ) SI_UNIT ( .CENTI., .METRE. ) );
#408 = DIRECTION ( 'NONE',  ( -1.000000000000000000, 0.000000000000000000, 0.000000000000000000 ) ) ;
#409 = PRODUCT_DEFINITION_FORMATION_WITH_SPECIFIED_SOURCE ( 'ANY', '', #144, .NOT_KNOWN. ) ;
#410 = CARTESIAN_POINT ( 'NONE',  ( -15.00000000000000178, 1.199999999999999956, 2.499999999999998224 ) ) ;
#411 = CIRCLE ( 'NONE', #148, 0.3099999999999988320 ) ;
#412 = APPLICATION_PROTOCOL_DEFINITION ( 'draft international standard', 'automotive_design', 1998, #205 ) ;
#413 = EDGE_CURVE ( 'NONE', #31, #462, #482, .T. ) ;
#414 = CARTESIAN_POINT ( 'NONE',  ( 0.000000000000000000, 0.3950000000000000178, 0.000000000000000000 ) ) ;
#415 = PLANE ( 'NONE',  #380 ) ;
#416 = CARTESIAN_POINT ( 'NONE',  ( -5.551115123125782702E-15, 0.8049999999999999378, 2.395000000000004015 ) ) ;
#417 = AXIS2_PLACEMENT_3D ( 'NONE', #332, #303, #259 ) ;
#418 = VECTOR ( 'NONE', #19, 100.0000000000000000 ) ;
#419 = DIRECTION ( 'NONE',  ( 0.000000000000000000, 1.000000000000000000, 0.000000000000000000 ) ) ;
#420 = CARTESIAN_POINT ( 'NONE',  ( -9.270550616061342453, 1.220000000000000639, -3.469446951953614189E-16 ) ) ;
#421 = EDGE_LOOP ( 'NONE', ( #578, #62, #600, #193 ) ) ;
#422 = CARTESIAN_POINT ( 'NONE',  ( -26.00442839046256438, 0.000000000000000000, -6.211122400498123142 ) ) ;
#423 = DIRECTION ( 'NONE',  ( -0.9731387067013588243, 0.000000000000000000, -0.2302195854387859841 ) ) ;
#424 = ORIENTED_EDGE ( 'NONE', *, *, #47, .T. ) ;
#425 = EDGE_CURVE ( 'NONE', #92, #275, #318, .T. ) ;
#426 = CARTESIAN_POINT ( 'NONE',  ( -5.551115123125782702E-15, 0.3950000000000000178, 2.395000000000004015 ) ) ;
#427 = DIRECTION ( 'NONE',  ( 1.272130549049658700E-16, 0.000000000000000000, -1.000000000000000000 ) ) ;
#428 = ORIENTED_EDGE ( 'NONE', *, *, #154, .T. ) ;
#429 = AXIS2_PLACEMENT_3D ( 'NONE', #485, #396, #593 ) ;
#430 = CARTESIAN_POINT ( 'NONE',  ( -9.930923710479159894, 0.5999999999999999778, 1.444858040240777353 ) ) ;
#431 = PLANE ( 'NONE',  #86 ) ;
#432 = EDGE_LOOP ( 'NONE', ( #329, #159 ) ) ;
#433 = DIRECTION ( 'NONE',  ( 1.000000000000000000, 0.000000000000000000, 0.000000000000000000 ) ) ;
#434 = PLANE ( 'NONE',  #568 ) ;
#435 = ORIENTED_EDGE ( 'NONE', *, *, #510, .F. ) ;
#436 = CARTESIAN_POINT ( 'NONE',  ( 0.000000000000000000, 0.8049999999999999378, 0.000000000000000000 ) ) ;
#437 = DIRECTION ( 'NONE',  ( -2.465190328815661892E-32, 0.000000000000000000, 1.000000000000000000 ) ) ;
#438 = ORIENTED_EDGE ( 'NONE', *, *, #296, .T. ) ;
#439 = AXIS2_PLACEMENT_3D ( 'NONE', #169, #347, #306 ) ;
#440 = CARTESIAN_POINT ( 'NONE',  ( -2.705000000000001847, 0.5999999999999999778, 3.100000000000000089 ) ) ;
#441 = DIRECTION ( 'NONE',  ( 1.000000000000000000, 0.000000000000000000, 0.000000000000000000 ) ) ;
#442 = ORIENTED_EDGE ( 'NONE', *, *, #247, .T. ) ;
#443 = DIRECTION ( 'NONE',  ( -1.000000000000000000, -0.000000000000000000, -1.539277964350119435E-14 ) ) ;
#444 = FACE_OUTER_BOUND ( 'NONE', #265, .T. ) ;
#445 = ORIENTED_EDGE ( 'NONE', *, *, #14, .T. ) ;
#446 = CARTESIAN_POINT ( 'NONE',  ( 0.000000000000000000, 0.000000000000000000, 5.000000000000000000 ) ) ;
#447 = ORIENTED_EDGE ( 'NONE', *, *, #362, .T. ) ;
#448 = VECTOR ( 'NONE', #285, 100.0000000000000000 ) ;
#449 = EDGE_CURVE ( 'NONE', #360, #280, #368, .T. ) ;
#450 = VECTOR ( 'NONE', #338, 100.0000000000000000 ) ;
#451 = PRESENTATION_STYLE_ASSIGNMENT (( #456 ) ) ;
#452 = EDGE_CURVE ( 'NONE', #462, #31, #71, .T. ) ;
#453 = LINE ( 'NONE', #549, #557 ) ;
#454 = PRODUCT_DEFINITION_SHAPE ( 'NONE', 'NONE',  #552 ) ;
#455 = ORIENTED_EDGE ( 'NONE', *, *, #254, .F. ) ;
#456 = SURFACE_STYLE_USAGE ( .BOTH. , #131 ) ;
#457 = CIRCLE ( 'NONE', #132, 0.3099999999999988320 ) ;
#458 = EDGE_CURVE ( 'NONE', #351, #20, #12, .T. ) ;
#459 = UNCERTAINTY_MEASURE_WITH_UNIT (LENGTH_MEASURE( 1.000000000000000082E-05 ), #407, 'distance_accuracy_value', 'NONE');
#460 = PLANE ( 'NONE',  #315 ) ;
#461 = CARTESIAN_POINT ( 'NONE',  ( 0.000000000000000000, 0.000000000000000000, 0.000000000000000000 ) ) ;
#462 = VERTEX_POINT ( 'NONE', #331 ) ;
#463 = ADVANCED_FACE ( 'NONE', ( #97 ), #192, .F. ) ;
#464 = DIRECTION ( 'NONE',  ( -2.465190328815661892E-32, 0.000000000000000000, 1.000000000000000000 ) ) ;
#465 = CARTESIAN_POINT ( 'NONE',  ( -7.500000000000000000, 1.199999999999999956, 5.000000000000002665 ) ) ;
#466 = ORIENTED_EDGE ( 'NONE', *, *, #477, .T. ) ;
#467 = VECTOR ( 'NONE', #294, 100.0000000000000142 ) ;
#468 = CARTESIAN_POINT ( 'NONE',  ( -0.8950000000000013500, 0.5999999999999999778, 3.100000000000000533 ) ) ;
#469 = CARTESIAN_POINT ( 'NONE',  ( -9.270550616061342453, 0.5999999999999999778, -3.469446951953614189E-16 ) ) ;
#470 = DIRECTION ( 'NONE',  ( -0.2302195854387860119, 0.000000000000000000, 0.9731387067013589354 ) ) ;
#471 = PLANE ( 'NONE',  #476 ) ;
#472 = LINE ( 'NONE', #317, #217 ) ;
#473 = DIRECTION ( 'NONE',  ( -0.000000000000000000, 1.000000000000000000, 0.000000000000000000 ) ) ;
#474 = ORIENTED_EDGE ( 'NONE', *, *, #425, .F. ) ;
#475 = AXIS2_PLACEMENT_3D ( 'NONE', #224, #50, #107 ) ;
#476 = AXIS2_PLACEMENT_3D ( 'NONE', #30, #213, #81 ) ;
#477 = EDGE_CURVE ( 'NONE', #260, #211, #65, .T. ) ;
#478 = CARTESIAN_POINT ( 'NONE',  ( -1.205000000000000515, 0.5999999999999999778, 3.100000000000000533 ) ) ;
#479 = PRESENTATION_STYLE_ASSIGNMENT (( #526 ) ) ;
#480 = VERTEX_POINT ( 'NONE', #416 ) ;
#481 = DIRECTION ( 'NONE',  ( 1.000000000000000000, 0.000000000000000000, 1.272130549049658700E-16 ) ) ;
#482 =( BOUNDED_CURVE ( )  B_SPLINE_CURVE ( 3, ( #225, #271, #420, #105 ),
 .UNSPECIFIED., .F., .T. ) 
 B_SPLINE_CURVE_WITH_KNOTS ( ( 4, 4 ),
 ( 0.000000000000000000, 3.141592653589793116 ),
 .UNSPECIFIED. ) 
 CURVE ( )  GEOMETRIC_REPRESENTATION_ITEM ( )  RATIONAL_B_SPLINE_CURVE ( ( 1.000000000000000000, 0.3333333333333333703, 0.3333333333333333703, 1.000000000000000000 ) ) 
 REPRESENTATION_ITEM ( '' )  );
#483 = DIRECTION ( 'NONE',  ( 0.000000000000000000, 0.000000000000000000, 1.000000000000000000 ) ) ;
#484 = ORIENTED_EDGE ( 'NONE', *, *, #90, .T. ) ;
#485 = CARTESIAN_POINT ( 'NONE',  ( -2.395000000000002682, 0.5999999999999999778, 3.100000000000000089 ) ) ;
#486 = EDGE_CURVE ( 'NONE', #353, #20, #372, .T. ) ;
#487 = EDGE_LOOP ( 'NONE', ( #605, #37, #428, #204 ) ) ;
#488 = VECTOR ( 'NONE', #427, 100.0000000000000000 ) ;
#489 = PLANE ( 'NONE',  #439 ) ;
#490 = DIRECTION ( 'NONE',  ( 0.2302195854387860119, 0.000000000000000000, -0.9731387067013589354 ) ) ;
#491 = EDGE_LOOP ( 'NONE', ( #64, #295, #484, #575, #424 ) ) ;
#492 = EDGE_CURVE ( 'NONE', #302, #78, #375, .T. ) ;
#493 = DIRECTION ( 'NONE',  ( 2.312964634635742267E-15, 1.000000000000000000, 5.782411586589359611E-16 ) ) ;
#494 = LINE ( 'NONE', #386, #501 ) ;
#495 = ORIENTED_EDGE ( 'NONE', *, *, #349, .F. ) ;
#496 = FACE_OUTER_BOUND ( 'NONE', #127, .T. ) ;
#497 =( LENGTH_UNIT ( ) NAMED_UNIT ( * ) SI_UNIT ( .CENTI., .METRE. ) );
#498 =( GEOMETRIC_REPRESENTATION_CONTEXT ( 3 ) GLOBAL_UNCERTAINTY_ASSIGNED_CONTEXT ( ( #313 ) ) GLOBAL_UNIT_ASSIGNED_CONTEXT ( ( #497, #354, #41 ) ) REPRESENTATION_CONTEXT ( 'NONE', 'WORKASPACE' ) );
#499 = EDGE_CURVE ( 'NONE', #214, #339, #570, .T. ) ;
#500 = AXIS2_PLACEMENT_3D ( 'NONE', #234, #464, #188 ) ;
#501 = VECTOR ( 'NONE', #483, 100.0000000000000000 ) ;
#502 = VERTEX_POINT ( 'NONE', #563 ) ;
#503 = CARTESIAN_POINT ( 'NONE',  ( 0.000000000000000000, 0.000000000000000000, 0.000000000000000000 ) ) ;
#504 = ORIENTED_EDGE ( 'NONE', *, *, #95, .T. ) ;
#505 = ADVANCED_FACE ( 'NONE', ( #142 ), #471, .T. ) ;
#506 = CARTESIAN_POINT ( 'NONE',  ( -9.907664313965325320, 0.5999999999999999778, -3.469446951953614189E-16 ) ) ;
#507 = AXIS2_PLACEMENT_3D ( 'NONE', #66, #157, #481 ) ;
#508 = LINE ( 'NONE', #327, #184 ) ;
#509 = DIRECTION ( 'NONE',  ( -2.262257333030263515E-15, 0.000000000000000000, 1.000000000000000000 ) ) ;
#510 = EDGE_CURVE ( 'NONE', #211, #103, #256, .T. ) ;
#511 = DIRECTION ( 'NONE',  ( 1.000000000000000000, 0.000000000000000000, 0.000000000000000000 ) ) ;
#512 = CARTESIAN_POINT ( 'NONE',  ( 0.000000000000000000, 0.3950000000000000178, 0.000000000000000000 ) ) ;
#513 = ORIENTED_EDGE ( 'NONE', *, *, #79, .T. ) ;
#514 = CARTESIAN_POINT ( 'NONE',  ( 0.000000000000000000, 1.199999999999999956, 0.000000000000000000 ) ) ;
#515 = CARTESIAN_POINT ( 'NONE',  ( -0.8950000000000013500, 0.5999999999999999778, 3.100000000000000533 ) ) ;
#516 = ORIENTED_EDGE ( 'NONE', *, *, #599, .F. ) ;
#517 = AXIS2_PLACEMENT_3D ( 'NONE', #246, #580, #80 ) ;
#518 = FACE_OUTER_BOUND ( 'NONE', #546, .T. ) ;
#519 = CARTESIAN_POINT ( 'NONE',  ( -7.500000000000000000, 0.000000000000000000, 5.000000000000002665 ) ) ;
#520 = FACE_OUTER_BOUND ( 'NONE', #582, .T. ) ;
#521 = CARTESIAN_POINT ( 'NONE',  ( -15.00000000000000178, 0.000000000000000000, 2.499999999999998224 ) ) ;
#522 = EDGE_LOOP ( 'NONE', ( #253, #125, #346, #536, #495 ) ) ;
#523 = ADVANCED_FACE ( 'NONE', ( #541 ), #252, .F. ) ;
#524 = ADVANCED_BREP_SHAPE_REPRESENTATION ( 'ramp-wall-lower-hole_62', ( #609, #365 ), #287 ) ;
#525 = DIRECTION ( 'NONE',  ( -0.2302195854387860119, 0.000000000000000000, 0.9731387067013589354 ) ) ;
#526 = SURFACE_STYLE_USAGE ( .BOTH. , #581 ) ;
#527 = EDGE_LOOP ( 'NONE', ( #109, #455, #314, #67 ) ) ;
#528 = AXIS2_PLACEMENT_3D ( 'NONE', #503, #603, #408 ) ;
#529 = VECTOR ( 'NONE', #186, 100.0000000000000000 ) ;
#530 = LINE ( 'NONE', #199, #239 ) ;
#531 = CARTESIAN_POINT ( 'NONE',  ( 0.000000000000000000, 0.000000000000000000, 0.000000000000000000 ) ) ;
#532 = ORIENTED_EDGE ( 'NONE', *, *, #362, .F. ) ;
#533 = EDGE_CURVE ( 'NONE', #245, #322, #370, .T. ) ;
#534 = CARTESIAN_POINT ( 'NONE',  ( 0.2499999999999946709, 0.8049999999999999378, 2.395000000000004015 ) ) ;
#535 = PLANE ( 'NONE',  #227 ) ;
#536 = ORIENTED_EDGE ( 'NONE', *, *, #237, .F. ) ;
#537 = PLANE ( 'NONE',  #507 ) ;
#538 = CARTESIAN_POINT ( 'NONE',  ( -7.500000000000000000, 0.000000000000000000, 5.000000000000002665 ) ) ;
#539 = AXIS2_PLACEMENT_3D ( 'NONE', #393, #115, #433 ) ;
#540 = LINE ( 'NONE', #446, #268 ) ;
#541 = FACE_OUTER_BOUND ( 'NONE', #421, .T. ) ;
#542 = ORIENTED_EDGE ( 'NONE', *, *, #49, .F. ) ;
#543 = EDGE_CURVE ( 'NONE', #245, #236, #203, .T. ) ;
#544 = CYLINDRICAL_SURFACE ( 'NONE', #348, 0.2049999999999999600 ) ;
#545 =( NAMED_UNIT ( * ) PLANE_ANGLE_UNIT ( ) SI_UNIT ( $, .RADIAN. ) );
#546 = EDGE_LOOP ( 'NONE', ( #447, #1 ) ) ;
#547 = VECTOR ( 'NONE', #277, 100.0000000000000000 ) ;
#548 = PRODUCT_CONTEXT ( 'NONE', #323, 'mechanical' ) ;
#549 = CARTESIAN_POINT ( 'NONE',  ( 0.2499999999999946709, 0.3950000000000000178, 2.395000000000004015 ) ) ;
#550 = EDGE_CURVE ( 'NONE', #353, #223, #73, .T. ) ;
#551 = FILL_AREA_STYLE_COLOUR ( '', #238 ) ;
#552 = PRODUCT_DEFINITION ( 'UNKNOWN', '', #409, #319 ) ;
#553 = UNCERTAINTY_MEASURE_WITH_UNIT (LENGTH_MEASURE( 1.000000000000000082E-05 ), #129, 'distance_accuracy_value', 'NONE');
#554 = ORIENTED_EDGE ( 'NONE', *, *, #194, .F. ) ;
#555 = AXIS2_PLACEMENT_3D ( 'NONE', #244, #158, #333 ) ;
#556 = CLOSED_SHELL ( 'NONE', ( #381, #59, #130, #359, #35, #606, #175, #463, #44, #505, #395, #222, #572, #523, #594, #123, #147, #340, #561, #143 ) ) ;
#557 = VECTOR ( 'NONE', #179, 100.0000000000000000 ) ;
#558 = DIRECTION ( 'NONE',  ( -0.2302195854387859286, 0.000000000000000000, 0.9731387067013588243 ) ) ;
#559 = AXIS2_PLACEMENT_3D ( 'NONE', #235, #473, #51 ) ;
#560 = DIRECTION ( 'NONE',  ( 1.000000000000000000, 0.000000000000000000, 1.272130549049658700E-16 ) ) ;
#561 = ADVANCED_FACE ( 'NONE', ( #444 ), #167, .F. ) ;
#562 = CARTESIAN_POINT ( 'NONE',  ( -15.00000000000000178, 0.8049999999999999378, 2.395000000000000462 ) ) ;
#563 = CARTESIAN_POINT ( 'NONE',  ( -10.23259670955658152, 0.5999999999999999778, 1.373489968754753709 ) ) ;
#564 = ORIENTED_EDGE ( 'NONE', *, *, #152, .T. ) ;
#565 = CARTESIAN_POINT ( 'NONE',  ( -0.8950000000000013500, 0.5999999999999999778, 5.000000000000000000 ) ) ;
#566 = DIRECTION ( 'NONE',  ( 0.9731387067013589354, 0.000000000000000000, 0.2302195854387857898 ) ) ;
#567 = ORIENTED_EDGE ( 'NONE', *, *, #550, .T. ) ;
#568 = AXIS2_PLACEMENT_3D ( 'NONE', #23, #397, #119 ) ;
#569 = DIRECTION ( 'NONE',  ( 1.000000000000000000, 0.000000000000000000, 0.000000000000000000 ) ) ;
#570 = LINE ( 'NONE', #519, #218 ) ;
#571 = ORIENTED_EDGE ( 'NONE', *, *, #391, .T. ) ;
#572 = ADVANCED_FACE ( 'NONE', ( #304 ), #431, .F. ) ;
#573 = FACE_OUTER_BOUND ( 'NONE', #288, .T. ) ;
#574 = CARTESIAN_POINT ( 'NONE',  ( 0.000000000000000000, 1.199999999999999956, 5.000000000000000000 ) ) ;
#575 = ORIENTED_EDGE ( 'NONE', *, *, #367, .T. ) ;
#576 = LINE ( 'NONE', #436, #276 ) ;
#577 = FACE_OUTER_BOUND ( 'NONE', #432, .T. ) ;
#578 = ORIENTED_EDGE ( 'NONE', *, *, #87, .F. ) ;
#579 = CIRCLE ( 'NONE', #555, 0.3099999999999988320 ) ;
#580 = DIRECTION ( 'NONE',  ( -0.2302195854387860119, 0.000000000000000000, 0.9731387067013589354 ) ) ;
#581 = SURFACE_SIDE_STYLE ('',( #389 ) ) ;
#582 = EDGE_LOOP ( 'NONE', ( #608, #376, #438, #165 ) ) ;
#583 = CIRCLE ( 'NONE', #53, 0.3099999999999988320 ) ;
#584 = EDGE_CURVE ( 'NONE', #343, #369, #116, .T. ) ;
#585 = VECTOR ( 'NONE', #383, 100.0000000000000000 ) ;
#586 = DIRECTION ( 'NONE',  ( -2.465190328815661892E-32, 0.000000000000000000, 1.000000000000000000 ) ) ;
#587 = DIRECTION ( 'NONE',  ( -0.9731387067013588243, 0.000000000000000000, -0.2302195854387859841 ) ) ;
#588 = ORIENTED_EDGE ( 'NONE', *, *, #269, .F. ) ;
#589 = EDGE_CURVE ( 'NONE', #10, #299, #494, .T. ) ;
#590 = CARTESIAN_POINT ( 'NONE',  ( -26.00442839046255727, 1.199999999999999956, -6.211122400498121365 ) ) ;
#591 = FILL_AREA_STYLE_COLOUR ( '', #121 ) ;
#592 = ORIENTED_EDGE ( 'NONE', *, *, #284, .F. ) ;
#593 = DIRECTION ( 'NONE',  ( 1.000000000000000000, 0.000000000000000000, 0.000000000000000000 ) ) ;
#594 = ADVANCED_FACE ( 'NONE', ( #577 ), #535, .T. ) ;
#595 = ORIENTED_EDGE ( 'NONE', *, *, #391, .F. ) ;
#596 = MECHANICAL_DESIGN_GEOMETRIC_PRESENTATION_REPRESENTATION (  '', ( #289 ), #93 ) ;
#597 = VECTOR ( 'NONE', #308, 100.0000000000000000 ) ;
#598 = DIRECTION ( 'NONE',  ( 1.000000000000000000, 0.000000000000000000, 0.000000000000000000 ) ) ;
#599 = EDGE_CURVE ( 'NONE', #236, #151, #579, .T. ) ;
#600 = ORIENTED_EDGE ( 'NONE', *, *, #543, .T. ) ;
#601 = DIRECTION ( 'NONE',  ( 0.000000000000000000, 1.000000000000000000, -0.000000000000000000 ) ) ;
#602 = PLANE ( 'NONE',  #195 ) ;
#603 = DIRECTION ( 'NONE',  ( 0.000000000000000000, 0.000000000000000000, -1.000000000000000000 ) ) ;
#604 = SHAPE_DEFINITION_REPRESENTATION ( #454, #524 ) ;
#605 = ORIENTED_EDGE ( 'NONE', *, *, #293, .F. ) ;
#606 = ADVANCED_FACE ( 'NONE', ( #33 ), #434, .T. ) ;
#607 =( NAMED_UNIT ( * ) SI_UNIT ( $, .STERADIAN. ) SOLID_ANGLE_UNIT ( ) );
#608 = ORIENTED_EDGE ( 'NONE', *, *, #258, .F. ) ;
#609 = MANIFOLD_SOLID_BREP ( 'Cut-Extrude4', #556 ) ;
ENDSEC;
END-ISO-10303-21;
