ISO-10303-21;
HEADER;
FILE_DESCRIPTION (( 'STEP AP214' ),
    '1' );
FILE_NAME ('ramp-wall-lower-hole_61.STEP',
    '2026-06-16T01:09:33',
    ( '' ),
    ( '' ),
    'SwSTEP 2.0',
    'SolidWorks 2023',
    '' );
FILE_SCHEMA (( 'AUTOMOTIVE_DESIGN' ));
ENDSEC;

DATA;
#1 = ORIENTED_EDGE ( 'NONE', *, *, #92, .F. ) ;
#2 = DIRECTION ( 'NONE',  ( 0.000000000000000000, 0.000000000000000000, 1.000000000000000000 ) ) ;
#3 = DIRECTION ( 'NONE',  ( 1.272130549049658700E-16, 0.000000000000000000, -1.000000000000000000 ) ) ;
#4 = EDGE_CURVE ( 'NONE', #525, #320, #475, .T. ) ;
#5 = DIRECTION ( 'NONE',  ( 1.000000000000000000, 0.000000000000000000, 0.000000000000000000 ) ) ;
#6 = CIRCLE ( 'NONE', #509, 0.3049999999999991052 ) ;
#7 = AXIS2_PLACEMENT_3D ( 'NONE', #573, #93, #46 ) ;
#8 = ORIENTED_EDGE ( 'NONE', *, *, #130, .T. ) ;
#9 = ORIENTED_EDGE ( 'NONE', *, *, #338, .T. ) ;
#10 = DIRECTION ( 'NONE',  ( 0.000000000000000000, 1.000000000000000000, 0.000000000000000000 ) ) ;
#11 = CARTESIAN_POINT ( 'NONE',  ( -27.53536453439562948, 0.000000000000000000, 0.2601481315458259447 ) ) ;
#12 = VECTOR ( 'NONE', #294, 100.0000000000000142 ) ;
#13 = CARTESIAN_POINT ( 'NONE',  ( 0.2499999999999946709, 0.3950000000000000178, 3.816391647148975608E-15 ) ) ;
#14 = ORIENTED_EDGE ( 'NONE', *, *, #16, .F. ) ;
#15 = LINE ( 'NONE', #115, #537 ) ;
#16 = EDGE_CURVE ( 'NONE', #477, #357, #461, .T. ) ;
#17 = DIRECTION ( 'NONE',  ( 1.000000000000000000, 0.000000000000000000, 0.000000000000000000 ) ) ;
#18 = ORIENTED_EDGE ( 'NONE', *, *, #476, .T. ) ;
#19 = FACE_OUTER_BOUND ( 'NONE', #226, .T. ) ;
#20 =( GEOMETRIC_REPRESENTATION_CONTEXT ( 3 ) GLOBAL_UNCERTAINTY_ASSIGNED_CONTEXT ( ( #454 ) ) GLOBAL_UNIT_ASSIGNED_CONTEXT ( ( #396, #71, #25 ) ) REPRESENTATION_CONTEXT ( 'NONE', 'WORKASPACE' ) );
#21 = FILL_AREA_STYLE ('',( #153 ) ) ;
#22 = EDGE_LOOP ( 'NONE', ( #491, #274, #401, #368, #554 ) ) ;
#23 = AXIS2_PLACEMENT_3D ( 'NONE', #13, #307, #298 ) ;
#24 = CARTESIAN_POINT ( 'NONE',  ( -0.5900000000000016342, 0.5999999999999999778, 5.000000000000000000 ) ) ;
#25 =( NAMED_UNIT ( * ) SI_UNIT ( $, .STERADIAN. ) SOLID_ANGLE_UNIT ( ) );
#26 = DIRECTION ( 'NONE',  ( -2.465190328815661892E-32, 0.000000000000000000, 1.000000000000000000 ) ) ;
#27 = CYLINDRICAL_SURFACE ( 'NONE', #598, 0.3049999999999990496 ) ;
#28 = ORIENTED_EDGE ( 'NONE', *, *, #415, .T. ) ;
#29 = PLANE ( 'NONE',  #192 ) ;
#30 = ORIENTED_EDGE ( 'NONE', *, *, #262, .T. ) ;
#31 = VECTOR ( 'NONE', #492, 100.0000000000000000 ) ;
#32 = DIRECTION ( 'NONE',  ( 0.000000000000000000, 0.000000000000000000, 1.000000000000000000 ) ) ;
#33 = CARTESIAN_POINT ( 'NONE',  ( -27.47382017840123325, 0.000000000000000000, -4.163336342344337027E-15 ) ) ;
#34 = ORIENTED_EDGE ( 'NONE', *, *, #312, .T. ) ;
#35 = ADVANCED_FACE ( 'NONE', ( #148 ), #429, .F. ) ;
#36 = LINE ( 'NONE', #557, #183 ) ;
#37 = ORIENTED_EDGE ( 'NONE', *, *, #559, .T. ) ;
#38 = CYLINDRICAL_SURFACE ( 'NONE', #193, 0.3049999999999996048 ) ;
#39 = DIRECTION ( 'NONE',  ( -0.2302195854387859286, 0.000000000000000000, 0.9731387067013588243 ) ) ;
#40 = EDGE_CURVE ( 'NONE', #53, #233, #247, .T. ) ;
#41 = ORIENTED_EDGE ( 'NONE', *, *, #415, .F. ) ;
#42 = CARTESIAN_POINT ( 'NONE',  ( -15.00000000000000178, 1.199999999999999956, 2.499999999999998224 ) ) ;
#43 = DIRECTION ( 'NONE',  ( -2.262257333030263515E-15, 0.000000000000000000, 1.000000000000000000 ) ) ;
#44 = EDGE_CURVE ( 'NONE', #417, #282, #187, .T. ) ;
#45 = CARTESIAN_POINT ( 'NONE',  ( -0.5900000000000016342, 0.5999999999999999778, 3.100000000000000533 ) ) ;
#46 = DIRECTION ( 'NONE',  ( 1.000000000000000000, 0.000000000000000000, 0.000000000000000000 ) ) ;
#47 = EDGE_CURVE ( 'NONE', #566, #604, #325, .T. ) ;
#48 = CARTESIAN_POINT ( 'NONE',  ( 0.2499999999999946709, 0.3950000000000000178, 2.395000000000004015 ) ) ;
#49 = AXIS2_PLACEMENT_3D ( 'NONE', #398, #169, #440 ) ;
#50 = AXIS2_PLACEMENT_3D ( 'NONE', #221, #500, #555 ) ;
#51 = EDGE_CURVE ( 'NONE', #332, #581, #426, .T. ) ;
#52 = ORIENTED_EDGE ( 'NONE', *, *, #353, .F. ) ;
#53 = VERTEX_POINT ( 'NONE', #248 ) ;
#54 = DIRECTION ( 'NONE',  ( -0.9731387067013588243, 0.000000000000000000, -0.2302195854387859841 ) ) ;
#55 = PLANE ( 'NONE',  #448 ) ;
#56 = ORIENTED_EDGE ( 'NONE', *, *, #69, .T. ) ;
#57 = DIRECTION ( 'NONE',  ( 1.000000000000000000, 0.000000000000000000, 0.000000000000000000 ) ) ;
#58 = VECTOR ( 'NONE', #122, 100.0000000000000000 ) ;
#59 = SURFACE_SIDE_STYLE ('',( #164 ) ) ;
#60 = AXIS2_PLACEMENT_3D ( 'NONE', #490, #529, #347 ) ;
#61 = ORIENTED_EDGE ( 'NONE', *, *, #51, .F. ) ;
#62 = ADVANCED_BREP_SHAPE_REPRESENTATION ( 'ramp-wall-lower-hole_61', ( #406, #323 ), #385 ) ;
#63 = CARTESIAN_POINT ( 'NONE',  ( -15.00000000000000178, 0.000000000000000000, 2.499999999999998224 ) ) ;
#64 = FACE_OUTER_BOUND ( 'NONE', #375, .T. ) ;
#65 = ORIENTED_EDGE ( 'NONE', *, *, #40, .T. ) ;
#66 = DIRECTION ( 'NONE',  ( -2.465190328815661892E-32, 0.000000000000000000, 1.000000000000000000 ) ) ;
#67 = DIRECTION ( 'NONE',  ( -2.465190328815661892E-32, 0.000000000000000000, 1.000000000000000000 ) ) ;
#68 = DIRECTION ( 'NONE',  ( -1.000000000000000000, 0.000000000000000000, 0.000000000000000000 ) ) ;
#69 = EDGE_CURVE ( 'NONE', #320, #81, #427, .T. ) ;
#70 = VECTOR ( 'NONE', #39, 100.0000000000000142 ) ;
#71 =( NAMED_UNIT ( * ) PLANE_ANGLE_UNIT ( ) SI_UNIT ( $, .RADIAN. ) );
#72 = ORIENTED_EDGE ( 'NONE', *, *, #353, .T. ) ;
#73 = FACE_OUTER_BOUND ( 'NONE', #279, .T. ) ;
#74 = FACE_OUTER_BOUND ( 'NONE', #245, .T. ) ;
#75 = ORIENTED_EDGE ( 'NONE', *, *, #437, .F. ) ;
#76 = DIRECTION ( 'NONE',  ( 0.000000000000000000, 0.000000000000000000, 1.000000000000000000 ) ) ;
#77 = DIRECTION ( 'NONE',  ( 0.9731387067013589354, 0.000000000000000000, 0.2302195854387864005 ) ) ;
#78 = VERTEX_POINT ( 'NONE', #191 ) ;
#79 = CARTESIAN_POINT ( 'NONE',  ( -2.090000000000002967, 0.5999999999999999778, 3.100000000000000533 ) ) ;
#80 = LINE ( 'NONE', #322, #58 ) ;
#81 = VERTEX_POINT ( 'NONE', #384 ) ;
#82 = VECTOR ( 'NONE', #269, 100.0000000000000000 ) ;
#83 = EDGE_CURVE ( 'NONE', #237, #81, #571, .T. ) ;
#84 = CIRCLE ( 'NONE', #60, 0.3049999999999990496 ) ;
#85 = DIRECTION ( 'NONE',  ( 0.000000000000000000, -1.000000000000000000, 0.000000000000000000 ) ) ;
#86 = EDGE_LOOP ( 'NONE', ( #488, #65 ) ) ;
#87 = CARTESIAN_POINT ( 'NONE',  ( -9.275688629754116121, 0.5999999999999999778, -3.469446951953614189E-16 ) ) ;
#88 = CARTESIAN_POINT ( 'NONE',  ( 0.000000000000000000, 1.199999999999999956, 5.000000000000000000 ) ) ;
#89 = ORIENTED_EDGE ( 'NONE', *, *, #359, .F. ) ;
#90 = APPLICATION_PROTOCOL_DEFINITION ( 'draft international standard', 'automotive_design', 1998, #178 ) ;
#91 = CARTESIAN_POINT ( 'NONE',  ( -7.500000000000000000, 1.199999999999999956, 5.000000000000002665 ) ) ;
#92 = EDGE_CURVE ( 'NONE', #360, #168, #117, .T. ) ;
#93 = DIRECTION ( 'NONE',  ( -2.465190328815661892E-32, 0.000000000000000000, 1.000000000000000000 ) ) ;
#94 = VECTOR ( 'NONE', #388, 100.0000000000000000 ) ;
#95 = CLOSED_SHELL ( 'NONE', ( #595, #574, #275, #528, #200, #152, #547, #552, #363, #175, #147, #185, #107, #423, #516, #215, #513, #232, #250, #35 ) ) ;
#96 = CARTESIAN_POINT ( 'NONE',  ( -0.8950000000000013500, 0.5999999999999999778, 5.000000000000000000 ) ) ;
#97 = DIRECTION ( 'NONE',  ( -0.2302195854387860119, 0.000000000000000000, 0.9731387067013589354 ) ) ;
#98 = ORIENTED_EDGE ( 'NONE', *, *, #139, .F. ) ;
#99 = ORIENTED_EDGE ( 'NONE', *, *, #395, .F. ) ;
#100 = AXIS2_PLACEMENT_3D ( 'NONE', #589, #447, #546 ) ;
#101 = STYLED_ITEM ( 'NONE', ( #439 ), #200 ) ;
#102 = ORIENTED_EDGE ( 'NONE', *, *, #359, .T. ) ;
#103 = CARTESIAN_POINT ( 'NONE',  ( -2.395000000000002682, 0.5999999999999999778, 3.100000000000000089 ) ) ;
#104 = DIRECTION ( 'NONE',  ( 1.000000000000000000, 0.000000000000000000, 0.000000000000000000 ) ) ;
#105 = PLANE ( 'NONE',  #519 ) ;
#106 = DIRECTION ( 'NONE',  ( 0.000000000000000000, 1.000000000000000000, 0.000000000000000000 ) ) ;
#107 = ADVANCED_FACE ( 'NONE', ( #352 ), #400, .F. ) ;
#108 = VERTEX_POINT ( 'NONE', #114 ) ;
#109 = DIRECTION ( 'NONE',  ( 1.000000000000000000, 0.000000000000000000, 0.000000000000000000 ) ) ;
#110 = VECTOR ( 'NONE', #591, 100.0000000000000000 ) ;
#111 = CARTESIAN_POINT ( 'NONE',  ( 0.000000000000000000, 0.000000000000000000, 0.000000000000000000 ) ) ;
#112 = APPLICATION_CONTEXT ( 'automotive_design' ) ;
#113 = DIRECTION ( 'NONE',  ( -0.2302195854387859286, 0.000000000000000000, 0.9731387067013588243 ) ) ;
#114 = CARTESIAN_POINT ( 'NONE',  ( -27.53536453439562237, 1.199999999999999956, 0.2601481315458259447 ) ) ;
#115 = CARTESIAN_POINT ( 'NONE',  ( 0.000000000000000000, 1.199999999999999956, 0.000000000000000000 ) ) ;
#116 = EDGE_CURVE ( 'NONE', #233, #53, #84, .T. ) ;
#117 = LINE ( 'NONE', #577, #478 ) ;
#118 = CARTESIAN_POINT ( 'NONE',  ( 0.2499999999999946709, 0.8049999999999999378, 3.816391647148975608E-15 ) ) ;
#119 = EDGE_CURVE ( 'NONE', #530, #78, #430, .T. ) ;
#120 = PRODUCT ( 'ramp-wall-lower-hole_61', 'ramp-wall-lower-hole_61', '', ( #369 ) ) ;
#121 =( BOUNDED_CURVE ( )  B_SPLINE_CURVE ( 3, ( #87, #467, #508, #330 ),
 .UNSPECIFIED., .F., .F. ) 
 B_SPLINE_CURVE_WITH_KNOTS ( ( 4, 4 ),
 ( 3.141592653589793116, 6.283185307179586232 ),
 .UNSPECIFIED. ) 
 CURVE ( )  GEOMETRIC_REPRESENTATION_ITEM ( )  RATIONAL_B_SPLINE_CURVE ( ( 1.000000000000000000, 0.3333333333333333703, 0.3333333333333333703, 1.000000000000000000 ) ) 
 REPRESENTATION_ITEM ( '' )  );
#122 = DIRECTION ( 'NONE',  ( 1.000000000000000000, 0.000000000000000000, 2.139492287038061508E-16 ) ) ;
#123 = ORIENTED_EDGE ( 'NONE', *, *, #399, .F. ) ;
#124 = AXIS2_PLACEMENT_3D ( 'NONE', #196, #97, #432 ) ;
#125 = DIRECTION ( 'NONE',  ( -2.465190328815661892E-32, 0.000000000000000000, 1.000000000000000000 ) ) ;
#126 = DIRECTION ( 'NONE',  ( 2.312964634635742267E-15, 1.000000000000000000, 5.782411586589359611E-16 ) ) ;
#127 = ORIENTED_EDGE ( 'NONE', *, *, #224, .F. ) ;
#128 = FACE_OUTER_BOUND ( 'NONE', #268, .T. ) ;
#129 = VERTEX_POINT ( 'NONE', #536 ) ;
#130 = EDGE_CURVE ( 'NONE', #525, #494, #389, .T. ) ;
#131 = CARTESIAN_POINT ( 'NONE',  ( -0.1500000000000000222, 0.006000000000000000125, 0.02499999999999998404 ) ) ;
#132 = DIRECTION ( 'NONE',  ( 0.9731387067013590464, 0.000000000000000000, 0.2302195854387853458 ) ) ;
#133 = VECTOR ( 'NONE', #273, 100.0000000000000000 ) ;
#134 = ORIENTED_EDGE ( 'NONE', *, *, #468, .T. ) ;
#135 = AXIS2_PLACEMENT_3D ( 'NONE', #145, #434, #5 ) ;
#136 = DIRECTION ( 'NONE',  ( 1.000000000000000000, 0.000000000000000000, 0.000000000000000000 ) ) ;
#137 = EDGE_LOOP ( 'NONE', ( #329, #584, #134, #8 ) ) ;
#138 = APPLICATION_PROTOCOL_DEFINITION ( 'draft international standard', 'automotive_design', 1998, #112 ) ;
#139 = EDGE_CURVE ( 'NONE', #222, #393, #441, .T. ) ;
#140 =( NAMED_UNIT ( * ) PLANE_ANGLE_UNIT ( ) SI_UNIT ( $, .RADIAN. ) );
#141 = ORIENTED_EDGE ( 'NONE', *, *, #579, .F. ) ;
#142 = PRESENTATION_STYLE_ASSIGNMENT (( #381 ) ) ;
#143 = DIRECTION ( 'NONE',  ( -2.262257333030263515E-15, 0.000000000000000000, 1.000000000000000000 ) ) ;
#144 = VECTOR ( 'NONE', #565, 100.0000000000000000 ) ;
#145 = CARTESIAN_POINT ( 'NONE',  ( -2.395000000000002682, 0.5999999999999999778, 3.100000000000000089 ) ) ;
#146 = EDGE_LOOP ( 'NONE', ( #72, #558, #455, #1, #249 ) ) ;
#147 = ADVANCED_FACE ( 'NONE', ( #206 ), #199, .F. ) ;
#148 = FACE_OUTER_BOUND ( 'NONE', #204, .T. ) ;
#149 = VECTOR ( 'NONE', #346, 100.0000000000000142 ) ;
#150 = FACE_OUTER_BOUND ( 'NONE', #22, .T. ) ;
#151 = DIRECTION ( 'NONE',  ( 1.272130549049658700E-16, 0.000000000000000000, -1.000000000000000000 ) ) ;
#152 = ADVANCED_FACE ( 'NONE', ( #481 ), #55, .T. ) ;
#153 = FILL_AREA_STYLE_COLOUR ( '', #526 ) ;
#154 = ORIENTED_EDGE ( 'NONE', *, *, #40, .F. ) ;
#155 = CARTESIAN_POINT ( 'NONE',  ( -26.00442839046256438, 0.000000000000000000, -6.211122400498123142 ) ) ;
#156 = PRODUCT_RELATED_PRODUCT_CATEGORY ( 'part', '', ( #120 ) ) ;
#157 = CARTESIAN_POINT ( 'NONE',  ( 0.2499999999999946709, 0.3950000000000000178, 3.816391647148975608E-15 ) ) ;
#158 = ORIENTED_EDGE ( 'NONE', *, *, #130, .F. ) ;
#159 = PLANE ( 'NONE',  #170 ) ;
#160 = AXIS2_PLACEMENT_3D ( 'NONE', #413, #125, #404 ) ;
#161 = CARTESIAN_POINT ( 'NONE',  ( -7.500000000000000000, 0.000000000000000000, 5.000000000000002665 ) ) ;
#162 = AXIS2_PLACEMENT_3D ( 'NONE', #533, #343, #104 ) ;
#163 = CARTESIAN_POINT ( 'NONE',  ( 0.000000000000000000, 0.000000000000000000, 0.000000000000000000 ) ) ;
#164 = SURFACE_STYLE_FILL_AREA ( #21 ) ;
#165 = ORIENTED_EDGE ( 'NONE', *, *, #338, .F. ) ;
#166 = PLANE ( 'NONE',  #362 ) ;
#167 = PLANE ( 'NONE',  #254 ) ;
#168 = VERTEX_POINT ( 'NONE', #111 ) ;
#169 = DIRECTION ( 'NONE',  ( 1.000000000000000000, 0.000000000000000000, 2.139492287038061508E-16 ) ) ;
#170 = AXIS2_PLACEMENT_3D ( 'NONE', #502, #76, #109 ) ;
#171 = CARTESIAN_POINT ( 'NONE',  ( -2.090000000000002967, 0.5999999999999999778, 3.100000000000000533 ) ) ;
#172 = ORIENTED_EDGE ( 'NONE', *, *, #119, .T. ) ;
#173 = AXIS2_PLACEMENT_3D ( 'NONE', #541, #209, #305 ) ;
#174 = LINE ( 'NONE', #442, #310 ) ;
#175 = ADVANCED_FACE ( 'NONE', ( #436 ), #301, .T. ) ;
#176 = CARTESIAN_POINT ( 'NONE',  ( -7.500000000000000000, 0.000000000000000000, 5.000000000000002665 ) ) ;
#177 = EDGE_LOOP ( 'NONE', ( #483, #14 ) ) ;
#178 = APPLICATION_CONTEXT ( 'automotive_design' ) ;
#179 = DIRECTION ( 'NONE',  ( -2.449761618368254527E-15, -1.000000000000000000, 0.000000000000000000 ) ) ;
#180 = ORIENTED_EDGE ( 'NONE', *, *, #380, .T. ) ;
#181 = SHAPE_DEFINITION_REPRESENTATION ( #543, #62 ) ;
#182 = CARTESIAN_POINT ( 'NONE',  ( -9.275688629754117898, 1.210000000000000631, -3.469446951953614189E-16 ) ) ;
#183 = VECTOR ( 'NONE', #179, 100.0000000000000000 ) ;
#184 = ORIENTED_EDGE ( 'NONE', *, *, #437, .T. ) ;
#185 = ADVANCED_FACE ( 'NONE', ( #64 ), #405, .T. ) ;
#186 = PRESENTATION_LAYER_ASSIGNMENT (  '', '', ( #101 ) ) ;
#187 = LINE ( 'NONE', #290, #194 ) ;
#188 = DIRECTION ( 'NONE',  ( 0.000000000000000000, 1.000000000000000000, -0.000000000000000000 ) ) ;
#189 = LINE ( 'NONE', #485, #149 ) ;
#190 = DIRECTION ( 'NONE',  ( 0.9731387067013590464, 0.000000000000000000, 0.2302195854387853458 ) ) ;
#191 = CARTESIAN_POINT ( 'NONE',  ( -1.200000000000001066, 0.5999999999999999778, 3.100000000000000533 ) ) ;
#192 = AXIS2_PLACEMENT_3D ( 'NONE', #63, #258, #585 ) ;
#193 = AXIS2_PLACEMENT_3D ( 'NONE', #470, #459, #280 ) ;
#194 = VECTOR ( 'NONE', #43, 100.0000000000000000 ) ;
#195 = EDGE_CURVE ( 'NONE', #357, #477, #376, .T. ) ;
#196 = CARTESIAN_POINT ( 'NONE',  ( -9.930923710479159894, 0.5999999999999999778, 1.444858040240777353 ) ) ;
#197 = EDGE_LOOP ( 'NONE', ( #127, #386, #308, #549 ) ) ;
#198 = FILL_AREA_STYLE ('',( #251 ) ) ;
#199 = PLANE ( 'NONE',  #173 ) ;
#200 = ADVANCED_FACE ( 'NONE', ( #263, #444 ), #580, .T. ) ;
#201 = CIRCLE ( 'NONE', #100, 0.2049999999999999600 ) ;
#202 = CARTESIAN_POINT ( 'NONE',  ( 0.000000000000000000, 0.8049999999999999378, 0.000000000000000000 ) ) ;
#203 = CARTESIAN_POINT ( 'NONE',  ( -15.00000000000000178, 0.8049999999999999378, 2.499999999999998224 ) ) ;
#204 = EDGE_LOOP ( 'NONE', ( #445, #601 ) ) ;
#205 = CARTESIAN_POINT ( 'NONE',  ( -2.090000000000002967, 0.5999999999999999778, 5.000000000000000000 ) ) ;
#206 = FACE_OUTER_BOUND ( 'NONE', #349, .T. ) ;
#207 = VERTEX_POINT ( 'NONE', #370 ) ;
#208 = CARTESIAN_POINT ( 'NONE',  ( 0.000000000000000000, 1.199999999999999956, 5.000000000000000000 ) ) ;
#209 = DIRECTION ( 'NONE',  ( -0.000000000000000000, 1.000000000000000000, 0.000000000000000000 ) ) ;
#210 = ORIENTED_EDGE ( 'NONE', *, *, #476, .F. ) ;
#211 = LINE ( 'NONE', #544, #277 ) ;
#212 = CIRCLE ( 'NONE', #390, 0.3049999999999991052 ) ;
#213 = VECTOR ( 'NONE', #295, 100.0000000000000000 ) ;
#214 = DIRECTION ( 'NONE',  ( 1.000000000000000000, 0.000000000000000000, 1.272130549049658700E-16 ) ) ;
#215 = ADVANCED_FACE ( 'NONE', ( #596 ), #548, .F. ) ;
#216 = ORIENTED_EDGE ( 'NONE', *, *, #303, .F. ) ;
#217 = CARTESIAN_POINT ( 'NONE',  ( -2.700000000000002398, 0.5999999999999999778, 5.000000000000000000 ) ) ;
#218 = CARTESIAN_POINT ( 'NONE',  ( -9.275688629754116121, 0.5999999999999999778, -3.469446951953614189E-16 ) ) ;
#219 = VERTEX_POINT ( 'NONE', #600 ) ;
#220 = FACE_OUTER_BOUND ( 'NONE', #86, .T. ) ;
#221 = CARTESIAN_POINT ( 'NONE',  ( 0.000000000000000000, 0.000000000000000000, 0.000000000000000000 ) ) ;
#222 = VERTEX_POINT ( 'NONE', #176 ) ;
#223 = DIRECTION ( 'NONE',  ( 1.000000000000000000, 0.000000000000000000, 0.000000000000000000 ) ) ;
#224 = EDGE_CURVE ( 'NONE', #53, #477, #367, .T. ) ;
#225 = CARTESIAN_POINT ( 'NONE',  ( -9.902526300272551651, 0.5999999999999999778, -3.469446951953614189E-16 ) ) ;
#226 = EDGE_LOOP ( 'NONE', ( #98, #414, #184, #518 ) ) ;
#227 = DIRECTION ( 'NONE',  ( 1.000000000000000000, 0.000000000000000000, 0.000000000000000000 ) ) ;
#228 = CARTESIAN_POINT ( 'NONE',  ( -5.551115123125782702E-15, 0.8049999999999999378, 2.395000000000004015 ) ) ;
#229 = ORIENTED_EDGE ( 'NONE', *, *, #587, .F. ) ;
#230 =( NAMED_UNIT ( * ) PLANE_ANGLE_UNIT ( ) SI_UNIT ( $, .RADIAN. ) );
#231 = CARTESIAN_POINT ( 'NONE',  ( -26.00442839046255727, 1.199999999999999956, -6.211122400498121365 ) ) ;
#232 = ADVANCED_FACE ( 'NONE', ( #128 ), #167, .F. ) ;
#233 = VERTEX_POINT ( 'NONE', #171 ) ;
#234 = LINE ( 'NONE', #79, #321 ) ;
#235 = DIRECTION ( 'NONE',  ( -0.000000000000000000, 1.000000000000000000, 0.000000000000000000 ) ) ;
#236 = CIRCLE ( 'NONE', #460, 0.3049999999999991052 ) ;
#237 = VERTEX_POINT ( 'NONE', #270 ) ;
#238 = PRODUCT_DEFINITION_FORMATION_WITH_SPECIFIED_SOURCE ( 'ANY', '', #120, .NOT_KNOWN. ) ;
#239 = VECTOR ( 'NONE', #3, 100.0000000000000000 ) ;
#240 = SURFACE_SIDE_STYLE ('',( #425 ) ) ;
#241 = ORIENTED_EDGE ( 'NONE', *, *, #69, .F. ) ;
#242 = CARTESIAN_POINT ( 'NONE',  ( -7.500000000000041744, 1.199999999999999956, 4.999999999999996447 ) ) ;
#243 = DIRECTION ( 'NONE',  ( -0.2302195854387860119, 0.000000000000000000, 0.9731387067013589354 ) ) ;
#244 = EDGE_CURVE ( 'NONE', #282, #538, #80, .T. ) ;
#245 = EDGE_LOOP ( 'NONE', ( #154, #588, #337, #141 ) ) ;
#246 = VECTOR ( 'NONE', #54, 100.0000000000000142 ) ;
#247 = CIRCLE ( 'NONE', #135, 0.3049999999999990496 ) ;
#248 = CARTESIAN_POINT ( 'NONE',  ( -2.700000000000002398, 0.5999999999999999778, 3.100000000000000089 ) ) ;
#249 = ORIENTED_EDGE ( 'NONE', *, *, #482, .F. ) ;
#250 = ADVANCED_FACE ( 'NONE', ( #603 ), #319, .F. ) ;
#251 = FILL_AREA_STYLE_COLOUR ( '', #561 ) ;
#252 = CARTESIAN_POINT ( 'NONE',  ( 0.000000000000000000, 0.000000000000000000, 5.000000000000000000 ) ) ;
#253 = EDGE_CURVE ( 'NONE', #604, #566, #287, .T. ) ;
#254 = AXIS2_PLACEMENT_3D ( 'NONE', #231, #453, #503 ) ;
#255 = LINE ( 'NONE', #473, #576 ) ;
#256 = VECTOR ( 'NONE', #143, 100.0000000000000000 ) ;
#257 = SURFACE_STYLE_USAGE ( .BOTH. , #59 ) ;
#258 = DIRECTION ( 'NONE',  ( -0.000000000000000000, 1.000000000000000000, 0.000000000000000000 ) ) ;
#259 = CARTESIAN_POINT ( 'NONE',  ( -2.395000000000002682, 0.5999999999999999778, 5.000000000000000000 ) ) ;
#260 = ORIENTED_EDGE ( 'NONE', *, *, #312, .F. ) ;
#261 = CYLINDRICAL_SURFACE ( 'NONE', #49, 0.2049999999999999600 ) ;
#262 = EDGE_CURVE ( 'NONE', #523, #302, #36, .T. ) ;
#263 = FACE_BOUND ( 'NONE', #472, .T. ) ;
#264 = LINE ( 'NONE', #208, #446 ) ;
#265 = VECTOR ( 'NONE', #126, 100.0000000000000000 ) ;
#266 = AXIS2_PLACEMENT_3D ( 'NONE', #203, #486, #493 ) ;
#267 = UNCERTAINTY_MEASURE_WITH_UNIT (LENGTH_MEASURE( 1.000000000000000082E-05 ), #418, 'distance_accuracy_value', 'NONE');
#268 = EDGE_LOOP ( 'NONE', ( #30, #520, #271, #123 ) ) ;
#269 = DIRECTION ( 'NONE',  ( 0.000000000000000000, 1.000000000000000000, 0.000000000000000000 ) ) ;
#270 = CARTESIAN_POINT ( 'NONE',  ( 0.2499999999999946709, 0.3950000000000000178, 2.395000000000004015 ) ) ;
#271 = ORIENTED_EDGE ( 'NONE', *, *, #303, .T. ) ;
#272 = FACE_OUTER_BOUND ( 'NONE', #146, .T. ) ;
#273 = DIRECTION ( 'NONE',  ( 0.000000000000000000, 0.000000000000000000, 1.000000000000000000 ) ) ;
#274 = ORIENTED_EDGE ( 'NONE', *, *, #372, .F. ) ;
#275 = ADVANCED_FACE ( 'NONE', ( #74 ), #27, .F. ) ;
#276 = CARTESIAN_POINT ( 'NONE',  ( 0.000000000000000000, 1.199999999999999956, 0.000000000000000000 ) ) ;
#277 = VECTOR ( 'NONE', #306, 100.0000000000000000 ) ;
#278 = CARTESIAN_POINT ( 'NONE',  ( -9.067624364318572106, 0.5999999999999999778, -2.204310242369233119 ) ) ;
#279 = EDGE_LOOP ( 'NONE', ( #172, #497 ) ) ;
#280 = DIRECTION ( 'NONE',  ( 0.9731387067013589354, 0.000000000000000000, 0.2302195854387864005 ) ) ;
#281 = CARTESIAN_POINT ( 'NONE',  ( -1.200000000000001066, 0.5999999999999999778, 3.100000000000000533 ) ) ;
#282 = VERTEX_POINT ( 'NONE', #228 ) ;
#283 = FACE_OUTER_BOUND ( 'NONE', #556, .T. ) ;
#284 = CARTESIAN_POINT ( 'NONE',  ( 0.000000000000000000, 0.000000000000000000, 5.000000000000000000 ) ) ;
#285 = EDGE_LOOP ( 'NONE', ( #165, #296, #28, #512 ) ) ;
#286 = CYLINDRICAL_SURFACE ( 'NONE', #402, 0.3049999999999991052 ) ;
#287 = CIRCLE ( 'NONE', #550, 0.3050000000000009925 ) ;
#288 = ORIENTED_EDGE ( 'NONE', *, *, #587, .T. ) ;
#289 =( NAMED_UNIT ( * ) SI_UNIT ( $, .STERADIAN. ) SOLID_ANGLE_UNIT ( ) );
#290 = CARTESIAN_POINT ( 'NONE',  ( 0.000000000000000000, 0.8049999999999999378, 0.000000000000000000 ) ) ;
#291 = EDGE_LOOP ( 'NONE', ( #260, #534, #180, #61, #75, #572, #18, #56 ) ) ;
#292 = ORIENTED_EDGE ( 'NONE', *, *, #443, .F. ) ;
#293 = EDGE_LOOP ( 'NONE', ( #563, #507, #412, #34 ) ) ;
#294 = DIRECTION ( 'NONE',  ( -0.2302195854387860119, 0.000000000000000000, 0.9731387067013588243 ) ) ;
#295 = DIRECTION ( 'NONE',  ( 0.000000000000000000, 1.000000000000000000, 0.000000000000000000 ) ) ;
#296 = ORIENTED_EDGE ( 'NONE', *, *, #119, .F. ) ;
#297 = CARTESIAN_POINT ( 'NONE',  ( 0.000000000000000000, 0.000000000000000000, 5.000000000000000000 ) ) ;
#298 = DIRECTION ( 'NONE',  ( 0.000000000000000000, -1.000000000000000000, 0.000000000000000000 ) ) ;
#299 = ORIENTED_EDGE ( 'NONE', *, *, #47, .T. ) ;
#300 = CARTESIAN_POINT ( 'NONE',  ( -0.8950000000000013500, 0.5999999999999999778, 3.100000000000000533 ) ) ;
#301 = PLANE ( 'NONE',  #23 ) ;
#302 = VERTEX_POINT ( 'NONE', #33 ) ;
#303 = EDGE_CURVE ( 'NONE', #339, #108, #553, .T. ) ;
#304 = CARTESIAN_POINT ( 'NONE',  ( -0.8950000000000013500, 0.5999999999999999778, 5.000000000000000000 ) ) ;
#305 = DIRECTION ( 'NONE',  ( 1.000000000000000000, 0.000000000000000000, 1.272130549049658700E-16 ) ) ;
#306 = DIRECTION ( 'NONE',  ( 1.272130549049658700E-16, -0.000000000000000000, -1.000000000000000000 ) ) ;
#307 = DIRECTION ( 'NONE',  ( 1.000000000000000000, 0.000000000000000000, 1.272130549049658700E-16 ) ) ;
#308 = ORIENTED_EDGE ( 'NONE', *, *, #579, .T. ) ;
#309 = DIRECTION ( 'NONE',  ( 1.000000000000000000, 0.000000000000000000, 0.000000000000000000 ) ) ;
#310 = VECTOR ( 'NONE', #113, 100.0000000000000142 ) ;
#311 = PRODUCT_DEFINITION_CONTEXT ( 'detailed design', #178, 'design' ) ;
#312 = EDGE_CURVE ( 'NONE', #282, #81, #607, .T. ) ;
#313 = AXIS2_PLACEMENT_3D ( 'NONE', #583, #590, #345 ) ;
#314 = DIRECTION ( 'NONE',  ( -0.2302195854387860119, 0.000000000000000000, 0.9731387067013589354 ) ) ;
#315 = ORIENTED_EDGE ( 'NONE', *, *, #253, .T. ) ;
#316 = FACE_BOUND ( 'NONE', #177, .T. ) ;
#317 = DIRECTION ( 'NONE',  ( 1.000000000000000000, 0.000000000000000000, 1.272130549049658700E-16 ) ) ;
#318 = EDGE_LOOP ( 'NONE', ( #501, #542, #354, #315 ) ) ;
#319 = CYLINDRICAL_SURFACE ( 'NONE', #340, 0.3049999999999996048 ) ;
#320 = VERTEX_POINT ( 'NONE', #416 ) ;
#321 = VECTOR ( 'NONE', #32, 100.0000000000000000 ) ;
#322 = CARTESIAN_POINT ( 'NONE',  ( -15.00000000000000178, 0.8049999999999999378, 2.395000000000000462 ) ) ;
#323 = AXIS2_PLACEMENT_3D ( 'NONE', #131, #188, #424 ) ;
#324 = ORIENTED_EDGE ( 'NONE', *, *, #262, .F. ) ;
#325 = CIRCLE ( 'NONE', #539, 0.3050000000000009925 ) ;
#326 =( NAMED_UNIT ( * ) SI_UNIT ( $, .STERADIAN. ) SOLID_ANGLE_UNIT ( ) );
#327 = EDGE_CURVE ( 'NONE', #78, #530, #212, .T. ) ;
#328 = CARTESIAN_POINT ( 'NONE',  ( -0.8950000000000013500, 0.5999999999999999778, 3.100000000000000533 ) ) ;
#329 = ORIENTED_EDGE ( 'NONE', *, *, #559, .F. ) ;
#330 = CARTESIAN_POINT ( 'NONE',  ( -9.902526300272551651, 0.5999999999999999778, -3.469446951953614189E-16 ) ) ;
#331 = DIRECTION ( 'NONE',  ( 1.000000000000000000, 0.000000000000000000, 1.272130549049658700E-16 ) ) ;
#332 = VERTEX_POINT ( 'NONE', #88 ) ;
#333 = EDGE_CURVE ( 'NONE', #219, #207, #484, .T. ) ;
#334 = MECHANICAL_DESIGN_GEOMETRIC_PRESENTATION_REPRESENTATION (  '', ( #524 ), #350 ) ;
#335 = CARTESIAN_POINT ( 'NONE',  ( 0.000000000000000000, 0.3950000000000000178, 0.000000000000000000 ) ) ;
#336 = ORIENTED_EDGE ( 'NONE', *, *, #570, .T. ) ;
#337 = ORIENTED_EDGE ( 'NONE', *, *, #16, .T. ) ;
#338 = EDGE_CURVE ( 'NONE', #78, #129, #592, .T. ) ;
#339 = VERTEX_POINT ( 'NONE', #11 ) ;
#340 = AXIS2_PLACEMENT_3D ( 'NONE', #278, #449, #77 ) ;
#341 = DIRECTION ( 'NONE',  ( -2.465190328815661892E-32, 0.000000000000000000, 1.000000000000000000 ) ) ;
#342 = MECHANICAL_DESIGN_GEOMETRIC_PRESENTATION_REPRESENTATION (  '', ( #101 ), #20 ) ;
#343 = DIRECTION ( 'NONE',  ( -2.465190328815661892E-32, 0.000000000000000000, 1.000000000000000000 ) ) ;
#344 = DIRECTION ( 'NONE',  ( 1.000000000000000000, 0.000000000000000000, 0.000000000000000000 ) ) ;
#345 = DIRECTION ( 'NONE',  ( -0.9731387067013588243, 0.000000000000000000, -0.2302195854387859841 ) ) ;
#346 = DIRECTION ( 'NONE',  ( -0.9731387067013588243, 0.000000000000000000, -0.2302195854387859841 ) ) ;
#347 = DIRECTION ( 'NONE',  ( 1.000000000000000000, 0.000000000000000000, 0.000000000000000000 ) ) ;
#348 = EDGE_CURVE ( 'NONE', #219, #566, #435, .T. ) ;
#349 = EDGE_LOOP ( 'NONE', ( #593, #479, #241, #419 ) ) ;
#350 =( GEOMETRIC_REPRESENTATION_CONTEXT ( 3 ) GLOBAL_UNCERTAINTY_ASSIGNED_CONTEXT ( ( #356 ) ) GLOBAL_UNIT_ASSIGNED_CONTEXT ( ( #531, #140, #289 ) ) REPRESENTATION_CONTEXT ( 'NONE', 'WORKASPACE' ) );
#351 = CARTESIAN_POINT ( 'NONE',  ( 0.2499999999999946709, 0.3950000000000000178, 3.816391647148975608E-15 ) ) ;
#352 = FACE_OUTER_BOUND ( 'NONE', #469, .T. ) ;
#353 = EDGE_CURVE ( 'NONE', #222, #339, #189, .T. ) ;
#354 = ORIENTED_EDGE ( 'NONE', *, *, #443, .T. ) ;
#355 = DIRECTION ( 'NONE',  ( 1.000000000000000000, 0.000000000000000000, 2.465190328815661892E-32 ) ) ;
#356 = UNCERTAINTY_MEASURE_WITH_UNIT (LENGTH_MEASURE( 1.000000000000000082E-05 ), #531, 'distance_accuracy_value', 'NONE');
#357 = VERTEX_POINT ( 'NONE', #205 ) ;
#358 = CARTESIAN_POINT ( 'NONE',  ( 0.000000000000000000, 0.000000000000000000, 0.000000000000000000 ) ) ;
#359 = EDGE_CURVE ( 'NONE', #494, #417, #517, .T. ) ;
#360 = VERTEX_POINT ( 'NONE', #297 ) ;
#361 = CARTESIAN_POINT ( 'NONE',  ( -0.5900000000000016342, 0.5999999999999999778, 3.100000000000000533 ) ) ;
#362 = AXIS2_PLACEMENT_3D ( 'NONE', #300, #26, #355 ) ;
#363 = ADVANCED_FACE ( 'NONE', ( #150 ), #105, .T. ) ;
#364 = CARTESIAN_POINT ( 'NONE',  ( -2.395000000000002682, 0.5999999999999999778, 3.100000000000000089 ) ) ;
#365 = ORIENTED_EDGE ( 'NONE', *, *, #372, .T. ) ;
#366 = CARTESIAN_POINT ( 'NONE',  ( 0.2499999999999946709, 0.8049999999999999378, 2.395000000000004015 ) ) ;
#367 = LINE ( 'NONE', #506, #133 ) ;
#368 = ORIENTED_EDGE ( 'NONE', *, *, #51, .T. ) ;
#369 = PRODUCT_CONTEXT ( 'NONE', #112, 'mechanical' ) ;
#370 = CARTESIAN_POINT ( 'NONE',  ( -9.275688629754116121, 0.5999999999999999778, -3.469446951953614189E-16 ) ) ;
#371 = ORIENTED_EDGE ( 'NONE', *, *, #522, .T. ) ;
#372 = EDGE_CURVE ( 'NONE', #393, #108, #377, .T. ) ;
#373 = AXIS2_PLACEMENT_3D ( 'NONE', #103, #420, #344 ) ;
#374 = DIRECTION ( 'NONE',  ( -2.465190328815661892E-32, 0.000000000000000000, 1.000000000000000000 ) ) ;
#375 = EDGE_LOOP ( 'NONE', ( #397, #521, #37, #102 ) ) ;
#376 = CIRCLE ( 'NONE', #608, 0.3049999999999990496 ) ;
#377 = LINE ( 'NONE', #91, #246 ) ;
#378 = DIRECTION ( 'NONE',  ( -1.000000000000000000, -0.000000000000000000, -1.539277964350119435E-14 ) ) ;
#379 = DIRECTION ( 'NONE',  ( 1.000000000000000000, 0.000000000000000000, 0.000000000000000000 ) ) ;
#380 = EDGE_CURVE ( 'NONE', #417, #581, #567, .T. ) ;
#381 = SURFACE_STYLE_USAGE ( .BOTH. , #240 ) ;
#382 = CARTESIAN_POINT ( 'NONE',  ( 0.000000000000000000, 0.3950000000000000178, 0.000000000000000000 ) ) ;
#383 = VECTOR ( 'NONE', #309, 100.0000000000000000 ) ;
#384 = CARTESIAN_POINT ( 'NONE',  ( -5.551115123125782702E-15, 0.3950000000000000178, 2.395000000000004015 ) ) ;
#385 =( GEOMETRIC_REPRESENTATION_CONTEXT ( 3 ) GLOBAL_UNCERTAINTY_ASSIGNED_CONTEXT ( ( #267 ) ) GLOBAL_UNIT_ASSIGNED_CONTEXT ( ( #418, #230, #326 ) ) REPRESENTATION_CONTEXT ( 'NONE', 'WORKASPACE' ) );
#386 = ORIENTED_EDGE ( 'NONE', *, *, #116, .F. ) ;
#387 = EDGE_LOOP ( 'NONE', ( #288, #597, #299, #292 ) ) ;
#388 = DIRECTION ( 'NONE',  ( 0.000000000000000000, 0.000000000000000000, 1.000000000000000000 ) ) ;
#389 = LINE ( 'NONE', #157, #213 ) ;
#390 = AXIS2_PLACEMENT_3D ( 'NONE', #328, #374, #562 ) ;
#391 = DIRECTION ( 'NONE',  ( -1.000000000000000000, -0.000000000000000000, -1.539277964350119435E-14 ) ) ;
#392 = DIRECTION ( 'NONE',  ( 0.000000000000000000, -1.000000000000000000, 0.000000000000000000 ) ) ;
#393 = VERTEX_POINT ( 'NONE', #242 ) ;
#394 = CYLINDRICAL_SURFACE ( 'NONE', #373, 0.3049999999999990496 ) ;
#395 = EDGE_CURVE ( 'NONE', #458, #129, #236, .T. ) ;
#396 =( LENGTH_UNIT ( ) NAMED_UNIT ( * ) SI_UNIT ( .CENTI., .METRE. ) );
#397 = ORIENTED_EDGE ( 'NONE', *, *, #44, .T. ) ;
#398 = CARTESIAN_POINT ( 'NONE',  ( 0.2499999999999946709, 0.5999999999999999778, 2.395000000000004015 ) ) ;
#399 = EDGE_CURVE ( 'NONE', #523, #108, #255, .T. ) ;
#400 = PLANE ( 'NONE',  #313 ) ;
#401 = ORIENTED_EDGE ( 'NONE', *, *, #496, .T. ) ;
#402 = AXIS2_PLACEMENT_3D ( 'NONE', #602, #464, #227 ) ;
#403 = VECTOR ( 'NONE', #2, 100.0000000000000000 ) ;
#404 = DIRECTION ( 'NONE',  ( 1.000000000000000000, 0.000000000000000000, 2.465190328815661892E-32 ) ) ;
#405 = PLANE ( 'NONE',  #266 ) ;
#406 = MANIFOLD_SOLID_BREP ( 'Cut-Extrude4', #95 ) ;
#407 = CARTESIAN_POINT ( 'NONE',  ( 0.000000000000000000, 0.000000000000000000, 5.000000000000000000 ) ) ;
#408 = DIRECTION ( 'NONE',  ( 0.000000000000000000, 0.000000000000000000, 1.000000000000000000 ) ) ;
#409 = EDGE_LOOP ( 'NONE', ( #99, #466 ) ) ;
#410 = LINE ( 'NONE', #358, #110 ) ;
#411 = DIRECTION ( 'NONE',  ( 1.000000000000000000, 0.000000000000000000, 0.000000000000000000 ) ) ;
#412 = ORIENTED_EDGE ( 'NONE', *, *, #244, .F. ) ;
#413 = CARTESIAN_POINT ( 'NONE',  ( -2.395000000000002682, 0.5999999999999999778, 3.100000000000000089 ) ) ;
#414 = ORIENTED_EDGE ( 'NONE', *, *, #482, .T. ) ;
#415 = EDGE_CURVE ( 'NONE', #530, #458, #480, .T. ) ;
#416 = CARTESIAN_POINT ( 'NONE',  ( 0.000000000000000000, 0.3950000000000000178, 0.000000000000000000 ) ) ;
#417 = VERTEX_POINT ( 'NONE', #575 ) ;
#418 =( LENGTH_UNIT ( ) NAMED_UNIT ( * ) SI_UNIT ( .CENTI., .METRE. ) );
#419 = ORIENTED_EDGE ( 'NONE', *, *, #4, .F. ) ;
#420 = DIRECTION ( 'NONE',  ( 0.000000000000000000, 0.000000000000000000, 1.000000000000000000 ) ) ;
#421 = VECTOR ( 'NONE', #378, 100.0000000000000000 ) ;
#422 = ORIENTED_EDGE ( 'NONE', *, *, #564, .F. ) ;
#423 = ADVANCED_FACE ( 'NONE', ( #527 ), #394, .F. ) ;
#424 = DIRECTION ( 'NONE',  ( 1.000000000000000000, 0.000000000000000000, 1.272130549049658700E-16 ) ) ;
#425 = SURFACE_STYLE_FILL_AREA ( #198 ) ;
#426 = LINE ( 'NONE', #568, #239 ) ;
#427 = LINE ( 'NONE', #382, #256 ) ;
#428 = AXIS2_PLACEMENT_3D ( 'NONE', #465, #408, #136 ) ;
#429 = PLANE ( 'NONE',  #124 ) ;
#430 = CIRCLE ( 'NONE', #162, 0.3049999999999991052 ) ;
#431 = EDGE_CURVE ( 'NONE', #302, #339, #582, .T. ) ;
#432 = DIRECTION ( 'NONE',  ( 0.9731387067013588243, 0.000000000000000000, 0.2302195854387859841 ) ) ;
#433 = CARTESIAN_POINT ( 'NONE',  ( -9.364431669862486984, 0.5999999999999999778, -2.274527215928062951 ) ) ;
#434 = DIRECTION ( 'NONE',  ( -2.465190328815661892E-32, 0.000000000000000000, 1.000000000000000000 ) ) ;
#435 = LINE ( 'NONE', #433, #70 ) ;
#436 = FACE_OUTER_BOUND ( 'NONE', #137, .T. ) ;
#437 = EDGE_CURVE ( 'NONE', #360, #332, #535, .T. ) ;
#438 = DIRECTION ( 'NONE',  ( -0.2302195854387860119, 0.000000000000000000, 0.9731387067013588243 ) ) ;
#439 = PRESENTATION_STYLE_ASSIGNMENT (( #257 ) ) ;
#440 = DIRECTION ( 'NONE',  ( 2.115516434118057955E-16, 0.000000000000000000, -1.000000000000000000 ) ) ;
#441 = LINE ( 'NONE', #161, #510 ) ;
#442 = CARTESIAN_POINT ( 'NONE',  ( -8.770817058774657227, 0.5999999999999999778, -2.134093268810402844 ) ) ;
#443 = EDGE_CURVE ( 'NONE', #207, #604, #174, .T. ) ;
#444 = FACE_OUTER_BOUND ( 'NONE', #463, .T. ) ;
#445 = ORIENTED_EDGE ( 'NONE', *, *, #253, .F. ) ;
#446 = VECTOR ( 'NONE', #223, 100.0000000000000000 ) ;
#447 = DIRECTION ( 'NONE',  ( 1.000000000000000000, 0.000000000000000000, 1.272130549049658700E-16 ) ) ;
#448 = AXIS2_PLACEMENT_3D ( 'NONE', #252, #214, #392 ) ;
#449 = DIRECTION ( 'NONE',  ( -0.2302195854387859841, 0.000000000000000000, 0.9731387067013589354 ) ) ;
#450 = EDGE_CURVE ( 'NONE', #538, #237, #201, .T. ) ;
#451 = ORIENTED_EDGE ( 'NONE', *, *, #333, .F. ) ;
#452 = LINE ( 'NONE', #495, #31 ) ;
#453 = DIRECTION ( 'NONE',  ( 0.9731387067013589354, -2.383957853025511309E-15, 0.2302195854387860396 ) ) ;
#454 = UNCERTAINTY_MEASURE_WITH_UNIT (LENGTH_MEASURE( 1.000000000000000082E-05 ), #396, 'distance_accuracy_value', 'NONE');
#455 = ORIENTED_EDGE ( 'NONE', *, *, #522, .F. ) ;
#456 = FACE_OUTER_BOUND ( 'NONE', #293, .T. ) ;
#457 = CARTESIAN_POINT ( 'NONE',  ( 0.000000000000000000, 0.5999999999999999778, 2.395000000000003570 ) ) ;
#458 = VERTEX_POINT ( 'NONE', #24 ) ;
#459 = DIRECTION ( 'NONE',  ( -0.2302195854387859841, 0.000000000000000000, 0.9731387067013589354 ) ) ;
#460 = AXIS2_PLACEMENT_3D ( 'NONE', #96, #341, #57 ) ;
#461 = CIRCLE ( 'NONE', #7, 0.3049999999999990496 ) ;
#462 = CARTESIAN_POINT ( 'NONE',  ( -9.930923710479159894, 0.5999999999999999778, 1.444858040240777353 ) ) ;
#463 = EDGE_LOOP ( 'NONE', ( #324, #422, #515, #89, #158, #504, #210, #371 ) ) ;
#464 = DIRECTION ( 'NONE',  ( 0.000000000000000000, 0.000000000000000000, 1.000000000000000000 ) ) ;
#465 = CARTESIAN_POINT ( 'NONE',  ( -0.8950000000000013500, 0.5999999999999999778, 3.100000000000000533 ) ) ;
#466 = ORIENTED_EDGE ( 'NONE', *, *, #570, .F. ) ;
#467 = CARTESIAN_POINT ( 'NONE',  ( -9.275688629754117898, -0.01000000000000054665, -3.469446951953614189E-16 ) ) ;
#468 = EDGE_CURVE ( 'NONE', #237, #525, #452, .T. ) ;
#469 = EDGE_LOOP ( 'NONE', ( #365, #216, #52, #545 ) ) ;
#470 = CARTESIAN_POINT ( 'NONE',  ( -9.067624364318572106, 0.5999999999999999778, -2.204310242369233119 ) ) ;
#471 = VECTOR ( 'NONE', #391, 100.0000000000000000 ) ;
#472 = EDGE_LOOP ( 'NONE', ( #229, #451 ) ) ;
#473 = CARTESIAN_POINT ( 'NONE',  ( -26.00442839046255727, 1.199999999999999956, -6.211122400498121365 ) ) ;
#474 = CARTESIAN_POINT ( 'NONE',  ( -9.930923710479159894, 0.5999999999999999778, 1.444858040240777353 ) ) ;
#475 = LINE ( 'NONE', #335, #421 ) ;
#476 = EDGE_CURVE ( 'NONE', #168, #320, #499, .T. ) ;
#477 = VERTEX_POINT ( 'NONE', #217 ) ;
#478 = VECTOR ( 'NONE', #151, 100.0000000000000000 ) ;
#479 = ORIENTED_EDGE ( 'NONE', *, *, #83, .T. ) ;
#480 = LINE ( 'NONE', #45, #94 ) ;
#481 = FACE_OUTER_BOUND ( 'NONE', #291, .T. ) ;
#482 = EDGE_CURVE ( 'NONE', #222, #360, #599, .T. ) ;
#483 = ORIENTED_EDGE ( 'NONE', *, *, #195, .F. ) ;
#484 =( BOUNDED_CURVE ( )  B_SPLINE_CURVE ( 3, ( #225, #605, #182, #218 ),
 .UNSPECIFIED., .F., .F. ) 
 B_SPLINE_CURVE_WITH_KNOTS ( ( 4, 4 ),
 ( 0.000000000000000000, 3.141592653589793116 ),
 .UNSPECIFIED. ) 
 CURVE ( )  GEOMETRIC_REPRESENTATION_ITEM ( )  RATIONAL_B_SPLINE_CURVE ( ( 1.000000000000000000, 0.3333333333333333703, 0.3333333333333333703, 1.000000000000000000 ) ) 
 REPRESENTATION_ITEM ( '' )  );
#485 = CARTESIAN_POINT ( 'NONE',  ( -7.500000000000000000, 0.000000000000000000, 5.000000000000002665 ) ) ;
#486 = DIRECTION ( 'NONE',  ( -0.000000000000000000, 1.000000000000000000, 0.000000000000000000 ) ) ;
#487 = PRESENTATION_LAYER_ASSIGNMENT (  '', '', ( #524 ) ) ;
#488 = ORIENTED_EDGE ( 'NONE', *, *, #116, .T. ) ;
#489 = PLANE ( 'NONE',  #160 ) ;
#490 = CARTESIAN_POINT ( 'NONE',  ( -2.395000000000002682, 0.5999999999999999778, 3.100000000000000089 ) ) ;
#491 = ORIENTED_EDGE ( 'NONE', *, *, #399, .T. ) ;
#492 = DIRECTION ( 'NONE',  ( 1.272130549049658700E-16, -0.000000000000000000, -1.000000000000000000 ) ) ;
#493 = DIRECTION ( 'NONE',  ( 1.000000000000000000, 0.000000000000000000, 1.272130549049658700E-16 ) ) ;
#494 = VERTEX_POINT ( 'NONE', #118 ) ;
#495 = CARTESIAN_POINT ( 'NONE',  ( 0.2499999999999946709, 0.3950000000000000178, 3.816391647148975608E-15 ) ) ;
#496 = EDGE_CURVE ( 'NONE', #393, #332, #264, .T. ) ;
#497 = ORIENTED_EDGE ( 'NONE', *, *, #327, .T. ) ;
#498 = VECTOR ( 'NONE', #10, 100.0000000000000000 ) ;
#499 = LINE ( 'NONE', #163, #82 ) ;
#500 = DIRECTION ( 'NONE',  ( 0.000000000000000000, 0.000000000000000000, -1.000000000000000000 ) ) ;
#501 = ORIENTED_EDGE ( 'NONE', *, *, #348, .F. ) ;
#502 = CARTESIAN_POINT ( 'NONE',  ( 0.000000000000000000, 0.000000000000000000, 5.000000000000000000 ) ) ;
#503 = DIRECTION ( 'NONE',  ( 0.2302195854387860119, 0.000000000000000000, -0.9731387067013588243 ) ) ;
#504 = ORIENTED_EDGE ( 'NONE', *, *, #4, .T. ) ;
#505 = FACE_OUTER_BOUND ( 'NONE', #387, .T. ) ;
#506 = CARTESIAN_POINT ( 'NONE',  ( -2.700000000000002398, 0.5999999999999999778, 3.100000000000000089 ) ) ;
#507 = ORIENTED_EDGE ( 'NONE', *, *, #450, .F. ) ;
#508 = CARTESIAN_POINT ( 'NONE',  ( -9.902526300272549875, -0.01000000000000054665, -3.469446951953614189E-16 ) ) ;
#509 = AXIS2_PLACEMENT_3D ( 'NONE', #304, #66, #379 ) ;
#510 = VECTOR ( 'NONE', #106, 100.0000000000000000 ) ;
#511 = DIRECTION ( 'NONE',  ( 0.000000000000000000, 0.000000000000000000, 1.000000000000000000 ) ) ;
#512 = ORIENTED_EDGE ( 'NONE', *, *, #395, .T. ) ;
#513 = ADVANCED_FACE ( 'NONE', ( #73 ), #166, .T. ) ;
#514 = CARTESIAN_POINT ( 'NONE',  ( -27.53536453439562237, 1.199999999999999956, 0.2601481315458259447 ) ) ;
#515 = ORIENTED_EDGE ( 'NONE', *, *, #380, .F. ) ;
#516 = ADVANCED_FACE ( 'NONE', ( #220 ), #489, .T. ) ;
#517 = LINE ( 'NONE', #202, #471 ) ;
#518 = ORIENTED_EDGE ( 'NONE', *, *, #496, .F. ) ;
#519 = AXIS2_PLACEMENT_3D ( 'NONE', #42, #235, #331 ) ;
#520 = ORIENTED_EDGE ( 'NONE', *, *, #431, .T. ) ;
#521 = ORIENTED_EDGE ( 'NONE', *, *, #244, .T. ) ;
#522 = EDGE_CURVE ( 'NONE', #168, #302, #410, .T. ) ;
#523 = VERTEX_POINT ( 'NONE', #594 ) ;
#524 = STYLED_ITEM ( 'NONE', ( #142 ), #406 ) ;
#525 = VERTEX_POINT ( 'NONE', #351 ) ;
#526 = COLOUR_RGB ( '',0.6941176470588235059, 0.09803921568627450844, 0.09803921568627450844 ) ;
#527 = FACE_OUTER_BOUND ( 'NONE', #197, .T. ) ;
#528 = ADVANCED_FACE ( 'NONE', ( #456 ), #261, .T. ) ;
#529 = DIRECTION ( 'NONE',  ( -2.465190328815661892E-32, 0.000000000000000000, 1.000000000000000000 ) ) ;
#530 = VERTEX_POINT ( 'NONE', #361 ) ;
#531 =( LENGTH_UNIT ( ) NAMED_UNIT ( * ) SI_UNIT ( .CENTI., .METRE. ) );
#532 = PRODUCT_DEFINITION ( 'UNKNOWN', '', #238, #311 ) ;
#533 = CARTESIAN_POINT ( 'NONE',  ( -0.8950000000000013500, 0.5999999999999999778, 3.100000000000000533 ) ) ;
#534 = ORIENTED_EDGE ( 'NONE', *, *, #44, .F. ) ;
#535 = LINE ( 'NONE', #284, #144 ) ;
#536 = CARTESIAN_POINT ( 'NONE',  ( -1.200000000000001066, 0.5999999999999999778, 5.000000000000000000 ) ) ;
#537 = VECTOR ( 'NONE', #68, 100.0000000000000000 ) ;
#538 = VERTEX_POINT ( 'NONE', #366 ) ;
#539 = AXIS2_PLACEMENT_3D ( 'NONE', #474, #243, #190 ) ;
#540 = CARTESIAN_POINT ( 'NONE',  ( -10.22773101602307477, 0.5999999999999999778, 1.374641066681947077 ) ) ;
#541 = CARTESIAN_POINT ( 'NONE',  ( -15.00000000000000178, 0.3950000000000000178, 2.499999999999998224 ) ) ;
#542 = ORIENTED_EDGE ( 'NONE', *, *, #333, .T. ) ;
#543 = PRODUCT_DEFINITION_SHAPE ( 'NONE', 'NONE',  #532 ) ;
#544 = CARTESIAN_POINT ( 'NONE',  ( 0.2499999999999946709, 0.8049999999999999378, 3.816391647148975608E-15 ) ) ;
#545 = ORIENTED_EDGE ( 'NONE', *, *, #139, .T. ) ;
#546 = DIRECTION ( 'NONE',  ( 0.000000000000000000, -1.000000000000000000, 0.000000000000000000 ) ) ;
#547 = ADVANCED_FACE ( 'NONE', ( #551, #316, #19 ), #159, .T. ) ;
#548 = CYLINDRICAL_SURFACE ( 'NONE', #428, 0.3049999999999991052 ) ;
#549 = ORIENTED_EDGE ( 'NONE', *, *, #195, .T. ) ;
#550 = AXIS2_PLACEMENT_3D ( 'NONE', #462, #314, #132 ) ;
#551 = FACE_BOUND ( 'NONE', #409, .T. ) ;
#552 = ADVANCED_FACE ( 'NONE', ( #272 ), #29, .F. ) ;
#553 = LINE ( 'NONE', #514, #265 ) ;
#554 = ORIENTED_EDGE ( 'NONE', *, *, #564, .T. ) ;
#555 = DIRECTION ( 'NONE',  ( -1.000000000000000000, 0.000000000000000000, 0.000000000000000000 ) ) ;
#556 = EDGE_LOOP ( 'NONE', ( #606, #9, #336, #41 ) ) ;
#557 = CARTESIAN_POINT ( 'NONE',  ( -27.47382017840123680, 6.730727086790011526E-14, -3.469446951953614189E-16 ) ) ;
#558 = ORIENTED_EDGE ( 'NONE', *, *, #431, .F. ) ;
#559 = EDGE_CURVE ( 'NONE', #538, #494, #211, .T. ) ;
#560 = CARTESIAN_POINT ( 'NONE',  ( -9.634116404935245015, 0.5999999999999999778, 1.515075013799606740 ) ) ;
#561 = COLOUR_RGB ( '',1.000000000000000000, 1.000000000000000000, 1.000000000000000000 ) ;
#562 = DIRECTION ( 'NONE',  ( 1.000000000000000000, 0.000000000000000000, 0.000000000000000000 ) ) ;
#563 = ORIENTED_EDGE ( 'NONE', *, *, #83, .F. ) ;
#564 = EDGE_CURVE ( 'NONE', #581, #523, #15, .T. ) ;
#565 = DIRECTION ( 'NONE',  ( 0.000000000000000000, 1.000000000000000000, 0.000000000000000000 ) ) ;
#566 = VERTEX_POINT ( 'NONE', #540 ) ;
#567 = LINE ( 'NONE', #609, #498 ) ;
#568 = CARTESIAN_POINT ( 'NONE',  ( 0.000000000000000000, 1.199999999999999956, 5.000000000000000000 ) ) ;
#569 = AXIS2_PLACEMENT_3D ( 'NONE', #457, #317, #85 ) ;
#570 = EDGE_CURVE ( 'NONE', #129, #458, #6, .T. ) ;
#571 = LINE ( 'NONE', #48, #578 ) ;
#572 = ORIENTED_EDGE ( 'NONE', *, *, #92, .T. ) ;
#573 = CARTESIAN_POINT ( 'NONE',  ( -2.395000000000002682, 0.5999999999999999778, 5.000000000000000000 ) ) ;
#574 = ADVANCED_FACE ( 'NONE', ( #283 ), #286, .F. ) ;
#575 = CARTESIAN_POINT ( 'NONE',  ( 0.000000000000000000, 0.8049999999999999378, 0.000000000000000000 ) ) ;
#576 = VECTOR ( 'NONE', #438, 100.0000000000000142 ) ;
#577 = CARTESIAN_POINT ( 'NONE',  ( 0.000000000000000000, 0.000000000000000000, 5.000000000000000000 ) ) ;
#578 = VECTOR ( 'NONE', #586, 100.0000000000000000 ) ;
#579 = EDGE_CURVE ( 'NONE', #233, #357, #234, .T. ) ;
#580 = PLANE ( 'NONE',  #50 ) ;
#581 = VERTEX_POINT ( 'NONE', #276 ) ;
#582 = LINE ( 'NONE', #155, #12 ) ;
#583 = CARTESIAN_POINT ( 'NONE',  ( -7.500000000000000000, 0.000000000000000000, 5.000000000000002665 ) ) ;
#584 = ORIENTED_EDGE ( 'NONE', *, *, #450, .T. ) ;
#585 = DIRECTION ( 'NONE',  ( 1.000000000000000000, 0.000000000000000000, 1.272130549049658700E-16 ) ) ;
#586 = DIRECTION ( 'NONE',  ( -1.000000000000000000, 0.000000000000000000, -2.139492287038061508E-16 ) ) ;
#587 = EDGE_CURVE ( 'NONE', #207, #219, #121, .T. ) ;
#588 = ORIENTED_EDGE ( 'NONE', *, *, #224, .T. ) ;
#589 = CARTESIAN_POINT ( 'NONE',  ( 0.2499999999999946709, 0.5999999999999999778, 2.395000000000004015 ) ) ;
#590 = DIRECTION ( 'NONE',  ( 0.2302195854387860119, 0.000000000000000000, -0.9731387067013589354 ) ) ;
#591 = DIRECTION ( 'NONE',  ( -1.000000000000000000, 0.000000000000000000, 0.000000000000000000 ) ) ;
#592 = LINE ( 'NONE', #281, #403 ) ;
#593 = ORIENTED_EDGE ( 'NONE', *, *, #468, .F. ) ;
#594 = CARTESIAN_POINT ( 'NONE',  ( -27.47382017840123325, 1.199999999999999956, -5.551115123125782702E-15 ) ) ;
#595 = ADVANCED_FACE ( 'NONE', ( #505 ), #38, .F. ) ;
#596 = FACE_OUTER_BOUND ( 'NONE', #285, .T. ) ;
#597 = ORIENTED_EDGE ( 'NONE', *, *, #348, .T. ) ;
#598 = AXIS2_PLACEMENT_3D ( 'NONE', #364, #511, #411 ) ;
#599 = LINE ( 'NONE', #407, #383 ) ;
#600 = CARTESIAN_POINT ( 'NONE',  ( -9.902526300272551651, 0.5999999999999999778, -3.469446951953614189E-16 ) ) ;
#601 = ORIENTED_EDGE ( 'NONE', *, *, #47, .F. ) ;
#602 = CARTESIAN_POINT ( 'NONE',  ( -0.8950000000000013500, 0.5999999999999999778, 3.100000000000000533 ) ) ;
#603 = FACE_OUTER_BOUND ( 'NONE', #318, .T. ) ;
#604 = VERTEX_POINT ( 'NONE', #560 ) ;
#605 = CARTESIAN_POINT ( 'NONE',  ( -9.902526300272549875, 1.210000000000000631, -3.469446951953614189E-16 ) ) ;
#606 = ORIENTED_EDGE ( 'NONE', *, *, #327, .F. ) ;
#607 = CIRCLE ( 'NONE', #569, 0.2049999999999999600 ) ;
#608 = AXIS2_PLACEMENT_3D ( 'NONE', #259, #67, #17 ) ;
#609 = CARTESIAN_POINT ( 'NONE',  ( 0.000000000000000000, 0.000000000000000000, 0.000000000000000000 ) ) ;
ENDSEC;
END-ISO-10303-21;
