ISO-10303-21;
HEADER;
FILE_DESCRIPTION (( 'STEP AP214' ),
    '1' );
FILE_NAME ('ramp-wall-middle_62.STEP',
    '2026-06-10T13:07:58',
    ( '' ),
    ( '' ),
    'SwSTEP 2.0',
    'SolidWorks 2023',
    '' );
FILE_SCHEMA (( 'AUTOMOTIVE_DESIGN' ));
ENDSEC;

DATA;
#1 = UNCERTAINTY_MEASURE_WITH_UNIT (LENGTH_MEASURE( 1.000000000000000082E-05 ), #231, 'distance_accuracy_value', 'NONE');
#2 = DIRECTION ( 'NONE',  ( -1.000000000000000000, 0.000000000000000000, 1.032573497605242347E-16 ) ) ;
#3 = DIRECTION ( 'NONE',  ( 0.2302195854387930618, 0.000000000000000000, 0.9731387067013572700 ) ) ;
#4 = EDGE_LOOP ( 'NONE', ( #11, #492, #374, #19, #481, #704, #732, #831, #422 ) ) ;
#5 = STYLED_ITEM ( 'NONE', ( #649 ), #14 ) ;
#6 = AXIS2_PLACEMENT_3D ( 'NONE', #88, #515, #709 ) ;
#7 = EDGE_CURVE ( 'NONE', #418, #323, #366, .T. ) ;
#8 = AXIS2_PLACEMENT_3D ( 'NONE', #658, #334, #275 ) ;
#9 = DIRECTION ( 'NONE',  ( 0.7071067811865489050, 0.000000000000000000, -0.7071067811865461294 ) ) ;
#10 = PLANE ( 'NONE',  #823 ) ;
#11 = ORIENTED_EDGE ( 'NONE', *, *, #462, .F. ) ;
#12 = ORIENTED_EDGE ( 'NONE', *, *, #130, .T. ) ;
#13 = CARTESIAN_POINT ( 'NONE',  ( 9.766373172380523826, 1.199999999999999956, 5.000000000000001776 ) ) ;
#14 = ADVANCED_FACE ( 'NONE', ( #246, #100, #587 ), #375, .T. ) ;
#15 = CARTESIAN_POINT ( 'NONE',  ( 11.91406289596007539, -0.02000000000000031267, 5.000000000000000000 ) ) ;
#16 = VERTEX_POINT ( 'NONE', #778 ) ;
#17 = DIRECTION ( 'NONE',  ( 0.2302195854387930063, 0.000000000000000000, 0.9731387067013572700 ) ) ;
#18 = CARTESIAN_POINT ( 'NONE',  ( 16.80000000000000071, 1.199999999999999956, -3.469446951953614189E-16 ) ) ;
#19 = ORIENTED_EDGE ( 'NONE', *, *, #844, .T. ) ;
#20 = EDGE_CURVE ( 'NONE', #242, #320, #465, .T. ) ;
#21 = DIRECTION ( 'NONE',  ( -0.2302195854387925900, -0.000000000000000000, -0.9731387067013573811 ) ) ;
#22 = DIRECTION ( 'NONE',  ( -1.032573497605242347E-16, 0.000000000000000000, -1.000000000000000000 ) ) ;
#23 = ORIENTED_EDGE ( 'NONE', *, *, #182, .T. ) ;
#24 = VECTOR ( 'NONE', #338, 100.0000000000000000 ) ;
#25 = VERTEX_POINT ( 'NONE', #712 ) ;
#26 = ADVANCED_FACE ( 'NONE', ( #435 ), #857, .F. ) ;
#27 = DIRECTION ( 'NONE',  ( -0.2302195854387930896, 0.000000000000000000, -0.9731387067013572700 ) ) ;
#28 = ORIENTED_EDGE ( 'NONE', *, *, #753, .F. ) ;
#29 = LINE ( 'NONE', #438, #123 ) ;
#30 = VERTEX_POINT ( 'NONE', #169 ) ;
#31 = DIRECTION ( 'NONE',  ( 1.032573497605242347E-16, 0.000000000000000000, 1.000000000000000000 ) ) ;
#32 = EDGE_CURVE ( 'NONE', #775, #48, #507, .T. ) ;
#33 = AXIS2_PLACEMENT_3D ( 'NONE', #37, #447, #656 ) ;
#34 = PLANE ( 'NONE',  #436 ) ;
#35 = EDGE_LOOP ( 'NONE', ( #50, #417, #178, #654 ) ) ;
#36 = AXIS2_PLACEMENT_3D ( 'NONE', #863, #258, #127 ) ;
#37 = CARTESIAN_POINT ( 'NONE',  ( 16.80000000000000071, 1.199999999999999956, 5.000000000000000000 ) ) ;
#38 = COLOUR_RGB ( '',0.6941176470588235059, 0.09803921568627450844, 0.09803921568627450844 ) ;
#39 = CARTESIAN_POINT ( 'NONE',  ( 16.80000000000000426, 1.199999999999999956, 2.399999999999998135 ) ) ;
#40 = ORIENTED_EDGE ( 'NONE', *, *, #718, .T. ) ;
#41 = DIRECTION ( 'NONE',  ( 0.000000000000000000, -1.000000000000000000, 0.000000000000000000 ) ) ;
#42 = LINE ( 'NONE', #787, #509 ) ;
#43 = CARTESIAN_POINT ( 'NONE',  ( 14.09258070169626720, 1.220000000000000195, 5.000000000000000000 ) ) ;
#44 = EDGE_LOOP ( 'NONE', ( #245, #217, #692, #502 ) ) ;
#45 = LINE ( 'NONE', #192, #150 ) ;
#46 = DIRECTION ( 'NONE',  ( 1.032573497605242347E-16, 0.000000000000000000, 1.000000000000000000 ) ) ;
#47 = PLANE ( 'NONE',  #409 ) ;
#48 = VERTEX_POINT ( 'NONE', #308 ) ;
#49 = PLANE ( 'NONE',  #811 ) ;
#50 = ORIENTED_EDGE ( 'NONE', *, *, #279, .T. ) ;
#51 = AXIS2_PLACEMENT_3D ( 'NONE', #229, #27, #302 ) ;
#52 = AXIS2_PLACEMENT_3D ( 'NONE', #682, #280, #154 ) ;
#53 = DIRECTION ( 'NONE',  ( 0.000000000000000000, -1.000000000000000000, 0.000000000000000000 ) ) ;
#54 = EDGE_CURVE ( 'NONE', #350, #288, #315, .T. ) ;
#55 = DIRECTION ( 'NONE',  ( -0.2302195854387930618, -0.000000000000000000, -0.9731387067013573811 ) ) ;
#56 = LINE ( 'NONE', #473, #579 ) ;
#57 = EDGE_CURVE ( 'NONE', #357, #847, #45, .T. ) ;
#58 = PLANE ( 'NONE',  #8 ) ;
#59 = FACE_OUTER_BOUND ( 'NONE', #855, .T. ) ;
#60 = VERTEX_POINT ( 'NONE', #469 ) ;
#61 = FACE_OUTER_BOUND ( 'NONE', #648, .T. ) ;
#62 = CARTESIAN_POINT ( 'NONE',  ( 14.09258070169626897, 0.5999999999999999778, 5.000000000000000000 ) ) ;
#63 = EDGE_CURVE ( 'NONE', #483, #624, #598, .T. ) ;
#64 = CARTESIAN_POINT ( 'NONE',  ( 16.80000000000000071, 1.199999999999999956, 5.000000000000000000 ) ) ;
#65 = VECTOR ( 'NONE', #356, 100.0000000000000000 ) ;
#66 = VECTOR ( 'NONE', #456, 100.0000000000000142 ) ;
#67 = CARTESIAN_POINT ( 'NONE',  ( 4.150000000000017231, 0.8049999999999999378, -1.750000000000000444 ) ) ;
#68 = SURFACE_STYLE_FILL_AREA ( #683 ) ;
#69 = ORIENTED_EDGE ( 'NONE', *, *, #419, .T. ) ;
#70 = SHAPE_DEFINITION_REPRESENTATION ( #626, #757 ) ;
#71 = CARTESIAN_POINT ( 'NONE',  ( 0.000000000000000000, 0.000000000000000000, 0.000000000000000000 ) ) ;
#72 = EDGE_LOOP ( 'NONE', ( #86, #761, #221, #292 ) ) ;
#73 = VERTEX_POINT ( 'NONE', #389 ) ;
#74 = CARTESIAN_POINT ( 'NONE',  ( 7.180746541752530909, 0.5999999999999999778, 2.801345379120729895 ) ) ;
#75 = VERTEX_POINT ( 'NONE', #276 ) ;
#76 = EDGE_CURVE ( 'NONE', #295, #877, #122, .T. ) ;
#77 = VECTOR ( 'NONE', #408, 100.0000000000000000 ) ;
#78 = AXIS2_PLACEMENT_3D ( 'NONE', #661, #584, #521 ) ;
#79 = CARTESIAN_POINT ( 'NONE',  ( 7.482419540829951643, 0.5999999999999999778, 2.729977307634703809 ) ) ;
#80 = DIRECTION ( 'NONE',  ( 0.000000000000000000, -1.000000000000000000, 0.000000000000000000 ) ) ;
#81 = ORIENTED_EDGE ( 'NONE', *, *, #594, .F. ) ;
#82 = ORIENTED_EDGE ( 'NONE', *, *, #261, .T. ) ;
#83 = EDGE_CURVE ( 'NONE', #642, #633, #804, .T. ) ;
#84 = DIRECTION ( 'NONE',  ( -0.9731387067013572700, 0.000000000000000000, 0.2302195854387931728 ) ) ;
#85 = ORIENTED_EDGE ( 'NONE', *, *, #856, .F. ) ;
#86 = ORIENTED_EDGE ( 'NONE', *, *, #791, .T. ) ;
#87 = LINE ( 'NONE', #376, #138 ) ;
#88 = CARTESIAN_POINT ( 'NONE',  ( 16.80000000000000071, 1.199999999999999956, -3.469446951953614189E-16 ) ) ;
#89 = ADVANCED_FACE ( 'NONE', ( #267 ), #263, .F. ) ;
#90 = ORIENTED_EDGE ( 'NONE', *, *, #647, .T. ) ;
#91 = ORIENTED_EDGE ( 'NONE', *, *, #803, .T. ) ;
#92 = VECTOR ( 'NONE', #22, 100.0000000000000000 ) ;
#93 = DIRECTION ( 'NONE',  ( 0.000000000000000000, -1.000000000000000000, 0.000000000000000000 ) ) ;
#94 = ORIENTED_EDGE ( 'NONE', *, *, #106, .T. ) ;
#95 = PRODUCT_RELATED_PRODUCT_CATEGORY ( 'part', '', ( #827 ) ) ;
#96 = CARTESIAN_POINT ( 'NONE',  ( 0.000000000000000000, 1.199999999999999956, 2.399999999999999911 ) ) ;
#97 = EDGE_CURVE ( 'NONE', #839, #586, #185, .T. ) ;
#98 = FACE_OUTER_BOUND ( 'NONE', #550, .T. ) ;
#99 = VERTEX_POINT ( 'NONE', #458 ) ;
#100 = FACE_BOUND ( 'NONE', #218, .T. ) ;
#101 = EDGE_CURVE ( 'NONE', #710, #629, #610, .T. ) ;
#102 = DIRECTION ( 'NONE',  ( -0.7071067811865491270, -0.000000000000000000, -0.7071067811865460184 ) ) ;
#103 = EDGE_LOOP ( 'NONE', ( #241, #618, #591, #567 ) ) ;
#104 = DIRECTION ( 'NONE',  ( 0.7071067811865461294, 0.000000000000000000, 0.7071067811865489050 ) ) ;
#105 = FACE_OUTER_BOUND ( 'NONE', #156, .T. ) ;
#106 = EDGE_CURVE ( 'NONE', #60, #114, #543, .T. ) ;
#107 = FACE_OUTER_BOUND ( 'NONE', #843, .T. ) ;
#108 = ORIENTED_EDGE ( 'NONE', *, *, #594, .T. ) ;
#109 = VECTOR ( 'NONE', #702, 100.0000000000000000 ) ;
#110 = ORIENTED_EDGE ( 'NONE', *, *, #620, .T. ) ;
#111 = AXIS2_PLACEMENT_3D ( 'NONE', #750, #203, #470 ) ;
#112 = DIRECTION ( 'NONE',  ( 0.000000000000000000, -1.000000000000000000, 0.000000000000000000 ) ) ;
#113 = CARTESIAN_POINT ( 'NONE',  ( 16.80000000000000071, 1.199999999999999956, 5.000000000000000000 ) ) ;
#114 = VERTEX_POINT ( 'NONE', #818 ) ;
#115 = CARTESIAN_POINT ( 'NONE',  ( 16.80000000000000782, 0.3950000000000000178, 4.999999999999989342 ) ) ;
#116 = DIRECTION ( 'NONE',  ( -0.2302195854387930618, -0.000000000000000000, -0.9731387067013573811 ) ) ;
#117 = ORIENTED_EDGE ( 'NONE', *, *, #118, .T. ) ;
#118 = EDGE_CURVE ( 'NONE', #835, #358, #188, .T. ) ;
#119 = DIRECTION ( 'NONE',  ( -0.2302195854387930340, -0.000000000000000000, -0.9731387067013572700 ) ) ;
#120 = CARTESIAN_POINT ( 'NONE',  ( 7.017205293938386212, 0.5999999999999999778, 3.456596674627570476 ) ) ;
#121 = SURFACE_STYLE_USAGE ( .BOTH. , #734 ) ;
#122 = LINE ( 'NONE', #664, #193 ) ;
#123 = VECTOR ( 'NONE', #715, 100.0000000000000000 ) ;
#124 = STYLED_ITEM ( 'NONE', ( #331 ), #545 ) ;
#125 = DIRECTION ( 'NONE',  ( 0.9731387067013572700, 0.000000000000000000, -0.2302195854387927287 ) ) ;
#126 = LINE ( 'NONE', #740, #667 ) ;
#127 = DIRECTION ( 'NONE',  ( 0.9731387067013573811, 0.000000000000000000, -0.2302195854387920904 ) ) ;
#128 = ORIENTED_EDGE ( 'NONE', *, *, #660, .F. ) ;
#129 = CARTESIAN_POINT ( 'NONE',  ( 13.45546700379228788, 0.5999999999999999778, 5.000000000000000000 ) ) ;
#130 = EDGE_CURVE ( 'NONE', #832, #847, #56, .T. ) ;
#131 = CARTESIAN_POINT ( 'NONE',  ( 16.80000000000000782, 0.8049999999999999378, 4.999999999999989342 ) ) ;
#132 = PLANE ( 'NONE',  #711 ) ;
#133 = LINE ( 'NONE', #264, #210 ) ;
#134 = PRODUCT_DEFINITION ( 'UNKNOWN', '', #396, #714 ) ;
#135 = PLANE ( 'NONE',  #852 ) ;
#136 = DIRECTION ( 'NONE',  ( 1.032573497605242347E-16, 0.000000000000000000, 1.000000000000000000 ) ) ;
#137 = ORIENTED_EDGE ( 'NONE', *, *, #660, .T. ) ;
#138 = VECTOR ( 'NONE', #46, 100.0000000000000000 ) ;
#139 = LINE ( 'NONE', #410, #867 ) ;
#140 = LINE ( 'NONE', #360, #65 ) ;
#141 = ADVANCED_FACE ( 'NONE', ( #882 ), #49, .T. ) ;
#142 = EDGE_LOOP ( 'NONE', ( #82, #313 ) ) ;
#143 = LINE ( 'NONE', #200, #450 ) ;
#144 = FACE_OUTER_BOUND ( 'NONE', #638, .T. ) ;
#145 = ORIENTED_EDGE ( 'NONE', *, *, #555, .T. ) ;
#146 = EDGE_CURVE ( 'NONE', #48, #60, #477, .T. ) ;
#147 = ORIENTED_EDGE ( 'NONE', *, *, #319, .F. ) ;
#148 = DIRECTION ( 'NONE',  ( 0.2302195854387930063, 0.000000000000000000, 0.9731387067013572700 ) ) ;
#149 = EDGE_LOOP ( 'NONE', ( #110, #431, #161, #230 ) ) ;
#150 = VECTOR ( 'NONE', #332, 100.0000000000000000 ) ;
#151 = EDGE_CURVE ( 'NONE', #710, #624, #329, .T. ) ;
#152 = CIRCLE ( 'NONE', #326, 0.3100000000000001088 ) ;
#153 = AXIS2_PLACEMENT_3D ( 'NONE', #701, #420, #752 ) ;
#154 = DIRECTION ( 'NONE',  ( -0.9731387067013572700, 0.000000000000000000, 0.2302195854387930618 ) ) ;
#155 = CYLINDRICAL_SURFACE ( 'NONE', #257, 0.3100000000000000533 ) ;
#156 = EDGE_LOOP ( 'NONE', ( #227, #697, #271, #552, #12, #439, #287, #206, #303 ) ) ;
#157 = EDGE_CURVE ( 'NONE', #73, #557, #534, .T. ) ;
#158 = CARTESIAN_POINT ( 'NONE',  ( 7.620551292093227680, 0.5999999999999999778, 3.313860531655518749 ) ) ;
#159 = FILL_AREA_STYLE_COLOUR ( '', #377 ) ;
#160 = ORIENTED_EDGE ( 'NONE', *, *, #101, .T. ) ;
#161 = ORIENTED_EDGE ( 'NONE', *, *, #444, .F. ) ;
#162 = CARTESIAN_POINT ( 'NONE',  ( 9.766373172380523826, 1.199999999999999956, 5.000000000000001776 ) ) ;
#163 = ORIENTED_EDGE ( 'NONE', *, *, #588, .T. ) ;
#164 = CARTESIAN_POINT ( 'NONE',  ( 11.91406289596007362, 0.5999999999999999778, 5.000000000000000000 ) ) ;
#165 =( GEOMETRIC_REPRESENTATION_CONTEXT ( 3 ) GLOBAL_UNCERTAINTY_ASSIGNED_CONTEXT ( ( #1 ) ) GLOBAL_UNIT_ASSIGNED_CONTEXT ( ( #231, #369, #513 ) ) REPRESENTATION_CONTEXT ( 'NONE', 'WORKASPACE' ) );
#166 = VECTOR ( 'NONE', #745, 100.0000000000000000 ) ;
#167 =( GEOMETRIC_REPRESENTATION_CONTEXT ( 3 ) GLOBAL_UNCERTAINTY_ASSIGNED_CONTEXT ( ( #504 ) ) GLOBAL_UNIT_ASSIGNED_CONTEXT ( ( #548, #277, #484 ) ) REPRESENTATION_CONTEXT ( 'NONE', 'WORKASPACE' ) );
#168 = EDGE_LOOP ( 'NONE', ( #544, #283, #566, #202 ) ) ;
#169 = CARTESIAN_POINT ( 'NONE',  ( 5.362869492546081140, 1.199999999999999956, 3.847969969873516582 ) ) ;
#170 = ORIENTED_EDGE ( 'NONE', *, *, #844, .F. ) ;
#171 = CARTESIAN_POINT ( 'NONE',  ( 7.180746541752530909, 0.5999999999999999778, 2.801345379120729895 ) ) ;
#172 = CARTESIAN_POINT ( 'NONE',  ( 8.400000000000002132, 1.199999999999999956, 2.500000000000000000 ) ) ;
#173 = FACE_OUTER_BOUND ( 'NONE', #381, .T. ) ;
#174 = VERTEX_POINT ( 'NONE', #741 ) ;
#175 = SURFACE_STYLE_USAGE ( .BOTH. , #794 ) ;
#176 = LINE ( 'NONE', #858, #238 ) ;
#177 = CARTESIAN_POINT ( 'NONE',  ( 11.53896657593016428, 0.5999999999999999778, 3.414467009543851184 ) ) ;
#178 = ORIENTED_EDGE ( 'NONE', *, *, #655, .F. ) ;
#179 = VECTOR ( 'NONE', #371, 100.0000000000000000 ) ;
#180 = CIRCLE ( 'NONE', #437, 0.3100000000000000533 ) ;
#181 = CARTESIAN_POINT ( 'NONE',  ( 0.000000000000000000, 0.8049999999999999378, 2.399999999999999911 ) ) ;
#182 = EDGE_CURVE ( 'NONE', #388, #16, #399, .T. ) ;
#183 = FACE_OUTER_BOUND ( 'NONE', #142, .T. ) ;
#184 = ORIENTED_EDGE ( 'NONE', *, *, #57, .F. ) ;
#185 = LINE ( 'NONE', #339, #864 ) ;
#186 = PLANE ( 'NONE',  #78 ) ;
#187 = FILL_AREA_STYLE ('',( #802 ) ) ;
#188 = LINE ( 'NONE', #731, #851 ) ;
#189 = LINE ( 'NONE', #346, #880 ) ;
#190 = CARTESIAN_POINT ( 'NONE',  ( 12.78961899198323415, 0.5999999999999999778, 6.007896554440445236 ) ) ;
#191 = AXIS2_PLACEMENT_3D ( 'NONE', #96, #104, #848 ) ;
#192 = CARTESIAN_POINT ( 'NONE',  ( 16.80000000000000071, 1.199999999999999956, 5.000000000000000000 ) ) ;
#193 = VECTOR ( 'NONE', #119, 100.0000000000000142 ) ;
#194 = ADVANCED_FACE ( 'NONE', ( #59 ), #132, .T. ) ;
#195 = AXIS2_PLACEMENT_3D ( 'NONE', #564, #112, #657 ) ;
#196 = DIRECTION ( 'NONE',  ( 0.000000000000000000, -1.000000000000000000, 0.000000000000000000 ) ) ;
#197 = CARTESIAN_POINT ( 'NONE',  ( -0.2500000000000002220, 0.3950000000000000178, 2.649999999999999023 ) ) ;
#198 = DIRECTION ( 'NONE',  ( 1.000000000000000000, 0.000000000000000000, -1.032573497605242347E-16 ) ) ;
#199 = ORIENTED_EDGE ( 'NONE', *, *, #501, .T. ) ;
#200 = CARTESIAN_POINT ( 'NONE',  ( 5.509058929299713192, 1.199999999999999956, 4.465913048628878279 ) ) ;
#201 = DIRECTION ( 'NONE',  ( -1.000000000000000000, -0.000000000000000000, -2.065146995210483770E-17 ) ) ;
#202 = ORIENTED_EDGE ( 'NONE', *, *, #807, .F. ) ;
#203 = DIRECTION ( 'NONE',  ( 0.9731387067013573811, 0.000000000000000000, -0.2302195854387926732 ) ) ;
#204 = CARTESIAN_POINT ( 'NONE',  ( 12.18627299382839269, 0.5999999999999999778, 6.150632697412496519 ) ) ;
#205 = FACE_OUTER_BOUND ( 'NONE', #885, .T. ) ;
#206 = ORIENTED_EDGE ( 'NONE', *, *, #505, .F. ) ;
#207 =( BOUNDED_CURVE ( )  B_SPLINE_CURVE ( 3, ( #403, #269, #43, #62 ),
 .UNSPECIFIED., .F., .F. ) 
 B_SPLINE_CURVE_WITH_KNOTS ( ( 4, 4 ),
 ( 0.000000000000000000, 3.141592653589793116 ),
 .UNSPECIFIED. ) 
 CURVE ( )  GEOMETRIC_REPRESENTATION_ITEM ( )  RATIONAL_B_SPLINE_CURVE ( ( 1.000000000000000000, 0.3333333333333333703, 0.3333333333333333703, 1.000000000000000000 ) ) 
 REPRESENTATION_ITEM ( '' )  );
#208 = VECTOR ( 'NONE', #93, 100.0000000000000000 ) ;
#209 =( NAMED_UNIT ( * ) SI_UNIT ( $, .STERADIAN. ) SOLID_ANGLE_UNIT ( ) );
#210 = VECTOR ( 'NONE', #405, 100.0000000000000142 ) ;
#211 = CARTESIAN_POINT ( 'NONE',  ( 16.80000000000000426, 0.8049999999999999378, 2.399999999999998135 ) ) ;
#212 = EDGE_CURVE ( 'NONE', #357, #862, #539, .T. ) ;
#213 = CARTESIAN_POINT ( 'NONE',  ( 13.45546700379228788, 0.5999999999999999778, 5.000000000000000000 ) ) ;
#214 = ORIENTED_EDGE ( 'NONE', *, *, #632, .F. ) ;
#215 = CARTESIAN_POINT ( 'NONE',  ( 3.251472181705016506, 1.199999999999999956, 5.000000000000000000 ) ) ;
#216 = LINE ( 'NONE', #499, #272 ) ;
#217 = ORIENTED_EDGE ( 'NONE', *, *, #876, .F. ) ;
#218 = EDGE_LOOP ( 'NONE', ( #615, #352 ) ) ;
#219 = DIRECTION ( 'NONE',  ( -0.9731387067013573811, 0.000000000000000000, 0.2302195854387920904 ) ) ;
#220 = CARTESIAN_POINT ( 'NONE',  ( 5.635410163390192295, 1.199999999999999956, 5.000000000000001776 ) ) ;
#221 = ORIENTED_EDGE ( 'NONE', *, *, #54, .F. ) ;
#222 = EDGE_CURVE ( 'NONE', #441, #30, #678, .T. ) ;
#223 = VECTOR ( 'NONE', #570, 100.0000000000000000 ) ;
#224 = AXIS2_PLACEMENT_3D ( 'NONE', #671, #337, #607 ) ;
#225 = LINE ( 'NONE', #836, #524 ) ;
#226 = CARTESIAN_POINT ( 'NONE',  ( 5.362869492546081140, 1.199999999999999956, 3.847969969873516582 ) ) ;
#227 = ORIENTED_EDGE ( 'NONE', *, *, #687, .F. ) ;
#228 = ORIENTED_EDGE ( 'NONE', *, *, #20, .F. ) ;
#229 = CARTESIAN_POINT ( 'NONE',  ( 5.509058929299713192, 1.199999999999999956, 4.465913048628878279 ) ) ;
#230 = ORIENTED_EDGE ( 'NONE', *, *, #296, .F. ) ;
#231 =( LENGTH_UNIT ( ) NAMED_UNIT ( * ) SI_UNIT ( .CENTI., .METRE. ) );
#232 = EDGE_CURVE ( 'NONE', #775, #839, #490, .T. ) ;
#233 = CARTESIAN_POINT ( 'NONE',  ( 5.362869492546081140, 1.199999999999999956, 3.847969969873516582 ) ) ;
#234 = ORIENTED_EDGE ( 'NONE', *, *, #32, .T. ) ;
#235 = ORIENTED_EDGE ( 'NONE', *, *, #146, .T. ) ;
#236 = COLOUR_RGB ( '',0.6941176470588235059, 0.09803921568627450844, 0.09803921568627450844 ) ;
#237 = AXIS2_PLACEMENT_3D ( 'NONE', #673, #387, #525 ) ;
#238 = VECTOR ( 'NONE', #448, 100.0000000000000000 ) ;
#239 = PLANE ( 'NONE',  #6 ) ;
#240 = EDGE_CURVE ( 'NONE', #323, #418, #459, .T. ) ;
#241 = ORIENTED_EDGE ( 'NONE', *, *, #753, .T. ) ;
#242 = VERTEX_POINT ( 'NONE', #416 ) ;
#243 = LINE ( 'NONE', #796, #379 ) ;
#244 = CARTESIAN_POINT ( 'NONE',  ( 12.14231257408500753, 0.5999999999999999778, 3.271730866571799456 ) ) ;
#245 = ORIENTED_EDGE ( 'NONE', *, *, #555, .F. ) ;
#246 = FACE_BOUND ( 'NONE', #699, .T. ) ;
#247 = EDGE_CURVE ( 'NONE', #320, #242, #297, .T. ) ;
#248 = DIRECTION ( 'NONE',  ( -0.9731387067013573811, 0.000000000000000000, 0.2302195854387925900 ) ) ;
#249 = DIRECTION ( 'NONE',  ( 1.000000000000000000, 0.000000000000000000, 0.000000000000000000 ) ) ;
#250 = ORIENTED_EDGE ( 'NONE', *, *, #764, .F. ) ;
#251 = FILL_AREA_STYLE ('',( #373 ) ) ;
#252 = LINE ( 'NONE', #853, #698 ) ;
#253 = ADVANCED_FACE ( 'NONE', ( #278 ), #155, .F. ) ;
#254 = VECTOR ( 'NONE', #834, 100.0000000000000000 ) ;
#255 = CYLINDRICAL_SURFACE ( 'NONE', #508, 0.3100000000000000533 ) ;
#256 = ORIENTED_EDGE ( 'NONE', *, *, #305, .F. ) ;
#257 = AXIS2_PLACEMENT_3D ( 'NONE', #627, #623, #822 ) ;
#258 = DIRECTION ( 'NONE',  ( -0.2302195854387930618, -0.000000000000000000, -0.9731387067013573811 ) ) ;
#259 = CARTESIAN_POINT ( 'NONE',  ( 14.09258070169626720, -0.02000000000000022593, 5.000000000000000000 ) ) ;
#260 = ADVANCED_FACE ( 'NONE', ( #205 ), #480, .F. ) ;
#261 = EDGE_CURVE ( 'NONE', #516, #877, #152, .T. ) ;
#262 = DIRECTION ( 'NONE',  ( -1.000000000000000000, 0.000000000000000000, 1.032573497605242347E-16 ) ) ;
#263 = CYLINDRICAL_SURFACE ( 'NONE', #36, 0.3100000000000000533 ) ;
#264 = CARTESIAN_POINT ( 'NONE',  ( 5.509058929299713192, 1.199999999999999956, 4.465913048628878279 ) ) ;
#265 = DIRECTION ( 'NONE',  ( -1.000000000000000000, -0.000000000000000000, -2.065146995210483770E-17 ) ) ;
#266 = ADVANCED_FACE ( 'NONE', ( #144 ), #10, .T. ) ;
#267 = FACE_OUTER_BOUND ( 'NONE', #168, .T. ) ;
#268 = DIRECTION ( 'NONE',  ( 1.000000000000000000, 0.000000000000000000, -1.032573497605242347E-16 ) ) ;
#269 = CARTESIAN_POINT ( 'NONE',  ( 13.45546700379228966, 1.220000000000000195, 5.000000000000000000 ) ) ;
#270 = DIRECTION ( 'NONE',  ( -1.000000000000000000, 0.000000000000000000, 1.032573497605242347E-16 ) ) ;
#271 = ORIENTED_EDGE ( 'NONE', *, *, #345, .T. ) ;
#272 = VECTOR ( 'NONE', #494, 100.0000000000000142 ) ;
#273 = CIRCLE ( 'NONE', #784, 0.3100000000000000533 ) ;
#274 =( LENGTH_UNIT ( ) NAMED_UNIT ( * ) SI_UNIT ( .CENTI., .METRE. ) );
#275 = DIRECTION ( 'NONE',  ( -0.9731387067013573811, 0.000000000000000000, 0.2302195854387930340 ) ) ;
#276 = CARTESIAN_POINT ( 'NONE',  ( 5.509058929299714080, 0.000000000000000000, 4.465913048628878279 ) ) ;
#277 =( NAMED_UNIT ( * ) PLANE_ANGLE_UNIT ( ) SI_UNIT ( $, .RADIAN. ) );
#278 = FACE_OUTER_BOUND ( 'NONE', #546, .T. ) ;
#279 = EDGE_CURVE ( 'NONE', #73, #388, #140, .T. ) ;
#280 = DIRECTION ( 'NONE',  ( 0.2302195854387930618, 0.000000000000000000, 0.9731387067013572700 ) ) ;
#281 = CARTESIAN_POINT ( 'NONE',  ( -0.2500000000000002220, 1.199999999999999956, 2.649999999999999023 ) ) ;
#282 = ORIENTED_EDGE ( 'NONE', *, *, #791, .F. ) ;
#283 = ORIENTED_EDGE ( 'NONE', *, *, #76, .T. ) ;
#284 = MECHANICAL_DESIGN_GEOMETRIC_PRESENTATION_REPRESENTATION (  '', ( #124 ), #167 ) ;
#285 = CARTESIAN_POINT ( 'NONE',  ( 16.80000000000000782, 0.8049999999999999378, 4.999999999999989342 ) ) ;
#286 = DIRECTION ( 'NONE',  ( 0.000000000000000000, -1.000000000000000000, 0.000000000000000000 ) ) ;
#287 = ORIENTED_EDGE ( 'NONE', *, *, #575, .F. ) ;
#288 = VERTEX_POINT ( 'NONE', #71 ) ;
#289 = CARTESIAN_POINT ( 'NONE',  ( 11.84063957500758590, 0.5999999999999999778, 3.343098938057825542 ) ) ;
#290 = FACE_BOUND ( 'NONE', #496, .T. ) ;
#291 = ADVANCED_FACE ( 'NONE', ( #290, #294 ), #411, .F. ) ;
#292 = ORIENTED_EDGE ( 'NONE', *, *, #314, .T. ) ;
#293 = FACE_OUTER_BOUND ( 'NONE', #511, .T. ) ;
#294 = FACE_OUTER_BOUND ( 'NONE', #574, .T. ) ;
#295 = VERTEX_POINT ( 'NONE', #213 ) ;
#296 = EDGE_CURVE ( 'NONE', #99, #457, #631, .T. ) ;
#297 = CIRCLE ( 'NONE', #523, 0.3100000000000001088 ) ;
#298 = AXIS2_PLACEMENT_3D ( 'NONE', #333, #873, #268 ) ;
#299 = LINE ( 'NONE', #432, #92 ) ;
#300 = ORIENTED_EDGE ( 'NONE', *, *, #32, .F. ) ;
#301 = ORIENTED_EDGE ( 'NONE', *, *, #575, .T. ) ;
#302 = DIRECTION ( 'NONE',  ( 0.9731387067013572700, 0.000000000000000000, -0.2302195854387930896 ) ) ;
#303 = ORIENTED_EDGE ( 'NONE', *, *, #736, .F. ) ;
#304 = ORIENTED_EDGE ( 'NONE', *, *, #501, .F. ) ;
#305 = EDGE_CURVE ( 'NONE', #586, #174, #348, .T. ) ;
#306 = DIRECTION ( 'NONE',  ( -0.7071067811865460184, 0.000000000000000000, 0.7071067811865491270 ) ) ;
#307 = ORIENTED_EDGE ( 'NONE', *, *, #146, .F. ) ;
#308 = CARTESIAN_POINT ( 'NONE',  ( 0.000000000000000000, 0.8049999999999999378, 5.000000000000000000 ) ) ;
#309 = LINE ( 'NONE', #115, #797 ) ;
#310 = PRESENTATION_LAYER_ASSIGNMENT (  '', '', ( #5 ) ) ;
#311 = PRESENTATION_LAYER_ASSIGNMENT (  '', '', ( #364 ) ) ;
#312 = CARTESIAN_POINT ( 'NONE',  ( 17.05000000000000782, 0.8049999999999999378, 4.999999999999988454 ) ) ;
#313 = ORIENTED_EDGE ( 'NONE', *, *, #449, .T. ) ;
#314 = EDGE_CURVE ( 'NONE', #350, #318, #690, .T. ) ;
#315 = LINE ( 'NONE', #517, #536 ) ;
#316 = CARTESIAN_POINT ( 'NONE',  ( 5.509058929299713192, 0.000000000000000000, 4.465913048628878279 ) ) ;
#317 = PLANE ( 'NONE',  #51 ) ;
#318 = VERTEX_POINT ( 'NONE', #18 ) ;
#319 = EDGE_CURVE ( 'NONE', #320, #749, #216, .T. ) ;
#320 = VERTEX_POINT ( 'NONE', #773 ) ;
#321 = CARTESIAN_POINT ( 'NONE',  ( 16.80000000000000071, 1.199999999999999956, -3.469446951953614189E-16 ) ) ;
#322 = CARTESIAN_POINT ( 'NONE',  ( 13.60202063413704288, 0.5999999999999999778, 2.926401488413609808 ) ) ;
#323 = VERTEX_POINT ( 'NONE', #767 ) ;
#324 = CARTESIAN_POINT ( 'NONE',  ( 16.80000000000000071, 1.199999999999999956, 5.000000000000000000 ) ) ;
#325 = FACE_OUTER_BOUND ( 'NONE', #4, .T. ) ;
#326 = AXIS2_PLACEMENT_3D ( 'NONE', #696, #148, #421 ) ;
#327 = FACE_OUTER_BOUND ( 'NONE', #777, .T. ) ;
#328 =( GEOMETRIC_REPRESENTATION_CONTEXT ( 3 ) GLOBAL_UNCERTAINTY_ASSIGNED_CONTEXT ( ( #785 ) ) GLOBAL_UNIT_ASSIGNED_CONTEXT ( ( #274, #816, #209 ) ) REPRESENTATION_CONTEXT ( 'NONE', 'WORKASPACE' ) );
#329 = LINE ( 'NONE', #324, #695 ) ;
#330 = ORIENTED_EDGE ( 'NONE', *, *, #232, .F. ) ;
#331 = PRESENTATION_STYLE_ASSIGNMENT (( #121 ) ) ;
#332 = DIRECTION ( 'NONE',  ( 0.000000000000000000, -1.000000000000000000, 0.000000000000000000 ) ) ;
#333 = CARTESIAN_POINT ( 'NONE',  ( 0.08400000000000001910, 0.006000000000000000125, 0.02499999999999999792 ) ) ;
#334 = DIRECTION ( 'NONE',  ( 0.2302195854387930340, 0.000000000000000000, 0.9731387067013573811 ) ) ;
#335 = CARTESIAN_POINT ( 'NONE',  ( 8.400000000000002132, 0.8049999999999999378, 2.500000000000000000 ) ) ;
#336 = ORIENTED_EDGE ( 'NONE', *, *, #672, .F. ) ;
#337 = DIRECTION ( 'NONE',  ( 0.2302195854387930340, 0.000000000000000000, 0.9731387067013573811 ) ) ;
#338 = DIRECTION ( 'NONE',  ( 4.305037197708010146E-16, 0.000000000000000000, -1.000000000000000000 ) ) ;
#339 = CARTESIAN_POINT ( 'NONE',  ( 0.000000000000000000, 0.3950000000000000178, 5.000000000000000000 ) ) ;
#340 = ORIENTED_EDGE ( 'NONE', *, *, #643, .T. ) ;
#341 = AXIS2_PLACEMENT_3D ( 'NONE', #39, #306, #102 ) ;
#342 = MANIFOLD_SOLID_BREP ( 'Cut-Extrude6', #779 ) ;
#343 = DIRECTION ( 'NONE',  ( -0.2302195854387930340, -0.000000000000000000, -0.9731387067013572700 ) ) ;
#344 = SURFACE_SIDE_STYLE ('',( #68 ) ) ;
#345 = EDGE_CURVE ( 'NONE', #174, #288, #299, .T. ) ;
#346 = CARTESIAN_POINT ( 'NONE',  ( 17.05000000000000782, 0.8049999999999999378, 4.999999999999988454 ) ) ;
#347 = DIRECTION ( 'NONE',  ( 0.000000000000000000, -1.000000000000000000, 0.000000000000000000 ) ) ;
#348 = LINE ( 'NONE', #829, #766 ) ;
#349 = ORIENTED_EDGE ( 'NONE', *, *, #296, .T. ) ;
#350 = VERTEX_POINT ( 'NONE', #425 ) ;
#351 = CARTESIAN_POINT ( 'NONE',  ( 5.362869492546081140, 0.000000000000000000, 3.847969969873516582 ) ) ;
#352 = ORIENTED_EDGE ( 'NONE', *, *, #7, .T. ) ;
#353 = VECTOR ( 'NONE', #265, 100.0000000000000000 ) ;
#354 = EDGE_CURVE ( 'NONE', #30, #563, #445, .T. ) ;
#355 = DIRECTION ( 'NONE',  ( 0.2302195854387926455, 0.000000000000000000, 0.9731387067013572700 ) ) ;
#356 = DIRECTION ( 'NONE',  ( 0.000000000000000000, -1.000000000000000000, 0.000000000000000000 ) ) ;
#357 = VERTEX_POINT ( 'NONE', #585 ) ;
#358 = VERTEX_POINT ( 'NONE', #636 ) ;
#359 = DIRECTION ( 'NONE',  ( -1.000000000000000000, -0.000000000000000000, -2.065146995210482230E-17 ) ) ;
#360 = CARTESIAN_POINT ( 'NONE',  ( 17.05000000000000426, 1.199999999999999956, 2.649999999999997247 ) ) ;
#361 = VERTEX_POINT ( 'NONE', #244 ) ;
#362 = ORIENTED_EDGE ( 'NONE', *, *, #856, .T. ) ;
#363 = PLANE ( 'NONE',  #596 ) ;
#364 = STYLED_ITEM ( 'NONE', ( #644 ), #342 ) ;
#365 = VECTOR ( 'NONE', #635, 100.0000000000000142 ) ;
#366 =( BOUNDED_CURVE ( )  B_SPLINE_CURVE ( 3, ( #164, #520, #503, #717 ),
 .UNSPECIFIED., .F., .T. ) 
 B_SPLINE_CURVE_WITH_KNOTS ( ( 4, 4 ),
 ( 0.000000000000000000, 3.141592653589793116 ),
 .UNSPECIFIED. ) 
 CURVE ( )  GEOMETRIC_REPRESENTATION_ITEM ( )  RATIONAL_B_SPLINE_CURVE ( ( 1.000000000000000000, 0.3333333333333333703, 0.3333333333333333703, 1.000000000000000000 ) ) 
 REPRESENTATION_ITEM ( '' )  );
#367 = LINE ( 'NONE', #722, #795 ) ;
#368 = ORIENTED_EDGE ( 'NONE', *, *, #222, .F. ) ;
#369 =( NAMED_UNIT ( * ) PLANE_ANGLE_UNIT ( ) SI_UNIT ( $, .RADIAN. ) );
#370 = ADVANCED_FACE ( 'NONE', ( #173 ), #239, .T. ) ;
#371 = DIRECTION ( 'NONE',  ( 0.000000000000000000, -1.000000000000000000, 0.000000000000000000 ) ) ;
#372 = ORIENTED_EDGE ( 'NONE', *, *, #512, .F. ) ;
#373 = FILL_AREA_STYLE_COLOUR ( '', #236 ) ;
#374 = ORIENTED_EDGE ( 'NONE', *, *, #222, .T. ) ;
#375 = PLANE ( 'NONE',  #33 ) ;
#376 = CARTESIAN_POINT ( 'NONE',  ( 16.80000000000000071, 1.199999999999999956, -3.469446951953614189E-16 ) ) ;
#377 = COLOUR_RGB ( '',1.000000000000000000, 1.000000000000000000, 1.000000000000000000 ) ;
#378 = EDGE_CURVE ( 'NONE', #629, #583, #792, .T. ) ;
#379 = VECTOR ( 'NONE', #455, 100.0000000000000142 ) ;
#380 = DIRECTION ( 'NONE',  ( 1.704540558354500032E-15, 0.000000000000000000, 1.000000000000000000 ) ) ;
#381 = EDGE_LOOP ( 'NONE', ( #686, #440, #282, #819, #720, #663, #619, #728 ) ) ;
#382 = DIRECTION ( 'NONE',  ( -0.2302195854387925900, -0.000000000000000000, -0.9731387067013573811 ) ) ;
#383 = CYLINDRICAL_SURFACE ( 'NONE', #713, 0.3100000000000000533 ) ;
#384 = ORIENTED_EDGE ( 'NONE', *, *, #354, .F. ) ;
#385 = DIRECTION ( 'NONE',  ( -0.9731387067013572700, 0.000000000000000000, 0.2302195854387931728 ) ) ;
#386 = LINE ( 'NONE', #805, #812 ) ;
#387 = DIRECTION ( 'NONE',  ( 0.2302195854387930063, 0.000000000000000000, 0.9731387067013572700 ) ) ;
#388 = VERTEX_POINT ( 'NONE', #842 ) ;
#389 = CARTESIAN_POINT ( 'NONE',  ( 17.05000000000000426, 0.8049999999999999378, 2.649999999999997247 ) ) ;
#390 = EDGE_CURVE ( 'NONE', #288, #832, #367, .T. ) ;
#391 = PLANE ( 'NONE',  #754 ) ;
#392 = AXIS2_PLACEMENT_3D ( 'NONE', #849, #846, #780 ) ;
#393 = DIRECTION ( 'NONE',  ( 0.000000000000000000, -1.000000000000000000, 0.000000000000000000 ) ) ;
#394 = VECTOR ( 'NONE', #343, 100.0000000000000142 ) ;
#395 = DIRECTION ( 'NONE',  ( 0.000000000000000000, -1.000000000000000000, 0.000000000000000000 ) ) ;
#396 = PRODUCT_DEFINITION_FORMATION_WITH_SPECIFIED_SOURCE ( 'ANY', '', #827, .NOT_KNOWN. ) ;
#397 = DIRECTION ( 'NONE',  ( 0.2302195854387931173, 0.000000000000000000, 0.9731387067013573811 ) ) ;
#398 = ADVANCED_FACE ( 'NONE', ( #429 ), #641, .F. ) ;
#399 = LINE ( 'NONE', #674, #166 ) ;
#400 = DIRECTION ( 'NONE',  ( -1.000000000000000000, 0.000000000000000000, 1.032573497605242347E-16 ) ) ;
#401 = EDGE_CURVE ( 'NONE', #388, #862, #706, .T. ) ;
#402 = ADVANCED_FACE ( 'NONE', ( #107 ), #34, .T. ) ;
#403 = CARTESIAN_POINT ( 'NONE',  ( 13.45546700379228788, 0.5999999999999999778, 5.000000000000000000 ) ) ;
#404 = DIRECTION ( 'NONE',  ( -1.170779488823174499E-15, -0.000000000000000000, -1.000000000000000000 ) ) ;
#405 = DIRECTION ( 'NONE',  ( 0.9731387067013572700, 0.000000000000000000, -0.2302195854387930896 ) ) ;
#406 = LINE ( 'NONE', #79, #668 ) ;
#407 = ADVANCED_FACE ( 'NONE', ( #653 ), #317, .F. ) ;
#408 = DIRECTION ( 'NONE',  ( -1.000000000000000000, 0.000000000000000000, 1.032573497605242347E-16 ) ) ;
#409 = AXIS2_PLACEMENT_3D ( 'NONE', #542, #451, #537 ) ;
#410 = CARTESIAN_POINT ( 'NONE',  ( 9.274887093485537193, 1.199999999999999956, 2.922487236409569977 ) ) ;
#411 = PLANE ( 'NONE',  #595 ) ;
#412 = ORIENTED_EDGE ( 'NONE', *, *, #475, .T. ) ;
#413 = ORIENTED_EDGE ( 'NONE', *, *, #462, .T. ) ;
#414 = APPLICATION_PROTOCOL_DEFINITION ( 'draft international standard', 'automotive_design', 1998, #553 ) ;
#415 = CARTESIAN_POINT ( 'NONE',  ( 8.400000000000002132, 0.3950000000000000178, 2.500000000000000000 ) ) ;
#416 = CARTESIAN_POINT ( 'NONE',  ( 7.482419540829951643, 0.5999999999999999778, 2.729977307634703809 ) ) ;
#417 = ORIENTED_EDGE ( 'NONE', *, *, #401, .T. ) ;
#418 = VERTEX_POINT ( 'NONE', #572 ) ;
#419 = EDGE_CURVE ( 'NONE', #665, #749, #837, .T. ) ;
#420 = DIRECTION ( 'NONE',  ( 0.2302195854387930618, 0.000000000000000000, 0.9731387067013572700 ) ) ;
#421 = DIRECTION ( 'NONE',  ( -0.9731387067013572700, 0.000000000000000000, 0.2302195854387931728 ) ) ;
#422 = ORIENTED_EDGE ( 'NONE', *, *, #803, .F. ) ;
#423 = VECTOR ( 'NONE', #125, 100.0000000000000142 ) ;
#424 = LINE ( 'NONE', #204, #394 ) ;
#425 = CARTESIAN_POINT ( 'NONE',  ( 0.000000000000000000, 1.199999999999999956, 0.000000000000000000 ) ) ;
#426 = ORIENTED_EDGE ( 'NONE', *, *, #471, .F. ) ;
#427 = LINE ( 'NONE', #725, #640 ) ;
#428 = EDGE_CURVE ( 'NONE', #633, #174, #29, .T. ) ;
#429 = FACE_OUTER_BOUND ( 'NONE', #35, .T. ) ;
#430 = ORIENTED_EDGE ( 'NONE', *, *, #821, .T. ) ;
#431 = ORIENTED_EDGE ( 'NONE', *, *, #232, .T. ) ;
#432 = CARTESIAN_POINT ( 'NONE',  ( 0.000000000000000000, 0.000000000000000000, 0.000000000000000000 ) ) ;
#433 = ADVANCED_FACE ( 'NONE', ( #98 ), #255, .F. ) ;
#434 = ORIENTED_EDGE ( 'NONE', *, *, #428, .F. ) ;
#435 = FACE_OUTER_BOUND ( 'NONE', #149, .T. ) ;
#436 = AXIS2_PLACEMENT_3D ( 'NONE', #312, #582, #380 ) ;
#437 = AXIS2_PLACEMENT_3D ( 'NONE', #616, #17, #693 ) ;
#438 = CARTESIAN_POINT ( 'NONE',  ( 16.80000000000000071, 0.000000000000000000, 5.000000000000000000 ) ) ;
#439 = ORIENTED_EDGE ( 'NONE', *, *, #672, .T. ) ;
#440 = ORIENTED_EDGE ( 'NONE', *, *, #130, .F. ) ;
#441 = VERTEX_POINT ( 'NONE', #871 ) ;
#442 = ORIENTED_EDGE ( 'NONE', *, *, #212, .T. ) ;
#443 = CARTESIAN_POINT ( 'NONE',  ( 16.80000000000000071, 1.199999999999999956, 5.000000000000000000 ) ) ;
#444 = EDGE_CURVE ( 'NONE', #457, #839, #126, .T. ) ;
#445 = LINE ( 'NONE', #233, #179 ) ;
#446 = ORIENTED_EDGE ( 'NONE', *, *, #182, .F. ) ;
#447 = DIRECTION ( 'NONE',  ( -2.065146995210482230E-17, 0.000000000000000000, 1.000000000000000000 ) ) ;
#448 = DIRECTION ( 'NONE',  ( 1.704540558354500032E-15, 0.000000000000000000, 1.000000000000000000 ) ) ;
#449 = EDGE_CURVE ( 'NONE', #877, #516, #622, .T. ) ;
#450 = VECTOR ( 'NONE', #765, 100.0000000000000000 ) ;
#451 = DIRECTION ( 'NONE',  ( 0.000000000000000000, 0.000000000000000000, -1.000000000000000000 ) ) ;
#452 = ORIENTED_EDGE ( 'NONE', *, *, #76, .F. ) ;
#453 = ORIENTED_EDGE ( 'NONE', *, *, #247, .F. ) ;
#454 =( BOUNDED_CURVE ( )  B_SPLINE_CURVE ( 3, ( #866, #259, #801, #129 ),
 .UNSPECIFIED., .F., .F. ) 
 B_SPLINE_CURVE_WITH_KNOTS ( ( 4, 4 ),
 ( 3.141592653589793116, 6.283185307179586232 ),
 .UNSPECIFIED. ) 
 CURVE ( )  GEOMETRIC_REPRESENTATION_ITEM ( )  RATIONAL_B_SPLINE_CURVE ( ( 1.000000000000000000, 0.3333333333333333703, 0.3333333333333333703, 1.000000000000000000 ) ) 
 REPRESENTATION_ITEM ( '' )  );
#455 = DIRECTION ( 'NONE',  ( -0.2302195854387930340, -0.000000000000000000, -0.9731387067013572700 ) ) ;
#456 = DIRECTION ( 'NONE',  ( 0.9731387067013572700, 0.000000000000000000, -0.2302195854387927287 ) ) ;
#457 = VERTEX_POINT ( 'NONE', #197 ) ;
#458 = CARTESIAN_POINT ( 'NONE',  ( -0.2500000000000002220, 0.8049999999999999378, 2.649999999999999023 ) ) ;
#459 =( BOUNDED_CURVE ( )  B_SPLINE_CURVE ( 3, ( #485, #565, #15, #617 ),
 .UNSPECIFIED., .F., .F. ) 
 B_SPLINE_CURVE_WITH_KNOTS ( ( 4, 4 ),
 ( 3.141592653589793116, 6.283185307179586232 ),
 .UNSPECIFIED. ) 
 CURVE ( )  GEOMETRIC_REPRESENTATION_ITEM ( )  RATIONAL_B_SPLINE_CURVE ( ( 1.000000000000000000, 0.3333333333333333703, 0.3333333333333333703, 1.000000000000000000 ) ) 
 REPRESENTATION_ITEM ( '' )  );
#460 = CARTESIAN_POINT ( 'NONE',  ( 5.635410163390192295, 1.199999999999999956, 5.000000000000001776 ) ) ;
#461 = SURFACE_STYLE_FILL_AREA ( #187 ) ;
#462 = EDGE_CURVE ( 'NONE', #642, #25, #861, .T. ) ;
#463 = DIRECTION ( 'NONE',  ( 0.000000000000000000, -1.000000000000000000, 0.000000000000000000 ) ) ;
#464 = CARTESIAN_POINT ( 'NONE',  ( 7.180746541752530909, 0.5999999999999999778, 2.801345379120729895 ) ) ;
#465 = CIRCLE ( 'NONE', #694, 0.3100000000000001088 ) ;
#466 = VECTOR ( 'NONE', #404, 100.0000000000000000 ) ;
#467 = DIRECTION ( 'NONE',  ( 0.9731387067013573811, 0.000000000000000000, -0.2302195854387920904 ) ) ;
#468 = VECTOR ( 'NONE', #9, 100.0000000000000142 ) ;
#469 = CARTESIAN_POINT ( 'NONE',  ( -0.2500000000000002220, 0.8049999999999999378, 5.000000000000000000 ) ) ;
#470 = DIRECTION ( 'NONE',  ( 0.2302195854387926455, 0.000000000000000000, 0.9731387067013572700 ) ) ;
#471 = EDGE_CURVE ( 'NONE', #624, #557, #604, .T. ) ;
#472 = DIRECTION ( 'NONE',  ( 0.7071067811865489050, 0.000000000000000000, -0.7071067811865461294 ) ) ;
#473 = CARTESIAN_POINT ( 'NONE',  ( 16.80000000000000071, 0.000000000000000000, -3.469446951953614189E-16 ) ) ;
#474 = DIRECTION ( 'NONE',  ( -0.9731387067013572700, 0.000000000000000000, 0.2302195854387931728 ) ) ;
#475 = EDGE_CURVE ( 'NONE', #295, #793, #207, .T. ) ;
#476 = PLANE ( 'NONE',  #52 ) ;
#477 = LINE ( 'NONE', #875, #77 ) ;
#478 = LINE ( 'NONE', #684, #652 ) ;
#479 = VECTOR ( 'NONE', #80, 100.0000000000000000 ) ;
#480 = CYLINDRICAL_SURFACE ( 'NONE', #751, 0.3100000000000001088 ) ;
#481 = ORIENTED_EDGE ( 'NONE', *, *, #632, .T. ) ;
#482 = PRESENTATION_LAYER_ASSIGNMENT (  '', '', ( #124 ) ) ;
#483 = VERTEX_POINT ( 'NONE', #798 ) ;
#484 =( NAMED_UNIT ( * ) SI_UNIT ( $, .STERADIAN. ) SOLID_ANGLE_UNIT ( ) );
#485 = CARTESIAN_POINT ( 'NONE',  ( 12.55117659386405471, 0.5999999999999999778, 5.000000000000000000 ) ) ;
#486 = ADVANCED_FACE ( 'NONE', ( #183 ), #58, .T. ) ;
#487 = EDGE_LOOP ( 'NONE', ( #599, #23, #40, #442 ) ) ;
#488 = ORIENTED_EDGE ( 'NONE', *, *, #647, .F. ) ;
#489 = LINE ( 'NONE', #689, #551 ) ;
#490 = LINE ( 'NONE', #884, #109 ) ;
#491 = ORIENTED_EDGE ( 'NONE', *, *, #63, .F. ) ;
#492 = ORIENTED_EDGE ( 'NONE', *, *, #876, .T. ) ;
#493 = CARTESIAN_POINT ( 'NONE',  ( 16.80000000000000071, 1.199999999999999956, 5.000000000000000000 ) ) ;
#494 = DIRECTION ( 'NONE',  ( 0.2302195854387930896, 0.000000000000000000, 0.9731387067013572700 ) ) ;
#495 = ORIENTED_EDGE ( 'NONE', *, *, #419, .F. ) ;
#496 = EDGE_LOOP ( 'NONE', ( #850, #495 ) ) ;
#497 = ADVANCED_FACE ( 'NONE', ( #874 ), #47, .T. ) ;
#498 = LINE ( 'NONE', #316, #365 ) ;
#499 = CARTESIAN_POINT ( 'NONE',  ( 6.879073542675110176, 0.5999999999999999778, 2.872713450606755536 ) ) ;
#500 = EDGE_LOOP ( 'NONE', ( #340, #163 ) ) ;
#501 = EDGE_CURVE ( 'NONE', #60, #99, #813, .T. ) ;
#502 = ORIENTED_EDGE ( 'NONE', *, *, #687, .T. ) ;
#503 = CARTESIAN_POINT ( 'NONE',  ( 12.55117659386405471, 1.220000000000000195, 5.000000000000000000 ) ) ;
#504 = UNCERTAINTY_MEASURE_WITH_UNIT (LENGTH_MEASURE( 1.000000000000000082E-05 ), #548, 'distance_accuracy_value', 'NONE');
#505 = EDGE_CURVE ( 'NONE', #563, #358, #744, .T. ) ;
#506 = EDGE_LOOP ( 'NONE', ( #645, #336, #184, #768, #85, #577, #716, #160 ) ) ;
#507 = LINE ( 'NONE', #646, #809 ) ;
#508 = AXIS2_PLACEMENT_3D ( 'NONE', #677, #55, #467 ) ;
#509 = VECTOR ( 'NONE', #382, 100.0000000000000000 ) ;
#510 = CARTESIAN_POINT ( 'NONE',  ( 12.64999999999998437, 0.3950000000000000178, -1.750000000000001998 ) ) ;
#511 = EDGE_LOOP ( 'NONE', ( #659, #788 ) ) ;
#512 = EDGE_CURVE ( 'NONE', #323, #361, #881, .T. ) ;
#513 =( NAMED_UNIT ( * ) SI_UNIT ( $, .STERADIAN. ) SOLID_ANGLE_UNIT ( ) );
#514 = DIRECTION ( 'NONE',  ( -1.032573497605242347E-16, 0.000000000000000000, -1.000000000000000000 ) ) ;
#515 = DIRECTION ( 'NONE',  ( 1.000000000000000000, 0.000000000000000000, -1.032573497605242347E-16 ) ) ;
#516 = VERTEX_POINT ( 'NONE', #322 ) ;
#517 = CARTESIAN_POINT ( 'NONE',  ( 0.000000000000000000, 1.199999999999999956, 0.000000000000000000 ) ) ;
#518 = LINE ( 'NONE', #580, #581 ) ;
#519 = ORIENTED_EDGE ( 'NONE', *, *, #620, .F. ) ;
#520 = CARTESIAN_POINT ( 'NONE',  ( 11.91406289596007539, 1.220000000000000195, 5.000000000000000000 ) ) ;
#521 = DIRECTION ( 'NONE',  ( 1.000000000000000000, 0.000000000000000000, -1.032573497605242347E-16 ) ) ;
#522 = MECHANICAL_DESIGN_GEOMETRIC_PRESENTATION_REPRESENTATION (  '', ( #5 ), #165 ) ;
#523 = AXIS2_PLACEMENT_3D ( 'NONE', #74, #3, #614 ) ;
#524 = VECTOR ( 'NONE', #53, 100.0000000000000000 ) ;
#525 = DIRECTION ( 'NONE',  ( -0.9731387067013572700, 0.000000000000000000, 0.2302195854387931728 ) ) ;
#526 = VERTEX_POINT ( 'NONE', #177 ) ;
#527 = DIRECTION ( 'NONE',  ( -1.000000000000000000, 0.000000000000000000, 2.878814911323413404E-15 ) ) ;
#528 = CARTESIAN_POINT ( 'NONE',  ( 14.09258070169626897, 0.5999999999999999778, 5.000000000000000000 ) ) ;
#529 = ADVANCED_FACE ( 'NONE', ( #727 ), #383, .F. ) ;
#530 = FACE_OUTER_BOUND ( 'NONE', #558, .T. ) ;
#531 = CARTESIAN_POINT ( 'NONE',  ( -0.2500000000000002220, 0.8049999999999999378, 5.000000000000000000 ) ) ;
#532 = CARTESIAN_POINT ( 'NONE',  ( 5.362869492546081140, 1.199999999999999956, 3.847969969873516582 ) ) ;
#533 = DIRECTION ( 'NONE',  ( -1.170779488823174499E-15, -0.000000000000000000, -1.000000000000000000 ) ) ;
#534 = LINE ( 'NONE', #592, #724 ) ;
#535 = PRODUCT_CONTEXT ( 'NONE', #553, 'mechanical' ) ;
#536 = VECTOR ( 'NONE', #41, 100.0000000000000000 ) ;
#537 = DIRECTION ( 'NONE',  ( 1.000000000000000000, 0.000000000000000000, 0.000000000000000000 ) ) ;
#538 = VECTOR ( 'NONE', #729, 100.0000000000000142 ) ;
#539 = LINE ( 'NONE', #814, #466 ) ;
#540 = ADVANCED_FACE ( 'NONE', ( #327 ), #597, .T. ) ;
#541 = CARTESIAN_POINT ( 'NONE',  ( 16.80000000000000071, 0.000000000000000000, -3.469446951953614189E-16 ) ) ;
#542 = CARTESIAN_POINT ( 'NONE',  ( 16.80000000000000071, 1.199999999999999956, -3.469446951953614189E-16 ) ) ;
#543 = LINE ( 'NONE', #531, #568 ) ;
#544 = ORIENTED_EDGE ( 'NONE', *, *, #475, .F. ) ;
#545 = ADVANCED_FACE ( 'NONE', ( #530 ), #669, .T. ) ;
#546 = EDGE_LOOP ( 'NONE', ( #799, #90, #742, #372 ) ) ;
#547 = PLANE ( 'NONE',  #224 ) ;
#548 =( LENGTH_UNIT ( ) NAMED_UNIT ( * ) SI_UNIT ( .CENTI., .METRE. ) );
#549 = DIRECTION ( 'NONE',  ( 4.305037197708010146E-16, 0.000000000000000000, -1.000000000000000000 ) ) ;
#550 = EDGE_LOOP ( 'NONE', ( #488, #637, #859, #634 ) ) ;
#551 = VECTOR ( 'NONE', #355, 100.0000000000000142 ) ;
#552 = ORIENTED_EDGE ( 'NONE', *, *, #390, .T. ) ;
#553 = APPLICATION_CONTEXT ( 'automotive_design' ) ;
#554 = CARTESIAN_POINT ( 'NONE',  ( 3.251472181705016506, 0.000000000000000000, 5.000000000000000000 ) ) ;
#555 = EDGE_CURVE ( 'NONE', #441, #75, #143, .T. ) ;
#556 = DIRECTION ( 'NONE',  ( 0.2302195854387931173, 0.000000000000000000, 0.9731387067013573811 ) ) ;
#557 = VERTEX_POINT ( 'NONE', #211 ) ;
#558 = EDGE_LOOP ( 'NONE', ( #763, #413, #137, #235, #94, #770, #723, #434 ) ) ;
#559 = DIRECTION ( 'NONE',  ( 0.2302195854387930063, 0.000000000000000000, 0.9731387067013572700 ) ) ;
#560 = DIRECTION ( 'NONE',  ( 0.9731387067013572700, 0.000000000000000000, -0.2302195854387927287 ) ) ;
#561 = ORIENTED_EDGE ( 'NONE', *, *, #319, .T. ) ;
#562 = EDGE_CURVE ( 'NONE', #749, #665, #739, .T. ) ;
#563 = VERTEX_POINT ( 'NONE', #351 ) ;
#564 = CARTESIAN_POINT ( 'NONE',  ( 8.400000000000002132, 0.000000000000000000, 2.500000000000000000 ) ) ;
#565 = CARTESIAN_POINT ( 'NONE',  ( 12.55117659386405471, -0.02000000000000031267, 5.000000000000000000 ) ) ;
#566 = ORIENTED_EDGE ( 'NONE', *, *, #261, .F. ) ;
#567 = ORIENTED_EDGE ( 'NONE', *, *, #830, .T. ) ;
#568 = VECTOR ( 'NONE', #463, 100.0000000000000000 ) ;
#569 = ADVANCED_FACE ( 'NONE', ( #630 ), #135, .F. ) ;
#570 = DIRECTION ( 'NONE',  ( -0.7071067811865491270, -0.000000000000000000, -0.7071067811865460184 ) ) ;
#571 = ORIENTED_EDGE ( 'NONE', *, *, #562, .T. ) ;
#572 = CARTESIAN_POINT ( 'NONE',  ( 11.91406289596007362, 0.5999999999999999778, 5.000000000000000000 ) ) ;
#573 = ORIENTED_EDGE ( 'NONE', *, *, #449, .F. ) ;
#574 = EDGE_LOOP ( 'NONE', ( #628, #170, #782, #703 ) ) ;
#575 = EDGE_CURVE ( 'NONE', #358, #583, #489, .T. ) ;
#576 =( NAMED_UNIT ( * ) SI_UNIT ( $, .STERADIAN. ) SOLID_ANGLE_UNIT ( ) );
#577 = ORIENTED_EDGE ( 'NONE', *, *, #63, .T. ) ;
#578 = DIRECTION ( 'NONE',  ( 0.2302195854387930618, 0.000000000000000000, 0.9731387067013572700 ) ) ;
#579 = VECTOR ( 'NONE', #606, 100.0000000000000000 ) ;
#580 = CARTESIAN_POINT ( 'NONE',  ( -0.2500000000000002220, 0.3950000000000000178, 5.000000000000000000 ) ) ;
#581 = VECTOR ( 'NONE', #790, 100.0000000000000000 ) ;
#582 = DIRECTION ( 'NONE',  ( 1.000000000000000000, 0.000000000000000000, -1.704540558354500032E-15 ) ) ;
#583 = VERTEX_POINT ( 'NONE', #621 ) ;
#584 = DIRECTION ( 'NONE',  ( 0.000000000000000000, -1.000000000000000000, 0.000000000000000000 ) ) ;
#585 = CARTESIAN_POINT ( 'NONE',  ( 16.80000000000000782, 0.3950000000000000178, 4.999999999999989342 ) ) ;
#586 = VERTEX_POINT ( 'NONE', #833 ) ;
#587 = FACE_OUTER_BOUND ( 'NONE', #506, .T. ) ;
#588 = EDGE_CURVE ( 'NONE', #526, #361, #180, .T. ) ;
#589 = DIRECTION ( 'NONE',  ( 0.000000000000000000, -1.000000000000000000, 0.000000000000000000 ) ) ;
#590 = CARTESIAN_POINT ( 'NONE',  ( 13.94765405295784966, 0.5999999999999999778, 5.733935247768280341 ) ) ;
#591 = ORIENTED_EDGE ( 'NONE', *, *, #97, .T. ) ;
#592 = CARTESIAN_POINT ( 'NONE',  ( 12.64999999999998437, 0.8049999999999999378, -1.750000000000001998 ) ) ;
#593 = FACE_OUTER_BOUND ( 'NONE', #774, .T. ) ;
#594 = EDGE_CURVE ( 'NONE', #242, #665, #406, .T. ) ;
#595 = AXIS2_PLACEMENT_3D ( 'NONE', #226, #685, #560 ) ;
#596 = AXIS2_PLACEMENT_3D ( 'NONE', #460, #248, #21 ) ;
#597 = PLANE ( 'NONE',  #824 ) ;
#598 = LINE ( 'NONE', #735, #650 ) ;
#599 = ORIENTED_EDGE ( 'NONE', *, *, #401, .F. ) ;
#600 = CARTESIAN_POINT ( 'NONE',  ( 9.274887093485537193, 1.199999999999999956, 2.922487236409569977 ) ) ;
#601 = APPLICATION_CONTEXT ( 'automotive_design' ) ;
#602 = DIRECTION ( 'NONE',  ( 0.000000000000000000, -1.000000000000000000, 0.000000000000000000 ) ) ;
#603 = FACE_OUTER_BOUND ( 'NONE', #500, .T. ) ;
#604 = LINE ( 'NONE', #131, #840 ) ;
#605 = ADVANCED_FACE ( 'NONE', ( #293 ), #476, .T. ) ;
#606 = DIRECTION ( 'NONE',  ( 1.032573497605242347E-16, 0.000000000000000000, 1.000000000000000000 ) ) ;
#607 = DIRECTION ( 'NONE',  ( -0.9731387067013573811, 0.000000000000000000, 0.2302195854387930340 ) ) ;
#608 =( GEOMETRIC_REPRESENTATION_CONTEXT ( 3 ) GLOBAL_UNCERTAINTY_ASSIGNED_CONTEXT ( ( #845 ) ) GLOBAL_UNIT_ASSIGNED_CONTEXT ( ( #776, #854, #576 ) ) REPRESENTATION_CONTEXT ( 'NONE', 'WORKASPACE' ) );
#609 = CARTESIAN_POINT ( 'NONE',  ( 5.362869492546081140, 0.000000000000000000, 3.847969969873516582 ) ) ;
#610 = LINE ( 'NONE', #64, #639 ) ;
#611 = EDGE_LOOP ( 'NONE', ( #841, #214, #117, #301 ) ) ;
#612 = CARTESIAN_POINT ( 'NONE',  ( 0.000000000000000000, 0.3950000000000000178, 2.399999999999999911 ) ) ;
#613 = LINE ( 'NONE', #67, #468 ) ;
#614 = DIRECTION ( 'NONE',  ( -0.9731387067013572700, 0.000000000000000000, 0.2302195854387931728 ) ) ;
#615 = ORIENTED_EDGE ( 'NONE', *, *, #240, .T. ) ;
#616 = CARTESIAN_POINT ( 'NONE',  ( 11.84063957500758590, 0.5999999999999999778, 3.343098938057825542 ) ) ;
#617 = CARTESIAN_POINT ( 'NONE',  ( 11.91406289596007362, 0.5999999999999999778, 5.000000000000000000 ) ) ;
#618 = ORIENTED_EDGE ( 'NONE', *, *, #444, .T. ) ;
#619 = ORIENTED_EDGE ( 'NONE', *, *, #655, .T. ) ;
#620 = EDGE_CURVE ( 'NONE', #99, #775, #613, .T. ) ;
#621 = CARTESIAN_POINT ( 'NONE',  ( 9.766373172380523826, 0.000000000000000000, 5.000000000000001776 ) ) ;
#622 = CIRCLE ( 'NONE', #237, 0.3100000000000001088 ) ;
#623 = DIRECTION ( 'NONE',  ( -0.2302195854387930618, -0.000000000000000000, -0.9731387067013573811 ) ) ;
#624 = VERTEX_POINT ( 'NONE', #285 ) ;
#625 = AXIS2_PLACEMENT_3D ( 'NONE', #493, #817, #359 ) ;
#626 = PRODUCT_DEFINITION_SHAPE ( 'NONE', 'NONE',  #134 ) ;
#627 = CARTESIAN_POINT ( 'NONE',  ( 12.48794599290581431, 0.5999999999999999778, 6.079264625926470877 ) ) ;
#628 = ORIENTED_EDGE ( 'NONE', *, *, #118, .F. ) ;
#629 = VERTEX_POINT ( 'NONE', #13 ) ;
#630 = FACE_OUTER_BOUND ( 'NONE', #103, .T. ) ;
#631 = LINE ( 'NONE', #281, #479 ) ;
#632 = EDGE_CURVE ( 'NONE', #835, #629, #139, .T. ) ;
#633 = VERTEX_POINT ( 'NONE', #554 ) ;
#634 = ORIENTED_EDGE ( 'NONE', *, *, #588, .F. ) ;
#635 = DIRECTION ( 'NONE',  ( 0.9731387067013572700, 0.000000000000000000, -0.2302195854387930896 ) ) ;
#636 = CARTESIAN_POINT ( 'NONE',  ( 9.274887093485537193, 0.000000000000000000, 2.922487236409569977 ) ) ;
#637 = ORIENTED_EDGE ( 'NONE', *, *, #240, .F. ) ;
#638 = EDGE_LOOP ( 'NONE', ( #349, #28, #826, #199 ) ) ;
#639 = VECTOR ( 'NONE', #201, 100.0000000000000000 ) ;
#640 = VECTOR ( 'NONE', #651, 100.0000000000000000 ) ;
#641 = PLANE ( 'NONE',  #341 ) ;
#642 = VERTEX_POINT ( 'NONE', #215 ) ;
#643 = EDGE_CURVE ( 'NONE', #361, #526, #273, .T. ) ;
#644 = PRESENTATION_STYLE_ASSIGNMENT (( #719 ) ) ;
#645 = ORIENTED_EDGE ( 'NONE', *, *, #378, .T. ) ;
#646 = CARTESIAN_POINT ( 'NONE',  ( 0.000000000000000000, 0.8049999999999999378, 5.000000000000000000 ) ) ;
#647 = EDGE_CURVE ( 'NONE', #418, #526, #424, .T. ) ;
#648 = EDGE_LOOP ( 'NONE', ( #81, #453, #561, #571 ) ) ;
#649 = PRESENTATION_STYLE_ASSIGNMENT (( #175 ) ) ;
#650 = VECTOR ( 'NONE', #527, 100.0000000000000000 ) ;
#651 = DIRECTION ( 'NONE',  ( -1.000000000000000000, -0.000000000000000000, -2.065146995210483770E-17 ) ) ;
#652 = VECTOR ( 'NONE', #347, 100.0000000000000000 ) ;
#653 = FACE_OUTER_BOUND ( 'NONE', #44, .T. ) ;
#654 = ORIENTED_EDGE ( 'NONE', *, *, #157, .F. ) ;
#655 = EDGE_CURVE ( 'NONE', #557, #862, #478, .T. ) ;
#656 = DIRECTION ( 'NONE',  ( -1.000000000000000000, -0.000000000000000000, -2.065146995210482230E-17 ) ) ;
#657 = DIRECTION ( 'NONE',  ( 1.000000000000000000, 0.000000000000000000, -1.032573497605242347E-16 ) ) ;
#658 = CARTESIAN_POINT ( 'NONE',  ( 13.30034763505962303, 0.5999999999999999778, 2.997769559899635894 ) ) ;
#659 = ORIENTED_EDGE ( 'NONE', *, *, #247, .T. ) ;
#660 = EDGE_CURVE ( 'NONE', #25, #48, #225, .T. ) ;
#661 = CARTESIAN_POINT ( 'NONE',  ( 8.400000000000002132, 0.8049999999999999378, 2.500000000000000000 ) ) ;
#662 = DIRECTION ( 'NONE',  ( 0.9731387067013573811, 0.000000000000000000, -0.2302195854387920904 ) ) ;
#663 = ORIENTED_EDGE ( 'NONE', *, *, #471, .T. ) ;
#664 = CARTESIAN_POINT ( 'NONE',  ( 13.64598105388042981, 0.5999999999999999778, 5.805303319254306871 ) ) ;
#665 = VERTEX_POINT ( 'NONE', #158 ) ;
#666 = LINE ( 'NONE', #321, #769 ) ;
#667 = VECTOR ( 'NONE', #472, 100.0000000000000142 ) ;
#668 = VECTOR ( 'NONE', #758, 100.0000000000000142 ) ;
#669 = PLANE ( 'NONE',  #625 ) ;
#670 = DIRECTION ( 'NONE',  ( 0.000000000000000000, -1.000000000000000000, 0.000000000000000000 ) ) ;
#671 = CARTESIAN_POINT ( 'NONE',  ( 11.84063957500758590, 0.5999999999999999778, 3.343098938057825542 ) ) ;
#672 = EDGE_CURVE ( 'NONE', #847, #583, #427, .T. ) ;
#673 = CARTESIAN_POINT ( 'NONE',  ( 13.30034763505962303, 0.5999999999999999778, 2.997769559899635894 ) ) ;
#674 = CARTESIAN_POINT ( 'NONE',  ( 17.05000000000000782, 0.3950000000000000178, 4.999999999999988454 ) ) ;
#675 = CARTESIAN_POINT ( 'NONE',  ( 12.99867463598220141, 0.5999999999999999778, 3.069137631385661535 ) ) ;
#676 = EDGE_CURVE ( 'NONE', #318, #710, #87, .T. ) ;
#677 = CARTESIAN_POINT ( 'NONE',  ( 12.48794599290581431, 0.5999999999999999778, 6.079264625926470877 ) ) ;
#678 = LINE ( 'NONE', #220, #681 ) ;
#679 = EDGE_LOOP ( 'NONE', ( #368, #145, #789, #384 ) ) ;
#680 = CARTESIAN_POINT ( 'NONE',  ( 16.80000000000000426, 0.3950000000000000178, 2.399999999999998135 ) ) ;
#681 = VECTOR ( 'NONE', #838, 100.0000000000000000 ) ;
#682 = CARTESIAN_POINT ( 'NONE',  ( 7.180746541752530909, 0.5999999999999999778, 2.801345379120729895 ) ) ;
#683 = FILL_AREA_STYLE ('',( #159 ) ) ;
#684 = CARTESIAN_POINT ( 'NONE',  ( 16.80000000000000426, 0.8049999999999999378, 2.399999999999988809 ) ) ;
#685 = DIRECTION ( 'NONE',  ( -0.2302195854387927565, 0.000000000000000000, -0.9731387067013573811 ) ) ;
#686 = ORIENTED_EDGE ( 'NONE', *, *, #57, .T. ) ;
#687 = EDGE_CURVE ( 'NONE', #633, #75, #498, .T. ) ;
#688 = ORIENTED_EDGE ( 'NONE', *, *, #279, .F. ) ;
#689 = CARTESIAN_POINT ( 'NONE',  ( 9.274887093485537193, 0.000000000000000000, 2.922487236409569977 ) ) ;
#690 = LINE ( 'NONE', #825, #254 ) ;
#691 = ORIENTED_EDGE ( 'NONE', *, *, #821, .F. ) ;
#692 = ORIENTED_EDGE ( 'NONE', *, *, #83, .T. ) ;
#693 = DIRECTION ( 'NONE',  ( -0.9731387067013573811, 0.000000000000000000, 0.2302195854387920904 ) ) ;
#694 = AXIS2_PLACEMENT_3D ( 'NONE', #171, #578, #385 ) ;
#695 = VECTOR ( 'NONE', #872, 100.0000000000000000 ) ;
#696 = CARTESIAN_POINT ( 'NONE',  ( 13.30034763505962303, 0.5999999999999999778, 2.997769559899635894 ) ) ;
#697 = ORIENTED_EDGE ( 'NONE', *, *, #428, .T. ) ;
#698 = VECTOR ( 'NONE', #514, 100.0000000000000000 ) ;
#699 = EDGE_LOOP ( 'NONE', ( #430, #412 ) ) ;
#700 = ADVANCED_FACE ( 'NONE', ( #772 ), #363, .F. ) ;
#701 = CARTESIAN_POINT ( 'NONE',  ( 7.318878293015806946, 0.5999999999999999778, 3.385228603141544390 ) ) ;
#702 = DIRECTION ( 'NONE',  ( 0.000000000000000000, -1.000000000000000000, 0.000000000000000000 ) ) ;
#703 = ORIENTED_EDGE ( 'NONE', *, *, #505, .T. ) ;
#704 = ORIENTED_EDGE ( 'NONE', *, *, #101, .F. ) ;
#705 = DIRECTION ( 'NONE',  ( 0.000000000000000000, -1.000000000000000000, 0.000000000000000000 ) ) ;
#706 = LINE ( 'NONE', #510, #223 ) ;
#707 = ORIENTED_EDGE ( 'NONE', *, *, #764, .T. ) ;
#708 = ORIENTED_EDGE ( 'NONE', *, *, #807, .T. ) ;
#709 = DIRECTION ( 'NONE',  ( 0.000000000000000000, 1.000000000000000000, 0.000000000000000000 ) ) ;
#710 = VERTEX_POINT ( 'NONE', #443 ) ;
#711 = AXIS2_PLACEMENT_3D ( 'NONE', #335, #748, #270 ) ;
#712 = CARTESIAN_POINT ( 'NONE',  ( 0.000000000000000000, 1.199999999999999956, 5.000000000000000000 ) ) ;
#713 = AXIS2_PLACEMENT_3D ( 'NONE', #590, #116, #662 ) ;
#714 = PRODUCT_DEFINITION_CONTEXT ( 'detailed design', #601, 'design' ) ;
#715 = DIRECTION ( 'NONE',  ( -1.000000000000000000, -0.000000000000000000, -2.065146995210483770E-17 ) ) ;
#716 = ORIENTED_EDGE ( 'NONE', *, *, #151, .F. ) ;
#717 = CARTESIAN_POINT ( 'NONE',  ( 12.55117659386405471, 0.5999999999999999778, 5.000000000000000000 ) ) ;
#718 = EDGE_CURVE ( 'NONE', #16, #357, #309, .T. ) ;
#719 = SURFACE_STYLE_USAGE ( .BOTH. , #344 ) ;
#720 = ORIENTED_EDGE ( 'NONE', *, *, #151, .T. ) ;
#721 = DIRECTION ( 'NONE',  ( 1.000000000000000000, 0.000000000000000000, -1.032573497605242347E-16 ) ) ;
#722 = CARTESIAN_POINT ( 'NONE',  ( 16.80000000000000071, 0.000000000000000000, -3.469446951953614189E-16 ) ) ;
#723 = ORIENTED_EDGE ( 'NONE', *, *, #305, .T. ) ;
#724 = VECTOR ( 'NONE', #808, 100.0000000000000000 ) ;
#725 = CARTESIAN_POINT ( 'NONE',  ( 16.80000000000000071, 0.000000000000000000, 5.000000000000000000 ) ) ;
#726 = ADVANCED_FACE ( 'NONE', ( #593 ), #186, .F. ) ;
#727 = FACE_OUTER_BOUND ( 'NONE', #760, .T. ) ;
#728 = ORIENTED_EDGE ( 'NONE', *, *, #212, .F. ) ;
#729 = DIRECTION ( 'NONE',  ( -0.2302195854387930340, -0.000000000000000000, -0.9731387067013572700 ) ) ;
#730 = ORIENTED_EDGE ( 'NONE', *, *, #345, .F. ) ;
#731 = CARTESIAN_POINT ( 'NONE',  ( 9.274887093485537193, 1.199999999999999956, 2.922487236409569977 ) ) ;
#732 = ORIENTED_EDGE ( 'NONE', *, *, #676, .F. ) ;
#733 = DIRECTION ( 'NONE',  ( -1.000000000000000000, 0.000000000000000000, 2.878814911323413404E-15 ) ) ;
#734 = SURFACE_SIDE_STYLE ('',( #461 ) ) ;
#735 = CARTESIAN_POINT ( 'NONE',  ( 16.80000000000000782, 0.8049999999999999378, 4.999999999999989342 ) ) ;
#736 = EDGE_CURVE ( 'NONE', #75, #563, #42, .T. ) ;
#737 = LINE ( 'NONE', #532, #423 ) ;
#738 = VECTOR ( 'NONE', #395, 100.0000000000000000 ) ;
#739 = CIRCLE ( 'NONE', #153, 0.3100000000000000533 ) ;
#740 = CARTESIAN_POINT ( 'NONE',  ( 4.150000000000017231, 0.3950000000000000178, -1.750000000000000444 ) ) ;
#741 = CARTESIAN_POINT ( 'NONE',  ( 0.000000000000000000, 0.000000000000000000, 5.000000000000000000 ) ) ;
#742 = ORIENTED_EDGE ( 'NONE', *, *, #643, .F. ) ;
#743 = PLANE ( 'NONE',  #111 ) ;
#744 = LINE ( 'NONE', #609, #66 ) ;
#745 = DIRECTION ( 'NONE',  ( 1.704540558354500032E-15, 0.000000000000000000, 1.000000000000000000 ) ) ;
#746 = FACE_OUTER_BOUND ( 'NONE', #611, .T. ) ;
#747 = DIRECTION ( 'NONE',  ( 0.000000000000000000, 1.000000000000000000, -0.000000000000000000 ) ) ;
#748 = DIRECTION ( 'NONE',  ( 0.000000000000000000, 1.000000000000000000, -0.000000000000000000 ) ) ;
#749 = VERTEX_POINT ( 'NONE', #120 ) ;
#750 = CARTESIAN_POINT ( 'NONE',  ( 9.274887093485537193, 1.199999999999999956, 2.922487236409569977 ) ) ;
#751 = AXIS2_PLACEMENT_3D ( 'NONE', #762, #556, #84 ) ;
#752 = DIRECTION ( 'NONE',  ( -0.9731387067013573811, 0.000000000000000000, 0.2302195854387920904 ) ) ;
#753 = EDGE_CURVE ( 'NONE', #114, #457, #518, .T. ) ;
#754 = AXIS2_PLACEMENT_3D ( 'NONE', #172, #705, #721 ) ;
#755 = CARTESIAN_POINT ( 'NONE',  ( -0.2500000000000002220, 0.8049999999999999378, 5.000000000000000000 ) ) ;
#756 = ORIENTED_EDGE ( 'NONE', *, *, #54, .T. ) ;
#757 = ADVANCED_BREP_SHAPE_REPRESENTATION ( 'ramp-wall-middle_62', ( #342, #298 ), #328 ) ;
#758 = DIRECTION ( 'NONE',  ( 0.2302195854387930896, 0.000000000000000000, 0.9731387067013572700 ) ) ;
#759 = DIRECTION ( 'NONE',  ( -1.000000000000000000, -0.000000000000000000, -4.305037197708010146E-16 ) ) ;
#760 = EDGE_LOOP ( 'NONE', ( #452, #691, #708, #573 ) ) ;
#761 = ORIENTED_EDGE ( 'NONE', *, *, #390, .F. ) ;
#762 = CARTESIAN_POINT ( 'NONE',  ( 7.180746541752530909, 0.5999999999999999778, 2.801345379120729895 ) ) ;
#763 = ORIENTED_EDGE ( 'NONE', *, *, #83, .F. ) ;
#764 = EDGE_CURVE ( 'NONE', #73, #483, #176, .T. ) ;
#765 = DIRECTION ( 'NONE',  ( 0.000000000000000000, -1.000000000000000000, 0.000000000000000000 ) ) ;
#766 = VECTOR ( 'NONE', #286, 100.0000000000000000 ) ;
#767 = CARTESIAN_POINT ( 'NONE',  ( 12.55117659386405471, 0.5999999999999999778, 5.000000000000000000 ) ) ;
#768 = ORIENTED_EDGE ( 'NONE', *, *, #718, .F. ) ;
#769 = VECTOR ( 'NONE', #589, 100.0000000000000000 ) ;
#770 = ORIENTED_EDGE ( 'NONE', *, *, #830, .F. ) ;
#771 = ADVANCED_FACE ( 'NONE', ( #325 ), #391, .F. ) ;
#772 = FACE_OUTER_BOUND ( 'NONE', #679, .T. ) ;
#773 = CARTESIAN_POINT ( 'NONE',  ( 6.879073542675110176, 0.5999999999999999778, 2.872713450606755536 ) ) ;
#774 = EDGE_LOOP ( 'NONE', ( #250, #815, #426, #491 ) ) ;
#775 = VERTEX_POINT ( 'NONE', #181 ) ;
#776 =( LENGTH_UNIT ( ) NAMED_UNIT ( * ) SI_UNIT ( .CENTI., .METRE. ) );
#777 = EDGE_LOOP ( 'NONE', ( #91, #756, #730, #256, #786, #330, #234, #128 ) ) ;
#778 = CARTESIAN_POINT ( 'NONE',  ( 17.05000000000000782, 0.3950000000000000178, 4.999999999999988454 ) ) ;
#779 = CLOSED_SHELL ( 'NONE', ( #89, #253, #260, #14, #540, #545, #370, #497, #771, #781, #266, #194, #569, #402, #726, #141, #870, #291, #700, #883, #605, #433, #886, #529, #486, #407, #398, #26 ) ) ;
#780 = DIRECTION ( 'NONE',  ( -0.9731387067013573811, 0.000000000000000000, 0.2302195854387920904 ) ) ;
#781 = ADVANCED_FACE ( 'NONE', ( #105 ), #860, .T. ) ;
#782 = ORIENTED_EDGE ( 'NONE', *, *, #354, .T. ) ;
#783 = SURFACE_STYLE_FILL_AREA ( #251 ) ;
#784 = AXIS2_PLACEMENT_3D ( 'NONE', #289, #559, #219 ) ;
#785 = UNCERTAINTY_MEASURE_WITH_UNIT (LENGTH_MEASURE( 1.000000000000000082E-05 ), #274, 'distance_accuracy_value', 'NONE');
#786 = ORIENTED_EDGE ( 'NONE', *, *, #97, .F. ) ;
#787 = CARTESIAN_POINT ( 'NONE',  ( 5.635410163390192295, 0.000000000000000000, 5.000000000000001776 ) ) ;
#788 = ORIENTED_EDGE ( 'NONE', *, *, #20, .T. ) ;
#789 = ORIENTED_EDGE ( 'NONE', *, *, #736, .T. ) ;
#790 = DIRECTION ( 'NONE',  ( 4.305037197708010146E-16, 0.000000000000000000, -1.000000000000000000 ) ) ;
#791 = EDGE_CURVE ( 'NONE', #318, #832, #666, .T. ) ;
#792 = LINE ( 'NONE', #162, #208 ) ;
#793 = VERTEX_POINT ( 'NONE', #528 ) ;
#794 = SURFACE_SIDE_STYLE ('',( #783 ) ) ;
#795 = VECTOR ( 'NONE', #249, 100.0000000000000000 ) ;
#796 = CARTESIAN_POINT ( 'NONE',  ( 14.24932705203527128, 0.5999999999999999778, 5.662567176282255588 ) ) ;
#797 = VECTOR ( 'NONE', #733, 100.0000000000000000 ) ;
#798 = CARTESIAN_POINT ( 'NONE',  ( 17.05000000000000782, 0.8049999999999999378, 4.999999999999988454 ) ) ;
#799 = ORIENTED_EDGE ( 'NONE', *, *, #7, .F. ) ;
#800 = CARTESIAN_POINT ( 'NONE',  ( 3.251472181705016506, 1.199999999999999956, 5.000000000000000000 ) ) ;
#801 = CARTESIAN_POINT ( 'NONE',  ( 13.45546700379228966, -0.02000000000000022593, 5.000000000000000000 ) ) ;
#802 = FILL_AREA_STYLE_COLOUR ( '', #38 ) ;
#803 = EDGE_CURVE ( 'NONE', #25, #350, #252, .T. ) ;
#804 = LINE ( 'NONE', #800, #738 ) ;
#805 = CARTESIAN_POINT ( 'NONE',  ( 0.000000000000000000, 0.3950000000000000178, 5.000000000000000000 ) ) ;
#806 = CARTESIAN_POINT ( 'NONE',  ( -0.2500000000000002220, 0.8049999999999999378, 5.000000000000000000 ) ) ;
#807 = EDGE_CURVE ( 'NONE', #793, #516, #243, .T. ) ;
#808 = DIRECTION ( 'NONE',  ( -0.7071067811865491270, -0.000000000000000000, -0.7071067811865460184 ) ) ;
#809 = VECTOR ( 'NONE', #31, 100.0000000000000000 ) ;
#810 = APPLICATION_PROTOCOL_DEFINITION ( 'draft international standard', 'automotive_design', 1998, #601 ) ;
#811 = AXIS2_PLACEMENT_3D ( 'NONE', #869, #602, #198 ) ;
#812 = VECTOR ( 'NONE', #400, 100.0000000000000000 ) ;
#813 = LINE ( 'NONE', #806, #24 ) ;
#814 = CARTESIAN_POINT ( 'NONE',  ( 16.80000000000000782, 0.3950000000000000178, 4.999999999999989342 ) ) ;
#815 = ORIENTED_EDGE ( 'NONE', *, *, #157, .T. ) ;
#816 =( NAMED_UNIT ( * ) PLANE_ANGLE_UNIT ( ) SI_UNIT ( $, .RADIAN. ) );
#817 = DIRECTION ( 'NONE',  ( -2.065146995210482230E-17, 0.000000000000000000, 1.000000000000000000 ) ) ;
#818 = CARTESIAN_POINT ( 'NONE',  ( -0.2500000000000002220, 0.3950000000000000178, 5.000000000000000000 ) ) ;
#819 = ORIENTED_EDGE ( 'NONE', *, *, #676, .T. ) ;
#820 = CARTESIAN_POINT ( 'NONE',  ( 16.80000000000000071, 0.000000000000000000, 5.000000000000000000 ) ) ;
#821 = EDGE_CURVE ( 'NONE', #793, #295, #454, .T. ) ;
#822 = DIRECTION ( 'NONE',  ( 0.9731387067013573811, 0.000000000000000000, -0.2302195854387920904 ) ) ;
#823 = AXIS2_PLACEMENT_3D ( 'NONE', #755, #759, #549 ) ;
#824 = AXIS2_PLACEMENT_3D ( 'NONE', #868, #262, #393 ) ;
#825 = CARTESIAN_POINT ( 'NONE',  ( 16.80000000000000071, 1.199999999999999956, -3.469446951953614189E-16 ) ) ;
#826 = ORIENTED_EDGE ( 'NONE', *, *, #106, .F. ) ;
#827 = PRODUCT ( 'ramp-wall-middle_62', 'ramp-wall-middle_62', '', ( #535 ) ) ;
#828 = DIRECTION ( 'NONE',  ( 0.2302195854387926455, 0.000000000000000000, 0.9731387067013572700 ) ) ;
#829 = CARTESIAN_POINT ( 'NONE',  ( 0.000000000000000000, 1.199999999999999956, 5.000000000000000000 ) ) ;
#830 = EDGE_CURVE ( 'NONE', #586, #114, #386, .T. ) ;
#831 = ORIENTED_EDGE ( 'NONE', *, *, #314, .F. ) ;
#832 = VERTEX_POINT ( 'NONE', #541 ) ;
#833 = CARTESIAN_POINT ( 'NONE',  ( 0.000000000000000000, 0.3950000000000000178, 5.000000000000000000 ) ) ;
#834 = DIRECTION ( 'NONE',  ( 1.000000000000000000, 0.000000000000000000, 0.000000000000000000 ) ) ;
#835 = VERTEX_POINT ( 'NONE', #600 ) ;
#836 = CARTESIAN_POINT ( 'NONE',  ( 0.000000000000000000, 1.199999999999999956, 5.000000000000000000 ) ) ;
#837 = CIRCLE ( 'NONE', #392, 0.3100000000000000533 ) ;
#838 = DIRECTION ( 'NONE',  ( -0.2302195854387925900, -0.000000000000000000, -0.9731387067013573811 ) ) ;
#839 = VERTEX_POINT ( 'NONE', #612 ) ;
#840 = VECTOR ( 'NONE', #533, 100.0000000000000000 ) ;
#841 = ORIENTED_EDGE ( 'NONE', *, *, #378, .F. ) ;
#842 = CARTESIAN_POINT ( 'NONE',  ( 17.05000000000000426, 0.3950000000000000178, 2.649999999999998579 ) ) ;
#843 = EDGE_LOOP ( 'NONE', ( #688, #707, #362, #446 ) ) ;
#844 = EDGE_CURVE ( 'NONE', #30, #835, #737, .T. ) ;
#845 = UNCERTAINTY_MEASURE_WITH_UNIT (LENGTH_MEASURE( 1.000000000000000082E-05 ), #776, 'distance_accuracy_value', 'NONE');
#846 = DIRECTION ( 'NONE',  ( 0.2302195854387930618, 0.000000000000000000, 0.9731387067013572700 ) ) ;
#847 = VERTEX_POINT ( 'NONE', #820 ) ;
#848 = DIRECTION ( 'NONE',  ( -0.7071067811865489050, 0.000000000000000000, 0.7071067811865461294 ) ) ;
#849 = CARTESIAN_POINT ( 'NONE',  ( 7.318878293015806946, 0.5999999999999999778, 3.385228603141544390 ) ) ;
#850 = ORIENTED_EDGE ( 'NONE', *, *, #562, .F. ) ;
#851 = VECTOR ( 'NONE', #670, 100.0000000000000000 ) ;
#852 = AXIS2_PLACEMENT_3D ( 'NONE', #415, #747, #2 ) ;
#853 = CARTESIAN_POINT ( 'NONE',  ( 0.000000000000000000, 1.199999999999999956, 0.000000000000000000 ) ) ;
#854 =( NAMED_UNIT ( * ) PLANE_ANGLE_UNIT ( ) SI_UNIT ( $, .RADIAN. ) );
#855 = EDGE_LOOP ( 'NONE', ( #519, #304, #307, #300 ) ) ;
#856 = EDGE_CURVE ( 'NONE', #483, #16, #189, .T. ) ;
#857 = PLANE ( 'NONE',  #191 ) ;
#858 = CARTESIAN_POINT ( 'NONE',  ( 17.05000000000000782, 0.8049999999999999378, 4.999999999999988454 ) ) ;
#859 = ORIENTED_EDGE ( 'NONE', *, *, #512, .T. ) ;
#860 = PLANE ( 'NONE',  #195 ) ;
#861 = LINE ( 'NONE', #113, #353 ) ;
#862 = VERTEX_POINT ( 'NONE', #680 ) ;
#863 = CARTESIAN_POINT ( 'NONE',  ( 13.94765405295784966, 0.5999999999999999778, 5.733935247768280341 ) ) ;
#864 = VECTOR ( 'NONE', #136, 100.0000000000000000 ) ;
#865 = AXIS2_PLACEMENT_3D ( 'NONE', #464, #397, #474 ) ;
#866 = CARTESIAN_POINT ( 'NONE',  ( 14.09258070169626897, 0.5999999999999999778, 5.000000000000000000 ) ) ;
#867 = VECTOR ( 'NONE', #828, 100.0000000000000142 ) ;
#868 = CARTESIAN_POINT ( 'NONE',  ( 0.000000000000000000, 1.199999999999999956, 0.000000000000000000 ) ) ;
#869 = CARTESIAN_POINT ( 'NONE',  ( 8.400000000000002132, 0.3950000000000000178, 2.500000000000000000 ) ) ;
#870 = ADVANCED_FACE ( 'NONE', ( #746 ), #743, .F. ) ;
#871 = CARTESIAN_POINT ( 'NONE',  ( 5.509058929299713192, 1.199999999999999956, 4.465913048628878279 ) ) ;
#872 = DIRECTION ( 'NONE',  ( 0.000000000000000000, -1.000000000000000000, 0.000000000000000000 ) ) ;
#873 = DIRECTION ( 'NONE',  ( 0.000000000000000000, -1.000000000000000000, -0.000000000000000000 ) ) ;
#874 = FACE_OUTER_BOUND ( 'NONE', #72, .T. ) ;
#875 = CARTESIAN_POINT ( 'NONE',  ( 0.000000000000000000, 0.8049999999999999378, 5.000000000000000000 ) ) ;
#876 = EDGE_CURVE ( 'NONE', #642, #441, #133, .T. ) ;
#877 = VERTEX_POINT ( 'NONE', #675 ) ;
#878 = CYLINDRICAL_SURFACE ( 'NONE', #865, 0.3100000000000001088 ) ;
#879 = MECHANICAL_DESIGN_GEOMETRIC_PRESENTATION_REPRESENTATION (  '', ( #364 ), #608 ) ;
#880 = VECTOR ( 'NONE', #196, 100.0000000000000000 ) ;
#881 = LINE ( 'NONE', #190, #538 ) ;
#882 = FACE_OUTER_BOUND ( 'NONE', #487, .T. ) ;
#883 = ADVANCED_FACE ( 'NONE', ( #61 ), #878, .F. ) ;
#884 = CARTESIAN_POINT ( 'NONE',  ( 0.000000000000000000, 0.8049999999999999378, 2.399999999999999911 ) ) ;
#885 = EDGE_LOOP ( 'NONE', ( #228, #108, #69, #147 ) ) ;
#886 = ADVANCED_FACE ( 'NONE', ( #603 ), #547, .T. ) ;
ENDSEC;
END-ISO-10303-21;
