ISO-10303-21;
HEADER;
FILE_DESCRIPTION (( 'STEP AP214' ),
    '1' );
FILE_NAME ('ramp-wall-half_60.STEP',
    '2026-06-10T13:07:14',
    ( '' ),
    ( '' ),
    'SwSTEP 2.0',
    'SolidWorks 2023',
    '' );
FILE_SCHEMA (( 'AUTOMOTIVE_DESIGN' ));
ENDSEC;

DATA;
#1 = FACE_OUTER_BOUND ( 'NONE', #473, .T. ) ;
#2 = DIRECTION ( 'NONE',  ( 0.000000000000000000, 1.000000000000000000, 0.000000000000000000 ) ) ;
#3 = EDGE_CURVE ( 'NONE', #65, #361, #329, .T. ) ;
#4 = VERTEX_POINT ( 'NONE', #234 ) ;
#5 = VECTOR ( 'NONE', #418, 100.0000000000000142 ) ;
#6 = PRODUCT_DEFINITION_FORMATION_WITH_SPECIFIED_SOURCE ( 'ANY', '', #324, .NOT_KNOWN. ) ;
#7 = EDGE_CURVE ( 'NONE', #512, #481, #59, .T. ) ;
#8 = ORIENTED_EDGE ( 'NONE', *, *, #169, .T. ) ;
#9 = CARTESIAN_POINT ( 'NONE',  ( 15.77180766561834346, 0.000000000000000000, 0.000000000000000000 ) ) ;
#10 = ORIENTED_EDGE ( 'NONE', *, *, #322, .T. ) ;
#11 = CARTESIAN_POINT ( 'NONE',  ( 5.320000000000001172, -0.9000000000000001332, 0.5999999999999987566 ) ) ;
#12 = DIRECTION ( 'NONE',  ( 1.000000000000000000, 0.000000000000000000, 1.239088197126290570E-16 ) ) ;
#13 = ORIENTED_EDGE ( 'NONE', *, *, #7, .F. ) ;
#14 = EDGE_CURVE ( 'NONE', #354, #481, #155, .T. ) ;
#15 = FILL_AREA_STYLE ('',( #55 ) ) ;
#16 = AXIS2_PLACEMENT_3D ( 'NONE', #390, #47, #2 ) ;
#17 = ORIENTED_EDGE ( 'NONE', *, *, #14, .T. ) ;
#18 = ORIENTED_EDGE ( 'NONE', *, *, #275, .F. ) ;
#19 = DIRECTION ( 'NONE',  ( 0.000000000000000000, -1.000000000000000000, 0.000000000000000000 ) ) ;
#20 = ADVANCED_FACE ( 'NONE', ( #67 ), #376, .T. ) ;
#21 = CARTESIAN_POINT ( 'NONE',  ( 15.77180766561830971, 0.000000000000000000, 2.500000000000103917 ) ) ;
#22 = PRESENTATION_STYLE_ASSIGNMENT (( #276 ) ) ;
#23 = AXIS2_PLACEMENT_3D ( 'NONE', #151, #331, #76 ) ;
#24 = DIRECTION ( 'NONE',  ( -1.000000000000000000, 0.000000000000000000, 2.465190328815662439E-32 ) ) ;
#25 = CARTESIAN_POINT ( 'NONE',  ( -0.2499999999999988343, -0.3950000000000000178, 2.395000000000000462 ) ) ;
#26 = DIRECTION ( 'NONE',  ( 0.000000000000000000, -1.000000000000000000, 0.000000000000000000 ) ) ;
#27 = AXIS2_PLACEMENT_3D ( 'NONE', #207, #112, #66 ) ;
#28 = EDGE_LOOP ( 'NONE', ( #437, #488, #274, #445, #490, #257 ) ) ;
#29 = AXIS2_PLACEMENT_3D ( 'NONE', #468, #235, #373 ) ;
#30 = DIRECTION ( 'NONE',  ( -1.000000000000000000, 0.000000000000000000, -1.239088197126290570E-16 ) ) ;
#31 = CARTESIAN_POINT ( 'NONE',  ( 5.320000000000000284, -0.9000000000000001332, 2.572628836253874063 ) ) ;
#32 =( LENGTH_UNIT ( ) NAMED_UNIT ( * ) SI_UNIT ( .CENTI., .METRE. ) );
#33 = CARTESIAN_POINT ( 'NONE',  ( 16.80000000000000071, -1.199999999999999956, 5.000000000000000000 ) ) ;
#34 = CARTESIAN_POINT ( 'NONE',  ( 3.820000000000000284, -0.2999999999999998779, 0.5999999999999984235 ) ) ;
#35 = ADVANCED_FACE ( 'NONE', ( #230 ), #201, .F. ) ;
#36 = ORIENTED_EDGE ( 'NONE', *, *, #238, .F. ) ;
#37 = SHAPE_DEFINITION_REPRESENTATION ( #265, #68 ) ;
#38 = DIRECTION ( 'NONE',  ( 1.000000000000000000, 0.000000000000000000, 2.065146995210481305E-17 ) ) ;
#39 = AXIS2_PLACEMENT_3D ( 'NONE', #388, #480, #43 ) ;
#40 = ORIENTED_EDGE ( 'NONE', *, *, #96, .F. ) ;
#41 = CARTESIAN_POINT ( 'NONE',  ( 1.399999999999999911, -1.199999999999999956, 3.500000000000002220 ) ) ;
#42 = VERTEX_POINT ( 'NONE', #371 ) ;
#43 = DIRECTION ( 'NONE',  ( 4.098522498186961307E-16, 0.000000000000000000, 1.000000000000000000 ) ) ;
#44 = ORIENTED_EDGE ( 'NONE', *, *, #495, .T. ) ;
#45 = EDGE_CURVE ( 'NONE', #386, #4, #501, .T. ) ;
#46 = CARTESIAN_POINT ( 'NONE',  ( 3.820000000000000284, -0.5999999999999999778, 0.5999999999999984235 ) ) ;
#47 = DIRECTION ( 'NONE',  ( -1.000000000000000000, 0.000000000000000000, -1.239088197126290570E-16 ) ) ;
#48 = VECTOR ( 'NONE', #268, 100.0000000000000000 ) ;
#49 = FACE_OUTER_BOUND ( 'NONE', #400, .T. ) ;
#50 = ORIENTED_EDGE ( 'NONE', *, *, #365, .F. ) ;
#51 =( BOUNDED_CURVE ( )  B_SPLINE_CURVE ( 3, ( #258, #95, #264, #212 ),
 .UNSPECIFIED., .F., .T. ) 
 B_SPLINE_CURVE_WITH_KNOTS ( ( 4, 4 ),
 ( 1.570796326794896558, 4.712388980384689674 ),
 .UNSPECIFIED. ) 
 CURVE ( )  GEOMETRIC_REPRESENTATION_ITEM ( )  RATIONAL_B_SPLINE_CURVE ( ( 1.000000000000000000, 0.3333333333333333703, 0.3333333333333333703, 1.000000000000000000 ) ) 
 REPRESENTATION_ITEM ( '' )  );
#52 = ADVANCED_FACE ( 'NONE', ( #1 ), #171, .T. ) ;
#53 = ORIENTED_EDGE ( 'NONE', *, *, #387, .F. ) ;
#54 = ORIENTED_EDGE ( 'NONE', *, *, #442, .T. ) ;
#55 = FILL_AREA_STYLE_COLOUR ( '', #129 ) ;
#56 = CIRCLE ( 'NONE', #83, 0.3000000000000000999 ) ;
#57 = ORIENTED_EDGE ( 'NONE', *, *, #442, .F. ) ;
#58 = FACE_OUTER_BOUND ( 'NONE', #410, .T. ) ;
#59 = LINE ( 'NONE', #21, #412 ) ;
#60 = EDGE_CURVE ( 'NONE', #397, #158, #349, .T. ) ;
#61 = VERTEX_POINT ( 'NONE', #222 ) ;
#62 = CARTESIAN_POINT ( 'NONE',  ( 5.320000000000000284, -0.9000000000000001332, 2.572628836253874063 ) ) ;
#63 = VECTOR ( 'NONE', #284, 100.0000000000000000 ) ;
#64 = VECTOR ( 'NONE', #369, 100.0000000000000000 ) ;
#65 = VERTEX_POINT ( 'NONE', #356 ) ;
#66 = DIRECTION ( 'NONE',  ( -1.000000000000000000, 0.000000000000000000, -1.239088197126290570E-16 ) ) ;
#67 = FACE_OUTER_BOUND ( 'NONE', #88, .T. ) ;
#68 = ADVANCED_BREP_SHAPE_REPRESENTATION ( 'ramp-wall-half_60', ( #517, #547 ), #242 ) ;
#69 = CARTESIAN_POINT ( 'NONE',  ( 0.000000000000000000, -0.8049999999999999378, 0.000000000000000000 ) ) ;
#70 = LINE ( 'NONE', #157, #337 ) ;
#71 = CARTESIAN_POINT ( 'NONE',  ( 1.399999999999999911, -1.199999999999999956, 5.000000000000002665 ) ) ;
#72 = PLANE ( 'NONE',  #23 ) ;
#73 = AXIS2_PLACEMENT_3D ( 'NONE', #353, #305, #12 ) ;
#74 = EDGE_CURVE ( 'NONE', #439, #42, #485, .T. ) ;
#75 = CARTESIAN_POINT ( 'NONE',  ( 0.000000000000000000, -1.199999999999999956, 0.000000000000000000 ) ) ;
#76 = DIRECTION ( 'NONE',  ( 0.9731387067013588243, 0.000000000000000000, -0.2302195854387861229 ) ) ;
#77 = ORIENTED_EDGE ( 'NONE', *, *, #322, .F. ) ;
#78 =( NAMED_UNIT ( * ) PLANE_ANGLE_UNIT ( ) SI_UNIT ( $, .RADIAN. ) );
#79 = DIRECTION ( 'NONE',  ( 0.000000000000000000, 1.000000000000000000, 0.000000000000000000 ) ) ;
#80 = LINE ( 'NONE', #199, #299 ) ;
#81 = VERTEX_POINT ( 'NONE', #11 ) ;
#82 = CARTESIAN_POINT ( 'NONE',  ( 0.000000000000000000, -0.5999999999999999778, 2.395000000000000462 ) ) ;
#83 = AXIS2_PLACEMENT_3D ( 'NONE', #520, #344, #477 ) ;
#84 = ORIENTED_EDGE ( 'NONE', *, *, #188, .T. ) ;
#85 = STYLED_ITEM ( 'NONE', ( #22 ), #557 ) ;
#86 = LINE ( 'NONE', #214, #48 ) ;
#87 = EDGE_CURVE ( 'NONE', #533, #301, #182, .T. ) ;
#88 = EDGE_LOOP ( 'NONE', ( #124, #179 ) ) ;
#89 = CARTESIAN_POINT ( 'NONE',  ( -0.2499999999999988343, -0.5999999999999999778, 2.395000000000000462 ) ) ;
#90 = ORIENTED_EDGE ( 'NONE', *, *, #283, .F. ) ;
#91 =( BOUNDED_CURVE ( )  B_SPLINE_CURVE ( 3, ( #560, #544, #111, #551 ),
 .UNSPECIFIED., .F., .T. ) 
 B_SPLINE_CURVE_WITH_KNOTS ( ( 4, 4 ),
 ( 1.570796326794896558, 4.712388980384689674 ),
 .UNSPECIFIED. ) 
 CURVE ( )  GEOMETRIC_REPRESENTATION_ITEM ( )  RATIONAL_B_SPLINE_CURVE ( ( 1.000000000000000000, 0.3333333333333333703, 0.3333333333333333703, 1.000000000000000000 ) ) 
 REPRESENTATION_ITEM ( '' )  );
#92 = DIRECTION ( 'NONE',  ( 1.400169662752707028E-14, 0.000000000000000000, -1.000000000000000000 ) ) ;
#93 = VECTOR ( 'NONE', #541, 100.0000000000000000 ) ;
#94 = ORIENTED_EDGE ( 'NONE', *, *, #188, .F. ) ;
#95 = CARTESIAN_POINT ( 'NONE',  ( 5.920000000000000817, -0.8999999999999999112, 2.430684270374364964 ) ) ;
#96 = EDGE_CURVE ( 'NONE', #226, #512, #267, .T. ) ;
#97 = ORIENTED_EDGE ( 'NONE', *, *, #231, .F. ) ;
#98 = DIRECTION ( 'NONE',  ( 1.239088197126290570E-16, 0.000000000000000000, -1.000000000000000000 ) ) ;
#99 = PLANE ( 'NONE',  #39 ) ;
#100 = ORIENTED_EDGE ( 'NONE', *, *, #135, .F. ) ;
#101 = SURFACE_STYLE_FILL_AREA ( #489 ) ;
#102 = ORIENTED_EDGE ( 'NONE', *, *, #300, .T. ) ;
#103 = VECTOR ( 'NONE', #116, 100.0000000000000000 ) ;
#104 = VECTOR ( 'NONE', #79, 100.0000000000000000 ) ;
#105 = ORIENTED_EDGE ( 'NONE', *, *, #260, .F. ) ;
#106 = ADVANCED_FACE ( 'NONE', ( #280, #368, #323 ), #72, .T. ) ;
#107 = SURFACE_STYLE_USAGE ( .BOTH. , #364 ) ;
#108 = DIRECTION ( 'NONE',  ( 1.000000000000000000, 0.000000000000000000, 1.239088197126290570E-16 ) ) ;
#109 =( GEOMETRIC_REPRESENTATION_CONTEXT ( 3 ) GLOBAL_UNCERTAINTY_ASSIGNED_CONTEXT ( ( #405 ) ) GLOBAL_UNIT_ASSIGNED_CONTEXT ( ( #534, #225, #448 ) ) REPRESENTATION_CONTEXT ( 'NONE', 'WORKASPACE' ) );
#110 = CARTESIAN_POINT ( 'NONE',  ( 0.000000000000000000, -0.8049999999999999378, 0.000000000000000000 ) ) ;
#111 = CARTESIAN_POINT ( 'NONE',  ( 4.420000000000000817, -0.3000000000000000444, 2.785545685073137712 ) ) ;
#112 = DIRECTION ( 'NONE',  ( -0.000000000000000000, -1.000000000000000000, 0.000000000000000000 ) ) ;
#113 = CARTESIAN_POINT ( 'NONE',  ( 5.320000000000001172, -0.2999999999999998779, 0.5999999999999987566 ) ) ;
#114 = CARTESIAN_POINT ( 'NONE',  ( 3.820000000000000284, -0.9000000000000001332, 2.927490250952647255 ) ) ;
#115 = CYLINDRICAL_SURFACE ( 'NONE', #556, 0.3000000000000000999 ) ;
#116 = DIRECTION ( 'NONE',  ( 0.000000000000000000, 1.000000000000000000, 0.000000000000000000 ) ) ;
#117 = EDGE_CURVE ( 'NONE', #61, #354, #159, .T. ) ;
#118 = DIRECTION ( 'NONE',  ( 1.400169662752707186E-14, 0.000000000000000000, -1.000000000000000000 ) ) ;
#119 = VECTOR ( 'NONE', #510, 100.0000000000000000 ) ;
#120 = ORIENTED_EDGE ( 'NONE', *, *, #3, .F. ) ;
#121 = DIRECTION ( 'NONE',  ( 1.000000000000000000, 0.000000000000000000, 1.239088197126290570E-16 ) ) ;
#122 = LINE ( 'NONE', #71, #455 ) ;
#123 = DIRECTION ( 'NONE',  ( -1.000000000000000000, 0.000000000000000000, 2.465190328815662439E-32 ) ) ;
#124 = ORIENTED_EDGE ( 'NONE', *, *, #464, .T. ) ;
#125 = LINE ( 'NONE', #460, #104 ) ;
#126 = VERTEX_POINT ( 'NONE', #456 ) ;
#127 = CARTESIAN_POINT ( 'NONE',  ( 0.000000000000000000, -0.3950000000000000178, 0.000000000000000000 ) ) ;
#128 = PRODUCT_DEFINITION ( 'UNKNOWN', '', #6, #516 ) ;
#129 = COLOUR_RGB ( '',1.000000000000000000, 1.000000000000000000, 1.000000000000000000 ) ;
#130 = VERTEX_POINT ( 'NONE', #110 ) ;
#131 = CARTESIAN_POINT ( 'NONE',  ( 8.400000000000002132, -1.199999999999999956, 2.500000000000000444 ) ) ;
#132 = EDGE_LOOP ( 'NONE', ( #508, #229, #471, #213 ) ) ;
#133 = DIRECTION ( 'NONE',  ( -1.000000000000000000, 0.000000000000000000, 4.098522498186961800E-16 ) ) ;
#134 = ORIENTED_EDGE ( 'NONE', *, *, #487, .F. ) ;
#135 = EDGE_CURVE ( 'NONE', #42, #397, #543, .T. ) ;
#136 = CARTESIAN_POINT ( 'NONE',  ( 1.399999999999999911, 0.000000000000000000, 2.499999999999999556 ) ) ;
#137 = AXIS2_PLACEMENT_3D ( 'NONE', #191, #232, #196 ) ;
#138 = VERTEX_POINT ( 'NONE', #164 ) ;
#139 = MECHANICAL_DESIGN_GEOMETRIC_PRESENTATION_REPRESENTATION (  '', ( #308 ), #109 ) ;
#140 = CARTESIAN_POINT ( 'NONE',  ( 1.399999999999999911, -1.199999999999999956, 2.499999999999999556 ) ) ;
#141 = EDGE_LOOP ( 'NONE', ( #484, #294, #348, #266 ) ) ;
#142 = UNCERTAINTY_MEASURE_WITH_UNIT (LENGTH_MEASURE( 1.000000000000000082E-05 ), #536, 'distance_accuracy_value', 'NONE');
#143 = LINE ( 'NONE', #228, #372 ) ;
#144 = ADVANCED_FACE ( 'NONE', ( #497 ), #370, .F. ) ;
#145 = ORIENTED_EDGE ( 'NONE', *, *, #351, .F. ) ;
#146 = EDGE_CURVE ( 'NONE', #354, #525, #382, .T. ) ;
#147 = ORIENTED_EDGE ( 'NONE', *, *, #260, .T. ) ;
#148 = AXIS2_PLACEMENT_3D ( 'NONE', #82, #30, #249 ) ;
#149 = DIRECTION ( 'NONE',  ( 1.000000000000000000, 0.000000000000000000, 2.065146995210481305E-17 ) ) ;
#150 = ADVANCED_FACE ( 'NONE', ( #545 ), #375, .F. ) ;
#151 = CARTESIAN_POINT ( 'NONE',  ( 8.253028186993979887, -1.199999999999999956, 1.878749815061832251 ) ) ;
#152 = ORIENTED_EDGE ( 'NONE', *, *, #365, .T. ) ;
#153 = CIRCLE ( 'NONE', #148, 0.2049999999999999600 ) ;
#154 = DIRECTION ( 'NONE',  ( -1.239088197126290570E-16, 0.000000000000000000, 1.000000000000000000 ) ) ;
#155 = LINE ( 'NONE', #417, #103 ) ;
#156 = DIRECTION ( 'NONE',  ( -1.239088197126290570E-16, 0.000000000000000000, 1.000000000000000000 ) ) ;
#157 = CARTESIAN_POINT ( 'NONE',  ( 0.000000000000000000, -1.199999999999999956, 5.000000000000000000 ) ) ;
#158 = VERTEX_POINT ( 'NONE', #458 ) ;
#159 = LINE ( 'NONE', #506, #483 ) ;
#160 = ADVANCED_FACE ( 'NONE', ( #328 ), #503, .F. ) ;
#161 = ORIENTED_EDGE ( 'NONE', *, *, #135, .T. ) ;
#162 = CARTESIAN_POINT ( 'NONE',  ( -0.2499999999999988343, -0.8049999999999999378, 2.395000000000000462 ) ) ;
#163 = AXIS2_PLACEMENT_3D ( 'NONE', #237, #419, #26 ) ;
#164 = CARTESIAN_POINT ( 'NONE',  ( 3.820000000000000284, -0.2999999999999998779, 2.927490250952647255 ) ) ;
#165 = AXIS2_PLACEMENT_3D ( 'NONE', #401, #193, #19 ) ;
#166 = ORIENTED_EDGE ( 'NONE', *, *, #396, .F. ) ;
#167 = CARTESIAN_POINT ( 'NONE',  ( 0.000000000000000000, -0.8049999999999999378, 0.000000000000000000 ) ) ;
#168 = ORIENTED_EDGE ( 'NONE', *, *, #87, .T. ) ;
#169 = EDGE_CURVE ( 'NONE', #447, #439, #194, .T. ) ;
#170 = CARTESIAN_POINT ( 'NONE',  ( 5.320000000000001172, -0.2999999999999998779, 0.5999999999999987566 ) ) ;
#171 = PLANE ( 'NONE',  #454 ) ;
#172 = PLANE ( 'NONE',  #16 ) ;
#173 = VECTOR ( 'NONE', #461, 100.0000000000000000 ) ;
#174 = ORIENTED_EDGE ( 'NONE', *, *, #231, .T. ) ;
#175 = DIRECTION ( 'NONE',  ( 0.000000000000000000, -1.000000000000000000, 0.000000000000000000 ) ) ;
#176 = CARTESIAN_POINT ( 'NONE',  ( 8.253028186993979887, -1.199999999999999956, 1.878749815061832251 ) ) ;
#177 = UNCERTAINTY_MEASURE_WITH_UNIT (LENGTH_MEASURE( 1.000000000000000082E-05 ), #32, 'distance_accuracy_value', 'NONE');
#178 = EDGE_CURVE ( 'NONE', #301, #226, #339, .T. ) ;
#179 = ORIENTED_EDGE ( 'NONE', *, *, #504, .T. ) ;
#180 = LINE ( 'NONE', #127, #474 ) ;
#181 = ORIENTED_EDGE ( 'NONE', *, *, #117, .T. ) ;
#182 = LINE ( 'NONE', #140, #278 ) ;
#183 = CARTESIAN_POINT ( 'NONE',  ( 5.320000000000001172, -0.5999999999999999778, 0.5999999999999987566 ) ) ;
#184 = ORIENTED_EDGE ( 'NONE', *, *, #251, .F. ) ;
#185 = CYLINDRICAL_SURFACE ( 'NONE', #402, 0.2049999999999999600 ) ;
#186 = VERTEX_POINT ( 'NONE', #511 ) ;
#187 = CARTESIAN_POINT ( 'NONE',  ( 4.719999999999999751, -0.2999999999999997669, 2.714573402133384050 ) ) ;
#188 = EDGE_CURVE ( 'NONE', #525, #224, #70, .T. ) ;
#189 = EDGE_LOOP ( 'NONE', ( #359, #77, #94, #432, #313, #50 ) ) ;
#190 = CARTESIAN_POINT ( 'NONE',  ( 15.77180766561834346, 0.000000000000000000, 0.1000000000000000888 ) ) ;
#191 = CARTESIAN_POINT ( 'NONE',  ( 3.820000000000000284, -0.5999999999999999778, 0.5999999999999984235 ) ) ;
#192 = VECTOR ( 'NONE', #247, 100.0000000000000000 ) ;
#193 = DIRECTION ( 'NONE',  ( -1.239088197126290570E-16, 0.000000000000000000, 1.000000000000000000 ) ) ;
#194 = LINE ( 'NONE', #549, #173 ) ;
#195 = DIRECTION ( 'NONE',  ( 1.000000000000000000, -0.000000000000000000, 1.239088197126290570E-16 ) ) ;
#196 = DIRECTION ( 'NONE',  ( 0.000000000000000000, -1.000000000000000000, 0.000000000000000000 ) ) ;
#197 = CARTESIAN_POINT ( 'NONE',  ( 0.08400000000000001910, -0.006000000000000000125, 0.02500000000000000486 ) ) ;
#198 = AXIS2_PLACEMENT_3D ( 'NONE', #466, #428, #500 ) ;
#199 = CARTESIAN_POINT ( 'NONE',  ( 0.000000000000000000, 0.000000000000000000, 5.000000000000000000 ) ) ;
#200 = CARTESIAN_POINT ( 'NONE',  ( 1.399999999999999911, -1.199999999999999956, 3.500000000000002220 ) ) ;
#201 = CYLINDRICAL_SURFACE ( 'NONE', #137, 0.3000000000000000999 ) ;
#202 = CARTESIAN_POINT ( 'NONE',  ( 3.220000000000000195, -0.8999999999999999112, 3.069434816832156798 ) ) ;
#203 = ADVANCED_FACE ( 'NONE', ( #293 ), #115, .F. ) ;
#204 = CARTESIAN_POINT ( 'NONE',  ( 0.000000000000000000, -1.199999999999999956, 5.000000000000000000 ) ) ;
#205 = ORIENTED_EDGE ( 'NONE', *, *, #3, .T. ) ;
#206 = CARTESIAN_POINT ( 'NONE',  ( 3.820000000000000284, -0.5999999999999999778, 0.5999999999999984235 ) ) ;
#207 = CARTESIAN_POINT ( 'NONE',  ( 8.400000000000002132, -0.3950000000000000178, 2.500000000000000444 ) ) ;
#208 = ORIENTED_EDGE ( 'NONE', *, *, #312, .T. ) ;
#209 = DIRECTION ( 'NONE',  ( -2.065146995210482230E-17, 0.000000000000000000, 1.000000000000000000 ) ) ;
#210 = VECTOR ( 'NONE', #310, 100.0000000000000000 ) ;
#211 = VERTEX_POINT ( 'NONE', #244 ) ;
#212 = CARTESIAN_POINT ( 'NONE',  ( 5.320000000000000284, -0.2999999999999998779, 2.572628836253874063 ) ) ;
#213 = ORIENTED_EDGE ( 'NONE', *, *, #169, .F. ) ;
#214 = CARTESIAN_POINT ( 'NONE',  ( 0.000000000000000000, -1.199999999999999956, 0.000000000000000000 ) ) ;
#215 = VERTEX_POINT ( 'NONE', #31 ) ;
#216 = DIRECTION ( 'NONE',  ( -1.239088197126290570E-16, 0.000000000000000000, 1.000000000000000000 ) ) ;
#217 = CARTESIAN_POINT ( 'NONE',  ( 8.400000000000002132, -0.8049999999999999378, 2.500000000000000444 ) ) ;
#218 = AXIS2_PLACEMENT_3D ( 'NONE', #289, #154, #555 ) ;
#219 = ORIENTED_EDGE ( 'NONE', *, *, #178, .T. ) ;
#220 = DIRECTION ( 'NONE',  ( -0.000000000000000000, -1.000000000000000000, 0.000000000000000000 ) ) ;
#221 = ORIENTED_EDGE ( 'NONE', *, *, #540, .F. ) ;
#222 = CARTESIAN_POINT ( 'NONE',  ( 15.77180766561834346, -1.199999999999999956, 0.1000000000000000888 ) ) ;
#223 = DIRECTION ( 'NONE',  ( 1.000000000000000000, 0.000000000000000000, 1.239088197126290570E-16 ) ) ;
#224 = VERTEX_POINT ( 'NONE', #204 ) ;
#225 =( NAMED_UNIT ( * ) PLANE_ANGLE_UNIT ( ) SI_UNIT ( $, .RADIAN. ) );
#226 = VERTEX_POINT ( 'NONE', #552 ) ;
#227 = VECTOR ( 'NONE', #378, 100.0000000000000000 ) ;
#228 = CARTESIAN_POINT ( 'NONE',  ( 16.80000000000000071, 0.000000000000000000, 0.000000000000000000 ) ) ;
#229 = ORIENTED_EDGE ( 'NONE', *, *, #396, .T. ) ;
#230 = FACE_OUTER_BOUND ( 'NONE', #270, .T. ) ;
#231 = EDGE_CURVE ( 'NONE', #304, #138, #334, .T. ) ;
#232 = DIRECTION ( 'NONE',  ( -1.239088197126290570E-16, 0.000000000000000000, 1.000000000000000000 ) ) ;
#233 = DIRECTION ( 'NONE',  ( -1.239088197126290570E-16, 0.000000000000000000, 1.000000000000000000 ) ) ;
#234 = CARTESIAN_POINT ( 'NONE',  ( 5.320000000000000284, -0.2999999999999998779, 2.572628836253874063 ) ) ;
#235 = DIRECTION ( 'NONE',  ( 0.000000000000000000, 0.000000000000000000, -1.000000000000000000 ) ) ;
#236 = CARTESIAN_POINT ( 'NONE',  ( 8.253028186993979887, 0.000000000000000000, 1.878749815061832251 ) ) ;
#237 = CARTESIAN_POINT ( 'NONE',  ( 5.320000000000001172, -0.5999999999999999778, 0.5999999999999987566 ) ) ;
#238 = EDGE_CURVE ( 'NONE', #126, #336, #80, .T. ) ;
#239 = FACE_OUTER_BOUND ( 'NONE', #537, .T. ) ;
#240 = DIRECTION ( 'NONE',  ( -1.239088197126290570E-16, 0.000000000000000000, 1.000000000000000000 ) ) ;
#241 = VECTOR ( 'NONE', #472, 100.0000000000000000 ) ;
#242 =( GEOMETRIC_REPRESENTATION_CONTEXT ( 3 ) GLOBAL_UNCERTAINTY_ASSIGNED_CONTEXT ( ( #177 ) ) GLOBAL_UNIT_ASSIGNED_CONTEXT ( ( #32, #78, #285 ) ) REPRESENTATION_CONTEXT ( 'NONE', 'WORKASPACE' ) );
#243 = LINE ( 'NONE', #282, #519 ) ;
#244 = CARTESIAN_POINT ( 'NONE',  ( 3.820000000000000284, -0.9000000000000001332, 0.5999999999999984235 ) ) ;
#245 = DIRECTION ( 'NONE',  ( 0.000000000000000000, 1.000000000000000000, 0.000000000000000000 ) ) ;
#246 = ADVANCED_FACE ( 'NONE', ( #420 ), #292, .T. ) ;
#247 = DIRECTION ( 'NONE',  ( -1.239088197126290570E-16, 0.000000000000000000, 1.000000000000000000 ) ) ;
#248 = ORIENTED_EDGE ( 'NONE', *, *, #300, .F. ) ;
#249 = DIRECTION ( 'NONE',  ( 0.000000000000000000, 1.000000000000000000, 0.000000000000000000 ) ) ;
#250 = CARTESIAN_POINT ( 'NONE',  ( 3.820000000000000284, -0.5999999999999999778, 0.5999999999999984235 ) ) ;
#251 = EDGE_CURVE ( 'NONE', #533, #186, #122, .T. ) ;
#252 = ORIENTED_EDGE ( 'NONE', *, *, #504, .F. ) ;
#253 = DIRECTION ( 'NONE',  ( 1.239088197126290570E-16, -0.000000000000000000, -1.000000000000000000 ) ) ;
#254 = VECTOR ( 'NONE', #350, 100.0000000000000142 ) ;
#255 = PRESENTATION_LAYER_ASSIGNMENT (  '', '', ( #85 ) ) ;
#256 = ORIENTED_EDGE ( 'NONE', *, *, #548, .F. ) ;
#257 = ORIENTED_EDGE ( 'NONE', *, *, #238, .T. ) ;
#258 = CARTESIAN_POINT ( 'NONE',  ( 5.320000000000000284, -0.9000000000000001332, 2.572628836253874063 ) ) ;
#259 = ORIENTED_EDGE ( 'NONE', *, *, #60, .F. ) ;
#260 = EDGE_CURVE ( 'NONE', #224, #336, #125, .T. ) ;
#261 = DIRECTION ( 'NONE',  ( -1.239088197126290570E-16, 0.000000000000000000, 1.000000000000000000 ) ) ;
#262 = VECTOR ( 'NONE', #245, 100.0000000000000000 ) ;
#263 = ORIENTED_EDGE ( 'NONE', *, *, #283, .T. ) ;
#264 = CARTESIAN_POINT ( 'NONE',  ( 5.920000000000000817, -0.3000000000000000444, 2.430684270374364964 ) ) ;
#265 = PRODUCT_DEFINITION_SHAPE ( 'NONE', 'NONE',  #128 ) ;
#266 = ORIENTED_EDGE ( 'NONE', *, *, #409, .T. ) ;
#267 = LINE ( 'NONE', #236, #5 ) ;
#268 = DIRECTION ( 'NONE',  ( 0.000000000000000000, 1.000000000000000000, 0.000000000000000000 ) ) ;
#269 = PRODUCT_RELATED_PRODUCT_CATEGORY ( 'part', '', ( #324 ) ) ;
#270 = EDGE_LOOP ( 'NONE', ( #97, #53, #443, #208 ) ) ;
#271 = CARTESIAN_POINT ( 'NONE',  ( 4.719999999999999751, -0.8999999999999999112, 2.714573402133384050 ) ) ;
#272 = EDGE_LOOP ( 'NONE', ( #404, #161, #389, #343 ) ) ;
#273 = VECTOR ( 'NONE', #195, 100.0000000000000000 ) ;
#274 = ORIENTED_EDGE ( 'NONE', *, *, #96, .T. ) ;
#275 = EDGE_CURVE ( 'NONE', #130, #447, #326, .T. ) ;
#276 = SURFACE_STYLE_USAGE ( .BOTH. , #406 ) ;
#277 = FACE_OUTER_BOUND ( 'NONE', #290, .T. ) ;
#278 = VECTOR ( 'NONE', #98, 100.0000000000000000 ) ;
#279 =( BOUNDED_CURVE ( )  B_SPLINE_CURVE ( 3, ( #330, #502, #202, #114 ),
 .UNSPECIFIED., .F., .T. ) 
 B_SPLINE_CURVE_WITH_KNOTS ( ( 4, 4 ),
 ( 4.712388980384689674, 7.853981633974482790 ),
 .UNSPECIFIED. ) 
 CURVE ( )  GEOMETRIC_REPRESENTATION_ITEM ( )  RATIONAL_B_SPLINE_CURVE ( ( 1.000000000000000000, 0.3333333333333333703, 0.3333333333333333703, 1.000000000000000000 ) ) 
 REPRESENTATION_ITEM ( '' )  );
#280 = FACE_BOUND ( 'NONE', #306, .T. ) ;
#281 = EDGE_CURVE ( 'NONE', #65, #397, #153, .T. ) ;
#282 = CARTESIAN_POINT ( 'NONE',  ( 16.80000000000000071, -1.199999999999999956, 5.000000000000000000 ) ) ;
#283 = EDGE_CURVE ( 'NONE', #65, #130, #385, .T. ) ;
#284 = DIRECTION ( 'NONE',  ( -1.239088197126290570E-16, 0.000000000000000000, 1.000000000000000000 ) ) ;
#285 =( NAMED_UNIT ( * ) SI_UNIT ( $, .STERADIAN. ) SOLID_ANGLE_UNIT ( ) );
#286 = CARTESIAN_POINT ( 'NONE',  ( 3.820000000000000284, -0.2999999999999998779, 0.5999999999999984235 ) ) ;
#287 = AXIS2_PLACEMENT_3D ( 'NONE', #89, #133, #399 ) ;
#288 = DIRECTION ( 'NONE',  ( 1.000000000000000000, 0.000000000000000000, 1.239088197126290570E-16 ) ) ;
#289 = CARTESIAN_POINT ( 'NONE',  ( 5.320000000000001172, -0.5999999999999999778, 0.5999999999999987566 ) ) ;
#290 = EDGE_LOOP ( 'NONE', ( #221, #352, #340, #54, #493, #8, #518, #527 ) ) ;
#291 = EDGE_CURVE ( 'NONE', #211, #535, #434, .T. ) ;
#292 = PLANE ( 'NONE',  #449 ) ;
#293 = FACE_OUTER_BOUND ( 'NONE', #363, .T. ) ;
#294 = ORIENTED_EDGE ( 'NONE', *, *, #464, .F. ) ;
#295 = DIRECTION ( 'NONE',  ( 0.000000000000000000, -1.000000000000000000, 0.000000000000000000 ) ) ;
#296 = EDGE_LOOP ( 'NONE', ( #393, #152, #102, #40 ) ) ;
#297 = CARTESIAN_POINT ( 'NONE',  ( -0.2500000000000002220, -0.3950000000000000178, 0.000000000000000000 ) ) ;
#298 = CLOSED_SHELL ( 'NONE', ( #203, #160, #557, #335, #362, #413, #530, #453, #416, #479, #144, #246, #106, #379, #150, #20, #35, #52 ) ) ;
#299 = VECTOR ( 'NONE', #342, 100.0000000000000000 ) ;
#300 = EDGE_CURVE ( 'NONE', #61, #512, #374, .T. ) ;
#301 = VERTEX_POINT ( 'NONE', #41 ) ;
#302 = CARTESIAN_POINT ( 'NONE',  ( 15.77180766561830971, -1.199999999999999956, 2.500000000000103917 ) ) ;
#303 = EDGE_CURVE ( 'NONE', #447, #361, #505, .T. ) ;
#304 = VERTEX_POINT ( 'NONE', #286 ) ;
#305 = DIRECTION ( 'NONE',  ( -0.000000000000000000, 1.000000000000000000, 0.000000000000000000 ) ) ;
#306 = EDGE_LOOP ( 'NONE', ( #561, #380 ) ) ;
#307 = LINE ( 'NONE', #176, #254 ) ;
#308 = STYLED_ITEM ( 'NONE', ( #451 ), #517 ) ;
#309 = ORIENTED_EDGE ( 'NONE', *, *, #355, .F. ) ;
#310 = DIRECTION ( 'NONE',  ( 1.239088197126290570E-16, -0.000000000000000000, -1.000000000000000000 ) ) ;
#311 = FACE_OUTER_BOUND ( 'NONE', #391, .T. ) ;
#312 = EDGE_CURVE ( 'NONE', #535, #138, #91, .T. ) ;
#313 = ORIENTED_EDGE ( 'NONE', *, *, #117, .F. ) ;
#314 = LINE ( 'NONE', #538, #498 ) ;
#315 = ORIENTED_EDGE ( 'NONE', *, *, #409, .F. ) ;
#316 = CIRCLE ( 'NONE', #539, 0.3000000000000000999 ) ;
#317 = COLOUR_RGB ( '',0.6941176470588235059, 0.09803921568627450844, 0.09803921568627450844 ) ;
#318 = SURFACE_STYLE_FILL_AREA ( #15 ) ;
#319 = CARTESIAN_POINT ( 'NONE',  ( 0.000000000000000000, -1.199999999999999956, 0.000000000000000000 ) ) ;
#320 = DIRECTION ( 'NONE',  ( 1.400169662752707186E-14, 0.000000000000000000, -1.000000000000000000 ) ) ;
#321 = LINE ( 'NONE', #496, #433 ) ;
#322 = EDGE_CURVE ( 'NONE', #224, #533, #243, .T. ) ;
#323 = FACE_OUTER_BOUND ( 'NONE', #296, .T. ) ;
#324 = PRODUCT ( 'ramp-wall-half_60', 'ramp-wall-half_60', '', ( #457 ) ) ;
#325 = VECTOR ( 'NONE', #482, 100.0000000000000000 ) ;
#326 = LINE ( 'NONE', #167, #241 ) ;
#327 = EDGE_CURVE ( 'NONE', #138, #535, #279, .T. ) ;
#328 = FACE_OUTER_BOUND ( 'NONE', #435, .T. ) ;
#329 = LINE ( 'NONE', #332, #93 ) ;
#330 = CARTESIAN_POINT ( 'NONE',  ( 3.820000000000000284, -0.2999999999999998779, 2.927490250952647255 ) ) ;
#331 = DIRECTION ( 'NONE',  ( 0.2302195854387861507, 0.000000000000000000, 0.9731387067013589354 ) ) ;
#332 = CARTESIAN_POINT ( 'NONE',  ( 8.400000000000002132, -0.8049999999999999378, 2.395000000000001350 ) ) ;
#333 = CARTESIAN_POINT ( 'NONE',  ( 0.000000000000000000, 0.000000000000000000, 5.000000000000000000 ) ) ;
#334 = LINE ( 'NONE', #34, #192 ) ;
#335 = ADVANCED_FACE ( 'NONE', ( #239 ), #425, .T. ) ;
#336 = VERTEX_POINT ( 'NONE', #333 ) ;
#337 = VECTOR ( 'NONE', #240, 100.0000000000000000 ) ;
#338 = CARTESIAN_POINT ( 'NONE',  ( -0.2500000000000002220, -0.8049999999999999378, 0.000000000000000000 ) ) ;
#339 = LINE ( 'NONE', #200, #227 ) ;
#340 = ORIENTED_EDGE ( 'NONE', *, *, #146, .T. ) ;
#341 = APPLICATION_PROTOCOL_DEFINITION ( 'draft international standard', 'automotive_design', 1998, #395 ) ;
#342 = DIRECTION ( 'NONE',  ( -1.239088197126290570E-16, 0.000000000000000000, 1.000000000000000000 ) ) ;
#343 = ORIENTED_EDGE ( 'NONE', *, *, #431, .T. ) ;
#344 = DIRECTION ( 'NONE',  ( -1.239088197126290570E-16, 0.000000000000000000, 1.000000000000000000 ) ) ;
#345 = ORIENTED_EDGE ( 'NONE', *, *, #251, .T. ) ;
#346 = PLANE ( 'NONE',  #441 ) ;
#347 = VECTOR ( 'NONE', #123, 100.0000000000000000 ) ;
#348 = ORIENTED_EDGE ( 'NONE', *, *, #548, .T. ) ;
#349 = LINE ( 'NONE', #522, #210 ) ;
#350 = DIRECTION ( 'NONE',  ( 0.9731387067013588243, 0.000000000000000000, -0.2302195854387860674 ) ) ;
#351 = EDGE_CURVE ( 'NONE', #158, #126, #465, .T. ) ;
#352 = ORIENTED_EDGE ( 'NONE', *, *, #14, .F. ) ;
#353 = CARTESIAN_POINT ( 'NONE',  ( 8.400000000000002132, 0.000000000000000000, 2.500000000000000444 ) ) ;
#354 = VERTEX_POINT ( 'NONE', #427 ) ;
#355 = EDGE_CURVE ( 'NONE', #304, #211, #316, .T. ) ;
#356 = CARTESIAN_POINT ( 'NONE',  ( 0.000000000000000000, -0.8049999999999999378, 2.395000000000000462 ) ) ;
#357 = CARTESIAN_POINT ( 'NONE',  ( -0.2500000000000002220, -0.8049999999999999378, 0.000000000000000000 ) ) ;
#358 =( BOUNDED_CURVE ( )  B_SPLINE_CURVE ( 3, ( #494, #187, #271, #62 ),
 .UNSPECIFIED., .F., .T. ) 
 B_SPLINE_CURVE_WITH_KNOTS ( ( 4, 4 ),
 ( 4.712388980384689674, 7.853981633974482790 ),
 .UNSPECIFIED. ) 
 CURVE ( )  GEOMETRIC_REPRESENTATION_ITEM ( )  RATIONAL_B_SPLINE_CURVE ( ( 1.000000000000000000, 0.3333333333333333703, 0.3333333333333333703, 1.000000000000000000 ) ) 
 REPRESENTATION_ITEM ( '' )  );
#359 = ORIENTED_EDGE ( 'NONE', *, *, #87, .F. ) ;
#360 = DIRECTION ( 'NONE',  ( 0.000000000000000000, -1.000000000000000000, 0.000000000000000000 ) ) ;
#361 = VERTEX_POINT ( 'NONE', #162 ) ;
#362 = ADVANCED_FACE ( 'NONE', ( #392 ), #562, .F. ) ;
#363 = EDGE_LOOP ( 'NONE', ( #309, #174, #429, #553 ) ) ;
#364 = SURFACE_SIDE_STYLE ('',( #318 ) ) ;
#365 = EDGE_CURVE ( 'NONE', #301, #61, #307, .T. ) ;
#366 = CIRCLE ( 'NONE', #384, 0.3000000000000000999 ) ;
#367 = CARTESIAN_POINT ( 'NONE',  ( 3.820000000000000284, -0.9000000000000001332, 2.927490250952647255 ) ) ;
#368 = FACE_BOUND ( 'NONE', #514, .T. ) ;
#369 = DIRECTION ( 'NONE',  ( 4.098522498186961307E-16, 0.000000000000000000, 1.000000000000000000 ) ) ;
#370 = PLANE ( 'NONE',  #27 ) ;
#371 = CARTESIAN_POINT ( 'NONE',  ( -0.2499999999999988343, -0.3950000000000000178, 2.395000000000000462 ) ) ;
#372 = VECTOR ( 'NONE', #24, 100.0000000000000000 ) ;
#373 = DIRECTION ( 'NONE',  ( -1.000000000000000000, 0.000000000000000000, 0.000000000000000000 ) ) ;
#374 = LINE ( 'NONE', #430, #119 ) ;
#375 = CYLINDRICAL_SURFACE ( 'NONE', #218, 0.3000000000000000999 ) ;
#376 = PLANE ( 'NONE',  #163 ) ;
#377 = DIRECTION ( 'NONE',  ( 1.000000000000000000, 0.000000000000000000, 2.065146995210482230E-17 ) ) ;
#378 = DIRECTION ( 'NONE',  ( 0.000000000000000000, 1.000000000000000000, 0.000000000000000000 ) ) ;
#379 = ADVANCED_FACE ( 'NONE', ( #311 ), #436, .T. ) ;
#380 = ORIENTED_EDGE ( 'NONE', *, *, #327, .F. ) ;
#381 = DIRECTION ( 'NONE',  ( -1.239088197126290570E-16, 0.000000000000000000, 1.000000000000000000 ) ) ;
#382 = LINE ( 'NONE', #470, #347 ) ;
#383 = ORIENTED_EDGE ( 'NONE', *, *, #495, .F. ) ;
#384 = AXIS2_PLACEMENT_3D ( 'NONE', #183, #261, #446 ) ;
#385 = LINE ( 'NONE', #69, #546 ) ;
#386 = VERTEX_POINT ( 'NONE', #170 ) ;
#387 = EDGE_CURVE ( 'NONE', #211, #304, #56, .T. ) ;
#388 = CARTESIAN_POINT ( 'NONE',  ( -0.2500000000000002220, -0.8049999999999999378, 0.000000000000000000 ) ) ;
#389 = ORIENTED_EDGE ( 'NONE', *, *, #60, .T. ) ;
#390 = CARTESIAN_POINT ( 'NONE',  ( 0.000000000000000000, -1.199999999999999956, 5.000000000000000000 ) ) ;
#391 = EDGE_LOOP ( 'NONE', ( #248, #181, #17, #13 ) ) ;
#392 = FACE_OUTER_BOUND ( 'NONE', #189, .T. ) ;
#393 = ORIENTED_EDGE ( 'NONE', *, *, #178, .F. ) ;
#394 = DIRECTION ( 'NONE',  ( -1.000000000000000000, 0.000000000000000000, -1.239088197126290570E-16 ) ) ;
#395 = APPLICATION_CONTEXT ( 'automotive_design' ) ;
#396 = EDGE_CURVE ( 'NONE', #361, #42, #492, .T. ) ;
#397 = VERTEX_POINT ( 'NONE', #440 ) ;
#398 = DIRECTION ( 'NONE',  ( 4.098522498186961307E-16, 0.000000000000000000, 1.000000000000000000 ) ) ;
#399 = DIRECTION ( 'NONE',  ( 4.231032868236115911E-16, 0.000000000000000000, 1.000000000000000000 ) ) ;
#400 = EDGE_LOOP ( 'NONE', ( #558, #263, #57, #84, #147, #36, #145, #259 ) ) ;
#401 = CARTESIAN_POINT ( 'NONE',  ( 5.320000000000001172, -0.5999999999999999778, 0.5999999999999987566 ) ) ;
#402 = AXIS2_PLACEMENT_3D ( 'NONE', #408, #108, #360 ) ;
#403 = MECHANICAL_DESIGN_GEOMETRIC_PRESENTATION_REPRESENTATION (  '', ( #85 ), #509 ) ;
#404 = ORIENTED_EDGE ( 'NONE', *, *, #74, .T. ) ;
#405 = UNCERTAINTY_MEASURE_WITH_UNIT (LENGTH_MEASURE( 1.000000000000000082E-05 ), #534, 'distance_accuracy_value', 'NONE');
#406 = SURFACE_SIDE_STYLE ('',( #101 ) ) ;
#407 = ORIENTED_EDGE ( 'NONE', *, *, #387, .T. ) ;
#408 = CARTESIAN_POINT ( 'NONE',  ( -0.2499999999999988343, -0.5999999999999999778, 2.395000000000000462 ) ) ;
#409 = EDGE_CURVE ( 'NONE', #215, #4, #51, .T. ) ;
#410 = EDGE_LOOP ( 'NONE', ( #100, #166, #120, #478 ) ) ;
#411 =( NAMED_UNIT ( * ) SI_UNIT ( $, .STERADIAN. ) SOLID_ANGLE_UNIT ( ) );
#412 = VECTOR ( 'NONE', #320, 100.0000000000000000 ) ;
#413 = ADVANCED_FACE ( 'NONE', ( #444 ), #515, .T. ) ;
#414 = CIRCLE ( 'NONE', #165, 0.3000000000000000999 ) ;
#415 = CARTESIAN_POINT ( 'NONE',  ( 1.399999999999999911, -1.199999999999999956, 5.000000000000002665 ) ) ;
#416 = ADVANCED_FACE ( 'NONE', ( #486 ), #99, .T. ) ;
#417 = CARTESIAN_POINT ( 'NONE',  ( 15.77180766561834346, -1.199999999999999956, 0.000000000000000000 ) ) ;
#418 = DIRECTION ( 'NONE',  ( 0.9731387067013588243, 0.000000000000000000, -0.2302195854387860674 ) ) ;
#419 = DIRECTION ( 'NONE',  ( -1.239088197126290570E-16, 0.000000000000000000, 1.000000000000000000 ) ) ;
#420 = FACE_OUTER_BOUND ( 'NONE', #450, .T. ) ;
#421 = DIRECTION ( 'NONE',  ( -1.239088197126290570E-16, 0.000000000000000000, 1.000000000000000000 ) ) ;
#422 = ORIENTED_EDGE ( 'NONE', *, *, #355, .T. ) ;
#423 = AXIS2_PLACEMENT_3D ( 'NONE', #302, #475, #92 ) ;
#424 = AXIS2_PLACEMENT_3D ( 'NONE', #33, #209, #377 ) ;
#425 = PLANE ( 'NONE',  #424 ) ;
#426 = DIRECTION ( 'NONE',  ( 0.000000000000000000, -1.000000000000000000, 0.000000000000000000 ) ) ;
#427 = CARTESIAN_POINT ( 'NONE',  ( 15.77180766561834346, -1.199999999999999956, 0.000000000000000000 ) ) ;
#428 = DIRECTION ( 'NONE',  ( -1.239088197126290570E-16, 0.000000000000000000, 1.000000000000000000 ) ) ;
#429 = ORIENTED_EDGE ( 'NONE', *, *, #327, .T. ) ;
#430 = CARTESIAN_POINT ( 'NONE',  ( 15.77180766561834346, -1.199999999999999956, 0.1000000000000000888 ) ) ;
#431 = EDGE_CURVE ( 'NONE', #158, #439, #180, .T. ) ;
#432 = ORIENTED_EDGE ( 'NONE', *, *, #146, .F. ) ;
#433 = VECTOR ( 'NONE', #149, 100.0000000000000000 ) ;
#434 = LINE ( 'NONE', #499, #507 ) ;
#435 = EDGE_LOOP ( 'NONE', ( #252, #521, #44, #256 ) ) ;
#436 = PLANE ( 'NONE',  #423 ) ;
#437 = ORIENTED_EDGE ( 'NONE', *, *, #524, .T. ) ;
#438 = DIRECTION ( 'NONE',  ( -1.000000000000000000, 0.000000000000000000, -1.239088197126290570E-16 ) ) ;
#439 = VERTEX_POINT ( 'NONE', #297 ) ;
#440 = CARTESIAN_POINT ( 'NONE',  ( 0.000000000000000000, -0.3950000000000000178, 2.395000000000000462 ) ) ;
#441 = AXIS2_PLACEMENT_3D ( 'NONE', #217, #220, #394 ) ;
#442 = EDGE_CURVE ( 'NONE', #525, #130, #86, .T. ) ;
#443 = ORIENTED_EDGE ( 'NONE', *, *, #291, .T. ) ;
#444 = FACE_OUTER_BOUND ( 'NONE', #28, .T. ) ;
#445 = ORIENTED_EDGE ( 'NONE', *, *, #7, .T. ) ;
#446 = DIRECTION ( 'NONE',  ( 0.000000000000000000, -1.000000000000000000, 0.000000000000000000 ) ) ;
#447 = VERTEX_POINT ( 'NONE', #357 ) ;
#448 =( NAMED_UNIT ( * ) SI_UNIT ( $, .STERADIAN. ) SOLID_ANGLE_UNIT ( ) );
#449 = AXIS2_PLACEMENT_3D ( 'NONE', #469, #288, #295 ) ;
#450 = EDGE_LOOP ( 'NONE', ( #184, #168, #219, #134 ) ) ;
#451 = PRESENTATION_STYLE_ASSIGNMENT (( #107 ) ) ;
#452 = PLANE ( 'NONE',  #29 ) ;
#453 = ADVANCED_FACE ( 'NONE', ( #49 ), #172, .T. ) ;
#454 = AXIS2_PLACEMENT_3D ( 'NONE', #46, #216, #175 ) ;
#455 = VECTOR ( 'NONE', #513, 100.0000000000000000 ) ;
#456 = CARTESIAN_POINT ( 'NONE',  ( 0.000000000000000000, 0.000000000000000000, 0.000000000000000000 ) ) ;
#457 = PRODUCT_CONTEXT ( 'NONE', #462, 'mechanical' ) ;
#458 = CARTESIAN_POINT ( 'NONE',  ( 0.000000000000000000, -0.3950000000000000178, 0.000000000000000000 ) ) ;
#459 = DIRECTION ( 'NONE',  ( 0.000000000000000000, 1.000000000000000000, -0.000000000000000000 ) ) ;
#460 = CARTESIAN_POINT ( 'NONE',  ( 0.000000000000000000, -1.199999999999999956, 5.000000000000000000 ) ) ;
#461 = DIRECTION ( 'NONE',  ( 0.000000000000000000, 1.000000000000000000, 0.000000000000000000 ) ) ;
#462 = APPLICATION_CONTEXT ( 'automotive_design' ) ;
#463 = AXIS2_PLACEMENT_3D ( 'NONE', #131, #523, #223 ) ;
#464 = EDGE_CURVE ( 'NONE', #81, #386, #366, .T. ) ;
#465 = LINE ( 'NONE', #75, #262 ) ;
#466 = CARTESIAN_POINT ( 'NONE',  ( 5.320000000000001172, -0.5999999999999999778, 0.5999999999999987566 ) ) ;
#467 = ORIENTED_EDGE ( 'NONE', *, *, #524, .F. ) ;
#468 = CARTESIAN_POINT ( 'NONE',  ( 16.80000000000000071, -1.199999999999999956, 0.000000000000000000 ) ) ;
#469 = CARTESIAN_POINT ( 'NONE',  ( 1.399999999999999911, -1.199999999999999956, 2.499999999999999556 ) ) ;
#470 = CARTESIAN_POINT ( 'NONE',  ( 16.80000000000000071, -1.199999999999999956, 0.000000000000000000 ) ) ;
#471 = ORIENTED_EDGE ( 'NONE', *, *, #74, .F. ) ;
#472 = DIRECTION ( 'NONE',  ( -1.000000000000000000, 0.000000000000000000, -1.239088197126290570E-16 ) ) ;
#473 = EDGE_LOOP ( 'NONE', ( #407, #422 ) ) ;
#474 = VECTOR ( 'NONE', #438, 100.0000000000000000 ) ;
#475 = DIRECTION ( 'NONE',  ( 1.000000000000000000, 0.000000000000000000, 1.400169662752707028E-14 ) ) ;
#476 = EDGE_LOOP ( 'NONE', ( #90, #205, #550, #18 ) ) ;
#477 = DIRECTION ( 'NONE',  ( 0.000000000000000000, -1.000000000000000000, 0.000000000000000000 ) ) ;
#478 = ORIENTED_EDGE ( 'NONE', *, *, #281, .T. ) ;
#479 = ADVANCED_FACE ( 'NONE', ( #531 ), #346, .T. ) ;
#480 = DIRECTION ( 'NONE',  ( -1.000000000000000000, 0.000000000000000000, 4.098522498186961307E-16 ) ) ;
#481 = VERTEX_POINT ( 'NONE', #9 ) ;
#482 = DIRECTION ( 'NONE',  ( 1.239088197126290570E-16, 0.000000000000000000, -1.000000000000000000 ) ) ;
#483 = VECTOR ( 'NONE', #118, 100.0000000000000000 ) ;
#484 = ORIENTED_EDGE ( 'NONE', *, *, #45, .F. ) ;
#485 = LINE ( 'NONE', #529, #528 ) ;
#486 = FACE_OUTER_BOUND ( 'NONE', #132, .T. ) ;
#487 = EDGE_CURVE ( 'NONE', #186, #226, #526, .T. ) ;
#488 = ORIENTED_EDGE ( 'NONE', *, *, #487, .T. ) ;
#489 = FILL_AREA_STYLE ('',( #542 ) ) ;
#490 = ORIENTED_EDGE ( 'NONE', *, *, #540, .T. ) ;
#491 =( NAMED_UNIT ( * ) PLANE_ANGLE_UNIT ( ) SI_UNIT ( $, .RADIAN. ) );
#492 = CIRCLE ( 'NONE', #287, 0.2049999999999999600 ) ;
#493 = ORIENTED_EDGE ( 'NONE', *, *, #275, .T. ) ;
#494 = CARTESIAN_POINT ( 'NONE',  ( 5.320000000000000284, -0.2999999999999998779, 2.572628836253874063 ) ) ;
#495 = EDGE_CURVE ( 'NONE', #4, #215, #358, .T. ) ;
#496 = CARTESIAN_POINT ( 'NONE',  ( 16.80000000000000071, 0.000000000000000000, 5.000000000000000000 ) ) ;
#497 = FACE_OUTER_BOUND ( 'NONE', #272, .T. ) ;
#498 = VECTOR ( 'NONE', #233, 100.0000000000000000 ) ;
#499 = CARTESIAN_POINT ( 'NONE',  ( 3.820000000000000284, -0.9000000000000001332, 0.5999999999999984235 ) ) ;
#500 = DIRECTION ( 'NONE',  ( 0.000000000000000000, -1.000000000000000000, 0.000000000000000000 ) ) ;
#501 = LINE ( 'NONE', #113, #63 ) ;
#502 = CARTESIAN_POINT ( 'NONE',  ( 3.220000000000000195, -0.2999999999999997669, 3.069434816832156798 ) ) ;
#503 = CYLINDRICAL_SURFACE ( 'NONE', #198, 0.3000000000000000999 ) ;
#504 = EDGE_CURVE ( 'NONE', #386, #81, #414, .T. ) ;
#505 = LINE ( 'NONE', #338, #64 ) ;
#506 = CARTESIAN_POINT ( 'NONE',  ( 15.77180766561830971, -1.199999999999999956, 2.500000000000103917 ) ) ;
#507 = VECTOR ( 'NONE', #156, 100.0000000000000000 ) ;
#508 = ORIENTED_EDGE ( 'NONE', *, *, #303, .T. ) ;
#509 =( GEOMETRIC_REPRESENTATION_CONTEXT ( 3 ) GLOBAL_UNCERTAINTY_ASSIGNED_CONTEXT ( ( #142 ) ) GLOBAL_UNIT_ASSIGNED_CONTEXT ( ( #536, #491, #411 ) ) REPRESENTATION_CONTEXT ( 'NONE', 'WORKASPACE' ) );
#510 = DIRECTION ( 'NONE',  ( 0.000000000000000000, 1.000000000000000000, 0.000000000000000000 ) ) ;
#511 = CARTESIAN_POINT ( 'NONE',  ( 1.399999999999999911, 0.000000000000000000, 5.000000000000002665 ) ) ;
#512 = VERTEX_POINT ( 'NONE', #190 ) ;
#513 = DIRECTION ( 'NONE',  ( 0.000000000000000000, 1.000000000000000000, 0.000000000000000000 ) ) ;
#514 = EDGE_LOOP ( 'NONE', ( #315, #383 ) ) ;
#515 = PLANE ( 'NONE',  #73 ) ;
#516 = PRODUCT_DEFINITION_CONTEXT ( 'detailed design', #395, 'design' ) ;
#517 = MANIFOLD_SOLID_BREP ( 'Cut-Extrude2', #298 ) ;
#518 = ORIENTED_EDGE ( 'NONE', *, *, #431, .F. ) ;
#519 = VECTOR ( 'NONE', #38, 100.0000000000000000 ) ;
#520 = CARTESIAN_POINT ( 'NONE',  ( 3.820000000000000284, -0.5999999999999999778, 0.5999999999999984235 ) ) ;
#521 = ORIENTED_EDGE ( 'NONE', *, *, #45, .T. ) ;
#522 = CARTESIAN_POINT ( 'NONE',  ( 0.000000000000000000, -0.3950000000000000178, 0.000000000000000000 ) ) ;
#523 = DIRECTION ( 'NONE',  ( -0.000000000000000000, 1.000000000000000000, 0.000000000000000000 ) ) ;
#524 = EDGE_CURVE ( 'NONE', #336, #186, #321, .T. ) ;
#525 = VERTEX_POINT ( 'NONE', #319 ) ;
#526 = LINE ( 'NONE', #136, #325 ) ;
#527 = ORIENTED_EDGE ( 'NONE', *, *, #351, .T. ) ;
#528 = VECTOR ( 'NONE', #398, 100.0000000000000000 ) ;
#529 = CARTESIAN_POINT ( 'NONE',  ( -0.2500000000000002220, -0.3950000000000000178, 0.000000000000000000 ) ) ;
#530 = ADVANCED_FACE ( 'NONE', ( #58 ), #185, .T. ) ;
#531 = FACE_OUTER_BOUND ( 'NONE', #476, .T. ) ;
#532 = PRESENTATION_LAYER_ASSIGNMENT (  '', '', ( #308 ) ) ;
#533 = VERTEX_POINT ( 'NONE', #415 ) ;
#534 =( LENGTH_UNIT ( ) NAMED_UNIT ( * ) SI_UNIT ( .CENTI., .METRE. ) );
#535 = VERTEX_POINT ( 'NONE', #367 ) ;
#536 =( LENGTH_UNIT ( ) NAMED_UNIT ( * ) SI_UNIT ( .CENTI., .METRE. ) );
#537 = EDGE_LOOP ( 'NONE', ( #10, #345, #467, #105 ) ) ;
#538 = CARTESIAN_POINT ( 'NONE',  ( 5.320000000000001172, -0.9000000000000001332, 0.5999999999999987566 ) ) ;
#539 = AXIS2_PLACEMENT_3D ( 'NONE', #206, #381, #554 ) ;
#540 = EDGE_CURVE ( 'NONE', #481, #126, #143, .T. ) ;
#541 = DIRECTION ( 'NONE',  ( -1.000000000000000000, -0.000000000000000000, -1.239088197126290570E-16 ) ) ;
#542 = FILL_AREA_STYLE_COLOUR ( '', #317 ) ;
#543 = LINE ( 'NONE', #25, #273 ) ;
#544 = CARTESIAN_POINT ( 'NONE',  ( 4.420000000000000817, -0.8999999999999999112, 2.785545685073137712 ) ) ;
#545 = FACE_OUTER_BOUND ( 'NONE', #141, .T. ) ;
#546 = VECTOR ( 'NONE', #253, 100.0000000000000000 ) ;
#547 = AXIS2_PLACEMENT_3D ( 'NONE', #197, #459, #121 ) ;
#548 = EDGE_CURVE ( 'NONE', #81, #215, #314, .T. ) ;
#549 = CARTESIAN_POINT ( 'NONE',  ( -0.2500000000000002220, -0.8049999999999999378, 0.000000000000000000 ) ) ;
#550 = ORIENTED_EDGE ( 'NONE', *, *, #303, .F. ) ;
#551 = CARTESIAN_POINT ( 'NONE',  ( 3.820000000000000284, -0.2999999999999998779, 2.927490250952647255 ) ) ;
#552 = CARTESIAN_POINT ( 'NONE',  ( 1.399999999999999911, 0.000000000000000000, 3.500000000000002220 ) ) ;
#553 = ORIENTED_EDGE ( 'NONE', *, *, #291, .F. ) ;
#554 = DIRECTION ( 'NONE',  ( 0.000000000000000000, -1.000000000000000000, 0.000000000000000000 ) ) ;
#555 = DIRECTION ( 'NONE',  ( 0.000000000000000000, -1.000000000000000000, 0.000000000000000000 ) ) ;
#556 = AXIS2_PLACEMENT_3D ( 'NONE', #250, #421, #426 ) ;
#557 = ADVANCED_FACE ( 'NONE', ( #277 ), #452, .T. ) ;
#558 = ORIENTED_EDGE ( 'NONE', *, *, #281, .F. ) ;
#559 = APPLICATION_PROTOCOL_DEFINITION ( 'draft international standard', 'automotive_design', 1998, #462 ) ;
#560 = CARTESIAN_POINT ( 'NONE',  ( 3.820000000000000284, -0.9000000000000001332, 2.927490250952647255 ) ) ;
#561 = ORIENTED_EDGE ( 'NONE', *, *, #312, .F. ) ;
#562 = PLANE ( 'NONE',  #463 ) ;
ENDSEC;
END-ISO-10303-21;
