ISO-10303-21;
HEADER;
FILE_DESCRIPTION (( 'STEP AP214' ),
    '1' );
FILE_NAME ('ramp-wall-half_62.STEP',
    '2026-06-16T01:10:02',
    ( '' ),
    ( '' ),
    'SwSTEP 2.0',
    'SolidWorks 2023',
    '' );
FILE_SCHEMA (( 'AUTOMOTIVE_DESIGN' ));
ENDSEC;

DATA;
#1 = CARTESIAN_POINT ( 'NONE',  ( 5.300000000000000711, -0.5999999999999999778, 0.5999999999999987566 ) ) ;
#2 = ORIENTED_EDGE ( 'NONE', *, *, #411, .F. ) ;
#3 = DIRECTION ( 'NONE',  ( 0.000000000000000000, -1.000000000000000000, 0.000000000000000000 ) ) ;
#4 = ADVANCED_FACE ( 'NONE', ( #225 ), #451, .T. ) ;
#5 = LINE ( 'NONE', #303, #283 ) ;
#6 = VERTEX_POINT ( 'NONE', #407 ) ;
#7 = DIRECTION ( 'NONE',  ( 0.000000000000000000, -1.000000000000000000, 0.000000000000000000 ) ) ;
#8 = LINE ( 'NONE', #178, #150 ) ;
#9 = FILL_AREA_STYLE ('',( #397 ) ) ;
#10 = FACE_OUTER_BOUND ( 'NONE', #254, .T. ) ;
#11 = VECTOR ( 'NONE', #483, 100.0000000000000000 ) ;
#12 = AXIS2_PLACEMENT_3D ( 'NONE', #381, #428, #260 ) ;
#13 = CARTESIAN_POINT ( 'NONE',  ( 0.000000000000000000, -0.8049999999999999378, 0.000000000000000000 ) ) ;
#14 = EDGE_CURVE ( 'NONE', #121, #22, #540, .T. ) ;
#15 = DIRECTION ( 'NONE',  ( -1.000000000000000000, 0.000000000000000000, 0.000000000000000000 ) ) ;
#16 = EDGE_LOOP ( 'NONE', ( #198, #109, #239, #520, #285, #130, #2, #560 ) ) ;
#17 = CARTESIAN_POINT ( 'NONE',  ( 8.254148364942135885, 0.000000000000000000, 1.883484809774234048 ) ) ;
#18 = DIRECTION ( 'NONE',  ( 0.000000000000000000, 1.000000000000000000, 0.000000000000000000 ) ) ;
#19 = CIRCLE ( 'NONE', #231, 0.2049999999999999600 ) ;
#20 = CARTESIAN_POINT ( 'NONE',  ( -0.2500000000000002220, -0.8049999999999999378, 0.000000000000000000 ) ) ;
#21 = CARTESIAN_POINT ( 'NONE',  ( 3.180000000000001936, -0.2900000000000003686, 3.083897787890790720 ) ) ;
#22 = VERTEX_POINT ( 'NONE', #182 ) ;
#23 = CARTESIAN_POINT ( 'NONE',  ( 5.300000000000000711, -0.9099999999999994760, 0.5999999999999987566 ) ) ;
#24 = EDGE_LOOP ( 'NONE', ( #171, #175 ) ) ;
#25 = VECTOR ( 'NONE', #50, 100.0000000000000000 ) ;
#26 = CARTESIAN_POINT ( 'NONE',  ( 5.919999999999999929, -0.2900000000000006461, 2.435684270374364857 ) ) ;
#27 = VERTEX_POINT ( 'NONE', #359 ) ;
#28 =( BOUNDED_CURVE ( )  B_SPLINE_CURVE ( 3, ( #269, #341, #518, #176 ),
 .UNSPECIFIED., .F., .T. ) 
 B_SPLINE_CURVE_WITH_KNOTS ( ( 4, 4 ),
 ( 4.712388980384689674, 7.853981633974482790 ),
 .UNSPECIFIED. ) 
 CURVE ( )  GEOMETRIC_REPRESENTATION_ITEM ( )  RATIONAL_B_SPLINE_CURVE ( ( 1.000000000000000000, 0.3333333333333333703, 0.3333333333333333703, 1.000000000000000000 ) ) 
 REPRESENTATION_ITEM ( '' )  );
#29 = CARTESIAN_POINT ( 'NONE',  ( 3.180000000000001936, -0.9099999999999994760, 3.083897787890790720 ) ) ;
#30 = ORIENTED_EDGE ( 'NONE', *, *, #301, .T. ) ;
#31 = CARTESIAN_POINT ( 'NONE',  ( 8.400000000000002132, 0.000000000000000000, 2.500000000000000444 ) ) ;
#32 = ORIENTED_EDGE ( 'NONE', *, *, #448, .F. ) ;
#33 = EDGE_CURVE ( 'NONE', #159, #315, #318, .T. ) ;
#34 = VECTOR ( 'NONE', #558, 100.0000000000000000 ) ;
#35 = AXIS2_PLACEMENT_3D ( 'NONE', #478, #384, #88 ) ;
#36 = CARTESIAN_POINT ( 'NONE',  ( 0.000000000000000000, -0.3950000000000000178, 2.395000000000000462 ) ) ;
#37 = EDGE_LOOP ( 'NONE', ( #555, #537, #118, #228 ) ) ;
#38 = ORIENTED_EDGE ( 'NONE', *, *, #366, .T. ) ;
#39 = LINE ( 'NONE', #480, #196 ) ;
#40 = CARTESIAN_POINT ( 'NONE',  ( 0.000000000000000000, -1.199999999999999956, 0.000000000000000000 ) ) ;
#41 = ORIENTED_EDGE ( 'NONE', *, *, #539, .T. ) ;
#42 = CARTESIAN_POINT ( 'NONE',  ( 3.800000000000000711, -0.5999999999999999778, 0.5999999999999984235 ) ) ;
#43 = AXIS2_PLACEMENT_3D ( 'NONE', #255, #391, #3 ) ;
#44 = FACE_OUTER_BOUND ( 'NONE', #68, .T. ) ;
#45 = COLOUR_RGB ( '',0.6941176470588235059, 0.09803921568627450844, 0.09803921568627450844 ) ;
#46 = ORIENTED_EDGE ( 'NONE', *, *, #375, .T. ) ;
#47 = FACE_OUTER_BOUND ( 'NONE', #24, .T. ) ;
#48 = DIRECTION ( 'NONE',  ( -1.239088197126290570E-16, 0.000000000000000000, 1.000000000000000000 ) ) ;
#49 = ORIENTED_EDGE ( 'NONE', *, *, #99, .T. ) ;
#50 = DIRECTION ( 'NONE',  ( 1.400169662752707186E-14, 0.000000000000000000, -1.000000000000000000 ) ) ;
#51 = PRODUCT ( 'ramp-wall-half_62', 'ramp-wall-half_62', '', ( #274 ) ) ;
#52 = DIRECTION ( 'NONE',  ( 4.098522498186961307E-16, 0.000000000000000000, 1.000000000000000000 ) ) ;
#53 = DIRECTION ( 'NONE',  ( 0.000000000000000000, -1.000000000000000000, 0.000000000000000000 ) ) ;
#54 = MANIFOLD_SOLID_BREP ( 'Cut-Extrude2', #214 ) ;
#55 = EDGE_CURVE ( 'NONE', #503, #163, #321, .T. ) ;
#56 = EDGE_LOOP ( 'NONE', ( #86, #49, #513, #437 ) ) ;
#57 = LINE ( 'NONE', #449, #363 ) ;
#58 = ORIENTED_EDGE ( 'NONE', *, *, #94, .T. ) ;
#59 = CARTESIAN_POINT ( 'NONE',  ( 0.000000000000000000, -0.3950000000000000178, 0.000000000000000000 ) ) ;
#60 =( LENGTH_UNIT ( ) NAMED_UNIT ( * ) SI_UNIT ( .CENTI., .METRE. ) );
#61 = EDGE_CURVE ( 'NONE', #6, #307, #265, .T. ) ;
#62 = VECTOR ( 'NONE', #230, 100.0000000000000000 ) ;
#63 = FACE_OUTER_BOUND ( 'NONE', #249, .T. ) ;
#64 = CARTESIAN_POINT ( 'NONE',  ( 4.419999999999999929, -0.9099999999999994760, 2.790545685073137605 ) ) ;
#65 = EDGE_LOOP ( 'NONE', ( #135, #429, #112, #161 ) ) ;
#66 = ADVANCED_FACE ( 'NONE', ( #345 ), #87, .T. ) ;
#67 = CARTESIAN_POINT ( 'NONE',  ( 1.399999999999999911, -1.199999999999999956, 3.505000000000002558 ) ) ;
#68 = EDGE_LOOP ( 'NONE', ( #410, #390, #352, #46 ) ) ;
#69 = MECHANICAL_DESIGN_GEOMETRIC_PRESENTATION_REPRESENTATION (  '', ( #291 ), #463 ) ;
#70 = DIRECTION ( 'NONE',  ( 0.000000000000000000, -1.000000000000000000, 0.000000000000000000 ) ) ;
#71 = VERTEX_POINT ( 'NONE', #386 ) ;
#72 = PLANE ( 'NONE',  #423 ) ;
#73 = EDGE_CURVE ( 'NONE', #432, #152, #149, .T. ) ;
#74 = DIRECTION ( 'NONE',  ( -1.239088197126290570E-16, 0.000000000000000000, 1.000000000000000000 ) ) ;
#75 = ORIENTED_EDGE ( 'NONE', *, *, #55, .F. ) ;
#76 = VECTOR ( 'NONE', #337, 100.0000000000000000 ) ;
#77 = DIRECTION ( 'NONE',  ( -1.239088197126290570E-16, 0.000000000000000000, 1.000000000000000000 ) ) ;
#78 = VERTEX_POINT ( 'NONE', #172 ) ;
#79 =( NAMED_UNIT ( * ) SI_UNIT ( $, .STERADIAN. ) SOLID_ANGLE_UNIT ( ) );
#80 = ADVANCED_FACE ( 'NONE', ( #394 ), #305, .F. ) ;
#81 = DIRECTION ( 'NONE',  ( 0.000000000000000000, -1.000000000000000000, 0.000000000000000000 ) ) ;
#82 = EDGE_LOOP ( 'NONE', ( #516, #403, #460, #296 ) ) ;
#83 = CARTESIAN_POINT ( 'NONE',  ( 16.80000000000000071, -1.199999999999999956, 0.000000000000000000 ) ) ;
#84 = ADVANCED_FACE ( 'NONE', ( #47 ), #383, .T. ) ;
#85 = DIRECTION ( 'NONE',  ( -1.000000000000000000, 0.000000000000000000, 4.098522498186961800E-16 ) ) ;
#86 = ORIENTED_EDGE ( 'NONE', *, *, #395, .T. ) ;
#87 = CYLINDRICAL_SURFACE ( 'NONE', #362, 0.2049999999999999600 ) ;
#88 = DIRECTION ( 'NONE',  ( 0.000000000000000000, 1.000000000000000000, 0.000000000000000000 ) ) ;
#89 = MECHANICAL_DESIGN_GEOMETRIC_PRESENTATION_REPRESENTATION (  '', ( #464 ), #215 ) ;
#90 = ORIENTED_EDGE ( 'NONE', *, *, #471, .F. ) ;
#91 = LINE ( 'NONE', #474, #25 ) ;
#92 = CARTESIAN_POINT ( 'NONE',  ( 5.300000000000000711, -0.5999999999999999778, 0.5999999999999987566 ) ) ;
#93 = CARTESIAN_POINT ( 'NONE',  ( 0.000000000000000000, -0.8049999999999999378, 0.000000000000000000 ) ) ;
#94 = EDGE_CURVE ( 'NONE', #401, #218, #529, .T. ) ;
#95 =( LENGTH_UNIT ( ) NAMED_UNIT ( * ) SI_UNIT ( .CENTI., .METRE. ) );
#96 = DIRECTION ( 'NONE',  ( 1.000000000000000000, -0.000000000000000000, 1.239088197126290570E-16 ) ) ;
#97 = FACE_OUTER_BOUND ( 'NONE', #16, .T. ) ;
#98 = AXIS2_PLACEMENT_3D ( 'NONE', #1, #256, #392 ) ;
#99 = EDGE_CURVE ( 'NONE', #546, #327, #434, .T. ) ;
#100 = VERTEX_POINT ( 'NONE', #349 ) ;
#101 = SURFACE_SIDE_STYLE ('',( #324 ) ) ;
#102 = APPLICATION_PROTOCOL_DEFINITION ( 'draft international standard', 'automotive_design', 1998, #287 ) ;
#103 = EDGE_CURVE ( 'NONE', #121, #327, #19, .T. ) ;
#104 = DIRECTION ( 'NONE',  ( -1.239088197126290570E-16, 0.000000000000000000, 1.000000000000000000 ) ) ;
#105 = DIRECTION ( 'NONE',  ( -2.065146995210482230E-17, 0.000000000000000000, 1.000000000000000000 ) ) ;
#106 = AXIS2_PLACEMENT_3D ( 'NONE', #131, #213, #484 ) ;
#107 = VECTOR ( 'NONE', #128, 100.0000000000000000 ) ;
#108 = CARTESIAN_POINT ( 'NONE',  ( 16.80000000000000071, -1.199999999999999956, 0.000000000000000000 ) ) ;
#109 = ORIENTED_EDGE ( 'NONE', *, *, #192, .F. ) ;
#110 = EDGE_CURVE ( 'NONE', #152, #432, #454, .T. ) ;
#111 = DIRECTION ( 'NONE',  ( 0.2302195854387861784, 0.000000000000000000, 0.9731387067013589354 ) ) ;
#112 = ORIENTED_EDGE ( 'NONE', *, *, #157, .T. ) ;
#113 = FACE_BOUND ( 'NONE', #148, .T. ) ;
#114 = ORIENTED_EDGE ( 'NONE', *, *, #346, .T. ) ;
#115 = VECTOR ( 'NONE', #430, 100.0000000000000000 ) ;
#116 = VECTOR ( 'NONE', #533, 100.0000000000000000 ) ;
#117 = DIRECTION ( 'NONE',  ( -1.239088197126290570E-16, 0.000000000000000000, 1.000000000000000000 ) ) ;
#118 = ORIENTED_EDGE ( 'NONE', *, *, #289, .T. ) ;
#119 = CARTESIAN_POINT ( 'NONE',  ( 3.800000000000000711, -0.9099999999999994760, 2.937221736481963941 ) ) ;
#120 = LINE ( 'NONE', #469, #325 ) ;
#121 = VERTEX_POINT ( 'NONE', #312 ) ;
#122 = VECTOR ( 'NONE', #188, 100.0000000000000000 ) ;
#123 = CYLINDRICAL_SURFACE ( 'NONE', #12, 0.3099999999999994982 ) ;
#124 = ORIENTED_EDGE ( 'NONE', *, *, #99, .F. ) ;
#125 = CARTESIAN_POINT ( 'NONE',  ( -0.2499999999999988343, -0.3950000000000000178, 2.395000000000000462 ) ) ;
#126 = DIRECTION ( 'NONE',  ( 0.000000000000000000, 1.000000000000000000, 0.000000000000000000 ) ) ;
#127 = ORIENTED_EDGE ( 'NONE', *, *, #317, .T. ) ;
#128 = DIRECTION ( 'NONE',  ( -1.000000000000000000, 0.000000000000000000, -1.239088197126290570E-16 ) ) ;
#129 = DIRECTION ( 'NONE',  ( 0.000000000000000000, -1.000000000000000000, 0.000000000000000000 ) ) ;
#130 = ORIENTED_EDGE ( 'NONE', *, *, #61, .T. ) ;
#131 = CARTESIAN_POINT ( 'NONE',  ( 3.800000000000000711, -0.5999999999999999778, 0.5999999999999984235 ) ) ;
#132 = VECTOR ( 'NONE', #104, 100.0000000000000000 ) ;
#133 = CARTESIAN_POINT ( 'NONE',  ( 15.79294267689127551, 0.000000000000000000, 2.500000000000103917 ) ) ;
#134 = VECTOR ( 'NONE', #554, 100.0000000000000000 ) ;
#135 = ORIENTED_EDGE ( 'NONE', *, *, #317, .F. ) ;
#136 = EDGE_CURVE ( 'NONE', #218, #242, #39, .T. ) ;
#137 = CARTESIAN_POINT ( 'NONE',  ( 8.400000000000002132, -1.199999999999999956, 2.500000000000000444 ) ) ;
#138 = CARTESIAN_POINT ( 'NONE',  ( 3.800000000000000711, -0.9099999999999994760, 0.5999999999999984235 ) ) ;
#139 = ORIENTED_EDGE ( 'NONE', *, *, #497, .T. ) ;
#140 = DIRECTION ( 'NONE',  ( 0.9731387067013588243, 0.000000000000000000, -0.2302195854387861507 ) ) ;
#141 = CARTESIAN_POINT ( 'NONE',  ( 16.80000000000000071, -1.199999999999999956, 5.000000000000000000 ) ) ;
#142 = VECTOR ( 'NONE', #368, 100.0000000000000142 ) ;
#143 = EDGE_CURVE ( 'NONE', #27, #300, #91, .T. ) ;
#144 = DIRECTION ( 'NONE',  ( -1.000000000000000000, 0.000000000000000000, -1.239088197126290570E-16 ) ) ;
#145 = DIRECTION ( 'NONE',  ( 1.239088197126290570E-16, -0.000000000000000000, -1.000000000000000000 ) ) ;
#146 = PLANE ( 'NONE',  #535 ) ;
#147 = ADVANCED_FACE ( 'NONE', ( #10 ), #521, .T. ) ;
#148 = EDGE_LOOP ( 'NONE', ( #340, #190 ) ) ;
#149 = CIRCLE ( 'NONE', #43, 0.3099999999999994982 ) ;
#150 = VECTOR ( 'NONE', #355, 100.0000000000000000 ) ;
#151 = CARTESIAN_POINT ( 'NONE',  ( 5.919999999999999929, -0.9099999999999994760, 2.435684270374364857 ) ) ;
#152 = VERTEX_POINT ( 'NONE', #138 ) ;
#153 = DIRECTION ( 'NONE',  ( -1.239088197126290570E-16, 0.000000000000000000, 1.000000000000000000 ) ) ;
#154 = CARTESIAN_POINT ( 'NONE',  ( 0.000000000000000000, 0.000000000000000000, 0.000000000000000000 ) ) ;
#155 = ORIENTED_EDGE ( 'NONE', *, *, #301, .F. ) ;
#156 = AXIS2_PLACEMENT_3D ( 'NONE', #141, #105, #320 ) ;
#157 = EDGE_CURVE ( 'NONE', #163, #422, #28, .T. ) ;
#158 = CARTESIAN_POINT ( 'NONE',  ( 16.80000000000000071, -1.199999999999999956, 5.000000000000000000 ) ) ;
#159 = VERTEX_POINT ( 'NONE', #353 ) ;
#160 = PLANE ( 'NONE',  #455 ) ;
#161 = ORIENTED_EDGE ( 'NONE', *, *, #235, .F. ) ;
#162 = CARTESIAN_POINT ( 'NONE',  ( 5.300000000000000711, -0.9099999999999994760, 2.582360321783190749 ) ) ;
#163 = VERTEX_POINT ( 'NONE', #169 ) ;
#164 = DIRECTION ( 'NONE',  ( 0.000000000000000000, 1.000000000000000000, 0.000000000000000000 ) ) ;
#165 = EDGE_CURVE ( 'NONE', #300, #425, #308, .T. ) ;
#166 = AXIS2_PLACEMENT_3D ( 'NONE', #264, #77, #482 ) ;
#167 = FACE_OUTER_BOUND ( 'NONE', #479, .T. ) ;
#168 = ORIENTED_EDGE ( 'NONE', *, *, #173, .F. ) ;
#169 = CARTESIAN_POINT ( 'NONE',  ( 5.300000000000000711, -0.2900000000000004796, 2.582360321783190749 ) ) ;
#170 = CYLINDRICAL_SURFACE ( 'NONE', #354, 0.3099999999999994982 ) ;
#171 = ORIENTED_EDGE ( 'NONE', *, *, #110, .T. ) ;
#172 = CARTESIAN_POINT ( 'NONE',  ( 0.000000000000000000, -1.199999999999999956, 5.000000000000000000 ) ) ;
#173 = EDGE_CURVE ( 'NONE', #22, #6, #316, .T. ) ;
#174 = CARTESIAN_POINT ( 'NONE',  ( 5.300000000000000711, -0.2900000000000004796, 0.5999999999999987566 ) ) ;
#175 = ORIENTED_EDGE ( 'NONE', *, *, #73, .T. ) ;
#176 = CARTESIAN_POINT ( 'NONE',  ( 5.300000000000000711, -0.9099999999999994760, 2.582360321783190749 ) ) ;
#177 = VECTOR ( 'NONE', #96, 100.0000000000000000 ) ;
#178 = CARTESIAN_POINT ( 'NONE',  ( 0.000000000000000000, -1.199999999999999956, 5.000000000000000000 ) ) ;
#179 = VECTOR ( 'NONE', #48, 100.0000000000000000 ) ;
#180 = ORIENTED_EDGE ( 'NONE', *, *, #200, .T. ) ;
#181 = DIRECTION ( 'NONE',  ( 1.000000000000000000, 0.000000000000000000, 1.239088197126290570E-16 ) ) ;
#182 = CARTESIAN_POINT ( 'NONE',  ( 0.000000000000000000, -0.8049999999999999378, 0.000000000000000000 ) ) ;
#183 = FACE_OUTER_BOUND ( 'NONE', #500, .T. ) ;
#184 =( NAMED_UNIT ( * ) PLANE_ANGLE_UNIT ( ) SI_UNIT ( $, .RADIAN. ) );
#185 = EDGE_CURVE ( 'NONE', #152, #71, #477, .T. ) ;
#186 = CARTESIAN_POINT ( 'NONE',  ( 0.08400000000000001910, -0.006000000000000000125, 0.02500000000000000486 ) ) ;
#187 = ORIENTED_EDGE ( 'NONE', *, *, #136, .T. ) ;
#188 = DIRECTION ( 'NONE',  ( 1.239088197126290570E-16, -0.000000000000000000, -1.000000000000000000 ) ) ;
#189 = VECTOR ( 'NONE', #240, 100.0000000000000000 ) ;
#190 = ORIENTED_EDGE ( 'NONE', *, *, #289, .F. ) ;
#191 = PLANE ( 'NONE',  #156 ) ;
#192 = EDGE_CURVE ( 'NONE', #300, #159, #398, .T. ) ;
#193 = VERTEX_POINT ( 'NONE', #541 ) ;
#194 = DIRECTION ( 'NONE',  ( 0.000000000000000000, -1.000000000000000000, 0.000000000000000000 ) ) ;
#195 = ORIENTED_EDGE ( 'NONE', *, *, #504, .T. ) ;
#196 = VECTOR ( 'NONE', #438, 100.0000000000000000 ) ;
#197 = LINE ( 'NONE', #373, #234 ) ;
#198 = ORIENTED_EDGE ( 'NONE', *, *, #33, .F. ) ;
#199 = LINE ( 'NONE', #158, #134 ) ;
#200 = EDGE_CURVE ( 'NONE', #348, #27, #491, .T. ) ;
#201 = PLANE ( 'NONE',  #508 ) ;
#202 = ORIENTED_EDGE ( 'NONE', *, *, #235, .T. ) ;
#203 = VECTOR ( 'NONE', #126, 100.0000000000000000 ) ;
#204 = CARTESIAN_POINT ( 'NONE',  ( 15.79294267689130749, 0.000000000000000000, 0.1000000000000000888 ) ) ;
#205 = ORIENTED_EDGE ( 'NONE', *, *, #229, .F. ) ;
#206 = SURFACE_STYLE_USAGE ( .BOTH. , #466 ) ;
#207 = ADVANCED_FACE ( 'NONE', ( #97 ), #146, .T. ) ;
#208 =( LENGTH_UNIT ( ) NAMED_UNIT ( * ) SI_UNIT ( .CENTI., .METRE. ) );
#209 = EDGE_LOOP ( 'NONE', ( #468, #492 ) ) ;
#210 = CARTESIAN_POINT ( 'NONE',  ( 0.000000000000000000, -0.5999999999999999778, 2.395000000000000462 ) ) ;
#211 = CARTESIAN_POINT ( 'NONE',  ( 1.399999999999999911, -1.199999999999999956, 2.499999999999999556 ) ) ;
#212 = ORIENTED_EDGE ( 'NONE', *, *, #346, .F. ) ;
#213 = DIRECTION ( 'NONE',  ( -1.239088197126290570E-16, 0.000000000000000000, 1.000000000000000000 ) ) ;
#214 = CLOSED_SHELL ( 'NONE', ( #489, #419, #207, #270, #80, #298, #66, #507, #4, #309, #279, #147, #357, #334, #427, #322, #501, #84 ) ) ;
#215 =( GEOMETRIC_REPRESENTATION_CONTEXT ( 3 ) GLOBAL_UNCERTAINTY_ASSIGNED_CONTEXT ( ( #459 ) ) GLOBAL_UNIT_ASSIGNED_CONTEXT ( ( #60, #323, #402 ) ) REPRESENTATION_CONTEXT ( 'NONE', 'WORKASPACE' ) );
#216 = CIRCLE ( 'NONE', #445, 0.3099999999999994982 ) ;
#217 = CARTESIAN_POINT ( 'NONE',  ( -0.2499999999999988343, -0.5999999999999999778, 2.395000000000000462 ) ) ;
#218 = VERTEX_POINT ( 'NONE', #276 ) ;
#219 = DIRECTION ( 'NONE',  ( 0.000000000000000000, -1.000000000000000000, 0.000000000000000000 ) ) ;
#220 = DIRECTION ( 'NONE',  ( 4.231032868236115911E-16, 0.000000000000000000, 1.000000000000000000 ) ) ;
#221 = ORIENTED_EDGE ( 'NONE', *, *, #245, .F. ) ;
#222 = CARTESIAN_POINT ( 'NONE',  ( 1.399999999999999911, -1.199999999999999956, 2.499999999999999556 ) ) ;
#223 = DIRECTION ( 'NONE',  ( -1.239088197126290570E-16, 0.000000000000000000, 1.000000000000000000 ) ) ;
#224 = DIRECTION ( 'NONE',  ( -1.239088197126290570E-16, 0.000000000000000000, 1.000000000000000000 ) ) ;
#225 = FACE_OUTER_BOUND ( 'NONE', #490, .T. ) ;
#226 = FILL_AREA_STYLE_COLOUR ( '', #45 ) ;
#227 = UNCERTAINTY_MEASURE_WITH_UNIT (LENGTH_MEASURE( 1.000000000000000082E-05 ), #208, 'distance_accuracy_value', 'NONE');
#228 = ORIENTED_EDGE ( 'NONE', *, *, #185, .F. ) ;
#229 = EDGE_CURVE ( 'NONE', #100, #315, #236, .T. ) ;
#230 = DIRECTION ( 'NONE',  ( 0.000000000000000000, 1.000000000000000000, 0.000000000000000000 ) ) ;
#231 = AXIS2_PLACEMENT_3D ( 'NONE', #210, #525, #164 ) ;
#232 = DIRECTION ( 'NONE',  ( -1.000000000000000000, 0.000000000000000000, 4.098522498186961307E-16 ) ) ;
#233 = LINE ( 'NONE', #365, #116 ) ;
#234 = VECTOR ( 'NONE', #545, 100.0000000000000000 ) ;
#235 = EDGE_CURVE ( 'NONE', #377, #422, #57, .T. ) ;
#236 = LINE ( 'NONE', #446, #62 ) ;
#237 = ORIENTED_EDGE ( 'NONE', *, *, #504, .F. ) ;
#238 = CARTESIAN_POINT ( 'NONE',  ( 4.419999999999999929, -0.2900000000000006461, 2.790545685073137605 ) ) ;
#239 = ORIENTED_EDGE ( 'NONE', *, *, #165, .T. ) ;
#240 = DIRECTION ( 'NONE',  ( 0.000000000000000000, 1.000000000000000000, 0.000000000000000000 ) ) ;
#241 = ADVANCED_BREP_SHAPE_REPRESENTATION ( 'ramp-wall-half_62', ( #54, #370 ), #302 ) ;
#242 = VERTEX_POINT ( 'NONE', #408 ) ;
#243 = VECTOR ( 'NONE', #361, 100.0000000000000000 ) ;
#244 = DIRECTION ( 'NONE',  ( -1.000000000000000000, 0.000000000000000000, -1.239088197126290570E-16 ) ) ;
#245 = EDGE_CURVE ( 'NONE', #327, #100, #404, .T. ) ;
#246 = LINE ( 'NONE', #331, #481 ) ;
#247 = ORIENTED_EDGE ( 'NONE', *, *, #251, .T. ) ;
#248 = DIRECTION ( 'NONE',  ( -0.000000000000000000, -1.000000000000000000, 0.000000000000000000 ) ) ;
#249 = EDGE_LOOP ( 'NONE', ( #58, #187, #385, #288, #257, #30 ) ) ;
#250 = VECTOR ( 'NONE', #314, 100.0000000000000000 ) ;
#251 = EDGE_CURVE ( 'NONE', #252, #218, #493, .T. ) ;
#252 = VERTEX_POINT ( 'NONE', #452 ) ;
#253 = DIRECTION ( 'NONE',  ( -1.000000000000000000, 0.000000000000000000, -1.239088197126290570E-16 ) ) ;
#254 = EDGE_LOOP ( 'NONE', ( #336, #195, #261, #356 ) ) ;
#255 = CARTESIAN_POINT ( 'NONE',  ( 3.800000000000000711, -0.5999999999999999778, 0.5999999999999984235 ) ) ;
#256 = DIRECTION ( 'NONE',  ( -1.239088197126290570E-16, 0.000000000000000000, 1.000000000000000000 ) ) ;
#257 = ORIENTED_EDGE ( 'NONE', *, *, #33, .T. ) ;
#258 = DIRECTION ( 'NONE',  ( 1.000000000000000000, 0.000000000000000000, 1.239088197126290570E-16 ) ) ;
#259 = PRESENTATION_LAYER_ASSIGNMENT (  '', '', ( #291 ) ) ;
#260 = DIRECTION ( 'NONE',  ( 0.000000000000000000, -1.000000000000000000, 0.000000000000000000 ) ) ;
#261 = ORIENTED_EDGE ( 'NONE', *, *, #387, .T. ) ;
#262 = CARTESIAN_POINT ( 'NONE',  ( 16.80000000000000071, 0.000000000000000000, 5.000000000000000000 ) ) ;
#263 = EDGE_CURVE ( 'NONE', #242, #332, #456, .T. ) ;
#264 = CARTESIAN_POINT ( 'NONE',  ( 3.800000000000000711, -0.5999999999999999778, 0.5999999999999984235 ) ) ;
#265 = LINE ( 'NONE', #20, #34 ) ;
#266 = CARTESIAN_POINT ( 'NONE',  ( 3.800000000000000711, -0.9099999999999994760, 0.5999999999999984235 ) ) ;
#267 = PRODUCT_DEFINITION_SHAPE ( 'NONE', 'NONE',  #453 ) ;
#268 = EDGE_CURVE ( 'NONE', #27, #332, #233, .T. ) ;
#269 = CARTESIAN_POINT ( 'NONE',  ( 5.300000000000000711, -0.2900000000000004796, 2.582360321783190749 ) ) ;
#270 = ADVANCED_FACE ( 'NONE', ( #183 ), #191, .T. ) ;
#271 = DIRECTION ( 'NONE',  ( 1.000000000000000000, 0.000000000000000000, 1.239088197126290570E-16 ) ) ;
#272 = AXIS2_PLACEMENT_3D ( 'NONE', #92, #556, #129 ) ;
#273 = FILL_AREA_STYLE ('',( #226 ) ) ;
#274 = PRODUCT_CONTEXT ( 'NONE', #524, 'mechanical' ) ;
#275 = CARTESIAN_POINT ( 'NONE',  ( -0.2500000000000002220, -0.8049999999999999378, 0.000000000000000000 ) ) ;
#276 = CARTESIAN_POINT ( 'NONE',  ( 1.399999999999999911, 0.000000000000000000, 5.000000000000002665 ) ) ;
#277 = EDGE_LOOP ( 'NONE', ( #527, #413, #338, #510, #470, #155, #205, #221 ) ) ;
#278 = DIRECTION ( 'NONE',  ( -1.239088197126290570E-16, 0.000000000000000000, 1.000000000000000000 ) ) ;
#279 = ADVANCED_FACE ( 'NONE', ( #538 ), #282, .F. ) ;
#280 =( BOUNDED_CURVE ( )  B_SPLINE_CURVE ( 3, ( #409, #21, #29, #119 ),
 .UNSPECIFIED., .F., .F. ) 
 B_SPLINE_CURVE_WITH_KNOTS ( ( 4, 4 ),
 ( 4.712388980384689674, 7.853981633974482790 ),
 .UNSPECIFIED. ) 
 CURVE ( )  GEOMETRIC_REPRESENTATION_ITEM ( )  RATIONAL_B_SPLINE_CURVE ( ( 1.000000000000000000, 0.3333333333333333703, 0.3333333333333333703, 1.000000000000000000 ) ) 
 REPRESENTATION_ITEM ( '' )  );
#281 = COLOUR_RGB ( '',1.000000000000000000, 1.000000000000000000, 1.000000000000000000 ) ;
#282 = PLANE ( 'NONE',  #293 ) ;
#283 = VECTOR ( 'NONE', #475, 100.0000000000000000 ) ;
#284 = CARTESIAN_POINT ( 'NONE',  ( 15.79294267689130749, -1.199999999999999956, 0.000000000000000000 ) ) ;
#285 = ORIENTED_EDGE ( 'NONE', *, *, #173, .T. ) ;
#286 = CARTESIAN_POINT ( 'NONE',  ( 5.300000000000000711, -0.9099999999999994760, 2.582360321783190749 ) ) ;
#287 = APPLICATION_CONTEXT ( 'automotive_design' ) ;
#288 = ORIENTED_EDGE ( 'NONE', *, *, #532, .T. ) ;
#289 = EDGE_CURVE ( 'NONE', #523, #71, #280, .T. ) ;
#290 = FACE_BOUND ( 'NONE', #209, .T. ) ;
#291 = STYLED_ITEM ( 'NONE', ( #433 ), #54 ) ;
#292 = PRODUCT_DEFINITION_CONTEXT ( 'detailed design', #287, 'design' ) ;
#293 = AXIS2_PLACEMENT_3D ( 'NONE', #531, #487, #144 ) ;
#294 = PRODUCT_DEFINITION_FORMATION_WITH_SPECIFIED_SOURCE ( 'ANY', '', #51, .NOT_KNOWN. ) ;
#295 = DIRECTION ( 'NONE',  ( 1.000000000000000000, 0.000000000000000000, 1.400169662752707028E-14 ) ) ;
#296 = ORIENTED_EDGE ( 'NONE', *, *, #532, .F. ) ;
#297 = DIRECTION ( 'NONE',  ( 0.9731387067013588243, 0.000000000000000000, -0.2302195854387861507 ) ) ;
#298 = ADVANCED_FACE ( 'NONE', ( #63 ), #72, .T. ) ;
#299 = CARTESIAN_POINT ( 'NONE',  ( 3.800000000000000711, -0.5999999999999999778, 0.5999999999999984235 ) ) ;
#300 = VERTEX_POINT ( 'NONE', #284 ) ;
#301 = EDGE_CURVE ( 'NONE', #315, #401, #246, .T. ) ;
#302 =( GEOMETRIC_REPRESENTATION_CONTEXT ( 3 ) GLOBAL_UNCERTAINTY_ASSIGNED_CONTEXT ( ( #227 ) ) GLOBAL_UNIT_ASSIGNED_CONTEXT ( ( #208, #184, #536 ) ) REPRESENTATION_CONTEXT ( 'NONE', 'WORKASPACE' ) );
#303 = CARTESIAN_POINT ( 'NONE',  ( 8.400000000000002132, -0.8049999999999999378, 2.395000000000001350 ) ) ;
#304 = EDGE_LOOP ( 'NONE', ( #382, #329, #506, #168 ) ) ;
#305 = PLANE ( 'NONE',  #399 ) ;
#306 = CARTESIAN_POINT ( 'NONE',  ( 0.000000000000000000, -0.3950000000000000178, 0.000000000000000000 ) ) ;
#307 = VERTEX_POINT ( 'NONE', #415 ) ;
#308 = LINE ( 'NONE', #83, #406 ) ;
#309 = ADVANCED_FACE ( 'NONE', ( #374 ), #505, .T. ) ;
#310 = FACE_OUTER_BOUND ( 'NONE', #277, .T. ) ;
#311 = ORIENTED_EDGE ( 'NONE', *, *, #143, .F. ) ;
#312 = CARTESIAN_POINT ( 'NONE',  ( 0.000000000000000000, -0.8049999999999999378, 2.395000000000000462 ) ) ;
#313 = VECTOR ( 'NONE', #140, 100.0000000000000142 ) ;
#314 = DIRECTION ( 'NONE',  ( 1.400169662752707186E-14, 0.000000000000000000, -1.000000000000000000 ) ) ;
#315 = VERTEX_POINT ( 'NONE', #154 ) ;
#316 = LINE ( 'NONE', #93, #107 ) ;
#317 = EDGE_CURVE ( 'NONE', #503, #377, #216, .T. ) ;
#318 = LINE ( 'NONE', #486, #11 ) ;
#319 = PRESENTATION_LAYER_ASSIGNMENT (  '', '', ( #464 ) ) ;
#320 = DIRECTION ( 'NONE',  ( 1.000000000000000000, 0.000000000000000000, 2.065146995210482230E-17 ) ) ;
#321 = LINE ( 'NONE', #494, #132 ) ;
#322 = ADVANCED_FACE ( 'NONE', ( #420 ), #201, .T. ) ;
#323 =( NAMED_UNIT ( * ) PLANE_ANGLE_UNIT ( ) SI_UNIT ( $, .RADIAN. ) );
#324 = SURFACE_STYLE_FILL_AREA ( #273 ) ;
#325 = VECTOR ( 'NONE', #52, 100.0000000000000000 ) ;
#326 = UNCERTAINTY_MEASURE_WITH_UNIT (LENGTH_MEASURE( 1.000000000000000082E-05 ), #95, 'distance_accuracy_value', 'NONE');
#327 = VERTEX_POINT ( 'NONE', #36 ) ;
#328 = CARTESIAN_POINT ( 'NONE',  ( 5.300000000000000711, -0.5999999999999999778, 0.5999999999999987566 ) ) ;
#329 = ORIENTED_EDGE ( 'NONE', *, *, #448, .T. ) ;
#330 = CARTESIAN_POINT ( 'NONE',  ( 0.000000000000000000, 0.000000000000000000, 5.000000000000000000 ) ) ;
#331 = CARTESIAN_POINT ( 'NONE',  ( 0.000000000000000000, 0.000000000000000000, 5.000000000000000000 ) ) ;
#332 = VERTEX_POINT ( 'NONE', #204 ) ;
#333 = VECTOR ( 'NONE', #224, 100.0000000000000000 ) ;
#334 = ADVANCED_FACE ( 'NONE', ( #544 ), #376, .T. ) ;
#335 = CARTESIAN_POINT ( 'NONE',  ( 1.399999999999999911, -1.199999999999999956, 3.505000000000002558 ) ) ;
#336 = ORIENTED_EDGE ( 'NONE', *, *, #251, .F. ) ;
#337 = DIRECTION ( 'NONE',  ( 0.000000000000000000, 1.000000000000000000, 0.000000000000000000 ) ) ;
#338 = ORIENTED_EDGE ( 'NONE', *, *, #371, .F. ) ;
#339 = FACE_OUTER_BOUND ( 'NONE', #65, .T. ) ;
#340 = ORIENTED_EDGE ( 'NONE', *, *, #375, .F. ) ;
#341 = CARTESIAN_POINT ( 'NONE',  ( 4.680000000000001492, -0.2900000000000003686, 2.729036373192017084 ) ) ;
#342 = AXIS2_PLACEMENT_3D ( 'NONE', #217, #85, #220 ) ;
#343 = CYLINDRICAL_SURFACE ( 'NONE', #272, 0.3099999999999994982 ) ;
#344 = EDGE_LOOP ( 'NONE', ( #124, #557, #32, #443 ) ) ;
#345 = FACE_OUTER_BOUND ( 'NONE', #344, .T. ) ;
#346 = EDGE_CURVE ( 'NONE', #78, #252, #199, .T. ) ;
#347 = DIRECTION ( 'NONE',  ( 1.239088197126290570E-16, 0.000000000000000000, -1.000000000000000000 ) ) ;
#348 = VERTEX_POINT ( 'NONE', #335 ) ;
#349 = CARTESIAN_POINT ( 'NONE',  ( 0.000000000000000000, -0.3950000000000000178, 0.000000000000000000 ) ) ;
#350 = PRODUCT_RELATED_PRODUCT_CATEGORY ( 'part', '', ( #51 ) ) ;
#351 = CARTESIAN_POINT ( 'NONE',  ( 3.800000000000000711, -0.2900000000000004796, 2.937221736481963941 ) ) ;
#352 = ORIENTED_EDGE ( 'NONE', *, *, #185, .T. ) ;
#353 = CARTESIAN_POINT ( 'NONE',  ( 15.79294267689130749, 0.000000000000000000, 0.000000000000000000 ) ) ;
#354 = AXIS2_PLACEMENT_3D ( 'NONE', #299, #223, #81 ) ;
#355 = DIRECTION ( 'NONE',  ( -1.239088197126290570E-16, 0.000000000000000000, 1.000000000000000000 ) ) ;
#356 = ORIENTED_EDGE ( 'NONE', *, *, #136, .F. ) ;
#357 = ADVANCED_FACE ( 'NONE', ( #113, #290, #511 ), #160, .T. ) ;
#358 = DIRECTION ( 'NONE',  ( -0.000000000000000000, 1.000000000000000000, 0.000000000000000000 ) ) ;
#359 = CARTESIAN_POINT ( 'NONE',  ( 15.79294267689130749, -1.199999999999999956, 0.1000000000000000888 ) ) ;
#360 = CARTESIAN_POINT ( 'NONE',  ( 8.254148364942135885, -1.199999999999999956, 1.883484809774234048 ) ) ;
#361 = DIRECTION ( 'NONE',  ( 0.000000000000000000, 1.000000000000000000, 0.000000000000000000 ) ) ;
#362 = AXIS2_PLACEMENT_3D ( 'NONE', #562, #181, #219 ) ;
#363 = VECTOR ( 'NONE', #278, 100.0000000000000000 ) ;
#364 = ORIENTED_EDGE ( 'NONE', *, *, #94, .F. ) ;
#365 = CARTESIAN_POINT ( 'NONE',  ( 15.79294267689130749, -1.199999999999999956, 0.1000000000000000888 ) ) ;
#366 = EDGE_CURVE ( 'NONE', #422, #163, #498, .T. ) ;
#367 = ORIENTED_EDGE ( 'NONE', *, *, #497, .F. ) ;
#368 = DIRECTION ( 'NONE',  ( 0.9731387067013588243, 0.000000000000000000, -0.2302195854387861507 ) ) ;
#369 = LINE ( 'NONE', #502, #76 ) ;
#370 = AXIS2_PLACEMENT_3D ( 'NONE', #186, #447, #271 ) ;
#371 = EDGE_CURVE ( 'NONE', #425, #22, #369, .T. ) ;
#372 = ORIENTED_EDGE ( 'NONE', *, *, #263, .F. ) ;
#373 = CARTESIAN_POINT ( 'NONE',  ( -0.2500000000000002220, -0.3950000000000000178, 0.000000000000000000 ) ) ;
#374 = FACE_OUTER_BOUND ( 'NONE', #304, .T. ) ;
#375 = EDGE_CURVE ( 'NONE', #71, #523, #439, .T. ) ;
#376 = PLANE ( 'NONE',  #378 ) ;
#377 = VERTEX_POINT ( 'NONE', #23 ) ;
#378 = AXIS2_PLACEMENT_3D ( 'NONE', #552, #295, #467 ) ;
#379 = CARTESIAN_POINT ( 'NONE',  ( 8.400000000000002132, -0.8049999999999999378, 2.500000000000000444 ) ) ;
#380 = EDGE_LOOP ( 'NONE', ( #139, #127 ) ) ;
#381 = CARTESIAN_POINT ( 'NONE',  ( 5.300000000000000711, -0.5999999999999999778, 0.5999999999999987566 ) ) ;
#382 = ORIENTED_EDGE ( 'NONE', *, *, #14, .F. ) ;
#383 = PLANE ( 'NONE',  #421 ) ;
#384 = DIRECTION ( 'NONE',  ( -1.000000000000000000, 0.000000000000000000, -1.239088197126290570E-16 ) ) ;
#385 = ORIENTED_EDGE ( 'NONE', *, *, #263, .T. ) ;
#386 = CARTESIAN_POINT ( 'NONE',  ( 3.800000000000000711, -0.9099999999999994760, 2.937221736481963941 ) ) ;
#387 = EDGE_CURVE ( 'NONE', #348, #242, #461, .T. ) ;
#388 = VECTOR ( 'NONE', #18, 100.0000000000000000 ) ;
#389 = CYLINDRICAL_SURFACE ( 'NONE', #166, 0.3099999999999994982 ) ;
#390 = ORIENTED_EDGE ( 'NONE', *, *, #110, .F. ) ;
#391 = DIRECTION ( 'NONE',  ( -1.239088197126290570E-16, 0.000000000000000000, 1.000000000000000000 ) ) ;
#392 = DIRECTION ( 'NONE',  ( 0.000000000000000000, -1.000000000000000000, 0.000000000000000000 ) ) ;
#393 = ORIENTED_EDGE ( 'NONE', *, *, #457, .T. ) ;
#394 = FACE_OUTER_BOUND ( 'NONE', #553, .T. ) ;
#395 = EDGE_CURVE ( 'NONE', #307, #546, #197, .T. ) ;
#396 = CARTESIAN_POINT ( 'NONE',  ( -0.2499999999999988343, -0.3950000000000000178, 2.395000000000000462 ) ) ;
#397 = FILL_AREA_STYLE_COLOUR ( '', #281 ) ;
#398 = LINE ( 'NONE', #542, #243 ) ;
#399 = AXIS2_PLACEMENT_3D ( 'NONE', #137, #358, #258 ) ;
#400 = CIRCLE ( 'NONE', #98, 0.3099999999999994982 ) ;
#401 = VERTEX_POINT ( 'NONE', #330 ) ;
#402 =( NAMED_UNIT ( * ) SI_UNIT ( $, .STERADIAN. ) SOLID_ANGLE_UNIT ( ) );
#403 = ORIENTED_EDGE ( 'NONE', *, *, #143, .T. ) ;
#404 = LINE ( 'NONE', #59, #122 ) ;
#405 = DIRECTION ( 'NONE',  ( 0.000000000000000000, 0.000000000000000000, -1.000000000000000000 ) ) ;
#406 = VECTOR ( 'NONE', #442, 100.0000000000000000 ) ;
#407 = CARTESIAN_POINT ( 'NONE',  ( -0.2500000000000002220, -0.8049999999999999378, 0.000000000000000000 ) ) ;
#408 = CARTESIAN_POINT ( 'NONE',  ( 1.399999999999999911, 0.000000000000000000, 3.505000000000002558 ) ) ;
#409 = CARTESIAN_POINT ( 'NONE',  ( 3.800000000000000711, -0.2900000000000004796, 2.937221736481963941 ) ) ;
#410 = ORIENTED_EDGE ( 'NONE', *, *, #514, .F. ) ;
#411 = EDGE_CURVE ( 'NONE', #100, #307, #515, .T. ) ;
#412 = CARTESIAN_POINT ( 'NONE',  ( 3.800000000000000711, -0.2900000000000004796, 2.937221736481963941 ) ) ;
#413 = ORIENTED_EDGE ( 'NONE', *, *, #14, .T. ) ;
#414 = VECTOR ( 'NONE', #145, 100.0000000000000000 ) ;
#415 = CARTESIAN_POINT ( 'NONE',  ( -0.2500000000000002220, -0.3950000000000000178, 0.000000000000000000 ) ) ;
#416 = CARTESIAN_POINT ( 'NONE',  ( 8.254148364942135885, -1.199999999999999956, 1.883484809774234048 ) ) ;
#417 = ORIENTED_EDGE ( 'NONE', *, *, #61, .F. ) ;
#418 = DIRECTION ( 'NONE',  ( -0.000000000000000000, 1.000000000000000000, 0.000000000000000000 ) ) ;
#419 = ADVANCED_FACE ( 'NONE', ( #339 ), #343, .F. ) ;
#420 = FACE_OUTER_BOUND ( 'NONE', #380, .T. ) ;
#421 = AXIS2_PLACEMENT_3D ( 'NONE', #42, #528, #53 ) ;
#422 = VERTEX_POINT ( 'NONE', #162 ) ;
#423 = AXIS2_PLACEMENT_3D ( 'NONE', #31, #418, #549 ) ;
#424 = CARTESIAN_POINT ( 'NONE',  ( 0.000000000000000000, -1.199999999999999956, 5.000000000000000000 ) ) ;
#425 = VERTEX_POINT ( 'NONE', #40 ) ;
#426 =( NAMED_UNIT ( * ) PLANE_ANGLE_UNIT ( ) SI_UNIT ( $, .RADIAN. ) );
#427 = ADVANCED_FACE ( 'NONE', ( #167 ), #123, .F. ) ;
#428 = DIRECTION ( 'NONE',  ( -1.239088197126290570E-16, 0.000000000000000000, 1.000000000000000000 ) ) ;
#429 = ORIENTED_EDGE ( 'NONE', *, *, #55, .T. ) ;
#430 = DIRECTION ( 'NONE',  ( 1.000000000000000000, 0.000000000000000000, 2.065146995210481305E-17 ) ) ;
#431 = CARTESIAN_POINT ( 'NONE',  ( 3.800000000000000711, -0.2900000000000004796, 0.5999999999999984235 ) ) ;
#432 = VERTEX_POINT ( 'NONE', #431 ) ;
#433 = PRESENTATION_STYLE_ASSIGNMENT (( #206 ) ) ;
#434 = LINE ( 'NONE', #125, #177 ) ;
#435 = AXIS2_PLACEMENT_3D ( 'NONE', #379, #248, #244 ) ;
#436 = LINE ( 'NONE', #559, #179 ) ;
#437 = ORIENTED_EDGE ( 'NONE', *, *, #411, .T. ) ;
#438 = DIRECTION ( 'NONE',  ( 1.239088197126290570E-16, 0.000000000000000000, -1.000000000000000000 ) ) ;
#439 =( BOUNDED_CURVE ( )  B_SPLINE_CURVE ( 3, ( #458, #64, #238, #412 ),
 .UNSPECIFIED., .F., .F. ) 
 B_SPLINE_CURVE_WITH_KNOTS ( ( 4, 4 ),
 ( 1.570796326794896558, 4.712388980384689674 ),
 .UNSPECIFIED. ) 
 CURVE ( )  GEOMETRIC_REPRESENTATION_ITEM ( )  RATIONAL_B_SPLINE_CURVE ( ( 1.000000000000000000, 0.3333333333333333703, 0.3333333333333333703, 1.000000000000000000 ) ) 
 REPRESENTATION_ITEM ( '' )  );
#440 = PLANE ( 'NONE',  #35 ) ;
#441 = DIRECTION ( 'NONE',  ( 4.098522498186961307E-16, 0.000000000000000000, 1.000000000000000000 ) ) ;
#442 = DIRECTION ( 'NONE',  ( -1.000000000000000000, 0.000000000000000000, 2.465190328815662439E-32 ) ) ;
#443 = ORIENTED_EDGE ( 'NONE', *, *, #103, .T. ) ;
#444 = SURFACE_STYLE_USAGE ( .BOTH. , #101 ) ;
#445 = AXIS2_PLACEMENT_3D ( 'NONE', #328, #153, #194 ) ;
#446 = CARTESIAN_POINT ( 'NONE',  ( 0.000000000000000000, -1.199999999999999956, 0.000000000000000000 ) ) ;
#447 = DIRECTION ( 'NONE',  ( 0.000000000000000000, 1.000000000000000000, -0.000000000000000000 ) ) ;
#448 = EDGE_CURVE ( 'NONE', #121, #193, #5, .T. ) ;
#449 = CARTESIAN_POINT ( 'NONE',  ( 5.300000000000000711, -0.9099999999999994760, 0.5999999999999987566 ) ) ;
#450 = APPLICATION_PROTOCOL_DEFINITION ( 'draft international standard', 'automotive_design', 1998, #524 ) ;
#451 = PLANE ( 'NONE',  #534 ) ;
#452 = CARTESIAN_POINT ( 'NONE',  ( 1.399999999999999911, -1.199999999999999956, 5.000000000000002665 ) ) ;
#453 = PRODUCT_DEFINITION ( 'UNKNOWN', '', #294, #292 ) ;
#454 = CIRCLE ( 'NONE', #106, 0.3099999999999994982 ) ;
#455 = AXIS2_PLACEMENT_3D ( 'NONE', #416, #111, #297 ) ;
#456 = LINE ( 'NONE', #17, #142 ) ;
#457 = EDGE_CURVE ( 'NONE', #193, #546, #551, .T. ) ;
#458 = CARTESIAN_POINT ( 'NONE',  ( 3.800000000000000711, -0.9099999999999994760, 2.937221736481963941 ) ) ;
#459 = UNCERTAINTY_MEASURE_WITH_UNIT (LENGTH_MEASURE( 1.000000000000000082E-05 ), #60, 'distance_accuracy_value', 'NONE');
#460 = ORIENTED_EDGE ( 'NONE', *, *, #192, .T. ) ;
#461 = LINE ( 'NONE', #67, #189 ) ;
#462 = ORIENTED_EDGE ( 'NONE', *, *, #200, .F. ) ;
#463 =( GEOMETRIC_REPRESENTATION_CONTEXT ( 3 ) GLOBAL_UNCERTAINTY_ASSIGNED_CONTEXT ( ( #326 ) ) GLOBAL_UNIT_ASSIGNED_CONTEXT ( ( #95, #426, #79 ) ) REPRESENTATION_CONTEXT ( 'NONE', 'WORKASPACE' ) );
#464 = STYLED_ITEM ( 'NONE', ( #499 ), #207 ) ;
#465 = EDGE_LOOP ( 'NONE', ( #550, #180, #473, #372 ) ) ;
#466 = SURFACE_SIDE_STYLE ('',( #547 ) ) ;
#467 = DIRECTION ( 'NONE',  ( 1.400169662752707028E-14, 0.000000000000000000, -1.000000000000000000 ) ) ;
#468 = ORIENTED_EDGE ( 'NONE', *, *, #366, .F. ) ;
#469 = CARTESIAN_POINT ( 'NONE',  ( -0.2500000000000002220, -0.8049999999999999378, 0.000000000000000000 ) ) ;
#470 = ORIENTED_EDGE ( 'NONE', *, *, #471, .T. ) ;
#471 = EDGE_CURVE ( 'NONE', #78, #401, #519, .T. ) ;
#472 = FACE_OUTER_BOUND ( 'NONE', #37, .T. ) ;
#473 = ORIENTED_EDGE ( 'NONE', *, *, #268, .T. ) ;
#474 = CARTESIAN_POINT ( 'NONE',  ( 15.79294267689127551, -1.199999999999999956, 2.500000000000103917 ) ) ;
#475 = DIRECTION ( 'NONE',  ( -1.000000000000000000, -0.000000000000000000, -1.239088197126290570E-16 ) ) ;
#476 = ORIENTED_EDGE ( 'NONE', *, *, #165, .F. ) ;
#477 = LINE ( 'NONE', #266, #333 ) ;
#478 = CARTESIAN_POINT ( 'NONE',  ( 0.000000000000000000, -1.199999999999999956, 5.000000000000000000 ) ) ;
#479 = EDGE_LOOP ( 'NONE', ( #75, #367, #202, #38 ) ) ;
#480 = CARTESIAN_POINT ( 'NONE',  ( 1.399999999999999911, 0.000000000000000000, 2.499999999999999556 ) ) ;
#481 = VECTOR ( 'NONE', #74, 100.0000000000000000 ) ;
#482 = DIRECTION ( 'NONE',  ( 0.000000000000000000, -1.000000000000000000, 0.000000000000000000 ) ) ;
#483 = DIRECTION ( 'NONE',  ( -1.000000000000000000, 0.000000000000000000, 2.465190328815662439E-32 ) ) ;
#484 = DIRECTION ( 'NONE',  ( 0.000000000000000000, -1.000000000000000000, 0.000000000000000000 ) ) ;
#485 = DIRECTION ( 'NONE',  ( 1.000000000000000000, 0.000000000000000000, 1.239088197126290570E-16 ) ) ;
#486 = CARTESIAN_POINT ( 'NONE',  ( 16.80000000000000071, 0.000000000000000000, 0.000000000000000000 ) ) ;
#487 = DIRECTION ( 'NONE',  ( -0.000000000000000000, -1.000000000000000000, 0.000000000000000000 ) ) ;
#488 = VECTOR ( 'NONE', #347, 100.0000000000000000 ) ;
#489 = ADVANCED_FACE ( 'NONE', ( #472 ), #389, .F. ) ;
#490 = EDGE_LOOP ( 'NONE', ( #41, #393, #530, #417 ) ) ;
#491 = LINE ( 'NONE', #360, #313 ) ;
#492 = ORIENTED_EDGE ( 'NONE', *, *, #157, .F. ) ;
#493 = LINE ( 'NONE', #496, #388 ) ;
#494 = CARTESIAN_POINT ( 'NONE',  ( 5.300000000000000711, -0.2900000000000004796, 0.5999999999999987566 ) ) ;
#495 = SHAPE_DEFINITION_REPRESENTATION ( #267, #241 ) ;
#496 = CARTESIAN_POINT ( 'NONE',  ( 1.399999999999999911, -1.199999999999999956, 5.000000000000002665 ) ) ;
#497 = EDGE_CURVE ( 'NONE', #377, #503, #400, .T. ) ;
#498 =( BOUNDED_CURVE ( )  B_SPLINE_CURVE ( 3, ( #286, #151, #26, #512 ),
 .UNSPECIFIED., .F., .F. ) 
 B_SPLINE_CURVE_WITH_KNOTS ( ( 4, 4 ),
 ( 1.570796326794896558, 4.712388980384689674 ),
 .UNSPECIFIED. ) 
 CURVE ( )  GEOMETRIC_REPRESENTATION_ITEM ( )  RATIONAL_B_SPLINE_CURVE ( ( 1.000000000000000000, 0.3333333333333333703, 0.3333333333333333703, 1.000000000000000000 ) ) 
 REPRESENTATION_ITEM ( '' )  );
#499 = PRESENTATION_STYLE_ASSIGNMENT (( #444 ) ) ;
#500 = EDGE_LOOP ( 'NONE', ( #114, #247, #364, #90 ) ) ;
#501 = ADVANCED_FACE ( 'NONE', ( #44 ), #170, .F. ) ;
#502 = CARTESIAN_POINT ( 'NONE',  ( 0.000000000000000000, -1.199999999999999956, 0.000000000000000000 ) ) ;
#503 = VERTEX_POINT ( 'NONE', #174 ) ;
#504 = EDGE_CURVE ( 'NONE', #252, #348, #522, .T. ) ;
#505 = PLANE ( 'NONE',  #435 ) ;
#506 = ORIENTED_EDGE ( 'NONE', *, *, #539, .F. ) ;
#507 = ADVANCED_FACE ( 'NONE', ( #310 ), #440, .T. ) ;
#508 = AXIS2_PLACEMENT_3D ( 'NONE', #509, #117, #70 ) ;
#509 = CARTESIAN_POINT ( 'NONE',  ( 5.300000000000000711, -0.5999999999999999778, 0.5999999999999987566 ) ) ;
#510 = ORIENTED_EDGE ( 'NONE', *, *, #548, .T. ) ;
#511 = FACE_OUTER_BOUND ( 'NONE', #465, .T. ) ;
#512 = CARTESIAN_POINT ( 'NONE',  ( 5.300000000000000711, -0.2900000000000004796, 2.582360321783190749 ) ) ;
#513 = ORIENTED_EDGE ( 'NONE', *, *, #245, .T. ) ;
#514 = EDGE_CURVE ( 'NONE', #432, #523, #436, .T. ) ;
#515 = LINE ( 'NONE', #306, #517 ) ;
#516 = ORIENTED_EDGE ( 'NONE', *, *, #268, .F. ) ;
#517 = VECTOR ( 'NONE', #253, 100.0000000000000000 ) ;
#518 = CARTESIAN_POINT ( 'NONE',  ( 4.680000000000001492, -0.9099999999999994760, 2.729036373192017084 ) ) ;
#519 = LINE ( 'NONE', #424, #203 ) ;
#520 = ORIENTED_EDGE ( 'NONE', *, *, #371, .T. ) ;
#521 = PLANE ( 'NONE',  #561 ) ;
#522 = LINE ( 'NONE', #211, #488 ) ;
#523 = VERTEX_POINT ( 'NONE', #351 ) ;
#524 = APPLICATION_CONTEXT ( 'automotive_design' ) ;
#525 = DIRECTION ( 'NONE',  ( -1.000000000000000000, 0.000000000000000000, -1.239088197126290570E-16 ) ) ;
#526 = LINE ( 'NONE', #133, #250 ) ;
#527 = ORIENTED_EDGE ( 'NONE', *, *, #103, .F. ) ;
#528 = DIRECTION ( 'NONE',  ( -1.239088197126290570E-16, 0.000000000000000000, 1.000000000000000000 ) ) ;
#529 = LINE ( 'NONE', #262, #115 ) ;
#530 = ORIENTED_EDGE ( 'NONE', *, *, #395, .F. ) ;
#531 = CARTESIAN_POINT ( 'NONE',  ( 8.400000000000002132, -0.3950000000000000178, 2.500000000000000444 ) ) ;
#532 = EDGE_CURVE ( 'NONE', #332, #159, #526, .T. ) ;
#533 = DIRECTION ( 'NONE',  ( 0.000000000000000000, 1.000000000000000000, 0.000000000000000000 ) ) ;
#534 = AXIS2_PLACEMENT_3D ( 'NONE', #275, #232, #441 ) ;
#535 = AXIS2_PLACEMENT_3D ( 'NONE', #108, #405, #15 ) ;
#536 =( NAMED_UNIT ( * ) SI_UNIT ( $, .STERADIAN. ) SOLID_ANGLE_UNIT ( ) );
#537 = ORIENTED_EDGE ( 'NONE', *, *, #514, .T. ) ;
#538 = FACE_OUTER_BOUND ( 'NONE', #56, .T. ) ;
#539 = EDGE_CURVE ( 'NONE', #6, #193, #120, .T. ) ;
#540 = LINE ( 'NONE', #13, #414 ) ;
#541 = CARTESIAN_POINT ( 'NONE',  ( -0.2499999999999988343, -0.8049999999999999378, 2.395000000000000462 ) ) ;
#542 = CARTESIAN_POINT ( 'NONE',  ( 15.79294267689130749, -1.199999999999999956, 0.000000000000000000 ) ) ;
#543 = ORIENTED_EDGE ( 'NONE', *, *, #548, .F. ) ;
#544 = FACE_OUTER_BOUND ( 'NONE', #82, .T. ) ;
#545 = DIRECTION ( 'NONE',  ( 4.098522498186961307E-16, 0.000000000000000000, 1.000000000000000000 ) ) ;
#546 = VERTEX_POINT ( 'NONE', #396 ) ;
#547 = SURFACE_STYLE_FILL_AREA ( #9 ) ;
#548 = EDGE_CURVE ( 'NONE', #425, #78, #8, .T. ) ;
#549 = DIRECTION ( 'NONE',  ( 1.000000000000000000, 0.000000000000000000, 1.239088197126290570E-16 ) ) ;
#550 = ORIENTED_EDGE ( 'NONE', *, *, #387, .F. ) ;
#551 = CIRCLE ( 'NONE', #342, 0.2049999999999999600 ) ;
#552 = CARTESIAN_POINT ( 'NONE',  ( 15.79294267689127551, -1.199999999999999956, 2.500000000000103917 ) ) ;
#553 = EDGE_LOOP ( 'NONE', ( #237, #212, #543, #476, #311, #462 ) ) ;
#554 = DIRECTION ( 'NONE',  ( 1.000000000000000000, 0.000000000000000000, 2.065146995210481305E-17 ) ) ;
#555 = ORIENTED_EDGE ( 'NONE', *, *, #73, .F. ) ;
#556 = DIRECTION ( 'NONE',  ( -1.239088197126290570E-16, 0.000000000000000000, 1.000000000000000000 ) ) ;
#557 = ORIENTED_EDGE ( 'NONE', *, *, #457, .F. ) ;
#558 = DIRECTION ( 'NONE',  ( 0.000000000000000000, 1.000000000000000000, 0.000000000000000000 ) ) ;
#559 = CARTESIAN_POINT ( 'NONE',  ( 3.800000000000000711, -0.2900000000000004796, 0.5999999999999984235 ) ) ;
#560 = ORIENTED_EDGE ( 'NONE', *, *, #229, .T. ) ;
#561 = AXIS2_PLACEMENT_3D ( 'NONE', #222, #485, #7 ) ;
#562 = CARTESIAN_POINT ( 'NONE',  ( -0.2499999999999988343, -0.5999999999999999778, 2.395000000000000462 ) ) ;
ENDSEC;
END-ISO-10303-21;
