ISO-10303-21;
HEADER;
FILE_DESCRIPTION (( 'STEP AP214' ),
    '1' );
FILE_NAME ('ramp-wall-half_61.STEP',
    '2026-06-17T01:46:06',
    ( '' ),
    ( '' ),
    'SwSTEP 2.0',
    'SolidWorks 2023',
    '' );
FILE_SCHEMA (( 'AUTOMOTIVE_DESIGN' ));
ENDSEC;

DATA;
#1 = AXIS2_PLACEMENT_3D ( 'NONE', #206, #355, #2 ) ;
#2 = DIRECTION ( 'NONE',  ( -1.000000000000000000, 0.000000000000000000, -1.239088197126290570E-16 ) ) ;
#3 = VERTEX_POINT ( 'NONE', #429 ) ;
#4 = CARTESIAN_POINT ( 'NONE',  ( 1.399999999999999911, -1.199999999999999956, 3.505000000000002558 ) ) ;
#5 = LINE ( 'NONE', #170, #397 ) ;
#6 = DIRECTION ( 'NONE',  ( -1.239088197126290570E-16, 0.000000000000000000, 1.000000000000000000 ) ) ;
#7 = ORIENTED_EDGE ( 'NONE', *, *, #559, .T. ) ;
#8 = CARTESIAN_POINT ( 'NONE',  ( 8.254148364942135885, -1.199999999999999956, 1.883484809774234048 ) ) ;
#9 = PLANE ( 'NONE',  #480 ) ;
#10 = ORIENTED_EDGE ( 'NONE', *, *, #236, .F. ) ;
#11 = EDGE_CURVE ( 'NONE', #22, #501, #75, .T. ) ;
#12 = CYLINDRICAL_SURFACE ( 'NONE', #275, 0.2049999999999999600 ) ;
#13 = CARTESIAN_POINT ( 'NONE',  ( 5.300000000000000711, -0.9049999999999999156, 0.5999999999999987566 ) ) ;
#14 = CARTESIAN_POINT ( 'NONE',  ( 0.000000000000000000, -1.199999999999999956, 5.000000000000000000 ) ) ;
#15 = VERTEX_POINT ( 'NONE', #251 ) ;
#16 = DIRECTION ( 'NONE',  ( -1.239088197126290570E-16, 0.000000000000000000, 1.000000000000000000 ) ) ;
#17 = SHAPE_DEFINITION_REPRESENTATION ( #20, #294 ) ;
#18 = DIRECTION ( 'NONE',  ( -1.000000000000000000, 0.000000000000000000, -1.239088197126290570E-16 ) ) ;
#19 = ORIENTED_EDGE ( 'NONE', *, *, #465, .T. ) ;
#20 = PRODUCT_DEFINITION_SHAPE ( 'NONE', 'NONE',  #186 ) ;
#21 = ORIENTED_EDGE ( 'NONE', *, *, #258, .T. ) ;
#22 = VERTEX_POINT ( 'NONE', #34 ) ;
#23 = VECTOR ( 'NONE', #176, 100.0000000000000000 ) ;
#24 =( BOUNDED_CURVE ( )  B_SPLINE_CURVE ( 3, ( #276, #324, #54, #374 ),
 .UNSPECIFIED., .F., .F. ) 
 B_SPLINE_CURVE_WITH_KNOTS ( ( 4, 4 ),
 ( 4.712388980384689674, 7.853981633974482790 ),
 .UNSPECIFIED. ) 
 CURVE ( )  GEOMETRIC_REPRESENTATION_ITEM ( )  RATIONAL_B_SPLINE_CURVE ( ( 1.000000000000000000, 0.3333333333333333703, 0.3333333333333333703, 1.000000000000000000 ) ) 
 REPRESENTATION_ITEM ( '' )  );
#25 = ORIENTED_EDGE ( 'NONE', *, *, #290, .F. ) ;
#26 = CARTESIAN_POINT ( 'NONE',  ( 0.000000000000000000, -0.3950000000000000178, 0.000000000000000000 ) ) ;
#27 = CARTESIAN_POINT ( 'NONE',  ( -0.2499999999999988343, -0.5999999999999999778, 2.395000000000000462 ) ) ;
#28 = VECTOR ( 'NONE', #87, 100.0000000000000000 ) ;
#29 = DIRECTION ( 'NONE',  ( 0.000000000000000000, -1.000000000000000000, 0.000000000000000000 ) ) ;
#30 = FACE_OUTER_BOUND ( 'NONE', #486, .T. ) ;
#31 = CARTESIAN_POINT ( 'NONE',  ( 15.79294267689130749, -1.199999999999999956, 0.000000000000000000 ) ) ;
#32 = ADVANCED_FACE ( 'NONE', ( #30 ), #111, .F. ) ;
#33 = DIRECTION ( 'NONE',  ( -1.239088197126290570E-16, 0.000000000000000000, 1.000000000000000000 ) ) ;
#34 = CARTESIAN_POINT ( 'NONE',  ( 0.000000000000000000, -0.3950000000000000178, 2.395000000000000462 ) ) ;
#35 = VECTOR ( 'NONE', #225, 100.0000000000000000 ) ;
#36 = CARTESIAN_POINT ( 'NONE',  ( 0.000000000000000000, -0.3950000000000000178, 0.000000000000000000 ) ) ;
#37 = VECTOR ( 'NONE', #160, 100.0000000000000000 ) ;
#38 = DIRECTION ( 'NONE',  ( 1.000000000000000000, 0.000000000000000000, 1.239088197126290570E-16 ) ) ;
#39 = ORIENTED_EDGE ( 'NONE', *, *, #520, .F. ) ;
#40 = LINE ( 'NONE', #292, #427 ) ;
#41 = CARTESIAN_POINT ( 'NONE',  ( -0.2500000000000002220, -0.8049999999999999378, 0.000000000000000000 ) ) ;
#42 = ORIENTED_EDGE ( 'NONE', *, *, #323, .T. ) ;
#43 = LINE ( 'NONE', #352, #545 ) ;
#44 = APPLICATION_PROTOCOL_DEFINITION ( 'draft international standard', 'automotive_design', 1998, #187 ) ;
#45 = CARTESIAN_POINT ( 'NONE',  ( 4.690000000000001279, -0.2950000000000000955, 2.726670630427358688 ) ) ;
#46 = EDGE_LOOP ( 'NONE', ( #403, #143 ) ) ;
#47 = MECHANICAL_DESIGN_GEOMETRIC_PRESENTATION_REPRESENTATION (  '', ( #508 ), #72 ) ;
#48 = CARTESIAN_POINT ( 'NONE',  ( 4.410000000000000142, -0.9050000000000000266, 2.792911427837796445 ) ) ;
#49 = ORIENTED_EDGE ( 'NONE', *, *, #83, .F. ) ;
#50 = PLANE ( 'NONE',  #411 ) ;
#51 = ORIENTED_EDGE ( 'NONE', *, *, #331, .T. ) ;
#52 = CYLINDRICAL_SURFACE ( 'NONE', #420, 0.3049999999999998823 ) ;
#53 = DIRECTION ( 'NONE',  ( -1.239088197126290570E-16, 0.000000000000000000, 1.000000000000000000 ) ) ;
#54 = CARTESIAN_POINT ( 'NONE',  ( 3.190000000000001279, -0.9050000000000000266, 3.081532045126131880 ) ) ;
#55 = ORIENTED_EDGE ( 'NONE', *, *, #538, .F. ) ;
#56 = DIRECTION ( 'NONE',  ( 1.400169662752707028E-14, 0.000000000000000000, -1.000000000000000000 ) ) ;
#57 = CIRCLE ( 'NONE', #70, 0.3049999999999998823 ) ;
#58 = VECTOR ( 'NONE', #96, 100.0000000000000142 ) ;
#59 = CARTESIAN_POINT ( 'NONE',  ( 15.79294267689127551, -1.199999999999999956, 2.500000000000103917 ) ) ;
#60 = ORIENTED_EDGE ( 'NONE', *, *, #134, .T. ) ;
#61 = ADVANCED_FACE ( 'NONE', ( #285 ), #347, .F. ) ;
#62 = PLANE ( 'NONE',  #66 ) ;
#63 = ORIENTED_EDGE ( 'NONE', *, *, #258, .F. ) ;
#64 = VERTEX_POINT ( 'NONE', #340 ) ;
#65 = ORIENTED_EDGE ( 'NONE', *, *, #331, .F. ) ;
#66 = AXIS2_PLACEMENT_3D ( 'NONE', #226, #149, #317 ) ;
#67 = EDGE_CURVE ( 'NONE', #152, #406, #159, .T. ) ;
#68 = CARTESIAN_POINT ( 'NONE',  ( 3.800000000000000711, -0.5999999999999999778, 0.5999999999999984235 ) ) ;
#69 = CARTESIAN_POINT ( 'NONE',  ( 15.79294267689130749, 0.000000000000000000, 0.1000000000000000888 ) ) ;
#70 = AXIS2_PLACEMENT_3D ( 'NONE', #308, #53, #396 ) ;
#71 = EDGE_CURVE ( 'NONE', #351, #164, #108, .T. ) ;
#72 =( GEOMETRIC_REPRESENTATION_CONTEXT ( 3 ) GLOBAL_UNCERTAINTY_ASSIGNED_CONTEXT ( ( #112 ) ) GLOBAL_UNIT_ASSIGNED_CONTEXT ( ( #273, #269, #320 ) ) REPRESENTATION_CONTEXT ( 'NONE', 'WORKASPACE' ) );
#73 = DIRECTION ( 'NONE',  ( -1.000000000000000000, 0.000000000000000000, 2.465190328815662439E-32 ) ) ;
#74 = CARTESIAN_POINT ( 'NONE',  ( 5.910000000000000142, -0.9050000000000000266, 2.438050013139023697 ) ) ;
#75 = LINE ( 'NONE', #509, #479 ) ;
#76 = DIRECTION ( 'NONE',  ( 0.000000000000000000, -1.000000000000000000, 0.000000000000000000 ) ) ;
#77 = LINE ( 'NONE', #252, #413 ) ;
#78 = CARTESIAN_POINT ( 'NONE',  ( 8.400000000000002132, -1.199999999999999956, 2.500000000000000444 ) ) ;
#79 = CARTESIAN_POINT ( 'NONE',  ( 0.000000000000000000, -1.199999999999999956, 0.000000000000000000 ) ) ;
#80 =( GEOMETRIC_REPRESENTATION_CONTEXT ( 3 ) GLOBAL_UNCERTAINTY_ASSIGNED_CONTEXT ( ( #243 ) ) GLOBAL_UNIT_ASSIGNED_CONTEXT ( ( #123, #481, #256 ) ) REPRESENTATION_CONTEXT ( 'NONE', 'WORKASPACE' ) );
#81 = CARTESIAN_POINT ( 'NONE',  ( 5.300000000000000711, -0.2950000000000002065, 0.5999999999999987566 ) ) ;
#82 = AXIS2_PLACEMENT_3D ( 'NONE', #172, #524, #360 ) ;
#83 = EDGE_CURVE ( 'NONE', #506, #422, #302, .T. ) ;
#84 = ORIENTED_EDGE ( 'NONE', *, *, #115, .F. ) ;
#85 = CARTESIAN_POINT ( 'NONE',  ( 3.800000000000000711, -0.9049999999999999156, 0.5999999999999984235 ) ) ;
#86 = ORIENTED_EDGE ( 'NONE', *, *, #109, .F. ) ;
#87 = DIRECTION ( 'NONE',  ( 1.239088197126290570E-16, -0.000000000000000000, -1.000000000000000000 ) ) ;
#88 = CARTESIAN_POINT ( 'NONE',  ( 0.000000000000000000, -1.199999999999999956, 0.000000000000000000 ) ) ;
#89 = CARTESIAN_POINT ( 'NONE',  ( 1.399999999999999911, 0.000000000000000000, 3.505000000000002558 ) ) ;
#90 = VERTEX_POINT ( 'NONE', #296 ) ;
#91 = FACE_OUTER_BOUND ( 'NONE', #237, .T. ) ;
#92 = EDGE_CURVE ( 'NONE', #541, #419, #476, .T. ) ;
#93 = AXIS2_PLACEMENT_3D ( 'NONE', #322, #370, #175 ) ;
#94 = CARTESIAN_POINT ( 'NONE',  ( 5.300000000000000711, -0.2950000000000002065, 2.582360321783190749 ) ) ;
#95 = ORIENTED_EDGE ( 'NONE', *, *, #456, .T. ) ;
#96 = DIRECTION ( 'NONE',  ( 0.9731387067013588243, 0.000000000000000000, -0.2302195854387861507 ) ) ;
#97 = SURFACE_SIDE_STYLE ('',( #510 ) ) ;
#98 = PLANE ( 'NONE',  #238 ) ;
#99 = EDGE_CURVE ( 'NONE', #469, #419, #438, .T. ) ;
#100 = DIRECTION ( 'NONE',  ( 1.400169662752707186E-14, 0.000000000000000000, -1.000000000000000000 ) ) ;
#101 = ORIENTED_EDGE ( 'NONE', *, *, #71, .F. ) ;
#102 = VECTOR ( 'NONE', #211, 100.0000000000000000 ) ;
#103 = ORIENTED_EDGE ( 'NONE', *, *, #487, .F. ) ;
#104 = PRODUCT_RELATED_PRODUCT_CATEGORY ( 'part', '', ( #147 ) ) ;
#105 = LINE ( 'NONE', #451, #389 ) ;
#106 = ORIENTED_EDGE ( 'NONE', *, *, #67, .T. ) ;
#107 = ORIENTED_EDGE ( 'NONE', *, *, #115, .T. ) ;
#108 = LINE ( 'NONE', #418, #540 ) ;
#109 = EDGE_CURVE ( 'NONE', #419, #249, #552, .T. ) ;
#110 = AXIS2_PLACEMENT_3D ( 'NONE', #405, #521, #38 ) ;
#111 = CYLINDRICAL_SURFACE ( 'NONE', #367, 0.3049999999999998823 ) ;
#112 = UNCERTAINTY_MEASURE_WITH_UNIT (LENGTH_MEASURE( 1.000000000000000082E-05 ), #273, 'distance_accuracy_value', 'NONE');
#113 = CARTESIAN_POINT ( 'NONE',  ( 3.800000000000000711, -0.2950000000000002065, 0.5999999999999984235 ) ) ;
#114 = DIRECTION ( 'NONE',  ( -1.239088197126290570E-16, 0.000000000000000000, 1.000000000000000000 ) ) ;
#115 = EDGE_CURVE ( 'NONE', #422, #22, #40, .T. ) ;
#116 = LINE ( 'NONE', #31, #299 ) ;
#117 = VECTOR ( 'NONE', #196, 100.0000000000000000 ) ;
#118 = DIRECTION ( 'NONE',  ( 0.000000000000000000, 1.000000000000000000, 0.000000000000000000 ) ) ;
#119 = CARTESIAN_POINT ( 'NONE',  ( 3.800000000000000711, -0.5999999999999999778, 0.5999999999999984235 ) ) ;
#120 = DIRECTION ( 'NONE',  ( -1.239088197126290570E-16, 0.000000000000000000, 1.000000000000000000 ) ) ;
#121 = CYLINDRICAL_SURFACE ( 'NONE', #216, 0.3049999999999998823 ) ;
#122 = DIRECTION ( 'NONE',  ( -1.239088197126290570E-16, 0.000000000000000000, 1.000000000000000000 ) ) ;
#123 =( LENGTH_UNIT ( ) NAMED_UNIT ( * ) SI_UNIT ( .CENTI., .METRE. ) );
#124 = ORIENTED_EDGE ( 'NONE', *, *, #559, .F. ) ;
#125 = CIRCLE ( 'NONE', #177, 0.2049999999999999600 ) ;
#126 = CARTESIAN_POINT ( 'NONE',  ( 15.79294267689130749, 0.000000000000000000, 0.000000000000000000 ) ) ;
#127 = COLOUR_RGB ( '',1.000000000000000000, 1.000000000000000000, 1.000000000000000000 ) ;
#128 = CARTESIAN_POINT ( 'NONE',  ( 0.000000000000000000, -0.8049999999999999378, 2.395000000000000462 ) ) ;
#129 = VECTOR ( 'NONE', #73, 100.0000000000000000 ) ;
#130 = ORIENTED_EDGE ( 'NONE', *, *, #11, .T. ) ;
#131 =( NAMED_UNIT ( * ) PLANE_ANGLE_UNIT ( ) SI_UNIT ( $, .RADIAN. ) );
#132 = CARTESIAN_POINT ( 'NONE',  ( 3.800000000000000711, -0.9049999999999999156, 2.937221736481963941 ) ) ;
#133 = VERTEX_POINT ( 'NONE', #208 ) ;
#134 = EDGE_CURVE ( 'NONE', #164, #150, #558, .T. ) ;
#135 = PLANE ( 'NONE',  #435 ) ;
#136 = ORIENTED_EDGE ( 'NONE', *, *, #348, .F. ) ;
#137 = FACE_OUTER_BOUND ( 'NONE', #461, .T. ) ;
#138 = APPLICATION_CONTEXT ( 'automotive_design' ) ;
#139 = AXIS2_PLACEMENT_3D ( 'NONE', #305, #445, #222 ) ;
#140 = SURFACE_STYLE_USAGE ( .BOTH. , #97 ) ;
#141 = VERTEX_POINT ( 'NONE', #394 ) ;
#142 = LINE ( 'NONE', #8, #58 ) ;
#143 = ORIENTED_EDGE ( 'NONE', *, *, #204, .T. ) ;
#144 = CARTESIAN_POINT ( 'NONE',  ( 3.800000000000000711, -0.2950000000000002065, 0.5999999999999984235 ) ) ;
#145 = DIRECTION ( 'NONE',  ( 0.000000000000000000, 1.000000000000000000, 0.000000000000000000 ) ) ;
#146 = ORIENTED_EDGE ( 'NONE', *, *, #538, .T. ) ;
#147 = PRODUCT ( 'ramp-wall-half_61', 'ramp-wall-half_61', '', ( #217 ) ) ;
#148 = AXIS2_PLACEMENT_3D ( 'NONE', #454, #279, #492 ) ;
#149 = DIRECTION ( 'NONE',  ( -2.065146995210482230E-17, 0.000000000000000000, 1.000000000000000000 ) ) ;
#150 = VERTEX_POINT ( 'NONE', #4 ) ;
#151 = ORIENTED_EDGE ( 'NONE', *, *, #228, .F. ) ;
#152 = VERTEX_POINT ( 'NONE', #165 ) ;
#153 = VECTOR ( 'NONE', #555, 100.0000000000000000 ) ;
#154 = FACE_OUTER_BOUND ( 'NONE', #310, .T. ) ;
#155 = EDGE_CURVE ( 'NONE', #270, #399, #43, .T. ) ;
#156 = CARTESIAN_POINT ( 'NONE',  ( 5.300000000000000711, -0.9049999999999999156, 2.582360321783190749 ) ) ;
#157 = LINE ( 'NONE', #426, #153 ) ;
#158 = LINE ( 'NONE', #467, #544 ) ;
#159 = LINE ( 'NONE', #81, #554 ) ;
#160 = DIRECTION ( 'NONE',  ( 1.400169662752707186E-14, 0.000000000000000000, -1.000000000000000000 ) ) ;
#161 = ADVANCED_FACE ( 'NONE', ( #91 ), #430, .T. ) ;
#162 = LINE ( 'NONE', #293, #129 ) ;
#163 = SURFACE_STYLE_USAGE ( .BOTH. , #309 ) ;
#164 = VERTEX_POINT ( 'NONE', #518 ) ;
#165 = CARTESIAN_POINT ( 'NONE',  ( 5.300000000000000711, -0.2950000000000002065, 0.5999999999999987566 ) ) ;
#166 = CYLINDRICAL_SURFACE ( 'NONE', #382, 0.3049999999999998823 ) ;
#167 = PLANE ( 'NONE',  #1 ) ;
#168 = ORIENTED_EDGE ( 'NONE', *, *, #183, .T. ) ;
#169 = COLOUR_RGB ( '',0.6941176470588235059, 0.09803921568627450844, 0.09803921568627450844 ) ;
#170 = CARTESIAN_POINT ( 'NONE',  ( 5.300000000000000711, -0.9049999999999999156, 0.5999999999999987566 ) ) ;
#171 = ORIENTED_EDGE ( 'NONE', *, *, #393, .T. ) ;
#172 = CARTESIAN_POINT ( 'NONE',  ( 0.08400000000000001910, -0.006000000000000000125, 0.02500000000000000486 ) ) ;
#173 = FACE_BOUND ( 'NONE', #189, .T. ) ;
#174 = VERTEX_POINT ( 'NONE', #126 ) ;
#175 = DIRECTION ( 'NONE',  ( 0.000000000000000000, -1.000000000000000000, 0.000000000000000000 ) ) ;
#176 = DIRECTION ( 'NONE',  ( 0.000000000000000000, 1.000000000000000000, 0.000000000000000000 ) ) ;
#177 = AXIS2_PLACEMENT_3D ( 'NONE', #255, #515, #118 ) ;
#178 =( LENGTH_UNIT ( ) NAMED_UNIT ( * ) SI_UNIT ( .CENTI., .METRE. ) );
#179 = AXIS2_PLACEMENT_3D ( 'NONE', #457, #372, #338 ) ;
#180 = DIRECTION ( 'NONE',  ( 0.9731387067013588243, 0.000000000000000000, -0.2302195854387861507 ) ) ;
#181 = ORIENTED_EDGE ( 'NONE', *, *, #71, .T. ) ;
#182 = CARTESIAN_POINT ( 'NONE',  ( 1.399999999999999911, -1.199999999999999956, 3.505000000000002558 ) ) ;
#183 = EDGE_CURVE ( 'NONE', #150, #270, #483, .T. ) ;
#184 = FACE_OUTER_BOUND ( 'NONE', #415, .T. ) ;
#185 = ORIENTED_EDGE ( 'NONE', *, *, #134, .F. ) ;
#186 = PRODUCT_DEFINITION ( 'UNKNOWN', '', #246, #379 ) ;
#187 = APPLICATION_CONTEXT ( 'automotive_design' ) ;
#188 = PLANE ( 'NONE',  #148 ) ;
#189 = EDGE_LOOP ( 'NONE', ( #63, #517 ) ) ;
#190 = ADVANCED_FACE ( 'NONE', ( #364 ), #12, .T. ) ;
#191 = VECTOR ( 'NONE', #443, 100.0000000000000000 ) ;
#192 = EDGE_LOOP ( 'NONE', ( #482, #60, #168, #277 ) ) ;
#193 = ORIENTED_EDGE ( 'NONE', *, *, #341, .T. ) ;
#194 = DIRECTION ( 'NONE',  ( 1.000000000000000000, 0.000000000000000000, 2.065146995210481305E-17 ) ) ;
#195 = EDGE_CURVE ( 'NONE', #562, #152, #283, .T. ) ;
#196 = DIRECTION ( 'NONE',  ( -1.000000000000000000, 0.000000000000000000, -1.239088197126290570E-16 ) ) ;
#197 =( GEOMETRIC_REPRESENTATION_CONTEXT ( 3 ) GLOBAL_UNCERTAINTY_ASSIGNED_CONTEXT ( ( #383 ) ) GLOBAL_UNIT_ASSIGNED_CONTEXT ( ( #178, #131, #499 ) ) REPRESENTATION_CONTEXT ( 'NONE', 'WORKASPACE' ) );
#198 = STYLED_ITEM ( 'NONE', ( #209 ), #278 ) ;
#199 = DIRECTION ( 'NONE',  ( 0.000000000000000000, 1.000000000000000000, 0.000000000000000000 ) ) ;
#200 = DIRECTION ( 'NONE',  ( 0.000000000000000000, -1.000000000000000000, 0.000000000000000000 ) ) ;
#201 = LINE ( 'NONE', #519, #462 ) ;
#202 = CARTESIAN_POINT ( 'NONE',  ( 0.000000000000000000, -0.8049999999999999378, 0.000000000000000000 ) ) ;
#203 = VECTOR ( 'NONE', #199, 100.0000000000000000 ) ;
#204 = EDGE_CURVE ( 'NONE', #152, #562, #376, .T. ) ;
#205 = DIRECTION ( 'NONE',  ( -1.000000000000000000, -0.000000000000000000, -1.239088197126290570E-16 ) ) ;
#206 = CARTESIAN_POINT ( 'NONE',  ( 8.400000000000002132, -0.8049999999999999378, 2.500000000000000444 ) ) ;
#207 = EDGE_LOOP ( 'NONE', ( #10, #531, #312, #321, #409, #522, #458, #534 ) ) ;
#208 = CARTESIAN_POINT ( 'NONE',  ( 3.800000000000000711, -0.2950000000000002065, 2.937221736481963941 ) ) ;
#209 = PRESENTATION_STYLE_ASSIGNMENT (( #163 ) ) ;
#210 = ORIENTED_EDGE ( 'NONE', *, *, #513, .T. ) ;
#211 = DIRECTION ( 'NONE',  ( 0.000000000000000000, 1.000000000000000000, 0.000000000000000000 ) ) ;
#212 = EDGE_CURVE ( 'NONE', #351, #3, #494, .T. ) ;
#213 = DIRECTION ( 'NONE',  ( 1.000000000000000000, 0.000000000000000000, 1.239088197126290570E-16 ) ) ;
#214 = ORIENTED_EDGE ( 'NONE', *, *, #551, .T. ) ;
#215 = CARTESIAN_POINT ( 'NONE',  ( 1.399999999999999911, -1.199999999999999956, 2.499999999999999556 ) ) ;
#216 = AXIS2_PLACEMENT_3D ( 'NONE', #516, #6, #485 ) ;
#217 = PRODUCT_CONTEXT ( 'NONE', #187, 'mechanical' ) ;
#218 = CARTESIAN_POINT ( 'NONE',  ( 4.690000000000001279, -0.9050000000000000266, 2.726670630427358688 ) ) ;
#219 = VERTEX_POINT ( 'NONE', #144 ) ;
#220 = CARTESIAN_POINT ( 'NONE',  ( 0.000000000000000000, -1.199999999999999956, 5.000000000000000000 ) ) ;
#221 = ADVANCED_FACE ( 'NONE', ( #137 ), #52, .F. ) ;
#222 = DIRECTION ( 'NONE',  ( -1.000000000000000000, 0.000000000000000000, 0.000000000000000000 ) ) ;
#223 = ORIENTED_EDGE ( 'NONE', *, *, #465, .F. ) ;
#224 = DIRECTION ( 'NONE',  ( -1.239088197126290570E-16, 0.000000000000000000, 1.000000000000000000 ) ) ;
#225 = DIRECTION ( 'NONE',  ( 1.239088197126290570E-16, 0.000000000000000000, -1.000000000000000000 ) ) ;
#226 = CARTESIAN_POINT ( 'NONE',  ( 16.80000000000000071, -1.199999999999999956, 5.000000000000000000 ) ) ;
#227 = ORIENTED_EDGE ( 'NONE', *, *, #520, .T. ) ;
#228 = EDGE_CURVE ( 'NONE', #150, #539, #142, .T. ) ;
#229 = FACE_OUTER_BOUND ( 'NONE', #373, .T. ) ;
#230 = DIRECTION ( 'NONE',  ( -1.239088197126290570E-16, 0.000000000000000000, 1.000000000000000000 ) ) ;
#231 = CLOSED_SHELL ( 'NONE', ( #32, #221, #278, #334, #298, #244, #190, #380, #354, #268, #61, #401, #314, #240, #421, #504, #282, #161 ) ) ;
#232 = VECTOR ( 'NONE', #412, 100.0000000000000000 ) ;
#233 = EDGE_LOOP ( 'NONE', ( #441, #359, #459, #146, #318, #503, #103, #343 ) ) ;
#234 = CARTESIAN_POINT ( 'NONE',  ( -0.2500000000000002220, -0.8049999999999999378, 0.000000000000000000 ) ) ;
#235 = ORIENTED_EDGE ( 'NONE', *, *, #284, .F. ) ;
#236 = EDGE_CURVE ( 'NONE', #174, #262, #266, .T. ) ;
#237 = EDGE_LOOP ( 'NONE', ( #356, #51 ) ) ;
#238 = AXIS2_PLACEMENT_3D ( 'NONE', #271, #453, #56 ) ;
#239 = ORIENTED_EDGE ( 'NONE', *, *, #474, .F. ) ;
#240 = ADVANCED_FACE ( 'NONE', ( #533 ), #98, .T. ) ;
#241 = CARTESIAN_POINT ( 'NONE',  ( 15.79294267689130749, -1.199999999999999956, 0.000000000000000000 ) ) ;
#242 = DIRECTION ( 'NONE',  ( -1.000000000000000000, 0.000000000000000000, -1.239088197126290570E-16 ) ) ;
#243 = UNCERTAINTY_MEASURE_WITH_UNIT (LENGTH_MEASURE( 1.000000000000000082E-05 ), #123, 'distance_accuracy_value', 'NONE');
#244 = ADVANCED_FACE ( 'NONE', ( #229 ), #358, .T. ) ;
#245 = FACE_OUTER_BOUND ( 'NONE', #192, .T. ) ;
#246 = PRODUCT_DEFINITION_FORMATION_WITH_SPECIFIED_SOURCE ( 'ANY', '', #147, .NOT_KNOWN. ) ;
#247 = AXIS2_PLACEMENT_3D ( 'NONE', #119, #472, #76 ) ;
#248 = DIRECTION ( 'NONE',  ( 0.000000000000000000, -1.000000000000000000, 0.000000000000000000 ) ) ;
#249 = VERTEX_POINT ( 'NONE', #41 ) ;
#250 = LINE ( 'NONE', #85, #431 ) ;
#251 = CARTESIAN_POINT ( 'NONE',  ( 3.800000000000000711, -0.9049999999999999156, 0.5999999999999984235 ) ) ;
#252 = CARTESIAN_POINT ( 'NONE',  ( 0.000000000000000000, -1.199999999999999956, 5.000000000000000000 ) ) ;
#253 = DIRECTION ( 'NONE',  ( -0.000000000000000000, 1.000000000000000000, 0.000000000000000000 ) ) ;
#254 = VECTOR ( 'NONE', #366, 100.0000000000000000 ) ;
#255 = CARTESIAN_POINT ( 'NONE',  ( 0.000000000000000000, -0.5999999999999999778, 2.395000000000000462 ) ) ;
#256 =( NAMED_UNIT ( * ) SI_UNIT ( $, .STERADIAN. ) SOLID_ANGLE_UNIT ( ) );
#257 = ORIENTED_EDGE ( 'NONE', *, *, #341, .F. ) ;
#258 = EDGE_CURVE ( 'NONE', #306, #133, #471, .T. ) ;
#259 = LINE ( 'NONE', #264, #37 ) ;
#260 = ORIENTED_EDGE ( 'NONE', *, *, #434, .F. ) ;
#261 = CARTESIAN_POINT ( 'NONE',  ( 0.000000000000000000, -0.8049999999999999378, 0.000000000000000000 ) ) ;
#262 = VERTEX_POINT ( 'NONE', #350 ) ;
#263 = VECTOR ( 'NONE', #514, 100.0000000000000000 ) ;
#264 = CARTESIAN_POINT ( 'NONE',  ( 15.79294267689127551, 0.000000000000000000, 2.500000000000103917 ) ) ;
#265 = ORIENTED_EDGE ( 'NONE', *, *, #195, .F. ) ;
#266 = LINE ( 'NONE', #407, #232 ) ;
#267 = DIRECTION ( 'NONE',  ( -1.239088197126290570E-16, 0.000000000000000000, 1.000000000000000000 ) ) ;
#268 = ADVANCED_FACE ( 'NONE', ( #488 ), #167, .T. ) ;
#269 =( NAMED_UNIT ( * ) PLANE_ANGLE_UNIT ( ) SI_UNIT ( $, .RADIAN. ) );
#270 = VERTEX_POINT ( 'NONE', #89 ) ;
#271 = CARTESIAN_POINT ( 'NONE',  ( 15.79294267689127551, -1.199999999999999956, 2.500000000000103917 ) ) ;
#272 = LINE ( 'NONE', #526, #35 ) ;
#273 =( LENGTH_UNIT ( ) NAMED_UNIT ( * ) SI_UNIT ( .CENTI., .METRE. ) );
#274 = EDGE_LOOP ( 'NONE', ( #84, #49, #332, #330 ) ) ;
#275 = AXIS2_PLACEMENT_3D ( 'NONE', #450, #319, #535 ) ;
#276 = CARTESIAN_POINT ( 'NONE',  ( 3.800000000000000711, -0.2950000000000002065, 2.937221736481963941 ) ) ;
#277 = ORIENTED_EDGE ( 'NONE', *, *, #551, .F. ) ;
#278 = ADVANCED_FACE ( 'NONE', ( #391 ), #561, .T. ) ;
#279 = DIRECTION ( 'NONE',  ( -1.000000000000000000, 0.000000000000000000, 4.098522498186961307E-16 ) ) ;
#280 = ORIENTED_EDGE ( 'NONE', *, *, #284, .T. ) ;
#281 = ORIENTED_EDGE ( 'NONE', *, *, #425, .F. ) ;
#282 = ADVANCED_FACE ( 'NONE', ( #475 ), #121, .F. ) ;
#283 = CIRCLE ( 'NONE', #93, 0.3049999999999998823 ) ;
#284 = EDGE_CURVE ( 'NONE', #406, #141, #495, .T. ) ;
#285 = FACE_OUTER_BOUND ( 'NONE', #505, .T. ) ;
#286 = DIRECTION ( 'NONE',  ( -1.239088197126290570E-16, 0.000000000000000000, 1.000000000000000000 ) ) ;
#287 = CARTESIAN_POINT ( 'NONE',  ( -0.2499999999999988343, -0.8049999999999999378, 2.395000000000000462 ) ) ;
#288 = ORIENTED_EDGE ( 'NONE', *, *, #384, .T. ) ;
#289 = PRESENTATION_LAYER_ASSIGNMENT (  '', '', ( #508 ) ) ;
#290 = EDGE_CURVE ( 'NONE', #399, #174, #259, .T. ) ;
#291 = CARTESIAN_POINT ( 'NONE',  ( 5.300000000000000711, -0.2950000000000002065, 2.582360321783190749 ) ) ;
#292 = CARTESIAN_POINT ( 'NONE',  ( -0.2499999999999988343, -0.3950000000000000178, 2.395000000000000462 ) ) ;
#293 = CARTESIAN_POINT ( 'NONE',  ( 16.80000000000000071, -1.199999999999999956, 0.000000000000000000 ) ) ;
#294 = ADVANCED_BREP_SHAPE_REPRESENTATION ( 'ramp-wall-half_61', ( #333, #82 ), #197 ) ;
#295 = FACE_OUTER_BOUND ( 'NONE', #498, .T. ) ;
#296 = CARTESIAN_POINT ( 'NONE',  ( -0.2500000000000002220, -0.3950000000000000178, 0.000000000000000000 ) ) ;
#297 = CARTESIAN_POINT ( 'NONE',  ( 5.300000000000000711, -0.2950000000000002065, 2.582360321783190749 ) ) ;
#298 = ADVANCED_FACE ( 'NONE', ( #295 ), #50, .F. ) ;
#299 = VECTOR ( 'NONE', #304, 100.0000000000000000 ) ;
#300 = CARTESIAN_POINT ( 'NONE',  ( 4.410000000000000142, -0.2950000000000003175, 2.792911427837796445 ) ) ;
#301 = ORIENTED_EDGE ( 'NONE', *, *, #228, .T. ) ;
#302 = CIRCLE ( 'NONE', #532, 0.2049999999999999600 ) ;
#303 = DIRECTION ( 'NONE',  ( 0.9731387067013588243, 0.000000000000000000, -0.2302195854387861507 ) ) ;
#304 = DIRECTION ( 'NONE',  ( 0.000000000000000000, 1.000000000000000000, 0.000000000000000000 ) ) ;
#305 = CARTESIAN_POINT ( 'NONE',  ( 16.80000000000000071, -1.199999999999999956, 0.000000000000000000 ) ) ;
#306 = VERTEX_POINT ( 'NONE', #402 ) ;
#307 = DIRECTION ( 'NONE',  ( 4.231032868236115911E-16, 0.000000000000000000, 1.000000000000000000 ) ) ;
#308 = CARTESIAN_POINT ( 'NONE',  ( 3.800000000000000711, -0.5999999999999999778, 0.5999999999999984235 ) ) ;
#309 = SURFACE_SIDE_STYLE ('',( #398 ) ) ;
#310 = EDGE_LOOP ( 'NONE', ( #181, #210, #223, #542 ) ) ;
#311 = CARTESIAN_POINT ( 'NONE',  ( 8.254148364942135885, -1.199999999999999956, 1.883484809774234048 ) ) ;
#312 = ORIENTED_EDGE ( 'NONE', *, *, #474, .T. ) ;
#313 = CARTESIAN_POINT ( 'NONE',  ( 5.300000000000000711, -0.5999999999999999778, 0.5999999999999987566 ) ) ;
#314 = ADVANCED_FACE ( 'NONE', ( #173, #361, #527 ), #135, .T. ) ;
#315 = CIRCLE ( 'NONE', #179, 0.3049999999999998823 ) ;
#316 = CARTESIAN_POINT ( 'NONE',  ( 15.79294267689130749, -1.199999999999999956, 0.1000000000000000888 ) ) ;
#317 = DIRECTION ( 'NONE',  ( 1.000000000000000000, 0.000000000000000000, 2.065146995210482230E-17 ) ) ;
#318 = ORIENTED_EDGE ( 'NONE', *, *, #212, .T. ) ;
#319 = DIRECTION ( 'NONE',  ( 1.000000000000000000, 0.000000000000000000, 1.239088197126290570E-16 ) ) ;
#320 =( NAMED_UNIT ( * ) SI_UNIT ( $, .STERADIAN. ) SOLID_ANGLE_UNIT ( ) );
#321 = ORIENTED_EDGE ( 'NONE', *, *, #92, .T. ) ;
#322 = CARTESIAN_POINT ( 'NONE',  ( 5.300000000000000711, -0.5999999999999999778, 0.5999999999999987566 ) ) ;
#323 = EDGE_CURVE ( 'NONE', #133, #306, #24, .T. ) ;
#324 = CARTESIAN_POINT ( 'NONE',  ( 3.190000000000001279, -0.2950000000000000955, 3.081532045126131880 ) ) ;
#325 = EDGE_LOOP ( 'NONE', ( #449, #265, #7, #489 ) ) ;
#326 = AXIS2_PLACEMENT_3D ( 'NONE', #511, #33, #248 ) ;
#327 = PRESENTATION_LAYER_ASSIGNMENT (  '', '', ( #198 ) ) ;
#328 = DIRECTION ( 'NONE',  ( 4.098522498186961307E-16, 0.000000000000000000, 1.000000000000000000 ) ) ;
#329 = ORIENTED_EDGE ( 'NONE', *, *, #99, .F. ) ;
#330 = ORIENTED_EDGE ( 'NONE', *, *, #460, .T. ) ;
#331 = EDGE_CURVE ( 'NONE', #219, #15, #315, .T. ) ;
#332 = ORIENTED_EDGE ( 'NONE', *, *, #456, .F. ) ;
#333 = MANIFOLD_SOLID_BREP ( 'Cut-Extrude2', #231 ) ;
#334 = ADVANCED_FACE ( 'NONE', ( #154 ), #62, .T. ) ;
#335 = AXIS2_PLACEMENT_3D ( 'NONE', #414, #18, #145 ) ;
#336 = VECTOR ( 'NONE', #353, 100.0000000000000000 ) ;
#337 = ORIENTED_EDGE ( 'NONE', *, *, #363, .F. ) ;
#338 = DIRECTION ( 'NONE',  ( 0.000000000000000000, -1.000000000000000000, 0.000000000000000000 ) ) ;
#339 = PLANE ( 'NONE',  #326 ) ;
#340 = CARTESIAN_POINT ( 'NONE',  ( 1.399999999999999911, 0.000000000000000000, 5.000000000000002665 ) ) ;
#341 = EDGE_CURVE ( 'NONE', #249, #506, #536, .T. ) ;
#342 = DIRECTION ( 'NONE',  ( 0.000000000000000000, 1.000000000000000000, 0.000000000000000000 ) ) ;
#343 = ORIENTED_EDGE ( 'NONE', *, *, #11, .F. ) ;
#344 = CARTESIAN_POINT ( 'NONE',  ( 0.000000000000000000, -0.8049999999999999378, 0.000000000000000000 ) ) ;
#345 = DIRECTION ( 'NONE',  ( 1.000000000000000000, 0.000000000000000000, 1.239088197126290570E-16 ) ) ;
#346 = DIRECTION ( 'NONE',  ( -1.239088197126290570E-16, 0.000000000000000000, 1.000000000000000000 ) ) ;
#347 = PLANE ( 'NONE',  #357 ) ;
#348 = EDGE_CURVE ( 'NONE', #90, #422, #105, .T. ) ;
#349 = FACE_OUTER_BOUND ( 'NONE', #325, .T. ) ;
#350 = CARTESIAN_POINT ( 'NONE',  ( 0.000000000000000000, 0.000000000000000000, 0.000000000000000000 ) ) ;
#351 = VERTEX_POINT ( 'NONE', #14 ) ;
#352 = CARTESIAN_POINT ( 'NONE',  ( 8.254148364942135885, 0.000000000000000000, 1.883484809774234048 ) ) ;
#353 = DIRECTION ( 'NONE',  ( 0.000000000000000000, 1.000000000000000000, 0.000000000000000000 ) ) ;
#354 = ADVANCED_FACE ( 'NONE', ( #184 ), #188, .T. ) ;
#355 = DIRECTION ( 'NONE',  ( -0.000000000000000000, -1.000000000000000000, 0.000000000000000000 ) ) ;
#356 = ORIENTED_EDGE ( 'NONE', *, *, #546, .T. ) ;
#357 = AXIS2_PLACEMENT_3D ( 'NONE', #464, #549, #242 ) ;
#358 = PLANE ( 'NONE',  #110 ) ;
#359 = ORIENTED_EDGE ( 'NONE', *, *, #99, .T. ) ;
#360 = DIRECTION ( 'NONE',  ( 1.000000000000000000, 0.000000000000000000, 1.239088197126290570E-16 ) ) ;
#361 = FACE_BOUND ( 'NONE', #528, .T. ) ;
#362 = ORIENTED_EDGE ( 'NONE', *, *, #348, .T. ) ;
#363 = EDGE_CURVE ( 'NONE', #539, #378, #368, .T. ) ;
#364 = FACE_OUTER_BOUND ( 'NONE', #274, .T. ) ;
#365 = ORIENTED_EDGE ( 'NONE', *, *, #434, .T. ) ;
#366 = DIRECTION ( 'NONE',  ( 0.000000000000000000, 1.000000000000000000, 0.000000000000000000 ) ) ;
#367 = AXIS2_PLACEMENT_3D ( 'NONE', #68, #114, #200 ) ;
#368 = LINE ( 'NONE', #59, #468 ) ;
#369 = EDGE_LOOP ( 'NONE', ( #39, #455, #543, #25 ) ) ;
#370 = DIRECTION ( 'NONE',  ( -1.239088197126290570E-16, 0.000000000000000000, 1.000000000000000000 ) ) ;
#371 = APPLICATION_PROTOCOL_DEFINITION ( 'draft international standard', 'automotive_design', 1998, #138 ) ;
#372 = DIRECTION ( 'NONE',  ( -1.239088197126290570E-16, 0.000000000000000000, 1.000000000000000000 ) ) ;
#373 = EDGE_LOOP ( 'NONE', ( #19, #214, #437, #493, #395, #377 ) ) ;
#374 = CARTESIAN_POINT ( 'NONE',  ( 3.800000000000000711, -0.9049999999999999156, 2.937221736481963941 ) ) ;
#375 = ORIENTED_EDGE ( 'NONE', *, *, #204, .F. ) ;
#376 = CIRCLE ( 'NONE', #490, 0.3049999999999998823 ) ;
#377 = ORIENTED_EDGE ( 'NONE', *, *, #410, .T. ) ;
#378 = VERTEX_POINT ( 'NONE', #241 ) ;
#379 = PRODUCT_DEFINITION_CONTEXT ( 'detailed design', #138, 'design' ) ;
#380 = ADVANCED_FACE ( 'NONE', ( #463 ), #466, .T. ) ;
#381 = LINE ( 'NONE', #113, #447 ) ;
#382 = AXIS2_PLACEMENT_3D ( 'NONE', #550, #432, #439 ) ;
#383 = UNCERTAINTY_MEASURE_WITH_UNIT (LENGTH_MEASURE( 1.000000000000000082E-05 ), #178, 'distance_accuracy_value', 'NONE');
#384 = EDGE_CURVE ( 'NONE', #501, #90, #423, .T. ) ;
#385 = ORIENTED_EDGE ( 'NONE', *, *, #496, .F. ) ;
#386 = CARTESIAN_POINT ( 'NONE',  ( -0.2500000000000002220, -0.8049999999999999378, 0.000000000000000000 ) ) ;
#387 = DIRECTION ( 'NONE',  ( -1.000000000000000000, 0.000000000000000000, 4.098522498186961800E-16 ) ) ;
#388 = CARTESIAN_POINT ( 'NONE',  ( 15.79294267689130749, -1.199999999999999956, 0.1000000000000000888 ) ) ;
#389 = VECTOR ( 'NONE', #497, 100.0000000000000000 ) ;
#390 = CARTESIAN_POINT ( 'NONE',  ( 5.910000000000000142, -0.2950000000000003175, 2.438050013139023697 ) ) ;
#391 = FACE_OUTER_BOUND ( 'NONE', #207, .T. ) ;
#392 = EDGE_LOOP ( 'NONE', ( #329, #95, #257, #86 ) ) ;
#393 = EDGE_CURVE ( 'NONE', #219, #133, #381, .T. ) ;
#394 = CARTESIAN_POINT ( 'NONE',  ( 5.300000000000000711, -0.9049999999999999156, 2.582360321783190749 ) ) ;
#395 = ORIENTED_EDGE ( 'NONE', *, *, #236, .T. ) ;
#396 = DIRECTION ( 'NONE',  ( 0.000000000000000000, -1.000000000000000000, 0.000000000000000000 ) ) ;
#397 = VECTOR ( 'NONE', #267, 100.0000000000000000 ) ;
#398 = SURFACE_STYLE_FILL_AREA ( #556 ) ;
#399 = VERTEX_POINT ( 'NONE', #69 ) ;
#400 = VECTOR ( 'NONE', #328, 100.0000000000000000 ) ;
#401 = ADVANCED_FACE ( 'NONE', ( #245 ), #9, .T. ) ;
#402 = CARTESIAN_POINT ( 'NONE',  ( 3.800000000000000711, -0.9049999999999999156, 2.937221736481963941 ) ) ;
#403 = ORIENTED_EDGE ( 'NONE', *, *, #195, .T. ) ;
#404 = CARTESIAN_POINT ( 'NONE',  ( 5.300000000000000711, -0.5999999999999999778, 0.5999999999999987566 ) ) ;
#405 = CARTESIAN_POINT ( 'NONE',  ( 8.400000000000002132, 0.000000000000000000, 2.500000000000000444 ) ) ;
#406 = VERTEX_POINT ( 'NONE', #291 ) ;
#407 = CARTESIAN_POINT ( 'NONE',  ( 16.80000000000000071, 0.000000000000000000, 0.000000000000000000 ) ) ;
#408 = PRESENTATION_STYLE_ASSIGNMENT (( #140 ) ) ;
#409 = ORIENTED_EDGE ( 'NONE', *, *, #109, .T. ) ;
#410 = EDGE_CURVE ( 'NONE', #262, #3, #560, .T. ) ;
#411 = AXIS2_PLACEMENT_3D ( 'NONE', #78, #253, #213 ) ;
#412 = DIRECTION ( 'NONE',  ( -1.000000000000000000, 0.000000000000000000, 2.465190328815662439E-32 ) ) ;
#413 = VECTOR ( 'NONE', #230, 100.0000000000000000 ) ;
#414 = CARTESIAN_POINT ( 'NONE',  ( 0.000000000000000000, -1.199999999999999956, 5.000000000000000000 ) ) ;
#415 = EDGE_LOOP ( 'NONE', ( #193, #417, #136, #281 ) ) ;
#416 = FILL_AREA_STYLE_COLOUR ( '', #127 ) ;
#417 = ORIENTED_EDGE ( 'NONE', *, *, #83, .T. ) ;
#418 = CARTESIAN_POINT ( 'NONE',  ( 16.80000000000000071, -1.199999999999999956, 5.000000000000000000 ) ) ;
#419 = VERTEX_POINT ( 'NONE', #202 ) ;
#420 = AXIS2_PLACEMENT_3D ( 'NONE', #313, #224, #491 ) ;
#421 = ADVANCED_FACE ( 'NONE', ( #349 ), #166, .F. ) ;
#422 = VERTEX_POINT ( 'NONE', #484 ) ;
#423 = LINE ( 'NONE', #26, #117 ) ;
#424 = DIRECTION ( 'NONE',  ( 1.239088197126290570E-16, -0.000000000000000000, -1.000000000000000000 ) ) ;
#425 = EDGE_CURVE ( 'NONE', #249, #90, #428, .T. ) ;
#426 = CARTESIAN_POINT ( 'NONE',  ( 16.80000000000000071, 0.000000000000000000, 5.000000000000000000 ) ) ;
#427 = VECTOR ( 'NONE', #523, 100.0000000000000000 ) ;
#428 = LINE ( 'NONE', #386, #336 ) ;
#429 = CARTESIAN_POINT ( 'NONE',  ( 0.000000000000000000, 0.000000000000000000, 5.000000000000000000 ) ) ;
#430 = PLANE ( 'NONE',  #247 ) ;
#431 = VECTOR ( 'NONE', #122, 100.0000000000000000 ) ;
#432 = DIRECTION ( 'NONE',  ( -1.239088197126290570E-16, 0.000000000000000000, 1.000000000000000000 ) ) ;
#433 = MECHANICAL_DESIGN_GEOMETRIC_PRESENTATION_REPRESENTATION (  '', ( #198 ), #80 ) ;
#434 = EDGE_CURVE ( 'NONE', #15, #306, #250, .T. ) ;
#435 = AXIS2_PLACEMENT_3D ( 'NONE', #311, #502, #180 ) ;
#436 = CARTESIAN_POINT ( 'NONE',  ( 3.800000000000000711, -0.2950000000000002065, 2.937221736481963941 ) ) ;
#437 = ORIENTED_EDGE ( 'NONE', *, *, #155, .T. ) ;
#438 = LINE ( 'NONE', #261, #28 ) ;
#439 = DIRECTION ( 'NONE',  ( 0.000000000000000000, -1.000000000000000000, 0.000000000000000000 ) ) ;
#440 = FILL_AREA_STYLE_COLOUR ( '', #169 ) ;
#441 = ORIENTED_EDGE ( 'NONE', *, *, #460, .F. ) ;
#442 = ORIENTED_EDGE ( 'NONE', *, *, #183, .F. ) ;
#443 = DIRECTION ( 'NONE',  ( -1.000000000000000000, 0.000000000000000000, -1.239088197126290570E-16 ) ) ;
#444 = EDGE_CURVE ( 'NONE', #378, #174, #116, .T. ) ;
#445 = DIRECTION ( 'NONE',  ( 0.000000000000000000, 0.000000000000000000, -1.000000000000000000 ) ) ;
#446 = ORIENTED_EDGE ( 'NONE', *, *, #393, .F. ) ;
#447 = VECTOR ( 'NONE', #286, 100.0000000000000000 ) ;
#448 = CARTESIAN_POINT ( 'NONE',  ( 5.300000000000000711, -0.9049999999999999156, 2.582360321783190749 ) ) ;
#449 = ORIENTED_EDGE ( 'NONE', *, *, #67, .F. ) ;
#450 = CARTESIAN_POINT ( 'NONE',  ( -0.2499999999999988343, -0.5999999999999999778, 2.395000000000000462 ) ) ;
#451 = CARTESIAN_POINT ( 'NONE',  ( -0.2500000000000002220, -0.3950000000000000178, 0.000000000000000000 ) ) ;
#452 = EDGE_LOOP ( 'NONE', ( #442, #301, #227, #525 ) ) ;
#453 = DIRECTION ( 'NONE',  ( 1.000000000000000000, 0.000000000000000000, 1.400169662752707028E-14 ) ) ;
#454 = CARTESIAN_POINT ( 'NONE',  ( -0.2500000000000002220, -0.8049999999999999378, 0.000000000000000000 ) ) ;
#455 = ORIENTED_EDGE ( 'NONE', *, *, #363, .T. ) ;
#456 = EDGE_CURVE ( 'NONE', #469, #506, #201, .T. ) ;
#457 = CARTESIAN_POINT ( 'NONE',  ( 3.800000000000000711, -0.5999999999999999778, 0.5999999999999984235 ) ) ;
#458 = ORIENTED_EDGE ( 'NONE', *, *, #384, .F. ) ;
#459 = ORIENTED_EDGE ( 'NONE', *, *, #92, .F. ) ;
#460 = EDGE_CURVE ( 'NONE', #469, #22, #125, .T. ) ;
#461 = EDGE_LOOP ( 'NONE', ( #375, #106, #280, #124 ) ) ;
#462 = VECTOR ( 'NONE', #205, 100.0000000000000000 ) ;
#463 = FACE_OUTER_BOUND ( 'NONE', #233, .T. ) ;
#464 = CARTESIAN_POINT ( 'NONE',  ( 8.400000000000002132, -0.3950000000000000178, 2.500000000000000444 ) ) ;
#465 = EDGE_CURVE ( 'NONE', #3, #64, #157, .T. ) ;
#466 = PLANE ( 'NONE',  #335 ) ;
#467 = CARTESIAN_POINT ( 'NONE',  ( 1.399999999999999911, -1.199999999999999956, 5.000000000000002665 ) ) ;
#468 = VECTOR ( 'NONE', #100, 100.0000000000000000 ) ;
#469 = VERTEX_POINT ( 'NONE', #128 ) ;
#470 = LINE ( 'NONE', #473, #203 ) ;
#471 =( BOUNDED_CURVE ( )  B_SPLINE_CURVE ( 3, ( #132, #48, #300, #436 ),
 .UNSPECIFIED., .F., .T. ) 
 B_SPLINE_CURVE_WITH_KNOTS ( ( 4, 4 ),
 ( 1.570796326794896558, 4.712388980384689674 ),
 .UNSPECIFIED. ) 
 CURVE ( )  GEOMETRIC_REPRESENTATION_ITEM ( )  RATIONAL_B_SPLINE_CURVE ( ( 1.000000000000000000, 0.3333333333333333703, 0.3333333333333333703, 1.000000000000000000 ) ) 
 REPRESENTATION_ITEM ( '' )  );
#472 = DIRECTION ( 'NONE',  ( -1.239088197126290570E-16, 0.000000000000000000, 1.000000000000000000 ) ) ;
#473 = CARTESIAN_POINT ( 'NONE',  ( 0.000000000000000000, -1.199999999999999956, 0.000000000000000000 ) ) ;
#474 = EDGE_CURVE ( 'NONE', #378, #541, #162, .T. ) ;
#475 = FACE_OUTER_BOUND ( 'NONE', #557, .T. ) ;
#476 = LINE ( 'NONE', #79, #102 ) ;
#477 = VECTOR ( 'NONE', #120, 100.0000000000000000 ) ;
#478 = CARTESIAN_POINT ( 'NONE',  ( 0.000000000000000000, 0.000000000000000000, 5.000000000000000000 ) ) ;
#479 = VECTOR ( 'NONE', #424, 100.0000000000000000 ) ;
#480 = AXIS2_PLACEMENT_3D ( 'NONE', #530, #345, #29 ) ;
#481 =( NAMED_UNIT ( * ) PLANE_ANGLE_UNIT ( ) SI_UNIT ( $, .RADIAN. ) );
#482 = ORIENTED_EDGE ( 'NONE', *, *, #513, .F. ) ;
#483 = LINE ( 'NONE', #182, #23 ) ;
#484 = CARTESIAN_POINT ( 'NONE',  ( -0.2499999999999988343, -0.3950000000000000178, 2.395000000000000462 ) ) ;
#485 = DIRECTION ( 'NONE',  ( 0.000000000000000000, -1.000000000000000000, 0.000000000000000000 ) ) ;
#486 = EDGE_LOOP ( 'NONE', ( #65, #171, #42, #260 ) ) ;
#487 = EDGE_CURVE ( 'NONE', #501, #262, #470, .T. ) ;
#488 = FACE_OUTER_BOUND ( 'NONE', #392, .T. ) ;
#489 = ORIENTED_EDGE ( 'NONE', *, *, #496, .T. ) ;
#490 = AXIS2_PLACEMENT_3D ( 'NONE', #404, #16, #529 ) ;
#491 = DIRECTION ( 'NONE',  ( 0.000000000000000000, -1.000000000000000000, 0.000000000000000000 ) ) ;
#492 = DIRECTION ( 'NONE',  ( 4.098522498186961307E-16, 0.000000000000000000, 1.000000000000000000 ) ) ;
#493 = ORIENTED_EDGE ( 'NONE', *, *, #290, .T. ) ;
#494 = LINE ( 'NONE', #220, #254 ) ;
#495 =( BOUNDED_CURVE ( )  B_SPLINE_CURVE ( 3, ( #94, #45, #218, #448 ),
 .UNSPECIFIED., .F., .T. ) 
 B_SPLINE_CURVE_WITH_KNOTS ( ( 4, 4 ),
 ( 4.712388980384689674, 7.853981633974482790 ),
 .UNSPECIFIED. ) 
 CURVE ( )  GEOMETRIC_REPRESENTATION_ITEM ( )  RATIONAL_B_SPLINE_CURVE ( ( 1.000000000000000000, 0.3333333333333333703, 0.3333333333333333703, 1.000000000000000000 ) ) 
 REPRESENTATION_ITEM ( '' )  );
#496 = EDGE_CURVE ( 'NONE', #141, #406, #500, .T. ) ;
#497 = DIRECTION ( 'NONE',  ( 4.098522498186961307E-16, 0.000000000000000000, 1.000000000000000000 ) ) ;
#498 = EDGE_LOOP ( 'NONE', ( #185, #101, #55, #239, #337, #151 ) ) ;
#499 =( NAMED_UNIT ( * ) SI_UNIT ( $, .STERADIAN. ) SOLID_ANGLE_UNIT ( ) );
#500 =( BOUNDED_CURVE ( )  B_SPLINE_CURVE ( 3, ( #156, #74, #390, #297 ),
 .UNSPECIFIED., .F., .F. ) 
 B_SPLINE_CURVE_WITH_KNOTS ( ( 4, 4 ),
 ( 1.570796326794896558, 4.712388980384689674 ),
 .UNSPECIFIED. ) 
 CURVE ( )  GEOMETRIC_REPRESENTATION_ITEM ( )  RATIONAL_B_SPLINE_CURVE ( ( 1.000000000000000000, 0.3333333333333333703, 0.3333333333333333703, 1.000000000000000000 ) ) 
 REPRESENTATION_ITEM ( '' )  );
#501 = VERTEX_POINT ( 'NONE', #36 ) ;
#502 = DIRECTION ( 'NONE',  ( 0.2302195854387861784, 0.000000000000000000, 0.9731387067013589354 ) ) ;
#503 = ORIENTED_EDGE ( 'NONE', *, *, #410, .F. ) ;
#504 = ADVANCED_FACE ( 'NONE', ( #548 ), #339, .T. ) ;
#505 = EDGE_LOOP ( 'NONE', ( #362, #107, #130, #288 ) ) ;
#506 = VERTEX_POINT ( 'NONE', #287 ) ;
#507 = VECTOR ( 'NONE', #553, 100.0000000000000000 ) ;
#508 = STYLED_ITEM ( 'NONE', ( #408 ), #333 ) ;
#509 = CARTESIAN_POINT ( 'NONE',  ( 0.000000000000000000, -0.3950000000000000178, 0.000000000000000000 ) ) ;
#510 = SURFACE_STYLE_FILL_AREA ( #547 ) ;
#511 = CARTESIAN_POINT ( 'NONE',  ( 5.300000000000000711, -0.5999999999999999778, 0.5999999999999987566 ) ) ;
#512 = LINE ( 'NONE', #388, #507 ) ;
#513 = EDGE_CURVE ( 'NONE', #164, #64, #158, .T. ) ;
#514 = DIRECTION ( 'NONE',  ( 1.239088197126290570E-16, 0.000000000000000000, -1.000000000000000000 ) ) ;
#515 = DIRECTION ( 'NONE',  ( -1.000000000000000000, 0.000000000000000000, -1.239088197126290570E-16 ) ) ;
#516 = CARTESIAN_POINT ( 'NONE',  ( 3.800000000000000711, -0.5999999999999999778, 0.5999999999999984235 ) ) ;
#517 = ORIENTED_EDGE ( 'NONE', *, *, #323, .F. ) ;
#518 = CARTESIAN_POINT ( 'NONE',  ( 1.399999999999999911, -1.199999999999999956, 5.000000000000002665 ) ) ;
#519 = CARTESIAN_POINT ( 'NONE',  ( 8.400000000000002132, -0.8049999999999999378, 2.395000000000001350 ) ) ;
#520 = EDGE_CURVE ( 'NONE', #539, #399, #512, .T. ) ;
#521 = DIRECTION ( 'NONE',  ( -0.000000000000000000, 1.000000000000000000, 0.000000000000000000 ) ) ;
#522 = ORIENTED_EDGE ( 'NONE', *, *, #425, .T. ) ;
#523 = DIRECTION ( 'NONE',  ( 1.000000000000000000, -0.000000000000000000, 1.239088197126290570E-16 ) ) ;
#524 = DIRECTION ( 'NONE',  ( 0.000000000000000000, 1.000000000000000000, -0.000000000000000000 ) ) ;
#525 = ORIENTED_EDGE ( 'NONE', *, *, #155, .F. ) ;
#526 = CARTESIAN_POINT ( 'NONE',  ( 1.399999999999999911, 0.000000000000000000, 2.499999999999999556 ) ) ;
#527 = FACE_OUTER_BOUND ( 'NONE', #452, .T. ) ;
#528 = EDGE_LOOP ( 'NONE', ( #385, #235 ) ) ;
#529 = DIRECTION ( 'NONE',  ( 0.000000000000000000, -1.000000000000000000, 0.000000000000000000 ) ) ;
#530 = CARTESIAN_POINT ( 'NONE',  ( 1.399999999999999911, -1.199999999999999956, 2.499999999999999556 ) ) ;
#531 = ORIENTED_EDGE ( 'NONE', *, *, #444, .F. ) ;
#532 = AXIS2_PLACEMENT_3D ( 'NONE', #27, #387, #307 ) ;
#533 = FACE_OUTER_BOUND ( 'NONE', #369, .T. ) ;
#534 = ORIENTED_EDGE ( 'NONE', *, *, #487, .T. ) ;
#535 = DIRECTION ( 'NONE',  ( 0.000000000000000000, -1.000000000000000000, 0.000000000000000000 ) ) ;
#536 = LINE ( 'NONE', #234, #400 ) ;
#537 = ORIENTED_EDGE ( 'NONE', *, *, #546, .F. ) ;
#538 = EDGE_CURVE ( 'NONE', #541, #351, #77, .T. ) ;
#539 = VERTEX_POINT ( 'NONE', #316 ) ;
#540 = VECTOR ( 'NONE', #194, 100.0000000000000000 ) ;
#541 = VERTEX_POINT ( 'NONE', #88 ) ;
#542 = ORIENTED_EDGE ( 'NONE', *, *, #212, .F. ) ;
#543 = ORIENTED_EDGE ( 'NONE', *, *, #444, .T. ) ;
#544 = VECTOR ( 'NONE', #342, 100.0000000000000000 ) ;
#545 = VECTOR ( 'NONE', #303, 100.0000000000000142 ) ;
#546 = EDGE_CURVE ( 'NONE', #15, #219, #57, .T. ) ;
#547 = FILL_AREA_STYLE ('',( #416 ) ) ;
#548 = FACE_OUTER_BOUND ( 'NONE', #46, .T. ) ;
#549 = DIRECTION ( 'NONE',  ( -0.000000000000000000, -1.000000000000000000, 0.000000000000000000 ) ) ;
#550 = CARTESIAN_POINT ( 'NONE',  ( 5.300000000000000711, -0.5999999999999999778, 0.5999999999999987566 ) ) ;
#551 = EDGE_CURVE ( 'NONE', #64, #270, #272, .T. ) ;
#552 = LINE ( 'NONE', #344, #191 ) ;
#553 = DIRECTION ( 'NONE',  ( 0.000000000000000000, 1.000000000000000000, 0.000000000000000000 ) ) ;
#554 = VECTOR ( 'NONE', #346, 100.0000000000000000 ) ;
#555 = DIRECTION ( 'NONE',  ( 1.000000000000000000, 0.000000000000000000, 2.065146995210481305E-17 ) ) ;
#556 = FILL_AREA_STYLE ('',( #440 ) ) ;
#557 = EDGE_LOOP ( 'NONE', ( #446, #537, #365, #21 ) ) ;
#558 = LINE ( 'NONE', #215, #263 ) ;
#559 = EDGE_CURVE ( 'NONE', #562, #141, #5, .T. ) ;
#560 = LINE ( 'NONE', #478, #477 ) ;
#561 = PLANE ( 'NONE',  #139 ) ;
#562 = VERTEX_POINT ( 'NONE', #13 ) ;
ENDSEC;
END-ISO-10303-21;
