ISO-10303-21;
HEADER;
FILE_DESCRIPTION (( 'STEP AP214' ),
    '1' );
FILE_NAME ('ramp-wall-middle_60.STEP',
    '2026-06-16T01:09:05',
    ( '' ),
    ( '' ),
    'SwSTEP 2.0',
    'SolidWorks 2023',
    '' );
FILE_SCHEMA (( 'AUTOMOTIVE_DESIGN' ));
ENDSEC;

DATA;
#1 = CARTESIAN_POINT ( 'NONE',  ( 12.46848321877178378, 0.5999999999999999778, 6.083869017635247900 ) ) ;
#2 = DIRECTION ( 'NONE',  ( 0.2302195854387931173, 0.000000000000000000, 0.9731387067013573811 ) ) ;
#3 = ORIENTED_EDGE ( 'NONE', *, *, #86, .T. ) ;
#4 = VECTOR ( 'NONE', #707, 100.0000000000000000 ) ;
#5 = LINE ( 'NONE', #272, #200 ) ;
#6 = ORIENTED_EDGE ( 'NONE', *, *, #778, .F. ) ;
#7 = ADVANCED_FACE ( 'NONE', ( #378, #122 ), #724, .F. ) ;
#8 = CARTESIAN_POINT ( 'NONE',  ( 13.63624966681341100, 0.5999999999999999778, 5.807605515108696714 ) ) ;
#9 = AXIS2_PLACEMENT_3D ( 'NONE', #866, #725, #59 ) ;
#10 = ORIENTED_EDGE ( 'NONE', *, *, #661, .F. ) ;
#11 = AXIS2_PLACEMENT_3D ( 'NONE', #856, #731, #379 ) ;
#12 = DIRECTION ( 'NONE',  ( -1.000000000000000000, -0.000000000000000000, -2.065146995210483770E-17 ) ) ;
#13 = EDGE_CURVE ( 'NONE', #850, #823, #807, .T. ) ;
#14 = CARTESIAN_POINT ( 'NONE',  ( 9.255424319351506668, 1.199999999999999956, 2.927091628118346112 ) ) ;
#15 = EDGE_CURVE ( 'NONE', #62, #239, #523, .T. ) ;
#16 = EDGE_LOOP ( 'NONE', ( #281, #667, #79, #809 ) ) ;
#17 = LINE ( 'NONE', #14, #422 ) ;
#18 = ORIENTED_EDGE ( 'NONE', *, *, #256, .T. ) ;
#19 = EDGE_CURVE ( 'NONE', #832, #466, #254, .T. ) ;
#20 = ORIENTED_EDGE ( 'NONE', *, *, #207, .F. ) ;
#21 = PLANE ( 'NONE',  #132 ) ;
#22 = LINE ( 'NONE', #146, #877 ) ;
#23 = CARTESIAN_POINT ( 'NONE',  ( -0.2500000000000002220, 0.8049999999999999378, 5.000000000000000000 ) ) ;
#24 = EDGE_LOOP ( 'NONE', ( #594, #843 ) ) ;
#25 = CIRCLE ( 'NONE', #521, 0.3000000000000001554 ) ;
#26 = ORIENTED_EDGE ( 'NONE', *, *, #149, .F. ) ;
#27 = DIRECTION ( 'NONE',  ( -1.170779488823174499E-15, -0.000000000000000000, -1.000000000000000000 ) ) ;
#28 = CARTESIAN_POINT ( 'NONE',  ( 7.299415518881779974, 0.5999999999999999778, 3.389832994850319636 ) ) ;
#29 = VERTEX_POINT ( 'NONE', #673 ) ;
#30 = ORIENTED_EDGE ( 'NONE', *, *, #813, .T. ) ;
#31 = LINE ( 'NONE', #299, #886 ) ;
#32 = CARTESIAN_POINT ( 'NONE',  ( 16.80000000000000782, 0.3950000000000000178, 4.999999999999989342 ) ) ;
#33 = DIRECTION ( 'NONE',  ( 0.000000000000000000, 1.000000000000000000, -0.000000000000000000 ) ) ;
#34 = ORIENTED_EDGE ( 'NONE', *, *, #879, .F. ) ;
#35 = CARTESIAN_POINT ( 'NONE',  ( 16.80000000000000426, 1.199999999999999956, 2.399999999999998135 ) ) ;
#36 = DIRECTION ( 'NONE',  ( 0.000000000000000000, -1.000000000000000000, 0.000000000000000000 ) ) ;
#37 = CARTESIAN_POINT ( 'NONE',  ( 0.000000000000000000, 1.199999999999999956, 0.000000000000000000 ) ) ;
#38 = ORIENTED_EDGE ( 'NONE', *, *, #139, .F. ) ;
#39 = EDGE_LOOP ( 'NONE', ( #108, #113, #821, #273 ) ) ;
#40 = DIRECTION ( 'NONE',  ( 1.000000000000000000, 0.000000000000000000, 0.000000000000000000 ) ) ;
#41 = FACE_OUTER_BOUND ( 'NONE', #617, .T. ) ;
#42 = FACE_BOUND ( 'NONE', #224, .T. ) ;
#43 = ORIENTED_EDGE ( 'NONE', *, *, #864, .F. ) ;
#44 = AXIS2_PLACEMENT_3D ( 'NONE', #50, #55, #313 ) ;
#45 = PLANE ( 'NONE',  #369 ) ;
#46 = FILL_AREA_STYLE_COLOUR ( '', #336 ) ;
#47 = DIRECTION ( 'NONE',  ( -0.2302195854387926732, 0.000000000000000000, -0.9731387067013573811 ) ) ;
#48 = VECTOR ( 'NONE', #554, 100.0000000000000000 ) ;
#49 = ADVANCED_FACE ( 'NONE', ( #517 ), #243, .F. ) ;
#50 = CARTESIAN_POINT ( 'NONE',  ( 12.46848321877178378, 0.5999999999999999778, 6.083869017635247900 ) ) ;
#51 = ORIENTED_EDGE ( 'NONE', *, *, #13, .T. ) ;
#52 = DIRECTION ( 'NONE',  ( 0.000000000000000000, -1.000000000000000000, 0.000000000000000000 ) ) ;
#53 = CARTESIAN_POINT ( 'NONE',  ( 5.343406718412051504, 1.199999999999999956, 3.852574361582292717 ) ) ;
#54 = ADVANCED_FACE ( 'NONE', ( #342 ), #880, .F. ) ;
#55 = DIRECTION ( 'NONE',  ( -0.2302195854387930618, -0.000000000000000000, -0.9731387067013573811 ) ) ;
#56 = LINE ( 'NONE', #868, #795 ) ;
#57 = EDGE_LOOP ( 'NONE', ( #10, #730, #452, #836 ) ) ;
#58 = VECTOR ( 'NONE', #592, 100.0000000000000142 ) ;
#59 = DIRECTION ( 'NONE',  ( 1.000000000000000000, 0.000000000000000000, -1.032573497605242347E-16 ) ) ;
#60 = ADVANCED_FACE ( 'NONE', ( #883 ), #812, .F. ) ;
#61 = FILL_AREA_STYLE_COLOUR ( '', #727 ) ;
#62 = VERTEX_POINT ( 'NONE', #462 ) ;
#63 = VECTOR ( 'NONE', #249, 100.0000000000000000 ) ;
#64 = AXIS2_PLACEMENT_3D ( 'NONE', #736, #323, #598 ) ;
#65 = SURFACE_STYLE_FILL_AREA ( #532 ) ;
#66 = CARTESIAN_POINT ( 'NONE',  ( 16.80000000000000071, 0.000000000000000000, -3.469446951953614189E-16 ) ) ;
#67 = ORIENTED_EDGE ( 'NONE', *, *, #391, .T. ) ;
#68 = VECTOR ( 'NONE', #509, 100.0000000000000000 ) ;
#69 = PLANE ( 'NONE',  #833 ) ;
#70 = CARTESIAN_POINT ( 'NONE',  ( 7.007473906871372726, 0.5999999999999999778, 3.458898870481958099 ) ) ;
#71 = ORIENTED_EDGE ( 'NONE', *, *, #530, .F. ) ;
#72 = CARTESIAN_POINT ( 'NONE',  ( -0.2500000000000002220, 1.199999999999999956, 2.649999999999999023 ) ) ;
#73 = DIRECTION ( 'NONE',  ( 1.000000000000000000, 0.000000000000000000, -1.704540558354500032E-15 ) ) ;
#74 = EDGE_LOOP ( 'NONE', ( #696, #555, #250, #138 ) ) ;
#75 = ADVANCED_FACE ( 'NONE', ( #203 ), #476, .T. ) ;
#76 = DIRECTION ( 'NONE',  ( -1.000000000000000000, -0.000000000000000000, -2.065146995210483770E-17 ) ) ;
#77 = AXIS2_PLACEMENT_3D ( 'NONE', #53, #47, #382 ) ;
#78 = CARTESIAN_POINT ( 'NONE',  ( 17.05000000000000426, 0.3950000000000000178, 2.649999999999998579 ) ) ;
#79 = ORIENTED_EDGE ( 'NONE', *, *, #213, .T. ) ;
#80 = EDGE_CURVE ( 'NONE', #204, #219, #616, .T. ) ;
#81 = DIRECTION ( 'NONE',  ( 0.2302195854387931173, 0.000000000000000000, 0.9731387067013573811 ) ) ;
#82 = DIRECTION ( 'NONE',  ( -0.2302195854387930340, -0.000000000000000000, -0.9731387067013572700 ) ) ;
#83 = VERTEX_POINT ( 'NONE', #78 ) ;
#84 = ORIENTED_EDGE ( 'NONE', *, *, #600, .T. ) ;
#85 = CARTESIAN_POINT ( 'NONE',  ( 5.614858108619092292, 1.199999999999999956, 5.000000000000001776 ) ) ;
#86 = EDGE_CURVE ( 'NONE', #219, #823, #267, .T. ) ;
#87 = DIRECTION ( 'NONE',  ( -0.7071067811865489050, 0.000000000000000000, 0.7071067811865461294 ) ) ;
#88 = ORIENTED_EDGE ( 'NONE', *, *, #519, .F. ) ;
#89 = LINE ( 'NONE', #177, #157 ) ;
#90 = AXIS2_PLACEMENT_3D ( 'NONE', #280, #33, #302 ) ;
#91 = LINE ( 'NONE', #621, #515 ) ;
#92 = DIRECTION ( 'NONE',  ( -0.7071067811865491270, -0.000000000000000000, -0.7071067811865460184 ) ) ;
#93 = ORIENTED_EDGE ( 'NONE', *, *, #367, .T. ) ;
#94 = ORIENTED_EDGE ( 'NONE', *, *, #804, .T. ) ;
#95 = DIRECTION ( 'NONE',  ( -0.7071067811865491270, -0.000000000000000000, -0.7071067811865460184 ) ) ;
#96 = DIRECTION ( 'NONE',  ( -1.032573497605242347E-16, 0.000000000000000000, -1.000000000000000000 ) ) ;
#97 = DIRECTION ( 'NONE',  ( 0.7071067811865461294, 0.000000000000000000, 0.7071067811865489050 ) ) ;
#98 = ORIENTED_EDGE ( 'NONE', *, *, #437, .F. ) ;
#99 = FACE_OUTER_BOUND ( 'NONE', #793, .T. ) ;
#100 = DIRECTION ( 'NONE',  ( -0.9731387067013573811, 0.000000000000000000, 0.2302195854387924789 ) ) ;
#101 = DIRECTION ( 'NONE',  ( 0.2302195854387916185, 0.000000000000000000, 0.9731387067013576031 ) ) ;
#102 = EDGE_LOOP ( 'NONE', ( #750, #175, #539, #641 ) ) ;
#103 = EDGE_CURVE ( 'NONE', #410, #186, #816, .T. ) ;
#104 = LINE ( 'NONE', #569, #537 ) ;
#105 = CARTESIAN_POINT ( 'NONE',  ( -0.2500000000000002220, 0.8049999999999999378, 5.000000000000000000 ) ) ;
#106 = DIRECTION ( 'NONE',  ( 0.7071067811865489050, 0.000000000000000000, -0.7071067811865461294 ) ) ;
#107 = AXIS2_PLACEMENT_3D ( 'NONE', #755, #282, #847 ) ;
#108 = ORIENTED_EDGE ( 'NONE', *, *, #324, .F. ) ;
#109 = CARTESIAN_POINT ( 'NONE',  ( 16.80000000000000782, 0.3950000000000000178, 4.999999999999989342 ) ) ;
#110 = ADVANCED_FACE ( 'NONE', ( #208 ), #195, .T. ) ;
#111 = PLANE ( 'NONE',  #11 ) ;
#112 = CARTESIAN_POINT ( 'NONE',  ( 16.80000000000000071, 1.199999999999999956, -3.469446951953614189E-16 ) ) ;
#113 = ORIENTED_EDGE ( 'NONE', *, *, #839, .T. ) ;
#114 = DIRECTION ( 'NONE',  ( 1.000000000000000000, 0.000000000000000000, -1.032573497605242347E-16 ) ) ;
#115 = DIRECTION ( 'NONE',  ( 0.000000000000000000, -1.000000000000000000, 0.000000000000000000 ) ) ;
#116 = EDGE_CURVE ( 'NONE', #304, #679, #345, .T. ) ;
#117 = ORIENTED_EDGE ( 'NONE', *, *, #213, .F. ) ;
#118 = PRODUCT_CONTEXT ( 'NONE', #151, 'mechanical' ) ;
#119 = UNCERTAINTY_MEASURE_WITH_UNIT (LENGTH_MEASURE( 1.000000000000000082E-05 ), #706, 'distance_accuracy_value', 'NONE');
#120 = DIRECTION ( 'NONE',  ( 0.9731387067013577141, 0.000000000000000000, -0.2302195854387916463 ) ) ;
#121 = CARTESIAN_POINT ( 'NONE',  ( 7.299415518881779974, 0.5999999999999999778, 3.389832994850319636 ) ) ;
#122 = FACE_OUTER_BOUND ( 'NONE', #651, .T. ) ;
#123 = VECTOR ( 'NONE', #425, 100.0000000000000142 ) ;
#124 = VECTOR ( 'NONE', #756, 100.0000000000000000 ) ;
#125 = FACE_OUTER_BOUND ( 'NONE', #102, .T. ) ;
#126 = CARTESIAN_POINT ( 'NONE',  ( 16.80000000000000071, 1.199999999999999956, 5.000000000000000000 ) ) ;
#127 = DIRECTION ( 'NONE',  ( -1.000000000000000000, 0.000000000000000000, 2.878814911323413404E-15 ) ) ;
#128 = ORIENTED_EDGE ( 'NONE', *, *, #196, .T. ) ;
#129 = ADVANCED_FACE ( 'NONE', ( #276 ), #550, .F. ) ;
#130 = DIRECTION ( 'NONE',  ( 0.000000000000000000, -1.000000000000000000, 0.000000000000000000 ) ) ;
#131 = ORIENTED_EDGE ( 'NONE', *, *, #709, .F. ) ;
#132 = AXIS2_PLACEMENT_3D ( 'NONE', #35, #638, #95 ) ;
#133 = SHAPE_DEFINITION_REPRESENTATION ( #402, #456 ) ;
#134 = CARTESIAN_POINT ( 'NONE',  ( 16.80000000000000071, 0.000000000000000000, -3.469446951953614189E-16 ) ) ;
#135 = VECTOR ( 'NONE', #226, 100.0000000000000000 ) ;
#136 = CLOSED_SHELL ( 'NONE', ( #49, #721, #129, #457, #201, #412, #683, #846, #754, #693, #747, #556, #309, #110, #60, #773, #689, #7, #424, #643, #737, #512, #75, #54, #885, #170, #785, #275 ) ) ;
#137 = CARTESIAN_POINT ( 'NONE',  ( 0.000000000000000000, 0.8049999999999999378, 5.000000000000000000 ) ) ;
#138 = ORIENTED_EDGE ( 'NONE', *, *, #103, .F. ) ;
#139 = EDGE_CURVE ( 'NONE', #365, #657, #5, .T. ) ;
#140 = DIRECTION ( 'NONE',  ( 0.9731387067013571590, 0.000000000000000000, -0.2302195854387936169 ) ) ;
#141 = ORIENTED_EDGE ( 'NONE', *, *, #406, .T. ) ;
#142 = SURFACE_STYLE_FILL_AREA ( #261 ) ;
#143 = CARTESIAN_POINT ( 'NONE',  ( 14.06175261953962163, 0.5999999999999999778, 5.000000000000000000 ) ) ;
#144 = ORIENTED_EDGE ( 'NONE', *, *, #244, .T. ) ;
#145 =( GEOMETRIC_REPRESENTATION_CONTEXT ( 3 ) GLOBAL_UNCERTAINTY_ASSIGNED_CONTEXT ( ( #119 ) ) GLOBAL_UNIT_ASSIGNED_CONTEXT ( ( #706, #513, #674 ) ) REPRESENTATION_CONTEXT ( 'NONE', 'WORKASPACE' ) );
#146 = CARTESIAN_POINT ( 'NONE',  ( 16.80000000000000071, 0.000000000000000000, -3.469446951953614189E-16 ) ) ;
#147 = ORIENTED_EDGE ( 'NONE', *, *, #454, .T. ) ;
#148 = VECTOR ( 'NONE', #463, 100.0000000000000142 ) ;
#149 = EDGE_CURVE ( 'NONE', #166, #421, #400, .T. ) ;
#150 = CARTESIAN_POINT ( 'NONE',  ( 12.17654160676137565, 0.5999999999999999778, 6.152934893266885474 ) ) ;
#151 = APPLICATION_CONTEXT ( 'automotive_design' ) ;
#152 = CARTESIAN_POINT ( 'NONE',  ( 14.06175261953962163, 0.5999999999999999778, 5.000000000000000000 ) ) ;
#153 = ORIENTED_EDGE ( 'NONE', *, *, #279, .T. ) ;
#154 = ORIENTED_EDGE ( 'NONE', *, *, #871, .T. ) ;
#155 = ORIENTED_EDGE ( 'NONE', *, *, #357, .F. ) ;
#156 = PLANE ( 'NONE',  #573 ) ;
#157 = VECTOR ( 'NONE', #366, 100.0000000000000000 ) ;
#158 = CARTESIAN_POINT ( 'NONE',  ( 16.80000000000000426, 0.8049999999999999378, 2.399999999999998135 ) ) ;
#159 = LINE ( 'NONE', #420, #591 ) ;
#160 = ORIENTED_EDGE ( 'NONE', *, *, #759, .F. ) ;
#161 = VERTEX_POINT ( 'NONE', #392 ) ;
#162 = AXIS2_PLACEMENT_3D ( 'NONE', #740, #2, #678 ) ;
#163 = CARTESIAN_POINT ( 'NONE',  ( 11.90378686857452450, -1.734723475976807094E-16, 5.000000000000000000 ) ) ;
#164 = DIRECTION ( 'NONE',  ( 0.2302195854387930896, 0.000000000000000000, 0.9731387067013572700 ) ) ;
#165 = ORIENTED_EDGE ( 'NONE', *, *, #149, .T. ) ;
#166 = VERTEX_POINT ( 'NONE', #66 ) ;
#167 = CYLINDRICAL_SURFACE ( 'NONE', #831, 0.3000000000000001554 ) ;
#168 = FACE_OUTER_BOUND ( 'NONE', #397, .T. ) ;
#169 = ORIENTED_EDGE ( 'NONE', *, *, #778, .T. ) ;
#170 = ADVANCED_FACE ( 'NONE', ( #340 ), #404, .F. ) ;
#171 = ORIENTED_EDGE ( 'NONE', *, *, #231, .T. ) ;
#172 = CARTESIAN_POINT ( 'NONE',  ( 12.98894324891518615, 0.5999999999999999778, 3.071439827240050047 ) ) ;
#173 = DIRECTION ( 'NONE',  ( -1.032573497605242347E-16, 0.000000000000000000, -1.000000000000000000 ) ) ;
#174 = CARTESIAN_POINT ( 'NONE',  ( 17.05000000000000782, 0.8049999999999999378, 4.999999999999988454 ) ) ;
#175 = ORIENTED_EDGE ( 'NONE', *, *, #279, .F. ) ;
#176 = EDGE_CURVE ( 'NONE', #561, #365, #612, .T. ) ;
#177 = CARTESIAN_POINT ( 'NONE',  ( 17.05000000000000782, 0.3950000000000000178, 4.999999999999988454 ) ) ;
#178 = CARTESIAN_POINT ( 'NONE',  ( 5.489596155165683555, 0.000000000000000000, 4.470517440337654413 ) ) ;
#179 = SURFACE_STYLE_FILL_AREA ( #593 ) ;
#180 = VECTOR ( 'NONE', #252, 100.0000000000000142 ) ;
#181 = ORIENTED_EDGE ( 'NONE', *, *, #324, .T. ) ;
#182 = EDGE_CURVE ( 'NONE', #838, #421, #334, .T. ) ;
#183 = CYLINDRICAL_SURFACE ( 'NONE', #44, 0.3000000000000002109 ) ;
#184 = VECTOR ( 'NONE', #611, 100.0000000000000000 ) ;
#185 = DIRECTION ( 'NONE',  ( -1.000000000000000000, -0.000000000000000000, -2.065146995210483770E-17 ) ) ;
#186 = VERTEX_POINT ( 'NONE', #137 ) ;
#187 = STYLED_ITEM ( 'NONE', ( #197 ), #457 ) ;
#188 = FACE_OUTER_BOUND ( 'NONE', #225, .T. ) ;
#189 = ORIENTED_EDGE ( 'NONE', *, *, #742, .T. ) ;
#190 = CARTESIAN_POINT ( 'NONE',  ( 16.80000000000000071, 1.199999999999999956, -3.469446951953614189E-16 ) ) ;
#191 = CARTESIAN_POINT ( 'NONE',  ( 16.80000000000000071, 1.199999999999999956, 5.000000000000000000 ) ) ;
#192 = VERTEX_POINT ( 'NONE', #70 ) ;
#193 = CARTESIAN_POINT ( 'NONE',  ( 0.000000000000000000, 0.8049999999999999378, 2.399999999999999911 ) ) ;
#194 = VERTEX_POINT ( 'NONE', #338 ) ;
#195 = PLANE ( 'NONE',  #407 ) ;
#196 = EDGE_CURVE ( 'NONE', #609, #526, #435, .T. ) ;
#197 = PRESENTATION_STYLE_ASSIGNMENT (( #819 ) ) ;
#198 = CARTESIAN_POINT ( 'NONE',  ( 0.000000000000000000, 0.8049999999999999378, 5.000000000000000000 ) ) ;
#199 = ORIENTED_EDGE ( 'NONE', *, *, #544, .T. ) ;
#200 = VECTOR ( 'NONE', #465, 100.0000000000000142 ) ;
#201 = ADVANCED_FACE ( 'NONE', ( #499 ), #218, .T. ) ;
#202 = SURFACE_STYLE_USAGE ( .BOTH. , #815 ) ;
#203 = FACE_OUTER_BOUND ( 'NONE', #494, .T. ) ;
#204 = VERTEX_POINT ( 'NONE', #152 ) ;
#205 = VECTOR ( 'NONE', #873, 100.0000000000000000 ) ;
#206 = LINE ( 'NONE', #607, #680 ) ;
#207 = EDGE_CURVE ( 'NONE', #233, #192, #835, .T. ) ;
#208 = FACE_OUTER_BOUND ( 'NONE', #699, .T. ) ;
#209 = ORIENTED_EDGE ( 'NONE', *, *, #610, .F. ) ;
#210 = CIRCLE ( 'NONE', #715, 0.3000000000000001554 ) ;
#211 = CARTESIAN_POINT ( 'NONE',  ( 9.255424319351506668, 1.199999999999999956, 2.927091628118346112 ) ) ;
#212 = ORIENTED_EDGE ( 'NONE', *, *, #656, .F. ) ;
#213 = EDGE_CURVE ( 'NONE', #719, #347, #360, .T. ) ;
#214 = ORIENTED_EDGE ( 'NONE', *, *, #864, .T. ) ;
#215 = VECTOR ( 'NONE', #497, 100.0000000000000142 ) ;
#216 = CARTESIAN_POINT ( 'NONE',  ( 12.52034851170740737, 0.5999999999999999778, 5.000000000000000000 ) ) ;
#217 = AXIS2_PLACEMENT_3D ( 'NONE', #546, #262, #822 ) ;
#218 = PLANE ( 'NONE',  #495 ) ;
#219 = VERTEX_POINT ( 'NONE', #414 ) ;
#220 = CARTESIAN_POINT ( 'NONE',  ( 5.489596155165683555, 1.199999999999999956, 4.470517440337655302 ) ) ;
#221 = CARTESIAN_POINT ( 'NONE',  ( 12.64999999999998437, 0.8049999999999999378, -1.750000000000001998 ) ) ;
#222 = VECTOR ( 'NONE', #185, 100.0000000000000000 ) ;
#223 = DIRECTION ( 'NONE',  ( -1.000000000000000000, 0.000000000000000000, 1.032573497605242347E-16 ) ) ;
#224 = EDGE_LOOP ( 'NONE', ( #670, #30 ) ) ;
#225 = EDGE_LOOP ( 'NONE', ( #291, #189, #330, #685, #153, #710, #477, #320, #257 ) ) ;
#226 = DIRECTION ( 'NONE',  ( -1.000000000000000000, 0.000000000000000000, 1.032573497605242347E-16 ) ) ;
#227 = CARTESIAN_POINT ( 'NONE',  ( 6.869342155608096689, 0.5999999999999999778, 2.875015646461143604 ) ) ;
#228 = ORIENTED_EDGE ( 'NONE', *, *, #480, .F. ) ;
#229 = CARTESIAN_POINT ( 'NONE',  ( 17.05000000000000782, 0.8049999999999999378, 4.999999999999988454 ) ) ;
#230 = LINE ( 'NONE', #221, #677 ) ;
#231 = EDGE_CURVE ( 'NONE', #459, #506, #718, .T. ) ;
#232 = DIRECTION ( 'NONE',  ( 0.9731387067013572700, 0.000000000000000000, -0.2302195854387930340 ) ) ;
#233 = VERTEX_POINT ( 'NONE', #227 ) ;
#234 = VECTOR ( 'NONE', #232, 100.0000000000000142 ) ;
#235 = ORIENTED_EDGE ( 'NONE', *, *, #622, .F. ) ;
#236 = LINE ( 'NONE', #348, #603 ) ;
#237 = EDGE_CURVE ( 'NONE', #484, #657, #493, .T. ) ;
#238 = CARTESIAN_POINT ( 'NONE',  ( 4.150000000000017231, 0.3950000000000000178, -1.750000000000000444 ) ) ;
#239 = VERTEX_POINT ( 'NONE', #634 ) ;
#240 = LINE ( 'NONE', #312, #376 ) ;
#241 = DIRECTION ( 'NONE',  ( 0.2302195854387916185, 0.000000000000000000, 0.9731387067013576031 ) ) ;
#242 = DIRECTION ( 'NONE',  ( 0.2302195854387930618, 0.000000000000000000, 0.9731387067013572700 ) ) ;
#243 = CYLINDRICAL_SURFACE ( 'NONE', #443, 0.3000000000000002109 ) ;
#244 = EDGE_CURVE ( 'NONE', #192, #506, #704, .T. ) ;
#245 = DIRECTION ( 'NONE',  ( 0.000000000000000000, 1.000000000000000000, 0.000000000000000000 ) ) ;
#246 = DIRECTION ( 'NONE',  ( -0.9731387067013571590, 0.000000000000000000, 0.2302195854387936169 ) ) ;
#247 = VECTOR ( 'NONE', #300, 100.0000000000000000 ) ;
#248 = CARTESIAN_POINT ( 'NONE',  ( 12.52034851170740737, 0.5999999999999999778, 5.000000000000000000 ) ) ;
#249 = DIRECTION ( 'NONE',  ( 1.704540558354500032E-15, 0.000000000000000000, 1.000000000000000000 ) ) ;
#250 = ORIENTED_EDGE ( 'NONE', *, *, #590, .F. ) ;
#251 =( GEOMETRIC_REPRESENTATION_CONTEXT ( 3 ) GLOBAL_UNCERTAINTY_ASSIGNED_CONTEXT ( ( #664 ) ) GLOBAL_UNIT_ASSIGNED_CONTEXT ( ( #441, #601, #597 ) ) REPRESENTATION_CONTEXT ( 'NONE', 'WORKASPACE' ) );
#252 = DIRECTION ( 'NONE',  ( 0.9731387067013572700, 0.000000000000000000, -0.2302195854387927287 ) ) ;
#253 = CARTESIAN_POINT ( 'NONE',  ( 7.161283767618503937, 0.5999999999999999778, 2.805949770829505585 ) ) ;
#254 = LINE ( 'NONE', #602, #605 ) ;
#255 = APPLICATION_PROTOCOL_DEFINITION ( 'draft international standard', 'automotive_design', 1998, #389 ) ;
#256 = EDGE_CURVE ( 'NONE', #194, #447, #490, .T. ) ;
#257 = ORIENTED_EDGE ( 'NONE', *, *, #544, .F. ) ;
#258 =( NAMED_UNIT ( * ) PLANE_ANGLE_UNIT ( ) SI_UNIT ( $, .RADIAN. ) );
#259 = COLOUR_RGB ( '',1.000000000000000000, 1.000000000000000000, 1.000000000000000000 ) ;
#260 = DIRECTION ( 'NONE',  ( -0.2302195854387930618, -0.000000000000000000, -0.9731387067013573811 ) ) ;
#261 = FILL_AREA_STYLE ('',( #751 ) ) ;
#262 = DIRECTION ( 'NONE',  ( 0.2302195854387930340, 0.000000000000000000, 0.9731387067013573811 ) ) ;
#263 = ORIENTED_EDGE ( 'NONE', *, *, #315, .F. ) ;
#264 = AXIS2_PLACEMENT_3D ( 'NONE', #496, #776, #40 ) ;
#265 = EDGE_CURVE ( 'NONE', #805, #708, #774, .T. ) ;
#266 = CARTESIAN_POINT ( 'NONE',  ( 16.80000000000000782, 0.8049999999999999378, 4.999999999999989342 ) ) ;
#267 = LINE ( 'NONE', #8, #301 ) ;
#268 = ORIENTED_EDGE ( 'NONE', *, *, #549, .F. ) ;
#269 = VECTOR ( 'NONE', #92, 100.0000000000000000 ) ;
#270 = CARTESIAN_POINT ( 'NONE',  ( 16.80000000000000071, 1.199999999999999956, 5.000000000000000000 ) ) ;
#271 = PRODUCT ( 'ramp-wall-middle_60', 'ramp-wall-middle_60', '', ( #118 ) ) ;
#272 = CARTESIAN_POINT ( 'NONE',  ( 9.255424319351506668, 0.000000000000000000, 2.927091628118346112 ) ) ;
#273 = ORIENTED_EDGE ( 'NONE', *, *, #656, .T. ) ;
#274 =( LENGTH_UNIT ( ) NAMED_UNIT ( * ) SI_UNIT ( .CENTI., .METRE. ) );
#275 = ADVANCED_FACE ( 'NONE', ( #168 ), #429, .F. ) ;
#276 = FACE_OUTER_BOUND ( 'NONE', #346, .T. ) ;
#277 = VERTEX_POINT ( 'NONE', #349 ) ;
#278 = DIRECTION ( 'NONE',  ( -0.9731387067013571590, 0.000000000000000000, 0.2302195854387936169 ) ) ;
#279 = EDGE_CURVE ( 'NONE', #561, #484, #17, .T. ) ;
#280 = CARTESIAN_POINT ( 'NONE',  ( 8.400000000000002132, 0.3950000000000000178, 2.500000000000000000 ) ) ;
#281 = ORIENTED_EDGE ( 'NONE', *, *, #419, .T. ) ;
#282 = DIRECTION ( 'NONE',  ( 0.2302195854387930063, 0.000000000000000000, 0.9731387067013572700 ) ) ;
#283 = CARTESIAN_POINT ( 'NONE',  ( 12.64999999999998437, 0.3950000000000000178, -1.750000000000001998 ) ) ;
#284 = ORIENTED_EDGE ( 'NONE', *, *, #15, .T. ) ;
#285 = ORIENTED_EDGE ( 'NONE', *, *, #676, .F. ) ;
#286 =( GEOMETRIC_REPRESENTATION_CONTEXT ( 3 ) GLOBAL_UNCERTAINTY_ASSIGNED_CONTEXT ( ( #726 ) ) GLOBAL_UNIT_ASSIGNED_CONTEXT ( ( #274, #548, #639 ) ) REPRESENTATION_CONTEXT ( 'NONE', 'WORKASPACE' ) );
#287 = LINE ( 'NONE', #427, #625 ) ;
#288 = DIRECTION ( 'NONE',  ( 1.000000000000000000, 0.000000000000000000, 0.000000000000000000 ) ) ;
#289 = VECTOR ( 'NONE', #115, 100.0000000000000000 ) ;
#290 = DIRECTION ( 'NONE',  ( 1.032573497605242347E-16, 0.000000000000000000, 1.000000000000000000 ) ) ;
#291 = ORIENTED_EDGE ( 'NONE', *, *, #871, .F. ) ;
#292 = ORIENTED_EDGE ( 'NONE', *, *, #333, .T. ) ;
#293 = EDGE_CURVE ( 'NONE', #194, #387, #364, .T. ) ;
#294 = CARTESIAN_POINT ( 'NONE',  ( 4.150000000000017231, 0.8049999999999999378, -1.750000000000000444 ) ) ;
#295 = VECTOR ( 'NONE', #173, 100.0000000000000000 ) ;
#296 = CARTESIAN_POINT ( 'NONE',  ( 17.05000000000000426, 0.8049999999999999378, 2.649999999999997247 ) ) ;
#297 = CARTESIAN_POINT ( 'NONE',  ( 6.869342155608096689, 0.5999999999999999778, 2.875015646461143604 ) ) ;
#298 = ORIENTED_EDGE ( 'NONE', *, *, #207, .T. ) ;
#299 = CARTESIAN_POINT ( 'NONE',  ( 16.80000000000000071, 1.199999999999999956, 5.000000000000000000 ) ) ;
#300 = DIRECTION ( 'NONE',  ( -1.170779488823174499E-15, -0.000000000000000000, -1.000000000000000000 ) ) ;
#301 = VECTOR ( 'NONE', #82, 100.0000000000000142 ) ;
#302 = DIRECTION ( 'NONE',  ( -1.000000000000000000, 0.000000000000000000, 1.032573497605242347E-16 ) ) ;
#303 =( BOUNDED_CURVE ( )  B_SPLINE_CURVE ( 3, ( #502, #700, #845, #786 ),
 .UNSPECIFIED., .F., .T. ) 
 B_SPLINE_CURVE_WITH_KNOTS ( ( 4, 4 ),
 ( 0.000000000000000000, 3.141592653589793116 ),
 .UNSPECIFIED. ) 
 CURVE ( )  GEOMETRIC_REPRESENTATION_ITEM ( )  RATIONAL_B_SPLINE_CURVE ( ( 1.000000000000000000, 0.3333333333333333703, 0.3333333333333333703, 1.000000000000000000 ) ) 
 REPRESENTATION_ITEM ( '' )  );
#304 = VERTEX_POINT ( 'NONE', #646 ) ;
#305 = AXIS2_PLACEMENT_3D ( 'NONE', #820, #260, #140 ) ;
#306 = LINE ( 'NONE', #653, #552 ) ;
#307 = VECTOR ( 'NONE', #130, 100.0000000000000000 ) ;
#308 = DIRECTION ( 'NONE',  ( -0.9731387067013572700, 0.000000000000000000, 0.2302195854387930618 ) ) ;
#309 = ADVANCED_FACE ( 'NONE', ( #762 ), #640, .F. ) ;
#310 = ORIENTED_EDGE ( 'NONE', *, *, #576, .F. ) ;
#311 = ORIENTED_EDGE ( 'NONE', *, *, #759, .T. ) ;
#312 = CARTESIAN_POINT ( 'NONE',  ( 12.76042483078219192, 0.5999999999999999778, 6.014803142003609437 ) ) ;
#313 = DIRECTION ( 'NONE',  ( 0.9731387067013571590, 0.000000000000000000, -0.2302195854387936169 ) ) ;
#314 = LINE ( 'NONE', #191, #68 ) ;
#315 = EDGE_CURVE ( 'NONE', #758, #719, #577, .T. ) ;
#316 = ORIENTED_EDGE ( 'NONE', *, *, #460, .T. ) ;
#317 = CARTESIAN_POINT ( 'NONE',  ( 0.000000000000000000, 0.3950000000000000178, 2.399999999999999911 ) ) ;
#318 = VECTOR ( 'NONE', #164, 100.0000000000000142 ) ;
#319 = SURFACE_STYLE_USAGE ( .BOTH. , #458 ) ;
#320 = ORIENTED_EDGE ( 'NONE', *, *, #432, .F. ) ;
#321 = CARTESIAN_POINT ( 'NONE',  ( 9.255424319351506668, 1.199999999999999956, 2.927091628118346112 ) ) ;
#322 = DIRECTION ( 'NONE',  ( 0.000000000000000000, -1.000000000000000000, 0.000000000000000000 ) ) ;
#323 = DIRECTION ( 'NONE',  ( 0.2302195854387930063, 0.000000000000000000, 0.9731387067013572700 ) ) ;
#324 = EDGE_CURVE ( 'NONE', #83, #526, #504, .T. ) ;
#325 = CARTESIAN_POINT ( 'NONE',  ( 5.343406718412051504, 0.000000000000000000, 3.852574361582292717 ) ) ;
#326 = LINE ( 'NONE', #516, #359 ) ;
#327 = ORIENTED_EDGE ( 'NONE', *, *, #176, .F. ) ;
#328 = APPLICATION_PROTOCOL_DEFINITION ( 'draft international standard', 'automotive_design', 1998, #151 ) ;
#329 = CARTESIAN_POINT ( 'NONE',  ( 7.453225379628911185, 0.5999999999999999778, 2.736883895197867567 ) ) ;
#330 = ORIENTED_EDGE ( 'NONE', *, *, #530, .T. ) ;
#331 = VECTOR ( 'NONE', #36, 100.0000000000000000 ) ;
#332 = PRESENTATION_LAYER_ASSIGNMENT (  '', '', ( #760 ) ) ;
#333 = EDGE_CURVE ( 'NONE', #832, #624, #783, .T. ) ;
#334 = LINE ( 'NONE', #608, #618 ) ;
#335 = ORIENTED_EDGE ( 'NONE', *, *, #432, .T. ) ;
#336 = COLOUR_RGB ( '',0.6941176470588235059, 0.09803921568627450844, 0.09803921568627450844 ) ;
#337 = LINE ( 'NONE', #395, #881 ) ;
#338 = CARTESIAN_POINT ( 'NONE',  ( -0.2500000000000002220, 0.8049999999999999378, 5.000000000000000000 ) ) ;
#339 = ORIENTED_EDGE ( 'NONE', *, *, #383, .T. ) ;
#340 = FACE_OUTER_BOUND ( 'NONE', #57, .T. ) ;
#341 = ORIENTED_EDGE ( 'NONE', *, *, #333, .F. ) ;
#342 = FACE_OUTER_BOUND ( 'NONE', #635, .T. ) ;
#343 = ORIENTED_EDGE ( 'NONE', *, *, #549, .T. ) ;
#344 = CARTESIAN_POINT ( 'NONE',  ( 8.400000000000002132, 0.8049999999999999378, 2.500000000000000000 ) ) ;
#345 = LINE ( 'NONE', #615, #529 ) ;
#346 = EDGE_LOOP ( 'NONE', ( #131, #171, #67, #20 ) ) ;
#347 = VERTEX_POINT ( 'NONE', #560 ) ;
#348 = CARTESIAN_POINT ( 'NONE',  ( 0.000000000000000000, 1.199999999999999956, 0.000000000000000000 ) ) ;
#349 = CARTESIAN_POINT ( 'NONE',  ( 5.343406718412051504, 0.000000000000000000, 3.852574361582292717 ) ) ;
#350 = ORIENTED_EDGE ( 'NONE', *, *, #196, .F. ) ;
#351 = AXIS2_PLACEMENT_3D ( 'NONE', #28, #830, #355 ) ;
#352 = FACE_OUTER_BOUND ( 'NONE', #628, .T. ) ;
#353 = AXIS2_PLACEMENT_3D ( 'NONE', #321, #120, #241 ) ;
#354 = PLANE ( 'NONE',  #481 ) ;
#355 = DIRECTION ( 'NONE',  ( -0.9731387067013571590, 0.000000000000000000, 0.2302195854387936169 ) ) ;
#356 = ORIENTED_EDGE ( 'NONE', *, *, #789, .F. ) ;
#357 = EDGE_CURVE ( 'NONE', #161, #805, #159, .T. ) ;
#358 = ORIENTED_EDGE ( 'NONE', *, *, #853, .T. ) ;
#359 = VECTOR ( 'NONE', #581, 100.0000000000000000 ) ;
#360 = LINE ( 'NONE', #852, #541 ) ;
#361 = VERTEX_POINT ( 'NONE', #37 ) ;
#362 = ORIENTED_EDGE ( 'NONE', *, *, #13, .F. ) ;
#363 = LINE ( 'NONE', #32, #247 ) ;
#364 = LINE ( 'NONE', #23, #741 ) ;
#365 = VERTEX_POINT ( 'NONE', #723 ) ;
#366 = DIRECTION ( 'NONE',  ( 1.704540558354500032E-15, 0.000000000000000000, 1.000000000000000000 ) ) ;
#367 = EDGE_CURVE ( 'NONE', #347, #884, #655, .T. ) ;
#368 = CARTESIAN_POINT ( 'NONE',  ( 5.489596155165683555, 1.199999999999999956, 4.470517440337655302 ) ) ;
#369 = AXIS2_PLACEMENT_3D ( 'NONE', #782, #514, #875 ) ;
#370 = DIRECTION ( 'NONE',  ( -1.000000000000000000, -0.000000000000000000, -2.065146995210482230E-17 ) ) ;
#371 = ORIENTED_EDGE ( 'NONE', *, *, #789, .T. ) ;
#372 = LINE ( 'NONE', #787, #63 ) ;
#373 = LINE ( 'NONE', #126, #222 ) ;
#374 = ORIENTED_EDGE ( 'NONE', *, *, #480, .T. ) ;
#375 = DIRECTION ( 'NONE',  ( 0.2302195854387930618, 0.000000000000000000, 0.9731387067013572700 ) ) ;
#376 = VECTOR ( 'NONE', #438, 100.0000000000000142 ) ;
#377 = CARTESIAN_POINT ( 'NONE',  ( 0.000000000000000000, 0.000000000000000000, 0.000000000000000000 ) ) ;
#378 = FACE_BOUND ( 'NONE', #24, .T. ) ;
#379 = DIRECTION ( 'NONE',  ( 1.000000000000000000, 0.000000000000000000, -1.032573497605242347E-16 ) ) ;
#380 = VECTOR ( 'NONE', #409, 100.0000000000000000 ) ;
#381 = CARTESIAN_POINT ( 'NONE',  ( 5.614858108619092292, 1.199999999999999956, 5.000000000000001776 ) ) ;
#382 = DIRECTION ( 'NONE',  ( 0.9731387067013572700, 0.000000000000000000, -0.2302195854387926455 ) ) ;
#383 = EDGE_CURVE ( 'NONE', #410, #719, #666, .T. ) ;
#384 = DIRECTION ( 'NONE',  ( 0.000000000000000000, -1.000000000000000000, 0.000000000000000000 ) ) ;
#385 = PRESENTATION_STYLE_ASSIGNMENT (( #319 ) ) ;
#386 = ORIENTED_EDGE ( 'NONE', *, *, #256, .F. ) ;
#387 = VERTEX_POINT ( 'NONE', #446 ) ;
#388 = PRODUCT_DEFINITION_FORMATION_WITH_SPECIFIED_SOURCE ( 'ANY', '', #271, .NOT_KNOWN. ) ;
#389 = APPLICATION_CONTEXT ( 'automotive_design' ) ;
#390 = CARTESIAN_POINT ( 'NONE',  ( 7.591357130892187222, 0.5999999999999999778, 3.320767119218681618 ) ) ;
#391 = EDGE_CURVE ( 'NONE', #506, #192, #837, .T. ) ;
#392 = CARTESIAN_POINT ( 'NONE',  ( 3.251472181705016506, 1.199999999999999956, 5.000000000000000000 ) ) ;
#393 = ORIENTED_EDGE ( 'NONE', *, *, #182, .T. ) ;
#394 = AXIS2_PLACEMENT_3D ( 'NONE', #538, #687, #542 ) ;
#395 = CARTESIAN_POINT ( 'NONE',  ( 16.80000000000000071, 0.000000000000000000, 5.000000000000000000 ) ) ;
#396 = DIRECTION ( 'NONE',  ( 0.9731387067013571590, 0.000000000000000000, -0.2302195854387936169 ) ) ;
#397 = EDGE_LOOP ( 'NONE', ( #94, #339, #263, #228 ) ) ;
#398 = AXIS2_PLACEMENT_3D ( 'NONE', #861, #525, #370 ) ;
#399 =( NAMED_UNIT ( * ) SI_UNIT ( $, .STERADIAN. ) SOLID_ANGLE_UNIT ( ) );
#400 = LINE ( 'NONE', #134, #124 ) ;
#401 = ORIENTED_EDGE ( 'NONE', *, *, #86, .F. ) ;
#402 = PRODUCT_DEFINITION_SHAPE ( 'NONE', 'NONE',  #478 ) ;
#403 = PRESENTATION_STYLE_ASSIGNMENT (( #202 ) ) ;
#404 = PLANE ( 'NONE',  #863 ) ;
#405 = VERTEX_POINT ( 'NONE', #377 ) ;
#406 = EDGE_CURVE ( 'NONE', #304, #166, #56, .T. ) ;
#407 = AXIS2_PLACEMENT_3D ( 'NONE', #619, #73, #695 ) ;
#408 = CARTESIAN_POINT ( 'NONE',  ( 9.745821117609423823, 0.000000000000000000, 5.000000000000001776 ) ) ;
#409 = DIRECTION ( 'NONE',  ( 0.000000000000000000, -1.000000000000000000, 0.000000000000000000 ) ) ;
#410 = VERTEX_POINT ( 'NONE', #193 ) ;
#411 = ORIENTED_EDGE ( 'NONE', *, *, #576, .T. ) ;
#412 = ADVANCED_FACE ( 'NONE', ( #660 ), #798, .T. ) ;
#413 = CARTESIAN_POINT ( 'NONE',  ( 5.343406718412051504, 1.199999999999999956, 3.852574361582292717 ) ) ;
#414 = CARTESIAN_POINT ( 'NONE',  ( 13.44519097640673699, 0.5999999999999999778, 5.000000000000000000 ) ) ;
#415 = ORIENTED_EDGE ( 'NONE', *, *, #103, .T. ) ;
#416 = VECTOR ( 'NONE', #417, 100.0000000000000142 ) ;
#417 = DIRECTION ( 'NONE',  ( 0.7071067811865489050, 0.000000000000000000, -0.7071067811865461294 ) ) ;
#418 = CARTESIAN_POINT ( 'NONE',  ( 11.82117680087355538, 0.5999999999999999778, 3.347703329766602121 ) ) ;
#419 = EDGE_CURVE ( 'NONE', #447, #758, #326, .T. ) ;
#420 = CARTESIAN_POINT ( 'NONE',  ( 3.251472181705016506, 1.199999999999999956, 5.000000000000000000 ) ) ;
#421 = VERTEX_POINT ( 'NONE', #528 ) ;
#422 = VECTOR ( 'NONE', #101, 100.0000000000000142 ) ;
#423 = LINE ( 'NONE', #761, #135 ) ;
#424 = ADVANCED_FACE ( 'NONE', ( #450 ), #732, .F. ) ;
#425 = DIRECTION ( 'NONE',  ( 0.2302195854387930896, 0.000000000000000000, 0.9731387067013572700 ) ) ;
#426 = ORIENTED_EDGE ( 'NONE', *, *, #265, .F. ) ;
#427 = CARTESIAN_POINT ( 'NONE',  ( 16.80000000000000782, 0.8049999999999999378, 4.999999999999989342 ) ) ;
#428 = LINE ( 'NONE', #85, #558 ) ;
#429 = PLANE ( 'NONE',  #464 ) ;
#430 = EDGE_LOOP ( 'NONE', ( #155, #154, #817, #630, #18, #876, #93, #431 ) ) ;
#431 = ORIENTED_EDGE ( 'NONE', *, *, #472, .F. ) ;
#432 = EDGE_CURVE ( 'NONE', #361, #304, #792, .T. ) ;
#433 = DIRECTION ( 'NONE',  ( -0.2302195854387930340, -0.000000000000000000, -0.9731387067013572700 ) ) ;
#434 = FACE_OUTER_BOUND ( 'NONE', #604, .T. ) ;
#435 = LINE ( 'NONE', #627, #4 ) ;
#436 = ORIENTED_EDGE ( 'NONE', *, *, #583, .F. ) ;
#437 = EDGE_CURVE ( 'NONE', #233, #459, #25, .T. ) ;
#438 = DIRECTION ( 'NONE',  ( -0.2302195854387930340, -0.000000000000000000, -0.9731387067013572700 ) ) ;
#439 = FACE_OUTER_BOUND ( 'NONE', #39, .T. ) ;
#440 = CIRCLE ( 'NONE', #107, 0.3000000000000001554 ) ;
#441 =( LENGTH_UNIT ( ) NAMED_UNIT ( * ) SI_UNIT ( .CENTI., .METRE. ) );
#442 = DIRECTION ( 'NONE',  ( -0.2302195854387930618, -0.000000000000000000, -0.9731387067013573811 ) ) ;
#443 = AXIS2_PLACEMENT_3D ( 'NONE', #788, #442, #396 ) ;
#444 = CARTESIAN_POINT ( 'NONE',  ( 5.489596155165683555, 1.199999999999999956, 4.470517440337655302 ) ) ;
#445 = AXIS2_PLACEMENT_3D ( 'NONE', #381, #808, #858 ) ;
#446 = CARTESIAN_POINT ( 'NONE',  ( -0.2500000000000002220, 0.8049999999999999378, 2.649999999999999023 ) ) ;
#447 = VERTEX_POINT ( 'NONE', #735 ) ;
#448 = UNCERTAINTY_MEASURE_WITH_UNIT (LENGTH_MEASURE( 1.000000000000000082E-05 ), #686, 'distance_accuracy_value', 'NONE');
#449 = PLANE ( 'NONE',  #586 ) ;
#450 = FACE_OUTER_BOUND ( 'NONE', #869, .T. ) ;
#451 = EDGE_CURVE ( 'NONE', #679, #466, #314, .T. ) ;
#452 = ORIENTED_EDGE ( 'NONE', *, *, #357, .T. ) ;
#453 = FACE_OUTER_BOUND ( 'NONE', #551, .T. ) ;
#454 = EDGE_CURVE ( 'NONE', #679, #484, #373, .T. ) ;
#455 = VERTEX_POINT ( 'NONE', #669 ) ;
#456 = ADVANCED_BREP_SHAPE_REPRESENTATION ( 'ramp-wall-middle_60', ( #518, #9 ), #145 ) ;
#457 = ADVANCED_FACE ( 'NONE', ( #42, #475, #824 ), #69, .T. ) ;
#458 = SURFACE_SIDE_STYLE ('',( #179 ) ) ;
#459 = VERTEX_POINT ( 'NONE', #329 ) ;
#460 = EDGE_CURVE ( 'NONE', #568, #83, #743, .T. ) ;
#461 = DIRECTION ( 'NONE',  ( -2.065146995210482230E-17, 0.000000000000000000, 1.000000000000000000 ) ) ;
#462 = CARTESIAN_POINT ( 'NONE',  ( 11.90378686857452273, 0.5999999999999999778, 5.000000000000000000 ) ) ;
#463 = DIRECTION ( 'NONE',  ( 0.9731387067013572700, 0.000000000000000000, -0.2302195854387927287 ) ) ;
#464 = AXIS2_PLACEMENT_3D ( 'NONE', #713, #97, #87 ) ;
#465 = DIRECTION ( 'NONE',  ( 0.2302195854387916185, 0.000000000000000000, 0.9731387067013576031 ) ) ;
#466 = VERTEX_POINT ( 'NONE', #266 ) ;
#467 = DIRECTION ( 'NONE',  ( 0.9731387067013571590, 0.000000000000000000, -0.2302195854387936169 ) ) ;
#468 = CARTESIAN_POINT ( 'NONE',  ( 13.44519097640673699, 0.5999999999999999778, 5.000000000000000000 ) ) ;
#469 = EDGE_LOOP ( 'NONE', ( #757, #268, #486, #34, #341, #854, #578, #147 ) ) ;
#470 = STYLED_ITEM ( 'NONE', ( #385 ), #412 ) ;
#471 = FACE_OUTER_BOUND ( 'NONE', #738, .T. ) ;
#472 = EDGE_CURVE ( 'NONE', #805, #884, #337, .T. ) ;
#473 = CARTESIAN_POINT ( 'NONE',  ( 13.44519097640673699, -8.673617379884035472E-17, 5.000000000000000000 ) ) ;
#474 = ORIENTED_EDGE ( 'NONE', *, *, #367, .F. ) ;
#475 = FACE_BOUND ( 'NONE', #662, .T. ) ;
#476 = PLANE ( 'NONE',  #217 ) ;
#477 = ORIENTED_EDGE ( 'NONE', *, *, #116, .F. ) ;
#478 = PRODUCT_DEFINITION ( 'UNKNOWN', '', #388, #535 ) ;
#479 = EDGE_LOOP ( 'NONE', ( #374, #859, #386, #527 ) ) ;
#480 = EDGE_CURVE ( 'NONE', #387, #758, #739, .T. ) ;
#481 = AXIS2_PLACEMENT_3D ( 'NONE', #344, #553, #772 ) ;
#482 = CARTESIAN_POINT ( 'NONE',  ( 12.52034851170740737, -1.734723475976807094E-16, 5.000000000000000000 ) ) ;
#483 = CARTESIAN_POINT ( 'NONE',  ( 9.745821117609423823, 1.199999999999999956, 5.000000000000001776 ) ) ;
#484 = VERTEX_POINT ( 'NONE', #811 ) ;
#485 = AXIS2_PLACEMENT_3D ( 'NONE', #1, #690, #467 ) ;
#486 = ORIENTED_EDGE ( 'NONE', *, *, #182, .F. ) ;
#487 = EDGE_CURVE ( 'NONE', #455, #561, #675, .T. ) ;
#488 = DIRECTION ( 'NONE',  ( -1.000000000000000000, 0.000000000000000000, 2.878814911323413404E-15 ) ) ;
#489 = DIRECTION ( 'NONE',  ( -0.2302195854387912022, -0.000000000000000000, -0.9731387067013577141 ) ) ;
#490 = LINE ( 'NONE', #698, #498 ) ;
#491 = EDGE_LOOP ( 'NONE', ( #688, #98, #298, #144 ) ) ;
#492 = DIRECTION ( 'NONE',  ( 0.2302195854387930340, 0.000000000000000000, 0.9731387067013573811 ) ) ;
#493 = LINE ( 'NONE', #483, #818 ) ;
#494 = EDGE_LOOP ( 'NONE', ( #780, #411 ) ) ;
#495 = AXIS2_PLACEMENT_3D ( 'NONE', #779, #223, #842 ) ;
#496 = CARTESIAN_POINT ( 'NONE',  ( 16.80000000000000071, 1.199999999999999956, -3.469446951953614189E-16 ) ) ;
#497 = DIRECTION ( 'NONE',  ( -0.2302195854387930340, -0.000000000000000000, -0.9731387067013572700 ) ) ;
#498 = VECTOR ( 'NONE', #848, 100.0000000000000000 ) ;
#499 = FACE_OUTER_BOUND ( 'NONE', #828, .T. ) ;
#500 = ORIENTED_EDGE ( 'NONE', *, *, #661, .T. ) ;
#501 = EDGE_LOOP ( 'NONE', ( #426, #547, #557, #522, #165, #343, #38, #285, #784 ) ) ;
#502 = CARTESIAN_POINT ( 'NONE',  ( 13.44519097640673699, 0.5999999999999999778, 5.000000000000000000 ) ) ;
#503 = PLANE ( 'NONE',  #507 ) ;
#504 = LINE ( 'NONE', #283, #269 ) ;
#505 = EDGE_CURVE ( 'NONE', #347, #447, #206, .T. ) ;
#506 = VERTEX_POINT ( 'NONE', #390 ) ;
#507 = AXIS2_PLACEMENT_3D ( 'NONE', #717, #722, #855 ) ;
#508 = DIRECTION ( 'NONE',  ( -0.9731387067013573811, 0.000000000000000000, 0.2302195854387924789 ) ) ;
#509 = DIRECTION ( 'NONE',  ( 0.000000000000000000, -1.000000000000000000, 0.000000000000000000 ) ) ;
#510 = ORIENTED_EDGE ( 'NONE', *, *, #614, .T. ) ;
#511 = ORIENTED_EDGE ( 'NONE', *, *, #19, .F. ) ;
#512 = ADVANCED_FACE ( 'NONE', ( #471 ), #882, .F. ) ;
#513 =( NAMED_UNIT ( * ) PLANE_ANGLE_UNIT ( ) SI_UNIT ( $, .RADIAN. ) );
#514 = DIRECTION ( 'NONE',  ( 0.000000000000000000, -1.000000000000000000, 0.000000000000000000 ) ) ;
#515 = VECTOR ( 'NONE', #12, 100.0000000000000000 ) ;
#516 = CARTESIAN_POINT ( 'NONE',  ( -0.2500000000000002220, 0.3950000000000000178, 5.000000000000000000 ) ) ;
#517 = FACE_OUTER_BOUND ( 'NONE', #753, .T. ) ;
#518 = MANIFOLD_SOLID_BREP ( 'Cut-Extrude6', #136 ) ;
#519 = EDGE_CURVE ( 'NONE', #703, #29, #562, .T. ) ;
#520 = PLANE ( 'NONE',  #744 ) ;
#521 = AXIS2_PLACEMENT_3D ( 'NONE', #253, #242, #803 ) ;
#522 = ORIENTED_EDGE ( 'NONE', *, *, #610, .T. ) ;
#523 =( BOUNDED_CURVE ( )  B_SPLINE_CURVE ( 3, ( #589, #862, #531, #248 ),
 .UNSPECIFIED., .F., .T. ) 
 B_SPLINE_CURVE_WITH_KNOTS ( ( 4, 4 ),
 ( 0.000000000000000000, 3.141592653589793116 ),
 .UNSPECIFIED. ) 
 CURVE ( )  GEOMETRIC_REPRESENTATION_ITEM ( )  RATIONAL_B_SPLINE_CURVE ( ( 1.000000000000000000, 0.3333333333333333703, 0.3333333333333333703, 1.000000000000000000 ) ) 
 REPRESENTATION_ITEM ( '' )  );
#524 = PLANE ( 'NONE',  #353 ) ;
#525 = DIRECTION ( 'NONE',  ( -2.065146995210482230E-17, 0.000000000000000000, 1.000000000000000000 ) ) ;
#526 = VERTEX_POINT ( 'NONE', #575 ) ;
#527 = ORIENTED_EDGE ( 'NONE', *, *, #293, .T. ) ;
#528 = CARTESIAN_POINT ( 'NONE',  ( 16.80000000000000071, 0.000000000000000000, 5.000000000000000000 ) ) ;
#529 = VECTOR ( 'NONE', #752, 100.0000000000000000 ) ;
#530 = EDGE_CURVE ( 'NONE', #857, #455, #428, .T. ) ;
#531 = CARTESIAN_POINT ( 'NONE',  ( 12.52034851170740737, 1.200000000000000178, 5.000000000000000000 ) ) ;
#532 = FILL_AREA_STYLE ('',( #61 ) ) ;
#533 = CARTESIAN_POINT ( 'NONE',  ( 14.06175261953962341, -8.673617379884035472E-17, 5.000000000000000000 ) ) ;
#534 = PRODUCT_RELATED_PRODUCT_CATEGORY ( 'part', '', ( #271 ) ) ;
#535 = PRODUCT_DEFINITION_CONTEXT ( 'detailed design', #389, 'design' ) ;
#536 = SURFACE_SIDE_STYLE ('',( #65 ) ) ;
#537 = VECTOR ( 'NONE', #711, 100.0000000000000000 ) ;
#538 = CARTESIAN_POINT ( 'NONE',  ( 8.400000000000002132, 0.8049999999999999378, 2.500000000000000000 ) ) ;
#539 = ORIENTED_EDGE ( 'NONE', *, *, #176, .T. ) ;
#540 = CARTESIAN_POINT ( 'NONE',  ( 11.82117680087355538, 0.5999999999999999778, 3.347703329766602121 ) ) ;
#541 = VECTOR ( 'NONE', #290, 100.0000000000000000 ) ;
#542 = DIRECTION ( 'NONE',  ( 1.000000000000000000, 0.000000000000000000, -1.032573497605242347E-16 ) ) ;
#543 = ORIENTED_EDGE ( 'NONE', *, *, #80, .F. ) ;
#544 = EDGE_CURVE ( 'NONE', #647, #361, #236, .T. ) ;
#545 = CARTESIAN_POINT ( 'NONE',  ( 5.343406718412051504, 1.199999999999999956, 3.852574361582292717 ) ) ;
#546 = CARTESIAN_POINT ( 'NONE',  ( 11.82117680087355538, 0.5999999999999999778, 3.347703329766602121 ) ) ;
#547 = ORIENTED_EDGE ( 'NONE', *, *, #472, .T. ) ;
#548 =( NAMED_UNIT ( * ) PLANE_ANGLE_UNIT ( ) SI_UNIT ( $, .RADIAN. ) );
#549 = EDGE_CURVE ( 'NONE', #421, #657, #91, .T. ) ;
#550 = CYLINDRICAL_SURFACE ( 'NONE', #162, 0.3000000000000001554 ) ;
#551 = EDGE_LOOP ( 'NONE', ( #582, #620 ) ) ;
#552 = VECTOR ( 'NONE', #433, 100.0000000000000142 ) ;
#553 = DIRECTION ( 'NONE',  ( 0.000000000000000000, 1.000000000000000000, -0.000000000000000000 ) ) ;
#554 = DIRECTION ( 'NONE',  ( 0.000000000000000000, -1.000000000000000000, 0.000000000000000000 ) ) ;
#555 = ORIENTED_EDGE ( 'NONE', *, *, #293, .F. ) ;
#556 = ADVANCED_FACE ( 'NONE', ( #570 ), #354, .T. ) ;
#557 = ORIENTED_EDGE ( 'NONE', *, *, #766, .T. ) ;
#558 = VECTOR ( 'NONE', #489, 100.0000000000000142 ) ;
#559 = LINE ( 'NONE', #150, #215 ) ;
#560 = CARTESIAN_POINT ( 'NONE',  ( 0.000000000000000000, 0.3950000000000000178, 5.000000000000000000 ) ) ;
#561 = VERTEX_POINT ( 'NONE', #829 ) ;
#562 = CIRCLE ( 'NONE', #794, 0.3000000000000002109 ) ;
#563 = ORIENTED_EDGE ( 'NONE', *, *, #595, .T. ) ;
#564 = VECTOR ( 'NONE', #322, 100.0000000000000000 ) ;
#565 = CARTESIAN_POINT ( 'NONE',  ( 3.251472181705016506, 0.000000000000000000, 5.000000000000000000 ) ) ;
#566 = DIRECTION ( 'NONE',  ( 0.000000000000000000, -1.000000000000000000, 0.000000000000000000 ) ) ;
#567 = CARTESIAN_POINT ( 'NONE',  ( 7.453225379628911185, 0.5999999999999999778, 2.736883895197867567 ) ) ;
#568 = VERTEX_POINT ( 'NONE', #296 ) ;
#569 = CARTESIAN_POINT ( 'NONE',  ( 0.000000000000000000, 1.199999999999999956, 5.000000000000000000 ) ) ;
#570 = FACE_OUTER_BOUND ( 'NONE', #74, .T. ) ;
#571 = DIRECTION ( 'NONE',  ( 0.000000000000000000, -1.000000000000000000, 0.000000000000000000 ) ) ;
#572 = ORIENTED_EDGE ( 'NONE', *, *, #671, .T. ) ;
#573 = AXIS2_PLACEMENT_3D ( 'NONE', #632, #492, #771 ) ;
#574 = DIRECTION ( 'NONE',  ( -1.000000000000000000, -0.000000000000000000, -2.065146995210483770E-17 ) ) ;
#575 = CARTESIAN_POINT ( 'NONE',  ( 16.80000000000000426, 0.3950000000000000178, 2.399999999999998135 ) ) ;
#576 = EDGE_CURVE ( 'NONE', #29, #703, #790, .T. ) ;
#577 = LINE ( 'NONE', #238, #663 ) ;
#578 = ORIENTED_EDGE ( 'NONE', *, *, #451, .F. ) ;
#579 = DIRECTION ( 'NONE',  ( -0.2302195854387912022, -0.000000000000000000, -0.9731387067013577141 ) ) ;
#580 = LINE ( 'NONE', #325, #180 ) ;
#581 = DIRECTION ( 'NONE',  ( 4.305037197708010146E-16, 0.000000000000000000, -1.000000000000000000 ) ) ;
#582 = ORIENTED_EDGE ( 'NONE', *, *, #437, .T. ) ;
#583 = EDGE_CURVE ( 'NONE', #239, #62, #797, .T. ) ;
#584 = EDGE_LOOP ( 'NONE', ( #733, #84, #356, #511 ) ) ;
#585 = CARTESIAN_POINT ( 'NONE',  ( 16.80000000000000782, 0.3950000000000000178, 4.999999999999989342 ) ) ;
#586 = AXIS2_PLACEMENT_3D ( 'NONE', #105, #796, #801 ) ;
#587 = CARTESIAN_POINT ( 'NONE',  ( 7.161283767618503937, 0.5999999999999999778, 2.805949770829505585 ) ) ;
#588 = CARTESIAN_POINT ( 'NONE',  ( 0.000000000000000000, 0.8049999999999999378, 2.399999999999999911 ) ) ;
#589 = CARTESIAN_POINT ( 'NONE',  ( 11.90378686857452273, 0.5999999999999999778, 5.000000000000000000 ) ) ;
#590 = EDGE_CURVE ( 'NONE', #186, #194, #423, .T. ) ;
#591 = VECTOR ( 'NONE', #702, 100.0000000000000000 ) ;
#592 = DIRECTION ( 'NONE',  ( 0.9731387067013572700, 0.000000000000000000, -0.2302195854387930340 ) ) ;
#593 = FILL_AREA_STYLE ('',( #46 ) ) ;
#594 = ORIENTED_EDGE ( 'NONE', *, *, #244, .F. ) ;
#595 = EDGE_CURVE ( 'NONE', #823, #850, #440, .T. ) ;
#596 = CARTESIAN_POINT ( 'NONE',  ( 16.80000000000000071, 1.199999999999999956, 5.000000000000000000 ) ) ;
#597 =( NAMED_UNIT ( * ) SI_UNIT ( $, .STERADIAN. ) SOLID_ANGLE_UNIT ( ) );
#598 = DIRECTION ( 'NONE',  ( -0.9731387067013573811, 0.000000000000000000, 0.2302195854387924789 ) ) ;
#599 = CARTESIAN_POINT ( 'NONE',  ( 0.000000000000000000, 0.000000000000000000, 0.000000000000000000 ) ) ;
#600 = EDGE_CURVE ( 'NONE', #568, #609, #230, .T. ) ;
#601 =( NAMED_UNIT ( * ) PLANE_ANGLE_UNIT ( ) SI_UNIT ( $, .RADIAN. ) );
#602 = CARTESIAN_POINT ( 'NONE',  ( 16.80000000000000782, 0.8049999999999999378, 4.999999999999989342 ) ) ;
#603 = VECTOR ( 'NONE', #96, 100.0000000000000000 ) ;
#604 = EDGE_LOOP ( 'NONE', ( #393, #26, #629, #642, #849, #371, #128, #212 ) ) ;
#605 = VECTOR ( 'NONE', #127, 100.0000000000000000 ) ;
#606 = MECHANICAL_DESIGN_GEOMETRIC_PRESENTATION_REPRESENTATION (  '', ( #187 ), #652 ) ;
#607 = CARTESIAN_POINT ( 'NONE',  ( 0.000000000000000000, 0.3950000000000000178, 5.000000000000000000 ) ) ;
#608 = CARTESIAN_POINT ( 'NONE',  ( 16.80000000000000071, 1.199999999999999956, 5.000000000000000000 ) ) ;
#609 = VERTEX_POINT ( 'NONE', #158 ) ;
#610 = EDGE_CURVE ( 'NONE', #405, #166, #22, .T. ) ;
#611 = DIRECTION ( 'NONE',  ( 0.000000000000000000, -1.000000000000000000, 0.000000000000000000 ) ) ;
#612 = LINE ( 'NONE', #211, #380 ) ;
#613 = ORIENTED_EDGE ( 'NONE', *, *, #600, .F. ) ;
#614 = EDGE_CURVE ( 'NONE', #62, #29, #559, .T. ) ;
#615 = CARTESIAN_POINT ( 'NONE',  ( 16.80000000000000071, 1.199999999999999956, -3.469446951953614189E-16 ) ) ;
#616 =( BOUNDED_CURVE ( )  B_SPLINE_CURVE ( 3, ( #143, #533, #473, #468 ),
 .UNSPECIFIED., .F., .T. ) 
 B_SPLINE_CURVE_WITH_KNOTS ( ( 4, 4 ),
 ( 3.141592653589793116, 6.283185307179586232 ),
 .UNSPECIFIED. ) 
 CURVE ( )  GEOMETRIC_REPRESENTATION_ITEM ( )  RATIONAL_B_SPLINE_CURVE ( ( 1.000000000000000000, 0.3333333333333333703, 0.3333333333333333703, 1.000000000000000000 ) ) 
 REPRESENTATION_ITEM ( '' )  );
#617 = EDGE_LOOP ( 'NONE', ( #714, #510, #88, #43 ) ) ;
#618 = VECTOR ( 'NONE', #745, 100.0000000000000000 ) ;
#619 = CARTESIAN_POINT ( 'NONE',  ( 17.05000000000000782, 0.8049999999999999378, 4.999999999999988454 ) ) ;
#620 = ORIENTED_EDGE ( 'NONE', *, *, #709, .T. ) ;
#621 = CARTESIAN_POINT ( 'NONE',  ( 16.80000000000000071, 0.000000000000000000, 5.000000000000000000 ) ) ;
#622 = EDGE_CURVE ( 'NONE', #455, #277, #767, .T. ) ;
#623 = CARTESIAN_POINT ( 'NONE',  ( 5.489596155165683555, 0.000000000000000000, 4.470517440337655302 ) ) ;
#624 = VERTEX_POINT ( 'NONE', #777 ) ;
#625 = VECTOR ( 'NONE', #27, 100.0000000000000000 ) ;
#626 = DIRECTION ( 'NONE',  ( 0.2302195854387930063, 0.000000000000000000, 0.9731387067013572700 ) ) ;
#627 = CARTESIAN_POINT ( 'NONE',  ( 16.80000000000000426, 0.8049999999999999378, 2.399999999999988809 ) ) ;
#628 = EDGE_LOOP ( 'NONE', ( #51, #563 ) ) ;
#629 = ORIENTED_EDGE ( 'NONE', *, *, #406, .F. ) ;
#630 = ORIENTED_EDGE ( 'NONE', *, *, #590, .T. ) ;
#631 = VECTOR ( 'NONE', #566, 100.0000000000000000 ) ;
#632 = CARTESIAN_POINT ( 'NONE',  ( 13.28088486092559073, 0.5999999999999999778, 3.002373951608412472 ) ) ;
#633 = DIRECTION ( 'NONE',  ( -0.7071067811865491270, -0.000000000000000000, -0.7071067811865460184 ) ) ;
#634 = CARTESIAN_POINT ( 'NONE',  ( 12.52034851170740737, 0.5999999999999999778, 5.000000000000000000 ) ) ;
#635 = EDGE_LOOP ( 'NONE', ( #401, #543, #169, #764 ) ) ;
#636 = ORIENTED_EDGE ( 'NONE', *, *, #676, .T. ) ;
#637 = AXIS2_PLACEMENT_3D ( 'NONE', #121, #729, #246 ) ;
#638 = DIRECTION ( 'NONE',  ( -0.7071067811865460184, 0.000000000000000000, 0.7071067811865491270 ) ) ;
#639 =( NAMED_UNIT ( * ) SI_UNIT ( $, .STERADIAN. ) SOLID_ANGLE_UNIT ( ) );
#640 = PLANE ( 'NONE',  #90 ) ;
#641 = ORIENTED_EDGE ( 'NONE', *, *, #139, .T. ) ;
#642 = ORIENTED_EDGE ( 'NONE', *, *, #116, .T. ) ;
#643 = ADVANCED_FACE ( 'NONE', ( #841 ), #167, .F. ) ;
#644 = LINE ( 'NONE', #840, #769 ) ;
#645 = DIRECTION ( 'NONE',  ( -0.9731387067013571590, 0.000000000000000000, 0.2302195854387936169 ) ) ;
#646 = CARTESIAN_POINT ( 'NONE',  ( 16.80000000000000071, 1.199999999999999956, -3.469446951953614189E-16 ) ) ;
#647 = VERTEX_POINT ( 'NONE', #697 ) ;
#648 = CARTESIAN_POINT ( 'NONE',  ( 13.57282647293600064, 0.5999999999999999778, 2.933308075976774454 ) ) ;
#649 = CARTESIAN_POINT ( 'NONE',  ( -0.2500000000000002220, 0.3950000000000000178, 2.649999999999999023 ) ) ;
#650 = CARTESIAN_POINT ( 'NONE',  ( 0.000000000000000000, 1.199999999999999956, 5.000000000000000000 ) ) ;
#651 = EDGE_LOOP ( 'NONE', ( #327, #799, #692, #636 ) ) ;
#652 =( GEOMETRIC_REPRESENTATION_CONTEXT ( 3 ) GLOBAL_UNCERTAINTY_ASSIGNED_CONTEXT ( ( #448 ) ) GLOBAL_UNIT_ASSIGNED_CONTEXT ( ( #686, #258, #399 ) ) REPRESENTATION_CONTEXT ( 'NONE', 'WORKASPACE' ) );
#653 = CARTESIAN_POINT ( 'NONE',  ( 14.22013289083422549, 0.5999999999999999778, 5.669473763845419789 ) ) ;
#654 = CARTESIAN_POINT ( 'NONE',  ( 12.11311841288396352, 0.5999999999999999778, 3.278637454134964102 ) ) ;
#655 = LINE ( 'NONE', #650, #564 ) ;
#656 = EDGE_CURVE ( 'NONE', #838, #526, #363, .T. ) ;
#657 = VERTEX_POINT ( 'NONE', #408 ) ;
#658 = VECTOR ( 'NONE', #384, 100.0000000000000000 ) ;
#659 = LINE ( 'NONE', #368, #58 ) ;
#660 = FACE_OUTER_BOUND ( 'NONE', #430, .T. ) ;
#661 = EDGE_CURVE ( 'NONE', #857, #708, #694, .T. ) ;
#662 = EDGE_LOOP ( 'NONE', ( #844, #284 ) ) ;
#663 = VECTOR ( 'NONE', #106, 100.0000000000000142 ) ;
#664 = UNCERTAINTY_MEASURE_WITH_UNIT (LENGTH_MEASURE( 1.000000000000000082E-05 ), #441, 'distance_accuracy_value', 'NONE');
#665 = LINE ( 'NONE', #734, #658 ) ;
#666 = LINE ( 'NONE', #588, #289 ) ;
#667 = ORIENTED_EDGE ( 'NONE', *, *, #315, .T. ) ;
#668 = LINE ( 'NONE', #599, #295 ) ;
#669 = CARTESIAN_POINT ( 'NONE',  ( 5.343406718412051504, 1.199999999999999956, 3.852574361582292717 ) ) ;
#670 = ORIENTED_EDGE ( 'NONE', *, *, #80, .T. ) ;
#671 = EDGE_CURVE ( 'NONE', #568, #832, #372, .T. ) ;
#672 = DIRECTION ( 'NONE',  ( -1.000000000000000000, -0.000000000000000000, -2.065146995210482230E-17 ) ) ;
#673 = CARTESIAN_POINT ( 'NONE',  ( 11.52923518886314902, 0.5999999999999999778, 3.416769205398240139 ) ) ;
#674 =( NAMED_UNIT ( * ) SI_UNIT ( $, .STERADIAN. ) SOLID_ANGLE_UNIT ( ) );
#675 = LINE ( 'NONE', #545, #148 ) ;
#676 = EDGE_CURVE ( 'NONE', #277, #365, #580, .T. ) ;
#677 = VECTOR ( 'NONE', #633, 100.0000000000000000 ) ;
#678 = DIRECTION ( 'NONE',  ( -0.9731387067013573811, 0.000000000000000000, 0.2302195854387924789 ) ) ;
#679 = VERTEX_POINT ( 'NONE', #596 ) ;
#680 = VECTOR ( 'NONE', #878, 100.0000000000000000 ) ;
#681 = CARTESIAN_POINT ( 'NONE',  ( 17.05000000000000426, 1.199999999999999956, 2.649999999999997247 ) ) ;
#682 = PRESENTATION_LAYER_ASSIGNMENT (  '', '', ( #187 ) ) ;
#683 = ADVANCED_FACE ( 'NONE', ( #434 ), #520, .T. ) ;
#684 = CARTESIAN_POINT ( 'NONE',  ( 5.489596155165683555, 1.199999999999999956, 4.470517440337655302 ) ) ;
#685 = ORIENTED_EDGE ( 'NONE', *, *, #487, .T. ) ;
#686 =( LENGTH_UNIT ( ) NAMED_UNIT ( * ) SI_UNIT ( .CENTI., .METRE. ) );
#687 = DIRECTION ( 'NONE',  ( 0.000000000000000000, -1.000000000000000000, 0.000000000000000000 ) ) ;
#688 = ORIENTED_EDGE ( 'NONE', *, *, #231, .F. ) ;
#689 = ADVANCED_FACE ( 'NONE', ( #125 ), #524, .F. ) ;
#690 = DIRECTION ( 'NONE',  ( -0.2302195854387930618, -0.000000000000000000, -0.9731387067013573811 ) ) ;
#691 = DIRECTION ( 'NONE',  ( -0.2302195854387930618, 0.000000000000000000, -0.9731387067013572700 ) ) ;
#692 = ORIENTED_EDGE ( 'NONE', *, *, #622, .T. ) ;
#693 = ADVANCED_FACE ( 'NONE', ( #791 ), #45, .T. ) ;
#694 = LINE ( 'NONE', #444, #331 ) ;
#695 = DIRECTION ( 'NONE',  ( 1.704540558354500032E-15, 0.000000000000000000, 1.000000000000000000 ) ) ;
#696 = ORIENTED_EDGE ( 'NONE', *, *, #804, .F. ) ;
#697 = CARTESIAN_POINT ( 'NONE',  ( 0.000000000000000000, 1.199999999999999956, 5.000000000000000000 ) ) ;
#698 = CARTESIAN_POINT ( 'NONE',  ( -0.2500000000000002220, 0.8049999999999999378, 5.000000000000000000 ) ) ;
#699 = EDGE_LOOP ( 'NONE', ( #770, #572, #292, #746 ) ) ;
#700 = CARTESIAN_POINT ( 'NONE',  ( 13.44519097640673699, 1.200000000000000178, 5.000000000000000000 ) ) ;
#701 = DIRECTION ( 'NONE',  ( 0.2302195854387930063, 0.000000000000000000, 0.9731387067013572700 ) ) ;
#702 = DIRECTION ( 'NONE',  ( 0.000000000000000000, -1.000000000000000000, 0.000000000000000000 ) ) ;
#703 = VERTEX_POINT ( 'NONE', #654 ) ;
#704 = CIRCLE ( 'NONE', #351, 0.3000000000000002109 ) ;
#705 = ORIENTED_EDGE ( 'NONE', *, *, #614, .F. ) ;
#706 =( LENGTH_UNIT ( ) NAMED_UNIT ( * ) SI_UNIT ( .CENTI., .METRE. ) );
#707 = DIRECTION ( 'NONE',  ( 0.000000000000000000, -1.000000000000000000, 0.000000000000000000 ) ) ;
#708 = VERTEX_POINT ( 'NONE', #178 ) ;
#709 = EDGE_CURVE ( 'NONE', #459, #233, #210, .T. ) ;
#710 = ORIENTED_EDGE ( 'NONE', *, *, #454, .F. ) ;
#711 = DIRECTION ( 'NONE',  ( 0.000000000000000000, -1.000000000000000000, 0.000000000000000000 ) ) ;
#712 = CARTESIAN_POINT ( 'NONE',  ( 7.161283767618503937, 0.5999999999999999778, 2.805949770829505585 ) ) ;
#713 = CARTESIAN_POINT ( 'NONE',  ( 0.000000000000000000, 1.199999999999999956, 2.399999999999999911 ) ) ;
#714 = ORIENTED_EDGE ( 'NONE', *, *, #15, .F. ) ;
#715 = AXIS2_PLACEMENT_3D ( 'NONE', #587, #728, #508 ) ;
#716 = LINE ( 'NONE', #294, #416 ) ;
#717 = CARTESIAN_POINT ( 'NONE',  ( 8.400000000000002132, 0.3950000000000000178, 2.500000000000000000 ) ) ;
#718 = LINE ( 'NONE', #567, #123 ) ;
#719 = VERTEX_POINT ( 'NONE', #317 ) ;
#720 = LINE ( 'NONE', #585, #800 ) ;
#721 = ADVANCED_FACE ( 'NONE', ( #41 ), #183, .F. ) ;
#722 = DIRECTION ( 'NONE',  ( 0.000000000000000000, -1.000000000000000000, 0.000000000000000000 ) ) ;
#723 = CARTESIAN_POINT ( 'NONE',  ( 9.255424319351506668, 0.000000000000000000, 2.927091628118346112 ) ) ;
#724 = PLANE ( 'NONE',  #77 ) ;
#725 = DIRECTION ( 'NONE',  ( 0.000000000000000000, -1.000000000000000000, -0.000000000000000000 ) ) ;
#726 = UNCERTAINTY_MEASURE_WITH_UNIT (LENGTH_MEASURE( 1.000000000000000082E-05 ), #274, 'distance_accuracy_value', 'NONE');
#727 = COLOUR_RGB ( '',0.6941176470588235059, 0.09803921568627450844, 0.09803921568627450844 ) ;
#728 = DIRECTION ( 'NONE',  ( 0.2302195854387930618, 0.000000000000000000, 0.9731387067013572700 ) ) ;
#729 = DIRECTION ( 'NONE',  ( 0.2302195854387930618, 0.000000000000000000, 0.9731387067013572700 ) ) ;
#730 = ORIENTED_EDGE ( 'NONE', *, *, #742, .F. ) ;
#731 = DIRECTION ( 'NONE',  ( 0.000000000000000000, -1.000000000000000000, 0.000000000000000000 ) ) ;
#732 = PLANE ( 'NONE',  #445 ) ;
#733 = ORIENTED_EDGE ( 'NONE', *, *, #671, .F. ) ;
#734 = CARTESIAN_POINT ( 'NONE',  ( 0.000000000000000000, 1.199999999999999956, 0.000000000000000000 ) ) ;
#735 = CARTESIAN_POINT ( 'NONE',  ( -0.2500000000000002220, 0.3950000000000000178, 5.000000000000000000 ) ) ;
#736 = CARTESIAN_POINT ( 'NONE',  ( 13.28088486092559073, 0.5999999999999999778, 3.002373951608412472 ) ) ;
#737 = ADVANCED_FACE ( 'NONE', ( #453 ), #860, .T. ) ;
#738 = EDGE_LOOP ( 'NONE', ( #705, #436, #214, #310 ) ) ;
#739 = LINE ( 'NONE', #72, #307 ) ;
#740 = CARTESIAN_POINT ( 'NONE',  ( 7.161283767618503937, 0.5999999999999999778, 2.805949770829505585 ) ) ;
#741 = VECTOR ( 'NONE', #768, 100.0000000000000000 ) ;
#742 = EDGE_CURVE ( 'NONE', #161, #857, #659, .T. ) ;
#743 = LINE ( 'NONE', #681, #184 ) ;
#744 = AXIS2_PLACEMENT_3D ( 'NONE', #190, #114, #245 ) ;
#745 = DIRECTION ( 'NONE',  ( 0.000000000000000000, -1.000000000000000000, 0.000000000000000000 ) ) ;
#746 = ORIENTED_EDGE ( 'NONE', *, *, #839, .F. ) ;
#747 = ADVANCED_FACE ( 'NONE', ( #867 ), #449, .T. ) ;
#748 = MECHANICAL_DESIGN_GEOMETRIC_PRESENTATION_REPRESENTATION (  '', ( #470 ), #251 ) ;
#749 = DIRECTION ( 'NONE',  ( 1.032573497605242347E-16, 0.000000000000000000, 1.000000000000000000 ) ) ;
#750 = ORIENTED_EDGE ( 'NONE', *, *, #237, .F. ) ;
#751 = FILL_AREA_STYLE_COLOUR ( '', #259 ) ;
#752 = DIRECTION ( 'NONE',  ( 1.032573497605242347E-16, 0.000000000000000000, 1.000000000000000000 ) ) ;
#753 = EDGE_LOOP ( 'NONE', ( #775, #3, #362, #6 ) ) ;
#754 = ADVANCED_FACE ( 'NONE', ( #188 ), #111, .F. ) ;
#755 = CARTESIAN_POINT ( 'NONE',  ( 13.28088486092559073, 0.5999999999999999778, 3.002373951608412472 ) ) ;
#756 = DIRECTION ( 'NONE',  ( 1.032573497605242347E-16, 0.000000000000000000, 1.000000000000000000 ) ) ;
#757 = ORIENTED_EDGE ( 'NONE', *, *, #237, .T. ) ;
#758 = VERTEX_POINT ( 'NONE', #649 ) ;
#759 = EDGE_CURVE ( 'NONE', #361, #405, #665, .T. ) ;
#760 = STYLED_ITEM ( 'NONE', ( #403 ), #518 ) ;
#761 = CARTESIAN_POINT ( 'NONE',  ( 0.000000000000000000, 0.8049999999999999378, 5.000000000000000000 ) ) ;
#762 = FACE_OUTER_BOUND ( 'NONE', #16, .T. ) ;
#763 = ORIENTED_EDGE ( 'NONE', *, *, #766, .F. ) ;
#764 = ORIENTED_EDGE ( 'NONE', *, *, #595, .F. ) ;
#765 = CARTESIAN_POINT ( 'NONE',  ( 0.000000000000000000, 0.000000000000000000, 5.000000000000000000 ) ) ;
#766 = EDGE_CURVE ( 'NONE', #884, #405, #668, .T. ) ;
#767 = LINE ( 'NONE', #413, #631 ) ;
#768 = DIRECTION ( 'NONE',  ( 4.305037197708010146E-16, 0.000000000000000000, -1.000000000000000000 ) ) ;
#769 = VECTOR ( 'NONE', #579, 100.0000000000000142 ) ;
#770 = ORIENTED_EDGE ( 'NONE', *, *, #460, .F. ) ;
#771 = DIRECTION ( 'NONE',  ( -0.9731387067013573811, 0.000000000000000000, 0.2302195854387930340 ) ) ;
#772 = DIRECTION ( 'NONE',  ( -1.000000000000000000, 0.000000000000000000, 1.032573497605242347E-16 ) ) ;
#773 = ADVANCED_FACE ( 'NONE', ( #439 ), #503, .T. ) ;
#774 = LINE ( 'NONE', #623, #234 ) ;
#775 = ORIENTED_EDGE ( 'NONE', *, *, #813, .F. ) ;
#776 = DIRECTION ( 'NONE',  ( 0.000000000000000000, 0.000000000000000000, -1.000000000000000000 ) ) ;
#777 = CARTESIAN_POINT ( 'NONE',  ( 17.05000000000000782, 0.3950000000000000178, 4.999999999999988454 ) ) ;
#778 = EDGE_CURVE ( 'NONE', #204, #850, #306, .T. ) ;
#779 = CARTESIAN_POINT ( 'NONE',  ( 0.000000000000000000, 1.199999999999999956, 0.000000000000000000 ) ) ;
#780 = ORIENTED_EDGE ( 'NONE', *, *, #519, .T. ) ;
#781 = FACE_OUTER_BOUND ( 'NONE', #874, .T. ) ;
#782 = CARTESIAN_POINT ( 'NONE',  ( 8.400000000000002132, 0.000000000000000000, 2.500000000000000000 ) ) ;
#783 = LINE ( 'NONE', #174, #48 ) ;
#784 = ORIENTED_EDGE ( 'NONE', *, *, #853, .F. ) ;
#785 = ADVANCED_FACE ( 'NONE', ( #781 ), #21, .F. ) ;
#786 = CARTESIAN_POINT ( 'NONE',  ( 14.06175261953962163, 0.5999999999999999778, 5.000000000000000000 ) ) ;
#787 = CARTESIAN_POINT ( 'NONE',  ( 17.05000000000000782, 0.8049999999999999378, 4.999999999999988454 ) ) ;
#788 = CARTESIAN_POINT ( 'NONE',  ( 13.92819127882382091, 0.5999999999999999778, 5.738539639477058252 ) ) ;
#789 = EDGE_CURVE ( 'NONE', #466, #609, #287, .T. ) ;
#790 = CIRCLE ( 'NONE', #865, 0.3000000000000002109 ) ;
#791 = FACE_OUTER_BOUND ( 'NONE', #501, .T. ) ;
#792 = LINE ( 'NONE', #112, #205 ) ;
#793 = EDGE_LOOP ( 'NONE', ( #141, #209, #160, #335 ) ) ;
#794 = AXIS2_PLACEMENT_3D ( 'NONE', #540, #701, #278 ) ;
#795 = VECTOR ( 'NONE', #52, 100.0000000000000000 ) ;
#796 = DIRECTION ( 'NONE',  ( -1.000000000000000000, -0.000000000000000000, -4.305037197708010146E-16 ) ) ;
#797 =( BOUNDED_CURVE ( )  B_SPLINE_CURVE ( 3, ( #216, #482, #163, #834 ),
 .UNSPECIFIED., .F., .T. ) 
 B_SPLINE_CURVE_WITH_KNOTS ( ( 4, 4 ),
 ( 3.141592653589793116, 6.283185307179586232 ),
 .UNSPECIFIED. ) 
 CURVE ( )  GEOMETRIC_REPRESENTATION_ITEM ( )  RATIONAL_B_SPLINE_CURVE ( ( 1.000000000000000000, 0.3333333333333333703, 0.3333333333333333703, 1.000000000000000000 ) ) 
 REPRESENTATION_ITEM ( '' )  );
#798 = PLANE ( 'NONE',  #398 ) ;
#799 = ORIENTED_EDGE ( 'NONE', *, *, #487, .F. ) ;
#800 = VECTOR ( 'NONE', #488, 100.0000000000000000 ) ;
#801 = DIRECTION ( 'NONE',  ( 4.305037197708010146E-16, 0.000000000000000000, -1.000000000000000000 ) ) ;
#802 = ORIENTED_EDGE ( 'NONE', *, *, #825, .F. ) ;
#803 = DIRECTION ( 'NONE',  ( -0.9731387067013573811, 0.000000000000000000, 0.2302195854387924789 ) ) ;
#804 = EDGE_CURVE ( 'NONE', #387, #410, #716, .T. ) ;
#805 = VERTEX_POINT ( 'NONE', #565 ) ;
#806 = VECTOR ( 'NONE', #749, 100.0000000000000000 ) ;
#807 = CIRCLE ( 'NONE', #64, 0.3000000000000001554 ) ;
#808 = DIRECTION ( 'NONE',  ( -0.9731387067013577141, 0.000000000000000000, 0.2302195854387912022 ) ) ;
#809 = ORIENTED_EDGE ( 'NONE', *, *, #505, .T. ) ;
#810 = MECHANICAL_DESIGN_GEOMETRIC_PRESENTATION_REPRESENTATION (  '', ( #760 ), #286 ) ;
#811 = CARTESIAN_POINT ( 'NONE',  ( 9.745821117609423823, 1.199999999999999956, 5.000000000000001776 ) ) ;
#812 = PLANE ( 'NONE',  #394 ) ;
#813 = EDGE_CURVE ( 'NONE', #219, #204, #303, .T. ) ;
#814 = AXIS2_PLACEMENT_3D ( 'NONE', #872, #375, #308 ) ;
#815 = SURFACE_SIDE_STYLE ('',( #142 ) ) ;
#816 = LINE ( 'NONE', #198, #806 ) ;
#817 = ORIENTED_EDGE ( 'NONE', *, *, #825, .T. ) ;
#818 = VECTOR ( 'NONE', #571, 100.0000000000000000 ) ;
#819 = SURFACE_STYLE_USAGE ( .BOTH. , #536 ) ;
#820 = CARTESIAN_POINT ( 'NONE',  ( 13.92819127882382091, 0.5999999999999999778, 5.738539639477058252 ) ) ;
#821 = ORIENTED_EDGE ( 'NONE', *, *, #879, .T. ) ;
#822 = DIRECTION ( 'NONE',  ( -0.9731387067013573811, 0.000000000000000000, 0.2302195854387930340 ) ) ;
#823 = VERTEX_POINT ( 'NONE', #172 ) ;
#824 = FACE_OUTER_BOUND ( 'NONE', #469, .T. ) ;
#825 = EDGE_CURVE ( 'NONE', #647, #186, #104, .T. ) ;
#826 = DIRECTION ( 'NONE',  ( 0.9731387067013572700, 0.000000000000000000, -0.2302195854387930618 ) ) ;
#827 = ORIENTED_EDGE ( 'NONE', *, *, #383, .F. ) ;
#828 = EDGE_LOOP ( 'NONE', ( #199, #311, #763, #474, #117, #827, #415, #802 ) ) ;
#829 = CARTESIAN_POINT ( 'NONE',  ( 9.255424319351506668, 1.199999999999999956, 2.927091628118346112 ) ) ;
#830 = DIRECTION ( 'NONE',  ( 0.2302195854387930618, 0.000000000000000000, 0.9731387067013572700 ) ) ;
#831 = AXIS2_PLACEMENT_3D ( 'NONE', #712, #81, #100 ) ;
#832 = VERTEX_POINT ( 'NONE', #229 ) ;
#833 = AXIS2_PLACEMENT_3D ( 'NONE', #270, #461, #672 ) ;
#834 = CARTESIAN_POINT ( 'NONE',  ( 11.90378686857452273, 0.5999999999999999778, 5.000000000000000000 ) ) ;
#835 = LINE ( 'NONE', #297, #318 ) ;
#836 = ORIENTED_EDGE ( 'NONE', *, *, #265, .T. ) ;
#837 = CIRCLE ( 'NONE', #637, 0.3000000000000002109 ) ;
#838 = VERTEX_POINT ( 'NONE', #109 ) ;
#839 = EDGE_CURVE ( 'NONE', #83, #624, #89, .T. ) ;
#840 = CARTESIAN_POINT ( 'NONE',  ( 5.614858108619092292, 0.000000000000000000, 5.000000000000001776 ) ) ;
#841 = FACE_OUTER_BOUND ( 'NONE', #491, .T. ) ;
#842 = DIRECTION ( 'NONE',  ( 0.000000000000000000, -1.000000000000000000, 0.000000000000000000 ) ) ;
#843 = ORIENTED_EDGE ( 'NONE', *, *, #391, .F. ) ;
#844 = ORIENTED_EDGE ( 'NONE', *, *, #583, .T. ) ;
#845 = CARTESIAN_POINT ( 'NONE',  ( 14.06175261953962341, 1.200000000000000178, 5.000000000000000000 ) ) ;
#846 = ADVANCED_FACE ( 'NONE', ( #99 ), #851, .T. ) ;
#847 = DIRECTION ( 'NONE',  ( -0.9731387067013573811, 0.000000000000000000, 0.2302195854387924789 ) ) ;
#848 = DIRECTION ( 'NONE',  ( 0.000000000000000000, -1.000000000000000000, 0.000000000000000000 ) ) ;
#849 = ORIENTED_EDGE ( 'NONE', *, *, #451, .T. ) ;
#850 = VERTEX_POINT ( 'NONE', #648 ) ;
#851 = PLANE ( 'NONE',  #264 ) ;
#852 = CARTESIAN_POINT ( 'NONE',  ( 0.000000000000000000, 0.3950000000000000178, 5.000000000000000000 ) ) ;
#853 = EDGE_CURVE ( 'NONE', #708, #277, #644, .T. ) ;
#854 = ORIENTED_EDGE ( 'NONE', *, *, #19, .T. ) ;
#855 = DIRECTION ( 'NONE',  ( 1.000000000000000000, 0.000000000000000000, -1.032573497605242347E-16 ) ) ;
#856 = CARTESIAN_POINT ( 'NONE',  ( 8.400000000000002132, 1.199999999999999956, 2.500000000000000000 ) ) ;
#857 = VERTEX_POINT ( 'NONE', #220 ) ;
#858 = DIRECTION ( 'NONE',  ( -0.2302195854387912022, -0.000000000000000000, -0.9731387067013577141 ) ) ;
#859 = ORIENTED_EDGE ( 'NONE', *, *, #419, .F. ) ;
#860 = PLANE ( 'NONE',  #814 ) ;
#861 = CARTESIAN_POINT ( 'NONE',  ( 16.80000000000000071, 1.199999999999999956, 5.000000000000000000 ) ) ;
#862 = CARTESIAN_POINT ( 'NONE',  ( 11.90378686857452450, 1.200000000000000178, 5.000000000000000000 ) ) ;
#863 = AXIS2_PLACEMENT_3D ( 'NONE', #684, #691, #826 ) ;
#864 = EDGE_CURVE ( 'NONE', #239, #703, #240, .T. ) ;
#865 = AXIS2_PLACEMENT_3D ( 'NONE', #418, #626, #645 ) ;
#866 = CARTESIAN_POINT ( 'NONE',  ( 0.08400000000000001910, 0.006000000000000000125, 0.02499999999999999792 ) ) ;
#867 = FACE_OUTER_BOUND ( 'NONE', #479, .T. ) ;
#868 = CARTESIAN_POINT ( 'NONE',  ( 16.80000000000000071, 1.199999999999999956, -3.469446951953614189E-16 ) ) ;
#869 = EDGE_LOOP ( 'NONE', ( #71, #500, #358, #235 ) ) ;
#870 = PRESENTATION_LAYER_ASSIGNMENT (  '', '', ( #470 ) ) ;
#871 = EDGE_CURVE ( 'NONE', #161, #647, #31, .T. ) ;
#872 = CARTESIAN_POINT ( 'NONE',  ( 7.161283767618503937, 0.5999999999999999778, 2.805949770829505585 ) ) ;
#873 = DIRECTION ( 'NONE',  ( 1.000000000000000000, 0.000000000000000000, 0.000000000000000000 ) ) ;
#874 = EDGE_LOOP ( 'NONE', ( #316, #181, #350, #613 ) ) ;
#875 = DIRECTION ( 'NONE',  ( 1.000000000000000000, 0.000000000000000000, -1.032573497605242347E-16 ) ) ;
#876 = ORIENTED_EDGE ( 'NONE', *, *, #505, .F. ) ;
#877 = VECTOR ( 'NONE', #288, 100.0000000000000000 ) ;
#878 = DIRECTION ( 'NONE',  ( -1.000000000000000000, 0.000000000000000000, 1.032573497605242347E-16 ) ) ;
#879 = EDGE_CURVE ( 'NONE', #624, #838, #720, .T. ) ;
#880 = CYLINDRICAL_SURFACE ( 'NONE', #305, 0.3000000000000002109 ) ;
#881 = VECTOR ( 'NONE', #76, 100.0000000000000000 ) ;
#882 = CYLINDRICAL_SURFACE ( 'NONE', #485, 0.3000000000000002109 ) ;
#883 = FACE_OUTER_BOUND ( 'NONE', #584, .T. ) ;
#884 = VERTEX_POINT ( 'NONE', #765 ) ;
#885 = ADVANCED_FACE ( 'NONE', ( #352 ), #156, .T. ) ;
#886 = VECTOR ( 'NONE', #574, 100.0000000000000000 ) ;
ENDSEC;
END-ISO-10303-21;
