ISO-10303-21;
HEADER;
FILE_DESCRIPTION (( 'STEP AP214' ),
    '1' );
FILE_NAME ('ramp-wall-middle_61.STEP',
    '2026-06-19T13:49:47',
    ( '' ),
    ( '' ),
    'SwSTEP 2.0',
    'SolidWorks 2023',
    '' );
FILE_SCHEMA (( 'AUTOMOTIVE_DESIGN' ));
ENDSEC;

DATA;
#1 = ORIENTED_EDGE ( 'NONE', *, *, #3, .T. ) ;
#2 = FILL_AREA_STYLE ('',( #68 ) ) ;
#3 = EDGE_CURVE ( 'NONE', #26, #374, #556, .T. ) ;
#4 = VERTEX_POINT ( 'NONE', #6 ) ;
#5 = DIRECTION ( 'NONE',  ( 0.000000000000000000, -1.000000000000000000, 0.000000000000000000 ) ) ;
#6 = CARTESIAN_POINT ( 'NONE',  ( 3.251472181705016506, 1.199999999999999956, 5.000000000000000000 ) ) ;
#7 = DIRECTION ( 'NONE',  ( 0.9731387067013572700, 0.000000000000000000, -0.2302195854387930340 ) ) ;
#8 = CIRCLE ( 'NONE', #242, 0.3050000000000002154 ) ;
#9 = AXIS2_PLACEMENT_3D ( 'NONE', #476, #604, #65 ) ;
#10 = DIRECTION ( 'NONE',  ( 0.000000000000000000, -1.000000000000000000, 0.000000000000000000 ) ) ;
#11 = PLANE ( 'NONE',  #405 ) ;
#12 = EDGE_CURVE ( 'NONE', #380, #732, #699, .T. ) ;
#13 = DIRECTION ( 'NONE',  ( 0.2302195854387930618, 0.000000000000000000, 0.9731387067013572700 ) ) ;
#14 = CARTESIAN_POINT ( 'NONE',  ( 0.000000000000000000, 0.000000000000000000, 0.000000000000000000 ) ) ;
#15 = EDGE_CURVE ( 'NONE', #421, #335, #337, .T. ) ;
#16 = CARTESIAN_POINT ( 'NONE',  ( 14.06689063323239530, 0.5999999999999999778, 5.000000000000000000 ) ) ;
#17 = LINE ( 'NONE', #340, #274 ) ;
#18 = EDGE_CURVE ( 'NONE', #380, #111, #609, .T. ) ;
#19 = CIRCLE ( 'NONE', #110, 0.3050000000000002154 ) ;
#20 = ORIENTED_EDGE ( 'NONE', *, *, #674, .F. ) ;
#21 = DIRECTION ( 'NONE',  ( 0.000000000000000000, -1.000000000000000000, 0.000000000000000000 ) ) ;
#22 = EDGE_LOOP ( 'NONE', ( #64, #602, #133, #423 ) ) ;
#23 = DIRECTION ( 'NONE',  ( -0.2302195854387930618, 0.000000000000000000, -0.9731387067013572700 ) ) ;
#24 = EDGE_CURVE ( 'NONE', #221, #714, #141, .T. ) ;
#25 = FACE_OUTER_BOUND ( 'NONE', #488, .T. ) ;
#26 = VERTEX_POINT ( 'NONE', #837 ) ;
#27 = CARTESIAN_POINT ( 'NONE',  ( 9.255424319351506668, 0.000000000000000000, 2.927091628118346112 ) ) ;
#28 = LINE ( 'NONE', #555, #529 ) ;
#29 = ORIENTED_EDGE ( 'NONE', *, *, #705, .F. ) ;
#30 = PRESENTATION_STYLE_ASSIGNMENT (( #504 ) ) ;
#31 = AXIS2_PLACEMENT_3D ( 'NONE', #643, #36, #570 ) ;
#32 = VECTOR ( 'NONE', #271, 100.0000000000000142 ) ;
#33 = ORIENTED_EDGE ( 'NONE', *, *, #163, .T. ) ;
#34 = FACE_OUTER_BOUND ( 'NONE', #747, .T. ) ;
#35 = AXIS2_PLACEMENT_3D ( 'NONE', #360, #635, #295 ) ;
#36 = DIRECTION ( 'NONE',  ( 0.2302195854387930340, 0.000000000000000000, 0.9731387067013573811 ) ) ;
#37 = EDGE_CURVE ( 'NONE', #318, #427, #207, .T. ) ;
#38 = LINE ( 'NONE', #565, #386 ) ;
#39 = DIRECTION ( 'NONE',  ( -1.000000000000000000, -0.000000000000000000, -2.065146995210483770E-17 ) ) ;
#40 = ORIENTED_EDGE ( 'NONE', *, *, #155, .T. ) ;
#41 = SURFACE_SIDE_STYLE ('',( #98 ) ) ;
#42 = ORIENTED_EDGE ( 'NONE', *, *, #466, .T. ) ;
#43 = CARTESIAN_POINT ( 'NONE',  ( 0.000000000000000000, 1.199999999999999956, 0.000000000000000000 ) ) ;
#44 = DIRECTION ( 'NONE',  ( 0.000000000000000000, -1.000000000000000000, 0.000000000000000000 ) ) ;
#45 = EDGE_CURVE ( 'NONE', #135, #401, #685, .T. ) ;
#46 = DIRECTION ( 'NONE',  ( -1.000000000000000000, 0.000000000000000000, 1.032573497605242347E-16 ) ) ;
#47 = VERTEX_POINT ( 'NONE', #472 ) ;
#48 = FACE_OUTER_BOUND ( 'NONE', #587, .T. ) ;
#49 = DIRECTION ( 'NONE',  ( -1.170779488823174499E-15, -0.000000000000000000, -1.000000000000000000 ) ) ;
#50 = PLANE ( 'NONE',  #31 ) ;
#51 = FACE_OUTER_BOUND ( 'NONE', #774, .T. ) ;
#52 = ORIENTED_EDGE ( 'NONE', *, *, #243, .T. ) ;
#53 = LINE ( 'NONE', #107, #275 ) ;
#54 = ADVANCED_FACE ( 'NONE', ( #344 ), #403, .F. ) ;
#55 = ORIENTED_EDGE ( 'NONE', *, *, #309, .T. ) ;
#56 = AXIS2_PLACEMENT_3D ( 'NONE', #874, #752, #519 ) ;
#57 = AXIS2_PLACEMENT_3D ( 'NONE', #521, #880, #62 ) ;
#58 = FACE_OUTER_BOUND ( 'NONE', #220, .T. ) ;
#59 = CARTESIAN_POINT ( 'NONE',  ( 7.458091073162417928, 0.5999999999999999778, 2.735732797270673533 ) ) ;
#60 = EDGE_LOOP ( 'NONE', ( #727, #416 ) ) ;
#61 = DIRECTION ( 'NONE',  ( -0.9731387067013573811, 0.000000000000000000, 0.2302195854387928398 ) ) ;
#62 = DIRECTION ( 'NONE',  ( -0.9731387067013573811, 0.000000000000000000, 0.2302195854387928398 ) ) ;
#63 = ORIENTED_EDGE ( 'NONE', *, *, #452, .F. ) ;
#64 = ORIENTED_EDGE ( 'NONE', *, *, #24, .T. ) ;
#65 = DIRECTION ( 'NONE',  ( -0.9731387067013573811, 0.000000000000000000, 0.2302195854387928398 ) ) ;
#66 = ORIENTED_EDGE ( 'NONE', *, *, #630, .T. ) ;
#67 = VERTEX_POINT ( 'NONE', #276 ) ;
#68 = FILL_AREA_STYLE_COLOUR ( '', #843 ) ;
#69 = ADVANCED_FACE ( 'NONE', ( #756 ), #825, .T. ) ;
#70 = VECTOR ( 'NONE', #438, 100.0000000000000000 ) ;
#71 = ORIENTED_EDGE ( 'NONE', *, *, #414, .F. ) ;
#72 = LINE ( 'NONE', #607, #172 ) ;
#73 = DIRECTION ( 'NONE',  ( 4.305037197708010146E-16, 0.000000000000000000, -1.000000000000000000 ) ) ;
#74 = ORIENTED_EDGE ( 'NONE', *, *, #482, .T. ) ;
#75 = EDGE_CURVE ( 'NONE', #800, #667, #302, .T. ) ;
#76 = ORIENTED_EDGE ( 'NONE', *, *, #37, .T. ) ;
#77 = CARTESIAN_POINT ( 'NONE',  ( 5.489596155165683555, 1.199999999999999956, 4.470517440337655302 ) ) ;
#78 = DIRECTION ( 'NONE',  ( 0.000000000000000000, -1.000000000000000000, -0.000000000000000000 ) ) ;
#79 = CARTESIAN_POINT ( 'NONE',  ( 12.17167591322786890, 0.5999999999999999778, 6.154085991194079064 ) ) ;
#80 = ADVANCED_FACE ( 'NONE', ( #209 ), #85, .T. ) ;
#81 = LINE ( 'NONE', #475, #541 ) ;
#82 =( NAMED_UNIT ( * ) SI_UNIT ( $, .STERADIAN. ) SOLID_ANGLE_UNIT ( ) );
#83 = VECTOR ( 'NONE', #102, 100.0000000000000142 ) ;
#84 = AXIS2_PLACEMENT_3D ( 'NONE', #697, #91, #494 ) ;
#85 = PLANE ( 'NONE',  #363 ) ;
#86 = ADVANCED_FACE ( 'NONE', ( #549 ), #478, .F. ) ;
#87 = PLANE ( 'NONE',  #418 ) ;
#88 = CARTESIAN_POINT ( 'NONE',  ( 16.80000000000000071, 0.000000000000000000, -3.469446951953614189E-16 ) ) ;
#89 = FILL_AREA_STYLE_COLOUR ( '', #527 ) ;
#90 = MANIFOLD_SOLID_BREP ( 'Cut-Extrude6', #700 ) ;
#91 = DIRECTION ( 'NONE',  ( 0.2302195854387930063, 0.000000000000000000, 0.9731387067013572700 ) ) ;
#92 = CARTESIAN_POINT ( 'NONE',  ( 17.05000000000000782, 0.8049999999999999378, 4.999999999999988454 ) ) ;
#93 = PLANE ( 'NONE',  #642 ) ;
#94 = CARTESIAN_POINT ( 'NONE',  ( 0.000000000000000000, 1.199999999999999956, 2.399999999999999911 ) ) ;
#95 = EDGE_CURVE ( 'NONE', #352, #111, #715, .T. ) ;
#96 = ORIENTED_EDGE ( 'NONE', *, *, #113, .T. ) ;
#97 = MECHANICAL_DESIGN_GEOMETRIC_PRESENTATION_REPRESENTATION (  '', ( #810 ), #585 ) ;
#98 = SURFACE_STYLE_FILL_AREA ( #777 ) ;
#99 = AXIS2_PLACEMENT_3D ( 'NONE', #228, #647, #493 ) ;
#100 = LINE ( 'NONE', #165, #365 ) ;
#101 = ORIENTED_EDGE ( 'NONE', *, *, #563, .T. ) ;
#102 = DIRECTION ( 'NONE',  ( 0.2302195854387916185, 0.000000000000000000, 0.9731387067013576031 ) ) ;
#103 = CARTESIAN_POINT ( 'NONE',  ( 16.80000000000000071, 1.199999999999999956, 5.000000000000000000 ) ) ;
#104 = ADVANCED_FACE ( 'NONE', ( #48 ), #109, .F. ) ;
#105 = VERTEX_POINT ( 'NONE', #645 ) ;
#106 = DIRECTION ( 'NONE',  ( 0.000000000000000000, -1.000000000000000000, 0.000000000000000000 ) ) ;
#107 = CARTESIAN_POINT ( 'NONE',  ( -0.2500000000000002220, 0.8049999999999999378, 5.000000000000000000 ) ) ;
#108 = VERTEX_POINT ( 'NONE', #559 ) ;
#109 = PLANE ( 'NONE',  #509 ) ;
#110 = AXIS2_PLACEMENT_3D ( 'NONE', #562, #840, #311 ) ;
#111 = VERTEX_POINT ( 'NONE', #511 ) ;
#112 = CYLINDRICAL_SURFACE ( 'NONE', #884, 0.3050000000000000488 ) ;
#113 = EDGE_CURVE ( 'NONE', #127, #255, #176, .T. ) ;
#114 = FACE_OUTER_BOUND ( 'NONE', #115, .T. ) ;
#115 = EDGE_LOOP ( 'NONE', ( #446, #590, #664, #266, #631, #881, #464, #506 ) ) ;
#116 = CARTESIAN_POINT ( 'NONE',  ( 16.80000000000000782, 0.8049999999999999378, 4.999999999999989342 ) ) ;
#117 = DIRECTION ( 'NONE',  ( 0.000000000000000000, 1.000000000000000000, -0.000000000000000000 ) ) ;
#118 = ORIENTED_EDGE ( 'NONE', *, *, #182, .F. ) ;
#119 = CARTESIAN_POINT ( 'NONE',  ( 12.52548652540018104, 1.210000000000000187, 5.000000000000000000 ) ) ;
#120 = CARTESIAN_POINT ( 'NONE',  ( 0.000000000000000000, 1.199999999999999956, 5.000000000000000000 ) ) ;
#121 = EDGE_LOOP ( 'NONE', ( #789, #534, #269, #162, #168, #1, #320, #178 ) ) ;
#122 = VECTOR ( 'NONE', #449, 100.0000000000000142 ) ;
#123 = DIRECTION ( 'NONE',  ( 4.305037197708010146E-16, 0.000000000000000000, -1.000000000000000000 ) ) ;
#124 = ORIENTED_EDGE ( 'NONE', *, *, #346, .F. ) ;
#125 = LINE ( 'NONE', #322, #701 ) ;
#126 = LINE ( 'NONE', #253, #812 ) ;
#127 = VERTEX_POINT ( 'NONE', #633 ) ;
#128 = EDGE_CURVE ( 'NONE', #584, #510, #166, .T. ) ;
#129 = SURFACE_STYLE_FILL_AREA ( #2 ) ;
#130 = EDGE_LOOP ( 'NONE', ( #356, #451 ) ) ;
#131 = VECTOR ( 'NONE', #828, 100.0000000000000142 ) ;
#132 = VECTOR ( 'NONE', #603, 100.0000000000000000 ) ;
#133 = ORIENTED_EDGE ( 'NONE', *, *, #748, .F. ) ;
#134 = VECTOR ( 'NONE', #799, 100.0000000000000000 ) ;
#135 = VERTEX_POINT ( 'NONE', #181 ) ;
#136 = PLANE ( 'NONE',  #456 ) ;
#137 = CARTESIAN_POINT ( 'NONE',  ( 17.05000000000000782, 0.8049999999999999378, 4.999999999999988454 ) ) ;
#138 = EDGE_LOOP ( 'NONE', ( #721, #568, #606, #558 ) ) ;
#139 = DIRECTION ( 'NONE',  ( 0.000000000000000000, 1.000000000000000000, 0.000000000000000000 ) ) ;
#140 = SHAPE_DEFINITION_REPRESENTATION ( #345, #535 ) ;
#141 = LINE ( 'NONE', #822, #762 ) ;
#142 = DIRECTION ( 'NONE',  ( -0.2302195854387926732, 0.000000000000000000, -0.9731387067013573811 ) ) ;
#143 = CARTESIAN_POINT ( 'NONE',  ( 14.06689063323239708, 1.209999999999999076, 5.000000000000000000 ) ) ;
#144 = AXIS2_PLACEMENT_3D ( 'NONE', #826, #413, #513 ) ;
#145 = AXIS2_PLACEMENT_3D ( 'NONE', #323, #803, #170 ) ;
#146 = VECTOR ( 'NONE', #694, 100.0000000000000000 ) ;
#147 = ORIENTED_EDGE ( 'NONE', *, *, #474, .F. ) ;
#148 =( LENGTH_UNIT ( ) NAMED_UNIT ( * ) SI_UNIT ( .CENTI., .METRE. ) );
#149 = CARTESIAN_POINT ( 'NONE',  ( 0.000000000000000000, 0.3950000000000000178, 5.000000000000000000 ) ) ;
#150 = FILL_AREA_STYLE ('',( #89 ) ) ;
#151 = ADVANCED_FACE ( 'NONE', ( #237 ), #50, .T. ) ;
#152 = CARTESIAN_POINT ( 'NONE',  ( 16.80000000000000071, 1.199999999999999956, -3.469446951953614189E-16 ) ) ;
#153 = EDGE_LOOP ( 'NONE', ( #461, #796, #74, #751 ) ) ;
#154 = CARTESIAN_POINT ( 'NONE',  ( 0.000000000000000000, 0.000000000000000000, 0.000000000000000000 ) ) ;
#155 = EDGE_CURVE ( 'NONE', #552, #251, #444, .T. ) ;
#156 = CARTESIAN_POINT ( 'NONE',  ( 7.458091073162417928, 0.5999999999999999778, 2.735732797270673533 ) ) ;
#157 =( GEOMETRIC_REPRESENTATION_CONTEXT ( 3 ) GLOBAL_UNCERTAINTY_ASSIGNED_CONTEXT ( ( #259 ) ) GLOBAL_UNIT_ASSIGNED_CONTEXT ( ( #148, #543, #210 ) ) REPRESENTATION_CONTEXT ( 'NONE', 'WORKASPACE' ) );
#158 = VECTOR ( 'NONE', #864, 100.0000000000000142 ) ;
#159 = ORIENTED_EDGE ( 'NONE', *, *, #855, .F. ) ;
#160 = CARTESIAN_POINT ( 'NONE',  ( 3.251472181705016506, 0.000000000000000000, 5.000000000000000000 ) ) ;
#161 = LINE ( 'NONE', #152, #146 ) ;
#162 = ORIENTED_EDGE ( 'NONE', *, *, #772, .F. ) ;
#163 = EDGE_CURVE ( 'NONE', #584, #105, #582, .T. ) ;
#164 = ORIENTED_EDGE ( 'NONE', *, *, #482, .F. ) ;
#165 = CARTESIAN_POINT ( 'NONE',  ( 5.343406718412051504, 1.199999999999999956, 3.852574361582292717 ) ) ;
#166 = LINE ( 'NONE', #430, #749 ) ;
#167 = CARTESIAN_POINT ( 'NONE',  ( 17.05000000000000782, 0.3950000000000000178, 4.999999999999988454 ) ) ;
#168 = ORIENTED_EDGE ( 'NONE', *, *, #270, .F. ) ;
#169 = CARTESIAN_POINT ( 'NONE',  ( 16.80000000000000071, 1.199999999999999956, 5.000000000000000000 ) ) ;
#170 = DIRECTION ( 'NONE',  ( 1.000000000000000000, 0.000000000000000000, 0.000000000000000000 ) ) ;
#171 = VECTOR ( 'NONE', #402, 100.0000000000000000 ) ;
#172 = VECTOR ( 'NONE', #5, 100.0000000000000000 ) ;
#173 = PRODUCT_DEFINITION_FORMATION_WITH_SPECIFIED_SOURCE ( 'ANY', '', #753, .NOT_KNOWN. ) ;
#174 = VERTEX_POINT ( 'NONE', #232 ) ;
#175 = DIRECTION ( 'NONE',  ( 0.000000000000000000, -1.000000000000000000, 0.000000000000000000 ) ) ;
#176 = LINE ( 'NONE', #786, #600 ) ;
#177 = LINE ( 'NONE', #719, #566 ) ;
#178 = ORIENTED_EDGE ( 'NONE', *, *, #474, .T. ) ;
#179 = EDGE_LOOP ( 'NONE', ( #486, #218 ) ) ;
#180 = LINE ( 'NONE', #27, #83 ) ;
#181 = CARTESIAN_POINT ( 'NONE',  ( 11.89864885488174906, 0.5999999999999999778, 5.000000000000000000 ) ) ;
#182 = EDGE_CURVE ( 'NONE', #667, #174, #867, .T. ) ;
#183 = LINE ( 'NONE', #501, #766 ) ;
#184 = PLANE ( 'NONE',  #471 ) ;
#185 = EDGE_LOOP ( 'NONE', ( #844, #677, #55, #76, #447, #592, #453, #189, #202 ) ) ;
#186 = CARTESIAN_POINT ( 'NONE',  ( 17.05000000000000426, 0.8049999999999999378, 2.649999999999997247 ) ) ;
#187 = DIRECTION ( 'NONE',  ( 0.000000000000000000, -1.000000000000000000, 0.000000000000000000 ) ) ;
#188 = UNCERTAINTY_MEASURE_WITH_UNIT (LENGTH_MEASURE( 1.000000000000000082E-05 ), #802, 'distance_accuracy_value', 'NONE');
#189 = ORIENTED_EDGE ( 'NONE', *, *, #286, .F. ) ;
#190 = CIRCLE ( 'NONE', #662, 0.3050000000000002154 ) ;
#191 = SURFACE_STYLE_USAGE ( .BOTH. , #525 ) ;
#192 = AXIS2_PLACEMENT_3D ( 'NONE', #306, #117, #787 ) ;
#193 = CARTESIAN_POINT ( 'NONE',  ( 0.000000000000000000, 0.8049999999999999378, 5.000000000000000000 ) ) ;
#194 = ORIENTED_EDGE ( 'NONE', *, *, #37, .F. ) ;
#195 = EDGE_CURVE ( 'NONE', #108, #282, #515, .T. ) ;
#196 = EDGE_LOOP ( 'NONE', ( #366, #682, #227, #742, #465, #839, #856, #503 ) ) ;
#197 = CARTESIAN_POINT ( 'NONE',  ( -0.2500000000000002220, 0.8049999999999999378, 5.000000000000000000 ) ) ;
#198 = CARTESIAN_POINT ( 'NONE',  ( 14.06689063323239530, 0.5999999999999999778, 5.000000000000000000 ) ) ;
#199 = VERTEX_POINT ( 'NONE', #197 ) ;
#200 = VERTEX_POINT ( 'NONE', #683 ) ;
#201 = CARTESIAN_POINT ( 'NONE',  ( 16.80000000000000071, 1.199999999999999956, 5.000000000000000000 ) ) ;
#202 = ORIENTED_EDGE ( 'NONE', *, *, #730, .F. ) ;
#203 = FACE_OUTER_BOUND ( 'NONE', #121, .T. ) ;
#204 = ADVANCED_FACE ( 'NONE', ( #462 ), #807, .T. ) ;
#205 = AXIS2_PLACEMENT_3D ( 'NONE', #467, #399, #459 ) ;
#206 = VECTOR ( 'NONE', #781, 100.0000000000000142 ) ;
#207 = LINE ( 'NONE', #88, #171 ) ;
#208 = LINE ( 'NONE', #14, #213 ) ;
#209 = FACE_OUTER_BOUND ( 'NONE', #491, .T. ) ;
#210 =( NAMED_UNIT ( * ) SI_UNIT ( $, .STERADIAN. ) SOLID_ANGLE_UNIT ( ) );
#211 = CARTESIAN_POINT ( 'NONE',  ( 13.44005296271396332, -0.009999999999998811923, 5.000000000000000000 ) ) ;
#212 = CARTESIAN_POINT ( 'NONE',  ( -0.2500000000000002220, 0.3950000000000000178, 5.000000000000000000 ) ) ;
#213 = VECTOR ( 'NONE', #406, 100.0000000000000000 ) ;
#214 =( GEOMETRIC_REPRESENTATION_CONTEXT ( 3 ) GLOBAL_UNCERTAINTY_ASSIGNED_CONTEXT ( ( #463 ) ) GLOBAL_UNIT_ASSIGNED_CONTEXT ( ( #761, #614, #82 ) ) REPRESENTATION_CONTEXT ( 'NONE', 'WORKASPACE' ) );
#215 = DIRECTION ( 'NONE',  ( 1.000000000000000000, 0.000000000000000000, -1.032573497605242347E-16 ) ) ;
#216 = EDGE_CURVE ( 'NONE', #352, #67, #588, .T. ) ;
#217 = DIRECTION ( 'NONE',  ( -0.9731387067013570480, 0.000000000000000000, 0.2302195854387938945 ) ) ;
#218 = ORIENTED_EDGE ( 'NONE', *, *, #346, .T. ) ;
#219 = DIRECTION ( 'NONE',  ( -0.2302195854387930340, -0.000000000000000000, -0.9731387067013572700 ) ) ;
#220 = EDGE_LOOP ( 'NONE', ( #573, #29, #101, #124 ) ) ;
#221 = VERTEX_POINT ( 'NONE', #186 ) ;
#222 = LINE ( 'NONE', #370, #343 ) ;
#223 = EDGE_CURVE ( 'NONE', #595, #401, #190, .T. ) ;
#224 = PLANE ( 'NONE',  #846 ) ;
#225 = VECTOR ( 'NONE', #617, 100.0000000000000000 ) ;
#226 = VECTOR ( 'NONE', #39, 100.0000000000000000 ) ;
#227 = ORIENTED_EDGE ( 'NONE', *, *, #610, .T. ) ;
#228 = CARTESIAN_POINT ( 'NONE',  ( 8.400000000000002132, 0.3950000000000000178, 2.500000000000000000 ) ) ;
#229 = CARTESIAN_POINT ( 'NONE',  ( 0.000000000000000000, 1.199999999999999956, 5.000000000000000000 ) ) ;
#230 = ORIENTED_EDGE ( 'NONE', *, *, #293, .T. ) ;
#231 = CARTESIAN_POINT ( 'NONE',  ( 16.80000000000000782, 0.8049999999999999378, 4.999999999999989342 ) ) ;
#232 = CARTESIAN_POINT ( 'NONE',  ( 12.98407755538167940, 0.5999999999999999778, 3.072590925167244080 ) ) ;
#233 = FACE_OUTER_BOUND ( 'NONE', #138, .T. ) ;
#234 = ORIENTED_EDGE ( 'NONE', *, *, #95, .F. ) ;
#235 = EDGE_LOOP ( 'NONE', ( #877, #369 ) ) ;
#236 = DIRECTION ( 'NONE',  ( 1.032573497605242347E-16, 0.000000000000000000, 1.000000000000000000 ) ) ;
#237 = FACE_OUTER_BOUND ( 'NONE', #60, .T. ) ;
#238 = CARTESIAN_POINT ( 'NONE',  ( 0.000000000000000000, 0.000000000000000000, 5.000000000000000000 ) ) ;
#239 = DIRECTION ( 'NONE',  ( -0.7071067811865460184, 0.000000000000000000, 0.7071067811865491270 ) ) ;
#240 = ORIENTED_EDGE ( 'NONE', *, *, #216, .T. ) ;
#241 =( BOUNDED_CURVE ( )  B_SPLINE_CURVE ( 3, ( #537, #824, #143, #198 ),
 .UNSPECIFIED., .F., .F. ) 
 B_SPLINE_CURVE_WITH_KNOTS ( ( 4, 4 ),
 ( 0.000000000000000000, 3.141592653589793116 ),
 .UNSPECIFIED. ) 
 CURVE ( )  GEOMETRIC_REPRESENTATION_ITEM ( )  RATIONAL_B_SPLINE_CURVE ( ( 1.000000000000000000, 0.3333333333333333703, 0.3333333333333333703, 1.000000000000000000 ) ) 
 REPRESENTATION_ITEM ( '' )  );
#242 = AXIS2_PLACEMENT_3D ( 'NONE', #690, #473, #217 ) ;
#243 = EDGE_CURVE ( 'NONE', #108, #361, #878, .T. ) ;
#244 = CIRCLE ( 'NONE', #35, 0.3050000000000001044 ) ;
#245 = VERTEX_POINT ( 'NONE', #745 ) ;
#246 = LINE ( 'NONE', #442, #284 ) ;
#247 = CARTESIAN_POINT ( 'NONE',  ( 13.63138397327990603, 0.5999999999999999778, 5.808756613035889416 ) ) ;
#248 = DIRECTION ( 'NONE',  ( -1.000000000000000000, 0.000000000000000000, 1.032573497605242347E-16 ) ) ;
#249 = ORIENTED_EDGE ( 'NONE', *, *, #879, .F. ) ;
#250 = DIRECTION ( 'NONE',  ( 0.000000000000000000, 1.000000000000000000, -0.000000000000000000 ) ) ;
#251 = VERTEX_POINT ( 'NONE', #740 ) ;
#252 = CARTESIAN_POINT ( 'NONE',  ( 5.614858108619092292, 1.199999999999999956, 5.000000000000001776 ) ) ;
#253 = CARTESIAN_POINT ( 'NONE',  ( 16.80000000000000071, 1.199999999999999956, -3.469446951953614189E-16 ) ) ;
#254 = CARTESIAN_POINT ( 'NONE',  ( 9.255424319351506668, 1.199999999999999956, 2.927091628118346112 ) ) ;
#255 = VERTEX_POINT ( 'NONE', #388 ) ;
#256 = CARTESIAN_POINT ( 'NONE',  ( 11.82117680087355538, 0.5999999999999999778, 3.347703329766602121 ) ) ;
#257 = PLANE ( 'NONE',  #703 ) ;
#258 = EDGE_CURVE ( 'NONE', #817, #646, #439, .T. ) ;
#259 = UNCERTAINTY_MEASURE_WITH_UNIT (LENGTH_MEASURE( 1.000000000000000082E-05 ), #148, 'distance_accuracy_value', 'NONE');
#260 = AXIS2_PLACEMENT_3D ( 'NONE', #412, #339, #695 ) ;
#261 = ORIENTED_EDGE ( 'NONE', *, *, #182, .T. ) ;
#262 = MECHANICAL_DESIGN_GEOMETRIC_PRESENTATION_REPRESENTATION (  '', ( #397 ), #157 ) ;
#263 = AXIS2_PLACEMENT_3D ( 'NONE', #655, #848, #307 ) ;
#264 = FACE_OUTER_BOUND ( 'NONE', #739, .T. ) ;
#265 = ADVANCED_FACE ( 'NONE', ( #669, #267, #203 ), #814, .T. ) ;
#266 = ORIENTED_EDGE ( 'NONE', *, *, #379, .F. ) ;
#267 = FACE_BOUND ( 'NONE', #130, .T. ) ;
#268 = ORIENTED_EDGE ( 'NONE', *, *, #371, .F. ) ;
#269 = ORIENTED_EDGE ( 'NONE', *, *, #693, .F. ) ;
#270 = EDGE_CURVE ( 'NONE', #26, #538, #72, .T. ) ;
#271 = DIRECTION ( 'NONE',  ( 0.9731387067013572700, 0.000000000000000000, -0.2302195854387927287 ) ) ;
#272 = CARTESIAN_POINT ( 'NONE',  ( 16.80000000000000071, 0.000000000000000000, 5.000000000000000000 ) ) ;
#273 = SURFACE_STYLE_USAGE ( .BOTH. , #622 ) ;
#274 = VECTOR ( 'NONE', #7, 100.0000000000000142 ) ;
#275 = VECTOR ( 'NONE', #871, 100.0000000000000000 ) ;
#276 = CARTESIAN_POINT ( 'NONE',  ( 5.343406718412051504, 1.199999999999999956, 3.852574361582292717 ) ) ;
#277 = CARTESIAN_POINT ( 'NONE',  ( 7.299415518881779974, 0.5999999999999999778, 3.389832994850319636 ) ) ;
#278 = APPLICATION_PROTOCOL_DEFINITION ( 'draft international standard', 'automotive_design', 1998, #637 ) ;
#279 = DIRECTION ( 'NONE',  ( -0.9731387067013572700, 0.000000000000000000, 0.2302195854387930618 ) ) ;
#280 = CARTESIAN_POINT ( 'NONE',  ( 0.000000000000000000, 0.3950000000000000178, 5.000000000000000000 ) ) ;
#281 = EDGE_CURVE ( 'NONE', #105, #517, #125, .T. ) ;
#282 = VERTEX_POINT ( 'NONE', #326 ) ;
#283 = FACE_OUTER_BOUND ( 'NONE', #185, .T. ) ;
#284 = VECTOR ( 'NONE', #702, 100.0000000000000000 ) ;
#285 = DIRECTION ( 'NONE',  ( 1.000000000000000000, 0.000000000000000000, -1.032573497605242347E-16 ) ) ;
#286 = EDGE_CURVE ( 'NONE', #660, #510, #597, .T. ) ;
#287 = ORIENTED_EDGE ( 'NONE', *, *, #404, .T. ) ;
#288 = CARTESIAN_POINT ( 'NONE',  ( 12.52548652540018104, 0.5999999999999999778, 5.000000000000000000 ) ) ;
#289 = ADVANCED_FACE ( 'NONE', ( #316, #264 ), #136, .F. ) ;
#290 = CYLINDRICAL_SURFACE ( 'NONE', #737, 0.3050000000000000488 ) ;
#291 = ORIENTED_EDGE ( 'NONE', *, *, #332, .T. ) ;
#292 = DIRECTION ( 'NONE',  ( -0.7071067811865491270, -0.000000000000000000, -0.7071067811865460184 ) ) ;
#293 = EDGE_CURVE ( 'NONE', #4, #352, #17, .T. ) ;
#294 = CARTESIAN_POINT ( 'NONE',  ( -0.2500000000000002220, 0.3950000000000000178, 2.649999999999999023 ) ) ;
#295 = DIRECTION ( 'NONE',  ( -0.9731387067013573811, 0.000000000000000000, 0.2302195854387928398 ) ) ;
#296 = ORIENTED_EDGE ( 'NONE', *, *, #371, .T. ) ;
#297 = VECTOR ( 'NONE', #106, 100.0000000000000000 ) ;
#298 = ORIENTED_EDGE ( 'NONE', *, *, #95, .T. ) ;
#299 = LINE ( 'NONE', #231, #479 ) ;
#300 = DIRECTION ( 'NONE',  ( 1.000000000000000000, 0.000000000000000000, 0.000000000000000000 ) ) ;
#301 = CYLINDRICAL_SURFACE ( 'NONE', #57, 0.3050000000000001044 ) ;
#302 =( BOUNDED_CURVE ( )  B_SPLINE_CURVE ( 3, ( #16, #620, #211, #687 ),
 .UNSPECIFIED., .F., .F. ) 
 B_SPLINE_CURVE_WITH_KNOTS ( ( 4, 4 ),
 ( 3.141592653589793116, 6.283185307179586232 ),
 .UNSPECIFIED. ) 
 CURVE ( )  GEOMETRIC_REPRESENTATION_ITEM ( )  RATIONAL_B_SPLINE_CURVE ( ( 1.000000000000000000, 0.3333333333333333703, 0.3333333333333333703, 1.000000000000000000 ) ) 
 REPRESENTATION_ITEM ( '' )  );
#303 =( NAMED_UNIT ( * ) PLANE_ANGLE_UNIT ( ) SI_UNIT ( $, .RADIAN. ) );
#304 = ORIENTED_EDGE ( 'NONE', *, *, #414, .T. ) ;
#305 = LINE ( 'NONE', #576, #586 ) ;
#306 = CARTESIAN_POINT ( 'NONE',  ( 8.400000000000002132, 0.8049999999999999378, 2.500000000000000000 ) ) ;
#307 = DIRECTION ( 'NONE',  ( -0.9731387067013573811, 0.000000000000000000, 0.2302195854387930340 ) ) ;
#308 = EDGE_LOOP ( 'NONE', ( #358, #394, #291, #164 ) ) ;
#309 = EDGE_CURVE ( 'NONE', #732, #318, #208, .T. ) ;
#310 = VERTEX_POINT ( 'NONE', #550 ) ;
#311 = DIRECTION ( 'NONE',  ( -0.9731387067013570480, 0.000000000000000000, 0.2302195854387938945 ) ) ;
#312 = CARTESIAN_POINT ( 'NONE',  ( 5.614858108619092292, 0.000000000000000000, 5.000000000000001776 ) ) ;
#313 = ORIENTED_EDGE ( 'NONE', *, *, #776, .F. ) ;
#314 = EDGE_CURVE ( 'NONE', #530, #671, #81, .T. ) ;
#315 =( GEOMETRIC_REPRESENTATION_CONTEXT ( 3 ) GLOBAL_UNCERTAINTY_ASSIGNED_CONTEXT ( ( #523 ) ) GLOBAL_UNIT_ASSIGNED_CONTEXT ( ( #368, #303, #795 ) ) REPRESENTATION_CONTEXT ( 'NONE', 'WORKASPACE' ) );
#316 = FACE_BOUND ( 'NONE', #815, .T. ) ;
#317 = CARTESIAN_POINT ( 'NONE',  ( 12.46848321877178378, 0.5999999999999999778, 6.083869017635247900 ) ) ;
#318 = VERTEX_POINT ( 'NONE', #154 ) ;
#319 = FACE_OUTER_BOUND ( 'NONE', #179, .T. ) ;
#320 = ORIENTED_EDGE ( 'NONE', *, *, #765, .F. ) ;
#321 = EDGE_CURVE ( 'NONE', #361, #421, #829, .T. ) ;
#322 = CARTESIAN_POINT ( 'NONE',  ( 9.745821117609423823, 1.199999999999999956, 5.000000000000001776 ) ) ;
#323 = CARTESIAN_POINT ( 'NONE',  ( 16.80000000000000071, 1.199999999999999956, -3.469446951953614189E-16 ) ) ;
#324 = EDGE_LOOP ( 'NONE', ( #532, #66, #325, #468 ) ) ;
#325 = ORIENTED_EDGE ( 'NONE', *, *, #321, .T. ) ;
#326 = CARTESIAN_POINT ( 'NONE',  ( 0.000000000000000000, 0.8049999999999999378, 5.000000000000000000 ) ) ;
#327 = ADVANCED_FACE ( 'NONE', ( #283 ), #93, .T. ) ;
#328 = ORIENTED_EDGE ( 'NONE', *, *, #684, .F. ) ;
#329 = ORIENTED_EDGE ( 'NONE', *, *, #128, .F. ) ;
#330 = VECTOR ( 'NONE', #300, 100.0000000000000000 ) ;
#331 = DIRECTION ( 'NONE',  ( 0.000000000000000000, -1.000000000000000000, 0.000000000000000000 ) ) ;
#332 = EDGE_CURVE ( 'NONE', #245, #310, #820, .T. ) ;
#333 = ORIENTED_EDGE ( 'NONE', *, *, #3, .F. ) ;
#334 = DIRECTION ( 'NONE',  ( -0.2302195854387912022, -0.000000000000000000, -0.9731387067013577141 ) ) ;
#335 = VERTEX_POINT ( 'NONE', #212 ) ;
#336 = ADVANCED_FACE ( 'NONE', ( #613 ), #11, .F. ) ;
#337 = LINE ( 'NONE', #149, #640 ) ;
#338 = CARTESIAN_POINT ( 'NONE',  ( -0.2500000000000002220, 0.3950000000000000178, 5.000000000000000000 ) ) ;
#339 = DIRECTION ( 'NONE',  ( -0.9731387067013577141, 0.000000000000000000, 0.2302195854387912022 ) ) ;
#340 = CARTESIAN_POINT ( 'NONE',  ( 5.489596155165683555, 1.199999999999999956, 4.470517440337655302 ) ) ;
#341 = VECTOR ( 'NONE', #850, 100.0000000000000000 ) ;
#342 = CARTESIAN_POINT ( 'NONE',  ( 0.08400000000000001910, 0.006000000000000000125, 0.02499999999999999792 ) ) ;
#343 = VECTOR ( 'NONE', #717, 100.0000000000000142 ) ;
#344 = FACE_OUTER_BOUND ( 'NONE', #720, .T. ) ;
#345 = PRODUCT_DEFINITION_SHAPE ( 'NONE', 'NONE',  #443 ) ;
#346 = EDGE_CURVE ( 'NONE', #401, #595, #8, .T. ) ;
#347 = DIRECTION ( 'NONE',  ( 0.000000000000000000, -1.000000000000000000, 0.000000000000000000 ) ) ;
#348 = DIRECTION ( 'NONE',  ( -0.7071067811865489050, 0.000000000000000000, 0.7071067811865461294 ) ) ;
#349 = DIRECTION ( 'NONE',  ( 1.704540558354500032E-15, 0.000000000000000000, 1.000000000000000000 ) ) ;
#350 = FACE_OUTER_BOUND ( 'NONE', #196, .T. ) ;
#351 = VECTOR ( 'NONE', #331, 100.0000000000000000 ) ;
#352 = VERTEX_POINT ( 'NONE', #77 ) ;
#353 = ADVANCED_FACE ( 'NONE', ( #757 ), #87, .T. ) ;
#354 = CARTESIAN_POINT ( 'NONE',  ( 0.000000000000000000, 0.3950000000000000178, 5.000000000000000000 ) ) ;
#355 = CARTESIAN_POINT ( 'NONE',  ( 13.44005296271396332, 0.5999999999999999778, 5.000000000000000000 ) ) ;
#356 = ORIENTED_EDGE ( 'NONE', *, *, #705, .T. ) ;
#357 = ADVANCED_FACE ( 'NONE', ( #350 ), #547, .T. ) ;
#358 = ORIENTED_EDGE ( 'NONE', *, *, #598, .F. ) ;
#359 = DIRECTION ( 'NONE',  ( 0.7071067811865489050, 0.000000000000000000, -0.7071067811865461294 ) ) ;
#360 = CARTESIAN_POINT ( 'NONE',  ( 7.161283767618503937, 0.5999999999999999778, 2.805949770829505585 ) ) ;
#361 = VERTEX_POINT ( 'NONE', #797 ) ;
#362 = CARTESIAN_POINT ( 'NONE',  ( 9.255424319351506668, 0.000000000000000000, 2.927091628118346112 ) ) ;
#363 = AXIS2_PLACEMENT_3D ( 'NONE', #615, #13, #279 ) ;
#364 = FACE_OUTER_BOUND ( 'NONE', #22, .T. ) ;
#365 = VECTOR ( 'NONE', #175, 100.0000000000000000 ) ;
#366 = ORIENTED_EDGE ( 'NONE', *, *, #724, .F. ) ;
#367 = VECTOR ( 'NONE', #73, 100.0000000000000000 ) ;
#368 =( LENGTH_UNIT ( ) NAMED_UNIT ( * ) SI_UNIT ( .CENTI., .METRE. ) );
#369 = ORIENTED_EDGE ( 'NONE', *, *, #873, .T. ) ;
#370 = CARTESIAN_POINT ( 'NONE',  ( 6.864476462074589946, 0.5999999999999999778, 2.876166744388337637 ) ) ;
#371 = EDGE_CURVE ( 'NONE', #67, #660, #100, .T. ) ;
#372 = CARTESIAN_POINT ( 'NONE',  ( 6.864476462074589946, 0.5999999999999999778, 2.876166744388337637 ) ) ;
#373 = CARTESIAN_POINT ( 'NONE',  ( 8.400000000000002132, 0.3950000000000000178, 2.500000000000000000 ) ) ;
#374 = VERTEX_POINT ( 'NONE', #116 ) ;
#375 = ORIENTED_EDGE ( 'NONE', *, *, #384, .T. ) ;
#376 = CARTESIAN_POINT ( 'NONE',  ( 13.92819127882382091, 0.5999999999999999778, 5.738539639477058252 ) ) ;
#377 = APPLICATION_CONTEXT ( 'automotive_design' ) ;
#378 = DIRECTION ( 'NONE',  ( 0.9731387067013570480, 0.000000000000000000, -0.2302195854387938945 ) ) ;
#379 = EDGE_CURVE ( 'NONE', #421, #732, #246, .T. ) ;
#380 = VERTEX_POINT ( 'NONE', #160 ) ;
#381 = CARTESIAN_POINT ( 'NONE',  ( 11.89864885488174906, 0.5999999999999999778, 5.000000000000000000 ) ) ;
#382 = CARTESIAN_POINT ( 'NONE',  ( -0.2500000000000002220, 0.8049999999999999378, 5.000000000000000000 ) ) ;
#383 = ORIENTED_EDGE ( 'NONE', *, *, #563, .F. ) ;
#384 = EDGE_CURVE ( 'NONE', #530, #108, #722, .T. ) ;
#385 = VECTOR ( 'NONE', #334, 100.0000000000000142 ) ;
#386 = VECTOR ( 'NONE', #836, 100.0000000000000142 ) ;
#387 = ORIENTED_EDGE ( 'NONE', *, *, #216, .F. ) ;
#388 = CARTESIAN_POINT ( 'NONE',  ( 16.80000000000000426, 0.3950000000000000178, 2.399999999999998135 ) ) ;
#389 = DIRECTION ( 'NONE',  ( -1.000000000000000000, 0.000000000000000000, 1.032573497605242347E-16 ) ) ;
#390 = ADVANCED_FACE ( 'NONE', ( #34 ), #112, .F. ) ;
#391 = ORIENTED_EDGE ( 'NONE', *, *, #684, .T. ) ;
#392 = DIRECTION ( 'NONE',  ( 0.000000000000000000, -1.000000000000000000, 0.000000000000000000 ) ) ;
#393 = CARTESIAN_POINT ( 'NONE',  ( 12.52548652540018104, -0.01000000000000011297, 5.000000000000000000 ) ) ;
#394 = ORIENTED_EDGE ( 'NONE', *, *, #579, .T. ) ;
#395 = ORIENTED_EDGE ( 'NONE', *, *, #656, .F. ) ;
#396 = VERTEX_POINT ( 'NONE', #651 ) ;
#397 = STYLED_ITEM ( 'NONE', ( #696 ), #357 ) ;
#398 = VECTOR ( 'NONE', #746, 100.0000000000000000 ) ;
#399 = DIRECTION ( 'NONE',  ( -2.065146995210482230E-17, 0.000000000000000000, 1.000000000000000000 ) ) ;
#400 = EDGE_LOOP ( 'NONE', ( #441, #287, #861, #96 ) ) ;
#401 = VERTEX_POINT ( 'NONE', #507 ) ;
#402 = DIRECTION ( 'NONE',  ( 1.000000000000000000, 0.000000000000000000, 0.000000000000000000 ) ) ;
#403 = PLANE ( 'NONE',  #260 ) ;
#404 = EDGE_CURVE ( 'NONE', #714, #538, #499, .T. ) ;
#405 = AXIS2_PLACEMENT_3D ( 'NONE', #692, #480, #611 ) ;
#406 = DIRECTION ( 'NONE',  ( -1.032573497605242347E-16, 0.000000000000000000, -1.000000000000000000 ) ) ;
#407 = LINE ( 'NONE', #137, #398 ) ;
#408 = AXIS2_PLACEMENT_3D ( 'NONE', #317, #445, #875 ) ;
#409 = CARTESIAN_POINT ( 'NONE',  ( 16.80000000000000782, 0.8049999999999999378, 4.999999999999989342 ) ) ;
#410 = EDGE_CURVE ( 'NONE', #510, #517, #180, .T. ) ;
#411 = FACE_OUTER_BOUND ( 'NONE', #492, .T. ) ;
#412 = CARTESIAN_POINT ( 'NONE',  ( 5.614858108619092292, 1.199999999999999956, 5.000000000000001776 ) ) ;
#413 = DIRECTION ( 'NONE',  ( -2.065146995210482230E-17, 0.000000000000000000, 1.000000000000000000 ) ) ;
#414 = EDGE_CURVE ( 'NONE', #374, #561, #299, .T. ) ;
#415 = DIRECTION ( 'NONE',  ( -1.032573497605242347E-16, 0.000000000000000000, -1.000000000000000000 ) ) ;
#416 = ORIENTED_EDGE ( 'NONE', *, *, #681, .T. ) ;
#417 = DIRECTION ( 'NONE',  ( -0.9731387067013570480, 0.000000000000000000, 0.2302195854387938945 ) ) ;
#418 = AXIS2_PLACEMENT_3D ( 'NONE', #760, #768, #139 ) ;
#419 = DIRECTION ( 'NONE',  ( 0.2302195854387930063, 0.000000000000000000, 0.9731387067013572700 ) ) ;
#420 = CIRCLE ( 'NONE', #84, 0.3050000000000001044 ) ;
#421 = VERTEX_POINT ( 'NONE', #354 ) ;
#422 = DIRECTION ( 'NONE',  ( 0.9731387067013572700, 0.000000000000000000, -0.2302195854387930618 ) ) ;
#423 = ORIENTED_EDGE ( 'NONE', *, *, #434, .F. ) ;
#424 = CARTESIAN_POINT ( 'NONE',  ( 12.64999999999998437, 0.8049999999999999378, -1.750000000000001998 ) ) ;
#425 = CARTESIAN_POINT ( 'NONE',  ( 16.80000000000000071, 1.199999999999999956, 5.000000000000000000 ) ) ;
#426 = DIRECTION ( 'NONE',  ( 0.2302195854387930896, 0.000000000000000000, 0.9731387067013572700 ) ) ;
#427 = VERTEX_POINT ( 'NONE', #429 ) ;
#428 = ORIENTED_EDGE ( 'NONE', *, *, #798, .T. ) ;
#429 = CARTESIAN_POINT ( 'NONE',  ( 16.80000000000000071, 0.000000000000000000, -3.469446951953614189E-16 ) ) ;
#430 = CARTESIAN_POINT ( 'NONE',  ( 9.255424319351506668, 1.199999999999999956, 2.927091628118346112 ) ) ;
#431 = CARTESIAN_POINT ( 'NONE',  ( 8.400000000000002132, 0.8049999999999999378, 2.500000000000000000 ) ) ;
#432 = PLANE ( 'NONE',  #750 ) ;
#433 = ORIENTED_EDGE ( 'NONE', *, *, #765, .T. ) ;
#434 = EDGE_CURVE ( 'NONE', #221, #561, #857, .T. ) ;
#435 = ORIENTED_EDGE ( 'NONE', *, *, #293, .F. ) ;
#436 = CARTESIAN_POINT ( 'NONE',  ( 4.150000000000017231, 0.8049999999999999378, -1.750000000000000444 ) ) ;
#437 = MECHANICAL_DESIGN_GEOMETRIC_PRESENTATION_REPRESENTATION (  '', ( #599 ), #315 ) ;
#438 = DIRECTION ( 'NONE',  ( 0.000000000000000000, -1.000000000000000000, 0.000000000000000000 ) ) ;
#439 = CIRCLE ( 'NONE', #866, 0.3050000000000001044 ) ;
#440 = VECTOR ( 'NONE', #415, 100.0000000000000000 ) ;
#441 = ORIENTED_EDGE ( 'NONE', *, *, #710, .F. ) ;
#442 = CARTESIAN_POINT ( 'NONE',  ( 0.000000000000000000, 1.199999999999999956, 5.000000000000000000 ) ) ;
#443 = PRODUCT_DEFINITION ( 'UNKNOWN', '', #173, #673 ) ;
#444 = LINE ( 'NONE', #723, #330 ) ;
#445 = DIRECTION ( 'NONE',  ( -0.2302195854387930618, -0.000000000000000000, -0.9731387067013573811 ) ) ;
#446 = ORIENTED_EDGE ( 'NONE', *, *, #674, .T. ) ;
#447 = ORIENTED_EDGE ( 'NONE', *, *, #514, .T. ) ;
#448 = CARTESIAN_POINT ( 'NONE',  ( 11.89864885488174728, 1.210000000000000187, 5.000000000000000000 ) ) ;
#449 = DIRECTION ( 'NONE',  ( 0.2302195854387916185, 0.000000000000000000, 0.9731387067013576031 ) ) ;
#450 = DIRECTION ( 'NONE',  ( -0.2302195854387912022, -0.000000000000000000, -0.9731387067013577141 ) ) ;
#451 = ORIENTED_EDGE ( 'NONE', *, *, #520, .T. ) ;
#452 = EDGE_CURVE ( 'NONE', #310, #245, #19, .T. ) ;
#453 = ORIENTED_EDGE ( 'NONE', *, *, #410, .F. ) ;
#454 = CARTESIAN_POINT ( 'NONE',  ( 0.000000000000000000, 0.8049999999999999378, 2.399999999999999911 ) ) ;
#455 = CARTESIAN_POINT ( 'NONE',  ( 12.46848321877178378, 0.5999999999999999778, 6.083869017635247900 ) ) ;
#456 = AXIS2_PLACEMENT_3D ( 'NONE', #531, #142, #487 ) ;
#457 = VECTOR ( 'NONE', #661, 100.0000000000000142 ) ;
#458 = ORIENTED_EDGE ( 'NONE', *, *, #730, .T. ) ;
#459 = DIRECTION ( 'NONE',  ( -1.000000000000000000, -0.000000000000000000, -2.065146995210482230E-17 ) ) ;
#460 = PLANE ( 'NONE',  #145 ) ;
#461 = ORIENTED_EDGE ( 'NONE', *, *, #579, .F. ) ;
#462 = FACE_OUTER_BOUND ( 'NONE', #657, .T. ) ;
#463 = UNCERTAINTY_MEASURE_WITH_UNIT (LENGTH_MEASURE( 1.000000000000000082E-05 ), #761, 'distance_accuracy_value', 'NONE');
#464 = ORIENTED_EDGE ( 'NONE', *, *, #195, .T. ) ;
#465 = ORIENTED_EDGE ( 'NONE', *, *, #544, .T. ) ;
#466 = EDGE_CURVE ( 'NONE', #67, #584, #785, .T. ) ;
#467 = CARTESIAN_POINT ( 'NONE',  ( 16.80000000000000071, 1.199999999999999956, 5.000000000000000000 ) ) ;
#468 = ORIENTED_EDGE ( 'NONE', *, *, #15, .T. ) ;
#469 = ORIENTED_EDGE ( 'NONE', *, *, #748, .T. ) ;
#470 = PRESENTATION_LAYER_ASSIGNMENT (  '', '', ( #810 ) ) ;
#471 = AXIS2_PLACEMENT_3D ( 'NONE', #373, #250, #46 ) ;
#472 = CARTESIAN_POINT ( 'NONE',  ( 13.57769216646950383, 0.5999999999999999778, 2.932156978049580420 ) ) ;
#473 = DIRECTION ( 'NONE',  ( 0.2302195854387930063, 0.000000000000000000, 0.9731387067013572700 ) ) ;
#474 = EDGE_CURVE ( 'NONE', #849, #105, #626, .T. ) ;
#475 = CARTESIAN_POINT ( 'NONE',  ( -0.2500000000000002220, 1.199999999999999956, 2.649999999999999023 ) ) ;
#476 = CARTESIAN_POINT ( 'NONE',  ( 7.161283767618503937, 0.5999999999999999778, 2.805949770829505585 ) ) ;
#477 = ADVANCED_FACE ( 'NONE', ( #25 ), #290, .F. ) ;
#478 = PLANE ( 'NONE',  #882 ) ;
#479 = VECTOR ( 'NONE', #49, 100.0000000000000000 ) ;
#480 = DIRECTION ( 'NONE',  ( 0.9731387067013577141, 0.000000000000000000, -0.2302195854387916463 ) ) ;
#481 = CARTESIAN_POINT ( 'NONE',  ( 8.400000000000002132, 1.199999999999999956, 2.500000000000000000 ) ) ;
#482 = EDGE_CURVE ( 'NONE', #817, #310, #222, .T. ) ;
#483 = DIRECTION ( 'NONE',  ( 0.000000000000000000, -1.000000000000000000, 0.000000000000000000 ) ) ;
#484 = DIRECTION ( 'NONE',  ( -0.9731387067013573811, 0.000000000000000000, 0.2302195854387928398 ) ) ;
#485 = ORIENTED_EDGE ( 'NONE', *, *, #410, .T. ) ;
#486 = ORIENTED_EDGE ( 'NONE', *, *, #223, .T. ) ;
#487 = DIRECTION ( 'NONE',  ( 0.9731387067013572700, 0.000000000000000000, -0.2302195854387926455 ) ) ;
#488 = EDGE_LOOP ( 'NONE', ( #704, #261, #395, #328 ) ) ;
#489 = FACE_OUTER_BOUND ( 'NONE', #400, .T. ) ;
#490 = CARTESIAN_POINT ( 'NONE',  ( 14.22499858436773224, 0.5999999999999999778, 5.668322665918227088 ) ) ;
#491 = EDGE_LOOP ( 'NONE', ( #605, #608 ) ) ;
#492 = EDGE_LOOP ( 'NONE', ( #159, #624, #71, #333 ) ) ;
#493 = DIRECTION ( 'NONE',  ( 1.000000000000000000, 0.000000000000000000, -1.032573497605242347E-16 ) ) ;
#494 = DIRECTION ( 'NONE',  ( -0.9731387067013573811, 0.000000000000000000, 0.2302195854387928398 ) ) ;
#495 = DIRECTION ( 'NONE',  ( 0.000000000000000000, -1.000000000000000000, 0.000000000000000000 ) ) ;
#496 = ORIENTED_EDGE ( 'NONE', *, *, #75, .F. ) ;
#497 = ADVANCED_FACE ( 'NONE', ( #489 ), #775, .T. ) ;
#498 = ORIENTED_EDGE ( 'NONE', *, *, #466, .F. ) ;
#499 = LINE ( 'NONE', #707, #341 ) ;
#500 = DIRECTION ( 'NONE',  ( -0.2302195854387930340, -0.000000000000000000, -0.9731387067013572700 ) ) ;
#501 = CARTESIAN_POINT ( 'NONE',  ( 16.80000000000000782, 0.3950000000000000178, 4.999999999999989342 ) ) ;
#502 = LINE ( 'NONE', #522, #457 ) ;
#503 = ORIENTED_EDGE ( 'NONE', *, *, #12, .F. ) ;
#504 = SURFACE_STYLE_USAGE ( .BOTH. , #41 ) ;
#505 = EDGE_CURVE ( 'NONE', #552, #318, #779, .T. ) ;
#506 = ORIENTED_EDGE ( 'NONE', *, *, #610, .F. ) ;
#507 = CARTESIAN_POINT ( 'NONE',  ( 11.52436949532964228, 0.5999999999999999778, 3.417920303325433729 ) ) ;
#508 = FACE_OUTER_BOUND ( 'NONE', #616, .T. ) ;
#509 = AXIS2_PLACEMENT_3D ( 'NONE', #862, #23, #422 ) ;
#510 = VERTEX_POINT ( 'NONE', #362 ) ;
#511 = CARTESIAN_POINT ( 'NONE',  ( 5.489596155165683555, 0.000000000000000000, 4.470517440337654413 ) ) ;
#512 = ORIENTED_EDGE ( 'NONE', *, *, #668, .T. ) ;
#513 = DIRECTION ( 'NONE',  ( -1.000000000000000000, -0.000000000000000000, -2.065146995210482230E-17 ) ) ;
#514 = EDGE_CURVE ( 'NONE', #427, #396, #305, .T. ) ;
#515 = LINE ( 'NONE', #678, #132 ) ;
#516 = CARTESIAN_POINT ( 'NONE',  ( 11.89864885488174906, 0.5999999999999999778, 5.000000000000000000 ) ) ;
#517 = VERTEX_POINT ( 'NONE', #790 ) ;
#518 = EDGE_LOOP ( 'NONE', ( #706, #778, #759, #485 ) ) ;
#519 = DIRECTION ( 'NONE',  ( 4.305037197708010146E-16, 0.000000000000000000, -1.000000000000000000 ) ) ;
#520 = EDGE_CURVE ( 'NONE', #135, #200, #858, .T. ) ;
#521 = CARTESIAN_POINT ( 'NONE',  ( 7.161283767618503937, 0.5999999999999999778, 2.805949770829505585 ) ) ;
#522 = CARTESIAN_POINT ( 'NONE',  ( 12.76529052431569866, 0.5999999999999999778, 6.013652044076414960 ) ) ;
#523 = UNCERTAINTY_MEASURE_WITH_UNIT (LENGTH_MEASURE( 1.000000000000000082E-05 ), #368, 'distance_accuracy_value', 'NONE');
#524 = ORIENTED_EDGE ( 'NONE', *, *, #630, .F. ) ;
#525 = SURFACE_SIDE_STYLE ('',( #129 ) ) ;
#526 = CARTESIAN_POINT ( 'NONE',  ( 0.000000000000000000, 1.199999999999999956, 0.000000000000000000 ) ) ;
#527 = COLOUR_RGB ( '',0.6941176470588235059, 0.09803921568627450844, 0.09803921568627450844 ) ;
#528 = CIRCLE ( 'NONE', #718, 0.3050000000000001044 ) ;
#529 = VECTOR ( 'NONE', #708, 100.0000000000000000 ) ;
#530 = VERTEX_POINT ( 'NONE', #658 ) ;
#531 = CARTESIAN_POINT ( 'NONE',  ( 5.343406718412051504, 1.199999999999999956, 3.852574361582292717 ) ) ;
#532 = ORIENTED_EDGE ( 'NONE', *, *, #879, .T. ) ;
#533 = ADVANCED_FACE ( 'NONE', ( #853 ), #184, .F. ) ;
#534 = ORIENTED_EDGE ( 'NONE', *, *, #619, .F. ) ;
#535 = ADVANCED_BREP_SHAPE_REPRESENTATION ( 'ramp-wall-middle_61', ( #90, #676 ), #214 ) ;
#536 = PRESENTATION_STYLE_ASSIGNMENT (( #191 ) ) ;
#537 = CARTESIAN_POINT ( 'NONE',  ( 13.44005296271396332, 0.5999999999999999778, 5.000000000000000000 ) ) ;
#538 = VERTEX_POINT ( 'NONE', #167 ) ;
#539 = DIRECTION ( 'NONE',  ( 0.2302195854387930618, 0.000000000000000000, 0.9731387067013572700 ) ) ;
#540 = CARTESIAN_POINT ( 'NONE',  ( 5.489596155165683555, 0.000000000000000000, 4.470517440337655302 ) ) ;
#541 = VECTOR ( 'NONE', #483, 100.0000000000000000 ) ;
#542 = AXIS2_PLACEMENT_3D ( 'NONE', #591, #239, #793 ) ;
#543 =( NAMED_UNIT ( * ) PLANE_ANGLE_UNIT ( ) SI_UNIT ( $, .RADIAN. ) );
#544 = EDGE_CURVE ( 'NONE', #199, #335, #53, .T. ) ;
#545 = PRODUCT_CONTEXT ( 'NONE', #377, 'mechanical' ) ;
#546 = DIRECTION ( 'NONE',  ( -1.000000000000000000, -0.000000000000000000, -2.065146995210483770E-17 ) ) ;
#547 = PLANE ( 'NONE',  #144 ) ;
#548 = ADVANCED_FACE ( 'NONE', ( #319 ), #567, .T. ) ;
#549 = FACE_OUTER_BOUND ( 'NONE', #636, .T. ) ;
#550 = CARTESIAN_POINT ( 'NONE',  ( 7.002608213337865983, 0.5999999999999999778, 3.460049968409152132 ) ) ;
#551 = LINE ( 'NONE', #490, #206 ) ;
#552 = VERTEX_POINT ( 'NONE', #578 ) ;
#553 = AXIS2_PLACEMENT_3D ( 'NONE', #277, #771, #417 ) ;
#554 = CARTESIAN_POINT ( 'NONE',  ( 8.400000000000002132, 0.000000000000000000, 2.500000000000000000 ) ) ;
#555 = CARTESIAN_POINT ( 'NONE',  ( 16.80000000000000071, 0.000000000000000000, 5.000000000000000000 ) ) ;
#556 = LINE ( 'NONE', #409, #865 ) ;
#557 = ADVANCED_FACE ( 'NONE', ( #364 ), #860, .F. ) ;
#558 = ORIENTED_EDGE ( 'NONE', *, *, #195, .F. ) ;
#559 = CARTESIAN_POINT ( 'NONE',  ( 0.000000000000000000, 0.8049999999999999378, 2.399999999999999911 ) ) ;
#560 = DIRECTION ( 'NONE',  ( 0.9731387067013576031, 0.000000000000000000, -0.2302195854387917573 ) ) ;
#561 = VERTEX_POINT ( 'NONE', #731 ) ;
#562 = CARTESIAN_POINT ( 'NONE',  ( 7.299415518881779974, 0.5999999999999999778, 3.389832994850319636 ) ) ;
#563 = EDGE_CURVE ( 'NONE', #200, #595, #502, .T. ) ;
#564 = VECTOR ( 'NONE', #292, 100.0000000000000000 ) ;
#565 = CARTESIAN_POINT ( 'NONE',  ( 4.150000000000017231, 0.3950000000000000178, -1.750000000000000444 ) ) ;
#566 = VECTOR ( 'NONE', #44, 100.0000000000000000 ) ;
#567 = PLANE ( 'NONE',  #263 ) ;
#568 = ORIENTED_EDGE ( 'NONE', *, *, #798, .F. ) ;
#569 = DIRECTION ( 'NONE',  ( -0.2302195854387930618, -0.000000000000000000, -0.9731387067013573811 ) ) ;
#570 = DIRECTION ( 'NONE',  ( -0.9731387067013573811, 0.000000000000000000, 0.2302195854387930340 ) ) ;
#571 = CARTESIAN_POINT ( 'NONE',  ( 12.64999999999998437, 0.3950000000000000178, -1.750000000000001998 ) ) ;
#572 = EDGE_CURVE ( 'NONE', #4, #744, #805, .T. ) ;
#573 = ORIENTED_EDGE ( 'NONE', *, *, #45, .F. ) ;
#574 = DIRECTION ( 'NONE',  ( 0.000000000000000000, -1.000000000000000000, 0.000000000000000000 ) ) ;
#575 = EDGE_LOOP ( 'NONE', ( #711, #654, #806, #870 ) ) ;
#576 = CARTESIAN_POINT ( 'NONE',  ( 16.80000000000000071, 0.000000000000000000, -3.469446951953614189E-16 ) ) ;
#577 = CARTESIAN_POINT ( 'NONE',  ( 14.06689063323239530, 0.5999999999999999778, 5.000000000000000000 ) ) ;
#578 = CARTESIAN_POINT ( 'NONE',  ( 0.000000000000000000, 1.199999999999999956, 0.000000000000000000 ) ) ;
#579 = EDGE_CURVE ( 'NONE', #646, #245, #876, .T. ) ;
#580 = ORIENTED_EDGE ( 'NONE', *, *, #681, .F. ) ;
#581 = DIRECTION ( 'NONE',  ( -1.000000000000000000, -0.000000000000000000, -2.065146995210483770E-17 ) ) ;
#582 = LINE ( 'NONE', #851, #122 ) ;
#583 = CARTESIAN_POINT ( 'NONE',  ( 16.80000000000000426, 0.8049999999999999378, 2.399999999999988809 ) ) ;
#584 = VERTEX_POINT ( 'NONE', #254 ) ;
#585 =( GEOMETRIC_REPRESENTATION_CONTEXT ( 3 ) GLOBAL_UNCERTAINTY_ASSIGNED_CONTEXT ( ( #188 ) ) GLOBAL_UNIT_ASSIGNED_CONTEXT ( ( #802, #665, #816 ) ) REPRESENTATION_CONTEXT ( 'NONE', 'WORKASPACE' ) );
#586 = VECTOR ( 'NONE', #236, 100.0000000000000000 ) ;
#587 = EDGE_LOOP ( 'NONE', ( #234, #435, #813, #854 ) ) ;
#588 = LINE ( 'NONE', #252, #385 ) ;
#589 = CARTESIAN_POINT ( 'NONE',  ( 17.05000000000000426, 0.3950000000000000178, 2.649999999999998579 ) ) ;
#590 = ORIENTED_EDGE ( 'NONE', *, *, #505, .T. ) ;
#591 = CARTESIAN_POINT ( 'NONE',  ( 16.80000000000000426, 1.199999999999999956, 2.399999999999998135 ) ) ;
#592 = ORIENTED_EDGE ( 'NONE', *, *, #619, .T. ) ;
#593 = DIRECTION ( 'NONE',  ( -0.9731387067013570480, 0.000000000000000000, 0.2302195854387938945 ) ) ;
#594 = LINE ( 'NONE', #382, #663 ) ;
#595 = VERTEX_POINT ( 'NONE', #709 ) ;
#596 = ORIENTED_EDGE ( 'NONE', *, *, #314, .T. ) ;
#597 = LINE ( 'NONE', #883, #32 ) ;
#598 = EDGE_CURVE ( 'NONE', #646, #817, #244, .T. ) ;
#599 = STYLED_ITEM ( 'NONE', ( #30 ), #90 ) ;
#600 = VECTOR ( 'NONE', #780, 100.0000000000000000 ) ;
#601 = VECTOR ( 'NONE', #248, 100.0000000000000000 ) ;
#602 = ORIENTED_EDGE ( 'NONE', *, *, #710, .T. ) ;
#603 = DIRECTION ( 'NONE',  ( 1.032573497605242347E-16, 0.000000000000000000, 1.000000000000000000 ) ) ;
#604 = DIRECTION ( 'NONE',  ( 0.2302195854387931173, 0.000000000000000000, 0.9731387067013573811 ) ) ;
#605 = ORIENTED_EDGE ( 'NONE', *, *, #258, .T. ) ;
#606 = ORIENTED_EDGE ( 'NONE', *, *, #811, .F. ) ;
#607 = CARTESIAN_POINT ( 'NONE',  ( 17.05000000000000782, 0.8049999999999999378, 4.999999999999988454 ) ) ;
#608 = ORIENTED_EDGE ( 'NONE', *, *, #598, .T. ) ;
#609 = LINE ( 'NONE', #540, #131 ) ;
#610 = EDGE_CURVE ( 'NONE', #744, #282, #726, .T. ) ;
#611 = DIRECTION ( 'NONE',  ( 0.2302195854387916185, 0.000000000000000000, 0.9731387067013576031 ) ) ;
#612 = ADVANCED_FACE ( 'NONE', ( #782 ), #432, .F. ) ;
#613 = FACE_OUTER_BOUND ( 'NONE', #518, .T. ) ;
#614 =( NAMED_UNIT ( * ) PLANE_ANGLE_UNIT ( ) SI_UNIT ( $, .RADIAN. ) );
#615 = CARTESIAN_POINT ( 'NONE',  ( 7.161283767618503937, 0.5999999999999999778, 2.805949770829505585 ) ) ;
#616 = EDGE_LOOP ( 'NONE', ( #628, #863, #784, #383 ) ) ;
#617 = DIRECTION ( 'NONE',  ( 1.032573497605242347E-16, 0.000000000000000000, 1.000000000000000000 ) ) ;
#618 = DIRECTION ( 'NONE',  ( 0.000000000000000000, -1.000000000000000000, 0.000000000000000000 ) ) ;
#619 = EDGE_CURVE ( 'NONE', #396, #517, #28, .T. ) ;
#620 = CARTESIAN_POINT ( 'NONE',  ( 14.06689063323239708, -0.009999999999998811923, 5.000000000000000000 ) ) ;
#621 = PRESENTATION_LAYER_ASSIGNMENT (  '', '', ( #599 ) ) ;
#622 = SURFACE_SIDE_STYLE ('',( #767 ) ) ;
#623 = LINE ( 'NONE', #571, #134 ) ;
#624 = ORIENTED_EDGE ( 'NONE', *, *, #434, .T. ) ;
#625 = CARTESIAN_POINT ( 'NONE',  ( 5.489596155165683555, 1.199999999999999956, 4.470517440337655302 ) ) ;
#626 = LINE ( 'NONE', #169, #689 ) ;
#627 = CARTESIAN_POINT ( 'NONE',  ( 0.000000000000000000, 1.199999999999999956, 0.000000000000000000 ) ) ;
#628 = ORIENTED_EDGE ( 'NONE', *, *, #520, .F. ) ;
#629 = FILL_AREA_STYLE_COLOUR ( '', #831 ) ;
#630 = EDGE_CURVE ( 'NONE', #671, #361, #38, .T. ) ;
#631 = ORIENTED_EDGE ( 'NONE', *, *, #321, .F. ) ;
#632 = DIRECTION ( 'NONE',  ( 0.9731387067013576031, 0.000000000000000000, -0.2302195854387917573 ) ) ;
#633 = CARTESIAN_POINT ( 'NONE',  ( 16.80000000000000782, 0.3950000000000000178, 4.999999999999989342 ) ) ;
#634 = DIRECTION ( 'NONE',  ( 0.7071067811865461294, 0.000000000000000000, 0.7071067811865489050 ) ) ;
#635 = DIRECTION ( 'NONE',  ( 0.2302195854387930618, 0.000000000000000000, 0.9731387067013572700 ) ) ;
#636 = EDGE_LOOP ( 'NONE', ( #698, #230, #240, #42, #33, #147, #313, #872, #20 ) ) ;
#637 = APPLICATION_CONTEXT ( 'automotive_design' ) ;
#638 = ORIENTED_EDGE ( 'NONE', *, *, #332, .F. ) ;
#639 = DIRECTION ( 'NONE',  ( -0.2302195854387930618, -0.000000000000000000, -0.9731387067013573811 ) ) ;
#640 = VECTOR ( 'NONE', #691, 100.0000000000000000 ) ;
#641 = ADVANCED_FACE ( 'NONE', ( #411 ), #224, .F. ) ;
#642 = AXIS2_PLACEMENT_3D ( 'NONE', #554, #823, #835 ) ;
#643 = CARTESIAN_POINT ( 'NONE',  ( 13.28088486092559073, 0.5999999999999999778, 3.002373951608412472 ) ) ;
#644 = VECTOR ( 'NONE', #653, 100.0000000000000000 ) ;
#645 = CARTESIAN_POINT ( 'NONE',  ( 9.745821117609423823, 1.199999999999999956, 5.000000000000001776 ) ) ;
#646 = VERTEX_POINT ( 'NONE', #156 ) ;
#647 = DIRECTION ( 'NONE',  ( 0.000000000000000000, -1.000000000000000000, 0.000000000000000000 ) ) ;
#648 = DIRECTION ( 'NONE',  ( 1.032573497605242347E-16, 0.000000000000000000, 1.000000000000000000 ) ) ;
#649 = ORIENTED_EDGE ( 'NONE', *, *, #505, .F. ) ;
#650 = ORIENTED_EDGE ( 'NONE', *, *, #776, .T. ) ;
#651 = CARTESIAN_POINT ( 'NONE',  ( 16.80000000000000071, 0.000000000000000000, 5.000000000000000000 ) ) ;
#652 = DIRECTION ( 'NONE',  ( 0.000000000000000000, -1.000000000000000000, 0.000000000000000000 ) ) ;
#653 = DIRECTION ( 'NONE',  ( 0.000000000000000000, -1.000000000000000000, 0.000000000000000000 ) ) ;
#654 = ORIENTED_EDGE ( 'NONE', *, *, #855, .T. ) ;
#655 = CARTESIAN_POINT ( 'NONE',  ( 11.82117680087355538, 0.5999999999999999778, 3.347703329766602121 ) ) ;
#656 = EDGE_CURVE ( 'NONE', #47, #174, #528, .T. ) ;
#657 = EDGE_LOOP ( 'NONE', ( #596, #249, #764, #428 ) ) ;
#658 = CARTESIAN_POINT ( 'NONE',  ( -0.2500000000000002220, 0.8049999999999999378, 2.649999999999999023 ) ) ;
#659 = LINE ( 'NONE', #193, #601 ) ;
#660 = VERTEX_POINT ( 'NONE', #769 ) ;
#661 = DIRECTION ( 'NONE',  ( -0.2302195854387930340, -0.000000000000000000, -0.9731387067013572700 ) ) ;
#662 = AXIS2_PLACEMENT_3D ( 'NONE', #256, #672, #593 ) ;
#663 = VECTOR ( 'NONE', #123, 100.0000000000000000 ) ;
#664 = ORIENTED_EDGE ( 'NONE', *, *, #309, .F. ) ;
#665 =( NAMED_UNIT ( * ) PLANE_ANGLE_UNIT ( ) SI_UNIT ( $, .RADIAN. ) );
#666 = LINE ( 'NONE', #312, #868 ) ;
#667 = VERTEX_POINT ( 'NONE', #355 ) ;
#668 = EDGE_CURVE ( 'NONE', #251, #427, #161, .T. ) ;
#669 = FACE_BOUND ( 'NONE', #235, .T. ) ;
#670 = CARTESIAN_POINT ( 'NONE',  ( 11.89864885488174728, -0.01000000000000011297, 5.000000000000000000 ) ) ;
#671 = VERTEX_POINT ( 'NONE', #294 ) ;
#672 = DIRECTION ( 'NONE',  ( 0.2302195854387930063, 0.000000000000000000, 0.9731387067013572700 ) ) ;
#673 = PRODUCT_DEFINITION_CONTEXT ( 'detailed design', #637, 'design' ) ;
#674 = EDGE_CURVE ( 'NONE', #744, #552, #847, .T. ) ;
#675 = VECTOR ( 'NONE', #219, 100.0000000000000142 ) ;
#676 = AXIS2_PLACEMENT_3D ( 'NONE', #342, #78, #758 ) ;
#677 = ORIENTED_EDGE ( 'NONE', *, *, #12, .T. ) ;
#678 = CARTESIAN_POINT ( 'NONE',  ( 0.000000000000000000, 0.8049999999999999378, 5.000000000000000000 ) ) ;
#679 = LINE ( 'NONE', #338, #367 ) ;
#680 = EDGE_LOOP ( 'NONE', ( #783, #809, #794, #650, #433, #304, #469, #842 ) ) ;
#681 = EDGE_CURVE ( 'NONE', #174, #47, #420, .T. ) ;
#682 = ORIENTED_EDGE ( 'NONE', *, *, #572, .T. ) ;
#683 = CARTESIAN_POINT ( 'NONE',  ( 12.52548652540018104, 0.5999999999999999778, 5.000000000000000000 ) ) ;
#684 = EDGE_CURVE ( 'NONE', #800, #47, #551, .T. ) ;
#685 = LINE ( 'NONE', #79, #675 ) ;
#686 = FACE_OUTER_BOUND ( 'NONE', #153, .T. ) ;
#687 = CARTESIAN_POINT ( 'NONE',  ( 13.44005296271396332, 0.5999999999999999778, 5.000000000000000000 ) ) ;
#688 = VECTOR ( 'NONE', #574, 100.0000000000000000 ) ;
#689 = VECTOR ( 'NONE', #581, 100.0000000000000000 ) ;
#690 = CARTESIAN_POINT ( 'NONE',  ( 11.82117680087355538, 0.5999999999999999778, 3.347703329766602121 ) ) ;
#691 = DIRECTION ( 'NONE',  ( -1.000000000000000000, 0.000000000000000000, 1.032573497605242347E-16 ) ) ;
#692 = CARTESIAN_POINT ( 'NONE',  ( 9.255424319351506668, 1.199999999999999956, 2.927091628118346112 ) ) ;
#693 = EDGE_CURVE ( 'NONE', #127, #396, #830, .T. ) ;
#694 = DIRECTION ( 'NONE',  ( 0.000000000000000000, -1.000000000000000000, 0.000000000000000000 ) ) ;
#695 = DIRECTION ( 'NONE',  ( -0.2302195854387912022, -0.000000000000000000, -0.9731387067013577141 ) ) ;
#696 = PRESENTATION_STYLE_ASSIGNMENT (( #273 ) ) ;
#697 = CARTESIAN_POINT ( 'NONE',  ( 13.28088486092559073, 0.5999999999999999778, 3.002373951608412472 ) ) ;
#698 = ORIENTED_EDGE ( 'NONE', *, *, #572, .F. ) ;
#699 = LINE ( 'NONE', #272, #735 ) ;
#700 = CLOSED_SHELL ( 'NONE', ( #477, #838, #743, #265, #804, #357, #353, #738, #86, #327, #204, #788, #533, #69, #641, #497, #336, #289, #54, #841, #80, #827, #548, #390, #151, #104, #557, #612 ) ) ;
#701 = VECTOR ( 'NONE', #392, 100.0000000000000000 ) ;
#702 = DIRECTION ( 'NONE',  ( 0.000000000000000000, -1.000000000000000000, 0.000000000000000000 ) ) ;
#703 = AXIS2_PLACEMENT_3D ( 'NONE', #526, #389, #187 ) ;
#704 = ORIENTED_EDGE ( 'NONE', *, *, #873, .F. ) ;
#705 = EDGE_CURVE ( 'NONE', #200, #135, #734, .T. ) ;
#706 = ORIENTED_EDGE ( 'NONE', *, *, #281, .F. ) ;
#707 = CARTESIAN_POINT ( 'NONE',  ( 17.05000000000000782, 0.3950000000000000178, 4.999999999999988454 ) ) ;
#708 = DIRECTION ( 'NONE',  ( -1.000000000000000000, -0.000000000000000000, -2.065146995210483770E-17 ) ) ;
#709 = CARTESIAN_POINT ( 'NONE',  ( 12.11798410641747026, 0.5999999999999999778, 3.277486356207770513 ) ) ;
#710 = EDGE_CURVE ( 'NONE', #714, #255, #623, .T. ) ;
#711 = ORIENTED_EDGE ( 'NONE', *, *, #24, .F. ) ;
#712 = CARTESIAN_POINT ( 'NONE',  ( 13.92819127882382091, 0.5999999999999999778, 5.738539639477058252 ) ) ;
#713 = CARTESIAN_POINT ( 'NONE',  ( 13.28088486092559073, 0.5999999999999999778, 3.002373951608412472 ) ) ;
#714 = VERTEX_POINT ( 'NONE', #589 ) ;
#715 = LINE ( 'NONE', #625, #688 ) ;
#716 = ORIENTED_EDGE ( 'NONE', *, *, #286, .T. ) ;
#717 = DIRECTION ( 'NONE',  ( 0.2302195854387930896, 0.000000000000000000, 0.9731387067013572700 ) ) ;
#718 = AXIS2_PLACEMENT_3D ( 'NONE', #713, #419, #484 ) ;
#719 = CARTESIAN_POINT ( 'NONE',  ( 16.80000000000000071, 1.199999999999999956, 5.000000000000000000 ) ) ;
#720 = EDGE_LOOP ( 'NONE', ( #387, #298, #458, #268 ) ) ;
#721 = ORIENTED_EDGE ( 'NONE', *, *, #384, .F. ) ;
#722 = LINE ( 'NONE', #436, #773 ) ;
#723 = CARTESIAN_POINT ( 'NONE',  ( 16.80000000000000071, 1.199999999999999956, -3.469446951953614189E-16 ) ) ;
#724 = EDGE_CURVE ( 'NONE', #4, #380, #729, .T. ) ;
#725 = DIRECTION ( 'NONE',  ( -0.2302195854387930618, -0.000000000000000000, -0.9731387067013573811 ) ) ;
#726 = LINE ( 'NONE', #229, #821 ) ;
#727 = ORIENTED_EDGE ( 'NONE', *, *, #656, .T. ) ;
#728 = CARTESIAN_POINT ( 'NONE',  ( 12.52548652540018104, 0.5999999999999999778, 5.000000000000000000 ) ) ;
#729 = LINE ( 'NONE', #741, #644 ) ;
#730 = EDGE_CURVE ( 'NONE', #111, #660, #666, .T. ) ;
#731 = CARTESIAN_POINT ( 'NONE',  ( 16.80000000000000426, 0.8049999999999999378, 2.399999999999998135 ) ) ;
#732 = VERTEX_POINT ( 'NONE', #238 ) ;
#733 = CARTESIAN_POINT ( 'NONE',  ( 7.161283767618503937, 0.5999999999999999778, 2.805949770829505585 ) ) ;
#734 =( BOUNDED_CURVE ( )  B_SPLINE_CURVE ( 3, ( #288, #393, #670, #516 ),
 .UNSPECIFIED., .F., .F. ) 
 B_SPLINE_CURVE_WITH_KNOTS ( ( 4, 4 ),
 ( 3.141592653589793116, 6.283185307179586232 ),
 .UNSPECIFIED. ) 
 CURVE ( )  GEOMETRIC_REPRESENTATION_ITEM ( )  RATIONAL_B_SPLINE_CURVE ( ( 1.000000000000000000, 0.3333333333333333703, 0.3333333333333333703, 1.000000000000000000 ) ) 
 REPRESENTATION_ITEM ( '' )  );
#735 = VECTOR ( 'NONE', #546, 100.0000000000000000 ) ;
#736 = LINE ( 'NONE', #583, #70 ) ;
#737 = AXIS2_PLACEMENT_3D ( 'NONE', #712, #639, #560 ) ;
#738 = ADVANCED_FACE ( 'NONE', ( #51 ), #460, .T. ) ;
#739 = EDGE_LOOP ( 'NONE', ( #329, #498, #296, #716 ) ) ;
#740 = CARTESIAN_POINT ( 'NONE',  ( 16.80000000000000071, 1.199999999999999956, -3.469446951953614189E-16 ) ) ;
#741 = CARTESIAN_POINT ( 'NONE',  ( 3.251472181705016506, 1.199999999999999956, 5.000000000000000000 ) ) ;
#742 = ORIENTED_EDGE ( 'NONE', *, *, #811, .T. ) ;
#743 = ADVANCED_FACE ( 'NONE', ( #869 ), #301, .F. ) ;
#744 = VERTEX_POINT ( 'NONE', #120 ) ;
#745 = CARTESIAN_POINT ( 'NONE',  ( 7.596222824425693965, 0.5999999999999999778, 3.319616021291488472 ) ) ;
#746 = DIRECTION ( 'NONE',  ( 1.704540558354500032E-15, 0.000000000000000000, 1.000000000000000000 ) ) ;
#747 = EDGE_LOOP ( 'NONE', ( #118, #496, #391, #580 ) ) ;
#748 = EDGE_CURVE ( 'NONE', #561, #255, #736, .T. ) ;
#749 = VECTOR ( 'NONE', #652, 100.0000000000000000 ) ;
#750 = AXIS2_PLACEMENT_3D ( 'NONE', #94, #634, #348 ) ;
#751 = ORIENTED_EDGE ( 'NONE', *, *, #452, .T. ) ;
#752 = DIRECTION ( 'NONE',  ( -1.000000000000000000, -0.000000000000000000, -4.305037197708010146E-16 ) ) ;
#753 = PRODUCT ( 'ramp-wall-middle_61', 'ramp-wall-middle_61', '', ( #545 ) ) ;
#754 = APPLICATION_PROTOCOL_DEFINITION ( 'draft international standard', 'automotive_design', 1998, #377 ) ;
#755 = PRODUCT_RELATED_PRODUCT_CATEGORY ( 'part', '', ( #753 ) ) ;
#756 = FACE_OUTER_BOUND ( 'NONE', #575, .T. ) ;
#757 = FACE_OUTER_BOUND ( 'NONE', #680, .T. ) ;
#758 = DIRECTION ( 'NONE',  ( 1.000000000000000000, 0.000000000000000000, -1.032573497605242347E-16 ) ) ;
#759 = ORIENTED_EDGE ( 'NONE', *, *, #128, .T. ) ;
#760 = CARTESIAN_POINT ( 'NONE',  ( 16.80000000000000071, 1.199999999999999956, -3.469446951953614189E-16 ) ) ;
#761 =( LENGTH_UNIT ( ) NAMED_UNIT ( * ) SI_UNIT ( .CENTI., .METRE. ) );
#762 = VECTOR ( 'NONE', #10, 100.0000000000000000 ) ;
#763 = PRESENTATION_LAYER_ASSIGNMENT (  '', '', ( #397 ) ) ;
#764 = ORIENTED_EDGE ( 'NONE', *, *, #544, .F. ) ;
#765 = EDGE_CURVE ( 'NONE', #849, #374, #177, .T. ) ;
#766 = VECTOR ( 'NONE', #852, 100.0000000000000000 ) ;
#767 = SURFACE_STYLE_FILL_AREA ( #150 ) ;
#768 = DIRECTION ( 'NONE',  ( 1.000000000000000000, 0.000000000000000000, -1.032573497605242347E-16 ) ) ;
#769 = CARTESIAN_POINT ( 'NONE',  ( 5.343406718412051504, 0.000000000000000000, 3.852574361582292717 ) ) ;
#770 = DIRECTION ( 'NONE',  ( 1.000000000000000000, 0.000000000000000000, -1.704540558354500032E-15 ) ) ;
#771 = DIRECTION ( 'NONE',  ( 0.2302195854387930618, 0.000000000000000000, 0.9731387067013572700 ) ) ;
#772 = EDGE_CURVE ( 'NONE', #538, #127, #183, .T. ) ;
#773 = VECTOR ( 'NONE', #359, 100.0000000000000142 ) ;
#774 = EDGE_LOOP ( 'NONE', ( #512, #194, #649, #40 ) ) ;
#775 = PLANE ( 'NONE',  #99 ) ;
#776 = EDGE_CURVE ( 'NONE', #251, #849, #126, .T. ) ;
#777 = FILL_AREA_STYLE ('',( #629 ) ) ;
#778 = ORIENTED_EDGE ( 'NONE', *, *, #163, .F. ) ;
#779 = LINE ( 'NONE', #43, #297 ) ;
#780 = DIRECTION ( 'NONE',  ( -1.170779488823174499E-15, -0.000000000000000000, -1.000000000000000000 ) ) ;
#781 = DIRECTION ( 'NONE',  ( -0.2302195854387930340, -0.000000000000000000, -0.9731387067013572700 ) ) ;
#782 = FACE_OUTER_BOUND ( 'NONE', #885, .T. ) ;
#783 = ORIENTED_EDGE ( 'NONE', *, *, #693, .T. ) ;
#784 = ORIENTED_EDGE ( 'NONE', *, *, #223, .F. ) ;
#785 = LINE ( 'NONE', #845, #158 ) ;
#786 = CARTESIAN_POINT ( 'NONE',  ( 16.80000000000000782, 0.3950000000000000178, 4.999999999999989342 ) ) ;
#787 = DIRECTION ( 'NONE',  ( -1.000000000000000000, 0.000000000000000000, 1.032573497605242347E-16 ) ) ;
#788 = ADVANCED_FACE ( 'NONE', ( #233 ), #808, .T. ) ;
#789 = ORIENTED_EDGE ( 'NONE', *, *, #281, .T. ) ;
#790 = CARTESIAN_POINT ( 'NONE',  ( 9.745821117609423823, 0.000000000000000000, 5.000000000000001776 ) ) ;
#791 = VECTOR ( 'NONE', #618, 100.0000000000000000 ) ;
#792 = CYLINDRICAL_SURFACE ( 'NONE', #886, 0.3050000000000002154 ) ;
#793 = DIRECTION ( 'NONE',  ( -0.7071067811865491270, -0.000000000000000000, -0.7071067811865460184 ) ) ;
#794 = ORIENTED_EDGE ( 'NONE', *, *, #668, .F. ) ;
#795 =( NAMED_UNIT ( * ) SI_UNIT ( $, .STERADIAN. ) SOLID_ANGLE_UNIT ( ) );
#796 = ORIENTED_EDGE ( 'NONE', *, *, #258, .F. ) ;
#797 = CARTESIAN_POINT ( 'NONE',  ( 0.000000000000000000, 0.3950000000000000178, 2.399999999999999911 ) ) ;
#798 = EDGE_CURVE ( 'NONE', #199, #530, #594, .T. ) ;
#799 = DIRECTION ( 'NONE',  ( -0.7071067811865491270, -0.000000000000000000, -0.7071067811865460184 ) ) ;
#800 = VERTEX_POINT ( 'NONE', #577 ) ;
#801 = ORIENTED_EDGE ( 'NONE', *, *, #314, .F. ) ;
#802 =( LENGTH_UNIT ( ) NAMED_UNIT ( * ) SI_UNIT ( .CENTI., .METRE. ) );
#803 = DIRECTION ( 'NONE',  ( 0.000000000000000000, 0.000000000000000000, -1.000000000000000000 ) ) ;
#804 = ADVANCED_FACE ( 'NONE', ( #114 ), #257, .T. ) ;
#805 = LINE ( 'NONE', #103, #226 ) ;
#806 = ORIENTED_EDGE ( 'NONE', *, *, #270, .T. ) ;
#807 = PLANE ( 'NONE',  #56 ) ;
#808 = PLANE ( 'NONE',  #192 ) ;
#809 = ORIENTED_EDGE ( 'NONE', *, *, #514, .F. ) ;
#810 = STYLED_ITEM ( 'NONE', ( #536 ), #265 ) ;
#811 = EDGE_CURVE ( 'NONE', #282, #199, #659, .T. ) ;
#812 = VECTOR ( 'NONE', #648, 100.0000000000000000 ) ;
#813 = ORIENTED_EDGE ( 'NONE', *, *, #724, .T. ) ;
#814 = PLANE ( 'NONE',  #205 ) ;
#815 = EDGE_LOOP ( 'NONE', ( #63, #638 ) ) ;
#816 =( NAMED_UNIT ( * ) SI_UNIT ( $, .STERADIAN. ) SOLID_ANGLE_UNIT ( ) );
#817 = VERTEX_POINT ( 'NONE', #372 ) ;
#818 = CYLINDRICAL_SURFACE ( 'NONE', #9, 0.3050000000000001044 ) ;
#819 = AXIS2_PLACEMENT_3D ( 'NONE', #92, #770, #349 ) ;
#820 = CIRCLE ( 'NONE', #553, 0.3050000000000002154 ) ;
#821 = VECTOR ( 'NONE', #495, 100.0000000000000000 ) ;
#822 = CARTESIAN_POINT ( 'NONE',  ( 17.05000000000000426, 1.199999999999999956, 2.649999999999997247 ) ) ;
#823 = DIRECTION ( 'NONE',  ( 0.000000000000000000, -1.000000000000000000, 0.000000000000000000 ) ) ;
#824 = CARTESIAN_POINT ( 'NONE',  ( 13.44005296271396332, 1.209999999999999076, 5.000000000000000000 ) ) ;
#825 = PLANE ( 'NONE',  #819 ) ;
#826 = CARTESIAN_POINT ( 'NONE',  ( 16.80000000000000071, 1.199999999999999956, 5.000000000000000000 ) ) ;
#827 = ADVANCED_FACE ( 'NONE', ( #58 ), #859, .F. ) ;
#828 = DIRECTION ( 'NONE',  ( 0.9731387067013572700, 0.000000000000000000, -0.2302195854387930340 ) ) ;
#829 = LINE ( 'NONE', #280, #225 ) ;
#830 = LINE ( 'NONE', #425, #791 ) ;
#831 = COLOUR_RGB ( '',1.000000000000000000, 1.000000000000000000, 1.000000000000000000 ) ;
#832 = VECTOR ( 'NONE', #500, 100.0000000000000142 ) ;
#833 = DIRECTION ( 'NONE',  ( -1.000000000000000000, 0.000000000000000000, 2.878814911323413404E-15 ) ) ;
#834 = VECTOR ( 'NONE', #426, 100.0000000000000142 ) ;
#835 = DIRECTION ( 'NONE',  ( 1.000000000000000000, 0.000000000000000000, -1.032573497605242347E-16 ) ) ;
#836 = DIRECTION ( 'NONE',  ( 0.7071067811865489050, 0.000000000000000000, -0.7071067811865461294 ) ) ;
#837 = CARTESIAN_POINT ( 'NONE',  ( 17.05000000000000782, 0.8049999999999999378, 4.999999999999988454 ) ) ;
#838 = ADVANCED_FACE ( 'NONE', ( #508 ), #792, .F. ) ;
#839 = ORIENTED_EDGE ( 'NONE', *, *, #15, .F. ) ;
#840 = DIRECTION ( 'NONE',  ( 0.2302195854387930618, 0.000000000000000000, 0.9731387067013572700 ) ) ;
#841 = ADVANCED_FACE ( 'NONE', ( #686 ), #818, .F. ) ;
#842 = ORIENTED_EDGE ( 'NONE', *, *, #113, .F. ) ;
#843 = COLOUR_RGB ( '',0.6941176470588235059, 0.09803921568627450844, 0.09803921568627450844 ) ;
#844 = ORIENTED_EDGE ( 'NONE', *, *, #18, .F. ) ;
#845 = CARTESIAN_POINT ( 'NONE',  ( 5.343406718412051504, 1.199999999999999956, 3.852574361582292717 ) ) ;
#846 = AXIS2_PLACEMENT_3D ( 'NONE', #431, #21, #285 ) ;
#847 = LINE ( 'NONE', #627, #440 ) ;
#848 = DIRECTION ( 'NONE',  ( 0.2302195854387930340, 0.000000000000000000, 0.9731387067013573811 ) ) ;
#849 = VERTEX_POINT ( 'NONE', #201 ) ;
#850 = DIRECTION ( 'NONE',  ( 1.704540558354500032E-15, 0.000000000000000000, 1.000000000000000000 ) ) ;
#851 = CARTESIAN_POINT ( 'NONE',  ( 9.255424319351506668, 1.199999999999999956, 2.927091628118346112 ) ) ;
#852 = DIRECTION ( 'NONE',  ( -1.000000000000000000, 0.000000000000000000, 2.878814911323413404E-15 ) ) ;
#853 = FACE_OUTER_BOUND ( 'NONE', #324, .T. ) ;
#854 = ORIENTED_EDGE ( 'NONE', *, *, #18, .T. ) ;
#855 = EDGE_CURVE ( 'NONE', #221, #26, #407, .T. ) ;
#856 = ORIENTED_EDGE ( 'NONE', *, *, #379, .T. ) ;
#857 = LINE ( 'NONE', #424, #564 ) ;
#858 =( BOUNDED_CURVE ( )  B_SPLINE_CURVE ( 3, ( #381, #448, #119, #728 ),
 .UNSPECIFIED., .F., .T. ) 
 B_SPLINE_CURVE_WITH_KNOTS ( ( 4, 4 ),
 ( 0.000000000000000000, 3.141592653589793116 ),
 .UNSPECIFIED. ) 
 CURVE ( )  GEOMETRIC_REPRESENTATION_ITEM ( )  RATIONAL_B_SPLINE_CURVE ( ( 1.000000000000000000, 0.3333333333333333703, 0.3333333333333333703, 1.000000000000000000 ) ) 
 REPRESENTATION_ITEM ( '' )  );
#859 = CYLINDRICAL_SURFACE ( 'NONE', #408, 0.3050000000000002154 ) ;
#860 = PLANE ( 'NONE',  #542 ) ;
#861 = ORIENTED_EDGE ( 'NONE', *, *, #772, .T. ) ;
#862 = CARTESIAN_POINT ( 'NONE',  ( 5.489596155165683555, 1.199999999999999956, 4.470517440337655302 ) ) ;
#863 = ORIENTED_EDGE ( 'NONE', *, *, #45, .T. ) ;
#864 = DIRECTION ( 'NONE',  ( 0.9731387067013572700, 0.000000000000000000, -0.2302195854387927287 ) ) ;
#865 = VECTOR ( 'NONE', #833, 100.0000000000000000 ) ;
#866 = AXIS2_PLACEMENT_3D ( 'NONE', #733, #539, #61 ) ;
#867 = LINE ( 'NONE', #247, #832 ) ;
#868 = VECTOR ( 'NONE', #450, 100.0000000000000142 ) ;
#869 = FACE_OUTER_BOUND ( 'NONE', #308, .T. ) ;
#870 = ORIENTED_EDGE ( 'NONE', *, *, #404, .F. ) ;
#871 = DIRECTION ( 'NONE',  ( 0.000000000000000000, -1.000000000000000000, 0.000000000000000000 ) ) ;
#872 = ORIENTED_EDGE ( 'NONE', *, *, #155, .F. ) ;
#873 = EDGE_CURVE ( 'NONE', #667, #800, #241, .T. ) ;
#874 = CARTESIAN_POINT ( 'NONE',  ( -0.2500000000000002220, 0.8049999999999999378, 5.000000000000000000 ) ) ;
#875 = DIRECTION ( 'NONE',  ( 0.9731387067013570480, 0.000000000000000000, -0.2302195854387938945 ) ) ;
#876 = LINE ( 'NONE', #59, #834 ) ;
#877 = ORIENTED_EDGE ( 'NONE', *, *, #75, .T. ) ;
#878 = LINE ( 'NONE', #454, #351 ) ;
#879 = EDGE_CURVE ( 'NONE', #335, #671, #679, .T. ) ;
#880 = DIRECTION ( 'NONE',  ( 0.2302195854387931173, 0.000000000000000000, 0.9731387067013573811 ) ) ;
#881 = ORIENTED_EDGE ( 'NONE', *, *, #243, .F. ) ;
#882 = AXIS2_PLACEMENT_3D ( 'NONE', #481, #347, #215 ) ;
#883 = CARTESIAN_POINT ( 'NONE',  ( 5.343406718412051504, 0.000000000000000000, 3.852574361582292717 ) ) ;
#884 = AXIS2_PLACEMENT_3D ( 'NONE', #376, #569, #632 ) ;
#885 = EDGE_LOOP ( 'NONE', ( #375, #52, #524, #801 ) ) ;
#886 = AXIS2_PLACEMENT_3D ( 'NONE', #455, #725, #378 ) ;
ENDSEC;
END-ISO-10303-21;
