ISO-10303-21;
HEADER;
FILE_DESCRIPTION (( 'STEP AP214' ),
    '1' );
FILE_NAME ('vertex-single_60.STEP',
    '2026-06-10T13:07:10',
    ( '' ),
    ( '' ),
    'SwSTEP 2.0',
    'SolidWorks 2023',
    '' );
FILE_SCHEMA (( 'AUTOMOTIVE_DESIGN' ));
ENDSEC;

DATA;
#1 = DIRECTION ( 'NONE',  ( -0.000000000000000000, 0.000000000000000000, 1.000000000000000000 ) ) ;
#2 = CARTESIAN_POINT ( 'NONE',  ( -0.4099999999999999201, 1.820000000000000506, 0.1349999999999999534 ) ) ;
#3 = VECTOR ( 'NONE', #32, 100.0000000000000000 ) ;
#4 = LINE ( 'NONE', #554, #166 ) ;
#5 = VECTOR ( 'NONE', #180, 100.0000000000000000 ) ;
#6 = ADVANCED_FACE ( 'NONE', ( #261 ), #592, .F. ) ;
#7 = ORIENTED_EDGE ( 'NONE', *, *, #469, .F. ) ;
#8 = ORIENTED_EDGE ( 'NONE', *, *, #45, .T. ) ;
#9 = ORIENTED_EDGE ( 'NONE', *, *, #211, .T. ) ;
#10 = CYLINDRICAL_SURFACE ( 'NONE', #215, 0.3000000000000000444 ) ;
#11 = ORIENTED_EDGE ( 'NONE', *, *, #411, .F. ) ;
#12 = ORIENTED_EDGE ( 'NONE', *, *, #552, .T. ) ;
#13 = CARTESIAN_POINT ( 'NONE',  ( -0.7679571668975722076, 1.199999999999999956, 0.1349999999999999534 ) ) ;
#14 = PLANE ( 'NONE',  #145 ) ;
#15 = EDGE_LOOP ( 'NONE', ( #517, #455, #509, #97, #479, #183, #595, #7, #483, #171, #154, #204, #236, #687 ) ) ;
#16 = AXIS2_PLACEMENT_3D ( 'NONE', #230, #55, #720 ) ;
#17 = EDGE_LOOP ( 'NONE', ( #673, #343, #380, #36 ) ) ;
#18 = DIRECTION ( 'NONE',  ( -0.8660254037844362651, 0.5000000000000043299, 0.000000000000000000 ) ) ;
#19 = CARTESIAN_POINT ( 'NONE',  ( 1.364999999999999991, 2.000000000000001776, 0.6350000000000000089 ) ) ;
#20 = ADVANCED_FACE ( 'NONE', ( #551 ), #636, .F. ) ;
#21 = ORIENTED_EDGE ( 'NONE', *, *, #233, .F. ) ;
#22 = CARTESIAN_POINT ( 'NONE',  ( -1.364999999999999991, 16.63499999999999801, 0.6350000000000000089 ) ) ;
#23 =( NAMED_UNIT ( * ) PLANE_ANGLE_UNIT ( ) SI_UNIT ( $, .RADIAN. ) );
#24 = DIRECTION ( 'NONE',  ( -0.000000000000000000, 0.000000000000000000, 1.000000000000000000 ) ) ;
#25 = ORIENTED_EDGE ( 'NONE', *, *, #617, .T. ) ;
#26 = CARTESIAN_POINT ( 'NONE',  ( -1.364999999999999991, 16.63499999999999801, 0.3175000000000000044 ) ) ;
#27 = LINE ( 'NONE', #422, #559 ) ;
#28 = CARTESIAN_POINT ( 'NONE',  ( 2.000000000000000444, 1.500000000000000666, 0.000000000000000000 ) ) ;
#29 = ORIENTED_EDGE ( 'NONE', *, *, #469, .T. ) ;
#30 = PRESENTATION_LAYER_ASSIGNMENT (  '', '', ( #316 ) ) ;
#31 = EDGE_CURVE ( 'NONE', #526, #254, #585, .T. ) ;
#32 = DIRECTION ( 'NONE',  ( -1.249637081581196951E-16, 1.000000000000000000, -0.000000000000000000 ) ) ;
#33 = DIRECTION ( 'NONE',  ( 4.818676322157798361E-16, 1.000000000000000000, 0.000000000000000000 ) ) ;
#34 = CARTESIAN_POINT ( 'NONE',  ( -1.364999999999998215, 2.000000000000000444, 0.3175000000000000044 ) ) ;
#35 = EDGE_LOOP ( 'NONE', ( #112, #117, #294, #561 ) ) ;
#36 = ORIENTED_EDGE ( 'NONE', *, *, #290, .F. ) ;
#37 = CARTESIAN_POINT ( 'NONE',  ( 2.000000000000001776, -0.5999999999999998668, 0.6350000000000000089 ) ) ;
#38 = DIRECTION ( 'NONE',  ( 1.000000000000000000, 0.000000000000000000, 0.000000000000000000 ) ) ;
#39 = VERTEX_POINT ( 'NONE', #243 ) ;
#40 = PLANE ( 'NONE',  #616 ) ;
#41 = EDGE_CURVE ( 'NONE', #618, #476, #646, .T. ) ;
#42 = ORIENTED_EDGE ( 'NONE', *, *, #705, .F. ) ;
#43 = VECTOR ( 'NONE', #223, 100.0000000000000000 ) ;
#44 = CARTESIAN_POINT ( 'NONE',  ( 0.4099999999999999201, 1.820000000000000506, 0.6350000000000000089 ) ) ;
#45 = EDGE_CURVE ( 'NONE', #59, #639, #527, .T. ) ;
#46 = DIRECTION ( 'NONE',  ( -0.5000000000000042188, -0.8660254037844362651, 0.000000000000000000 ) ) ;
#47 = LINE ( 'NONE', #447, #700 ) ;
#48 = EDGE_CURVE ( 'NONE', #534, #190, #471, .T. ) ;
#49 = CARTESIAN_POINT ( 'NONE',  ( 0.4099999999999999201, 1.820000000000000506, 0.6350000000000000089 ) ) ;
#50 = CARTESIAN_POINT ( 'NONE',  ( -0.4100000000000000311, 2.000000000000000444, 0.1349999999999999534 ) ) ;
#51 = EDGE_CURVE ( 'NONE', #346, #526, #597, .T. ) ;
#52 = CARTESIAN_POINT ( 'NONE',  ( 1.364999999999999991, 1.364999999999998215, 0.3175000000000000044 ) ) ;
#53 = VECTOR ( 'NONE', #581, 100.0000000000000000 ) ;
#54 = VECTOR ( 'NONE', #161, 100.0000000000000000 ) ;
#55 = DIRECTION ( 'NONE',  ( 0.000000000000000000, 0.000000000000000000, 1.000000000000000000 ) ) ;
#56 = LINE ( 'NONE', #556, #626 ) ;
#57 = CYLINDRICAL_SURFACE ( 'NONE', #699, 0.3000000000000000444 ) ;
#58 = DIRECTION ( 'NONE',  ( -0.000000000000000000, 0.000000000000000000, 1.000000000000000000 ) ) ;
#59 = VERTEX_POINT ( 'NONE', #312 ) ;
#60 = CARTESIAN_POINT ( 'NONE',  ( 0.000000000000000000, 0.000000000000000000, 0.3175000000000000044 ) ) ;
#61 = AXIS2_PLACEMENT_3D ( 'NONE', #401, #516, #560 ) ;
#62 =( GEOMETRIC_REPRESENTATION_CONTEXT ( 3 ) GLOBAL_UNCERTAINTY_ASSIGNED_CONTEXT ( ( #66 ) ) GLOBAL_UNIT_ASSIGNED_CONTEXT ( ( #409, #249, #424 ) ) REPRESENTATION_CONTEXT ( 'NONE', 'WORKASPACE' ) );
#63 = ORIENTED_EDGE ( 'NONE', *, *, #617, .F. ) ;
#64 = AXIS2_PLACEMENT_3D ( 'NONE', #613, #502, #107 ) ;
#65 = ORIENTED_EDGE ( 'NONE', *, *, #705, .T. ) ;
#66 = UNCERTAINTY_MEASURE_WITH_UNIT (LENGTH_MEASURE( 1.000000000000000082E-05 ), #409, 'distance_accuracy_value', 'NONE');
#67 = ORIENTED_EDGE ( 'NONE', *, *, #680, .F. ) ;
#68 = ORIENTED_EDGE ( 'NONE', *, *, #601, .F. ) ;
#69 = DIRECTION ( 'NONE',  ( -2.312964634635742957E-16, 1.000000000000000000, 0.000000000000000000 ) ) ;
#70 = ORIENTED_EDGE ( 'NONE', *, *, #496, .F. ) ;
#71 = ORIENTED_EDGE ( 'NONE', *, *, #41, .T. ) ;
#72 = EDGE_CURVE ( 'NONE', #190, #158, #602, .T. ) ;
#73 = PLANE ( 'NONE',  #538 ) ;
#74 = CARTESIAN_POINT ( 'NONE',  ( 0.000000000000000000, 0.000000000000000000, 0.6350000000000000089 ) ) ;
#75 = VECTOR ( 'NONE', #187, 100.0000000000000000 ) ;
#76 = AXIS2_PLACEMENT_3D ( 'NONE', #273, #329, #38 ) ;
#77 = DIRECTION ( 'NONE',  ( -0.000000000000000000, 0.000000000000000000, 1.000000000000000000 ) ) ;
#78 = CARTESIAN_POINT ( 'NONE',  ( -1.500000000000000222, 2.000000000000000444, 0.000000000000000000 ) ) ;
#79 = DIRECTION ( 'NONE',  ( 0.000000000000000000, 0.000000000000000000, -1.000000000000000000 ) ) ;
#80 = ORIENTED_EDGE ( 'NONE', *, *, #371, .F. ) ;
#81 = DIRECTION ( 'NONE',  ( 1.931257307898213426E-16, -1.000000000000000000, 0.000000000000000000 ) ) ;
#82 = CARTESIAN_POINT ( 'NONE',  ( -0.4100000000000000311, 2.000000000000000444, 0.1349999999999999534 ) ) ;
#83 = FACE_OUTER_BOUND ( 'NONE', #460, .T. ) ;
#84 = EDGE_LOOP ( 'NONE', ( #514, #287, #487, #507, #435, #184 ) ) ;
#85 = EDGE_CURVE ( 'NONE', #684, #152, #141, .T. ) ;
#86 = CARTESIAN_POINT ( 'NONE',  ( -1.500000000000000222, 2.000000000000000444, 0.000000000000000000 ) ) ;
#87 = CYLINDRICAL_SURFACE ( 'NONE', #433, 2.500000000000000000 ) ;
#88 = ORIENTED_EDGE ( 'NONE', *, *, #575, .F. ) ;
#89 = VECTOR ( 'NONE', #546, 100.0000000000000000 ) ;
#90 = LINE ( 'NONE', #26, #712 ) ;
#91 = CARTESIAN_POINT ( 'NONE',  ( -1.364999999999998215, 2.000000000000000444, 0.000000000000000000 ) ) ;
#92 = ORIENTED_EDGE ( 'NONE', *, *, #305, .F. ) ;
#93 = DIRECTION ( 'NONE',  ( 0.000000000000000000, -1.000000000000000000, 0.000000000000000000 ) ) ;
#94 = ORIENTED_EDGE ( 'NONE', *, *, #552, .F. ) ;
#95 = LINE ( 'NONE', #427, #89 ) ;
#96 = EDGE_CURVE ( 'NONE', #519, #679, #697, .T. ) ;
#97 = ORIENTED_EDGE ( 'NONE', *, *, #360, .F. ) ;
#98 = LINE ( 'NONE', #713, #121 ) ;
#99 = COLOUR_RGB ( '',0.7921568627450980005, 0.8196078431372548767, 0.9333333333333333481 ) ;
#100 = DIRECTION ( 'NONE',  ( 1.000000000000000000, 0.000000000000000000, 0.000000000000000000 ) ) ;
#101 = CARTESIAN_POINT ( 'NONE',  ( -0.4099999999999999201, 1.820000000000000506, 0.6350000000000000089 ) ) ;
#102 = APPLICATION_PROTOCOL_DEFINITION ( 'draft international standard', 'automotive_design', 1998, #695 ) ;
#103 = EDGE_LOOP ( 'NONE', ( #29, #711, #176, #12 ) ) ;
#104 = EDGE_CURVE ( 'NONE', #465, #679, #90, .T. ) ;
#105 = DIRECTION ( 'NONE',  ( -0.000000000000000000, 0.000000000000000000, 1.000000000000000000 ) ) ;
#106 = EDGE_CURVE ( 'NONE', #400, #323, #416, .T. ) ;
#107 = DIRECTION ( 'NONE',  ( 1.000000000000000000, 0.000000000000000000, 0.000000000000000000 ) ) ;
#108 = LINE ( 'NONE', #344, #477 ) ;
#109 = DIRECTION ( 'NONE',  ( 1.000000000000000000, 0.000000000000000000, 0.000000000000000000 ) ) ;
#110 = CARTESIAN_POINT ( 'NONE',  ( -2.000000000000000888, 1.499999999999999112, 0.3175000000000000044 ) ) ;
#111 = DIRECTION ( 'NONE',  ( 0.000000000000000000, 1.000000000000000000, 0.000000000000000000 ) ) ;
#112 = ORIENTED_EDGE ( 'NONE', *, *, #318, .F. ) ;
#113 = CARTESIAN_POINT ( 'NONE',  ( -2.000000000000001776, 1.364999999999999991, 0.3175000000000000044 ) ) ;
#114 = DIRECTION ( 'NONE',  ( 4.818676322157799347E-16, -1.000000000000000000, 0.000000000000000000 ) ) ;
#115 = VERTEX_POINT ( 'NONE', #134 ) ;
#116 = CARTESIAN_POINT ( 'NONE',  ( -1.500000000000000222, 2.000000000000000444, 0.6350000000000000089 ) ) ;
#117 = ORIENTED_EDGE ( 'NONE', *, *, #486, .F. ) ;
#118 = FACE_OUTER_BOUND ( 'NONE', #17, .T. ) ;
#119 = ORIENTED_EDGE ( 'NONE', *, *, #726, .T. ) ;
#120 = VECTOR ( 'NONE', #604, 100.0000000000000000 ) ;
#121 = VECTOR ( 'NONE', #324, 100.0000000000000000 ) ;
#122 = ORIENTED_EDGE ( 'NONE', *, *, #224, .T. ) ;
#123 = DIRECTION ( 'NONE',  ( 0.000000000000000000, 1.000000000000000000, 0.000000000000000000 ) ) ;
#124 = FACE_OUTER_BOUND ( 'NONE', #473, .T. ) ;
#125 = ORIENTED_EDGE ( 'NONE', *, *, #290, .T. ) ;
#126 = EDGE_CURVE ( 'NONE', #470, #130, #138, .T. ) ;
#127 = EDGE_CURVE ( 'NONE', #130, #534, #480, .T. ) ;
#128 = ORIENTED_EDGE ( 'NONE', *, *, #182, .T. ) ;
#129 = LINE ( 'NONE', #101, #181 ) ;
#130 = VERTEX_POINT ( 'NONE', #650 ) ;
#131 = LINE ( 'NONE', #78, #374 ) ;
#132 = PLANE ( 'NONE',  #641 ) ;
#133 = VECTOR ( 'NONE', #251, 100.0000000000000000 ) ;
#134 = CARTESIAN_POINT ( 'NONE',  ( 0.000000000000000000, -0.3000000000000000444, 0.6350000000000000089 ) ) ;
#135 = SURFACE_STYLE_FILL_AREA ( #367 ) ;
#136 = CARTESIAN_POINT ( 'NONE',  ( -1.364999999999998215, 1.364999999999999991, 0.3175000000000000044 ) ) ;
#137 = ORIENTED_EDGE ( 'NONE', *, *, #446, .F. ) ;
#138 = LINE ( 'NONE', #535, #288 ) ;
#139 = CARTESIAN_POINT ( 'NONE',  ( -0.4099999999999999201, 1.820000000000000506, 0.1349999999999999534 ) ) ;
#140 = LINE ( 'NONE', #578, #5 ) ;
#141 = LINE ( 'NONE', #412, #144 ) ;
#142 = DIRECTION ( 'NONE',  ( -1.000000000000000000, -1.301042606982605074E-16, 0.000000000000000000 ) ) ;
#143 = VERTEX_POINT ( 'NONE', #429 ) ;
#144 = VECTOR ( 'NONE', #474, 100.0000000000000000 ) ;
#145 = AXIS2_PLACEMENT_3D ( 'NONE', #594, #468, #648 ) ;
#146 = CARTESIAN_POINT ( 'NONE',  ( 2.000000000000000444, -0.5999999999999998668, 0.000000000000000000 ) ) ;
#147 = DIRECTION ( 'NONE',  ( -0.5000000000000042188, 0.8660254037844361541, 0.000000000000000000 ) ) ;
#148 = ORIENTED_EDGE ( 'NONE', *, *, #596, .T. ) ;
#149 = EDGE_CURVE ( 'NONE', #618, #326, #540, .T. ) ;
#150 = CARTESIAN_POINT ( 'NONE',  ( -1.364999999999998215, 1.364999999999999991, 0.3175000000000000044 ) ) ;
#151 = PRODUCT_CONTEXT ( 'NONE', #662, 'mechanical' ) ;
#152 = VERTEX_POINT ( 'NONE', #146 ) ;
#153 = CARTESIAN_POINT ( 'NONE',  ( 0.000000000000000000, 0.000000000000000000, 0.000000000000000000 ) ) ;
#154 = ORIENTED_EDGE ( 'NONE', *, *, #586, .F. ) ;
#155 = CIRCLE ( 'NONE', #349, 2.500000000000000000 ) ;
#156 = PLANE ( 'NONE',  #256 ) ;
#157 = ADVANCED_FACE ( 'NONE', ( #118 ), #337, .F. ) ;
#158 = VERTEX_POINT ( 'NONE', #50 ) ;
#159 = ADVANCED_FACE ( 'NONE', ( #674 ), #442, .F. ) ;
#160 = DIRECTION ( 'NONE',  ( 0.000000000000000000, -1.000000000000000000, 0.000000000000000000 ) ) ;
#161 = DIRECTION ( 'NONE',  ( -0.000000000000000000, 0.000000000000000000, 1.000000000000000000 ) ) ;
#162 = FACE_OUTER_BOUND ( 'NONE', #35, .T. ) ;
#163 = CARTESIAN_POINT ( 'NONE',  ( 0.000000000000000000, 0.000000000000000000, 0.000000000000000000 ) ) ;
#164 = EDGE_CURVE ( 'NONE', #450, #519, #457, .T. ) ;
#165 = EDGE_LOOP ( 'NONE', ( #428, #708, #703, #267, #242, #356 ) ) ;
#166 = VECTOR ( 'NONE', #109, 100.0000000000000000 ) ;
#167 = CARTESIAN_POINT ( 'NONE',  ( 1.364999999999999769, 2.000000000000000444, 0.000000000000000000 ) ) ;
#168 = VECTOR ( 'NONE', #467, 100.0000000000000000 ) ;
#169 = DIRECTION ( 'NONE',  ( -1.000000000000000000, -3.067291018426574134E-16, 0.000000000000000000 ) ) ;
#170 = EDGE_CURVE ( 'NONE', #450, #323, #327, .T. ) ;
#171 = ORIENTED_EDGE ( 'NONE', *, *, #461, .F. ) ;
#172 = VERTEX_POINT ( 'NONE', #283 ) ;
#173 = LINE ( 'NONE', #399, #511 ) ;
#174 = VERTEX_POINT ( 'NONE', #395 ) ;
#175 = ORIENTED_EDGE ( 'NONE', *, *, #596, .F. ) ;
#176 = ORIENTED_EDGE ( 'NONE', *, *, #127, .F. ) ;
#177 = FACE_OUTER_BOUND ( 'NONE', #229, .T. ) ;
#178 = EDGE_CURVE ( 'NONE', #158, #410, #620, .T. ) ;
#179 = CIRCLE ( 'NONE', #276, 2.500000000000000000 ) ;
#180 = DIRECTION ( 'NONE',  ( 0.000000000000000000, 0.000000000000000000, 1.000000000000000000 ) ) ;
#181 = VECTOR ( 'NONE', #46, 100.0000000000000142 ) ;
#182 = EDGE_CURVE ( 'NONE', #694, #59, #47, .T. ) ;
#183 = ORIENTED_EDGE ( 'NONE', *, *, #299, .F. ) ;
#184 = ORIENTED_EDGE ( 'NONE', *, *, #106, .F. ) ;
#185 = FACE_OUTER_BOUND ( 'NONE', #715, .T. ) ;
#186 = CARTESIAN_POINT ( 'NONE',  ( 0.000000000000000000, 0.000000000000000000, 0.1349999999999999534 ) ) ;
#187 = DIRECTION ( 'NONE',  ( -1.000000000000000000, -1.301042606982605074E-16, 0.000000000000000000 ) ) ;
#188 = DIRECTION ( 'NONE',  ( -0.5000000000000042188, -0.8660254037844361541, 0.000000000000000000 ) ) ;
#189 = CARTESIAN_POINT ( 'NONE',  ( 0.000000000000000000, 0.000000000000000000, 0.6350000000000000089 ) ) ;
#190 = VERTEX_POINT ( 'NONE', #334 ) ;
#191 = ORIENTED_EDGE ( 'NONE', *, *, #264, .F. ) ;
#192 = CARTESIAN_POINT ( 'NONE',  ( -1.999999999999999112, -0.6000000000000003109, 0.000000000000000000 ) ) ;
#193 = DIRECTION ( 'NONE',  ( 0.000000000000000000, -1.000000000000000000, 0.000000000000000000 ) ) ;
#194 = EDGE_LOOP ( 'NONE', ( #21, #653, #284, #570, #63 ) ) ;
#195 = VECTOR ( 'NONE', #58, 100.0000000000000000 ) ;
#196 = DIRECTION ( 'NONE',  ( 1.000000000000000000, 0.000000000000000000, 0.000000000000000000 ) ) ;
#197 = DIRECTION ( 'NONE',  ( -1.000000000000000000, -4.818676322157798361E-16, 0.000000000000000000 ) ) ;
#198 = DIRECTION ( 'NONE',  ( 0.000000000000000000, 1.000000000000000000, 0.000000000000000000 ) ) ;
#199 = CARTESIAN_POINT ( 'NONE',  ( 0.4099999999999999201, 1.820000000000000506, 0.1349999999999999534 ) ) ;
#200 = SURFACE_SIDE_STYLE ('',( #135 ) ) ;
#201 = ORIENTED_EDGE ( 'NONE', *, *, #610, .T. ) ;
#202 = CARTESIAN_POINT ( 'NONE',  ( 16.63499999999999801, 1.365000000000001101, 0.3175000000000000044 ) ) ;
#203 = FACE_OUTER_BOUND ( 'NONE', #103, .T. ) ;
#204 = ORIENTED_EDGE ( 'NONE', *, *, #652, .F. ) ;
#205 = ADVANCED_FACE ( 'NONE', ( #612 ), #286, .F. ) ;
#206 = AXIS2_PLACEMENT_3D ( 'NONE', #274, #562, #387 ) ;
#207 = VECTOR ( 'NONE', #524, 100.0000000000000000 ) ;
#208 = DIRECTION ( 'NONE',  ( -1.249637081581196951E-16, 1.000000000000000000, 0.000000000000000000 ) ) ;
#209 = EDGE_LOOP ( 'NONE', ( #600, #71, #566, #365 ) ) ;
#210 = LINE ( 'NONE', #719, #501 ) ;
#211 = EDGE_CURVE ( 'NONE', #323, #298, #558, .T. ) ;
#212 = CARTESIAN_POINT ( 'NONE',  ( 0.4099999999999999201, 1.820000000000000506, 0.1349999999999999534 ) ) ;
#213 = UNCERTAINTY_MEASURE_WITH_UNIT (LENGTH_MEASURE( 1.000000000000000082E-05 ), #593, 'distance_accuracy_value', 'NONE');
#214 = DIRECTION ( 'NONE',  ( 0.000000000000000000, -1.000000000000000000, 0.000000000000000000 ) ) ;
#215 = AXIS2_PLACEMENT_3D ( 'NONE', #235, #1, #232 ) ;
#216 = VECTOR ( 'NONE', #332, 100.0000000000000000 ) ;
#217 = CARTESIAN_POINT ( 'NONE',  ( 1.499999999999999778, 2.000000000000000444, 0.000000000000000000 ) ) ;
#218 = CARTESIAN_POINT ( 'NONE',  ( -1.999999999999999112, -0.6000000000000003109, 0.6350000000000000089 ) ) ;
#219 = DIRECTION ( 'NONE',  ( 1.000000000000000000, 0.000000000000000000, 0.000000000000000000 ) ) ;
#220 = ADVANCED_FACE ( 'NONE', ( #495 ), #670, .F. ) ;
#221 = LINE ( 'NONE', #2, #441 ) ;
#222 = LINE ( 'NONE', #676, #195 ) ;
#223 = DIRECTION ( 'NONE',  ( -0.000000000000000000, 0.000000000000000000, 1.000000000000000000 ) ) ;
#224 = EDGE_CURVE ( 'NONE', #293, #143, #4, .T. ) ;
#225 = EDGE_LOOP ( 'NONE', ( #621, #125, #122, #11, #80, #456, #406, #362, #383, #70, #431, #201 ) ) ;
#226 = AXIS2_PLACEMENT_3D ( 'NONE', #86, #366, #100 ) ;
#227 = CARTESIAN_POINT ( 'NONE',  ( 16.63499999999999801, 1.365000000000001101, 0.6350000000000000089 ) ) ;
#228 = VECTOR ( 'NONE', #335, 100.0000000000000000 ) ;
#229 = EDGE_LOOP ( 'NONE', ( #463, #539, #65, #92 ) ) ;
#230 = CARTESIAN_POINT ( 'NONE',  ( 0.000000000000000000, 0.000000000000000000, 0.000000000000000000 ) ) ;
#231 = ORIENTED_EDGE ( 'NONE', *, *, #234, .T. ) ;
#232 = DIRECTION ( 'NONE',  ( 0.000000000000000000, -1.000000000000000000, 0.000000000000000000 ) ) ;
#233 = EDGE_CURVE ( 'NONE', #143, #174, #155, .T. ) ;
#234 = EDGE_CURVE ( 'NONE', #684, #625, #557, .T. ) ;
#235 = CARTESIAN_POINT ( 'NONE',  ( 0.000000000000000000, 0.000000000000000000, 0.000000000000000000 ) ) ;
#236 = ORIENTED_EDGE ( 'NONE', *, *, #45, .F. ) ;
#237 = ORIENTED_EDGE ( 'NONE', *, *, #369, .T. ) ;
#238 = CARTESIAN_POINT ( 'NONE',  ( 1.364999999999995328, 16.63499999999999801, 0.3175000000000000044 ) ) ;
#239 = CIRCLE ( 'NONE', #16, 0.3000000000000000444 ) ;
#240 = DIRECTION ( 'NONE',  ( 0.000000000000000000, 0.000000000000000000, -1.000000000000000000 ) ) ;
#241 = VECTOR ( 'NONE', #24, 100.0000000000000000 ) ;
#242 = ORIENTED_EDGE ( 'NONE', *, *, #127, .T. ) ;
#243 = CARTESIAN_POINT ( 'NONE',  ( 3.673940397442060115E-17, 0.3000000000000000444, 0.6350000000000000089 ) ) ;
#244 = CARTESIAN_POINT ( 'NONE',  ( 0.000000000000000000, 0.000000000000000000, 0.3175000000000000044 ) ) ;
#245 = FACE_OUTER_BOUND ( 'NONE', #165, .T. ) ;
#246 = EDGE_LOOP ( 'NONE', ( #402, #353 ) ) ;
#247 = DIRECTION ( 'NONE',  ( 4.818676322157799347E-16, 1.000000000000000000, 0.000000000000000000 ) ) ;
#248 = CARTESIAN_POINT ( 'NONE',  ( 0.4100000000000000311, 2.000000000000000444, 0.1349999999999999534 ) ) ;
#249 =( NAMED_UNIT ( * ) PLANE_ANGLE_UNIT ( ) SI_UNIT ( $, .RADIAN. ) );
#250 = VERTEX_POINT ( 'NONE', #724 ) ;
#251 = DIRECTION ( 'NONE',  ( -2.312964634635742957E-16, 1.000000000000000000, 0.000000000000000000 ) ) ;
#252 = DIRECTION ( 'NONE',  ( 1.000000000000000000, 1.931257307898213426E-16, 0.000000000000000000 ) ) ;
#253 = LINE ( 'NONE', #364, #658 ) ;
#254 = VERTEX_POINT ( 'NONE', #218 ) ;
#255 = AXIS2_PLACEMENT_3D ( 'NONE', #614, #667, #389 ) ;
#256 = AXIS2_PLACEMENT_3D ( 'NONE', #37, #498, #322 ) ;
#257 = EDGE_CURVE ( 'NONE', #458, #588, #239, .T. ) ;
#258 = DIRECTION ( 'NONE',  ( 1.000000000000000000, 0.000000000000000000, 0.000000000000000000 ) ) ;
#259 = LINE ( 'NONE', #481, #168 ) ;
#260 = CARTESIAN_POINT ( 'NONE',  ( 0.000000000000000000, 0.000000000000000000, 0.6350000000000000089 ) ) ;
#261 = FACE_OUTER_BOUND ( 'NONE', #209, .T. ) ;
#262 = ADVANCED_FACE ( 'NONE', ( #162 ), #57, .F. ) ;
#263 = CARTESIAN_POINT ( 'NONE',  ( 1.364999999999999991, 1.364999999999998215, 0.6350000000000000089 ) ) ;
#264 = EDGE_CURVE ( 'NONE', #410, #470, #221, .T. ) ;
#265 = SHAPE_DEFINITION_REPRESENTATION ( #608, #331 ) ;
#266 = CARTESIAN_POINT ( 'NONE',  ( -16.63499999999999801, 1.364999999999996438, 0.3175000000000000044 ) ) ;
#267 = ORIENTED_EDGE ( 'NONE', *, *, #126, .T. ) ;
#268 = LINE ( 'NONE', #488, #666 ) ;
#269 = AXIS2_PLACEMENT_3D ( 'NONE', #376, #81, #304 ) ;
#270 = AXIS2_PLACEMENT_3D ( 'NONE', #82, #197, #528 ) ;
#271 = CARTESIAN_POINT ( 'NONE',  ( 0.000000000000000000, -0.3000000000000000444, 0.000000000000000000 ) ) ;
#272 = FACE_OUTER_BOUND ( 'NONE', #350, .T. ) ;
#273 = CARTESIAN_POINT ( 'NONE',  ( 0.000000000000000000, 0.000000000000000000, 0.000000000000000000 ) ) ;
#274 = CARTESIAN_POINT ( 'NONE',  ( -2.000000000000000000, -1.500000000000000888, 0.000000000000000000 ) ) ;
#275 = CARTESIAN_POINT ( 'NONE',  ( 0.000000000000000000, 0.000000000000000000, 0.000000000000000000 ) ) ;
#276 = AXIS2_PLACEMENT_3D ( 'NONE', #244, #417, #123 ) ;
#277 = EDGE_CURVE ( 'NONE', #542, #358, #173, .T. ) ;
#278 = VECTOR ( 'NONE', #543, 100.0000000000000142 ) ;
#279 = PLANE ( 'NONE',  #64 ) ;
#280 = DIRECTION ( 'NONE',  ( -0.000000000000000000, 0.000000000000000000, 1.000000000000000000 ) ) ;
#281 = CARTESIAN_POINT ( 'NONE',  ( 2.000000000000001776, 1.364999999999998437, 0.3175000000000000044 ) ) ;
#282 = EDGE_CURVE ( 'NONE', #359, #465, #547, .T. ) ;
#283 = CARTESIAN_POINT ( 'NONE',  ( -0.4099999999999999201, 1.820000000000000506, 0.6350000000000000089 ) ) ;
#284 = ORIENTED_EDGE ( 'NONE', *, *, #453, .T. ) ;
#285 = CARTESIAN_POINT ( 'NONE',  ( 2.000000000000001776, 1.364999999999998437, 0.6350000000000000089 ) ) ;
#286 = PLANE ( 'NONE',  #206 ) ;
#287 = ORIENTED_EDGE ( 'NONE', *, *, #445, .T. ) ;
#288 = VECTOR ( 'NONE', #258, 100.0000000000000000 ) ;
#289 = MECHANICAL_DESIGN_GEOMETRIC_PRESENTATION_REPRESENTATION (  '', ( #316 ), #491 ) ;
#290 = EDGE_CURVE ( 'NONE', #628, #293, #725, .T. ) ;
#291 = ORIENTED_EDGE ( 'NONE', *, *, #371, .T. ) ;
#292 = LINE ( 'NONE', #116, #382 ) ;
#293 = VERTEX_POINT ( 'NONE', #459 ) ;
#294 = ORIENTED_EDGE ( 'NONE', *, *, #305, .T. ) ;
#295 = CARTESIAN_POINT ( 'NONE',  ( -1.500000000000000222, 2.000000000000000444, 0.000000000000000000 ) ) ;
#296 = APPLICATION_PROTOCOL_DEFINITION ( 'draft international standard', 'automotive_design', 1998, #662 ) ;
#297 = ORIENTED_EDGE ( 'NONE', *, *, #164, .F. ) ;
#298 = VERTEX_POINT ( 'NONE', #110 ) ;
#299 = EDGE_CURVE ( 'NONE', #358, #628, #292, .T. ) ;
#300 = DIRECTION ( 'NONE',  ( 0.000000000000000000, 0.000000000000000000, -1.000000000000000000 ) ) ;
#301 = VECTOR ( 'NONE', #701, 100.0000000000000000 ) ;
#302 = LINE ( 'NONE', #525, #351 ) ;
#303 = EDGE_LOOP ( 'NONE', ( #398, #42 ) ) ;
#304 = DIRECTION ( 'NONE',  ( 1.000000000000000000, 1.931257307898213426E-16, 0.000000000000000000 ) ) ;
#305 = EDGE_CURVE ( 'NONE', #588, #115, #222, .T. ) ;
#306 = EDGE_LOOP ( 'NONE', ( #175, #631, #659, #634 ) ) ;
#307 = CARTESIAN_POINT ( 'NONE',  ( 0.4100000000000000311, 2.000000000000000444, 0.1349999999999999534 ) ) ;
#308 = DIRECTION ( 'NONE',  ( 1.000000000000000000, -4.818676322157798361E-16, 0.000000000000000000 ) ) ;
#309 = LINE ( 'NONE', #314, #241 ) ;
#310 = ORIENTED_EDGE ( 'NONE', *, *, #669, .T. ) ;
#311 = ADVANCED_FACE ( 'NONE', ( #341 ), #681, .F. ) ;
#312 = CARTESIAN_POINT ( 'NONE',  ( -1.364999999999998215, 1.364999999999999991, 0.6350000000000000089 ) ) ;
#313 = FILL_AREA_STYLE_COLOUR ( '', #99 ) ;
#314 = CARTESIAN_POINT ( 'NONE',  ( 2.000000000000000444, 1.500000000000000666, 0.000000000000000000 ) ) ;
#315 = VECTOR ( 'NONE', #219, 100.0000000000000000 ) ;
#316 = STYLED_ITEM ( 'NONE', ( #363 ), #436 ) ;
#317 = ADVANCED_FACE ( 'NONE', ( #177 ), #10, .F. ) ;
#318 = EDGE_CURVE ( 'NONE', #458, #39, #108, .T. ) ;
#319 = CARTESIAN_POINT ( 'NONE',  ( -2.000000000000000000, -1.500000000000000888, 0.000000000000000000 ) ) ;
#320 = DIRECTION ( 'NONE',  ( 0.000000000000000000, 0.000000000000000000, 1.000000000000000000 ) ) ;
#321 = ORIENTED_EDGE ( 'NONE', *, *, #85, .T. ) ;
#322 = DIRECTION ( 'NONE',  ( 1.000000000000000000, 1.301042606982605074E-16, 0.000000000000000000 ) ) ;
#323 = VERTEX_POINT ( 'NONE', #336 ) ;
#324 = DIRECTION ( 'NONE',  ( -0.000000000000000000, 0.000000000000000000, 1.000000000000000000 ) ) ;
#325 = EDGE_CURVE ( 'NONE', #694, #359, #56, .T. ) ;
#326 = VERTEX_POINT ( 'NONE', #281 ) ;
#327 = CIRCLE ( 'NONE', #523, 2.500000000000000000 ) ;
#328 = DIRECTION ( 'NONE',  ( 4.818676322157799347E-16, -1.000000000000000000, 0.000000000000000000 ) ) ;
#329 = DIRECTION ( 'NONE',  ( 0.000000000000000000, -1.000000000000000000, 0.000000000000000000 ) ) ;
#330 = ORIENTED_EDGE ( 'NONE', *, *, #390, .T. ) ;
#331 = ADVANCED_BREP_SHAPE_REPRESENTATION ( 'vertex-single_60', ( #436, #76 ), #62 ) ;
#332 = DIRECTION ( 'NONE',  ( -0.000000000000000000, 0.000000000000000000, 1.000000000000000000 ) ) ;
#333 = DIRECTION ( 'NONE',  ( 4.818676322157799347E-16, 1.000000000000000000, 0.000000000000000000 ) ) ;
#334 = CARTESIAN_POINT ( 'NONE',  ( 0.4100000000000001421, 2.000000000000000444, 0.1349999999999999534 ) ) ;
#335 = DIRECTION ( 'NONE',  ( 0.000000000000000000, -1.000000000000000000, 0.000000000000000000 ) ) ;
#336 = CARTESIAN_POINT ( 'NONE',  ( -2.000000000000000888, 1.499999999999999334, 0.000000000000000000 ) ) ;
#337 = PLANE ( 'NONE',  #722 ) ;
#338 = AXIS2_PLACEMENT_3D ( 'NONE', #275, #500, #214 ) ;
#339 = CIRCLE ( 'NONE', #478, 0.3000000000000000444 ) ;
#340 = EDGE_CURVE ( 'NONE', #522, #645, #564, .T. ) ;
#341 = FACE_OUTER_BOUND ( 'NONE', #489, .T. ) ;
#342 = DIRECTION ( 'NONE',  ( 0.000000000000000000, 0.000000000000000000, 1.000000000000000000 ) ) ;
#343 = ORIENTED_EDGE ( 'NONE', *, *, #41, .F. ) ;
#344 = CARTESIAN_POINT ( 'NONE',  ( 3.673940397442060115E-17, 0.3000000000000000444, 0.000000000000000000 ) ) ;
#345 = DIRECTION ( 'NONE',  ( 1.000000000000000000, 2.385670792109557660E-16, 0.000000000000000000 ) ) ;
#346 = VERTEX_POINT ( 'NONE', #285 ) ;
#347 = ADVANCED_FACE ( 'NONE', ( #505 ), #448, .F. ) ;
#348 = CARTESIAN_POINT ( 'NONE',  ( 0.000000000000000000, 0.000000000000000000, 0.000000000000000000 ) ) ;
#349 = AXIS2_PLACEMENT_3D ( 'NONE', #60, #615, #111 ) ;
#350 = EDGE_LOOP ( 'NONE', ( #370, #425, #8, #68 ) ) ;
#351 = VECTOR ( 'NONE', #521, 100.0000000000000000 ) ;
#352 = DIRECTION ( 'NONE',  ( 0.000000000000000000, 0.000000000000000000, -1.000000000000000000 ) ) ;
#353 = ORIENTED_EDGE ( 'NONE', *, *, #257, .T. ) ;
#354 = CARTESIAN_POINT ( 'NONE',  ( -2.000000000000001776, 1.364999999999999991, 0.6350000000000000089 ) ) ;
#355 = ORIENTED_EDGE ( 'NONE', *, *, #340, .T. ) ;
#356 = ORIENTED_EDGE ( 'NONE', *, *, #48, .T. ) ;
#357 = DIRECTION ( 'NONE',  ( 0.000000000000000000, -1.000000000000000000, 0.000000000000000000 ) ) ;
#358 = VERTEX_POINT ( 'NONE', #619 ) ;
#359 = VERTEX_POINT ( 'NONE', #113 ) ;
#360 = EDGE_CURVE ( 'NONE', #476, #346, #508, .T. ) ;
#361 = CIRCLE ( 'NONE', #686, 0.3000000000000000444 ) ;
#362 = ORIENTED_EDGE ( 'NONE', *, *, #601, .T. ) ;
#363 = PRESENTATION_STYLE_ASSIGNMENT (( #706 ) ) ;
#364 = CARTESIAN_POINT ( 'NONE',  ( 2.000000000000001776, -0.5999999999999998668, 0.6350000000000000089 ) ) ;
#365 = ORIENTED_EDGE ( 'NONE', *, *, #726, .F. ) ;
#366 = DIRECTION ( 'NONE',  ( 0.000000000000000000, -1.000000000000000000, 0.000000000000000000 ) ) ;
#367 = FILL_AREA_STYLE ('',( #313 ) ) ;
#368 = DIRECTION ( 'NONE',  ( 0.000000000000000000, -1.000000000000000000, 0.000000000000000000 ) ) ;
#369 = EDGE_CURVE ( 'NONE', #298, #519, #179, .T. ) ;
#370 = ORIENTED_EDGE ( 'NONE', *, *, #104, .F. ) ;
#371 = EDGE_CURVE ( 'NONE', #450, #625, #131, .T. ) ;
#372 = CARTESIAN_POINT ( 'NONE',  ( 2.000000000000001776, -0.5999999999999998668, 0.6350000000000000089 ) ) ;
#373 = LINE ( 'NONE', #91, #385 ) ;
#374 = VECTOR ( 'NONE', #532, 100.0000000000000000 ) ;
#375 = AXIS2_PLACEMENT_3D ( 'NONE', #663, #430, #147 ) ;
#376 = CARTESIAN_POINT ( 'NONE',  ( 16.63499999999999801, 1.365000000000001101, 0.3175000000000000044 ) ) ;
#377 = CARTESIAN_POINT ( 'NONE',  ( 0.000000000000000000, 0.000000000000000000, 0.6350000000000000089 ) ) ;
#378 = ORIENTED_EDGE ( 'NONE', *, *, #325, .F. ) ;
#379 = DIRECTION ( 'NONE',  ( 0.000000000000000000, 0.000000000000000000, 1.000000000000000000 ) ) ;
#380 = ORIENTED_EDGE ( 'NONE', *, *, #453, .F. ) ;
#381 = LINE ( 'NONE', #212, #587 ) ;
#382 = VECTOR ( 'NONE', #513, 100.0000000000000000 ) ;
#383 = ORIENTED_EDGE ( 'NONE', *, *, #652, .T. ) ;
#384 = VECTOR ( 'NONE', #414, 100.0000000000000000 ) ;
#385 = VECTOR ( 'NONE', #320, 100.0000000000000000 ) ;
#386 = CARTESIAN_POINT ( 'NONE',  ( 2.000000000000001776, -0.5999999999999998668, 0.6350000000000000089 ) ) ;
#387 = DIRECTION ( 'NONE',  ( -2.312964634635742957E-16, 1.000000000000000000, 0.000000000000000000 ) ) ;
#388 = LINE ( 'NONE', #444, #228 ) ;
#389 = DIRECTION ( 'NONE',  ( 0.000000000000000000, 1.000000000000000000, 0.000000000000000000 ) ) ;
#390 = EDGE_CURVE ( 'NONE', #470, #522, #647, .T. ) ;
#391 = CARTESIAN_POINT ( 'NONE',  ( -0.4100000000000000311, 2.000000000000000444, 0.1349999999999999534 ) ) ;
#392 = CIRCLE ( 'NONE', #466, 0.3000000000000000444 ) ;
#393 = ORIENTED_EDGE ( 'NONE', *, *, #610, .F. ) ;
#394 = DIRECTION ( 'NONE',  ( 1.000000000000000000, 2.385670792109557660E-16, 0.000000000000000000 ) ) ;
#395 = CARTESIAN_POINT ( 'NONE',  ( 2.000000000000000000, 1.500000000000000222, 0.3175000000000000044 ) ) ;
#396 = ORIENTED_EDGE ( 'NONE', *, *, #85, .F. ) ;
#397 = CARTESIAN_POINT ( 'NONE',  ( 0.7679571668975722076, 1.199999999999999956, 0.6350000000000000089 ) ) ;
#398 = ORIENTED_EDGE ( 'NONE', *, *, #635, .F. ) ;
#399 = CARTESIAN_POINT ( 'NONE',  ( 0.4100000000000000311, 2.000000000000000444, 0.6350000000000000089 ) ) ;
#400 = VERTEX_POINT ( 'NONE', #192 ) ;
#401 = CARTESIAN_POINT ( 'NONE',  ( 0.000000000000000000, 0.000000000000000000, 0.3175000000000000044 ) ) ;
#402 = ORIENTED_EDGE ( 'NONE', *, *, #486, .T. ) ;
#403 = AXIS2_PLACEMENT_3D ( 'NONE', #671, #451, #394 ) ;
#404 = CARTESIAN_POINT ( 'NONE',  ( 0.000000000000000000, 0.000000000000000000, 0.6350000000000000089 ) ) ;
#405 = ADVANCED_FACE ( 'NONE', ( #185 ), #73, .F. ) ;
#406 = ORIENTED_EDGE ( 'NONE', *, *, #96, .T. ) ;
#407 = ORIENTED_EDGE ( 'NONE', *, *, #178, .F. ) ;
#408 = FACE_OUTER_BOUND ( 'NONE', #690, .T. ) ;
#409 =( LENGTH_UNIT ( ) NAMED_UNIT ( * ) SI_UNIT ( .CENTI., .METRE. ) );
#410 = VERTEX_POINT ( 'NONE', #139 ) ;
#411 = EDGE_CURVE ( 'NONE', #625, #143, #643, .T. ) ;
#412 = CARTESIAN_POINT ( 'NONE',  ( 2.000000000000000444, 1.500000000000000666, 0.000000000000000000 ) ) ;
#413 = CARTESIAN_POINT ( 'NONE',  ( -0.4099999999999999201, 1.820000000000000506, 0.1349999999999999534 ) ) ;
#414 = DIRECTION ( 'NONE',  ( -0.000000000000000000, 0.000000000000000000, 1.000000000000000000 ) ) ;
#415 = ORIENTED_EDGE ( 'NONE', *, *, #96, .F. ) ;
#416 = LINE ( 'NONE', #319, #133 ) ;
#417 = DIRECTION ( 'NONE',  ( 0.000000000000000000, 0.000000000000000000, -1.000000000000000000 ) ) ;
#418 = VECTOR ( 'NONE', #105, 100.0000000000000000 ) ;
#419 = PRODUCT_DEFINITION_FORMATION_WITH_SPECIFIED_SOURCE ( 'ANY', '', #718, .NOT_KNOWN. ) ;
#420 = ORIENTED_EDGE ( 'NONE', *, *, #233, .T. ) ;
#421 = ORIENTED_EDGE ( 'NONE', *, *, #282, .T. ) ;
#422 = CARTESIAN_POINT ( 'NONE',  ( -2.000000000000000000, -1.500000000000000888, 0.3175000000000000044 ) ) ;
#423 = EDGE_CURVE ( 'NONE', #254, #400, #590, .T. ) ;
#424 =( NAMED_UNIT ( * ) SI_UNIT ( $, .STERADIAN. ) SOLID_ANGLE_UNIT ( ) );
#425 = ORIENTED_EDGE ( 'NONE', *, *, #680, .T. ) ;
#426 = DIRECTION ( 'NONE',  ( -0.5000000000000042188, 0.8660254037844362651, -0.000000000000000000 ) ) ;
#427 = CARTESIAN_POINT ( 'NONE',  ( -0.4099999999999999201, 1.820000000000000506, 0.1349999999999999534 ) ) ;
#428 = ORIENTED_EDGE ( 'NONE', *, *, #72, .T. ) ;
#429 = CARTESIAN_POINT ( 'NONE',  ( 1.499999999999999778, 2.000000000000000444, 0.3175000000000000044 ) ) ;
#430 = DIRECTION ( 'NONE',  ( 0.8660254037844362651, 0.5000000000000043299, 0.000000000000000000 ) ) ;
#431 = ORIENTED_EDGE ( 'NONE', *, *, #72, .F. ) ;
#432 = VECTOR ( 'NONE', #655, 100.0000000000000000 ) ;
#433 = AXIS2_PLACEMENT_3D ( 'NONE', #260, #240, #198 ) ;
#434 = PLANE ( 'NONE',  #375 ) ;
#435 = ORIENTED_EDGE ( 'NONE', *, *, #211, .F. ) ;
#436 = MANIFOLD_SOLID_BREP ( 'Cut-Extrude5', #584 ) ;
#437 = ADVANCED_FACE ( 'NONE', ( #408 ), #537, .F. ) ;
#438 = DIRECTION ( 'NONE',  ( -0.000000000000000000, 0.000000000000000000, 1.000000000000000000 ) ) ;
#439 = ADVANCED_FACE ( 'NONE', ( #692 ), #637, .F. ) ;
#440 = DIRECTION ( 'NONE',  ( 0.000000000000000000, 0.000000000000000000, 1.000000000000000000 ) ) ;
#441 = VECTOR ( 'NONE', #678, 100.0000000000000142 ) ;
#442 = PLANE ( 'NONE',  #255 ) ;
#443 = VECTOR ( 'NONE', #328, 100.0000000000000000 ) ;
#444 = CARTESIAN_POINT ( 'NONE',  ( 2.000000000000000444, 1.500000000000000666, 0.3175000000000000044 ) ) ;
#445 = EDGE_CURVE ( 'NONE', #254, #694, #259, .T. ) ;
#446 = EDGE_CURVE ( 'NONE', #359, #298, #27, .T. ) ;
#447 = CARTESIAN_POINT ( 'NONE',  ( -16.63499999999999801, 1.364999999999996438, 0.6350000000000000089 ) ) ;
#448 = PLANE ( 'NONE',  #403 ) ;
#449 = DIRECTION ( 'NONE',  ( -1.000000000000000000, 0.000000000000000000, 0.000000000000000000 ) ) ;
#450 = VERTEX_POINT ( 'NONE', #295 ) ;
#451 = DIRECTION ( 'NONE',  ( 2.385670792109557660E-16, -1.000000000000000000, 0.000000000000000000 ) ) ;
#452 = CARTESIAN_POINT ( 'NONE',  ( -1.500000000000000222, 2.000000000000000444, 0.000000000000000000 ) ) ;
#453 = EDGE_CURVE ( 'NONE', #293, #618, #520, .T. ) ;
#454 = AXIS2_PLACEMENT_3D ( 'NONE', #567, #449, #510 ) ;
#455 = ORIENTED_EDGE ( 'NONE', *, *, #31, .F. ) ;
#456 = ORIENTED_EDGE ( 'NONE', *, *, #164, .T. ) ;
#457 = LINE ( 'NONE', #452, #43 ) ;
#458 = VERTEX_POINT ( 'NONE', #632 ) ;
#459 = CARTESIAN_POINT ( 'NONE',  ( 1.364999999999999991, 2.000000000000001776, 0.3175000000000000044 ) ) ;
#460 = EDGE_LOOP ( 'NONE', ( #148, #550, #607, #291, #605, #321 ) ) ;
#461 = EDGE_CURVE ( 'NONE', #172, #522, #129, .T. ) ;
#462 = DIRECTION ( 'NONE',  ( -0.000000000000000000, 0.000000000000000000, 1.000000000000000000 ) ) ;
#463 = ORIENTED_EDGE ( 'NONE', *, *, #257, .F. ) ;
#464 = VECTOR ( 'NONE', #77, 100.0000000000000000 ) ;
#465 = VERTEX_POINT ( 'NONE', #150 ) ;
#466 = AXIS2_PLACEMENT_3D ( 'NONE', #74, #689, #368 ) ;
#467 = DIRECTION ( 'NONE',  ( -2.312964634635742957E-16, 1.000000000000000000, 0.000000000000000000 ) ) ;
#468 = DIRECTION ( 'NONE',  ( 0.000000000000000000, 0.000000000000000000, 1.000000000000000000 ) ) ;
#469 = EDGE_CURVE ( 'NONE', #645, #542, #651, .T. ) ;
#470 = VERTEX_POINT ( 'NONE', #553 ) ;
#471 = LINE ( 'NONE', #307, #685 ) ;
#472 = DIRECTION ( 'NONE',  ( 0.000000000000000000, 0.000000000000000000, 1.000000000000000000 ) ) ;
#473 = EDGE_LOOP ( 'NONE', ( #9, #237, #297, #573 ) ) ;
#474 = DIRECTION ( 'NONE',  ( 0.000000000000000000, -1.000000000000000000, 0.000000000000000000 ) ) ;
#475 = ADVANCED_FACE ( 'NONE', ( #603 ), #156, .T. ) ;
#476 = VERTEX_POINT ( 'NONE', #263 ) ;
#477 = VECTOR ( 'NONE', #462, 100.0000000000000000 ) ;
#478 = AXIS2_PLACEMENT_3D ( 'NONE', #404, #582, #193 ) ;
#479 = ORIENTED_EDGE ( 'NONE', *, *, #544, .F. ) ;
#480 = LINE ( 'NONE', #199, #490 ) ;
#481 = CARTESIAN_POINT ( 'NONE',  ( -2.000000000000000000, -1.500000000000000888, 0.6350000000000000089 ) ) ;
#482 = DIRECTION ( 'NONE',  ( 0.000000000000000000, 1.000000000000000000, 0.000000000000000000 ) ) ;
#483 = ORIENTED_EDGE ( 'NONE', *, *, #340, .F. ) ;
#484 = ORIENTED_EDGE ( 'NONE', *, *, #411, .T. ) ;
#485 = CARTESIAN_POINT ( 'NONE',  ( -0.7679571668975722076, 1.199999999999999956, 0.6350000000000000089 ) ) ;
#486 = EDGE_CURVE ( 'NONE', #588, #458, #361, .T. ) ;
#487 = ORIENTED_EDGE ( 'NONE', *, *, #325, .T. ) ;
#488 = CARTESIAN_POINT ( 'NONE',  ( 1.364999999999995328, 16.63499999999999801, 0.6350000000000000089 ) ) ;
#489 = EDGE_LOOP ( 'NONE', ( #421, #675, #415, #649, #137 ) ) ;
#490 = VECTOR ( 'NONE', #426, 100.0000000000000142 ) ;
#491 =( GEOMETRIC_REPRESENTATION_CONTEXT ( 3 ) GLOBAL_UNCERTAINTY_ASSIGNED_CONTEXT ( ( #213 ) ) GLOBAL_UNIT_ASSIGNED_CONTEXT ( ( #593, #23, #577 ) ) REPRESENTATION_CONTEXT ( 'NONE', 'WORKASPACE' ) );
#492 = EDGE_CURVE ( 'NONE', #534, #542, #381, .T. ) ;
#493 = LINE ( 'NONE', #721, #216 ) ;
#494 = PLANE ( 'NONE',  #714 ) ;
#495 = FACE_OUTER_BOUND ( 'NONE', #572, .T. ) ;
#496 = EDGE_CURVE ( 'NONE', #158, #250, #493, .T. ) ;
#497 = ADVANCED_FACE ( 'NONE', ( #606, #664 ), #40, .T. ) ;
#498 = DIRECTION ( 'NONE',  ( 1.301042606982605074E-16, -1.000000000000000000, 0.000000000000000000 ) ) ;
#499 = VECTOR ( 'NONE', #252, 100.0000000000000000 ) ;
#500 = DIRECTION ( 'NONE',  ( 0.000000000000000000, 0.000000000000000000, 1.000000000000000000 ) ) ;
#501 = VECTOR ( 'NONE', #142, 100.0000000000000000 ) ;
#502 = DIRECTION ( 'NONE',  ( 0.000000000000000000, -1.000000000000000000, 0.000000000000000000 ) ) ;
#503 = DIRECTION ( 'NONE',  ( 0.000000000000000000, 0.000000000000000000, -1.000000000000000000 ) ) ;
#504 = DIRECTION ( 'NONE',  ( 0.000000000000000000, -1.000000000000000000, 0.000000000000000000 ) ) ;
#505 = FACE_OUTER_BOUND ( 'NONE', #677, .T. ) ;
#506 = DIRECTION ( 'NONE',  ( 3.067291018426574134E-16, -1.000000000000000000, 0.000000000000000000 ) ) ;
#507 = ORIENTED_EDGE ( 'NONE', *, *, #446, .T. ) ;
#508 = LINE ( 'NONE', #227, #499 ) ;
#509 = ORIENTED_EDGE ( 'NONE', *, *, #51, .F. ) ;
#510 = DIRECTION ( 'NONE',  ( 0.000000000000000000, -1.000000000000000000, 0.000000000000000000 ) ) ;
#511 = VECTOR ( 'NONE', #333, 100.0000000000000000 ) ;
#512 = EDGE_LOOP ( 'NONE', ( #355, #94, #583, #330 ) ) ;
#513 = DIRECTION ( 'NONE',  ( 1.000000000000000000, 0.000000000000000000, 0.000000000000000000 ) ) ;
#514 = ORIENTED_EDGE ( 'NONE', *, *, #423, .F. ) ;
#515 = EDGE_LOOP ( 'NONE', ( #484, #420, #622, #231 ) ) ;
#516 = DIRECTION ( 'NONE',  ( 0.000000000000000000, 0.000000000000000000, -1.000000000000000000 ) ) ;
#517 = ORIENTED_EDGE ( 'NONE', *, *, #445, .F. ) ;
#518 = PRODUCT_DEFINITION ( 'UNKNOWN', '', #419, #569 ) ;
#519 = VERTEX_POINT ( 'NONE', #717 ) ;
#520 = LINE ( 'NONE', #238, #627 ) ;
#521 = DIRECTION ( 'NONE',  ( 1.000000000000000000, 0.000000000000000000, 0.000000000000000000 ) ) ;
#522 = VERTEX_POINT ( 'NONE', #485 ) ;
#523 = AXIS2_PLACEMENT_3D ( 'NONE', #348, #342, #160 ) ;
#524 = DIRECTION ( 'NONE',  ( -0.000000000000000000, 0.000000000000000000, 1.000000000000000000 ) ) ;
#525 = CARTESIAN_POINT ( 'NONE',  ( -1.500000000000000222, 2.000000000000000444, 0.6350000000000000089 ) ) ;
#526 = VERTEX_POINT ( 'NONE', #386 ) ;
#527 = LINE ( 'NONE', #22, #3 ) ;
#528 = DIRECTION ( 'NONE',  ( 4.818676322157798361E-16, -1.000000000000000000, 0.000000000000000000 ) ) ;
#529 = FACE_BOUND ( 'NONE', #246, .T. ) ;
#530 = ORIENTED_EDGE ( 'NONE', *, *, #586, .T. ) ;
#531 = DIRECTION ( 'NONE',  ( 0.000000000000000000, -1.000000000000000000, 0.000000000000000000 ) ) ;
#532 = DIRECTION ( 'NONE',  ( 1.000000000000000000, 0.000000000000000000, 0.000000000000000000 ) ) ;
#533 = LINE ( 'NONE', #136, #384 ) ;
#534 = VERTEX_POINT ( 'NONE', #660 ) ;
#535 = CARTESIAN_POINT ( 'NONE',  ( 0.7679571668975722076, 1.199999999999999956, 0.1349999999999999534 ) ) ;
#536 = VECTOR ( 'NONE', #352, 100.0000000000000000 ) ;
#537 = PLANE ( 'NONE',  #270 ) ;
#538 = AXIS2_PLACEMENT_3D ( 'NONE', #413, #18, #188 ) ;
#539 = ORIENTED_EDGE ( 'NONE', *, *, #318, .T. ) ;
#540 = LINE ( 'NONE', #202, #432 ) ;
#541 = LINE ( 'NONE', #668, #54 ) ;
#542 = VERTEX_POINT ( 'NONE', #49 ) ;
#543 = DIRECTION ( 'NONE',  ( -0.5000000000000042188, 0.8660254037844362651, -0.000000000000000000 ) ) ;
#544 = EDGE_CURVE ( 'NONE', #628, #476, #268, .T. ) ;
#545 = ORIENTED_EDGE ( 'NONE', *, *, #575, .T. ) ;
#546 = DIRECTION ( 'NONE',  ( -0.000000000000000000, 0.000000000000000000, 1.000000000000000000 ) ) ;
#547 = LINE ( 'NONE', #266, #120 ) ;
#548 = VECTOR ( 'NONE', #114, 100.0000000000000000 ) ;
#549 = DIRECTION ( 'NONE',  ( 0.000000000000000000, -1.000000000000000000, 0.000000000000000000 ) ) ;
#550 = ORIENTED_EDGE ( 'NONE', *, *, #106, .T. ) ;
#551 = FACE_OUTER_BOUND ( 'NONE', #225, .T. ) ;
#552 = EDGE_CURVE ( 'NONE', #130, #645, #98, .T. ) ;
#553 = CARTESIAN_POINT ( 'NONE',  ( -0.7679571668975722076, 1.199999999999999956, 0.1349999999999999534 ) ) ;
#554 = CARTESIAN_POINT ( 'NONE',  ( -1.500000000000000222, 2.000000000000000444, 0.3175000000000000044 ) ) ;
#555 = FACE_OUTER_BOUND ( 'NONE', #512, .T. ) ;
#556 = CARTESIAN_POINT ( 'NONE',  ( -2.000000000000000888, 1.364999999999999991, 0.000000000000000000 ) ) ;
#557 = CIRCLE ( 'NONE', #338, 2.500000000000000000 ) ;
#558 = LINE ( 'NONE', #623, #418 ) ;
#559 = VECTOR ( 'NONE', #69, 100.0000000000000000 ) ;
#560 = DIRECTION ( 'NONE',  ( 0.000000000000000000, 1.000000000000000000, 0.000000000000000000 ) ) ;
#561 = ORIENTED_EDGE ( 'NONE', *, *, #635, .T. ) ;
#562 = DIRECTION ( 'NONE',  ( 1.000000000000000000, 2.312964634635742957E-16, 0.000000000000000000 ) ) ;
#563 = ORIENTED_EDGE ( 'NONE', *, *, #696, .T. ) ;
#564 = LINE ( 'NONE', #397, #315 ) ;
#565 = ADVANCED_FACE ( 'NONE', ( #272 ), #494, .F. ) ;
#566 = ORIENTED_EDGE ( 'NONE', *, *, #360, .T. ) ;
#567 = CARTESIAN_POINT ( 'NONE',  ( 2.000000000000000444, 1.500000000000000666, 0.000000000000000000 ) ) ;
#568 = ORIENTED_EDGE ( 'NONE', *, *, #277, .T. ) ;
#569 = PRODUCT_DEFINITION_CONTEXT ( 'detailed design', #695, 'design' ) ;
#570 = ORIENTED_EDGE ( 'NONE', *, *, #149, .T. ) ;
#571 = AXIS2_PLACEMENT_3D ( 'NONE', #189, #638, #482 ) ;
#572 = EDGE_LOOP ( 'NONE', ( #563, #396, #310, #25, #119, #661 ) ) ;
#573 = ORIENTED_EDGE ( 'NONE', *, *, #170, .T. ) ;
#574 = ADVANCED_FACE ( 'NONE', ( #203 ), #434, .F. ) ;
#575 = EDGE_CURVE ( 'NONE', #410, #172, #95, .T. ) ;
#576 = EDGE_LOOP ( 'NONE', ( #568, #393, #579, #683 ) ) ;
#577 =( NAMED_UNIT ( * ) SI_UNIT ( $, .STERADIAN. ) SOLID_ANGLE_UNIT ( ) );
#578 = CARTESIAN_POINT ( 'NONE',  ( 2.000000000000000444, 1.364999999999998437, 0.000000000000000000 ) ) ;
#579 = ORIENTED_EDGE ( 'NONE', *, *, #48, .F. ) ;
#580 = ORIENTED_EDGE ( 'NONE', *, *, #390, .F. ) ;
#581 = DIRECTION ( 'NONE',  ( -0.000000000000000000, 0.000000000000000000, 1.000000000000000000 ) ) ;
#582 = DIRECTION ( 'NONE',  ( 0.000000000000000000, 0.000000000000000000, 1.000000000000000000 ) ) ;
#583 = ORIENTED_EDGE ( 'NONE', *, *, #126, .F. ) ;
#584 = CLOSED_SHELL ( 'NONE', ( #317, #497, #642, #205, #220, #707, #716, #20, #439, #574, #624, #405, #437, #672, #262, #347, #565, #311, #6, #157, #159, #475 ) ) ;
#585 = LINE ( 'NONE', #372, #75 ) ;
#586 = EDGE_CURVE ( 'NONE', #250, #172, #611, .T. ) ;
#587 = VECTOR ( 'NONE', #438, 100.0000000000000000 ) ;
#588 = VERTEX_POINT ( 'NONE', #271 ) ;
#589 = CARTESIAN_POINT ( 'NONE',  ( 1.364999999999999991, 1.364999999999998215, 0.3175000000000000044 ) ) ;
#590 = LINE ( 'NONE', #702, #723 ) ;
#591 = ORIENTED_EDGE ( 'NONE', *, *, #282, .F. ) ;
#592 = PLANE ( 'NONE',  #269 ) ;
#593 =( LENGTH_UNIT ( ) NAMED_UNIT ( * ) SI_UNIT ( .CENTI., .METRE. ) );
#594 = CARTESIAN_POINT ( 'NONE',  ( 0.000000000000000000, 0.000000000000000000, 0.000000000000000000 ) ) ;
#595 = ORIENTED_EDGE ( 'NONE', *, *, #277, .F. ) ;
#596 = EDGE_CURVE ( 'NONE', #152, #400, #210, .T. ) ;
#597 = LINE ( 'NONE', #709, #656 ) ;
#598 = CARTESIAN_POINT ( 'NONE',  ( -1.364999999999999991, 16.63499999999999801, 0.3175000000000000044 ) ) ;
#599 = AXIS2_PLACEMENT_3D ( 'NONE', #248, #308, #33 ) ;
#600 = ORIENTED_EDGE ( 'NONE', *, *, #149, .F. ) ;
#601 = EDGE_CURVE ( 'NONE', #679, #639, #373, .T. ) ;
#602 = LINE ( 'NONE', #691, #301 ) ;
#603 = FACE_OUTER_BOUND ( 'NONE', #306, .T. ) ;
#604 = DIRECTION ( 'NONE',  ( 1.000000000000000000, 2.385670792109557660E-16, 0.000000000000000000 ) ) ;
#605 = ORIENTED_EDGE ( 'NONE', *, *, #234, .F. ) ;
#606 = FACE_BOUND ( 'NONE', #303, .T. ) ;
#607 = ORIENTED_EDGE ( 'NONE', *, *, #170, .F. ) ;
#608 = PRODUCT_DEFINITION_SHAPE ( 'NONE', 'NONE',  #518 ) ;
#609 = DIRECTION ( 'NONE',  ( 1.000000000000000000, 1.249637081581196951E-16, 0.000000000000000000 ) ) ;
#610 = EDGE_CURVE ( 'NONE', #190, #358, #541, .T. ) ;
#611 = LINE ( 'NONE', #657, #443 ) ;
#612 = FACE_OUTER_BOUND ( 'NONE', #84, .T. ) ;
#613 = CARTESIAN_POINT ( 'NONE',  ( 0.7679571668975722076, 1.199999999999999956, 0.1349999999999999534 ) ) ;
#614 = CARTESIAN_POINT ( 'NONE',  ( 0.000000000000000000, 0.000000000000000000, 0.3175000000000000044 ) ) ;
#615 = DIRECTION ( 'NONE',  ( 0.000000000000000000, 0.000000000000000000, -1.000000000000000000 ) ) ;
#616 = AXIS2_PLACEMENT_3D ( 'NONE', #377, #379, #549 ) ;
#617 = EDGE_CURVE ( 'NONE', #174, #326, #388, .T. ) ;
#618 = VERTEX_POINT ( 'NONE', #52 ) ;
#619 = CARTESIAN_POINT ( 'NONE',  ( 0.4100000000000000311, 2.000000000000000444, 0.6350000000000000089 ) ) ;
#620 = LINE ( 'NONE', #391, #548 ) ;
#621 = ORIENTED_EDGE ( 'NONE', *, *, #299, .T. ) ;
#622 = ORIENTED_EDGE ( 'NONE', *, *, #669, .F. ) ;
#623 = CARTESIAN_POINT ( 'NONE',  ( -2.000000000000000888, 1.499999999999999112, 0.000000000000000000 ) ) ;
#624 = ADVANCED_FACE ( 'NONE', ( #555 ), #279, .F. ) ;
#625 = VERTEX_POINT ( 'NONE', #217 ) ;
#626 = VECTOR ( 'NONE', #503, 100.0000000000000000 ) ;
#627 = VECTOR ( 'NONE', #688, 100.0000000000000000 ) ;
#628 = VERTEX_POINT ( 'NONE', #19 ) ;
#629 = CARTESIAN_POINT ( 'NONE',  ( -1.364999999999998215, 2.000000000000001776, 0.6350000000000000089 ) ) ;
#630 = ORIENTED_EDGE ( 'NONE', *, *, #461, .T. ) ;
#631 = ORIENTED_EDGE ( 'NONE', *, *, #696, .F. ) ;
#632 = CARTESIAN_POINT ( 'NONE',  ( 3.673940397442060115E-17, 0.3000000000000000444, 0.000000000000000000 ) ) ;
#633 = FACE_OUTER_BOUND ( 'NONE', #515, .T. ) ;
#634 = ORIENTED_EDGE ( 'NONE', *, *, #423, .T. ) ;
#635 = EDGE_CURVE ( 'NONE', #115, #39, #392, .T. ) ;
#636 = PLANE ( 'NONE',  #226 ) ;
#637 = PLANE ( 'NONE',  #599 ) ;
#638 = DIRECTION ( 'NONE',  ( 0.000000000000000000, 0.000000000000000000, -1.000000000000000000 ) ) ;
#639 = VERTEX_POINT ( 'NONE', #629 ) ;
#640 = DIRECTION ( 'NONE',  ( -1.249637081581196951E-16, 1.000000000000000000, -0.000000000000000000 ) ) ;
#641 = AXIS2_PLACEMENT_3D ( 'NONE', #186, #472, #357 ) ;
#642 = ADVANCED_FACE ( 'NONE', ( #529, #83 ), #14, .F. ) ;
#643 = LINE ( 'NONE', #698, #207 ) ;
#644 = CARTESIAN_POINT ( 'NONE',  ( 0.7679571668975722076, 1.199999999999999956, 0.6350000000000000089 ) ) ;
#645 = VERTEX_POINT ( 'NONE', #644 ) ;
#646 = LINE ( 'NONE', #589, #464 ) ;
#647 = LINE ( 'NONE', #13, #53 ) ;
#648 = DIRECTION ( 'NONE',  ( 0.000000000000000000, -1.000000000000000000, 0.000000000000000000 ) ) ;
#649 = ORIENTED_EDGE ( 'NONE', *, *, #369, .F. ) ;
#650 = CARTESIAN_POINT ( 'NONE',  ( 0.7679571668975722076, 1.199999999999999956, 0.1349999999999999534 ) ) ;
#651 = LINE ( 'NONE', #44, #278 ) ;
#652 = EDGE_CURVE ( 'NONE', #639, #250, #302, .T. ) ;
#653 = ORIENTED_EDGE ( 'NONE', *, *, #224, .F. ) ;
#654 = PRODUCT_RELATED_PRODUCT_CATEGORY ( 'part', '', ( #718 ) ) ;
#655 = DIRECTION ( 'NONE',  ( 1.000000000000000000, 1.931257307898213426E-16, 0.000000000000000000 ) ) ;
#656 = VECTOR ( 'NONE', #531, 100.0000000000000000 ) ;
#657 = CARTESIAN_POINT ( 'NONE',  ( -0.4100000000000000311, 2.000000000000000444, 0.6350000000000000089 ) ) ;
#658 = VECTOR ( 'NONE', #79, 100.0000000000000000 ) ;
#659 = ORIENTED_EDGE ( 'NONE', *, *, #31, .T. ) ;
#660 = CARTESIAN_POINT ( 'NONE',  ( 0.4099999999999999201, 1.820000000000000506, 0.1349999999999999534 ) ) ;
#661 = ORIENTED_EDGE ( 'NONE', *, *, #51, .T. ) ;
#662 = APPLICATION_CONTEXT ( 'automotive_design' ) ;
#663 = CARTESIAN_POINT ( 'NONE',  ( 0.4099999999999999201, 1.820000000000000506, 0.1349999999999999534 ) ) ;
#664 = FACE_OUTER_BOUND ( 'NONE', #15, .T. ) ;
#665 = VECTOR ( 'NONE', #196, 100.0000000000000000 ) ;
#666 = VECTOR ( 'NONE', #710, 100.0000000000000000 ) ;
#667 = DIRECTION ( 'NONE',  ( 0.000000000000000000, 0.000000000000000000, -1.000000000000000000 ) ) ;
#668 = CARTESIAN_POINT ( 'NONE',  ( 0.4100000000000000311, 2.000000000000000444, 0.1349999999999999534 ) ) ;
#669 = EDGE_CURVE ( 'NONE', #684, #174, #309, .T. ) ;
#670 = PLANE ( 'NONE',  #454 ) ;
#671 = CARTESIAN_POINT ( 'NONE',  ( -16.63499999999999801, 1.364999999999996438, 0.3175000000000000044 ) ) ;
#672 = ADVANCED_FACE ( 'NONE', ( #245 ), #132, .T. ) ;
#673 = ORIENTED_EDGE ( 'NONE', *, *, #544, .T. ) ;
#674 = FACE_OUTER_BOUND ( 'NONE', #194, .T. ) ;
#675 = ORIENTED_EDGE ( 'NONE', *, *, #104, .T. ) ;
#676 = CARTESIAN_POINT ( 'NONE',  ( 0.000000000000000000, -0.3000000000000000444, 0.000000000000000000 ) ) ;
#677 = EDGE_LOOP ( 'NONE', ( #128, #67, #591, #378 ) ) ;
#678 = DIRECTION ( 'NONE',  ( -0.5000000000000042188, -0.8660254037844362651, 0.000000000000000000 ) ) ;
#679 = VERTEX_POINT ( 'NONE', #34 ) ;
#680 = EDGE_CURVE ( 'NONE', #465, #59, #533, .T. ) ;
#681 = PLANE ( 'NONE',  #61 ) ;
#682 = ORIENTED_EDGE ( 'NONE', *, *, #496, .T. ) ;
#683 = ORIENTED_EDGE ( 'NONE', *, *, #492, .T. ) ;
#684 = VERTEX_POINT ( 'NONE', #28 ) ;
#685 = VECTOR ( 'NONE', #247, 100.0000000000000000 ) ;
#686 = AXIS2_PLACEMENT_3D ( 'NONE', #153, #440, #93 ) ;
#687 = ORIENTED_EDGE ( 'NONE', *, *, #182, .F. ) ;
#688 = DIRECTION ( 'NONE',  ( 3.067291018426574134E-16, -1.000000000000000000, 0.000000000000000000 ) ) ;
#689 = DIRECTION ( 'NONE',  ( 0.000000000000000000, 0.000000000000000000, 1.000000000000000000 ) ) ;
#690 = EDGE_LOOP ( 'NONE', ( #530, #88, #407, #682 ) ) ;
#691 = CARTESIAN_POINT ( 'NONE',  ( 0.4100000000000000311, 2.000000000000000444, 0.1349999999999999534 ) ) ;
#692 = FACE_OUTER_BOUND ( 'NONE', #576, .T. ) ;
#693 = CYLINDRICAL_SURFACE ( 'NONE', #571, 2.500000000000000000 ) ;
#694 = VERTEX_POINT ( 'NONE', #354 ) ;
#695 = APPLICATION_CONTEXT ( 'automotive_design' ) ;
#696 = EDGE_CURVE ( 'NONE', #526, #152, #253, .T. ) ;
#697 = LINE ( 'NONE', #704, #665 ) ;
#698 = CARTESIAN_POINT ( 'NONE',  ( 1.499999999999999778, 2.000000000000000444, 0.000000000000000000 ) ) ;
#699 = AXIS2_PLACEMENT_3D ( 'NONE', #163, #280, #504 ) ;
#700 = VECTOR ( 'NONE', #345, 100.0000000000000000 ) ;
#701 = DIRECTION ( 'NONE',  ( -1.000000000000000000, 0.000000000000000000, 0.000000000000000000 ) ) ;
#702 = CARTESIAN_POINT ( 'NONE',  ( -1.999999999999999112, -0.6000000000000003109, 0.6350000000000000089 ) ) ;
#703 = ORIENTED_EDGE ( 'NONE', *, *, #264, .T. ) ;
#704 = CARTESIAN_POINT ( 'NONE',  ( -1.500000000000000222, 2.000000000000000444, 0.3175000000000000044 ) ) ;
#705 = EDGE_CURVE ( 'NONE', #39, #115, #339, .T. ) ;
#706 = SURFACE_STYLE_USAGE ( .BOTH. , #200 ) ;
#707 = ADVANCED_FACE ( 'NONE', ( #633 ), #87, .T. ) ;
#708 = ORIENTED_EDGE ( 'NONE', *, *, #178, .T. ) ;
#709 = CARTESIAN_POINT ( 'NONE',  ( 2.000000000000000444, 1.500000000000000666, 0.6350000000000000089 ) ) ;
#710 = DIRECTION ( 'NONE',  ( 3.067291018426574134E-16, -1.000000000000000000, 0.000000000000000000 ) ) ;
#711 = ORIENTED_EDGE ( 'NONE', *, *, #492, .F. ) ;
#712 = VECTOR ( 'NONE', #640, 100.0000000000000000 ) ;
#713 = CARTESIAN_POINT ( 'NONE',  ( 0.7679571668975722076, 1.199999999999999956, 0.1349999999999999534 ) ) ;
#714 = AXIS2_PLACEMENT_3D ( 'NONE', #598, #609, #208 ) ;
#715 = EDGE_LOOP ( 'NONE', ( #630, #580, #191, #545 ) ) ;
#716 = ADVANCED_FACE ( 'NONE', ( #124 ), #693, .T. ) ;
#717 = CARTESIAN_POINT ( 'NONE',  ( -1.500000000000000222, 2.000000000000000444, 0.3175000000000000044 ) ) ;
#718 = PRODUCT ( 'vertex-single_60', 'vertex-single_60', '', ( #151 ) ) ;
#719 = CARTESIAN_POINT ( 'NONE',  ( 2.000000000000001776, -0.5999999999999998668, 0.000000000000000000 ) ) ;
#720 = DIRECTION ( 'NONE',  ( 0.000000000000000000, -1.000000000000000000, 0.000000000000000000 ) ) ;
#721 = CARTESIAN_POINT ( 'NONE',  ( -0.4100000000000000311, 2.000000000000000444, 0.1349999999999999534 ) ) ;
#722 = AXIS2_PLACEMENT_3D ( 'NONE', #727, #169, #506 ) ;
#723 = VECTOR ( 'NONE', #300, 100.0000000000000000 ) ;
#724 = CARTESIAN_POINT ( 'NONE',  ( -0.4100000000000000311, 2.000000000000000444, 0.6350000000000000089 ) ) ;
#725 = LINE ( 'NONE', #167, #536 ) ;
#726 = EDGE_CURVE ( 'NONE', #326, #346, #140, .T. ) ;
#727 = CARTESIAN_POINT ( 'NONE',  ( 1.364999999999995328, 16.63499999999999801, 0.3175000000000000044 ) ) ;
ENDSEC;
END-ISO-10303-21;
