ISO-10303-21;
HEADER;
FILE_DESCRIPTION (( 'STEP AP214' ),
    '1' );
FILE_NAME ('vertex-spacer_61.STEP',
    '2026-06-16T01:09:36',
    ( '' ),
    ( '' ),
    'SwSTEP 2.0',
    'SolidWorks 2023',
    '' );
FILE_SCHEMA (( 'AUTOMOTIVE_DESIGN' ));
ENDSEC;

DATA;
#1 =( NAMED_UNIT ( * ) SI_UNIT ( $, .STERADIAN. ) SOLID_ANGLE_UNIT ( ) );
#2 = FACE_OUTER_BOUND ( 'NONE', #347, .T. ) ;
#3 = SURFACE_STYLE_USAGE ( .BOTH. , #111 ) ;
#4 = COLOUR_RGB ( '',0.7921568627450980005, 0.8196078431372548767, 0.9333333333333333481 ) ;
#5 = EDGE_CURVE ( 'NONE', #22, #191, #20, .T. ) ;
#6 = CARTESIAN_POINT ( 'NONE',  ( 0.5999999999999999778, -0.9049999999999999156, 0.8400000000000000799 ) ) ;
#7 = DIRECTION ( 'NONE',  ( 0.000000000000000000, 0.000000000000000000, -1.000000000000000000 ) ) ;
#8 = LINE ( 'NONE', #63, #225 ) ;
#9 = EDGE_CURVE ( 'NONE', #205, #78, #179, .T. ) ;
#10 = ORIENTED_EDGE ( 'NONE', *, *, #230, .F. ) ;
#11 = LINE ( 'NONE', #248, #115 ) ;
#12 = EDGE_CURVE ( 'NONE', #235, #22, #249, .T. ) ;
#13 = VECTOR ( 'NONE', #79, 100.0000000000000000 ) ;
#14 = FACE_OUTER_BOUND ( 'NONE', #182, .T. ) ;
#15 = VERTEX_POINT ( 'NONE', #297 ) ;
#16 = CARTESIAN_POINT ( 'NONE',  ( 0.5999999999999999778, -0.5999999999999998668, 0.8400000000000000799 ) ) ;
#17 = ORIENTED_EDGE ( 'NONE', *, *, #112, .F. ) ;
#18 = AXIS2_PLACEMENT_3D ( 'NONE', #27, #194, #29 ) ;
#19 = CARTESIAN_POINT ( 'NONE',  ( 0.5999999999999999778, -0.5999999999999998668, 0.5999999999999998668 ) ) ;
#20 = LINE ( 'NONE', #317, #120 ) ;
#21 = ORIENTED_EDGE ( 'NONE', *, *, #293, .F. ) ;
#22 = VERTEX_POINT ( 'NONE', #243 ) ;
#23 = CIRCLE ( 'NONE', #240, 0.3049999999999999933 ) ;
#24 = CARTESIAN_POINT ( 'NONE',  ( 0.000000000000000000, 0.000000000000000000, 0.000000000000000000 ) ) ;
#25 = CARTESIAN_POINT ( 'NONE',  ( 0.5999999999999999778, -0.9049999999999999156, 0.8400000000000000799 ) ) ;
#26 =( LENGTH_UNIT ( ) NAMED_UNIT ( * ) SI_UNIT ( .CENTI., .METRE. ) );
#27 = CARTESIAN_POINT ( 'NONE',  ( 0.5999999999999999778, -0.5999999999999998668, 0.8400000000000000799 ) ) ;
#28 = AXIS2_PLACEMENT_3D ( 'NONE', #48, #46, #41 ) ;
#29 = DIRECTION ( 'NONE',  ( 0.000000000000000000, 1.000000000000000000, 0.000000000000000000 ) ) ;
#30 = LINE ( 'NONE', #302, #66 ) ;
#31 = VECTOR ( 'NONE', #274, 100.0000000000000000 ) ;
#32 = AXIS2_PLACEMENT_3D ( 'NONE', #16, #119, #259 ) ;
#33 = CARTESIAN_POINT ( 'NONE',  ( 0.000000000000000000, 1.734723475976807094E-16, 2.456110868240981571 ) ) ;
#34 = CYLINDRICAL_SURFACE ( 'NONE', #269, 0.3049999999999999933 ) ;
#35 = ORIENTED_EDGE ( 'NONE', *, *, #54, .T. ) ;
#36 = FACE_OUTER_BOUND ( 'NONE', #341, .T. ) ;
#37 = FACE_OUTER_BOUND ( 'NONE', #296, .T. ) ;
#38 = ORIENTED_EDGE ( 'NONE', *, *, #264, .T. ) ;
#39 = ORIENTED_EDGE ( 'NONE', *, *, #140, .F. ) ;
#40 = SHAPE_DEFINITION_REPRESENTATION ( #102, #99 ) ;
#41 = DIRECTION ( 'NONE',  ( -0.9731387067013589354, 0.000000000000000000, -0.2302195854387859286 ) ) ;
#42 = EDGE_LOOP ( 'NONE', ( #286, #144, #57, #200 ) ) ;
#43 = PRODUCT_DEFINITION_CONTEXT ( 'detailed design', #70, 'design' ) ;
#44 = ORIENTED_EDGE ( 'NONE', *, *, #58, .F. ) ;
#45 = ADVANCED_FACE ( 'NONE', ( #245, #104 ), #212, .F. ) ;
#46 = DIRECTION ( 'NONE',  ( 0.2302195854387859286, 0.000000000000000000, -0.9731387067013589354 ) ) ;
#47 = CIRCLE ( 'NONE', #295, 0.3049999999999999933 ) ;
#48 = CARTESIAN_POINT ( 'NONE',  ( 1.199999999999999956, -1.200000000000000178, 2.740000000000000213 ) ) ;
#49 = DIRECTION ( 'NONE',  ( 0.000000000000000000, -1.000000000000000000, 0.000000000000000000 ) ) ;
#50 = CARTESIAN_POINT ( 'NONE',  ( 0.5999999999999999778, -0.2949999999999998734, 2.598055434120490226 ) ) ;
#51 = LINE ( 'NONE', #195, #238 ) ;
#52 = VECTOR ( 'NONE', #306, 100.0000000000000000 ) ;
#53 = AXIS2_PLACEMENT_3D ( 'NONE', #253, #226, #279 ) ;
#54 = EDGE_CURVE ( 'NONE', #239, #22, #101, .T. ) ;
#55 = CARTESIAN_POINT ( 'NONE',  ( -0.01000000000000002623, -0.9049999999999996936, 2.453745125476322730 ) ) ;
#56 = FACE_OUTER_BOUND ( 'NONE', #336, .T. ) ;
#57 = ORIENTED_EDGE ( 'NONE', *, *, #300, .T. ) ;
#58 = EDGE_CURVE ( 'NONE', #78, #272, #322, .T. ) ;
#59 = CARTESIAN_POINT ( 'NONE',  ( 1.209999999999999742, -0.2949999999999998179, 2.742365742764658609 ) ) ;
#60 = ORIENTED_EDGE ( 'NONE', *, *, #328, .T. ) ;
#61 = ADVANCED_FACE ( 'NONE', ( #2 ), #183, .F. ) ;
#62 = CARTESIAN_POINT ( 'NONE',  ( 1.199999999999999956, 1.734723475976807094E-16, 2.740000000000000213 ) ) ;
#63 = CARTESIAN_POINT ( 'NONE',  ( 1.199999999999999956, 1.734723475976807094E-16, 0.000000000000000000 ) ) ;
#64 =( BOUNDED_CURVE ( )  B_SPLINE_CURVE ( 3, ( #117, #308, #59, #285 ),
 .UNSPECIFIED., .F., .T. ) 
 B_SPLINE_CURVE_WITH_KNOTS ( ( 4, 4 ),
 ( 4.712388980384689674, 7.853981633974482790 ),
 .UNSPECIFIED. ) 
 CURVE ( )  GEOMETRIC_REPRESENTATION_ITEM ( )  RATIONAL_B_SPLINE_CURVE ( ( 1.000000000000000000, 0.3333333333333333703, 0.3333333333333333703, 1.000000000000000000 ) ) 
 REPRESENTATION_ITEM ( '' )  );
#65 = ORIENTED_EDGE ( 'NONE', *, *, #9, .T. ) ;
#66 = VECTOR ( 'NONE', #325, 100.0000000000000000 ) ;
#67 = AXIS2_PLACEMENT_3D ( 'NONE', #257, #163, #68 ) ;
#68 = DIRECTION ( 'NONE',  ( 0.000000000000000000, 1.000000000000000000, -0.000000000000000000 ) ) ;
#69 = ORIENTED_EDGE ( 'NONE', *, *, #152, .T. ) ;
#70 = APPLICATION_CONTEXT ( 'automotive_design' ) ;
#71 = EDGE_CURVE ( 'NONE', #15, #239, #98, .T. ) ;
#72 = CARTESIAN_POINT ( 'NONE',  ( 0.005999999999999999258, -0.005999999999999998390, 0.02740000000000000074 ) ) ;
#73 = ORIENTED_EDGE ( 'NONE', *, *, #5, .F. ) ;
#74 = CARTESIAN_POINT ( 'NONE',  ( 0.5999999999999999778, -0.9049999999999999156, 0.5999999999999998668 ) ) ;
#75 = ORIENTED_EDGE ( 'NONE', *, *, #140, .T. ) ;
#76 =( GEOMETRIC_REPRESENTATION_CONTEXT ( 3 ) GLOBAL_UNCERTAINTY_ASSIGNED_CONTEXT ( ( #96 ) ) GLOBAL_UNIT_ASSIGNED_CONTEXT ( ( #26, #281, #255 ) ) REPRESENTATION_CONTEXT ( 'NONE', 'WORKASPACE' ) );
#77 = PRODUCT ( 'vertex-spacer_61', 'vertex-spacer_61', '', ( #106 ) ) ;
#78 = VERTEX_POINT ( 'NONE', #6 ) ;
#79 = DIRECTION ( 'NONE',  ( 0.000000000000000000, 0.000000000000000000, 1.000000000000000000 ) ) ;
#80 = DIRECTION ( 'NONE',  ( -0.000000000000000000, -0.000000000000000000, 1.000000000000000000 ) ) ;
#81 = ORIENTED_EDGE ( 'NONE', *, *, #217, .T. ) ;
#82 = AXIS2_PLACEMENT_3D ( 'NONE', #338, #311, #332 ) ;
#83 = DIRECTION ( 'NONE',  ( 0.000000000000000000, 0.000000000000000000, -1.000000000000000000 ) ) ;
#84 = CARTESIAN_POINT ( 'NONE',  ( 0.5999999999999999778, -0.5999999999999998668, 0.000000000000000000 ) ) ;
#85 = CARTESIAN_POINT ( 'NONE',  ( 0.5999999999999999778, -0.5999999999999998668, 0.5999999999999998668 ) ) ;
#86 = ORIENTED_EDGE ( 'NONE', *, *, #247, .T. ) ;
#87 = CARTESIAN_POINT ( 'NONE',  ( 1.199999999999999956, 1.734723475976807094E-16, 0.000000000000000000 ) ) ;
#88 = AXIS2_PLACEMENT_3D ( 'NONE', #178, #105, #294 ) ;
#89 = DIRECTION ( 'NONE',  ( 0.000000000000000000, 1.000000000000000000, 0.000000000000000000 ) ) ;
#90 = LINE ( 'NONE', #94, #121 ) ;
#91 = DIRECTION ( 'NONE',  ( -0.9731387067013589354, 0.000000000000000000, -0.2302195854387859009 ) ) ;
#92 = ORIENTED_EDGE ( 'NONE', *, *, #5, .T. ) ;
#93 = DIRECTION ( 'NONE',  ( -1.000000000000000000, -1.445602896647338917E-16, 0.000000000000000000 ) ) ;
#94 = CARTESIAN_POINT ( 'NONE',  ( 0.000000000000000000, 0.000000000000000000, 0.000000000000000000 ) ) ;
#95 = ORIENTED_EDGE ( 'NONE', *, *, #131, .F. ) ;
#96 = UNCERTAINTY_MEASURE_WITH_UNIT (LENGTH_MEASURE( 1.000000000000000082E-05 ), #26, 'distance_accuracy_value', 'NONE');
#97 = CARTESIAN_POINT ( 'NONE',  ( 0.000000000000000000, -1.200000000000000178, 2.456110868240981571 ) ) ;
#98 = LINE ( 'NONE', #87, #109 ) ;
#99 = ADVANCED_BREP_SHAPE_REPRESENTATION ( 'vertex-spacer_61', ( #176, #232 ), #123 ) ;
#100 = PLANE ( 'NONE',  #180 ) ;
#101 = LINE ( 'NONE', #215, #31 ) ;
#102 = PRODUCT_DEFINITION_SHAPE ( 'NONE', 'NONE',  #301 ) ;
#103 = EDGE_CURVE ( 'NONE', #239, #324, #190, .T. ) ;
#104 = FACE_OUTER_BOUND ( 'NONE', #258, .T. ) ;
#105 = DIRECTION ( 'NONE',  ( 0.000000000000000000, 0.000000000000000000, -1.000000000000000000 ) ) ;
#106 = PRODUCT_CONTEXT ( 'NONE', #326, 'mechanical' ) ;
#107 = VERTEX_POINT ( 'NONE', #331 ) ;
#108 = FILL_AREA_STYLE_COLOUR ( '', #4 ) ;
#109 = VECTOR ( 'NONE', #49, 100.0000000000000000 ) ;
#110 = DIRECTION ( 'NONE',  ( 0.000000000000000000, 0.000000000000000000, -1.000000000000000000 ) ) ;
#111 = SURFACE_SIDE_STYLE ('',( #224 ) ) ;
#112 = EDGE_CURVE ( 'NONE', #315, #15, #30, .T. ) ;
#113 = CARTESIAN_POINT ( 'NONE',  ( 0.000000000000000000, 0.000000000000000000, 0.000000000000000000 ) ) ;
#114 = CARTESIAN_POINT ( 'NONE',  ( 0.5999999999999999778, -0.9049999999999999156, 0.5999999999999998668 ) ) ;
#115 = VECTOR ( 'NONE', #174, 100.0000000000000000 ) ;
#116 = PLANE ( 'NONE',  #82 ) ;
#117 = CARTESIAN_POINT ( 'NONE',  ( 0.5999999999999999778, -0.9049999999999999156, 2.598055434120490226 ) ) ;
#118 = ORIENTED_EDGE ( 'NONE', *, *, #300, .F. ) ;
#119 = DIRECTION ( 'NONE',  ( 0.000000000000000000, 0.000000000000000000, 1.000000000000000000 ) ) ;
#120 = VECTOR ( 'NONE', #321, 100.0000000000000000 ) ;
#121 = VECTOR ( 'NONE', #197, 100.0000000000000000 ) ;
#122 = ADVANCED_FACE ( 'NONE', ( #250 ), #329, .F. ) ;
#123 =( GEOMETRIC_REPRESENTATION_CONTEXT ( 3 ) GLOBAL_UNCERTAINTY_ASSIGNED_CONTEXT ( ( #288 ) ) GLOBAL_UNIT_ASSIGNED_CONTEXT ( ( #207, #323, #1 ) ) REPRESENTATION_CONTEXT ( 'NONE', 'WORKASPACE' ) );
#124 = CARTESIAN_POINT ( 'NONE',  ( 0.5999999999999999778, -0.2949999999999998734, 0.8400000000000000799 ) ) ;
#125 = EDGE_CURVE ( 'NONE', #261, #107, #142, .T. ) ;
#126 = CARTESIAN_POINT ( 'NONE',  ( 0.5999999999999999778, -0.5999999999999998668, 0.5999999999999998668 ) ) ;
#127 = ORIENTED_EDGE ( 'NONE', *, *, #71, .T. ) ;
#128 = LINE ( 'NONE', #74, #199 ) ;
#129 = ORIENTED_EDGE ( 'NONE', *, *, #169, .F. ) ;
#130 = ORIENTED_EDGE ( 'NONE', *, *, #125, .F. ) ;
#131 = EDGE_CURVE ( 'NONE', #191, #298, #51, .T. ) ;
#132 = CARTESIAN_POINT ( 'NONE',  ( 1.199999999999999956, 1.734723475976807094E-16, 2.740000000000000213 ) ) ;
#133 = AXIS2_PLACEMENT_3D ( 'NONE', #166, #289, #231 ) ;
#134 = DIRECTION ( 'NONE',  ( 1.000000000000000000, 0.000000000000000000, 0.000000000000000000 ) ) ;
#135 = EDGE_CURVE ( 'NONE', #78, #205, #283, .T. ) ;
#136 = ORIENTED_EDGE ( 'NONE', *, *, #189, .F. ) ;
#137 = AXIS2_PLACEMENT_3D ( 'NONE', #304, #83, #157 ) ;
#138 = LINE ( 'NONE', #330, #220 ) ;
#139 = DIRECTION ( 'NONE',  ( 0.000000000000000000, 1.000000000000000000, 0.000000000000000000 ) ) ;
#140 = EDGE_CURVE ( 'NONE', #153, #272, #192, .T. ) ;
#141 = PLANE ( 'NONE',  #148 ) ;
#142 = CIRCLE ( 'NONE', #137, 0.3049999999999999933 ) ;
#143 = DIRECTION ( 'NONE',  ( -0.000000000000000000, -0.000000000000000000, 1.000000000000000000 ) ) ;
#144 = ORIENTED_EDGE ( 'NONE', *, *, #184, .F. ) ;
#145 = DIRECTION ( 'NONE',  ( 0.000000000000000000, 0.000000000000000000, -1.000000000000000000 ) ) ;
#146 = CARTESIAN_POINT ( 'NONE',  ( 1.199999999999999956, -1.200000000000000178, 0.000000000000000000 ) ) ;
#147 = ORIENTED_EDGE ( 'NONE', *, *, #184, .T. ) ;
#148 = AXIS2_PLACEMENT_3D ( 'NONE', #307, #7, #335 ) ;
#149 = DIRECTION ( 'NONE',  ( 0.000000000000000000, 0.000000000000000000, -1.000000000000000000 ) ) ;
#150 = CARTESIAN_POINT ( 'NONE',  ( 0.000000000000000000, -1.199999999999999956, 0.000000000000000000 ) ) ;
#151 = EDGE_LOOP ( 'NONE', ( #21, #39 ) ) ;
#152 = EDGE_CURVE ( 'NONE', #205, #153, #138, .T. ) ;
#153 = VERTEX_POINT ( 'NONE', #50 ) ;
#154 = EDGE_LOOP ( 'NONE', ( #218, #65, #265, #208 ) ) ;
#155 = ORIENTED_EDGE ( 'NONE', *, *, #54, .F. ) ;
#156 = VERTEX_POINT ( 'NONE', #114 ) ;
#157 = DIRECTION ( 'NONE',  ( 0.000000000000000000, 1.000000000000000000, 0.000000000000000000 ) ) ;
#158 = ADVANCED_FACE ( 'NONE', ( #277 ), #162, .F. ) ;
#159 = DIRECTION ( 'NONE',  ( 0.000000000000000000, 0.000000000000000000, -1.000000000000000000 ) ) ;
#160 = CARTESIAN_POINT ( 'NONE',  ( -0.01000000000000002623, -0.2949999999999998734, 2.453745125476322730 ) ) ;
#161 = PRODUCT_RELATED_PRODUCT_CATEGORY ( 'part', '', ( #77 ) ) ;
#162 = CYLINDRICAL_SURFACE ( 'NONE', #53, 0.3050000000000000488 ) ;
#163 = DIRECTION ( 'NONE',  ( -1.000000000000000000, 0.000000000000000000, 0.000000000000000000 ) ) ;
#164 = AXIS2_PLACEMENT_3D ( 'NONE', #85, #159, #89 ) ;
#165 = ORIENTED_EDGE ( 'NONE', *, *, #169, .T. ) ;
#166 = CARTESIAN_POINT ( 'NONE',  ( 0.5999999999999999778, -0.5999999999999998668, 0.000000000000000000 ) ) ;
#167 = ORIENTED_EDGE ( 'NONE', *, *, #9, .F. ) ;
#168 = FACE_BOUND ( 'NONE', #268, .T. ) ;
#169 = EDGE_CURVE ( 'NONE', #324, #315, #282, .T. ) ;
#170 = PLANE ( 'NONE',  #133 ) ;
#171 = ORIENTED_EDGE ( 'NONE', *, *, #12, .F. ) ;
#172 = DIRECTION ( 'NONE',  ( 1.445602896647338917E-16, -1.000000000000000000, 0.000000000000000000 ) ) ;
#173 = ORIENTED_EDGE ( 'NONE', *, *, #125, .T. ) ;
#174 = DIRECTION ( 'NONE',  ( 0.000000000000000000, 0.000000000000000000, -1.000000000000000000 ) ) ;
#175 = ORIENTED_EDGE ( 'NONE', *, *, #337, .T. ) ;
#176 = MANIFOLD_SOLID_BREP ( 'Cut-Extrude3', #246 ) ;
#177 = APPLICATION_PROTOCOL_DEFINITION ( 'draft international standard', 'automotive_design', 1998, #70 ) ;
#178 = CARTESIAN_POINT ( 'NONE',  ( 0.5999999999999999778, -0.5999999999999998668, 0.8400000000000000799 ) ) ;
#179 = CIRCLE ( 'NONE', #88, 0.3049999999999999933 ) ;
#180 = AXIS2_PLACEMENT_3D ( 'NONE', #19, #344, #270 ) ;
#181 = FACE_OUTER_BOUND ( 'NONE', #271, .T. ) ;
#182 = EDGE_LOOP ( 'NONE', ( #165, #210, #127, #284 ) ) ;
#183 = PLANE ( 'NONE',  #213 ) ;
#184 = EDGE_CURVE ( 'NONE', #276, #156, #23, .T. ) ;
#185 = CARTESIAN_POINT ( 'NONE',  ( 0.000000000000000000, -1.199999999999999956, 0.000000000000000000 ) ) ;
#186 = ORIENTED_EDGE ( 'NONE', *, *, #337, .F. ) ;
#187 = CARTESIAN_POINT ( 'NONE',  ( 1.199999999999999956, -1.200000000000000178, 0.000000000000000000 ) ) ;
#188 = CARTESIAN_POINT ( 'NONE',  ( 0.5999999999999999778, -0.2949999999999998734, 2.598055434120490226 ) ) ;
#189 = EDGE_CURVE ( 'NONE', #107, #261, #314, .T. ) ;
#190 = LINE ( 'NONE', #187, #52 ) ;
#191 = VERTEX_POINT ( 'NONE', #97 ) ;
#192 =( BOUNDED_CURVE ( )  B_SPLINE_CURVE ( 3, ( #188, #160, #55, #278 ),
 .UNSPECIFIED., .F., .F. ) 
 B_SPLINE_CURVE_WITH_KNOTS ( ( 4, 4 ),
 ( 1.570796326794896780, 4.712388980384689674 ),
 .UNSPECIFIED. ) 
 CURVE ( )  GEOMETRIC_REPRESENTATION_ITEM ( )  RATIONAL_B_SPLINE_CURVE ( ( 1.000000000000000000, 0.3333333333333333703, 0.3333333333333333703, 1.000000000000000000 ) ) 
 REPRESENTATION_ITEM ( '' )  );
#193 = VECTOR ( 'NONE', #80, 100.0000000000000000 ) ;
#194 = DIRECTION ( 'NONE',  ( 0.000000000000000000, 0.000000000000000000, -1.000000000000000000 ) ) ;
#195 = CARTESIAN_POINT ( 'NONE',  ( 0.000000000000000000, -1.200000000000000178, 2.456110868240981571 ) ) ;
#196 = ADVANCED_FACE ( 'NONE', ( #36 ), #309, .F. ) ;
#197 = DIRECTION ( 'NONE',  ( -0.000000000000000000, -0.000000000000000000, 1.000000000000000000 ) ) ;
#198 = DIRECTION ( 'NONE',  ( 0.000000000000000000, 1.000000000000000000, 0.000000000000000000 ) ) ;
#199 = VECTOR ( 'NONE', #216, 100.0000000000000000 ) ;
#200 = ORIENTED_EDGE ( 'NONE', *, *, #189, .T. ) ;
#201 = ADVANCED_FACE ( 'NONE', ( #168, #14 ), #170, .T. ) ;
#202 = CARTESIAN_POINT ( 'NONE',  ( 1.199999999999999956, 1.734723475976807094E-16, 2.740000000000000213 ) ) ;
#203 = DIRECTION ( 'NONE',  ( 0.000000000000000000, 0.000000000000000000, -1.000000000000000000 ) ) ;
#204 = DIRECTION ( 'NONE',  ( 0.000000000000000000, 1.000000000000000000, 0.000000000000000000 ) ) ;
#205 = VERTEX_POINT ( 'NONE', #124 ) ;
#206 = PRODUCT_DEFINITION_FORMATION_WITH_SPECIFIED_SOURCE ( 'ANY', '', #77, .NOT_KNOWN. ) ;
#207 =( LENGTH_UNIT ( ) NAMED_UNIT ( * ) SI_UNIT ( .CENTI., .METRE. ) );
#208 = ORIENTED_EDGE ( 'NONE', *, *, #293, .T. ) ;
#209 = ADVANCED_FACE ( 'NONE', ( #37 ), #333, .F. ) ;
#210 = ORIENTED_EDGE ( 'NONE', *, *, #112, .T. ) ;
#211 = LINE ( 'NONE', #150, #193 ) ;
#212 = PLANE ( 'NONE',  #28 ) ;
#213 = AXIS2_PLACEMENT_3D ( 'NONE', #24, #134, #342 ) ;
#214 = DIRECTION ( 'NONE',  ( 0.000000000000000000, 1.000000000000000000, -0.000000000000000000 ) ) ;
#215 = CARTESIAN_POINT ( 'NONE',  ( 1.199999999999999956, -1.200000000000000178, 0.000000000000000000 ) ) ;
#216 = DIRECTION ( 'NONE',  ( 0.000000000000000000, 0.000000000000000000, -1.000000000000000000 ) ) ;
#217 = EDGE_CURVE ( 'NONE', #156, #276, #47, .T. ) ;
#218 = ORIENTED_EDGE ( 'NONE', *, *, #152, .F. ) ;
#219 = PRESENTATION_STYLE_ASSIGNMENT (( #3 ) ) ;
#220 = VECTOR ( 'NONE', #305, 100.0000000000000000 ) ;
#221 = AXIS2_PLACEMENT_3D ( 'NONE', #84, #203, #198 ) ;
#222 = DIRECTION ( 'NONE',  ( 0.000000000000000000, 1.000000000000000000, 0.000000000000000000 ) ) ;
#223 = ADVANCED_FACE ( 'NONE', ( #227 ), #141, .F. ) ;
#224 = SURFACE_STYLE_FILL_AREA ( #254 ) ;
#225 = VECTOR ( 'NONE', #143, 100.0000000000000000 ) ;
#226 = DIRECTION ( 'NONE',  ( 0.000000000000000000, 0.000000000000000000, 1.000000000000000000 ) ) ;
#227 = FACE_OUTER_BOUND ( 'NONE', #334, .T. ) ;
#228 = FACE_OUTER_BOUND ( 'NONE', #42, .T. ) ;
#229 = ORIENTED_EDGE ( 'NONE', *, *, #103, .F. ) ;
#230 = EDGE_CURVE ( 'NONE', #235, #298, #287, .T. ) ;
#231 = DIRECTION ( 'NONE',  ( 0.000000000000000000, 1.000000000000000000, 0.000000000000000000 ) ) ;
#232 = AXIS2_PLACEMENT_3D ( 'NONE', #72, #214, #242 ) ;
#233 = ORIENTED_EDGE ( 'NONE', *, *, #71, .F. ) ;
#234 = DIRECTION ( 'NONE',  ( 0.000000000000000000, 1.000000000000000000, 0.000000000000000000 ) ) ;
#235 = VERTEX_POINT ( 'NONE', #202 ) ;
#236 = CARTESIAN_POINT ( 'NONE',  ( 0.5999999999999999778, -0.2949999999999998734, 0.5999999999999998668 ) ) ;
#237 = ORIENTED_EDGE ( 'NONE', *, *, #135, .F. ) ;
#238 = VECTOR ( 'NONE', #327, 100.0000000000000000 ) ;
#239 = VERTEX_POINT ( 'NONE', #146 ) ;
#240 = AXIS2_PLACEMENT_3D ( 'NONE', #251, #110, #222 ) ;
#241 = DIRECTION ( 'NONE',  ( 0.000000000000000000, -1.000000000000000000, 0.000000000000000000 ) ) ;
#242 = DIRECTION ( 'NONE',  ( 1.000000000000000000, 0.000000000000000000, -0.000000000000000000 ) ) ;
#243 = CARTESIAN_POINT ( 'NONE',  ( 1.199999999999999956, -1.200000000000000178, 2.740000000000000213 ) ) ;
#244 = ADVANCED_FACE ( 'NONE', ( #260 ), #116, .F. ) ;
#245 = FACE_BOUND ( 'NONE', #151, .T. ) ;
#246 = CLOSED_SHELL ( 'NONE', ( #122, #209, #61, #196, #280, #244, #201, #45, #158, #223, #273, #303 ) ) ;
#247 = EDGE_CURVE ( 'NONE', #15, #235, #8, .T. ) ;
#248 = CARTESIAN_POINT ( 'NONE',  ( 0.5999999999999999778, -0.2949999999999998734, 0.5999999999999998668 ) ) ;
#249 = LINE ( 'NONE', #132, #319 ) ;
#250 = FACE_OUTER_BOUND ( 'NONE', #310, .T. ) ;
#251 = CARTESIAN_POINT ( 'NONE',  ( 0.5999999999999999778, -0.5999999999999998668, 0.5999999999999998668 ) ) ;
#252 = PRESENTATION_LAYER_ASSIGNMENT (  '', '', ( #275 ) ) ;
#253 = CARTESIAN_POINT ( 'NONE',  ( 0.5999999999999999778, -0.5999999999999998668, 0.8400000000000000799 ) ) ;
#254 = FILL_AREA_STYLE ('',( #108 ) ) ;
#255 =( NAMED_UNIT ( * ) SI_UNIT ( $, .STERADIAN. ) SOLID_ANGLE_UNIT ( ) );
#256 = CARTESIAN_POINT ( 'NONE',  ( 0.5999999999999999778, -0.5999999999999998668, 0.5999999999999998668 ) ) ;
#257 = CARTESIAN_POINT ( 'NONE',  ( 1.199999999999999956, 1.734723475976807094E-16, 0.000000000000000000 ) ) ;
#258 = EDGE_LOOP ( 'NONE', ( #95, #73, #171, #316 ) ) ;
#259 = DIRECTION ( 'NONE',  ( 0.000000000000000000, -1.000000000000000000, 0.000000000000000000 ) ) ;
#260 = FACE_OUTER_BOUND ( 'NONE', #343, .T. ) ;
#261 = VERTEX_POINT ( 'NONE', #262 ) ;
#262 = CARTESIAN_POINT ( 'NONE',  ( 0.5999999999999999778, -0.9049999999999999156, 0.000000000000000000 ) ) ;
#263 = ORIENTED_EDGE ( 'NONE', *, *, #12, .T. ) ;
#264 = EDGE_CURVE ( 'NONE', #315, #298, #90, .T. ) ;
#265 = ORIENTED_EDGE ( 'NONE', *, *, #58, .T. ) ;
#266 = CARTESIAN_POINT ( 'NONE',  ( 0.000000000000000000, 0.000000000000000000, 0.000000000000000000 ) ) ;
#267 = VECTOR ( 'NONE', #139, 100.0000000000000000 ) ;
#268 = EDGE_LOOP ( 'NONE', ( #136, #130 ) ) ;
#269 = AXIS2_PLACEMENT_3D ( 'NONE', #126, #145, #204 ) ;
#270 = DIRECTION ( 'NONE',  ( 0.000000000000000000, 1.000000000000000000, 0.000000000000000000 ) ) ;
#271 = EDGE_LOOP ( 'NONE', ( #147, #81 ) ) ;
#272 = VERTEX_POINT ( 'NONE', #313 ) ;
#273 = ADVANCED_FACE ( 'NONE', ( #228 ), #34, .F. ) ;
#274 = DIRECTION ( 'NONE',  ( -0.000000000000000000, -0.000000000000000000, 1.000000000000000000 ) ) ;
#275 = STYLED_ITEM ( 'NONE', ( #219 ), #176 ) ;
#276 = VERTEX_POINT ( 'NONE', #236 ) ;
#277 = FACE_OUTER_BOUND ( 'NONE', #154, .T. ) ;
#278 = CARTESIAN_POINT ( 'NONE',  ( 0.5999999999999999778, -0.9049999999999999156, 2.598055434120490226 ) ) ;
#279 = DIRECTION ( 'NONE',  ( 0.000000000000000000, -1.000000000000000000, 0.000000000000000000 ) ) ;
#280 = ADVANCED_FACE ( 'NONE', ( #56 ), #340, .F. ) ;
#281 =( NAMED_UNIT ( * ) PLANE_ANGLE_UNIT ( ) SI_UNIT ( $, .RADIAN. ) );
#282 = LINE ( 'NONE', #113, #267 ) ;
#283 = CIRCLE ( 'NONE', #18, 0.3049999999999999933 ) ;
#284 = ORIENTED_EDGE ( 'NONE', *, *, #103, .T. ) ;
#285 = CARTESIAN_POINT ( 'NONE',  ( 0.5999999999999999778, -0.2949999999999998734, 2.598055434120490226 ) ) ;
#286 = ORIENTED_EDGE ( 'NONE', *, *, #328, .F. ) ;
#287 = LINE ( 'NONE', #62, #346 ) ;
#288 = UNCERTAINTY_MEASURE_WITH_UNIT (LENGTH_MEASURE( 1.000000000000000082E-05 ), #207, 'distance_accuracy_value', 'NONE');
#289 = DIRECTION ( 'NONE',  ( 0.000000000000000000, 0.000000000000000000, -1.000000000000000000 ) ) ;
#290 = CARTESIAN_POINT ( 'NONE',  ( 1.199999999999999956, 1.734723475976807094E-16, 0.000000000000000000 ) ) ;
#291 = ORIENTED_EDGE ( 'NONE', *, *, #264, .F. ) ;
#292 = ORIENTED_EDGE ( 'NONE', *, *, #131, .T. ) ;
#293 = EDGE_CURVE ( 'NONE', #272, #153, #64, .T. ) ;
#294 = DIRECTION ( 'NONE',  ( 0.000000000000000000, 1.000000000000000000, 0.000000000000000000 ) ) ;
#295 = AXIS2_PLACEMENT_3D ( 'NONE', #256, #149, #234 ) ;
#296 = EDGE_LOOP ( 'NONE', ( #345, #69, #75, #44 ) ) ;
#297 = CARTESIAN_POINT ( 'NONE',  ( 1.199999999999999956, 1.734723475976807094E-16, 0.000000000000000000 ) ) ;
#298 = VERTEX_POINT ( 'NONE', #33 ) ;
#299 = MECHANICAL_DESIGN_GEOMETRIC_PRESENTATION_REPRESENTATION (  '', ( #275 ), #76 ) ;
#300 = EDGE_CURVE ( 'NONE', #276, #107, #11, .T. ) ;
#301 = PRODUCT_DEFINITION ( 'UNKNOWN', '', #206, #43 ) ;
#302 = CARTESIAN_POINT ( 'NONE',  ( 1.199999999999999956, 1.734723475976807094E-16, 0.000000000000000000 ) ) ;
#303 = ADVANCED_FACE ( 'NONE', ( #181 ), #100, .T. ) ;
#304 = CARTESIAN_POINT ( 'NONE',  ( 0.5999999999999999778, -0.5999999999999998668, 0.000000000000000000 ) ) ;
#305 = DIRECTION ( 'NONE',  ( 0.000000000000000000, 0.000000000000000000, 1.000000000000000000 ) ) ;
#306 = DIRECTION ( 'NONE',  ( -1.000000000000000000, 1.445602896647338917E-16, 0.000000000000000000 ) ) ;
#307 = CARTESIAN_POINT ( 'NONE',  ( 0.5999999999999999778, -0.5999999999999998668, 0.8400000000000000799 ) ) ;
#308 = CARTESIAN_POINT ( 'NONE',  ( 1.209999999999999520, -0.9050000000000000266, 2.742365742764658609 ) ) ;
#309 = PLANE ( 'NONE',  #320 ) ;
#310 = EDGE_LOOP ( 'NONE', ( #312, #60, #173, #118 ) ) ;
#311 = DIRECTION ( 'NONE',  ( 1.445602896647338917E-16, 1.000000000000000000, 0.000000000000000000 ) ) ;
#312 = ORIENTED_EDGE ( 'NONE', *, *, #217, .F. ) ;
#313 = CARTESIAN_POINT ( 'NONE',  ( 0.5999999999999999778, -0.9049999999999999156, 2.598055434120490226 ) ) ;
#314 = CIRCLE ( 'NONE', #221, 0.3049999999999999933 ) ;
#315 = VERTEX_POINT ( 'NONE', #266 ) ;
#316 = ORIENTED_EDGE ( 'NONE', *, *, #230, .T. ) ;
#317 = CARTESIAN_POINT ( 'NONE',  ( 1.199999999999999956, -1.200000000000000178, 2.740000000000000213 ) ) ;
#318 = APPLICATION_PROTOCOL_DEFINITION ( 'draft international standard', 'automotive_design', 1998, #326 ) ;
#319 = VECTOR ( 'NONE', #241, 100.0000000000000000 ) ;
#320 = AXIS2_PLACEMENT_3D ( 'NONE', #290, #172, #93 ) ;
#321 = DIRECTION ( 'NONE',  ( -0.9731387067013589354, 0.000000000000000000, -0.2302195854387859009 ) ) ;
#322 = LINE ( 'NONE', #25, #13 ) ;
#323 =( NAMED_UNIT ( * ) PLANE_ANGLE_UNIT ( ) SI_UNIT ( $, .RADIAN. ) );
#324 = VERTEX_POINT ( 'NONE', #185 ) ;
#325 = DIRECTION ( 'NONE',  ( 1.000000000000000000, 1.445602896647338917E-16, 0.000000000000000000 ) ) ;
#326 = APPLICATION_CONTEXT ( 'automotive_design' ) ;
#327 = DIRECTION ( 'NONE',  ( 0.000000000000000000, 1.000000000000000000, 0.000000000000000000 ) ) ;
#328 = EDGE_CURVE ( 'NONE', #156, #261, #128, .T. ) ;
#329 = CYLINDRICAL_SURFACE ( 'NONE', #164, 0.3049999999999999933 ) ;
#330 = CARTESIAN_POINT ( 'NONE',  ( 0.5999999999999999778, -0.2949999999999998734, 0.8400000000000000799 ) ) ;
#331 = CARTESIAN_POINT ( 'NONE',  ( 0.5999999999999999778, -0.2949999999999998734, 0.000000000000000000 ) ) ;
#332 = DIRECTION ( 'NONE',  ( 1.000000000000000000, -1.445602896647338917E-16, 0.000000000000000000 ) ) ;
#333 = CYLINDRICAL_SURFACE ( 'NONE', #32, 0.3050000000000000488 ) ;
#334 = EDGE_LOOP ( 'NONE', ( #237, #167 ) ) ;
#335 = DIRECTION ( 'NONE',  ( 0.000000000000000000, 1.000000000000000000, 0.000000000000000000 ) ) ;
#336 = EDGE_LOOP ( 'NONE', ( #263, #155, #233, #86 ) ) ;
#337 = EDGE_CURVE ( 'NONE', #324, #191, #211, .T. ) ;
#338 = CARTESIAN_POINT ( 'NONE',  ( 1.199999999999999956, -1.200000000000000178, 0.000000000000000000 ) ) ;
#339 = ORIENTED_EDGE ( 'NONE', *, *, #247, .F. ) ;
#340 = PLANE ( 'NONE',  #67 ) ;
#341 = EDGE_LOOP ( 'NONE', ( #38, #10, #339, #17 ) ) ;
#342 = DIRECTION ( 'NONE',  ( 0.000000000000000000, -1.000000000000000000, 0.000000000000000000 ) ) ;
#343 = EDGE_LOOP ( 'NONE', ( #35, #92, #186, #229 ) ) ;
#344 = DIRECTION ( 'NONE',  ( 0.000000000000000000, 0.000000000000000000, -1.000000000000000000 ) ) ;
#345 = ORIENTED_EDGE ( 'NONE', *, *, #135, .T. ) ;
#346 = VECTOR ( 'NONE', #91, 100.0000000000000000 ) ;
#347 = EDGE_LOOP ( 'NONE', ( #175, #292, #291, #129 ) ) ;
ENDSEC;
END-ISO-10303-21;
