ISO-10303-21;
HEADER;
FILE_DESCRIPTION (( 'STEP AP214' ),
    '1' );
FILE_NAME ('vertex-single_62.STEP',
    '2026-06-10T13:07:56',
    ( '' ),
    ( '' ),
    'SwSTEP 2.0',
    'SolidWorks 2023',
    '' );
FILE_SCHEMA (( 'AUTOMOTIVE_DESIGN' ));
ENDSEC;

DATA;
#1 = VERTEX_POINT ( 'NONE', #188 ) ;
#2 = DIRECTION ( 'NONE',  ( -0.000000000000000000, 0.000000000000000000, 1.000000000000000000 ) ) ;
#3 = VECTOR ( 'NONE', #333, 100.0000000000000000 ) ;
#4 = VECTOR ( 'NONE', #121, 100.0000000000000000 ) ;
#5 = AXIS2_PLACEMENT_3D ( 'NONE', #524, #61, #21 ) ;
#6 = EDGE_CURVE ( 'NONE', #323, #80, #294, .T. ) ;
#7 = DIRECTION ( 'NONE',  ( 1.000000000000000000, 1.931257307898213426E-16, 0.000000000000000000 ) ) ;
#8 = DIRECTION ( 'NONE',  ( 1.000000000000000000, 0.000000000000000000, 0.000000000000000000 ) ) ;
#9 = DIRECTION ( 'NONE',  ( 0.000000000000000000, 0.000000000000000000, 1.000000000000000000 ) ) ;
#10 = LINE ( 'NONE', #299, #63 ) ;
#11 = ORIENTED_EDGE ( 'NONE', *, *, #285, .F. ) ;
#12 = DIRECTION ( 'NONE',  ( 0.000000000000000000, 1.000000000000000000, 0.000000000000000000 ) ) ;
#13 = ORIENTED_EDGE ( 'NONE', *, *, #451, .T. ) ;
#14 = CARTESIAN_POINT ( 'NONE',  ( 0.4100000000000000311, 2.000000000000000444, 0.6350000000000000089 ) ) ;
#15 = DIRECTION ( 'NONE',  ( 0.000000000000000000, 1.000000000000000000, 0.000000000000000000 ) ) ;
#16 = CARTESIAN_POINT ( 'NONE',  ( 1.364999999999999991, 2.000000000000001776, 0.6350000000000000089 ) ) ;
#17 = EDGE_CURVE ( 'NONE', #470, #271, #177, .T. ) ;
#18 = VECTOR ( 'NONE', #176, 100.0000000000000000 ) ;
#19 = VECTOR ( 'NONE', #402, 100.0000000000000000 ) ;
#20 = LINE ( 'NONE', #247, #19 ) ;
#21 = DIRECTION ( 'NONE',  ( 1.000000000000000000, 0.000000000000000000, 0.000000000000000000 ) ) ;
#22 = ORIENTED_EDGE ( 'NONE', *, *, #422, .T. ) ;
#23 = EDGE_CURVE ( 'NONE', #570, #456, #686, .T. ) ;
#24 = DIRECTION ( 'NONE',  ( 0.000000000000000000, -1.000000000000000000, 0.000000000000000000 ) ) ;
#25 = ADVANCED_FACE ( 'NONE', ( #354 ), #679, .F. ) ;
#26 = FACE_OUTER_BOUND ( 'NONE', #145, .T. ) ;
#27 = DIRECTION ( 'NONE',  ( -1.000000000000000000, -1.301042606982605074E-16, 0.000000000000000000 ) ) ;
#28 = ORIENTED_EDGE ( 'NONE', *, *, #611, .F. ) ;
#29 = CARTESIAN_POINT ( 'NONE',  ( 0.000000000000000000, 0.000000000000000000, 0.6350000000000000089 ) ) ;
#30 = VECTOR ( 'NONE', #528, 100.0000000000000000 ) ;
#31 = DIRECTION ( 'NONE',  ( 0.000000000000000000, -1.000000000000000000, 0.000000000000000000 ) ) ;
#32 = VECTOR ( 'NONE', #179, 100.0000000000000000 ) ;
#33 = AXIS2_PLACEMENT_3D ( 'NONE', #60, #511, #8 ) ;
#34 = LINE ( 'NONE', #489, #606 ) ;
#35 = VERTEX_POINT ( 'NONE', #632 ) ;
#36 = DIRECTION ( 'NONE',  ( 1.301042606982605074E-16, -1.000000000000000000, 0.000000000000000000 ) ) ;
#37 = CARTESIAN_POINT ( 'NONE',  ( 2.000000000000001776, 1.364999999999998437, 0.6350000000000000089 ) ) ;
#38 = ORIENTED_EDGE ( 'NONE', *, *, #561, .T. ) ;
#39 = FACE_OUTER_BOUND ( 'NONE', #369, .T. ) ;
#40 = CARTESIAN_POINT ( 'NONE',  ( 0.000000000000000000, 0.000000000000000000, 0.6350000000000000089 ) ) ;
#41 = ORIENTED_EDGE ( 'NONE', *, *, #451, .F. ) ;
#42 = EDGE_CURVE ( 'NONE', #320, #577, #357, .T. ) ;
#43 = DIRECTION ( 'NONE',  ( 1.931257307898213426E-16, -1.000000000000000000, 0.000000000000000000 ) ) ;
#44 = VECTOR ( 'NONE', #251, 100.0000000000000000 ) ;
#45 = DIRECTION ( 'NONE',  ( 0.000000000000000000, 0.000000000000000000, -1.000000000000000000 ) ) ;
#46 = EDGE_LOOP ( 'NONE', ( #161, #107, #517, #275 ) ) ;
#47 = ORIENTED_EDGE ( 'NONE', *, *, #649, .T. ) ;
#48 = DIRECTION ( 'NONE',  ( -2.312964634635742957E-16, 1.000000000000000000, 0.000000000000000000 ) ) ;
#49 = ORIENTED_EDGE ( 'NONE', *, *, #82, .T. ) ;
#50 = DIRECTION ( 'NONE',  ( 3.067291018426574134E-16, -1.000000000000000000, 0.000000000000000000 ) ) ;
#51 = ORIENTED_EDGE ( 'NONE', *, *, #42, .F. ) ;
#52 = EDGE_CURVE ( 'NONE', #669, #462, #20, .T. ) ;
#53 = AXIS2_PLACEMENT_3D ( 'NONE', #40, #433, #699 ) ;
#54 = VECTOR ( 'NONE', #48, 100.0000000000000000 ) ;
#55 = FACE_OUTER_BOUND ( 'NONE', #395, .T. ) ;
#56 = EDGE_LOOP ( 'NONE', ( #389, #277, #203, #586 ) ) ;
#57 = DIRECTION ( 'NONE',  ( 0.000000000000000000, 0.000000000000000000, 1.000000000000000000 ) ) ;
#58 = ORIENTED_EDGE ( 'NONE', *, *, #126, .T. ) ;
#59 = PLANE ( 'NONE',  #697 ) ;
#60 = CARTESIAN_POINT ( 'NONE',  ( 0.7679571668975722076, 1.199999999999999956, 0.1349999999999999534 ) ) ;
#61 = DIRECTION ( 'NONE',  ( 0.000000000000000000, -1.000000000000000000, 0.000000000000000000 ) ) ;
#62 = VECTOR ( 'NONE', #338, 100.0000000000000000 ) ;
#63 = VECTOR ( 'NONE', #342, 100.0000000000000000 ) ;
#64 = VECTOR ( 'NONE', #376, 100.0000000000000000 ) ;
#65 = ADVANCED_FACE ( 'NONE', ( #468 ), #565, .F. ) ;
#66 = LINE ( 'NONE', #117, #198 ) ;
#67 = ORIENTED_EDGE ( 'NONE', *, *, #150, .F. ) ;
#68 = DIRECTION ( 'NONE',  ( 0.000000000000000000, -1.000000000000000000, 0.000000000000000000 ) ) ;
#69 = ORIENTED_EDGE ( 'NONE', *, *, #467, .T. ) ;
#70 = DIRECTION ( 'NONE',  ( 0.000000000000000000, -1.000000000000000000, 0.000000000000000000 ) ) ;
#71 = EDGE_LOOP ( 'NONE', ( #206, #110, #477, #545, #331, #13 ) ) ;
#72 = ADVANCED_FACE ( 'NONE', ( #235, #180 ), #399, .F. ) ;
#73 = CARTESIAN_POINT ( 'NONE',  ( -2.000000000000000888, 1.499999999999999334, 0.000000000000000000 ) ) ;
#74 = ORIENTED_EDGE ( 'NONE', *, *, #415, .T. ) ;
#75 = PLANE ( 'NONE',  #373 ) ;
#76 = ADVANCED_FACE ( 'NONE', ( #543 ), #650, .T. ) ;
#77 = VECTOR ( 'NONE', #634, 100.0000000000000000 ) ;
#78 = VECTOR ( 'NONE', #452, 100.0000000000000000 ) ;
#79 = AXIS2_PLACEMENT_3D ( 'NONE', #209, #36, #193 ) ;
#80 = VERTEX_POINT ( 'NONE', #92 ) ;
#81 = CARTESIAN_POINT ( 'NONE',  ( -0.4099999999999999201, 1.820000000000000506, 0.6350000000000000089 ) ) ;
#82 = EDGE_CURVE ( 'NONE', #720, #35, #482, .T. ) ;
#83 = CARTESIAN_POINT ( 'NONE',  ( -1.500000000000000222, 2.000000000000000444, 0.6350000000000000089 ) ) ;
#84 = LINE ( 'NONE', #265, #579 ) ;
#85 = ORIENTED_EDGE ( 'NONE', *, *, #312, .F. ) ;
#86 = CARTESIAN_POINT ( 'NONE',  ( -0.4100000000000000311, 2.000000000000000444, 0.1349999999999999534 ) ) ;
#87 = ADVANCED_FACE ( 'NONE', ( #143 ), #264, .F. ) ;
#88 = PLANE ( 'NONE',  #327 ) ;
#89 = LINE ( 'NONE', #96, #593 ) ;
#90 = EDGE_LOOP ( 'NONE', ( #67, #506 ) ) ;
#91 = STYLED_ITEM ( 'NONE', ( #443 ), #478 ) ;
#92 = CARTESIAN_POINT ( 'NONE',  ( 2.000000000000000000, 1.500000000000000222, 0.3175000000000000044 ) ) ;
#93 = LINE ( 'NONE', #420, #500 ) ;
#94 = EDGE_LOOP ( 'NONE', ( #51, #11, #538, #348 ) ) ;
#95 = CARTESIAN_POINT ( 'NONE',  ( -2.000000000000000000, -1.500000000000000888, 0.000000000000000000 ) ) ;
#96 = CARTESIAN_POINT ( 'NONE',  ( -2.000000000000000888, 1.499999999999999112, 0.000000000000000000 ) ) ;
#97 = VERTEX_POINT ( 'NONE', #596 ) ;
#98 = EDGE_CURVE ( 'NONE', #660, #290, #254, .T. ) ;
#99 = LINE ( 'NONE', #474, #212 ) ;
#100 = CARTESIAN_POINT ( 'NONE',  ( 0.000000000000000000, -0.3099999999999999978, 0.6350000000000000089 ) ) ;
#101 = ORIENTED_EDGE ( 'NONE', *, *, #508, .F. ) ;
#102 = PRODUCT_RELATED_PRODUCT_CATEGORY ( 'part', '', ( #552 ) ) ;
#103 = CARTESIAN_POINT ( 'NONE',  ( 1.364999999999995328, 16.63499999999999801, 0.3175000000000000044 ) ) ;
#104 = AXIS2_PLACEMENT_3D ( 'NONE', #631, #130, #12 ) ;
#105 =( NAMED_UNIT ( * ) SI_UNIT ( $, .STERADIAN. ) SOLID_ANGLE_UNIT ( ) );
#106 = CIRCLE ( 'NONE', #231, 0.3099999999999999978 ) ;
#107 = ORIENTED_EDGE ( 'NONE', *, *, #42, .T. ) ;
#108 = ADVANCED_FACE ( 'NONE', ( #588 ), #368, .F. ) ;
#109 = LINE ( 'NONE', #556, #62 ) ;
#110 = ORIENTED_EDGE ( 'NONE', *, *, #98, .T. ) ;
#111 = EDGE_CURVE ( 'NONE', #689, #97, #707, .T. ) ;
#112 =( NAMED_UNIT ( * ) PLANE_ANGLE_UNIT ( ) SI_UNIT ( $, .RADIAN. ) );
#113 = ORIENTED_EDGE ( 'NONE', *, *, #141, .T. ) ;
#114 = FILL_AREA_STYLE ('',( #550 ) ) ;
#115 = VERTEX_POINT ( 'NONE', #703 ) ;
#116 = VECTOR ( 'NONE', #536, 100.0000000000000000 ) ;
#117 = CARTESIAN_POINT ( 'NONE',  ( 0.4099999999999999201, 1.820000000000000506, 0.1349999999999999534 ) ) ;
#118 = ORIENTED_EDGE ( 'NONE', *, *, #415, .F. ) ;
#119 = ADVANCED_FACE ( 'NONE', ( #39 ), #269, .F. ) ;
#120 = LINE ( 'NONE', #625, #18 ) ;
#121 = DIRECTION ( 'NONE',  ( -0.000000000000000000, 0.000000000000000000, 1.000000000000000000 ) ) ;
#122 = LINE ( 'NONE', #136, #442 ) ;
#123 = CARTESIAN_POINT ( 'NONE',  ( 0.000000000000000000, 0.000000000000000000, 0.3175000000000000044 ) ) ;
#124 = ORIENTED_EDGE ( 'NONE', *, *, #111, .F. ) ;
#125 = CARTESIAN_POINT ( 'NONE',  ( -1.364999999999998215, 2.000000000000001776, 0.6350000000000000089 ) ) ;
#126 = EDGE_CURVE ( 'NONE', #570, #689, #710, .T. ) ;
#127 = APPLICATION_CONTEXT ( 'automotive_design' ) ;
#128 = DIRECTION ( 'NONE',  ( 0.000000000000000000, 0.000000000000000000, 1.000000000000000000 ) ) ;
#129 = DIRECTION ( 'NONE',  ( 0.000000000000000000, 0.000000000000000000, 1.000000000000000000 ) ) ;
#130 = DIRECTION ( 'NONE',  ( 0.000000000000000000, 0.000000000000000000, -1.000000000000000000 ) ) ;
#131 = VERTEX_POINT ( 'NONE', #655 ) ;
#132 = EDGE_CURVE ( 'NONE', #229, #80, #156, .T. ) ;
#133 = ORIENTED_EDGE ( 'NONE', *, *, #285, .T. ) ;
#134 = CARTESIAN_POINT ( 'NONE',  ( 0.4099999999999999201, 1.820000000000000506, 0.1349999999999999534 ) ) ;
#135 = EDGE_LOOP ( 'NONE', ( #616, #118, #527, #352, #551, #560, #326, #635, #682, #575, #486, #140, #372, #237 ) ) ;
#136 = CARTESIAN_POINT ( 'NONE',  ( 0.4100000000000000311, 2.000000000000000444, 0.1349999999999999534 ) ) ;
#137 = AXIS2_PLACEMENT_3D ( 'NONE', #204, #57, #289 ) ;
#138 = LINE ( 'NONE', #530, #721 ) ;
#139 = LINE ( 'NONE', #426, #185 ) ;
#140 = ORIENTED_EDGE ( 'NONE', *, *, #182, .F. ) ;
#141 = EDGE_CURVE ( 'NONE', #271, #705, #692, .T. ) ;
#142 = DIRECTION ( 'NONE',  ( 4.818676322157799347E-16, 1.000000000000000000, 0.000000000000000000 ) ) ;
#143 = FACE_OUTER_BOUND ( 'NONE', #727, .T. ) ;
#144 = FACE_OUTER_BOUND ( 'NONE', #94, .T. ) ;
#145 = EDGE_LOOP ( 'NONE', ( #49, #377, #227, #501 ) ) ;
#146 = LINE ( 'NONE', #83, #413 ) ;
#147 = CARTESIAN_POINT ( 'NONE',  ( -1.500000000000000222, 2.000000000000000444, 0.3175000000000000044 ) ) ;
#148 = ORIENTED_EDGE ( 'NONE', *, *, #706, .T. ) ;
#149 = VECTOR ( 'NONE', #321, 100.0000000000000142 ) ;
#150 = EDGE_CURVE ( 'NONE', #414, #577, #224, .T. ) ;
#151 = DIRECTION ( 'NONE',  ( -2.312964634635742957E-16, 1.000000000000000000, 0.000000000000000000 ) ) ;
#152 = DIRECTION ( 'NONE',  ( -0.5000000000000042188, -0.8660254037844361541, 0.000000000000000000 ) ) ;
#153 = VERTEX_POINT ( 'NONE', #259 ) ;
#154 = APPLICATION_CONTEXT ( 'automotive_design' ) ;
#155 =( NAMED_UNIT ( * ) SI_UNIT ( $, .STERADIAN. ) SOLID_ANGLE_UNIT ( ) );
#156 = LINE ( 'NONE', #636, #695 ) ;
#157 = EDGE_CURVE ( 'NONE', #261, #323, #138, .T. ) ;
#158 = ORIENTED_EDGE ( 'NONE', *, *, #633, .F. ) ;
#159 = DIRECTION ( 'NONE',  ( 1.000000000000000000, 1.931257307898213426E-16, 0.000000000000000000 ) ) ;
#160 = CARTESIAN_POINT ( 'NONE',  ( 16.63499999999999801, 1.365000000000001101, 0.6350000000000000089 ) ) ;
#161 = ORIENTED_EDGE ( 'NONE', *, *, #334, .F. ) ;
#162 = EDGE_CURVE ( 'NONE', #131, #660, #99, .T. ) ;
#163 = PRESENTATION_LAYER_ASSIGNMENT (  '', '', ( #91 ) ) ;
#164 = CARTESIAN_POINT ( 'NONE',  ( 0.000000000000000000, 0.000000000000000000, 0.3175000000000000044 ) ) ;
#165 = VECTOR ( 'NONE', #505, 100.0000000000000000 ) ;
#166 = ORIENTED_EDGE ( 'NONE', *, *, #126, .F. ) ;
#167 = VECTOR ( 'NONE', #151, 100.0000000000000000 ) ;
#168 = LINE ( 'NONE', #335, #450 ) ;
#169 = EDGE_LOOP ( 'NONE', ( #440, #85, #666, #196 ) ) ;
#170 = CARTESIAN_POINT ( 'NONE',  ( -0.7679571668975722076, 1.199999999999999956, 0.6350000000000000089 ) ) ;
#171 = ORIENTED_EDGE ( 'NONE', *, *, #381, .F. ) ;
#172 = ADVANCED_FACE ( 'NONE', ( #26 ), #419, .F. ) ;
#173 = LINE ( 'NONE', #615, #722 ) ;
#174 = VERTEX_POINT ( 'NONE', #471 ) ;
#175 = VECTOR ( 'NONE', #293, 100.0000000000000142 ) ;
#176 = DIRECTION ( 'NONE',  ( -1.249637081581196951E-16, 1.000000000000000000, -0.000000000000000000 ) ) ;
#177 = LINE ( 'NONE', #464, #341 ) ;
#178 = CARTESIAN_POINT ( 'NONE',  ( -1.500000000000000222, 2.000000000000000444, 0.000000000000000000 ) ) ;
#179 = DIRECTION ( 'NONE',  ( 1.000000000000000000, 0.000000000000000000, 0.000000000000000000 ) ) ;
#180 = FACE_OUTER_BOUND ( 'NONE', #71, .T. ) ;
#181 = PLANE ( 'NONE',  #330 ) ;
#182 = EDGE_CURVE ( 'NONE', #287, #456, #146, .T. ) ;
#183 = CARTESIAN_POINT ( 'NONE',  ( -1.500000000000000222, 2.000000000000000444, 0.000000000000000000 ) ) ;
#184 = CARTESIAN_POINT ( 'NONE',  ( -0.4100000000000000311, 2.000000000000000444, 0.1349999999999999534 ) ) ;
#185 = VECTOR ( 'NONE', #643, 100.0000000000000000 ) ;
#186 = CIRCLE ( 'NONE', #137, 2.500000000000000000 ) ;
#187 = ADVANCED_FACE ( 'NONE', ( #200 ), #88, .F. ) ;
#188 = CARTESIAN_POINT ( 'NONE',  ( -2.000000000000000888, 1.499999999999999112, 0.3175000000000000044 ) ) ;
#189 = CARTESIAN_POINT ( 'NONE',  ( 0.000000000000000000, 0.000000000000000000, 0.000000000000000000 ) ) ;
#190 = ORIENTED_EDGE ( 'NONE', *, *, #422, .F. ) ;
#191 = FACE_OUTER_BOUND ( 'NONE', #211, .T. ) ;
#192 = ORIENTED_EDGE ( 'NONE', *, *, #463, .T. ) ;
#193 = DIRECTION ( 'NONE',  ( 1.000000000000000000, 1.301042606982605074E-16, 0.000000000000000000 ) ) ;
#194 = ADVANCED_FACE ( 'NONE', ( #436 ), #329, .F. ) ;
#195 = FACE_OUTER_BOUND ( 'NONE', #622, .T. ) ;
#196 = ORIENTED_EDGE ( 'NONE', *, *, #633, .T. ) ;
#197 = AXIS2_PLACEMENT_3D ( 'NONE', #642, #592, #646 ) ;
#198 = VECTOR ( 'NONE', #367, 100.0000000000000000 ) ;
#199 = CARTESIAN_POINT ( 'NONE',  ( -2.000000000000001776, 1.364999999999999991, 0.6350000000000000089 ) ) ;
#200 = FACE_OUTER_BOUND ( 'NONE', #700, .T. ) ;
#201 = CYLINDRICAL_SURFACE ( 'NONE', #417, 0.3099999999999999978 ) ;
#202 = EDGE_CURVE ( 'NONE', #602, #290, #257, .T. ) ;
#203 = ORIENTED_EDGE ( 'NONE', *, *, #645, .T. ) ;
#204 = CARTESIAN_POINT ( 'NONE',  ( 0.000000000000000000, 0.000000000000000000, 0.000000000000000000 ) ) ;
#205 = DIRECTION ( 'NONE',  ( -0.000000000000000000, 0.000000000000000000, 1.000000000000000000 ) ) ;
#206 = ORIENTED_EDGE ( 'NONE', *, *, #162, .T. ) ;
#207 = EDGE_CURVE ( 'NONE', #300, #414, #273, .T. ) ;
#208 = DIRECTION ( 'NONE',  ( 0.000000000000000000, -1.000000000000000000, 0.000000000000000000 ) ) ;
#209 = CARTESIAN_POINT ( 'NONE',  ( 2.000000000000001776, -0.5999999999999998668, 0.6350000000000000089 ) ) ;
#210 = CARTESIAN_POINT ( 'NONE',  ( 0.7679571668975722076, 1.199999999999999956, 0.1349999999999999534 ) ) ;
#211 = EDGE_LOOP ( 'NONE', ( #69, #58, #609, #226, #605, #629 ) ) ;
#212 = VECTOR ( 'NONE', #425, 100.0000000000000000 ) ;
#213 = AXIS2_PLACEMENT_3D ( 'NONE', #123, #423, #617 ) ;
#214 = CARTESIAN_POINT ( 'NONE',  ( 0.4100000000000000311, 2.000000000000000444, 0.1349999999999999534 ) ) ;
#215 = LINE ( 'NONE', #656, #711 ) ;
#216 = ORIENTED_EDGE ( 'NONE', *, *, #397, .T. ) ;
#217 = DIRECTION ( 'NONE',  ( 1.000000000000000000, 0.000000000000000000, 0.000000000000000000 ) ) ;
#218 = DIRECTION ( 'NONE',  ( -1.000000000000000000, -3.067291018426574134E-16, 0.000000000000000000 ) ) ;
#219 = EDGE_CURVE ( 'NONE', #174, #499, #122, .T. ) ;
#220 = ORIENTED_EDGE ( 'NONE', *, *, #98, .F. ) ;
#221 = DIRECTION ( 'NONE',  ( -1.249637081581196951E-16, 1.000000000000000000, -0.000000000000000000 ) ) ;
#222 = EDGE_LOOP ( 'NONE', ( #282, #384, #244, #430, #360 ) ) ;
#223 = ADVANCED_FACE ( 'NONE', ( #191 ), #581, .T. ) ;
#224 = CIRCLE ( 'NONE', #673, 0.3099999999999999978 ) ;
#225 =( LENGTH_UNIT ( ) NAMED_UNIT ( * ) SI_UNIT ( .CENTI., .METRE. ) );
#226 = ORIENTED_EDGE ( 'NONE', *, *, #441, .T. ) ;
#227 = ORIENTED_EDGE ( 'NONE', *, *, #52, .F. ) ;
#228 = ORIENTED_EDGE ( 'NONE', *, *, #312, .T. ) ;
#229 = VERTEX_POINT ( 'NONE', #240 ) ;
#230 = VECTOR ( 'NONE', #548, 100.0000000000000000 ) ;
#231 = AXIS2_PLACEMENT_3D ( 'NONE', #574, #621, #513 ) ;
#232 = CARTESIAN_POINT ( 'NONE',  ( 1.499999999999999778, 2.000000000000000444, 0.3175000000000000044 ) ) ;
#233 = CLOSED_SHELL ( 'NONE', ( #267, #670, #72, #119, #249, #262, #431, #307, #108, #283, #65, #406, #87, #223, #385, #172, #25, #504, #194, #187, #529, #76 ) ) ;
#234 = CARTESIAN_POINT ( 'NONE',  ( -1.500000000000000222, 2.000000000000000444, 0.3175000000000000044 ) ) ;
#235 = FACE_BOUND ( 'NONE', #630, .T. ) ;
#236 = FACE_OUTER_BOUND ( 'NONE', #46, .T. ) ;
#237 = ORIENTED_EDGE ( 'NONE', *, *, #82, .F. ) ;
#238 = LINE ( 'NONE', #459, #509 ) ;
#239 = DIRECTION ( 'NONE',  ( -0.000000000000000000, 0.000000000000000000, 1.000000000000000000 ) ) ;
#240 = CARTESIAN_POINT ( 'NONE',  ( 2.000000000000000444, 1.500000000000000666, 0.000000000000000000 ) ) ;
#241 = ORIENTED_EDGE ( 'NONE', *, *, #661, .F. ) ;
#242 = ORIENTED_EDGE ( 'NONE', *, *, #611, .T. ) ;
#243 = CARTESIAN_POINT ( 'NONE',  ( 1.499999999999999778, 2.000000000000000444, 0.000000000000000000 ) ) ;
#244 = ORIENTED_EDGE ( 'NONE', *, *, #495, .T. ) ;
#245 = VECTOR ( 'NONE', #27, 100.0000000000000000 ) ;
#246 =( GEOMETRIC_REPRESENTATION_CONTEXT ( 3 ) GLOBAL_UNCERTAINTY_ASSIGNED_CONTEXT ( ( #424 ) ) GLOBAL_UNIT_ASSIGNED_CONTEXT ( ( #494, #654, #155 ) ) REPRESENTATION_CONTEXT ( 'NONE', 'WORKASPACE' ) );
#247 = CARTESIAN_POINT ( 'NONE',  ( -16.63499999999999801, 1.364999999999996438, 0.3175000000000000044 ) ) ;
#248 = LINE ( 'NONE', #410, #77 ) ;
#249 = ADVANCED_FACE ( 'NONE', ( #400 ), #75, .F. ) ;
#250 = UNCERTAINTY_MEASURE_WITH_UNIT (LENGTH_MEASURE( 1.000000000000000082E-05 ), #225, 'distance_accuracy_value', 'NONE');
#251 = DIRECTION ( 'NONE',  ( 4.818676322157799347E-16, -1.000000000000000000, 0.000000000000000000 ) ) ;
#252 = DIRECTION ( 'NONE',  ( -0.000000000000000000, 0.000000000000000000, 1.000000000000000000 ) ) ;
#253 = CARTESIAN_POINT ( 'NONE',  ( 3.796405077356794548E-17, 0.3099999999999999978, 0.6350000000000000089 ) ) ;
#254 = LINE ( 'NONE', #95, #167 ) ;
#255 = LINE ( 'NONE', #160, #230 ) ;
#256 = ORIENTED_EDGE ( 'NONE', *, *, #334, .T. ) ;
#257 = CIRCLE ( 'NONE', #652, 2.500000000000000000 ) ;
#258 = CARTESIAN_POINT ( 'NONE',  ( 1.364999999999999991, 1.364999999999998215, 0.6350000000000000089 ) ) ;
#259 = CARTESIAN_POINT ( 'NONE',  ( -1.999999999999999112, -0.6000000000000003109, 0.6350000000000000089 ) ) ;
#260 = CARTESIAN_POINT ( 'NONE',  ( -1.364999999999998215, 1.364999999999999991, 0.3175000000000000044 ) ) ;
#261 = VERTEX_POINT ( 'NONE', #243 ) ;
#262 = ADVANCED_FACE ( 'NONE', ( #627 ), #469, .T. ) ;
#263 = APPLICATION_PROTOCOL_DEFINITION ( 'draft international standard', 'automotive_design', 1998, #127 ) ;
#264 = PLANE ( 'NONE',  #480 ) ;
#265 = CARTESIAN_POINT ( 'NONE',  ( -0.7679571668975722076, 1.199999999999999956, 0.1349999999999999534 ) ) ;
#266 = ORIENTED_EDGE ( 'NONE', *, *, #52, .T. ) ;
#267 = ADVANCED_FACE ( 'NONE', ( #236 ), #457, .F. ) ;
#268 = SHAPE_DEFINITION_REPRESENTATION ( #555, #628 ) ;
#269 = PLANE ( 'NONE',  #537 ) ;
#270 = DIRECTION ( 'NONE',  ( -0.000000000000000000, 0.000000000000000000, 1.000000000000000000 ) ) ;
#271 = VERTEX_POINT ( 'NONE', #16 ) ;
#272 = COLOUR_RGB ( '',0.7921568627450980005, 0.8196078431372548767, 0.9333333333333333481 ) ;
#273 = LINE ( 'NONE', #690, #664 ) ;
#274 = CARTESIAN_POINT ( 'NONE',  ( 1.364999999999995328, 16.63499999999999801, 0.3175000000000000044 ) ) ;
#275 = ORIENTED_EDGE ( 'NONE', *, *, #207, .F. ) ;
#276 = CARTESIAN_POINT ( 'NONE',  ( 0.7679571668975722076, 1.199999999999999956, 0.1349999999999999534 ) ) ;
#277 = ORIENTED_EDGE ( 'NONE', *, *, #445, .T. ) ;
#278 = CARTESIAN_POINT ( 'NONE',  ( -0.4099999999999999201, 1.820000000000000506, 0.1349999999999999534 ) ) ;
#279 = ORIENTED_EDGE ( 'NONE', *, *, #725, .T. ) ;
#280 = VECTOR ( 'NONE', #396, 100.0000000000000142 ) ;
#281 = SURFACE_STYLE_FILL_AREA ( #114 ) ;
#282 = ORIENTED_EDGE ( 'NONE', *, *, #6, .F. ) ;
#283 = ADVANCED_FACE ( 'NONE', ( #516 ), #181, .F. ) ;
#284 = EDGE_LOOP ( 'NONE', ( #310, #158, #541, #356 ) ) ;
#285 = EDGE_CURVE ( 'NONE', #300, #320, #349, .T. ) ;
#286 = CARTESIAN_POINT ( 'NONE',  ( 1.364999999999999769, 2.000000000000000444, 0.000000000000000000 ) ) ;
#287 = VERTEX_POINT ( 'NONE', #125 ) ;
#288 = EDGE_CURVE ( 'NONE', #602, #261, #404, .T. ) ;
#289 = DIRECTION ( 'NONE',  ( 0.000000000000000000, -1.000000000000000000, 0.000000000000000000 ) ) ;
#290 = VERTEX_POINT ( 'NONE', #73 ) ;
#291 =( GEOMETRIC_REPRESENTATION_CONTEXT ( 3 ) GLOBAL_UNCERTAINTY_ASSIGNED_CONTEXT ( ( #250 ) ) GLOBAL_UNIT_ASSIGNED_CONTEXT ( ( #225, #112, #105 ) ) REPRESENTATION_CONTEXT ( 'NONE', 'WORKASPACE' ) );
#292 = VECTOR ( 'NONE', #702, 100.0000000000000000 ) ;
#293 = DIRECTION ( 'NONE',  ( -0.5000000000000042188, 0.8660254037844362651, -0.000000000000000000 ) ) ;
#294 = CIRCLE ( 'NONE', #653, 2.500000000000000000 ) ;
#295 = EDGE_CURVE ( 'NONE', #503, #174, #677, .T. ) ;
#296 = CARTESIAN_POINT ( 'NONE',  ( 16.63499999999999801, 1.365000000000001101, 0.3175000000000000044 ) ) ;
#297 = CARTESIAN_POINT ( 'NONE',  ( 0.000000000000000000, 0.000000000000000000, 0.3175000000000000044 ) ) ;
#298 = CARTESIAN_POINT ( 'NONE',  ( 0.000000000000000000, 0.000000000000000000, 0.000000000000000000 ) ) ;
#299 = CARTESIAN_POINT ( 'NONE',  ( -1.500000000000000222, 2.000000000000000444, 0.3175000000000000044 ) ) ;
#300 = VERTEX_POINT ( 'NONE', #359 ) ;
#301 = DIRECTION ( 'NONE',  ( 0.000000000000000000, -1.000000000000000000, 0.000000000000000000 ) ) ;
#302 = DIRECTION ( 'NONE',  ( 1.000000000000000000, 1.249637081581196951E-16, 0.000000000000000000 ) ) ;
#303 = PLANE ( 'NONE',  #5 ) ;
#304 = EDGE_LOOP ( 'NONE', ( #672, #712, #497, #315 ) ) ;
#305 = ORIENTED_EDGE ( 'NONE', *, *, #568, .F. ) ;
#306 = CARTESIAN_POINT ( 'NONE',  ( 3.796405077356794548E-17, 0.3099999999999999978, 0.000000000000000000 ) ) ;
#307 = ADVANCED_FACE ( 'NONE', ( #578 ), #303, .F. ) ;
#308 = CARTESIAN_POINT ( 'NONE',  ( 1.364999999999995328, 16.63499999999999801, 0.6350000000000000089 ) ) ;
#309 = LINE ( 'NONE', #314, #116 ) ;
#310 = ORIENTED_EDGE ( 'NONE', *, *, #332, .T. ) ;
#311 = CARTESIAN_POINT ( 'NONE',  ( 2.000000000000001776, -0.5999999999999998668, 0.6350000000000000089 ) ) ;
#312 = EDGE_CURVE ( 'NONE', #499, #470, #248, .T. ) ;
#313 = DIRECTION ( 'NONE',  ( 0.000000000000000000, -1.000000000000000000, 0.000000000000000000 ) ) ;
#314 = CARTESIAN_POINT ( 'NONE',  ( 0.7679571668975722076, 1.199999999999999956, 0.1349999999999999534 ) ) ;
#315 = ORIENTED_EDGE ( 'NONE', *, *, #591, .T. ) ;
#316 = VECTOR ( 'NONE', #520, 100.0000000000000142 ) ;
#317 = DIRECTION ( 'NONE',  ( 4.818676322157798361E-16, 1.000000000000000000, 0.000000000000000000 ) ) ;
#318 = EDGE_CURVE ( 'NONE', #391, #493, #362, .T. ) ;
#319 = DIRECTION ( 'NONE',  ( -0.000000000000000000, 0.000000000000000000, 1.000000000000000000 ) ) ;
#320 = VERTEX_POINT ( 'NONE', #306 ) ;
#321 = DIRECTION ( 'NONE',  ( -0.5000000000000042188, -0.8660254037844362651, 0.000000000000000000 ) ) ;
#322 = LINE ( 'NONE', #693, #245 ) ;
#323 = VERTEX_POINT ( 'NONE', #232 ) ;
#324 = CARTESIAN_POINT ( 'NONE',  ( -0.4099999999999999201, 1.820000000000000506, 0.1349999999999999534 ) ) ;
#325 = DIRECTION ( 'NONE',  ( 0.000000000000000000, 1.000000000000000000, 0.000000000000000000 ) ) ;
#326 = ORIENTED_EDGE ( 'NONE', *, *, #701, .F. ) ;
#327 = AXIS2_PLACEMENT_3D ( 'NONE', #103, #218, #713 ) ;
#328 = AXIS2_PLACEMENT_3D ( 'NONE', #498, #492, #325 ) ;
#329 = PLANE ( 'NONE',  #685 ) ;
#330 = AXIS2_PLACEMENT_3D ( 'NONE', #355, #623, #454 ) ;
#331 = ORIENTED_EDGE ( 'NONE', *, *, #591, .F. ) ;
#332 = EDGE_CURVE ( 'NONE', #115, #421, #619, .T. ) ;
#333 = DIRECTION ( 'NONE',  ( 0.000000000000000000, -1.000000000000000000, 0.000000000000000000 ) ) ;
#334 = EDGE_CURVE ( 'NONE', #320, #300, #614, .T. ) ;
#335 = CARTESIAN_POINT ( 'NONE',  ( 0.4100000000000000311, 2.000000000000000444, 0.1349999999999999534 ) ) ;
#336 = ORIENTED_EDGE ( 'NONE', *, *, #534, .T. ) ;
#337 = AXIS2_PLACEMENT_3D ( 'NONE', #298, #461, #346 ) ;
#338 = DIRECTION ( 'NONE',  ( 0.000000000000000000, 0.000000000000000000, 1.000000000000000000 ) ) ;
#339 = VECTOR ( 'NONE', #719, 100.0000000000000000 ) ;
#340 = VERTEX_POINT ( 'NONE', #429 ) ;
#341 = VECTOR ( 'NONE', #618, 100.0000000000000000 ) ;
#342 = DIRECTION ( 'NONE',  ( 1.000000000000000000, 0.000000000000000000, 0.000000000000000000 ) ) ;
#343 = EDGE_CURVE ( 'NONE', #602, #361, #93, .T. ) ;
#344 = CARTESIAN_POINT ( 'NONE',  ( 1.364999999999999991, 1.364999999999998215, 0.3175000000000000044 ) ) ;
#345 = CARTESIAN_POINT ( 'NONE',  ( -1.364999999999999991, 16.63499999999999801, 0.3175000000000000044 ) ) ;
#346 = DIRECTION ( 'NONE',  ( 0.000000000000000000, -1.000000000000000000, 0.000000000000000000 ) ) ;
#347 = FACE_OUTER_BOUND ( 'NONE', #135, .T. ) ;
#348 = ORIENTED_EDGE ( 'NONE', *, *, #150, .T. ) ;
#349 = CIRCLE ( 'NONE', #640, 0.3099999999999999978 ) ;
#350 = AXIS2_PLACEMENT_3D ( 'NONE', #164, #668, #390 ) ;
#351 = DIRECTION ( 'NONE',  ( 0.000000000000000000, -1.000000000000000000, 0.000000000000000000 ) ) ;
#352 = ORIENTED_EDGE ( 'NONE', *, *, #463, .F. ) ;
#353 = FACE_BOUND ( 'NONE', #90, .T. ) ;
#354 = FACE_OUTER_BOUND ( 'NONE', #56, .T. ) ;
#355 = CARTESIAN_POINT ( 'NONE',  ( 0.4099999999999999201, 1.820000000000000506, 0.1349999999999999534 ) ) ;
#356 = ORIENTED_EDGE ( 'NONE', *, *, #358, .T. ) ;
#357 = LINE ( 'NONE', #523, #698 ) ;
#358 = EDGE_CURVE ( 'NONE', #503, #115, #647, .T. ) ;
#359 = CARTESIAN_POINT ( 'NONE',  ( 0.000000000000000000, -0.3099999999999999978, 0.000000000000000000 ) ) ;
#360 = ORIENTED_EDGE ( 'NONE', *, *, #561, .F. ) ;
#361 = VERTEX_POINT ( 'NONE', #147 ) ;
#362 = LINE ( 'NONE', #81, #280 ) ;
#363 = ORIENTED_EDGE ( 'NONE', *, *, #495, .F. ) ;
#364 = VECTOR ( 'NONE', #142, 100.0000000000000000 ) ;
#365 = CARTESIAN_POINT ( 'NONE',  ( -0.4100000000000000311, 2.000000000000000444, 0.1349999999999999534 ) ) ;
#366 = DIRECTION ( 'NONE',  ( -0.000000000000000000, 0.000000000000000000, 1.000000000000000000 ) ) ;
#367 = DIRECTION ( 'NONE',  ( -0.000000000000000000, 0.000000000000000000, 1.000000000000000000 ) ) ;
#368 = PLANE ( 'NONE',  #522 ) ;
#369 = EDGE_LOOP ( 'NONE', ( #709, #458, #148, #613, #190, #220 ) ) ;
#370 = DIRECTION ( 'NONE',  ( 3.067291018426574134E-16, -1.000000000000000000, 0.000000000000000000 ) ) ;
#371 = DIRECTION ( 'NONE',  ( 0.000000000000000000, -1.000000000000000000, 0.000000000000000000 ) ) ;
#372 = ORIENTED_EDGE ( 'NONE', *, *, #645, .F. ) ;
#373 = AXIS2_PLACEMENT_3D ( 'NONE', #571, #466, #68 ) ;
#374 = PRODUCT_DEFINITION_FORMATION_WITH_SPECIFIED_SOURCE ( 'ANY', '', #552, .NOT_KNOWN. ) ;
#375 = CARTESIAN_POINT ( 'NONE',  ( 0.000000000000000000, 0.000000000000000000, 0.000000000000000000 ) ) ;
#376 = DIRECTION ( 'NONE',  ( 1.000000000000000000, 2.385670792109557660E-16, 0.000000000000000000 ) ) ;
#377 = ORIENTED_EDGE ( 'NONE', *, *, #445, .F. ) ;
#378 = DIRECTION ( 'NONE',  ( -0.000000000000000000, 0.000000000000000000, 1.000000000000000000 ) ) ;
#379 = CARTESIAN_POINT ( 'NONE',  ( 2.000000000000001776, -0.5999999999999998668, 0.6350000000000000089 ) ) ;
#380 = ORIENTED_EDGE ( 'NONE', *, *, #542, .T. ) ;
#381 = EDGE_CURVE ( 'NONE', #648, #131, #704, .T. ) ;
#382 = DIRECTION ( 'NONE',  ( 0.000000000000000000, 0.000000000000000000, 1.000000000000000000 ) ) ;
#383 = SURFACE_SIDE_STYLE ('',( #281 ) ) ;
#384 = ORIENTED_EDGE ( 'NONE', *, *, #597, .F. ) ;
#385 = ADVANCED_FACE ( 'NONE', ( #144 ), #201, .F. ) ;
#386 = LINE ( 'NONE', #344, #416 ) ;
#387 = VERTEX_POINT ( 'NONE', #37 ) ;
#388 = EDGE_CURVE ( 'NONE', #97, #493, #84, .T. ) ;
#389 = ORIENTED_EDGE ( 'NONE', *, *, #542, .F. ) ;
#390 = DIRECTION ( 'NONE',  ( 0.000000000000000000, 1.000000000000000000, 0.000000000000000000 ) ) ;
#391 = VERTEX_POINT ( 'NONE', #475 ) ;
#392 = DIRECTION ( 'NONE',  ( -1.000000000000000000, 0.000000000000000000, 0.000000000000000000 ) ) ;
#393 = ORIENTED_EDGE ( 'NONE', *, *, #487, .T. ) ;
#394 = LINE ( 'NONE', #296, #595 ) ;
#395 = EDGE_LOOP ( 'NONE', ( #266, #380, #599, #28, #101 ) ) ;
#396 = DIRECTION ( 'NONE',  ( -0.5000000000000042188, -0.8660254037844362651, 0.000000000000000000 ) ) ;
#397 = EDGE_CURVE ( 'NONE', #434, #387, #139, .T. ) ;
#398 = LINE ( 'NONE', #675, #78 ) ;
#399 = PLANE ( 'NONE',  #526 ) ;
#400 = FACE_OUTER_BOUND ( 'NONE', #688, .T. ) ;
#401 = DIRECTION ( 'NONE',  ( -0.000000000000000000, 0.000000000000000000, 1.000000000000000000 ) ) ;
#402 = DIRECTION ( 'NONE',  ( 1.000000000000000000, 2.385670792109557660E-16, 0.000000000000000000 ) ) ;
#403 = VECTOR ( 'NONE', #319, 100.0000000000000000 ) ;
#404 = LINE ( 'NONE', #178, #507 ) ;
#405 = ORIENTED_EDGE ( 'NONE', *, *, #202, .T. ) ;
#406 = ADVANCED_FACE ( 'NONE', ( #601 ), #485, .F. ) ;
#407 = EDGE_LOOP ( 'NONE', ( #525, #483, #124, #715 ) ) ;
#408 = DIRECTION ( 'NONE',  ( 0.000000000000000000, 0.000000000000000000, 1.000000000000000000 ) ) ;
#409 = DIRECTION ( 'NONE',  ( -1.249637081581196951E-16, 1.000000000000000000, 0.000000000000000000 ) ) ;
#410 = CARTESIAN_POINT ( 'NONE',  ( 0.4100000000000000311, 2.000000000000000444, 0.1349999999999999534 ) ) ;
#411 = CARTESIAN_POINT ( 'NONE',  ( -2.000000000000000000, -1.500000000000000888, 0.000000000000000000 ) ) ;
#412 = CARTESIAN_POINT ( 'NONE',  ( 2.000000000000001776, 1.364999999999998437, 0.3175000000000000044 ) ) ;
#413 = VECTOR ( 'NONE', #696, 100.0000000000000000 ) ;
#414 = VERTEX_POINT ( 'NONE', #100 ) ;
#415 = EDGE_CURVE ( 'NONE', #648, #153, #322, .T. ) ;
#416 = VECTOR ( 'NONE', #401, 100.0000000000000000 ) ;
#417 = AXIS2_PLACEMENT_3D ( 'NONE', #540, #585, #598 ) ;
#418 = CARTESIAN_POINT ( 'NONE',  ( 1.364999999999999991, 1.364999999999998215, 0.3175000000000000044 ) ) ;
#419 = PLANE ( 'NONE',  #197 ) ;
#420 = CARTESIAN_POINT ( 'NONE',  ( -1.500000000000000222, 2.000000000000000444, 0.000000000000000000 ) ) ;
#421 = VERTEX_POINT ( 'NONE', #589 ) ;
#422 = EDGE_CURVE ( 'NONE', #290, #1, #89, .T. ) ;
#423 = DIRECTION ( 'NONE',  ( 0.000000000000000000, 0.000000000000000000, -1.000000000000000000 ) ) ;
#424 = UNCERTAINTY_MEASURE_WITH_UNIT (LENGTH_MEASURE( 1.000000000000000082E-05 ), #494, 'distance_accuracy_value', 'NONE');
#425 = DIRECTION ( 'NONE',  ( -1.000000000000000000, -1.301042606982605074E-16, 0.000000000000000000 ) ) ;
#426 = CARTESIAN_POINT ( 'NONE',  ( 2.000000000000000444, 1.364999999999998437, 0.000000000000000000 ) ) ;
#427 = ORIENTED_EDGE ( 'NONE', *, *, #157, .F. ) ;
#428 = DIRECTION ( 'NONE',  ( 4.818676322157798361E-16, -1.000000000000000000, 0.000000000000000000 ) ) ;
#429 = CARTESIAN_POINT ( 'NONE',  ( -1.364999999999998215, 2.000000000000000444, 0.3175000000000000044 ) ) ;
#430 = ORIENTED_EDGE ( 'NONE', *, *, #661, .T. ) ;
#431 = ADVANCED_FACE ( 'NONE', ( #195 ), #544, .T. ) ;
#432 = CARTESIAN_POINT ( 'NONE',  ( -0.4100000000000000311, 2.000000000000000444, 0.1349999999999999534 ) ) ;
#433 = DIRECTION ( 'NONE',  ( 0.000000000000000000, 0.000000000000000000, -1.000000000000000000 ) ) ;
#434 = VERTEX_POINT ( 'NONE', #412 ) ;
#435 = PRODUCT_CONTEXT ( 'NONE', #127, 'mechanical' ) ;
#436 = FACE_OUTER_BOUND ( 'NONE', #644, .T. ) ;
#437 = PLANE ( 'NONE',  #350 ) ;
#438 = EDGE_LOOP ( 'NONE', ( #594, #490, #449, #681 ) ) ;
#439 = LINE ( 'NONE', #662, #3 ) ;
#440 = ORIENTED_EDGE ( 'NONE', *, *, #701, .T. ) ;
#441 = EDGE_CURVE ( 'NONE', #97, #503, #309, .T. ) ;
#442 = VECTOR ( 'NONE', #687, 100.0000000000000000 ) ;
#443 = PRESENTATION_STYLE_ASSIGNMENT (( #559 ) ) ;
#444 = VERTEX_POINT ( 'NONE', #531 ) ;
#445 = EDGE_CURVE ( 'NONE', #462, #35, #34, .T. ) ;
#446 = CARTESIAN_POINT ( 'NONE',  ( 0.4100000000000001421, 2.000000000000000444, 0.1349999999999999534 ) ) ;
#447 = ORIENTED_EDGE ( 'NONE', *, *, #343, .T. ) ;
#448 = DIRECTION ( 'NONE',  ( 1.000000000000000000, 0.000000000000000000, 0.000000000000000000 ) ) ;
#449 = ORIENTED_EDGE ( 'NONE', *, *, #441, .F. ) ;
#450 = VECTOR ( 'NONE', #392, 100.0000000000000000 ) ;
#451 = EDGE_CURVE ( 'NONE', #229, #131, #215, .T. ) ;
#452 = DIRECTION ( 'NONE',  ( -2.312964634635742957E-16, 1.000000000000000000, 0.000000000000000000 ) ) ;
#453 = ORIENTED_EDGE ( 'NONE', *, *, #23, .T. ) ;
#454 = DIRECTION ( 'NONE',  ( -0.5000000000000042188, 0.8660254037844361541, 0.000000000000000000 ) ) ;
#455 = DIRECTION ( 'NONE',  ( 4.818676322157799347E-16, -1.000000000000000000, 0.000000000000000000 ) ) ;
#456 = VERTEX_POINT ( 'NONE', #639 ) ;
#457 = CYLINDRICAL_SURFACE ( 'NONE', #337, 0.3099999999999999978 ) ;
#458 = ORIENTED_EDGE ( 'NONE', *, *, #620, .T. ) ;
#459 = CARTESIAN_POINT ( 'NONE',  ( -0.4100000000000000311, 2.000000000000000444, 0.6350000000000000089 ) ) ;
#460 = ORIENTED_EDGE ( 'NONE', *, *, #597, .T. ) ;
#461 = DIRECTION ( 'NONE',  ( -0.000000000000000000, 0.000000000000000000, 1.000000000000000000 ) ) ;
#462 = VERTEX_POINT ( 'NONE', #260 ) ;
#463 = EDGE_CURVE ( 'NONE', #705, #387, #255, .T. ) ;
#464 = CARTESIAN_POINT ( 'NONE',  ( -1.500000000000000222, 2.000000000000000444, 0.6350000000000000089 ) ) ;
#465 = MECHANICAL_DESIGN_GEOMETRIC_PRESENTATION_REPRESENTATION (  '', ( #91 ), #291 ) ;
#466 = DIRECTION ( 'NONE',  ( -1.000000000000000000, 0.000000000000000000, 0.000000000000000000 ) ) ;
#467 = EDGE_CURVE ( 'NONE', #499, #570, #168, .T. ) ;
#468 = FACE_OUTER_BOUND ( 'NONE', #438, .T. ) ;
#469 = CYLINDRICAL_SURFACE ( 'NONE', #104, 2.500000000000000000 ) ;
#470 = VERTEX_POINT ( 'NONE', #502 ) ;
#471 = CARTESIAN_POINT ( 'NONE',  ( 0.4099999999999999201, 1.820000000000000506, 0.1349999999999999534 ) ) ;
#472 = DIRECTION ( 'NONE',  ( -0.8660254037844362651, 0.5000000000000043299, 0.000000000000000000 ) ) ;
#473 = LINE ( 'NONE', #694, #607 ) ;
#474 = CARTESIAN_POINT ( 'NONE',  ( 2.000000000000001776, -0.5999999999999998668, 0.000000000000000000 ) ) ;
#475 = CARTESIAN_POINT ( 'NONE',  ( -0.4099999999999999201, 1.820000000000000506, 0.6350000000000000089 ) ) ;
#476 = AXIS2_PLACEMENT_3D ( 'NONE', #708, #472, #152 ) ;
#477 = ORIENTED_EDGE ( 'NONE', *, *, #202, .F. ) ;
#478 = MANIFOLD_SOLID_BREP ( 'Cut-Extrude5', #233 ) ;
#479 = CIRCLE ( 'NONE', #213, 2.500000000000000000 ) ;
#480 = AXIS2_PLACEMENT_3D ( 'NONE', #365, #484, #428 ) ;
#481 = LINE ( 'NONE', #286, #165 ) ;
#482 = LINE ( 'NONE', #539, #64 ) ;
#483 = ORIENTED_EDGE ( 'NONE', *, *, #388, .F. ) ;
#484 = DIRECTION ( 'NONE',  ( -1.000000000000000000, -4.818676322157798361E-16, 0.000000000000000000 ) ) ;
#485 = PLANE ( 'NONE',  #476 ) ;
#486 = ORIENTED_EDGE ( 'NONE', *, *, #608, .F. ) ;
#487 = EDGE_CURVE ( 'NONE', #340, #287, #109, .T. ) ;
#488 = DIRECTION ( 'NONE',  ( 1.000000000000000000, 2.312964634635742957E-16, 0.000000000000000000 ) ) ;
#489 = CARTESIAN_POINT ( 'NONE',  ( -1.364999999999998215, 1.364999999999999991, 0.3175000000000000044 ) ) ;
#490 = ORIENTED_EDGE ( 'NONE', *, *, #358, .F. ) ;
#491 = CARTESIAN_POINT ( 'NONE',  ( 0.000000000000000000, 0.000000000000000000, 0.000000000000000000 ) ) ;
#492 = DIRECTION ( 'NONE',  ( 0.000000000000000000, 0.000000000000000000, -1.000000000000000000 ) ) ;
#493 = VERTEX_POINT ( 'NONE', #170 ) ;
#494 =( LENGTH_UNIT ( ) NAMED_UNIT ( * ) SI_UNIT ( .CENTI., .METRE. ) );
#495 = EDGE_CURVE ( 'NONE', #444, #724, #723, .T. ) ;
#496 = PLANE ( 'NONE',  #328 ) ;
#497 = ORIENTED_EDGE ( 'NONE', *, *, #132, .F. ) ;
#498 = CARTESIAN_POINT ( 'NONE',  ( 0.000000000000000000, 0.000000000000000000, 0.3175000000000000044 ) ) ;
#499 = VERTEX_POINT ( 'NONE', #446 ) ;
#500 = VECTOR ( 'NONE', #252, 100.0000000000000000 ) ;
#501 = ORIENTED_EDGE ( 'NONE', *, *, #706, .F. ) ;
#502 = CARTESIAN_POINT ( 'NONE',  ( 0.4100000000000000311, 2.000000000000000444, 0.6350000000000000089 ) ) ;
#503 = VERTEX_POINT ( 'NONE', #276 ) ;
#504 = ADVANCED_FACE ( 'NONE', ( #55 ), #437, .F. ) ;
#505 = DIRECTION ( 'NONE',  ( 0.000000000000000000, 0.000000000000000000, -1.000000000000000000 ) ) ;
#506 = ORIENTED_EDGE ( 'NONE', *, *, #667, .F. ) ;
#507 = VECTOR ( 'NONE', #576, 100.0000000000000000 ) ;
#508 = EDGE_CURVE ( 'NONE', #669, #1, #553, .T. ) ;
#509 = VECTOR ( 'NONE', #455, 100.0000000000000000 ) ;
#510 = DIRECTION ( 'NONE',  ( 0.000000000000000000, 0.000000000000000000, -1.000000000000000000 ) ) ;
#511 = DIRECTION ( 'NONE',  ( 0.000000000000000000, -1.000000000000000000, 0.000000000000000000 ) ) ;
#512 = CARTESIAN_POINT ( 'NONE',  ( 0.000000000000000000, 0.000000000000000000, 0.000000000000000000 ) ) ;
#513 = DIRECTION ( 'NONE',  ( 0.000000000000000000, -1.000000000000000000, 0.000000000000000000 ) ) ;
#514 = ORIENTED_EDGE ( 'NONE', *, *, #288, .F. ) ;
#515 = EDGE_CURVE ( 'NONE', #493, #115, #726, .T. ) ;
#516 = FACE_OUTER_BOUND ( 'NONE', #284, .T. ) ;
#517 = ORIENTED_EDGE ( 'NONE', *, *, #667, .T. ) ;
#518 = LINE ( 'NONE', #14, #364 ) ;
#519 = DIRECTION ( 'NONE',  ( 0.000000000000000000, 0.000000000000000000, -1.000000000000000000 ) ) ;
#520 = DIRECTION ( 'NONE',  ( -0.5000000000000042188, 0.8660254037844362651, -0.000000000000000000 ) ) ;
#521 = EDGE_CURVE ( 'NONE', #689, #391, #717, .T. ) ;
#522 = AXIS2_PLACEMENT_3D ( 'NONE', #214, #547, #317 ) ;
#523 = CARTESIAN_POINT ( 'NONE',  ( 3.796405077356794548E-17, 0.3099999999999999978, 0.000000000000000000 ) ) ;
#524 = CARTESIAN_POINT ( 'NONE',  ( -1.500000000000000222, 2.000000000000000444, 0.000000000000000000 ) ) ;
#525 = ORIENTED_EDGE ( 'NONE', *, *, #318, .T. ) ;
#526 = AXIS2_PLACEMENT_3D ( 'NONE', #626, #129, #313 ) ;
#527 = ORIENTED_EDGE ( 'NONE', *, *, #649, .F. ) ;
#528 = DIRECTION ( 'NONE',  ( 0.000000000000000000, 0.000000000000000000, -1.000000000000000000 ) ) ;
#529 = ADVANCED_FACE ( 'NONE', ( #671 ), #496, .F. ) ;
#530 = CARTESIAN_POINT ( 'NONE',  ( 1.499999999999999778, 2.000000000000000444, 0.000000000000000000 ) ) ;
#531 = CARTESIAN_POINT ( 'NONE',  ( 1.364999999999999991, 2.000000000000001776, 0.3175000000000000044 ) ) ;
#532 = ORIENTED_EDGE ( 'NONE', *, *, #467, .F. ) ;
#533 = CARTESIAN_POINT ( 'NONE',  ( -1.999999999999999112, -0.6000000000000003109, 0.000000000000000000 ) ) ;
#534 = EDGE_CURVE ( 'NONE', #153, #660, #173, .T. ) ;
#535 = DIRECTION ( 'NONE',  ( -2.312964634635742957E-16, 1.000000000000000000, 0.000000000000000000 ) ) ;
#536 = DIRECTION ( 'NONE',  ( 1.000000000000000000, 0.000000000000000000, 0.000000000000000000 ) ) ;
#537 = AXIS2_PLACEMENT_3D ( 'NONE', #411, #488, #535 ) ;
#538 = ORIENTED_EDGE ( 'NONE', *, *, #207, .T. ) ;
#539 = CARTESIAN_POINT ( 'NONE',  ( -16.63499999999999801, 1.364999999999996438, 0.6350000000000000089 ) ) ;
#540 = CARTESIAN_POINT ( 'NONE',  ( 0.000000000000000000, 0.000000000000000000, 0.000000000000000000 ) ) ;
#541 = ORIENTED_EDGE ( 'NONE', *, *, #295, .F. ) ;
#542 = EDGE_CURVE ( 'NONE', #462, #340, #714, .T. ) ;
#543 = FACE_OUTER_BOUND ( 'NONE', #563, .T. ) ;
#544 = CYLINDRICAL_SURFACE ( 'NONE', #53, 2.500000000000000000 ) ;
#545 = ORIENTED_EDGE ( 'NONE', *, *, #288, .T. ) ;
#546 = PRODUCT_DEFINITION ( 'UNKNOWN', '', #374, #583 ) ;
#547 = DIRECTION ( 'NONE',  ( 1.000000000000000000, -4.818676322157798361E-16, 0.000000000000000000 ) ) ;
#548 = DIRECTION ( 'NONE',  ( 1.000000000000000000, 1.931257307898213426E-16, 0.000000000000000000 ) ) ;
#549 = ORIENTED_EDGE ( 'NONE', *, *, #521, .F. ) ;
#550 = FILL_AREA_STYLE_COLOUR ( '', #272 ) ;
#551 = ORIENTED_EDGE ( 'NONE', *, *, #141, .F. ) ;
#552 = PRODUCT ( 'vertex-single_62', 'vertex-single_62', '', ( #435 ) ) ;
#553 = LINE ( 'NONE', #612, #54 ) ;
#554 = ORIENTED_EDGE ( 'NONE', *, *, #381, .T. ) ;
#555 = PRODUCT_DEFINITION_SHAPE ( 'NONE', 'NONE',  #546 ) ;
#556 = CARTESIAN_POINT ( 'NONE',  ( -1.364999999999998215, 2.000000000000000444, 0.000000000000000000 ) ) ;
#557 = ORIENTED_EDGE ( 'NONE', *, *, #725, .F. ) ;
#558 = AXIS2_PLACEMENT_3D ( 'NONE', #512, #9, #371 ) ;
#559 = SURFACE_STYLE_USAGE ( .BOTH. , #383 ) ;
#560 = ORIENTED_EDGE ( 'NONE', *, *, #17, .F. ) ;
#561 = EDGE_CURVE ( 'NONE', #80, #434, #439, .T. ) ;
#562 = CARTESIAN_POINT ( 'NONE',  ( -2.000000000000001776, 1.364999999999999991, 0.3175000000000000044 ) ) ;
#563 = EDGE_LOOP ( 'NONE', ( #691, #171, #74, #336 ) ) ;
#564 = CARTESIAN_POINT ( 'NONE',  ( 2.000000000000000444, 1.500000000000000666, 0.6350000000000000089 ) ) ;
#565 = PLANE ( 'NONE',  #33 ) ;
#566 = CARTESIAN_POINT ( 'NONE',  ( 0.4099999999999999201, 1.820000000000000506, 0.6350000000000000089 ) ) ;
#567 = VECTOR ( 'NONE', #370, 100.0000000000000000 ) ;
#568 = EDGE_CURVE ( 'NONE', #724, #705, #386, .T. ) ;
#569 = VECTOR ( 'NONE', #221, 100.0000000000000000 ) ;
#570 = VERTEX_POINT ( 'NONE', #86 ) ;
#571 = CARTESIAN_POINT ( 'NONE',  ( 2.000000000000000444, 1.500000000000000666, 0.000000000000000000 ) ) ;
#572 = EDGE_LOOP ( 'NONE', ( #684, #279, #460, #427, #514, #447, #657, #393, #582, #663, #532, #228 ) ) ;
#573 = EDGE_CURVE ( 'NONE', #361, #340, #678, .T. ) ;
#574 = CARTESIAN_POINT ( 'NONE',  ( 0.000000000000000000, 0.000000000000000000, 0.6350000000000000089 ) ) ;
#575 = ORIENTED_EDGE ( 'NONE', *, *, #318, .F. ) ;
#576 = DIRECTION ( 'NONE',  ( 1.000000000000000000, 0.000000000000000000, 0.000000000000000000 ) ) ;
#577 = VERTEX_POINT ( 'NONE', #253 ) ;
#578 = FACE_OUTER_BOUND ( 'NONE', #572, .T. ) ;
#579 = VECTOR ( 'NONE', #651, 100.0000000000000000 ) ;
#580 = ORIENTED_EDGE ( 'NONE', *, *, #608, .T. ) ;
#581 = PLANE ( 'NONE',  #624 ) ;
#582 = ORIENTED_EDGE ( 'NONE', *, *, #182, .T. ) ;
#583 = PRODUCT_DEFINITION_CONTEXT ( 'detailed design', #154, 'design' ) ;
#584 = CARTESIAN_POINT ( 'NONE',  ( 0.000000000000000000, 0.000000000000000000, 0.6350000000000000089 ) ) ;
#585 = DIRECTION ( 'NONE',  ( -0.000000000000000000, 0.000000000000000000, 1.000000000000000000 ) ) ;
#586 = ORIENTED_EDGE ( 'NONE', *, *, #487, .F. ) ;
#587 = CARTESIAN_POINT ( 'NONE',  ( -0.4099999999999999201, 1.820000000000000506, 0.1349999999999999534 ) ) ;
#588 = FACE_OUTER_BOUND ( 'NONE', #169, .T. ) ;
#589 = CARTESIAN_POINT ( 'NONE',  ( 0.4099999999999999201, 1.820000000000000506, 0.6350000000000000089 ) ) ;
#590 = ORIENTED_EDGE ( 'NONE', *, *, #132, .T. ) ;
#591 = EDGE_CURVE ( 'NONE', #229, #261, #186, .T. ) ;
#592 = DIRECTION ( 'NONE',  ( 2.385670792109557660E-16, -1.000000000000000000, 0.000000000000000000 ) ) ;
#593 = VECTOR ( 'NONE', #366, 100.0000000000000000 ) ;
#594 = ORIENTED_EDGE ( 'NONE', *, *, #515, .T. ) ;
#595 = VECTOR ( 'NONE', #7, 100.0000000000000000 ) ;
#596 = CARTESIAN_POINT ( 'NONE',  ( -0.7679571668975722076, 1.199999999999999956, 0.1349999999999999534 ) ) ;
#597 = EDGE_CURVE ( 'NONE', #444, #323, #10, .T. ) ;
#598 = DIRECTION ( 'NONE',  ( 0.000000000000000000, -1.000000000000000000, 0.000000000000000000 ) ) ;
#599 = ORIENTED_EDGE ( 'NONE', *, *, #573, .F. ) ;
#600 = DIRECTION ( 'NONE',  ( 0.000000000000000000, 0.000000000000000000, 1.000000000000000000 ) ) ;
#601 = FACE_OUTER_BOUND ( 'NONE', #407, .T. ) ;
#602 = VERTEX_POINT ( 'NONE', #183 ) ;
#603 = DIRECTION ( 'NONE',  ( 0.000000000000000000, -1.000000000000000000, 0.000000000000000000 ) ) ;
#604 = CARTESIAN_POINT ( 'NONE',  ( -1.364999999999999991, 16.63499999999999801, 0.3175000000000000044 ) ) ;
#605 = ORIENTED_EDGE ( 'NONE', *, *, #295, .T. ) ;
#606 = VECTOR ( 'NONE', #270, 100.0000000000000000 ) ;
#607 = VECTOR ( 'NONE', #510, 100.0000000000000000 ) ;
#608 = EDGE_CURVE ( 'NONE', #456, #391, #238, .T. ) ;
#609 = ORIENTED_EDGE ( 'NONE', *, *, #111, .T. ) ;
#610 = ORIENTED_EDGE ( 'NONE', *, *, #568, .T. ) ;
#611 = EDGE_CURVE ( 'NONE', #1, #361, #479, .T. ) ;
#612 = CARTESIAN_POINT ( 'NONE',  ( -2.000000000000000000, -1.500000000000000888, 0.3175000000000000044 ) ) ;
#613 = ORIENTED_EDGE ( 'NONE', *, *, #508, .T. ) ;
#614 = CIRCLE ( 'NONE', #558, 0.3099999999999999978 ) ;
#615 = CARTESIAN_POINT ( 'NONE',  ( -1.999999999999999112, -0.6000000000000003109, 0.6350000000000000089 ) ) ;
#616 = ORIENTED_EDGE ( 'NONE', *, *, #620, .F. ) ;
#617 = DIRECTION ( 'NONE',  ( 0.000000000000000000, 1.000000000000000000, 0.000000000000000000 ) ) ;
#618 = DIRECTION ( 'NONE',  ( 1.000000000000000000, 0.000000000000000000, 0.000000000000000000 ) ) ;
#619 = LINE ( 'NONE', #566, #175 ) ;
#620 = EDGE_CURVE ( 'NONE', #153, #720, #398, .T. ) ;
#621 = DIRECTION ( 'NONE',  ( 0.000000000000000000, 0.000000000000000000, 1.000000000000000000 ) ) ;
#622 = EDGE_LOOP ( 'NONE', ( #22, #242, #676, #405 ) ) ;
#623 = DIRECTION ( 'NONE',  ( 0.8660254037844362651, 0.5000000000000043299, 0.000000000000000000 ) ) ;
#624 = AXIS2_PLACEMENT_3D ( 'NONE', #680, #408, #351 ) ;
#625 = CARTESIAN_POINT ( 'NONE',  ( -1.364999999999999991, 16.63499999999999801, 0.6350000000000000089 ) ) ;
#626 = CARTESIAN_POINT ( 'NONE',  ( 0.000000000000000000, 0.000000000000000000, 0.000000000000000000 ) ) ;
#627 = FACE_OUTER_BOUND ( 'NONE', #304, .T. ) ;
#628 = ADVANCED_BREP_SHAPE_REPRESENTATION ( 'vertex-single_62', ( #478, #637 ), #246 ) ;
#629 = ORIENTED_EDGE ( 'NONE', *, *, #219, .T. ) ;
#630 = EDGE_LOOP ( 'NONE', ( #133, #256 ) ) ;
#631 = CARTESIAN_POINT ( 'NONE',  ( 0.000000000000000000, 0.000000000000000000, 0.6350000000000000089 ) ) ;
#632 = CARTESIAN_POINT ( 'NONE',  ( -1.364999999999998215, 1.364999999999999991, 0.6350000000000000089 ) ) ;
#633 = EDGE_CURVE ( 'NONE', #174, #421, #66, .T. ) ;
#634 = DIRECTION ( 'NONE',  ( -0.000000000000000000, 0.000000000000000000, 1.000000000000000000 ) ) ;
#635 = ORIENTED_EDGE ( 'NONE', *, *, #332, .F. ) ;
#636 = CARTESIAN_POINT ( 'NONE',  ( 2.000000000000000444, 1.500000000000000666, 0.000000000000000000 ) ) ;
#637 = AXIS2_PLACEMENT_3D ( 'NONE', #375, #208, #217 ) ;
#638 = AXIS2_PLACEMENT_3D ( 'NONE', #345, #302, #409 ) ;
#639 = CARTESIAN_POINT ( 'NONE',  ( -0.4100000000000000311, 2.000000000000000444, 0.6350000000000000089 ) ) ;
#640 = AXIS2_PLACEMENT_3D ( 'NONE', #189, #683, #301 ) ;
#641 = LINE ( 'NONE', #564, #292 ) ;
#642 = CARTESIAN_POINT ( 'NONE',  ( -16.63499999999999801, 1.364999999999996438, 0.3175000000000000044 ) ) ;
#643 = DIRECTION ( 'NONE',  ( 0.000000000000000000, 0.000000000000000000, 1.000000000000000000 ) ) ;
#644 = EDGE_LOOP ( 'NONE', ( #241, #610, #192, #718 ) ) ;
#645 = EDGE_CURVE ( 'NONE', #35, #287, #120, .T. ) ;
#646 = DIRECTION ( 'NONE',  ( 1.000000000000000000, 2.385670792109557660E-16, 0.000000000000000000 ) ) ;
#647 = LINE ( 'NONE', #210, #403 ) ;
#648 = VERTEX_POINT ( 'NONE', #311 ) ;
#649 = EDGE_CURVE ( 'NONE', #387, #648, #641, .T. ) ;
#650 = PLANE ( 'NONE',  #79 ) ;
#651 = DIRECTION ( 'NONE',  ( -0.000000000000000000, 0.000000000000000000, 1.000000000000000000 ) ) ;
#652 = AXIS2_PLACEMENT_3D ( 'NONE', #491, #382, #603 ) ;
#653 = AXIS2_PLACEMENT_3D ( 'NONE', #297, #519, #15 ) ;
#654 =( NAMED_UNIT ( * ) PLANE_ANGLE_UNIT ( ) SI_UNIT ( $, .RADIAN. ) );
#655 = CARTESIAN_POINT ( 'NONE',  ( 2.000000000000000444, -0.5999999999999998668, 0.000000000000000000 ) ) ;
#656 = CARTESIAN_POINT ( 'NONE',  ( 2.000000000000000444, 1.500000000000000666, 0.000000000000000000 ) ) ;
#657 = ORIENTED_EDGE ( 'NONE', *, *, #573, .T. ) ;
#658 = CARTESIAN_POINT ( 'NONE',  ( 16.63499999999999801, 1.365000000000001101, 0.3175000000000000044 ) ) ;
#659 = CARTESIAN_POINT ( 'NONE',  ( 0.7679571668975722076, 1.199999999999999956, 0.6350000000000000089 ) ) ;
#660 = VERTEX_POINT ( 'NONE', #533 ) ;
#661 = EDGE_CURVE ( 'NONE', #724, #434, #394, .T. ) ;
#662 = CARTESIAN_POINT ( 'NONE',  ( 2.000000000000000444, 1.500000000000000666, 0.3175000000000000044 ) ) ;
#663 = ORIENTED_EDGE ( 'NONE', *, *, #23, .F. ) ;
#664 = VECTOR ( 'NONE', #2, 100.0000000000000000 ) ;
#665 = VECTOR ( 'NONE', #50, 100.0000000000000000 ) ;
#666 = ORIENTED_EDGE ( 'NONE', *, *, #219, .F. ) ;
#667 = EDGE_CURVE ( 'NONE', #577, #414, #106, .T. ) ;
#668 = DIRECTION ( 'NONE',  ( 0.000000000000000000, 0.000000000000000000, -1.000000000000000000 ) ) ;
#669 = VERTEX_POINT ( 'NONE', #562 ) ;
#670 = ADVANCED_FACE ( 'NONE', ( #353, #347 ), #59, .T. ) ;
#671 = FACE_OUTER_BOUND ( 'NONE', #222, .T. ) ;
#672 = ORIENTED_EDGE ( 'NONE', *, *, #157, .T. ) ;
#673 = AXIS2_PLACEMENT_3D ( 'NONE', #584, #600, #31 ) ;
#674 = VECTOR ( 'NONE', #448, 100.0000000000000000 ) ;
#675 = CARTESIAN_POINT ( 'NONE',  ( -2.000000000000000000, -1.500000000000000888, 0.6350000000000000089 ) ) ;
#676 = ORIENTED_EDGE ( 'NONE', *, *, #343, .F. ) ;
#677 = LINE ( 'NONE', #134, #316 ) ;
#678 = LINE ( 'NONE', #234, #32 ) ;
#679 = PLANE ( 'NONE',  #638 ) ;
#680 = CARTESIAN_POINT ( 'NONE',  ( 0.000000000000000000, 0.000000000000000000, 0.1349999999999999534 ) ) ;
#681 = ORIENTED_EDGE ( 'NONE', *, *, #388, .T. ) ;
#682 = ORIENTED_EDGE ( 'NONE', *, *, #515, .F. ) ;
#683 = DIRECTION ( 'NONE',  ( 0.000000000000000000, 0.000000000000000000, 1.000000000000000000 ) ) ;
#684 = ORIENTED_EDGE ( 'NONE', *, *, #17, .T. ) ;
#685 = AXIS2_PLACEMENT_3D ( 'NONE', #658, #43, #159 ) ;
#686 = LINE ( 'NONE', #184, #4 ) ;
#687 = DIRECTION ( 'NONE',  ( 4.818676322157799347E-16, 1.000000000000000000, 0.000000000000000000 ) ) ;
#688 = EDGE_LOOP ( 'NONE', ( #554, #41, #590, #38, #216, #47 ) ) ;
#689 = VERTEX_POINT ( 'NONE', #587 ) ;
#690 = CARTESIAN_POINT ( 'NONE',  ( 0.000000000000000000, -0.3099999999999999978, 0.000000000000000000 ) ) ;
#691 = ORIENTED_EDGE ( 'NONE', *, *, #162, .F. ) ;
#692 = LINE ( 'NONE', #308, #567 ) ;
#693 = CARTESIAN_POINT ( 'NONE',  ( 2.000000000000001776, -0.5999999999999998668, 0.6350000000000000089 ) ) ;
#694 = CARTESIAN_POINT ( 'NONE',  ( -2.000000000000000888, 1.364999999999999991, 0.000000000000000000 ) ) ;
#695 = VECTOR ( 'NONE', #378, 100.0000000000000000 ) ;
#696 = DIRECTION ( 'NONE',  ( 1.000000000000000000, 0.000000000000000000, 0.000000000000000000 ) ) ;
#697 = AXIS2_PLACEMENT_3D ( 'NONE', #29, #128, #70 ) ;
#698 = VECTOR ( 'NONE', #239, 100.0000000000000000 ) ;
#699 = DIRECTION ( 'NONE',  ( 0.000000000000000000, 1.000000000000000000, 0.000000000000000000 ) ) ;
#700 = EDGE_LOOP ( 'NONE', ( #113, #305, #363, #557 ) ) ;
#701 = EDGE_CURVE ( 'NONE', #421, #470, #518, .T. ) ;
#702 = DIRECTION ( 'NONE',  ( 0.000000000000000000, -1.000000000000000000, 0.000000000000000000 ) ) ;
#703 = CARTESIAN_POINT ( 'NONE',  ( 0.7679571668975722076, 1.199999999999999956, 0.6350000000000000089 ) ) ;
#704 = LINE ( 'NONE', #379, #30 ) ;
#705 = VERTEX_POINT ( 'NONE', #258 ) ;
#706 = EDGE_CURVE ( 'NONE', #720, #669, #473, .T. ) ;
#707 = LINE ( 'NONE', #324, #149 ) ;
#708 = CARTESIAN_POINT ( 'NONE',  ( -0.4099999999999999201, 1.820000000000000506, 0.1349999999999999534 ) ) ;
#709 = ORIENTED_EDGE ( 'NONE', *, *, #534, .F. ) ;
#710 = LINE ( 'NONE', #432, #44 ) ;
#711 = VECTOR ( 'NONE', #24, 100.0000000000000000 ) ;
#712 = ORIENTED_EDGE ( 'NONE', *, *, #6, .T. ) ;
#713 = DIRECTION ( 'NONE',  ( 3.067291018426574134E-16, -1.000000000000000000, 0.000000000000000000 ) ) ;
#714 = LINE ( 'NONE', #604, #569 ) ;
#715 = ORIENTED_EDGE ( 'NONE', *, *, #521, .T. ) ;
#716 = APPLICATION_PROTOCOL_DEFINITION ( 'draft international standard', 'automotive_design', 1998, #154 ) ;
#717 = LINE ( 'NONE', #278, #339 ) ;
#718 = ORIENTED_EDGE ( 'NONE', *, *, #397, .F. ) ;
#719 = DIRECTION ( 'NONE',  ( -0.000000000000000000, 0.000000000000000000, 1.000000000000000000 ) ) ;
#720 = VERTEX_POINT ( 'NONE', #199 ) ;
#721 = VECTOR ( 'NONE', #205, 100.0000000000000000 ) ;
#722 = VECTOR ( 'NONE', #45, 100.0000000000000000 ) ;
#723 = LINE ( 'NONE', #274, #665 ) ;
#724 = VERTEX_POINT ( 'NONE', #418 ) ;
#725 = EDGE_CURVE ( 'NONE', #271, #444, #481, .T. ) ;
#726 = LINE ( 'NONE', #659, #674 ) ;
#727 = EDGE_LOOP ( 'NONE', ( #580, #549, #166, #453 ) ) ;
ENDSEC;
END-ISO-10303-21;
