ISO-10303-21;
HEADER;
FILE_DESCRIPTION (( 'STEP AP214' ),
    '1' );
FILE_NAME ('vertex-single_61.STEP',
    '2026-06-16T01:09:31',
    ( '' ),
    ( '' ),
    'SwSTEP 2.0',
    'SolidWorks 2023',
    '' );
FILE_SCHEMA (( 'AUTOMOTIVE_DESIGN' ));
ENDSEC;

DATA;
#1 = VERTEX_POINT ( 'NONE', #197 ) ;
#2 = CARTESIAN_POINT ( 'NONE',  ( -16.63499999999999801, 1.364999999999996438, 0.3175000000000000044 ) ) ;
#3 = LINE ( 'NONE', #7, #701 ) ;
#4 = EDGE_LOOP ( 'NONE', ( #158, #294, #446, #224 ) ) ;
#5 = EDGE_CURVE ( 'NONE', #377, #508, #64, .T. ) ;
#6 = CARTESIAN_POINT ( 'NONE',  ( -0.4100000000000000311, 2.000000000000000444, 0.1349999999999999534 ) ) ;
#7 = CARTESIAN_POINT ( 'NONE',  ( 2.000000000000000444, 1.500000000000000666, 0.6350000000000000089 ) ) ;
#8 = ORIENTED_EDGE ( 'NONE', *, *, #314, .T. ) ;
#9 = LINE ( 'NONE', #227, #204 ) ;
#10 = AXIS2_PLACEMENT_3D ( 'NONE', #628, #586, #344 ) ;
#11 = DIRECTION ( 'NONE',  ( 0.000000000000000000, 0.000000000000000000, 1.000000000000000000 ) ) ;
#12 = VERTEX_POINT ( 'NONE', #188 ) ;
#13 = DIRECTION ( 'NONE',  ( 0.000000000000000000, 1.000000000000000000, 0.000000000000000000 ) ) ;
#14 = DIRECTION ( 'NONE',  ( 0.000000000000000000, 0.000000000000000000, 1.000000000000000000 ) ) ;
#15 = EDGE_LOOP ( 'NONE', ( #31, #130, #722, #644 ) ) ;
#16 = LINE ( 'NONE', #361, #33 ) ;
#17 = CARTESIAN_POINT ( 'NONE',  ( 2.000000000000001776, -0.5999999999999998668, 0.6350000000000000089 ) ) ;
#18 = ORIENTED_EDGE ( 'NONE', *, *, #519, .F. ) ;
#19 = FACE_OUTER_BOUND ( 'NONE', #560, .T. ) ;
#20 = LINE ( 'NONE', #236, #372 ) ;
#21 = VECTOR ( 'NONE', #619, 100.0000000000000000 ) ;
#22 = AXIS2_PLACEMENT_3D ( 'NONE', #113, #621, #325 ) ;
#23 = EDGE_LOOP ( 'NONE', ( #469, #520, #268, #340, #275, #347 ) ) ;
#24 = APPLICATION_CONTEXT ( 'automotive_design' ) ;
#25 = FACE_OUTER_BOUND ( 'NONE', #253, .T. ) ;
#26 = CYLINDRICAL_SURFACE ( 'NONE', #536, 0.3049999999999999933 ) ;
#27 = VERTEX_POINT ( 'NONE', #141 ) ;
#28 = DIRECTION ( 'NONE',  ( 4.818676322157798361E-16, -1.000000000000000000, 0.000000000000000000 ) ) ;
#29 = EDGE_CURVE ( 'NONE', #278, #27, #371, .T. ) ;
#30 = SURFACE_SIDE_STYLE ('',( #587 ) ) ;
#31 = ORIENTED_EDGE ( 'NONE', *, *, #467, .F. ) ;
#32 =( LENGTH_UNIT ( ) NAMED_UNIT ( * ) SI_UNIT ( .CENTI., .METRE. ) );
#33 = VECTOR ( 'NONE', #235, 100.0000000000000000 ) ;
#34 = ORIENTED_EDGE ( 'NONE', *, *, #193, .T. ) ;
#35 = PRODUCT_CONTEXT ( 'NONE', #24, 'mechanical' ) ;
#36 = EDGE_CURVE ( 'NONE', #641, #297, #168, .T. ) ;
#37 = ORIENTED_EDGE ( 'NONE', *, *, #56, .T. ) ;
#38 = DIRECTION ( 'NONE',  ( 0.000000000000000000, 0.000000000000000000, -1.000000000000000000 ) ) ;
#39 = CARTESIAN_POINT ( 'NONE',  ( 2.000000000000001776, -0.5999999999999998668, 0.6350000000000000089 ) ) ;
#40 = CARTESIAN_POINT ( 'NONE',  ( 0.4100000000000000311, 2.000000000000000444, 0.6350000000000000089 ) ) ;
#41 = AXIS2_PLACEMENT_3D ( 'NONE', #6, #70, #28 ) ;
#42 = ORIENTED_EDGE ( 'NONE', *, *, #36, .F. ) ;
#43 = DIRECTION ( 'NONE',  ( -0.000000000000000000, 0.000000000000000000, 1.000000000000000000 ) ) ;
#44 = AXIS2_PLACEMENT_3D ( 'NONE', #466, #513, #131 ) ;
#45 = FACE_OUTER_BOUND ( 'NONE', #15, .T. ) ;
#46 = ORIENTED_EDGE ( 'NONE', *, *, #201, .F. ) ;
#47 = FACE_OUTER_BOUND ( 'NONE', #218, .T. ) ;
#48 = EDGE_CURVE ( 'NONE', #165, #413, #499, .T. ) ;
#49 = VERTEX_POINT ( 'NONE', #680 ) ;
#50 = ORIENTED_EDGE ( 'NONE', *, *, #350, .T. ) ;
#51 = FACE_OUTER_BOUND ( 'NONE', #600, .T. ) ;
#52 = DIRECTION ( 'NONE',  ( 1.000000000000000000, 0.000000000000000000, 0.000000000000000000 ) ) ;
#53 = VERTEX_POINT ( 'NONE', #445 ) ;
#54 = LINE ( 'NONE', #610, #334 ) ;
#55 = CARTESIAN_POINT ( 'NONE',  ( -1.500000000000000222, 2.000000000000000444, 0.3175000000000000044 ) ) ;
#56 = EDGE_CURVE ( 'NONE', #12, #245, #554, .T. ) ;
#57 = ORIENTED_EDGE ( 'NONE', *, *, #402, .T. ) ;
#58 = FACE_OUTER_BOUND ( 'NONE', #4, .T. ) ;
#59 = LINE ( 'NONE', #272, #321 ) ;
#60 = VERTEX_POINT ( 'NONE', #55 ) ;
#61 = DIRECTION ( 'NONE',  ( -0.000000000000000000, 0.000000000000000000, 1.000000000000000000 ) ) ;
#62 = CARTESIAN_POINT ( 'NONE',  ( -0.7679571668975722076, 1.199999999999999956, 0.1349999999999999534 ) ) ;
#63 = ORIENTED_EDGE ( 'NONE', *, *, #293, .F. ) ;
#64 = CIRCLE ( 'NONE', #332, 2.500000000000000000 ) ;
#65 = CARTESIAN_POINT ( 'NONE',  ( 0.000000000000000000, 0.000000000000000000, 0.3175000000000000044 ) ) ;
#66 = EDGE_CURVE ( 'NONE', #281, #78, #611, .T. ) ;
#67 = CIRCLE ( 'NONE', #675, 0.3049999999999999933 ) ;
#68 = LINE ( 'NONE', #164, #605 ) ;
#69 = PRODUCT_DEFINITION_FORMATION_WITH_SPECIFIED_SOURCE ( 'ANY', '', #465, .NOT_KNOWN. ) ;
#70 = DIRECTION ( 'NONE',  ( -1.000000000000000000, -4.818676322157798361E-16, 0.000000000000000000 ) ) ;
#71 = CARTESIAN_POINT ( 'NONE',  ( 2.000000000000000444, 1.364999999999998437, 0.000000000000000000 ) ) ;
#72 = PLANE ( 'NONE',  #10 ) ;
#73 = DIRECTION ( 'NONE',  ( -0.5000000000000042188, -0.8660254037844362651, 0.000000000000000000 ) ) ;
#74 = ORIENTED_EDGE ( 'NONE', *, *, #230, .T. ) ;
#75 = DIRECTION ( 'NONE',  ( -0.5000000000000042188, 0.8660254037844361541, 0.000000000000000000 ) ) ;
#76 = PLANE ( 'NONE',  #630 ) ;
#77 = AXIS2_PLACEMENT_3D ( 'NONE', #276, #267, #341 ) ;
#78 = VERTEX_POINT ( 'NONE', #328 ) ;
#79 = EDGE_CURVE ( 'NONE', #60, #53, #507, .T. ) ;
#80 = CARTESIAN_POINT ( 'NONE',  ( -1.364999999999998215, 2.000000000000001776, 0.6350000000000000089 ) ) ;
#81 = LINE ( 'NONE', #629, #715 ) ;
#82 = ORIENTED_EDGE ( 'NONE', *, *, #314, .F. ) ;
#83 = CARTESIAN_POINT ( 'NONE',  ( -0.4099999999999999201, 1.820000000000000506, 0.1349999999999999534 ) ) ;
#84 = ORIENTED_EDGE ( 'NONE', *, *, #661, .F. ) ;
#85 = CARTESIAN_POINT ( 'NONE',  ( 0.000000000000000000, -0.3049999999999999933, 0.000000000000000000 ) ) ;
#86 = EDGE_CURVE ( 'NONE', #364, #482, #714, .T. ) ;
#87 = STYLED_ITEM ( 'NONE', ( #233 ), #336 ) ;
#88 = EDGE_LOOP ( 'NONE', ( #682, #360, #577, #459 ) ) ;
#89 = VECTOR ( 'NONE', #408, 100.0000000000000000 ) ;
#90 = ORIENTED_EDGE ( 'NONE', *, *, #402, .F. ) ;
#91 = DIRECTION ( 'NONE',  ( 0.000000000000000000, 0.000000000000000000, 1.000000000000000000 ) ) ;
#92 = VERTEX_POINT ( 'NONE', #280 ) ;
#93 = CARTESIAN_POINT ( 'NONE',  ( 0.000000000000000000, -0.3049999999999999933, 0.6350000000000000089 ) ) ;
#94 = EDGE_CURVE ( 'NONE', #53, #627, #114, .T. ) ;
#95 = CARTESIAN_POINT ( 'NONE',  ( 0.000000000000000000, 0.000000000000000000, 0.000000000000000000 ) ) ;
#96 =( NAMED_UNIT ( * ) SI_UNIT ( $, .STERADIAN. ) SOLID_ANGLE_UNIT ( ) );
#97 = VECTOR ( 'NONE', #14, 100.0000000000000000 ) ;
#98 = ORIENTED_EDGE ( 'NONE', *, *, #5, .F. ) ;
#99 = EDGE_CURVE ( 'NONE', #281, #12, #566, .T. ) ;
#100 = VECTOR ( 'NONE', #582, 100.0000000000000000 ) ;
#101 = DIRECTION ( 'NONE',  ( 0.000000000000000000, -1.000000000000000000, 0.000000000000000000 ) ) ;
#102 = ORIENTED_EDGE ( 'NONE', *, *, #66, .F. ) ;
#103 = DIRECTION ( 'NONE',  ( 1.000000000000000000, 1.249637081581196951E-16, 0.000000000000000000 ) ) ;
#104 = EDGE_CURVE ( 'NONE', #27, #169, #68, .T. ) ;
#105 = DIRECTION ( 'NONE',  ( 1.000000000000000000, 0.000000000000000000, 0.000000000000000000 ) ) ;
#106 = VERTEX_POINT ( 'NONE', #727 ) ;
#107 = CARTESIAN_POINT ( 'NONE',  ( 1.499999999999999778, 2.000000000000000444, 0.000000000000000000 ) ) ;
#108 = LINE ( 'NONE', #449, #477 ) ;
#109 = EDGE_CURVE ( 'NONE', #309, #423, #388, .T. ) ;
#110 = EDGE_LOOP ( 'NONE', ( #266, #556 ) ) ;
#111 = AXIS2_PLACEMENT_3D ( 'NONE', #570, #665, #400 ) ;
#112 = VECTOR ( 'NONE', #395, 100.0000000000000000 ) ;
#113 = CARTESIAN_POINT ( 'NONE',  ( -2.000000000000000000, -1.500000000000000888, 0.000000000000000000 ) ) ;
#114 = LINE ( 'NONE', #161, #203 ) ;
#115 = EDGE_LOOP ( 'NONE', ( #574, #427, #305, #464 ) ) ;
#116 = FACE_OUTER_BOUND ( 'NONE', #532, .T. ) ;
#117 = CARTESIAN_POINT ( 'NONE',  ( 1.364999999999999991, 1.364999999999998215, 0.3175000000000000044 ) ) ;
#118 = EDGE_LOOP ( 'NONE', ( #538, #718, #149, #484, #420 ) ) ;
#119 = EDGE_CURVE ( 'NONE', #413, #377, #59, .T. ) ;
#120 = FACE_OUTER_BOUND ( 'NONE', #608, .T. ) ;
#121 = CARTESIAN_POINT ( 'NONE',  ( -1.500000000000000222, 2.000000000000000444, 0.000000000000000000 ) ) ;
#122 = ORIENTED_EDGE ( 'NONE', *, *, #397, .F. ) ;
#123 = EDGE_CURVE ( 'NONE', #693, #1, #668, .T. ) ;
#124 = LINE ( 'NONE', #243, #407 ) ;
#125 = VECTOR ( 'NONE', #589, 100.0000000000000000 ) ;
#126 = DIRECTION ( 'NONE',  ( -0.000000000000000000, 0.000000000000000000, 1.000000000000000000 ) ) ;
#127 = ORIENTED_EDGE ( 'NONE', *, *, #104, .T. ) ;
#128 = CARTESIAN_POINT ( 'NONE',  ( -16.63499999999999801, 1.364999999999996438, 0.6350000000000000089 ) ) ;
#129 = DIRECTION ( 'NONE',  ( 4.818676322157799347E-16, -1.000000000000000000, 0.000000000000000000 ) ) ;
#130 = ORIENTED_EDGE ( 'NONE', *, *, #86, .F. ) ;
#131 = DIRECTION ( 'NONE',  ( 1.000000000000000000, 1.931257307898213426E-16, 0.000000000000000000 ) ) ;
#132 = LINE ( 'NONE', #412, #453 ) ;
#133 = EDGE_CURVE ( 'NONE', #323, #207, #3, .T. ) ;
#134 = VERTEX_POINT ( 'NONE', #331 ) ;
#135 = DIRECTION ( 'NONE',  ( 0.000000000000000000, 0.000000000000000000, -1.000000000000000000 ) ) ;
#136 = DIRECTION ( 'NONE',  ( 3.067291018426574134E-16, -1.000000000000000000, 0.000000000000000000 ) ) ;
#137 = AXIS2_PLACEMENT_3D ( 'NONE', #378, #101, #533 ) ;
#138 = ORIENTED_EDGE ( 'NONE', *, *, #66, .T. ) ;
#139 = DIRECTION ( 'NONE',  ( -2.312964634635742957E-16, 1.000000000000000000, 0.000000000000000000 ) ) ;
#140 = ORIENTED_EDGE ( 'NONE', *, *, #609, .F. ) ;
#141 = CARTESIAN_POINT ( 'NONE',  ( 2.000000000000000444, -0.5999999999999998668, 0.000000000000000000 ) ) ;
#142 = DIRECTION ( 'NONE',  ( -1.000000000000000000, 0.000000000000000000, 0.000000000000000000 ) ) ;
#143 = APPLICATION_CONTEXT ( 'automotive_design' ) ;
#144 = VECTOR ( 'NONE', #129, 100.0000000000000000 ) ;
#145 = ORIENTED_EDGE ( 'NONE', *, *, #633, .F. ) ;
#146 = CARTESIAN_POINT ( 'NONE',  ( 1.499999999999999778, 2.000000000000000444, 0.3175000000000000044 ) ) ;
#147 = CYLINDRICAL_SURFACE ( 'NONE', #228, 0.3049999999999999933 ) ;
#148 = CARTESIAN_POINT ( 'NONE',  ( -0.4100000000000000311, 2.000000000000000444, 0.6350000000000000089 ) ) ;
#149 = ORIENTED_EDGE ( 'NONE', *, *, #79, .F. ) ;
#150 = FACE_OUTER_BOUND ( 'NONE', #581, .T. ) ;
#151 = VECTOR ( 'NONE', #105, 100.0000000000000000 ) ;
#152 = VECTOR ( 'NONE', #180, 100.0000000000000000 ) ;
#153 = COLOUR_RGB ( '',0.7921568627450980005, 0.8196078431372548767, 0.9333333333333333481 ) ;
#154 = EDGE_LOOP ( 'NONE', ( #710, #263 ) ) ;
#155 = CARTESIAN_POINT ( 'NONE',  ( 0.000000000000000000, 0.000000000000000000, 0.000000000000000000 ) ) ;
#156 = UNCERTAINTY_MEASURE_WITH_UNIT (LENGTH_MEASURE( 1.000000000000000082E-05 ), #208, 'distance_accuracy_value', 'NONE');
#157 = LINE ( 'NONE', #385, #249 ) ;
#158 = ORIENTED_EDGE ( 'NONE', *, *, #293, .T. ) ;
#159 = EDGE_CURVE ( 'NONE', #134, #615, #441, .T. ) ;
#160 = CARTESIAN_POINT ( 'NONE',  ( -0.4099999999999999201, 1.820000000000000506, 0.1349999999999999534 ) ) ;
#161 = CARTESIAN_POINT ( 'NONE',  ( -1.364999999999998215, 2.000000000000000444, 0.000000000000000000 ) ) ;
#162 = EDGE_LOOP ( 'NONE', ( #290, #237, #329, #386 ) ) ;
#163 = FACE_BOUND ( 'NONE', #154, .T. ) ;
#164 = CARTESIAN_POINT ( 'NONE',  ( 2.000000000000001776, -0.5999999999999998668, 0.000000000000000000 ) ) ;
#165 = VERTEX_POINT ( 'NONE', #217 ) ;
#166 = AXIS2_PLACEMENT_3D ( 'NONE', #155, #283, #557 ) ;
#167 = DIRECTION ( 'NONE',  ( -0.8660254037844362651, 0.5000000000000043299, 0.000000000000000000 ) ) ;
#168 = LINE ( 'NONE', #117, #429 ) ;
#169 = VERTEX_POINT ( 'NONE', #171 ) ;
#170 = LINE ( 'NONE', #216, #362 ) ;
#171 = CARTESIAN_POINT ( 'NONE',  ( -1.999999999999999112, -0.6000000000000003109, 0.000000000000000000 ) ) ;
#172 = EDGE_CURVE ( 'NONE', #398, #53, #108, .T. ) ;
#173 = ORIENTED_EDGE ( 'NONE', *, *, #700, .T. ) ;
#174 = CARTESIAN_POINT ( 'NONE',  ( 16.63499999999999801, 1.365000000000001101, 0.3175000000000000044 ) ) ;
#175 = CARTESIAN_POINT ( 'NONE',  ( -0.4099999999999999201, 1.820000000000000506, 0.6350000000000000089 ) ) ;
#176 = ORIENTED_EDGE ( 'NONE', *, *, #252, .T. ) ;
#177 = CARTESIAN_POINT ( 'NONE',  ( 2.000000000000000444, 1.500000000000000666, 0.3175000000000000044 ) ) ;
#178 = AXIS2_PLACEMENT_3D ( 'NONE', #257, #142, #310 ) ;
#179 = AXIS2_PLACEMENT_3D ( 'NONE', #232, #694, #75 ) ;
#180 = DIRECTION ( 'NONE',  ( -1.249637081581196951E-16, 1.000000000000000000, -0.000000000000000000 ) ) ;
#181 = ORIENTED_EDGE ( 'NONE', *, *, #214, .T. ) ;
#182 = CARTESIAN_POINT ( 'NONE',  ( -1.364999999999998215, 1.364999999999999991, 0.3175000000000000044 ) ) ;
#183 = EDGE_CURVE ( 'NONE', #697, #612, #626, .T. ) ;
#184 = CARTESIAN_POINT ( 'NONE',  ( -0.7679571668975722076, 1.199999999999999956, 0.1349999999999999534 ) ) ;
#185 = ORIENTED_EDGE ( 'NONE', *, *, #94, .F. ) ;
#186 = CARTESIAN_POINT ( 'NONE',  ( 0.4100000000000000311, 2.000000000000000444, 0.1349999999999999534 ) ) ;
#187 = FILL_AREA_STYLE_COLOUR ( '', #153 ) ;
#188 = CARTESIAN_POINT ( 'NONE',  ( -0.7679571668975722076, 1.199999999999999956, 0.6350000000000000089 ) ) ;
#189 = DIRECTION ( 'NONE',  ( 0.000000000000000000, 1.000000000000000000, 0.000000000000000000 ) ) ;
#190 = LINE ( 'NONE', #695, #191 ) ;
#191 = VECTOR ( 'NONE', #126, 100.0000000000000000 ) ;
#192 = VECTOR ( 'NONE', #357, 100.0000000000000000 ) ;
#193 = EDGE_CURVE ( 'NONE', #242, #281, #452, .T. ) ;
#194 = ORIENTED_EDGE ( 'NONE', *, *, #696, .F. ) ;
#195 = ORIENTED_EDGE ( 'NONE', *, *, #471, .F. ) ;
#196 = CARTESIAN_POINT ( 'NONE',  ( -1.500000000000000222, 2.000000000000000444, 0.000000000000000000 ) ) ;
#197 = CARTESIAN_POINT ( 'NONE',  ( 0.4099999999999999201, 1.820000000000000506, 0.6350000000000000089 ) ) ;
#198 = CARTESIAN_POINT ( 'NONE',  ( 0.4100000000000000311, 2.000000000000000444, 0.1349999999999999534 ) ) ;
#199 = VERTEX_POINT ( 'NONE', #514 ) ;
#200 = CARTESIAN_POINT ( 'NONE',  ( 0.000000000000000000, 0.000000000000000000, 0.000000000000000000 ) ) ;
#201 = EDGE_CURVE ( 'NONE', #78, #693, #157, .T. ) ;
#202 = CARTESIAN_POINT ( 'NONE',  ( 0.000000000000000000, 0.000000000000000000, 0.6350000000000000089 ) ) ;
#203 = VECTOR ( 'NONE', #11, 100.0000000000000000 ) ;
#204 = VECTOR ( 'NONE', #271, 100.0000000000000000 ) ;
#205 = CARTESIAN_POINT ( 'NONE',  ( 1.364999999999999991, 2.000000000000001776, 0.3175000000000000044 ) ) ;
#206 = ADVANCED_FACE ( 'NONE', ( #583 ), #367, .T. ) ;
#207 = VERTEX_POINT ( 'NONE', #292 ) ;
#208 =( LENGTH_UNIT ( ) NAMED_UNIT ( * ) SI_UNIT ( .CENTI., .METRE. ) );
#209 = PLANE ( 'NONE',  #596 ) ;
#210 = EDGE_LOOP ( 'NONE', ( #563, #410, #318, #185 ) ) ;
#211 = CARTESIAN_POINT ( 'NONE',  ( 1.364999999999995328, 16.63499999999999801, 0.3175000000000000044 ) ) ;
#212 = DIRECTION ( 'NONE',  ( -1.249637081581196951E-16, 1.000000000000000000, -0.000000000000000000 ) ) ;
#213 = AXIS2_PLACEMENT_3D ( 'NONE', #517, #135, #189 ) ;
#214 = EDGE_CURVE ( 'NONE', #669, #106, #81, .T. ) ;
#215 = ORIENTED_EDGE ( 'NONE', *, *, #201, .T. ) ;
#216 = CARTESIAN_POINT ( 'NONE',  ( -0.4099999999999999201, 1.820000000000000506, 0.1349999999999999534 ) ) ;
#217 = CARTESIAN_POINT ( 'NONE',  ( 1.364999999999999991, 2.000000000000001776, 0.6350000000000000089 ) ) ;
#218 = EDGE_LOOP ( 'NONE', ( #37, #724, #102, #635 ) ) ;
#219 = DIRECTION ( 'NONE',  ( 1.000000000000000000, 2.385670792109557660E-16, 0.000000000000000000 ) ) ;
#220 = DIRECTION ( 'NONE',  ( 0.000000000000000000, -1.000000000000000000, 0.000000000000000000 ) ) ;
#221 = ORIENTED_EDGE ( 'NONE', *, *, #183, .T. ) ;
#222 = DIRECTION ( 'NONE',  ( -1.000000000000000000, -1.301042606982605074E-16, 0.000000000000000000 ) ) ;
#223 = CARTESIAN_POINT ( 'NONE',  ( -2.000000000000000888, 1.364999999999999991, 0.000000000000000000 ) ) ;
#224 = ORIENTED_EDGE ( 'NONE', *, *, #109, .T. ) ;
#225 = VECTOR ( 'NONE', #229, 100.0000000000000000 ) ;
#226 = VECTOR ( 'NONE', #462, 100.0000000000000000 ) ;
#227 = CARTESIAN_POINT ( 'NONE',  ( 3.735172737399427023E-17, 0.3049999999999999933, 0.000000000000000000 ) ) ;
#228 = AXIS2_PLACEMENT_3D ( 'NONE', #200, #43, #366 ) ;
#229 = DIRECTION ( 'NONE',  ( -0.000000000000000000, 0.000000000000000000, 1.000000000000000000 ) ) ;
#230 = EDGE_CURVE ( 'NONE', #78, #245, #190, .T. ) ;
#231 = ORIENTED_EDGE ( 'NONE', *, *, #397, .T. ) ;
#232 = CARTESIAN_POINT ( 'NONE',  ( 0.4099999999999999201, 1.820000000000000506, 0.1349999999999999534 ) ) ;
#233 = PRESENTATION_STYLE_ASSIGNMENT (( #475 ) ) ;
#234 = ORIENTED_EDGE ( 'NONE', *, *, #193, .F. ) ;
#235 = DIRECTION ( 'NONE',  ( 0.000000000000000000, 0.000000000000000000, -1.000000000000000000 ) ) ;
#236 = CARTESIAN_POINT ( 'NONE',  ( -2.000000000000000000, -1.500000000000000888, 0.3175000000000000044 ) ) ;
#237 = ORIENTED_EDGE ( 'NONE', *, *, #467, .T. ) ;
#238 = EDGE_CURVE ( 'NONE', #516, #323, #419, .T. ) ;
#239 = LINE ( 'NONE', #182, #100 ) ;
#240 = AXIS2_PLACEMENT_3D ( 'NONE', #202, #430, #651 ) ;
#241 = DIRECTION ( 'NONE',  ( 0.000000000000000000, -1.000000000000000000, 0.000000000000000000 ) ) ;
#242 = VERTEX_POINT ( 'NONE', #83 ) ;
#243 = CARTESIAN_POINT ( 'NONE',  ( -1.500000000000000222, 2.000000000000000444, 0.6350000000000000089 ) ) ;
#244 = DIRECTION ( 'NONE',  ( 1.000000000000000000, 1.301042606982605074E-16, 0.000000000000000000 ) ) ;
#245 = VERTEX_POINT ( 'NONE', #684 ) ;
#246 = CARTESIAN_POINT ( 'NONE',  ( -2.000000000000000000, -1.500000000000000888, 0.6350000000000000089 ) ) ;
#247 = CARTESIAN_POINT ( 'NONE',  ( -1.364999999999999991, 16.63499999999999801, 0.6350000000000000089 ) ) ;
#248 = ORIENTED_EDGE ( 'NONE', *, *, #123, .F. ) ;
#249 = VECTOR ( 'NONE', #640, 100.0000000000000142 ) ;
#250 = LINE ( 'NONE', #196, #573 ) ;
#251 = AXIS2_PLACEMENT_3D ( 'NONE', #330, #103, #451 ) ;
#252 = EDGE_CURVE ( 'NONE', #693, #199, #304, .T. ) ;
#253 = EDGE_LOOP ( 'NONE', ( #702, #502, #450, #720 ) ) ;
#254 = PLANE ( 'NONE',  #178 ) ;
#255 = EDGE_LOOP ( 'NONE', ( #98, #461, #416, #512, #352 ) ) ;
#256 = DIRECTION ( 'NONE',  ( 0.000000000000000000, -1.000000000000000000, 0.000000000000000000 ) ) ;
#257 = CARTESIAN_POINT ( 'NONE',  ( 2.000000000000000444, 1.500000000000000666, 0.000000000000000000 ) ) ;
#258 =( NAMED_UNIT ( * ) PLANE_ANGLE_UNIT ( ) SI_UNIT ( $, .RADIAN. ) );
#259 = EDGE_CURVE ( 'NONE', #615, #106, #20, .T. ) ;
#260 = DIRECTION ( 'NONE',  ( 4.818676322157798361E-16, 1.000000000000000000, 0.000000000000000000 ) ) ;
#261 = CIRCLE ( 'NONE', #689, 0.3049999999999999933 ) ;
#262 = AXIS2_PLACEMENT_3D ( 'NONE', #65, #683, #13 ) ;
#263 = ORIENTED_EDGE ( 'NONE', *, *, #269, .T. ) ;
#264 = DIRECTION ( 'NONE',  ( 0.000000000000000000, 1.000000000000000000, 0.000000000000000000 ) ) ;
#265 = CARTESIAN_POINT ( 'NONE',  ( 0.000000000000000000, 0.000000000000000000, 0.000000000000000000 ) ) ;
#266 = ORIENTED_EDGE ( 'NONE', *, *, #373, .F. ) ;
#267 = DIRECTION ( 'NONE',  ( 0.000000000000000000, -1.000000000000000000, 0.000000000000000000 ) ) ;
#268 = ORIENTED_EDGE ( 'NONE', *, *, #542, .T. ) ;
#269 = EDGE_CURVE ( 'NONE', #482, #364, #261, .T. ) ;
#270 = VERTEX_POINT ( 'NONE', #175 ) ;
#271 = DIRECTION ( 'NONE',  ( -0.000000000000000000, 0.000000000000000000, 1.000000000000000000 ) ) ;
#272 = CARTESIAN_POINT ( 'NONE',  ( -1.500000000000000222, 2.000000000000000444, 0.3175000000000000044 ) ) ;
#273 = AXIS2_PLACEMENT_3D ( 'NONE', #426, #91, #543 ) ;
#274 =( GEOMETRIC_REPRESENTATION_CONTEXT ( 3 ) GLOBAL_UNCERTAINTY_ASSIGNED_CONTEXT ( ( #156 ) ) GLOBAL_UNIT_ASSIGNED_CONTEXT ( ( #208, #258, #646 ) ) REPRESENTATION_CONTEXT ( 'NONE', 'WORKASPACE' ) );
#275 = ORIENTED_EDGE ( 'NONE', *, *, #238, .T. ) ;
#276 = CARTESIAN_POINT ( 'NONE',  ( 0.7679571668975722076, 1.199999999999999956, 0.1349999999999999534 ) ) ;
#277 = DIRECTION ( 'NONE',  ( -0.000000000000000000, 0.000000000000000000, 1.000000000000000000 ) ) ;
#278 = VERTEX_POINT ( 'NONE', #468 ) ;
#279 = PLANE ( 'NONE',  #41 ) ;
#280 = CARTESIAN_POINT ( 'NONE',  ( -1.364999999999998215, 1.364999999999999991, 0.6350000000000000089 ) ) ;
#281 = VERTEX_POINT ( 'NONE', #184 ) ;
#282 = EDGE_CURVE ( 'NONE', #245, #1, #132, .T. ) ;
#283 = DIRECTION ( 'NONE',  ( 0.000000000000000000, 0.000000000000000000, 1.000000000000000000 ) ) ;
#284 = CARTESIAN_POINT ( 'NONE',  ( 0.7679571668975722076, 1.199999999999999956, 0.6350000000000000089 ) ) ;
#285 = ORIENTED_EDGE ( 'NONE', *, *, #707, .F. ) ;
#286 = VECTOR ( 'NONE', #277, 100.0000000000000000 ) ;
#287 = CARTESIAN_POINT ( 'NONE',  ( -2.000000000000000888, 1.499999999999999334, 0.000000000000000000 ) ) ;
#288 = AXIS2_PLACEMENT_3D ( 'NONE', #602, #592, #649 ) ;
#289 = DIRECTION ( 'NONE',  ( -0.5000000000000042188, -0.8660254037844362651, 0.000000000000000000 ) ) ;
#290 = ORIENTED_EDGE ( 'NONE', *, *, #269, .F. ) ;
#291 = LINE ( 'NONE', #403, #322 ) ;
#292 = CARTESIAN_POINT ( 'NONE',  ( 2.000000000000001776, -0.5999999999999998668, 0.6350000000000000089 ) ) ;
#293 = EDGE_CURVE ( 'NONE', #423, #270, #531, .T. ) ;
#294 = ORIENTED_EDGE ( 'NONE', *, *, #443, .F. ) ;
#295 = LINE ( 'NONE', #177, #89 ) ;
#296 = LINE ( 'NONE', #522, #380 ) ;
#297 = VERTEX_POINT ( 'NONE', #308 ) ;
#298 = VECTOR ( 'NONE', #510, 100.0000000000000000 ) ;
#299 = LINE ( 'NONE', #186, #500 ) ;
#300 = VECTOR ( 'NONE', #460, 100.0000000000000000 ) ;
#301 = CARTESIAN_POINT ( 'NONE',  ( 0.000000000000000000, 0.000000000000000000, 0.1349999999999999534 ) ) ;
#302 = CARTESIAN_POINT ( 'NONE',  ( 0.000000000000000000, 0.000000000000000000, 0.3175000000000000044 ) ) ;
#303 = PLANE ( 'NONE',  #44 ) ;
#304 = LINE ( 'NONE', #692, #607 ) ;
#305 = ORIENTED_EDGE ( 'NONE', *, *, #481, .T. ) ;
#306 = DIRECTION ( 'NONE',  ( 1.000000000000000000, 0.000000000000000000, 0.000000000000000000 ) ) ;
#307 = EDGE_CURVE ( 'NONE', #92, #627, #688, .T. ) ;
#308 = CARTESIAN_POINT ( 'NONE',  ( 1.364999999999999991, 1.364999999999998215, 0.6350000000000000089 ) ) ;
#309 = VERTEX_POINT ( 'NONE', #590 ) ;
#310 = DIRECTION ( 'NONE',  ( 0.000000000000000000, -1.000000000000000000, 0.000000000000000000 ) ) ;
#311 = AXIS2_PLACEMENT_3D ( 'NONE', #433, #486, #603 ) ;
#312 = EDGE_CURVE ( 'NONE', #165, #297, #634, .T. ) ;
#313 = ORIENTED_EDGE ( 'NONE', *, *, #681, .F. ) ;
#314 = EDGE_CURVE ( 'NONE', #270, #12, #579, .T. ) ;
#315 = EDGE_LOOP ( 'NONE', ( #495, #194, #673, #624 ) ) ;
#316 = CARTESIAN_POINT ( 'NONE',  ( -2.000000000000000000, -1.500000000000000888, 0.000000000000000000 ) ) ;
#317 = FACE_OUTER_BOUND ( 'NONE', #23, .T. ) ;
#318 = ORIENTED_EDGE ( 'NONE', *, *, #307, .T. ) ;
#319 = CARTESIAN_POINT ( 'NONE',  ( -1.500000000000000222, 2.000000000000000444, 0.6350000000000000089 ) ) ;
#320 = CARTESIAN_POINT ( 'NONE',  ( 0.000000000000000000, 0.000000000000000000, 0.6350000000000000089 ) ) ;
#321 = VECTOR ( 'NONE', #52, 100.0000000000000000 ) ;
#322 = VECTOR ( 'NONE', #698, 100.0000000000000000 ) ;
#323 = VERTEX_POINT ( 'NONE', #699 ) ;
#324 = EDGE_CURVE ( 'NONE', #364, #356, #296, .T. ) ;
#325 = DIRECTION ( 'NONE',  ( -2.312964634635742957E-16, 1.000000000000000000, 0.000000000000000000 ) ) ;
#326 = ORIENTED_EDGE ( 'NONE', *, *, #48, .F. ) ;
#327 = PLANE ( 'NONE',  #77 ) ;
#328 = CARTESIAN_POINT ( 'NONE',  ( 0.7679571668975722076, 1.199999999999999956, 0.1349999999999999534 ) ) ;
#329 = ORIENTED_EDGE ( 'NONE', *, *, #383, .T. ) ;
#330 = CARTESIAN_POINT ( 'NONE',  ( -1.364999999999999991, 16.63499999999999801, 0.3175000000000000044 ) ) ;
#331 = CARTESIAN_POINT ( 'NONE',  ( -2.000000000000001776, 1.364999999999999991, 0.6350000000000000089 ) ) ;
#332 = AXIS2_PLACEMENT_3D ( 'NONE', #302, #648, #584 ) ;
#333 = ADVANCED_FACE ( 'NONE', ( #358 ), #76, .T. ) ;
#334 = VECTOR ( 'NONE', #664, 100.0000000000000000 ) ;
#335 = ORIENTED_EDGE ( 'NONE', *, *, #568, .F. ) ;
#336 = MANIFOLD_SOLID_BREP ( 'Cut-Extrude5', #653 ) ;
#337 = LINE ( 'NONE', #390, #618 ) ;
#338 = DIRECTION ( 'NONE',  ( -1.000000000000000000, -1.301042606982605074E-16, 0.000000000000000000 ) ) ;
#339 = ADVANCED_FACE ( 'NONE', ( #45 ), #26, .F. ) ;
#340 = ORIENTED_EDGE ( 'NONE', *, *, #657, .T. ) ;
#341 = DIRECTION ( 'NONE',  ( 1.000000000000000000, 0.000000000000000000, 0.000000000000000000 ) ) ;
#342 = DIRECTION ( 'NONE',  ( -0.000000000000000000, 0.000000000000000000, 1.000000000000000000 ) ) ;
#343 = VERTEX_POINT ( 'NONE', #40 ) ;
#344 = DIRECTION ( 'NONE',  ( 3.067291018426574134E-16, -1.000000000000000000, 0.000000000000000000 ) ) ;
#345 = DIRECTION ( 'NONE',  ( 1.000000000000000000, 0.000000000000000000, 0.000000000000000000 ) ) ;
#346 = AXIS2_PLACEMENT_3D ( 'NONE', #17, #404, #244 ) ;
#347 = ORIENTED_EDGE ( 'NONE', *, *, #133, .T. ) ;
#348 = VECTOR ( 'NONE', #474, 100.0000000000000000 ) ;
#349 = LINE ( 'NONE', #575, #226 ) ;
#350 = EDGE_CURVE ( 'NONE', #106, #60, #440, .T. ) ;
#351 = DIRECTION ( 'NONE',  ( 4.818676322157799347E-16, 1.000000000000000000, 0.000000000000000000 ) ) ;
#352 = ORIENTED_EDGE ( 'NONE', *, *, #657, .F. ) ;
#353 = FACE_OUTER_BOUND ( 'NONE', #638, .T. ) ;
#354 = CARTESIAN_POINT ( 'NONE',  ( -0.4100000000000000311, 2.000000000000000444, 0.6350000000000000089 ) ) ;
#355 = PRODUCT_DEFINITION_SHAPE ( 'NONE', 'NONE',  #677 ) ;
#356 = VERTEX_POINT ( 'NONE', #93 ) ;
#357 = DIRECTION ( 'NONE',  ( 1.000000000000000000, 2.385670792109557660E-16, 0.000000000000000000 ) ) ;
#358 = FACE_OUTER_BOUND ( 'NONE', #473, .T. ) ;
#359 = ADVANCED_FACE ( 'NONE', ( #150 ), #548, .T. ) ;
#360 = ORIENTED_EDGE ( 'NONE', *, *, #686, .F. ) ;
#361 = CARTESIAN_POINT ( 'NONE',  ( -1.999999999999999112, -0.6000000000000003109, 0.6350000000000000089 ) ) ;
#362 = VECTOR ( 'NONE', #61, 100.0000000000000000 ) ;
#363 = DIRECTION ( 'NONE',  ( 0.000000000000000000, -1.000000000000000000, 0.000000000000000000 ) ) ;
#364 = VERTEX_POINT ( 'NONE', #85 ) ;
#365 = EDGE_CURVE ( 'NONE', #207, #27, #656, .T. ) ;
#366 = DIRECTION ( 'NONE',  ( 0.000000000000000000, -1.000000000000000000, 0.000000000000000000 ) ) ;
#367 = PLANE ( 'NONE',  #346 ) ;
#368 = ORIENTED_EDGE ( 'NONE', *, *, #307, .F. ) ;
#369 = ADVANCED_FACE ( 'NONE', ( #317 ), #254, .F. ) ;
#370 = DIRECTION ( 'NONE',  ( 0.000000000000000000, 1.000000000000000000, 0.000000000000000000 ) ) ;
#371 = LINE ( 'NONE', #595, #21 ) ;
#372 = VECTOR ( 'NONE', #139, 100.0000000000000000 ) ;
#373 = EDGE_CURVE ( 'NONE', #356, #49, #393, .T. ) ;
#374 = ORIENTED_EDGE ( 'NONE', *, *, #443, .T. ) ;
#375 = CARTESIAN_POINT ( 'NONE',  ( 0.000000000000000000, 0.000000000000000000, 0.3175000000000000044 ) ) ;
#376 = FACE_BOUND ( 'NONE', #110, .T. ) ;
#377 = VERTEX_POINT ( 'NONE', #146 ) ;
#378 = CARTESIAN_POINT ( 'NONE',  ( -1.500000000000000222, 2.000000000000000444, 0.000000000000000000 ) ) ;
#379 = UNCERTAINTY_MEASURE_WITH_UNIT (LENGTH_MEASURE( 1.000000000000000082E-05 ), #32, 'distance_accuracy_value', 'NONE');
#380 = VECTOR ( 'NONE', #472, 100.0000000000000000 ) ;
#381 = AXIS2_PLACEMENT_3D ( 'NONE', #95, #256, #306 ) ;
#382 = ORIENTED_EDGE ( 'NONE', *, *, #48, .T. ) ;
#383 = EDGE_CURVE ( 'NONE', #49, #356, #67, .T. ) ;
#384 = PLANE ( 'NONE',  #22 ) ;
#385 = CARTESIAN_POINT ( 'NONE',  ( 0.4099999999999999201, 1.820000000000000506, 0.1349999999999999534 ) ) ;
#386 = ORIENTED_EDGE ( 'NONE', *, *, #324, .F. ) ;
#387 = DIRECTION ( 'NONE',  ( -0.5000000000000042188, -0.8660254037844361541, 0.000000000000000000 ) ) ;
#388 = LINE ( 'NONE', #562, #225 ) ;
#389 = ORIENTED_EDGE ( 'NONE', *, *, #56, .F. ) ;
#390 = CARTESIAN_POINT ( 'NONE',  ( 0.4100000000000000311, 2.000000000000000444, 0.6350000000000000089 ) ) ;
#391 = DIRECTION ( 'NONE',  ( 0.000000000000000000, 0.000000000000000000, -1.000000000000000000 ) ) ;
#392 = ADVANCED_FACE ( 'NONE', ( #709 ), #209, .F. ) ;
#393 = CIRCLE ( 'NONE', #311, 0.3049999999999999933 ) ;
#394 = ORIENTED_EDGE ( 'NONE', *, *, #458, .F. ) ;
#395 = DIRECTION ( 'NONE',  ( -0.000000000000000000, 0.000000000000000000, 1.000000000000000000 ) ) ;
#396 = CARTESIAN_POINT ( 'NONE',  ( 0.7679571668975722076, 1.199999999999999956, 0.1349999999999999534 ) ) ;
#397 = EDGE_CURVE ( 'NONE', #278, #612, #525, .T. ) ;
#398 = VERTEX_POINT ( 'NONE', #488 ) ;
#399 = LINE ( 'NONE', #448, #654 ) ;
#400 = DIRECTION ( 'NONE',  ( 0.000000000000000000, -1.000000000000000000, 0.000000000000000000 ) ) ;
#401 = EDGE_LOOP ( 'NONE', ( #454, #382, #662, #394, #524, #604, #437, #620, #173, #405, #195, #544 ) ) ;
#402 = EDGE_CURVE ( 'NONE', #697, #669, #558, .T. ) ;
#403 = CARTESIAN_POINT ( 'NONE',  ( -0.4100000000000000311, 2.000000000000000444, 0.1349999999999999534 ) ) ;
#404 = DIRECTION ( 'NONE',  ( 1.301042606982605074E-16, -1.000000000000000000, 0.000000000000000000 ) ) ;
#405 = ORIENTED_EDGE ( 'NONE', *, *, #109, .F. ) ;
#406 = AXIS2_PLACEMENT_3D ( 'NONE', #375, #480, #370 ) ;
#407 = VECTOR ( 'NONE', #470, 100.0000000000000000 ) ;
#408 = DIRECTION ( 'NONE',  ( 0.000000000000000000, -1.000000000000000000, 0.000000000000000000 ) ) ;
#409 = CARTESIAN_POINT ( 'NONE',  ( 1.364999999999995328, 16.63499999999999801, 0.6350000000000000089 ) ) ;
#410 = ORIENTED_EDGE ( 'NONE', *, *, #686, .T. ) ;
#411 = CARTESIAN_POINT ( 'NONE',  ( 0.4099999999999999201, 1.820000000000000506, 0.1349999999999999534 ) ) ;
#412 = CARTESIAN_POINT ( 'NONE',  ( 0.4099999999999999201, 1.820000000000000506, 0.6350000000000000089 ) ) ;
#413 = VERTEX_POINT ( 'NONE', #205 ) ;
#414 = DIRECTION ( 'NONE',  ( -0.000000000000000000, 0.000000000000000000, 1.000000000000000000 ) ) ;
#415 = FILL_AREA_STYLE ('',( #187 ) ) ;
#416 = ORIENTED_EDGE ( 'NONE', *, *, #519, .T. ) ;
#417 = CARTESIAN_POINT ( 'NONE',  ( 1.499999999999999778, 2.000000000000000444, 0.000000000000000000 ) ) ;
#418 = VECTOR ( 'NONE', #73, 100.0000000000000142 ) ;
#419 = LINE ( 'NONE', #71, #97 ) ;
#420 = ORIENTED_EDGE ( 'NONE', *, *, #259, .F. ) ;
#421 = VERTEX_POINT ( 'NONE', #659 ) ;
#422 = DIRECTION ( 'NONE',  ( -0.000000000000000000, 0.000000000000000000, 1.000000000000000000 ) ) ;
#423 = VERTEX_POINT ( 'NONE', #148 ) ;
#424 = PLANE ( 'NONE',  #511 ) ;
#425 = ADVANCED_FACE ( 'NONE', ( #606 ), #435, .F. ) ;
#426 = CARTESIAN_POINT ( 'NONE',  ( 0.000000000000000000, 0.000000000000000000, 0.000000000000000000 ) ) ;
#427 = ORIENTED_EDGE ( 'NONE', *, *, #365, .F. ) ;
#428 = FACE_OUTER_BOUND ( 'NONE', #552, .T. ) ;
#429 = VECTOR ( 'NONE', #342, 100.0000000000000000 ) ;
#430 = DIRECTION ( 'NONE',  ( 0.000000000000000000, 0.000000000000000000, -1.000000000000000000 ) ) ;
#431 = AXIS2_PLACEMENT_3D ( 'NONE', #160, #167, #387 ) ;
#432 = FACE_OUTER_BOUND ( 'NONE', #118, .T. ) ;
#433 = CARTESIAN_POINT ( 'NONE',  ( 0.000000000000000000, 0.000000000000000000, 0.6350000000000000089 ) ) ;
#434 = ORIENTED_EDGE ( 'NONE', *, *, #214, .F. ) ;
#435 = PLANE ( 'NONE',  #137 ) ;
#436 = EDGE_CURVE ( 'NONE', #697, #60, #250, .T. ) ;
#437 = ORIENTED_EDGE ( 'NONE', *, *, #79, .T. ) ;
#438 = CARTESIAN_POINT ( 'NONE',  ( 2.000000000000000000, 1.500000000000000222, 0.3175000000000000044 ) ) ;
#439 = VECTOR ( 'NONE', #391, 100.0000000000000000 ) ;
#440 = CIRCLE ( 'NONE', #406, 2.500000000000000000 ) ;
#441 = LINE ( 'NONE', #223, #478 ) ;
#442 = ORIENTED_EDGE ( 'NONE', *, *, #99, .F. ) ;
#443 = EDGE_CURVE ( 'NONE', #242, #270, #170, .T. ) ;
#444 = LINE ( 'NONE', #211, #642 ) ;
#445 = CARTESIAN_POINT ( 'NONE',  ( -1.364999999999998215, 2.000000000000000444, 0.3175000000000000044 ) ) ;
#446 = ORIENTED_EDGE ( 'NONE', *, *, #580, .F. ) ;
#447 = ADVANCED_FACE ( 'NONE', ( #163, #51 ), #550, .F. ) ;
#448 = CARTESIAN_POINT ( 'NONE',  ( 2.000000000000001776, -0.5999999999999998668, 0.6350000000000000089 ) ) ;
#449 = CARTESIAN_POINT ( 'NONE',  ( -1.364999999999999991, 16.63499999999999801, 0.3175000000000000044 ) ) ;
#450 = ORIENTED_EDGE ( 'NONE', *, *, #568, .T. ) ;
#451 = DIRECTION ( 'NONE',  ( -1.249637081581196951E-16, 1.000000000000000000, 0.000000000000000000 ) ) ;
#452 = LINE ( 'NONE', #676, #571 ) ;
#453 = VECTOR ( 'NONE', #576, 100.0000000000000142 ) ;
#454 = ORIENTED_EDGE ( 'NONE', *, *, #633, .T. ) ;
#455 = ADVANCED_BREP_SHAPE_REPRESENTATION ( 'vertex-single_61', ( #336, #381 ), #274 ) ;
#456 = LINE ( 'NONE', #107, #572 ) ;
#457 = DIRECTION ( 'NONE',  ( 0.000000000000000000, 0.000000000000000000, -1.000000000000000000 ) ) ;
#458 = EDGE_CURVE ( 'NONE', #612, #377, #456, .T. ) ;
#459 = ORIENTED_EDGE ( 'NONE', *, *, #159, .F. ) ;
#460 = DIRECTION ( 'NONE',  ( 1.000000000000000000, 1.931257307898213426E-16, 0.000000000000000000 ) ) ;
#461 = ORIENTED_EDGE ( 'NONE', *, *, #119, .F. ) ;
#462 = DIRECTION ( 'NONE',  ( 1.000000000000000000, 1.931257307898213426E-16, 0.000000000000000000 ) ) ;
#463 = DIRECTION ( 'NONE',  ( 0.000000000000000000, 0.000000000000000000, 1.000000000000000000 ) ) ;
#464 = ORIENTED_EDGE ( 'NONE', *, *, #609, .T. ) ;
#465 = PRODUCT ( 'vertex-single_61', 'vertex-single_61', '', ( #35 ) ) ;
#466 = CARTESIAN_POINT ( 'NONE',  ( 16.63499999999999801, 1.365000000000001101, 0.3175000000000000044 ) ) ;
#467 = EDGE_CURVE ( 'NONE', #482, #49, #9, .T. ) ;
#468 = CARTESIAN_POINT ( 'NONE',  ( 2.000000000000000444, 1.500000000000000666, 0.000000000000000000 ) ) ;
#469 = ORIENTED_EDGE ( 'NONE', *, *, #365, .T. ) ;
#470 = DIRECTION ( 'NONE',  ( 1.000000000000000000, 0.000000000000000000, 0.000000000000000000 ) ) ;
#471 = EDGE_CURVE ( 'NONE', #199, #309, #553, .T. ) ;
#472 = DIRECTION ( 'NONE',  ( -0.000000000000000000, 0.000000000000000000, 1.000000000000000000 ) ) ;
#473 = EDGE_LOOP ( 'NONE', ( #493, #631, #34, #138, #215, #176 ) ) ;
#474 = DIRECTION ( 'NONE',  ( -2.312964634635742957E-16, 1.000000000000000000, 0.000000000000000000 ) ) ;
#475 = SURFACE_STYLE_USAGE ( .BOTH. , #30 ) ;
#476 = ORIENTED_EDGE ( 'NONE', *, *, #700, .F. ) ;
#477 = VECTOR ( 'NONE', #212, 100.0000000000000000 ) ;
#478 = VECTOR ( 'NONE', #457, 100.0000000000000000 ) ;
#479 = AXIS2_PLACEMENT_3D ( 'NONE', #265, #647, #717 ) ;
#480 = DIRECTION ( 'NONE',  ( 0.000000000000000000, 0.000000000000000000, -1.000000000000000000 ) ) ;
#481 = EDGE_CURVE ( 'NONE', #207, #421, #399, .T. ) ;
#482 = VERTEX_POINT ( 'NONE', #497 ) ;
#483 = DIRECTION ( 'NONE',  ( 0.000000000000000000, 0.000000000000000000, 1.000000000000000000 ) ) ;
#484 = ORIENTED_EDGE ( 'NONE', *, *, #350, .F. ) ;
#485 = SHAPE_DEFINITION_REPRESENTATION ( #355, #455 ) ;
#486 = DIRECTION ( 'NONE',  ( 0.000000000000000000, 0.000000000000000000, 1.000000000000000000 ) ) ;
#487 = EDGE_CURVE ( 'NONE', #615, #398, #54, .T. ) ;
#488 = CARTESIAN_POINT ( 'NONE',  ( -1.364999999999998215, 1.364999999999999991, 0.3175000000000000044 ) ) ;
#489 = VECTOR ( 'NONE', #136, 100.0000000000000000 ) ;
#490 = ORIENTED_EDGE ( 'NONE', *, *, #312, .T. ) ;
#491 = PLANE ( 'NONE',  #288 ) ;
#492 = ADVANCED_FACE ( 'NONE', ( #721 ), #625, .F. ) ;
#493 = ORIENTED_EDGE ( 'NONE', *, *, #471, .T. ) ;
#494 = CARTESIAN_POINT ( 'NONE',  ( 2.000000000000001776, 1.364999999999998437, 0.3175000000000000044 ) ) ;
#495 = ORIENTED_EDGE ( 'NONE', *, *, #551, .T. ) ;
#496 = ORIENTED_EDGE ( 'NONE', *, *, #542, .F. ) ;
#497 = CARTESIAN_POINT ( 'NONE',  ( 3.735172737399427023E-17, 0.3049999999999999933, 0.000000000000000000 ) ) ;
#498 = PRESENTATION_LAYER_ASSIGNMENT (  '', '', ( #87 ) ) ;
#499 = LINE ( 'NONE', #559, #439 ) ;
#500 = VECTOR ( 'NONE', #414, 100.0000000000000000 ) ;
#501 = ADVANCED_FACE ( 'NONE', ( #674 ), #384, .F. ) ;
#502 = ORIENTED_EDGE ( 'NONE', *, *, #36, .T. ) ;
#503 = PLANE ( 'NONE',  #663 ) ;
#504 = CARTESIAN_POINT ( 'NONE',  ( -1.500000000000000222, 2.000000000000000444, 0.3175000000000000044 ) ) ;
#505 = ORIENTED_EDGE ( 'NONE', *, *, #661, .T. ) ;
#506 = LINE ( 'NONE', #670, #112 ) ;
#507 = LINE ( 'NONE', #504, #547 ) ;
#508 = VERTEX_POINT ( 'NONE', #438 ) ;
#509 = DIRECTION ( 'NONE',  ( -0.000000000000000000, 0.000000000000000000, 1.000000000000000000 ) ) ;
#510 = DIRECTION ( 'NONE',  ( -0.000000000000000000, 0.000000000000000000, 1.000000000000000000 ) ) ;
#511 = AXIS2_PLACEMENT_3D ( 'NONE', #655, #38, #264 ) ;
#512 = ORIENTED_EDGE ( 'NONE', *, *, #564, .T. ) ;
#513 = DIRECTION ( 'NONE',  ( 1.931257307898213426E-16, -1.000000000000000000, 0.000000000000000000 ) ) ;
#514 = CARTESIAN_POINT ( 'NONE',  ( 0.4100000000000001421, 2.000000000000000444, 0.1349999999999999534 ) ) ;
#515 = ADVANCED_FACE ( 'NONE', ( #47 ), #327, .F. ) ;
#516 = VERTEX_POINT ( 'NONE', #494 ) ;
#517 = CARTESIAN_POINT ( 'NONE',  ( 0.000000000000000000, 0.000000000000000000, 0.6350000000000000089 ) ) ;
#518 = DIRECTION ( 'NONE',  ( -0.000000000000000000, 0.000000000000000000, 1.000000000000000000 ) ) ;
#519 = EDGE_CURVE ( 'NONE', #413, #641, #444, .T. ) ;
#520 = ORIENTED_EDGE ( 'NONE', *, *, #29, .F. ) ;
#521 = LINE ( 'NONE', #174, #300 ) ;
#522 = CARTESIAN_POINT ( 'NONE',  ( 0.000000000000000000, -0.3049999999999999933, 0.000000000000000000 ) ) ;
#523 = VECTOR ( 'NONE', #672, 100.0000000000000000 ) ;
#524 = ORIENTED_EDGE ( 'NONE', *, *, #183, .F. ) ;
#525 = CIRCLE ( 'NONE', #273, 2.500000000000000000 ) ;
#526 = ADVANCED_FACE ( 'NONE', ( #116 ), #667, .F. ) ;
#527 = CARTESIAN_POINT ( 'NONE',  ( -1.500000000000000222, 2.000000000000000444, 0.000000000000000000 ) ) ;
#528 = DIRECTION ( 'NONE',  ( 0.000000000000000000, 0.000000000000000000, 1.000000000000000000 ) ) ;
#529 = ORIENTED_EDGE ( 'NONE', *, *, #5, .T. ) ;
#530 = FACE_OUTER_BOUND ( 'NONE', #255, .T. ) ;
#531 = LINE ( 'NONE', #354, #144 ) ;
#532 = EDGE_LOOP ( 'NONE', ( #8, #442, #234, #374 ) ) ;
#533 = DIRECTION ( 'NONE',  ( 1.000000000000000000, 0.000000000000000000, 0.000000000000000000 ) ) ;
#534 = ADVANCED_FACE ( 'NONE', ( #613 ), #503, .F. ) ;
#535 = ORIENTED_EDGE ( 'NONE', *, *, #458, .T. ) ;
#536 = AXIS2_PLACEMENT_3D ( 'NONE', #594, #705, #540 ) ;
#537 = DIRECTION ( 'NONE',  ( 0.000000000000000000, 0.000000000000000000, -1.000000000000000000 ) ) ;
#538 = ORIENTED_EDGE ( 'NONE', *, *, #487, .T. ) ;
#539 = ORIENTED_EDGE ( 'NONE', *, *, #312, .F. ) ;
#540 = DIRECTION ( 'NONE',  ( 0.000000000000000000, -1.000000000000000000, 0.000000000000000000 ) ) ;
#541 = ORIENTED_EDGE ( 'NONE', *, *, #259, .T. ) ;
#542 = EDGE_CURVE ( 'NONE', #278, #508, #506, .T. ) ;
#543 = DIRECTION ( 'NONE',  ( 0.000000000000000000, -1.000000000000000000, 0.000000000000000000 ) ) ;
#544 = ORIENTED_EDGE ( 'NONE', *, *, #696, .T. ) ;
#545 = LINE ( 'NONE', #316, #598 ) ;
#546 = PRODUCT_RELATED_PRODUCT_CATEGORY ( 'part', '', ( #465 ) ) ;
#547 = VECTOR ( 'NONE', #345, 100.0000000000000000 ) ;
#548 = CYLINDRICAL_SURFACE ( 'NONE', #240, 2.500000000000000000 ) ;
#549 = VECTOR ( 'NONE', #616, 100.0000000000000000 ) ;
#550 = PLANE ( 'NONE',  #166 ) ;
#551 = EDGE_CURVE ( 'NONE', #1, #343, #337, .T. ) ;
#552 = EDGE_LOOP ( 'NONE', ( #84, #652, #678, #335, #539, #145, #690, #666, #389, #82, #63, #476, #368, #313 ) ) ;
#553 = LINE ( 'NONE', #679, #549 ) ;
#554 = LINE ( 'NONE', #284, #617 ) ;
#555 = ADVANCED_FACE ( 'NONE', ( #58 ), #279, .F. ) ;
#556 = ORIENTED_EDGE ( 'NONE', *, *, #383, .F. ) ;
#557 = DIRECTION ( 'NONE',  ( 0.000000000000000000, -1.000000000000000000, 0.000000000000000000 ) ) ;
#558 = CIRCLE ( 'NONE', #479, 2.500000000000000000 ) ;
#559 = CARTESIAN_POINT ( 'NONE',  ( 1.364999999999999769, 2.000000000000000444, 0.000000000000000000 ) ) ;
#560 = EDGE_LOOP ( 'NONE', ( #706, #248, #46, #74 ) ) ;
#561 = DIRECTION ( 'NONE',  ( 4.818676322157799347E-16, 1.000000000000000000, 0.000000000000000000 ) ) ;
#562 = CARTESIAN_POINT ( 'NONE',  ( -0.4100000000000000311, 2.000000000000000444, 0.1349999999999999534 ) ) ;
#563 = ORIENTED_EDGE ( 'NONE', *, *, #172, .F. ) ;
#564 = EDGE_CURVE ( 'NONE', #641, #516, #521, .T. ) ;
#565 = DIRECTION ( 'NONE',  ( 2.385670792109557660E-16, -1.000000000000000000, 0.000000000000000000 ) ) ;
#566 = LINE ( 'NONE', #62, #298 ) ;
#567 = ORIENTED_EDGE ( 'NONE', *, *, #159, .T. ) ;
#568 = EDGE_CURVE ( 'NONE', #297, #323, #349, .T. ) ;
#569 = CARTESIAN_POINT ( 'NONE',  ( 1.364999999999999991, 1.364999999999998215, 0.3175000000000000044 ) ) ;
#570 = CARTESIAN_POINT ( 'NONE',  ( 0.000000000000000000, 0.000000000000000000, 0.000000000000000000 ) ) ;
#571 = VECTOR ( 'NONE', #289, 100.0000000000000142 ) ;
#572 = VECTOR ( 'NONE', #509, 100.0000000000000000 ) ;
#573 = VECTOR ( 'NONE', #422, 100.0000000000000000 ) ;
#574 = ORIENTED_EDGE ( 'NONE', *, *, #104, .F. ) ;
#575 = CARTESIAN_POINT ( 'NONE',  ( 16.63499999999999801, 1.365000000000001101, 0.6350000000000000089 ) ) ;
#576 = DIRECTION ( 'NONE',  ( -0.5000000000000042188, 0.8660254037844362651, -0.000000000000000000 ) ) ;
#577 = ORIENTED_EDGE ( 'NONE', *, *, #487, .F. ) ;
#578 = CYLINDRICAL_SURFACE ( 'NONE', #213, 2.500000000000000000 ) ;
#579 = LINE ( 'NONE', #637, #418 ) ;
#580 = EDGE_CURVE ( 'NONE', #309, #242, #291, .T. ) ;
#581 = EDGE_LOOP ( 'NONE', ( #535, #529, #496, #231 ) ) ;
#582 = DIRECTION ( 'NONE',  ( -0.000000000000000000, 0.000000000000000000, 1.000000000000000000 ) ) ;
#583 = FACE_OUTER_BOUND ( 'NONE', #115, .T. ) ;
#584 = DIRECTION ( 'NONE',  ( 0.000000000000000000, 1.000000000000000000, 0.000000000000000000 ) ) ;
#585 =( GEOMETRIC_REPRESENTATION_CONTEXT ( 3 ) GLOBAL_UNCERTAINTY_ASSIGNED_CONTEXT ( ( #379 ) ) GLOBAL_UNIT_ASSIGNED_CONTEXT ( ( #32, #713, #96 ) ) REPRESENTATION_CONTEXT ( 'NONE', 'WORKASPACE' ) );
#586 = DIRECTION ( 'NONE',  ( -1.000000000000000000, -3.067291018426574134E-16, 0.000000000000000000 ) ) ;
#587 = SURFACE_STYLE_FILL_AREA ( #415 ) ;
#588 = ORIENTED_EDGE ( 'NONE', *, *, #707, .T. ) ;
#589 = DIRECTION ( 'NONE',  ( 1.000000000000000000, 0.000000000000000000, 0.000000000000000000 ) ) ;
#590 = CARTESIAN_POINT ( 'NONE',  ( -0.4100000000000000311, 2.000000000000000444, 0.1349999999999999534 ) ) ;
#591 = ORIENTED_EDGE ( 'NONE', *, *, #436, .F. ) ;
#592 = DIRECTION ( 'NONE',  ( 0.000000000000000000, 0.000000000000000000, 1.000000000000000000 ) ) ;
#593 = ADVANCED_FACE ( 'NONE', ( #353 ), #578, .T. ) ;
#594 = CARTESIAN_POINT ( 'NONE',  ( 0.000000000000000000, 0.000000000000000000, 0.000000000000000000 ) ) ;
#595 = CARTESIAN_POINT ( 'NONE',  ( 2.000000000000000444, 1.500000000000000666, 0.000000000000000000 ) ) ;
#596 = AXIS2_PLACEMENT_3D ( 'NONE', #198, #601, #260 ) ;
#597 = ORIENTED_EDGE ( 'NONE', *, *, #29, .T. ) ;
#598 = VECTOR ( 'NONE', #704, 100.0000000000000000 ) ;
#599 = DIRECTION ( 'NONE',  ( 0.000000000000000000, -1.000000000000000000, 0.000000000000000000 ) ) ;
#600 = EDGE_LOOP ( 'NONE', ( #127, #588, #90, #221, #122, #597 ) ) ;
#601 = DIRECTION ( 'NONE',  ( 1.000000000000000000, -4.818676322157798361E-16, 0.000000000000000000 ) ) ;
#602 = CARTESIAN_POINT ( 'NONE',  ( 0.000000000000000000, 0.000000000000000000, 0.6350000000000000089 ) ) ;
#603 = DIRECTION ( 'NONE',  ( 0.000000000000000000, -1.000000000000000000, 0.000000000000000000 ) ) ;
#604 = ORIENTED_EDGE ( 'NONE', *, *, #436, .T. ) ;
#605 = VECTOR ( 'NONE', #338, 100.0000000000000000 ) ;
#606 = FACE_OUTER_BOUND ( 'NONE', #401, .T. ) ;
#607 = VECTOR ( 'NONE', #351, 100.0000000000000000 ) ;
#608 = EDGE_LOOP ( 'NONE', ( #490, #42, #18, #326 ) ) ;
#609 = EDGE_CURVE ( 'NONE', #421, #169, #16, .T. ) ;
#610 = CARTESIAN_POINT ( 'NONE',  ( -16.63499999999999801, 1.364999999999996438, 0.3175000000000000044 ) ) ;
#611 = LINE ( 'NONE', #396, #523 ) ;
#612 = VERTEX_POINT ( 'NONE', #417 ) ;
#613 = FACE_OUTER_BOUND ( 'NONE', #88, .T. ) ;
#614 = CARTESIAN_POINT ( 'NONE',  ( 0.4099999999999999201, 1.820000000000000506, 0.1349999999999999534 ) ) ;
#615 = VERTEX_POINT ( 'NONE', #687 ) ;
#616 = DIRECTION ( 'NONE',  ( -1.000000000000000000, 0.000000000000000000, 0.000000000000000000 ) ) ;
#617 = VECTOR ( 'NONE', #622, 100.0000000000000000 ) ;
#618 = VECTOR ( 'NONE', #561, 100.0000000000000000 ) ;
#619 = DIRECTION ( 'NONE',  ( 0.000000000000000000, -1.000000000000000000, 0.000000000000000000 ) ) ;
#620 = ORIENTED_EDGE ( 'NONE', *, *, #94, .T. ) ;
#621 = DIRECTION ( 'NONE',  ( 1.000000000000000000, 2.312964634635742957E-16, 0.000000000000000000 ) ) ;
#622 = DIRECTION ( 'NONE',  ( 1.000000000000000000, 0.000000000000000000, 0.000000000000000000 ) ) ;
#623 = ADVANCED_FACE ( 'NONE', ( #120 ), #72, .F. ) ;
#624 = ORIENTED_EDGE ( 'NONE', *, *, #123, .T. ) ;
#625 = PLANE ( 'NONE',  #251 ) ;
#626 = LINE ( 'NONE', #121, #151 ) ;
#627 = VERTEX_POINT ( 'NONE', #80 ) ;
#628 = CARTESIAN_POINT ( 'NONE',  ( 1.364999999999995328, 16.63499999999999801, 0.3175000000000000044 ) ) ;
#629 = CARTESIAN_POINT ( 'NONE',  ( -2.000000000000000888, 1.499999999999999112, 0.000000000000000000 ) ) ;
#630 = AXIS2_PLACEMENT_3D ( 'NONE', #301, #528, #363 ) ;
#631 = ORIENTED_EDGE ( 'NONE', *, *, #580, .T. ) ;
#632 = LINE ( 'NONE', #128, #192 ) ;
#633 = EDGE_CURVE ( 'NONE', #343, #165, #124, .T. ) ;
#634 = LINE ( 'NONE', #409, #489 ) ;
#635 = ORIENTED_EDGE ( 'NONE', *, *, #99, .T. ) ;
#636 = PLANE ( 'NONE',  #179 ) ;
#637 = CARTESIAN_POINT ( 'NONE',  ( -0.4099999999999999201, 1.820000000000000506, 0.6350000000000000089 ) ) ;
#638 = EDGE_LOOP ( 'NONE', ( #181, #50, #591, #57 ) ) ;
#639 = LINE ( 'NONE', #246, #348 ) ;
#640 = DIRECTION ( 'NONE',  ( -0.5000000000000042188, 0.8660254037844362651, -0.000000000000000000 ) ) ;
#641 = VERTEX_POINT ( 'NONE', #569 ) ;
#642 = VECTOR ( 'NONE', #726, 100.0000000000000000 ) ;
#643 = CARTESIAN_POINT ( 'NONE',  ( 0.000000000000000000, 0.000000000000000000, 0.000000000000000000 ) ) ;
#644 = ORIENTED_EDGE ( 'NONE', *, *, #373, .T. ) ;
#645 = ADVANCED_FACE ( 'NONE', ( #25 ), #303, .F. ) ;
#646 =( NAMED_UNIT ( * ) SI_UNIT ( $, .STERADIAN. ) SOLID_ANGLE_UNIT ( ) );
#647 = DIRECTION ( 'NONE',  ( 0.000000000000000000, 0.000000000000000000, 1.000000000000000000 ) ) ;
#648 = DIRECTION ( 'NONE',  ( 0.000000000000000000, 0.000000000000000000, -1.000000000000000000 ) ) ;
#649 = DIRECTION ( 'NONE',  ( 0.000000000000000000, -1.000000000000000000, 0.000000000000000000 ) ) ;
#650 = ADVANCED_FACE ( 'NONE', ( #530 ), #691, .F. ) ;
#651 = DIRECTION ( 'NONE',  ( 0.000000000000000000, 1.000000000000000000, 0.000000000000000000 ) ) ;
#652 = ORIENTED_EDGE ( 'NONE', *, *, #481, .F. ) ;
#653 = CLOSED_SHELL ( 'NONE', ( #712, #723, #447, #501, #369, #359, #593, #425, #392, #671, #515, #526, #555, #333, #339, #534, #492, #719, #645, #623, #650, #206 ) ) ;
#654 = VECTOR ( 'NONE', #222, 100.0000000000000000 ) ;
#655 = CARTESIAN_POINT ( 'NONE',  ( 0.000000000000000000, 0.000000000000000000, 0.3175000000000000044 ) ) ;
#656 = LINE ( 'NONE', #39, #703 ) ;
#657 = EDGE_CURVE ( 'NONE', #508, #516, #295, .T. ) ;
#658 = APPLICATION_PROTOCOL_DEFINITION ( 'draft international standard', 'automotive_design', 1998, #143 ) ;
#659 = CARTESIAN_POINT ( 'NONE',  ( -1.999999999999999112, -0.6000000000000003109, 0.6350000000000000089 ) ) ;
#660 = PRODUCT_DEFINITION_CONTEXT ( 'detailed design', #143, 'design' ) ;
#661 = EDGE_CURVE ( 'NONE', #421, #134, #639, .T. ) ;
#662 = ORIENTED_EDGE ( 'NONE', *, *, #119, .T. ) ;
#663 = AXIS2_PLACEMENT_3D ( 'NONE', #2, #565, #219 ) ;
#664 = DIRECTION ( 'NONE',  ( 1.000000000000000000, 2.385670792109557660E-16, 0.000000000000000000 ) ) ;
#665 = DIRECTION ( 'NONE',  ( 0.000000000000000000, 0.000000000000000000, 1.000000000000000000 ) ) ;
#666 = ORIENTED_EDGE ( 'NONE', *, *, #282, .F. ) ;
#667 = PLANE ( 'NONE',  #431 ) ;
#668 = LINE ( 'NONE', #614, #286 ) ;
#669 = VERTEX_POINT ( 'NONE', #287 ) ;
#670 = CARTESIAN_POINT ( 'NONE',  ( 2.000000000000000444, 1.500000000000000666, 0.000000000000000000 ) ) ;
#671 = ADVANCED_FACE ( 'NONE', ( #19 ), #636, .F. ) ;
#672 = DIRECTION ( 'NONE',  ( 1.000000000000000000, 0.000000000000000000, 0.000000000000000000 ) ) ;
#673 = ORIENTED_EDGE ( 'NONE', *, *, #252, .F. ) ;
#674 = FACE_OUTER_BOUND ( 'NONE', #685, .T. ) ;
#675 = AXIS2_PLACEMENT_3D ( 'NONE', #320, #483, #599 ) ;
#676 = CARTESIAN_POINT ( 'NONE',  ( -0.4099999999999999201, 1.820000000000000506, 0.1349999999999999534 ) ) ;
#677 = PRODUCT_DEFINITION ( 'UNKNOWN', '', #69, #660 ) ;
#678 = ORIENTED_EDGE ( 'NONE', *, *, #133, .F. ) ;
#679 = CARTESIAN_POINT ( 'NONE',  ( 0.4100000000000000311, 2.000000000000000444, 0.1349999999999999534 ) ) ;
#680 = CARTESIAN_POINT ( 'NONE',  ( 3.735172737399427023E-17, 0.3049999999999999933, 0.6350000000000000089 ) ) ;
#681 = EDGE_CURVE ( 'NONE', #134, #92, #632, .T. ) ;
#682 = ORIENTED_EDGE ( 'NONE', *, *, #681, .T. ) ;
#683 = DIRECTION ( 'NONE',  ( 0.000000000000000000, 0.000000000000000000, -1.000000000000000000 ) ) ;
#684 = CARTESIAN_POINT ( 'NONE',  ( 0.7679571668975722076, 1.199999999999999956, 0.6350000000000000089 ) ) ;
#685 = EDGE_LOOP ( 'NONE', ( #140, #505, #567, #541, #434, #285 ) ) ;
#686 = EDGE_CURVE ( 'NONE', #398, #92, #239, .T. ) ;
#687 = CARTESIAN_POINT ( 'NONE',  ( -2.000000000000001776, 1.364999999999999991, 0.3175000000000000044 ) ) ;
#688 = LINE ( 'NONE', #247, #152 ) ;
#689 = AXIS2_PLACEMENT_3D ( 'NONE', #643, #463, #241 ) ;
#690 = ORIENTED_EDGE ( 'NONE', *, *, #551, .F. ) ;
#691 = PLANE ( 'NONE',  #262 ) ;
#692 = CARTESIAN_POINT ( 'NONE',  ( 0.4100000000000000311, 2.000000000000000444, 0.1349999999999999534 ) ) ;
#693 = VERTEX_POINT ( 'NONE', #411 ) ;
#694 = DIRECTION ( 'NONE',  ( 0.8660254037844362651, 0.5000000000000043299, 0.000000000000000000 ) ) ;
#695 = CARTESIAN_POINT ( 'NONE',  ( 0.7679571668975722076, 1.199999999999999956, 0.1349999999999999534 ) ) ;
#696 = EDGE_CURVE ( 'NONE', #199, #343, #299, .T. ) ;
#697 = VERTEX_POINT ( 'NONE', #527 ) ;
#698 = DIRECTION ( 'NONE',  ( 4.818676322157799347E-16, -1.000000000000000000, 0.000000000000000000 ) ) ;
#699 = CARTESIAN_POINT ( 'NONE',  ( 2.000000000000001776, 1.364999999999998437, 0.6350000000000000089 ) ) ;
#700 = EDGE_CURVE ( 'NONE', #627, #423, #711, .T. ) ;
#701 = VECTOR ( 'NONE', #220, 100.0000000000000000 ) ;
#702 = ORIENTED_EDGE ( 'NONE', *, *, #564, .F. ) ;
#703 = VECTOR ( 'NONE', #537, 100.0000000000000000 ) ;
#704 = DIRECTION ( 'NONE',  ( -2.312964634635742957E-16, 1.000000000000000000, 0.000000000000000000 ) ) ;
#705 = DIRECTION ( 'NONE',  ( -0.000000000000000000, 0.000000000000000000, 1.000000000000000000 ) ) ;
#706 = ORIENTED_EDGE ( 'NONE', *, *, #282, .T. ) ;
#707 = EDGE_CURVE ( 'NONE', #169, #669, #545, .T. ) ;
#708 = APPLICATION_PROTOCOL_DEFINITION ( 'draft international standard', 'automotive_design', 1998, #24 ) ;
#709 = FACE_OUTER_BOUND ( 'NONE', #315, .T. ) ;
#710 = ORIENTED_EDGE ( 'NONE', *, *, #86, .T. ) ;
#711 = LINE ( 'NONE', #319, #125 ) ;
#712 = ADVANCED_FACE ( 'NONE', ( #716 ), #147, .F. ) ;
#713 =( NAMED_UNIT ( * ) PLANE_ANGLE_UNIT ( ) SI_UNIT ( $, .RADIAN. ) );
#714 = CIRCLE ( 'NONE', #111, 0.3049999999999999933 ) ;
#715 = VECTOR ( 'NONE', #518, 100.0000000000000000 ) ;
#716 = FACE_OUTER_BOUND ( 'NONE', #162, .T. ) ;
#717 = DIRECTION ( 'NONE',  ( 0.000000000000000000, -1.000000000000000000, 0.000000000000000000 ) ) ;
#718 = ORIENTED_EDGE ( 'NONE', *, *, #172, .T. ) ;
#719 = ADVANCED_FACE ( 'NONE', ( #432 ), #424, .F. ) ;
#720 = ORIENTED_EDGE ( 'NONE', *, *, #238, .F. ) ;
#721 = FACE_OUTER_BOUND ( 'NONE', #210, .T. ) ;
#722 = ORIENTED_EDGE ( 'NONE', *, *, #324, .T. ) ;
#723 = ADVANCED_FACE ( 'NONE', ( #376, #428 ), #491, .T. ) ;
#724 = ORIENTED_EDGE ( 'NONE', *, *, #230, .F. ) ;
#725 = MECHANICAL_DESIGN_GEOMETRIC_PRESENTATION_REPRESENTATION (  '', ( #87 ), #585 ) ;
#726 = DIRECTION ( 'NONE',  ( 3.067291018426574134E-16, -1.000000000000000000, 0.000000000000000000 ) ) ;
#727 = CARTESIAN_POINT ( 'NONE',  ( -2.000000000000000888, 1.499999999999999112, 0.3175000000000000044 ) ) ;
ENDSEC;
END-ISO-10303-21;
