ISO-10303-21;
HEADER;
FILE_DESCRIPTION (( 'STEP AP214' ),
    '1' );
FILE_NAME ('vertex-spacer_62.STEP',
    '2026-06-17T01:46:43',
    ( '' ),
    ( '' ),
    'SwSTEP 2.0',
    'SolidWorks 2023',
    '' );
FILE_SCHEMA (( 'AUTOMOTIVE_DESIGN' ));
ENDSEC;

DATA;
#1 = VECTOR ( 'NONE', #328, 100.0000000000000000 ) ;
#2 = DIRECTION ( 'NONE',  ( 0.000000000000000000, 0.000000000000000000, -1.000000000000000000 ) ) ;
#3 = CARTESIAN_POINT ( 'NONE',  ( 0.5999999999999999778, -0.2899999999999998690, 0.5999999999999998668 ) ) ;
#4 = CARTESIAN_POINT ( 'NONE',  ( 0.000000000000000000, 0.000000000000000000, 0.000000000000000000 ) ) ;
#5 =( BOUNDED_CURVE ( )  B_SPLINE_CURVE ( 3, ( #143, #59, #194, #247 ),
 .UNSPECIFIED., .F., .T. ) 
 B_SPLINE_CURVE_WITH_KNOTS ( ( 4, 4 ),
 ( 1.570796326794896780, 4.712388980384689674 ),
 .UNSPECIFIED. ) 
 CURVE ( )  GEOMETRIC_REPRESENTATION_ITEM ( )  RATIONAL_B_SPLINE_CURVE ( ( 1.000000000000000000, 0.3333333333333333703, 0.3333333333333333703, 1.000000000000000000 ) ) 
 REPRESENTATION_ITEM ( '' )  );
#6 = DIRECTION ( 'NONE',  ( -0.000000000000000000, -0.000000000000000000, 1.000000000000000000 ) ) ;
#7 = PLANE ( 'NONE',  #330 ) ;
#8 = PRODUCT_DEFINITION_CONTEXT ( 'detailed design', #231, 'design' ) ;
#9 = LINE ( 'NONE', #142, #114 ) ;
#10 = AXIS2_PLACEMENT_3D ( 'NONE', #113, #214, #70 ) ;
#11 = EDGE_CURVE ( 'NONE', #308, #339, #203, .T. ) ;
#12 = DIRECTION ( 'NONE',  ( 0.000000000000000000, -1.000000000000000000, 0.000000000000000000 ) ) ;
#13 = ORIENTED_EDGE ( 'NONE', *, *, #51, .T. ) ;
#14 = DIRECTION ( 'NONE',  ( -0.9731387067013589354, 0.000000000000000000, -0.2302195854387859009 ) ) ;
#15 = LINE ( 'NONE', #223, #159 ) ;
#16 = VECTOR ( 'NONE', #252, 100.0000000000000000 ) ;
#17 = CARTESIAN_POINT ( 'NONE',  ( 0.5999999999999999778, -0.2899999999999998690, 2.598055434120490226 ) ) ;
#18 = ORIENTED_EDGE ( 'NONE', *, *, #248, .F. ) ;
#19 = ORIENTED_EDGE ( 'NONE', *, *, #112, .F. ) ;
#20 = ORIENTED_EDGE ( 'NONE', *, *, #84, .T. ) ;
#21 = LINE ( 'NONE', #73, #139 ) ;
#22 = EDGE_LOOP ( 'NONE', ( #315, #290, #183, #227 ) ) ;
#23 = DIRECTION ( 'NONE',  ( 0.000000000000000000, 0.000000000000000000, -1.000000000000000000 ) ) ;
#24 = FACE_OUTER_BOUND ( 'NONE', #125, .T. ) ;
#25 = AXIS2_PLACEMENT_3D ( 'NONE', #76, #266, #320 ) ;
#26 = AXIS2_PLACEMENT_3D ( 'NONE', #140, #91, #305 ) ;
#27 = EDGE_CURVE ( 'NONE', #344, #94, #182, .T. ) ;
#28 = CARTESIAN_POINT ( 'NONE',  ( 1.199999999999999956, -1.200000000000000178, 2.740000000000000213 ) ) ;
#29 = CARTESIAN_POINT ( 'NONE',  ( 0.5999999999999999778, -0.9099999999999999201, 0.5999999999999998668 ) ) ;
#30 = EDGE_CURVE ( 'NONE', #173, #50, #37, .T. ) ;
#31 = FACE_OUTER_BOUND ( 'NONE', #145, .T. ) ;
#32 = AXIS2_PLACEMENT_3D ( 'NONE', #306, #199, #272 ) ;
#33 = DIRECTION ( 'NONE',  ( 0.000000000000000000, 0.000000000000000000, 1.000000000000000000 ) ) ;
#34 = CARTESIAN_POINT ( 'NONE',  ( 0.000000000000000000, -1.199999999999999956, 0.000000000000000000 ) ) ;
#35 = EDGE_CURVE ( 'NONE', #96, #176, #228, .T. ) ;
#36 = DIRECTION ( 'NONE',  ( -0.000000000000000000, -0.000000000000000000, 1.000000000000000000 ) ) ;
#37 = CIRCLE ( 'NONE', #164, 0.3099999999999999978 ) ;
#38 = FACE_BOUND ( 'NONE', #218, .T. ) ;
#39 = CYLINDRICAL_SURFACE ( 'NONE', #32, 0.3099999999999999978 ) ;
#40 =( BOUNDED_CURVE ( )  B_SPLINE_CURVE ( 3, ( #144, #42, #310, #338 ),
 .UNSPECIFIED., .F., .T. ) 
 B_SPLINE_CURVE_WITH_KNOTS ( ( 4, 4 ),
 ( 4.712388980384689674, 7.853981633974482790 ),
 .UNSPECIFIED. ) 
 CURVE ( )  GEOMETRIC_REPRESENTATION_ITEM ( )  RATIONAL_B_SPLINE_CURVE ( ( 1.000000000000000000, 0.3333333333333333703, 0.3333333333333333703, 1.000000000000000000 ) ) 
 REPRESENTATION_ITEM ( '' )  );
#41 = EDGE_LOOP ( 'NONE', ( #201, #262 ) ) ;
#42 = CARTESIAN_POINT ( 'NONE',  ( 1.219999999999999751, -0.9099999999999999201, 2.744731485529316561 ) ) ;
#43 = CARTESIAN_POINT ( 'NONE',  ( 0.000000000000000000, 1.734723475976807094E-16, 2.456110868240981571 ) ) ;
#44 = ORIENTED_EDGE ( 'NONE', *, *, #288, .T. ) ;
#45 =( NAMED_UNIT ( * ) SI_UNIT ( $, .STERADIAN. ) SOLID_ANGLE_UNIT ( ) );
#46 = VERTEX_POINT ( 'NONE', #296 ) ;
#47 = ORIENTED_EDGE ( 'NONE', *, *, #248, .T. ) ;
#48 = SURFACE_STYLE_USAGE ( .BOTH. , #95 ) ;
#49 = DIRECTION ( 'NONE',  ( 1.000000000000000000, 1.445602896647338917E-16, 0.000000000000000000 ) ) ;
#50 = VERTEX_POINT ( 'NONE', #56 ) ;
#51 = EDGE_CURVE ( 'NONE', #96, #289, #158, .T. ) ;
#52 = DIRECTION ( 'NONE',  ( 0.000000000000000000, 1.000000000000000000, 0.000000000000000000 ) ) ;
#53 = AXIS2_PLACEMENT_3D ( 'NONE', #303, #200, #250 ) ;
#54 = FACE_OUTER_BOUND ( 'NONE', #99, .T. ) ;
#55 = CARTESIAN_POINT ( 'NONE',  ( 1.199999999999999956, -1.200000000000000178, 0.000000000000000000 ) ) ;
#56 = CARTESIAN_POINT ( 'NONE',  ( 0.5999999999999999778, -0.2899999999999998690, 0.5999999999999998668 ) ) ;
#57 = PRODUCT_DEFINITION_FORMATION_WITH_SPECIFIED_SOURCE ( 'ANY', '', #186, .NOT_KNOWN. ) ;
#58 = LINE ( 'NONE', #184, #78 ) ;
#59 = CARTESIAN_POINT ( 'NONE',  ( -0.02000000000000005246, -0.2899999999999998690, 2.451379382711664334 ) ) ;
#60 = EDGE_CURVE ( 'NONE', #176, #286, #58, .T. ) ;
#61 = DIRECTION ( 'NONE',  ( 0.000000000000000000, 1.000000000000000000, 0.000000000000000000 ) ) ;
#62 = CYLINDRICAL_SURFACE ( 'NONE', #222, 0.3100000000000000533 ) ;
#63 = ORIENTED_EDGE ( 'NONE', *, *, #30, .T. ) ;
#64 = EDGE_CURVE ( 'NONE', #205, #46, #292, .T. ) ;
#65 = FACE_OUTER_BOUND ( 'NONE', #74, .T. ) ;
#66 = ORIENTED_EDGE ( 'NONE', *, *, #189, .T. ) ;
#67 = ORIENTED_EDGE ( 'NONE', *, *, #343, .T. ) ;
#68 = VECTOR ( 'NONE', #6, 100.0000000000000000 ) ;
#69 = EDGE_CURVE ( 'NONE', #126, #152, #106, .T. ) ;
#70 = DIRECTION ( 'NONE',  ( -1.000000000000000000, -1.445602896647338917E-16, 0.000000000000000000 ) ) ;
#71 = ORIENTED_EDGE ( 'NONE', *, *, #343, .F. ) ;
#72 = CARTESIAN_POINT ( 'NONE',  ( 0.000000000000000000, -1.199999999999999956, 0.000000000000000000 ) ) ;
#73 = CARTESIAN_POINT ( 'NONE',  ( 1.199999999999999956, -1.200000000000000178, 0.000000000000000000 ) ) ;
#74 = EDGE_LOOP ( 'NONE', ( #167, #202, #282, #230 ) ) ;
#75 = ORIENTED_EDGE ( 'NONE', *, *, #69, .T. ) ;
#76 = CARTESIAN_POINT ( 'NONE',  ( 0.000000000000000000, 0.000000000000000000, 0.000000000000000000 ) ) ;
#77 = FACE_BOUND ( 'NONE', #41, .T. ) ;
#78 = VECTOR ( 'NONE', #210, 100.0000000000000000 ) ;
#79 = AXIS2_PLACEMENT_3D ( 'NONE', #118, #324, #253 ) ;
#80 = DIRECTION ( 'NONE',  ( 0.000000000000000000, 1.000000000000000000, 0.000000000000000000 ) ) ;
#81 = CARTESIAN_POINT ( 'NONE',  ( 0.5999999999999999778, -0.9099999999999999201, 0.8400000000000000799 ) ) ;
#82 = CYLINDRICAL_SURFACE ( 'NONE', #323, 0.3100000000000000533 ) ;
#83 = VECTOR ( 'NONE', #36, 100.0000000000000000 ) ;
#84 = EDGE_CURVE ( 'NONE', #311, #329, #192, .T. ) ;
#85 = CARTESIAN_POINT ( 'NONE',  ( 0.5999999999999999778, -0.5999999999999998668, 0.8400000000000000799 ) ) ;
#86 = PLANE ( 'NONE',  #180 ) ;
#87 = ORIENTED_EDGE ( 'NONE', *, *, #84, .F. ) ;
#88 = DIRECTION ( 'NONE',  ( -1.000000000000000000, 0.000000000000000000, 0.000000000000000000 ) ) ;
#89 = ORIENTED_EDGE ( 'NONE', *, *, #226, .T. ) ;
#90 = VECTOR ( 'NONE', #179, 100.0000000000000000 ) ;
#91 = DIRECTION ( 'NONE',  ( 0.2302195854387859286, 0.000000000000000000, -0.9731387067013589354 ) ) ;
#92 = EDGE_LOOP ( 'NONE', ( #327, #251, #169, #19 ) ) ;
#93 = DIRECTION ( 'NONE',  ( 0.000000000000000000, -1.000000000000000000, 0.000000000000000000 ) ) ;
#94 = VERTEX_POINT ( 'NONE', #245 ) ;
#95 = SURFACE_SIDE_STYLE ('',( #346 ) ) ;
#96 = VERTEX_POINT ( 'NONE', #322 ) ;
#97 = AXIS2_PLACEMENT_3D ( 'NONE', #193, #166, #300 ) ;
#98 = PRESENTATION_STYLE_ASSIGNMENT (( #48 ) ) ;
#99 = EDGE_LOOP ( 'NONE', ( #122, #13, #44, #117 ) ) ;
#100 = VECTOR ( 'NONE', #110, 100.0000000000000000 ) ;
#101 = DIRECTION ( 'NONE',  ( 1.000000000000000000, 0.000000000000000000, -0.000000000000000000 ) ) ;
#102 = ORIENTED_EDGE ( 'NONE', *, *, #35, .T. ) ;
#103 = DIRECTION ( 'NONE',  ( -1.000000000000000000, 1.445602896647338917E-16, 0.000000000000000000 ) ) ;
#104 = EDGE_LOOP ( 'NONE', ( #195, #63 ) ) ;
#105 = CARTESIAN_POINT ( 'NONE',  ( 0.5999999999999999778, -0.5999999999999998668, 0.8400000000000000799 ) ) ;
#106 = LINE ( 'NONE', #133, #68 ) ;
#107 = ADVANCED_FACE ( 'NONE', ( #54 ), #82, .F. ) ;
#108 = DIRECTION ( 'NONE',  ( 0.000000000000000000, -1.000000000000000000, 0.000000000000000000 ) ) ;
#109 = DIRECTION ( 'NONE',  ( 0.000000000000000000, 1.000000000000000000, 0.000000000000000000 ) ) ;
#110 = DIRECTION ( 'NONE',  ( -0.9731387067013589354, 0.000000000000000000, -0.2302195854387859009 ) ) ;
#111 = DIRECTION ( 'NONE',  ( 0.000000000000000000, 1.000000000000000000, 0.000000000000000000 ) ) ;
#112 = EDGE_CURVE ( 'NONE', #50, #205, #243, .T. ) ;
#113 = CARTESIAN_POINT ( 'NONE',  ( 1.199999999999999956, 1.734723475976807094E-16, 0.000000000000000000 ) ) ;
#114 = VECTOR ( 'NONE', #12, 100.0000000000000000 ) ;
#115 = DIRECTION ( 'NONE',  ( 0.000000000000000000, 0.000000000000000000, -1.000000000000000000 ) ) ;
#116 = ADVANCED_FACE ( 'NONE', ( #246 ), #7, .T. ) ;
#117 = ORIENTED_EDGE ( 'NONE', *, *, #60, .F. ) ;
#118 = CARTESIAN_POINT ( 'NONE',  ( 0.5999999999999999778, -0.5999999999999998668, 0.5999999999999998668 ) ) ;
#119 = DIRECTION ( 'NONE',  ( 0.000000000000000000, 1.000000000000000000, -0.000000000000000000 ) ) ;
#120 = PRESENTATION_LAYER_ASSIGNMENT (  '', '', ( #215 ) ) ;
#121 = CARTESIAN_POINT ( 'NONE',  ( 1.199999999999999956, 1.734723475976807094E-16, 2.740000000000000213 ) ) ;
#122 = ORIENTED_EDGE ( 'NONE', *, *, #273, .T. ) ;
#123 = ORIENTED_EDGE ( 'NONE', *, *, #11, .F. ) ;
#124 = APPLICATION_PROTOCOL_DEFINITION ( 'draft international standard', 'automotive_design', 1998, #231 ) ;
#125 = EDGE_LOOP ( 'NONE', ( #75, #66, #123, #221 ) ) ;
#126 = VERTEX_POINT ( 'NONE', #55 ) ;
#127 = CIRCLE ( 'NONE', #170, 0.3099999999999999978 ) ;
#128 = DIRECTION ( 'NONE',  ( 1.445602896647338917E-16, 1.000000000000000000, 0.000000000000000000 ) ) ;
#129 = AXIS2_PLACEMENT_3D ( 'NONE', #213, #135, #111 ) ;
#130 = ADVANCED_FACE ( 'NONE', ( #77, #157 ), #187, .T. ) ;
#131 = CARTESIAN_POINT ( 'NONE',  ( 0.5999999999999999778, -0.5999999999999998668, 0.000000000000000000 ) ) ;
#132 = LINE ( 'NONE', #4, #283 ) ;
#133 = CARTESIAN_POINT ( 'NONE',  ( 1.199999999999999956, -1.200000000000000178, 0.000000000000000000 ) ) ;
#134 = VECTOR ( 'NONE', #318, 100.0000000000000000 ) ;
#135 = DIRECTION ( 'NONE',  ( 0.000000000000000000, 0.000000000000000000, -1.000000000000000000 ) ) ;
#136 = PRODUCT_DEFINITION ( 'UNKNOWN', '', #57, #8 ) ;
#137 = FACE_OUTER_BOUND ( 'NONE', #309, .T. ) ;
#138 = CARTESIAN_POINT ( 'NONE',  ( 0.5999999999999999778, -0.5999999999999998668, 0.8400000000000000799 ) ) ;
#139 = VECTOR ( 'NONE', #103, 100.0000000000000000 ) ;
#140 = CARTESIAN_POINT ( 'NONE',  ( 1.199999999999999956, -1.200000000000000178, 2.740000000000000213 ) ) ;
#141 = ORIENTED_EDGE ( 'NONE', *, *, #51, .F. ) ;
#142 = CARTESIAN_POINT ( 'NONE',  ( 1.199999999999999956, 1.734723475976807094E-16, 0.000000000000000000 ) ) ;
#143 = CARTESIAN_POINT ( 'NONE',  ( 0.5999999999999999778, -0.2899999999999998690, 2.598055434120490226 ) ) ;
#144 = CARTESIAN_POINT ( 'NONE',  ( 0.5999999999999999778, -0.9099999999999999201, 2.598055434120490226 ) ) ;
#145 = EDGE_LOOP ( 'NONE', ( #89, #261, #259, #47 ) ) ;
#146 = ADVANCED_FACE ( 'NONE', ( #24 ), #295, .F. ) ;
#147 = FILL_AREA_STYLE ('',( #151 ) ) ;
#148 = EDGE_LOOP ( 'NONE', ( #313, #234 ) ) ;
#149 = EDGE_CURVE ( 'NONE', #173, #46, #297, .T. ) ;
#150 = ORIENTED_EDGE ( 'NONE', *, *, #242, .F. ) ;
#151 = FILL_AREA_STYLE_COLOUR ( '', #340 ) ;
#152 = VERTEX_POINT ( 'NONE', #28 ) ;
#153 = CARTESIAN_POINT ( 'NONE',  ( 1.199999999999999956, 1.734723475976807094E-16, 0.000000000000000000 ) ) ;
#154 = EDGE_CURVE ( 'NONE', #46, #205, #127, .T. ) ;
#155 = DIRECTION ( 'NONE',  ( 1.000000000000000000, -1.445602896647338917E-16, 0.000000000000000000 ) ) ;
#156 = DIRECTION ( 'NONE',  ( 0.000000000000000000, 0.000000000000000000, -1.000000000000000000 ) ) ;
#157 = FACE_OUTER_BOUND ( 'NONE', #22, .T. ) ;
#158 = LINE ( 'NONE', #270, #249 ) ;
#159 = VECTOR ( 'NONE', #14, 100.0000000000000000 ) ;
#160 = FACE_OUTER_BOUND ( 'NONE', #148, .T. ) ;
#161 = DIRECTION ( 'NONE',  ( 0.000000000000000000, 0.000000000000000000, 1.000000000000000000 ) ) ;
#162 = ADVANCED_FACE ( 'NONE', ( #269 ), #317, .F. ) ;
#163 = CARTESIAN_POINT ( 'NONE',  ( 1.199999999999999956, 1.734723475976807094E-16, 2.740000000000000213 ) ) ;
#164 = AXIS2_PLACEMENT_3D ( 'NONE', #263, #23, #224 ) ;
#165 = CYLINDRICAL_SURFACE ( 'NONE', #79, 0.3099999999999999978 ) ;
#166 = DIRECTION ( 'NONE',  ( 0.000000000000000000, 0.000000000000000000, -1.000000000000000000 ) ) ;
#167 = ORIENTED_EDGE ( 'NONE', *, *, #149, .F. ) ;
#168 =( NAMED_UNIT ( * ) PLANE_ANGLE_UNIT ( ) SI_UNIT ( $, .RADIAN. ) );
#169 = ORIENTED_EDGE ( 'NONE', *, *, #154, .T. ) ;
#170 = AXIS2_PLACEMENT_3D ( 'NONE', #131, #2, #268 ) ;
#171 = CIRCLE ( 'NONE', #53, 0.3099999999999999978 ) ;
#172 =( NAMED_UNIT ( * ) SI_UNIT ( $, .STERADIAN. ) SOLID_ANGLE_UNIT ( ) );
#173 = VERTEX_POINT ( 'NONE', #29 ) ;
#174 = EDGE_CURVE ( 'NONE', #308, #344, #132, .T. ) ;
#175 = LINE ( 'NONE', #204, #238 ) ;
#176 = VERTEX_POINT ( 'NONE', #81 ) ;
#177 = ADVANCED_FACE ( 'NONE', ( #31 ), #190, .F. ) ;
#178 = APPLICATION_PROTOCOL_DEFINITION ( 'draft international standard', 'automotive_design', 1998, #197 ) ;
#179 = DIRECTION ( 'NONE',  ( -0.000000000000000000, -0.000000000000000000, 1.000000000000000000 ) ) ;
#180 = AXIS2_PLACEMENT_3D ( 'NONE', #85, #115, #61 ) ;
#181 =( LENGTH_UNIT ( ) NAMED_UNIT ( * ) SI_UNIT ( .CENTI., .METRE. ) );
#182 = LINE ( 'NONE', #153, #198 ) ;
#183 = ORIENTED_EDGE ( 'NONE', *, *, #278, .T. ) ;
#184 = CARTESIAN_POINT ( 'NONE',  ( 0.5999999999999999778, -0.9099999999999999201, 0.8400000000000000799 ) ) ;
#185 = ADVANCED_FACE ( 'NONE', ( #276 ), #165, .F. ) ;
#186 = PRODUCT ( 'vertex-spacer_62', 'vertex-spacer_62', '', ( #287 ) ) ;
#187 = PLANE ( 'NONE',  #294 ) ;
#188 = DIRECTION ( 'NONE',  ( 0.000000000000000000, 1.000000000000000000, 0.000000000000000000 ) ) ;
#189 = EDGE_CURVE ( 'NONE', #152, #339, #15, .T. ) ;
#190 = PLANE ( 'NONE',  #314 ) ;
#191 = AXIS2_PLACEMENT_3D ( 'NONE', #208, #128, #155 ) ;
#192 = LINE ( 'NONE', #241, #100 ) ;
#193 = CARTESIAN_POINT ( 'NONE',  ( 0.5999999999999999778, -0.5999999999999998668, 0.8400000000000000799 ) ) ;
#194 = CARTESIAN_POINT ( 'NONE',  ( -0.02000000000000005246, -0.9099999999999998090, 2.451379382711664334 ) ) ;
#195 = ORIENTED_EDGE ( 'NONE', *, *, #316, .T. ) ;
#196 = LINE ( 'NONE', #279, #16 ) ;
#197 = APPLICATION_CONTEXT ( 'automotive_design' ) ;
#198 = VECTOR ( 'NONE', #49, 100.0000000000000000 ) ;
#199 = DIRECTION ( 'NONE',  ( 0.000000000000000000, 0.000000000000000000, -1.000000000000000000 ) ) ;
#200 = DIRECTION ( 'NONE',  ( 0.000000000000000000, 0.000000000000000000, -1.000000000000000000 ) ) ;
#201 = ORIENTED_EDGE ( 'NONE', *, *, #64, .F. ) ;
#202 = ORIENTED_EDGE ( 'NONE', *, *, #316, .F. ) ;
#203 = LINE ( 'NONE', #72, #90 ) ;
#204 = CARTESIAN_POINT ( 'NONE',  ( 0.000000000000000000, 0.000000000000000000, 0.000000000000000000 ) ) ;
#205 = VERTEX_POINT ( 'NONE', #219 ) ;
#206 =( GEOMETRIC_REPRESENTATION_CONTEXT ( 3 ) GLOBAL_UNCERTAINTY_ASSIGNED_CONTEXT ( ( #275 ) ) GLOBAL_UNIT_ASSIGNED_CONTEXT ( ( #181, #168, #45 ) ) REPRESENTATION_CONTEXT ( 'NONE', 'WORKASPACE' ) );
#207 = EDGE_LOOP ( 'NONE', ( #141, #102, #332, #304 ) ) ;
#208 = CARTESIAN_POINT ( 'NONE',  ( 1.199999999999999956, -1.200000000000000178, 0.000000000000000000 ) ) ;
#209 = DIRECTION ( 'NONE',  ( 0.000000000000000000, 0.000000000000000000, 1.000000000000000000 ) ) ;
#210 = DIRECTION ( 'NONE',  ( 0.000000000000000000, 0.000000000000000000, 1.000000000000000000 ) ) ;
#211 = ADVANCED_FACE ( 'NONE', ( #38, #255 ), #220, .F. ) ;
#212 = CARTESIAN_POINT ( 'NONE',  ( 0.5999999999999999778, -0.5999999999999998668, 0.8400000000000000799 ) ) ;
#213 = CARTESIAN_POINT ( 'NONE',  ( 0.5999999999999999778, -0.5999999999999998668, 0.000000000000000000 ) ) ;
#214 = DIRECTION ( 'NONE',  ( 1.445602896647338917E-16, -1.000000000000000000, 0.000000000000000000 ) ) ;
#215 = STYLED_ITEM ( 'NONE', ( #98 ), #345 ) ;
#216 = AXIS2_PLACEMENT_3D ( 'NONE', #105, #337, #188 ) ;
#217 = CARTESIAN_POINT ( 'NONE',  ( 1.199999999999999956, 1.734723475976807094E-16, 0.000000000000000000 ) ) ;
#218 = EDGE_LOOP ( 'NONE', ( #307, #347 ) ) ;
#219 = CARTESIAN_POINT ( 'NONE',  ( 0.5999999999999999778, -0.2899999999999998690, 0.000000000000000000 ) ) ;
#220 = PLANE ( 'NONE',  #26 ) ;
#221 = ORIENTED_EDGE ( 'NONE', *, *, #326, .F. ) ;
#222 = AXIS2_PLACEMENT_3D ( 'NONE', #138, #161, #93 ) ;
#223 = CARTESIAN_POINT ( 'NONE',  ( 1.199999999999999956, -1.200000000000000178, 2.740000000000000213 ) ) ;
#224 = DIRECTION ( 'NONE',  ( 0.000000000000000000, 1.000000000000000000, 0.000000000000000000 ) ) ;
#225 = CARTESIAN_POINT ( 'NONE',  ( 0.000000000000000000, -1.200000000000000178, 2.456110868240981571 ) ) ;
#226 = EDGE_CURVE ( 'NONE', #311, #152, #331, .T. ) ;
#227 = ORIENTED_EDGE ( 'NONE', *, *, #326, .T. ) ;
#228 = CIRCLE ( 'NONE', #216, 0.3099999999999999978 ) ;
#229 =( GEOMETRIC_REPRESENTATION_CONTEXT ( 3 ) GLOBAL_UNCERTAINTY_ASSIGNED_CONTEXT ( ( #271 ) ) GLOBAL_UNIT_ASSIGNED_CONTEXT ( ( #312, #260, #172 ) ) REPRESENTATION_CONTEXT ( 'NONE', 'WORKASPACE' ) );
#230 = ORIENTED_EDGE ( 'NONE', *, *, #64, .T. ) ;
#231 = APPLICATION_CONTEXT ( 'automotive_design' ) ;
#232 = PRODUCT_DEFINITION_SHAPE ( 'NONE', 'NONE',  #136 ) ;
#233 = SHAPE_DEFINITION_REPRESENTATION ( #232, #240 ) ;
#234 = ORIENTED_EDGE ( 'NONE', *, *, #35, .F. ) ;
#235 = ORIENTED_EDGE ( 'NONE', *, *, #27, .F. ) ;
#236 = VECTOR ( 'NONE', #239, 100.0000000000000000 ) ;
#237 = ADVANCED_FACE ( 'NONE', ( #160 ), #86, .F. ) ;
#238 = VECTOR ( 'NONE', #336, 100.0000000000000000 ) ;
#239 = DIRECTION ( 'NONE',  ( 0.000000000000000000, 0.000000000000000000, -1.000000000000000000 ) ) ;
#240 = ADVANCED_BREP_SHAPE_REPRESENTATION ( 'vertex-spacer_62', ( #345, #265 ), #229 ) ;
#241 = CARTESIAN_POINT ( 'NONE',  ( 1.199999999999999956, 1.734723475976807094E-16, 2.740000000000000213 ) ) ;
#242 = EDGE_CURVE ( 'NONE', #339, #329, #196, .T. ) ;
#243 = LINE ( 'NONE', #3, #134 ) ;
#244 = CLOSED_SHELL ( 'NONE', ( #185, #107, #162, #321, #177, #146, #130, #211, #302, #237, #267, #116 ) ) ;
#245 = CARTESIAN_POINT ( 'NONE',  ( 1.199999999999999956, 1.734723475976807094E-16, 0.000000000000000000 ) ) ;
#246 = FACE_OUTER_BOUND ( 'NONE', #104, .T. ) ;
#247 = CARTESIAN_POINT ( 'NONE',  ( 0.5999999999999999778, -0.9099999999999999201, 2.598055434120490226 ) ) ;
#248 = EDGE_CURVE ( 'NONE', #94, #311, #325, .T. ) ;
#249 = VECTOR ( 'NONE', #33, 100.0000000000000000 ) ;
#250 = DIRECTION ( 'NONE',  ( 0.000000000000000000, 1.000000000000000000, 0.000000000000000000 ) ) ;
#251 = ORIENTED_EDGE ( 'NONE', *, *, #149, .T. ) ;
#252 = DIRECTION ( 'NONE',  ( 0.000000000000000000, 1.000000000000000000, 0.000000000000000000 ) ) ;
#253 = DIRECTION ( 'NONE',  ( 0.000000000000000000, 1.000000000000000000, 0.000000000000000000 ) ) ;
#254 = PRODUCT_RELATED_PRODUCT_CATEGORY ( 'part', '', ( #186 ) ) ;
#255 = FACE_OUTER_BOUND ( 'NONE', #256, .T. ) ;
#256 = EDGE_LOOP ( 'NONE', ( #150, #301, #281, #20 ) ) ;
#257 = MECHANICAL_DESIGN_GEOMETRIC_PRESENTATION_REPRESENTATION (  '', ( #215 ), #206 ) ;
#258 = DIRECTION ( 'NONE',  ( 0.000000000000000000, 1.000000000000000000, -0.000000000000000000 ) ) ;
#259 = ORIENTED_EDGE ( 'NONE', *, *, #278, .F. ) ;
#260 =( NAMED_UNIT ( * ) PLANE_ANGLE_UNIT ( ) SI_UNIT ( $, .RADIAN. ) );
#261 = ORIENTED_EDGE ( 'NONE', *, *, #69, .F. ) ;
#262 = ORIENTED_EDGE ( 'NONE', *, *, #154, .F. ) ;
#263 = CARTESIAN_POINT ( 'NONE',  ( 0.5999999999999999778, -0.5999999999999998668, 0.5999999999999998668 ) ) ;
#264 = CARTESIAN_POINT ( 'NONE',  ( 0.5999999999999999778, -0.5999999999999998668, 0.000000000000000000 ) ) ;
#265 = AXIS2_PLACEMENT_3D ( 'NONE', #341, #258, #101 ) ;
#266 = DIRECTION ( 'NONE',  ( 1.000000000000000000, 0.000000000000000000, 0.000000000000000000 ) ) ;
#267 = ADVANCED_FACE ( 'NONE', ( #65 ), #39, .F. ) ;
#268 = DIRECTION ( 'NONE',  ( 0.000000000000000000, 1.000000000000000000, 0.000000000000000000 ) ) ;
#269 = FACE_OUTER_BOUND ( 'NONE', #284, .T. ) ;
#270 = CARTESIAN_POINT ( 'NONE',  ( 0.5999999999999999778, -0.2899999999999998690, 0.8400000000000000799 ) ) ;
#271 = UNCERTAINTY_MEASURE_WITH_UNIT (LENGTH_MEASURE( 1.000000000000000082E-05 ), #312, 'distance_accuracy_value', 'NONE');
#272 = DIRECTION ( 'NONE',  ( 0.000000000000000000, 1.000000000000000000, 0.000000000000000000 ) ) ;
#273 = EDGE_CURVE ( 'NONE', #176, #96, #293, .T. ) ;
#274 = CARTESIAN_POINT ( 'NONE',  ( 1.199999999999999956, 1.734723475976807094E-16, 0.000000000000000000 ) ) ;
#275 = UNCERTAINTY_MEASURE_WITH_UNIT (LENGTH_MEASURE( 1.000000000000000082E-05 ), #181, 'distance_accuracy_value', 'NONE');
#276 = FACE_OUTER_BOUND ( 'NONE', #92, .T. ) ;
#277 = ORIENTED_EDGE ( 'NONE', *, *, #174, .F. ) ;
#278 = EDGE_CURVE ( 'NONE', #94, #126, #9, .T. ) ;
#279 = CARTESIAN_POINT ( 'NONE',  ( 0.000000000000000000, -1.200000000000000178, 2.456110868240981571 ) ) ;
#280 = CARTESIAN_POINT ( 'NONE',  ( 0.5999999999999999778, -0.9099999999999999201, 2.598055434120490226 ) ) ;
#281 = ORIENTED_EDGE ( 'NONE', *, *, #226, .F. ) ;
#282 = ORIENTED_EDGE ( 'NONE', *, *, #112, .T. ) ;
#283 = VECTOR ( 'NONE', #80, 100.0000000000000000 ) ;
#284 = EDGE_LOOP ( 'NONE', ( #342, #334, #71, #277 ) ) ;
#285 = CARTESIAN_POINT ( 'NONE',  ( 0.000000000000000000, 0.000000000000000000, 0.000000000000000000 ) ) ;
#286 = VERTEX_POINT ( 'NONE', #280 ) ;
#287 = PRODUCT_CONTEXT ( 'NONE', #197, 'mechanical' ) ;
#288 = EDGE_CURVE ( 'NONE', #289, #286, #5, .T. ) ;
#289 = VERTEX_POINT ( 'NONE', #17 ) ;
#290 = ORIENTED_EDGE ( 'NONE', *, *, #27, .T. ) ;
#291 = DIRECTION ( 'NONE',  ( 0.000000000000000000, 0.000000000000000000, -1.000000000000000000 ) ) ;
#292 = CIRCLE ( 'NONE', #129, 0.3099999999999999978 ) ;
#293 = CIRCLE ( 'NONE', #97, 0.3099999999999999978 ) ;
#294 = AXIS2_PLACEMENT_3D ( 'NONE', #264, #156, #109 ) ;
#295 = PLANE ( 'NONE',  #191 ) ;
#296 = CARTESIAN_POINT ( 'NONE',  ( 0.5999999999999999778, -0.9099999999999999201, 0.000000000000000000 ) ) ;
#297 = LINE ( 'NONE', #319, #236 ) ;
#298 = CARTESIAN_POINT ( 'NONE',  ( 0.5999999999999999778, -0.5999999999999998668, 0.5999999999999998668 ) ) ;
#299 = PLANE ( 'NONE',  #10 ) ;
#300 = DIRECTION ( 'NONE',  ( 0.000000000000000000, 1.000000000000000000, 0.000000000000000000 ) ) ;
#301 = ORIENTED_EDGE ( 'NONE', *, *, #189, .F. ) ;
#302 = ADVANCED_FACE ( 'NONE', ( #333 ), #62, .F. ) ;
#303 = CARTESIAN_POINT ( 'NONE',  ( 0.5999999999999999778, -0.5999999999999998668, 0.5999999999999998668 ) ) ;
#304 = ORIENTED_EDGE ( 'NONE', *, *, #335, .T. ) ;
#305 = DIRECTION ( 'NONE',  ( -0.9731387067013589354, 0.000000000000000000, -0.2302195854387859286 ) ) ;
#306 = CARTESIAN_POINT ( 'NONE',  ( 0.5999999999999999778, -0.5999999999999998668, 0.5999999999999998668 ) ) ;
#307 = ORIENTED_EDGE ( 'NONE', *, *, #335, .F. ) ;
#308 = VERTEX_POINT ( 'NONE', #34 ) ;
#309 = EDGE_LOOP ( 'NONE', ( #67, #87, #18, #235 ) ) ;
#310 = CARTESIAN_POINT ( 'NONE',  ( 1.219999999999999973, -0.2899999999999998135, 2.744731485529316561 ) ) ;
#311 = VERTEX_POINT ( 'NONE', #163 ) ;
#312 =( LENGTH_UNIT ( ) NAMED_UNIT ( * ) SI_UNIT ( .CENTI., .METRE. ) );
#313 = ORIENTED_EDGE ( 'NONE', *, *, #273, .F. ) ;
#314 = AXIS2_PLACEMENT_3D ( 'NONE', #217, #88, #119 ) ;
#315 = ORIENTED_EDGE ( 'NONE', *, *, #174, .T. ) ;
#316 = EDGE_CURVE ( 'NONE', #50, #173, #171, .T. ) ;
#317 = PLANE ( 'NONE',  #25 ) ;
#318 = DIRECTION ( 'NONE',  ( 0.000000000000000000, 0.000000000000000000, -1.000000000000000000 ) ) ;
#319 = CARTESIAN_POINT ( 'NONE',  ( 0.5999999999999999778, -0.9099999999999999201, 0.5999999999999998668 ) ) ;
#320 = DIRECTION ( 'NONE',  ( 0.000000000000000000, -1.000000000000000000, 0.000000000000000000 ) ) ;
#321 = ADVANCED_FACE ( 'NONE', ( #137 ), #299, .F. ) ;
#322 = CARTESIAN_POINT ( 'NONE',  ( 0.5999999999999999778, -0.2899999999999998690, 0.8400000000000000799 ) ) ;
#323 = AXIS2_PLACEMENT_3D ( 'NONE', #212, #209, #108 ) ;
#324 = DIRECTION ( 'NONE',  ( 0.000000000000000000, 0.000000000000000000, -1.000000000000000000 ) ) ;
#325 = LINE ( 'NONE', #274, #83 ) ;
#326 = EDGE_CURVE ( 'NONE', #126, #308, #21, .T. ) ;
#327 = ORIENTED_EDGE ( 'NONE', *, *, #30, .F. ) ;
#328 = DIRECTION ( 'NONE',  ( 0.000000000000000000, -1.000000000000000000, 0.000000000000000000 ) ) ;
#329 = VERTEX_POINT ( 'NONE', #43 ) ;
#330 = AXIS2_PLACEMENT_3D ( 'NONE', #298, #291, #52 ) ;
#331 = LINE ( 'NONE', #121, #1 ) ;
#332 = ORIENTED_EDGE ( 'NONE', *, *, #60, .T. ) ;
#333 = FACE_OUTER_BOUND ( 'NONE', #207, .T. ) ;
#334 = ORIENTED_EDGE ( 'NONE', *, *, #242, .T. ) ;
#335 = EDGE_CURVE ( 'NONE', #286, #289, #40, .T. ) ;
#336 = DIRECTION ( 'NONE',  ( -0.000000000000000000, -0.000000000000000000, 1.000000000000000000 ) ) ;
#337 = DIRECTION ( 'NONE',  ( 0.000000000000000000, 0.000000000000000000, -1.000000000000000000 ) ) ;
#338 = CARTESIAN_POINT ( 'NONE',  ( 0.5999999999999999778, -0.2899999999999998690, 2.598055434120490226 ) ) ;
#339 = VERTEX_POINT ( 'NONE', #225 ) ;
#340 = COLOUR_RGB ( '',0.7921568627450980005, 0.8196078431372548767, 0.9333333333333333481 ) ;
#341 = CARTESIAN_POINT ( 'NONE',  ( 0.005999999999999999258, -0.005999999999999998390, 0.02740000000000000074 ) ) ;
#342 = ORIENTED_EDGE ( 'NONE', *, *, #11, .T. ) ;
#343 = EDGE_CURVE ( 'NONE', #344, #329, #175, .T. ) ;
#344 = VERTEX_POINT ( 'NONE', #285 ) ;
#345 = MANIFOLD_SOLID_BREP ( 'Cut-Extrude3', #244 ) ;
#346 = SURFACE_STYLE_FILL_AREA ( #147 ) ;
#347 = ORIENTED_EDGE ( 'NONE', *, *, #288, .F. ) ;
ENDSEC;
END-ISO-10303-21;
