ISO-10303-21;
HEADER;
FILE_DESCRIPTION (( 'STEP AP214' ),
    '1' );
FILE_NAME ('vertex-spacer_60.STEP',
    '2026-06-19T13:49:18',
    ( '' ),
    ( '' ),
    'SwSTEP 2.0',
    'SolidWorks 2023',
    '' );
FILE_SCHEMA (( 'AUTOMOTIVE_DESIGN' ));
ENDSEC;

DATA;
#1 = EDGE_LOOP ( 'NONE', ( #59, #270, #319, #322 ) ) ;
#2 = ORIENTED_EDGE ( 'NONE', *, *, #297, .T. ) ;
#3 = LINE ( 'NONE', #186, #339 ) ;
#4 = ADVANCED_FACE ( 'NONE', ( #326 ), #61, .F. ) ;
#5 = ORIENTED_EDGE ( 'NONE', *, *, #140, .T. ) ;
#6 = CARTESIAN_POINT ( 'NONE',  ( 1.199999999999999956, 1.734723475976807094E-16, 2.740000000000000213 ) ) ;
#7 = ORIENTED_EDGE ( 'NONE', *, *, #36, .T. ) ;
#8 = DIRECTION ( 'NONE',  ( 0.2302195854387859286, 0.000000000000000000, -0.9731387067013589354 ) ) ;
#9 = DIRECTION ( 'NONE',  ( -1.000000000000000000, -1.445602896647338917E-16, 0.000000000000000000 ) ) ;
#10 = CLOSED_SHELL ( 'NONE', ( #80, #109, #256, #123, #201, #60, #157, #206, #4, #290, #275, #231 ) ) ;
#11 = FACE_OUTER_BOUND ( 'NONE', #184, .T. ) ;
#12 = PRESENTATION_STYLE_ASSIGNMENT (( #169 ) ) ;
#13 = CARTESIAN_POINT ( 'NONE',  ( 0.5999999999999999778, -0.2999999999999997669, 2.598055434120490226 ) ) ;
#14 = CARTESIAN_POINT ( 'NONE',  ( 1.199999999999999956, 1.734723475976807094E-16, 0.000000000000000000 ) ) ;
#15 = CARTESIAN_POINT ( 'NONE',  ( 1.199999999999999956, 1.734723475976807094E-16, 2.740000000000000213 ) ) ;
#16 = DIRECTION ( 'NONE',  ( -1.000000000000000000, 0.000000000000000000, 0.000000000000000000 ) ) ;
#17 = CARTESIAN_POINT ( 'NONE',  ( 0.5999999999999999778, -0.8999999999999999112, 0.8400000000000000799 ) ) ;
#18 = EDGE_CURVE ( 'NONE', #164, #53, #121, .T. ) ;
#19 = DIRECTION ( 'NONE',  ( 0.000000000000000000, -1.000000000000000000, 0.000000000000000000 ) ) ;
#20 = LINE ( 'NONE', #40, #181 ) ;
#21 = DIRECTION ( 'NONE',  ( 0.000000000000000000, -1.000000000000000000, 0.000000000000000000 ) ) ;
#22 = FACE_OUTER_BOUND ( 'NONE', #165, .T. ) ;
#23 = CYLINDRICAL_SURFACE ( 'NONE', #88, 0.3000000000000000444 ) ;
#24 = FACE_BOUND ( 'NONE', #83, .T. ) ;
#25 = ORIENTED_EDGE ( 'NONE', *, *, #135, .T. ) ;
#26 = AXIS2_PLACEMENT_3D ( 'NONE', #284, #45, #150 ) ;
#27 = CARTESIAN_POINT ( 'NONE',  ( 0.5999999999999999778, -0.5999999999999998668, 0.8400000000000000799 ) ) ;
#28 = ORIENTED_EDGE ( 'NONE', *, *, #340, .F. ) ;
#29 = PRODUCT_CONTEXT ( 'NONE', #137, 'mechanical' ) ;
#30 = ORIENTED_EDGE ( 'NONE', *, *, #324, .F. ) ;
#31 = VERTEX_POINT ( 'NONE', #6 ) ;
#32 = AXIS2_PLACEMENT_3D ( 'NONE', #252, #220, #117 ) ;
#33 = CARTESIAN_POINT ( 'NONE',  ( 0.5999999999999999778, -0.8999999999999999112, 2.598055434120490226 ) ) ;
#34 = VERTEX_POINT ( 'NONE', #240 ) ;
#35 = ORIENTED_EDGE ( 'NONE', *, *, #340, .T. ) ;
#36 = EDGE_CURVE ( 'NONE', #207, #301, #318, .T. ) ;
#37 = CARTESIAN_POINT ( 'NONE',  ( 1.199999999999999956, 1.734723475976807094E-16, 0.000000000000000000 ) ) ;
#38 = DIRECTION ( 'NONE',  ( 0.000000000000000000, 0.000000000000000000, -1.000000000000000000 ) ) ;
#39 = VECTOR ( 'NONE', #289, 100.0000000000000000 ) ;
#40 = CARTESIAN_POINT ( 'NONE',  ( 1.199999999999999956, -1.200000000000000178, 2.740000000000000213 ) ) ;
#41 = DIRECTION ( 'NONE',  ( 0.000000000000000000, 0.000000000000000000, -1.000000000000000000 ) ) ;
#42 = EDGE_CURVE ( 'NONE', #31, #316, #136, .T. ) ;
#43 = CARTESIAN_POINT ( 'NONE',  ( 0.5999999999999999778, -0.5999999999999998668, 0.8400000000000000799 ) ) ;
#44 = AXIS2_PLACEMENT_3D ( 'NONE', #144, #249, #115 ) ;
#45 = DIRECTION ( 'NONE',  ( 1.000000000000000000, 0.000000000000000000, 0.000000000000000000 ) ) ;
#46 = PLANE ( 'NONE',  #102 ) ;
#47 = EDGE_CURVE ( 'NONE', #259, #66, #241, .T. ) ;
#48 = CARTESIAN_POINT ( 'NONE',  ( 0.5999999999999999778, -0.8999999999999999112, 0.5999999999999998668 ) ) ;
#49 = EDGE_LOOP ( 'NONE', ( #293, #271, #5, #108 ) ) ;
#50 = VECTOR ( 'NONE', #307, 100.0000000000000000 ) ;
#51 = CARTESIAN_POINT ( 'NONE',  ( 1.199999999999999956, -1.200000000000000178, 0.000000000000000000 ) ) ;
#52 = CARTESIAN_POINT ( 'NONE',  ( 0.5999999999999999778, -0.5999999999999998668, 0.000000000000000000 ) ) ;
#53 = VERTEX_POINT ( 'NONE', #72 ) ;
#54 = ORIENTED_EDGE ( 'NONE', *, *, #176, .T. ) ;
#55 =( NAMED_UNIT ( * ) SI_UNIT ( $, .STERADIAN. ) SOLID_ANGLE_UNIT ( ) );
#56 = ORIENTED_EDGE ( 'NONE', *, *, #216, .T. ) ;
#57 = UNCERTAINTY_MEASURE_WITH_UNIT (LENGTH_MEASURE( 1.000000000000000082E-05 ), #222, 'distance_accuracy_value', 'NONE');
#58 = VECTOR ( 'NONE', #325, 100.0000000000000000 ) ;
#59 = ORIENTED_EDGE ( 'NONE', *, *, #47, .T. ) ;
#60 = ADVANCED_FACE ( 'NONE', ( #283 ), #170, .F. ) ;
#61 = CYLINDRICAL_SURFACE ( 'NONE', #327, 0.3000000000000000999 ) ;
#62 = CARTESIAN_POINT ( 'NONE',  ( 0.5999999999999999778, -0.2999999999999997669, 0.5999999999999998668 ) ) ;
#63 = CARTESIAN_POINT ( 'NONE',  ( 1.734723475976807341E-16, -0.2999999999999998779, 2.456110868240981127 ) ) ;
#64 = EDGE_LOOP ( 'NONE', ( #35, #54, #7, #76 ) ) ;
#65 = EDGE_CURVE ( 'NONE', #31, #158, #332, .T. ) ;
#66 = VERTEX_POINT ( 'NONE', #287 ) ;
#67 = DIRECTION ( 'NONE',  ( -0.9731387067013589354, 0.000000000000000000, -0.2302195854387859009 ) ) ;
#68 = LINE ( 'NONE', #285, #250 ) ;
#69 = LINE ( 'NONE', #245, #168 ) ;
#70 = EDGE_CURVE ( 'NONE', #159, #187, #69, .T. ) ;
#71 = DIRECTION ( 'NONE',  ( 0.000000000000000000, 1.000000000000000000, 0.000000000000000000 ) ) ;
#72 = CARTESIAN_POINT ( 'NONE',  ( 0.5999999999999999778, -0.8999999999999999112, 0.000000000000000000 ) ) ;
#73 = CARTESIAN_POINT ( 'NONE',  ( 0.000000000000000000, -1.200000000000000178, 2.456110868240981571 ) ) ;
#74 = DIRECTION ( 'NONE',  ( 0.000000000000000000, 1.000000000000000000, 0.000000000000000000 ) ) ;
#75 = DIRECTION ( 'NONE',  ( 0.000000000000000000, 0.000000000000000000, -1.000000000000000000 ) ) ;
#76 = ORIENTED_EDGE ( 'NONE', *, *, #291, .F. ) ;
#77 = CARTESIAN_POINT ( 'NONE',  ( 0.000000000000000000, 1.734723475976807094E-16, 2.456110868240981571 ) ) ;
#78 = ORIENTED_EDGE ( 'NONE', *, *, #328, .F. ) ;
#79 = ORIENTED_EDGE ( 'NONE', *, *, #176, .F. ) ;
#80 = ADVANCED_FACE ( 'NONE', ( #308 ), #200, .F. ) ;
#81 = CIRCLE ( 'NONE', #311, 0.3000000000000000444 ) ;
#82 = MECHANICAL_DESIGN_GEOMETRIC_PRESENTATION_REPRESENTATION (  '', ( #185 ), #272 ) ;
#83 = EDGE_LOOP ( 'NONE', ( #244, #317 ) ) ;
#84 = EDGE_CURVE ( 'NONE', #113, #138, #81, .T. ) ;
#85 = VERTEX_POINT ( 'NONE', #329 ) ;
#86 = EDGE_LOOP ( 'NONE', ( #192, #2, #209, #30 ) ) ;
#87 = CARTESIAN_POINT ( 'NONE',  ( 0.5999999999999999778, -0.2999999999999997669, 2.598055434120490226 ) ) ;
#88 = AXIS2_PLACEMENT_3D ( 'NONE', #96, #75, #125 ) ;
#89 = CARTESIAN_POINT ( 'NONE',  ( 0.000000000000000000, 0.000000000000000000, 0.000000000000000000 ) ) ;
#90 = DIRECTION ( 'NONE',  ( 0.000000000000000000, 0.000000000000000000, 1.000000000000000000 ) ) ;
#91 = FACE_OUTER_BOUND ( 'NONE', #64, .T. ) ;
#92 = LINE ( 'NONE', #14, #50 ) ;
#93 = PRODUCT_DEFINITION_FORMATION_WITH_SPECIFIED_SOURCE ( 'ANY', '', #132, .NOT_KNOWN. ) ;
#94 = CARTESIAN_POINT ( 'NONE',  ( 1.199999999999999956, -1.200000000000000178, 0.000000000000000000 ) ) ;
#95 = DIRECTION ( 'NONE',  ( 0.000000000000000000, 1.000000000000000000, 0.000000000000000000 ) ) ;
#96 = CARTESIAN_POINT ( 'NONE',  ( 0.5999999999999999778, -0.5999999999999998668, 0.5999999999999998668 ) ) ;
#97 = CARTESIAN_POINT ( 'NONE',  ( 1.199999999999999956, -0.8999999999999999112, 2.739999999999999769 ) ) ;
#98 = CIRCLE ( 'NONE', #146, 0.3000000000000000444 ) ;
#99 = PRODUCT_DEFINITION ( 'UNKNOWN', '', #93, #215 ) ;
#100 = CARTESIAN_POINT ( 'NONE',  ( 1.199999999999999956, -1.200000000000000178, 2.740000000000000213 ) ) ;
#101 = DIRECTION ( 'NONE',  ( 0.000000000000000000, 0.000000000000000000, -1.000000000000000000 ) ) ;
#102 = AXIS2_PLACEMENT_3D ( 'NONE', #302, #152, #9 ) ;
#103 = SHAPE_DEFINITION_REPRESENTATION ( #266, #268 ) ;
#104 = CARTESIAN_POINT ( 'NONE',  ( 0.005999999999999999258, -0.005999999999999998390, 0.02740000000000000074 ) ) ;
#105 = ORIENTED_EDGE ( 'NONE', *, *, #36, .F. ) ;
#106 = VECTOR ( 'NONE', #248, 100.0000000000000000 ) ;
#107 = AXIS2_PLACEMENT_3D ( 'NONE', #43, #255, #21 ) ;
#108 = ORIENTED_EDGE ( 'NONE', *, *, #18, .T. ) ;
#109 = ADVANCED_FACE ( 'NONE', ( #91 ), #174, .F. ) ;
#110 = ORIENTED_EDGE ( 'NONE', *, *, #188, .F. ) ;
#111 = DIRECTION ( 'NONE',  ( 0.000000000000000000, 1.000000000000000000, 0.000000000000000000 ) ) ;
#112 = EDGE_LOOP ( 'NONE', ( #79, #129, #292, #189 ) ) ;
#113 = VERTEX_POINT ( 'NONE', #205 ) ;
#114 = VECTOR ( 'NONE', #124, 100.0000000000000000 ) ;
#115 = DIRECTION ( 'NONE',  ( 0.000000000000000000, 1.000000000000000000, 0.000000000000000000 ) ) ;
#116 = DIRECTION ( 'NONE',  ( 0.000000000000000000, 0.000000000000000000, -1.000000000000000000 ) ) ;
#117 = DIRECTION ( 'NONE',  ( 1.000000000000000000, -1.445602896647338917E-16, 0.000000000000000000 ) ) ;
#118 = CARTESIAN_POINT ( 'NONE',  ( 0.5999999999999999778, -0.8999999999999999112, 2.598055434120490226 ) ) ;
#119 = DIRECTION ( 'NONE',  ( -0.9731387067013589354, 0.000000000000000000, -0.2302195854387859286 ) ) ;
#120 = DIRECTION ( 'NONE',  ( 0.000000000000000000, 0.000000000000000000, -1.000000000000000000 ) ) ;
#121 = CIRCLE ( 'NONE', #335, 0.3000000000000000444 ) ;
#122 = LINE ( 'NONE', #73, #131 ) ;
#123 = ADVANCED_FACE ( 'NONE', ( #310 ), #46, .F. ) ;
#124 = DIRECTION ( 'NONE',  ( -0.000000000000000000, -0.000000000000000000, 1.000000000000000000 ) ) ;
#125 = DIRECTION ( 'NONE',  ( 0.000000000000000000, 1.000000000000000000, 0.000000000000000000 ) ) ;
#126 = FACE_OUTER_BOUND ( 'NONE', #1, .T. ) ;
#127 = EDGE_CURVE ( 'NONE', #138, #113, #232, .T. ) ;
#128 = DIRECTION ( 'NONE',  ( 0.000000000000000000, 0.000000000000000000, -1.000000000000000000 ) ) ;
#129 = ORIENTED_EDGE ( 'NONE', *, *, #188, .T. ) ;
#130 = PLANE ( 'NONE',  #263 ) ;
#131 = VECTOR ( 'NONE', #71, 100.0000000000000000 ) ;
#132 = PRODUCT ( 'vertex-spacer_60', 'vertex-spacer_60', '', ( #29 ) ) ;
#133 = ORIENTED_EDGE ( 'NONE', *, *, #286, .T. ) ;
#134 = CARTESIAN_POINT ( 'NONE',  ( 0.5999999999999999778, -0.5999999999999998668, 0.000000000000000000 ) ) ;
#135 = EDGE_CURVE ( 'NONE', #113, #53, #191, .T. ) ;
#136 = LINE ( 'NONE', #323, #58 ) ;
#137 = APPLICATION_CONTEXT ( 'automotive_design' ) ;
#138 = VERTEX_POINT ( 'NONE', #62 ) ;
#139 = ORIENTED_EDGE ( 'NONE', *, *, #65, .F. ) ;
#140 = EDGE_CURVE ( 'NONE', #138, #164, #3, .T. ) ;
#141 = FACE_OUTER_BOUND ( 'NONE', #294, .T. ) ;
#142 = VECTOR ( 'NONE', #101, 100.0000000000000000 ) ;
#143 = CARTESIAN_POINT ( 'NONE',  ( 0.000000000000000000, -1.199999999999999956, 0.000000000000000000 ) ) ;
#144 = CARTESIAN_POINT ( 'NONE',  ( 0.5999999999999999778, -0.5999999999999998668, 0.5999999999999998668 ) ) ;
#145 = DIRECTION ( 'NONE',  ( 0.000000000000000000, 1.000000000000000000, 0.000000000000000000 ) ) ;
#146 = AXIS2_PLACEMENT_3D ( 'NONE', #177, #41, #145 ) ;
#147 = DIRECTION ( 'NONE',  ( -0.000000000000000000, -0.000000000000000000, 1.000000000000000000 ) ) ;
#148 = AXIS2_PLACEMENT_3D ( 'NONE', #27, #128, #333 ) ;
#149 = COLOUR_RGB ( '',0.7921568627450980005, 0.8196078431372548767, 0.9333333333333333481 ) ;
#150 = DIRECTION ( 'NONE',  ( 0.000000000000000000, -1.000000000000000000, 0.000000000000000000 ) ) ;
#151 =( LENGTH_UNIT ( ) NAMED_UNIT ( * ) SI_UNIT ( .CENTI., .METRE. ) );
#152 = DIRECTION ( 'NONE',  ( 1.445602896647338917E-16, -1.000000000000000000, 0.000000000000000000 ) ) ;
#153 = ORIENTED_EDGE ( 'NONE', *, *, #347, .T. ) ;
#154 = ORIENTED_EDGE ( 'NONE', *, *, #65, .T. ) ;
#155 = UNCERTAINTY_MEASURE_WITH_UNIT (LENGTH_MEASURE( 1.000000000000000082E-05 ), #151, 'distance_accuracy_value', 'NONE');
#156 = APPLICATION_PROTOCOL_DEFINITION ( 'draft international standard', 'automotive_design', 1998, #137 ) ;
#157 = ADVANCED_FACE ( 'NONE', ( #24, #126 ), #130, .T. ) ;
#158 = VERTEX_POINT ( 'NONE', #77 ) ;
#159 = VERTEX_POINT ( 'NONE', #313 ) ;
#160 = CARTESIAN_POINT ( 'NONE',  ( 0.5999999999999999778, -0.5999999999999998668, 0.8400000000000000799 ) ) ;
#161 = AXIS2_PLACEMENT_3D ( 'NONE', #331, #38, #224 ) ;
#162 = CARTESIAN_POINT ( 'NONE',  ( 1.734723475976807341E-16, -0.8999999999999998002, 2.456110868240981127 ) ) ;
#163 = VECTOR ( 'NONE', #67, 100.0000000000000000 ) ;
#164 = VERTEX_POINT ( 'NONE', #208 ) ;
#165 = EDGE_LOOP ( 'NONE', ( #262, #179, #260, #342 ) ) ;
#166 = LINE ( 'NONE', #37, #321 ) ;
#167 = AXIS2_PLACEMENT_3D ( 'NONE', #309, #279, #74 ) ;
#168 = VECTOR ( 'NONE', #19, 100.0000000000000000 ) ;
#169 = SURFACE_STYLE_USAGE ( .BOTH. , #337 ) ;
#170 = PLANE ( 'NONE',  #32 ) ;
#171 = FACE_OUTER_BOUND ( 'NONE', #49, .T. ) ;
#172 = CARTESIAN_POINT ( 'NONE',  ( 0.5999999999999999778, -0.5999999999999998668, 0.5999999999999998668 ) ) ;
#173 = CARTESIAN_POINT ( 'NONE',  ( 1.199999999999999956, -1.200000000000000178, 0.000000000000000000 ) ) ;
#174 = CYLINDRICAL_SURFACE ( 'NONE', #107, 0.3000000000000000999 ) ;
#175 = FACE_OUTER_BOUND ( 'NONE', #343, .T. ) ;
#176 = EDGE_CURVE ( 'NONE', #34, #207, #341, .T. ) ;
#177 = CARTESIAN_POINT ( 'NONE',  ( 0.5999999999999999778, -0.5999999999999998668, 0.000000000000000000 ) ) ;
#178 = VECTOR ( 'NONE', #280, 100.0000000000000000 ) ;
#179 = ORIENTED_EDGE ( 'NONE', *, *, #328, .T. ) ;
#180 = DIRECTION ( 'NONE',  ( 0.000000000000000000, 1.000000000000000000, -0.000000000000000000 ) ) ;
#181 = VECTOR ( 'NONE', #334, 100.0000000000000000 ) ;
#182 = CARTESIAN_POINT ( 'NONE',  ( 0.5999999999999999778, -0.5999999999999998668, 0.5999999999999998668 ) ) ;
#183 = VECTOR ( 'NONE', #95, 100.0000000000000000 ) ;
#184 = EDGE_LOOP ( 'NONE', ( #78, #265, #267, #154 ) ) ;
#185 = STYLED_ITEM ( 'NONE', ( #12 ), #269 ) ;
#186 = CARTESIAN_POINT ( 'NONE',  ( 0.5999999999999999778, -0.2999999999999997669, 0.5999999999999998668 ) ) ;
#187 = VERTEX_POINT ( 'NONE', #51 ) ;
#188 = EDGE_CURVE ( 'NONE', #34, #85, #299, .T. ) ;
#189 = ORIENTED_EDGE ( 'NONE', *, *, #304, .T. ) ;
#190 = ORIENTED_EDGE ( 'NONE', *, *, #84, .F. ) ;
#191 = LINE ( 'NONE', #48, #142 ) ;
#192 = ORIENTED_EDGE ( 'NONE', *, *, #238, .T. ) ;
#193 = ORIENTED_EDGE ( 'NONE', *, *, #300, .F. ) ;
#194 = APPLICATION_CONTEXT ( 'automotive_design' ) ;
#195 = DIRECTION ( 'NONE',  ( 0.000000000000000000, 0.000000000000000000, -1.000000000000000000 ) ) ;
#196 = DIRECTION ( 'NONE',  ( 0.000000000000000000, 1.000000000000000000, -0.000000000000000000 ) ) ;
#197 = CARTESIAN_POINT ( 'NONE',  ( 0.5999999999999999778, -0.8999999999999999112, 2.598055434120490226 ) ) ;
#198 = LINE ( 'NONE', #305, #114 ) ;
#199 = DIRECTION ( 'NONE',  ( -1.000000000000000000, 1.445602896647338917E-16, 0.000000000000000000 ) ) ;
#200 = CYLINDRICAL_SURFACE ( 'NONE', #44, 0.3000000000000000444 ) ;
#201 = ADVANCED_FACE ( 'NONE', ( #175 ), #273, .F. ) ;
#202 = LINE ( 'NONE', #17, #106 ) ;
#203 = FACE_BOUND ( 'NONE', #346, .T. ) ;
#204 = CARTESIAN_POINT ( 'NONE',  ( 1.200000000000000178, -0.2999999999999997669, 2.739999999999999769 ) ) ;
#205 = CARTESIAN_POINT ( 'NONE',  ( 0.5999999999999999778, -0.8999999999999999112, 0.5999999999999998668 ) ) ;
#206 = ADVANCED_FACE ( 'NONE', ( #203, #11 ), #330, .F. ) ;
#207 = VERTEX_POINT ( 'NONE', #13 ) ;
#208 = CARTESIAN_POINT ( 'NONE',  ( 0.5999999999999999778, -0.2999999999999997669, 0.000000000000000000 ) ) ;
#209 = ORIENTED_EDGE ( 'NONE', *, *, #247, .F. ) ;
#210 = EDGE_LOOP ( 'NONE', ( #28, #110 ) ) ;
#211 =( NAMED_UNIT ( * ) PLANE_ANGLE_UNIT ( ) SI_UNIT ( $, .RADIAN. ) );
#212 = AXIS2_PLACEMENT_3D ( 'NONE', #182, #261, #111 ) ;
#213 = ORIENTED_EDGE ( 'NONE', *, *, #84, .T. ) ;
#214 = ORIENTED_EDGE ( 'NONE', *, *, #127, .T. ) ;
#215 = PRODUCT_DEFINITION_CONTEXT ( 'detailed design', #194, 'design' ) ;
#216 = EDGE_CURVE ( 'NONE', #159, #31, #166, .T. ) ;
#217 = EDGE_LOOP ( 'NONE', ( #190, #25, #153, #242 ) ) ;
#218 = DIRECTION ( 'NONE',  ( 0.000000000000000000, 1.000000000000000000, 0.000000000000000000 ) ) ;
#219 = ORIENTED_EDGE ( 'NONE', *, *, #70, .F. ) ;
#220 = DIRECTION ( 'NONE',  ( 1.445602896647338917E-16, 1.000000000000000000, 0.000000000000000000 ) ) ;
#221 = CARTESIAN_POINT ( 'NONE',  ( 0.000000000000000000, -1.200000000000000178, 2.456110868240981571 ) ) ;
#222 =( LENGTH_UNIT ( ) NAMED_UNIT ( * ) SI_UNIT ( .CENTI., .METRE. ) );
#223 = LINE ( 'NONE', #94, #178 ) ;
#224 = DIRECTION ( 'NONE',  ( 0.000000000000000000, 1.000000000000000000, 0.000000000000000000 ) ) ;
#225 = PRESENTATION_LAYER_ASSIGNMENT (  '', '', ( #185 ) ) ;
#226 = DIRECTION ( 'NONE',  ( 0.000000000000000000, 1.000000000000000000, 0.000000000000000000 ) ) ;
#227 = PRODUCT_RELATED_PRODUCT_CATEGORY ( 'part', '', ( #132 ) ) ;
#228 = FACE_OUTER_BOUND ( 'NONE', #210, .T. ) ;
#229 = CARTESIAN_POINT ( 'NONE',  ( 0.5999999999999999778, -0.5999999999999998668, 0.5999999999999998668 ) ) ;
#230 = LINE ( 'NONE', #173, #303 ) ;
#231 = ADVANCED_FACE ( 'NONE', ( #141 ), #306, .T. ) ;
#232 = CIRCLE ( 'NONE', #212, 0.3000000000000000444 ) ;
#233 = DIRECTION ( 'NONE',  ( 0.000000000000000000, 0.000000000000000000, -1.000000000000000000 ) ) ;
#234 = VERTEX_POINT ( 'NONE', #221 ) ;
#235 = ORIENTED_EDGE ( 'NONE', *, *, #238, .F. ) ;
#236 = APPLICATION_PROTOCOL_DEFINITION ( 'draft international standard', 'automotive_design', 1998, #194 ) ;
#237 = AXIS2_PLACEMENT_3D ( 'NONE', #172, #116, #253 ) ;
#238 = EDGE_CURVE ( 'NONE', #187, #316, #223, .T. ) ;
#239 = ORIENTED_EDGE ( 'NONE', *, *, #42, .T. ) ;
#240 = CARTESIAN_POINT ( 'NONE',  ( 0.5999999999999999778, -0.2999999999999997669, 0.8400000000000000799 ) ) ;
#241 = LINE ( 'NONE', #89, #183 ) ;
#242 = ORIENTED_EDGE ( 'NONE', *, *, #140, .F. ) ;
#243 = CARTESIAN_POINT ( 'NONE',  ( 1.199999999999999956, -1.200000000000000178, 2.740000000000000213 ) ) ;
#244 = ORIENTED_EDGE ( 'NONE', *, *, #18, .F. ) ;
#245 = CARTESIAN_POINT ( 'NONE',  ( 1.199999999999999956, 1.734723475976807094E-16, 0.000000000000000000 ) ) ;
#246 = CARTESIAN_POINT ( 'NONE',  ( 1.199999999999999956, 1.734723475976807094E-16, 0.000000000000000000 ) ) ;
#247 = EDGE_CURVE ( 'NONE', #259, #234, #198, .T. ) ;
#248 = DIRECTION ( 'NONE',  ( 0.000000000000000000, 0.000000000000000000, 1.000000000000000000 ) ) ;
#249 = DIRECTION ( 'NONE',  ( 0.000000000000000000, 0.000000000000000000, -1.000000000000000000 ) ) ;
#250 = VECTOR ( 'NONE', #147, 100.0000000000000000 ) ;
#251 = FILL_AREA_STYLE_COLOUR ( '', #149 ) ;
#252 = CARTESIAN_POINT ( 'NONE',  ( 1.199999999999999956, -1.200000000000000178, 0.000000000000000000 ) ) ;
#253 = DIRECTION ( 'NONE',  ( 0.000000000000000000, 1.000000000000000000, 0.000000000000000000 ) ) ;
#254 = CARTESIAN_POINT ( 'NONE',  ( 0.5999999999999999778, -0.2999999999999997669, 2.598055434120490226 ) ) ;
#255 = DIRECTION ( 'NONE',  ( 0.000000000000000000, 0.000000000000000000, 1.000000000000000000 ) ) ;
#256 = ADVANCED_FACE ( 'NONE', ( #22 ), #257, .F. ) ;
#257 = PLANE ( 'NONE',  #26 ) ;
#258 = DIRECTION ( 'NONE',  ( 0.000000000000000000, 0.000000000000000000, -1.000000000000000000 ) ) ;
#259 = VERTEX_POINT ( 'NONE', #143 ) ;
#260 = ORIENTED_EDGE ( 'NONE', *, *, #286, .F. ) ;
#261 = DIRECTION ( 'NONE',  ( 0.000000000000000000, 0.000000000000000000, -1.000000000000000000 ) ) ;
#262 = ORIENTED_EDGE ( 'NONE', *, *, #247, .T. ) ;
#263 = AXIS2_PLACEMENT_3D ( 'NONE', #52, #233, #338 ) ;
#264 =( BOUNDED_CURVE ( )  B_SPLINE_CURVE ( 3, ( #118, #97, #204, #254 ),
 .UNSPECIFIED., .F., .F. ) 
 B_SPLINE_CURVE_WITH_KNOTS ( ( 4, 4 ),
 ( 4.712388980384689674, 7.853981633974482790 ),
 .UNSPECIFIED. ) 
 CURVE ( )  GEOMETRIC_REPRESENTATION_ITEM ( )  RATIONAL_B_SPLINE_CURVE ( ( 1.000000000000000000, 0.3333333333333333703, 0.3333333333333333703, 1.000000000000000000 ) ) 
 REPRESENTATION_ITEM ( '' )  );
#265 = ORIENTED_EDGE ( 'NONE', *, *, #297, .F. ) ;
#266 = PRODUCT_DEFINITION_SHAPE ( 'NONE', 'NONE',  #99 ) ;
#267 = ORIENTED_EDGE ( 'NONE', *, *, #42, .F. ) ;
#268 = ADVANCED_BREP_SHAPE_REPRESENTATION ( 'vertex-spacer_60', ( #269, #281 ), #344 ) ;
#269 = MANIFOLD_SOLID_BREP ( 'Cut-Extrude3', #10 ) ;
#270 = ORIENTED_EDGE ( 'NONE', *, *, #300, .T. ) ;
#271 = ORIENTED_EDGE ( 'NONE', *, *, #127, .F. ) ;
#272 =( GEOMETRIC_REPRESENTATION_CONTEXT ( 3 ) GLOBAL_UNCERTAINTY_ASSIGNED_CONTEXT ( ( #57 ) ) GLOBAL_UNIT_ASSIGNED_CONTEXT ( ( #222, #278, #312 ) ) REPRESENTATION_CONTEXT ( 'NONE', 'WORKASPACE' ) );
#273 = PLANE ( 'NONE',  #345 ) ;
#274 = PLANE ( 'NONE',  #161 ) ;
#275 = ADVANCED_FACE ( 'NONE', ( #171 ), #23, .F. ) ;
#276 = AXIS2_PLACEMENT_3D ( 'NONE', #243, #8, #119 ) ;
#277 = DIRECTION ( 'NONE',  ( -0.000000000000000000, -0.000000000000000000, 1.000000000000000000 ) ) ;
#278 =( NAMED_UNIT ( * ) PLANE_ANGLE_UNIT ( ) SI_UNIT ( $, .RADIAN. ) );
#279 = DIRECTION ( 'NONE',  ( 0.000000000000000000, 0.000000000000000000, -1.000000000000000000 ) ) ;
#280 = DIRECTION ( 'NONE',  ( -0.000000000000000000, -0.000000000000000000, 1.000000000000000000 ) ) ;
#281 = AXIS2_PLACEMENT_3D ( 'NONE', #104, #180, #288 ) ;
#282 = FILL_AREA_STYLE ('',( #251 ) ) ;
#283 = FACE_OUTER_BOUND ( 'NONE', #86, .T. ) ;
#284 = CARTESIAN_POINT ( 'NONE',  ( 0.000000000000000000, 0.000000000000000000, 0.000000000000000000 ) ) ;
#285 = CARTESIAN_POINT ( 'NONE',  ( 0.000000000000000000, 0.000000000000000000, 0.000000000000000000 ) ) ;
#286 = EDGE_CURVE ( 'NONE', #66, #158, #68, .T. ) ;
#287 = CARTESIAN_POINT ( 'NONE',  ( 0.000000000000000000, 0.000000000000000000, 0.000000000000000000 ) ) ;
#288 = DIRECTION ( 'NONE',  ( 1.000000000000000000, 0.000000000000000000, -0.000000000000000000 ) ) ;
#289 = DIRECTION ( 'NONE',  ( 0.000000000000000000, 0.000000000000000000, 1.000000000000000000 ) ) ;
#290 = ADVANCED_FACE ( 'NONE', ( #228 ), #274, .F. ) ;
#291 = EDGE_CURVE ( 'NONE', #85, #301, #202, .T. ) ;
#292 = ORIENTED_EDGE ( 'NONE', *, *, #291, .T. ) ;
#293 = ORIENTED_EDGE ( 'NONE', *, *, #135, .F. ) ;
#294 = EDGE_LOOP ( 'NONE', ( #214, #213 ) ) ;
#295 = DIRECTION ( 'NONE',  ( 0.000000000000000000, -1.000000000000000000, 0.000000000000000000 ) ) ;
#296 = CIRCLE ( 'NONE', #167, 0.3000000000000000444 ) ;
#297 = EDGE_CURVE ( 'NONE', #316, #234, #20, .T. ) ;
#298 = EDGE_LOOP ( 'NONE', ( #133, #139, #320, #193 ) ) ;
#299 = CIRCLE ( 'NONE', #148, 0.3000000000000000444 ) ;
#300 = EDGE_CURVE ( 'NONE', #66, #159, #92, .T. ) ;
#301 = VERTEX_POINT ( 'NONE', #197 ) ;
#302 = CARTESIAN_POINT ( 'NONE',  ( 1.199999999999999956, 1.734723475976807094E-16, 0.000000000000000000 ) ) ;
#303 = VECTOR ( 'NONE', #199, 100.0000000000000000 ) ;
#304 = EDGE_CURVE ( 'NONE', #301, #207, #264, .T. ) ;
#305 = CARTESIAN_POINT ( 'NONE',  ( 0.000000000000000000, -1.199999999999999956, 0.000000000000000000 ) ) ;
#306 = PLANE ( 'NONE',  #237 ) ;
#307 = DIRECTION ( 'NONE',  ( 1.000000000000000000, 1.445602896647338917E-16, 0.000000000000000000 ) ) ;
#308 = FACE_OUTER_BOUND ( 'NONE', #217, .T. ) ;
#309 = CARTESIAN_POINT ( 'NONE',  ( 0.5999999999999999778, -0.5999999999999998668, 0.8400000000000000799 ) ) ;
#310 = FACE_OUTER_BOUND ( 'NONE', #298, .T. ) ;
#311 = AXIS2_PLACEMENT_3D ( 'NONE', #229, #120, #226 ) ;
#312 =( NAMED_UNIT ( * ) SI_UNIT ( $, .STERADIAN. ) SOLID_ANGLE_UNIT ( ) );
#313 = CARTESIAN_POINT ( 'NONE',  ( 1.199999999999999956, 1.734723475976807094E-16, 0.000000000000000000 ) ) ;
#314 = ORIENTED_EDGE ( 'NONE', *, *, #304, .F. ) ;
#315 = CARTESIAN_POINT ( 'NONE',  ( 0.5999999999999999778, -0.2999999999999997669, 0.8400000000000000799 ) ) ;
#316 = VERTEX_POINT ( 'NONE', #100 ) ;
#317 = ORIENTED_EDGE ( 'NONE', *, *, #347, .F. ) ;
#318 =( BOUNDED_CURVE ( )  B_SPLINE_CURVE ( 3, ( #87, #63, #162, #33 ),
 .UNSPECIFIED., .F., .F. ) 
 B_SPLINE_CURVE_WITH_KNOTS ( ( 4, 4 ),
 ( 1.570796326794897002, 4.712388980384689674 ),
 .UNSPECIFIED. ) 
 CURVE ( )  GEOMETRIC_REPRESENTATION_ITEM ( )  RATIONAL_B_SPLINE_CURVE ( ( 1.000000000000000000, 0.3333333333333335369, 0.3333333333333335369, 1.000000000000000000 ) ) 
 REPRESENTATION_ITEM ( '' )  );
#319 = ORIENTED_EDGE ( 'NONE', *, *, #70, .T. ) ;
#320 = ORIENTED_EDGE ( 'NONE', *, *, #216, .F. ) ;
#321 = VECTOR ( 'NONE', #277, 100.0000000000000000 ) ;
#322 = ORIENTED_EDGE ( 'NONE', *, *, #324, .T. ) ;
#323 = CARTESIAN_POINT ( 'NONE',  ( 1.199999999999999956, 1.734723475976807094E-16, 2.740000000000000213 ) ) ;
#324 = EDGE_CURVE ( 'NONE', #187, #259, #230, .T. ) ;
#325 = DIRECTION ( 'NONE',  ( 0.000000000000000000, -1.000000000000000000, 0.000000000000000000 ) ) ;
#326 = FACE_OUTER_BOUND ( 'NONE', #112, .T. ) ;
#327 = AXIS2_PLACEMENT_3D ( 'NONE', #160, #90, #295 ) ;
#328 = EDGE_CURVE ( 'NONE', #234, #158, #122, .T. ) ;
#329 = CARTESIAN_POINT ( 'NONE',  ( 0.5999999999999999778, -0.8999999999999999112, 0.8400000000000000799 ) ) ;
#330 = PLANE ( 'NONE',  #276 ) ;
#331 = CARTESIAN_POINT ( 'NONE',  ( 0.5999999999999999778, -0.5999999999999998668, 0.8400000000000000799 ) ) ;
#332 = LINE ( 'NONE', #15, #163 ) ;
#333 = DIRECTION ( 'NONE',  ( 0.000000000000000000, 1.000000000000000000, 0.000000000000000000 ) ) ;
#334 = DIRECTION ( 'NONE',  ( -0.9731387067013589354, 0.000000000000000000, -0.2302195854387859009 ) ) ;
#335 = AXIS2_PLACEMENT_3D ( 'NONE', #134, #195, #218 ) ;
#336 = SURFACE_STYLE_FILL_AREA ( #282 ) ;
#337 = SURFACE_SIDE_STYLE ('',( #336 ) ) ;
#338 = DIRECTION ( 'NONE',  ( 0.000000000000000000, 1.000000000000000000, 0.000000000000000000 ) ) ;
#339 = VECTOR ( 'NONE', #258, 100.0000000000000000 ) ;
#340 = EDGE_CURVE ( 'NONE', #85, #34, #296, .T. ) ;
#341 = LINE ( 'NONE', #315, #39 ) ;
#342 = ORIENTED_EDGE ( 'NONE', *, *, #47, .F. ) ;
#343 = EDGE_LOOP ( 'NONE', ( #239, #235, #219, #56 ) ) ;
#344 =( GEOMETRIC_REPRESENTATION_CONTEXT ( 3 ) GLOBAL_UNCERTAINTY_ASSIGNED_CONTEXT ( ( #155 ) ) GLOBAL_UNIT_ASSIGNED_CONTEXT ( ( #151, #211, #55 ) ) REPRESENTATION_CONTEXT ( 'NONE', 'WORKASPACE' ) );
#345 = AXIS2_PLACEMENT_3D ( 'NONE', #246, #16, #196 ) ;
#346 = EDGE_LOOP ( 'NONE', ( #314, #105 ) ) ;
#347 = EDGE_CURVE ( 'NONE', #53, #164, #98, .T. ) ;
ENDSEC;
END-ISO-10303-21;
