ISO-10303-21;
HEADER;
FILE_DESCRIPTION (( 'STEP AP214' ),
    '1' );
FILE_NAME ('connector-edge.STEP',
    '2026-06-19T13:50:26',
    ( '' ),
    ( '' ),
    'SwSTEP 2.0',
    'SolidWorks 2023',
    '' );
FILE_SCHEMA (( 'AUTOMOTIVE_DESIGN' ));
ENDSEC;

DATA;
#1 = EDGE_LOOP ( 'NONE', ( #191, #249, #212, #295 ) ) ;
#2 = ORIENTED_EDGE ( 'NONE', *, *, #137, .T. ) ;
#3 = DIRECTION ( 'NONE',  ( 0.000000000000000000, 0.000000000000000000, -1.000000000000000000 ) ) ;
#4 = LINE ( 'NONE', #209, #393 ) ;
#5 = VECTOR ( 'NONE', #630, 100.0000000000000000 ) ;
#6 = CARTESIAN_POINT ( 'NONE',  ( 13.97999999999999332, -1.734723475976807094E-16, 0.5000000000000000000 ) ) ;
#7 = ORIENTED_EDGE ( 'NONE', *, *, #322, .F. ) ;
#8 = EDGE_CURVE ( 'NONE', #22, #503, #417, .T. ) ;
#9 = ORIENTED_EDGE ( 'NONE', *, *, #484, .T. ) ;
#10 = ORIENTED_EDGE ( 'NONE', *, *, #157, .T. ) ;
#11 = PLANE ( 'NONE',  #296 ) ;
#12 = DIRECTION ( 'NONE',  ( -1.000000000000000000, 0.000000000000000000, 0.000000000000000000 ) ) ;
#13 = ORIENTED_EDGE ( 'NONE', *, *, #643, .F. ) ;
#14 = VECTOR ( 'NONE', #446, 100.0000000000000000 ) ;
#15 = AXIS2_PLACEMENT_3D ( 'NONE', #102, #509, #55 ) ;
#16 = EDGE_CURVE ( 'NONE', #22, #237, #214, .T. ) ;
#17 = LINE ( 'NONE', #482, #638 ) ;
#18 = DIRECTION ( 'NONE',  ( -0.8660254037844384856, -0.5000000000000001110, 0.000000000000000000 ) ) ;
#19 =( LENGTH_UNIT ( ) NAMED_UNIT ( * ) SI_UNIT ( .CENTI., .METRE. ) );
#20 = CARTESIAN_POINT ( 'NONE',  ( 14.17999999999998728, 1.400000000000000799, 0.000000000000000000 ) ) ;
#21 = CARTESIAN_POINT ( 'NONE',  ( 13.97999999999998622, 0.5999999999999973133, 2.193668360938501039 ) ) ;
#22 = VERTEX_POINT ( 'NONE', #366 ) ;
#23 = VECTOR ( 'NONE', #211, 100.0000000000000000 ) ;
#24 = DIRECTION ( 'NONE',  ( 0.000000000000000000, 0.000000000000000000, -1.000000000000000000 ) ) ;
#25 = EDGE_CURVE ( 'NONE', #463, #581, #4, .T. ) ;
#26 = FACE_OUTER_BOUND ( 'NONE', #317, .T. ) ;
#27 = ORIENTED_EDGE ( 'NONE', *, *, #443, .F. ) ;
#28 = PRODUCT_DEFINITION ( 'UNKNOWN', '', #413, #46 ) ;
#29 = DIRECTION ( 'NONE',  ( 0.000000000000000000, 0.000000000000000000, -1.000000000000000000 ) ) ;
#30 = CARTESIAN_POINT ( 'NONE',  ( 13.97999999999998622, 0.000000000000000000, 0.000000000000000000 ) ) ;
#31 = VERTEX_POINT ( 'NONE', #520 ) ;
#32 = DIRECTION ( 'NONE',  ( -0.8660254037844363761, -0.5000000000000039968, 0.000000000000000000 ) ) ;
#33 = ORIENTED_EDGE ( 'NONE', *, *, #512, .F. ) ;
#34 = ORIENTED_EDGE ( 'NONE', *, *, #215, .F. ) ;
#35 = UNCERTAINTY_MEASURE_WITH_UNIT (LENGTH_MEASURE( 1.000000000000000082E-05 ), #19, 'distance_accuracy_value', 'NONE');
#36 = CARTESIAN_POINT ( 'NONE',  ( 0.000000000000000000, 0.6000000000000007550, 2.193668360938501039 ) ) ;
#37 = ADVANCED_FACE ( 'NONE', ( #319 ), #419, .T. ) ;
#38 = VECTOR ( 'NONE', #32, 100.0000000000000000 ) ;
#39 = CARTESIAN_POINT ( 'NONE',  ( -6.938893903907228378E-15, 2.695000000000000284, 0.1825000000000000233 ) ) ;
#40 = AXIS2_PLACEMENT_3D ( 'NONE', #511, #100, #352 ) ;
#41 = ORIENTED_EDGE ( 'NONE', *, *, #196, .F. ) ;
#42 = CARTESIAN_POINT ( 'NONE',  ( -6.938893903907228378E-15, 0.6000000000000007550, 0.000000000000000000 ) ) ;
#43 = LINE ( 'NONE', #557, #155 ) ;
#44 = EDGE_LOOP ( 'NONE', ( #635, #117, #50, #341 ) ) ;
#45 = CARTESIAN_POINT ( 'NONE',  ( 0.000000000000000000, 0.6000000000000007550, 2.193668360938501039 ) ) ;
#46 = PRODUCT_DEFINITION_CONTEXT ( 'detailed design', #222, 'design' ) ;
#47 = ORIENTED_EDGE ( 'NONE', *, *, #443, .T. ) ;
#48 = LINE ( 'NONE', #144, #14 ) ;
#49 = AXIS2_PLACEMENT_3D ( 'NONE', #574, #622, #541 ) ;
#50 = ORIENTED_EDGE ( 'NONE', *, *, #106, .F. ) ;
#51 = EDGE_CURVE ( 'NONE', #503, #84, #164, .T. ) ;
#52 = PLANE ( 'NONE',  #493 ) ;
#53 = EDGE_LOOP ( 'NONE', ( #337, #275, #587, #156 ) ) ;
#54 = LINE ( 'NONE', #523, #592 ) ;
#55 = DIRECTION ( 'NONE',  ( 0.8660254037844361541, -0.5000000000000042188, 0.000000000000000000 ) ) ;
#56 = FACE_OUTER_BOUND ( 'NONE', #122, .T. ) ;
#57 = CARTESIAN_POINT ( 'NONE',  ( 13.97999999999998622, 1.400000000000000799, 0.5000000000000000000 ) ) ;
#58 = CARTESIAN_POINT ( 'NONE',  ( -6.938893903907228378E-15, 2.695000000000000728, 0.000000000000000000 ) ) ;
#59 = LINE ( 'NONE', #475, #274 ) ;
#60 = EDGE_CURVE ( 'NONE', #518, #572, #423, .T. ) ;
#61 = ORIENTED_EDGE ( 'NONE', *, *, #376, .F. ) ;
#62 = VECTOR ( 'NONE', #183, 100.0000000000000000 ) ;
#63 = VERTEX_POINT ( 'NONE', #180 ) ;
#64 = VECTOR ( 'NONE', #287, 100.0000000000000000 ) ;
#65 = DIRECTION ( 'NONE',  ( 0.000000000000000000, 1.000000000000000000, -0.000000000000000000 ) ) ;
#66 = ORIENTED_EDGE ( 'NONE', *, *, #387, .T. ) ;
#67 = EDGE_LOOP ( 'NONE', ( #266, #584, #596, #450, #197, #10, #285, #442, #185, #34, #151, #294, #9, #66, #47, #335 ) ) ;
#68 = LINE ( 'NONE', #314, #529 ) ;
#69 = ADVANCED_FACE ( 'NONE', ( #530 ), #232, .F. ) ;
#70 = ORIENTED_EDGE ( 'NONE', *, *, #478, .T. ) ;
#71 = CARTESIAN_POINT ( 'NONE',  ( 13.97999999999998622, 2.365000000000001101, 0.1825000000000000233 ) ) ;
#72 = CARTESIAN_POINT ( 'NONE',  ( 14.17999999999998728, 1.400000000000000799, 0.5000000000000000000 ) ) ;
#73 = EDGE_LOOP ( 'NONE', ( #538, #473, #7, #373 ) ) ;
#74 = VECTOR ( 'NONE', #555, 100.0000000000000000 ) ;
#75 = VECTOR ( 'NONE', #519, 100.0000000000000000 ) ;
#76 = PLANE ( 'NONE',  #449 ) ;
#77 = VERTEX_POINT ( 'NONE', #30 ) ;
#78 = PLANE ( 'NONE',  #316 ) ;
#79 = PLANE ( 'NONE',  #626 ) ;
#80 = VERTEX_POINT ( 'NONE', #537 ) ;
#81 = EDGE_CURVE ( 'NONE', #279, #648, #129, .T. ) ;
#82 = CARTESIAN_POINT ( 'NONE',  ( 14.77999999999998693, 0.2535898384862212973, 0.000000000000000000 ) ) ;
#83 = ADVANCED_FACE ( 'NONE', ( #426 ), #534, .F. ) ;
#84 = VERTEX_POINT ( 'NONE', #172 ) ;
#85 = CARTESIAN_POINT ( 'NONE',  ( 14.77999999999998693, 0.2535898384862212973, 2.193668360938501039 ) ) ;
#86 = ORIENTED_EDGE ( 'NONE', *, *, #445, .T. ) ;
#87 = LINE ( 'NONE', #139, #176 ) ;
#88 = CARTESIAN_POINT ( 'NONE',  ( -6.938893903907228378E-15, 2.695000000000000728, 0.000000000000000000 ) ) ;
#89 = ADVANCED_FACE ( 'NONE', ( #428 ), #577, .F. ) ;
#90 = EDGE_LOOP ( 'NONE', ( #504, #2, #302, #545, #299, #114 ) ) ;
#91 = ADVANCED_BREP_SHAPE_REPRESENTATION ( 'connector-edge', ( #487, #40 ), #186 ) ;
#92 = CARTESIAN_POINT ( 'NONE',  ( 0.000000000000000000, 0.6000000000000007550, 0.000000000000000000 ) ) ;
#93 = PLANE ( 'NONE',  #109 ) ;
#94 = ORIENTED_EDGE ( 'NONE', *, *, #267, .F. ) ;
#95 = ORIENTED_EDGE ( 'NONE', *, *, #620, .F. ) ;
#96 = CARTESIAN_POINT ( 'NONE',  ( 13.97999999999998622, 2.694999999999999396, 0.1825000000000000233 ) ) ;
#97 = AXIS2_PLACEMENT_3D ( 'NONE', #313, #471, #616 ) ;
#98 = CARTESIAN_POINT ( 'NONE',  ( -6.938893903907228378E-15, 2.695000000000000728, 0.000000000000000000 ) ) ;
#99 = VECTOR ( 'NONE', #280, 100.0000000000000000 ) ;
#100 = DIRECTION ( 'NONE',  ( 0.000000000000000000, 1.000000000000000000, -0.000000000000000000 ) ) ;
#101 = ORIENTED_EDGE ( 'NONE', *, *, #546, .T. ) ;
#102 = CARTESIAN_POINT ( 'NONE',  ( -0.2000000000000001776, 1.400000000000000799, 2.193668360938501039 ) ) ;
#103 = LINE ( 'NONE', #245, #219 ) ;
#104 = CARTESIAN_POINT ( 'NONE',  ( 13.97999999999998622, 0.5999999999999973133, 0.5000000000000000000 ) ) ;
#105 =( NAMED_UNIT ( * ) SI_UNIT ( $, .STERADIAN. ) SOLID_ANGLE_UNIT ( ) );
#106 = EDGE_CURVE ( 'NONE', #340, #535, #382, .T. ) ;
#107 = DIRECTION ( 'NONE',  ( 0.000000000000000000, 0.000000000000000000, -1.000000000000000000 ) ) ;
#108 = LINE ( 'NONE', #318, #23 ) ;
#109 = AXIS2_PLACEMENT_3D ( 'NONE', #98, #401, #645 ) ;
#110 = VECTOR ( 'NONE', #107, 100.0000000000000000 ) ;
#111 = DIRECTION ( 'NONE',  ( 0.000000000000000000, 0.000000000000000000, -1.000000000000000000 ) ) ;
#112 = ORIENTED_EDGE ( 'NONE', *, *, #204, .F. ) ;
#113 =( NAMED_UNIT ( * ) PLANE_ANGLE_UNIT ( ) SI_UNIT ( $, .RADIAN. ) );
#114 = ORIENTED_EDGE ( 'NONE', *, *, #290, .T. ) ;
#115 = FACE_OUTER_BOUND ( 'NONE', #1, .T. ) ;
#116 = COLOUR_RGB ( '',0.7921568627450980005, 0.8196078431372548767, 0.9333333333333333481 ) ;
#117 = ORIENTED_EDGE ( 'NONE', *, *, #264, .T. ) ;
#118 = CARTESIAN_POINT ( 'NONE',  ( 14.77999999999998693, 0.2535898384862212973, 0.5000000000000000000 ) ) ;
#119 = DIRECTION ( 'NONE',  ( -0.000000000000000000, -0.000000000000000000, 1.000000000000000000 ) ) ;
#120 = CARTESIAN_POINT ( 'NONE',  ( -0.2000000000000001776, 1.400000000000000799, 0.000000000000000000 ) ) ;
#121 = EDGE_CURVE ( 'NONE', #330, #145, #283, .T. ) ;
#122 = EDGE_LOOP ( 'NONE', ( #33, #392, #564, #201 ) ) ;
#123 = PRESENTATION_STYLE_ASSIGNMENT (( #227 ) ) ;
#124 = MECHANICAL_DESIGN_GEOMETRIC_PRESENTATION_REPRESENTATION (  '', ( #469 ), #462 ) ;
#125 = ADVANCED_FACE ( 'NONE', ( #527 ), #76, .T. ) ;
#126 = ORIENTED_EDGE ( 'NONE', *, *, #60, .F. ) ;
#127 = ADVANCED_FACE ( 'NONE', ( #26 ), #79, .T. ) ;
#128 = CARTESIAN_POINT ( 'NONE',  ( 14.17999999999998728, 0.5999999999999973133, 0.000000000000000000 ) ) ;
#129 = LINE ( 'NONE', #586, #5 ) ;
#130 = ORIENTED_EDGE ( 'NONE', *, *, #51, .F. ) ;
#131 = DIRECTION ( 'NONE',  ( 0.000000000000000000, -1.000000000000000000, 0.000000000000000000 ) ) ;
#132 = DIRECTION ( 'NONE',  ( 0.8660254037844384856, -0.5000000000000002220, 0.000000000000000000 ) ) ;
#133 = ORIENTED_EDGE ( 'NONE', *, *, #396, .T. ) ;
#134 = VECTOR ( 'NONE', #187, 100.0000000000000000 ) ;
#135 = LINE ( 'NONE', #636, #134 ) ;
#136 = DIRECTION ( 'NONE',  ( 1.000000000000000000, 0.000000000000000000, 0.000000000000000000 ) ) ;
#137 = EDGE_CURVE ( 'NONE', #181, #31, #177, .T. ) ;
#138 = ORIENTED_EDGE ( 'NONE', *, *, #355, .F. ) ;
#139 = CARTESIAN_POINT ( 'NONE',  ( 13.97999999999999332, 2.694999999999999396, 0.5000000000000000000 ) ) ;
#140 = FACE_OUTER_BOUND ( 'NONE', #548, .T. ) ;
#141 = ORIENTED_EDGE ( 'NONE', *, *, #150, .F. ) ;
#142 = VERTEX_POINT ( 'NONE', #386 ) ;
#143 = FACE_OUTER_BOUND ( 'NONE', #44, .T. ) ;
#144 = CARTESIAN_POINT ( 'NONE',  ( -0.8000000000000007105, 0.2535898384862212973, 2.193668360938501039 ) ) ;
#145 = VERTEX_POINT ( 'NONE', #583 ) ;
#146 = DIRECTION ( 'NONE',  ( 0.000000000000000000, -1.000000000000000000, 0.000000000000000000 ) ) ;
#147 = AXIS2_PLACEMENT_3D ( 'NONE', #560, #12, #206 ) ;
#148 = ORIENTED_EDGE ( 'NONE', *, *, #431, .F. ) ;
#149 = EDGE_CURVE ( 'NONE', #581, #503, #288, .T. ) ;
#150 = EDGE_CURVE ( 'NONE', #600, #84, #441, .T. ) ;
#151 = ORIENTED_EDGE ( 'NONE', *, *, #81, .T. ) ;
#152 = LINE ( 'NONE', #268, #347 ) ;
#153 = ORIENTED_EDGE ( 'NONE', *, *, #315, .F. ) ;
#154 = CARTESIAN_POINT ( 'NONE',  ( -0.8000000000000007105, 1.746410161513780368, 0.000000000000000000 ) ) ;
#155 = VECTOR ( 'NONE', #247, 100.0000000000000000 ) ;
#156 = ORIENTED_EDGE ( 'NONE', *, *, #478, .F. ) ;
#157 = EDGE_CURVE ( 'NONE', #600, #22, #321, .T. ) ;
#158 = LINE ( 'NONE', #362, #568 ) ;
#159 = ORIENTED_EDGE ( 'NONE', *, *, #121, .F. ) ;
#160 = ORIENTED_EDGE ( 'NONE', *, *, #25, .T. ) ;
#161 = DIRECTION ( 'NONE',  ( -0.000000000000000000, -0.000000000000000000, 1.000000000000000000 ) ) ;
#162 = ORIENTED_EDGE ( 'NONE', *, *, #16, .F. ) ;
#163 = CARTESIAN_POINT ( 'NONE',  ( 0.000000000000000000, 1.400000000000000799, 2.193668360938501039 ) ) ;
#164 = LINE ( 'NONE', #525, #567 ) ;
#165 = VECTOR ( 'NONE', #571, 100.0000000000000000 ) ;
#166 = VECTOR ( 'NONE', #588, 100.0000000000000000 ) ;
#167 = CARTESIAN_POINT ( 'NONE',  ( 13.97999999999998622, 1.400000000000000799, 2.193668360938501039 ) ) ;
#168 = ADVANCED_FACE ( 'NONE', ( #224 ), #647, .F. ) ;
#169 = CARTESIAN_POINT ( 'NONE',  ( 0.000000000000000000, 0.000000000000000000, 0.000000000000000000 ) ) ;
#170 = APPLICATION_CONTEXT ( 'automotive_design' ) ;
#171 = CARTESIAN_POINT ( 'NONE',  ( -0.2000000000000001776, 0.6000000000000007550, 2.193668360938501039 ) ) ;
#172 = CARTESIAN_POINT ( 'NONE',  ( 14.77999999999998693, 1.746410161513777037, 0.000000000000000000 ) ) ;
#173 = VERTEX_POINT ( 'NONE', #39 ) ;
#174 = EDGE_CURVE ( 'NONE', #142, #628, #43, .T. ) ;
#175 = VECTOR ( 'NONE', #324, 100.0000000000000000 ) ;
#176 = VECTOR ( 'NONE', #440, 100.0000000000000000 ) ;
#177 = LINE ( 'NONE', #438, #521 ) ;
#178 = ORIENTED_EDGE ( 'NONE', *, *, #248, .F. ) ;
#179 = FACE_OUTER_BOUND ( 'NONE', #566, .T. ) ;
#180 = CARTESIAN_POINT ( 'NONE',  ( -0.8000000000000007105, 1.746410161513780368, 0.5000000000000000000 ) ) ;
#181 = VERTEX_POINT ( 'NONE', #240 ) ;
#182 = CARTESIAN_POINT ( 'NONE',  ( 6.989999999999993108, 1.000000000000000000, 0.5000000000000000000 ) ) ;
#183 = DIRECTION ( 'NONE',  ( 0.000000000000000000, 0.000000000000000000, -1.000000000000000000 ) ) ;
#184 = CARTESIAN_POINT ( 'NONE',  ( -0.2000000000000001776, 1.400000000000000799, 0.5000000000000000000 ) ) ;
#185 = ORIENTED_EDGE ( 'NONE', *, *, #217, .F. ) ;
#186 =( GEOMETRIC_REPRESENTATION_CONTEXT ( 3 ) GLOBAL_UNCERTAINTY_ASSIGNED_CONTEXT ( ( #452 ) ) GLOBAL_UNIT_ASSIGNED_CONTEXT ( ( #236, #301, #105 ) ) REPRESENTATION_CONTEXT ( 'NONE', 'WORKASPACE' ) );
#187 = DIRECTION ( 'NONE',  ( 0.000000000000000000, 0.000000000000000000, 1.000000000000000000 ) ) ;
#188 = CARTESIAN_POINT ( 'NONE',  ( 14.17999999999998728, 0.5999999999999973133, 0.000000000000000000 ) ) ;
#189 = EDGE_CURVE ( 'NONE', #279, #330, #544, .T. ) ;
#190 = EDGE_LOOP ( 'NONE', ( #607, #194, #350, #640 ) ) ;
#191 = ORIENTED_EDGE ( 'NONE', *, *, #484, .F. ) ;
#192 = CARTESIAN_POINT ( 'NONE',  ( 14.77999999999998693, 0.2535898384862212973, 0.5000000000000000000 ) ) ;
#193 = DIRECTION ( 'NONE',  ( 0.000000000000000000, 1.000000000000000000, 0.000000000000000000 ) ) ;
#194 = ORIENTED_EDGE ( 'NONE', *, *, #546, .F. ) ;
#195 = LINE ( 'NONE', #551, #74 ) ;
#196 = EDGE_CURVE ( 'NONE', #251, #518, #498, .T. ) ;
#197 = ORIENTED_EDGE ( 'NONE', *, *, #276, .T. ) ;
#198 = EDGE_CURVE ( 'NONE', #251, #233, #603, .T. ) ;
#199 = AXIS2_PLACEMENT_3D ( 'NONE', #169, #619, #385 ) ;
#200 = LINE ( 'NONE', #45, #610 ) ;
#201 = ORIENTED_EDGE ( 'NONE', *, *, #389, .T. ) ;
#202 = ORIENTED_EDGE ( 'NONE', *, *, #51, .T. ) ;
#203 = PLANE ( 'NONE',  #542 ) ;
#204 = EDGE_CURVE ( 'NONE', #628, #575, #200, .T. ) ;
#205 = ORIENTED_EDGE ( 'NONE', *, *, #189, .F. ) ;
#206 = DIRECTION ( 'NONE',  ( 0.000000000000000000, 1.000000000000000000, -0.000000000000000000 ) ) ;
#207 = LINE ( 'NONE', #92, #602 ) ;
#208 = DIRECTION ( 'NONE',  ( -0.8660254037844361541, 0.5000000000000042188, 0.000000000000000000 ) ) ;
#209 = CARTESIAN_POINT ( 'NONE',  ( 13.97999999999999332, 2.694999999999999396, 0.000000000000000000 ) ) ;
#210 = PRESENTATION_LAYER_ASSIGNMENT (  '', '', ( #469 ) ) ;
#211 = DIRECTION ( 'NONE',  ( -0.000000000000000000, -0.000000000000000000, 1.000000000000000000 ) ) ;
#212 = ORIENTED_EDGE ( 'NONE', *, *, #273, .F. ) ;
#213 = FACE_OUTER_BOUND ( 'NONE', #73, .T. ) ;
#214 = LINE ( 'NONE', #57, #165 ) ;
#215 = EDGE_CURVE ( 'NONE', #279, #80, #598, .T. ) ;
#216 = FACE_OUTER_BOUND ( 'NONE', #53, .T. ) ;
#217 = EDGE_CURVE ( 'NONE', #80, #31, #103, .T. ) ;
#218 = DIRECTION ( 'NONE',  ( -0.8660254037844384856, 0.5000000000000002220, 0.000000000000000000 ) ) ;
#219 = VECTOR ( 'NONE', #300, 100.0000000000000000 ) ;
#220 = VECTOR ( 'NONE', #353, 100.0000000000000000 ) ;
#221 = ORIENTED_EDGE ( 'NONE', *, *, #174, .T. ) ;
#222 = APPLICATION_CONTEXT ( 'automotive_design' ) ;
#223 = LINE ( 'NONE', #82, #286 ) ;
#224 = FACE_OUTER_BOUND ( 'NONE', #307, .T. ) ;
#225 = DIRECTION ( 'NONE',  ( -1.000000000000000000, -2.481721710982557527E-16, 0.000000000000000000 ) ) ;
#226 = EDGE_CURVE ( 'NONE', #262, #371, #48, .T. ) ;
#227 = SURFACE_STYLE_USAGE ( .BOTH. , #621 ) ;
#228 = DIRECTION ( 'NONE',  ( -1.000000000000000000, 0.000000000000000000, 0.000000000000000000 ) ) ;
#229 = VECTOR ( 'NONE', #351, 100.0000000000000000 ) ;
#230 = ORIENTED_EDGE ( 'NONE', *, *, #106, .T. ) ;
#231 = DIRECTION ( 'NONE',  ( 1.000000000000000000, 0.000000000000000000, 0.000000000000000000 ) ) ;
#232 = PLANE ( 'NONE',  #412 ) ;
#233 = VERTEX_POINT ( 'NONE', #457 ) ;
#234 = CARTESIAN_POINT ( 'NONE',  ( -0.2000000000000001776, 1.400000000000000799, 0.000000000000000000 ) ) ;
#235 = DIRECTION ( 'NONE',  ( 1.000000000000000000, 0.000000000000000000, -0.000000000000000000 ) ) ;
#236 =( LENGTH_UNIT ( ) NAMED_UNIT ( * ) SI_UNIT ( .CENTI., .METRE. ) );
#237 = VERTEX_POINT ( 'NONE', #514 ) ;
#238 = EDGE_CURVE ( 'NONE', #257, #371, #454, .T. ) ;
#239 = FACE_OUTER_BOUND ( 'NONE', #67, .T. ) ;
#240 = CARTESIAN_POINT ( 'NONE',  ( 13.97999999999998622, 2.365000000000001101, 0.1825000000000000233 ) ) ;
#241 = ORIENTED_EDGE ( 'NONE', *, *, #149, .F. ) ;
#242 = ORIENTED_EDGE ( 'NONE', *, *, #198, .T. ) ;
#243 = VECTOR ( 'NONE', #131, 100.0000000000000000 ) ;
#244 = DIRECTION ( 'NONE',  ( -1.000000000000000000, 0.000000000000000000, 0.000000000000000000 ) ) ;
#245 = CARTESIAN_POINT ( 'NONE',  ( -6.938893903907228378E-15, 2.364999999999997549, 0.5000000000000000000 ) ) ;
#246 = DIRECTION ( 'NONE',  ( -0.000000000000000000, -1.000000000000000000, 0.000000000000000000 ) ) ;
#247 = DIRECTION ( 'NONE',  ( 0.000000000000000000, 1.000000000000000000, 0.000000000000000000 ) ) ;
#248 = EDGE_CURVE ( 'NONE', #173, #543, #637, .T. ) ;
#249 = ORIENTED_EDGE ( 'NONE', *, *, #599, .T. ) ;
#250 = CARTESIAN_POINT ( 'NONE',  ( 13.97999999999998622, 1.400000000000000799, 2.193668360938501039 ) ) ;
#251 = VERTEX_POINT ( 'NONE', #595 ) ;
#252 = VECTOR ( 'NONE', #136, 100.0000000000000000 ) ;
#253 = CARTESIAN_POINT ( 'NONE',  ( 13.97999999999999332, 2.694999999999999396, 0.1825000000000000233 ) ) ;
#254 = VERTEX_POINT ( 'NONE', #188 ) ;
#255 = ADVANCED_FACE ( 'NONE', ( #140 ), #93, .F. ) ;
#256 = LINE ( 'NONE', #606, #75 ) ;
#257 = VERTEX_POINT ( 'NONE', #459 ) ;
#258 = PLANE ( 'NONE',  #618 ) ;
#259 = CARTESIAN_POINT ( 'NONE',  ( 14.17999999999998728, 1.400000000000000799, 2.193668360938501039 ) ) ;
#260 = VERTEX_POINT ( 'NONE', #293 ) ;
#261 = LINE ( 'NONE', #563, #434 ) ;
#262 = VERTEX_POINT ( 'NONE', #502 ) ;
#263 = VECTOR ( 'NONE', #345, 100.0000000000000000 ) ;
#264 = EDGE_CURVE ( 'NONE', #648, #535, #195, .T. ) ;
#265 = FACE_OUTER_BOUND ( 'NONE', #400, .T. ) ;
#266 = ORIENTED_EDGE ( 'NONE', *, *, #398, .T. ) ;
#267 = EDGE_CURVE ( 'NONE', #237, #581, #510, .T. ) ;
#268 = CARTESIAN_POINT ( 'NONE',  ( -0.2000000000000001776, 1.400000000000000799, 0.5000000000000000000 ) ) ;
#269 = DIRECTION ( 'NONE',  ( 0.8660254037844384856, 0.5000000000000001110, -0.000000000000000000 ) ) ;
#270 = DIRECTION ( 'NONE',  ( -0.8660254037844363761, -0.5000000000000039968, 0.000000000000000000 ) ) ;
#271 = DIRECTION ( 'NONE',  ( -1.000000000000000000, 1.240860855491278517E-16, 0.000000000000000000 ) ) ;
#272 = CARTESIAN_POINT ( 'NONE',  ( 6.989999999999993108, 1.000000000000000000, 0.1825000000000000233 ) ) ;
#273 = EDGE_CURVE ( 'NONE', #371, #340, #59, .T. ) ;
#274 = VECTOR ( 'NONE', #65, 100.0000000000000000 ) ;
#275 = ORIENTED_EDGE ( 'NONE', *, *, #226, .T. ) ;
#276 = EDGE_CURVE ( 'NONE', #572, #600, #613, .T. ) ;
#277 = LINE ( 'NONE', #573, #64 ) ;
#278 = CARTESIAN_POINT ( 'NONE',  ( 14.17999999999998728, 0.5999999999999973133, 0.5000000000000000000 ) ) ;
#279 = VERTEX_POINT ( 'NONE', #615 ) ;
#280 = DIRECTION ( 'NONE',  ( 0.000000000000000000, -1.000000000000000000, 0.000000000000000000 ) ) ;
#281 = ORIENTED_EDGE ( 'NONE', *, *, #273, .T. ) ;
#282 = DIRECTION ( 'NONE',  ( -0.5000000000000003331, -0.8660254037844385966, 0.000000000000000000 ) ) ;
#283 = LINE ( 'NONE', #488, #175 ) ;
#284 = VECTOR ( 'NONE', #132, 100.0000000000000000 ) ;
#285 = ORIENTED_EDGE ( 'NONE', *, *, #16, .T. ) ;
#286 = VECTOR ( 'NONE', #624, 100.0000000000000000 ) ;
#287 = DIRECTION ( 'NONE',  ( 1.000000000000000000, 0.000000000000000000, -0.000000000000000000 ) ) ;
#288 = LINE ( 'NONE', #495, #540 ) ;
#289 = CARTESIAN_POINT ( 'NONE',  ( 14.77999999999998693, 0.2535898384862212973, 2.193668360938501039 ) ) ;
#290 = EDGE_CURVE ( 'NONE', #463, #543, #368, .T. ) ;
#291 = ORIENTED_EDGE ( 'NONE', *, *, #517, .T. ) ;
#292 = ORIENTED_EDGE ( 'NONE', *, *, #121, .T. ) ;
#293 = CARTESIAN_POINT ( 'NONE',  ( 14.77999999999998693, 0.2535898384862212973, 0.000000000000000000 ) ) ;
#294 = ORIENTED_EDGE ( 'NONE', *, *, #364, .T. ) ;
#295 = ORIENTED_EDGE ( 'NONE', *, *, #226, .F. ) ;
#296 = AXIS2_PLACEMENT_3D ( 'NONE', #526, #629, #271 ) ;
#297 = DIRECTION ( 'NONE',  ( 0.000000000000000000, -1.000000000000000000, 0.000000000000000000 ) ) ;
#298 = ADVANCED_FACE ( 'NONE', ( #213 ), #52, .T. ) ;
#299 = ORIENTED_EDGE ( 'NONE', *, *, #25, .F. ) ;
#300 = DIRECTION ( 'NONE',  ( 1.000000000000000000, 2.481721710982557527E-16, -0.000000000000000000 ) ) ;
#301 =( NAMED_UNIT ( * ) PLANE_ANGLE_UNIT ( ) SI_UNIT ( $, .RADIAN. ) );
#302 = ORIENTED_EDGE ( 'NONE', *, *, #489, .T. ) ;
#303 = CARTESIAN_POINT ( 'NONE',  ( -6.938893903907228378E-15, 2.695000000000000728, 0.5000000000000000000 ) ) ;
#304 = SHAPE_DEFINITION_REPRESENTATION ( #370, #91 ) ;
#305 = CLOSED_SHELL ( 'NONE', ( #333, #168, #37, #532, #255, #425, #89, #298, #578, #605, #623, #561, #127, #415, #125, #342, #436, #69, #83, #406 ) ) ;
#306 = DIRECTION ( 'NONE',  ( -1.000000000000000000, 0.000000000000000000, 0.000000000000000000 ) ) ;
#307 = EDGE_LOOP ( 'NONE', ( #101, #221, #375, #559 ) ) ;
#308 = CARTESIAN_POINT ( 'NONE',  ( -0.2000000000000001776, 0.6000000000000007550, 0.5000000000000000000 ) ) ;
#309 = ORIENTED_EDGE ( 'NONE', *, *, #248, .T. ) ;
#310 = CARTESIAN_POINT ( 'NONE',  ( -6.938893903907228378E-15, 0.6000000000000007550, 0.5000000000000000000 ) ) ;
#311 = LINE ( 'NONE', #58, #220 ) ;
#312 = PLANE ( 'NONE',  #383 ) ;
#313 = CARTESIAN_POINT ( 'NONE',  ( 6.989999999999993108, 1.000000000000000000, 0.000000000000000000 ) ) ;
#314 = CARTESIAN_POINT ( 'NONE',  ( 14.17999999999998728, 0.5999999999999973133, 2.193668360938501039 ) ) ;
#315 = EDGE_CURVE ( 'NONE', #458, #80, #108, .T. ) ;
#316 = AXIS2_PLACEMENT_3D ( 'NONE', #167, #390, #486 ) ;
#317 = EDGE_LOOP ( 'NONE', ( #41, #242, #609, #61 ) ) ;
#318 = CARTESIAN_POINT ( 'NONE',  ( -6.938893903907228378E-15, 2.364999999999997549, 0.1825000000000000233 ) ) ;
#319 = FACE_OUTER_BOUND ( 'NONE', #499, .T. ) ;
#320 = CARTESIAN_POINT ( 'NONE',  ( 13.97999999999999332, 2.694999999999999396, 0.000000000000000000 ) ) ;
#321 = LINE ( 'NONE', #72, #433 ) ;
#322 = EDGE_CURVE ( 'NONE', #535, #330, #256, .T. ) ;
#323 = FACE_OUTER_BOUND ( 'NONE', #190, .T. ) ;
#324 = DIRECTION ( 'NONE',  ( 0.000000000000000000, 1.000000000000000000, 0.000000000000000000 ) ) ;
#325 = VECTOR ( 'NONE', #614, 100.0000000000000000 ) ;
#326 = LINE ( 'NONE', #491, #505 ) ;
#327 = DIRECTION ( 'NONE',  ( 0.000000000000000000, -1.000000000000000000, 0.000000000000000000 ) ) ;
#328 = ORIENTED_EDGE ( 'NONE', *, *, #620, .T. ) ;
#329 = LINE ( 'NONE', #171, #451 ) ;
#330 = VERTEX_POINT ( 'NONE', #524 ) ;
#331 = DIRECTION ( 'NONE',  ( 0.000000000000000000, -1.000000000000000000, 0.000000000000000000 ) ) ;
#332 = DIRECTION ( 'NONE',  ( 0.000000000000000000, 1.000000000000000000, 0.000000000000000000 ) ) ;
#333 = ADVANCED_FACE ( 'NONE', ( #56 ), #312, .F. ) ;
#334 = AXIS2_PLACEMENT_3D ( 'NONE', #88, #404, #146 ) ;
#335 = ORIENTED_EDGE ( 'NONE', *, *, #174, .F. ) ;
#336 = CARTESIAN_POINT ( 'NONE',  ( 13.97999999999998622, 0.5999999999999973133, 2.193668360938501039 ) ) ;
#337 = ORIENTED_EDGE ( 'NONE', *, *, #387, .F. ) ;
#338 =( NAMED_UNIT ( * ) SI_UNIT ( $, .STERADIAN. ) SOLID_ANGLE_UNIT ( ) );
#339 = CARTESIAN_POINT ( 'NONE',  ( -0.2000000000000001776, 0.6000000000000007550, 0.000000000000000000 ) ) ;
#340 = VERTEX_POINT ( 'NONE', #154 ) ;
#341 = ORIENTED_EDGE ( 'NONE', *, *, #599, .F. ) ;
#342 = ADVANCED_FACE ( 'NONE', ( #265 ), #203, .T. ) ;
#343 = CARTESIAN_POINT ( 'NONE',  ( 13.97999999999999332, 2.694999999999999396, 0.000000000000000000 ) ) ;
#344 = DIRECTION ( 'NONE',  ( 1.000000000000000000, -1.240860855491278517E-16, 0.000000000000000000 ) ) ;
#345 = DIRECTION ( 'NONE',  ( 0.000000000000000000, 0.000000000000000000, -1.000000000000000000 ) ) ;
#346 = ORIENTED_EDGE ( 'NONE', *, *, #238, .T. ) ;
#347 = VECTOR ( 'NONE', #208, 100.0000000000000000 ) ;
#348 = DIRECTION ( 'NONE',  ( -1.000000000000000000, 0.000000000000000000, 0.000000000000000000 ) ) ;
#349 = DIRECTION ( 'NONE',  ( 0.000000000000000000, 0.000000000000000000, -1.000000000000000000 ) ) ;
#350 = ORIENTED_EDGE ( 'NONE', *, *, #355, .T. ) ;
#351 = DIRECTION ( 'NONE',  ( 0.000000000000000000, 0.000000000000000000, -1.000000000000000000 ) ) ;
#352 = DIRECTION ( 'NONE',  ( 1.000000000000000000, 0.000000000000000000, -0.000000000000000000 ) ) ;
#353 = DIRECTION ( 'NONE',  ( 0.000000000000000000, 1.000000000000000000, 0.000000000000000000 ) ) ;
#354 = CARTESIAN_POINT ( 'NONE',  ( -0.8000000000000007105, 0.2535898384862212973, 0.000000000000000000 ) ) ;
#355 = EDGE_CURVE ( 'NONE', #593, #77, #261, .T. ) ;
#356 = ORIENTED_EDGE ( 'NONE', *, *, #466, .T. ) ;
#357 = VECTOR ( 'NONE', #193, 100.0000000000000000 ) ;
#358 = VECTOR ( 'NONE', #331, 100.0000000000000000 ) ;
#359 = DIRECTION ( 'NONE',  ( 0.8660254037844384856, 0.5000000000000001110, -0.000000000000000000 ) ) ;
#360 = ORIENTED_EDGE ( 'NONE', *, *, #643, .T. ) ;
#361 = CARTESIAN_POINT ( 'NONE',  ( -0.2000000000000001776, 0.6000000000000007550, 2.193668360938501039 ) ) ;
#362 = CARTESIAN_POINT ( 'NONE',  ( -0.2000000000000001776, 0.6000000000000007550, 0.5000000000000000000 ) ) ;
#363 = ORIENTED_EDGE ( 'NONE', *, *, #8, .F. ) ;
#364 = EDGE_CURVE ( 'NONE', #648, #63, #152, .T. ) ;
#365 = DIRECTION ( 'NONE',  ( 1.000000000000000000, 0.000000000000000000, -0.000000000000000000 ) ) ;
#366 = CARTESIAN_POINT ( 'NONE',  ( 14.17999999999998728, 1.400000000000000799, 0.5000000000000000000 ) ) ;
#367 = AXIS2_PLACEMENT_3D ( 'NONE', #432, #379, #225 ) ;
#368 = LINE ( 'NONE', #472, #422 ) ;
#369 = VECTOR ( 'NONE', #378, 100.0000000000000000 ) ;
#370 = PRODUCT_DEFINITION_SHAPE ( 'NONE', 'NONE',  #28 ) ;
#371 = VERTEX_POINT ( 'NONE', #354 ) ;
#372 = PLANE ( 'NONE',  #562 ) ;
#373 = ORIENTED_EDGE ( 'NONE', *, *, #264, .F. ) ;
#374 = DIRECTION ( 'NONE',  ( -0.8660254037844384856, 0.5000000000000002220, 0.000000000000000000 ) ) ;
#375 = ORIENTED_EDGE ( 'NONE', *, *, #204, .T. ) ;
#376 = EDGE_CURVE ( 'NONE', #518, #254, #68, .T. ) ;
#377 = ORIENTED_EDGE ( 'NONE', *, *, #554, .F. ) ;
#378 = DIRECTION ( 'NONE',  ( 0.000000000000000000, 1.000000000000000000, -0.000000000000000000 ) ) ;
#379 = DIRECTION ( 'NONE',  ( 2.481721710982557527E-16, -1.000000000000000000, 0.000000000000000000 ) ) ;
#380 = LINE ( 'NONE', #289, #263 ) ;
#381 = FACE_OUTER_BOUND ( 'NONE', #496, .T. ) ;
#382 = LINE ( 'NONE', #120, #617 ) ;
#383 = AXIS2_PLACEMENT_3D ( 'NONE', #409, #306, #418 ) ;
#384 = VERTEX_POINT ( 'NONE', #308 ) ;
#385 = DIRECTION ( 'NONE',  ( -1.000000000000000000, 0.000000000000000000, 0.000000000000000000 ) ) ;
#386 = CARTESIAN_POINT ( 'NONE',  ( 0.000000000000000000, 0.000000000000000000, 0.5000000000000000000 ) ) ;
#387 = EDGE_CURVE ( 'NONE', #262, #384, #158, .T. ) ;
#388 = VERTEX_POINT ( 'NONE', #6 ) ;
#389 = EDGE_CURVE ( 'NONE', #251, #388, #416, .T. ) ;
#390 = DIRECTION ( 'NONE',  ( 0.000000000000000000, 1.000000000000000000, -0.000000000000000000 ) ) ;
#391 = DIRECTION ( 'NONE',  ( -0.000000000000000000, -0.000000000000000000, 1.000000000000000000 ) ) ;
#392 = ORIENTED_EDGE ( 'NONE', *, *, #396, .F. ) ;
#393 = VECTOR ( 'NONE', #414, 100.0000000000000000 ) ;
#394 = EDGE_LOOP ( 'NONE', ( #162, #639, #241, #94 ) ) ;
#395 = AXIS2_PLACEMENT_3D ( 'NONE', #36, #297, #244 ) ;
#396 = EDGE_CURVE ( 'NONE', #233, #77, #536, .T. ) ;
#397 = DIRECTION ( 'NONE',  ( 0.000000000000000000, 0.000000000000000000, -1.000000000000000000 ) ) ;
#398 = EDGE_CURVE ( 'NONE', #142, #388, #277, .T. ) ;
#399 = ORIENTED_EDGE ( 'NONE', *, *, #376, .T. ) ;
#400 = EDGE_LOOP ( 'NONE', ( #500, #476, #130, #363 ) ) ;
#401 = DIRECTION ( 'NONE',  ( 1.000000000000000000, 0.000000000000000000, 0.000000000000000000 ) ) ;
#402 = ORIENTED_EDGE ( 'NONE', *, *, #591, .T. ) ;
#403 = VECTOR ( 'NONE', #374, 100.0000000000000284 ) ;
#404 = DIRECTION ( 'NONE',  ( 1.000000000000000000, 0.000000000000000000, 0.000000000000000000 ) ) ;
#405 = APPLICATION_PROTOCOL_DEFINITION ( 'draft international standard', 'automotive_design', 1998, #222 ) ;
#406 = ADVANCED_FACE ( 'NONE', ( #323 ), #539, .T. ) ;
#407 = DIRECTION ( 'NONE',  ( 1.000000000000000000, 0.000000000000000000, 0.000000000000000000 ) ) ;
#408 = EDGE_LOOP ( 'NONE', ( #477, #360, #631, #141 ) ) ;
#409 = CARTESIAN_POINT ( 'NONE',  ( 13.97999999999999332, 2.694999999999999396, 0.000000000000000000 ) ) ;
#410 = CARTESIAN_POINT ( 'NONE',  ( 14.77999999999998693, 1.746410161513777037, 0.5000000000000000000 ) ) ;
#411 = LINE ( 'NONE', #456, #611 ) ;
#412 = AXIS2_PLACEMENT_3D ( 'NONE', #272, #483, #332 ) ;
#413 = PRODUCT_DEFINITION_FORMATION_WITH_SPECIFIED_SOURCE ( 'ANY', '', #485, .NOT_KNOWN. ) ;
#414 = DIRECTION ( 'NONE',  ( 0.000000000000000000, -1.000000000000000000, 0.000000000000000000 ) ) ;
#415 = ADVANCED_FACE ( 'NONE', ( #381 ), #427, .T. ) ;
#416 = LINE ( 'NONE', #565, #358 ) ;
#417 = LINE ( 'NONE', #467, #325 ) ;
#418 = DIRECTION ( 'NONE',  ( 0.000000000000000000, 1.000000000000000000, -0.000000000000000000 ) ) ;
#419 = PLANE ( 'NONE',  #97 ) ;
#420 = VECTOR ( 'NONE', #349, 100.0000000000000000 ) ;
#421 = FACE_OUTER_BOUND ( 'NONE', #394, .T. ) ;
#422 = VECTOR ( 'NONE', #161, 100.0000000000000000 ) ;
#423 = LINE ( 'NONE', #278, #284 ) ;
#424 = SURFACE_STYLE_FILL_AREA ( #437 ) ;
#425 = ADVANCED_FACE ( 'NONE', ( #179 ), #11, .F. ) ;
#426 = FACE_OUTER_BOUND ( 'NONE', #439, .T. ) ;
#427 = PLANE ( 'NONE',  #649 ) ;
#428 = FACE_OUTER_BOUND ( 'NONE', #90, .T. ) ;
#429 = ORIENTED_EDGE ( 'NONE', *, *, #516, .F. ) ;
#430 = LINE ( 'NONE', #579, #243 ) ;
#431 = EDGE_CURVE ( 'NONE', #145, #173, #326, .T. ) ;
#432 = CARTESIAN_POINT ( 'NONE',  ( -6.938893903907228378E-15, 2.364999999999997549, 0.1825000000000000233 ) ) ;
#433 = VECTOR ( 'NONE', #18, 100.0000000000000142 ) ;
#434 = VECTOR ( 'NONE', #365, 100.0000000000000000 ) ;
#435 = ORIENTED_EDGE ( 'NONE', *, *, #431, .T. ) ;
#436 = ADVANCED_FACE ( 'NONE', ( #421 ), #78, .T. ) ;
#437 = FILL_AREA_STYLE ('',( #479 ) ) ;
#438 = CARTESIAN_POINT ( 'NONE',  ( 13.97999999999998622, 2.365000000000001101, 0.1825000000000000233 ) ) ;
#439 = EDGE_LOOP ( 'NONE', ( #490, #460, #95, #448 ) ) ;
#440 = DIRECTION ( 'NONE',  ( 0.000000000000000000, -1.000000000000000000, 0.000000000000000000 ) ) ;
#441 = LINE ( 'NONE', #634, #62 ) ;
#442 = ORIENTED_EDGE ( 'NONE', *, *, #489, .F. ) ;
#443 = EDGE_CURVE ( 'NONE', #384, #628, #17, .T. ) ;
#444 = DIRECTION ( 'NONE',  ( 0.000000000000000000, 1.000000000000000000, 0.000000000000000000 ) ) ;
#445 = EDGE_CURVE ( 'NONE', #260, #254, #576, .T. ) ;
#446 = DIRECTION ( 'NONE',  ( 0.000000000000000000, 0.000000000000000000, -1.000000000000000000 ) ) ;
#447 = APPLICATION_PROTOCOL_DEFINITION ( 'draft international standard', 'automotive_design', 1998, #170 ) ;
#448 = ORIENTED_EDGE ( 'NONE', *, *, #315, .T. ) ;
#449 = AXIS2_PLACEMENT_3D ( 'NONE', #85, #492, #327 ) ;
#450 = ORIENTED_EDGE ( 'NONE', *, *, #60, .T. ) ;
#451 = VECTOR ( 'NONE', #24, 100.0000000000000000 ) ;
#452 = UNCERTAINTY_MEASURE_WITH_UNIT (LENGTH_MEASURE( 1.000000000000000082E-05 ), #236, 'distance_accuracy_value', 'NONE');
#453 = LINE ( 'NONE', #506, #515 ) ;
#454 = LINE ( 'NONE', #339, #38 ) ;
#455 = EDGE_LOOP ( 'NONE', ( #27, #70, #549, #112 ) ) ;
#456 = CARTESIAN_POINT ( 'NONE',  ( -6.938893903907228378E-15, 2.364999999999997549, 0.1825000000000000233 ) ) ;
#457 = CARTESIAN_POINT ( 'NONE',  ( 13.97999999999998622, 0.5999999999999973133, 0.000000000000000000 ) ) ;
#458 = VERTEX_POINT ( 'NONE', #528 ) ;
#459 = CARTESIAN_POINT ( 'NONE',  ( -0.2000000000000001776, 0.6000000000000007550, 0.000000000000000000 ) ) ;
#460 = ORIENTED_EDGE ( 'NONE', *, *, #137, .F. ) ;
#461 = EDGE_CURVE ( 'NONE', #84, #260, #223, .T. ) ;
#462 =( GEOMETRIC_REPRESENTATION_CONTEXT ( 3 ) GLOBAL_UNCERTAINTY_ASSIGNED_CONTEXT ( ( #35 ) ) GLOBAL_UNIT_ASSIGNED_CONTEXT ( ( #19, #113, #338 ) ) REPRESENTATION_CONTEXT ( 'NONE', 'WORKASPACE' ) );
#463 = VERTEX_POINT ( 'NONE', #320 ) ;
#464 = DIRECTION ( 'NONE',  ( -0.000000000000000000, 1.000000000000000000, 0.000000000000000000 ) ) ;
#465 = CARTESIAN_POINT ( 'NONE',  ( 13.97999999999999332, 1.400000000000001021, 0.000000000000000000 ) ) ;
#466 = EDGE_CURVE ( 'NONE', #181, #543, #585, .T. ) ;
#467 = CARTESIAN_POINT ( 'NONE',  ( 14.17999999999998728, 1.400000000000000799, 2.193668360938501039 ) ) ;
#468 = DIRECTION ( 'NONE',  ( 0.5000000000000039968, -0.8660254037844363761, 0.000000000000000000 ) ) ;
#469 = STYLED_ITEM ( 'NONE', ( #123 ), #487 ) ;
#470 = DIRECTION ( 'NONE',  ( 0.8660254037844363761, 0.5000000000000039968, 0.000000000000000000 ) ) ;
#471 = DIRECTION ( 'NONE',  ( 0.000000000000000000, 0.000000000000000000, -1.000000000000000000 ) ) ;
#472 = CARTESIAN_POINT ( 'NONE',  ( 13.97999999999999332, 2.694999999999999396, 0.000000000000000000 ) ) ;
#473 = ORIENTED_EDGE ( 'NONE', *, *, #189, .T. ) ;
#474 = DIRECTION ( 'NONE',  ( 1.000000000000000000, 2.481721710982557527E-16, -0.000000000000000000 ) ) ;
#475 = CARTESIAN_POINT ( 'NONE',  ( -0.8000000000000007105, 0.2535898384862212973, 0.000000000000000000 ) ) ;
#476 = ORIENTED_EDGE ( 'NONE', *, *, #150, .T. ) ;
#477 = ORIENTED_EDGE ( 'NONE', *, *, #276, .F. ) ;
#478 = EDGE_CURVE ( 'NONE', #384, #257, #329, .T. ) ;
#479 = FILL_AREA_STYLE_COLOUR ( '', #116 ) ;
#480 = DIRECTION ( 'NONE',  ( 0.8660254037844361541, -0.5000000000000042188, 0.000000000000000000 ) ) ;
#481 = ORIENTED_EDGE ( 'NONE', *, *, #516, .T. ) ;
#482 = CARTESIAN_POINT ( 'NONE',  ( 0.000000000000000000, 0.6000000000000007550, 0.5000000000000000000 ) ) ;
#483 = DIRECTION ( 'NONE',  ( 0.000000000000000000, 0.000000000000000000, -1.000000000000000000 ) ) ;
#484 = EDGE_CURVE ( 'NONE', #63, #262, #430, .T. ) ;
#485 = PRODUCT ( 'connector-edge', 'connector-edge', '', ( #507 ) ) ;
#486 = DIRECTION ( 'NONE',  ( 1.000000000000000000, 0.000000000000000000, 0.000000000000000000 ) ) ;
#487 = MANIFOLD_SOLID_BREP ( 'Cut-Extrude2', #305 ) ;
#488 = CARTESIAN_POINT ( 'NONE',  ( -6.938893903907228378E-15, 2.695000000000000728, 0.000000000000000000 ) ) ;
#489 = EDGE_CURVE ( 'NONE', #31, #237, #87, .T. ) ;
#490 = ORIENTED_EDGE ( 'NONE', *, *, #217, .T. ) ;
#491 = CARTESIAN_POINT ( 'NONE',  ( -6.938893903907228378E-15, 2.695000000000000728, 0.000000000000000000 ) ) ;
#492 = DIRECTION ( 'NONE',  ( 1.000000000000000000, 0.000000000000000000, 0.000000000000000000 ) ) ;
#493 = AXIS2_PLACEMENT_3D ( 'NONE', #163, #464, #407 ) ;
#494 = CARTESIAN_POINT ( 'NONE',  ( 13.97999999999998622, 0.000000000000000000, 0.000000000000000000 ) ) ;
#495 = CARTESIAN_POINT ( 'NONE',  ( 13.97999999999998622, 1.400000000000000799, 0.000000000000000000 ) ) ;
#496 = EDGE_LOOP ( 'NONE', ( #126, #399, #625, #13 ) ) ;
#497 = LINE ( 'NONE', #343, #553 ) ;
#498 = LINE ( 'NONE', #104, #252 ) ;
#499 = EDGE_LOOP ( 'NONE', ( #133, #138, #402, #291, #346, #281, #230, #558, #292, #481, #160, #604, #202, #556, #86, #597 ) ) ;
#500 = ORIENTED_EDGE ( 'NONE', *, *, #157, .F. ) ;
#501 = PLANE ( 'NONE',  #395 ) ;
#502 = CARTESIAN_POINT ( 'NONE',  ( -0.8000000000000007105, 0.2535898384862212973, 0.5000000000000000000 ) ) ;
#503 = VERTEX_POINT ( 'NONE', #20 ) ;
#504 = ORIENTED_EDGE ( 'NONE', *, *, #466, .F. ) ;
#505 = VECTOR ( 'NONE', #119, 100.0000000000000000 ) ;
#506 = CARTESIAN_POINT ( 'NONE',  ( 13.97999999999998622, 0.5999999999999973133, 0.000000000000000000 ) ) ;
#507 = PRODUCT_CONTEXT ( 'NONE', #170, 'mechanical' ) ;
#508 = ORIENTED_EDGE ( 'NONE', *, *, #215, .T. ) ;
#509 = DIRECTION ( 'NONE',  ( 0.5000000000000043299, 0.8660254037844362651, 0.000000000000000000 ) ) ;
#510 = LINE ( 'NONE', #250, #601 ) ;
#511 = CARTESIAN_POINT ( 'NONE',  ( 0.06989999999999993441, 0.01000000000000000021, 0.005000000000000000104 ) ) ;
#512 = EDGE_CURVE ( 'NONE', #77, #388, #547, .T. ) ;
#513 = ORIENTED_EDGE ( 'NONE', *, *, #290, .F. ) ;
#514 = CARTESIAN_POINT ( 'NONE',  ( 13.97999999999999332, 1.400000000000001021, 0.5000000000000000000 ) ) ;
#515 = VECTOR ( 'NONE', #642, 100.0000000000000000 ) ;
#516 = EDGE_CURVE ( 'NONE', #145, #463, #497, .T. ) ;
#517 = EDGE_CURVE ( 'NONE', #575, #257, #207, .T. ) ;
#518 = VERTEX_POINT ( 'NONE', #550 ) ;
#519 = DIRECTION ( 'NONE',  ( 1.000000000000000000, 0.000000000000000000, 0.000000000000000000 ) ) ;
#520 = CARTESIAN_POINT ( 'NONE',  ( 13.97999999999998622, 2.365000000000001101, 0.5000000000000000000 ) ) ;
#521 = VECTOR ( 'NONE', #391, 100.0000000000000000 ) ;
#522 = ORIENTED_EDGE ( 'NONE', *, *, #554, .T. ) ;
#523 = CARTESIAN_POINT ( 'NONE',  ( -6.938893903907228378E-15, 2.364999999999997549, 0.1825000000000000233 ) ) ;
#524 = CARTESIAN_POINT ( 'NONE',  ( 0.000000000000000000, 1.400000000000000799, 0.000000000000000000 ) ) ;
#525 = CARTESIAN_POINT ( 'NONE',  ( 14.17999999999998728, 1.400000000000000799, 0.000000000000000000 ) ) ;
#526 = CARTESIAN_POINT ( 'NONE',  ( 13.97999999999999332, 2.694999999999999396, 0.000000000000000000 ) ) ;
#527 = FACE_OUTER_BOUND ( 'NONE', #408, .T. ) ;
#528 = CARTESIAN_POINT ( 'NONE',  ( -6.938893903907228378E-15, 2.364999999999997549, 0.1825000000000000233 ) ) ;
#529 = VECTOR ( 'NONE', #111, 100.0000000000000000 ) ;
#530 = FACE_OUTER_BOUND ( 'NONE', #531, .T. ) ;
#531 = EDGE_LOOP ( 'NONE', ( #522, #328, #356, #178 ) ) ;
#532 = ADVANCED_FACE ( 'NONE', ( #239 ), #258, .F. ) ;
#533 = CARTESIAN_POINT ( 'NONE',  ( 14.17999999999998728, 0.5999999999999973133, 2.193668360938501039 ) ) ;
#534 = PLANE ( 'NONE',  #367 ) ;
#535 = VERTEX_POINT ( 'NONE', #234 ) ;
#536 = LINE ( 'NONE', #582, #99 ) ;
#537 = CARTESIAN_POINT ( 'NONE',  ( -6.938893903907228378E-15, 2.364999999999999325, 0.5000000000000000000 ) ) ;
#538 = ORIENTED_EDGE ( 'NONE', *, *, #81, .F. ) ;
#539 = PLANE ( 'NONE',  #199 ) ;
#540 = VECTOR ( 'NONE', #235, 100.0000000000000000 ) ;
#541 = DIRECTION ( 'NONE',  ( 0.000000000000000000, 1.000000000000000000, -0.000000000000000000 ) ) ;
#542 = AXIS2_PLACEMENT_3D ( 'NONE', #259, #569, #359 ) ;
#543 = VERTEX_POINT ( 'NONE', #96 ) ;
#544 = LINE ( 'NONE', #590, #229 ) ;
#545 = ORIENTED_EDGE ( 'NONE', *, *, #267, .T. ) ;
#546 = EDGE_CURVE ( 'NONE', #593, #142, #135, .T. ) ;
#547 = LINE ( 'NONE', #494, #166 ) ;
#548 = EDGE_LOOP ( 'NONE', ( #508, #153, #377, #148, #159, #205 ) ) ;
#549 = ORIENTED_EDGE ( 'NONE', *, *, #517, .F. ) ;
#550 = CARTESIAN_POINT ( 'NONE',  ( 14.17999999999998728, 0.5999999999999974243, 0.5000000000000000000 ) ) ;
#551 = CARTESIAN_POINT ( 'NONE',  ( -0.2000000000000001776, 1.400000000000000799, 2.193668360938501039 ) ) ;
#552 = LINE ( 'NONE', #646, #110 ) ;
#553 = VECTOR ( 'NONE', #633, 100.0000000000000000 ) ;
#554 = EDGE_CURVE ( 'NONE', #173, #458, #411, .T. ) ;
#555 = DIRECTION ( 'NONE',  ( 0.000000000000000000, 0.000000000000000000, -1.000000000000000000 ) ) ;
#556 = ORIENTED_EDGE ( 'NONE', *, *, #461, .T. ) ;
#557 = CARTESIAN_POINT ( 'NONE',  ( -6.938893903907228378E-15, 2.695000000000000728, 0.5000000000000000000 ) ) ;
#558 = ORIENTED_EDGE ( 'NONE', *, *, #322, .T. ) ;
#559 = ORIENTED_EDGE ( 'NONE', *, *, #591, .F. ) ;
#560 = CARTESIAN_POINT ( 'NONE',  ( -0.8000000000000007105, 0.2535898384862212973, 2.193668360938501039 ) ) ;
#561 = ADVANCED_FACE ( 'NONE', ( #594 ), #501, .T. ) ;
#562 = AXIS2_PLACEMENT_3D ( 'NONE', #361, #468, #270 ) ;
#563 = CARTESIAN_POINT ( 'NONE',  ( 0.000000000000000000, 0.000000000000000000, 0.000000000000000000 ) ) ;
#564 = ORIENTED_EDGE ( 'NONE', *, *, #198, .F. ) ;
#565 = CARTESIAN_POINT ( 'NONE',  ( 13.97999999999999332, 2.694999999999999396, 0.5000000000000000000 ) ) ;
#566 = EDGE_LOOP ( 'NONE', ( #435, #309, #513, #429 ) ) ;
#567 = VECTOR ( 'NONE', #269, 100.0000000000000142 ) ;
#568 = VECTOR ( 'NONE', #470, 100.0000000000000000 ) ;
#569 = DIRECTION ( 'NONE',  ( -0.5000000000000002220, 0.8660254037844385966, 0.000000000000000000 ) ) ;
#570 = EDGE_CURVE ( 'NONE', #254, #233, #453, .T. ) ;
#571 = DIRECTION ( 'NONE',  ( -1.000000000000000000, 0.000000000000000000, 0.000000000000000000 ) ) ;
#572 = VERTEX_POINT ( 'NONE', #192 ) ;
#573 = CARTESIAN_POINT ( 'NONE',  ( 0.000000000000000000, 0.000000000000000000, 0.5000000000000000000 ) ) ;
#574 = CARTESIAN_POINT ( 'NONE',  ( 13.97999999999999332, 2.694999999999999396, 0.000000000000000000 ) ) ;
#575 = VERTEX_POINT ( 'NONE', #42 ) ;
#576 = LINE ( 'NONE', #128, #403 ) ;
#577 = PLANE ( 'NONE',  #49 ) ;
#578 = ADVANCED_FACE ( 'NONE', ( #143 ), #644, .T. ) ;
#579 = CARTESIAN_POINT ( 'NONE',  ( -0.8000000000000007105, 0.2535898384862212973, 0.5000000000000000000 ) ) ;
#580 = VECTOR ( 'NONE', #612, 100.0000000000000000 ) ;
#581 = VERTEX_POINT ( 'NONE', #465 ) ;
#582 = CARTESIAN_POINT ( 'NONE',  ( 13.97999999999999332, 2.694999999999999396, 0.000000000000000000 ) ) ;
#583 = CARTESIAN_POINT ( 'NONE',  ( -6.938893903907228378E-15, 2.695000000000000728, 0.000000000000000000 ) ) ;
#584 = ORIENTED_EDGE ( 'NONE', *, *, #389, .F. ) ;
#585 = LINE ( 'NONE', #71, #369 ) ;
#586 = CARTESIAN_POINT ( 'NONE',  ( 0.000000000000000000, 1.400000000000000799, 0.5000000000000000000 ) ) ;
#587 = ORIENTED_EDGE ( 'NONE', *, *, #238, .F. ) ;
#588 = DIRECTION ( 'NONE',  ( 0.000000000000000000, 0.000000000000000000, 1.000000000000000000 ) ) ;
#589 = VECTOR ( 'NONE', #344, 100.0000000000000000 ) ;
#590 = CARTESIAN_POINT ( 'NONE',  ( 0.000000000000000000, 1.400000000000000799, 2.193668360938501039 ) ) ;
#591 = EDGE_CURVE ( 'NONE', #593, #575, #311, .T. ) ;
#592 = VECTOR ( 'NONE', #474, 100.0000000000000000 ) ;
#593 = VERTEX_POINT ( 'NONE', #641 ) ;
#594 = FACE_OUTER_BOUND ( 'NONE', #455, .T. ) ;
#595 = CARTESIAN_POINT ( 'NONE',  ( 13.97999999999999332, 0.5999999999999972022, 0.5000000000000000000 ) ) ;
#596 = ORIENTED_EDGE ( 'NONE', *, *, #196, .T. ) ;
#597 = ORIENTED_EDGE ( 'NONE', *, *, #570, .T. ) ;
#598 = LINE ( 'NONE', #303, #357 ) ;
#599 = EDGE_CURVE ( 'NONE', #63, #340, #552, .T. ) ;
#600 = VERTEX_POINT ( 'NONE', #410 ) ;
#601 = VECTOR ( 'NONE', #3, 100.0000000000000000 ) ;
#602 = VECTOR ( 'NONE', #348, 100.0000000000000000 ) ;
#603 = LINE ( 'NONE', #336, #420 ) ;
#604 = ORIENTED_EDGE ( 'NONE', *, *, #149, .T. ) ;
#605 = ADVANCED_FACE ( 'NONE', ( #115 ), #608, .T. ) ;
#606 = CARTESIAN_POINT ( 'NONE',  ( 0.000000000000000000, 1.400000000000000799, 0.000000000000000000 ) ) ;
#607 = ORIENTED_EDGE ( 'NONE', *, *, #398, .F. ) ;
#608 = PLANE ( 'NONE',  #147 ) ;
#609 = ORIENTED_EDGE ( 'NONE', *, *, #570, .F. ) ;
#610 = VECTOR ( 'NONE', #397, 100.0000000000000000 ) ;
#611 = VECTOR ( 'NONE', #246, 100.0000000000000000 ) ;
#612 = DIRECTION ( 'NONE',  ( 0.000000000000000000, 1.000000000000000000, -0.000000000000000000 ) ) ;
#613 = LINE ( 'NONE', #118, #580 ) ;
#614 = DIRECTION ( 'NONE',  ( 0.000000000000000000, 0.000000000000000000, -1.000000000000000000 ) ) ;
#615 = CARTESIAN_POINT ( 'NONE',  ( -6.938893903907228378E-15, 1.400000000000001021, 0.5000000000000000000 ) ) ;
#616 = DIRECTION ( 'NONE',  ( 0.000000000000000000, 1.000000000000000000, 0.000000000000000000 ) ) ;
#617 = VECTOR ( 'NONE', #480, 100.0000000000000000 ) ;
#618 = AXIS2_PLACEMENT_3D ( 'NONE', #182, #29, #444 ) ;
#619 = DIRECTION ( 'NONE',  ( 0.000000000000000000, -1.000000000000000000, 0.000000000000000000 ) ) ;
#620 = EDGE_CURVE ( 'NONE', #458, #181, #54, .T. ) ;
#621 = SURFACE_SIDE_STYLE ('',( #424 ) ) ;
#622 = DIRECTION ( 'NONE',  ( -1.000000000000000000, 0.000000000000000000, 0.000000000000000000 ) ) ;
#623 = ADVANCED_FACE ( 'NONE', ( #216 ), #372, .T. ) ;
#624 = DIRECTION ( 'NONE',  ( -0.000000000000000000, -1.000000000000000000, 0.000000000000000000 ) ) ;
#625 = ORIENTED_EDGE ( 'NONE', *, *, #445, .F. ) ;
#626 = AXIS2_PLACEMENT_3D ( 'NONE', #21, #627, #228 ) ;
#627 = DIRECTION ( 'NONE',  ( 0.000000000000000000, -1.000000000000000000, 0.000000000000000000 ) ) ;
#628 = VERTEX_POINT ( 'NONE', #310 ) ;
#629 = DIRECTION ( 'NONE',  ( -1.240860855491278517E-16, -1.000000000000000000, 0.000000000000000000 ) ) ;
#630 = DIRECTION ( 'NONE',  ( -1.000000000000000000, 0.000000000000000000, 0.000000000000000000 ) ) ;
#631 = ORIENTED_EDGE ( 'NONE', *, *, #461, .F. ) ;
#632 = PRODUCT_RELATED_PRODUCT_CATEGORY ( 'part', '', ( #485 ) ) ;
#633 = DIRECTION ( 'NONE',  ( 1.000000000000000000, -1.240860855491278517E-16, 0.000000000000000000 ) ) ;
#634 = CARTESIAN_POINT ( 'NONE',  ( 14.77999999999998693, 1.746410161513777037, 2.193668360938501039 ) ) ;
#635 = ORIENTED_EDGE ( 'NONE', *, *, #364, .F. ) ;
#636 = CARTESIAN_POINT ( 'NONE',  ( 0.000000000000000000, 0.000000000000000000, 0.000000000000000000 ) ) ;
#637 = LINE ( 'NONE', #253, #589 ) ;
#638 = VECTOR ( 'NONE', #231, 100.0000000000000000 ) ;
#639 = ORIENTED_EDGE ( 'NONE', *, *, #8, .T. ) ;
#640 = ORIENTED_EDGE ( 'NONE', *, *, #512, .T. ) ;
#641 = CARTESIAN_POINT ( 'NONE',  ( 0.000000000000000000, 0.000000000000000000, 0.000000000000000000 ) ) ;
#642 = DIRECTION ( 'NONE',  ( -1.000000000000000000, -0.000000000000000000, 0.000000000000000000 ) ) ;
#643 = EDGE_CURVE ( 'NONE', #572, #260, #380, .T. ) ;
#644 = PLANE ( 'NONE',  #15 ) ;
#645 = DIRECTION ( 'NONE',  ( 0.000000000000000000, -1.000000000000000000, 0.000000000000000000 ) ) ;
#646 = CARTESIAN_POINT ( 'NONE',  ( -0.8000000000000007105, 1.746410161513780368, 2.193668360938501039 ) ) ;
#647 = PLANE ( 'NONE',  #334 ) ;
#648 = VERTEX_POINT ( 'NONE', #184 ) ;
#649 = AXIS2_PLACEMENT_3D ( 'NONE', #533, #282, #218 ) ;
ENDSEC;
END-ISO-10303-21;
