ISO-10303-21;
HEADER;
FILE_DESCRIPTION (( 'STEP AP214' ),
    '1' );
FILE_NAME ('vertex-edge_60.STEP',
    '2026-06-17T01:45:03',
    ( '' ),
    ( '' ),
    'SwSTEP 2.0',
    'SolidWorks 2023',
    '' );
FILE_SCHEMA (( 'AUTOMOTIVE_DESIGN' ));
ENDSEC;

DATA;
#1 = FACE_OUTER_BOUND ( 'NONE', #1023, .T. ) ;
#2 = ORIENTED_EDGE ( 'NONE', *, *, #498, .T. ) ;
#3 = LINE ( 'NONE', #520, #1063 ) ;
#4 = EDGE_LOOP ( 'NONE', ( #121, #468, #626, #256 ) ) ;
#5 = CARTESIAN_POINT ( 'NONE',  ( 1.364999999999999769, 2.000000000000000444, 0.000000000000000000 ) ) ;
#6 = EDGE_LOOP ( 'NONE', ( #882, #114, #1006, #400 ) ) ;
#7 = DIRECTION ( 'NONE',  ( 0.000000000000000000, 0.000000000000000000, -1.000000000000000000 ) ) ;
#8 = CARTESIAN_POINT ( 'NONE',  ( 2.000000000000000444, 0.4100000000000001421, 0.6350000000000000089 ) ) ;
#9 = FACE_OUTER_BOUND ( 'NONE', #355, .T. ) ;
#10 = EDGE_CURVE ( 'NONE', #804, #220, #929, .T. ) ;
#11 = ORIENTED_EDGE ( 'NONE', *, *, #847, .F. ) ;
#12 = CARTESIAN_POINT ( 'NONE',  ( 0.000000000000000000, 0.000000000000000000, 0.3175000000000000044 ) ) ;
#13 = ORIENTED_EDGE ( 'NONE', *, *, #768, .T. ) ;
#14 = CARTESIAN_POINT ( 'NONE',  ( 0.4099999999999999201, 1.820000000000000506, 0.1349999999999999534 ) ) ;
#15 = EDGE_CURVE ( 'NONE', #693, #784, #835, .T. ) ;
#16 = AXIS2_PLACEMENT_3D ( 'NONE', #1041, #112, #1020 ) ;
#17 = VECTOR ( 'NONE', #171, 100.0000000000000142 ) ;
#18 = VERTEX_POINT ( 'NONE', #761 ) ;
#19 = PLANE ( 'NONE',  #883 ) ;
#20 = DIRECTION ( 'NONE',  ( 4.818676322157798361E-16, -1.000000000000000000, 0.000000000000000000 ) ) ;
#21 = EDGE_CURVE ( 'NONE', #1075, #18, #250, .T. ) ;
#22 = CARTESIAN_POINT ( 'NONE',  ( -1.364999999999998215, 1.364999999999999991, 0.3175000000000000044 ) ) ;
#23 = EDGE_LOOP ( 'NONE', ( #615, #659, #300, #460, #603, #711 ) ) ;
#24 = LINE ( 'NONE', #741, #1085 ) ;
#25 = ORIENTED_EDGE ( 'NONE', *, *, #656, .T. ) ;
#26 = DIRECTION ( 'NONE',  ( -2.312964634635742957E-16, 1.000000000000000000, 0.000000000000000000 ) ) ;
#27 = FACE_OUTER_BOUND ( 'NONE', #810, .T. ) ;
#28 = ORIENTED_EDGE ( 'NONE', *, *, #738, .T. ) ;
#29 = ORIENTED_EDGE ( 'NONE', *, *, #314, .F. ) ;
#30 = CARTESIAN_POINT ( 'NONE',  ( 2.000000000000000444, -0.4099999999999999201, 0.1349999999999999534 ) ) ;
#31 =( GEOMETRIC_REPRESENTATION_CONTEXT ( 3 ) GLOBAL_UNCERTAINTY_ASSIGNED_CONTEXT ( ( #609 ) ) GLOBAL_UNIT_ASSIGNED_CONTEXT ( ( #812, #40, #296 ) ) REPRESENTATION_CONTEXT ( 'NONE', 'WORKASPACE' ) );
#32 = DIRECTION ( 'NONE',  ( 0.000000000000000000, 0.000000000000000000, -1.000000000000000000 ) ) ;
#33 = AXIS2_PLACEMENT_3D ( 'NONE', #263, #282, #699 ) ;
#34 = ADVANCED_FACE ( 'NONE', ( #237 ), #995, .T. ) ;
#35 = ORIENTED_EDGE ( 'NONE', *, *, #459, .F. ) ;
#36 =( GEOMETRIC_REPRESENTATION_CONTEXT ( 3 ) GLOBAL_UNCERTAINTY_ASSIGNED_CONTEXT ( ( #528 ) ) GLOBAL_UNIT_ASSIGNED_CONTEXT ( ( #212, #394, #318 ) ) REPRESENTATION_CONTEXT ( 'NONE', 'WORKASPACE' ) );
#37 = PRODUCT_CONTEXT ( 'NONE', #895, 'mechanical' ) ;
#38 = ORIENTED_EDGE ( 'NONE', *, *, #986, .F. ) ;
#39 = CARTESIAN_POINT ( 'NONE',  ( -1.364999999999998215, 2.000000000000000444, 0.3175000000000000044 ) ) ;
#40 =( NAMED_UNIT ( * ) PLANE_ANGLE_UNIT ( ) SI_UNIT ( $, .RADIAN. ) );
#41 = ORIENTED_EDGE ( 'NONE', *, *, #510, .T. ) ;
#42 = CARTESIAN_POINT ( 'NONE',  ( 2.000000000000000444, -0.4099999999999999201, 0.1349999999999999534 ) ) ;
#43 = ORIENTED_EDGE ( 'NONE', *, *, #916, .F. ) ;
#44 = FACE_OUTER_BOUND ( 'NONE', #55, .T. ) ;
#45 = LINE ( 'NONE', #481, #86 ) ;
#46 = DIRECTION ( 'NONE',  ( 0.000000000000000000, 1.000000000000000000, 0.000000000000000000 ) ) ;
#47 = CARTESIAN_POINT ( 'NONE',  ( 2.000000000000001776, 1.364999999999998437, 0.6350000000000000089 ) ) ;
#48 = ADVANCED_FACE ( 'NONE', ( #405 ), #596, .F. ) ;
#49 = ORIENTED_EDGE ( 'NONE', *, *, #10, .T. ) ;
#50 = DIRECTION ( 'NONE',  ( -2.258880508902365962E-16, 1.000000000000000000, -0.000000000000000000 ) ) ;
#51 = EDGE_CURVE ( 'NONE', #484, #693, #60, .T. ) ;
#52 = LINE ( 'NONE', #409, #918 ) ;
#53 = DIRECTION ( 'NONE',  ( -0.000000000000000000, 0.000000000000000000, 1.000000000000000000 ) ) ;
#54 = AXIS2_PLACEMENT_3D ( 'NONE', #258, #427, #767 ) ;
#55 = EDGE_LOOP ( 'NONE', ( #1051, #339, #399, #111 ) ) ;
#56 = CARTESIAN_POINT ( 'NONE',  ( 0.4099999999999999201, 1.820000000000000506, 0.1349999999999999534 ) ) ;
#57 = VECTOR ( 'NONE', #357, 100.0000000000000000 ) ;
#58 = EDGE_CURVE ( 'NONE', #146, #945, #68, .T. ) ;
#59 = DIRECTION ( 'NONE',  ( 0.000000000000000000, -1.000000000000000000, 0.000000000000000000 ) ) ;
#60 = LINE ( 'NONE', #934, #1044 ) ;
#61 = ORIENTED_EDGE ( 'NONE', *, *, #1092, .F. ) ;
#62 = PLANE ( 'NONE',  #583 ) ;
#63 = DIRECTION ( 'NONE',  ( -1.249637081581196951E-16, 1.000000000000000000, 0.000000000000000000 ) ) ;
#64 = CARTESIAN_POINT ( 'NONE',  ( -1.199999999999999956, -0.7679571668975725407, 0.1349999999999999534 ) ) ;
#65 = ORIENTED_EDGE ( 'NONE', *, *, #790, .F. ) ;
#66 = CARTESIAN_POINT ( 'NONE',  ( -0.4100000000000000311, 2.000000000000000444, 0.1349999999999999534 ) ) ;
#67 = DIRECTION ( 'NONE',  ( 1.000000000000000000, 1.249637081581196951E-16, 0.000000000000000000 ) ) ;
#68 = LINE ( 'NONE', #410, #221 ) ;
#69 = EDGE_CURVE ( 'NONE', #575, #836, #921, .T. ) ;
#70 = EDGE_LOOP ( 'NONE', ( #610, #936, #1028, #545 ) ) ;
#71 = CARTESIAN_POINT ( 'NONE',  ( 16.63499999999999801, 1.365000000000001101, 0.3175000000000000044 ) ) ;
#72 = VECTOR ( 'NONE', #959, 100.0000000000000000 ) ;
#73 = CARTESIAN_POINT ( 'NONE',  ( -0.4099999999999999201, 1.820000000000000506, 0.6350000000000000089 ) ) ;
#74 = LINE ( 'NONE', #5, #650 ) ;
#75 = ORIENTED_EDGE ( 'NONE', *, *, #284, .T. ) ;
#76 = FACE_OUTER_BOUND ( 'NONE', #570, .T. ) ;
#77 = CARTESIAN_POINT ( 'NONE',  ( -2.000000000000000444, -0.4100000000000003642, 0.1349999999999999534 ) ) ;
#78 = FACE_OUTER_BOUND ( 'NONE', #232, .T. ) ;
#79 = ORIENTED_EDGE ( 'NONE', *, *, #1031, .T. ) ;
#80 = DIRECTION ( 'NONE',  ( -0.000000000000000000, 0.000000000000000000, 1.000000000000000000 ) ) ;
#81 = ADVANCED_FACE ( 'NONE', ( #1005, #150 ), #925, .T. ) ;
#82 = PRODUCT_DEFINITION ( 'UNKNOWN', '', #666, #174 ) ;
#83 = CARTESIAN_POINT ( 'NONE',  ( -1.820000000000000506, -0.4100000000000003086, 0.1349999999999999534 ) ) ;
#84 = ORIENTED_EDGE ( 'NONE', *, *, #1112, .T. ) ;
#85 = LINE ( 'NONE', #452, #145 ) ;
#86 = VECTOR ( 'NONE', #398, 100.0000000000000000 ) ;
#87 = ORIENTED_EDGE ( 'NONE', *, *, #188, .T. ) ;
#88 = CIRCLE ( 'NONE', #238, 2.500000000000000000 ) ;
#89 = AXIS2_PLACEMENT_3D ( 'NONE', #1086, #585, #414 ) ;
#90 = VECTOR ( 'NONE', #1080, 100.0000000000000000 ) ;
#91 = ADVANCED_FACE ( 'NONE', ( #1109 ), #333, .F. ) ;
#92 = AXIS2_PLACEMENT_3D ( 'NONE', #352, #691, #268 ) ;
#93 = CARTESIAN_POINT ( 'NONE',  ( -2.000000000000000000, -1.500000000000000888, 0.000000000000000000 ) ) ;
#94 = ORIENTED_EDGE ( 'NONE', *, *, #1047, .T. ) ;
#95 = CARTESIAN_POINT ( 'NONE',  ( -0.4099999999999999201, 1.820000000000000506, 0.1349999999999999534 ) ) ;
#96 = EDGE_CURVE ( 'NONE', #1036, #1110, #500, .T. ) ;
#97 = CARTESIAN_POINT ( 'NONE',  ( 3.673940397442060115E-17, 0.3000000000000000444, 0.000000000000000000 ) ) ;
#98 = ORIENTED_EDGE ( 'NONE', *, *, #692, .T. ) ;
#99 = CARTESIAN_POINT ( 'NONE',  ( 3.673940397442060115E-17, 0.3000000000000000444, 0.6350000000000000089 ) ) ;
#100 = LINE ( 'NONE', #14, #315 ) ;
#101 = LINE ( 'NONE', #968, #881 ) ;
#102 = VERTEX_POINT ( 'NONE', #64 ) ;
#103 = CARTESIAN_POINT ( 'NONE',  ( 0.7679571668975722076, 1.199999999999999956, 0.1349999999999999534 ) ) ;
#104 = ADVANCED_FACE ( 'NONE', ( #839 ), #338, .F. ) ;
#105 = DIRECTION ( 'NONE',  ( -1.000000000000000000, 0.000000000000000000, 0.000000000000000000 ) ) ;
#106 = VECTOR ( 'NONE', #983, 100.0000000000000000 ) ;
#107 = AXIS2_PLACEMENT_3D ( 'NONE', #316, #905, #137 ) ;
#108 = FILL_AREA_STYLE ('',( #302 ) ) ;
#109 = VECTOR ( 'NONE', #740, 100.0000000000000000 ) ;
#110 = EDGE_LOOP ( 'NONE', ( #1033, #733, #908, #606, #975, #395 ) ) ;
#111 = ORIENTED_EDGE ( 'NONE', *, *, #325, .T. ) ;
#112 = DIRECTION ( 'NONE',  ( -0.8660254037844362651, 0.5000000000000043299, 0.000000000000000000 ) ) ;
#113 = DIRECTION ( 'NONE',  ( 0.000000000000000000, -1.000000000000000000, 0.000000000000000000 ) ) ;
#114 = ORIENTED_EDGE ( 'NONE', *, *, #21, .F. ) ;
#115 = CARTESIAN_POINT ( 'NONE',  ( 0.4100000000000000311, 2.000000000000000444, 0.1349999999999999534 ) ) ;
#116 = VERTEX_POINT ( 'NONE', #675 ) ;
#117 = DIRECTION ( 'NONE',  ( 0.000000000000000000, -1.000000000000000000, 0.000000000000000000 ) ) ;
#118 = LINE ( 'NONE', #977, #257 ) ;
#119 = VERTEX_POINT ( 'NONE', #487 ) ;
#120 = LINE ( 'NONE', #42, #365 ) ;
#121 = ORIENTED_EDGE ( 'NONE', *, *, #1009, .T. ) ;
#122 = CARTESIAN_POINT ( 'NONE',  ( -1.200000000000000178, 0.7679571668975719856, 0.6350000000000000089 ) ) ;
#123 = AXIS2_PLACEMENT_3D ( 'NONE', #225, #572, #987 ) ;
#124 = SURFACE_STYLE_USAGE ( .BOTH. , #1050 ) ;
#125 = AXIS2_PLACEMENT_3D ( 'NONE', #56, #672, #841 ) ;
#126 = VERTEX_POINT ( 'NONE', #824 ) ;
#127 = DIRECTION ( 'NONE',  ( 1.000000000000000000, 0.000000000000000000, 0.000000000000000000 ) ) ;
#128 = VERTEX_POINT ( 'NONE', #1093 ) ;
#129 = DIRECTION ( 'NONE',  ( 0.000000000000000000, -1.000000000000000000, 0.000000000000000000 ) ) ;
#130 = EDGE_CURVE ( 'NONE', #220, #1075, #322, .T. ) ;
#131 = DIRECTION ( 'NONE',  ( -0.000000000000000000, 0.000000000000000000, 1.000000000000000000 ) ) ;
#132 = ORIENTED_EDGE ( 'NONE', *, *, #746, .F. ) ;
#133 = LINE ( 'NONE', #115, #90 ) ;
#134 = ADVANCED_FACE ( 'NONE', ( #78 ), #509, .T. ) ;
#135 = ORIENTED_EDGE ( 'NONE', *, *, #51, .T. ) ;
#136 = CARTESIAN_POINT ( 'NONE',  ( -1.820000000000000506, 0.4099999999999995870, 0.1349999999999999534 ) ) ;
#137 = DIRECTION ( 'NONE',  ( 0.000000000000000000, -1.000000000000000000, 0.000000000000000000 ) ) ;
#138 = DIRECTION ( 'NONE',  ( 4.818676322157798361E-16, -1.000000000000000000, 0.000000000000000000 ) ) ;
#139 = SHAPE_DEFINITION_REPRESENTATION ( #680, #229 ) ;
#140 = ORIENTED_EDGE ( 'NONE', *, *, #1015, .F. ) ;
#141 = DIRECTION ( 'NONE',  ( -0.8660254037844360431, -0.5000000000000045519, 0.000000000000000000 ) ) ;
#142 = ADVANCED_FACE ( 'NONE', ( #276 ), #1032, .F. ) ;
#143 = DIRECTION ( 'NONE',  ( 0.000000000000000000, -1.000000000000000000, 0.000000000000000000 ) ) ;
#144 = CARTESIAN_POINT ( 'NONE',  ( 1.820000000000000506, 0.4100000000000000311, 0.1349999999999999534 ) ) ;
#145 = VECTOR ( 'NONE', #856, 100.0000000000000142 ) ;
#146 = VERTEX_POINT ( 'NONE', #523 ) ;
#147 = DIRECTION ( 'NONE',  ( -1.000000000000000000, 0.000000000000000000, -0.000000000000000000 ) ) ;
#148 = VECTOR ( 'NONE', #32, 100.0000000000000000 ) ;
#149 = DIRECTION ( 'NONE',  ( 0.000000000000000000, -1.000000000000000000, 0.000000000000000000 ) ) ;
#150 = FACE_OUTER_BOUND ( 'NONE', #597, .T. ) ;
#151 = ORIENTED_EDGE ( 'NONE', *, *, #1054, .F. ) ;
#152 = DIRECTION ( 'NONE',  ( 0.000000000000000000, 0.000000000000000000, -1.000000000000000000 ) ) ;
#153 = EDGE_CURVE ( 'NONE', #18, #542, #343, .T. ) ;
#154 = PLANE ( 'NONE',  #332 ) ;
#155 = EDGE_CURVE ( 'NONE', #146, #1079, #74, .T. ) ;
#156 = DIRECTION ( 'NONE',  ( 1.000000000000000000, 0.000000000000000000, 0.000000000000000000 ) ) ;
#157 = VERTEX_POINT ( 'NONE', #1117 ) ;
#158 = FACE_OUTER_BOUND ( 'NONE', #505, .T. ) ;
#159 = DIRECTION ( 'NONE',  ( 4.818676322157799347E-16, 1.000000000000000000, 0.000000000000000000 ) ) ;
#160 = CARTESIAN_POINT ( 'NONE',  ( -2.000000000000000444, -0.4100000000000003642, 0.1349999999999999534 ) ) ;
#161 = ORIENTED_EDGE ( 'NONE', *, *, #534, .F. ) ;
#162 = VECTOR ( 'NONE', #253, 100.0000000000000142 ) ;
#163 = DIRECTION ( 'NONE',  ( -0.8660254037844362651, 0.5000000000000042188, 0.000000000000000000 ) ) ;
#164 = VECTOR ( 'NONE', #163, 100.0000000000000142 ) ;
#165 = CARTESIAN_POINT ( 'NONE',  ( 16.63499999999999801, 1.365000000000001101, 0.3175000000000000044 ) ) ;
#166 = EDGE_CURVE ( 'NONE', #102, #542, #605, .T. ) ;
#167 = DIRECTION ( 'NONE',  ( 0.000000000000000000, 0.000000000000000000, -1.000000000000000000 ) ) ;
#168 = EDGE_LOOP ( 'NONE', ( #551, #803 ) ) ;
#169 = CARTESIAN_POINT ( 'NONE',  ( 0.4099999999999999201, 1.820000000000000506, 0.1349999999999999534 ) ) ;
#170 = EDGE_CURVE ( 'NONE', #1045, #840, #679, .T. ) ;
#171 = DIRECTION ( 'NONE',  ( 0.8660254037844362651, -0.5000000000000039968, 0.000000000000000000 ) ) ;
#172 = VERTEX_POINT ( 'NONE', #347 ) ;
#173 = DIRECTION ( 'NONE',  ( 0.000000000000000000, -1.000000000000000000, 0.000000000000000000 ) ) ;
#174 = PRODUCT_DEFINITION_CONTEXT ( 'detailed design', #1011, 'design' ) ;
#175 = ORIENTED_EDGE ( 'NONE', *, *, #476, .T. ) ;
#176 = EDGE_CURVE ( 'NONE', #479, #876, #1114, .T. ) ;
#177 = LINE ( 'NONE', #863, #632 ) ;
#178 = VERTEX_POINT ( 'NONE', #430 ) ;
#179 = DIRECTION ( 'NONE',  ( 1.000000000000000000, 0.000000000000000000, 0.000000000000000000 ) ) ;
#180 = VECTOR ( 'NONE', #674, 100.0000000000000000 ) ;
#181 = ADVANCED_FACE ( 'NONE', ( #601 ), #776, .F. ) ;
#182 = VERTEX_POINT ( 'NONE', #97 ) ;
#183 = DIRECTION ( 'NONE',  ( -0.000000000000000000, 0.000000000000000000, 1.000000000000000000 ) ) ;
#184 = EDGE_LOOP ( 'NONE', ( #223, #942, #825, #79 ) ) ;
#185 = CARTESIAN_POINT ( 'NONE',  ( -2.000000000000000444, -1.000000000000000000, 0.6350000000000000089 ) ) ;
#186 = DIRECTION ( 'NONE',  ( 1.000000000000000000, 1.931257307898213426E-16, 0.000000000000000000 ) ) ;
#187 = DIRECTION ( 'NONE',  ( 1.000000000000000000, 4.818676322157799347E-16, 0.000000000000000000 ) ) ;
#188 = EDGE_CURVE ( 'NONE', #521, #560, #1027, .T. ) ;
#189 = ORIENTED_EDGE ( 'NONE', *, *, #589, .T. ) ;
#190 = CARTESIAN_POINT ( 'NONE',  ( -2.000000000000000444, 0.4099999999999996980, 0.6350000000000000089 ) ) ;
#191 = CARTESIAN_POINT ( 'NONE',  ( 1.499999999999999778, 2.000000000000000444, 0.3175000000000000044 ) ) ;
#192 = DIRECTION ( 'NONE',  ( 1.000000000000000000, 0.000000000000000000, 0.000000000000000000 ) ) ;
#193 = ORIENTED_EDGE ( 'NONE', *, *, #746, .T. ) ;
#194 = DIRECTION ( 'NONE',  ( 1.000000000000000000, 0.000000000000000000, 0.000000000000000000 ) ) ;
#195 = ORIENTED_EDGE ( 'NONE', *, *, #428, .F. ) ;
#196 = CARTESIAN_POINT ( 'NONE',  ( -2.000000000000000444, 0.4099999999999996980, 0.6350000000000000089 ) ) ;
#197 = VECTOR ( 'NONE', #885, 100.0000000000000142 ) ;
#198 = VECTOR ( 'NONE', #1039, 100.0000000000000000 ) ;
#199 = LINE ( 'NONE', #548, #990 ) ;
#200 = VECTOR ( 'NONE', #518, 100.0000000000000000 ) ;
#201 = ADVANCED_FACE ( 'NONE', ( #9 ), #619, .F. ) ;
#202 = ORIENTED_EDGE ( 'NONE', *, *, #166, .T. ) ;
#203 = DIRECTION ( 'NONE',  ( -4.818676322157798361E-16, 1.000000000000000000, 0.000000000000000000 ) ) ;
#204 = ORIENTED_EDGE ( 'NONE', *, *, #408, .T. ) ;
#205 = CARTESIAN_POINT ( 'NONE',  ( 0.000000000000000000, 0.000000000000000000, 0.000000000000000000 ) ) ;
#206 = ORIENTED_EDGE ( 'NONE', *, *, #15, .T. ) ;
#207 = DIRECTION ( 'NONE',  ( 1.000000000000000000, 2.258880508902365962E-16, 0.000000000000000000 ) ) ;
#208 = ORIENTED_EDGE ( 'NONE', *, *, #544, .F. ) ;
#209 = CARTESIAN_POINT ( 'NONE',  ( 2.000000000000000444, 1.500000000000000666, 0.000000000000000000 ) ) ;
#210 = CARTESIAN_POINT ( 'NONE',  ( 0.4099999999999999201, 1.820000000000000506, 0.6350000000000000089 ) ) ;
#211 = ORIENTED_EDGE ( 'NONE', *, *, #166, .F. ) ;
#212 =( LENGTH_UNIT ( ) NAMED_UNIT ( * ) SI_UNIT ( .CENTI., .METRE. ) );
#213 = ORIENTED_EDGE ( 'NONE', *, *, #299, .F. ) ;
#214 = CARTESIAN_POINT ( 'NONE',  ( -1.820000000000000506, 0.4099999999999995870, 0.1349999999999999534 ) ) ;
#215 = VECTOR ( 'NONE', #989, 100.0000000000000000 ) ;
#216 = CIRCLE ( 'NONE', #843, 0.3000000000000000444 ) ;
#217 = CARTESIAN_POINT ( 'NONE',  ( 2.000000000000000444, 0.4100000000000001421, 0.1349999999999999534 ) ) ;
#218 = EDGE_CURVE ( 'NONE', #529, #290, #1022, .T. ) ;
#219 = VECTOR ( 'NONE', #444, 100.0000000000000000 ) ;
#220 = VERTEX_POINT ( 'NONE', #160 ) ;
#221 = VECTOR ( 'NONE', #327, 100.0000000000000000 ) ;
#222 = LINE ( 'NONE', #569, #106 ) ;
#223 = ORIENTED_EDGE ( 'NONE', *, *, #617, .T. ) ;
#224 = CARTESIAN_POINT ( 'NONE',  ( -1.500000000000000222, 2.000000000000000444, 0.000000000000000000 ) ) ;
#225 = CARTESIAN_POINT ( 'NONE',  ( -16.63499999999999801, 1.364999999999996438, 0.3175000000000000044 ) ) ;
#226 = ADVANCED_FACE ( 'NONE', ( #1 ), #1037, .F. ) ;
#227 = CARTESIAN_POINT ( 'NONE',  ( -0.4100000000000000311, 2.000000000000000444, 0.1349999999999999534 ) ) ;
#228 = ORIENTED_EDGE ( 'NONE', *, *, #476, .F. ) ;
#229 = ADVANCED_BREP_SHAPE_REPRESENTATION ( 'vertex-edge_60', ( #289, #720 ), #36 ) ;
#230 = CARTESIAN_POINT ( 'NONE',  ( -0.4099999999999999201, 1.820000000000000506, 0.1349999999999999534 ) ) ;
#231 = CARTESIAN_POINT ( 'NONE',  ( 0.4100000000000001421, 2.000000000000000444, 0.1349999999999999534 ) ) ;
#232 = EDGE_LOOP ( 'NONE', ( #369, #930, #426, #1104 ) ) ;
#233 = ORIENTED_EDGE ( 'NONE', *, *, #51, .F. ) ;
#234 = FACE_OUTER_BOUND ( 'NONE', #70, .T. ) ;
#235 = CARTESIAN_POINT ( 'NONE',  ( 2.000000000000000444, -1.000000000000000000, 0.6350000000000000089 ) ) ;
#236 = VECTOR ( 'NONE', #590, 100.0000000000000000 ) ;
#237 = FACE_OUTER_BOUND ( 'NONE', #982, .T. ) ;
#238 = AXIS2_PLACEMENT_3D ( 'NONE', #12, #7, #773 ) ;
#239 = EDGE_CURVE ( 'NONE', #887, #671, #264, .T. ) ;
#240 = VECTOR ( 'NONE', #317, 100.0000000000000000 ) ;
#241 = VERTEX_POINT ( 'NONE', #947 ) ;
#242 = DIRECTION ( 'NONE',  ( 0.000000000000000000, -1.000000000000000000, 0.000000000000000000 ) ) ;
#243 = PRESENTATION_LAYER_ASSIGNMENT (  '', '', ( #586 ) ) ;
#244 = EDGE_CURVE ( 'NONE', #182, #1002, #177, .T. ) ;
#245 = CARTESIAN_POINT ( 'NONE',  ( -16.63499999999999801, 1.364999999999996438, 0.3175000000000000044 ) ) ;
#246 = DIRECTION ( 'NONE',  ( 0.000000000000000000, -1.000000000000000000, 0.000000000000000000 ) ) ;
#247 = ORIENTED_EDGE ( 'NONE', *, *, #623, .F. ) ;
#248 = CARTESIAN_POINT ( 'NONE',  ( 2.000000000000000000, 1.500000000000000222, 0.3175000000000000044 ) ) ;
#249 = DIRECTION ( 'NONE',  ( -0.000000000000000000, 0.000000000000000000, 1.000000000000000000 ) ) ;
#250 = LINE ( 'NONE', #915, #527 ) ;
#251 = ORIENTED_EDGE ( 'NONE', *, *, #10, .F. ) ;
#252 = DIRECTION ( 'NONE',  ( 0.000000000000000000, 1.000000000000000000, 0.000000000000000000 ) ) ;
#253 = DIRECTION ( 'NONE',  ( -0.5000000000000042188, -0.8660254037844362651, 0.000000000000000000 ) ) ;
#254 = CARTESIAN_POINT ( 'NONE',  ( 0.000000000000000000, 0.000000000000000000, 0.6350000000000000089 ) ) ;
#255 = EDGE_CURVE ( 'NONE', #488, #116, #870, .T. ) ;
#256 = ORIENTED_EDGE ( 'NONE', *, *, #1092, .T. ) ;
#257 = VECTOR ( 'NONE', #192, 100.0000000000000000 ) ;
#258 = CARTESIAN_POINT ( 'NONE',  ( 0.000000000000000000, 0.000000000000000000, 0.1349999999999999534 ) ) ;
#259 = VECTOR ( 'NONE', #552, 100.0000000000000000 ) ;
#260 = DIRECTION ( 'NONE',  ( 1.000000000000000000, 0.000000000000000000, 0.000000000000000000 ) ) ;
#261 = EDGE_CURVE ( 'NONE', #1073, #290, #897, .T. ) ;
#262 = ORIENTED_EDGE ( 'NONE', *, *, #510, .F. ) ;
#263 = CARTESIAN_POINT ( 'NONE',  ( 0.4100000000000000311, 2.000000000000000444, 0.1349999999999999534 ) ) ;
#264 = LINE ( 'NONE', #940, #726 ) ;
#265 = VERTEX_POINT ( 'NONE', #1062 ) ;
#266 = CARTESIAN_POINT ( 'NONE',  ( 0.7679571668975722076, 1.199999999999999956, 0.1349999999999999534 ) ) ;
#267 = ORIENTED_EDGE ( 'NONE', *, *, #932, .T. ) ;
#268 = DIRECTION ( 'NONE',  ( -1.000000000000000000, 4.818676322157798361E-16, 0.000000000000000000 ) ) ;
#269 = ORIENTED_EDGE ( 'NONE', *, *, #648, .T. ) ;
#270 = CARTESIAN_POINT ( 'NONE',  ( 1.199999999999999956, -0.7679571668975722076, 0.6350000000000000089 ) ) ;
#271 = EDGE_CURVE ( 'NONE', #172, #178, #974, .T. ) ;
#272 = CIRCLE ( 'NONE', #453, 0.3000000000000000444 ) ;
#273 = ORIENTED_EDGE ( 'NONE', *, *, #341, .F. ) ;
#274 = DIRECTION ( 'NONE',  ( 1.000000000000000000, 4.818676322157798361E-16, 0.000000000000000000 ) ) ;
#275 = ADVANCED_FACE ( 'NONE', ( #27 ), #467, .F. ) ;
#276 = FACE_OUTER_BOUND ( 'NONE', #477, .T. ) ;
#277 = ORIENTED_EDGE ( 'NONE', *, *, #314, .T. ) ;
#278 = DIRECTION ( 'NONE',  ( -0.000000000000000000, 0.000000000000000000, 1.000000000000000000 ) ) ;
#279 = PLANE ( 'NONE',  #16 ) ;
#280 = DIRECTION ( 'NONE',  ( 0.000000000000000000, 0.000000000000000000, -1.000000000000000000 ) ) ;
#281 = ORIENTED_EDGE ( 'NONE', *, *, #498, .F. ) ;
#282 = DIRECTION ( 'NONE',  ( 1.000000000000000000, -4.818676322157798361E-16, 0.000000000000000000 ) ) ;
#283 = DIRECTION ( 'NONE',  ( 0.000000000000000000, -1.000000000000000000, 0.000000000000000000 ) ) ;
#284 = EDGE_CURVE ( 'NONE', #1045, #1099, #559, .T. ) ;
#285 = LINE ( 'NONE', #891, #809 ) ;
#286 = EDGE_CURVE ( 'NONE', #126, #451, #1071, .T. ) ;
#287 = ORIENTED_EDGE ( 'NONE', *, *, #286, .F. ) ;
#288 = PLANE ( 'NONE',  #842 ) ;
#289 = MANIFOLD_SOLID_BREP ( 'Cut-Extrude5', #437 ) ;
#290 = VERTEX_POINT ( 'NONE', #457 ) ;
#291 = DIRECTION ( 'NONE',  ( -0.000000000000000000, 0.000000000000000000, 1.000000000000000000 ) ) ;
#292 = VECTOR ( 'NONE', #956, 100.0000000000000000 ) ;
#293 = VECTOR ( 'NONE', #1096, 100.0000000000000000 ) ;
#294 = AXIS2_PLACEMENT_3D ( 'NONE', #752, #494, #591 ) ;
#295 = AXIS2_PLACEMENT_3D ( 'NONE', #307, #1060, #655 ) ;
#296 =( NAMED_UNIT ( * ) SI_UNIT ( $, .STERADIAN. ) SOLID_ANGLE_UNIT ( ) );
#297 = VECTOR ( 'NONE', #433, 100.0000000000000000 ) ;
#298 = ORIENTED_EDGE ( 'NONE', *, *, #341, .T. ) ;
#299 = EDGE_CURVE ( 'NONE', #265, #654, #796, .T. ) ;
#300 = ORIENTED_EDGE ( 'NONE', *, *, #595, .T. ) ;
#301 = LINE ( 'NONE', #980, #901 ) ;
#302 = FILL_AREA_STYLE_COLOUR ( '', #1068 ) ;
#303 = VERTEX_POINT ( 'NONE', #22 ) ;
#304 = FACE_OUTER_BOUND ( 'NONE', #715, .T. ) ;
#305 = EDGE_CURVE ( 'NONE', #784, #265, #118, .T. ) ;
#306 = ORIENTED_EDGE ( 'NONE', *, *, #1009, .F. ) ;
#307 = CARTESIAN_POINT ( 'NONE',  ( 0.000000000000000000, 0.000000000000000000, 0.000000000000000000 ) ) ;
#308 = CARTESIAN_POINT ( 'NONE',  ( -2.000000000000000444, -1.000000000000000000, 0.6350000000000000089 ) ) ;
#309 = ORIENTED_EDGE ( 'NONE', *, *, #581, .T. ) ;
#310 = DIRECTION ( 'NONE',  ( -2.258880508902365962E-16, 1.000000000000000000, 0.000000000000000000 ) ) ;
#311 = EDGE_CURVE ( 'NONE', #926, #415, #553, .T. ) ;
#312 = ORIENTED_EDGE ( 'NONE', *, *, #271, .F. ) ;
#313 = CARTESIAN_POINT ( 'NONE',  ( 2.000000000000000444, 1.500000000000000666, 0.6350000000000000089 ) ) ;
#314 = EDGE_CURVE ( 'NONE', #1002, #157, #272, .T. ) ;
#315 = VECTOR ( 'NONE', #449, 100.0000000000000142 ) ;
#316 = CARTESIAN_POINT ( 'NONE',  ( 0.000000000000000000, 0.000000000000000000, 0.000000000000000000 ) ) ;
#317 = DIRECTION ( 'NONE',  ( 0.000000000000000000, 0.000000000000000000, 1.000000000000000000 ) ) ;
#318 =( NAMED_UNIT ( * ) SI_UNIT ( $, .STERADIAN. ) SOLID_ANGLE_UNIT ( ) );
#319 = ORIENTED_EDGE ( 'NONE', *, *, #935, .F. ) ;
#320 = LINE ( 'NONE', #136, #473 ) ;
#321 = LINE ( 'NONE', #1004, #950 ) ;
#322 = LINE ( 'NONE', #783, #846 ) ;
#323 = ORIENTED_EDGE ( 'NONE', *, *, #15, .F. ) ;
#324 = LINE ( 'NONE', #661, #745 ) ;
#325 = EDGE_CURVE ( 'NONE', #1030, #772, #957, .T. ) ;
#326 = CARTESIAN_POINT ( 'NONE',  ( -1.500000000000000222, 2.000000000000000444, 0.3175000000000000044 ) ) ;
#327 = DIRECTION ( 'NONE',  ( 3.067291018426574134E-16, -1.000000000000000000, 0.000000000000000000 ) ) ;
#328 = EDGE_CURVE ( 'NONE', #840, #18, #285, .T. ) ;
#329 = ORIENTED_EDGE ( 'NONE', *, *, #719, .F. ) ;
#330 = PLANE ( 'NONE',  #54 ) ;
#331 = FACE_OUTER_BOUND ( 'NONE', #753, .T. ) ;
#332 = AXIS2_PLACEMENT_3D ( 'NONE', #834, #67, #63 ) ;
#333 = PLANE ( 'NONE',  #725 ) ;
#334 = VECTOR ( 'NONE', #278, 100.0000000000000000 ) ;
#335 = VERTEX_POINT ( 'NONE', #535 ) ;
#336 = DIRECTION ( 'NONE',  ( -0.000000000000000000, 0.000000000000000000, 1.000000000000000000 ) ) ;
#337 = DIRECTION ( 'NONE',  ( 1.000000000000000000, -4.818676322157799347E-16, 0.000000000000000000 ) ) ;
#338 = PLANE ( 'NONE',  #864 ) ;
#339 = ORIENTED_EDGE ( 'NONE', *, *, #854, .F. ) ;
#340 = FACE_OUTER_BOUND ( 'NONE', #688, .T. ) ;
#341 = EDGE_CURVE ( 'NONE', #836, #1036, #101, .T. ) ;
#342 = LINE ( 'NONE', #361, #1121 ) ;
#343 = LINE ( 'NONE', #614, #17 ) ;
#344 = EDGE_LOOP ( 'NONE', ( #871, #849, #277, #195 ) ) ;
#345 = CARTESIAN_POINT ( 'NONE',  ( -1.820000000000000506, 0.4099999999999995870, 0.1349999999999999534 ) ) ;
#346 = EDGE_CURVE ( 'NONE', #831, #482, #199, .T. ) ;
#347 = CARTESIAN_POINT ( 'NONE',  ( 2.000000000000000444, 1.500000000000000666, 0.000000000000000000 ) ) ;
#348 = ORIENTED_EDGE ( 'NONE', *, *, #735, .F. ) ;
#349 = CARTESIAN_POINT ( 'NONE',  ( 2.000000000000000444, -0.4099999999999999201, 0.1349999999999999534 ) ) ;
#350 = AXIS2_PLACEMENT_3D ( 'NONE', #214, #903, #391 ) ;
#351 = VECTOR ( 'NONE', #386, 100.0000000000000000 ) ;
#352 = CARTESIAN_POINT ( 'NONE',  ( -2.000000000000000444, 0.4099999999999996980, 0.1349999999999999534 ) ) ;
#353 = ORIENTED_EDGE ( 'NONE', *, *, #311, .F. ) ;
#354 = LINE ( 'NONE', #780, #862 ) ;
#355 = EDGE_LOOP ( 'NONE', ( #762, #211, #458, #411 ) ) ;
#356 = ADVANCED_FACE ( 'NONE', ( #499 ), #577, .F. ) ;
#357 = DIRECTION ( 'NONE',  ( -2.312964634635742957E-16, 1.000000000000000000, 0.000000000000000000 ) ) ;
#358 = ORIENTED_EDGE ( 'NONE', *, *, #1102, .F. ) ;
#359 = CARTESIAN_POINT ( 'NONE',  ( 0.4099999999999999201, 1.820000000000000506, 0.1349999999999999534 ) ) ;
#360 = ADVANCED_FACE ( 'NONE', ( #755 ), #567, .T. ) ;
#361 = CARTESIAN_POINT ( 'NONE',  ( -1.364999999999999991, 16.63499999999999801, 0.3175000000000000044 ) ) ;
#362 = DIRECTION ( 'NONE',  ( -0.5000000000000041078, -0.8660254037844363761, 0.000000000000000000 ) ) ;
#363 = ORIENTED_EDGE ( 'NONE', *, *, #176, .F. ) ;
#364 = CARTESIAN_POINT ( 'NONE',  ( 2.000000000000000444, -0.4099999999999999201, 0.6350000000000000089 ) ) ;
#365 = VECTOR ( 'NONE', #478, 100.0000000000000000 ) ;
#366 = VECTOR ( 'NONE', #800, 100.0000000000000000 ) ;
#367 = CARTESIAN_POINT ( 'NONE',  ( 0.4100000000000000311, 2.000000000000000444, 0.6350000000000000089 ) ) ;
#368 = VECTOR ( 'NONE', #436, 100.0000000000000000 ) ;
#369 = ORIENTED_EDGE ( 'NONE', *, *, #735, .T. ) ;
#370 = DIRECTION ( 'NONE',  ( -0.000000000000000000, 0.000000000000000000, 1.000000000000000000 ) ) ;
#371 = FACE_OUTER_BOUND ( 'NONE', #6, .T. ) ;
#372 = ADVANCED_FACE ( 'NONE', ( #1084 ), #154, .F. ) ;
#373 = CARTESIAN_POINT ( 'NONE',  ( 1.820000000000000506, -0.4099999999999998646, 0.6350000000000000089 ) ) ;
#374 = VERTEX_POINT ( 'NONE', #503 ) ;
#375 = FACE_OUTER_BOUND ( 'NONE', #531, .T. ) ;
#376 = EDGE_LOOP ( 'NONE', ( #859, #49, #797, #267, #28, #873 ) ) ;
#377 = DIRECTION ( 'NONE',  ( 1.000000000000000000, -4.818676322157799347E-16, 0.000000000000000000 ) ) ;
#378 = DIRECTION ( 'NONE',  ( -0.5000000000000042188, 0.8660254037844362651, -0.000000000000000000 ) ) ;
#379 = ADVANCED_FACE ( 'NONE', ( #994 ), #928, .F. ) ;
#380 = ORIENTED_EDGE ( 'NONE', *, *, #176, .T. ) ;
#381 = ORIENTED_EDGE ( 'NONE', *, *, #941, .F. ) ;
#382 = LINE ( 'NONE', #997, #420 ) ;
#383 = VECTOR ( 'NONE', #795, 100.0000000000000000 ) ;
#384 = AXIS2_PLACEMENT_3D ( 'NONE', #205, #291, #485 ) ;
#385 = ADVANCED_FACE ( 'NONE', ( #999 ), #651, .F. ) ;
#386 = DIRECTION ( 'NONE',  ( -0.000000000000000000, 0.000000000000000000, 1.000000000000000000 ) ) ;
#387 = VECTOR ( 'NONE', #530, 100.0000000000000000 ) ;
#388 = ORIENTED_EDGE ( 'NONE', *, *, #1097, .F. ) ;
#389 = CARTESIAN_POINT ( 'NONE',  ( 2.000000000000000444, 1.500000000000000666, 0.000000000000000000 ) ) ;
#390 = ORIENTED_EDGE ( 'NONE', *, *, #973, .T. ) ;
#391 = DIRECTION ( 'NONE',  ( -0.8660254037844360431, -0.5000000000000045519, 0.000000000000000000 ) ) ;
#392 = SURFACE_STYLE_FILL_AREA ( #108 ) ;
#393 = ORIENTED_EDGE ( 'NONE', *, *, #782, .F. ) ;
#394 =( NAMED_UNIT ( * ) PLANE_ANGLE_UNIT ( ) SI_UNIT ( $, .RADIAN. ) );
#395 = ORIENTED_EDGE ( 'NONE', *, *, #1077, .T. ) ;
#396 = CYLINDRICAL_SURFACE ( 'NONE', #384, 0.3000000000000000444 ) ;
#397 = EDGE_CURVE ( 'NONE', #876, #146, #492, .T. ) ;
#398 = DIRECTION ( 'NONE',  ( 1.000000000000000000, 0.000000000000000000, 0.000000000000000000 ) ) ;
#399 = ORIENTED_EDGE ( 'NONE', *, *, #697, .F. ) ;
#400 = ORIENTED_EDGE ( 'NONE', *, *, #1054, .T. ) ;
#401 = LINE ( 'NONE', #724, #938 ) ;
#402 = AXIS2_PLACEMENT_3D ( 'NONE', #760, #747, #403 ) ;
#403 = DIRECTION ( 'NONE',  ( 0.000000000000000000, -1.000000000000000000, 0.000000000000000000 ) ) ;
#404 = VECTOR ( 'NONE', #889, 100.0000000000000000 ) ;
#405 = FACE_OUTER_BOUND ( 'NONE', #893, .T. ) ;
#406 = ORIENTED_EDGE ( 'NONE', *, *, #474, .F. ) ;
#407 = PLANE ( 'NONE',  #723 ) ;
#408 = EDGE_CURVE ( 'NONE', #917, #178, #45, .T. ) ;
#409 = CARTESIAN_POINT ( 'NONE',  ( 2.000000000000000444, -0.4099999999999999201, 0.1349999999999999534 ) ) ;
#410 = CARTESIAN_POINT ( 'NONE',  ( 1.364999999999995328, 16.63499999999999801, 0.6350000000000000089 ) ) ;
#411 = ORIENTED_EDGE ( 'NONE', *, *, #21, .T. ) ;
#412 = CARTESIAN_POINT ( 'NONE',  ( 1.364999999999995328, 16.63499999999999801, 0.3175000000000000044 ) ) ;
#413 = DIRECTION ( 'NONE',  ( 0.000000000000000000, 1.000000000000000000, 0.000000000000000000 ) ) ;
#414 = DIRECTION ( 'NONE',  ( 0.000000000000000000, -1.000000000000000000, 0.000000000000000000 ) ) ;
#415 = VERTEX_POINT ( 'NONE', #924 ) ;
#416 = PLANE ( 'NONE',  #125 ) ;
#417 = CARTESIAN_POINT ( 'NONE',  ( 0.000000000000000000, 0.000000000000000000, 0.000000000000000000 ) ) ;
#418 = AXIS2_PLACEMENT_3D ( 'NONE', #417, #642, #59 ) ;
#419 = DIRECTION ( 'NONE',  ( -0.8660254037844361541, 0.5000000000000042188, 0.000000000000000000 ) ) ;
#420 = VECTOR ( 'NONE', #576, 100.0000000000000000 ) ;
#421 = AXIS2_PLACEMENT_3D ( 'NONE', #144, #830, #419 ) ;
#422 = ORIENTED_EDGE ( 'NONE', *, *, #346, .F. ) ;
#423 = CARTESIAN_POINT ( 'NONE',  ( 2.000000000000000444, 0.4100000000000001421, 0.1349999999999999534 ) ) ;
#424 = CARTESIAN_POINT ( 'NONE',  ( -2.000000000000001776, 1.364999999999999991, 0.3175000000000000044 ) ) ;
#425 = DIRECTION ( 'NONE',  ( 0.000000000000000000, 1.000000000000000000, 0.000000000000000000 ) ) ;
#426 = ORIENTED_EDGE ( 'NONE', *, *, #1047, .F. ) ;
#427 = DIRECTION ( 'NONE',  ( 0.000000000000000000, 0.000000000000000000, -1.000000000000000000 ) ) ;
#428 = EDGE_CURVE ( 'NONE', #815, #157, #823, .T. ) ;
#429 = PLANE ( 'NONE',  #744 ) ;
#430 = CARTESIAN_POINT ( 'NONE',  ( 1.499999999999999778, 2.000000000000000444, 0.000000000000000000 ) ) ;
#431 = ORIENTED_EDGE ( 'NONE', *, *, #408, .F. ) ;
#432 = LINE ( 'NONE', #607, #649 ) ;
#433 = DIRECTION ( 'NONE',  ( -1.000000000000000000, -4.818676322157799347E-16, 0.000000000000000000 ) ) ;
#434 = VECTOR ( 'NONE', #811, 100.0000000000000000 ) ;
#435 = ORIENTED_EDGE ( 'NONE', *, *, #1015, .T. ) ;
#436 = DIRECTION ( 'NONE',  ( -0.000000000000000000, 0.000000000000000000, 1.000000000000000000 ) ) ;
#437 = CLOSED_SHELL ( 'NONE', ( #379, #81, #441, #142, #275, #134, #869, #181, #998, #890, #1021, #522, #104, #360, #920, #558, #822, #48, #1056, #851, #226, #709, #1090, #201, #490, #91, #685, #356, #372, #896, #801, #798, #385, #34 ) ) ;
#438 = VECTOR ( 'NONE', #641, 100.0000000000000000 ) ;
#439 = ORIENTED_EDGE ( 'NONE', *, *, #218, .T. ) ;
#440 = AXIS2_PLACEMENT_3D ( 'NONE', #962, #727, #113 ) ;
#441 = ADVANCED_FACE ( 'NONE', ( #668, #331 ), #1010, .F. ) ;
#442 = DIRECTION ( 'NONE',  ( 1.000000000000000000, 4.818676322157799347E-16, 0.000000000000000000 ) ) ;
#443 = ORIENTED_EDGE ( 'NONE', *, *, #1035, .F. ) ;
#444 = DIRECTION ( 'NONE',  ( -0.000000000000000000, 0.000000000000000000, 1.000000000000000000 ) ) ;
#445 = CARTESIAN_POINT ( 'NONE',  ( 2.000000000000000444, -1.000000000000000000, 0.6350000000000000089 ) ) ;
#446 = ORIENTED_EDGE ( 'NONE', *, *, #738, .F. ) ;
#447 = LINE ( 'NONE', #389, #563 ) ;
#448 = ORIENTED_EDGE ( 'NONE', *, *, #58, .F. ) ;
#449 = DIRECTION ( 'NONE',  ( -0.5000000000000042188, 0.8660254037844362651, -0.000000000000000000 ) ) ;
#450 = DIRECTION ( 'NONE',  ( 0.000000000000000000, -1.000000000000000000, 0.000000000000000000 ) ) ;
#451 = VERTEX_POINT ( 'NONE', #914 ) ;
#452 = CARTESIAN_POINT ( 'NONE',  ( -1.820000000000000506, -0.4100000000000003086, 0.1349999999999999534 ) ) ;
#453 = AXIS2_PLACEMENT_3D ( 'NONE', #714, #1078, #802 ) ;
#454 = CARTESIAN_POINT ( 'NONE',  ( 0.000000000000000000, 0.000000000000000000, 0.6350000000000000089 ) ) ;
#455 = EDGE_CURVE ( 'NONE', #521, #303, #739, .T. ) ;
#456 = VECTOR ( 'NONE', #129, 100.0000000000000000 ) ;
#457 = CARTESIAN_POINT ( 'NONE',  ( 1.820000000000000506, 0.4100000000000000311, 0.6350000000000000089 ) ) ;
#458 = ORIENTED_EDGE ( 'NONE', *, *, #932, .F. ) ;
#459 = EDGE_CURVE ( 'NONE', #1079, #575, #321, .T. ) ;
#460 = ORIENTED_EDGE ( 'NONE', *, *, #857, .T. ) ;
#461 = FACE_OUTER_BOUND ( 'NONE', #988, .T. ) ;
#462 = EDGE_CURVE ( 'NONE', #182, #815, #684, .T. ) ;
#463 = ORIENTED_EDGE ( 'NONE', *, *, #218, .F. ) ;
#464 = APPLICATION_PROTOCOL_DEFINITION ( 'draft international standard', 'automotive_design', 1998, #895 ) ;
#465 = EDGE_LOOP ( 'NONE', ( #624, #38, #587, #902 ) ) ;
#466 = LINE ( 'NONE', #805, #971 ) ;
#467 = PLANE ( 'NONE',  #440 ) ;
#468 = ORIENTED_EDGE ( 'NONE', *, *, #973, .F. ) ;
#469 = CARTESIAN_POINT ( 'NONE',  ( -1.200000000000000178, 0.7679571668975719856, 0.1349999999999999534 ) ) ;
#470 = VERTEX_POINT ( 'NONE', #217 ) ;
#471 = LINE ( 'NONE', #909, #1061 ) ;
#472 = VECTOR ( 'NONE', #105, 100.0000000000000000 ) ;
#473 = VECTOR ( 'NONE', #141, 100.0000000000000000 ) ;
#474 = EDGE_CURVE ( 'NONE', #917, #119, #900, .T. ) ;
#475 = PRESENTATION_STYLE_ASSIGNMENT (( #124 ) ) ;
#476 = EDGE_CURVE ( 'NONE', #681, #964, #52, .T. ) ;
#477 = EDGE_LOOP ( 'NONE', ( #793, #820, #151, #251, #884, #1094, #757, #87, #958, #512 ) ) ;
#478 = DIRECTION ( 'NONE',  ( 0.000000000000000000, 1.000000000000000000, 0.000000000000000000 ) ) ;
#479 = VERTEX_POINT ( 'NONE', #231 ) ;
#480 = LINE ( 'NONE', #30, #667 ) ;
#481 = CARTESIAN_POINT ( 'NONE',  ( -1.500000000000000222, 2.000000000000000444, 0.000000000000000000 ) ) ;
#482 = VERTEX_POINT ( 'NONE', #751 ) ;
#483 = DIRECTION ( 'NONE',  ( -0.000000000000000000, 0.000000000000000000, 1.000000000000000000 ) ) ;
#484 = VERTEX_POINT ( 'NONE', #326 ) ;
#485 = DIRECTION ( 'NONE',  ( 0.000000000000000000, -1.000000000000000000, 0.000000000000000000 ) ) ;
#486 = DIRECTION ( 'NONE',  ( 0.000000000000000000, 0.000000000000000000, -1.000000000000000000 ) ) ;
#487 = CARTESIAN_POINT ( 'NONE',  ( -2.000000000000000888, 1.499999999999999334, 0.000000000000000000 ) ) ;
#488 = VERTEX_POINT ( 'NONE', #235 ) ;
#489 = LINE ( 'NONE', #816, #777 ) ;
#490 = ADVANCED_FACE ( 'NONE', ( #371 ), #429, .F. ) ;
#491 = VECTOR ( 'NONE', #1055, 100.0000000000000000 ) ;
#492 = LINE ( 'NONE', #1101, #293 ) ;
#493 = VECTOR ( 'NONE', #336, 100.0000000000000000 ) ;
#494 = DIRECTION ( 'NONE',  ( 0.000000000000000000, -1.000000000000000000, 0.000000000000000000 ) ) ;
#495 = AXIS2_PLACEMENT_3D ( 'NONE', #981, #806, #633 ) ;
#496 = EDGE_LOOP ( 'NONE', ( #698, #867, #700, #348, #431, #13, #135, #206, #638, #247, #208, #380 ) ) ;
#497 = LINE ( 'NONE', #103, #334 ) ;
#498 = EDGE_CURVE ( 'NONE', #290, #241, #514, .T. ) ;
#499 = FACE_OUTER_BOUND ( 'NONE', #465, .T. ) ;
#500 = LINE ( 'NONE', #1000, #240 ) ;
#501 = ORIENTED_EDGE ( 'NONE', *, *, #581, .F. ) ;
#502 = LINE ( 'NONE', #837, #493 ) ;
#503 = CARTESIAN_POINT ( 'NONE',  ( 0.7679571668975722076, 1.199999999999999956, 0.1349999999999999534 ) ) ;
#504 = CARTESIAN_POINT ( 'NONE',  ( 0.000000000000000000, 0.000000000000000000, 0.1349999999999999534 ) ) ;
#505 = EDGE_LOOP ( 'NONE', ( #730, #953, #742, #781 ) ) ;
#506 = DIRECTION ( 'NONE',  ( -0.000000000000000000, 0.000000000000000000, 1.000000000000000000 ) ) ;
#507 = LINE ( 'NONE', #1016, #180 ) ;
#508 = AXIS2_PLACEMENT_3D ( 'NONE', #910, #1091, #149 ) ;
#509 = CYLINDRICAL_SURFACE ( 'NONE', #511, 2.500000000000000000 ) ;
#510 = EDGE_CURVE ( 'NONE', #451, #876, #622, .T. ) ;
#511 = AXIS2_PLACEMENT_3D ( 'NONE', #254, #167, #425 ) ;
#512 = ORIENTED_EDGE ( 'NONE', *, *, #769, .F. ) ;
#513 = DIRECTION ( 'NONE',  ( -0.000000000000000000, 0.000000000000000000, 1.000000000000000000 ) ) ;
#514 = LINE ( 'NONE', #852, #197 ) ;
#515 = DIRECTION ( 'NONE',  ( -0.000000000000000000, 0.000000000000000000, 1.000000000000000000 ) ) ;
#516 = ORIENTED_EDGE ( 'NONE', *, *, #916, .T. ) ;
#517 = LINE ( 'NONE', #965, #198 ) ;
#518 = DIRECTION ( 'NONE',  ( -2.312964634635742957E-16, 1.000000000000000000, 0.000000000000000000 ) ) ;
#519 = ORIENTED_EDGE ( 'NONE', *, *, #854, .T. ) ;
#520 = CARTESIAN_POINT ( 'NONE',  ( 0.7679571668975722076, 1.199999999999999956, 0.6350000000000000089 ) ) ;
#521 = VERTEX_POINT ( 'NONE', #424 ) ;
#522 = ADVANCED_FACE ( 'NONE', ( #791 ), #279, .F. ) ;
#523 = CARTESIAN_POINT ( 'NONE',  ( 1.364999999999999991, 2.000000000000001776, 0.6350000000000000089 ) ) ;
#524 = ORIENTED_EDGE ( 'NONE', *, *, #96, .T. ) ;
#525 = VECTOR ( 'NONE', #1052, 100.0000000000000000 ) ;
#526 = CARTESIAN_POINT ( 'NONE',  ( -1.200000000000000178, 0.7679571668975719856, 0.1349999999999999534 ) ) ;
#527 = VECTOR ( 'NONE', #53, 100.0000000000000000 ) ;
#528 = UNCERTAINTY_MEASURE_WITH_UNIT (LENGTH_MEASURE( 1.000000000000000082E-05 ), #212, 'distance_accuracy_value', 'NONE');
#529 = VERTEX_POINT ( 'NONE', #8 ) ;
#530 = DIRECTION ( 'NONE',  ( -0.000000000000000000, 0.000000000000000000, 1.000000000000000000 ) ) ;
#531 = EDGE_LOOP ( 'NONE', ( #439, #911, #645, #912 ) ) ;
#532 = CARTESIAN_POINT ( 'NONE',  ( -1.500000000000000222, 2.000000000000000444, 0.000000000000000000 ) ) ;
#533 = DIRECTION ( 'NONE',  ( 0.5000000000000043299, -0.8660254037844362651, 0.000000000000000000 ) ) ;
#534 = EDGE_CURVE ( 'NONE', #303, #693, #342, .T. ) ;
#535 = CARTESIAN_POINT ( 'NONE',  ( -0.7679571668975722076, 1.199999999999999956, 0.6350000000000000089 ) ) ;
#536 = EDGE_CURVE ( 'NONE', #128, #804, #507, .T. ) ;
#537 = ORIENTED_EDGE ( 'NONE', *, *, #656, .F. ) ;
#538 = FACE_OUTER_BOUND ( 'NONE', #1012, .T. ) ;
#539 = ORIENTED_EDGE ( 'NONE', *, *, #299, .T. ) ;
#540 = LINE ( 'NONE', #874, #861 ) ;
#541 = CARTESIAN_POINT ( 'NONE',  ( -1.200000000000000178, 0.7679571668975719856, 0.1349999999999999534 ) ) ;
#542 = VERTEX_POINT ( 'NONE', #770 ) ;
#543 = DIRECTION ( 'NONE',  ( -0.000000000000000000, 0.000000000000000000, 1.000000000000000000 ) ) ;
#544 = EDGE_CURVE ( 'NONE', #479, #887, #701, .T. ) ;
#545 = ORIENTED_EDGE ( 'NONE', *, *, #474, .T. ) ;
#546 = CARTESIAN_POINT ( 'NONE',  ( 1.820000000000000506, -0.4099999999999998646, 0.1349999999999999534 ) ) ;
#547 = CIRCLE ( 'NONE', #295, 0.3000000000000000444 ) ;
#548 = CARTESIAN_POINT ( 'NONE',  ( 1.820000000000000506, -0.4099999999999998646, 0.1349999999999999534 ) ) ;
#549 = ORIENTED_EDGE ( 'NONE', *, *, #692, .F. ) ;
#550 = CARTESIAN_POINT ( 'NONE',  ( -2.000000000000000444, -1.000000000000000000, 0.000000000000000000 ) ) ;
#551 = ORIENTED_EDGE ( 'NONE', *, *, #775, .T. ) ;
#552 = DIRECTION ( 'NONE',  ( -0.000000000000000000, 0.000000000000000000, 1.000000000000000000 ) ) ;
#553 = LINE ( 'NONE', #373, #703 ) ;
#554 = ORIENTED_EDGE ( 'NONE', *, *, #1049, .F. ) ;
#555 = DIRECTION ( 'NONE',  ( 0.000000000000000000, -1.000000000000000000, 0.000000000000000000 ) ) ;
#556 = ORIENTED_EDGE ( 'NONE', *, *, #1049, .T. ) ;
#557 = CARTESIAN_POINT ( 'NONE',  ( -1.200000000000000178, 0.7679571668975719856, 0.1349999999999999534 ) ) ;
#558 = ADVANCED_FACE ( 'NONE', ( #461 ), #618, .F. ) ;
#559 = LINE ( 'NONE', #308, #148 ) ;
#560 = VERTEX_POINT ( 'NONE', #764 ) ;
#561 = CARTESIAN_POINT ( 'NONE',  ( -1.820000000000000506, -0.4100000000000003086, 0.1349999999999999534 ) ) ;
#562 = ORIENTED_EDGE ( 'NONE', *, *, #589, .F. ) ;
#563 = VECTOR ( 'NONE', #543, 100.0000000000000000 ) ;
#564 = FACE_OUTER_BOUND ( 'NONE', #736, .T. ) ;
#565 = AXIS2_PLACEMENT_3D ( 'NONE', #546, #533, #594 ) ;
#566 = AXIS2_PLACEMENT_3D ( 'NONE', #1024, #1003, #242 ) ;
#567 = PLANE ( 'NONE',  #402 ) ;
#568 = ORIENTED_EDGE ( 'NONE', *, *, #1035, .T. ) ;
#569 = CARTESIAN_POINT ( 'NONE',  ( -1.200000000000000178, 0.7679571668975719856, 0.6350000000000000089 ) ) ;
#570 = EDGE_LOOP ( 'NONE', ( #728, #799, #634, #1082 ) ) ;
#571 = CARTESIAN_POINT ( 'NONE',  ( -2.000000000000000444, 0.4099999999999996980, 0.1349999999999999534 ) ) ;
#572 = DIRECTION ( 'NONE',  ( 2.385670792109557660E-16, -1.000000000000000000, 0.000000000000000000 ) ) ;
#573 = DIRECTION ( 'NONE',  ( -1.000000000000000000, -4.818676322157798361E-16, 0.000000000000000000 ) ) ;
#574 = EDGE_CURVE ( 'NONE', #945, #1110, #713, .T. ) ;
#575 = VERTEX_POINT ( 'NONE', #191 ) ;
#576 = DIRECTION ( 'NONE',  ( 1.000000000000000000, 2.385670792109557660E-16, 0.000000000000000000 ) ) ;
#577 = PLANE ( 'NONE',  #123 ) ;
#578 = ORIENTED_EDGE ( 'NONE', *, *, #536, .F. ) ;
#579 = ORIENTED_EDGE ( 'NONE', *, *, #670, .T. ) ;
#580 = CARTESIAN_POINT ( 'NONE',  ( 0.000000000000000000, 0.000000000000000000, 0.6350000000000000089 ) ) ;
#581 = EDGE_CURVE ( 'NONE', #157, #1002, #216, .T. ) ;
#582 = AXIS2_PLACEMENT_3D ( 'NONE', #907, #203, #716 ) ;
#583 = AXIS2_PLACEMENT_3D ( 'NONE', #412, #758, #593 ) ;
#584 = CARTESIAN_POINT ( 'NONE',  ( 0.000000000000000000, 0.000000000000000000, 0.000000000000000000 ) ) ;
#585 = DIRECTION ( 'NONE',  ( 0.000000000000000000, 0.000000000000000000, 1.000000000000000000 ) ) ;
#586 = STYLED_ITEM ( 'NONE', ( #475 ), #289 ) ;
#587 = ORIENTED_EDGE ( 'NONE', *, *, #455, .F. ) ;
#588 = CYLINDRICAL_SURFACE ( 'NONE', #686, 2.500000000000000000 ) ;
#589 = EDGE_CURVE ( 'NONE', #415, #964, #960, .T. ) ;
#590 = DIRECTION ( 'NONE',  ( 1.000000000000000000, 2.385670792109557660E-16, 0.000000000000000000 ) ) ;
#591 = DIRECTION ( 'NONE',  ( 1.000000000000000000, 0.000000000000000000, 0.000000000000000000 ) ) ;
#592 = ORIENTED_EDGE ( 'NONE', *, *, #652, .F. ) ;
#593 = DIRECTION ( 'NONE',  ( 3.067291018426574134E-16, -1.000000000000000000, 0.000000000000000000 ) ) ;
#594 = DIRECTION ( 'NONE',  ( 0.8660254037844361541, 0.5000000000000042188, 0.000000000000000000 ) ) ;
#595 = EDGE_CURVE ( 'NONE', #470, #1073, #845, .T. ) ;
#596 = PLANE ( 'NONE',  #421 ) ;
#597 = EDGE_LOOP ( 'NONE', ( #1120, #749, #132, #562, #353, #306, #281, #463, #554, #878, #448, #1115, #262, #287, #319, #690, #213, #1088, #140, #393, #65, #537, #11, #717, #660, #1069 ) ) ;
#598 = CARTESIAN_POINT ( 'NONE',  ( -1.820000000000000506, 0.4099999999999995870, 0.6350000000000000089 ) ) ;
#599 = CARTESIAN_POINT ( 'NONE',  ( -1.364999999999998215, 1.364999999999999991, 0.6350000000000000089 ) ) ;
#600 = VECTOR ( 'NONE', #483, 100.0000000000000000 ) ;
#601 = FACE_OUTER_BOUND ( 'NONE', #496, .T. ) ;
#602 = VECTOR ( 'NONE', #370, 100.0000000000000000 ) ;
#603 = ORIENTED_EDGE ( 'NONE', *, *, #1001, .T. ) ;
#604 = PLANE ( 'NONE',  #1042 ) ;
#605 = LINE ( 'NONE', #787, #687 ) ;
#606 = ORIENTED_EDGE ( 'NONE', *, *, #1097, .T. ) ;
#607 = CARTESIAN_POINT ( 'NONE',  ( -1.364999999999999991, 16.63499999999999801, 0.6350000000000000089 ) ) ;
#608 = PRODUCT_RELATED_PRODUCT_CATEGORY ( 'part', '', ( #1081 ) ) ;
#609 = UNCERTAINTY_MEASURE_WITH_UNIT (LENGTH_MEASURE( 1.000000000000000082E-05 ), #812, 'distance_accuracy_value', 'NONE');
#610 = ORIENTED_EDGE ( 'NONE', *, *, #886, .T. ) ;
#611 = DIRECTION ( 'NONE',  ( 4.818676322157799347E-16, -1.000000000000000000, 0.000000000000000000 ) ) ;
#612 = ORIENTED_EDGE ( 'NONE', *, *, #534, .T. ) ;
#613 = LINE ( 'NONE', #625, #72 ) ;
#614 = CARTESIAN_POINT ( 'NONE',  ( -1.820000000000000506, -0.4100000000000003086, 0.6350000000000000089 ) ) ;
#615 = ORIENTED_EDGE ( 'NONE', *, *, #786, .T. ) ;
#616 = DIRECTION ( 'NONE',  ( -0.000000000000000000, 0.000000000000000000, 1.000000000000000000 ) ) ;
#617 = EDGE_CURVE ( 'NONE', #654, #335, #933, .T. ) ;
#618 = PLANE ( 'NONE',  #565 ) ;
#619 = PLANE ( 'NONE',  #828 ) ;
#620 = ORIENTED_EDGE ( 'NONE', *, *, #455, .T. ) ;
#621 = LINE ( 'NONE', #689, #602 ) ;
#622 = LINE ( 'NONE', #367, #827 ) ;
#623 = EDGE_CURVE ( 'NONE', #887, #265, #540, .T. ) ;
#624 = ORIENTED_EDGE ( 'NONE', *, *, #782, .T. ) ;
#625 = CARTESIAN_POINT ( 'NONE',  ( 1.199999999999999956, -0.7679571668975722076, 0.1349999999999999534 ) ) ;
#626 = ORIENTED_EDGE ( 'NONE', *, *, #1001, .F. ) ;
#627 = CARTESIAN_POINT ( 'NONE',  ( 2.000000000000000444, -0.4099999999999999201, 0.6350000000000000089 ) ) ;
#628 = ORIENTED_EDGE ( 'NONE', *, *, #769, .T. ) ;
#629 = PLANE ( 'NONE',  #582 ) ;
#630 = ORIENTED_EDGE ( 'NONE', *, *, #935, .T. ) ;
#631 = LINE ( 'NONE', #313, #456 ) ;
#632 = VECTOR ( 'NONE', #183, 100.0000000000000000 ) ;
#633 = DIRECTION ( 'NONE',  ( 0.000000000000000000, -1.000000000000000000, 0.000000000000000000 ) ) ;
#634 = ORIENTED_EDGE ( 'NONE', *, *, #574, .T. ) ;
#635 = DIRECTION ( 'NONE',  ( -0.000000000000000000, 0.000000000000000000, 1.000000000000000000 ) ) ;
#636 = ORIENTED_EDGE ( 'NONE', *, *, #961, .F. ) ;
#637 = CARTESIAN_POINT ( 'NONE',  ( 2.000000000000000444, -0.4099999999999999201, 0.1349999999999999534 ) ) ;
#638 = ORIENTED_EDGE ( 'NONE', *, *, #305, .T. ) ;
#639 = APPLICATION_PROTOCOL_DEFINITION ( 'draft international standard', 'automotive_design', 1998, #1011 ) ;
#640 = ORIENTED_EDGE ( 'NONE', *, *, #188, .F. ) ;
#641 = DIRECTION ( 'NONE',  ( -0.000000000000000000, 0.000000000000000000, 1.000000000000000000 ) ) ;
#642 = DIRECTION ( 'NONE',  ( 0.000000000000000000, 0.000000000000000000, 1.000000000000000000 ) ) ;
#643 = VERTEX_POINT ( 'NONE', #599 ) ;
#644 = LINE ( 'NONE', #899, #600 ) ;
#645 = ORIENTED_EDGE ( 'NONE', *, *, #595, .F. ) ;
#646 = LINE ( 'NONE', #224, #404 ) ;
#647 = VECTOR ( 'NONE', #337, 100.0000000000000000 ) ;
#648 = EDGE_CURVE ( 'NONE', #774, #1036, #939, .T. ) ;
#649 = VECTOR ( 'NONE', #694, 100.0000000000000000 ) ;
#650 = VECTOR ( 'NONE', #848, 100.0000000000000000 ) ;
#651 = PLANE ( 'NONE',  #1025 ) ;
#652 = EDGE_CURVE ( 'NONE', #374, #888, #100, .T. ) ;
#653 = CARTESIAN_POINT ( 'NONE',  ( -1.364999999999998215, 2.000000000000000444, 0.000000000000000000 ) ) ;
#654 = VERTEX_POINT ( 'NONE', #1048 ) ;
#655 = DIRECTION ( 'NONE',  ( 0.000000000000000000, -1.000000000000000000, 0.000000000000000000 ) ) ;
#656 = EDGE_CURVE ( 'NONE', #898, #991, #879, .T. ) ;
#657 = DIRECTION ( 'NONE',  ( -0.000000000000000000, 0.000000000000000000, 1.000000000000000000 ) ) ;
#658 = EDGE_CURVE ( 'NONE', #979, #521, #1070, .T. ) ;
#659 = ORIENTED_EDGE ( 'NONE', *, *, #1102, .T. ) ;
#660 = ORIENTED_EDGE ( 'NONE', *, *, #153, .F. ) ;
#661 = CARTESIAN_POINT ( 'NONE',  ( -2.000000000000000444, -1.000000000000000000, 0.6350000000000000089 ) ) ;
#662 = DIRECTION ( 'NONE',  ( -0.000000000000000000, 0.000000000000000000, 1.000000000000000000 ) ) ;
#663 = CARTESIAN_POINT ( 'NONE',  ( 0.000000000000000000, 0.000000000000000000, 0.3175000000000000044 ) ) ;
#664 = EDGE_LOOP ( 'NONE', ( #539, #813, #1057, #1040 ) ) ;
#665 = DIRECTION ( 'NONE',  ( -0.8660254037844360431, -0.5000000000000045519, 0.000000000000000000 ) ) ;
#666 = PRODUCT_DEFINITION_FORMATION_WITH_SPECIFIED_SOURCE ( 'ANY', '', #1081, .NOT_KNOWN. ) ;
#667 = VECTOR ( 'NONE', #377, 100.0000000000000000 ) ;
#668 = FACE_BOUND ( 'NONE', #168, .T. ) ;
#669 = EDGE_LOOP ( 'NONE', ( #161, #695, #435, #323 ) ) ;
#670 = EDGE_CURVE ( 'NONE', #1118, #335, #471, .T. ) ;
#671 = VERTEX_POINT ( 'NONE', #230 ) ;
#672 = DIRECTION ( 'NONE',  ( 0.8660254037844362651, 0.5000000000000043299, 0.000000000000000000 ) ) ;
#673 = EDGE_CURVE ( 'NONE', #116, #1099, #489, .T. ) ;
#674 = DIRECTION ( 'NONE',  ( -1.000000000000000000, 4.818676322157799347E-16, -0.000000000000000000 ) ) ;
#675 = CARTESIAN_POINT ( 'NONE',  ( 2.000000000000000444, -1.000000000000000222, 0.000000000000000000 ) ) ;
#676 = VERTEX_POINT ( 'NONE', #718 ) ;
#677 = DIRECTION ( 'NONE',  ( 0.000000000000000000, 0.000000000000000000, -1.000000000000000000 ) ) ;
#678 = DIRECTION ( 'NONE',  ( 0.000000000000000000, 0.000000000000000000, 1.000000000000000000 ) ) ;
#679 = LINE ( 'NONE', #1043, #57 ) ;
#680 = PRODUCT_DEFINITION_SHAPE ( 'NONE', 'NONE',  #82 ) ;
#681 = VERTEX_POINT ( 'NONE', #637 ) ;
#682 = CARTESIAN_POINT ( 'NONE',  ( 0.4100000000000000311, 2.000000000000000444, 0.6350000000000000089 ) ) ;
#683 = EDGE_CURVE ( 'NONE', #671, #1118, #301, .T. ) ;
#684 = CIRCLE ( 'NONE', #418, 0.3000000000000000444 ) ;
#685 = ADVANCED_FACE ( 'NONE', ( #564 ), #396, .F. ) ;
#686 = AXIS2_PLACEMENT_3D ( 'NONE', #580, #152, #252 ) ;
#687 = VECTOR ( 'NONE', #515, 100.0000000000000000 ) ;
#688 = EDGE_LOOP ( 'NONE', ( #620, #612, #233, #636, #640 ) ) ;
#689 = CARTESIAN_POINT ( 'NONE',  ( 1.364999999999999991, 1.364999999999998215, 0.3175000000000000044 ) ) ;
#690 = ORIENTED_EDGE ( 'NONE', *, *, #617, .F. ) ;
#691 = DIRECTION ( 'NONE',  ( 4.818676322157798361E-16, 1.000000000000000000, 0.000000000000000000 ) ) ;
#692 = EDGE_CURVE ( 'NONE', #172, #116, #1083, .T. ) ;
#693 = VERTEX_POINT ( 'NONE', #39 ) ;
#694 = DIRECTION ( 'NONE',  ( -1.249637081581196951E-16, 1.000000000000000000, -0.000000000000000000 ) ) ;
#695 = ORIENTED_EDGE ( 'NONE', *, *, #986, .T. ) ;
#696 = DIRECTION ( 'NONE',  ( 0.8660254037844362651, -0.5000000000000039968, 0.000000000000000000 ) ) ;
#697 = EDGE_CURVE ( 'NONE', #1030, #128, #320, .T. ) ;
#698 = ORIENTED_EDGE ( 'NONE', *, *, #397, .T. ) ;
#699 = DIRECTION ( 'NONE',  ( 4.818676322157798361E-16, 1.000000000000000000, 0.000000000000000000 ) ) ;
#700 = ORIENTED_EDGE ( 'NONE', *, *, #459, .T. ) ;
#701 = LINE ( 'NONE', #1053, #472 ) ;
#702 = DIRECTION ( 'NONE',  ( -2.312964634635742957E-16, 1.000000000000000000, 0.000000000000000000 ) ) ;
#703 = VECTOR ( 'NONE', #732, 100.0000000000000142 ) ;
#704 = ORIENTED_EDGE ( 'NONE', *, *, #325, .F. ) ;
#705 = AXIS2_PLACEMENT_3D ( 'NONE', #266, #173, #179 ) ;
#706 = FACE_OUTER_BOUND ( 'NONE', #1018, .T. ) ;
#707 = ORIENTED_EDGE ( 'NONE', *, *, #311, .T. ) ;
#708 = DIRECTION ( 'NONE',  ( -1.249637081581196951E-16, 1.000000000000000000, -0.000000000000000000 ) ) ;
#709 = ADVANCED_FACE ( 'NONE', ( #44 ), #743, .F. ) ;
#710 = CARTESIAN_POINT ( 'NONE',  ( -0.4100000000000000311, 2.000000000000000444, 0.6350000000000000089 ) ) ;
#711 = ORIENTED_EDGE ( 'NONE', *, *, #346, .T. ) ;
#712 = PLANE ( 'NONE',  #33 ) ;
#713 = LINE ( 'NONE', #1113, #292 ) ;
#714 = CARTESIAN_POINT ( 'NONE',  ( 0.000000000000000000, 0.000000000000000000, 0.6350000000000000089 ) ) ;
#715 = EDGE_LOOP ( 'NONE', ( #84, #704, #446, #202 ) ) ;
#716 = DIRECTION ( 'NONE',  ( -1.000000000000000000, -4.818676322157798361E-16, 0.000000000000000000 ) ) ;
#717 = ORIENTED_EDGE ( 'NONE', *, *, #1112, .F. ) ;
#718 = CARTESIAN_POINT ( 'NONE',  ( 1.199999999999999956, 0.7679571668975723187, 0.1349999999999999534 ) ) ;
#719 = EDGE_CURVE ( 'NONE', #804, #991, #992, .T. ) ;
#720 = AXIS2_PLACEMENT_3D ( 'NONE', #722, #555, #127 ) ;
#721 = ORIENTED_EDGE ( 'NONE', *, *, #244, .F. ) ;
#722 = CARTESIAN_POINT ( 'NONE',  ( 0.000000000000000000, 0.000000000000000000, 0.000000000000000000 ) ) ;
#723 = AXIS2_PLACEMENT_3D ( 'NONE', #919, #677, #750 ) ;
#724 = CARTESIAN_POINT ( 'NONE',  ( -2.000000000000000000, -1.500000000000000888, 0.000000000000000000 ) ) ;
#725 = AXIS2_PLACEMENT_3D ( 'NONE', #504, #1017, #46 ) ;
#726 = VECTOR ( 'NONE', #611, 100.0000000000000000 ) ;
#727 = DIRECTION ( 'NONE',  ( -1.000000000000000000, 0.000000000000000000, 0.000000000000000000 ) ) ;
#728 = ORIENTED_EDGE ( 'NONE', *, *, #648, .F. ) ;
#729 = CARTESIAN_POINT ( 'NONE',  ( 0.7679571668975722076, 1.199999999999999956, 0.1349999999999999534 ) ) ;
#730 = ORIENTED_EDGE ( 'NONE', *, *, #58, .T. ) ;
#731 = CARTESIAN_POINT ( 'NONE',  ( 1.364999999999999991, 1.364999999999998215, 0.3175000000000000044 ) ) ;
#732 = DIRECTION ( 'NONE',  ( 0.8660254037844362651, 0.5000000000000042188, 0.000000000000000000 ) ) ;
#733 = ORIENTED_EDGE ( 'NONE', *, *, #239, .T. ) ;
#734 = CARTESIAN_POINT ( 'NONE',  ( 2.000000000000000444, 1.500000000000000666, 0.6350000000000000089 ) ) ;
#735 = EDGE_CURVE ( 'NONE', #178, #575, #1076, .T. ) ;
#736 = EDGE_LOOP ( 'NONE', ( #721, #955, #855, #309 ) ) ;
#737 = DIRECTION ( 'NONE',  ( -0.000000000000000000, 0.000000000000000000, 1.000000000000000000 ) ) ;
#738 = EDGE_CURVE ( 'NONE', #102, #1030, #821, .T. ) ;
#739 = LINE ( 'NONE', #245, #236 ) ;
#740 = DIRECTION ( 'NONE',  ( 0.000000000000000000, 0.000000000000000000, 1.000000000000000000 ) ) ;
#741 = CARTESIAN_POINT ( 'NONE',  ( 1.364999999999995328, 16.63499999999999801, 0.3175000000000000044 ) ) ;
#742 = ORIENTED_EDGE ( 'NONE', *, *, #1072, .F. ) ;
#743 = PLANE ( 'NONE',  #350 ) ;
#744 = AXIS2_PLACEMENT_3D ( 'NONE', #77, #20, #274 ) ;
#745 = VECTOR ( 'NONE', #147, 100.0000000000000000 ) ;
#746 = EDGE_CURVE ( 'NONE', #964, #488, #631, .T. ) ;
#747 = DIRECTION ( 'NONE',  ( 0.000000000000000000, 0.000000000000000000, 1.000000000000000000 ) ) ;
#748 = DIRECTION ( 'NONE',  ( 0.000000000000000000, 1.000000000000000000, 0.000000000000000000 ) ) ;
#749 = ORIENTED_EDGE ( 'NONE', *, *, #904, .F. ) ;
#750 = DIRECTION ( 'NONE',  ( 0.000000000000000000, 1.000000000000000000, 0.000000000000000000 ) ) ;
#751 = CARTESIAN_POINT ( 'NONE',  ( 1.820000000000000506, -0.4099999999999998646, 0.1349999999999999534 ) ) ;
#752 = CARTESIAN_POINT ( 'NONE',  ( -2.000000000000000444, -1.000000000000000000, 0.6350000000000000089 ) ) ;
#753 = EDGE_LOOP ( 'NONE', ( #970, #628, #406, #204, #312, #98 ) ) ;
#754 = DIRECTION ( 'NONE',  ( 1.931257307898213426E-16, -1.000000000000000000, 0.000000000000000000 ) ) ;
#755 = FACE_OUTER_BOUND ( 'NONE', #110, .T. ) ;
#756 = ORIENTED_EDGE ( 'NONE', *, *, #941, .T. ) ;
#757 = ORIENTED_EDGE ( 'NONE', *, *, #658, .T. ) ;
#758 = DIRECTION ( 'NONE',  ( -1.000000000000000000, -3.067291018426574134E-16, 0.000000000000000000 ) ) ;
#759 = VECTOR ( 'NONE', #875, 100.0000000000000000 ) ;
#760 = CARTESIAN_POINT ( 'NONE',  ( 0.000000000000000000, 0.000000000000000000, 0.1349999999999999534 ) ) ;
#761 = CARTESIAN_POINT ( 'NONE',  ( -1.820000000000000506, -0.4100000000000003086, 0.6350000000000000089 ) ) ;
#762 = ORIENTED_EDGE ( 'NONE', *, *, #153, .T. ) ;
#763 = CARTESIAN_POINT ( 'NONE',  ( 1.820000000000000506, 0.4100000000000000311, 0.1349999999999999534 ) ) ;
#764 = CARTESIAN_POINT ( 'NONE',  ( -2.000000000000000888, 1.499999999999999112, 0.3175000000000000044 ) ) ;
#765 = CARTESIAN_POINT ( 'NONE',  ( -1.500000000000000222, 2.000000000000000444, 0.000000000000000000 ) ) ;
#766 = EDGE_LOOP ( 'NONE', ( #630, #43, #388, #579 ) ) ;
#767 = DIRECTION ( 'NONE',  ( 0.000000000000000000, 1.000000000000000000, 0.000000000000000000 ) ) ;
#768 = EDGE_CURVE ( 'NONE', #917, #484, #646, .T. ) ;
#769 = EDGE_CURVE ( 'NONE', #1099, #119, #401, .T. ) ;
#770 = CARTESIAN_POINT ( 'NONE',  ( -1.199999999999999956, -0.7679571668975725407, 0.6350000000000000089 ) ) ;
#771 = DIRECTION ( 'NONE',  ( 0.000000000000000000, -1.000000000000000000, 0.000000000000000000 ) ) ;
#772 = VERTEX_POINT ( 'NONE', #122 ) ;
#773 = DIRECTION ( 'NONE',  ( 0.000000000000000000, 1.000000000000000000, 0.000000000000000000 ) ) ;
#774 = VERTEX_POINT ( 'NONE', #731 ) ;
#775 = EDGE_CURVE ( 'NONE', #815, #182, #547, .T. ) ;
#776 = PLANE ( 'NONE',  #1123 ) ;
#777 = VECTOR ( 'NONE', #976, 100.0000000000000000 ) ;
#778 = VECTOR ( 'NONE', #378, 100.0000000000000142 ) ;
#779 = ORIENTED_EDGE ( 'NONE', *, *, #1077, .F. ) ;
#780 = CARTESIAN_POINT ( 'NONE',  ( -1.364999999999998215, 1.364999999999999991, 0.3175000000000000044 ) ) ;
#781 = ORIENTED_EDGE ( 'NONE', *, *, #155, .F. ) ;
#782 = EDGE_CURVE ( 'NONE', #979, #643, #382, .T. ) ;
#783 = CARTESIAN_POINT ( 'NONE',  ( -2.000000000000000444, -0.4100000000000003642, 0.1349999999999999534 ) ) ;
#784 = VERTEX_POINT ( 'NONE', #985 ) ;
#785 = LINE ( 'NONE', #359, #844 ) ;
#786 = EDGE_CURVE ( 'NONE', #482, #681, #480, .T. ) ;
#787 = CARTESIAN_POINT ( 'NONE',  ( -1.199999999999999956, -0.7679571668975725407, 0.1349999999999999534 ) ) ;
#788 = ORIENTED_EDGE ( 'NONE', *, *, #833, .F. ) ;
#789 = LINE ( 'NONE', #860, #525 ) ;
#790 = EDGE_CURVE ( 'NONE', #991, #979, #466, .T. ) ;
#791 = FACE_OUTER_BOUND ( 'NONE', #184, .T. ) ;
#792 = VECTOR ( 'NONE', #186, 100.0000000000000000 ) ;
#793 = ORIENTED_EDGE ( 'NONE', *, *, #284, .F. ) ;
#794 = DIRECTION ( 'NONE',  ( 1.000000000000000000, 0.000000000000000000, 0.000000000000000000 ) ) ;
#795 = DIRECTION ( 'NONE',  ( -1.000000000000000000, 4.818676322157799347E-16, -0.000000000000000000 ) ) ;
#796 = LINE ( 'NONE', #710, #759 ) ;
#797 = ORIENTED_EDGE ( 'NONE', *, *, #130, .T. ) ;
#798 = ADVANCED_FACE ( 'NONE', ( #158 ), #62, .F. ) ;
#799 = ORIENTED_EDGE ( 'NONE', *, *, #963, .T. ) ;
#800 = DIRECTION ( 'NONE',  ( -1.000000000000000000, -4.818676322157799347E-16, 0.000000000000000000 ) ) ;
#801 = ADVANCED_FACE ( 'NONE', ( #76 ), #604, .F. ) ;
#802 = DIRECTION ( 'NONE',  ( 0.000000000000000000, -1.000000000000000000, 0.000000000000000000 ) ) ;
#803 = ORIENTED_EDGE ( 'NONE', *, *, #462, .T. ) ;
#804 = VERTEX_POINT ( 'NONE', #1008 ) ;
#805 = CARTESIAN_POINT ( 'NONE',  ( -2.000000000000000000, -1.500000000000000888, 0.6350000000000000089 ) ) ;
#806 = DIRECTION ( 'NONE',  ( 0.000000000000000000, 0.000000000000000000, 1.000000000000000000 ) ) ;
#807 = EDGE_LOOP ( 'NONE', ( #501, #29 ) ) ;
#808 = CARTESIAN_POINT ( 'NONE',  ( -0.7679571668975722076, 1.199999999999999956, 0.1349999999999999534 ) ) ;
#809 = VECTOR ( 'NONE', #187, 100.0000000000000000 ) ;
#810 = EDGE_LOOP ( 'NONE', ( #892, #549, #94, #298, #524, #556, #788, #358, #175, #193 ) ) ;
#811 = DIRECTION ( 'NONE',  ( 0.000000000000000000, 0.000000000000000000, -1.000000000000000000 ) ) ;
#812 =( LENGTH_UNIT ( ) NAMED_UNIT ( * ) SI_UNIT ( .CENTI., .METRE. ) );
#813 = ORIENTED_EDGE ( 'NONE', *, *, #1031, .F. ) ;
#814 = CARTESIAN_POINT ( 'NONE',  ( -2.000000000000000444, -0.4100000000000003642, 0.1349999999999999534 ) ) ;
#815 = VERTEX_POINT ( 'NONE', #1014 ) ;
#816 = CARTESIAN_POINT ( 'NONE',  ( -2.000000000000000444, -1.000000000000000000, 0.000000000000000000 ) ) ;
#817 = CARTESIAN_POINT ( 'NONE',  ( 0.000000000000000000, 0.000000000000000000, 0.3175000000000000044 ) ) ;
#818 = DIRECTION ( 'NONE',  ( 0.000000000000000000, 0.000000000000000000, -1.000000000000000000 ) ) ;
#819 = LINE ( 'NONE', #814, #952 ) ;
#820 = ORIENTED_EDGE ( 'NONE', *, *, #170, .T. ) ;
#821 = LINE ( 'NONE', #557, #1026 ) ;
#822 = ADVANCED_FACE ( 'NONE', ( #1100 ), #850, .F. ) ;
#823 = LINE ( 'NONE', #829, #969 ) ;
#824 = CARTESIAN_POINT ( 'NONE',  ( 0.7679571668975722076, 1.199999999999999956, 0.6350000000000000089 ) ) ;
#825 = ORIENTED_EDGE ( 'NONE', *, *, #683, .F. ) ;
#826 = FACE_OUTER_BOUND ( 'NONE', #1098, .T. ) ;
#827 = VECTOR ( 'NONE', #159, 100.0000000000000000 ) ;
#828 = AXIS2_PLACEMENT_3D ( 'NONE', #83, #362, #696 ) ;
#829 = CARTESIAN_POINT ( 'NONE',  ( 0.000000000000000000, -0.3000000000000000444, 0.000000000000000000 ) ) ;
#830 = DIRECTION ( 'NONE',  ( 0.5000000000000043299, 0.8660254037844362651, 0.000000000000000000 ) ) ;
#831 = VERTEX_POINT ( 'NONE', #937 ) ;
#832 = LINE ( 'NONE', #598, #922 ) ;
#833 = EDGE_CURVE ( 'NONE', #470, #529, #927, .T. ) ;
#834 = CARTESIAN_POINT ( 'NONE',  ( -1.364999999999999991, 16.63499999999999801, 0.3175000000000000044 ) ) ;
#835 = LINE ( 'NONE', #653, #109 ) ;
#836 = VERTEX_POINT ( 'NONE', #248 ) ;
#837 = CARTESIAN_POINT ( 'NONE',  ( -2.000000000000000888, 1.499999999999999112, 0.000000000000000000 ) ) ;
#838 = DIRECTION ( 'NONE',  ( 1.000000000000000000, 0.000000000000000000, 0.000000000000000000 ) ) ;
#839 = FACE_OUTER_BOUND ( 'NONE', #664, .T. ) ;
#840 = VERTEX_POINT ( 'NONE', #1019 ) ;
#841 = DIRECTION ( 'NONE',  ( -0.5000000000000042188, 0.8660254037844361541, 0.000000000000000000 ) ) ;
#842 = AXIS2_PLACEMENT_3D ( 'NONE', #469, #207, #310 ) ;
#843 = AXIS2_PLACEMENT_3D ( 'NONE', #454, #678, #283 ) ;
#844 = VECTOR ( 'NONE', #616, 100.0000000000000000 ) ;
#845 = LINE ( 'NONE', #967, #366 ) ;
#846 = VECTOR ( 'NONE', #442, 100.0000000000000000 ) ;
#847 = EDGE_CURVE ( 'NONE', #772, #898, #832, .T. ) ;
#848 = DIRECTION ( 'NONE',  ( 0.000000000000000000, 0.000000000000000000, -1.000000000000000000 ) ) ;
#849 = ORIENTED_EDGE ( 'NONE', *, *, #244, .T. ) ;
#850 = PLANE ( 'NONE',  #566 ) ;
#851 = ADVANCED_FACE ( 'NONE', ( #943 ), #330, .F. ) ;
#852 = CARTESIAN_POINT ( 'NONE',  ( 1.820000000000000506, 0.4100000000000000311, 0.6350000000000000089 ) ) ;
#853 = CARTESIAN_POINT ( 'NONE',  ( 0.4100000000000000311, 2.000000000000000444, 0.1349999999999999534 ) ) ;
#854 = EDGE_CURVE ( 'NONE', #128, #898, #1116, .T. ) ;
#855 = ORIENTED_EDGE ( 'NONE', *, *, #428, .T. ) ;
#856 = DIRECTION ( 'NONE',  ( 0.8660254037844362651, -0.5000000000000039968, 0.000000000000000000 ) ) ;
#857 = EDGE_CURVE ( 'NONE', #1073, #676, #1105, .T. ) ;
#858 = DIRECTION ( 'NONE',  ( 1.000000000000000000, 2.312964634635742957E-16, 0.000000000000000000 ) ) ;
#859 = ORIENTED_EDGE ( 'NONE', *, *, #536, .T. ) ;
#860 = CARTESIAN_POINT ( 'NONE',  ( 1.820000000000000506, -0.4099999999999998646, 0.1349999999999999534 ) ) ;
#861 = VECTOR ( 'NONE', #249, 100.0000000000000000 ) ;
#862 = VECTOR ( 'NONE', #80, 100.0000000000000000 ) ;
#863 = CARTESIAN_POINT ( 'NONE',  ( 3.673940397442060115E-17, 0.3000000000000000444, 0.000000000000000000 ) ) ;
#864 = AXIS2_PLACEMENT_3D ( 'NONE', #227, #573, #138 ) ;
#865 = VECTOR ( 'NONE', #194, 100.0000000000000000 ) ;
#866 = MECHANICAL_DESIGN_GEOMETRIC_PRESENTATION_REPRESENTATION (  '', ( #586 ), #31 ) ;
#867 = ORIENTED_EDGE ( 'NONE', *, *, #155, .T. ) ;
#868 = LINE ( 'NONE', #95, #219 ) ;
#869 = ADVANCED_FACE ( 'NONE', ( #234 ), #588, .T. ) ;
#870 = LINE ( 'NONE', #445, #923 ) ;
#871 = ORIENTED_EDGE ( 'NONE', *, *, #462, .F. ) ;
#872 = CARTESIAN_POINT ( 'NONE',  ( -2.000000000000001776, 1.364999999999999991, 0.6350000000000000089 ) ) ;
#873 = ORIENTED_EDGE ( 'NONE', *, *, #697, .T. ) ;
#874 = CARTESIAN_POINT ( 'NONE',  ( -0.4100000000000000311, 2.000000000000000444, 0.1349999999999999534 ) ) ;
#875 = DIRECTION ( 'NONE',  ( 4.818676322157799347E-16, -1.000000000000000000, 0.000000000000000000 ) ) ;
#876 = VERTEX_POINT ( 'NONE', #682 ) ;
#877 = DIRECTION ( 'NONE',  ( 1.000000000000000000, -4.818676322157798361E-16, 0.000000000000000000 ) ) ;
#878 = ORIENTED_EDGE ( 'NONE', *, *, #574, .F. ) ;
#879 = LINE ( 'NONE', #196, #383 ) ;
#880 = CARTESIAN_POINT ( 'NONE',  ( 1.820000000000000506, 0.4100000000000000311, 0.1349999999999999534 ) ) ;
#881 = VECTOR ( 'NONE', #450, 100.0000000000000000 ) ;
#882 = ORIENTED_EDGE ( 'NONE', *, *, #328, .T. ) ;
#883 = AXIS2_PLACEMENT_3D ( 'NONE', #349, #949, #877 ) ;
#884 = ORIENTED_EDGE ( 'NONE', *, *, #719, .T. ) ;
#885 = DIRECTION ( 'NONE',  ( -0.8660254037844362651, 0.5000000000000042188, 0.000000000000000000 ) ) ;
#886 = EDGE_CURVE ( 'NONE', #119, #560, #502, .T. ) ;
#887 = VERTEX_POINT ( 'NONE', #66 ) ;
#888 = VERTEX_POINT ( 'NONE', #169 ) ;
#889 = DIRECTION ( 'NONE',  ( -0.000000000000000000, 0.000000000000000000, 1.000000000000000000 ) ) ;
#890 = ADVANCED_FACE ( 'NONE', ( #826 ), #416, .F. ) ;
#891 = CARTESIAN_POINT ( 'NONE',  ( -2.000000000000000444, -0.4100000000000003642, 0.6350000000000000089 ) ) ;
#892 = ORIENTED_EDGE ( 'NONE', *, *, #255, .T. ) ;
#893 = EDGE_LOOP ( 'NONE', ( #2, #61, #1038, #1064 ) ) ;
#894 = CARTESIAN_POINT ( 'NONE',  ( -2.000000000000000888, 1.364999999999999991, 0.000000000000000000 ) ) ;
#895 = APPLICATION_CONTEXT ( 'automotive_design' ) ;
#896 = ADVANCED_FACE ( 'NONE', ( #340 ), #407, .F. ) ;
#897 = LINE ( 'NONE', #880, #351 ) ;
#898 = VERTEX_POINT ( 'NONE', #1095 ) ;
#899 = CARTESIAN_POINT ( 'NONE',  ( 1.199999999999999956, 0.7679571668975723187, 0.1349999999999999534 ) ) ;
#900 = CIRCLE ( 'NONE', #107, 2.500000000000000000 ) ;
#901 = VECTOR ( 'NONE', #913, 100.0000000000000142 ) ;
#902 = ORIENTED_EDGE ( 'NONE', *, *, #658, .F. ) ;
#903 = DIRECTION ( 'NONE',  ( -0.5000000000000045519, 0.8660254037844360431, 0.000000000000000000 ) ) ;
#904 = EDGE_CURVE ( 'NONE', #488, #1045, #324, .T. ) ;
#905 = DIRECTION ( 'NONE',  ( 0.000000000000000000, 0.000000000000000000, 1.000000000000000000 ) ) ;
#906 = ORIENTED_EDGE ( 'NONE', *, *, #1072, .T. ) ;
#907 = CARTESIAN_POINT ( 'NONE',  ( 2.000000000000000444, 0.4100000000000001421, 0.1349999999999999534 ) ) ;
#908 = ORIENTED_EDGE ( 'NONE', *, *, #683, .T. ) ;
#909 = CARTESIAN_POINT ( 'NONE',  ( -0.7679571668975722076, 1.199999999999999956, 0.1349999999999999534 ) ) ;
#910 = CARTESIAN_POINT ( 'NONE',  ( 0.000000000000000000, 0.000000000000000000, 0.000000000000000000 ) ) ;
#911 = ORIENTED_EDGE ( 'NONE', *, *, #261, .F. ) ;
#912 = ORIENTED_EDGE ( 'NONE', *, *, #833, .T. ) ;
#913 = DIRECTION ( 'NONE',  ( -0.5000000000000042188, -0.8660254037844362651, 0.000000000000000000 ) ) ;
#914 = CARTESIAN_POINT ( 'NONE',  ( 0.4099999999999999201, 1.820000000000000506, 0.6350000000000000089 ) ) ;
#915 = CARTESIAN_POINT ( 'NONE',  ( -1.820000000000000506, -0.4100000000000003086, 0.1349999999999999534 ) ) ;
#916 = EDGE_CURVE ( 'NONE', #374, #126, #497, .T. ) ;
#917 = VERTEX_POINT ( 'NONE', #532 ) ;
#918 = VECTOR ( 'NONE', #657, 100.0000000000000000 ) ;
#919 = CARTESIAN_POINT ( 'NONE',  ( 0.000000000000000000, 0.000000000000000000, 0.3175000000000000044 ) ) ;
#920 = ADVANCED_FACE ( 'NONE', ( #706 ), #19, .F. ) ;
#921 = CIRCLE ( 'NONE', #1065, 2.500000000000000000 ) ;
#922 = VECTOR ( 'NONE', #665, 100.0000000000000000 ) ;
#923 = VECTOR ( 'NONE', #280, 100.0000000000000000 ) ;
#924 = CARTESIAN_POINT ( 'NONE',  ( 1.820000000000000506, -0.4099999999999998646, 0.6350000000000000089 ) ) ;
#925 = PLANE ( 'NONE',  #89 ) ;
#926 = VERTEX_POINT ( 'NONE', #270 ) ;
#927 = LINE ( 'NONE', #423, #1106 ) ;
#928 = CYLINDRICAL_SURFACE ( 'NONE', #1007, 0.3000000000000000444 ) ;
#929 = LINE ( 'NONE', #1103, #1107 ) ;
#930 = ORIENTED_EDGE ( 'NONE', *, *, #69, .T. ) ;
#931 = DIRECTION ( 'NONE',  ( 1.000000000000000000, 1.931257307898213426E-16, 0.000000000000000000 ) ) ;
#932 = EDGE_CURVE ( 'NONE', #1075, #102, #85, .T. ) ;
#933 = LINE ( 'NONE', #73, #162 ) ;
#934 = CARTESIAN_POINT ( 'NONE',  ( -1.500000000000000222, 2.000000000000000444, 0.3175000000000000044 ) ) ;
#935 = EDGE_CURVE ( 'NONE', #335, #126, #3, .T. ) ;
#936 = ORIENTED_EDGE ( 'NONE', *, *, #961, .T. ) ;
#937 = CARTESIAN_POINT ( 'NONE',  ( 1.199999999999999956, -0.7679571668975722076, 0.1349999999999999534 ) ) ;
#938 = VECTOR ( 'NONE', #26, 100.0000000000000000 ) ;
#939 = LINE ( 'NONE', #165, #792 ) ;
#940 = CARTESIAN_POINT ( 'NONE',  ( -0.4100000000000000311, 2.000000000000000444, 0.1349999999999999534 ) ) ;
#941 = EDGE_CURVE ( 'NONE', #482, #415, #789, .T. ) ;
#942 = ORIENTED_EDGE ( 'NONE', *, *, #670, .F. ) ;
#943 = FACE_OUTER_BOUND ( 'NONE', #23, .T. ) ;
#944 = CARTESIAN_POINT ( 'NONE',  ( -2.000000000000000000, -1.500000000000000888, 0.3175000000000000044 ) ) ;
#945 = VERTEX_POINT ( 'NONE', #1046 ) ;
#946 = FACE_OUTER_BOUND ( 'NONE', #766, .T. ) ;
#947 = CARTESIAN_POINT ( 'NONE',  ( 1.199999999999999956, 0.7679571668975723187, 0.6350000000000000089 ) ) ;
#948 = ORIENTED_EDGE ( 'NONE', *, *, #904, .T. ) ;
#949 = DIRECTION ( 'NONE',  ( -4.818676322157798361E-16, -1.000000000000000000, 0.000000000000000000 ) ) ;
#950 = VECTOR ( 'NONE', #838, 100.0000000000000000 ) ;
#951 = CARTESIAN_POINT ( 'NONE',  ( 2.000000000000000444, 0.4100000000000001421, 0.6350000000000000089 ) ) ;
#952 = VECTOR ( 'NONE', #635, 100.0000000000000000 ) ;
#953 = ORIENTED_EDGE ( 'NONE', *, *, #963, .F. ) ;
#954 = CARTESIAN_POINT ( 'NONE',  ( 2.000000000000001776, 1.364999999999998437, 0.3175000000000000044 ) ) ;
#955 = ORIENTED_EDGE ( 'NONE', *, *, #775, .F. ) ;
#956 = DIRECTION ( 'NONE',  ( 1.000000000000000000, 1.931257307898213426E-16, 0.000000000000000000 ) ) ;
#957 = LINE ( 'NONE', #541, #491 ) ;
#958 = ORIENTED_EDGE ( 'NONE', *, *, #886, .F. ) ;
#959 = DIRECTION ( 'NONE',  ( 0.000000000000000000, -1.000000000000000000, 0.000000000000000000 ) ) ;
#960 = LINE ( 'NONE', #627, #647 ) ;
#961 = EDGE_CURVE ( 'NONE', #560, #484, #88, .T. ) ;
#962 = CARTESIAN_POINT ( 'NONE',  ( 2.000000000000000444, 1.500000000000000666, 0.000000000000000000 ) ) ;
#963 = EDGE_CURVE ( 'NONE', #774, #945, #621, .T. ) ;
#964 = VERTEX_POINT ( 'NONE', #364 ) ;
#965 = CARTESIAN_POINT ( 'NONE',  ( 1.199999999999999956, -0.7679571668975722076, 0.6350000000000000089 ) ) ;
#966 = ORIENTED_EDGE ( 'NONE', *, *, #286, .T. ) ;
#967 = CARTESIAN_POINT ( 'NONE',  ( 2.000000000000000444, 0.4100000000000001421, 0.1349999999999999534 ) ) ;
#968 = CARTESIAN_POINT ( 'NONE',  ( 2.000000000000000444, 1.500000000000000666, 0.3175000000000000044 ) ) ;
#969 = VECTOR ( 'NONE', #131, 100.0000000000000000 ) ;
#970 = ORIENTED_EDGE ( 'NONE', *, *, #673, .T. ) ;
#971 = VECTOR ( 'NONE', #1111, 100.0000000000000000 ) ;
#972 = DIRECTION ( 'NONE',  ( 3.067291018426574134E-16, -1.000000000000000000, 0.000000000000000000 ) ) ;
#973 = EDGE_CURVE ( 'NONE', #831, #926, #1119, .T. ) ;
#974 = CIRCLE ( 'NONE', #495, 2.500000000000000000 ) ;
#975 = ORIENTED_EDGE ( 'NONE', *, *, #652, .T. ) ;
#976 = DIRECTION ( 'NONE',  ( -1.000000000000000000, 0.000000000000000000, -0.000000000000000000 ) ) ;
#977 = CARTESIAN_POINT ( 'NONE',  ( -1.500000000000000222, 2.000000000000000444, 0.6350000000000000089 ) ) ;
#978 = EDGE_LOOP ( 'NONE', ( #1013, #35, #906, #269, #273 ) ) ;
#979 = VERTEX_POINT ( 'NONE', #872 ) ;
#980 = CARTESIAN_POINT ( 'NONE',  ( -0.4099999999999999201, 1.820000000000000506, 0.1349999999999999534 ) ) ;
#981 = CARTESIAN_POINT ( 'NONE',  ( 0.000000000000000000, 0.000000000000000000, 0.000000000000000000 ) ) ;
#982 = EDGE_LOOP ( 'NONE', ( #1059, #984, #948, #75 ) ) ;
#983 = DIRECTION ( 'NONE',  ( -2.258880508902365962E-16, 1.000000000000000000, -0.000000000000000000 ) ) ;
#984 = ORIENTED_EDGE ( 'NONE', *, *, #255, .F. ) ;
#985 = CARTESIAN_POINT ( 'NONE',  ( -1.364999999999998215, 2.000000000000001776, 0.6350000000000000089 ) ) ;
#986 = EDGE_CURVE ( 'NONE', #303, #643, #354, .T. ) ;
#987 = DIRECTION ( 'NONE',  ( 1.000000000000000000, 2.385670792109557660E-16, 0.000000000000000000 ) ) ;
#988 = EDGE_LOOP ( 'NONE', ( #707, #381, #422, #390 ) ) ;
#989 = DIRECTION ( 'NONE',  ( 0.000000000000000000, -1.000000000000000000, 0.000000000000000000 ) ) ;
#990 = VECTOR ( 'NONE', #1108, 100.0000000000000142 ) ;
#991 = VERTEX_POINT ( 'NONE', #190 ) ;
#992 = LINE ( 'NONE', #571, #259 ) ;
#993 = AXIS2_PLACEMENT_3D ( 'NONE', #93, #858, #702 ) ;
#994 = FACE_OUTER_BOUND ( 'NONE', #344, .T. ) ;
#995 = PLANE ( 'NONE',  #294 ) ;
#996 = ORIENTED_EDGE ( 'NONE', *, *, #786, .F. ) ;
#997 = CARTESIAN_POINT ( 'NONE',  ( -16.63499999999999801, 1.364999999999996438, 0.6350000000000000089 ) ) ;
#998 = ADVANCED_FACE ( 'NONE', ( #538 ), #712, .F. ) ;
#999 = FACE_OUTER_BOUND ( 'NONE', #978, .T. ) ;
#1000 = CARTESIAN_POINT ( 'NONE',  ( 2.000000000000000444, 1.364999999999998437, 0.000000000000000000 ) ) ;
#1001 = EDGE_CURVE ( 'NONE', #676, #831, #613, .T. ) ;
#1002 = VERTEX_POINT ( 'NONE', #99 ) ;
#1003 = DIRECTION ( 'NONE',  ( -1.000000000000000000, 0.000000000000000000, 0.000000000000000000 ) ) ;
#1004 = CARTESIAN_POINT ( 'NONE',  ( -1.500000000000000222, 2.000000000000000444, 0.3175000000000000044 ) ) ;
#1005 = FACE_BOUND ( 'NONE', #807, .T. ) ;
#1006 = ORIENTED_EDGE ( 'NONE', *, *, #130, .F. ) ;
#1007 = AXIS2_PLACEMENT_3D ( 'NONE', #584, #662, #143 ) ;
#1008 = CARTESIAN_POINT ( 'NONE',  ( -2.000000000000000444, 0.4099999999999997535, 0.1349999999999999534 ) ) ;
#1009 = EDGE_CURVE ( 'NONE', #241, #926, #517, .T. ) ;
#1010 = PLANE ( 'NONE',  #508 ) ;
#1011 = APPLICATION_CONTEXT ( 'automotive_design' ) ;
#1012 = EDGE_LOOP ( 'NONE', ( #41, #363, #779, #568 ) ) ;
#1013 = ORIENTED_EDGE ( 'NONE', *, *, #69, .F. ) ;
#1014 = CARTESIAN_POINT ( 'NONE',  ( 0.000000000000000000, -0.3000000000000000444, 0.000000000000000000 ) ) ;
#1015 = EDGE_CURVE ( 'NONE', #643, #784, #432, .T. ) ;
#1016 = CARTESIAN_POINT ( 'NONE',  ( -2.000000000000000444, 0.4099999999999996980, 0.1349999999999999534 ) ) ;
#1017 = DIRECTION ( 'NONE',  ( 0.000000000000000000, 0.000000000000000000, -1.000000000000000000 ) ) ;
#1018 = EDGE_LOOP ( 'NONE', ( #189, #228, #996, #756 ) ) ;
#1019 = CARTESIAN_POINT ( 'NONE',  ( -2.000000000000000444, -0.4100000000000003642, 0.6350000000000000089 ) ) ;
#1020 = DIRECTION ( 'NONE',  ( -0.5000000000000042188, -0.8660254037844361541, 0.000000000000000000 ) ) ;
#1021 = ADVANCED_FACE ( 'NONE', ( #946 ), #1034, .F. ) ;
#1022 = LINE ( 'NONE', #951, #297 ) ;
#1023 = EDGE_LOOP ( 'NONE', ( #25, #329, #578, #519 ) ) ;
#1024 = CARTESIAN_POINT ( 'NONE',  ( 1.199999999999999956, -0.7679571668975722076, 0.1349999999999999534 ) ) ;
#1025 = AXIS2_PLACEMENT_3D ( 'NONE', #817, #486, #413 ) ;
#1026 = VECTOR ( 'NONE', #50, 100.0000000000000000 ) ;
#1027 = LINE ( 'NONE', #944, #200 ) ;
#1028 = ORIENTED_EDGE ( 'NONE', *, *, #768, .F. ) ;
#1029 = CARTESIAN_POINT ( 'NONE',  ( 1.199999999999999956, -0.7679571668975722076, 0.1349999999999999534 ) ) ;
#1030 = VERTEX_POINT ( 'NONE', #526 ) ;
#1031 = EDGE_CURVE ( 'NONE', #671, #654, #868, .T. ) ;
#1032 = PLANE ( 'NONE',  #993 ) ;
#1033 = ORIENTED_EDGE ( 'NONE', *, *, #544, .T. ) ;
#1034 = PLANE ( 'NONE',  #705 ) ;
#1035 = EDGE_CURVE ( 'NONE', #888, #451, #785, .T. ) ;
#1036 = VERTEX_POINT ( 'NONE', #954 ) ;
#1037 = PLANE ( 'NONE',  #92 ) ;
#1038 = ORIENTED_EDGE ( 'NONE', *, *, #857, .F. ) ;
#1039 = DIRECTION ( 'NONE',  ( 0.000000000000000000, -1.000000000000000000, 0.000000000000000000 ) ) ;
#1040 = ORIENTED_EDGE ( 'NONE', *, *, #623, .T. ) ;
#1041 = CARTESIAN_POINT ( 'NONE',  ( -0.4099999999999999201, 1.820000000000000506, 0.1349999999999999534 ) ) ;
#1042 = AXIS2_PLACEMENT_3D ( 'NONE', #71, #754, #931 ) ;
#1043 = CARTESIAN_POINT ( 'NONE',  ( -2.000000000000000000, -1.500000000000000888, 0.6350000000000000089 ) ) ;
#1044 = VECTOR ( 'NONE', #156, 100.0000000000000000 ) ;
#1045 = VERTEX_POINT ( 'NONE', #185 ) ;
#1046 = CARTESIAN_POINT ( 'NONE',  ( 1.364999999999999991, 1.364999999999998215, 0.6350000000000000089 ) ) ;
#1047 = EDGE_CURVE ( 'NONE', #172, #836, #447, .T. ) ;
#1048 = CARTESIAN_POINT ( 'NONE',  ( -0.4099999999999999201, 1.820000000000000506, 0.6350000000000000089 ) ) ;
#1049 = EDGE_CURVE ( 'NONE', #1110, #529, #1087, .T. ) ;
#1050 = SURFACE_SIDE_STYLE ('',( #392 ) ) ;
#1051 = ORIENTED_EDGE ( 'NONE', *, *, #847, .T. ) ;
#1052 = DIRECTION ( 'NONE',  ( -0.000000000000000000, 0.000000000000000000, 1.000000000000000000 ) ) ;
#1053 = CARTESIAN_POINT ( 'NONE',  ( 0.4100000000000000311, 2.000000000000000444, 0.1349999999999999534 ) ) ;
#1054 = EDGE_CURVE ( 'NONE', #220, #840, #819, .T. ) ;
#1055 = DIRECTION ( 'NONE',  ( -0.000000000000000000, 0.000000000000000000, 1.000000000000000000 ) ) ;
#1056 = ADVANCED_FACE ( 'NONE', ( #375 ), #629, .F. ) ;
#1057 = ORIENTED_EDGE ( 'NONE', *, *, #239, .F. ) ;
#1058 = CARTESIAN_POINT ( 'NONE',  ( 1.364999999999999991, 2.000000000000001776, 0.3175000000000000044 ) ) ;
#1059 = ORIENTED_EDGE ( 'NONE', *, *, #673, .F. ) ;
#1060 = DIRECTION ( 'NONE',  ( 0.000000000000000000, 0.000000000000000000, 1.000000000000000000 ) ) ;
#1061 = VECTOR ( 'NONE', #737, 100.0000000000000000 ) ;
#1062 = CARTESIAN_POINT ( 'NONE',  ( -0.4100000000000000311, 2.000000000000000444, 0.6350000000000000089 ) ) ;
#1063 = VECTOR ( 'NONE', #794, 100.0000000000000000 ) ;
#1064 = ORIENTED_EDGE ( 'NONE', *, *, #261, .T. ) ;
#1065 = AXIS2_PLACEMENT_3D ( 'NONE', #663, #818, #748 ) ;
#1066 = VECTOR ( 'NONE', #506, 100.0000000000000000 ) ;
#1067 = LINE ( 'NONE', #729, #865 ) ;
#1068 = COLOUR_RGB ( '',0.7921568627450980005, 0.8196078431372548767, 0.9333333333333333481 ) ;
#1069 = ORIENTED_EDGE ( 'NONE', *, *, #328, .F. ) ;
#1070 = LINE ( 'NONE', #894, #434 ) ;
#1071 = LINE ( 'NONE', #210, #778 ) ;
#1072 = EDGE_CURVE ( 'NONE', #1079, #774, #24, .T. ) ;
#1073 = VERTEX_POINT ( 'NONE', #1074 ) ;
#1074 = CARTESIAN_POINT ( 'NONE',  ( 1.820000000000000506, 0.4100000000000000311, 0.1349999999999999534 ) ) ;
#1075 = VERTEX_POINT ( 'NONE', #561 ) ;
#1076 = LINE ( 'NONE', #1089, #438 ) ;
#1077 = EDGE_CURVE ( 'NONE', #888, #479, #133, .T. ) ;
#1078 = DIRECTION ( 'NONE',  ( 0.000000000000000000, 0.000000000000000000, 1.000000000000000000 ) ) ;
#1079 = VERTEX_POINT ( 'NONE', #1058 ) ;
#1080 = DIRECTION ( 'NONE',  ( 4.818676322157799347E-16, 1.000000000000000000, 0.000000000000000000 ) ) ;
#1081 = PRODUCT ( 'vertex-edge_60', 'vertex-edge_60', '', ( #37 ) ) ;
#1082 = ORIENTED_EDGE ( 'NONE', *, *, #96, .F. ) ;
#1083 = LINE ( 'NONE', #209, #1122 ) ;
#1084 = FACE_OUTER_BOUND ( 'NONE', #669, .T. ) ;
#1085 = VECTOR ( 'NONE', #972, 100.0000000000000000 ) ;
#1086 = CARTESIAN_POINT ( 'NONE',  ( 0.000000000000000000, 0.000000000000000000, 0.6350000000000000089 ) ) ;
#1087 = LINE ( 'NONE', #734, #215 ) ;
#1088 = ORIENTED_EDGE ( 'NONE', *, *, #305, .F. ) ;
#1089 = CARTESIAN_POINT ( 'NONE',  ( 1.499999999999999778, 2.000000000000000444, 0.000000000000000000 ) ) ;
#1090 = ADVANCED_FACE ( 'NONE', ( #304 ), #288, .F. ) ;
#1091 = DIRECTION ( 'NONE',  ( 0.000000000000000000, 0.000000000000000000, 1.000000000000000000 ) ) ;
#1092 = EDGE_CURVE ( 'NONE', #676, #241, #644, .T. ) ;
#1093 = CARTESIAN_POINT ( 'NONE',  ( -1.820000000000000506, 0.4099999999999995870, 0.1349999999999999534 ) ) ;
#1094 = ORIENTED_EDGE ( 'NONE', *, *, #790, .T. ) ;
#1095 = CARTESIAN_POINT ( 'NONE',  ( -1.820000000000000506, 0.4099999999999995870, 0.6350000000000000089 ) ) ;
#1096 = DIRECTION ( 'NONE',  ( 1.000000000000000000, 0.000000000000000000, 0.000000000000000000 ) ) ;
#1097 = EDGE_CURVE ( 'NONE', #1118, #374, #1067, .T. ) ;
#1098 = EDGE_LOOP ( 'NONE', ( #966, #443, #592, #516 ) ) ;
#1099 = VERTEX_POINT ( 'NONE', #550 ) ;
#1100 = FACE_OUTER_BOUND ( 'NONE', #4, .T. ) ;
#1101 = CARTESIAN_POINT ( 'NONE',  ( -1.500000000000000222, 2.000000000000000444, 0.6350000000000000089 ) ) ;
#1102 = EDGE_CURVE ( 'NONE', #681, #470, #120, .T. ) ;
#1103 = CARTESIAN_POINT ( 'NONE',  ( -2.000000000000000444, 0.4099999999999996980, 0.1349999999999999534 ) ) ;
#1104 = ORIENTED_EDGE ( 'NONE', *, *, #271, .T. ) ;
#1105 = LINE ( 'NONE', #763, #164 ) ;
#1106 = VECTOR ( 'NONE', #513, 100.0000000000000000 ) ;
#1107 = VECTOR ( 'NONE', #246, 100.0000000000000000 ) ;
#1108 = DIRECTION ( 'NONE',  ( 0.8660254037844362651, 0.5000000000000042188, 0.000000000000000000 ) ) ;
#1109 = FACE_OUTER_BOUND ( 'NONE', #376, .T. ) ;
#1110 = VERTEX_POINT ( 'NONE', #47 ) ;
#1111 = DIRECTION ( 'NONE',  ( -2.312964634635742957E-16, 1.000000000000000000, 0.000000000000000000 ) ) ;
#1112 = EDGE_CURVE ( 'NONE', #542, #772, #222, .T. ) ;
#1113 = CARTESIAN_POINT ( 'NONE',  ( 16.63499999999999801, 1.365000000000001101, 0.6350000000000000089 ) ) ;
#1114 = LINE ( 'NONE', #853, #387 ) ;
#1115 = ORIENTED_EDGE ( 'NONE', *, *, #397, .F. ) ;
#1116 = LINE ( 'NONE', #345, #1066 ) ;
#1117 = CARTESIAN_POINT ( 'NONE',  ( 0.000000000000000000, -0.3000000000000000444, 0.6350000000000000089 ) ) ;
#1118 = VERTEX_POINT ( 'NONE', #808 ) ;
#1119 = LINE ( 'NONE', #1029, #368 ) ;
#1120 = ORIENTED_EDGE ( 'NONE', *, *, #170, .F. ) ;
#1121 = VECTOR ( 'NONE', #708, 100.0000000000000000 ) ;
#1122 = VECTOR ( 'NONE', #117, 100.0000000000000000 ) ;
#1123 = AXIS2_PLACEMENT_3D ( 'NONE', #765, #771, #260 ) ;
ENDSEC;
END-ISO-10303-21;
