ISO-10303-21;
HEADER;
FILE_DESCRIPTION (( 'STEP AP214' ),
    '1' );
FILE_NAME ('vertex-corner_61.STEP',
    '2026-06-19T13:49:24',
    ( '' ),
    ( '' ),
    'SwSTEP 2.0',
    'SolidWorks 2023',
    '' );
FILE_SCHEMA (( 'AUTOMOTIVE_DESIGN' ));
ENDSEC;

DATA;
#1 = PLANE ( 'NONE',  #479 ) ;
#2 = ADVANCED_FACE ( 'NONE', ( #239 ), #363, .T. ) ;
#3 = DIRECTION ( 'NONE',  ( -0.5000000000000041078, -0.8660254037844363761, 0.000000000000000000 ) ) ;
#4 = PLANE ( 'NONE',  #524 ) ;
#5 = AXIS2_PLACEMENT_3D ( 'NONE', #685, #434, #625 ) ;
#6 = EDGE_CURVE ( 'NONE', #746, #175, #369, .T. ) ;
#7 = DIRECTION ( 'NONE',  ( 1.000000000000000000, 0.000000000000000000, 0.000000000000000000 ) ) ;
#8 = AXIS2_PLACEMENT_3D ( 'NONE', #799, #361, #787 ) ;
#9 = ORIENTED_EDGE ( 'NONE', *, *, #738, .F. ) ;
#10 = CARTESIAN_POINT ( 'NONE',  ( -1.200000000000000178, 0.7679571668975719856, 0.6350000000000000089 ) ) ;
#11 = DIRECTION ( 'NONE',  ( 1.000000000000000000, 4.818676322157799347E-16, 0.000000000000000000 ) ) ;
#12 = UNCERTAINTY_MEASURE_WITH_UNIT (LENGTH_MEASURE( 1.000000000000000082E-05 ), #457, 'distance_accuracy_value', 'NONE');
#13 = EDGE_CURVE ( 'NONE', #291, #788, #71, .T. ) ;
#14 = CARTESIAN_POINT ( 'NONE',  ( 0.000000000000000000, -1.000000000000000000, 0.6350000000000000089 ) ) ;
#15 = LINE ( 'NONE', #398, #770 ) ;
#16 =( NAMED_UNIT ( * ) PLANE_ANGLE_UNIT ( ) SI_UNIT ( $, .RADIAN. ) );
#17 = CARTESIAN_POINT ( 'NONE',  ( 0.000000000000000000, -0.3049999999999999933, 0.000000000000000000 ) ) ;
#18 = CARTESIAN_POINT ( 'NONE',  ( -2.000000000000000444, -0.4100000000000003642, 0.1349999999999999534 ) ) ;
#19 = DIRECTION ( 'NONE',  ( 2.385670792109557660E-16, -1.000000000000000000, 0.000000000000000000 ) ) ;
#20 = EDGE_CURVE ( 'NONE', #439, #732, #594, .T. ) ;
#21 = CARTESIAN_POINT ( 'NONE',  ( -1.500000000000000222, 2.000000000000000444, 0.6350000000000000089 ) ) ;
#22 = DIRECTION ( 'NONE',  ( -0.000000000000000000, 0.000000000000000000, 1.000000000000000000 ) ) ;
#23 = PRODUCT_DEFINITION ( 'UNKNOWN', '', #426, #196 ) ;
#24 = VERTEX_POINT ( 'NONE', #627 ) ;
#25 = DIRECTION ( 'NONE',  ( -0.5000000000000042188, -0.8660254037844361541, 0.000000000000000000 ) ) ;
#26 = VERTEX_POINT ( 'NONE', #399 ) ;
#27 = ORIENTED_EDGE ( 'NONE', *, *, #65, .F. ) ;
#28 = CARTESIAN_POINT ( 'NONE',  ( -2.000000000000000000, -1.500000000000000888, 0.6350000000000000089 ) ) ;
#29 = ADVANCED_FACE ( 'NONE', ( #460, #324 ), #513, .F. ) ;
#30 = CARTESIAN_POINT ( 'NONE',  ( -0.4100000000000000311, 2.000000000000000444, 0.6350000000000000089 ) ) ;
#31 = VECTOR ( 'NONE', #461, 100.0000000000000000 ) ;
#32 = ORIENTED_EDGE ( 'NONE', *, *, #632, .F. ) ;
#33 = VECTOR ( 'NONE', #790, 100.0000000000000000 ) ;
#34 = MANIFOLD_SOLID_BREP ( 'Fillet1', #533 ) ;
#35 = ORIENTED_EDGE ( 'NONE', *, *, #259, .F. ) ;
#36 = CARTESIAN_POINT ( 'NONE',  ( 0.000000000000000000, 0.000000000000000000, 0.000000000000000000 ) ) ;
#37 = ORIENTED_EDGE ( 'NONE', *, *, #13, .F. ) ;
#38 = ADVANCED_FACE ( 'NONE', ( #639 ), #1, .F. ) ;
#39 = ORIENTED_EDGE ( 'NONE', *, *, #744, .F. ) ;
#40 = ORIENTED_EDGE ( 'NONE', *, *, #396, .F. ) ;
#41 = LINE ( 'NONE', #418, #53 ) ;
#42 = EDGE_LOOP ( 'NONE', ( #794, #419, #478, #759 ) ) ;
#43 = FACE_OUTER_BOUND ( 'NONE', #500, .T. ) ;
#44 = ORIENTED_EDGE ( 'NONE', *, *, #360, .T. ) ;
#45 = EDGE_LOOP ( 'NONE', ( #315, #191, #181, #435, #496, #497 ) ) ;
#46 = DIRECTION ( 'NONE',  ( 1.000000000000000000, 5.782411586589356160E-17, 0.000000000000000000 ) ) ;
#47 = ORIENTED_EDGE ( 'NONE', *, *, #437, .F. ) ;
#48 = DIRECTION ( 'NONE',  ( 1.000000000000000000, 0.000000000000000000, 0.000000000000000000 ) ) ;
#49 = CIRCLE ( 'NONE', #5, 1.000000000000000000 ) ;
#50 = ORIENTED_EDGE ( 'NONE', *, *, #288, .F. ) ;
#51 = EDGE_CURVE ( 'NONE', #619, #163, #272, .T. ) ;
#52 = ORIENTED_EDGE ( 'NONE', *, *, #173, .T. ) ;
#53 = VECTOR ( 'NONE', #228, 100.0000000000000000 ) ;
#54 = DIRECTION ( 'NONE',  ( -0.8660254037844360431, -0.5000000000000045519, 0.000000000000000000 ) ) ;
#55 = ORIENTED_EDGE ( 'NONE', *, *, #270, .F. ) ;
#56 = ORIENTED_EDGE ( 'NONE', *, *, #800, .F. ) ;
#57 = DIRECTION ( 'NONE',  ( -1.249637081581196951E-16, 1.000000000000000000, 0.000000000000000000 ) ) ;
#58 = LINE ( 'NONE', #110, #227 ) ;
#59 = FILL_AREA_STYLE_COLOUR ( '', #737 ) ;
#60 = EDGE_LOOP ( 'NONE', ( #108, #438 ) ) ;
#61 = CARTESIAN_POINT ( 'NONE',  ( -1.500000000000000222, 2.000000000000000444, 0.3175000000000000044 ) ) ;
#62 = CARTESIAN_POINT ( 'NONE',  ( -2.000000000000000000, -1.500000000000000888, 0.000000000000000000 ) ) ;
#63 = EDGE_LOOP ( 'NONE', ( #39, #647, #115, #124, #236, #166, #186, #40, #370, #668, #50, #567, #106, #112, #35, #386, #618, #490, #608 ) ) ;
#64 = CARTESIAN_POINT ( 'NONE',  ( -1.999999999999999112, -1.000000000000000000, 0.6350000000000000089 ) ) ;
#65 = EDGE_CURVE ( 'NONE', #423, #746, #756, .T. ) ;
#66 = DIRECTION ( 'NONE',  ( 0.000000000000000000, 0.000000000000000000, -1.000000000000000000 ) ) ;
#67 = LINE ( 'NONE', #753, #216 ) ;
#68 = PRODUCT ( 'vertex-corner_61', 'vertex-corner_61', '', ( #578 ) ) ;
#69 = ORIENTED_EDGE ( 'NONE', *, *, #85, .F. ) ;
#70 = DIRECTION ( 'NONE',  ( 0.000000000000000000, 0.000000000000000000, 1.000000000000000000 ) ) ;
#71 = LINE ( 'NONE', #207, #494 ) ;
#72 = DIRECTION ( 'NONE',  ( -2.312964634635742957E-16, 1.000000000000000000, 0.000000000000000000 ) ) ;
#73 = VECTOR ( 'NONE', #577, 100.0000000000000142 ) ;
#74 = EDGE_CURVE ( 'NONE', #564, #810, #67, .T. ) ;
#75 = VECTOR ( 'NONE', #417, 100.0000000000000000 ) ;
#76 = CARTESIAN_POINT ( 'NONE',  ( -0.4099999999999999201, 1.820000000000000506, 0.6350000000000000089 ) ) ;
#77 = VECTOR ( 'NONE', #653, 100.0000000000000000 ) ;
#78 = DIRECTION ( 'NONE',  ( 1.000000000000000000, 0.000000000000000000, 0.000000000000000000 ) ) ;
#79 = LINE ( 'NONE', #220, #469 ) ;
#80 = DIRECTION ( 'NONE',  ( -1.000000000000000000, 4.818676322157799347E-16, -0.000000000000000000 ) ) ;
#81 = ORIENTED_EDGE ( 'NONE', *, *, #229, .T. ) ;
#82 = DIRECTION ( 'NONE',  ( -0.5000000000000045519, 0.8660254037844360431, 0.000000000000000000 ) ) ;
#83 = CARTESIAN_POINT ( 'NONE',  ( -1.364999999999998215, 2.000000000000000444, 0.3175000000000000044 ) ) ;
#84 = LINE ( 'NONE', #521, #665 ) ;
#85 = EDGE_CURVE ( 'NONE', #431, #732, #691, .T. ) ;
#86 = DIRECTION ( 'NONE',  ( 1.000000000000000000, 2.258880508902365962E-16, 0.000000000000000000 ) ) ;
#87 = LINE ( 'NONE', #294, #379 ) ;
#88 = EDGE_CURVE ( 'NONE', #120, #805, #814, .T. ) ;
#89 = FACE_OUTER_BOUND ( 'NONE', #554, .T. ) ;
#90 = VERTEX_POINT ( 'NONE', #333 ) ;
#91 = LINE ( 'NONE', #289, #33 ) ;
#92 = ORIENTED_EDGE ( 'NONE', *, *, #305, .T. ) ;
#93 = EDGE_CURVE ( 'NONE', #355, #120, #190, .T. ) ;
#94 = DIRECTION ( 'NONE',  ( -0.000000000000000000, 0.000000000000000000, 1.000000000000000000 ) ) ;
#95 = FACE_OUTER_BOUND ( 'NONE', #178, .T. ) ;
#96 = EDGE_LOOP ( 'NONE', ( #231, #92, #171, #716, #105, #130 ) ) ;
#97 = ORIENTED_EDGE ( 'NONE', *, *, #173, .F. ) ;
#98 = CARTESIAN_POINT ( 'NONE',  ( -2.000000000000000444, -0.4100000000000003642, 0.1349999999999999534 ) ) ;
#99 = EDGE_CURVE ( 'NONE', #251, #484, #458, .T. ) ;
#100 = CARTESIAN_POINT ( 'NONE',  ( -2.000000000000000444, 0.4099999999999997535, 0.1349999999999999534 ) ) ;
#101 = CIRCLE ( 'NONE', #544, 1.000000000000000000 ) ;
#102 = ORIENTED_EDGE ( 'NONE', *, *, #305, .F. ) ;
#103 = VECTOR ( 'NONE', #620, 100.0000000000000000 ) ;
#104 = VECTOR ( 'NONE', #72, 100.0000000000000000 ) ;
#105 = ORIENTED_EDGE ( 'NONE', *, *, #74, .T. ) ;
#106 = ORIENTED_EDGE ( 'NONE', *, *, #341, .F. ) ;
#107 = LINE ( 'NONE', #550, #158 ) ;
#108 = ORIENTED_EDGE ( 'NONE', *, *, #638, .F. ) ;
#109 = ADVANCED_FACE ( 'NONE', ( #393 ), #4, .T. ) ;
#110 = CARTESIAN_POINT ( 'NONE',  ( -1.999999999999999112, -1.000000000000000000, 0.6350000000000000089 ) ) ;
#111 = DIRECTION ( 'NONE',  ( 0.000000000000000000, 1.000000000000000000, 0.000000000000000000 ) ) ;
#112 = ORIENTED_EDGE ( 'NONE', *, *, #360, .F. ) ;
#113 = EDGE_CURVE ( 'NONE', #732, #450, #715, .T. ) ;
#114 = CARTESIAN_POINT ( 'NONE',  ( 3.735172737399427023E-17, 0.3049999999999999933, 0.000000000000000000 ) ) ;
#115 = ORIENTED_EDGE ( 'NONE', *, *, #281, .F. ) ;
#116 = CARTESIAN_POINT ( 'NONE',  ( 0.4099999999999999201, 1.820000000000000506, 0.1349999999999999534 ) ) ;
#117 = LINE ( 'NONE', #378, #440 ) ;
#118 = PLANE ( 'NONE',  #733 ) ;
#119 = AXIS2_PLACEMENT_3D ( 'NONE', #674, #46, #807 ) ;
#120 = VERTEX_POINT ( 'NONE', #285 ) ;
#121 = ORIENTED_EDGE ( 'NONE', *, *, #744, .T. ) ;
#122 = VECTOR ( 'NONE', #616, 100.0000000000000000 ) ;
#123 = CARTESIAN_POINT ( 'NONE',  ( -1.820000000000000506, 0.4099999999999995870, 0.6350000000000000089 ) ) ;
#124 = ORIENTED_EDGE ( 'NONE', *, *, #138, .F. ) ;
#125 = CARTESIAN_POINT ( 'NONE',  ( -0.7679571668975722076, 1.199999999999999956, 0.1349999999999999534 ) ) ;
#126 = EDGE_LOOP ( 'NONE', ( #664, #394, #47, #265 ) ) ;
#127 = EDGE_CURVE ( 'NONE', #549, #388, #721, .T. ) ;
#128 = DIRECTION ( 'NONE',  ( 0.000000000000000000, -1.000000000000000000, 0.000000000000000000 ) ) ;
#129 = DIRECTION ( 'NONE',  ( -0.000000000000000000, 0.000000000000000000, 1.000000000000000000 ) ) ;
#130 = ORIENTED_EDGE ( 'NONE', *, *, #485, .T. ) ;
#131 = ADVANCED_FACE ( 'NONE', ( #645 ), #774, .F. ) ;
#132 = DIRECTION ( 'NONE',  ( -0.000000000000000000, 0.000000000000000000, 1.000000000000000000 ) ) ;
#133 = DIRECTION ( 'NONE',  ( 0.000000000000000000, 1.000000000000000000, 0.000000000000000000 ) ) ;
#134 = CIRCLE ( 'NONE', #582, 2.500000000000000000 ) ;
#135 = ORIENTED_EDGE ( 'NONE', *, *, #629, .T. ) ;
#136 = STYLED_ITEM ( 'NONE', ( #255 ), #34 ) ;
#137 = DIRECTION ( 'NONE',  ( 0.000000000000000000, 0.000000000000000000, -1.000000000000000000 ) ) ;
#138 = EDGE_CURVE ( 'NONE', #654, #26, #343, .T. ) ;
#139 = LINE ( 'NONE', #530, #467 ) ;
#140 = LINE ( 'NONE', #472, #821 ) ;
#141 = ADVANCED_FACE ( 'NONE', ( #89 ), #144, .F. ) ;
#142 = FILL_AREA_STYLE ('',( #59 ) ) ;
#143 = PLANE ( 'NONE',  #603 ) ;
#144 = PLANE ( 'NONE',  #541 ) ;
#145 = AXIS2_PLACEMENT_3D ( 'NONE', #18, #280, #284 ) ;
#146 = VECTOR ( 'NONE', #94, 100.0000000000000000 ) ;
#147 = CARTESIAN_POINT ( 'NONE',  ( -1.500000000000000222, 2.000000000000000444, 0.000000000000000000 ) ) ;
#148 = VECTOR ( 'NONE', #411, 100.0000000000000000 ) ;
#149 = CARTESIAN_POINT ( 'NONE',  ( -2.000000000000000444, 0.4099999999999996980, 0.1349999999999999534 ) ) ;
#150 = FACE_OUTER_BOUND ( 'NONE', #331, .T. ) ;
#151 = CARTESIAN_POINT ( 'NONE',  ( 0.000000000000000000, 0.000000000000000000, 0.6350000000000000089 ) ) ;
#152 = CARTESIAN_POINT ( 'NONE',  ( -1.199999999999999956, -0.7679571668975725407, 0.1349999999999999534 ) ) ;
#153 = EDGE_CURVE ( 'NONE', #245, #431, #535, .T. ) ;
#154 = PLANE ( 'NONE',  #477 ) ;
#155 = CARTESIAN_POINT ( 'NONE',  ( -2.000000000000001776, 1.364999999999999991, 0.3175000000000000044 ) ) ;
#156 = CARTESIAN_POINT ( 'NONE',  ( -1.199999999999999956, -0.7679571668975725407, 0.1349999999999999534 ) ) ;
#157 = ORIENTED_EDGE ( 'NONE', *, *, #281, .T. ) ;
#158 = VECTOR ( 'NONE', #480, 100.0000000000000000 ) ;
#159 = DIRECTION ( 'NONE',  ( 1.000000000000000000, 2.385670792109557660E-16, 0.000000000000000000 ) ) ;
#160 = ORIENTED_EDGE ( 'NONE', *, *, #270, .T. ) ;
#161 = DIRECTION ( 'NONE',  ( 4.818676322157798361E-16, -1.000000000000000000, 0.000000000000000000 ) ) ;
#162 = EDGE_CURVE ( 'NONE', #226, #321, #79, .T. ) ;
#163 = VERTEX_POINT ( 'NONE', #713 ) ;
#164 = ORIENTED_EDGE ( 'NONE', *, *, #682, .T. ) ;
#165 = LINE ( 'NONE', #717, #273 ) ;
#166 = ORIENTED_EDGE ( 'NONE', *, *, #253, .F. ) ;
#167 = EDGE_LOOP ( 'NONE', ( #734, #508 ) ) ;
#168 = ORIENTED_EDGE ( 'NONE', *, *, #498, .F. ) ;
#169 = CARTESIAN_POINT ( 'NONE',  ( 1.000000000000000000, 2.000000000000000444, 0.6350000000000000089 ) ) ;
#170 = VECTOR ( 'NONE', #252, 100.0000000000000000 ) ;
#171 = ORIENTED_EDGE ( 'NONE', *, *, #599, .T. ) ;
#172 = DIRECTION ( 'NONE',  ( 1.000000000000000000, 2.385670792109557660E-16, 0.000000000000000000 ) ) ;
#173 = EDGE_CURVE ( 'NONE', #564, #120, #590, .T. ) ;
#174 = DIRECTION ( 'NONE',  ( -0.000000000000000000, 0.000000000000000000, 1.000000000000000000 ) ) ;
#175 = VERTEX_POINT ( 'NONE', #335 ) ;
#176 = ORIENTED_EDGE ( 'NONE', *, *, #329, .F. ) ;
#177 = DIRECTION ( 'NONE',  ( 0.000000000000000000, 0.000000000000000000, 1.000000000000000000 ) ) ;
#178 = EDGE_LOOP ( 'NONE', ( #743, #433, #261, #672 ) ) ;
#179 = DIRECTION ( 'NONE',  ( -0.000000000000000000, -0.000000000000000000, -1.000000000000000000 ) ) ;
#180 = DIRECTION ( 'NONE',  ( -0.000000000000000000, 0.000000000000000000, 1.000000000000000000 ) ) ;
#181 = ORIENTED_EDGE ( 'NONE', *, *, #400, .T. ) ;
#182 = ORIENTED_EDGE ( 'NONE', *, *, #629, .F. ) ;
#183 = DIRECTION ( 'NONE',  ( 0.000000000000000000, -1.000000000000000000, 0.000000000000000000 ) ) ;
#184 = CARTESIAN_POINT ( 'NONE',  ( -1.364999999999999991, 16.63499999999999801, 0.3175000000000000044 ) ) ;
#185 = AXIS2_PLACEMENT_3D ( 'NONE', #395, #70, #338 ) ;
#186 = ORIENTED_EDGE ( 'NONE', *, *, #300, .F. ) ;
#187 = LINE ( 'NONE', #368, #243 ) ;
#188 = AXIS2_PLACEMENT_3D ( 'NONE', #586, #3, #198 ) ;
#189 = EDGE_CURVE ( 'NONE', #423, #692, #471, .T. ) ;
#190 = LINE ( 'NONE', #446, #512 ) ;
#191 = ORIENTED_EDGE ( 'NONE', *, *, #624, .T. ) ;
#192 = VECTOR ( 'NONE', #757, 100.0000000000000000 ) ;
#193 = DIRECTION ( 'NONE',  ( 0.000000000000000000, 0.000000000000000000, 1.000000000000000000 ) ) ;
#194 = EDGE_CURVE ( 'NONE', #24, #355, #340, .T. ) ;
#195 = VERTEX_POINT ( 'NONE', #463 ) ;
#196 = PRODUCT_DEFINITION_CONTEXT ( 'detailed design', #464, 'design' ) ;
#197 = CARTESIAN_POINT ( 'NONE',  ( 1.000000000000000222, -1.000000000000000000, 0.6350000000000000089 ) ) ;
#198 = DIRECTION ( 'NONE',  ( 0.8660254037844362651, -0.5000000000000039968, 0.000000000000000000 ) ) ;
#199 =( NAMED_UNIT ( * ) PLANE_ANGLE_UNIT ( ) SI_UNIT ( $, .RADIAN. ) );
#200 = VERTEX_POINT ( 'NONE', #789 ) ;
#201 = LINE ( 'NONE', #456, #262 ) ;
#202 = CARTESIAN_POINT ( 'NONE',  ( 0.000000000000000000, 0.000000000000000000, 0.000000000000000000 ) ) ;
#203 = DIRECTION ( 'NONE',  ( 0.000000000000000000, -1.000000000000000000, 0.000000000000000000 ) ) ;
#204 = ADVANCED_FACE ( 'NONE', ( #276 ), #287, .F. ) ;
#205 = FACE_OUTER_BOUND ( 'NONE', #126, .T. ) ;
#206 = APPLICATION_PROTOCOL_DEFINITION ( 'draft international standard', 'automotive_design', 1998, #464 ) ;
#207 = CARTESIAN_POINT ( 'NONE',  ( 1.000000000000000222, -1.000000000000000000, 0.000000000000000000 ) ) ;
#208 = LINE ( 'NONE', #277, #31 ) ;
#209 = PLANE ( 'NONE',  #293 ) ;
#210 = CARTESIAN_POINT ( 'NONE',  ( -2.000000000000000444, -0.4100000000000003642, 0.6350000000000000089 ) ) ;
#211 = DIRECTION ( 'NONE',  ( -1.000000000000000000, 4.818676322157799347E-16, -0.000000000000000000 ) ) ;
#212 = CARTESIAN_POINT ( 'NONE',  ( -1.200000000000000178, 0.7679571668975719856, 0.1349999999999999534 ) ) ;
#213 = AXIS2_PLACEMENT_3D ( 'NONE', #710, #703, #225 ) ;
#214 = CIRCLE ( 'NONE', #532, 0.3049999999999999933 ) ;
#215 = CARTESIAN_POINT ( 'NONE',  ( -1.820000000000000506, -0.4100000000000003086, 0.1349999999999999534 ) ) ;
#216 = VECTOR ( 'NONE', #640, 100.0000000000000000 ) ;
#217 = CARTESIAN_POINT ( 'NONE',  ( -1.200000000000000178, 0.7679571668975719856, 0.1349999999999999534 ) ) ;
#218 = ADVANCED_FACE ( 'NONE', ( #150 ), #405, .F. ) ;
#219 = DIRECTION ( 'NONE',  ( 0.000000000000000000, 0.000000000000000000, 1.000000000000000000 ) ) ;
#220 = CARTESIAN_POINT ( 'NONE',  ( -1.364999999999998215, 2.000000000000000444, 0.000000000000000000 ) ) ;
#221 = ORIENTED_EDGE ( 'NONE', *, *, #247, .T. ) ;
#222 = DIRECTION ( 'NONE',  ( -2.312964634635742957E-16, 1.000000000000000000, 0.000000000000000000 ) ) ;
#223 = DIRECTION ( 'NONE',  ( -1.000000000000000000, 0.000000000000000000, -0.000000000000000000 ) ) ;
#224 = EDGE_LOOP ( 'NONE', ( #309, #482, #660, #164 ) ) ;
#225 = DIRECTION ( 'NONE',  ( 0.000000000000000000, -1.000000000000000000, 0.000000000000000000 ) ) ;
#226 = VERTEX_POINT ( 'NONE', #83 ) ;
#227 = VECTOR ( 'NONE', #565, 100.0000000000000000 ) ;
#228 = DIRECTION ( 'NONE',  ( -0.000000000000000000, 0.000000000000000000, 1.000000000000000000 ) ) ;
#229 = EDGE_CURVE ( 'NONE', #90, #788, #651, .T. ) ;
#230 = VECTOR ( 'NONE', #11, 100.0000000000000000 ) ;
#231 = ORIENTED_EDGE ( 'NONE', *, *, #451, .T. ) ;
#232 = ORIENTED_EDGE ( 'NONE', *, *, #389, .F. ) ;
#233 = FACE_OUTER_BOUND ( 'NONE', #224, .T. ) ;
#234 = ORIENTED_EDGE ( 'NONE', *, *, #99, .T. ) ;
#235 = PRODUCT_RELATED_PRODUCT_CATEGORY ( 'part', '', ( #68 ) ) ;
#236 = ORIENTED_EDGE ( 'NONE', *, *, #551, .F. ) ;
#237 = ORIENTED_EDGE ( 'NONE', *, *, #711, .T. ) ;
#238 = DIRECTION ( 'NONE',  ( -0.5000000000000042188, 0.8660254037844361541, 0.000000000000000000 ) ) ;
#239 = FACE_OUTER_BOUND ( 'NONE', #556, .T. ) ;
#240 = EDGE_CURVE ( 'NONE', #195, #619, #390, .T. ) ;
#241 = VERTEX_POINT ( 'NONE', #813 ) ;
#242 = CARTESIAN_POINT ( 'NONE',  ( -0.4099999999999999201, 1.820000000000000506, 0.1349999999999999534 ) ) ;
#243 = VECTOR ( 'NONE', #612, 100.0000000000000000 ) ;
#244 = PRESENTATION_LAYER_ASSIGNMENT (  '', '', ( #136 ) ) ;
#245 = VERTEX_POINT ( 'NONE', #64 ) ;
#246 = EDGE_LOOP ( 'NONE', ( #718, #9, #678, #302 ) ) ;
#247 = EDGE_CURVE ( 'NONE', #561, #613, #750, .T. ) ;
#248 = ORIENTED_EDGE ( 'NONE', *, *, #153, .T. ) ;
#249 = DIRECTION ( 'NONE',  ( 0.000000000000000000, -1.000000000000000000, 0.000000000000000000 ) ) ;
#250 = ORIENTED_EDGE ( 'NONE', *, *, #696, .T. ) ;
#251 = VERTEX_POINT ( 'NONE', #310 ) ;
#252 = DIRECTION ( 'NONE',  ( 0.000000000000000000, 0.000000000000000000, -1.000000000000000000 ) ) ;
#253 = EDGE_CURVE ( 'NONE', #200, #726, #505, .T. ) ;
#254 = PLANE ( 'NONE',  #362 ) ;
#255 = PRESENTATION_STYLE_ASSIGNMENT (( #517 ) ) ;
#256 = ORIENTED_EDGE ( 'NONE', *, *, #13, .T. ) ;
#257 = CARTESIAN_POINT ( 'NONE',  ( -1.364999999999999991, 16.63499999999999801, 0.6350000000000000089 ) ) ;
#258 = VECTOR ( 'NONE', #129, 100.0000000000000000 ) ;
#259 = EDGE_CURVE ( 'NONE', #805, #613, #515, .T. ) ;
#260 = VECTOR ( 'NONE', #773, 100.0000000000000000 ) ;
#261 = ORIENTED_EDGE ( 'NONE', *, *, #400, .F. ) ;
#262 = VECTOR ( 'NONE', #697, 100.0000000000000000 ) ;
#263 = DIRECTION ( 'NONE',  ( -0.5000000000000042188, 0.8660254037844362651, -0.000000000000000000 ) ) ;
#264 = CARTESIAN_POINT ( 'NONE',  ( 0.000000000000000000, 0.000000000000000000, 0.000000000000000000 ) ) ;
#265 = ORIENTED_EDGE ( 'NONE', *, *, #20, .T. ) ;
#266 = ADVANCED_FACE ( 'NONE', ( #760 ), #559, .F. ) ;
#267 = CARTESIAN_POINT ( 'NONE',  ( 1.000000000000000222, 0.000000000000000000, 0.6350000000000000089 ) ) ;
#268 = LINE ( 'NONE', #776, #260 ) ;
#269 = CARTESIAN_POINT ( 'NONE',  ( -1.999999999999999112, -1.000000000000000000, 0.6350000000000000089 ) ) ;
#270 = EDGE_CURVE ( 'NONE', #788, #549, #101, .T. ) ;
#271 = DIRECTION ( 'NONE',  ( -2.312964634635742957E-16, 1.000000000000000000, 0.000000000000000000 ) ) ;
#272 = LINE ( 'NONE', #453, #573 ) ;
#273 = VECTOR ( 'NONE', #655, 100.0000000000000142 ) ;
#274 = VECTOR ( 'NONE', #680, 100.0000000000000000 ) ;
#275 = CARTESIAN_POINT ( 'NONE',  ( 0.000000000000000000, -0.3049999999999999933, 0.000000000000000000 ) ) ;
#276 = FACE_OUTER_BOUND ( 'NONE', #42, .T. ) ;
#277 = CARTESIAN_POINT ( 'NONE',  ( -1.500000000000000222, 2.000000000000000444, 0.000000000000000000 ) ) ;
#278 = EDGE_CURVE ( 'NONE', #635, #654, #201, .T. ) ;
#279 = FACE_OUTER_BOUND ( 'NONE', #366, .T. ) ;
#280 = DIRECTION ( 'NONE',  ( 4.818676322157798361E-16, -1.000000000000000000, 0.000000000000000000 ) ) ;
#281 = EDGE_CURVE ( 'NONE', #26, #90, #809, .T. ) ;
#282 = VECTOR ( 'NONE', #180, 100.0000000000000000 ) ;
#283 = AXIS2_PLACEMENT_3D ( 'NONE', #397, #576, #817 ) ;
#284 = DIRECTION ( 'NONE',  ( 1.000000000000000000, 4.818676322157798361E-16, 0.000000000000000000 ) ) ;
#285 = CARTESIAN_POINT ( 'NONE',  ( -1.199999999999999956, -0.7679571668975725407, 0.6350000000000000089 ) ) ;
#286 = CARTESIAN_POINT ( 'NONE',  ( 0.4100000000000000311, 2.000000000000000444, 0.1349999999999999534 ) ) ;
#287 = CYLINDRICAL_SURFACE ( 'NONE', #213, 0.3049999999999999933 ) ;
#288 = EDGE_CURVE ( 'NONE', #514, #321, #318, .T. ) ;
#289 = CARTESIAN_POINT ( 'NONE',  ( -2.000000000000000444, -0.4100000000000003642, 0.1349999999999999534 ) ) ;
#290 = APPLICATION_CONTEXT ( 'automotive_design' ) ;
#291 = VERTEX_POINT ( 'NONE', #570 ) ;
#292 = VECTOR ( 'NONE', #824, 100.0000000000000000 ) ;
#293 = AXIS2_PLACEMENT_3D ( 'NONE', #149, #771, #637 ) ;
#294 = CARTESIAN_POINT ( 'NONE',  ( -1.500000000000000222, 2.000000000000000444, 0.000000000000000000 ) ) ;
#295 = VECTOR ( 'NONE', #626, 100.0000000000000000 ) ;
#296 = ORIENTED_EDGE ( 'NONE', *, *, #389, .T. ) ;
#297 = LINE ( 'NONE', #798, #359 ) ;
#298 = CARTESIAN_POINT ( 'NONE',  ( -0.7679571668975722076, 1.199999999999999956, 0.6350000000000000089 ) ) ;
#299 = VERTEX_POINT ( 'NONE', #327 ) ;
#300 = EDGE_CURVE ( 'NONE', #484, #200, #372, .T. ) ;
#301 = VERTEX_POINT ( 'NONE', #443 ) ;
#302 = ORIENTED_EDGE ( 'NONE', *, *, #240, .T. ) ;
#303 = LINE ( 'NONE', #21, #791 ) ;
#304 = ORIENTED_EDGE ( 'NONE', *, *, #498, .T. ) ;
#305 = EDGE_CURVE ( 'NONE', #548, #724, #630, .T. ) ;
#306 = ORIENTED_EDGE ( 'NONE', *, *, #555, .F. ) ;
#307 = ORIENTED_EDGE ( 'NONE', *, *, #425, .F. ) ;
#308 = FACE_OUTER_BOUND ( 'NONE', #707, .T. ) ;
#309 = ORIENTED_EDGE ( 'NONE', *, *, #551, .T. ) ;
#310 = CARTESIAN_POINT ( 'NONE',  ( -0.7679571668975722076, 1.199999999999999956, 0.1349999999999999534 ) ) ;
#311 = ORIENTED_EDGE ( 'NONE', *, *, #162, .F. ) ;
#312 = ORIENTED_EDGE ( 'NONE', *, *, #127, .F. ) ;
#313 = CARTESIAN_POINT ( 'NONE',  ( 0.4099999999999999201, 1.820000000000000506, 0.1349999999999999534 ) ) ;
#314 = DIRECTION ( 'NONE',  ( -1.249637081581196951E-16, 1.000000000000000000, -0.000000000000000000 ) ) ;
#315 = ORIENTED_EDGE ( 'NONE', *, *, #425, .T. ) ;
#316 = ORIENTED_EDGE ( 'NONE', *, *, #367, .F. ) ;
#317 = ADVANCED_FACE ( 'NONE', ( #448 ), #254, .F. ) ;
#318 = LINE ( 'NONE', #257, #709 ) ;
#319 = FACE_OUTER_BOUND ( 'NONE', #96, .T. ) ;
#320 = SURFACE_SIDE_STYLE ('',( #525 ) ) ;
#321 = VERTEX_POINT ( 'NONE', #501 ) ;
#322 = DIRECTION ( 'NONE',  ( 0.000000000000000000, 0.000000000000000000, -1.000000000000000000 ) ) ;
#323 = VECTOR ( 'NONE', #22, 100.0000000000000000 ) ;
#324 = FACE_OUTER_BOUND ( 'NONE', #474, .T. ) ;
#325 = VERTEX_POINT ( 'NONE', #61 ) ;
#326 = VECTOR ( 'NONE', #785, 100.0000000000000000 ) ;
#327 = CARTESIAN_POINT ( 'NONE',  ( -2.000000000000000444, 0.4099999999999996980, 0.6350000000000000089 ) ) ;
#328 = PLANE ( 'NONE',  #569 ) ;
#329 = EDGE_CURVE ( 'NONE', #683, #802, #452, .T. ) ;
#330 = DIRECTION ( 'NONE',  ( 0.000000000000000000, -1.000000000000000000, 0.000000000000000000 ) ) ;
#331 = EDGE_LOOP ( 'NONE', ( #454, #237, #622, #102, #481, #793, #684, #296, #819, #69 ) ) ;
#332 = FACE_OUTER_BOUND ( 'NONE', #762, .T. ) ;
#333 = CARTESIAN_POINT ( 'NONE',  ( 1.000000000000000222, 0.000000000000000000, 0.6350000000000000089 ) ) ;
#334 = DIRECTION ( 'NONE',  ( 0.000000000000000000, 1.000000000000000000, 0.000000000000000000 ) ) ;
#335 = CARTESIAN_POINT ( 'NONE',  ( 3.735172737399427023E-17, 0.3049999999999999933, 0.6350000000000000089 ) ) ;
#336 = AXIS2_PLACEMENT_3D ( 'NONE', #607, #795, #238 ) ;
#337 = UNCERTAINTY_MEASURE_WITH_UNIT (LENGTH_MEASURE( 1.000000000000000082E-05 ), #387, 'distance_accuracy_value', 'NONE');
#338 = DIRECTION ( 'NONE',  ( 0.000000000000000000, -1.000000000000000000, 0.000000000000000000 ) ) ;
#339 = CARTESIAN_POINT ( 'NONE',  ( 1.000000000000000222, 0.000000000000000000, 0.000000000000000000 ) ) ;
#340 = LINE ( 'NONE', #210, #230 ) ;
#341 = EDGE_CURVE ( 'NONE', #299, #241, #117, .T. ) ;
#342 = CARTESIAN_POINT ( 'NONE',  ( -0.4100000000000000311, 2.000000000000000444, 0.1349999999999999534 ) ) ;
#343 = LINE ( 'NONE', #584, #326 ) ;
#344 = CARTESIAN_POINT ( 'NONE',  ( -1.820000000000000506, -0.4100000000000003086, 0.6350000000000000089 ) ) ;
#345 = CARTESIAN_POINT ( 'NONE',  ( -2.000000000000000888, 1.499999999999999112, 0.000000000000000000 ) ) ;
#346 =( GEOMETRIC_REPRESENTATION_CONTEXT ( 3 ) GLOBAL_UNCERTAINTY_ASSIGNED_CONTEXT ( ( #12 ) ) GLOBAL_UNIT_ASSIGNED_CONTEXT ( ( #457, #16, #520 ) ) REPRESENTATION_CONTEXT ( 'NONE', 'WORKASPACE' ) );
#347 = PLANE ( 'NONE',  #8 ) ;
#348 = EDGE_CURVE ( 'NONE', #175, #692, #568, .T. ) ;
#349 = CARTESIAN_POINT ( 'NONE',  ( 0.000000000000000000, 0.000000000000000000, 0.3175000000000000044 ) ) ;
#350 = CARTESIAN_POINT ( 'NONE',  ( 0.000000000000000000, -1.000000000000000000, 0.000000000000000000 ) ) ;
#351 = ORIENTED_EDGE ( 'NONE', *, *, #259, .T. ) ;
#352 = DIRECTION ( 'NONE',  ( 0.000000000000000000, 0.000000000000000000, -1.000000000000000000 ) ) ;
#353 = CARTESIAN_POINT ( 'NONE',  ( -0.4099999999999999201, 1.820000000000000506, 0.1349999999999999534 ) ) ;
#354 = EDGE_LOOP ( 'NONE', ( #356, #543, #121, #248 ) ) ;
#355 = VERTEX_POINT ( 'NONE', #344 ) ;
#356 = ORIENTED_EDGE ( 'NONE', *, *, #536, .F. ) ;
#357 = CARTESIAN_POINT ( 'NONE',  ( 0.4099999999999999201, 1.820000000000000506, 0.6350000000000000089 ) ) ;
#358 = AXIS2_PLACEMENT_3D ( 'NONE', #648, #476, #408 ) ;
#359 = VECTOR ( 'NONE', #506, 100.0000000000000142 ) ;
#360 = EDGE_CURVE ( 'NONE', #613, #299, #84, .T. ) ;
#361 = DIRECTION ( 'NONE',  ( 0.000000000000000000, 0.000000000000000000, -1.000000000000000000 ) ) ;
#362 = AXIS2_PLACEMENT_3D ( 'NONE', #690, #128, #48 ) ;
#363 = CYLINDRICAL_SURFACE ( 'NONE', #468, 1.000000000000000000 ) ;
#364 = ORIENTED_EDGE ( 'NONE', *, *, #462, .F. ) ;
#365 = FACE_OUTER_BOUND ( 'NONE', #596, .T. ) ;
#366 = EDGE_LOOP ( 'NONE', ( #351, #375, #552, #250 ) ) ;
#367 = EDGE_CURVE ( 'NONE', #301, #355, #587, .T. ) ;
#368 = CARTESIAN_POINT ( 'NONE',  ( -2.000000000000000444, 0.4099999999999996980, 0.1349999999999999534 ) ) ;
#369 = LINE ( 'NONE', #114, #820 ) ;
#370 = ORIENTED_EDGE ( 'NONE', *, *, #51, .F. ) ;
#371 = LINE ( 'NONE', #28, #412 ) ;
#372 = LINE ( 'NONE', #511, #192 ) ;
#373 = FACE_OUTER_BOUND ( 'NONE', #63, .T. ) ;
#374 = ORIENTED_EDGE ( 'NONE', *, *, #138, .T. ) ;
#375 = ORIENTED_EDGE ( 'NONE', *, *, #247, .F. ) ;
#376 = LINE ( 'NONE', #313, #75 ) ;
#377 = AXIS2_PLACEMENT_3D ( 'NONE', #36, #475, #595 ) ;
#378 = CARTESIAN_POINT ( 'NONE',  ( -2.000000000000000000, -1.500000000000000888, 0.6350000000000000089 ) ) ;
#379 = VECTOR ( 'NONE', #663, 100.0000000000000000 ) ;
#380 = DIRECTION ( 'NONE',  ( 0.000000000000000000, 0.000000000000000000, 1.000000000000000000 ) ) ;
#381 = ORIENTED_EDGE ( 'NONE', *, *, #675, .F. ) ;
#382 = ADVANCED_FACE ( 'NONE', ( #591 ), #712, .F. ) ;
#383 = ORIENTED_EDGE ( 'NONE', *, *, #189, .T. ) ;
#384 = CARTESIAN_POINT ( 'NONE',  ( -0.4100000000000000311, 2.000000000000000444, 0.1349999999999999534 ) ) ;
#385 = DIRECTION ( 'NONE',  ( 5.782411586589356160E-17, -1.000000000000000000, 0.000000000000000000 ) ) ;
#386 = ORIENTED_EDGE ( 'NONE', *, *, #88, .F. ) ;
#387 =( LENGTH_UNIT ( ) NAMED_UNIT ( * ) SI_UNIT ( .CENTI., .METRE. ) );
#388 = VERTEX_POINT ( 'NONE', #14 ) ;
#389 = EDGE_CURVE ( 'NONE', #683, #450, #15, .T. ) ;
#390 = LINE ( 'NONE', #574, #606 ) ;
#391 = CIRCLE ( 'NONE', #377, 0.3049999999999999933 ) ;
#392 = CARTESIAN_POINT ( 'NONE',  ( 0.7679571668975722076, 1.199999999999999956, 0.1349999999999999534 ) ) ;
#393 = FACE_OUTER_BOUND ( 'NONE', #354, .T. ) ;
#394 = ORIENTED_EDGE ( 'NONE', *, *, #719, .T. ) ;
#395 = CARTESIAN_POINT ( 'NONE',  ( 0.000000000000000000, 0.000000000000000000, 0.1349999999999999534 ) ) ;
#396 = EDGE_CURVE ( 'NONE', #163, #484, #784, .T. ) ;
#397 = CARTESIAN_POINT ( 'NONE',  ( 0.000000000000000000, 0.000000000000000000, 0.000000000000000000 ) ) ;
#398 = CARTESIAN_POINT ( 'NONE',  ( -2.000000000000000000, -1.500000000000000888, 0.3175000000000000044 ) ) ;
#399 = CARTESIAN_POINT ( 'NONE',  ( 1.000000000000000000, 2.000000000000000444, 0.6350000000000000089 ) ) ;
#400 = EDGE_CURVE ( 'NONE', #503, #251, #140, .T. ) ;
#401 = VECTOR ( 'NONE', #772, 100.0000000000000000 ) ;
#402 = DIRECTION ( 'NONE',  ( -0.000000000000000000, 0.000000000000000000, 1.000000000000000000 ) ) ;
#403 = ADVANCED_FACE ( 'NONE', ( #205 ), #531, .T. ) ;
#404 = AXIS2_PLACEMENT_3D ( 'NONE', #758, #193, #449 ) ;
#405 = PLANE ( 'NONE',  #358 ) ;
#406 = ADVANCED_FACE ( 'NONE', ( #641 ), #701, .T. ) ;
#407 = CARTESIAN_POINT ( 'NONE',  ( 0.4100000000000000311, 2.000000000000000444, 0.1349999999999999534 ) ) ;
#408 = DIRECTION ( 'NONE',  ( -2.312964634635742957E-16, 1.000000000000000000, 0.000000000000000000 ) ) ;
#409 = DIRECTION ( 'NONE',  ( 4.818676322157798361E-16, 1.000000000000000000, 0.000000000000000000 ) ) ;
#410 = EDGE_CURVE ( 'NONE', #325, #226, #646, .T. ) ;
#411 = DIRECTION ( 'NONE',  ( 0.000000000000000000, 0.000000000000000000, -1.000000000000000000 ) ) ;
#412 = VECTOR ( 'NONE', #222, 100.0000000000000000 ) ;
#413 = ORIENTED_EDGE ( 'NONE', *, *, #688, .T. ) ;
#414 = CARTESIAN_POINT ( 'NONE',  ( 0.4100000000000000311, 2.000000000000000444, 0.1349999999999999534 ) ) ;
#415 = DIRECTION ( 'NONE',  ( -2.258880508902365962E-16, 1.000000000000000000, 0.000000000000000000 ) ) ;
#416 = ORIENTED_EDGE ( 'NONE', *, *, #682, .F. ) ;
#417 = DIRECTION ( 'NONE',  ( -0.000000000000000000, 0.000000000000000000, 1.000000000000000000 ) ) ;
#418 = CARTESIAN_POINT ( 'NONE',  ( 0.7679571668975722076, 1.199999999999999956, 0.1349999999999999534 ) ) ;
#419 = ORIENTED_EDGE ( 'NONE', *, *, #6, .T. ) ;
#420 = ORIENTED_EDGE ( 'NONE', *, *, #410, .F. ) ;
#421 = CARTESIAN_POINT ( 'NONE',  ( 0.000000000000000000, -0.3049999999999999933, 0.6350000000000000089 ) ) ;
#422 = CARTESIAN_POINT ( 'NONE',  ( 0.4100000000000000311, 2.000000000000000444, 0.6350000000000000089 ) ) ;
#423 = VERTEX_POINT ( 'NONE', #275 ) ;
#424 = ORIENTED_EDGE ( 'NONE', *, *, #74, .F. ) ;
#425 = EDGE_CURVE ( 'NONE', #635, #195, #527, .T. ) ;
#426 = PRODUCT_DEFINITION_FORMATION_WITH_SPECIFIED_SOURCE ( 'ANY', '', #68, .NOT_KNOWN. ) ;
#427 = DIRECTION ( 'NONE',  ( 0.000000000000000000, 0.000000000000000000, -1.000000000000000000 ) ) ;
#428 = ORIENTED_EDGE ( 'NONE', *, *, #93, .T. ) ;
#429 = ORIENTED_EDGE ( 'NONE', *, *, #592, .F. ) ;
#430 = PLANE ( 'NONE',  #119 ) ;
#431 = VERTEX_POINT ( 'NONE', #585 ) ;
#432 = DIRECTION ( 'NONE',  ( 0.000000000000000000, 0.000000000000000000, -1.000000000000000000 ) ) ;
#433 = ORIENTED_EDGE ( 'NONE', *, *, #99, .F. ) ;
#434 = DIRECTION ( 'NONE',  ( 0.000000000000000000, 0.000000000000000000, 1.000000000000000000 ) ) ;
#435 = ORIENTED_EDGE ( 'NONE', *, *, #800, .T. ) ;
#436 = CARTESIAN_POINT ( 'NONE',  ( -16.63499999999999801, 1.364999999999996438, 0.3175000000000000044 ) ) ;
#437 = EDGE_CURVE ( 'NONE', #439, #325, #208, .T. ) ;
#438 = ORIENTED_EDGE ( 'NONE', *, *, #348, .F. ) ;
#439 = VERTEX_POINT ( 'NONE', #147 ) ;
#440 = VECTOR ( 'NONE', #271, 100.0000000000000000 ) ;
#441 = LINE ( 'NONE', #614, #542 ) ;
#442 = VECTOR ( 'NONE', #427, 100.0000000000000000 ) ;
#443 = CARTESIAN_POINT ( 'NONE',  ( -1.820000000000000506, -0.4100000000000003086, 0.1349999999999999534 ) ) ;
#444 = AXIS2_PLACEMENT_3D ( 'NONE', #459, #137, #334 ) ;
#445 = DIRECTION ( 'NONE',  ( 0.000000000000000000, -1.000000000000000000, 0.000000000000000000 ) ) ;
#446 = CARTESIAN_POINT ( 'NONE',  ( -1.820000000000000506, -0.4100000000000003086, 0.6350000000000000089 ) ) ;
#447 = ORIENTED_EDGE ( 'NONE', *, *, #240, .F. ) ;
#448 = FACE_OUTER_BOUND ( 'NONE', #491, .T. ) ;
#449 = DIRECTION ( 'NONE',  ( 0.000000000000000000, -1.000000000000000000, 0.000000000000000000 ) ) ;
#450 = VERTEX_POINT ( 'NONE', #529 ) ;
#451 = EDGE_CURVE ( 'NONE', #561, #548, #775, .T. ) ;
#452 = LINE ( 'NONE', #436, #274 ) ;
#453 = CARTESIAN_POINT ( 'NONE',  ( -0.4100000000000000311, 2.000000000000000444, 0.6350000000000000089 ) ) ;
#454 = ORIENTED_EDGE ( 'NONE', *, *, #153, .F. ) ;
#455 = ADVANCED_FACE ( 'NONE', ( #779 ), #705, .F. ) ;
#456 = CARTESIAN_POINT ( 'NONE',  ( 0.4100000000000000311, 2.000000000000000444, 0.1349999999999999534 ) ) ;
#457 =( LENGTH_UNIT ( ) NAMED_UNIT ( * ) SI_UNIT ( .CENTI., .METRE. ) );
#458 = LINE ( 'NONE', #125, #258 ) ;
#459 = CARTESIAN_POINT ( 'NONE',  ( 0.000000000000000000, 0.000000000000000000, 0.6350000000000000089 ) ) ;
#460 = FACE_BOUND ( 'NONE', #167, .T. ) ;
#461 = DIRECTION ( 'NONE',  ( -0.000000000000000000, 0.000000000000000000, 1.000000000000000000 ) ) ;
#462 = EDGE_CURVE ( 'NONE', #808, #200, #41, .T. ) ;
#463 = CARTESIAN_POINT ( 'NONE',  ( -0.4100000000000000311, 2.000000000000000444, 0.1349999999999999534 ) ) ;
#464 = APPLICATION_CONTEXT ( 'automotive_design' ) ;
#465 = CARTESIAN_POINT ( 'NONE',  ( -2.000000000000000444, 0.4099999999999996980, 0.1349999999999999534 ) ) ;
#466 = VECTOR ( 'NONE', #263, 100.0000000000000142 ) ;
#467 = VECTOR ( 'NONE', #78, 100.0000000000000000 ) ;
#468 = AXIS2_PLACEMENT_3D ( 'NONE', #609, #432, #111 ) ;
#469 = VECTOR ( 'NONE', #473, 100.0000000000000000 ) ;
#470 = DIRECTION ( 'NONE',  ( -0.000000000000000000, 0.000000000000000000, 1.000000000000000000 ) ) ;
#471 = LINE ( 'NONE', #17, #323 ) ;
#472 = CARTESIAN_POINT ( 'NONE',  ( -0.4099999999999999201, 1.820000000000000506, 0.1349999999999999534 ) ) ;
#473 = DIRECTION ( 'NONE',  ( 0.000000000000000000, 0.000000000000000000, 1.000000000000000000 ) ) ;
#474 = EDGE_LOOP ( 'NONE', ( #256, #160, #755, #662, #815, #304 ) ) ;
#475 = DIRECTION ( 'NONE',  ( 0.000000000000000000, 0.000000000000000000, 1.000000000000000000 ) ) ;
#476 = DIRECTION ( 'NONE',  ( 1.000000000000000000, 2.312964634635742957E-16, 0.000000000000000000 ) ) ;
#477 = AXIS2_PLACEMENT_3D ( 'NONE', #353, #597, #25 ) ;
#478 = ORIENTED_EDGE ( 'NONE', *, *, #348, .T. ) ;
#479 = AXIS2_PLACEMENT_3D ( 'NONE', #566, #766, #694 ) ;
#480 = DIRECTION ( 'NONE',  ( -0.8660254037844360431, -0.5000000000000045519, 0.000000000000000000 ) ) ;
#481 = ORIENTED_EDGE ( 'NONE', *, *, #751, .T. ) ;
#482 = ORIENTED_EDGE ( 'NONE', *, *, #278, .F. ) ;
#483 = LINE ( 'NONE', #286, #510 ) ;
#484 = VERTEX_POINT ( 'NONE', #298 ) ;
#485 = EDGE_CURVE ( 'NONE', #810, #561, #107, .T. ) ;
#486 = EDGE_LOOP ( 'NONE', ( #825, #416, #546, #623 ) ) ;
#487 = ORIENTED_EDGE ( 'NONE', *, *, #599, .F. ) ;
#488 = LINE ( 'NONE', #169, #442 ) ;
#489 = ORIENTED_EDGE ( 'NONE', *, *, #288, .T. ) ;
#490 = ORIENTED_EDGE ( 'NONE', *, *, #194, .F. ) ;
#491 = EDGE_LOOP ( 'NONE', ( #601, #364, #56, #234 ) ) ;
#492 = LINE ( 'NONE', #598, #146 ) ;
#493 = CARTESIAN_POINT ( 'NONE',  ( 0.4100000000000000311, 2.000000000000000444, 0.6350000000000000089 ) ) ;
#494 = VECTOR ( 'NONE', #385, 100.0000000000000000 ) ;
#495 = CARTESIAN_POINT ( 'NONE',  ( 0.000000000000000000, 0.000000000000000000, 0.000000000000000000 ) ) ;
#496 = ORIENTED_EDGE ( 'NONE', *, *, #729, .T. ) ;
#497 = ORIENTED_EDGE ( 'NONE', *, *, #588, .T. ) ;
#498 = EDGE_CURVE ( 'NONE', #439, #291, #87, .T. ) ;
#499 = LINE ( 'NONE', #679, #103 ) ;
#500 = EDGE_LOOP ( 'NONE', ( #677, #27, #383, #604 ) ) ;
#501 = CARTESIAN_POINT ( 'NONE',  ( -1.364999999999998215, 2.000000000000001776, 0.6350000000000000089 ) ) ;
#502 = ORIENTED_EDGE ( 'NONE', *, *, #547, .T. ) ;
#503 = VERTEX_POINT ( 'NONE', #242 ) ;
#504 = CARTESIAN_POINT ( 'NONE',  ( -2.000000000000000888, 1.364999999999999991, 0.000000000000000000 ) ) ;
#505 = LINE ( 'NONE', #519, #466 ) ;
#506 = DIRECTION ( 'NONE',  ( -0.5000000000000042188, 0.8660254037844362651, -0.000000000000000000 ) ) ;
#507 =( NAMED_UNIT ( * ) SI_UNIT ( $, .STERADIAN. ) SOLID_ANGLE_UNIT ( ) );
#508 = ORIENTED_EDGE ( 'NONE', *, *, #539, .T. ) ;
#509 =( GEOMETRIC_REPRESENTATION_CONTEXT ( 3 ) GLOBAL_UNCERTAINTY_ASSIGNED_CONTEXT ( ( #337 ) ) GLOBAL_UNIT_ASSIGNED_CONTEXT ( ( #387, #199, #507 ) ) REPRESENTATION_CONTEXT ( 'NONE', 'WORKASPACE' ) );
#510 = VECTOR ( 'NONE', #652, 100.0000000000000000 ) ;
#511 = CARTESIAN_POINT ( 'NONE',  ( 0.7679571668975722076, 1.199999999999999956, 0.6350000000000000089 ) ) ;
#512 = VECTOR ( 'NONE', #687, 100.0000000000000142 ) ;
#513 = PLANE ( 'NONE',  #283 ) ;
#514 = VERTEX_POINT ( 'NONE', #659 ) ;
#515 = LINE ( 'NONE', #123, #644 ) ;
#516 = LINE ( 'NONE', #752, #282 ) ;
#517 = SURFACE_STYLE_USAGE ( .BOTH. , #320 ) ;
#518 = ADVANCED_FACE ( 'NONE', ( #365 ), #347, .F. ) ;
#519 = CARTESIAN_POINT ( 'NONE',  ( 0.4099999999999999201, 1.820000000000000506, 0.6350000000000000089 ) ) ;
#520 =( NAMED_UNIT ( * ) SI_UNIT ( $, .STERADIAN. ) SOLID_ANGLE_UNIT ( ) );
#521 = CARTESIAN_POINT ( 'NONE',  ( -2.000000000000000444, 0.4099999999999996980, 0.6350000000000000089 ) ) ;
#522 = VECTOR ( 'NONE', #172, 100.0000000000000000 ) ;
#523 = ADVANCED_BREP_SHAPE_REPRESENTATION ( 'vertex-corner_61', ( #34, #780 ), #346 ) ;
#524 = AXIS2_PLACEMENT_3D ( 'NONE', #269, #203, #656 ) ;
#525 = SURFACE_STYLE_FILL_AREA ( #142 ) ;
#526 = ADVANCED_FACE ( 'NONE', ( #611 ), #537, .F. ) ;
#527 = LINE ( 'NONE', #407, #401 ) ;
#528 = DIRECTION ( 'NONE',  ( -0.000000000000000000, -0.000000000000000000, 1.000000000000000000 ) ) ;
#529 = CARTESIAN_POINT ( 'NONE',  ( -2.000000000000000888, 1.499999999999999112, 0.3175000000000000044 ) ) ;
#530 = CARTESIAN_POINT ( 'NONE',  ( 0.7679571668975722076, 1.199999999999999956, 0.1349999999999999534 ) ) ;
#531 = CYLINDRICAL_SURFACE ( 'NONE', #444, 2.500000000000000000 ) ;
#532 = AXIS2_PLACEMENT_3D ( 'NONE', #749, #177, #183 ) ;
#533 = CLOSED_SHELL ( 'NONE', ( #204, #768, #29, #218, #38, #403, #580, #526, #317, #572, #455, #406, #786, #806, #141, #811, #382, #777, #763, #131, #266, #518, #657, #109, #2 ) ) ;
#534 = DIRECTION ( 'NONE',  ( -2.312964634635742957E-16, 1.000000000000000000, 0.000000000000000000 ) ) ;
#535 = LINE ( 'NONE', #538, #148 ) ;
#536 = EDGE_CURVE ( 'NONE', #549, #431, #723, .T. ) ;
#537 = PLANE ( 'NONE',  #336 ) ;
#538 = CARTESIAN_POINT ( 'NONE',  ( -1.999999999999999112, -1.000000000000000000, 0.6350000000000000089 ) ) ;
#539 = EDGE_CURVE ( 'NONE', #746, #423, #391, .T. ) ;
#540 = DIRECTION ( 'NONE',  ( 1.000000000000000000, -4.818676322157798361E-16, 0.000000000000000000 ) ) ;
#541 = AXIS2_PLACEMENT_3D ( 'NONE', #217, #86, #415 ) ;
#542 = VECTOR ( 'NONE', #812, 100.0000000000000000 ) ;
#543 = ORIENTED_EDGE ( 'NONE', *, *, #127, .T. ) ;
#544 = AXIS2_PLACEMENT_3D ( 'NONE', #745, #179, #764 ) ;
#545 = LINE ( 'NONE', #384, #720 ) ;
#546 = ORIENTED_EDGE ( 'NONE', *, *, #729, .F. ) ;
#547 = EDGE_CURVE ( 'NONE', #321, #619, #303, .T. ) ;
#548 = VERTEX_POINT ( 'NONE', #100 ) ;
#549 = VERTEX_POINT ( 'NONE', #350 ) ;
#550 = CARTESIAN_POINT ( 'NONE',  ( -1.820000000000000506, 0.4099999999999995870, 0.1349999999999999534 ) ) ;
#551 = EDGE_CURVE ( 'NONE', #726, #654, #553, .T. ) ;
#552 = ORIENTED_EDGE ( 'NONE', *, *, #485, .F. ) ;
#553 = LINE ( 'NONE', #422, #642 ) ;
#554 = EDGE_LOOP ( 'NONE', ( #725, #558, #424, #52 ) ) ;
#555 = EDGE_CURVE ( 'NONE', #26, #291, #488, .T. ) ;
#556 = EDGE_LOOP ( 'NONE', ( #730, #312, #55, #728 ) ) ;
#557 = DIRECTION ( 'NONE',  ( 4.818676322157799347E-16, -1.000000000000000000, 0.000000000000000000 ) ) ;
#558 = ORIENTED_EDGE ( 'NONE', *, *, #696, .F. ) ;
#559 = PLANE ( 'NONE',  #583 ) ;
#560 = ORIENTED_EDGE ( 'NONE', *, *, #719, .F. ) ;
#561 = VERTEX_POINT ( 'NONE', #727 ) ;
#562 = CARTESIAN_POINT ( 'NONE',  ( -2.000000000000000444, 0.4099999999999996980, 0.1349999999999999534 ) ) ;
#563 = FACE_BOUND ( 'NONE', #60, .T. ) ;
#564 = VERTEX_POINT ( 'NONE', #156 ) ;
#565 = DIRECTION ( 'NONE',  ( -1.000000000000000000, 0.000000000000000000, -0.000000000000000000 ) ) ;
#566 = CARTESIAN_POINT ( 'NONE',  ( -1.500000000000000222, 2.000000000000000444, 0.000000000000000000 ) ) ;
#567 = ORIENTED_EDGE ( 'NONE', *, *, #688, .F. ) ;
#568 = CIRCLE ( 'NONE', #722, 0.3049999999999999933 ) ;
#569 = AXIS2_PLACEMENT_3D ( 'NONE', #826, #82, #765 ) ;
#570 = CARTESIAN_POINT ( 'NONE',  ( 1.000000000000000000, 2.000000000000000444, 0.000000000000000000 ) ) ;
#571 = AXIS2_PLACEMENT_3D ( 'NONE', #264, #761, #330 ) ;
#572 = ADVANCED_FACE ( 'NONE', ( #95 ), #154, .F. ) ;
#573 = VECTOR ( 'NONE', #634, 100.0000000000000000 ) ;
#574 = CARTESIAN_POINT ( 'NONE',  ( -0.4100000000000000311, 2.000000000000000444, 0.1349999999999999534 ) ) ;
#575 = CARTESIAN_POINT ( 'NONE',  ( -1.364999999999998215, 1.364999999999999991, 0.3175000000000000044 ) ) ;
#576 = DIRECTION ( 'NONE',  ( 0.000000000000000000, 0.000000000000000000, 1.000000000000000000 ) ) ;
#577 = DIRECTION ( 'NONE',  ( -0.5000000000000042188, -0.8660254037844362651, 0.000000000000000000 ) ) ;
#578 = PRODUCT_CONTEXT ( 'NONE', #290, 'mechanical' ) ;
#579 = CARTESIAN_POINT ( 'NONE',  ( -1.200000000000000178, 0.7679571668975719856, 0.6350000000000000089 ) ) ;
#580 = ADVANCED_FACE ( 'NONE', ( #233 ), #670, .F. ) ;
#581 = CARTESIAN_POINT ( 'NONE',  ( -1.500000000000000222, 2.000000000000000444, 0.3175000000000000044 ) ) ;
#582 = AXIS2_PLACEMENT_3D ( 'NONE', #349, #352, #605 ) ;
#583 = AXIS2_PLACEMENT_3D ( 'NONE', #184, #816, #57 ) ;
#584 = CARTESIAN_POINT ( 'NONE',  ( -1.500000000000000222, 2.000000000000000444, 0.6350000000000000089 ) ) ;
#585 = CARTESIAN_POINT ( 'NONE',  ( -1.999999999999999112, -1.000000000000000000, 0.000000000000000000 ) ) ;
#586 = CARTESIAN_POINT ( 'NONE',  ( -1.820000000000000506, -0.4100000000000003086, 0.1349999999999999534 ) ) ;
#587 = LINE ( 'NONE', #215, #778 ) ;
#588 = EDGE_CURVE ( 'NONE', #661, #635, #483, .T. ) ;
#589 = SHAPE_DEFINITION_REPRESENTATION ( #748, #523 ) ;
#590 = LINE ( 'NONE', #152, #77 ) ;
#591 = FACE_OUTER_BOUND ( 'NONE', #801, .T. ) ;
#592 = EDGE_CURVE ( 'NONE', #301, #564, #165, .T. ) ;
#593 = CARTESIAN_POINT ( 'NONE',  ( -16.63499999999999801, 1.364999999999996438, 0.3175000000000000044 ) ) ;
#594 = CIRCLE ( 'NONE', #571, 2.500000000000000000 ) ;
#595 = DIRECTION ( 'NONE',  ( 0.000000000000000000, -1.000000000000000000, 0.000000000000000000 ) ) ;
#596 = EDGE_LOOP ( 'NONE', ( #740, #695, #420, #560, #232 ) ) ;
#597 = DIRECTION ( 'NONE',  ( -0.8660254037844362651, 0.5000000000000043299, 0.000000000000000000 ) ) ;
#598 = CARTESIAN_POINT ( 'NONE',  ( -1.200000000000000178, 0.7679571668975719856, 0.1349999999999999534 ) ) ;
#599 = EDGE_CURVE ( 'NONE', #724, #301, #91, .T. ) ;
#600 = CARTESIAN_POINT ( 'NONE',  ( -1.820000000000000506, 0.4099999999999995870, 0.6350000000000000089 ) ) ;
#601 = ORIENTED_EDGE ( 'NONE', *, *, #300, .T. ) ;
#602 = VECTOR ( 'NONE', #80, 100.0000000000000000 ) ;
#603 = AXIS2_PLACEMENT_3D ( 'NONE', #699, #66, #133 ) ;
#604 = ORIENTED_EDGE ( 'NONE', *, *, #638, .T. ) ;
#605 = DIRECTION ( 'NONE',  ( 0.000000000000000000, 1.000000000000000000, 0.000000000000000000 ) ) ;
#606 = VECTOR ( 'NONE', #132, 100.0000000000000000 ) ;
#607 = CARTESIAN_POINT ( 'NONE',  ( 0.4099999999999999201, 1.820000000000000506, 0.1349999999999999534 ) ) ;
#608 = ORIENTED_EDGE ( 'NONE', *, *, #711, .F. ) ;
#609 = CARTESIAN_POINT ( 'NONE',  ( 1.156482317317871478E-16, 0.000000000000000000, 0.6350000000000000089 ) ) ;
#610 = EDGE_LOOP ( 'NONE', ( #796, #168, #628, #658, #615, #502, #447, #307, #741, #374 ) ) ;
#611 = FACE_OUTER_BOUND ( 'NONE', #486, .T. ) ;
#612 = DIRECTION ( 'NONE',  ( -0.000000000000000000, 0.000000000000000000, 1.000000000000000000 ) ) ;
#613 = VERTEX_POINT ( 'NONE', #600 ) ;
#614 = CARTESIAN_POINT ( 'NONE',  ( -1.364999999999998215, 1.364999999999999991, 0.3175000000000000044 ) ) ;
#615 = ORIENTED_EDGE ( 'NONE', *, *, #162, .T. ) ;
#616 = DIRECTION ( 'NONE',  ( 0.000000000000000000, -1.000000000000000000, 0.000000000000000000 ) ) ;
#617 = CARTESIAN_POINT ( 'NONE',  ( 0.000000000000000000, 0.000000000000000000, 0.6350000000000000089 ) ) ;
#618 = ORIENTED_EDGE ( 'NONE', *, *, #93, .F. ) ;
#619 = VERTEX_POINT ( 'NONE', #30 ) ;
#620 = DIRECTION ( 'NONE',  ( -1.249637081581196951E-16, 1.000000000000000000, -0.000000000000000000 ) ) ;
#621 = CARTESIAN_POINT ( 'NONE',  ( -1.820000000000000506, 0.4099999999999995870, 0.1349999999999999534 ) ) ;
#622 = ORIENTED_EDGE ( 'NONE', *, *, #783, .F. ) ;
#623 = ORIENTED_EDGE ( 'NONE', *, *, #462, .T. ) ;
#624 = EDGE_CURVE ( 'NONE', #195, #503, #545, .T. ) ;
#625 = DIRECTION ( 'NONE',  ( 0.000000000000000000, -1.000000000000000000, 0.000000000000000000 ) ) ;
#626 = DIRECTION ( 'NONE',  ( -0.000000000000000000, 0.000000000000000000, 1.000000000000000000 ) ) ;
#627 = CARTESIAN_POINT ( 'NONE',  ( -2.000000000000000444, -0.4100000000000003642, 0.6350000000000000089 ) ) ;
#628 = ORIENTED_EDGE ( 'NONE', *, *, #437, .T. ) ;
#629 = EDGE_CURVE ( 'NONE', #802, #514, #441, .T. ) ;
#630 = LINE ( 'NONE', #562, #122 ) ;
#631 = EDGE_LOOP ( 'NONE', ( #413, #182, #176, #32 ) ) ;
#632 = EDGE_CURVE ( 'NONE', #241, #683, #739, .T. ) ;
#633 = PLANE ( 'NONE',  #188 ) ;
#634 = DIRECTION ( 'NONE',  ( 4.818676322157799347E-16, -1.000000000000000000, 0.000000000000000000 ) ) ;
#635 = VERTEX_POINT ( 'NONE', #742 ) ;
#636 = DIRECTION ( 'NONE',  ( 0.000000000000000000, -1.000000000000000000, 0.000000000000000000 ) ) ;
#637 = DIRECTION ( 'NONE',  ( -1.000000000000000000, 4.818676322157798361E-16, 0.000000000000000000 ) ) ;
#638 = EDGE_CURVE ( 'NONE', #692, #175, #214, .T. ) ;
#639 = FACE_OUTER_BOUND ( 'NONE', #610, .T. ) ;
#640 = DIRECTION ( 'NONE',  ( -2.258880508902365962E-16, 1.000000000000000000, -0.000000000000000000 ) ) ;
#641 = FACE_OUTER_BOUND ( 'NONE', #45, .T. ) ;
#642 = VECTOR ( 'NONE', #714, 100.0000000000000000 ) ;
#643 = APPLICATION_PROTOCOL_DEFINITION ( 'draft international standard', 'automotive_design', 1998, #290 ) ;
#644 = VECTOR ( 'NONE', #54, 100.0000000000000000 ) ;
#645 = FACE_OUTER_BOUND ( 'NONE', #631, .T. ) ;
#646 = LINE ( 'NONE', #581, #754 ) ;
#647 = ORIENTED_EDGE ( 'NONE', *, *, #649, .T. ) ;
#648 = CARTESIAN_POINT ( 'NONE',  ( -2.000000000000000000, -1.500000000000000888, 0.000000000000000000 ) ) ;
#649 = EDGE_CURVE ( 'NONE', #388, #90, #49, .T. ) ;
#650 = DIRECTION ( 'NONE',  ( -1.000000000000000000, -4.818676322157798361E-16, 0.000000000000000000 ) ) ;
#651 = LINE ( 'NONE', #267, #792 ) ;
#652 = DIRECTION ( 'NONE',  ( 4.818676322157799347E-16, 1.000000000000000000, 0.000000000000000000 ) ) ;
#653 = DIRECTION ( 'NONE',  ( -0.000000000000000000, 0.000000000000000000, 1.000000000000000000 ) ) ;
#654 = VERTEX_POINT ( 'NONE', #493 ) ;
#655 = DIRECTION ( 'NONE',  ( 0.8660254037844362651, -0.5000000000000039968, 0.000000000000000000 ) ) ;
#656 = DIRECTION ( 'NONE',  ( 1.000000000000000000, 0.000000000000000000, 0.000000000000000000 ) ) ;
#657 = ADVANCED_FACE ( 'NONE', ( #308 ), #430, .T. ) ;
#658 = ORIENTED_EDGE ( 'NONE', *, *, #410, .T. ) ;
#659 = CARTESIAN_POINT ( 'NONE',  ( -1.364999999999998215, 1.364999999999999991, 0.6350000000000000089 ) ) ;
#660 = ORIENTED_EDGE ( 'NONE', *, *, #588, .F. ) ;
#661 = VERTEX_POINT ( 'NONE', #116 ) ;
#662 = ORIENTED_EDGE ( 'NONE', *, *, #85, .T. ) ;
#663 = DIRECTION ( 'NONE',  ( 1.000000000000000000, 0.000000000000000000, 0.000000000000000000 ) ) ;
#664 = ORIENTED_EDGE ( 'NONE', *, *, #113, .T. ) ;
#665 = VECTOR ( 'NONE', #211, 100.0000000000000000 ) ;
#666 = VECTOR ( 'NONE', #223, 100.0000000000000000 ) ;
#667 = ORIENTED_EDGE ( 'NONE', *, *, #451, .F. ) ;
#668 = ORIENTED_EDGE ( 'NONE', *, *, #547, .F. ) ;
#669 = VECTOR ( 'NONE', #528, 100.0000000000000000 ) ;
#670 = PLANE ( 'NONE',  #767 ) ;
#671 = EDGE_LOOP ( 'NONE', ( #428, #97, #429, #689 ) ) ;
#672 = ORIENTED_EDGE ( 'NONE', *, *, #738, .T. ) ;
#673 = CARTESIAN_POINT ( 'NONE',  ( -16.63499999999999801, 1.364999999999996438, 0.6350000000000000089 ) ) ;
#674 = CARTESIAN_POINT ( 'NONE',  ( 1.000000000000000222, -1.000000000000000000, 0.6350000000000000089 ) ) ;
#675 = EDGE_CURVE ( 'NONE', #802, #226, #499, .T. ) ;
#676 = CARTESIAN_POINT ( 'NONE',  ( 3.735172737399427023E-17, 0.3049999999999999933, 0.000000000000000000 ) ) ;
#677 = ORIENTED_EDGE ( 'NONE', *, *, #6, .F. ) ;
#678 = ORIENTED_EDGE ( 'NONE', *, *, #624, .F. ) ;
#679 = CARTESIAN_POINT ( 'NONE',  ( -1.364999999999999991, 16.63499999999999801, 0.3175000000000000044 ) ) ;
#680 = DIRECTION ( 'NONE',  ( 1.000000000000000000, 2.385670792109557660E-16, 0.000000000000000000 ) ) ;
#681 = CYLINDRICAL_SURFACE ( 'NONE', #706, 0.3049999999999999933 ) ;
#682 = EDGE_CURVE ( 'NONE', #661, #726, #376, .T. ) ;
#683 = VERTEX_POINT ( 'NONE', #155 ) ;
#684 = ORIENTED_EDGE ( 'NONE', *, *, #632, .T. ) ;
#685 = CARTESIAN_POINT ( 'NONE',  ( 1.156482317317871478E-16, 0.000000000000000000, 0.6350000000000000089 ) ) ;
#686 = VECTOR ( 'NONE', #402, 100.0000000000000000 ) ;
#687 = DIRECTION ( 'NONE',  ( 0.8660254037844362651, -0.5000000000000039968, 0.000000000000000000 ) ) ;
#688 = EDGE_CURVE ( 'NONE', #241, #514, #736, .T. ) ;
#689 = ORIENTED_EDGE ( 'NONE', *, *, #367, .T. ) ;
#690 = CARTESIAN_POINT ( 'NONE',  ( 0.7679571668975722076, 1.199999999999999956, 0.1349999999999999534 ) ) ;
#691 = LINE ( 'NONE', #62, #104 ) ;
#692 = VERTEX_POINT ( 'NONE', #421 ) ;
#693 = FACE_OUTER_BOUND ( 'NONE', #671, .T. ) ;
#694 = DIRECTION ( 'NONE',  ( 1.000000000000000000, 0.000000000000000000, 0.000000000000000000 ) ) ;
#695 = ORIENTED_EDGE ( 'NONE', *, *, #675, .T. ) ;
#696 = EDGE_CURVE ( 'NONE', #810, #805, #492, .T. ) ;
#697 = DIRECTION ( 'NONE',  ( -0.000000000000000000, 0.000000000000000000, 1.000000000000000000 ) ) ;
#698 = MECHANICAL_DESIGN_GEOMETRIC_PRESENTATION_REPRESENTATION (  '', ( #136 ), #509 ) ;
#699 = CARTESIAN_POINT ( 'NONE',  ( 0.000000000000000000, 0.000000000000000000, 0.1349999999999999534 ) ) ;
#700 = DIRECTION ( 'NONE',  ( -0.000000000000000000, 0.000000000000000000, 1.000000000000000000 ) ) ;
#701 = PLANE ( 'NONE',  #185 ) ;
#702 = DIRECTION ( 'NONE',  ( 1.000000000000000000, 0.000000000000000000, 0.000000000000000000 ) ) ;
#703 = DIRECTION ( 'NONE',  ( -0.000000000000000000, 0.000000000000000000, 1.000000000000000000 ) ) ;
#704 = AXIS2_PLACEMENT_3D ( 'NONE', #593, #19, #159 ) ;
#705 = PLANE ( 'NONE',  #818 ) ;
#706 = AXIS2_PLACEMENT_3D ( 'NONE', #495, #174, #249 ) ;
#707 = EDGE_LOOP ( 'NONE', ( #157, #81, #37, #306 ) ) ;
#708 = DIRECTION ( 'NONE',  ( 0.000000000000000000, -1.000000000000000000, 0.000000000000000000 ) ) ;
#709 = VECTOR ( 'NONE', #314, 100.0000000000000000 ) ;
#710 = CARTESIAN_POINT ( 'NONE',  ( 0.000000000000000000, 0.000000000000000000, 0.000000000000000000 ) ) ;
#711 = EDGE_CURVE ( 'NONE', #245, #24, #371, .T. ) ;
#712 = PLANE ( 'NONE',  #145 ) ;
#713 = CARTESIAN_POINT ( 'NONE',  ( -0.4099999999999999201, 1.820000000000000506, 0.6350000000000000089 ) ) ;
#714 = DIRECTION ( 'NONE',  ( 4.818676322157799347E-16, 1.000000000000000000, 0.000000000000000000 ) ) ;
#715 = LINE ( 'NONE', #345, #686 ) ;
#716 = ORIENTED_EDGE ( 'NONE', *, *, #592, .T. ) ;
#717 = CARTESIAN_POINT ( 'NONE',  ( -1.820000000000000506, -0.4100000000000003086, 0.1349999999999999534 ) ) ;
#718 = ORIENTED_EDGE ( 'NONE', *, *, #51, .T. ) ;
#719 = EDGE_CURVE ( 'NONE', #450, #325, #134, .T. ) ;
#720 = VECTOR ( 'NONE', #557, 100.0000000000000000 ) ;
#721 = LINE ( 'NONE', #782, #669 ) ;
#722 = AXIS2_PLACEMENT_3D ( 'NONE', #151, #219, #636 ) ;
#723 = LINE ( 'NONE', #731, #666 ) ;
#724 = VERTEX_POINT ( 'NONE', #98 ) ;
#725 = ORIENTED_EDGE ( 'NONE', *, *, #88, .T. ) ;
#726 = VERTEX_POINT ( 'NONE', #357 ) ;
#727 = CARTESIAN_POINT ( 'NONE',  ( -1.820000000000000506, 0.4099999999999995870, 0.1349999999999999534 ) ) ;
#728 = ORIENTED_EDGE ( 'NONE', *, *, #229, .F. ) ;
#729 = EDGE_CURVE ( 'NONE', #808, #661, #297, .T. ) ;
#730 = ORIENTED_EDGE ( 'NONE', *, *, #649, .F. ) ;
#731 = CARTESIAN_POINT ( 'NONE',  ( -1.999999999999999112, -1.000000000000000000, 0.000000000000000000 ) ) ;
#732 = VERTEX_POINT ( 'NONE', #823 ) ;
#733 = AXIS2_PLACEMENT_3D ( 'NONE', #617, #380, #445 ) ;
#734 = ORIENTED_EDGE ( 'NONE', *, *, #65, .T. ) ;
#735 = ORIENTED_EDGE ( 'NONE', *, *, #194, .T. ) ;
#736 = LINE ( 'NONE', #673, #522 ) ;
#737 = COLOUR_RGB ( '',0.7921568627450980005, 0.8196078431372548767, 0.9333333333333333481 ) ;
#738 = EDGE_CURVE ( 'NONE', #503, #163, #516, .T. ) ;
#739 = LINE ( 'NONE', #504, #170 ) ;
#740 = ORIENTED_EDGE ( 'NONE', *, *, #329, .T. ) ;
#741 = ORIENTED_EDGE ( 'NONE', *, *, #278, .T. ) ;
#742 = CARTESIAN_POINT ( 'NONE',  ( 0.4100000000000001421, 2.000000000000000444, 0.1349999999999999534 ) ) ;
#743 = ORIENTED_EDGE ( 'NONE', *, *, #396, .T. ) ;
#744 = EDGE_CURVE ( 'NONE', #388, #245, #58, .T. ) ;
#745 = CARTESIAN_POINT ( 'NONE',  ( 1.156482317317871478E-16, 0.000000000000000000, 0.000000000000000000 ) ) ;
#746 = VERTEX_POINT ( 'NONE', #676 ) ;
#747 = EDGE_LOOP ( 'NONE', ( #381, #135, #489, #311 ) ) ;
#748 = PRODUCT_DEFINITION_SHAPE ( 'NONE', 'NONE',  #23 ) ;
#749 = CARTESIAN_POINT ( 'NONE',  ( 0.000000000000000000, 0.000000000000000000, 0.6350000000000000089 ) ) ;
#750 = LINE ( 'NONE', #621, #295 ) ;
#751 = EDGE_CURVE ( 'NONE', #548, #299, #187, .T. ) ;
#752 = CARTESIAN_POINT ( 'NONE',  ( -0.4099999999999999201, 1.820000000000000506, 0.1349999999999999534 ) ) ;
#753 = CARTESIAN_POINT ( 'NONE',  ( -1.200000000000000178, 0.7679571668975719856, 0.1349999999999999534 ) ) ;
#754 = VECTOR ( 'NONE', #7, 100.0000000000000000 ) ;
#755 = ORIENTED_EDGE ( 'NONE', *, *, #536, .T. ) ;
#756 = CIRCLE ( 'NONE', #404, 0.3049999999999999933 ) ;
#757 = DIRECTION ( 'NONE',  ( 1.000000000000000000, 0.000000000000000000, 0.000000000000000000 ) ) ;
#758 = CARTESIAN_POINT ( 'NONE',  ( 0.000000000000000000, 0.000000000000000000, 0.000000000000000000 ) ) ;
#759 = ORIENTED_EDGE ( 'NONE', *, *, #189, .F. ) ;
#760 = FACE_OUTER_BOUND ( 'NONE', #747, .T. ) ;
#761 = DIRECTION ( 'NONE',  ( 0.000000000000000000, 0.000000000000000000, 1.000000000000000000 ) ) ;
#762 = EDGE_LOOP ( 'NONE', ( #44, #797, #667, #221 ) ) ;
#763 = ADVANCED_FACE ( 'NONE', ( #43 ), #681, .F. ) ;
#764 = DIRECTION ( 'NONE',  ( 0.000000000000000000, -1.000000000000000000, 0.000000000000000000 ) ) ;
#765 = DIRECTION ( 'NONE',  ( -0.8660254037844360431, -0.5000000000000045519, 0.000000000000000000 ) ) ;
#766 = DIRECTION ( 'NONE',  ( 0.000000000000000000, -1.000000000000000000, 0.000000000000000000 ) ) ;
#767 = AXIS2_PLACEMENT_3D ( 'NONE', #414, #540, #409 ) ;
#768 = ADVANCED_FACE ( 'NONE', ( #563, #373 ), #118, .T. ) ;
#769 = DIRECTION ( 'NONE',  ( -0.5000000000000042188, -0.8660254037844362651, 0.000000000000000000 ) ) ;
#770 = VECTOR ( 'NONE', #534, 100.0000000000000000 ) ;
#771 = DIRECTION ( 'NONE',  ( 4.818676322157798361E-16, 1.000000000000000000, 0.000000000000000000 ) ) ;
#772 = DIRECTION ( 'NONE',  ( -1.000000000000000000, 0.000000000000000000, 0.000000000000000000 ) ) ;
#773 = DIRECTION ( 'NONE',  ( -0.000000000000000000, 0.000000000000000000, 1.000000000000000000 ) ) ;
#774 = PLANE ( 'NONE',  #704 ) ;
#775 = LINE ( 'NONE', #465, #602 ) ;
#776 = CARTESIAN_POINT ( 'NONE',  ( -2.000000000000000444, -0.4100000000000003642, 0.1349999999999999534 ) ) ;
#777 = ADVANCED_FACE ( 'NONE', ( #319 ), #143, .F. ) ;
#778 = VECTOR ( 'NONE', #470, 100.0000000000000000 ) ;
#779 = FACE_OUTER_BOUND ( 'NONE', #246, .T. ) ;
#780 = AXIS2_PLACEMENT_3D ( 'NONE', #202, #708, #702 ) ;
#781 = VECTOR ( 'NONE', #822, 100.0000000000000000 ) ;
#782 = CARTESIAN_POINT ( 'NONE',  ( 0.000000000000000000, -1.000000000000000000, 0.6350000000000000089 ) ) ;
#783 = EDGE_CURVE ( 'NONE', #724, #24, #268, .T. ) ;
#784 = LINE ( 'NONE', #76, #73 ) ;
#785 = DIRECTION ( 'NONE',  ( 1.000000000000000000, 0.000000000000000000, 0.000000000000000000 ) ) ;
#786 = ADVANCED_FACE ( 'NONE', ( #332 ), #209, .F. ) ;
#787 = DIRECTION ( 'NONE',  ( 0.000000000000000000, 1.000000000000000000, 0.000000000000000000 ) ) ;
#788 = VERTEX_POINT ( 'NONE', #339 ) ;
#789 = CARTESIAN_POINT ( 'NONE',  ( 0.7679571668975722076, 1.199999999999999956, 0.6350000000000000089 ) ) ;
#790 = DIRECTION ( 'NONE',  ( 1.000000000000000000, 4.818676322157799347E-16, 0.000000000000000000 ) ) ;
#791 = VECTOR ( 'NONE', #803, 100.0000000000000000 ) ;
#792 = VECTOR ( 'NONE', #322, 100.0000000000000000 ) ;
#793 = ORIENTED_EDGE ( 'NONE', *, *, #341, .T. ) ;
#794 = ORIENTED_EDGE ( 'NONE', *, *, #539, .F. ) ;
#795 = DIRECTION ( 'NONE',  ( 0.8660254037844362651, 0.5000000000000043299, 0.000000000000000000 ) ) ;
#796 = ORIENTED_EDGE ( 'NONE', *, *, #555, .T. ) ;
#797 = ORIENTED_EDGE ( 'NONE', *, *, #751, .F. ) ;
#798 = CARTESIAN_POINT ( 'NONE',  ( 0.4099999999999999201, 1.820000000000000506, 0.1349999999999999534 ) ) ;
#799 = CARTESIAN_POINT ( 'NONE',  ( 0.000000000000000000, 0.000000000000000000, 0.3175000000000000044 ) ) ;
#800 = EDGE_CURVE ( 'NONE', #251, #808, #139, .T. ) ;
#801 = EDGE_LOOP ( 'NONE', ( #735, #316, #487, #804 ) ) ;
#802 = VERTEX_POINT ( 'NONE', #575 ) ;
#803 = DIRECTION ( 'NONE',  ( 1.000000000000000000, 0.000000000000000000, 0.000000000000000000 ) ) ;
#804 = ORIENTED_EDGE ( 'NONE', *, *, #783, .T. ) ;
#805 = VERTEX_POINT ( 'NONE', #10 ) ;
#806 = ADVANCED_FACE ( 'NONE', ( #279 ), #328, .F. ) ;
#807 = DIRECTION ( 'NONE',  ( -5.782411586589356160E-17, 1.000000000000000000, 0.000000000000000000 ) ) ;
#808 = VERTEX_POINT ( 'NONE', #392 ) ;
#809 = LINE ( 'NONE', #197, #781 ) ;
#810 = VERTEX_POINT ( 'NONE', #212 ) ;
#811 = ADVANCED_FACE ( 'NONE', ( #693 ), #633, .F. ) ;
#812 = DIRECTION ( 'NONE',  ( -0.000000000000000000, 0.000000000000000000, 1.000000000000000000 ) ) ;
#813 = CARTESIAN_POINT ( 'NONE',  ( -2.000000000000001776, 1.364999999999999991, 0.6350000000000000089 ) ) ;
#814 = LINE ( 'NONE', #579, #292 ) ;
#815 = ORIENTED_EDGE ( 'NONE', *, *, #20, .F. ) ;
#816 = DIRECTION ( 'NONE',  ( 1.000000000000000000, 1.249637081581196951E-16, 0.000000000000000000 ) ) ;
#817 = DIRECTION ( 'NONE',  ( 0.000000000000000000, -1.000000000000000000, 0.000000000000000000 ) ) ;
#818 = AXIS2_PLACEMENT_3D ( 'NONE', #342, #650, #161 ) ;
#819 = ORIENTED_EDGE ( 'NONE', *, *, #113, .F. ) ;
#820 = VECTOR ( 'NONE', #700, 100.0000000000000000 ) ;
#821 = VECTOR ( 'NONE', #769, 100.0000000000000142 ) ;
#822 = DIRECTION ( 'NONE',  ( 5.782411586589356160E-17, -1.000000000000000000, 0.000000000000000000 ) ) ;
#823 = CARTESIAN_POINT ( 'NONE',  ( -2.000000000000000888, 1.499999999999999334, 0.000000000000000000 ) ) ;
#824 = DIRECTION ( 'NONE',  ( -2.258880508902365962E-16, 1.000000000000000000, -0.000000000000000000 ) ) ;
#825 = ORIENTED_EDGE ( 'NONE', *, *, #253, .T. ) ;
#826 = CARTESIAN_POINT ( 'NONE',  ( -1.820000000000000506, 0.4099999999999995870, 0.1349999999999999534 ) ) ;
ENDSEC;
END-ISO-10303-21;
