ISO-10303-21;
HEADER;
FILE_DESCRIPTION (( 'STEP AP214' ),
    '1' );
FILE_NAME ('vertex-edge_62.STEP',
    '2026-06-16T01:09:40',
    ( '' ),
    ( '' ),
    'SwSTEP 2.0',
    'SolidWorks 2023',
    '' );
FILE_SCHEMA (( 'AUTOMOTIVE_DESIGN' ));
ENDSEC;

DATA;
#1 = CARTESIAN_POINT ( 'NONE',  ( 0.7679571668975722076, 1.199999999999999956, 0.6350000000000000089 ) ) ;
#2 = ORIENTED_EDGE ( 'NONE', *, *, #969, .T. ) ;
#3 = EDGE_CURVE ( 'NONE', #713, #258, #5, .T. ) ;
#4 = DIRECTION ( 'NONE',  ( -0.000000000000000000, 0.000000000000000000, 1.000000000000000000 ) ) ;
#5 = LINE ( 'NONE', #412, #976 ) ;
#6 = DIRECTION ( 'NONE',  ( -0.000000000000000000, 0.000000000000000000, 1.000000000000000000 ) ) ;
#7 = ORIENTED_EDGE ( 'NONE', *, *, #628, .F. ) ;
#8 = DIRECTION ( 'NONE',  ( -1.000000000000000000, 0.000000000000000000, 0.000000000000000000 ) ) ;
#9 = CARTESIAN_POINT ( 'NONE',  ( -0.7679571668975722076, 1.199999999999999956, 0.6350000000000000089 ) ) ;
#10 = ADVANCED_FACE ( 'NONE', ( #422 ), #862, .F. ) ;
#11 = ORIENTED_EDGE ( 'NONE', *, *, #986, .T. ) ;
#12 = CARTESIAN_POINT ( 'NONE',  ( 0.4100000000000000311, 2.000000000000000444, 0.6350000000000000089 ) ) ;
#13 = EDGE_LOOP ( 'NONE', ( #903, #1022, #783, #294, #644, #33, #1070, #1044, #452, #826 ) ) ;
#14 =( GEOMETRIC_REPRESENTATION_CONTEXT ( 3 ) GLOBAL_UNCERTAINTY_ASSIGNED_CONTEXT ( ( #578 ) ) GLOBAL_UNIT_ASSIGNED_CONTEXT ( ( #1038, #89, #1123 ) ) REPRESENTATION_CONTEXT ( 'NONE', 'WORKASPACE' ) );
#15 = CARTESIAN_POINT ( 'NONE',  ( -2.000000000000000444, 0.4099999999999997535, 0.1349999999999999534 ) ) ;
#16 = DIRECTION ( 'NONE',  ( -0.000000000000000000, 0.000000000000000000, 1.000000000000000000 ) ) ;
#17 = CIRCLE ( 'NONE', #655, 0.3099999999999999978 ) ;
#18 = ORIENTED_EDGE ( 'NONE', *, *, #882, .F. ) ;
#19 = EDGE_CURVE ( 'NONE', #371, #403, #952, .T. ) ;
#20 = DIRECTION ( 'NONE',  ( 3.067291018426574134E-16, -1.000000000000000000, 0.000000000000000000 ) ) ;
#21 = ORIENTED_EDGE ( 'NONE', *, *, #495, .F. ) ;
#22 = CARTESIAN_POINT ( 'NONE',  ( -16.63499999999999801, 1.364999999999996438, 0.3175000000000000044 ) ) ;
#23 = FACE_OUTER_BOUND ( 'NONE', #467, .T. ) ;
#24 = ORIENTED_EDGE ( 'NONE', *, *, #308, .T. ) ;
#25 = CARTESIAN_POINT ( 'NONE',  ( 0.000000000000000000, 0.000000000000000000, 0.6350000000000000089 ) ) ;
#26 = ADVANCED_FACE ( 'NONE', ( #326 ), #502, .F. ) ;
#27 = ORIENTED_EDGE ( 'NONE', *, *, #532, .F. ) ;
#28 = ADVANCED_FACE ( 'NONE', ( #344 ), #507, .F. ) ;
#29 = LINE ( 'NONE', #106, #850 ) ;
#30 = CARTESIAN_POINT ( 'NONE',  ( -2.000000000000000444, 0.4099999999999996980, 0.1349999999999999534 ) ) ;
#31 = VERTEX_POINT ( 'NONE', #946 ) ;
#32 = CARTESIAN_POINT ( 'NONE',  ( -1.820000000000000506, 0.4099999999999995870, 0.1349999999999999534 ) ) ;
#33 = ORIENTED_EDGE ( 'NONE', *, *, #1007, .T. ) ;
#34 = PLANE ( 'NONE',  #71 ) ;
#35 = EDGE_CURVE ( 'NONE', #641, #266, #74, .T. ) ;
#36 = AXIS2_PLACEMENT_3D ( 'NONE', #503, #609, #603 ) ;
#37 = FILL_AREA_STYLE ('',( #805 ) ) ;
#38 = AXIS2_PLACEMENT_3D ( 'NONE', #735, #408, #932 ) ;
#39 = EDGE_LOOP ( 'NONE', ( #44, #967, #1095, #792, #977 ) ) ;
#40 = VECTOR ( 'NONE', #607, 100.0000000000000000 ) ;
#41 = VERTEX_POINT ( 'NONE', #856 ) ;
#42 = CARTESIAN_POINT ( 'NONE',  ( 0.000000000000000000, 0.000000000000000000, 0.000000000000000000 ) ) ;
#43 = LINE ( 'NONE', #471, #426 ) ;
#44 = ORIENTED_EDGE ( 'NONE', *, *, #299, .T. ) ;
#45 = LINE ( 'NONE', #816, #681 ) ;
#46 = ORIENTED_EDGE ( 'NONE', *, *, #948, .F. ) ;
#47 = LINE ( 'NONE', #222, #636 ) ;
#48 = FACE_OUTER_BOUND ( 'NONE', #272, .T. ) ;
#49 = ORIENTED_EDGE ( 'NONE', *, *, #829, .F. ) ;
#50 = CARTESIAN_POINT ( 'NONE',  ( -0.4100000000000000311, 2.000000000000000444, 0.6350000000000000089 ) ) ;
#51 = ADVANCED_FACE ( 'NONE', ( #770 ), #1122, .F. ) ;
#52 = ORIENTED_EDGE ( 'NONE', *, *, #415, .T. ) ;
#53 = DIRECTION ( 'NONE',  ( 0.000000000000000000, -1.000000000000000000, 0.000000000000000000 ) ) ;
#54 = DIRECTION ( 'NONE',  ( 1.000000000000000000, 0.000000000000000000, 0.000000000000000000 ) ) ;
#55 = ORIENTED_EDGE ( 'NONE', *, *, #35, .F. ) ;
#56 = LINE ( 'NONE', #498, #631 ) ;
#57 = VECTOR ( 'NONE', #541, 100.0000000000000000 ) ;
#58 = VERTEX_POINT ( 'NONE', #1112 ) ;
#59 = VECTOR ( 'NONE', #714, 100.0000000000000000 ) ;
#60 = DIRECTION ( 'NONE',  ( -1.000000000000000000, 4.818676322157799347E-16, -0.000000000000000000 ) ) ;
#61 = VERTEX_POINT ( 'NONE', #761 ) ;
#62 = DIRECTION ( 'NONE',  ( 0.8660254037844362651, -0.5000000000000039968, 0.000000000000000000 ) ) ;
#63 = DIRECTION ( 'NONE',  ( 1.000000000000000000, 0.000000000000000000, 0.000000000000000000 ) ) ;
#64 = DIRECTION ( 'NONE',  ( 1.000000000000000000, 2.312964634635742957E-16, 0.000000000000000000 ) ) ;
#65 = EDGE_LOOP ( 'NONE', ( #354, #753, #358, #650 ) ) ;
#66 = CARTESIAN_POINT ( 'NONE',  ( 0.000000000000000000, 0.000000000000000000, 0.3175000000000000044 ) ) ;
#67 = ADVANCED_FACE ( 'NONE', ( #1115 ), #329, .F. ) ;
#68 = DIRECTION ( 'NONE',  ( 1.000000000000000000, -4.818676322157798361E-16, 0.000000000000000000 ) ) ;
#69 = VERTEX_POINT ( 'NONE', #251 ) ;
#70 = DIRECTION ( 'NONE',  ( 0.000000000000000000, 0.000000000000000000, -1.000000000000000000 ) ) ;
#71 = AXIS2_PLACEMENT_3D ( 'NONE', #660, #721, #1011 ) ;
#72 = STYLED_ITEM ( 'NONE', ( #696 ), #101 ) ;
#73 = CARTESIAN_POINT ( 'NONE',  ( -1.364999999999998215, 2.000000000000000444, 0.3175000000000000044 ) ) ;
#74 = LINE ( 'NONE', #764, #240 ) ;
#75 = EDGE_CURVE ( 'NONE', #734, #1003, #942, .T. ) ;
#76 = VERTEX_POINT ( 'NONE', #682 ) ;
#77 = CARTESIAN_POINT ( 'NONE',  ( -2.000000000000000000, -1.500000000000000888, 0.6350000000000000089 ) ) ;
#78 = APPLICATION_CONTEXT ( 'automotive_design' ) ;
#79 = ORIENTED_EDGE ( 'NONE', *, *, #565, .T. ) ;
#80 = EDGE_CURVE ( 'NONE', #961, #789, #368, .T. ) ;
#81 = LINE ( 'NONE', #334, #902 ) ;
#82 = FACE_OUTER_BOUND ( 'NONE', #836, .T. ) ;
#83 = CARTESIAN_POINT ( 'NONE',  ( -1.500000000000000222, 2.000000000000000444, 0.3175000000000000044 ) ) ;
#84 = PLANE ( 'NONE',  #501 ) ;
#85 = ORIENTED_EDGE ( 'NONE', *, *, #190, .T. ) ;
#86 = CARTESIAN_POINT ( 'NONE',  ( 0.7679571668975722076, 1.199999999999999956, 0.1349999999999999534 ) ) ;
#87 = AXIS2_PLACEMENT_3D ( 'NONE', #596, #1025, #752 ) ;
#88 = DIRECTION ( 'NONE',  ( 0.000000000000000000, 0.000000000000000000, -1.000000000000000000 ) ) ;
#89 =( NAMED_UNIT ( * ) PLANE_ANGLE_UNIT ( ) SI_UNIT ( $, .RADIAN. ) );
#90 = LINE ( 'NONE', #949, #788 ) ;
#91 = ORIENTED_EDGE ( 'NONE', *, *, #1110, .T. ) ;
#92 = CARTESIAN_POINT ( 'NONE',  ( 1.499999999999999778, 2.000000000000000444, 0.000000000000000000 ) ) ;
#93 = ADVANCED_FACE ( 'NONE', ( #691 ), #457, .F. ) ;
#94 = EDGE_LOOP ( 'NONE', ( #920, #380, #85, #544, #719, #998, #1049, #587, #481, #908, #316, #427 ) ) ;
#95 = CARTESIAN_POINT ( 'NONE',  ( -1.820000000000000506, -0.4100000000000003086, 0.1349999999999999534 ) ) ;
#96 = ORIENTED_EDGE ( 'NONE', *, *, #582, .T. ) ;
#97 = DIRECTION ( 'NONE',  ( 0.000000000000000000, 0.000000000000000000, -1.000000000000000000 ) ) ;
#98 = ADVANCED_FACE ( 'NONE', ( #115 ), #546, .F. ) ;
#99 = CARTESIAN_POINT ( 'NONE',  ( -0.4099999999999999201, 1.820000000000000506, 0.1349999999999999534 ) ) ;
#100 = ORIENTED_EDGE ( 'NONE', *, *, #858, .T. ) ;
#101 = MANIFOLD_SOLID_BREP ( 'Cut-Extrude5', #335 ) ;
#102 = CARTESIAN_POINT ( 'NONE',  ( 1.364999999999995328, 16.63499999999999801, 0.3175000000000000044 ) ) ;
#103 = ORIENTED_EDGE ( 'NONE', *, *, #948, .T. ) ;
#104 = VECTOR ( 'NONE', #1087, 100.0000000000000000 ) ;
#105 = VECTOR ( 'NONE', #509, 100.0000000000000000 ) ;
#106 = CARTESIAN_POINT ( 'NONE',  ( -0.7679571668975722076, 1.199999999999999956, 0.1349999999999999534 ) ) ;
#107 = VECTOR ( 'NONE', #978, 100.0000000000000000 ) ;
#108 = SURFACE_SIDE_STYLE ('',( #286 ) ) ;
#109 = COLOUR_RGB ( '',0.7921568627450980005, 0.8196078431372548767, 0.9333333333333333481 ) ;
#110 = ORIENTED_EDGE ( 'NONE', *, *, #751, .F. ) ;
#111 = LINE ( 'NONE', #365, #411 ) ;
#112 = EDGE_CURVE ( 'NONE', #145, #734, #357, .T. ) ;
#113 = ORIENTED_EDGE ( 'NONE', *, *, #628, .T. ) ;
#114 = CARTESIAN_POINT ( 'NONE',  ( -1.364999999999998215, 1.364999999999999991, 0.3175000000000000044 ) ) ;
#115 = FACE_OUTER_BOUND ( 'NONE', #716, .T. ) ;
#116 = VERTEX_POINT ( 'NONE', #261 ) ;
#117 = CARTESIAN_POINT ( 'NONE',  ( 2.000000000000001776, 1.364999999999998437, 0.3175000000000000044 ) ) ;
#118 = ADVANCED_FACE ( 'NONE', ( #451 ), #799, .F. ) ;
#119 = ORIENTED_EDGE ( 'NONE', *, *, #299, .F. ) ;
#120 = CARTESIAN_POINT ( 'NONE',  ( -1.820000000000000506, 0.4099999999999995870, 0.1349999999999999534 ) ) ;
#121 = DIRECTION ( 'NONE',  ( -1.000000000000000000, -3.067291018426574134E-16, 0.000000000000000000 ) ) ;
#122 = ORIENTED_EDGE ( 'NONE', *, *, #558, .F. ) ;
#123 = DIRECTION ( 'NONE',  ( -0.000000000000000000, 0.000000000000000000, 1.000000000000000000 ) ) ;
#124 = VERTEX_POINT ( 'NONE', #9 ) ;
#125 = DIRECTION ( 'NONE',  ( 0.8660254037844362651, 0.5000000000000043299, 0.000000000000000000 ) ) ;
#126 = CARTESIAN_POINT ( 'NONE',  ( 1.820000000000000506, -0.4099999999999998646, 0.6350000000000000089 ) ) ;
#127 = VECTOR ( 'NONE', #828, 100.0000000000000000 ) ;
#128 = ORIENTED_EDGE ( 'NONE', *, *, #464, .T. ) ;
#129 = LINE ( 'NONE', #529, #849 ) ;
#130 = AXIS2_PLACEMENT_3D ( 'NONE', #819, #132, #722 ) ;
#131 = ORIENTED_EDGE ( 'NONE', *, *, #1090, .T. ) ;
#132 = DIRECTION ( 'NONE',  ( 0.000000000000000000, -1.000000000000000000, 0.000000000000000000 ) ) ;
#133 = EDGE_LOOP ( 'NONE', ( #1083, #1034, #973, #399 ) ) ;
#134 = CARTESIAN_POINT ( 'NONE',  ( 1.364999999999999991, 1.364999999999998215, 0.3175000000000000044 ) ) ;
#135 = ORIENTED_EDGE ( 'NONE', *, *, #874, .F. ) ;
#136 = CARTESIAN_POINT ( 'NONE',  ( -2.000000000000000444, -1.000000000000000000, 0.000000000000000000 ) ) ;
#137 = CARTESIAN_POINT ( 'NONE',  ( -1.199999999999999956, -0.7679571668975725407, 0.6350000000000000089 ) ) ;
#138 = EDGE_CURVE ( 'NONE', #172, #460, #637, .T. ) ;
#139 = ORIENTED_EDGE ( 'NONE', *, *, #420, .F. ) ;
#140 = CARTESIAN_POINT ( 'NONE',  ( -1.820000000000000506, -0.4100000000000003086, 0.6350000000000000089 ) ) ;
#141 = EDGE_LOOP ( 'NONE', ( #255, #346, #327, #878, #698, #573, #18, #384, #322, #633, #600, #110, #249, #624, #407, #312, #794, #602, #283, #694, #841, #866, #213, #702, #802, #270 ) ) ;
#142 = DIRECTION ( 'NONE',  ( 1.000000000000000000, 2.385670792109557660E-16, 0.000000000000000000 ) ) ;
#143 = PRODUCT_DEFINITION_FORMATION_WITH_SPECIFIED_SOURCE ( 'ANY', '', #279, .NOT_KNOWN. ) ;
#144 = VECTOR ( 'NONE', #1104, 100.0000000000000000 ) ;
#145 = VERTEX_POINT ( 'NONE', #205 ) ;
#146 = DIRECTION ( 'NONE',  ( -0.5000000000000041078, -0.8660254037844363761, 0.000000000000000000 ) ) ;
#147 = VECTOR ( 'NONE', #760, 100.0000000000000000 ) ;
#148 = VECTOR ( 'NONE', #313, 100.0000000000000000 ) ;
#149 = CARTESIAN_POINT ( 'NONE',  ( 1.199999999999999956, -0.7679571668975722076, 0.1349999999999999534 ) ) ;
#150 = DIRECTION ( 'NONE',  ( 0.000000000000000000, 0.000000000000000000, -1.000000000000000000 ) ) ;
#151 = ORIENTED_EDGE ( 'NONE', *, *, #360, .T. ) ;
#152 = CARTESIAN_POINT ( 'NONE',  ( -1.200000000000000178, 0.7679571668975719856, 0.6350000000000000089 ) ) ;
#153 = EDGE_CURVE ( 'NONE', #361, #870, #269, .T. ) ;
#154 = ORIENTED_EDGE ( 'NONE', *, *, #512, .T. ) ;
#155 = DIRECTION ( 'NONE',  ( -0.000000000000000000, 0.000000000000000000, 1.000000000000000000 ) ) ;
#156 = VERTEX_POINT ( 'NONE', #782 ) ;
#157 = CYLINDRICAL_SURFACE ( 'NONE', #352, 2.500000000000000000 ) ;
#158 = DIRECTION ( 'NONE',  ( -2.312964634635742957E-16, 1.000000000000000000, 0.000000000000000000 ) ) ;
#159 = EDGE_CURVE ( 'NONE', #473, #69, #348, .T. ) ;
#160 = DIRECTION ( 'NONE',  ( 0.000000000000000000, 1.000000000000000000, 0.000000000000000000 ) ) ;
#161 = VECTOR ( 'NONE', #448, 100.0000000000000000 ) ;
#162 = VERTEX_POINT ( 'NONE', #964 ) ;
#163 = CARTESIAN_POINT ( 'NONE',  ( 0.000000000000000000, 0.000000000000000000, 0.1349999999999999534 ) ) ;
#164 = EDGE_CURVE ( 'NONE', #378, #1093, #184, .T. ) ;
#165 = PRODUCT_DEFINITION_CONTEXT ( 'detailed design', #627, 'design' ) ;
#166 = DIRECTION ( 'NONE',  ( 0.000000000000000000, 1.000000000000000000, 0.000000000000000000 ) ) ;
#167 = DIRECTION ( 'NONE',  ( 0.000000000000000000, 0.000000000000000000, 1.000000000000000000 ) ) ;
#168 = DIRECTION ( 'NONE',  ( -0.5000000000000042188, -0.8660254037844362651, 0.000000000000000000 ) ) ;
#169 = ORIENTED_EDGE ( 'NONE', *, *, #619, .F. ) ;
#170 = DIRECTION ( 'NONE',  ( 0.000000000000000000, -1.000000000000000000, 0.000000000000000000 ) ) ;
#171 = PLANE ( 'NONE',  #336 ) ;
#172 = VERTEX_POINT ( 'NONE', #704 ) ;
#173 = LINE ( 'NONE', #431, #861 ) ;
#174 = EDGE_CURVE ( 'NONE', #388, #185, #413, .T. ) ;
#175 = VECTOR ( 'NONE', #837, 100.0000000000000000 ) ;
#176 = VERTEX_POINT ( 'NONE', #446 ) ;
#177 = CARTESIAN_POINT ( 'NONE',  ( 2.000000000000000444, 1.364999999999998437, 0.000000000000000000 ) ) ;
#178 = AXIS2_PLACEMENT_3D ( 'NONE', #235, #210, #577 ) ;
#179 = DIRECTION ( 'NONE',  ( 1.000000000000000000, 4.818676322157799347E-16, 0.000000000000000000 ) ) ;
#180 = DIRECTION ( 'NONE',  ( -2.258880508902365962E-16, 1.000000000000000000, 0.000000000000000000 ) ) ;
#181 = ORIENTED_EDGE ( 'NONE', *, *, #730, .T. ) ;
#182 = ADVANCED_FACE ( 'NONE', ( #23 ), #363, .T. ) ;
#183 = LINE ( 'NONE', #525, #834 ) ;
#184 = LINE ( 'NONE', #875, #1000 ) ;
#185 = VERTEX_POINT ( 'NONE', #224 ) ;
#186 = CARTESIAN_POINT ( 'NONE',  ( -2.000000000000000888, 1.499999999999999112, 0.3175000000000000044 ) ) ;
#187 = ORIENTED_EDGE ( 'NONE', *, *, #874, .T. ) ;
#188 = EDGE_CURVE ( 'NONE', #156, #1032, #402, .T. ) ;
#189 = CARTESIAN_POINT ( 'NONE',  ( 3.796405077356794548E-17, 0.3099999999999999978, 0.000000000000000000 ) ) ;
#190 = EDGE_CURVE ( 'NONE', #738, #388, #643, .T. ) ;
#191 = DIRECTION ( 'NONE',  ( 0.000000000000000000, 1.000000000000000000, 0.000000000000000000 ) ) ;
#192 = ORIENTED_EDGE ( 'NONE', *, *, #638, .F. ) ;
#193 = DIRECTION ( 'NONE',  ( 1.000000000000000000, 4.818676322157799347E-16, 0.000000000000000000 ) ) ;
#194 = EDGE_LOOP ( 'NONE', ( #369, #79, #528, #950 ) ) ;
#195 = VECTOR ( 'NONE', #822, 100.0000000000000000 ) ;
#196 = DIRECTION ( 'NONE',  ( 0.000000000000000000, -1.000000000000000000, 0.000000000000000000 ) ) ;
#197 = AXIS2_PLACEMENT_3D ( 'NONE', #1059, #888, #621 ) ;
#198 = SURFACE_STYLE_USAGE ( .BOTH. , #108 ) ;
#199 = EDGE_CURVE ( 'NONE', #156, #256, #918, .T. ) ;
#200 = VECTOR ( 'NONE', #355, 100.0000000000000000 ) ;
#201 = ORIENTED_EDGE ( 'NONE', *, *, #766, .T. ) ;
#202 = DIRECTION ( 'NONE',  ( 1.000000000000000000, -4.818676322157799347E-16, 0.000000000000000000 ) ) ;
#203 = ORIENTED_EDGE ( 'NONE', *, *, #153, .T. ) ;
#204 = FACE_OUTER_BOUND ( 'NONE', #13, .T. ) ;
#205 = CARTESIAN_POINT ( 'NONE',  ( 0.7679571668975722076, 1.199999999999999956, 0.1349999999999999534 ) ) ;
#206 = VERTEX_POINT ( 'NONE', #835 ) ;
#207 = CYLINDRICAL_SURFACE ( 'NONE', #1028, 2.500000000000000000 ) ;
#208 = ORIENTED_EDGE ( 'NONE', *, *, #572, .F. ) ;
#209 = CARTESIAN_POINT ( 'NONE',  ( 2.000000000000000444, 1.500000000000000666, 0.000000000000000000 ) ) ;
#210 = DIRECTION ( 'NONE',  ( -0.8660254037844362651, 0.5000000000000043299, 0.000000000000000000 ) ) ;
#211 = ORIENTED_EDGE ( 'NONE', *, *, #439, .T. ) ;
#212 = LINE ( 'NONE', #640, #739 ) ;
#213 = ORIENTED_EDGE ( 'NONE', *, *, #3, .F. ) ;
#214 = EDGE_CURVE ( 'NONE', #810, #561, #43, .T. ) ;
#215 = CARTESIAN_POINT ( 'NONE',  ( -1.364999999999999991, 16.63499999999999801, 0.3175000000000000044 ) ) ;
#216 = CARTESIAN_POINT ( 'NONE',  ( 1.199999999999999956, -0.7679571668975722076, 0.1349999999999999534 ) ) ;
#217 = AXIS2_PLACEMENT_3D ( 'NONE', #554, #966, #276 ) ;
#218 = ORIENTED_EDGE ( 'NONE', *, *, #499, .F. ) ;
#219 = DIRECTION ( 'NONE',  ( -0.000000000000000000, 0.000000000000000000, 1.000000000000000000 ) ) ;
#220 = AXIS2_PLACEMENT_3D ( 'NONE', #552, #492, #747 ) ;
#221 = ORIENTED_EDGE ( 'NONE', *, *, #508, .F. ) ;
#222 = CARTESIAN_POINT ( 'NONE',  ( -1.200000000000000178, 0.7679571668975719856, 0.1349999999999999534 ) ) ;
#223 = ADVANCED_FACE ( 'NONE', ( #1072 ), #484, .F. ) ;
#224 = CARTESIAN_POINT ( 'NONE',  ( 2.000000000000000000, 1.500000000000000222, 0.3175000000000000044 ) ) ;
#225 = ORIENTED_EDGE ( 'NONE', *, *, #439, .F. ) ;
#226 = CARTESIAN_POINT ( 'NONE',  ( -0.4100000000000000311, 2.000000000000000444, 0.6350000000000000089 ) ) ;
#227 = ORIENTED_EDGE ( 'NONE', *, *, #999, .T. ) ;
#228 = DIRECTION ( 'NONE',  ( -4.818676322157798361E-16, 1.000000000000000000, 0.000000000000000000 ) ) ;
#229 = EDGE_CURVE ( 'NONE', #1106, #391, #649, .T. ) ;
#230 = PLANE ( 'NONE',  #178 ) ;
#231 = EDGE_CURVE ( 'NONE', #785, #995, #899, .T. ) ;
#232 = VERTEX_POINT ( 'NONE', #216 ) ;
#233 = PLANE ( 'NONE',  #755 ) ;
#234 = FACE_BOUND ( 'NONE', #779, .T. ) ;
#235 = CARTESIAN_POINT ( 'NONE',  ( -0.4099999999999999201, 1.820000000000000506, 0.1349999999999999534 ) ) ;
#236 = VECTOR ( 'NONE', #1033, 100.0000000000000000 ) ;
#237 = ORIENTED_EDGE ( 'NONE', *, *, #945, .F. ) ;
#238 = DIRECTION ( 'NONE',  ( 0.000000000000000000, -1.000000000000000000, 0.000000000000000000 ) ) ;
#239 = EDGE_CURVE ( 'NONE', #789, #641, #665, .T. ) ;
#240 = VECTOR ( 'NONE', #243, 100.0000000000000000 ) ;
#241 = VECTOR ( 'NONE', #768, 100.0000000000000000 ) ;
#242 = CARTESIAN_POINT ( 'NONE',  ( -0.4100000000000000311, 2.000000000000000444, 0.1349999999999999534 ) ) ;
#243 = DIRECTION ( 'NONE',  ( -0.000000000000000000, 0.000000000000000000, 1.000000000000000000 ) ) ;
#244 = LINE ( 'NONE', #562, #320 ) ;
#245 = EDGE_CURVE ( 'NONE', #989, #266, #988, .T. ) ;
#246 = ORIENTED_EDGE ( 'NONE', *, *, #112, .T. ) ;
#247 = DIRECTION ( 'NONE',  ( 0.000000000000000000, 0.000000000000000000, 1.000000000000000000 ) ) ;
#248 = ORIENTED_EDGE ( 'NONE', *, *, #586, .T. ) ;
#249 = ORIENTED_EDGE ( 'NONE', *, *, #745, .F. ) ;
#250 = ADVANCED_FACE ( 'NONE', ( #1012 ), #230, .F. ) ;
#251 = CARTESIAN_POINT ( 'NONE',  ( -0.7679571668975722076, 1.199999999999999956, 0.1349999999999999534 ) ) ;
#252 = VECTOR ( 'NONE', #202, 100.0000000000000000 ) ;
#253 = CARTESIAN_POINT ( 'NONE',  ( 1.820000000000000506, -0.4099999999999998646, 0.1349999999999999534 ) ) ;
#254 = DIRECTION ( 'NONE',  ( 4.818676322157799347E-16, -1.000000000000000000, 0.000000000000000000 ) ) ;
#255 = ORIENTED_EDGE ( 'NONE', *, *, #390, .F. ) ;
#256 = VERTEX_POINT ( 'NONE', #309 ) ;
#257 = FACE_BOUND ( 'NONE', #844, .T. ) ;
#258 = VERTEX_POINT ( 'NONE', #926 ) ;
#259 = CARTESIAN_POINT ( 'NONE',  ( -2.000000000000000444, 0.4099999999999996980, 0.1349999999999999534 ) ) ;
#260 = CARTESIAN_POINT ( 'NONE',  ( -1.364999999999999991, 16.63499999999999801, 0.3175000000000000044 ) ) ;
#261 = CARTESIAN_POINT ( 'NONE',  ( 0.4100000000000000311, 2.000000000000000444, 0.6350000000000000089 ) ) ;
#262 = APPLICATION_PROTOCOL_DEFINITION ( 'draft international standard', 'automotive_design', 1998, #78 ) ;
#263 = EDGE_CURVE ( 'NONE', #277, #995, #840, .T. ) ;
#264 = CARTESIAN_POINT ( 'NONE',  ( -1.200000000000000178, 0.7679571668975719856, 0.1349999999999999534 ) ) ;
#265 = VECTOR ( 'NONE', #359, 100.0000000000000000 ) ;
#266 = VERTEX_POINT ( 'NONE', #137 ) ;
#267 = FACE_OUTER_BOUND ( 'NONE', #1060, .T. ) ;
#268 = AXIS2_PLACEMENT_3D ( 'NONE', #30, #533, #608 ) ;
#269 = LINE ( 'NONE', #787, #757 ) ;
#270 = ORIENTED_EDGE ( 'NONE', *, *, #922, .F. ) ;
#271 = LINE ( 'NONE', #706, #697 ) ;
#272 = EDGE_LOOP ( 'NONE', ( #103, #817, #96, #211, #128, #181 ) ) ;
#273 = CARTESIAN_POINT ( 'NONE',  ( -1.500000000000000222, 2.000000000000000444, 0.000000000000000000 ) ) ;
#274 = DIRECTION ( 'NONE',  ( 0.000000000000000000, 0.000000000000000000, -1.000000000000000000 ) ) ;
#275 = ORIENTED_EDGE ( 'NONE', *, *, #565, .F. ) ;
#276 = DIRECTION ( 'NONE',  ( 1.000000000000000000, 4.818676322157798361E-16, 0.000000000000000000 ) ) ;
#277 = VERTEX_POINT ( 'NONE', #377 ) ;
#278 = CARTESIAN_POINT ( 'NONE',  ( -2.000000000000000444, -0.4100000000000003642, 0.1349999999999999534 ) ) ;
#279 = PRODUCT ( 'vertex-edge_62', 'vertex-edge_62', '', ( #937 ) ) ;
#280 = ADVANCED_FACE ( 'NONE', ( #48 ), #291, .F. ) ;
#281 = ORIENTED_EDGE ( 'NONE', *, *, #495, .T. ) ;
#282 = LINE ( 'NONE', #630, #252 ) ;
#283 = ORIENTED_EDGE ( 'NONE', *, *, #1097, .F. ) ;
#284 = PLANE ( 'NONE',  #540 ) ;
#285 =( GEOMETRIC_REPRESENTATION_CONTEXT ( 3 ) GLOBAL_UNCERTAINTY_ASSIGNED_CONTEXT ( ( #919 ) ) GLOBAL_UNIT_ASSIGNED_CONTEXT ( ( #438, #1064, #880 ) ) REPRESENTATION_CONTEXT ( 'NONE', 'WORKASPACE' ) );
#286 = SURFACE_STYLE_FILL_AREA ( #37 ) ;
#287 = ORIENTED_EDGE ( 'NONE', *, *, #999, .F. ) ;
#288 = LINE ( 'NONE', #102, #107 ) ;
#289 = ORIENTED_EDGE ( 'NONE', *, *, #1030, .T. ) ;
#290 = DIRECTION ( 'NONE',  ( 1.000000000000000000, 0.000000000000000000, 0.000000000000000000 ) ) ;
#291 = PLANE ( 'NONE',  #1120 ) ;
#292 = ORIENTED_EDGE ( 'NONE', *, *, #736, .T. ) ;
#293 = FACE_OUTER_BOUND ( 'NONE', #598, .T. ) ;
#294 = ORIENTED_EDGE ( 'NONE', *, *, #1080, .T. ) ;
#295 = DIRECTION ( 'NONE',  ( -0.5000000000000042188, 0.8660254037844361541, 0.000000000000000000 ) ) ;
#296 = LINE ( 'NONE', #560, #518 ) ;
#297 = ORIENTED_EDGE ( 'NONE', *, *, #591, .F. ) ;
#298 = DIRECTION ( 'NONE',  ( 1.000000000000000000, 1.931257307898213426E-16, 0.000000000000000000 ) ) ;
#299 = EDGE_CURVE ( 'NONE', #1032, #534, #296, .T. ) ;
#300 = EDGE_LOOP ( 'NONE', ( #52, #218, #629, #725 ) ) ;
#301 = CYLINDRICAL_SURFACE ( 'NONE', #1121, 0.3099999999999999978 ) ;
#302 = PLANE ( 'NONE',  #833 ) ;
#303 = CIRCLE ( 'NONE', #1065, 0.3099999999999999978 ) ;
#304 = ORIENTED_EDGE ( 'NONE', *, *, #897, .F. ) ;
#305 = LINE ( 'NONE', #226, #848 ) ;
#306 = ORIENTED_EDGE ( 'NONE', *, *, #245, .T. ) ;
#307 = LINE ( 'NONE', #898, #489 ) ;
#308 = EDGE_CURVE ( 'NONE', #1086, #955, #814, .T. ) ;
#309 = CARTESIAN_POINT ( 'NONE',  ( -1.364999999999998215, 1.364999999999999991, 0.6350000000000000089 ) ) ;
#310 = ORIENTED_EDGE ( 'NONE', *, *, #512, .F. ) ;
#311 = CARTESIAN_POINT ( 'NONE',  ( 1.820000000000000506, -0.4099999999999998646, 0.6350000000000000089 ) ) ;
#312 = ORIENTED_EDGE ( 'NONE', *, *, #415, .F. ) ;
#313 = DIRECTION ( 'NONE',  ( -0.000000000000000000, 0.000000000000000000, 1.000000000000000000 ) ) ;
#314 = EDGE_CURVE ( 'NONE', #639, #493, #683, .T. ) ;
#315 = FACE_OUTER_BOUND ( 'NONE', #530, .T. ) ;
#316 = ORIENTED_EDGE ( 'NONE', *, *, #986, .F. ) ;
#317 = CARTESIAN_POINT ( 'NONE',  ( 0.000000000000000000, 0.000000000000000000, 0.6350000000000000089 ) ) ;
#318 = LINE ( 'NONE', #688, #333 ) ;
#319 = DIRECTION ( 'NONE',  ( 0.000000000000000000, -1.000000000000000000, 0.000000000000000000 ) ) ;
#320 = VECTOR ( 'NONE', #474, 100.0000000000000000 ) ;
#321 = CIRCLE ( 'NONE', #1105, 2.500000000000000000 ) ;
#322 = ORIENTED_EDGE ( 'NONE', *, *, #1007, .F. ) ;
#323 = DIRECTION ( 'NONE',  ( 0.000000000000000000, 0.000000000000000000, 1.000000000000000000 ) ) ;
#324 = VECTOR ( 'NONE', #1078, 100.0000000000000000 ) ;
#325 = LINE ( 'NONE', #588, #147 ) ;
#326 = FACE_OUTER_BOUND ( 'NONE', #547, .T. ) ;
#327 = ORIENTED_EDGE ( 'NONE', *, *, #781, .F. ) ;
#328 = PLANE ( 'NONE',  #87 ) ;
#329 = PLANE ( 'NONE',  #1016 ) ;
#330 = ADVANCED_FACE ( 'NONE', ( #315 ), #302, .F. ) ;
#331 = CARTESIAN_POINT ( 'NONE',  ( -2.000000000000000444, -1.000000000000000000, 0.000000000000000000 ) ) ;
#332 = DIRECTION ( 'NONE',  ( -0.5000000000000042188, 0.8660254037844362651, -0.000000000000000000 ) ) ;
#333 = VECTOR ( 'NONE', #784, 100.0000000000000000 ) ;
#334 = CARTESIAN_POINT ( 'NONE',  ( 1.820000000000000506, -0.4099999999999998646, 0.1349999999999999534 ) ) ;
#335 = CLOSED_SHELL ( 'NONE', ( #597, #775, #351, #330, #455, #1118, #934, #796, #343, #661, #51, #250, #93, #375, #625, #223, #28, #820, #679, #280, #118, #699, #827, #1082, #890, #26, #526, #549, #692, #418, #67, #98, #10, #182 ) ) ;
#336 = AXIS2_PLACEMENT_3D ( 'NONE', #421, #686, #935 ) ;
#337 = VECTOR ( 'NONE', #1053, 100.0000000000000000 ) ;
#338 = CARTESIAN_POINT ( 'NONE',  ( -0.4100000000000000311, 2.000000000000000444, 0.1349999999999999534 ) ) ;
#339 = CARTESIAN_POINT ( 'NONE',  ( 0.7679571668975722076, 1.199999999999999956, 0.1349999999999999534 ) ) ;
#340 = SHAPE_DEFINITION_REPRESENTATION ( #982, #646 ) ;
#341 = DIRECTION ( 'NONE',  ( 0.000000000000000000, -1.000000000000000000, 0.000000000000000000 ) ) ;
#342 = CARTESIAN_POINT ( 'NONE',  ( 1.820000000000000506, 0.4100000000000000311, 0.1349999999999999534 ) ) ;
#343 = ADVANCED_FACE ( 'NONE', ( #852 ), #506, .F. ) ;
#344 = FACE_OUTER_BOUND ( 'NONE', #800, .T. ) ;
#345 = LINE ( 'NONE', #149, #1117 ) ;
#346 = ORIENTED_EDGE ( 'NONE', *, *, #1073, .F. ) ;
#347 = DIRECTION ( 'NONE',  ( 0.000000000000000000, 0.000000000000000000, 1.000000000000000000 ) ) ;
#348 = LINE ( 'NONE', #99, #398 ) ;
#349 = ORIENTED_EDGE ( 'NONE', *, *, #906, .T. ) ;
#350 = LINE ( 'NONE', #405, #808 ) ;
#351 = ADVANCED_FACE ( 'NONE', ( #257, #82 ), #171, .F. ) ;
#352 = AXIS2_PLACEMENT_3D ( 'NONE', #317, #777, #947 ) ;
#353 = VECTOR ( 'NONE', #193, 100.0000000000000000 ) ;
#354 = ORIENTED_EDGE ( 'NONE', *, *, #708, .T. ) ;
#355 = DIRECTION ( 'NONE',  ( -0.000000000000000000, 0.000000000000000000, 1.000000000000000000 ) ) ;
#356 = VECTOR ( 'NONE', #974, 100.0000000000000000 ) ;
#357 = LINE ( 'NONE', #527, #57 ) ;
#358 = ORIENTED_EDGE ( 'NONE', *, *, #428, .F. ) ;
#359 = DIRECTION ( 'NONE',  ( -0.000000000000000000, 0.000000000000000000, 1.000000000000000000 ) ) ;
#360 = EDGE_CURVE ( 'NONE', #378, #473, #951, .T. ) ;
#361 = VERTEX_POINT ( 'NONE', #1114 ) ;
#362 = LINE ( 'NONE', #260, #40 ) ;
#363 = PLANE ( 'NONE',  #130 ) ;
#364 = VERTEX_POINT ( 'NONE', #514 ) ;
#365 = CARTESIAN_POINT ( 'NONE',  ( 1.364999999999995328, 16.63499999999999801, 0.6350000000000000089 ) ) ;
#366 = ORIENTED_EDGE ( 'NONE', *, *, #922, .T. ) ;
#367 = DIRECTION ( 'NONE',  ( 2.385670792109557660E-16, -1.000000000000000000, 0.000000000000000000 ) ) ;
#368 = LINE ( 'NONE', #521, #1107 ) ;
#369 = ORIENTED_EDGE ( 'NONE', *, *, #472, .F. ) ;
#370 = LINE ( 'NONE', #1075, #353 ) ;
#371 = VERTEX_POINT ( 'NONE', #500 ) ;
#372 = AXIS2_PLACEMENT_3D ( 'NONE', #1001, #726, #911 ) ;
#373 = LINE ( 'NONE', #564, #148 ) ;
#374 = AXIS2_PLACEMENT_3D ( 'NONE', #339, #414, #677 ) ;
#375 = ADVANCED_FACE ( 'NONE', ( #680 ), #673, .T. ) ;
#376 = AXIS2_PLACEMENT_3D ( 'NONE', #620, #8, #635 ) ;
#377 = CARTESIAN_POINT ( 'NONE',  ( 1.199999999999999956, -0.7679571668975722076, 0.6350000000000000089 ) ) ;
#378 = VERTEX_POINT ( 'NONE', #338 ) ;
#379 = DIRECTION ( 'NONE',  ( -2.312964634635742957E-16, 1.000000000000000000, 0.000000000000000000 ) ) ;
#380 = ORIENTED_EDGE ( 'NONE', *, *, #480, .T. ) ;
#381 = CARTESIAN_POINT ( 'NONE',  ( -1.500000000000000222, 2.000000000000000444, 0.000000000000000000 ) ) ;
#382 = DIRECTION ( 'NONE',  ( -0.000000000000000000, 0.000000000000000000, 1.000000000000000000 ) ) ;
#383 = EDGE_CURVE ( 'NONE', #145, #206, #590, .T. ) ;
#384 = ORIENTED_EDGE ( 'NONE', *, *, #858, .F. ) ;
#385 = VERTEX_POINT ( 'NONE', #676 ) ;
#386 = PLANE ( 'NONE',  #1046 ) ;
#387 = DIRECTION ( 'NONE',  ( 0.000000000000000000, 0.000000000000000000, 1.000000000000000000 ) ) ;
#388 = VERTEX_POINT ( 'NONE', #763 ) ;
#389 = LINE ( 'NONE', #1014, #104 ) ;
#390 = EDGE_CURVE ( 'NONE', #1106, #731, #1035, .T. ) ;
#391 = VERTEX_POINT ( 'NONE', #331 ) ;
#392 = CARTESIAN_POINT ( 'NONE',  ( 1.820000000000000506, 0.4100000000000000311, 0.1349999999999999534 ) ) ;
#393 = VECTOR ( 'NONE', #290, 100.0000000000000000 ) ;
#394 = DIRECTION ( 'NONE',  ( 0.000000000000000000, 0.000000000000000000, -1.000000000000000000 ) ) ;
#395 = VECTOR ( 'NONE', #394, 100.0000000000000000 ) ;
#396 = EDGE_LOOP ( 'NONE', ( #744, #281, #487, #971 ) ) ;
#397 = DIRECTION ( 'NONE',  ( 4.818676322157799347E-16, -1.000000000000000000, 0.000000000000000000 ) ) ;
#398 = VECTOR ( 'NONE', #710, 100.0000000000000142 ) ;
#399 = ORIENTED_EDGE ( 'NONE', *, *, #35, .T. ) ;
#400 = EDGE_CURVE ( 'NONE', #124, #734, #756, .T. ) ;
#401 = DIRECTION ( 'NONE',  ( -0.000000000000000000, 0.000000000000000000, 1.000000000000000000 ) ) ;
#402 = LINE ( 'NONE', #907, #395 ) ;
#403 = VERTEX_POINT ( 'NONE', #73 ) ;
#404 = LINE ( 'NONE', #581, #461 ) ;
#405 = CARTESIAN_POINT ( 'NONE',  ( 2.000000000000000444, -0.4099999999999999201, 0.6350000000000000089 ) ) ;
#406 = DIRECTION ( 'NONE',  ( 1.000000000000000000, 0.000000000000000000, 0.000000000000000000 ) ) ;
#407 = ORIENTED_EDGE ( 'NONE', *, *, #400, .F. ) ;
#408 = DIRECTION ( 'NONE',  ( 0.000000000000000000, 0.000000000000000000, 1.000000000000000000 ) ) ;
#409 = CARTESIAN_POINT ( 'NONE',  ( 1.820000000000000506, 0.4100000000000000311, 0.1349999999999999534 ) ) ;
#410 = EDGE_CURVE ( 'NONE', #258, #76, #325, .T. ) ;
#411 = VECTOR ( 'NONE', #20, 100.0000000000000000 ) ;
#412 = CARTESIAN_POINT ( 'NONE',  ( -1.820000000000000506, 0.4099999999999995870, 0.6350000000000000089 ) ) ;
#413 = CIRCLE ( 'NONE', #445, 2.500000000000000000 ) ;
#414 = DIRECTION ( 'NONE',  ( 0.000000000000000000, -1.000000000000000000, 0.000000000000000000 ) ) ;
#415 = EDGE_CURVE ( 'NONE', #1113, #124, #1111, .T. ) ;
#416 = EDGE_LOOP ( 'NONE', ( #91, #139, #440, #1024 ) ) ;
#417 = CARTESIAN_POINT ( 'NONE',  ( 0.4099999999999999201, 1.820000000000000506, 0.6350000000000000089 ) ) ;
#418 = ADVANCED_FACE ( 'NONE', ( #1029 ), #328, .F. ) ;
#419 = DIRECTION ( 'NONE',  ( 0.000000000000000000, -1.000000000000000000, 0.000000000000000000 ) ) ;
#420 = EDGE_CURVE ( 'NONE', #473, #1113, #944, .T. ) ;
#421 = CARTESIAN_POINT ( 'NONE',  ( 0.000000000000000000, 0.000000000000000000, 0.000000000000000000 ) ) ;
#422 = FACE_OUTER_BOUND ( 'NONE', #618, .T. ) ;
#423 = VECTOR ( 'NONE', #298, 100.0000000000000000 ) ;
#424 = DIRECTION ( 'NONE',  ( 0.000000000000000000, -1.000000000000000000, 0.000000000000000000 ) ) ;
#425 = AXIS2_PLACEMENT_3D ( 'NONE', #674, #589, #160 ) ;
#426 = VECTOR ( 'NONE', #60, 100.0000000000000000 ) ;
#427 = ORIENTED_EDGE ( 'NONE', *, *, #962, .T. ) ;
#428 = EDGE_CURVE ( 'NONE', #639, #185, #510, .T. ) ;
#429 = LINE ( 'NONE', #873, #669 ) ;
#430 = DIRECTION ( 'NONE',  ( 1.000000000000000000, 0.000000000000000000, 0.000000000000000000 ) ) ;
#431 = CARTESIAN_POINT ( 'NONE',  ( -1.820000000000000506, -0.4100000000000003086, 0.1349999999999999534 ) ) ;
#432 = ORIENTED_EDGE ( 'NONE', *, *, #582, .F. ) ;
#433 = DIRECTION ( 'NONE',  ( -0.000000000000000000, 0.000000000000000000, 1.000000000000000000 ) ) ;
#434 = ORIENTED_EDGE ( 'NONE', *, *, #390, .T. ) ;
#435 = DIRECTION ( 'NONE',  ( -0.8660254037844361541, 0.5000000000000042188, 0.000000000000000000 ) ) ;
#436 = ORIENTED_EDGE ( 'NONE', *, *, #3, .T. ) ;
#437 = LINE ( 'NONE', #709, #337 ) ;
#438 =( LENGTH_UNIT ( ) NAMED_UNIT ( * ) SI_UNIT ( .CENTI., .METRE. ) );
#439 = EDGE_CURVE ( 'NONE', #555, #916, #1119, .T. ) ;
#440 = ORIENTED_EDGE ( 'NONE', *, *, #360, .F. ) ;
#441 = DIRECTION ( 'NONE',  ( 0.000000000000000000, 1.000000000000000000, 0.000000000000000000 ) ) ;
#442 = AXIS2_PLACEMENT_3D ( 'NONE', #215, #482, #642 ) ;
#443 = VERTEX_POINT ( 'NONE', #1041 ) ;
#444 = LINE ( 'NONE', #189, #356 ) ;
#445 = AXIS2_PLACEMENT_3D ( 'NONE', #1054, #274, #191 ) ;
#446 = CARTESIAN_POINT ( 'NONE',  ( 2.000000000000000444, -1.000000000000000000, 0.6350000000000000089 ) ) ;
#447 = VERTEX_POINT ( 'NONE', #273 ) ;
#448 = DIRECTION ( 'NONE',  ( 0.000000000000000000, 0.000000000000000000, 1.000000000000000000 ) ) ;
#449 = EDGE_LOOP ( 'NONE', ( #776, #454, #289, #221 ) ) ;
#450 = CARTESIAN_POINT ( 'NONE',  ( -0.4099999999999999201, 1.820000000000000506, 0.1349999999999999534 ) ) ;
#451 = FACE_OUTER_BOUND ( 'NONE', #846, .T. ) ;
#452 = ORIENTED_EDGE ( 'NONE', *, *, #945, .T. ) ;
#453 = LINE ( 'NONE', #895, #881 ) ;
#454 = ORIENTED_EDGE ( 'NONE', *, *, #829, .T. ) ;
#455 = ADVANCED_FACE ( 'NONE', ( #204 ), #786, .F. ) ;
#456 = DIRECTION ( 'NONE',  ( -0.5000000000000045519, 0.8660254037844360431, 0.000000000000000000 ) ) ;
#457 = PLANE ( 'NONE',  #197 ) ;
#458 = ORIENTED_EDGE ( 'NONE', *, *, #499, .T. ) ;
#459 = CARTESIAN_POINT ( 'NONE',  ( 0.4100000000000001421, 2.000000000000000444, 0.1349999999999999534 ) ) ;
#460 = VERTEX_POINT ( 'NONE', #695 ) ;
#461 = VECTOR ( 'NONE', #1100, 100.0000000000000000 ) ;
#462 = AXIS2_PLACEMENT_3D ( 'NONE', #120, #456, #557 ) ;
#463 = LINE ( 'NONE', #545, #393 ) ;
#464 = EDGE_CURVE ( 'NONE', #916, #232, #868, .T. ) ;
#465 = AXIS2_PLACEMENT_3D ( 'NONE', #656, #387, #733 ) ;
#466 = DIRECTION ( 'NONE',  ( 0.000000000000000000, 0.000000000000000000, -1.000000000000000000 ) ) ;
#467 = EDGE_LOOP ( 'NONE', ( #192, #208, #1009, #821 ) ) ;
#468 = CARTESIAN_POINT ( 'NONE',  ( -2.000000000000000444, -0.4100000000000003642, 0.1349999999999999534 ) ) ;
#469 = ORIENTED_EDGE ( 'NONE', *, *, #214, .T. ) ;
#470 = FACE_OUTER_BOUND ( 'NONE', #580, .T. ) ;
#471 = CARTESIAN_POINT ( 'NONE',  ( -2.000000000000000444, 0.4099999999999996980, 0.1349999999999999534 ) ) ;
#472 = EDGE_CURVE ( 'NONE', #534, #403, #362, .T. ) ;
#473 = VERTEX_POINT ( 'NONE', #450 ) ;
#474 = DIRECTION ( 'NONE',  ( 0.000000000000000000, -1.000000000000000000, 0.000000000000000000 ) ) ;
#475 = ORIENTED_EDGE ( 'NONE', *, *, #153, .F. ) ;
#476 = DIRECTION ( 'NONE',  ( 1.000000000000000000, 0.000000000000000000, 0.000000000000000000 ) ) ;
#477 = DIRECTION ( 'NONE',  ( 0.000000000000000000, 1.000000000000000000, 0.000000000000000000 ) ) ;
#478 = EDGE_LOOP ( 'NONE', ( #1057, #657, #225, #742 ) ) ;
#479 = LINE ( 'NONE', #996, #1088 ) ;
#480 = EDGE_CURVE ( 'NONE', #622, #738, #429, .T. ) ;
#481 = ORIENTED_EDGE ( 'NONE', *, *, #672, .T. ) ;
#482 = DIRECTION ( 'NONE',  ( 1.000000000000000000, 1.249637081581196951E-16, 0.000000000000000000 ) ) ;
#483 = VECTOR ( 'NONE', #1006, 100.0000000000000000 ) ;
#484 = PLANE ( 'NONE',  #220 ) ;
#485 = AXIS2_PLACEMENT_3D ( 'NONE', #1109, #88, #166 ) ;
#486 = VECTOR ( 'NONE', #406, 100.0000000000000000 ) ;
#487 = ORIENTED_EDGE ( 'NONE', *, *, #1023, .T. ) ;
#488 = DIRECTION ( 'NONE',  ( 0.000000000000000000, -1.000000000000000000, 0.000000000000000000 ) ) ;
#489 = VECTOR ( 'NONE', #53, 100.0000000000000000 ) ;
#490 = EDGE_CURVE ( 'NONE', #1032, #870, #968, .T. ) ;
#491 = LINE ( 'NONE', #1101, #938 ) ;
#492 = DIRECTION ( 'NONE',  ( 0.5000000000000043299, -0.8660254037844362651, 0.000000000000000000 ) ) ;
#493 = VERTEX_POINT ( 'NONE', #92 ) ;
#494 = DIRECTION ( 'NONE',  ( -1.000000000000000000, 0.000000000000000000, -0.000000000000000000 ) ) ;
#495 = EDGE_CURVE ( 'NONE', #162, #41, #444, .T. ) ;
#496 = DIRECTION ( 'NONE',  ( -0.5000000000000042188, 0.8660254037844362651, -0.000000000000000000 ) ) ;
#497 = ORIENTED_EDGE ( 'NONE', *, *, #383, .F. ) ;
#498 = CARTESIAN_POINT ( 'NONE',  ( 0.000000000000000000, -0.3099999999999999978, 0.000000000000000000 ) ) ;
#499 = EDGE_CURVE ( 'NONE', #69, #124, #29, .T. ) ;
#500 = CARTESIAN_POINT ( 'NONE',  ( -1.500000000000000222, 2.000000000000000444, 0.3175000000000000044 ) ) ;
#501 = AXIS2_PLACEMENT_3D ( 'NONE', #857, #750, #419 ) ;
#502 = PLANE ( 'NONE',  #425 ) ;
#503 = CARTESIAN_POINT ( 'NONE',  ( 0.000000000000000000, 0.000000000000000000, 0.000000000000000000 ) ) ;
#504 = VECTOR ( 'NONE', #347, 100.0000000000000000 ) ;
#505 = VERTEX_POINT ( 'NONE', #531 ) ;
#506 = PLANE ( 'NONE',  #701 ) ;
#507 = PLANE ( 'NONE',  #1066 ) ;
#508 = EDGE_CURVE ( 'NONE', #955, #584, #793, .T. ) ;
#509 = DIRECTION ( 'NONE',  ( 4.818676322157799347E-16, 1.000000000000000000, 0.000000000000000000 ) ) ;
#510 = LINE ( 'NONE', #845, #241 ) ;
#511 = DIRECTION ( 'NONE',  ( -1.000000000000000000, 0.000000000000000000, 0.000000000000000000 ) ) ;
#512 = EDGE_CURVE ( 'NONE', #505, #41, #17, .T. ) ;
#513 = CARTESIAN_POINT ( 'NONE',  ( -1.500000000000000222, 2.000000000000000444, 0.000000000000000000 ) ) ;
#514 = CARTESIAN_POINT ( 'NONE',  ( -1.200000000000000178, 0.7679571668975719856, 0.1349999999999999534 ) ) ;
#515 = DIRECTION ( 'NONE',  ( -0.8660254037844360431, -0.5000000000000045519, 0.000000000000000000 ) ) ;
#516 = VECTOR ( 'NONE', #238, 100.0000000000000000 ) ;
#517 = DIRECTION ( 'NONE',  ( 1.000000000000000000, 0.000000000000000000, 0.000000000000000000 ) ) ;
#518 = VECTOR ( 'NONE', #142, 100.0000000000000000 ) ;
#519 = EDGE_LOOP ( 'NONE', ( #723, #275, #119, #748 ) ) ;
#520 = DIRECTION ( 'NONE',  ( 1.000000000000000000, 2.385670792109557660E-16, 0.000000000000000000 ) ) ;
#521 = CARTESIAN_POINT ( 'NONE',  ( -2.000000000000000444, -0.4100000000000003642, 0.1349999999999999534 ) ) ;
#522 = ORIENTED_EDGE ( 'NONE', *, *, #239, .T. ) ;
#523 = LINE ( 'NONE', #790, #265 ) ;
#524 = ORIENTED_EDGE ( 'NONE', *, *, #263, .T. ) ;
#525 = CARTESIAN_POINT ( 'NONE',  ( -1.364999999999998215, 1.364999999999999991, 0.3175000000000000044 ) ) ;
#526 = ADVANCED_FACE ( 'NONE', ( #267 ), #956, .F. ) ;
#527 = CARTESIAN_POINT ( 'NONE',  ( 0.7679571668975722076, 1.199999999999999956, 0.1349999999999999534 ) ) ;
#528 = ORIENTED_EDGE ( 'NONE', *, *, #1097, .T. ) ;
#529 = CARTESIAN_POINT ( 'NONE',  ( -2.000000000000000444, 0.4099999999999996980, 0.1349999999999999534 ) ) ;
#530 = EDGE_LOOP ( 'NONE', ( #1079, #434, #122, #135, #1089, #1067, #894, #914, #475, #304 ) ) ;
#531 = CARTESIAN_POINT ( 'NONE',  ( 0.000000000000000000, -0.3099999999999999978, 0.6350000000000000089 ) ) ;
#532 = EDGE_CURVE ( 'NONE', #69, #145, #879, .T. ) ;
#533 = DIRECTION ( 'NONE',  ( 4.818676322157798361E-16, 1.000000000000000000, 0.000000000000000000 ) ) ;
#534 = VERTEX_POINT ( 'NONE', #114 ) ;
#535 = LINE ( 'NONE', #32, #592 ) ;
#536 = VECTOR ( 'NONE', #865, 100.0000000000000000 ) ;
#537 = ORIENTED_EDGE ( 'NONE', *, *, #558, .T. ) ;
#538 = VECTOR ( 'NONE', #1092, 100.0000000000000142 ) ;
#539 = CARTESIAN_POINT ( 'NONE',  ( 0.000000000000000000, 0.000000000000000000, 0.000000000000000000 ) ) ;
#540 = AXIS2_PLACEMENT_3D ( 'NONE', #22, #367, #520 ) ;
#541 = DIRECTION ( 'NONE',  ( -0.000000000000000000, 0.000000000000000000, 1.000000000000000000 ) ) ;
#542 = ORIENTED_EDGE ( 'NONE', *, *, #231, .T. ) ;
#543 = DIRECTION ( 'NONE',  ( -0.8660254037844360431, -0.5000000000000045519, 0.000000000000000000 ) ) ;
#544 = ORIENTED_EDGE ( 'NONE', *, *, #708, .F. ) ;
#545 = CARTESIAN_POINT ( 'NONE',  ( -1.500000000000000222, 2.000000000000000444, 0.6350000000000000089 ) ) ;
#546 = PLANE ( 'NONE',  #594 ) ;
#547 = EDGE_LOOP ( 'NONE', ( #469, #187, #767, #522, #248, #550 ) ) ;
#548 = DIRECTION ( 'NONE',  ( 0.000000000000000000, -1.000000000000000000, 0.000000000000000000 ) ) ;
#549 = ADVANCED_FACE ( 'NONE', ( #703 ), #284, .F. ) ;
#550 = ORIENTED_EDGE ( 'NONE', *, *, #953, .T. ) ;
#551 = CARTESIAN_POINT ( 'NONE',  ( 1.364999999999999991, 2.000000000000001776, 0.6350000000000000089 ) ) ;
#552 = CARTESIAN_POINT ( 'NONE',  ( 1.820000000000000506, -0.4099999999999998646, 0.1349999999999999534 ) ) ;
#553 = ORIENTED_EDGE ( 'NONE', *, *, #410, .T. ) ;
#554 = CARTESIAN_POINT ( 'NONE',  ( -2.000000000000000444, -0.4100000000000003642, 0.1349999999999999534 ) ) ;
#555 = VERTEX_POINT ( 'NONE', #342 ) ;
#556 = VECTOR ( 'NONE', #901, 100.0000000000000000 ) ;
#557 = DIRECTION ( 'NONE',  ( -0.8660254037844360431, -0.5000000000000045519, 0.000000000000000000 ) ) ;
#558 = EDGE_CURVE ( 'NONE', #961, #731, #963, .T. ) ;
#559 = VECTOR ( 'NONE', #496, 100.0000000000000142 ) ;
#560 = CARTESIAN_POINT ( 'NONE',  ( -16.63499999999999801, 1.364999999999996438, 0.3175000000000000044 ) ) ;
#561 = VERTEX_POINT ( 'NONE', #15 ) ;
#562 = CARTESIAN_POINT ( 'NONE',  ( 1.199999999999999956, -0.7679571668975722076, 0.6350000000000000089 ) ) ;
#563 = ORIENTED_EDGE ( 'NONE', *, *, #400, .T. ) ;
#564 = CARTESIAN_POINT ( 'NONE',  ( -1.500000000000000222, 2.000000000000000444, 0.000000000000000000 ) ) ;
#565 = EDGE_CURVE ( 'NONE', #534, #256, #183, .T. ) ;
#566 = CARTESIAN_POINT ( 'NONE',  ( -1.820000000000000506, -0.4100000000000003086, 0.1349999999999999534 ) ) ;
#567 = ORIENTED_EDGE ( 'NONE', *, *, #906, .F. ) ;
#568 = CARTESIAN_POINT ( 'NONE',  ( 0.4100000000000000311, 2.000000000000000444, 0.1349999999999999534 ) ) ;
#569 = ORIENTED_EDGE ( 'NONE', *, *, #75, .T. ) ;
#570 = DIRECTION ( 'NONE',  ( -1.000000000000000000, -4.818676322157798361E-16, 0.000000000000000000 ) ) ;
#571 = CARTESIAN_POINT ( 'NONE',  ( 16.63499999999999801, 1.365000000000001101, 0.3175000000000000044 ) ) ;
#572 = EDGE_CURVE ( 'NONE', #176, #797, #437, .T. ) ;
#573 = ORIENTED_EDGE ( 'NONE', *, *, #1090, .F. ) ;
#574 = CARTESIAN_POINT ( 'NONE',  ( 0.000000000000000000, 0.000000000000000000, 0.000000000000000000 ) ) ;
#575 = CARTESIAN_POINT ( 'NONE',  ( 1.820000000000000506, 0.4100000000000000311, 0.1349999999999999534 ) ) ;
#576 = VECTOR ( 'NONE', #818, 100.0000000000000000 ) ;
#577 = DIRECTION ( 'NONE',  ( -0.5000000000000042188, -0.8660254037844361541, 0.000000000000000000 ) ) ;
#578 = UNCERTAINTY_MEASURE_WITH_UNIT (LENGTH_MEASURE( 1.000000000000000082E-05 ), #1038, 'distance_accuracy_value', 'NONE');
#579 = VECTOR ( 'NONE', #150, 100.0000000000000000 ) ;
#580 = EDGE_LOOP ( 'NONE', ( #292, #237, #46, #542 ) ) ;
#581 = CARTESIAN_POINT ( 'NONE',  ( 1.199999999999999956, 0.7679571668975723187, 0.1349999999999999534 ) ) ;
#582 = EDGE_CURVE ( 'NONE', #460, #555, #1058, .T. ) ;
#583 = CARTESIAN_POINT ( 'NONE',  ( -0.4099999999999999201, 1.820000000000000506, 0.1349999999999999534 ) ) ;
#584 = VERTEX_POINT ( 'NONE', #690 ) ;
#585 = CARTESIAN_POINT ( 'NONE',  ( 1.820000000000000506, 0.4100000000000000311, 0.6350000000000000089 ) ) ;
#586 = EDGE_CURVE ( 'NONE', #641, #364, #47, .T. ) ;
#587 = ORIENTED_EDGE ( 'NONE', *, *, #913, .T. ) ;
#588 = CARTESIAN_POINT ( 'NONE',  ( -2.000000000000000444, 0.4099999999999996980, 0.6350000000000000089 ) ) ;
#589 = DIRECTION ( 'NONE',  ( 0.000000000000000000, 0.000000000000000000, -1.000000000000000000 ) ) ;
#590 = LINE ( 'NONE', #930, #559 ) ;
#591 = EDGE_CURVE ( 'NONE', #447, #371, #373, .T. ) ;
#592 = VECTOR ( 'NONE', #877, 100.0000000000000000 ) ;
#593 = ORIENTED_EDGE ( 'NONE', *, *, #759, .F. ) ;
#594 = AXIS2_PLACEMENT_3D ( 'NONE', #869, #121, #970 ) ;
#595 = LINE ( 'NONE', #12, #105 ) ;
#596 = CARTESIAN_POINT ( 'NONE',  ( 0.000000000000000000, 0.000000000000000000, 0.3175000000000000044 ) ) ;
#597 = ADVANCED_FACE ( 'NONE', ( #804 ), #301, .F. ) ;
#598 = EDGE_LOOP ( 'NONE', ( #203, #1037, #297, #113 ) ) ;
#599 = CARTESIAN_POINT ( 'NONE',  ( 0.4099999999999999201, 1.820000000000000506, 0.1349999999999999534 ) ) ;
#600 = ORIENTED_EDGE ( 'NONE', *, *, #867, .F. ) ;
#601 = CARTESIAN_POINT ( 'NONE',  ( 0.7679571668975722076, 1.199999999999999956, 0.6350000000000000089 ) ) ;
#602 = ORIENTED_EDGE ( 'NONE', *, *, #672, .F. ) ;
#603 = DIRECTION ( 'NONE',  ( 1.000000000000000000, 0.000000000000000000, 0.000000000000000000 ) ) ;
#604 = EDGE_CURVE ( 'NONE', #639, #797, #307, .T. ) ;
#605 = CARTESIAN_POINT ( 'NONE',  ( 2.000000000000000444, -1.000000000000000222, 0.000000000000000000 ) ) ;
#606 = ORIENTED_EDGE ( 'NONE', *, *, #314, .F. ) ;
#607 = DIRECTION ( 'NONE',  ( -1.249637081581196951E-16, 1.000000000000000000, -0.000000000000000000 ) ) ;
#608 = DIRECTION ( 'NONE',  ( -1.000000000000000000, 4.818676322157798361E-16, 0.000000000000000000 ) ) ;
#609 = DIRECTION ( 'NONE',  ( 0.000000000000000000, -1.000000000000000000, 0.000000000000000000 ) ) ;
#610 = VECTOR ( 'NONE', #543, 100.0000000000000000 ) ;
#611 = CARTESIAN_POINT ( 'NONE',  ( -2.000000000000000444, -0.4100000000000003642, 0.6350000000000000089 ) ) ;
#612 = EDGE_CURVE ( 'NONE', #447, #493, #654, .T. ) ;
#613 = VECTOR ( 'NONE', #662, 100.0000000000000142 ) ;
#614 = ORIENTED_EDGE ( 'NONE', *, *, #612, .T. ) ;
#615 = DIRECTION ( 'NONE',  ( -0.000000000000000000, 0.000000000000000000, 1.000000000000000000 ) ) ;
#616 = ORIENTED_EDGE ( 'NONE', *, *, #953, .F. ) ;
#617 = DIRECTION ( 'NONE',  ( -0.8660254037844362651, 0.5000000000000042188, 0.000000000000000000 ) ) ;
#618 = EDGE_LOOP ( 'NONE', ( #886, #992, #965, #24, #815 ) ) ;
#619 = EDGE_CURVE ( 'NONE', #555, #1099, #664, .T. ) ;
#620 = CARTESIAN_POINT ( 'NONE',  ( 2.000000000000000444, 1.500000000000000666, 0.000000000000000000 ) ) ;
#621 = DIRECTION ( 'NONE',  ( 4.818676322157798361E-16, -1.000000000000000000, 0.000000000000000000 ) ) ;
#622 = VERTEX_POINT ( 'NONE', #551 ) ;
#623 = LINE ( 'NONE', #795, #161 ) ;
#624 = ORIENTED_EDGE ( 'NONE', *, *, #75, .F. ) ;
#625 = ADVANCED_FACE ( 'NONE', ( #470 ), #34, .F. ) ;
#626 = CARTESIAN_POINT ( 'NONE',  ( 2.000000000000000444, 0.4100000000000001421, 0.1349999999999999534 ) ) ;
#627 = APPLICATION_CONTEXT ( 'automotive_design' ) ;
#628 = EDGE_CURVE ( 'NONE', #447, #361, #718, .T. ) ;
#629 = ORIENTED_EDGE ( 'NONE', *, *, #159, .F. ) ;
#630 = CARTESIAN_POINT ( 'NONE',  ( 2.000000000000000444, -0.4099999999999999201, 0.1349999999999999534 ) ) ;
#631 = VECTOR ( 'NONE', #219, 100.0000000000000000 ) ;
#632 = VECTOR ( 'NONE', #430, 100.0000000000000000 ) ;
#633 = ORIENTED_EDGE ( 'NONE', *, *, #1030, .F. ) ;
#634 = VECTOR ( 'NONE', #158, 100.0000000000000000 ) ;
#635 = DIRECTION ( 'NONE',  ( 0.000000000000000000, -1.000000000000000000, 0.000000000000000000 ) ) ;
#636 = VECTOR ( 'NONE', #812, 100.0000000000000000 ) ;
#637 = LINE ( 'NONE', #1047, #885 ) ;
#638 = EDGE_CURVE ( 'NONE', #797, #391, #1084, .T. ) ;
#639 = VERTEX_POINT ( 'NONE', #209 ) ;
#640 = CARTESIAN_POINT ( 'NONE',  ( 2.000000000000000444, -0.4099999999999999201, 0.1349999999999999534 ) ) ;
#641 = VERTEX_POINT ( 'NONE', #824 ) ;
#642 = DIRECTION ( 'NONE',  ( -1.249637081581196951E-16, 1.000000000000000000, 0.000000000000000000 ) ) ;
#643 = LINE ( 'NONE', #825, #1031 ) ;
#644 = ORIENTED_EDGE ( 'NONE', *, *, #508, .T. ) ;
#645 = CARTESIAN_POINT ( 'NONE',  ( -1.820000000000000506, 0.4099999999999995870, 0.1349999999999999534 ) ) ;
#646 = ADVANCED_BREP_SHAPE_REPRESENTATION ( 'vertex-edge_62', ( #101, #36 ), #14 ) ;
#647 = ORIENTED_EDGE ( 'NONE', *, *, #929, .F. ) ;
#648 = CARTESIAN_POINT ( 'NONE',  ( 2.000000000000000444, 0.4100000000000001421, 0.1349999999999999534 ) ) ;
#649 = LINE ( 'NONE', #994, #579 ) ;
#650 = ORIENTED_EDGE ( 'NONE', *, *, #314, .T. ) ;
#651 = DIRECTION ( 'NONE',  ( 0.000000000000000000, 1.000000000000000000, 0.000000000000000000 ) ) ;
#652 = ORIENTED_EDGE ( 'NONE', *, *, #1023, .F. ) ;
#653 = AXIS2_PLACEMENT_3D ( 'NONE', #264, #1027, #180 ) ;
#654 = LINE ( 'NONE', #381, #772 ) ;
#655 = AXIS2_PLACEMENT_3D ( 'NONE', #1045, #860, #196 ) ;
#656 = CARTESIAN_POINT ( 'NONE',  ( 0.000000000000000000, 0.000000000000000000, 0.000000000000000000 ) ) ;
#657 = ORIENTED_EDGE ( 'NONE', *, *, #1102, .F. ) ;
#658 = CARTESIAN_POINT ( 'NONE',  ( 2.000000000000000444, 1.500000000000000666, 0.3175000000000000044 ) ) ;
#659 = ORIENTED_EDGE ( 'NONE', *, *, #214, .F. ) ;
#660 = CARTESIAN_POINT ( 'NONE',  ( 2.000000000000000444, -0.4099999999999999201, 0.1349999999999999534 ) ) ;
#661 = ADVANCED_FACE ( 'NONE', ( #740 ), #1071, .F. ) ;
#662 = DIRECTION ( 'NONE',  ( 0.8660254037844362651, 0.5000000000000042188, 0.000000000000000000 ) ) ;
#663 = EDGE_LOOP ( 'NONE', ( #987, #687, #287, #675 ) ) ;
#664 = LINE ( 'NONE', #392, #1015 ) ;
#665 = LINE ( 'NONE', #566, #941 ) ;
#666 = ORIENTED_EDGE ( 'NONE', *, *, #80, .F. ) ;
#667 = LINE ( 'NONE', #568, #195 ) ;
#668 = AXIS2_PLACEMENT_3D ( 'NONE', #746, #125, #295 ) ;
#669 = VECTOR ( 'NONE', #97, 100.0000000000000000 ) ;
#670 = ORIENTED_EDGE ( 'NONE', *, *, #715, .F. ) ;
#671 = CARTESIAN_POINT ( 'NONE',  ( -1.364999999999998215, 2.000000000000001776, 0.6350000000000000089 ) ) ;
#672 = EDGE_CURVE ( 'NONE', #1052, #1093, #463, .T. ) ;
#673 = PLANE ( 'NONE',  #1069 ) ;
#674 = CARTESIAN_POINT ( 'NONE',  ( 0.000000000000000000, 0.000000000000000000, 0.1349999999999999534 ) ) ;
#675 = ORIENTED_EDGE ( 'NONE', *, *, #715, .T. ) ;
#676 = CARTESIAN_POINT ( 'NONE',  ( 0.000000000000000000, -0.3099999999999999978, 0.000000000000000000 ) ) ;
#677 = DIRECTION ( 'NONE',  ( 1.000000000000000000, 0.000000000000000000, 0.000000000000000000 ) ) ;
#678 = PLANE ( 'NONE',  #737 ) ;
#679 = ADVANCED_FACE ( 'NONE', ( #1077 ), #386, .F. ) ;
#680 = FACE_OUTER_BOUND ( 'NONE', #980, .T. ) ;
#681 = VECTOR ( 'NONE', #717, 100.0000000000000000 ) ;
#682 = CARTESIAN_POINT ( 'NONE',  ( -2.000000000000000444, 0.4099999999999996980, 0.6350000000000000089 ) ) ;
#683 = CIRCLE ( 'NONE', #465, 2.500000000000000000 ) ;
#684 = AXIS2_PLACEMENT_3D ( 'NONE', #539, #615, #798 ) ;
#685 = FACE_OUTER_BOUND ( 'NONE', #141, .T. ) ;
#686 = DIRECTION ( 'NONE',  ( 0.000000000000000000, 0.000000000000000000, 1.000000000000000000 ) ) ;
#687 = ORIENTED_EDGE ( 'NONE', *, *, #962, .F. ) ;
#688 = CARTESIAN_POINT ( 'NONE',  ( 2.000000000000000444, 0.4100000000000001421, 0.1349999999999999534 ) ) ;
#689 = ORIENTED_EDGE ( 'NONE', *, *, #991, .T. ) ;
#690 = CARTESIAN_POINT ( 'NONE',  ( 2.000000000000001776, 1.364999999999998437, 0.6350000000000000089 ) ) ;
#691 = FACE_OUTER_BOUND ( 'NONE', #416, .T. ) ;
#692 = ADVANCED_FACE ( 'NONE', ( #993 ), #917, .F. ) ;
#693 = FACE_OUTER_BOUND ( 'NONE', #133, .T. ) ;
#694 = ORIENTED_EDGE ( 'NONE', *, *, #199, .F. ) ;
#695 = CARTESIAN_POINT ( 'NONE',  ( 2.000000000000000444, 0.4100000000000001421, 0.1349999999999999534 ) ) ;
#696 = PRESENTATION_STYLE_ASSIGNMENT (( #198 ) ) ;
#697 = VECTOR ( 'NONE', #617, 100.0000000000000142 ) ;
#698 = ORIENTED_EDGE ( 'NONE', *, *, #263, .F. ) ;
#699 = ADVANCED_FACE ( 'NONE', ( #832 ), #1096, .F. ) ;
#700 = DIRECTION ( 'NONE',  ( -0.000000000000000000, 0.000000000000000000, 1.000000000000000000 ) ) ;
#701 = AXIS2_PLACEMENT_3D ( 'NONE', #1018, #68, #1021 ) ;
#702 = ORIENTED_EDGE ( 'NONE', *, *, #1036, .F. ) ;
#703 = FACE_OUTER_BOUND ( 'NONE', #519, .T. ) ;
#704 = CARTESIAN_POINT ( 'NONE',  ( 2.000000000000000444, -0.4099999999999999201, 0.1349999999999999534 ) ) ;
#705 = ORIENTED_EDGE ( 'NONE', *, *, #813, .F. ) ;
#706 = CARTESIAN_POINT ( 'NONE',  ( 1.820000000000000506, 0.4100000000000000311, 0.6350000000000000089 ) ) ;
#707 = ORIENTED_EDGE ( 'NONE', *, *, #813, .T. ) ;
#708 = EDGE_CURVE ( 'NONE', #493, #388, #732, .T. ) ;
#709 = CARTESIAN_POINT ( 'NONE',  ( 2.000000000000000444, -1.000000000000000000, 0.6350000000000000089 ) ) ;
#710 = DIRECTION ( 'NONE',  ( -0.5000000000000042188, -0.8660254037844362651, 0.000000000000000000 ) ) ;
#711 = EDGE_LOOP ( 'NONE', ( #366, #705, #666, #537 ) ) ;
#712 = DIRECTION ( 'NONE',  ( -2.312964634635742957E-16, 1.000000000000000000, 0.000000000000000000 ) ) ;
#713 = VERTEX_POINT ( 'NONE', #954 ) ;
#714 = DIRECTION ( 'NONE',  ( -1.000000000000000000, -4.818676322157799347E-16, 0.000000000000000000 ) ) ;
#715 = EDGE_CURVE ( 'NONE', #206, #1003, #924, .T. ) ;
#716 = EDGE_LOOP ( 'NONE', ( #896, #49, #647, #1062 ) ) ;
#717 = DIRECTION ( 'NONE',  ( -1.000000000000000000, -4.818676322157799347E-16, 0.000000000000000000 ) ) ;
#718 = CIRCLE ( 'NONE', #372, 2.500000000000000000 ) ;
#719 = ORIENTED_EDGE ( 'NONE', *, *, #612, .F. ) ;
#720 = VECTOR ( 'NONE', #155, 100.0000000000000000 ) ;
#721 = DIRECTION ( 'NONE',  ( -4.818676322157798361E-16, -1.000000000000000000, 0.000000000000000000 ) ) ;
#722 = DIRECTION ( 'NONE',  ( 1.000000000000000000, 0.000000000000000000, 0.000000000000000000 ) ) ;
#723 = ORIENTED_EDGE ( 'NONE', *, *, #199, .T. ) ;
#724 = PLANE ( 'NONE',  #217 ) ;
#725 = ORIENTED_EDGE ( 'NONE', *, *, #420, .T. ) ;
#726 = DIRECTION ( 'NONE',  ( 0.000000000000000000, 0.000000000000000000, 1.000000000000000000 ) ) ;
#727 = CARTESIAN_POINT ( 'NONE',  ( -16.63499999999999801, 1.364999999999996438, 0.6350000000000000089 ) ) ;
#728 = ORIENTED_EDGE ( 'NONE', *, *, #638, .T. ) ;
#729 = CARTESIAN_POINT ( 'NONE',  ( 0.4100000000000000311, 2.000000000000000444, 0.1349999999999999534 ) ) ;
#730 = EDGE_CURVE ( 'NONE', #232, #785, #81, .T. ) ;
#731 = VERTEX_POINT ( 'NONE', #611 ) ;
#732 = LINE ( 'NONE', #905, #576 ) ;
#733 = DIRECTION ( 'NONE',  ( 0.000000000000000000, -1.000000000000000000, 0.000000000000000000 ) ) ;
#734 = VERTEX_POINT ( 'NONE', #1 ) ;
#735 = CARTESIAN_POINT ( 'NONE',  ( 0.000000000000000000, 0.000000000000000000, 0.6350000000000000089 ) ) ;
#736 = EDGE_CURVE ( 'NONE', #995, #443, #350, .T. ) ;
#737 = AXIS2_PLACEMENT_3D ( 'NONE', #575, #960, #435 ) ;
#738 = VERTEX_POINT ( 'NONE', #773 ) ;
#739 = VECTOR ( 'NONE', #1061, 100.0000000000000000 ) ;
#740 = FACE_OUTER_BOUND ( 'NONE', #933, .T. ) ;
#741 = CARTESIAN_POINT ( 'NONE',  ( -1.820000000000000506, -0.4100000000000003086, 0.6350000000000000089 ) ) ;
#742 = ORIENTED_EDGE ( 'NONE', *, *, #619, .T. ) ;
#743 = CARTESIAN_POINT ( 'NONE',  ( -0.4099999999999999201, 1.820000000000000506, 0.6350000000000000089 ) ) ;
#744 = ORIENTED_EDGE ( 'NONE', *, *, #969, .F. ) ;
#745 = EDGE_CURVE ( 'NONE', #1003, #116, #595, .T. ) ;
#746 = CARTESIAN_POINT ( 'NONE',  ( 0.4099999999999999201, 1.820000000000000506, 0.1349999999999999534 ) ) ;
#747 = DIRECTION ( 'NONE',  ( 0.8660254037844361541, 0.5000000000000042188, 0.000000000000000000 ) ) ;
#748 = ORIENTED_EDGE ( 'NONE', *, *, #188, .F. ) ;
#749 = CARTESIAN_POINT ( 'NONE',  ( -2.000000000000000444, -1.000000000000000000, 0.6350000000000000089 ) ) ;
#750 = DIRECTION ( 'NONE',  ( 0.000000000000000000, 0.000000000000000000, 1.000000000000000000 ) ) ;
#751 = EDGE_CURVE ( 'NONE', #116, #622, #90, .T. ) ;
#752 = DIRECTION ( 'NONE',  ( 0.000000000000000000, 1.000000000000000000, 0.000000000000000000 ) ) ;
#753 = ORIENTED_EDGE ( 'NONE', *, *, #174, .T. ) ;
#754 = LINE ( 'NONE', #152, #175 ) ;
#755 = AXIS2_PLACEMENT_3D ( 'NONE', #1004, #146, #62 ) ;
#756 = LINE ( 'NONE', #601, #486 ) ;
#757 = VECTOR ( 'NONE', #958, 100.0000000000000000 ) ;
#758 = ORIENTED_EDGE ( 'NONE', *, *, #383, .T. ) ;
#759 = EDGE_CURVE ( 'NONE', #561, #76, #943, .T. ) ;
#760 = DIRECTION ( 'NONE',  ( -1.000000000000000000, 4.818676322157799347E-16, -0.000000000000000000 ) ) ;
#761 = CARTESIAN_POINT ( 'NONE',  ( 2.000000000000000444, 0.4100000000000001421, 0.6350000000000000089 ) ) ;
#762 = EDGE_CURVE ( 'NONE', #232, #277, #345, .T. ) ;
#763 = CARTESIAN_POINT ( 'NONE',  ( 1.499999999999999778, 2.000000000000000444, 0.3175000000000000044 ) ) ;
#764 = CARTESIAN_POINT ( 'NONE',  ( -1.199999999999999956, -0.7679571668975725407, 0.1349999999999999534 ) ) ;
#765 = FACE_OUTER_BOUND ( 'NONE', #94, .T. ) ;
#766 = EDGE_CURVE ( 'NONE', #385, #162, #303, .T. ) ;
#767 = ORIENTED_EDGE ( 'NONE', *, *, #80, .T. ) ;
#768 = DIRECTION ( 'NONE',  ( -0.000000000000000000, 0.000000000000000000, 1.000000000000000000 ) ) ;
#769 = CIRCLE ( 'NONE', #38, 0.3099999999999999978 ) ;
#770 = FACE_OUTER_BOUND ( 'NONE', #889, .T. ) ;
#771 = MECHANICAL_DESIGN_GEOMETRIC_PRESENTATION_REPRESENTATION (  '', ( #72 ), #285 ) ;
#772 = VECTOR ( 'NONE', #476, 100.0000000000000000 ) ;
#773 = CARTESIAN_POINT ( 'NONE',  ( 1.364999999999999991, 2.000000000000001776, 0.3175000000000000044 ) ) ;
#774 = DIRECTION ( 'NONE',  ( 1.000000000000000000, 0.000000000000000000, 0.000000000000000000 ) ) ;
#775 = ADVANCED_FACE ( 'NONE', ( #234, #685 ), #84, .T. ) ;
#776 = ORIENTED_EDGE ( 'NONE', *, *, #308, .F. ) ;
#777 = DIRECTION ( 'NONE',  ( 0.000000000000000000, 0.000000000000000000, -1.000000000000000000 ) ) ;
#778 = FACE_OUTER_BOUND ( 'NONE', #478, .T. ) ;
#779 = EDGE_LOOP ( 'NONE', ( #310, #652 ) ) ;
#780 = CARTESIAN_POINT ( 'NONE',  ( 1.199999999999999956, -0.7679571668975722076, 0.1349999999999999534 ) ) ;
#781 = EDGE_CURVE ( 'NONE', #443, #176, #491, .T. ) ;
#782 = CARTESIAN_POINT ( 'NONE',  ( -2.000000000000001776, 1.364999999999999991, 0.6350000000000000089 ) ) ;
#783 = ORIENTED_EDGE ( 'NONE', *, *, #428, .T. ) ;
#784 = DIRECTION ( 'NONE',  ( -0.000000000000000000, 0.000000000000000000, 1.000000000000000000 ) ) ;
#785 = VERTEX_POINT ( 'NONE', #253 ) ;
#786 = PLANE ( 'NONE',  #376 ) ;
#787 = CARTESIAN_POINT ( 'NONE',  ( -2.000000000000000888, 1.499999999999999112, 0.000000000000000000 ) ) ;
#788 = VECTOR ( 'NONE', #63, 100.0000000000000000 ) ;
#789 = VERTEX_POINT ( 'NONE', #95 ) ;
#790 = CARTESIAN_POINT ( 'NONE',  ( 1.364999999999999991, 1.364999999999998215, 0.3175000000000000044 ) ) ;
#791 = VECTOR ( 'NONE', #774, 100.0000000000000000 ) ;
#792 = ORIENTED_EDGE ( 'NONE', *, *, #1051, .F. ) ;
#793 = LINE ( 'NONE', #177, #504 ) ;
#794 = ORIENTED_EDGE ( 'NONE', *, *, #1110, .F. ) ;
#795 = CARTESIAN_POINT ( 'NONE',  ( -1.364999999999998215, 2.000000000000000444, 0.000000000000000000 ) ) ;
#796 = ADVANCED_FACE ( 'NONE', ( #765 ), #1116, .F. ) ;
#797 = VERTEX_POINT ( 'NONE', #605 ) ;
#798 = DIRECTION ( 'NONE',  ( 0.000000000000000000, -1.000000000000000000, 0.000000000000000000 ) ) ;
#799 = PLANE ( 'NONE',  #268 ) ;
#800 = EDGE_LOOP ( 'NONE', ( #131, #1040, #806, #859 ) ) ;
#801 = CARTESIAN_POINT ( 'NONE',  ( -2.000000000000000000, -1.500000000000000888, 0.000000000000000000 ) ) ;
#802 = ORIENTED_EDGE ( 'NONE', *, *, #245, .F. ) ;
#803 = EDGE_CURVE ( 'NONE', #460, #61, #318, .T. ) ;
#804 = FACE_OUTER_BOUND ( 'NONE', #396, .T. ) ;
#805 = FILL_AREA_STYLE_COLOUR ( '', #109 ) ;
#806 = ORIENTED_EDGE ( 'NONE', *, *, #464, .F. ) ;
#807 = CARTESIAN_POINT ( 'NONE',  ( 1.199999999999999956, 0.7679571668975723187, 0.1349999999999999534 ) ) ;
#808 = VECTOR ( 'NONE', #871, 100.0000000000000000 ) ;
#809 = VECTOR ( 'NONE', #332, 100.0000000000000142 ) ;
#810 = VERTEX_POINT ( 'NONE', #1039 ) ;
#811 = PRESENTATION_LAYER_ASSIGNMENT (  '', '', ( #72 ) ) ;
#812 = DIRECTION ( 'NONE',  ( -2.258880508902365962E-16, 1.000000000000000000, -0.000000000000000000 ) ) ;
#813 = EDGE_CURVE ( 'NONE', #789, #989, #173, .T. ) ;
#814 = LINE ( 'NONE', #571, #324 ) ;
#815 = ORIENTED_EDGE ( 'NONE', *, *, #1080, .F. ) ;
#816 = CARTESIAN_POINT ( 'NONE',  ( 2.000000000000000444, 0.4100000000000001421, 0.6350000000000000089 ) ) ;
#817 = ORIENTED_EDGE ( 'NONE', *, *, #138, .T. ) ;
#818 = DIRECTION ( 'NONE',  ( -0.000000000000000000, 0.000000000000000000, 1.000000000000000000 ) ) ;
#819 = CARTESIAN_POINT ( 'NONE',  ( -2.000000000000000444, -1.000000000000000000, 0.6350000000000000089 ) ) ;
#820 = ADVANCED_FACE ( 'NONE', ( #778 ), #678, .F. ) ;
#821 = ORIENTED_EDGE ( 'NONE', *, *, #229, .T. ) ;
#822 = DIRECTION ( 'NONE',  ( -1.000000000000000000, 0.000000000000000000, 0.000000000000000000 ) ) ;
#823 = ORIENTED_EDGE ( 'NONE', *, *, #604, .T. ) ;
#824 = CARTESIAN_POINT ( 'NONE',  ( -1.199999999999999956, -0.7679571668975725407, 0.1349999999999999534 ) ) ;
#825 = CARTESIAN_POINT ( 'NONE',  ( -1.500000000000000222, 2.000000000000000444, 0.3175000000000000044 ) ) ;
#826 = ORIENTED_EDGE ( 'NONE', *, *, #781, .T. ) ;
#827 = ADVANCED_FACE ( 'NONE', ( #693 ), #1043, .F. ) ;
#828 = DIRECTION ( 'NONE',  ( 0.000000000000000000, -1.000000000000000000, 0.000000000000000000 ) ) ;
#829 = EDGE_CURVE ( 'NONE', #1086, #31, #523, .T. ) ;
#830 = VECTOR ( 'NONE', #379, 100.0000000000000000 ) ;
#831 = ORIENTED_EDGE ( 'NONE', *, *, #897, .T. ) ;
#832 = FACE_OUTER_BOUND ( 'NONE', #1005, .T. ) ;
#833 = AXIS2_PLACEMENT_3D ( 'NONE', #912, #64, #940 ) ;
#834 = VECTOR ( 'NONE', #4, 100.0000000000000000 ) ;
#835 = CARTESIAN_POINT ( 'NONE',  ( 0.4099999999999999201, 1.820000000000000506, 0.1349999999999999534 ) ) ;
#836 = EDGE_LOOP ( 'NONE', ( #728, #831, #7, #614, #606, #823 ) ) ;
#837 = DIRECTION ( 'NONE',  ( -2.258880508902365962E-16, 1.000000000000000000, -0.000000000000000000 ) ) ;
#838 = EDGE_CURVE ( 'NONE', #76, #156, #884, .T. ) ;
#839 = DIRECTION ( 'NONE',  ( 0.8660254037844362651, 0.5000000000000042188, 0.000000000000000000 ) ) ;
#840 = LINE ( 'NONE', #126, #613 ) ;
#841 = ORIENTED_EDGE ( 'NONE', *, *, #838, .F. ) ;
#842 = CARTESIAN_POINT ( 'NONE',  ( 16.63499999999999801, 1.365000000000001101, 0.6350000000000000089 ) ) ;
#843 = PRODUCT_RELATED_PRODUCT_CATEGORY ( 'part', '', ( #279 ) ) ;
#844 = EDGE_LOOP ( 'NONE', ( #201, #2 ) ) ;
#845 = CARTESIAN_POINT ( 'NONE',  ( 2.000000000000000444, 1.500000000000000666, 0.000000000000000000 ) ) ;
#846 = EDGE_LOOP ( 'NONE', ( #553, #593, #659, #349 ) ) ;
#847 = CARTESIAN_POINT ( 'NONE',  ( -2.000000000000001776, 1.364999999999999991, 0.3175000000000000044 ) ) ;
#848 = VECTOR ( 'NONE', #397, 100.0000000000000000 ) ;
#849 = VECTOR ( 'NONE', #548, 100.0000000000000000 ) ;
#850 = VECTOR ( 'NONE', #433, 100.0000000000000000 ) ;
#851 = DIRECTION ( 'NONE',  ( 0.000000000000000000, -1.000000000000000000, 0.000000000000000000 ) ) ;
#852 = FACE_OUTER_BOUND ( 'NONE', #663, .T. ) ;
#853 = CARTESIAN_POINT ( 'NONE',  ( 16.63499999999999801, 1.365000000000001101, 0.3175000000000000044 ) ) ;
#854 = CARTESIAN_POINT ( 'NONE',  ( 0.000000000000000000, 0.000000000000000000, 0.000000000000000000 ) ) ;
#855 = CARTESIAN_POINT ( 'NONE',  ( -0.4099999999999999201, 1.820000000000000506, 0.6350000000000000089 ) ) ;
#856 = CARTESIAN_POINT ( 'NONE',  ( 3.796405077356794548E-17, 0.3099999999999999978, 0.6350000000000000089 ) ) ;
#857 = CARTESIAN_POINT ( 'NONE',  ( 0.000000000000000000, 0.000000000000000000, 0.6350000000000000089 ) ) ;
#858 = EDGE_CURVE ( 'NONE', #61, #1099, #45, .T. ) ;
#859 = ORIENTED_EDGE ( 'NONE', *, *, #1102, .T. ) ;
#860 = DIRECTION ( 'NONE',  ( 0.000000000000000000, 0.000000000000000000, 1.000000000000000000 ) ) ;
#861 = VECTOR ( 'NONE', #6, 100.0000000000000000 ) ;
#862 = PLANE ( 'NONE',  #485 ) ;
#863 = APPLICATION_PROTOCOL_DEFINITION ( 'draft international standard', 'automotive_design', 1998, #627 ) ;
#864 = VECTOR ( 'NONE', #1108, 100.0000000000000142 ) ;
#865 = DIRECTION ( 'NONE',  ( -0.000000000000000000, 0.000000000000000000, 1.000000000000000000 ) ) ;
#866 = ORIENTED_EDGE ( 'NONE', *, *, #410, .F. ) ;
#867 = EDGE_CURVE ( 'NONE', #622, #31, #111, .T. ) ;
#868 = LINE ( 'NONE', #780, #1017 ) ;
#869 = CARTESIAN_POINT ( 'NONE',  ( 1.364999999999995328, 16.63499999999999801, 0.3175000000000000044 ) ) ;
#870 = VERTEX_POINT ( 'NONE', #186 ) ;
#871 = DIRECTION ( 'NONE',  ( 1.000000000000000000, -4.818676322157799347E-16, 0.000000000000000000 ) ) ;
#872 = ORIENTED_EDGE ( 'NONE', *, *, #939, .T. ) ;
#873 = CARTESIAN_POINT ( 'NONE',  ( 1.364999999999999769, 2.000000000000000444, 0.000000000000000000 ) ) ;
#874 = EDGE_CURVE ( 'NONE', #561, #961, #129, .T. ) ;
#875 = CARTESIAN_POINT ( 'NONE',  ( -0.4100000000000000311, 2.000000000000000444, 0.1349999999999999534 ) ) ;
#876 = ORIENTED_EDGE ( 'NONE', *, *, #112, .F. ) ;
#877 = DIRECTION ( 'NONE',  ( -0.000000000000000000, 0.000000000000000000, 1.000000000000000000 ) ) ;
#878 = ORIENTED_EDGE ( 'NONE', *, *, #736, .F. ) ;
#879 = LINE ( 'NONE', #86, #791 ) ;
#880 =( NAMED_UNIT ( * ) SI_UNIT ( $, .STERADIAN. ) SOLID_ANGLE_UNIT ( ) );
#881 = VECTOR ( 'NONE', #123, 100.0000000000000000 ) ;
#882 = EDGE_CURVE ( 'NONE', #1099, #58, #271, .T. ) ;
#883 = ORIENTED_EDGE ( 'NONE', *, *, #239, .F. ) ;
#884 = LINE ( 'NONE', #1056, #830 ) ;
#885 = VECTOR ( 'NONE', #983, 100.0000000000000000 ) ;
#886 = ORIENTED_EDGE ( 'NONE', *, *, #174, .F. ) ;
#887 = CARTESIAN_POINT ( 'NONE',  ( -2.000000000000000000, -1.500000000000000888, 0.3175000000000000044 ) ) ;
#888 = DIRECTION ( 'NONE',  ( -1.000000000000000000, -4.818676322157798361E-16, 0.000000000000000000 ) ) ;
#889 = EDGE_LOOP ( 'NONE', ( #563, #876, #27, #458 ) ) ;
#890 = ADVANCED_FACE ( 'NONE', ( #985 ), #724, .F. ) ;
#891 = LINE ( 'NONE', #645, #610 ) ;
#892 = EDGE_LOOP ( 'NONE', ( #306, #55, #883, #707 ) ) ;
#893 = DIRECTION ( 'NONE',  ( -0.000000000000000000, 0.000000000000000000, 1.000000000000000000 ) ) ;
#894 = ORIENTED_EDGE ( 'NONE', *, *, #188, .T. ) ;
#895 = CARTESIAN_POINT ( 'NONE',  ( 0.4100000000000000311, 2.000000000000000444, 0.1349999999999999534 ) ) ;
#896 = ORIENTED_EDGE ( 'NONE', *, *, #867, .T. ) ;
#897 = EDGE_CURVE ( 'NONE', #391, #361, #972, .T. ) ;
#898 = CARTESIAN_POINT ( 'NONE',  ( 2.000000000000000444, 1.500000000000000666, 0.000000000000000000 ) ) ;
#899 = LINE ( 'NONE', #1002, #904 ) ;
#900 = ORIENTED_EDGE ( 'NONE', *, *, #231, .F. ) ;
#901 = DIRECTION ( 'NONE',  ( -0.000000000000000000, 0.000000000000000000, 1.000000000000000000 ) ) ;
#902 = VECTOR ( 'NONE', #839, 100.0000000000000142 ) ;
#903 = ORIENTED_EDGE ( 'NONE', *, *, #572, .T. ) ;
#904 = VECTOR ( 'NONE', #382, 100.0000000000000000 ) ;
#905 = CARTESIAN_POINT ( 'NONE',  ( 1.499999999999999778, 2.000000000000000444, 0.000000000000000000 ) ) ;
#906 = EDGE_CURVE ( 'NONE', #810, #258, #535, .T. ) ;
#907 = CARTESIAN_POINT ( 'NONE',  ( -2.000000000000000888, 1.364999999999999991, 0.000000000000000000 ) ) ;
#908 = ORIENTED_EDGE ( 'NONE', *, *, #164, .F. ) ;
#909 = LINE ( 'NONE', #729, #144 ) ;
#910 = ORIENTED_EDGE ( 'NONE', *, *, #803, .T. ) ;
#911 = DIRECTION ( 'NONE',  ( 0.000000000000000000, -1.000000000000000000, 0.000000000000000000 ) ) ;
#912 = CARTESIAN_POINT ( 'NONE',  ( -2.000000000000000000, -1.500000000000000888, 0.000000000000000000 ) ) ;
#913 = EDGE_CURVE ( 'NONE', #403, #1052, #623, .T. ) ;
#914 = ORIENTED_EDGE ( 'NONE', *, *, #490, .T. ) ;
#915 = LINE ( 'NONE', #1010, #516 ) ;
#916 = VERTEX_POINT ( 'NONE', #807 ) ;
#917 = PLANE ( 'NONE',  #442 ) ;
#918 = LINE ( 'NONE', #727, #959 ) ;
#919 = UNCERTAINTY_MEASURE_WITH_UNIT (LENGTH_MEASURE( 1.000000000000000082E-05 ), #438, 'distance_accuracy_value', 'NONE');
#920 = ORIENTED_EDGE ( 'NONE', *, *, #751, .T. ) ;
#921 = LINE ( 'NONE', #658, #127 ) ;
#922 = EDGE_CURVE ( 'NONE', #731, #989, #370, .T. ) ;
#923 = VECTOR ( 'NONE', #712, 100.0000000000000000 ) ;
#924 = LINE ( 'NONE', #599, #236 ) ;
#925 = VECTOR ( 'NONE', #168, 100.0000000000000142 ) ;
#926 = CARTESIAN_POINT ( 'NONE',  ( -1.820000000000000506, 0.4099999999999995870, 0.6350000000000000089 ) ) ;
#927 = VERTEX_POINT ( 'NONE', #459 ) ;
#928 = LINE ( 'NONE', #842, #423 ) ;
#929 = EDGE_CURVE ( 'NONE', #738, #1086, #288, .T. ) ;
#930 = CARTESIAN_POINT ( 'NONE',  ( 0.4099999999999999201, 1.820000000000000506, 0.1349999999999999534 ) ) ;
#931 = DIRECTION ( 'NONE',  ( 1.000000000000000000, 1.931257307898213426E-16, 0.000000000000000000 ) ) ;
#932 = DIRECTION ( 'NONE',  ( 0.000000000000000000, -1.000000000000000000, 0.000000000000000000 ) ) ;
#933 = EDGE_LOOP ( 'NONE', ( #569, #670, #497, #246 ) ) ;
#934 = ADVANCED_FACE ( 'NONE', ( #293 ), #207, .T. ) ;
#935 = DIRECTION ( 'NONE',  ( 0.000000000000000000, -1.000000000000000000, 0.000000000000000000 ) ) ;
#936 = ORIENTED_EDGE ( 'NONE', *, *, #730, .F. ) ;
#937 = PRODUCT_CONTEXT ( 'NONE', #78, 'mechanical' ) ;
#938 = VECTOR ( 'NONE', #341, 100.0000000000000000 ) ;
#939 = EDGE_CURVE ( 'NONE', #364, #713, #1068, .T. ) ;
#940 = DIRECTION ( 'NONE',  ( -2.312964634635742957E-16, 1.000000000000000000, 0.000000000000000000 ) ) ;
#941 = VECTOR ( 'NONE', #1085, 100.0000000000000142 ) ;
#942 = LINE ( 'NONE', #417, #809 ) ;
#943 = LINE ( 'NONE', #259, #536 ) ;
#944 = LINE ( 'NONE', #583, #720 ) ;
#945 = EDGE_CURVE ( 'NONE', #172, #443, #212, .T. ) ;
#946 = CARTESIAN_POINT ( 'NONE',  ( 1.364999999999999991, 1.364999999999998215, 0.6350000000000000089 ) ) ;
#947 = DIRECTION ( 'NONE',  ( 0.000000000000000000, 1.000000000000000000, 0.000000000000000000 ) ) ;
#948 = EDGE_CURVE ( 'NONE', #785, #172, #282, .T. ) ;
#949 = CARTESIAN_POINT ( 'NONE',  ( -1.500000000000000222, 2.000000000000000444, 0.6350000000000000089 ) ) ;
#950 = ORIENTED_EDGE ( 'NONE', *, *, #913, .F. ) ;
#951 = LINE ( 'NONE', #242, #979 ) ;
#952 = LINE ( 'NONE', #83, #632 ) ;
#953 = EDGE_CURVE ( 'NONE', #364, #810, #891, .T. ) ;
#954 = CARTESIAN_POINT ( 'NONE',  ( -1.200000000000000178, 0.7679571668975719856, 0.6350000000000000089 ) ) ;
#955 = VERTEX_POINT ( 'NONE', #117 ) ;
#956 = CYLINDRICAL_SURFACE ( 'NONE', #684, 0.3099999999999999978 ) ;
#957 = AXIS2_PLACEMENT_3D ( 'NONE', #513, #424, #517 ) ;
#958 = DIRECTION ( 'NONE',  ( -0.000000000000000000, 0.000000000000000000, 1.000000000000000000 ) ) ;
#959 = VECTOR ( 'NONE', #1008, 100.0000000000000000 ) ;
#960 = DIRECTION ( 'NONE',  ( 0.5000000000000043299, 0.8660254037844362651, 0.000000000000000000 ) ) ;
#961 = VERTEX_POINT ( 'NONE', #468 ) ;
#962 = EDGE_CURVE ( 'NONE', #927, #116, #453, .T. ) ;
#963 = LINE ( 'NONE', #278, #200 ) ;
#964 = CARTESIAN_POINT ( 'NONE',  ( 3.796405077356794548E-17, 0.3099999999999999978, 0.000000000000000000 ) ) ;
#965 = ORIENTED_EDGE ( 'NONE', *, *, #929, .T. ) ;
#966 = DIRECTION ( 'NONE',  ( 4.818676322157798361E-16, -1.000000000000000000, 0.000000000000000000 ) ) ;
#967 = ORIENTED_EDGE ( 'NONE', *, *, #472, .T. ) ;
#968 = LINE ( 'NONE', #887, #1048 ) ;
#969 = EDGE_CURVE ( 'NONE', #162, #385, #997, .T. ) ;
#970 = DIRECTION ( 'NONE',  ( 3.067291018426574134E-16, -1.000000000000000000, 0.000000000000000000 ) ) ;
#971 = ORIENTED_EDGE ( 'NONE', *, *, #991, .F. ) ;
#972 = LINE ( 'NONE', #801, #923 ) ;
#973 = ORIENTED_EDGE ( 'NONE', *, *, #586, .F. ) ;
#974 = DIRECTION ( 'NONE',  ( -0.000000000000000000, 0.000000000000000000, 1.000000000000000000 ) ) ;
#975 = AXIS2_PLACEMENT_3D ( 'NONE', #574, #323, #488 ) ;
#976 = VECTOR ( 'NONE', #515, 100.0000000000000000 ) ;
#977 = ORIENTED_EDGE ( 'NONE', *, *, #490, .F. ) ;
#978 = DIRECTION ( 'NONE',  ( 3.067291018426574134E-16, -1.000000000000000000, 0.000000000000000000 ) ) ;
#979 = VECTOR ( 'NONE', #254, 100.0000000000000000 ) ;
#980 = EDGE_LOOP ( 'NONE', ( #11, #151, #1076, #1074, #758, #227 ) ) ;
#981 = DIRECTION ( 'NONE',  ( -2.312964634635742957E-16, 1.000000000000000000, 0.000000000000000000 ) ) ;
#982 = PRODUCT_DEFINITION_SHAPE ( 'NONE', 'NONE',  #1042 ) ;
#983 = DIRECTION ( 'NONE',  ( 0.000000000000000000, 1.000000000000000000, 0.000000000000000000 ) ) ;
#984 = EDGE_LOOP ( 'NONE', ( #100, #169, #432, #910 ) ) ;
#985 = FACE_OUTER_BOUND ( 'NONE', #711, .T. ) ;
#986 = EDGE_CURVE ( 'NONE', #927, #378, #667, .T. ) ;
#987 = ORIENTED_EDGE ( 'NONE', *, *, #745, .T. ) ;
#988 = LINE ( 'NONE', #741, #538 ) ;
#989 = VERTEX_POINT ( 'NONE', #140 ) ;
#990 = CARTESIAN_POINT ( 'NONE',  ( -1.200000000000000178, 0.7679571668975719856, 0.1349999999999999534 ) ) ;
#991 = EDGE_CURVE ( 'NONE', #385, #505, #56, .T. ) ;
#992 = ORIENTED_EDGE ( 'NONE', *, *, #190, .F. ) ;
#993 = FACE_OUTER_BOUND ( 'NONE', #194, .T. ) ;
#994 = CARTESIAN_POINT ( 'NONE',  ( -2.000000000000000444, -1.000000000000000000, 0.6350000000000000089 ) ) ;
#995 = VERTEX_POINT ( 'NONE', #311 ) ;
#996 = CARTESIAN_POINT ( 'NONE',  ( -2.000000000000000444, -1.000000000000000000, 0.6350000000000000089 ) ) ;
#997 = CIRCLE ( 'NONE', #975, 0.3099999999999999978 ) ;
#998 = ORIENTED_EDGE ( 'NONE', *, *, #591, .T. ) ;
#999 = EDGE_CURVE ( 'NONE', #206, #927, #909, .T. ) ;
#1000 = VECTOR ( 'NONE', #16, 100.0000000000000000 ) ;
#1001 = CARTESIAN_POINT ( 'NONE',  ( 0.000000000000000000, 0.000000000000000000, 0.000000000000000000 ) ) ;
#1002 = CARTESIAN_POINT ( 'NONE',  ( 1.820000000000000506, -0.4099999999999998646, 0.1349999999999999534 ) ) ;
#1003 = VERTEX_POINT ( 'NONE', #1081 ) ;
#1004 = CARTESIAN_POINT ( 'NONE',  ( -1.820000000000000506, -0.4100000000000003086, 0.1349999999999999534 ) ) ;
#1005 = EDGE_LOOP ( 'NONE', ( #436, #567, #616, #872 ) ) ;
#1006 = DIRECTION ( 'NONE',  ( -1.000000000000000000, 0.000000000000000000, -0.000000000000000000 ) ) ;
#1007 = EDGE_CURVE ( 'NONE', #584, #61, #915, .T. ) ;
#1008 = DIRECTION ( 'NONE',  ( 1.000000000000000000, 2.385670792109557660E-16, 0.000000000000000000 ) ) ;
#1009 = ORIENTED_EDGE ( 'NONE', *, *, #1073, .T. ) ;
#1010 = CARTESIAN_POINT ( 'NONE',  ( 2.000000000000000444, 1.500000000000000666, 0.6350000000000000089 ) ) ;
#1011 = DIRECTION ( 'NONE',  ( 1.000000000000000000, -4.818676322157798361E-16, 0.000000000000000000 ) ) ;
#1012 = FACE_OUTER_BOUND ( 'NONE', #300, .T. ) ;
#1013 = ORIENTED_EDGE ( 'NONE', *, *, #766, .F. ) ;
#1014 = CARTESIAN_POINT ( 'NONE',  ( -1.364999999999999991, 16.63499999999999801, 0.6350000000000000089 ) ) ;
#1015 = VECTOR ( 'NONE', #401, 100.0000000000000000 ) ;
#1016 = AXIS2_PLACEMENT_3D ( 'NONE', #853, #1026, #931 ) ;
#1017 = VECTOR ( 'NONE', #1063, 100.0000000000000000 ) ;
#1018 = CARTESIAN_POINT ( 'NONE',  ( 0.4100000000000000311, 2.000000000000000444, 0.1349999999999999534 ) ) ;
#1019 = CARTESIAN_POINT ( 'NONE',  ( 1.199999999999999956, -0.7679571668975722076, 0.1349999999999999534 ) ) ;
#1020 = FACE_OUTER_BOUND ( 'NONE', #892, .T. ) ;
#1021 = DIRECTION ( 'NONE',  ( 4.818676322157798361E-16, 1.000000000000000000, 0.000000000000000000 ) ) ;
#1022 = ORIENTED_EDGE ( 'NONE', *, *, #604, .F. ) ;
#1023 = EDGE_CURVE ( 'NONE', #41, #505, #769, .T. ) ;
#1024 = ORIENTED_EDGE ( 'NONE', *, *, #164, .T. ) ;
#1025 = DIRECTION ( 'NONE',  ( 0.000000000000000000, 0.000000000000000000, -1.000000000000000000 ) ) ;
#1026 = DIRECTION ( 'NONE',  ( 1.931257307898213426E-16, -1.000000000000000000, 0.000000000000000000 ) ) ;
#1027 = DIRECTION ( 'NONE',  ( 1.000000000000000000, 2.258880508902365962E-16, 0.000000000000000000 ) ) ;
#1028 = AXIS2_PLACEMENT_3D ( 'NONE', #25, #1050, #441 ) ;
#1029 = FACE_OUTER_BOUND ( 'NONE', #39, .T. ) ;
#1030 = EDGE_CURVE ( 'NONE', #31, #584, #928, .T. ) ;
#1031 = VECTOR ( 'NONE', #54, 100.0000000000000000 ) ;
#1032 = VERTEX_POINT ( 'NONE', #847 ) ;
#1033 = DIRECTION ( 'NONE',  ( -0.000000000000000000, 0.000000000000000000, 1.000000000000000000 ) ) ;
#1034 = ORIENTED_EDGE ( 'NONE', *, *, #939, .F. ) ;
#1035 = LINE ( 'NONE', #77, #634 ) ;
#1036 = EDGE_CURVE ( 'NONE', #266, #713, #754, .T. ) ;
#1037 = ORIENTED_EDGE ( 'NONE', *, *, #1051, .T. ) ;
#1038 =( LENGTH_UNIT ( ) NAMED_UNIT ( * ) SI_UNIT ( .CENTI., .METRE. ) );
#1039 = CARTESIAN_POINT ( 'NONE',  ( -1.820000000000000506, 0.4099999999999995870, 0.1349999999999999534 ) ) ;
#1040 = ORIENTED_EDGE ( 'NONE', *, *, #762, .F. ) ;
#1041 = CARTESIAN_POINT ( 'NONE',  ( 2.000000000000000444, -0.4099999999999999201, 0.6350000000000000089 ) ) ;
#1042 = PRODUCT_DEFINITION ( 'UNKNOWN', '', #143, #165 ) ;
#1043 = PLANE ( 'NONE',  #653 ) ;
#1044 = ORIENTED_EDGE ( 'NONE', *, *, #138, .F. ) ;
#1045 = CARTESIAN_POINT ( 'NONE',  ( 0.000000000000000000, 0.000000000000000000, 0.6350000000000000089 ) ) ;
#1046 = AXIS2_PLACEMENT_3D ( 'NONE', #648, #228, #570 ) ;
#1047 = CARTESIAN_POINT ( 'NONE',  ( 2.000000000000000444, -0.4099999999999999201, 0.1349999999999999534 ) ) ;
#1048 = VECTOR ( 'NONE', #981, 100.0000000000000000 ) ;
#1049 = ORIENTED_EDGE ( 'NONE', *, *, #19, .T. ) ;
#1050 = DIRECTION ( 'NONE',  ( 0.000000000000000000, 0.000000000000000000, -1.000000000000000000 ) ) ;
#1051 = EDGE_CURVE ( 'NONE', #870, #371, #321, .T. ) ;
#1052 = VERTEX_POINT ( 'NONE', #671 ) ;
#1053 = DIRECTION ( 'NONE',  ( 0.000000000000000000, 0.000000000000000000, -1.000000000000000000 ) ) ;
#1054 = CARTESIAN_POINT ( 'NONE',  ( 0.000000000000000000, 0.000000000000000000, 0.3175000000000000044 ) ) ;
#1055 = EDGE_LOOP ( 'NONE', ( #524, #900, #936, #1103 ) ) ;
#1056 = CARTESIAN_POINT ( 'NONE',  ( -2.000000000000000000, -1.500000000000000888, 0.6350000000000000089 ) ) ;
#1057 = ORIENTED_EDGE ( 'NONE', *, *, #882, .T. ) ;
#1058 = LINE ( 'NONE', #626, #59 ) ;
#1059 = CARTESIAN_POINT ( 'NONE',  ( -0.4100000000000000311, 2.000000000000000444, 0.1349999999999999534 ) ) ;
#1060 = EDGE_LOOP ( 'NONE', ( #21, #1013, #689, #154 ) ) ;
#1061 = DIRECTION ( 'NONE',  ( -0.000000000000000000, 0.000000000000000000, 1.000000000000000000 ) ) ;
#1062 = ORIENTED_EDGE ( 'NONE', *, *, #480, .F. ) ;
#1063 = DIRECTION ( 'NONE',  ( 0.000000000000000000, -1.000000000000000000, 0.000000000000000000 ) ) ;
#1064 =( NAMED_UNIT ( * ) PLANE_ANGLE_UNIT ( ) SI_UNIT ( $, .RADIAN. ) );
#1065 = AXIS2_PLACEMENT_3D ( 'NONE', #854, #167, #170 ) ;
#1066 = AXIS2_PLACEMENT_3D ( 'NONE', #1019, #511, #851 ) ;
#1067 = ORIENTED_EDGE ( 'NONE', *, *, #838, .T. ) ;
#1068 = LINE ( 'NONE', #990, #556 ) ;
#1069 = AXIS2_PLACEMENT_3D ( 'NONE', #163, #247, #319 ) ;
#1070 = ORIENTED_EDGE ( 'NONE', *, *, #803, .F. ) ;
#1071 = PLANE ( 'NONE',  #668 ) ;
#1072 = FACE_OUTER_BOUND ( 'NONE', #1055, .T. ) ;
#1073 = EDGE_CURVE ( 'NONE', #176, #1106, #479, .T. ) ;
#1074 = ORIENTED_EDGE ( 'NONE', *, *, #532, .T. ) ;
#1075 = CARTESIAN_POINT ( 'NONE',  ( -2.000000000000000444, -0.4100000000000003642, 0.6350000000000000089 ) ) ;
#1076 = ORIENTED_EDGE ( 'NONE', *, *, #159, .T. ) ;
#1077 = FACE_OUTER_BOUND ( 'NONE', #984, .T. ) ;
#1078 = DIRECTION ( 'NONE',  ( 1.000000000000000000, 1.931257307898213426E-16, 0.000000000000000000 ) ) ;
#1079 = ORIENTED_EDGE ( 'NONE', *, *, #229, .F. ) ;
#1080 = EDGE_CURVE ( 'NONE', #185, #955, #921, .T. ) ;
#1081 = CARTESIAN_POINT ( 'NONE',  ( 0.4099999999999999201, 1.820000000000000506, 0.6350000000000000089 ) ) ;
#1082 = ADVANCED_FACE ( 'NONE', ( #1020 ), #233, .F. ) ;
#1083 = ORIENTED_EDGE ( 'NONE', *, *, #1036, .T. ) ;
#1084 = LINE ( 'NONE', #136, #483 ) ;
#1085 = DIRECTION ( 'NONE',  ( 0.8660254037844362651, -0.5000000000000039968, 0.000000000000000000 ) ) ;
#1086 = VERTEX_POINT ( 'NONE', #134 ) ;
#1087 = DIRECTION ( 'NONE',  ( -1.249637081581196951E-16, 1.000000000000000000, -0.000000000000000000 ) ) ;
#1088 = VECTOR ( 'NONE', #494, 100.0000000000000000 ) ;
#1089 = ORIENTED_EDGE ( 'NONE', *, *, #759, .T. ) ;
#1090 = EDGE_CURVE ( 'NONE', #58, #277, #244, .T. ) ;
#1091 = DIRECTION ( 'NONE',  ( 0.000000000000000000, -1.000000000000000000, 0.000000000000000000 ) ) ;
#1092 = DIRECTION ( 'NONE',  ( 0.8660254037844362651, -0.5000000000000039968, 0.000000000000000000 ) ) ;
#1093 = VERTEX_POINT ( 'NONE', #50 ) ;
#1094 = FACE_OUTER_BOUND ( 'NONE', #65, .T. ) ;
#1095 = ORIENTED_EDGE ( 'NONE', *, *, #19, .F. ) ;
#1096 = PLANE ( 'NONE',  #462 ) ;
#1097 = EDGE_CURVE ( 'NONE', #256, #1052, #389, .T. ) ;
#1098 = CARTESIAN_POINT ( 'NONE',  ( 0.000000000000000000, 0.000000000000000000, 0.1349999999999999534 ) ) ;
#1099 = VERTEX_POINT ( 'NONE', #585 ) ;
#1100 = DIRECTION ( 'NONE',  ( -0.000000000000000000, 0.000000000000000000, 1.000000000000000000 ) ) ;
#1101 = CARTESIAN_POINT ( 'NONE',  ( 2.000000000000000444, 1.500000000000000666, 0.6350000000000000089 ) ) ;
#1102 = EDGE_CURVE ( 'NONE', #916, #58, #404, .T. ) ;
#1103 = ORIENTED_EDGE ( 'NONE', *, *, #762, .T. ) ;
#1104 = DIRECTION ( 'NONE',  ( 4.818676322157799347E-16, 1.000000000000000000, 0.000000000000000000 ) ) ;
#1105 = AXIS2_PLACEMENT_3D ( 'NONE', #66, #70, #651 ) ;
#1106 = VERTEX_POINT ( 'NONE', #749 ) ;
#1107 = VECTOR ( 'NONE', #179, 100.0000000000000000 ) ;
#1108 = DIRECTION ( 'NONE',  ( -0.8660254037844362651, 0.5000000000000042188, 0.000000000000000000 ) ) ;
#1109 = CARTESIAN_POINT ( 'NONE',  ( 0.000000000000000000, 0.000000000000000000, 0.3175000000000000044 ) ) ;
#1110 = EDGE_CURVE ( 'NONE', #1093, #1113, #305, .T. ) ;
#1111 = LINE ( 'NONE', #855, #925 ) ;
#1112 = CARTESIAN_POINT ( 'NONE',  ( 1.199999999999999956, 0.7679571668975723187, 0.6350000000000000089 ) ) ;
#1113 = VERTEX_POINT ( 'NONE', #743 ) ;
#1114 = CARTESIAN_POINT ( 'NONE',  ( -2.000000000000000888, 1.499999999999999334, 0.000000000000000000 ) ) ;
#1115 = FACE_OUTER_BOUND ( 'NONE', #449, .T. ) ;
#1116 = PLANE ( 'NONE',  #957 ) ;
#1117 = VECTOR ( 'NONE', #700, 100.0000000000000000 ) ;
#1118 = ADVANCED_FACE ( 'NONE', ( #1094 ), #157, .T. ) ;
#1119 = LINE ( 'NONE', #409, #864 ) ;
#1120 = AXIS2_PLACEMENT_3D ( 'NONE', #1098, #466, #477 ) ;
#1121 = AXIS2_PLACEMENT_3D ( 'NONE', #42, #893, #1091 ) ;
#1122 = PLANE ( 'NONE',  #374 ) ;
#1123 =( NAMED_UNIT ( * ) SI_UNIT ( $, .STERADIAN. ) SOLID_ANGLE_UNIT ( ) );
ENDSEC;
END-ISO-10303-21;
