ISO-10303-21;
HEADER;
FILE_DESCRIPTION (( 'STEP AP214' ),
    '1' );
FILE_NAME ('vertex-corner_60.STEP',
    '2026-06-16T01:08:47',
    ( '' ),
    ( '' ),
    'SwSTEP 2.0',
    'SolidWorks 2023',
    '' );
FILE_SCHEMA (( 'AUTOMOTIVE_DESIGN' ));
ENDSEC;

DATA;
#1 =( GEOMETRIC_REPRESENTATION_CONTEXT ( 3 ) GLOBAL_UNCERTAINTY_ASSIGNED_CONTEXT ( ( #700 ) ) GLOBAL_UNIT_ASSIGNED_CONTEXT ( ( #815, #171, #626 ) ) REPRESENTATION_CONTEXT ( 'NONE', 'WORKASPACE' ) );
#2 = ORIENTED_EDGE ( 'NONE', *, *, #407, .F. ) ;
#3 = CARTESIAN_POINT ( 'NONE',  ( -1.200000000000000178, 0.7679571668975719856, 0.6350000000000000089 ) ) ;
#4 = FILL_AREA_STYLE ('',( #132 ) ) ;
#5 = ORIENTED_EDGE ( 'NONE', *, *, #569, .F. ) ;
#6 = CARTESIAN_POINT ( 'NONE',  ( 0.7679571668975722076, 1.199999999999999956, 0.1349999999999999534 ) ) ;
#7 = DIRECTION ( 'NONE',  ( -0.8660254037844360431, -0.5000000000000045519, 0.000000000000000000 ) ) ;
#8 = VECTOR ( 'NONE', #232, 100.0000000000000000 ) ;
#9 = ORIENTED_EDGE ( 'NONE', *, *, #720, .F. ) ;
#10 = VECTOR ( 'NONE', #401, 100.0000000000000000 ) ;
#11 = DIRECTION ( 'NONE',  ( -0.000000000000000000, 0.000000000000000000, 1.000000000000000000 ) ) ;
#12 = ORIENTED_EDGE ( 'NONE', *, *, #228, .F. ) ;
#13 = CARTESIAN_POINT ( 'NONE',  ( -1.820000000000000506, -0.4100000000000003086, 0.1349999999999999534 ) ) ;
#14 = AXIS2_PLACEMENT_3D ( 'NONE', #371, #298, #552 ) ;
#15 = ORIENTED_EDGE ( 'NONE', *, *, #466, .F. ) ;
#16 = FACE_OUTER_BOUND ( 'NONE', #90, .T. ) ;
#17 = DIRECTION ( 'NONE',  ( 0.8660254037844362651, -0.5000000000000039968, 0.000000000000000000 ) ) ;
#18 = ORIENTED_EDGE ( 'NONE', *, *, #317, .F. ) ;
#19 = EDGE_CURVE ( 'NONE', #206, #331, #784, .T. ) ;
#20 = DIRECTION ( 'NONE',  ( 0.000000000000000000, -1.000000000000000000, 0.000000000000000000 ) ) ;
#21 = DIRECTION ( 'NONE',  ( -0.5000000000000041078, -0.8660254037844363761, 0.000000000000000000 ) ) ;
#22 = EDGE_CURVE ( 'NONE', #667, #214, #347, .T. ) ;
#23 = CARTESIAN_POINT ( 'NONE',  ( 0.4100000000000000311, 2.000000000000000444, 0.6350000000000000089 ) ) ;
#24 = ORIENTED_EDGE ( 'NONE', *, *, #406, .T. ) ;
#25 = DIRECTION ( 'NONE',  ( 0.000000000000000000, -1.000000000000000000, 0.000000000000000000 ) ) ;
#26 = DIRECTION ( 'NONE',  ( 0.000000000000000000, 0.000000000000000000, 1.000000000000000000 ) ) ;
#27 = ORIENTED_EDGE ( 'NONE', *, *, #795, .T. ) ;
#28 = LINE ( 'NONE', #281, #96 ) ;
#29 = CARTESIAN_POINT ( 'NONE',  ( -2.000000000000000444, -0.4100000000000003642, 0.1349999999999999534 ) ) ;
#30 = ORIENTED_EDGE ( 'NONE', *, *, #217, .T. ) ;
#31 = VECTOR ( 'NONE', #787, 100.0000000000000000 ) ;
#32 = ORIENTED_EDGE ( 'NONE', *, *, #763, .T. ) ;
#33 = EDGE_CURVE ( 'NONE', #746, #699, #339, .T. ) ;
#34 = DIRECTION ( 'NONE',  ( 0.000000000000000000, -1.000000000000000000, 0.000000000000000000 ) ) ;
#35 = CARTESIAN_POINT ( 'NONE',  ( 0.000000000000000000, 0.000000000000000000, 0.6350000000000000089 ) ) ;
#36 = ORIENTED_EDGE ( 'NONE', *, *, #216, .T. ) ;
#37 = VECTOR ( 'NONE', #7, 100.0000000000000000 ) ;
#38 = ORIENTED_EDGE ( 'NONE', *, *, #275, .T. ) ;
#39 = ADVANCED_FACE ( 'NONE', ( #596 ), #284, .F. ) ;
#40 = DIRECTION ( 'NONE',  ( 1.000000000000000000, 0.000000000000000000, 0.000000000000000000 ) ) ;
#41 = CARTESIAN_POINT ( 'NONE',  ( 0.7679571668975722076, 1.199999999999999956, 0.6350000000000000089 ) ) ;
#42 = LINE ( 'NONE', #357, #118 ) ;
#43 = ORIENTED_EDGE ( 'NONE', *, *, #490, .F. ) ;
#44 = PLANE ( 'NONE',  #662 ) ;
#45 = LINE ( 'NONE', #782, #252 ) ;
#46 = FACE_OUTER_BOUND ( 'NONE', #74, .T. ) ;
#47 = ORIENTED_EDGE ( 'NONE', *, *, #359, .T. ) ;
#48 = FACE_OUTER_BOUND ( 'NONE', #289, .T. ) ;
#49 = DIRECTION ( 'NONE',  ( -0.5000000000000042188, 0.8660254037844362651, -0.000000000000000000 ) ) ;
#50 = ADVANCED_FACE ( 'NONE', ( #418 ), #157, .F. ) ;
#51 = LINE ( 'NONE', #740, #786 ) ;
#52 = CARTESIAN_POINT ( 'NONE',  ( -2.000000000000000000, -1.500000000000000888, 0.3175000000000000044 ) ) ;
#53 = VECTOR ( 'NONE', #501, 100.0000000000000000 ) ;
#54 = DIRECTION ( 'NONE',  ( 0.000000000000000000, 1.000000000000000000, 0.000000000000000000 ) ) ;
#55 = CARTESIAN_POINT ( 'NONE',  ( -2.000000000000000000, -1.500000000000000888, 0.000000000000000000 ) ) ;
#56 = EDGE_CURVE ( 'NONE', #210, #91, #105, .T. ) ;
#57 = DIRECTION ( 'NONE',  ( -0.8660254037844362651, 0.5000000000000043299, 0.000000000000000000 ) ) ;
#58 = LINE ( 'NONE', #455, #583 ) ;
#59 = ORIENTED_EDGE ( 'NONE', *, *, #243, .F. ) ;
#60 = DIRECTION ( 'NONE',  ( -2.258880508902365962E-16, 1.000000000000000000, -0.000000000000000000 ) ) ;
#61 = ORIENTED_EDGE ( 'NONE', *, *, #394, .F. ) ;
#62 = VECTOR ( 'NONE', #304, 100.0000000000000000 ) ;
#63 = DIRECTION ( 'NONE',  ( 1.000000000000000000, 0.000000000000000000, 0.000000000000000000 ) ) ;
#64 = DIRECTION ( 'NONE',  ( 0.000000000000000000, 0.000000000000000000, 1.000000000000000000 ) ) ;
#65 = EDGE_LOOP ( 'NONE', ( #61, #255, #237, #459 ) ) ;
#66 = PLANE ( 'NONE',  #262 ) ;
#67 = EDGE_CURVE ( 'NONE', #690, #331, #492, .T. ) ;
#68 = ORIENTED_EDGE ( 'NONE', *, *, #559, .F. ) ;
#69 = EDGE_CURVE ( 'NONE', #354, #251, #245, .T. ) ;
#70 = PRESENTATION_LAYER_ASSIGNMENT (  '', '', ( #440 ) ) ;
#71 = DIRECTION ( 'NONE',  ( 1.000000000000000000, 4.818676322157799347E-16, 0.000000000000000000 ) ) ;
#72 =( LENGTH_UNIT ( ) NAMED_UNIT ( * ) SI_UNIT ( .CENTI., .METRE. ) );
#73 = VECTOR ( 'NONE', #441, 100.0000000000000000 ) ;
#74 = EDGE_LOOP ( 'NONE', ( #148, #36, #196, #773, #780, #520 ) ) ;
#75 = VECTOR ( 'NONE', #521, 100.0000000000000000 ) ;
#76 = LINE ( 'NONE', #523, #640 ) ;
#77 = SURFACE_STYLE_USAGE ( .BOTH. , #82 ) ;
#78 = AXIS2_PLACEMENT_3D ( 'NONE', #826, #391, #704 ) ;
#79 = ORIENTED_EDGE ( 'NONE', *, *, #349, .F. ) ;
#80 = EDGE_CURVE ( 'NONE', #320, #525, #497, .T. ) ;
#81 = LINE ( 'NONE', #410, #817 ) ;
#82 = SURFACE_SIDE_STYLE ('',( #453 ) ) ;
#83 = ORIENTED_EDGE ( 'NONE', *, *, #696, .T. ) ;
#84 = ORIENTED_EDGE ( 'NONE', *, *, #572, .T. ) ;
#85 = CARTESIAN_POINT ( 'NONE',  ( -1.820000000000000506, -0.4100000000000003086, 0.6350000000000000089 ) ) ;
#86 = DIRECTION ( 'NONE',  ( -0.000000000000000000, 0.000000000000000000, 1.000000000000000000 ) ) ;
#87 = EDGE_LOOP ( 'NONE', ( #261, #18 ) ) ;
#88 = DIRECTION ( 'NONE',  ( -0.000000000000000000, 0.000000000000000000, 1.000000000000000000 ) ) ;
#89 = CYLINDRICAL_SURFACE ( 'NONE', #801, 0.3000000000000000444 ) ;
#90 = EDGE_LOOP ( 'NONE', ( #657, #777, #274, #420, #32, #382, #656, #486, #729, #133 ) ) ;
#91 = VERTEX_POINT ( 'NONE', #427 ) ;
#92 = DIRECTION ( 'NONE',  ( 5.782411586589356160E-17, -1.000000000000000000, 0.000000000000000000 ) ) ;
#93 = DIRECTION ( 'NONE',  ( 1.000000000000000000, 0.000000000000000000, 0.000000000000000000 ) ) ;
#94 = EDGE_CURVE ( 'NONE', #613, #210, #677, .T. ) ;
#95 = ORIENTED_EDGE ( 'NONE', *, *, #22, .F. ) ;
#96 = VECTOR ( 'NONE', #300, 100.0000000000000000 ) ;
#97 = ORIENTED_EDGE ( 'NONE', *, *, #419, .T. ) ;
#98 = CARTESIAN_POINT ( 'NONE',  ( -1.820000000000000506, -0.4100000000000003086, 0.1349999999999999534 ) ) ;
#99 = PLANE ( 'NONE',  #664 ) ;
#100 = AXIS2_PLACEMENT_3D ( 'NONE', #736, #541, #219 ) ;
#101 = VERTEX_POINT ( 'NONE', #548 ) ;
#102 = VECTOR ( 'NONE', #93, 100.0000000000000000 ) ;
#103 = CARTESIAN_POINT ( 'NONE',  ( 0.000000000000000000, -1.000000000000000000, 0.000000000000000000 ) ) ;
#104 = CARTESIAN_POINT ( 'NONE',  ( 0.000000000000000000, 0.000000000000000000, 0.000000000000000000 ) ) ;
#105 = LINE ( 'NONE', #377, #8 ) ;
#106 = VERTEX_POINT ( 'NONE', #816 ) ;
#107 = EDGE_CURVE ( 'NONE', #703, #206, #293, .T. ) ;
#108 = VECTOR ( 'NONE', #436, 100.0000000000000000 ) ;
#109 = CARTESIAN_POINT ( 'NONE',  ( -2.000000000000000000, -1.500000000000000888, 0.6350000000000000089 ) ) ;
#110 = EDGE_CURVE ( 'NONE', #327, #739, #671, .T. ) ;
#111 = CARTESIAN_POINT ( 'NONE',  ( 1.156482317317871478E-16, 0.000000000000000000, 0.000000000000000000 ) ) ;
#112 = ORIENTED_EDGE ( 'NONE', *, *, #759, .F. ) ;
#113 = DIRECTION ( 'NONE',  ( 4.818676322157798361E-16, -1.000000000000000000, 0.000000000000000000 ) ) ;
#114 = ORIENTED_EDGE ( 'NONE', *, *, #524, .T. ) ;
#115 = VECTOR ( 'NONE', #176, 100.0000000000000142 ) ;
#116 = LINE ( 'NONE', #619, #443 ) ;
#117 = ADVANCED_FACE ( 'NONE', ( #236 ), #741, .T. ) ;
#118 = VECTOR ( 'NONE', #605, 100.0000000000000000 ) ;
#119 = DIRECTION ( 'NONE',  ( 0.000000000000000000, 0.000000000000000000, 1.000000000000000000 ) ) ;
#120 = FACE_OUTER_BOUND ( 'NONE', #762, .T. ) ;
#121 = EDGE_CURVE ( 'NONE', #525, #438, #378, .T. ) ;
#122 = CARTESIAN_POINT ( 'NONE',  ( 0.000000000000000000, 0.000000000000000000, 0.6350000000000000089 ) ) ;
#123 = VERTEX_POINT ( 'NONE', #689 ) ;
#124 = LINE ( 'NONE', #571, #790 ) ;
#125 = DIRECTION ( 'NONE',  ( -2.258880508902365962E-16, 1.000000000000000000, 0.000000000000000000 ) ) ;
#126 = ADVANCED_FACE ( 'NONE', ( #172, #367 ), #99, .T. ) ;
#127 = EDGE_CURVE ( 'NONE', #241, #373, #42, .T. ) ;
#128 = LINE ( 'NONE', #249, #518 ) ;
#129 = VERTEX_POINT ( 'NONE', #302 ) ;
#130 = CIRCLE ( 'NONE', #574, 0.3000000000000000444 ) ;
#131 = CARTESIAN_POINT ( 'NONE',  ( 0.000000000000000000, 0.000000000000000000, 0.3175000000000000044 ) ) ;
#132 = FILL_AREA_STYLE_COLOUR ( '', #202 ) ;
#133 = ORIENTED_EDGE ( 'NONE', *, *, #514, .T. ) ;
#134 = AXIS2_PLACEMENT_3D ( 'NONE', #13, #21, #17 ) ;
#135 = CARTESIAN_POINT ( 'NONE',  ( -1.500000000000000222, 2.000000000000000444, 0.000000000000000000 ) ) ;
#136 = ORIENTED_EDGE ( 'NONE', *, *, #466, .T. ) ;
#137 = ADVANCED_FACE ( 'NONE', ( #437 ), #686, .F. ) ;
#138 = CARTESIAN_POINT ( 'NONE',  ( 1.000000000000000000, 2.000000000000000444, 0.6350000000000000089 ) ) ;
#139 = DIRECTION ( 'NONE',  ( 0.000000000000000000, 0.000000000000000000, -1.000000000000000000 ) ) ;
#140 = CARTESIAN_POINT ( 'NONE',  ( -1.200000000000000178, 0.7679571668975719856, 0.6350000000000000089 ) ) ;
#141 = EDGE_CURVE ( 'NONE', #303, #470, #227, .T. ) ;
#142 = VECTOR ( 'NONE', #86, 100.0000000000000000 ) ;
#143 = CARTESIAN_POINT ( 'NONE',  ( -1.364999999999998215, 1.364999999999999991, 0.3175000000000000044 ) ) ;
#144 = CARTESIAN_POINT ( 'NONE',  ( 0.7679571668975722076, 1.199999999999999956, 0.6350000000000000089 ) ) ;
#145 = ORIENTED_EDGE ( 'NONE', *, *, #254, .T. ) ;
#146 = FACE_OUTER_BOUND ( 'NONE', #397, .T. ) ;
#147 = CARTESIAN_POINT ( 'NONE',  ( -0.4099999999999999201, 1.820000000000000506, 0.1349999999999999534 ) ) ;
#148 = ORIENTED_EDGE ( 'NONE', *, *, #164, .T. ) ;
#149 = CLOSED_SHELL ( 'NONE', ( #734, #126, #634, #372, #340, #673, #39, #607, #769, #774, #263, #170, #476, #175, #538, #587, #50, #821, #318, #644, #609, #137, #511, #117, #621 ) ) ;
#150 = ORIENTED_EDGE ( 'NONE', *, *, #435, .F. ) ;
#151 = VECTOR ( 'NONE', #589, 100.0000000000000000 ) ;
#152 = DIRECTION ( 'NONE',  ( 1.000000000000000000, 1.249637081581196951E-16, 0.000000000000000000 ) ) ;
#153 = DIRECTION ( 'NONE',  ( 4.818676322157798361E-16, 1.000000000000000000, 0.000000000000000000 ) ) ;
#154 = CIRCLE ( 'NONE', #730, 2.500000000000000000 ) ;
#155 = ORIENTED_EDGE ( 'NONE', *, *, #275, .F. ) ;
#156 = DIRECTION ( 'NONE',  ( 0.000000000000000000, -1.000000000000000000, 0.000000000000000000 ) ) ;
#157 = PLANE ( 'NONE',  #502 ) ;
#158 = EDGE_LOOP ( 'NONE', ( #603, #695, #708, #537 ) ) ;
#159 = CARTESIAN_POINT ( 'NONE',  ( -2.000000000000000888, 1.499999999999999112, 0.000000000000000000 ) ) ;
#160 = CARTESIAN_POINT ( 'NONE',  ( -1.999999999999999112, -1.000000000000000000, 0.6350000000000000089 ) ) ;
#161 = APPLICATION_CONTEXT ( 'automotive_design' ) ;
#162 = EDGE_CURVE ( 'NONE', #438, #566, #116, .T. ) ;
#163 = ORIENTED_EDGE ( 'NONE', *, *, #795, .F. ) ;
#164 = EDGE_CURVE ( 'NONE', #690, #723, #307, .T. ) ;
#165 = VECTOR ( 'NONE', #716, 100.0000000000000000 ) ;
#166 = DIRECTION ( 'NONE',  ( -0.5000000000000042188, -0.8660254037844361541, 0.000000000000000000 ) ) ;
#167 = DIRECTION ( 'NONE',  ( 5.782411586589356160E-17, -1.000000000000000000, 0.000000000000000000 ) ) ;
#168 = VERTEX_POINT ( 'NONE', #612 ) ;
#169 = DIRECTION ( 'NONE',  ( 1.000000000000000000, 5.782411586589356160E-17, 0.000000000000000000 ) ) ;
#170 = ADVANCED_FACE ( 'NONE', ( #46 ), #807, .T. ) ;
#171 =( NAMED_UNIT ( * ) PLANE_ANGLE_UNIT ( ) SI_UNIT ( $, .RADIAN. ) );
#172 = FACE_BOUND ( 'NONE', #87, .T. ) ;
#173 = VECTOR ( 'NONE', #725, 100.0000000000000000 ) ;
#174 = PRODUCT_CONTEXT ( 'NONE', #161, 'mechanical' ) ;
#175 = ADVANCED_FACE ( 'NONE', ( #120 ), #66, .F. ) ;
#176 = DIRECTION ( 'NONE',  ( -0.5000000000000042188, -0.8660254037844362651, 0.000000000000000000 ) ) ;
#177 = ORIENTED_EDGE ( 'NONE', *, *, #94, .F. ) ;
#178 = LINE ( 'NONE', #439, #335 ) ;
#179 = CARTESIAN_POINT ( 'NONE',  ( -2.000000000000001776, 1.364999999999999991, 0.6350000000000000089 ) ) ;
#180 = ORIENTED_EDGE ( 'NONE', *, *, #749, .T. ) ;
#181 = CIRCLE ( 'NONE', #78, 0.3000000000000000444 ) ;
#182 = AXIS2_PLACEMENT_3D ( 'NONE', #312, #379, #248 ) ;
#183 = CARTESIAN_POINT ( 'NONE',  ( -2.000000000000000888, 1.499999999999999112, 0.3175000000000000044 ) ) ;
#184 = ORIENTED_EDGE ( 'NONE', *, *, #121, .F. ) ;
#185 = DIRECTION ( 'NONE',  ( 0.000000000000000000, 1.000000000000000000, 0.000000000000000000 ) ) ;
#186 = DIRECTION ( 'NONE',  ( 0.8660254037844362651, 0.5000000000000043299, 0.000000000000000000 ) ) ;
#187 = ORIENTED_EDGE ( 'NONE', *, *, #737, .F. ) ;
#188 = EDGE_CURVE ( 'NONE', #278, #123, #693, .T. ) ;
#189 = UNCERTAINTY_MEASURE_WITH_UNIT (LENGTH_MEASURE( 1.000000000000000082E-05 ), #72, 'distance_accuracy_value', 'NONE');
#190 = LINE ( 'NONE', #330, #197 ) ;
#191 = DIRECTION ( 'NONE',  ( -0.5000000000000042188, 0.8660254037844361541, 0.000000000000000000 ) ) ;
#192 = ORIENTED_EDGE ( 'NONE', *, *, #69, .F. ) ;
#193 = VECTOR ( 'NONE', #814, 100.0000000000000000 ) ;
#194 = CARTESIAN_POINT ( 'NONE',  ( -0.7679571668975722076, 1.199999999999999956, 0.1349999999999999534 ) ) ;
#195 = CARTESIAN_POINT ( 'NONE',  ( -1.364999999999999991, 16.63499999999999801, 0.3175000000000000044 ) ) ;
#196 = ORIENTED_EDGE ( 'NONE', *, *, #94, .T. ) ;
#197 = VECTOR ( 'NONE', #822, 100.0000000000000000 ) ;
#198 = DIRECTION ( 'NONE',  ( -0.000000000000000000, 0.000000000000000000, 1.000000000000000000 ) ) ;
#199 = CARTESIAN_POINT ( 'NONE',  ( 0.000000000000000000, -1.000000000000000000, 0.6350000000000000089 ) ) ;
#200 = EDGE_CURVE ( 'NONE', #220, #533, #128, .T. ) ;
#201 = EDGE_LOOP ( 'NONE', ( #578, #775, #311, #479, #250, #653 ) ) ;
#202 = COLOUR_RGB ( '',0.7921568627450980005, 0.8196078431372548767, 0.9333333333333333481 ) ;
#203 = DIRECTION ( 'NONE',  ( -1.000000000000000000, 0.000000000000000000, -0.000000000000000000 ) ) ;
#204 = DIRECTION ( 'NONE',  ( -0.000000000000000000, 0.000000000000000000, 1.000000000000000000 ) ) ;
#205 = VECTOR ( 'NONE', #405, 100.0000000000000000 ) ;
#206 = VERTEX_POINT ( 'NONE', #257 ) ;
#207 = APPLICATION_CONTEXT ( 'automotive_design' ) ;
#208 = LINE ( 'NONE', #85, #242 ) ;
#209 = CARTESIAN_POINT ( 'NONE',  ( 0.000000000000000000, 0.000000000000000000, 0.000000000000000000 ) ) ;
#210 = VERTEX_POINT ( 'NONE', #194 ) ;
#211 = VECTOR ( 'NONE', #119, 100.0000000000000000 ) ;
#212 = CARTESIAN_POINT ( 'NONE',  ( -1.999999999999999112, -1.000000000000000000, 0.6350000000000000089 ) ) ;
#213 = DIRECTION ( 'NONE',  ( 0.000000000000000000, -1.000000000000000000, 0.000000000000000000 ) ) ;
#214 = VERTEX_POINT ( 'NONE', #3 ) ;
#215 = ORIENTED_EDGE ( 'NONE', *, *, #110, .T. ) ;
#216 = EDGE_CURVE ( 'NONE', #723, #613, #58, .T. ) ;
#217 = EDGE_CURVE ( 'NONE', #323, #628, #181, .T. ) ;
#218 = CARTESIAN_POINT ( 'NONE',  ( 1.000000000000000000, 2.000000000000000444, 0.000000000000000000 ) ) ;
#219 = DIRECTION ( 'NONE',  ( 0.000000000000000000, 1.000000000000000000, 0.000000000000000000 ) ) ;
#220 = VERTEX_POINT ( 'NONE', #627 ) ;
#221 = VECTOR ( 'NONE', #624, 100.0000000000000000 ) ;
#222 = ORIENTED_EDGE ( 'NONE', *, *, #559, .T. ) ;
#223 = CARTESIAN_POINT ( 'NONE',  ( 0.4100000000000001421, 2.000000000000000444, 0.1349999999999999534 ) ) ;
#224 = ORIENTED_EDGE ( 'NONE', *, *, #444, .F. ) ;
#225 = ORIENTED_EDGE ( 'NONE', *, *, #107, .F. ) ;
#226 = CARTESIAN_POINT ( 'NONE',  ( -0.4100000000000000311, 2.000000000000000444, 0.6350000000000000089 ) ) ;
#227 = LINE ( 'NONE', #423, #480 ) ;
#228 = EDGE_CURVE ( 'NONE', #567, #220, #576, .T. ) ;
#229 = VERTEX_POINT ( 'NONE', #322 ) ;
#230 = CARTESIAN_POINT ( 'NONE',  ( -1.364999999999998215, 1.364999999999999991, 0.3175000000000000044 ) ) ;
#231 = FACE_OUTER_BOUND ( 'NONE', #201, .T. ) ;
#232 = DIRECTION ( 'NONE',  ( -0.000000000000000000, 0.000000000000000000, 1.000000000000000000 ) ) ;
#233 = ORIENTED_EDGE ( 'NONE', *, *, #383, .F. ) ;
#234 = LINE ( 'NONE', #614, #798 ) ;
#235 = PLANE ( 'NONE',  #182 ) ;
#236 = FACE_OUTER_BOUND ( 'NONE', #65, .T. ) ;
#237 = ORIENTED_EDGE ( 'NONE', *, *, #490, .T. ) ;
#238 = DIRECTION ( 'NONE',  ( 0.000000000000000000, 0.000000000000000000, 1.000000000000000000 ) ) ;
#239 = PLANE ( 'NONE',  #650 ) ;
#240 = CARTESIAN_POINT ( 'NONE',  ( 0.4099999999999999201, 1.820000000000000506, 0.6350000000000000089 ) ) ;
#241 = VERTEX_POINT ( 'NONE', #509 ) ;
#242 = VECTOR ( 'NONE', #714, 100.0000000000000142 ) ;
#243 = EDGE_CURVE ( 'NONE', #210, #746, #635, .T. ) ;
#244 = APPLICATION_PROTOCOL_DEFINITION ( 'draft international standard', 'automotive_design', 1998, #207 ) ;
#245 = LINE ( 'NONE', #52, #73 ) ;
#246 = PRODUCT_DEFINITION_SHAPE ( 'NONE', 'NONE',  #633 ) ;
#247 = AXIS2_PLACEMENT_3D ( 'NONE', #266, #186, #191 ) ;
#248 = DIRECTION ( 'NONE',  ( 1.000000000000000000, 0.000000000000000000, 0.000000000000000000 ) ) ;
#249 = CARTESIAN_POINT ( 'NONE',  ( -2.000000000000000444, 0.4099999999999996980, 0.6350000000000000089 ) ) ;
#250 = ORIENTED_EDGE ( 'NONE', *, *, #279, .T. ) ;
#251 = VERTEX_POINT ( 'NONE', #183 ) ;
#252 = VECTOR ( 'NONE', #595, 100.0000000000000000 ) ;
#253 = DIRECTION ( 'NONE',  ( -0.5000000000000045519, 0.8660254037844360431, 0.000000000000000000 ) ) ;
#254 = EDGE_CURVE ( 'NONE', #251, #470, #154, .T. ) ;
#255 = ORIENTED_EDGE ( 'NONE', *, *, #162, .T. ) ;
#256 = EDGE_CURVE ( 'NONE', #123, #229, #565, .T. ) ;
#257 = CARTESIAN_POINT ( 'NONE',  ( 0.4099999999999999201, 1.820000000000000506, 0.6350000000000000089 ) ) ;
#258 = EDGE_LOOP ( 'NONE', ( #9, #358, #668, #513 ) ) ;
#259 = DIRECTION ( 'NONE',  ( -1.000000000000000000, -4.818676322157798361E-16, 0.000000000000000000 ) ) ;
#260 = PLANE ( 'NONE',  #247 ) ;
#261 = ORIENTED_EDGE ( 'NONE', *, *, #660, .F. ) ;
#262 = AXIS2_PLACEMENT_3D ( 'NONE', #764, #253, #694 ) ;
#263 = ADVANCED_FACE ( 'NONE', ( #319 ), #449, .F. ) ;
#264 = CARTESIAN_POINT ( 'NONE',  ( 0.000000000000000000, -0.3000000000000000444, 0.000000000000000000 ) ) ;
#265 = ORIENTED_EDGE ( 'NONE', *, *, #434, .T. ) ;
#266 = CARTESIAN_POINT ( 'NONE',  ( 0.4099999999999999201, 1.820000000000000506, 0.1349999999999999534 ) ) ;
#267 = ORIENTED_EDGE ( 'NONE', *, *, #696, .F. ) ;
#268 = EDGE_CURVE ( 'NONE', #129, #533, #393, .T. ) ;
#269 = CARTESIAN_POINT ( 'NONE',  ( -2.000000000000000000, -1.500000000000000888, 0.000000000000000000 ) ) ;
#270 = CARTESIAN_POINT ( 'NONE',  ( 1.156482317317871478E-16, 0.000000000000000000, 0.6350000000000000089 ) ) ;
#271 = ORIENTED_EDGE ( 'NONE', *, *, #200, .F. ) ;
#272 = DIRECTION ( 'NONE',  ( 4.818676322157799347E-16, -1.000000000000000000, 0.000000000000000000 ) ) ;
#273 = CARTESIAN_POINT ( 'NONE',  ( 1.000000000000000222, 0.000000000000000000, 0.6350000000000000089 ) ) ;
#274 = ORIENTED_EDGE ( 'NONE', *, *, #141, .T. ) ;
#275 = EDGE_CURVE ( 'NONE', #373, #456, #697, .T. ) ;
#276 = DIRECTION ( 'NONE',  ( 1.000000000000000000, 0.000000000000000000, 0.000000000000000000 ) ) ;
#277 = CARTESIAN_POINT ( 'NONE',  ( -16.63499999999999801, 1.364999999999996438, 0.3175000000000000044 ) ) ;
#278 = VERTEX_POINT ( 'NONE', #179 ) ;
#279 = EDGE_CURVE ( 'NONE', #823, #168, #124, .T. ) ;
#280 = ORIENTED_EDGE ( 'NONE', *, *, #383, .T. ) ;
#281 = CARTESIAN_POINT ( 'NONE',  ( 1.000000000000000000, 2.000000000000000444, 0.6350000000000000089 ) ) ;
#282 = FACE_OUTER_BOUND ( 'NONE', #586, .T. ) ;
#283 = VECTOR ( 'NONE', #203, 100.0000000000000000 ) ;
#284 = PLANE ( 'NONE',  #329 ) ;
#285 = ORIENTED_EDGE ( 'NONE', *, *, #256, .F. ) ;
#286 = CARTESIAN_POINT ( 'NONE',  ( -1.500000000000000222, 2.000000000000000444, 0.3175000000000000044 ) ) ;
#287 = LINE ( 'NONE', #659, #142 ) ;
#288 = ORIENTED_EDGE ( 'NONE', *, *, #268, .T. ) ;
#289 = EDGE_LOOP ( 'NONE', ( #24, #824, #433, #150 ) ) ;
#290 = EDGE_CURVE ( 'NONE', #413, #687, #190, .T. ) ;
#291 = VECTOR ( 'NONE', #204, 100.0000000000000000 ) ;
#292 = CARTESIAN_POINT ( 'NONE',  ( -0.4100000000000000311, 2.000000000000000444, 0.1349999999999999534 ) ) ;
#293 = LINE ( 'NONE', #240, #579 ) ;
#294 = VECTOR ( 'NONE', #637, 100.0000000000000000 ) ;
#295 = ORIENTED_EDGE ( 'NONE', *, *, #188, .T. ) ;
#296 = CARTESIAN_POINT ( 'NONE',  ( -2.000000000000000444, 0.4099999999999996980, 0.1349999999999999534 ) ) ;
#297 = LINE ( 'NONE', #98, #547 ) ;
#298 = DIRECTION ( 'NONE',  ( 0.000000000000000000, 0.000000000000000000, -1.000000000000000000 ) ) ;
#299 = ORIENTED_EDGE ( 'NONE', *, *, #268, .F. ) ;
#300 = DIRECTION ( 'NONE',  ( 0.000000000000000000, 0.000000000000000000, -1.000000000000000000 ) ) ;
#301 = CARTESIAN_POINT ( 'NONE',  ( -0.4099999999999999201, 1.820000000000000506, 0.1349999999999999534 ) ) ;
#302 = CARTESIAN_POINT ( 'NONE',  ( -2.000000000000000444, 0.4099999999999997535, 0.1349999999999999534 ) ) ;
#303 = VERTEX_POINT ( 'NONE', #446 ) ;
#304 = DIRECTION ( 'NONE',  ( -0.000000000000000000, 0.000000000000000000, 1.000000000000000000 ) ) ;
#305 = DIRECTION ( 'NONE',  ( 1.000000000000000000, 0.000000000000000000, 0.000000000000000000 ) ) ;
#306 = AXIS2_PLACEMENT_3D ( 'NONE', #647, #706, #125 ) ;
#307 = LINE ( 'NONE', #819, #800 ) ;
#308 = AXIS2_PLACEMENT_3D ( 'NONE', #770, #758, #325 ) ;
#309 = EDGE_LOOP ( 'NONE', ( #97, #742, #510, #482 ) ) ;
#310 = CARTESIAN_POINT ( 'NONE',  ( 0.000000000000000000, 0.000000000000000000, 0.6350000000000000089 ) ) ;
#311 = ORIENTED_EDGE ( 'NONE', *, *, #444, .T. ) ;
#312 = CARTESIAN_POINT ( 'NONE',  ( 0.7679571668975722076, 1.199999999999999956, 0.1349999999999999534 ) ) ;
#313 = DIRECTION ( 'NONE',  ( 4.818676322157798361E-16, -1.000000000000000000, 0.000000000000000000 ) ) ;
#314 = ORIENTED_EDGE ( 'NONE', *, *, #110, .F. ) ;
#315 = ORIENTED_EDGE ( 'NONE', *, *, #107, .T. ) ;
#316 = AXIS2_PLACEMENT_3D ( 'NONE', #160, #751, #733 ) ;
#317 = EDGE_CURVE ( 'NONE', #506, #573, #130, .T. ) ;
#318 = ADVANCED_FACE ( 'NONE', ( #631 ), #568, .F. ) ;
#319 = FACE_OUTER_BOUND ( 'NONE', #309, .T. ) ;
#320 = VERTEX_POINT ( 'NONE', #218 ) ;
#321 = VECTOR ( 'NONE', #426, 100.0000000000000000 ) ;
#322 = CARTESIAN_POINT ( 'NONE',  ( -1.364999999999998215, 2.000000000000001776, 0.6350000000000000089 ) ) ;
#323 = VERTEX_POINT ( 'NONE', #264 ) ;
#324 = VECTOR ( 'NONE', #721, 100.0000000000000000 ) ;
#325 = DIRECTION ( 'NONE',  ( 0.000000000000000000, -1.000000000000000000, 0.000000000000000000 ) ) ;
#326 = LINE ( 'NONE', #779, #37 ) ;
#327 = VERTEX_POINT ( 'NONE', #665 ) ;
#328 = EDGE_CURVE ( 'NONE', #241, #327, #416, .T. ) ;
#329 = AXIS2_PLACEMENT_3D ( 'NONE', #793, #727, #153 ) ;
#330 = CARTESIAN_POINT ( 'NONE',  ( -1.364999999999999991, 16.63499999999999801, 0.3175000000000000044 ) ) ;
#331 = VERTEX_POINT ( 'NONE', #526 ) ;
#332 = EDGE_CURVE ( 'NONE', #699, #690, #781, .T. ) ;
#333 = CIRCLE ( 'NONE', #529, 2.500000000000000000 ) ;
#334 = LINE ( 'NONE', #341, #392 ) ;
#335 = VECTOR ( 'NONE', #375, 100.0000000000000000 ) ;
#336 =( NAMED_UNIT ( * ) PLANE_ANGLE_UNIT ( ) SI_UNIT ( $, .RADIAN. ) );
#337 = ORIENTED_EDGE ( 'NONE', *, *, #575, .F. ) ;
#338 = LINE ( 'NONE', #651, #498 ) ;
#339 = LINE ( 'NONE', #590, #428 ) ;
#340 = ADVANCED_FACE ( 'NONE', ( #16 ), #646, .F. ) ;
#341 = CARTESIAN_POINT ( 'NONE',  ( 1.000000000000000222, -1.000000000000000000, 0.6350000000000000089 ) ) ;
#342 = DIRECTION ( 'NONE',  ( -0.000000000000000000, 0.000000000000000000, 1.000000000000000000 ) ) ;
#343 = EDGE_CURVE ( 'NONE', #129, #106, #717, .T. ) ;
#344 = ORIENTED_EDGE ( 'NONE', *, *, #67, .F. ) ;
#345 = DIRECTION ( 'NONE',  ( 1.000000000000000000, 2.312964634635742957E-16, 0.000000000000000000 ) ) ;
#346 = CARTESIAN_POINT ( 'NONE',  ( -2.000000000000000888, 1.499999999999999334, 0.000000000000000000 ) ) ;
#347 = LINE ( 'NONE', #140, #205 ) ;
#348 = ORIENTED_EDGE ( 'NONE', *, *, #19, .F. ) ;
#349 = EDGE_CURVE ( 'NONE', #456, #667, #208, .T. ) ;
#350 = CARTESIAN_POINT ( 'NONE',  ( -2.000000000000001776, 1.364999999999999991, 0.3175000000000000044 ) ) ;
#351 = DIRECTION ( 'NONE',  ( 0.8660254037844362651, -0.5000000000000039968, 0.000000000000000000 ) ) ;
#352 = VECTOR ( 'NONE', #272, 100.0000000000000000 ) ;
#353 = ORIENTED_EDGE ( 'NONE', *, *, #434, .F. ) ;
#354 = VERTEX_POINT ( 'NONE', #350 ) ;
#355 = EDGE_CURVE ( 'NONE', #613, #101, #475, .T. ) ;
#356 = PLANE ( 'NONE',  #564 ) ;
#357 = CARTESIAN_POINT ( 'NONE',  ( -2.000000000000000000, -1.500000000000000888, 0.6350000000000000089 ) ) ;
#358 = ORIENTED_EDGE ( 'NONE', *, *, #217, .F. ) ;
#359 = EDGE_CURVE ( 'NONE', #101, #91, #338, .T. ) ;
#360 = LINE ( 'NONE', #608, #622 ) ;
#361 = DIRECTION ( 'NONE',  ( 0.000000000000000000, 0.000000000000000000, 1.000000000000000000 ) ) ;
#362 = DIRECTION ( 'NONE',  ( -1.000000000000000000, 0.000000000000000000, 0.000000000000000000 ) ) ;
#363 = ORIENTED_EDGE ( 'NONE', *, *, #355, .T. ) ;
#364 = CIRCLE ( 'NONE', #445, 0.3000000000000000444 ) ;
#365 = DIRECTION ( 'NONE',  ( -2.312964634635742957E-16, 1.000000000000000000, 0.000000000000000000 ) ) ;
#366 = LINE ( 'NONE', #615, #760 ) ;
#367 = FACE_OUTER_BOUND ( 'NONE', #625, .T. ) ;
#368 = ORIENTED_EDGE ( 'NONE', *, *, #33, .F. ) ;
#369 = ORIENTED_EDGE ( 'NONE', *, *, #228, .T. ) ;
#370 = CARTESIAN_POINT ( 'NONE',  ( -2.000000000000000444, 0.4099999999999996980, 0.6350000000000000089 ) ) ;
#371 = CARTESIAN_POINT ( 'NONE',  ( 0.000000000000000000, 0.000000000000000000, 0.3175000000000000044 ) ) ;
#372 = ADVANCED_FACE ( 'NONE', ( #146 ), #588, .F. ) ;
#373 = VERTEX_POINT ( 'NONE', #519 ) ;
#374 = LINE ( 'NONE', #555, #812 ) ;
#375 = DIRECTION ( 'NONE',  ( -0.8660254037844360431, -0.5000000000000045519, 0.000000000000000000 ) ) ;
#376 = VECTOR ( 'NONE', #365, 100.0000000000000000 ) ;
#377 = CARTESIAN_POINT ( 'NONE',  ( -0.7679571668975722076, 1.199999999999999956, 0.1349999999999999534 ) ) ;
#378 = CIRCLE ( 'NONE', #544, 1.000000000000000000 ) ;
#379 = DIRECTION ( 'NONE',  ( 0.000000000000000000, -1.000000000000000000, 0.000000000000000000 ) ) ;
#380 = ADVANCED_BREP_SHAPE_REPRESENTATION ( 'vertex-corner_60', ( #584, #468 ), #1 ) ;
#381 = CARTESIAN_POINT ( 'NONE',  ( -16.63499999999999801, 1.364999999999996438, 0.6350000000000000089 ) ) ;
#382 = ORIENTED_EDGE ( 'NONE', *, *, #551, .T. ) ;
#383 = EDGE_CURVE ( 'NONE', #791, #456, #76, .T. ) ;
#384 = LINE ( 'NONE', #491, #611 ) ;
#385 = DIRECTION ( 'NONE',  ( 0.000000000000000000, 0.000000000000000000, 1.000000000000000000 ) ) ;
#386 = ORIENTED_EDGE ( 'NONE', *, *, #572, .F. ) ;
#387 = CARTESIAN_POINT ( 'NONE',  ( -0.4100000000000000311, 2.000000000000000444, 0.1349999999999999534 ) ) ;
#388 = CARTESIAN_POINT ( 'NONE',  ( -2.000000000000000888, 1.364999999999999991, 0.000000000000000000 ) ) ;
#389 = ORIENTED_EDGE ( 'NONE', *, *, #56, .F. ) ;
#390 = PRODUCT_DEFINITION_CONTEXT ( 'detailed design', #207, 'design' ) ;
#391 = DIRECTION ( 'NONE',  ( 0.000000000000000000, 0.000000000000000000, 1.000000000000000000 ) ) ;
#392 = VECTOR ( 'NONE', #92, 100.0000000000000000 ) ;
#393 = LINE ( 'NONE', #580, #415 ) ;
#394 = EDGE_CURVE ( 'NONE', #438, #327, #778, .T. ) ;
#395 = ORIENTED_EDGE ( 'NONE', *, *, #575, .T. ) ;
#396 = FACE_OUTER_BOUND ( 'NONE', #632, .T. ) ;
#397 = EDGE_LOOP ( 'NONE', ( #454, #489, #112, #499, #288, #114, #222, #562, #187, #314 ) ) ;
#398 = AXIS2_PLACEMENT_3D ( 'NONE', #270, #64, #776 ) ;
#399 = AXIS2_PLACEMENT_3D ( 'NONE', #35, #788, #213 ) ;
#400 = CARTESIAN_POINT ( 'NONE',  ( -0.4099999999999999201, 1.820000000000000506, 0.1349999999999999534 ) ) ;
#401 = DIRECTION ( 'NONE',  ( 0.000000000000000000, 0.000000000000000000, -1.000000000000000000 ) ) ;
#402 = ORIENTED_EDGE ( 'NONE', *, *, #200, .T. ) ;
#403 = CARTESIAN_POINT ( 'NONE',  ( -0.4100000000000000311, 2.000000000000000444, 0.6350000000000000089 ) ) ;
#404 = LINE ( 'NONE', #388, #414 ) ;
#405 = DIRECTION ( 'NONE',  ( -2.258880508902365962E-16, 1.000000000000000000, -0.000000000000000000 ) ) ;
#406 = EDGE_CURVE ( 'NONE', #409, #602, #334, .T. ) ;
#407 = EDGE_CURVE ( 'NONE', #746, #703, #530, .T. ) ;
#408 = DIRECTION ( 'NONE',  ( 2.385670792109557660E-16, -1.000000000000000000, 0.000000000000000000 ) ) ;
#409 = VERTEX_POINT ( 'NONE', #138 ) ;
#410 = CARTESIAN_POINT ( 'NONE',  ( -1.199999999999999956, -0.7679571668975725407, 0.1349999999999999534 ) ) ;
#411 = DIRECTION ( 'NONE',  ( 1.000000000000000000, 2.385670792109557660E-16, 0.000000000000000000 ) ) ;
#412 = EDGE_LOOP ( 'NONE', ( #136, #768, #424, #808, #192 ) ) ;
#413 = VERTEX_POINT ( 'NONE', #143 ) ;
#414 = VECTOR ( 'NONE', #139, 100.0000000000000000 ) ;
#415 = VECTOR ( 'NONE', #756, 100.0000000000000000 ) ;
#416 = LINE ( 'NONE', #212, #324 ) ;
#417 = DIRECTION ( 'NONE',  ( 0.000000000000000000, 1.000000000000000000, 0.000000000000000000 ) ) ;
#418 = FACE_OUTER_BOUND ( 'NONE', #549, .T. ) ;
#419 = EDGE_CURVE ( 'NONE', #735, #101, #471, .T. ) ;
#420 = ORIENTED_EDGE ( 'NONE', *, *, #785, .T. ) ;
#421 = FACE_OUTER_BOUND ( 'NONE', #554, .T. ) ;
#422 = DIRECTION ( 'NONE',  ( 0.000000000000000000, -1.000000000000000000, 0.000000000000000000 ) ) ;
#423 = CARTESIAN_POINT ( 'NONE',  ( -1.500000000000000222, 2.000000000000000444, 0.000000000000000000 ) ) ;
#424 = ORIENTED_EDGE ( 'NONE', *, *, #785, .F. ) ;
#425 =( GEOMETRIC_REPRESENTATION_CONTEXT ( 3 ) GLOBAL_UNCERTAINTY_ASSIGNED_CONTEXT ( ( #189 ) ) GLOBAL_UNIT_ASSIGNED_CONTEXT ( ( #72, #336, #643 ) ) REPRESENTATION_CONTEXT ( 'NONE', 'WORKASPACE' ) );
#426 = DIRECTION ( 'NONE',  ( -0.000000000000000000, 0.000000000000000000, 1.000000000000000000 ) ) ;
#427 = CARTESIAN_POINT ( 'NONE',  ( -0.7679571668975722076, 1.199999999999999956, 0.6350000000000000089 ) ) ;
#428 = VECTOR ( 'NONE', #592, 100.0000000000000142 ) ;
#429 = EDGE_LOOP ( 'NONE', ( #648, #344, #542, #629 ) ) ;
#430 = DIRECTION ( 'NONE',  ( 1.000000000000000000, 2.385670792109557660E-16, 0.000000000000000000 ) ) ;
#431 = APPLICATION_PROTOCOL_DEFINITION ( 'draft international standard', 'automotive_design', 1998, #161 ) ;
#432 = DIRECTION ( 'NONE',  ( -2.312964634635742957E-16, 1.000000000000000000, 0.000000000000000000 ) ) ;
#433 = ORIENTED_EDGE ( 'NONE', *, *, #80, .F. ) ;
#434 = EDGE_CURVE ( 'NONE', #823, #667, #81, .T. ) ;
#435 = EDGE_CURVE ( 'NONE', #409, #320, #28, .T. ) ;
#436 = DIRECTION ( 'NONE',  ( -0.000000000000000000, 0.000000000000000000, 1.000000000000000000 ) ) ;
#437 = FACE_OUTER_BOUND ( 'NONE', #412, .T. ) ;
#438 = VERTEX_POINT ( 'NONE', #103 ) ;
#439 = CARTESIAN_POINT ( 'NONE',  ( -1.820000000000000506, 0.4099999999999995870, 0.6350000000000000089 ) ) ;
#440 = STYLED_ITEM ( 'NONE', ( #460 ), #584 ) ;
#441 = DIRECTION ( 'NONE',  ( -2.312964634635742957E-16, 1.000000000000000000, 0.000000000000000000 ) ) ;
#442 = DIRECTION ( 'NONE',  ( -1.000000000000000000, 4.818676322157799347E-16, -0.000000000000000000 ) ) ;
#443 = VECTOR ( 'NONE', #738, 100.0000000000000000 ) ;
#444 = EDGE_CURVE ( 'NONE', #106, #791, #374, .T. ) ;
#445 = AXIS2_PLACEMENT_3D ( 'NONE', #104, #361, #718 ) ;
#446 = CARTESIAN_POINT ( 'NONE',  ( -1.500000000000000222, 2.000000000000000444, 0.000000000000000000 ) ) ;
#447 = EDGE_CURVE ( 'NONE', #723, #735, #487, .T. ) ;
#448 = ORIENTED_EDGE ( 'NONE', *, *, #127, .F. ) ;
#449 = PLANE ( 'NONE',  #772 ) ;
#450 = LINE ( 'NONE', #463, #75 ) ;
#451 = ORIENTED_EDGE ( 'NONE', *, *, #551, .F. ) ;
#452 = DIRECTION ( 'NONE',  ( 0.000000000000000000, -1.000000000000000000, 0.000000000000000000 ) ) ;
#453 = SURFACE_STYLE_FILL_AREA ( #4 ) ;
#454 = ORIENTED_EDGE ( 'NONE', *, *, #328, .F. ) ;
#455 = CARTESIAN_POINT ( 'NONE',  ( -0.4100000000000000311, 2.000000000000000444, 0.1349999999999999534 ) ) ;
#456 = VERTEX_POINT ( 'NONE', #674 ) ;
#457 = AXIS2_PLACEMENT_3D ( 'NONE', #135, #25, #276 ) ;
#458 = CARTESIAN_POINT ( 'NONE',  ( -2.000000000000000444, 0.4099999999999996980, 0.1349999999999999534 ) ) ;
#459 = ORIENTED_EDGE ( 'NONE', *, *, #328, .T. ) ;
#460 = PRESENTATION_STYLE_ASSIGNMENT (( #77 ) ) ;
#461 = EDGE_LOOP ( 'NONE', ( #719, #386, #794, #265 ) ) ;
#462 = DIRECTION ( 'NONE',  ( 4.818676322157799347E-16, 1.000000000000000000, 0.000000000000000000 ) ) ;
#463 = CARTESIAN_POINT ( 'NONE',  ( -1.500000000000000222, 2.000000000000000444, 0.6350000000000000089 ) ) ;
#464 = EDGE_CURVE ( 'NONE', #303, #739, #333, .T. ) ;
#465 = EDGE_LOOP ( 'NONE', ( #799, #543, #797, #597 ) ) ;
#466 = EDGE_CURVE ( 'NONE', #354, #413, #360, .T. ) ;
#467 = CARTESIAN_POINT ( 'NONE',  ( -1.999999999999999112, -1.000000000000000000, 0.000000000000000000 ) ) ;
#468 = AXIS2_PLACEMENT_3D ( 'NONE', #560, #685, #563 ) ;
#469 = CARTESIAN_POINT ( 'NONE',  ( 0.000000000000000000, 0.000000000000000000, 0.6350000000000000089 ) ) ;
#470 = VERTEX_POINT ( 'NONE', #286 ) ;
#471 = LINE ( 'NONE', #403, #352 ) ;
#472 = CARTESIAN_POINT ( 'NONE',  ( -1.199999999999999956, -0.7679571668975725407, 0.6350000000000000089 ) ) ;
#473 = ORIENTED_EDGE ( 'NONE', *, *, #524, .F. ) ;
#474 = EDGE_LOOP ( 'NONE', ( #315, #5, #368, #536 ) ) ;
#475 = LINE ( 'NONE', #400, #173 ) ;
#476 = ADVANCED_FACE ( 'NONE', ( #421 ), #44, .F. ) ;
#477 = LINE ( 'NONE', #144, #102 ) ;
#478 = EDGE_LOOP ( 'NONE', ( #337, #765, #184, #724 ) ) ;
#479 = ORIENTED_EDGE ( 'NONE', *, *, #702, .T. ) ;
#480 = VECTOR ( 'NONE', #485, 100.0000000000000000 ) ;
#481 = FACE_BOUND ( 'NONE', #517, .T. ) ;
#482 = ORIENTED_EDGE ( 'NONE', *, *, #447, .T. ) ;
#483 = ORIENTED_EDGE ( 'NONE', *, *, #707, .F. ) ;
#484 = LINE ( 'NONE', #159, #321 ) ;
#485 = DIRECTION ( 'NONE',  ( -0.000000000000000000, 0.000000000000000000, 1.000000000000000000 ) ) ;
#486 = ORIENTED_EDGE ( 'NONE', *, *, #164, .F. ) ;
#487 = LINE ( 'NONE', #731, #62 ) ;
#488 = CARTESIAN_POINT ( 'NONE',  ( -0.4099999999999999201, 1.820000000000000506, 0.1349999999999999534 ) ) ;
#489 = ORIENTED_EDGE ( 'NONE', *, *, #127, .T. ) ;
#490 = EDGE_CURVE ( 'NONE', #566, #241, #748, .T. ) ;
#491 = CARTESIAN_POINT ( 'NONE',  ( -1.500000000000000222, 2.000000000000000444, 0.3175000000000000044 ) ) ;
#492 = LINE ( 'NONE', #811, #221 ) ;
#493 = PRODUCT ( 'vertex-corner_60', 'vertex-corner_60', '', ( #174 ) ) ;
#494 = ORIENTED_EDGE ( 'NONE', *, *, #759, .T. ) ;
#495 = CARTESIAN_POINT ( 'NONE',  ( 1.000000000000000222, -1.000000000000000000, 0.6350000000000000089 ) ) ;
#496 = CARTESIAN_POINT ( 'NONE',  ( 0.000000000000000000, 0.000000000000000000, 0.1349999999999999534 ) ) ;
#497 = LINE ( 'NONE', #745, #675 ) ;
#498 = VECTOR ( 'NONE', #599, 100.0000000000000142 ) ;
#499 = ORIENTED_EDGE ( 'NONE', *, *, #343, .F. ) ;
#500 = EDGE_CURVE ( 'NONE', #413, #123, #618, .T. ) ;
#501 = DIRECTION ( 'NONE',  ( 1.000000000000000000, 2.385670792109557660E-16, 0.000000000000000000 ) ) ;
#502 = AXIS2_PLACEMENT_3D ( 'NONE', #804, #113, #558 ) ;
#503 = CARTESIAN_POINT ( 'NONE',  ( -1.199999999999999956, -0.7679571668975725407, 0.1349999999999999534 ) ) ;
#504 = CIRCLE ( 'NONE', #398, 1.000000000000000000 ) ;
#505 = DIRECTION ( 'NONE',  ( 4.818676322157799347E-16, -1.000000000000000000, 0.000000000000000000 ) ) ;
#506 = VERTEX_POINT ( 'NONE', #669 ) ;
#507 = ORIENTED_EDGE ( 'NONE', *, *, #783, .T. ) ;
#508 = AXIS2_PLACEMENT_3D ( 'NONE', #301, #57, #166 ) ;
#509 = CARTESIAN_POINT ( 'NONE',  ( -1.999999999999999112, -1.000000000000000000, 0.6350000000000000089 ) ) ;
#510 = ORIENTED_EDGE ( 'NONE', *, *, #216, .F. ) ;
#511 = ADVANCED_FACE ( 'NONE', ( #48 ), #545, .T. ) ;
#512 = CARTESIAN_POINT ( 'NONE',  ( -1.820000000000000506, 0.4099999999999995870, 0.1349999999999999534 ) ) ;
#513 = ORIENTED_EDGE ( 'NONE', *, *, #660, .T. ) ;
#514 = EDGE_CURVE ( 'NONE', #331, #409, #234, .T. ) ;
#515 = CARTESIAN_POINT ( 'NONE',  ( -2.000000000000000444, -0.4100000000000003642, 0.6350000000000000089 ) ) ;
#516 = FACE_OUTER_BOUND ( 'NONE', #465, .T. ) ;
#517 = EDGE_LOOP ( 'NONE', ( #30, #180 ) ) ;
#518 = VECTOR ( 'NONE', #442, 100.0000000000000000 ) ;
#519 = CARTESIAN_POINT ( 'NONE',  ( -2.000000000000000444, -0.4100000000000003642, 0.6350000000000000089 ) ) ;
#520 = ORIENTED_EDGE ( 'NONE', *, *, #332, .T. ) ;
#521 = DIRECTION ( 'NONE',  ( 1.000000000000000000, 0.000000000000000000, 0.000000000000000000 ) ) ;
#522 = EDGE_LOOP ( 'NONE', ( #663, #639, #617, #215, #601, #507 ) ) ;
#523 = CARTESIAN_POINT ( 'NONE',  ( -1.820000000000000506, -0.4100000000000003086, 0.1349999999999999534 ) ) ;
#524 = EDGE_CURVE ( 'NONE', #533, #278, #679, .T. ) ;
#525 = VERTEX_POINT ( 'NONE', #684 ) ;
#526 = CARTESIAN_POINT ( 'NONE',  ( 0.4100000000000000311, 2.000000000000000444, 0.6350000000000000089 ) ) ;
#527 = FACE_OUTER_BOUND ( 'NONE', #474, .T. ) ;
#528 = ORIENTED_EDGE ( 'NONE', *, *, #737, .T. ) ;
#529 = AXIS2_PLACEMENT_3D ( 'NONE', #557, #238, #34 ) ;
#530 = LINE ( 'NONE', #658, #31 ) ;
#531 = FACE_OUTER_BOUND ( 'NONE', #522, .T. ) ;
#532 = ORIENTED_EDGE ( 'NONE', *, *, #406, .F. ) ;
#533 = VERTEX_POINT ( 'NONE', #370 ) ;
#534 = VECTOR ( 'NONE', #535, 100.0000000000000000 ) ;
#535 = DIRECTION ( 'NONE',  ( 0.000000000000000000, -1.000000000000000000, 0.000000000000000000 ) ) ;
#536 = ORIENTED_EDGE ( 'NONE', *, *, #407, .T. ) ;
#537 = ORIENTED_EDGE ( 'NONE', *, *, #813, .F. ) ;
#538 = ADVANCED_FACE ( 'NONE', ( #802 ), #825, .F. ) ;
#539 = MECHANICAL_DESIGN_GEOMETRIC_PRESENTATION_REPRESENTATION (  '', ( #440 ), #425 ) ;
#540 = DIRECTION ( 'NONE',  ( -5.782411586589356160E-17, 1.000000000000000000, 0.000000000000000000 ) ) ;
#541 = DIRECTION ( 'NONE',  ( 0.000000000000000000, 0.000000000000000000, -1.000000000000000000 ) ) ;
#542 = ORIENTED_EDGE ( 'NONE', *, *, #332, .F. ) ;
#543 = ORIENTED_EDGE ( 'NONE', *, *, #500, .T. ) ;
#544 = AXIS2_PLACEMENT_3D ( 'NONE', #111, #556, #681 ) ;
#545 = PLANE ( 'NONE',  #728 ) ;
#546 = CARTESIAN_POINT ( 'NONE',  ( 0.000000000000000000, 0.000000000000000000, 0.000000000000000000 ) ) ;
#547 = VECTOR ( 'NONE', #351, 100.0000000000000142 ) ;
#548 = CARTESIAN_POINT ( 'NONE',  ( -0.4099999999999999201, 1.820000000000000506, 0.6350000000000000089 ) ) ;
#549 = EDGE_LOOP ( 'NONE', ( #38, #233, #224, #494 ) ) ;
#550 = DIRECTION ( 'NONE',  ( 4.818676322157798361E-16, 1.000000000000000000, 0.000000000000000000 ) ) ;
#551 = EDGE_CURVE ( 'NONE', #229, #735, #450, .T. ) ;
#552 = DIRECTION ( 'NONE',  ( 0.000000000000000000, 1.000000000000000000, 0.000000000000000000 ) ) ;
#553 = EDGE_CURVE ( 'NONE', #602, #525, #698, .T. ) ;
#554 = EDGE_LOOP ( 'NONE', ( #402, #299, #483, #369 ) ) ;
#555 = CARTESIAN_POINT ( 'NONE',  ( -2.000000000000000444, -0.4100000000000003642, 0.1349999999999999534 ) ) ;
#556 = DIRECTION ( 'NONE',  ( -0.000000000000000000, -0.000000000000000000, -1.000000000000000000 ) ) ;
#557 = CARTESIAN_POINT ( 'NONE',  ( 0.000000000000000000, 0.000000000000000000, 0.000000000000000000 ) ) ;
#558 = DIRECTION ( 'NONE',  ( 1.000000000000000000, 4.818676322157798361E-16, 0.000000000000000000 ) ) ;
#559 = EDGE_CURVE ( 'NONE', #278, #354, #404, .T. ) ;
#560 = CARTESIAN_POINT ( 'NONE',  ( 0.000000000000000000, 0.000000000000000000, 0.000000000000000000 ) ) ;
#561 = DIRECTION ( 'NONE',  ( 0.000000000000000000, 0.000000000000000000, 1.000000000000000000 ) ) ;
#562 = ORIENTED_EDGE ( 'NONE', *, *, #69, .T. ) ;
#563 = DIRECTION ( 'NONE',  ( 1.000000000000000000, 0.000000000000000000, 0.000000000000000000 ) ) ;
#564 = AXIS2_PLACEMENT_3D ( 'NONE', #209, #26, #156 ) ;
#565 = LINE ( 'NONE', #641, #294 ) ;
#566 = VERTEX_POINT ( 'NONE', #199 ) ;
#567 = VERTEX_POINT ( 'NONE', #577 ) ;
#568 = CYLINDRICAL_SURFACE ( 'NONE', #683, 0.3000000000000000444 ) ;
#569 = EDGE_CURVE ( 'NONE', #699, #206, #711, .T. ) ;
#570 = PRODUCT_DEFINITION_FORMATION_WITH_SPECIFIED_SOURCE ( 'ANY', '', #493, .NOT_KNOWN. ) ;
#571 = CARTESIAN_POINT ( 'NONE',  ( -1.200000000000000178, 0.7679571668975719856, 0.1349999999999999534 ) ) ;
#572 = EDGE_CURVE ( 'NONE', #168, #214, #715, .T. ) ;
#573 = VERTEX_POINT ( 'NONE', #652 ) ;
#574 = AXIS2_PLACEMENT_3D ( 'NONE', #122, #385, #452 ) ;
#575 = EDGE_CURVE ( 'NONE', #566, #602, #504, .T. ) ;
#576 = LINE ( 'NONE', #512, #692 ) ;
#577 = CARTESIAN_POINT ( 'NONE',  ( -1.820000000000000506, 0.4099999999999995870, 0.1349999999999999534 ) ) ;
#578 = ORIENTED_EDGE ( 'NONE', *, *, #707, .T. ) ;
#579 = VECTOR ( 'NONE', #49, 100.0000000000000142 ) ;
#580 = CARTESIAN_POINT ( 'NONE',  ( -2.000000000000000444, 0.4099999999999996980, 0.1349999999999999534 ) ) ;
#581 = PLANE ( 'NONE',  #134 ) ;
#582 = ORIENTED_EDGE ( 'NONE', *, *, #464, .T. ) ;
#583 = VECTOR ( 'NONE', #505, 100.0000000000000000 ) ;
#584 = MANIFOLD_SOLID_BREP ( 'Fillet1', #149 ) ;
#585 = EDGE_CURVE ( 'NONE', #168, #567, #326, .T. ) ;
#586 = EDGE_LOOP ( 'NONE', ( #528, #145, #606, #582 ) ) ;
#587 = ADVANCED_FACE ( 'NONE', ( #396 ), #581, .F. ) ;
#588 = PLANE ( 'NONE',  #709 ) ;
#589 = DIRECTION ( 'NONE',  ( -0.000000000000000000, 0.000000000000000000, 1.000000000000000000 ) ) ;
#590 = CARTESIAN_POINT ( 'NONE',  ( 0.4099999999999999201, 1.820000000000000506, 0.1349999999999999534 ) ) ;
#591 = CYLINDRICAL_SURFACE ( 'NONE', #100, 1.000000000000000000 ) ;
#592 = DIRECTION ( 'NONE',  ( -0.5000000000000042188, 0.8660254037844362651, -0.000000000000000000 ) ) ;
#593 = VECTOR ( 'NONE', #688, 100.0000000000000000 ) ;
#594 = DIRECTION ( 'NONE',  ( -0.000000000000000000, 0.000000000000000000, 1.000000000000000000 ) ) ;
#595 = DIRECTION ( 'NONE',  ( -1.000000000000000000, 4.818676322157799347E-16, -0.000000000000000000 ) ) ;
#596 = FACE_OUTER_BOUND ( 'NONE', #429, .T. ) ;
#597 = ORIENTED_EDGE ( 'NONE', *, *, #763, .F. ) ;
#598 = VECTOR ( 'NONE', #462, 100.0000000000000000 ) ;
#599 = DIRECTION ( 'NONE',  ( -0.5000000000000042188, -0.8660254037844362651, 0.000000000000000000 ) ) ;
#600 = CYLINDRICAL_SURFACE ( 'NONE', #755, 2.500000000000000000 ) ;
#601 = ORIENTED_EDGE ( 'NONE', *, *, #464, .F. ) ;
#602 = VERTEX_POINT ( 'NONE', #273 ) ;
#603 = ORIENTED_EDGE ( 'NONE', *, *, #749, .F. ) ;
#604 = CARTESIAN_POINT ( 'NONE',  ( 0.4099999999999999201, 1.820000000000000506, 0.1349999999999999534 ) ) ;
#605 = DIRECTION ( 'NONE',  ( -2.312964634635742957E-16, 1.000000000000000000, 0.000000000000000000 ) ) ;
#606 = ORIENTED_EDGE ( 'NONE', *, *, #141, .F. ) ;
#607 = ADVANCED_FACE ( 'NONE', ( #527 ), #260, .F. ) ;
#608 = CARTESIAN_POINT ( 'NONE',  ( -16.63499999999999801, 1.364999999999996438, 0.3175000000000000044 ) ) ;
#609 = ADVANCED_FACE ( 'NONE', ( #516 ), #771, .F. ) ;
#610 = LINE ( 'NONE', #29, #108 ) ;
#611 = VECTOR ( 'NONE', #757, 100.0000000000000000 ) ;
#612 = CARTESIAN_POINT ( 'NONE',  ( -1.200000000000000178, 0.7679571668975719856, 0.1349999999999999534 ) ) ;
#613 = VERTEX_POINT ( 'NONE', #147 ) ;
#614 = CARTESIAN_POINT ( 'NONE',  ( -1.500000000000000222, 2.000000000000000444, 0.6350000000000000089 ) ) ;
#615 = CARTESIAN_POINT ( 'NONE',  ( 0.000000000000000000, -0.3000000000000000444, 0.000000000000000000 ) ) ;
#616 = DIRECTION ( 'NONE',  ( 0.000000000000000000, -1.000000000000000000, 0.000000000000000000 ) ) ;
#617 = ORIENTED_EDGE ( 'NONE', *, *, #394, .T. ) ;
#618 = LINE ( 'NONE', #230, #193 ) ;
#619 = CARTESIAN_POINT ( 'NONE',  ( 0.000000000000000000, -1.000000000000000000, 0.6350000000000000089 ) ) ;
#620 = ORIENTED_EDGE ( 'NONE', *, *, #419, .F. ) ;
#621 = ADVANCED_FACE ( 'NONE', ( #803 ), #591, .T. ) ;
#622 = VECTOR ( 'NONE', #430, 100.0000000000000000 ) ;
#623 = VECTOR ( 'NONE', #71, 100.0000000000000000 ) ;
#624 = DIRECTION ( 'NONE',  ( -0.000000000000000000, 0.000000000000000000, 1.000000000000000000 ) ) ;
#625 = EDGE_LOOP ( 'NONE', ( #43, #395, #532, #805, #348, #225, #267, #682, #620, #451, #285, #710, #473, #271, #163, #95, #79, #155, #448 ) ) ;
#626 =( NAMED_UNIT ( * ) SI_UNIT ( $, .STERADIAN. ) SOLID_ANGLE_UNIT ( ) );
#627 = CARTESIAN_POINT ( 'NONE',  ( -1.820000000000000506, 0.4099999999999995870, 0.6350000000000000089 ) ) ;
#628 = VERTEX_POINT ( 'NONE', #666 ) ;
#629 = ORIENTED_EDGE ( 'NONE', *, *, #569, .T. ) ;
#630 = PLANE ( 'NONE',  #508 ) ;
#631 = FACE_OUTER_BOUND ( 'NONE', #258, .T. ) ;
#632 = EDGE_LOOP ( 'NONE', ( #661, #353, #678, #280 ) ) ;
#633 = PRODUCT_DEFINITION ( 'UNKNOWN', '', #570, #390 ) ;
#634 = ADVANCED_FACE ( 'NONE', ( #481, #531 ), #356, .F. ) ;
#635 = LINE ( 'NONE', #6, #649 ) ;
#636 = CARTESIAN_POINT ( 'NONE',  ( 0.4099999999999999201, 1.820000000000000506, 0.1349999999999999534 ) ) ;
#637 = DIRECTION ( 'NONE',  ( -1.249637081581196951E-16, 1.000000000000000000, -0.000000000000000000 ) ) ;
#638 = CARTESIAN_POINT ( 'NONE',  ( 1.000000000000000222, 0.000000000000000000, 0.6350000000000000089 ) ) ;
#639 = ORIENTED_EDGE ( 'NONE', *, *, #121, .T. ) ;
#640 = VECTOR ( 'NONE', #198, 100.0000000000000000 ) ;
#641 = CARTESIAN_POINT ( 'NONE',  ( -1.364999999999999991, 16.63499999999999801, 0.6350000000000000089 ) ) ;
#642 = EDGE_LOOP ( 'NONE', ( #295, #672, #15, #68 ) ) ;
#643 =( NAMED_UNIT ( * ) SI_UNIT ( $, .STERADIAN. ) SOLID_ANGLE_UNIT ( ) );
#644 = ADVANCED_FACE ( 'NONE', ( #726 ), #796, .F. ) ;
#645 = VECTOR ( 'NONE', #432, 100.0000000000000000 ) ;
#646 = PLANE ( 'NONE',  #457 ) ;
#647 = CARTESIAN_POINT ( 'NONE',  ( -1.200000000000000178, 0.7679571668975719856, 0.1349999999999999534 ) ) ;
#648 = ORIENTED_EDGE ( 'NONE', *, *, #19, .T. ) ;
#649 = VECTOR ( 'NONE', #63, 100.0000000000000000 ) ;
#650 = AXIS2_PLACEMENT_3D ( 'NONE', #496, #810, #54 ) ;
#651 = CARTESIAN_POINT ( 'NONE',  ( -0.4099999999999999201, 1.820000000000000506, 0.6350000000000000089 ) ) ;
#652 = CARTESIAN_POINT ( 'NONE',  ( 0.000000000000000000, -0.3000000000000000444, 0.6350000000000000089 ) ) ;
#653 = ORIENTED_EDGE ( 'NONE', *, *, #585, .T. ) ;
#654 = CARTESIAN_POINT ( 'NONE',  ( 0.4100000000000000311, 2.000000000000000444, 0.1349999999999999534 ) ) ;
#655 = DIRECTION ( 'NONE',  ( 0.000000000000000000, 0.000000000000000000, -1.000000000000000000 ) ) ;
#656 = ORIENTED_EDGE ( 'NONE', *, *, #447, .F. ) ;
#657 = ORIENTED_EDGE ( 'NONE', *, *, #435, .T. ) ;
#658 = CARTESIAN_POINT ( 'NONE',  ( 0.7679571668975722076, 1.199999999999999956, 0.1349999999999999534 ) ) ;
#659 = CARTESIAN_POINT ( 'NONE',  ( 3.673940397442060115E-17, 0.3000000000000000444, 0.000000000000000000 ) ) ;
#660 = EDGE_CURVE ( 'NONE', #573, #506, #713, .T. ) ;
#661 = ORIENTED_EDGE ( 'NONE', *, *, #349, .T. ) ;
#662 = AXIS2_PLACEMENT_3D ( 'NONE', #296, #550, #806 ) ;
#663 = ORIENTED_EDGE ( 'NONE', *, *, #80, .T. ) ;
#664 = AXIS2_PLACEMENT_3D ( 'NONE', #310, #561, #616 ) ;
#665 = CARTESIAN_POINT ( 'NONE',  ( -1.999999999999999112, -1.000000000000000000, 0.000000000000000000 ) ) ;
#666 = CARTESIAN_POINT ( 'NONE',  ( 3.673940397442060115E-17, 0.3000000000000000444, 0.000000000000000000 ) ) ;
#667 = VERTEX_POINT ( 'NONE', #472 ) ;
#668 = ORIENTED_EDGE ( 'NONE', *, *, #813, .T. ) ;
#669 = CARTESIAN_POINT ( 'NONE',  ( 3.673940397442060115E-17, 0.3000000000000000444, 0.6350000000000000089 ) ) ;
#670 = DIRECTION ( 'NONE',  ( -1.249637081581196951E-16, 1.000000000000000000, 0.000000000000000000 ) ) ;
#671 = LINE ( 'NONE', #55, #645 ) ;
#672 = ORIENTED_EDGE ( 'NONE', *, *, #500, .F. ) ;
#673 = ADVANCED_FACE ( 'NONE', ( #282 ), #600, .T. ) ;
#674 = CARTESIAN_POINT ( 'NONE',  ( -1.820000000000000506, -0.4100000000000003086, 0.6350000000000000089 ) ) ;
#675 = VECTOR ( 'NONE', #167, 100.0000000000000000 ) ;
#676 = CARTESIAN_POINT ( 'NONE',  ( 0.7679571668975722076, 1.199999999999999956, 0.1349999999999999534 ) ) ;
#677 = LINE ( 'NONE', #488, #115 ) ;
#678 = ORIENTED_EDGE ( 'NONE', *, *, #702, .F. ) ;
#679 = LINE ( 'NONE', #109, #376 ) ;
#680 = SHAPE_DEFINITION_REPRESENTATION ( #246, #380 ) ;
#681 = DIRECTION ( 'NONE',  ( 0.000000000000000000, -1.000000000000000000, 0.000000000000000000 ) ) ;
#682 = ORIENTED_EDGE ( 'NONE', *, *, #359, .F. ) ;
#683 = AXIS2_PLACEMENT_3D ( 'NONE', #701, #88, #20 ) ;
#684 = CARTESIAN_POINT ( 'NONE',  ( 1.000000000000000222, 0.000000000000000000, 0.000000000000000000 ) ) ;
#685 = DIRECTION ( 'NONE',  ( 0.000000000000000000, -1.000000000000000000, 0.000000000000000000 ) ) ;
#686 = PLANE ( 'NONE',  #14 ) ;
#687 = VERTEX_POINT ( 'NONE', #722 ) ;
#688 = DIRECTION ( 'NONE',  ( -1.000000000000000000, 0.000000000000000000, -0.000000000000000000 ) ) ;
#689 = CARTESIAN_POINT ( 'NONE',  ( -1.364999999999998215, 1.364999999999999991, 0.6350000000000000089 ) ) ;
#690 = VERTEX_POINT ( 'NONE', #223 ) ;
#691 = CARTESIAN_POINT ( 'NONE',  ( -1.364999999999998215, 2.000000000000000444, 0.000000000000000000 ) ) ;
#692 = VECTOR ( 'NONE', #11, 100.0000000000000000 ) ;
#693 = LINE ( 'NONE', #381, #53 ) ;
#694 = DIRECTION ( 'NONE',  ( -0.8660254037844360431, -0.5000000000000045519, 0.000000000000000000 ) ) ;
#695 = ORIENTED_EDGE ( 'NONE', *, *, #720, .T. ) ;
#696 = EDGE_CURVE ( 'NONE', #91, #703, #477, .T. ) ;
#697 = LINE ( 'NONE', #515, #623 ) ;
#698 = LINE ( 'NONE', #638, #10 ) ;
#699 = VERTEX_POINT ( 'NONE', #604 ) ;
#700 = UNCERTAINTY_MEASURE_WITH_UNIT (LENGTH_MEASURE( 1.000000000000000082E-05 ), #815, 'distance_accuracy_value', 'NONE');
#701 = CARTESIAN_POINT ( 'NONE',  ( 0.000000000000000000, 0.000000000000000000, 0.000000000000000000 ) ) ;
#702 = EDGE_CURVE ( 'NONE', #791, #823, #297, .T. ) ;
#703 = VERTEX_POINT ( 'NONE', #41 ) ;
#704 = DIRECTION ( 'NONE',  ( 0.000000000000000000, -1.000000000000000000, 0.000000000000000000 ) ) ;
#705 = ORIENTED_EDGE ( 'NONE', *, *, #585, .F. ) ;
#706 = DIRECTION ( 'NONE',  ( 1.000000000000000000, 2.258880508902365962E-16, 0.000000000000000000 ) ) ;
#707 = EDGE_CURVE ( 'NONE', #567, #129, #45, .T. ) ;
#708 = ORIENTED_EDGE ( 'NONE', *, *, #317, .T. ) ;
#709 = AXIS2_PLACEMENT_3D ( 'NONE', #269, #345, #792 ) ;
#710 = ORIENTED_EDGE ( 'NONE', *, *, #188, .F. ) ;
#711 = LINE ( 'NONE', #636, #151 ) ;
#712 = AXIS2_PLACEMENT_3D ( 'NONE', #195, #152, #670 ) ;
#713 = CIRCLE ( 'NONE', #399, 0.3000000000000000444 ) ;
#714 = DIRECTION ( 'NONE',  ( 0.8660254037844362651, -0.5000000000000039968, 0.000000000000000000 ) ) ;
#715 = LINE ( 'NONE', #767, #291 ) ;
#716 = DIRECTION ( 'NONE',  ( 4.818676322157799347E-16, 1.000000000000000000, 0.000000000000000000 ) ) ;
#717 = LINE ( 'NONE', #458, #534 ) ;
#718 = DIRECTION ( 'NONE',  ( 0.000000000000000000, -1.000000000000000000, 0.000000000000000000 ) ) ;
#719 = ORIENTED_EDGE ( 'NONE', *, *, #22, .T. ) ;
#720 = EDGE_CURVE ( 'NONE', #628, #506, #287, .T. ) ;
#721 = DIRECTION ( 'NONE',  ( 0.000000000000000000, 0.000000000000000000, -1.000000000000000000 ) ) ;
#722 = CARTESIAN_POINT ( 'NONE',  ( -1.364999999999998215, 2.000000000000000444, 0.3175000000000000044 ) ) ;
#723 = VERTEX_POINT ( 'NONE', #292 ) ;
#724 = ORIENTED_EDGE ( 'NONE', *, *, #553, .F. ) ;
#725 = DIRECTION ( 'NONE',  ( -0.000000000000000000, 0.000000000000000000, 1.000000000000000000 ) ) ;
#726 = FACE_OUTER_BOUND ( 'NONE', #642, .T. ) ;
#727 = DIRECTION ( 'NONE',  ( 1.000000000000000000, -4.818676322157798361E-16, 0.000000000000000000 ) ) ;
#728 = AXIS2_PLACEMENT_3D ( 'NONE', #495, #169, #540 ) ;
#729 = ORIENTED_EDGE ( 'NONE', *, *, #67, .T. ) ;
#730 = AXIS2_PLACEMENT_3D ( 'NONE', #131, #766, #185 ) ;
#731 = CARTESIAN_POINT ( 'NONE',  ( -0.4100000000000000311, 2.000000000000000444, 0.1349999999999999534 ) ) ;
#732 = FACE_OUTER_BOUND ( 'NONE', #158, .T. ) ;
#733 = DIRECTION ( 'NONE',  ( 1.000000000000000000, 0.000000000000000000, 0.000000000000000000 ) ) ;
#734 = ADVANCED_FACE ( 'NONE', ( #732 ), #89, .F. ) ;
#735 = VERTEX_POINT ( 'NONE', #226 ) ;
#736 = CARTESIAN_POINT ( 'NONE',  ( 1.156482317317871478E-16, 0.000000000000000000, 0.6350000000000000089 ) ) ;
#737 = EDGE_CURVE ( 'NONE', #739, #251, #484, .T. ) ;
#738 = DIRECTION ( 'NONE',  ( -0.000000000000000000, -0.000000000000000000, 1.000000000000000000 ) ) ;
#739 = VERTEX_POINT ( 'NONE', #346 ) ;
#740 = CARTESIAN_POINT ( 'NONE',  ( -1.500000000000000222, 2.000000000000000444, 0.000000000000000000 ) ) ;
#741 = PLANE ( 'NONE',  #316 ) ;
#742 = ORIENTED_EDGE ( 'NONE', *, *, #355, .F. ) ;
#743 = CARTESIAN_POINT ( 'NONE',  ( -1.999999999999999112, -1.000000000000000000, 0.6350000000000000089 ) ) ;
#744 = FACE_OUTER_BOUND ( 'NONE', #752, .T. ) ;
#745 = CARTESIAN_POINT ( 'NONE',  ( 1.000000000000000222, -1.000000000000000000, 0.000000000000000000 ) ) ;
#746 = VERTEX_POINT ( 'NONE', #676 ) ;
#747 = PRODUCT_RELATED_PRODUCT_CATEGORY ( 'part', '', ( #493 ) ) ;
#748 = LINE ( 'NONE', #743, #593 ) ;
#749 = EDGE_CURVE ( 'NONE', #628, #323, #364, .T. ) ;
#750 = LINE ( 'NONE', #691, #211 ) ;
#751 = DIRECTION ( 'NONE',  ( 0.000000000000000000, -1.000000000000000000, 0.000000000000000000 ) ) ;
#752 = EDGE_LOOP ( 'NONE', ( #47, #389, #177, #363 ) ) ;
#753 = AXIS2_PLACEMENT_3D ( 'NONE', #277, #408, #411 ) ;
#754 = FACE_OUTER_BOUND ( 'NONE', #761, .T. ) ;
#755 = AXIS2_PLACEMENT_3D ( 'NONE', #469, #655, #417 ) ;
#756 = DIRECTION ( 'NONE',  ( -0.000000000000000000, 0.000000000000000000, 1.000000000000000000 ) ) ;
#757 = DIRECTION ( 'NONE',  ( 1.000000000000000000, 0.000000000000000000, 0.000000000000000000 ) ) ;
#758 = DIRECTION ( 'NONE',  ( 0.000000000000000000, 0.000000000000000000, 1.000000000000000000 ) ) ;
#759 = EDGE_CURVE ( 'NONE', #106, #373, #610, .T. ) ;
#760 = VECTOR ( 'NONE', #820, 100.0000000000000000 ) ;
#761 = EDGE_LOOP ( 'NONE', ( #83, #2, #59, #789 ) ) ;
#762 = EDGE_LOOP ( 'NONE', ( #27, #12, #705, #84 ) ) ;
#763 = EDGE_CURVE ( 'NONE', #687, #229, #750, .T. ) ;
#764 = CARTESIAN_POINT ( 'NONE',  ( -1.820000000000000506, 0.4099999999999995870, 0.1349999999999999534 ) ) ;
#765 = ORIENTED_EDGE ( 'NONE', *, *, #162, .F. ) ;
#766 = DIRECTION ( 'NONE',  ( 0.000000000000000000, 0.000000000000000000, -1.000000000000000000 ) ) ;
#767 = CARTESIAN_POINT ( 'NONE',  ( -1.200000000000000178, 0.7679571668975719856, 0.1349999999999999534 ) ) ;
#768 = ORIENTED_EDGE ( 'NONE', *, *, #290, .T. ) ;
#769 = ADVANCED_FACE ( 'NONE', ( #754 ), #235, .F. ) ;
#770 = CARTESIAN_POINT ( 'NONE',  ( 0.000000000000000000, 0.000000000000000000, 0.1349999999999999534 ) ) ;
#771 = PLANE ( 'NONE',  #712 ) ;
#772 = AXIS2_PLACEMENT_3D ( 'NONE', #387, #259, #313 ) ;
#773 = ORIENTED_EDGE ( 'NONE', *, *, #243, .T. ) ;
#774 = ADVANCED_FACE ( 'NONE', ( #744 ), #630, .F. ) ;
#775 = ORIENTED_EDGE ( 'NONE', *, *, #343, .T. ) ;
#776 = DIRECTION ( 'NONE',  ( 0.000000000000000000, -1.000000000000000000, 0.000000000000000000 ) ) ;
#777 = ORIENTED_EDGE ( 'NONE', *, *, #783, .F. ) ;
#778 = LINE ( 'NONE', #467, #283 ) ;
#779 = CARTESIAN_POINT ( 'NONE',  ( -1.820000000000000506, 0.4099999999999995870, 0.1349999999999999534 ) ) ;
#780 = ORIENTED_EDGE ( 'NONE', *, *, #33, .T. ) ;
#781 = LINE ( 'NONE', #654, #598 ) ;
#782 = CARTESIAN_POINT ( 'NONE',  ( -2.000000000000000444, 0.4099999999999996980, 0.1349999999999999534 ) ) ;
#783 = EDGE_CURVE ( 'NONE', #303, #320, #51, .T. ) ;
#784 = LINE ( 'NONE', #23, #165 ) ;
#785 = EDGE_CURVE ( 'NONE', #470, #687, #384, .T. ) ;
#786 = VECTOR ( 'NONE', #305, 100.0000000000000000 ) ;
#787 = DIRECTION ( 'NONE',  ( -0.000000000000000000, 0.000000000000000000, 1.000000000000000000 ) ) ;
#788 = DIRECTION ( 'NONE',  ( 0.000000000000000000, 0.000000000000000000, 1.000000000000000000 ) ) ;
#789 = ORIENTED_EDGE ( 'NONE', *, *, #56, .T. ) ;
#790 = VECTOR ( 'NONE', #60, 100.0000000000000000 ) ;
#791 = VERTEX_POINT ( 'NONE', #818 ) ;
#792 = DIRECTION ( 'NONE',  ( -2.312964634635742957E-16, 1.000000000000000000, 0.000000000000000000 ) ) ;
#793 = CARTESIAN_POINT ( 'NONE',  ( 0.4100000000000000311, 2.000000000000000444, 0.1349999999999999534 ) ) ;
#794 = ORIENTED_EDGE ( 'NONE', *, *, #279, .F. ) ;
#795 = EDGE_CURVE ( 'NONE', #214, #220, #178, .T. ) ;
#796 = PLANE ( 'NONE',  #753 ) ;
#797 = ORIENTED_EDGE ( 'NONE', *, *, #256, .T. ) ;
#798 = VECTOR ( 'NONE', #40, 100.0000000000000000 ) ;
#799 = ORIENTED_EDGE ( 'NONE', *, *, #290, .F. ) ;
#800 = VECTOR ( 'NONE', #362, 100.0000000000000000 ) ;
#801 = AXIS2_PLACEMENT_3D ( 'NONE', #546, #342, #422 ) ;
#802 = FACE_OUTER_BOUND ( 'NONE', #461, .T. ) ;
#803 = FACE_OUTER_BOUND ( 'NONE', #478, .T. ) ;
#804 = CARTESIAN_POINT ( 'NONE',  ( -2.000000000000000444, -0.4100000000000003642, 0.1349999999999999534 ) ) ;
#805 = ORIENTED_EDGE ( 'NONE', *, *, #514, .F. ) ;
#806 = DIRECTION ( 'NONE',  ( -1.000000000000000000, 4.818676322157798361E-16, 0.000000000000000000 ) ) ;
#807 = PLANE ( 'NONE',  #308 ) ;
#808 = ORIENTED_EDGE ( 'NONE', *, *, #254, .F. ) ;
#809 = DIRECTION ( 'NONE',  ( 1.000000000000000000, 4.818676322157799347E-16, 0.000000000000000000 ) ) ;
#810 = DIRECTION ( 'NONE',  ( 0.000000000000000000, 0.000000000000000000, -1.000000000000000000 ) ) ;
#811 = CARTESIAN_POINT ( 'NONE',  ( 0.4100000000000000311, 2.000000000000000444, 0.1349999999999999534 ) ) ;
#812 = VECTOR ( 'NONE', #809, 100.0000000000000000 ) ;
#813 = EDGE_CURVE ( 'NONE', #323, #573, #366, .T. ) ;
#814 = DIRECTION ( 'NONE',  ( -0.000000000000000000, 0.000000000000000000, 1.000000000000000000 ) ) ;
#815 =( LENGTH_UNIT ( ) NAMED_UNIT ( * ) SI_UNIT ( .CENTI., .METRE. ) );
#816 = CARTESIAN_POINT ( 'NONE',  ( -2.000000000000000444, -0.4100000000000003642, 0.1349999999999999534 ) ) ;
#817 = VECTOR ( 'NONE', #594, 100.0000000000000000 ) ;
#818 = CARTESIAN_POINT ( 'NONE',  ( -1.820000000000000506, -0.4100000000000003086, 0.1349999999999999534 ) ) ;
#819 = CARTESIAN_POINT ( 'NONE',  ( 0.4100000000000000311, 2.000000000000000444, 0.1349999999999999534 ) ) ;
#820 = DIRECTION ( 'NONE',  ( -0.000000000000000000, 0.000000000000000000, 1.000000000000000000 ) ) ;
#821 = ADVANCED_FACE ( 'NONE', ( #231 ), #239, .F. ) ;
#822 = DIRECTION ( 'NONE',  ( -1.249637081581196951E-16, 1.000000000000000000, -0.000000000000000000 ) ) ;
#823 = VERTEX_POINT ( 'NONE', #503 ) ;
#824 = ORIENTED_EDGE ( 'NONE', *, *, #553, .T. ) ;
#825 = PLANE ( 'NONE',  #306 ) ;
#826 = CARTESIAN_POINT ( 'NONE',  ( 0.000000000000000000, 0.000000000000000000, 0.000000000000000000 ) ) ;
ENDSEC;
END-ISO-10303-21;
