ISO-10303-21;
HEADER;
FILE_DESCRIPTION (( 'STEP AP214' ),
    '1' );
FILE_NAME ('vertex-edge_61.STEP',
    '2026-06-19T13:49:23',
    ( '' ),
    ( '' ),
    'SwSTEP 2.0',
    'SolidWorks 2023',
    '' );
FILE_SCHEMA (( 'AUTOMOTIVE_DESIGN' ));
ENDSEC;

DATA;
#1 = LINE ( 'NONE', #788, #881 ) ;
#2 = ADVANCED_FACE ( 'NONE', ( #936 ), #67, .F. ) ;
#3 = CARTESIAN_POINT ( 'NONE',  ( 1.820000000000000506, 0.4100000000000000311, 0.6350000000000000089 ) ) ;
#4 = ORIENTED_EDGE ( 'NONE', *, *, #179, .F. ) ;
#5 = LINE ( 'NONE', #769, #407 ) ;
#6 = FACE_OUTER_BOUND ( 'NONE', #597, .T. ) ;
#7 = ADVANCED_FACE ( 'NONE', ( #337 ), #774, .F. ) ;
#8 = MECHANICAL_DESIGN_GEOMETRIC_PRESENTATION_REPRESENTATION (  '', ( #527 ), #78 ) ;
#9 = VECTOR ( 'NONE', #913, 100.0000000000000000 ) ;
#10 = ORIENTED_EDGE ( 'NONE', *, *, #1047, .T. ) ;
#11 = DIRECTION ( 'NONE',  ( 0.000000000000000000, 0.000000000000000000, -1.000000000000000000 ) ) ;
#12 = PLANE ( 'NONE',  #920 ) ;
#13 = CARTESIAN_POINT ( 'NONE',  ( -0.4100000000000000311, 2.000000000000000444, 0.1349999999999999534 ) ) ;
#14 = ORIENTED_EDGE ( 'NONE', *, *, #446, .F. ) ;
#15 = EDGE_CURVE ( 'NONE', #1069, #548, #591, .T. ) ;
#16 = DIRECTION ( 'NONE',  ( -1.000000000000000000, -4.818676322157798361E-16, 0.000000000000000000 ) ) ;
#17 = VERTEX_POINT ( 'NONE', #155 ) ;
#18 = CARTESIAN_POINT ( 'NONE',  ( 0.4099999999999999201, 1.820000000000000506, 0.6350000000000000089 ) ) ;
#19 = EDGE_CURVE ( 'NONE', #726, #804, #601, .T. ) ;
#20 = PLANE ( 'NONE',  #458 ) ;
#21 = DIRECTION ( 'NONE',  ( -4.818676322157798361E-16, 1.000000000000000000, 0.000000000000000000 ) ) ;
#22 = ORIENTED_EDGE ( 'NONE', *, *, #271, .F. ) ;
#23 = VECTOR ( 'NONE', #295, 100.0000000000000000 ) ;
#24 = LINE ( 'NONE', #871, #364 ) ;
#25 = CIRCLE ( 'NONE', #1077, 2.500000000000000000 ) ;
#26 = LINE ( 'NONE', #3, #351 ) ;
#27 = VECTOR ( 'NONE', #448, 100.0000000000000000 ) ;
#28 = LINE ( 'NONE', #799, #514 ) ;
#29 = EDGE_CURVE ( 'NONE', #123, #910, #625, .T. ) ;
#30 = DIRECTION ( 'NONE',  ( -0.000000000000000000, 0.000000000000000000, 1.000000000000000000 ) ) ;
#31 = EDGE_LOOP ( 'NONE', ( #445, #994, #301, #739 ) ) ;
#32 = CARTESIAN_POINT ( 'NONE',  ( -2.000000000000000444, -1.000000000000000000, 0.6350000000000000089 ) ) ;
#33 = PLANE ( 'NONE',  #45 ) ;
#34 = CARTESIAN_POINT ( 'NONE',  ( -1.820000000000000506, -0.4100000000000003086, 0.1349999999999999534 ) ) ;
#35 = EDGE_CURVE ( 'NONE', #1043, #101, #447, .T. ) ;
#36 = FACE_OUTER_BOUND ( 'NONE', #1094, .T. ) ;
#37 = ORIENTED_EDGE ( 'NONE', *, *, #1014, .F. ) ;
#38 = CARTESIAN_POINT ( 'NONE',  ( -1.820000000000000506, 0.4099999999999995870, 0.1349999999999999534 ) ) ;
#39 = DIRECTION ( 'NONE',  ( -0.000000000000000000, 0.000000000000000000, 1.000000000000000000 ) ) ;
#40 = CARTESIAN_POINT ( 'NONE',  ( -2.000000000000000000, -1.500000000000000888, 0.000000000000000000 ) ) ;
#41 = EDGE_LOOP ( 'NONE', ( #1107, #427, #566, #1109 ) ) ;
#42 = LINE ( 'NONE', #996, #621 ) ;
#43 = DIRECTION ( 'NONE',  ( 0.000000000000000000, -1.000000000000000000, 0.000000000000000000 ) ) ;
#44 = DIRECTION ( 'NONE',  ( -1.249637081581196951E-16, 1.000000000000000000, 0.000000000000000000 ) ) ;
#45 = AXIS2_PLACEMENT_3D ( 'NONE', #1090, #672, #497 ) ;
#46 = DIRECTION ( 'NONE',  ( -0.8660254037844362651, 0.5000000000000043299, 0.000000000000000000 ) ) ;
#47 = ORIENTED_EDGE ( 'NONE', *, *, #930, .T. ) ;
#48 = DIRECTION ( 'NONE',  ( 0.000000000000000000, 0.000000000000000000, 1.000000000000000000 ) ) ;
#49 = EDGE_CURVE ( 'NONE', #17, #800, #880, .T. ) ;
#50 = FACE_OUTER_BOUND ( 'NONE', #516, .T. ) ;
#51 = CARTESIAN_POINT ( 'NONE',  ( 1.364999999999999991, 1.364999999999998215, 0.3175000000000000044 ) ) ;
#52 = PLANE ( 'NONE',  #833 ) ;
#53 = DIRECTION ( 'NONE',  ( -0.000000000000000000, 0.000000000000000000, 1.000000000000000000 ) ) ;
#54 = FACE_OUTER_BOUND ( 'NONE', #31, .T. ) ;
#55 = EDGE_LOOP ( 'NONE', ( #1111, #265, #242, #404 ) ) ;
#56 = ADVANCED_FACE ( 'NONE', ( #442 ), #12, .F. ) ;
#57 = MANIFOLD_SOLID_BREP ( 'Cut-Extrude5', #662 ) ;
#58 = VERTEX_POINT ( 'NONE', #88 ) ;
#59 = VERTEX_POINT ( 'NONE', #721 ) ;
#60 = CARTESIAN_POINT ( 'NONE',  ( 2.000000000000000444, 0.4100000000000001421, 0.1349999999999999534 ) ) ;
#61 = ORIENTED_EDGE ( 'NONE', *, *, #1035, .F. ) ;
#62 = CARTESIAN_POINT ( 'NONE',  ( 1.820000000000000506, 0.4100000000000000311, 0.1349999999999999534 ) ) ;
#63 = AXIS2_PLACEMENT_3D ( 'NONE', #884, #1063, #545 ) ;
#64 = EDGE_CURVE ( 'NONE', #141, #556, #710, .T. ) ;
#65 = EDGE_LOOP ( 'NONE', ( #946, #373, #346, #111 ) ) ;
#66 = CYLINDRICAL_SURFACE ( 'NONE', #810, 2.500000000000000000 ) ;
#67 = PLANE ( 'NONE',  #399 ) ;
#68 = EDGE_CURVE ( 'NONE', #101, #878, #798, .T. ) ;
#69 = ORIENTED_EDGE ( 'NONE', *, *, #540, .T. ) ;
#70 = CARTESIAN_POINT ( 'NONE',  ( 0.000000000000000000, 0.000000000000000000, 0.3175000000000000044 ) ) ;
#71 = ORIENTED_EDGE ( 'NONE', *, *, #950, .F. ) ;
#72 = DIRECTION ( 'NONE',  ( 0.000000000000000000, 0.000000000000000000, 1.000000000000000000 ) ) ;
#73 = EDGE_CURVE ( 'NONE', #800, #750, #182, .T. ) ;
#74 = ORIENTED_EDGE ( 'NONE', *, *, #524, .T. ) ;
#75 = LINE ( 'NONE', #866, #80 ) ;
#76 = DIRECTION ( 'NONE',  ( 0.000000000000000000, 0.000000000000000000, -1.000000000000000000 ) ) ;
#77 = CARTESIAN_POINT ( 'NONE',  ( 1.199999999999999956, 0.7679571668975723187, 0.1349999999999999534 ) ) ;
#78 =( GEOMETRIC_REPRESENTATION_CONTEXT ( 3 ) GLOBAL_UNCERTAINTY_ASSIGNED_CONTEXT ( ( #444 ) ) GLOBAL_UNIT_ASSIGNED_CONTEXT ( ( #270, #714, #358 ) ) REPRESENTATION_CONTEXT ( 'NONE', 'WORKASPACE' ) );
#79 = VECTOR ( 'NONE', #138, 100.0000000000000000 ) ;
#80 = VECTOR ( 'NONE', #596, 100.0000000000000000 ) ;
#81 = VERTEX_POINT ( 'NONE', #103 ) ;
#82 = DIRECTION ( 'NONE',  ( 0.000000000000000000, 1.000000000000000000, 0.000000000000000000 ) ) ;
#83 = ORIENTED_EDGE ( 'NONE', *, *, #859, .T. ) ;
#84 = EDGE_CURVE ( 'NONE', #526, #844, #963, .T. ) ;
#85 = DIRECTION ( 'NONE',  ( 1.000000000000000000, 0.000000000000000000, 0.000000000000000000 ) ) ;
#86 = EDGE_LOOP ( 'NONE', ( #71, #629, #233, #234, #1034 ) ) ;
#87 = DIRECTION ( 'NONE',  ( 1.000000000000000000, -4.818676322157799347E-16, 0.000000000000000000 ) ) ;
#88 = CARTESIAN_POINT ( 'NONE',  ( 1.199999999999999956, 0.7679571668975723187, 0.6350000000000000089 ) ) ;
#89 = EDGE_CURVE ( 'NONE', #172, #1102, #108, .T. ) ;
#90 = LINE ( 'NONE', #349, #132 ) ;
#91 = VERTEX_POINT ( 'NONE', #523 ) ;
#92 = CARTESIAN_POINT ( 'NONE',  ( -2.000000000000000000, -1.500000000000000888, 0.6350000000000000089 ) ) ;
#93 = DIRECTION ( 'NONE',  ( 4.818676322157799347E-16, -1.000000000000000000, 0.000000000000000000 ) ) ;
#94 = EDGE_CURVE ( 'NONE', #796, #858, #24, .T. ) ;
#95 = VECTOR ( 'NONE', #156, 100.0000000000000142 ) ;
#96 = ORIENTED_EDGE ( 'NONE', *, *, #102, .T. ) ;
#97 = VECTOR ( 'NONE', #667, 100.0000000000000000 ) ;
#98 = DIRECTION ( 'NONE',  ( 0.000000000000000000, -1.000000000000000000, 0.000000000000000000 ) ) ;
#99 = AXIS2_PLACEMENT_3D ( 'NONE', #193, #46, #1000 ) ;
#100 = LINE ( 'NONE', #978, #867 ) ;
#101 = VERTEX_POINT ( 'NONE', #518 ) ;
#102 = EDGE_CURVE ( 'NONE', #269, #694, #379, .T. ) ;
#103 = CARTESIAN_POINT ( 'NONE',  ( -2.000000000000001776, 1.364999999999999991, 0.3175000000000000044 ) ) ;
#104 = CARTESIAN_POINT ( 'NONE',  ( -1.820000000000000506, 0.4099999999999995870, 0.6350000000000000089 ) ) ;
#105 = CARTESIAN_POINT ( 'NONE',  ( 0.000000000000000000, 0.000000000000000000, 0.1349999999999999534 ) ) ;
#106 = PRODUCT_DEFINITION_CONTEXT ( 'detailed design', #392, 'design' ) ;
#107 = ORIENTED_EDGE ( 'NONE', *, *, #297, .F. ) ;
#108 = LINE ( 'NONE', #174, #771 ) ;
#109 = DIRECTION ( 'NONE',  ( -0.8660254037844362651, 0.5000000000000042188, 0.000000000000000000 ) ) ;
#110 = CARTESIAN_POINT ( 'NONE',  ( -2.000000000000001776, 1.364999999999999991, 0.6350000000000000089 ) ) ;
#111 = ORIENTED_EDGE ( 'NONE', *, *, #487, .T. ) ;
#112 = FACE_OUTER_BOUND ( 'NONE', #863, .T. ) ;
#113 = DIRECTION ( 'NONE',  ( -1.000000000000000000, 4.818676322157799347E-16, -0.000000000000000000 ) ) ;
#114 = VECTOR ( 'NONE', #173, 100.0000000000000000 ) ;
#115 = EDGE_CURVE ( 'NONE', #850, #954, #733, .T. ) ;
#116 = FACE_OUTER_BOUND ( 'NONE', #340, .T. ) ;
#117 = ORIENTED_EDGE ( 'NONE', *, *, #470, .T. ) ;
#118 = ORIENTED_EDGE ( 'NONE', *, *, #143, .T. ) ;
#119 = CARTESIAN_POINT ( 'NONE',  ( -2.000000000000000000, -1.500000000000000888, 0.3175000000000000044 ) ) ;
#120 = DIRECTION ( 'NONE',  ( 0.000000000000000000, -1.000000000000000000, 0.000000000000000000 ) ) ;
#121 = CARTESIAN_POINT ( 'NONE',  ( 0.7679571668975722076, 1.199999999999999956, 0.1349999999999999534 ) ) ;
#122 = VERTEX_POINT ( 'NONE', #303 ) ;
#123 = VERTEX_POINT ( 'NONE', #38 ) ;
#124 = FACE_OUTER_BOUND ( 'NONE', #577, .T. ) ;
#125 = CARTESIAN_POINT ( 'NONE',  ( -1.364999999999998215, 1.364999999999999991, 0.3175000000000000044 ) ) ;
#126 = PLANE ( 'NONE',  #99 ) ;
#127 = EDGE_LOOP ( 'NONE', ( #429, #390, #1001, #832 ) ) ;
#128 = EDGE_CURVE ( 'NONE', #804, #269, #42, .T. ) ;
#129 = CARTESIAN_POINT ( 'NONE',  ( 0.4100000000000001421, 2.000000000000000444, 0.1349999999999999534 ) ) ;
#130 = VECTOR ( 'NONE', #969, 100.0000000000000000 ) ;
#131 = DIRECTION ( 'NONE',  ( 0.000000000000000000, 0.000000000000000000, -1.000000000000000000 ) ) ;
#132 = VECTOR ( 'NONE', #93, 100.0000000000000000 ) ;
#133 = DIRECTION ( 'NONE',  ( -1.000000000000000000, 0.000000000000000000, 0.000000000000000000 ) ) ;
#134 = VECTOR ( 'NONE', #142, 100.0000000000000000 ) ;
#135 = CARTESIAN_POINT ( 'NONE',  ( 2.000000000000000444, -1.000000000000000000, 0.6350000000000000089 ) ) ;
#136 = EDGE_CURVE ( 'NONE', #81, #574, #387, .T. ) ;
#137 = ORIENTED_EDGE ( 'NONE', *, *, #937, .F. ) ;
#138 = DIRECTION ( 'NONE',  ( -2.312964634635742957E-16, 1.000000000000000000, 0.000000000000000000 ) ) ;
#139 = DIRECTION ( 'NONE',  ( 1.000000000000000000, 2.385670792109557660E-16, 0.000000000000000000 ) ) ;
#140 = CARTESIAN_POINT ( 'NONE',  ( 2.000000000000000444, 1.364999999999998437, 0.000000000000000000 ) ) ;
#141 = VERTEX_POINT ( 'NONE', #32 ) ;
#142 = DIRECTION ( 'NONE',  ( -1.000000000000000000, -4.818676322157799347E-16, 0.000000000000000000 ) ) ;
#143 = EDGE_CURVE ( 'NONE', #642, #975, #650, .T. ) ;
#144 = CARTESIAN_POINT ( 'NONE',  ( -1.364999999999999991, 16.63499999999999801, 0.3175000000000000044 ) ) ;
#145 = VERTEX_POINT ( 'NONE', #211 ) ;
#146 = EDGE_LOOP ( 'NONE', ( #69, #894 ) ) ;
#147 = LINE ( 'NONE', #212, #134 ) ;
#148 = ORIENTED_EDGE ( 'NONE', *, *, #371, .F. ) ;
#149 = VECTOR ( 'NONE', #39, 100.0000000000000000 ) ;
#150 = EDGE_CURVE ( 'NONE', #574, #526, #204, .T. ) ;
#151 = CIRCLE ( 'NONE', #1062, 2.500000000000000000 ) ;
#152 = AXIS2_PLACEMENT_3D ( 'NONE', #908, #1081, #811 ) ;
#153 = ORIENTED_EDGE ( 'NONE', *, *, #338, .T. ) ;
#154 = DIRECTION ( 'NONE',  ( 0.000000000000000000, 0.000000000000000000, -1.000000000000000000 ) ) ;
#155 = CARTESIAN_POINT ( 'NONE',  ( -2.000000000000000444, -0.4100000000000003642, 0.1349999999999999534 ) ) ;
#156 = DIRECTION ( 'NONE',  ( 0.8660254037844362651, -0.5000000000000039968, 0.000000000000000000 ) ) ;
#157 = ORIENTED_EDGE ( 'NONE', *, *, #49, .T. ) ;
#158 = CARTESIAN_POINT ( 'NONE',  ( -0.7679571668975722076, 1.199999999999999956, 0.6350000000000000089 ) ) ;
#159 = ORIENTED_EDGE ( 'NONE', *, *, #1019, .T. ) ;
#160 = FACE_OUTER_BOUND ( 'NONE', #314, .T. ) ;
#161 = EDGE_CURVE ( 'NONE', #81, #472, #557, .T. ) ;
#162 = FACE_OUTER_BOUND ( 'NONE', #682, .T. ) ;
#163 = EDGE_LOOP ( 'NONE', ( #210, #1118, #539, #137, #421 ) ) ;
#164 = CARTESIAN_POINT ( 'NONE',  ( 1.364999999999995328, 16.63499999999999801, 0.3175000000000000044 ) ) ;
#165 = VECTOR ( 'NONE', #712, 100.0000000000000000 ) ;
#166 = VECTOR ( 'NONE', #298, 100.0000000000000000 ) ;
#167 = ORIENTED_EDGE ( 'NONE', *, *, #94, .F. ) ;
#168 = EDGE_CURVE ( 'NONE', #17, #587, #911, .T. ) ;
#169 = CARTESIAN_POINT ( 'NONE',  ( 0.000000000000000000, 0.000000000000000000, 0.1349999999999999534 ) ) ;
#170 = DIRECTION ( 'NONE',  ( 1.000000000000000000, 0.000000000000000000, 0.000000000000000000 ) ) ;
#171 = DIRECTION ( 'NONE',  ( 0.000000000000000000, 1.000000000000000000, 0.000000000000000000 ) ) ;
#172 = VERTEX_POINT ( 'NONE', #813 ) ;
#173 = DIRECTION ( 'NONE',  ( 0.000000000000000000, -1.000000000000000000, 0.000000000000000000 ) ) ;
#174 = CARTESIAN_POINT ( 'NONE',  ( 1.199999999999999956, -0.7679571668975722076, 0.1349999999999999534 ) ) ;
#175 = ADVANCED_FACE ( 'NONE', ( #124 ), #562, .F. ) ;
#176 = DIRECTION ( 'NONE',  ( -0.000000000000000000, 0.000000000000000000, 1.000000000000000000 ) ) ;
#177 = VERTEX_POINT ( 'NONE', #129 ) ;
#178 = PLANE ( 'NONE',  #775 ) ;
#179 = EDGE_CURVE ( 'NONE', #360, #954, #741, .T. ) ;
#180 = VECTOR ( 'NONE', #645, 100.0000000000000000 ) ;
#181 = AXIS2_PLACEMENT_3D ( 'NONE', #325, #316, #765 ) ;
#182 = LINE ( 'NONE', #886, #938 ) ;
#183 = DIRECTION ( 'NONE',  ( -1.000000000000000000, 0.000000000000000000, 0.000000000000000000 ) ) ;
#184 = ORIENTED_EDGE ( 'NONE', *, *, #748, .F. ) ;
#185 = DIRECTION ( 'NONE',  ( -0.000000000000000000, 0.000000000000000000, 1.000000000000000000 ) ) ;
#186 = DIRECTION ( 'NONE',  ( 0.000000000000000000, 0.000000000000000000, -1.000000000000000000 ) ) ;
#187 = CARTESIAN_POINT ( 'NONE',  ( -1.500000000000000222, 2.000000000000000444, 0.6350000000000000089 ) ) ;
#188 = ORIENTED_EDGE ( 'NONE', *, *, #1028, .F. ) ;
#189 = EDGE_CURVE ( 'NONE', #1069, #1087, #864, .T. ) ;
#190 = DIRECTION ( 'NONE',  ( -1.249637081581196951E-16, 1.000000000000000000, -0.000000000000000000 ) ) ;
#191 = DIRECTION ( 'NONE',  ( -0.000000000000000000, 0.000000000000000000, 1.000000000000000000 ) ) ;
#192 = FACE_OUTER_BOUND ( 'NONE', #713, .T. ) ;
#193 = CARTESIAN_POINT ( 'NONE',  ( -0.4099999999999999201, 1.820000000000000506, 0.1349999999999999534 ) ) ;
#194 = EDGE_LOOP ( 'NONE', ( #320, #758, #861, #790, #655, #673 ) ) ;
#195 = VECTOR ( 'NONE', #787, 100.0000000000000142 ) ;
#196 = VECTOR ( 'NONE', #317, 100.0000000000000000 ) ;
#197 = CARTESIAN_POINT ( 'NONE',  ( 1.364999999999999991, 1.364999999999998215, 0.3175000000000000044 ) ) ;
#198 = VECTOR ( 'NONE', #282, 100.0000000000000000 ) ;
#199 = EDGE_CURVE ( 'NONE', #824, #850, #895, .T. ) ;
#200 = LINE ( 'NONE', #887, #166 ) ;
#201 = CARTESIAN_POINT ( 'NONE',  ( 16.63499999999999801, 1.365000000000001101, 0.3175000000000000044 ) ) ;
#202 = ORIENTED_EDGE ( 'NONE', *, *, #168, .T. ) ;
#203 = ORIENTED_EDGE ( 'NONE', *, *, #634, .F. ) ;
#204 = LINE ( 'NONE', #1009, #569 ) ;
#205 = FACE_OUTER_BOUND ( 'NONE', #941, .T. ) ;
#206 = FACE_OUTER_BOUND ( 'NONE', #700, .T. ) ;
#207 = EDGE_CURVE ( 'NONE', #274, #740, #391, .T. ) ;
#208 = LINE ( 'NONE', #290, #883 ) ;
#209 = ORIENTED_EDGE ( 'NONE', *, *, #622, .F. ) ;
#210 = ORIENTED_EDGE ( 'NONE', *, *, #136, .T. ) ;
#211 = CARTESIAN_POINT ( 'NONE',  ( 3.735172737399427023E-17, 0.3049999999999999933, 0.6350000000000000089 ) ) ;
#212 = CARTESIAN_POINT ( 'NONE',  ( 2.000000000000000444, 0.4100000000000001421, 0.1349999999999999534 ) ) ;
#213 = LINE ( 'NONE', #140, #180 ) ;
#214 = DIRECTION ( 'NONE',  ( 0.000000000000000000, -1.000000000000000000, 0.000000000000000000 ) ) ;
#215 = EDGE_CURVE ( 'NONE', #694, #59, #310, .T. ) ;
#216 = ORIENTED_EDGE ( 'NONE', *, *, #207, .T. ) ;
#217 = DIRECTION ( 'NONE',  ( 1.000000000000000000, 0.000000000000000000, 0.000000000000000000 ) ) ;
#218 = DIRECTION ( 'NONE',  ( 0.000000000000000000, 1.000000000000000000, 0.000000000000000000 ) ) ;
#219 = AXIS2_PLACEMENT_3D ( 'NONE', #254, #688, #85 ) ;
#220 = DIRECTION ( 'NONE',  ( 1.000000000000000000, 0.000000000000000000, 0.000000000000000000 ) ) ;
#221 = VECTOR ( 'NONE', #947, 100.0000000000000000 ) ;
#222 = ORIENTED_EDGE ( 'NONE', *, *, #535, .T. ) ;
#223 = ADVANCED_FACE ( 'NONE', ( #486 ), #542, .F. ) ;
#224 = FACE_OUTER_BOUND ( 'NONE', #356, .T. ) ;
#225 = CARTESIAN_POINT ( 'NONE',  ( 16.63499999999999801, 1.365000000000001101, 0.6350000000000000089 ) ) ;
#226 = ORIENTED_EDGE ( 'NONE', *, *, #128, .T. ) ;
#227 = VERTEX_POINT ( 'NONE', #197 ) ;
#228 = ADVANCED_BREP_SHAPE_REPRESENTATION ( 'vertex-edge_61', ( #57, #241 ), #641 ) ;
#229 = EDGE_CURVE ( 'NONE', #122, #464, #571, .T. ) ;
#230 = DIRECTION ( 'NONE',  ( -0.000000000000000000, 0.000000000000000000, 1.000000000000000000 ) ) ;
#231 = ORIENTED_EDGE ( 'NONE', *, *, #68, .F. ) ;
#232 = DIRECTION ( 'NONE',  ( 1.000000000000000000, 0.000000000000000000, 0.000000000000000000 ) ) ;
#233 = ORIENTED_EDGE ( 'NONE', *, *, #816, .T. ) ;
#234 = ORIENTED_EDGE ( 'NONE', *, *, #660, .T. ) ;
#235 = DIRECTION ( 'NONE',  ( 3.067291018426574134E-16, -1.000000000000000000, 0.000000000000000000 ) ) ;
#236 = DIRECTION ( 'NONE',  ( 0.8660254037844362651, 0.5000000000000043299, 0.000000000000000000 ) ) ;
#237 = COLOUR_RGB ( '',0.7921568627450980005, 0.8196078431372548767, 0.9333333333333333481 ) ;
#238 = CIRCLE ( 'NONE', #663, 0.3049999999999999933 ) ;
#239 = AXIS2_PLACEMENT_3D ( 'NONE', #34, #289, #638 ) ;
#240 = CARTESIAN_POINT ( 'NONE',  ( -0.4100000000000000311, 2.000000000000000444, 0.1349999999999999534 ) ) ;
#241 = AXIS2_PLACEMENT_3D ( 'NONE', #380, #120, #467 ) ;
#242 = ORIENTED_EDGE ( 'NONE', *, *, #687, .T. ) ;
#243 = CARTESIAN_POINT ( 'NONE',  ( -2.000000000000000444, 0.4099999999999996980, 0.1349999999999999534 ) ) ;
#244 = DIRECTION ( 'NONE',  ( 0.000000000000000000, -1.000000000000000000, 0.000000000000000000 ) ) ;
#245 = ADVANCED_FACE ( 'NONE', ( #550 ), #1095, .F. ) ;
#246 = VERTEX_POINT ( 'NONE', #668 ) ;
#247 = LINE ( 'NONE', #780, #1100 ) ;
#248 = DIRECTION ( 'NONE',  ( -0.000000000000000000, 0.000000000000000000, 1.000000000000000000 ) ) ;
#249 = PLANE ( 'NONE',  #219 ) ;
#250 = EDGE_CURVE ( 'NONE', #372, #177, #652, .T. ) ;
#251 = ORIENTED_EDGE ( 'NONE', *, *, #189, .T. ) ;
#252 = CARTESIAN_POINT ( 'NONE',  ( 2.000000000000000444, -0.4099999999999999201, 0.1349999999999999534 ) ) ;
#253 = CARTESIAN_POINT ( 'NONE',  ( 0.000000000000000000, 0.000000000000000000, 0.3175000000000000044 ) ) ;
#254 = CARTESIAN_POINT ( 'NONE',  ( -2.000000000000000444, -1.000000000000000000, 0.6350000000000000089 ) ) ;
#255 = VECTOR ( 'NONE', #1011, 100.0000000000000000 ) ;
#256 = PLANE ( 'NONE',  #940 ) ;
#257 = AXIS2_PLACEMENT_3D ( 'NONE', #925, #827, #751 ) ;
#258 = AXIS2_PLACEMENT_3D ( 'NONE', #935, #1084, #139 ) ;
#259 = PRODUCT_DEFINITION ( 'UNKNOWN', '', #972, #106 ) ;
#260 = ORIENTED_EDGE ( 'NONE', *, *, #128, .F. ) ;
#261 = EDGE_CURVE ( 'NONE', #1102, #287, #1018, .T. ) ;
#262 = CARTESIAN_POINT ( 'NONE',  ( -2.000000000000000444, 0.4099999999999996980, 0.1349999999999999534 ) ) ;
#263 = DIRECTION ( 'NONE',  ( 1.000000000000000000, 1.931257307898213426E-16, 0.000000000000000000 ) ) ;
#264 = CARTESIAN_POINT ( 'NONE',  ( -1.820000000000000506, 0.4099999999999995870, 0.1349999999999999534 ) ) ;
#265 = ORIENTED_EDGE ( 'NONE', *, *, #1099, .F. ) ;
#266 = DIRECTION ( 'NONE',  ( 0.000000000000000000, -1.000000000000000000, 0.000000000000000000 ) ) ;
#267 = EDGE_CURVE ( 'NONE', #968, #844, #1005, .T. ) ;
#268 = DIRECTION ( 'NONE',  ( 0.000000000000000000, -1.000000000000000000, 0.000000000000000000 ) ) ;
#269 = VERTEX_POINT ( 'NONE', #389 ) ;
#270 =( LENGTH_UNIT ( ) NAMED_UNIT ( * ) SI_UNIT ( .CENTI., .METRE. ) );
#271 = EDGE_CURVE ( 'NONE', #556, #1087, #382, .T. ) ;
#272 = CARTESIAN_POINT ( 'NONE',  ( 1.199999999999999956, -0.7679571668975722076, 0.1349999999999999534 ) ) ;
#273 = UNCERTAINTY_MEASURE_WITH_UNIT (LENGTH_MEASURE( 1.000000000000000082E-05 ), #725, 'distance_accuracy_value', 'NONE');
#274 = VERTEX_POINT ( 'NONE', #469 ) ;
#275 = VECTOR ( 'NONE', #420, 100.0000000000000000 ) ;
#276 = CARTESIAN_POINT ( 'NONE',  ( -1.364999999999998215, 2.000000000000000444, 0.000000000000000000 ) ) ;
#277 = CARTESIAN_POINT ( 'NONE',  ( 1.820000000000000506, -0.4099999999999998646, 0.1349999999999999534 ) ) ;
#278 = CARTESIAN_POINT ( 'NONE',  ( 0.000000000000000000, 0.000000000000000000, 0.000000000000000000 ) ) ;
#279 = EDGE_CURVE ( 'NONE', #541, #360, #927, .T. ) ;
#280 = ORIENTED_EDGE ( 'NONE', *, *, #742, .F. ) ;
#281 = CARTESIAN_POINT ( 'NONE',  ( -2.000000000000000444, 0.4099999999999996980, 0.1349999999999999534 ) ) ;
#282 = DIRECTION ( 'NONE',  ( 3.067291018426574134E-16, -1.000000000000000000, 0.000000000000000000 ) ) ;
#283 = CARTESIAN_POINT ( 'NONE',  ( -2.000000000000000444, -1.000000000000000000, 0.000000000000000000 ) ) ;
#284 = EDGE_LOOP ( 'NONE', ( #1065, #727, #342, #441, #599, #1024, #280, #924, #4, #291, #856, #384, #231, #917, #410, #928, #675, #209, #615, #656, #495, #781, #1002, #1082, #1015, #709 ) ) ;
#285 = EDGE_CURVE ( 'NONE', #1052, #360, #213, .T. ) ;
#286 = CARTESIAN_POINT ( 'NONE',  ( 0.000000000000000000, 0.000000000000000000, 0.000000000000000000 ) ) ;
#287 = VERTEX_POINT ( 'NONE', #559 ) ;
#288 = CARTESIAN_POINT ( 'NONE',  ( 0.7679571668975722076, 1.199999999999999956, 0.1349999999999999534 ) ) ;
#289 = DIRECTION ( 'NONE',  ( -0.5000000000000041078, -0.8660254037844363761, 0.000000000000000000 ) ) ;
#290 = CARTESIAN_POINT ( 'NONE',  ( 2.000000000000000444, 0.4100000000000001421, 0.6350000000000000089 ) ) ;
#291 = ORIENTED_EDGE ( 'NONE', *, *, #279, .F. ) ;
#292 = VECTOR ( 'NONE', #630, 100.0000000000000000 ) ;
#293 = AXIS2_PLACEMENT_3D ( 'NONE', #164, #953, #770 ) ;
#294 = ORIENTED_EDGE ( 'NONE', *, *, #956, .T. ) ;
#295 = DIRECTION ( 'NONE',  ( -0.000000000000000000, 0.000000000000000000, 1.000000000000000000 ) ) ;
#296 = AXIS2_PLACEMENT_3D ( 'NONE', #169, #11, #517 ) ;
#297 = EDGE_CURVE ( 'NONE', #561, #779, #564, .T. ) ;
#298 = DIRECTION ( 'NONE',  ( -1.000000000000000000, 0.000000000000000000, -0.000000000000000000 ) ) ;
#299 = DIRECTION ( 'NONE',  ( 0.8660254037844362651, 0.5000000000000042188, 0.000000000000000000 ) ) ;
#300 = DIRECTION ( 'NONE',  ( -0.000000000000000000, 0.000000000000000000, 1.000000000000000000 ) ) ;
#301 = ORIENTED_EDGE ( 'NONE', *, *, #890, .T. ) ;
#302 = EDGE_LOOP ( 'NONE', ( #570, #584, #1025, #83 ) ) ;
#303 = CARTESIAN_POINT ( 'NONE',  ( 0.000000000000000000, -0.3049999999999999933, 0.000000000000000000 ) ) ;
#304 = DIRECTION ( 'NONE',  ( -0.000000000000000000, 0.000000000000000000, 1.000000000000000000 ) ) ;
#305 = ADVANCED_FACE ( 'NONE', ( #206 ), #306, .F. ) ;
#306 = PLANE ( 'NONE',  #350 ) ;
#307 = PRODUCT_DEFINITION_SHAPE ( 'NONE', 'NONE',  #259 ) ;
#308 = ORIENTED_EDGE ( 'NONE', *, *, #956, .F. ) ;
#309 = EDGE_LOOP ( 'NONE', ( #852, #148, #167, #433 ) ) ;
#310 = LINE ( 'NONE', #657, #1098 ) ;
#311 = CARTESIAN_POINT ( 'NONE',  ( -1.200000000000000178, 0.7679571668975719856, 0.6350000000000000089 ) ) ;
#312 = DIRECTION ( 'NONE',  ( 0.000000000000000000, -1.000000000000000000, 0.000000000000000000 ) ) ;
#313 = CARTESIAN_POINT ( 'NONE',  ( -0.4099999999999999201, 1.820000000000000506, 0.1349999999999999534 ) ) ;
#314 = EDGE_LOOP ( 'NONE', ( #948, #324, #916, #603 ) ) ;
#315 = CARTESIAN_POINT ( 'NONE',  ( 2.000000000000000444, -0.4099999999999999201, 0.1349999999999999534 ) ) ;
#316 = DIRECTION ( 'NONE',  ( 1.000000000000000000, -4.818676322157798361E-16, 0.000000000000000000 ) ) ;
#317 = DIRECTION ( 'NONE',  ( -0.000000000000000000, 0.000000000000000000, 1.000000000000000000 ) ) ;
#318 = AXIS2_PLACEMENT_3D ( 'NONE', #855, #690, #347 ) ;
#319 = EDGE_CURVE ( 'NONE', #227, #541, #322, .T. ) ;
#320 = ORIENTED_EDGE ( 'NONE', *, *, #693, .T. ) ;
#321 = DIRECTION ( 'NONE',  ( 4.818676322157798361E-16, 1.000000000000000000, 0.000000000000000000 ) ) ;
#322 = LINE ( 'NONE', #51, #9 ) ;
#323 = ORIENTED_EDGE ( 'NONE', *, *, #945, .F. ) ;
#324 = ORIENTED_EDGE ( 'NONE', *, *, #319, .F. ) ;
#325 = CARTESIAN_POINT ( 'NONE',  ( 0.4100000000000000311, 2.000000000000000444, 0.1349999999999999534 ) ) ;
#326 = ORIENTED_EDGE ( 'NONE', *, *, #748, .T. ) ;
#327 = DIRECTION ( 'NONE',  ( 0.000000000000000000, 0.000000000000000000, 1.000000000000000000 ) ) ;
#328 = ORIENTED_EDGE ( 'NONE', *, *, #872, .T. ) ;
#329 = CARTESIAN_POINT ( 'NONE',  ( 2.000000000000000444, 0.4100000000000001421, 0.6350000000000000089 ) ) ;
#330 = EDGE_LOOP ( 'NONE', ( #578, #826 ) ) ;
#331 = EDGE_CURVE ( 'NONE', #582, #731, #1091, .T. ) ;
#332 = AXIS2_PLACEMENT_3D ( 'NONE', #949, #72, #1029 ) ;
#333 = AXIS2_PLACEMENT_3D ( 'NONE', #277, #468, #626 ) ;
#334 = LINE ( 'NONE', #692, #95 ) ;
#335 = ORIENTED_EDGE ( 'NONE', *, *, #64, .F. ) ;
#336 = CARTESIAN_POINT ( 'NONE',  ( 1.364999999999999991, 2.000000000000001776, 0.3175000000000000044 ) ) ;
#337 = FACE_OUTER_BOUND ( 'NONE', #665, .T. ) ;
#338 = EDGE_CURVE ( 'NONE', #878, #366, #659, .T. ) ;
#339 = CARTESIAN_POINT ( 'NONE',  ( -2.000000000000000000, -1.500000000000000888, 0.6350000000000000089 ) ) ;
#340 = EDGE_LOOP ( 'NONE', ( #560, #61, #961, #471 ) ) ;
#341 = LINE ( 'NONE', #786, #572 ) ;
#342 = ORIENTED_EDGE ( 'NONE', *, *, #331, .F. ) ;
#343 = DIRECTION ( 'NONE',  ( 0.000000000000000000, 0.000000000000000000, -1.000000000000000000 ) ) ;
#344 = CARTESIAN_POINT ( 'NONE',  ( 0.4099999999999999201, 1.820000000000000506, 0.1349999999999999534 ) ) ;
#345 = EDGE_CURVE ( 'NONE', #951, #764, #822, .T. ) ;
#346 = ORIENTED_EDGE ( 'NONE', *, *, #29, .F. ) ;
#347 = DIRECTION ( 'NONE',  ( 0.000000000000000000, 1.000000000000000000, 0.000000000000000000 ) ) ;
#348 = SURFACE_STYLE_FILL_AREA ( #613 ) ;
#349 = CARTESIAN_POINT ( 'NONE',  ( -0.4100000000000000311, 2.000000000000000444, 0.6350000000000000089 ) ) ;
#350 = AXIS2_PLACEMENT_3D ( 'NONE', #397, #133, #406 ) ;
#351 = VECTOR ( 'NONE', #544, 100.0000000000000142 ) ;
#352 = ORIENTED_EDGE ( 'NONE', *, *, #706, .T. ) ;
#353 = EDGE_CURVE ( 'NONE', #574, #968, #753, .T. ) ;
#354 = FILL_AREA_STYLE_COLOUR ( '', #237 ) ;
#355 = CARTESIAN_POINT ( 'NONE',  ( -0.4099999999999999201, 1.820000000000000506, 0.6350000000000000089 ) ) ;
#356 = EDGE_LOOP ( 'NONE', ( #1072, #496, #869, #649 ) ) ;
#357 = FACE_OUTER_BOUND ( 'NONE', #555, .T. ) ;
#358 =( NAMED_UNIT ( * ) SI_UNIT ( $, .STERADIAN. ) SOLID_ANGLE_UNIT ( ) );
#359 = CARTESIAN_POINT ( 'NONE',  ( 1.820000000000000506, 0.4100000000000000311, 0.1349999999999999534 ) ) ;
#360 = VERTEX_POINT ( 'NONE', #829 ) ;
#361 = CARTESIAN_POINT ( 'NONE',  ( 3.735172737399427023E-17, 0.3049999999999999933, 0.000000000000000000 ) ) ;
#362 = ADVANCED_FACE ( 'NONE', ( #580 ), #932, .F. ) ;
#363 = DIRECTION ( 'NONE',  ( -0.000000000000000000, 0.000000000000000000, 1.000000000000000000 ) ) ;
#364 = VECTOR ( 'NONE', #170, 100.0000000000000000 ) ;
#365 = AXIS2_PLACEMENT_3D ( 'NONE', #1007, #214, #565 ) ;
#366 = VERTEX_POINT ( 'NONE', #1105 ) ;
#367 = VECTOR ( 'NONE', #892, 100.0000000000000000 ) ;
#368 = DIRECTION ( 'NONE',  ( -2.258880508902365962E-16, 1.000000000000000000, -0.000000000000000000 ) ) ;
#369 = CARTESIAN_POINT ( 'NONE',  ( -1.820000000000000506, -0.4100000000000003086, 0.6350000000000000089 ) ) ;
#370 = FACE_OUTER_BOUND ( 'NONE', #766, .T. ) ;
#371 = EDGE_CURVE ( 'NONE', #858, #1043, #586, .T. ) ;
#372 = VERTEX_POINT ( 'NONE', #1080 ) ;
#373 = ORIENTED_EDGE ( 'NONE', *, *, #998, .F. ) ;
#374 = CARTESIAN_POINT ( 'NONE',  ( 2.000000000000000444, 1.500000000000000666, 0.000000000000000000 ) ) ;
#375 = DIRECTION ( 'NONE',  ( 0.000000000000000000, -1.000000000000000000, 0.000000000000000000 ) ) ;
#376 = PLANE ( 'NONE',  #152 ) ;
#377 = ORIENTED_EDGE ( 'NONE', *, *, #285, .T. ) ;
#378 = ADVANCED_FACE ( 'NONE', ( #500 ), #654, .F. ) ;
#379 = LINE ( 'NONE', #1003, #512 ) ;
#380 = CARTESIAN_POINT ( 'NONE',  ( 0.000000000000000000, 0.000000000000000000, 0.000000000000000000 ) ) ;
#381 = DIRECTION ( 'NONE',  ( -0.8660254037844361541, 0.5000000000000042188, 0.000000000000000000 ) ) ;
#382 = LINE ( 'NONE', #475, #255 ) ;
#383 = DIRECTION ( 'NONE',  ( -2.312964634635742957E-16, 1.000000000000000000, 0.000000000000000000 ) ) ;
#384 = ORIENTED_EDGE ( 'NONE', *, *, #338, .F. ) ;
#385 = VECTOR ( 'NONE', #1085, 100.0000000000000000 ) ;
#386 = EDGE_CURVE ( 'NONE', #177, #878, #921, .T. ) ;
#387 = LINE ( 'NONE', #643, #756 ) ;
#388 = PLANE ( 'NONE',  #258 ) ;
#389 = CARTESIAN_POINT ( 'NONE',  ( -1.200000000000000178, 0.7679571668975719856, 0.6350000000000000089 ) ) ;
#390 = ORIENTED_EDGE ( 'NONE', *, *, #353, .T. ) ;
#391 = LINE ( 'NONE', #374, #755 ) ;
#392 = APPLICATION_CONTEXT ( 'automotive_design' ) ;
#393 = PLANE ( 'NONE',  #181 ) ;
#394 = ORIENTED_EDGE ( 'NONE', *, *, #998, .T. ) ;
#395 = DIRECTION ( 'NONE',  ( -0.000000000000000000, 0.000000000000000000, 1.000000000000000000 ) ) ;
#396 = CYLINDRICAL_SURFACE ( 'NONE', #1117, 0.3049999999999999933 ) ;
#397 = CARTESIAN_POINT ( 'NONE',  ( 2.000000000000000444, 1.500000000000000666, 0.000000000000000000 ) ) ;
#398 = EDGE_CURVE ( 'NONE', #740, #1052, #508, .T. ) ;
#399 = AXIS2_PLACEMENT_3D ( 'NONE', #253, #76, #696 ) ;
#400 = ORIENTED_EDGE ( 'NONE', *, *, #914, .F. ) ;
#401 = ORIENTED_EDGE ( 'NONE', *, *, #15, .T. ) ;
#402 = AXIS2_PLACEMENT_3D ( 'NONE', #1110, #697, #598 ) ;
#403 = FACE_OUTER_BOUND ( 'NONE', #302, .T. ) ;
#404 = ORIENTED_EDGE ( 'NONE', *, *, #64, .T. ) ;
#405 = VECTOR ( 'NONE', #186, 100.0000000000000000 ) ;
#406 = DIRECTION ( 'NONE',  ( 0.000000000000000000, -1.000000000000000000, 0.000000000000000000 ) ) ;
#407 = VECTOR ( 'NONE', #510, 100.0000000000000000 ) ;
#408 = EDGE_CURVE ( 'NONE', #246, #122, #639, .T. ) ;
#409 = VERTEX_POINT ( 'NONE', #431 ) ;
#410 = ORIENTED_EDGE ( 'NONE', *, *, #432, .F. ) ;
#411 = CARTESIAN_POINT ( 'NONE',  ( -2.000000000000000444, -0.4100000000000003642, 0.6350000000000000089 ) ) ;
#412 = ORIENTED_EDGE ( 'NONE', *, *, #1106, .F. ) ;
#413 = ORIENTED_EDGE ( 'NONE', *, *, #89, .F. ) ;
#414 = ADVANCED_FACE ( 'NONE', ( #857 ), #249, .T. ) ;
#415 = LINE ( 'NONE', #1123, #275 ) ;
#416 = ORIENTED_EDGE ( 'NONE', *, *, #229, .T. ) ;
#417 = FACE_OUTER_BOUND ( 'NONE', #284, .T. ) ;
#418 = VERTEX_POINT ( 'NONE', #77 ) ;
#419 = ADVANCED_FACE ( 'NONE', ( #515, #417 ), #594, .T. ) ;
#420 = DIRECTION ( 'NONE',  ( 0.000000000000000000, 0.000000000000000000, -1.000000000000000000 ) ) ;
#421 = ORIENTED_EDGE ( 'NONE', *, *, #161, .F. ) ;
#422 = VECTOR ( 'NONE', #728, 100.0000000000000142 ) ;
#423 = VECTOR ( 'NONE', #1113, 100.0000000000000000 ) ;
#424 = DIRECTION ( 'NONE',  ( -0.000000000000000000, 0.000000000000000000, 1.000000000000000000 ) ) ;
#425 = ORIENTED_EDGE ( 'NONE', *, *, #398, .T. ) ;
#426 = DIRECTION ( 'NONE',  ( -0.000000000000000000, 0.000000000000000000, 1.000000000000000000 ) ) ;
#427 = ORIENTED_EDGE ( 'NONE', *, *, #319, .T. ) ;
#428 = DIRECTION ( 'NONE',  ( -0.000000000000000000, 0.000000000000000000, 1.000000000000000000 ) ) ;
#429 = ORIENTED_EDGE ( 'NONE', *, *, #150, .F. ) ;
#430 = LINE ( 'NONE', #434, #423 ) ;
#431 = CARTESIAN_POINT ( 'NONE',  ( 1.499999999999999778, 2.000000000000000444, 0.000000000000000000 ) ) ;
#432 = EDGE_CURVE ( 'NONE', #975, #1043, #1, .T. ) ;
#433 = ORIENTED_EDGE ( 'NONE', *, *, #763, .T. ) ;
#434 = CARTESIAN_POINT ( 'NONE',  ( 1.199999999999999956, -0.7679571668975722076, 0.1349999999999999534 ) ) ;
#435 = DIRECTION ( 'NONE',  ( 1.931257307898213426E-16, -1.000000000000000000, 0.000000000000000000 ) ) ;
#436 = CARTESIAN_POINT ( 'NONE',  ( 2.000000000000000444, -0.4099999999999999201, 0.6350000000000000089 ) ) ;
#437 = VECTOR ( 'NONE', #1115, 100.0000000000000000 ) ;
#438 = VECTOR ( 'NONE', #723, 100.0000000000000000 ) ;
#439 = VECTOR ( 'NONE', #30, 100.0000000000000000 ) ;
#440 = APPLICATION_PROTOCOL_DEFINITION ( 'draft international standard', 'automotive_design', 1998, #392 ) ;
#441 = ORIENTED_EDGE ( 'NONE', *, *, #1056, .F. ) ;
#442 = FACE_OUTER_BOUND ( 'NONE', #41, .T. ) ;
#443 = LINE ( 'NONE', #187, #499 ) ;
#444 = UNCERTAINTY_MEASURE_WITH_UNIT (LENGTH_MEASURE( 1.000000000000000082E-05 ), #270, 'distance_accuracy_value', 'NONE');
#445 = ORIENTED_EDGE ( 'NONE', *, *, #408, .F. ) ;
#446 = EDGE_CURVE ( 'NONE', #1069, #409, #1051, .T. ) ;
#447 = LINE ( 'NONE', #18, #195 ) ;
#448 = DIRECTION ( 'NONE',  ( -1.000000000000000000, 0.000000000000000000, -0.000000000000000000 ) ) ;
#449 = CARTESIAN_POINT ( 'NONE',  ( 2.000000000000000444, 0.4100000000000001421, 0.1349999999999999534 ) ) ;
#450 = EDGE_LOOP ( 'NONE', ( #159, #689, #934, #352, #842, #502 ) ) ;
#451 = SURFACE_STYLE_USAGE ( .BOTH. , #801 ) ;
#452 = ADVANCED_FACE ( 'NONE', ( #160 ), #1044, .F. ) ;
#453 = LINE ( 'NONE', #644, #198 ) ;
#454 = LINE ( 'NONE', #906, #165 ) ;
#455 = VECTOR ( 'NONE', #220, 100.0000000000000000 ) ;
#456 = LINE ( 'NONE', #985, #1116 ) ;
#457 = VERTEX_POINT ( 'NONE', #240 ) ;
#458 = AXIS2_PLACEMENT_3D ( 'NONE', #551, #905, #1066 ) ;
#459 = CARTESIAN_POINT ( 'NONE',  ( 2.000000000000000444, 0.4100000000000001421, 0.1349999999999999534 ) ) ;
#460 = CARTESIAN_POINT ( 'NONE',  ( 1.499999999999999778, 2.000000000000000444, 0.3175000000000000044 ) ) ;
#461 = DIRECTION ( 'NONE',  ( 0.000000000000000000, -1.000000000000000000, 0.000000000000000000 ) ) ;
#462 = EDGE_CURVE ( 'NONE', #587, #750, #778, .T. ) ;
#463 = CARTESIAN_POINT ( 'NONE',  ( 2.000000000000001776, 1.364999999999998437, 0.3175000000000000044 ) ) ;
#464 = VERTEX_POINT ( 'NONE', #944 ) ;
#465 = ORIENTED_EDGE ( 'NONE', *, *, #29, .T. ) ;
#466 = CARTESIAN_POINT ( 'NONE',  ( -0.4099999999999999201, 1.820000000000000506, 0.6350000000000000089 ) ) ;
#467 = DIRECTION ( 'NONE',  ( 1.000000000000000000, 0.000000000000000000, 0.000000000000000000 ) ) ;
#468 = DIRECTION ( 'NONE',  ( 0.5000000000000043299, -0.8660254037844362651, 0.000000000000000000 ) ) ;
#469 = CARTESIAN_POINT ( 'NONE',  ( 2.000000000000000444, 1.500000000000000666, 0.000000000000000000 ) ) ;
#470 = EDGE_CURVE ( 'NONE', #587, #726, #334, .T. ) ;
#471 = ORIENTED_EDGE ( 'NONE', *, *, #462, .T. ) ;
#472 = VERTEX_POINT ( 'NONE', #868 ) ;
#473 = DIRECTION ( 'NONE',  ( 1.000000000000000000, 2.385670792109557660E-16, 0.000000000000000000 ) ) ;
#474 = CARTESIAN_POINT ( 'NONE',  ( 0.000000000000000000, 0.000000000000000000, 0.3175000000000000044 ) ) ;
#475 = CARTESIAN_POINT ( 'NONE',  ( -2.000000000000000000, -1.500000000000000888, 0.000000000000000000 ) ) ;
#476 = DIRECTION ( 'NONE',  ( 1.000000000000000000, 2.312964634635742957E-16, 0.000000000000000000 ) ) ;
#477 = ORIENTED_EDGE ( 'NONE', *, *, #505, .T. ) ;
#478 = VECTOR ( 'NONE', #185, 100.0000000000000000 ) ;
#479 = VECTOR ( 'NONE', #1040, 100.0000000000000000 ) ;
#480 = ORIENTED_EDGE ( 'NONE', *, *, #797, .T. ) ;
#481 = CARTESIAN_POINT ( 'NONE',  ( 0.000000000000000000, 0.000000000000000000, 0.000000000000000000 ) ) ;
#482 = VECTOR ( 'NONE', #109, 100.0000000000000142 ) ;
#483 = CARTESIAN_POINT ( 'NONE',  ( 0.4100000000000000311, 2.000000000000000444, 0.6350000000000000089 ) ) ;
#484 = LINE ( 'NONE', #837, #439 ) ;
#485 = ORIENTED_EDGE ( 'NONE', *, *, #115, .T. ) ;
#486 = FACE_OUTER_BOUND ( 'NONE', #309, .T. ) ;
#487 = EDGE_CURVE ( 'NONE', #123, #694, #1121, .T. ) ;
#488 = DIRECTION ( 'NONE',  ( 0.000000000000000000, -1.000000000000000000, 0.000000000000000000 ) ) ;
#489 = ORIENTED_EDGE ( 'NONE', *, *, #825, .T. ) ;
#490 = ORIENTED_EDGE ( 'NONE', *, *, #834, .F. ) ;
#491 = CARTESIAN_POINT ( 'NONE',  ( 1.364999999999995328, 16.63499999999999801, 0.3175000000000000044 ) ) ;
#492 = ORIENTED_EDGE ( 'NONE', *, *, #754, .T. ) ;
#493 = EDGE_CURVE ( 'NONE', #141, #800, #965, .T. ) ;
#494 = PRESENTATION_LAYER_ASSIGNMENT (  '', '', ( #527 ) ) ;
#495 = ORIENTED_EDGE ( 'NONE', *, *, #988, .F. ) ;
#496 = ORIENTED_EDGE ( 'NONE', *, *, #353, .F. ) ;
#497 = DIRECTION ( 'NONE',  ( -0.8660254037844360431, -0.5000000000000045519, 0.000000000000000000 ) ) ;
#498 = ORIENTED_EDGE ( 'NONE', *, *, #914, .T. ) ;
#499 = VECTOR ( 'NONE', #538, 100.0000000000000000 ) ;
#500 = FACE_OUTER_BOUND ( 'NONE', #1023, .T. ) ;
#501 = ORIENTED_EDGE ( 'NONE', *, *, #297, .T. ) ;
#502 = ORIENTED_EDGE ( 'NONE', *, *, #634, .T. ) ;
#503 = DIRECTION ( 'NONE',  ( 1.000000000000000000, 0.000000000000000000, 0.000000000000000000 ) ) ;
#504 = CARTESIAN_POINT ( 'NONE',  ( -2.000000000000000888, 1.499999999999999112, 0.000000000000000000 ) ) ;
#505 = EDGE_CURVE ( 'NONE', #1087, #472, #960, .T. ) ;
#506 = ORIENTED_EDGE ( 'NONE', *, *, #207, .F. ) ;
#507 = LINE ( 'NONE', #252, #608 ) ;
#508 = LINE ( 'NONE', #704, #529 ) ;
#509 = ORIENTED_EDGE ( 'NONE', *, *, #115, .F. ) ;
#510 = DIRECTION ( 'NONE',  ( -1.000000000000000000, 0.000000000000000000, 0.000000000000000000 ) ) ;
#511 = CARTESIAN_POINT ( 'NONE',  ( -1.200000000000000178, 0.7679571668975719856, 0.1349999999999999534 ) ) ;
#512 = VECTOR ( 'NONE', #835, 100.0000000000000000 ) ;
#513 = VECTOR ( 'NONE', #999, 100.0000000000000000 ) ;
#514 = VECTOR ( 'NONE', #899, 100.0000000000000142 ) ;
#515 = FACE_BOUND ( 'NONE', #330, .T. ) ;
#516 = EDGE_LOOP ( 'NONE', ( #477, #768, #1058, #251 ) ) ;
#517 = DIRECTION ( 'NONE',  ( 0.000000000000000000, 1.000000000000000000, 0.000000000000000000 ) ) ;
#518 = CARTESIAN_POINT ( 'NONE',  ( 0.4099999999999999201, 1.820000000000000506, 0.6350000000000000089 ) ) ;
#519 = ADVANCED_FACE ( 'NONE', ( #6 ), #609, .T. ) ;
#520 = LINE ( 'NONE', #873, #1012 ) ;
#521 = EDGE_LOOP ( 'NONE', ( #10, #107, #958, #485 ) ) ;
#522 = CARTESIAN_POINT ( 'NONE',  ( -1.820000000000000506, -0.4100000000000003086, 0.6350000000000000089 ) ) ;
#523 = CARTESIAN_POINT ( 'NONE',  ( -0.4100000000000000311, 2.000000000000000444, 0.6350000000000000089 ) ) ;
#524 = EDGE_CURVE ( 'NONE', #1114, #796, #520, .T. ) ;
#525 = DIRECTION ( 'NONE',  ( -0.5000000000000042188, -0.8660254037844362651, 0.000000000000000000 ) ) ;
#526 = VERTEX_POINT ( 'NONE', #876 ) ;
#527 = STYLED_ITEM ( 'NONE', ( #1055 ), #57 ) ;
#528 = CARTESIAN_POINT ( 'NONE',  ( -1.364999999999998215, 1.364999999999999991, 0.3175000000000000044 ) ) ;
#529 = VECTOR ( 'NONE', #244, 100.0000000000000000 ) ;
#530 = VECTOR ( 'NONE', #977, 100.0000000000000142 ) ;
#531 = EDGE_CURVE ( 'NONE', #91, #642, #90, .T. ) ;
#532 = EDGE_LOOP ( 'NONE', ( #1101, #620, #853, #157 ) ) ;
#533 = CARTESIAN_POINT ( 'NONE',  ( -1.820000000000000506, -0.4100000000000003086, 0.1349999999999999534 ) ) ;
#534 = ORIENTED_EDGE ( 'NONE', *, *, #611, .F. ) ;
#535 = EDGE_CURVE ( 'NONE', #274, #409, #25, .T. ) ;
#536 = CARTESIAN_POINT ( 'NONE',  ( -2.000000000000000444, -1.000000000000000000, 0.6350000000000000089 ) ) ;
#537 = LINE ( 'NONE', #344, #530 ) ;
#538 = DIRECTION ( 'NONE',  ( 1.000000000000000000, 0.000000000000000000, 0.000000000000000000 ) ) ;
#539 = ORIENTED_EDGE ( 'NONE', *, *, #964, .F. ) ;
#540 = EDGE_CURVE ( 'NONE', #122, #246, #238, .T. ) ;
#541 = VERTEX_POINT ( 'NONE', #553 ) ;
#542 = PLANE ( 'NONE',  #718 ) ;
#543 = EDGE_CURVE ( 'NONE', #595, #968, #454, .T. ) ;
#544 = DIRECTION ( 'NONE',  ( -0.8660254037844362651, 0.5000000000000042188, 0.000000000000000000 ) ) ;
#545 = DIRECTION ( 'NONE',  ( -2.258880508902365962E-16, 1.000000000000000000, 0.000000000000000000 ) ) ;
#546 = VECTOR ( 'NONE', #918, 100.0000000000000000 ) ;
#547 = CARTESIAN_POINT ( 'NONE',  ( -1.500000000000000222, 2.000000000000000444, 0.000000000000000000 ) ) ;
#548 = VERTEX_POINT ( 'NONE', #729 ) ;
#549 = ORIENTED_EDGE ( 'NONE', *, *, #1106, .T. ) ;
#550 = FACE_OUTER_BOUND ( 'NONE', #854, .T. ) ;
#551 = CARTESIAN_POINT ( 'NONE',  ( -2.000000000000000444, -0.4100000000000003642, 0.1349999999999999534 ) ) ;
#552 = ADVANCED_FACE ( 'NONE', ( #984 ), #1067, .F. ) ;
#553 = CARTESIAN_POINT ( 'NONE',  ( 1.364999999999999991, 1.364999999999998215, 0.6350000000000000089 ) ) ;
#554 =( NAMED_UNIT ( * ) SI_UNIT ( $, .STERADIAN. ) SOLID_ANGLE_UNIT ( ) );
#555 = EDGE_LOOP ( 'NONE', ( #628, #534, #909, #501 ) ) ;
#556 = VERTEX_POINT ( 'NONE', #283 ) ;
#557 = LINE ( 'NONE', #119, #79 ) ;
#558 = CARTESIAN_POINT ( 'NONE',  ( 1.820000000000000506, 0.4100000000000000311, 0.1349999999999999534 ) ) ;
#559 = CARTESIAN_POINT ( 'NONE',  ( 1.820000000000000506, -0.4099999999999998646, 0.6350000000000000089 ) ) ;
#560 = ORIENTED_EDGE ( 'NONE', *, *, #907, .T. ) ;
#561 = VERTEX_POINT ( 'NONE', #359 ) ;
#562 = PLANE ( 'NONE',  #257 ) ;
#563 = LINE ( 'NONE', #1022, #971 ) ;
#564 = LINE ( 'NONE', #62, #385 ) ;
#565 = DIRECTION ( 'NONE',  ( 1.000000000000000000, 0.000000000000000000, 0.000000000000000000 ) ) ;
#566 = ORIENTED_EDGE ( 'NONE', *, *, #279, .T. ) ;
#567 = VECTOR ( 'NONE', #368, 100.0000000000000000 ) ;
#568 = EDGE_CURVE ( 'NONE', #274, #903, #973, .T. ) ;
#569 = VECTOR ( 'NONE', #190, 100.0000000000000000 ) ;
#570 = ORIENTED_EDGE ( 'NONE', *, *, #68, .T. ) ;
#571 = LINE ( 'NONE', #838, #847 ) ;
#572 = VECTOR ( 'NONE', #503, 100.0000000000000000 ) ;
#573 = DIRECTION ( 'NONE',  ( 0.000000000000000000, 0.000000000000000000, 1.000000000000000000 ) ) ;
#574 = VERTEX_POINT ( 'NONE', #528 ) ;
#575 = CARTESIAN_POINT ( 'NONE',  ( 0.4100000000000000311, 2.000000000000000444, 0.1349999999999999534 ) ) ;
#576 = EDGE_CURVE ( 'NONE', #457, #91, #1071, .T. ) ;
#577 = EDGE_LOOP ( 'NONE', ( #1046, #37, #986, #1104 ) ) ;
#578 = ORIENTED_EDGE ( 'NONE', *, *, #872, .F. ) ;
#579 = CARTESIAN_POINT ( 'NONE',  ( -0.7679571668975722076, 1.199999999999999956, 0.1349999999999999534 ) ) ;
#580 = FACE_OUTER_BOUND ( 'NONE', #127, .T. ) ;
#581 = ORIENTED_EDGE ( 'NONE', *, *, #161, .T. ) ;
#582 = VERTEX_POINT ( 'NONE', #436 ) ;
#583 = CARTESIAN_POINT ( 'NONE',  ( 0.000000000000000000, 0.000000000000000000, 0.6350000000000000089 ) ) ;
#584 = ORIENTED_EDGE ( 'NONE', *, *, #386, .F. ) ;
#585 = ADVANCED_FACE ( 'NONE', ( #192 ), #1057, .F. ) ;
#586 = LINE ( 'NONE', #121, #149 ) ;
#587 = VERTEX_POINT ( 'NONE', #533 ) ;
#588 = ORIENTED_EDGE ( 'NONE', *, *, #611, .T. ) ;
#589 = VECTOR ( 'NONE', #744, 100.0000000000000000 ) ;
#590 = CARTESIAN_POINT ( 'NONE',  ( -2.000000000000000444, 0.4099999999999996980, 0.1349999999999999534 ) ) ;
#591 = LINE ( 'NONE', #1039, #681 ) ;
#592 = AXIS2_PLACEMENT_3D ( 'NONE', #583, #573, #43 ) ;
#593 = EDGE_CURVE ( 'NONE', #804, #123, #888, .T. ) ;
#594 = PLANE ( 'NONE',  #332 ) ;
#595 = VERTEX_POINT ( 'NONE', #110 ) ;
#596 = DIRECTION ( 'NONE',  ( 0.000000000000000000, -1.000000000000000000, 0.000000000000000000 ) ) ;
#597 = EDGE_LOOP ( 'NONE', ( #294, #933, #506, #222 ) ) ;
#598 = DIRECTION ( 'NONE',  ( 0.000000000000000000, -1.000000000000000000, 0.000000000000000000 ) ) ;
#599 = ORIENTED_EDGE ( 'NONE', *, *, #261, .F. ) ;
#600 = CARTESIAN_POINT ( 'NONE',  ( 0.000000000000000000, 0.000000000000000000, 0.000000000000000000 ) ) ;
#601 = LINE ( 'NONE', #511, #567 ) ;
#602 = CARTESIAN_POINT ( 'NONE',  ( 0.000000000000000000, 0.000000000000000000, 0.6350000000000000089 ) ) ;
#603 = ORIENTED_EDGE ( 'NONE', *, *, #930, .F. ) ;
#604 = ADVANCED_FACE ( 'NONE', ( #1054 ), #178, .T. ) ;
#605 = DIRECTION ( 'NONE',  ( -0.000000000000000000, 0.000000000000000000, 1.000000000000000000 ) ) ;
#606 = VERTEX_POINT ( 'NONE', #803 ) ;
#607 = VECTOR ( 'NONE', #268, 100.0000000000000000 ) ;
#608 = VECTOR ( 'NONE', #87, 100.0000000000000000 ) ;
#609 = CYLINDRICAL_SURFACE ( 'NONE', #736, 2.500000000000000000 ) ;
#610 = ORIENTED_EDGE ( 'NONE', *, *, #724, .F. ) ;
#611 = EDGE_CURVE ( 'NONE', #418, #58, #100, .T. ) ;
#612 = DIRECTION ( 'NONE',  ( -0.000000000000000000, 0.000000000000000000, 1.000000000000000000 ) ) ;
#613 = FILL_AREA_STYLE ('',( #354 ) ) ;
#614 = DIRECTION ( 'NONE',  ( 1.000000000000000000, 0.000000000000000000, 0.000000000000000000 ) ) ;
#615 = ORIENTED_EDGE ( 'NONE', *, *, #267, .F. ) ;
#616 = CARTESIAN_POINT ( 'NONE',  ( -2.000000000000000444, -0.4100000000000003642, 0.1349999999999999534 ) ) ;
#617 = ADVANCED_FACE ( 'NONE', ( #370 ), #717, .F. ) ;
#618 = DIRECTION ( 'NONE',  ( 0.000000000000000000, -1.000000000000000000, 0.000000000000000000 ) ) ;
#619 = SHAPE_DEFINITION_REPRESENTATION ( #307, #228 ) ;
#620 = ORIENTED_EDGE ( 'NONE', *, *, #462, .F. ) ;
#621 = VECTOR ( 'NONE', #53, 100.0000000000000000 ) ;
#622 = EDGE_CURVE ( 'NONE', #844, #91, #443, .T. ) ;
#623 = VECTOR ( 'NONE', #860, 100.0000000000000142 ) ;
#624 = ORIENTED_EDGE ( 'NONE', *, *, #261, .T. ) ;
#625 = LINE ( 'NONE', #281, #1059 ) ;
#626 = DIRECTION ( 'NONE',  ( 0.8660254037844361541, 0.5000000000000042188, 0.000000000000000000 ) ) ;
#627 = DIRECTION ( 'NONE',  ( -0.000000000000000000, 0.000000000000000000, 1.000000000000000000 ) ) ;
#628 = ORIENTED_EDGE ( 'NONE', *, *, #742, .T. ) ;
#629 = ORIENTED_EDGE ( 'NONE', *, *, #345, .F. ) ;
#630 = DIRECTION ( 'NONE',  ( 4.818676322157799347E-16, 1.000000000000000000, 0.000000000000000000 ) ) ;
#631 = DIRECTION ( 'NONE',  ( 0.000000000000000000, 0.000000000000000000, 1.000000000000000000 ) ) ;
#632 = FACE_OUTER_BOUND ( 'NONE', #761, .T. ) ;
#633 = EDGE_LOOP ( 'NONE', ( #498, #489, #74, #1016, #326, #669 ) ) ;
#634 = EDGE_CURVE ( 'NONE', #172, #606, #28, .T. ) ;
#635 = DIRECTION ( 'NONE',  ( -0.000000000000000000, 0.000000000000000000, 1.000000000000000000 ) ) ;
#636 = ORIENTED_EDGE ( 'NONE', *, *, #35, .T. ) ;
#637 = DIRECTION ( 'NONE',  ( 0.000000000000000000, -1.000000000000000000, 0.000000000000000000 ) ) ;
#638 = DIRECTION ( 'NONE',  ( 0.8660254037844362651, -0.5000000000000039968, 0.000000000000000000 ) ) ;
#639 = CIRCLE ( 'NONE', #402, 0.3049999999999999933 ) ;
#640 = ORIENTED_EDGE ( 'NONE', *, *, #593, .T. ) ;
#641 =( GEOMETRIC_REPRESENTATION_CONTEXT ( 3 ) GLOBAL_UNCERTAINTY_ASSIGNED_CONTEXT ( ( #273 ) ) GLOBAL_UNIT_ASSIGNED_CONTEXT ( ( #725, #1086, #554 ) ) REPRESENTATION_CONTEXT ( 'NONE', 'WORKASPACE' ) );
#642 = VERTEX_POINT ( 'NONE', #355 ) ;
#643 = CARTESIAN_POINT ( 'NONE',  ( -16.63499999999999801, 1.364999999999996438, 0.3175000000000000044 ) ) ;
#644 = CARTESIAN_POINT ( 'NONE',  ( 1.364999999999995328, 16.63499999999999801, 0.6350000000000000089 ) ) ;
#645 = DIRECTION ( 'NONE',  ( 0.000000000000000000, 0.000000000000000000, 1.000000000000000000 ) ) ;
#646 = DIRECTION ( 'NONE',  ( 1.000000000000000000, -4.818676322157799347E-16, 0.000000000000000000 ) ) ;
#647 = ORIENTED_EDGE ( 'NONE', *, *, #763, .F. ) ;
#648 = APPLICATION_CONTEXT ( 'automotive_design' ) ;
#649 = ORIENTED_EDGE ( 'NONE', *, *, #754, .F. ) ;
#650 = LINE ( 'NONE', #466, #422 ) ;
#651 = CARTESIAN_POINT ( 'NONE',  ( -1.199999999999999956, -0.7679571668975725407, 0.6350000000000000089 ) ) ;
#652 = LINE ( 'NONE', #575, #683 ) ;
#653 = ADVANCED_FACE ( 'NONE', ( #116 ), #815, .F. ) ;
#654 = PLANE ( 'NONE',  #365 ) ;
#655 = ORIENTED_EDGE ( 'NONE', *, *, #535, .F. ) ;
#656 = ORIENTED_EDGE ( 'NONE', *, *, #543, .F. ) ;
#657 = CARTESIAN_POINT ( 'NONE',  ( -2.000000000000000444, 0.4099999999999996980, 0.6350000000000000089 ) ) ;
#658 = DIRECTION ( 'NONE',  ( -2.258880508902365962E-16, 1.000000000000000000, -0.000000000000000000 ) ) ;
#659 = LINE ( 'NONE', #1097, #772 ) ;
#660 = EDGE_CURVE ( 'NONE', #227, #1052, #991, .T. ) ;
#661 = CARTESIAN_POINT ( 'NONE',  ( 0.7679571668975722076, 1.199999999999999956, 0.6350000000000000089 ) ) ;
#662 = CLOSED_SHELL ( 'NONE', ( #896, #419, #1092, #1112, #305, #519, #789, #378, #807, #7, #223, #1073, #175, #604, #245, #732, #585, #677, #552, #974, #846, #776, #617, #653, #699, #966, #670, #877, #362, #865, #56, #452, #2, #414 ) ) ;
#663 = AXIS2_PLACEMENT_3D ( 'NONE', #278, #631, #375 ) ;
#664 = ORIENTED_EDGE ( 'NONE', *, *, #487, .F. ) ;
#665 = EDGE_LOOP ( 'NONE', ( #636, #1122, #184, #818 ) ) ;
#666 = VECTOR ( 'NONE', #658, 100.0000000000000000 ) ;
#667 = DIRECTION ( 'NONE',  ( 4.818676322157799347E-16, -1.000000000000000000, 0.000000000000000000 ) ) ;
#668 = CARTESIAN_POINT ( 'NONE',  ( 3.735172737399427023E-17, 0.3049999999999999933, 0.000000000000000000 ) ) ;
#669 = ORIENTED_EDGE ( 'NONE', *, *, #250, .T. ) ;
#670 = ADVANCED_FACE ( 'NONE', ( #112 ), #879, .F. ) ;
#671 = ORIENTED_EDGE ( 'NONE', *, *, #84, .T. ) ;
#672 = DIRECTION ( 'NONE',  ( -0.5000000000000045519, 0.8660254037844360431, 0.000000000000000000 ) ) ;
#673 = ORIENTED_EDGE ( 'NONE', *, *, #568, .T. ) ;
#674 = CARTESIAN_POINT ( 'NONE',  ( -1.364999999999999991, 16.63499999999999801, 0.6350000000000000089 ) ) ;
#675 = ORIENTED_EDGE ( 'NONE', *, *, #531, .F. ) ;
#676 = ORIENTED_EDGE ( 'NONE', *, *, #179, .T. ) ;
#677 = ADVANCED_FACE ( 'NONE', ( #357 ), #256, .F. ) ;
#678 = CARTESIAN_POINT ( 'NONE',  ( -1.364999999999998215, 2.000000000000001776, 0.6350000000000000089 ) ) ;
#679 = ORIENTED_EDGE ( 'NONE', *, *, #568, .F. ) ;
#680 = DIRECTION ( 'NONE',  ( 1.000000000000000000, 0.000000000000000000, 0.000000000000000000 ) ) ;
#681 = VECTOR ( 'NONE', #248, 100.0000000000000000 ) ;
#682 = EDGE_LOOP ( 'NONE', ( #465, #1088, #202, #117, #995, #640 ) ) ;
#683 = VECTOR ( 'NONE', #1078, 100.0000000000000000 ) ;
#684 = CARTESIAN_POINT ( 'NONE',  ( 1.499999999999999778, 2.000000000000000444, 0.000000000000000000 ) ) ;
#685 = ORIENTED_EDGE ( 'NONE', *, *, #331, .T. ) ;
#686 = CIRCLE ( 'NONE', #831, 0.3049999999999999933 ) ;
#687 = EDGE_CURVE ( 'NONE', #731, #141, #734, .T. ) ;
#688 = DIRECTION ( 'NONE',  ( 0.000000000000000000, -1.000000000000000000, 0.000000000000000000 ) ) ;
#689 = ORIENTED_EDGE ( 'NONE', *, *, #199, .T. ) ;
#690 = DIRECTION ( 'NONE',  ( 0.000000000000000000, 0.000000000000000000, -1.000000000000000000 ) ) ;
#691 = DIRECTION ( 'NONE',  ( -0.5000000000000042188, 0.8660254037844361541, 0.000000000000000000 ) ) ;
#692 = CARTESIAN_POINT ( 'NONE',  ( -1.820000000000000506, -0.4100000000000003086, 0.1349999999999999534 ) ) ;
#693 = EDGE_CURVE ( 'NONE', #903, #556, #200, .T. ) ;
#694 = VERTEX_POINT ( 'NONE', #104 ) ;
#695 = CARTESIAN_POINT ( 'NONE',  ( -2.000000000000000444, 0.4099999999999997535, 0.1349999999999999534 ) ) ;
#696 = DIRECTION ( 'NONE',  ( 0.000000000000000000, 1.000000000000000000, 0.000000000000000000 ) ) ;
#697 = DIRECTION ( 'NONE',  ( 0.000000000000000000, 0.000000000000000000, 1.000000000000000000 ) ) ;
#698 = LINE ( 'NONE', #1061, #405 ) ;
#699 = ADVANCED_FACE ( 'NONE', ( #802 ), #20, .F. ) ;
#700 = EDGE_LOOP ( 'NONE', ( #1032, #679, #216, #425, #377, #676, #509, #849, #549, #685 ) ) ;
#701 = AXIS2_PLACEMENT_3D ( 'NONE', #1027, #236, #691 ) ;
#702 = LINE ( 'NONE', #243, #900 ) ;
#703 = VECTOR ( 'NONE', #987, 100.0000000000000000 ) ;
#704 = CARTESIAN_POINT ( 'NONE',  ( 2.000000000000000444, 1.500000000000000666, 0.3175000000000000044 ) ) ;
#705 = ORIENTED_EDGE ( 'NONE', *, *, #964, .T. ) ;
#706 = EDGE_CURVE ( 'NONE', #561, #418, #983, .T. ) ;
#707 = LINE ( 'NONE', #522, #623 ) ;
#708 = DIRECTION ( 'NONE',  ( 1.000000000000000000, 1.931257307898213426E-16, 0.000000000000000000 ) ) ;
#709 = ORIENTED_EDGE ( 'NONE', *, *, #73, .F. ) ;
#710 = LINE ( 'NONE', #536, #130 ) ;
#711 = EDGE_CURVE ( 'NONE', #366, #541, #453, .T. ) ;
#712 = DIRECTION ( 'NONE',  ( 1.000000000000000000, 2.385670792109557660E-16, 0.000000000000000000 ) ) ;
#713 = EDGE_LOOP ( 'NONE', ( #1120, #413, #323, #588 ) ) ;
#714 =( NAMED_UNIT ( * ) PLANE_ANGLE_UNIT ( ) SI_UNIT ( $, .RADIAN. ) );
#715 = CARTESIAN_POINT ( 'NONE',  ( -1.199999999999999956, -0.7679571668975725407, 0.1349999999999999534 ) ) ;
#716 = VECTOR ( 'NONE', #891, 100.0000000000000000 ) ;
#717 = PLANE ( 'NONE',  #63 ) ;
#718 = AXIS2_PLACEMENT_3D ( 'NONE', #288, #637, #217 ) ;
#719 = VECTOR ( 'NONE', #708, 100.0000000000000000 ) ;
#720 = ORIENTED_EDGE ( 'NONE', *, *, #505, .F. ) ;
#721 = CARTESIAN_POINT ( 'NONE',  ( -2.000000000000000444, 0.4099999999999996980, 0.6350000000000000089 ) ) ;
#722 = CARTESIAN_POINT ( 'NONE',  ( -0.7679571668975722076, 1.199999999999999956, 0.1349999999999999534 ) ) ;
#723 = DIRECTION ( 'NONE',  ( -0.8660254037844360431, -0.5000000000000045519, 0.000000000000000000 ) ) ;
#724 = EDGE_CURVE ( 'NONE', #246, #145, #821, .T. ) ;
#725 =( LENGTH_UNIT ( ) NAMED_UNIT ( * ) SI_UNIT ( .CENTI., .METRE. ) );
#726 = VERTEX_POINT ( 'NONE', #715 ) ;
#727 = ORIENTED_EDGE ( 'NONE', *, *, #687, .F. ) ;
#728 = DIRECTION ( 'NONE',  ( -0.5000000000000042188, -0.8660254037844362651, 0.000000000000000000 ) ) ;
#729 = CARTESIAN_POINT ( 'NONE',  ( -1.500000000000000222, 2.000000000000000444, 0.3175000000000000044 ) ) ;
#730 = DIRECTION ( 'NONE',  ( 0.000000000000000000, 0.000000000000000000, -1.000000000000000000 ) ) ;
#731 = VERTEX_POINT ( 'NONE', #806 ) ;
#732 = ADVANCED_FACE ( 'NONE', ( #205 ), #912, .F. ) ;
#733 = LINE ( 'NONE', #459, #23 ) ;
#734 = LINE ( 'NONE', #989, #27 ) ;
#735 = CARTESIAN_POINT ( 'NONE',  ( 2.000000000000000444, 1.500000000000000666, 0.6350000000000000089 ) ) ;
#736 = AXIS2_PLACEMENT_3D ( 'NONE', #602, #343, #171 ) ;
#737 = VECTOR ( 'NONE', #304, 100.0000000000000000 ) ;
#738 = CARTESIAN_POINT ( 'NONE',  ( 1.199999999999999956, -0.7679571668975722076, 0.6350000000000000089 ) ) ;
#739 = ORIENTED_EDGE ( 'NONE', *, *, #229, .F. ) ;
#740 = VERTEX_POINT ( 'NONE', #784 ) ;
#741 = LINE ( 'NONE', #1083, #546 ) ;
#742 = EDGE_CURVE ( 'NONE', #779, #58, #26, .T. ) ;
#743 = DIRECTION ( 'NONE',  ( 0.000000000000000000, 1.000000000000000000, 0.000000000000000000 ) ) ;
#744 = DIRECTION ( 'NONE',  ( 1.000000000000000000, 1.931257307898213426E-16, 0.000000000000000000 ) ) ;
#745 = ORIENTED_EDGE ( 'NONE', *, *, #834, .T. ) ;
#746 = DIRECTION ( 'NONE',  ( -0.000000000000000000, 0.000000000000000000, 1.000000000000000000 ) ) ;
#747 = CARTESIAN_POINT ( 'NONE',  ( 2.000000000000000444, -0.4099999999999999201, 0.1349999999999999534 ) ) ;
#748 = EDGE_CURVE ( 'NONE', #858, #372, #537, .T. ) ;
#749 = APPLICATION_PROTOCOL_DEFINITION ( 'draft international standard', 'automotive_design', 1998, #648 ) ;
#750 = VERTEX_POINT ( 'NONE', #369 ) ;
#751 = DIRECTION ( 'NONE',  ( 4.818676322157798361E-16, -1.000000000000000000, 0.000000000000000000 ) ) ;
#752 = CARTESIAN_POINT ( 'NONE',  ( 0.000000000000000000, 0.000000000000000000, 0.6350000000000000089 ) ) ;
#753 = LINE ( 'NONE', #125, #196 ) ;
#754 = EDGE_CURVE ( 'NONE', #595, #81, #698, .T. ) ;
#755 = VECTOR ( 'NONE', #746, 100.0000000000000000 ) ;
#756 = VECTOR ( 'NONE', #473, 100.0000000000000000 ) ;
#757 = ORIENTED_EDGE ( 'NONE', *, *, #524, .F. ) ;
#758 = ORIENTED_EDGE ( 'NONE', *, *, #271, .T. ) ;
#759 = VECTOR ( 'NONE', #300, 100.0000000000000000 ) ;
#760 = LINE ( 'NONE', #1108, #737 ) ;
#761 = EDGE_LOOP ( 'NONE', ( #335, #979, #942, #188, #394, #1020, #492, #581, #720, #22 ) ) ;
#762 = CARTESIAN_POINT ( 'NONE',  ( 1.820000000000000506, -0.4099999999999998646, 0.6350000000000000089 ) ) ;
#763 = EDGE_CURVE ( 'NONE', #796, #975, #897, .T. ) ;
#764 = VERTEX_POINT ( 'NONE', #460 ) ;
#765 = DIRECTION ( 'NONE',  ( 4.818676322157798361E-16, 1.000000000000000000, 0.000000000000000000 ) ) ;
#766 = EDGE_LOOP ( 'NONE', ( #480, #260, #812, #1041 ) ) ;
#767 = CARTESIAN_POINT ( 'NONE',  ( 0.000000000000000000, 0.000000000000000000, 0.000000000000000000 ) ) ;
#768 = ORIENTED_EDGE ( 'NONE', *, *, #937, .T. ) ;
#769 = CARTESIAN_POINT ( 'NONE',  ( 0.4100000000000000311, 2.000000000000000444, 0.1349999999999999534 ) ) ;
#770 = DIRECTION ( 'NONE',  ( 3.067291018426574134E-16, -1.000000000000000000, 0.000000000000000000 ) ) ;
#771 = VECTOR ( 'NONE', #805, 100.0000000000000000 ) ;
#772 = VECTOR ( 'NONE', #232, 100.0000000000000000 ) ;
#773 = CARTESIAN_POINT ( 'NONE',  ( 2.000000000000000444, -1.000000000000000222, 0.000000000000000000 ) ) ;
#774 = PLANE ( 'NONE',  #701 ) ;
#775 = AXIS2_PLACEMENT_3D ( 'NONE', #105, #808, #795 ) ;
#776 = ADVANCED_FACE ( 'NONE', ( #814 ), #33, .F. ) ;
#777 = VECTOR ( 'NONE', #730, 100.0000000000000000 ) ;
#778 = LINE ( 'NONE', #862, #939 ) ;
#779 = VERTEX_POINT ( 'NONE', #851 ) ;
#780 = CARTESIAN_POINT ( 'NONE',  ( -0.4099999999999999201, 1.820000000000000506, 0.1349999999999999534 ) ) ;
#781 = ORIENTED_EDGE ( 'NONE', *, *, #215, .F. ) ;
#782 = EDGE_CURVE ( 'NONE', #850, #561, #147, .T. ) ;
#783 = CARTESIAN_POINT ( 'NONE',  ( -1.500000000000000222, 2.000000000000000444, 0.000000000000000000 ) ) ;
#784 = CARTESIAN_POINT ( 'NONE',  ( 2.000000000000000000, 1.500000000000000222, 0.3175000000000000044 ) ) ;
#785 = ORIENTED_EDGE ( 'NONE', *, *, #1056, .T. ) ;
#786 = CARTESIAN_POINT ( 'NONE',  ( -1.500000000000000222, 2.000000000000000444, 0.3175000000000000044 ) ) ;
#787 = DIRECTION ( 'NONE',  ( -0.5000000000000042188, 0.8660254037844362651, -0.000000000000000000 ) ) ;
#788 = CARTESIAN_POINT ( 'NONE',  ( 0.7679571668975722076, 1.199999999999999956, 0.6350000000000000089 ) ) ;
#789 = ADVANCED_FACE ( 'NONE', ( #50 ), #66, .T. ) ;
#790 = ORIENTED_EDGE ( 'NONE', *, *, #446, .T. ) ;
#791 = FACE_OUTER_BOUND ( 'NONE', #450, .T. ) ;
#792 = CARTESIAN_POINT ( 'NONE',  ( 0.4100000000000000311, 2.000000000000000444, 0.6350000000000000089 ) ) ;
#793 = VECTOR ( 'NONE', #680, 100.0000000000000000 ) ;
#794 = VECTOR ( 'NONE', #605, 100.0000000000000000 ) ;
#795 = DIRECTION ( 'NONE',  ( 0.000000000000000000, -1.000000000000000000, 0.000000000000000000 ) ) ;
#796 = VERTEX_POINT ( 'NONE', #579 ) ;
#797 = EDGE_CURVE ( 'NONE', #841, #269, #828, .T. ) ;
#798 = LINE ( 'NONE', #792, #292 ) ;
#799 = CARTESIAN_POINT ( 'NONE',  ( 1.820000000000000506, -0.4099999999999998646, 0.1349999999999999534 ) ) ;
#800 = VERTEX_POINT ( 'NONE', #411 ) ;
#801 = SURFACE_SIDE_STYLE ('',( #348 ) ) ;
#802 = FACE_OUTER_BOUND ( 'NONE', #532, .T. ) ;
#803 = CARTESIAN_POINT ( 'NONE',  ( 1.820000000000000506, -0.4099999999999998646, 0.1349999999999999534 ) ) ;
#804 = VERTEX_POINT ( 'NONE', #1010 ) ;
#805 = DIRECTION ( 'NONE',  ( -0.000000000000000000, 0.000000000000000000, 1.000000000000000000 ) ) ;
#806 = CARTESIAN_POINT ( 'NONE',  ( 2.000000000000000444, -1.000000000000000000, 0.6350000000000000089 ) ) ;
#807 = ADVANCED_FACE ( 'NONE', ( #403 ), #393, .F. ) ;
#808 = DIRECTION ( 'NONE',  ( 0.000000000000000000, 0.000000000000000000, 1.000000000000000000 ) ) ;
#809 = AXIS2_PLACEMENT_3D ( 'NONE', #449, #21, #16 ) ;
#810 = AXIS2_PLACEMENT_3D ( 'NONE', #752, #131, #743 ) ;
#811 = DIRECTION ( 'NONE',  ( 0.000000000000000000, -1.000000000000000000, 0.000000000000000000 ) ) ;
#812 = ORIENTED_EDGE ( 'NONE', *, *, #19, .F. ) ;
#813 = CARTESIAN_POINT ( 'NONE',  ( 1.199999999999999956, -0.7679571668975722076, 0.1349999999999999534 ) ) ;
#814 = FACE_OUTER_BOUND ( 'NONE', #1021, .T. ) ;
#815 = PLANE ( 'NONE',  #239 ) ;
#816 = EDGE_CURVE ( 'NONE', #951, #227, #926, .T. ) ;
#817 = FACE_BOUND ( 'NONE', #146, .T. ) ;
#818 = ORIENTED_EDGE ( 'NONE', *, *, #371, .T. ) ;
#819 = DIRECTION ( 'NONE',  ( 0.000000000000000000, 1.000000000000000000, 0.000000000000000000 ) ) ;
#820 = PRODUCT_CONTEXT ( 'NONE', #648, 'mechanical' ) ;
#821 = LINE ( 'NONE', #361, #1079 ) ;
#822 = LINE ( 'NONE', #840, #455 ) ;
#823 = LINE ( 'NONE', #135, #777 ) ;
#824 = VERTEX_POINT ( 'NONE', #747 ) ;
#825 = EDGE_CURVE ( 'NONE', #457, #1114, #1096, .T. ) ;
#826 = ORIENTED_EDGE ( 'NONE', *, *, #890, .F. ) ;
#827 = DIRECTION ( 'NONE',  ( -1.000000000000000000, -4.818676322157798361E-16, 0.000000000000000000 ) ) ;
#828 = LINE ( 'NONE', #311, #666 ) ;
#829 = CARTESIAN_POINT ( 'NONE',  ( 2.000000000000001776, 1.364999999999998437, 0.6350000000000000089 ) ) ;
#830 = VECTOR ( 'NONE', #428, 100.0000000000000000 ) ;
#831 = AXIS2_PLACEMENT_3D ( 'NONE', #836, #839, #488 ) ;
#832 = ORIENTED_EDGE ( 'NONE', *, *, #84, .F. ) ;
#833 = AXIS2_PLACEMENT_3D ( 'NONE', #40, #476, #383 ) ;
#834 = EDGE_CURVE ( 'NONE', #606, #287, #760, .T. ) ;
#835 = DIRECTION ( 'NONE',  ( -0.8660254037844360431, -0.5000000000000045519, 0.000000000000000000 ) ) ;
#836 = CARTESIAN_POINT ( 'NONE',  ( 0.000000000000000000, 0.000000000000000000, 0.6350000000000000089 ) ) ;
#837 = CARTESIAN_POINT ( 'NONE',  ( 2.000000000000000444, -0.4099999999999999201, 0.1349999999999999534 ) ) ;
#838 = CARTESIAN_POINT ( 'NONE',  ( 0.000000000000000000, -0.3049999999999999933, 0.000000000000000000 ) ) ;
#839 = DIRECTION ( 'NONE',  ( 0.000000000000000000, 0.000000000000000000, 1.000000000000000000 ) ) ;
#840 = CARTESIAN_POINT ( 'NONE',  ( -1.500000000000000222, 2.000000000000000444, 0.3175000000000000044 ) ) ;
#841 = VERTEX_POINT ( 'NONE', #651 ) ;
#842 = ORIENTED_EDGE ( 'NONE', *, *, #945, .T. ) ;
#843 = DIRECTION ( 'NONE',  ( -1.000000000000000000, 4.818676322157798361E-16, 0.000000000000000000 ) ) ;
#844 = VERTEX_POINT ( 'NONE', #678 ) ;
#845 = DIRECTION ( 'NONE',  ( 1.000000000000000000, 1.249637081581196951E-16, 0.000000000000000000 ) ) ;
#846 = ADVANCED_FACE ( 'NONE', ( #931 ), #1017, .F. ) ;
#847 = VECTOR ( 'NONE', #395, 100.0000000000000000 ) ;
#848 = VECTOR ( 'NONE', #627, 100.0000000000000000 ) ;
#849 = ORIENTED_EDGE ( 'NONE', *, *, #199, .F. ) ;
#850 = VERTEX_POINT ( 'NONE', #60 ) ;
#851 = CARTESIAN_POINT ( 'NONE',  ( 1.820000000000000506, 0.4100000000000000311, 0.6350000000000000089 ) ) ;
#852 = ORIENTED_EDGE ( 'NONE', *, *, #432, .T. ) ;
#853 = ORIENTED_EDGE ( 'NONE', *, *, #168, .F. ) ;
#854 = EDGE_LOOP ( 'NONE', ( #785, #412, #1037, #745 ) ) ;
#855 = CARTESIAN_POINT ( 'NONE',  ( 0.000000000000000000, 0.000000000000000000, 0.1349999999999999534 ) ) ;
#856 = ORIENTED_EDGE ( 'NONE', *, *, #711, .F. ) ;
#857 = FACE_OUTER_BOUND ( 'NONE', #55, .T. ) ;
#858 = VERTEX_POINT ( 'NONE', #1103 ) ;
#859 = EDGE_CURVE ( 'NONE', #372, #101, #563, .T. ) ;
#860 = DIRECTION ( 'NONE',  ( 0.8660254037844362651, -0.5000000000000039968, 0.000000000000000000 ) ) ;
#861 = ORIENTED_EDGE ( 'NONE', *, *, #189, .F. ) ;
#862 = CARTESIAN_POINT ( 'NONE',  ( -1.820000000000000506, -0.4100000000000003086, 0.1349999999999999534 ) ) ;
#863 = EDGE_LOOP ( 'NONE', ( #610, #1008, #416, #328 ) ) ;
#864 = CIRCLE ( 'NONE', #990, 2.500000000000000000 ) ;
#865 = ADVANCED_FACE ( 'NONE', ( #1026 ), #943, .F. ) ;
#866 = CARTESIAN_POINT ( 'NONE',  ( 1.199999999999999956, -0.7679571668975722076, 0.6350000000000000089 ) ) ;
#867 = VECTOR ( 'NONE', #363, 100.0000000000000000 ) ;
#868 = CARTESIAN_POINT ( 'NONE',  ( -2.000000000000000888, 1.499999999999999112, 0.3175000000000000044 ) ) ;
#869 = ORIENTED_EDGE ( 'NONE', *, *, #136, .F. ) ;
#870 = DIRECTION ( 'NONE',  ( -0.000000000000000000, 0.000000000000000000, 1.000000000000000000 ) ) ;
#871 = CARTESIAN_POINT ( 'NONE',  ( 0.7679571668975722076, 1.199999999999999956, 0.1349999999999999534 ) ) ;
#872 = EDGE_CURVE ( 'NONE', #464, #145, #1048, .T. ) ;
#873 = CARTESIAN_POINT ( 'NONE',  ( -0.4099999999999999201, 1.820000000000000506, 0.1349999999999999534 ) ) ;
#874 = ORIENTED_EDGE ( 'NONE', *, *, #576, .F. ) ;
#875 = LINE ( 'NONE', #92, #221 ) ;
#876 = CARTESIAN_POINT ( 'NONE',  ( -1.364999999999998215, 2.000000000000000444, 0.3175000000000000044 ) ) ;
#877 = ADVANCED_FACE ( 'NONE', ( #224 ), #388, .F. ) ;
#878 = VERTEX_POINT ( 'NONE', #483 ) ;
#879 = CYLINDRICAL_SURFACE ( 'NONE', #882, 0.3049999999999999933 ) ;
#880 = LINE ( 'NONE', #616, #478 ) ;
#881 = VECTOR ( 'NONE', #614, 100.0000000000000000 ) ;
#882 = AXIS2_PLACEMENT_3D ( 'NONE', #286, #635, #98 ) ;
#883 = VECTOR ( 'NONE', #915, 100.0000000000000000 ) ;
#884 = CARTESIAN_POINT ( 'NONE',  ( -1.200000000000000178, 0.7679571668975719856, 0.1349999999999999534 ) ) ;
#885 = ORIENTED_EDGE ( 'NONE', *, *, #1014, .T. ) ;
#886 = CARTESIAN_POINT ( 'NONE',  ( -2.000000000000000444, -0.4100000000000003642, 0.6350000000000000089 ) ) ;
#887 = CARTESIAN_POINT ( 'NONE',  ( -2.000000000000000444, -1.000000000000000000, 0.000000000000000000 ) ) ;
#888 = LINE ( 'NONE', #967, #438 ) ;
#889 = ORIENTED_EDGE ( 'NONE', *, *, #622, .T. ) ;
#890 = EDGE_CURVE ( 'NONE', #145, #464, #686, .T. ) ;
#891 = DIRECTION ( 'NONE',  ( 0.000000000000000000, 0.000000000000000000, 1.000000000000000000 ) ) ;
#892 = DIRECTION ( 'NONE',  ( -0.000000000000000000, 0.000000000000000000, 1.000000000000000000 ) ) ;
#893 = CARTESIAN_POINT ( 'NONE',  ( 2.000000000000000444, 1.500000000000000666, 0.000000000000000000 ) ) ;
#894 = ORIENTED_EDGE ( 'NONE', *, *, #408, .T. ) ;
#895 = LINE ( 'NONE', #1089, #1045 ) ;
#896 = ADVANCED_FACE ( 'NONE', ( #54 ), #396, .F. ) ;
#897 = LINE ( 'NONE', #722, #367 ) ;
#898 = AXIS2_PLACEMENT_3D ( 'NONE', #144, #845, #44 ) ;
#899 = DIRECTION ( 'NONE',  ( 0.8660254037844362651, 0.5000000000000042188, 0.000000000000000000 ) ) ;
#900 = VECTOR ( 'NONE', #426, 100.0000000000000000 ) ;
#901 = VECTOR ( 'NONE', #235, 100.0000000000000000 ) ;
#902 = CARTESIAN_POINT ( 'NONE',  ( -1.199999999999999956, -0.7679571668975725407, 0.1349999999999999534 ) ) ;
#903 = VERTEX_POINT ( 'NONE', #773 ) ;
#904 = DIRECTION ( 'NONE',  ( 0.000000000000000000, -1.000000000000000000, 0.000000000000000000 ) ) ;
#905 = DIRECTION ( 'NONE',  ( 4.818676322157798361E-16, -1.000000000000000000, 0.000000000000000000 ) ) ;
#906 = CARTESIAN_POINT ( 'NONE',  ( -16.63499999999999801, 1.364999999999996438, 0.6350000000000000089 ) ) ;
#907 = EDGE_CURVE ( 'NONE', #750, #841, #707, .T. ) ;
#908 = CARTESIAN_POINT ( 'NONE',  ( 0.000000000000000000, 0.000000000000000000, 0.000000000000000000 ) ) ;
#909 = ORIENTED_EDGE ( 'NONE', *, *, #706, .F. ) ;
#910 = VERTEX_POINT ( 'NONE', #695 ) ;
#911 = LINE ( 'NONE', #1070, #703 ) ;
#912 = PLANE ( 'NONE',  #333 ) ;
#913 = DIRECTION ( 'NONE',  ( -0.000000000000000000, 0.000000000000000000, 1.000000000000000000 ) ) ;
#914 = EDGE_CURVE ( 'NONE', #177, #457, #5, .T. ) ;
#915 = DIRECTION ( 'NONE',  ( -1.000000000000000000, -4.818676322157799347E-16, 0.000000000000000000 ) ) ;
#916 = ORIENTED_EDGE ( 'NONE', *, *, #816, .F. ) ;
#917 = ORIENTED_EDGE ( 'NONE', *, *, #35, .F. ) ;
#918 = DIRECTION ( 'NONE',  ( 0.000000000000000000, -1.000000000000000000, 0.000000000000000000 ) ) ;
#919 = DIRECTION ( 'NONE',  ( 0.000000000000000000, 0.000000000000000000, -1.000000000000000000 ) ) ;
#920 = AXIS2_PLACEMENT_3D ( 'NONE', #976, #435, #263 ) ;
#921 = LINE ( 'NONE', #1036, #830 ) ;
#922 = CIRCLE ( 'NONE', #1013, 2.500000000000000000 ) ;
#923 = CARTESIAN_POINT ( 'NONE',  ( -2.000000000000000888, 1.499999999999999334, 0.000000000000000000 ) ) ;
#924 = ORIENTED_EDGE ( 'NONE', *, *, #1047, .F. ) ;
#925 = CARTESIAN_POINT ( 'NONE',  ( -0.4100000000000000311, 2.000000000000000444, 0.1349999999999999534 ) ) ;
#926 = LINE ( 'NONE', #491, #901 ) ;
#927 = LINE ( 'NONE', #225, #589 ) ;
#928 = ORIENTED_EDGE ( 'NONE', *, *, #143, .F. ) ;
#929 = ORIENTED_EDGE ( 'NONE', *, *, #386, .T. ) ;
#930 = EDGE_CURVE ( 'NONE', #366, #951, #415, .T. ) ;
#931 = FACE_OUTER_BOUND ( 'NONE', #65, .T. ) ;
#932 = PLANE ( 'NONE',  #898 ) ;
#933 = ORIENTED_EDGE ( 'NONE', *, *, #950, .T. ) ;
#934 = ORIENTED_EDGE ( 'NONE', *, *, #782, .T. ) ;
#935 = CARTESIAN_POINT ( 'NONE',  ( -16.63499999999999801, 1.364999999999996438, 0.3175000000000000044 ) ) ;
#936 = FACE_OUTER_BOUND ( 'NONE', #86, .T. ) ;
#937 = EDGE_CURVE ( 'NONE', #472, #548, #922, .T. ) ;
#938 = VECTOR ( 'NONE', #1050, 100.0000000000000000 ) ;
#939 = VECTOR ( 'NONE', #176, 100.0000000000000000 ) ;
#940 = AXIS2_PLACEMENT_3D ( 'NONE', #1076, #997, #381 ) ;
#941 = EDGE_LOOP ( 'NONE', ( #624, #490, #203, #1064 ) ) ;
#942 = ORIENTED_EDGE ( 'NONE', *, *, #49, .F. ) ;
#943 = PLANE ( 'NONE',  #1031 ) ;
#944 = CARTESIAN_POINT ( 'NONE',  ( 0.000000000000000000, -0.3049999999999999933, 0.6350000000000000089 ) ) ;
#945 = EDGE_CURVE ( 'NONE', #418, #172, #430, .T. ) ;
#946 = ORIENTED_EDGE ( 'NONE', *, *, #215, .T. ) ;
#947 = DIRECTION ( 'NONE',  ( -2.312964634635742957E-16, 1.000000000000000000, 0.000000000000000000 ) ) ;
#948 = ORIENTED_EDGE ( 'NONE', *, *, #711, .T. ) ;
#949 = CARTESIAN_POINT ( 'NONE',  ( 0.000000000000000000, 0.000000000000000000, 0.6350000000000000089 ) ) ;
#950 = EDGE_CURVE ( 'NONE', #764, #740, #151, .T. ) ;
#951 = VERTEX_POINT ( 'NONE', #336 ) ;
#952 = PLANE ( 'NONE',  #318 ) ;
#953 = DIRECTION ( 'NONE',  ( -1.000000000000000000, -3.067291018426574134E-16, 0.000000000000000000 ) ) ;
#954 = VERTEX_POINT ( 'NONE', #329 ) ;
#955 = VECTOR ( 'NONE', #312, 100.0000000000000000 ) ;
#956 = EDGE_CURVE ( 'NONE', #409, #764, #1042, .T. ) ;
#957 = CARTESIAN_POINT ( 'NONE',  ( -1.364999999999998215, 1.364999999999999991, 0.6350000000000000089 ) ) ;
#958 = ORIENTED_EDGE ( 'NONE', *, *, #782, .F. ) ;
#959 = AXIS2_PLACEMENT_3D ( 'NONE', #272, #183, #618 ) ;
#960 = LINE ( 'NONE', #504, #479 ) ;
#961 = ORIENTED_EDGE ( 'NONE', *, *, #470, .F. ) ;
#962 = DIRECTION ( 'NONE',  ( 0.000000000000000000, 1.000000000000000000, 0.000000000000000000 ) ) ;
#963 = LINE ( 'NONE', #276, #716 ) ;
#964 = EDGE_CURVE ( 'NONE', #548, #526, #341, .T. ) ;
#965 = LINE ( 'NONE', #339, #437 ) ;
#966 = ADVANCED_FACE ( 'NONE', ( #162 ), #952, .F. ) ;
#967 = CARTESIAN_POINT ( 'NONE',  ( -1.820000000000000506, 0.4099999999999995870, 0.1349999999999999534 ) ) ;
#968 = VERTEX_POINT ( 'NONE', #957 ) ;
#969 = DIRECTION ( 'NONE',  ( 0.000000000000000000, 0.000000000000000000, -1.000000000000000000 ) ) ;
#970 = VECTOR ( 'NONE', #424, 100.0000000000000000 ) ;
#971 = VECTOR ( 'NONE', #230, 100.0000000000000000 ) ;
#972 = PRODUCT_DEFINITION_FORMATION_WITH_SPECIFIED_SOURCE ( 'ANY', '', #1075, .NOT_KNOWN. ) ;
#973 = LINE ( 'NONE', #893, #607 ) ;
#974 = ADVANCED_FACE ( 'NONE', ( #791 ), #1038, .F. ) ;
#975 = VERTEX_POINT ( 'NONE', #158 ) ;
#976 = CARTESIAN_POINT ( 'NONE',  ( 16.63499999999999801, 1.365000000000001101, 0.3175000000000000044 ) ) ;
#977 = DIRECTION ( 'NONE',  ( -0.5000000000000042188, 0.8660254037844362651, -0.000000000000000000 ) ) ;
#978 = CARTESIAN_POINT ( 'NONE',  ( 1.199999999999999956, 0.7679571668975723187, 0.1349999999999999534 ) ) ;
#979 = ORIENTED_EDGE ( 'NONE', *, *, #493, .T. ) ;
#980 = EDGE_CURVE ( 'NONE', #58, #1102, #75, .T. ) ;
#981 = ORIENTED_EDGE ( 'NONE', *, *, #593, .F. ) ;
#982 = DIRECTION ( 'NONE',  ( -4.818676322157798361E-16, -1.000000000000000000, 0.000000000000000000 ) ) ;
#983 = LINE ( 'NONE', #558, #482 ) ;
#984 = FACE_OUTER_BOUND ( 'NONE', #521, .T. ) ;
#985 = CARTESIAN_POINT ( 'NONE',  ( 2.000000000000000444, -0.4099999999999999201, 0.6350000000000000089 ) ) ;
#986 = ORIENTED_EDGE ( 'NONE', *, *, #825, .F. ) ;
#987 = DIRECTION ( 'NONE',  ( 1.000000000000000000, 4.818676322157799347E-16, 0.000000000000000000 ) ) ;
#988 = EDGE_CURVE ( 'NONE', #59, #595, #875, .T. ) ;
#989 = CARTESIAN_POINT ( 'NONE',  ( -2.000000000000000444, -1.000000000000000000, 0.6350000000000000089 ) ) ;
#990 = AXIS2_PLACEMENT_3D ( 'NONE', #481, #48, #904 ) ;
#991 = LINE ( 'NONE', #201, #719 ) ;
#992 = AXIS2_PLACEMENT_3D ( 'NONE', #590, #321, #843 ) ;
#993 = FACE_OUTER_BOUND ( 'NONE', #194, .T. ) ;
#994 = ORIENTED_EDGE ( 'NONE', *, *, #724, .T. ) ;
#995 = ORIENTED_EDGE ( 'NONE', *, *, #19, .T. ) ;
#996 = CARTESIAN_POINT ( 'NONE',  ( -1.200000000000000178, 0.7679571668975719856, 0.1349999999999999534 ) ) ;
#997 = DIRECTION ( 'NONE',  ( 0.5000000000000043299, 0.8660254037844362651, 0.000000000000000000 ) ) ;
#998 = EDGE_CURVE ( 'NONE', #910, #59, #702, .T. ) ;
#999 = DIRECTION ( 'NONE',  ( -1.249637081581196951E-16, 1.000000000000000000, -0.000000000000000000 ) ) ;
#1000 = DIRECTION ( 'NONE',  ( -0.5000000000000042188, -0.8660254037844361541, 0.000000000000000000 ) ) ;
#1001 = ORIENTED_EDGE ( 'NONE', *, *, #267, .T. ) ;
#1002 = ORIENTED_EDGE ( 'NONE', *, *, #102, .F. ) ;
#1003 = CARTESIAN_POINT ( 'NONE',  ( -1.820000000000000506, 0.4099999999999995870, 0.6350000000000000089 ) ) ;
#1004 = CARTESIAN_POINT ( 'NONE',  ( -0.4100000000000000311, 2.000000000000000444, 0.1349999999999999534 ) ) ;
#1005 = LINE ( 'NONE', #674, #513 ) ;
#1006 = PRODUCT_RELATED_PRODUCT_CATEGORY ( 'part', '', ( #1075 ) ) ;
#1007 = CARTESIAN_POINT ( 'NONE',  ( -1.500000000000000222, 2.000000000000000444, 0.000000000000000000 ) ) ;
#1008 = ORIENTED_EDGE ( 'NONE', *, *, #540, .F. ) ;
#1009 = CARTESIAN_POINT ( 'NONE',  ( -1.364999999999999991, 16.63499999999999801, 0.3175000000000000044 ) ) ;
#1010 = CARTESIAN_POINT ( 'NONE',  ( -1.200000000000000178, 0.7679571668975719856, 0.1349999999999999534 ) ) ;
#1011 = DIRECTION ( 'NONE',  ( -2.312964634635742957E-16, 1.000000000000000000, 0.000000000000000000 ) ) ;
#1012 = VECTOR ( 'NONE', #525, 100.0000000000000142 ) ;
#1013 = AXIS2_PLACEMENT_3D ( 'NONE', #70, #154, #962 ) ;
#1014 = EDGE_CURVE ( 'NONE', #1114, #642, #247, .T. ) ;
#1015 = ORIENTED_EDGE ( 'NONE', *, *, #907, .F. ) ;
#1016 = ORIENTED_EDGE ( 'NONE', *, *, #94, .T. ) ;
#1017 = PLANE ( 'NONE',  #992 ) ;
#1018 = LINE ( 'NONE', #762, #1060 ) ;
#1019 = EDGE_CURVE ( 'NONE', #606, #824, #507, .T. ) ;
#1020 = ORIENTED_EDGE ( 'NONE', *, *, #988, .T. ) ;
#1021 = EDGE_LOOP ( 'NONE', ( #96, #664, #981, #226 ) ) ;
#1022 = CARTESIAN_POINT ( 'NONE',  ( 0.4099999999999999201, 1.820000000000000506, 0.1349999999999999534 ) ) ;
#1023 = EDGE_LOOP ( 'NONE', ( #153, #47, #1068, #308, #14, #401, #705, #671, #889, #874, #400, #929 ) ) ;
#1024 = ORIENTED_EDGE ( 'NONE', *, *, #980, .F. ) ;
#1025 = ORIENTED_EDGE ( 'NONE', *, *, #250, .F. ) ;
#1026 = FACE_OUTER_BOUND ( 'NONE', #163, .T. ) ;
#1027 = CARTESIAN_POINT ( 'NONE',  ( 0.4099999999999999201, 1.820000000000000506, 0.1349999999999999534 ) ) ;
#1028 = EDGE_CURVE ( 'NONE', #910, #17, #1049, .T. ) ;
#1029 = DIRECTION ( 'NONE',  ( 0.000000000000000000, -1.000000000000000000, 0.000000000000000000 ) ) ;
#1030 = AXIS2_PLACEMENT_3D ( 'NONE', #315, #982, #1074 ) ;
#1031 = AXIS2_PLACEMENT_3D ( 'NONE', #474, #919, #218 ) ;
#1032 = ORIENTED_EDGE ( 'NONE', *, *, #1099, .T. ) ;
#1033 = DIRECTION ( 'NONE',  ( 0.000000000000000000, 0.000000000000000000, -1.000000000000000000 ) ) ;
#1034 = ORIENTED_EDGE ( 'NONE', *, *, #398, .F. ) ;
#1035 = EDGE_CURVE ( 'NONE', #726, #841, #1093, .T. ) ;
#1036 = CARTESIAN_POINT ( 'NONE',  ( 0.4100000000000000311, 2.000000000000000444, 0.1349999999999999534 ) ) ;
#1037 = ORIENTED_EDGE ( 'NONE', *, *, #1019, .F. ) ;
#1038 = PLANE ( 'NONE',  #296 ) ;
#1039 = CARTESIAN_POINT ( 'NONE',  ( -1.500000000000000222, 2.000000000000000444, 0.000000000000000000 ) ) ;
#1040 = DIRECTION ( 'NONE',  ( -0.000000000000000000, 0.000000000000000000, 1.000000000000000000 ) ) ;
#1041 = ORIENTED_EDGE ( 'NONE', *, *, #1035, .T. ) ;
#1042 = LINE ( 'NONE', #684, #794 ) ;
#1043 = VERTEX_POINT ( 'NONE', #661 ) ;
#1044 = PLANE ( 'NONE',  #293 ) ;
#1045 = VECTOR ( 'NONE', #819, 100.0000000000000000 ) ;
#1046 = ORIENTED_EDGE ( 'NONE', *, *, #531, .T. ) ;
#1047 = EDGE_CURVE ( 'NONE', #954, #779, #208, .T. ) ;
#1048 = CIRCLE ( 'NONE', #592, 0.3049999999999999933 ) ;
#1049 = LINE ( 'NONE', #262, #114 ) ;
#1050 = DIRECTION ( 'NONE',  ( 1.000000000000000000, 4.818676322157799347E-16, 0.000000000000000000 ) ) ;
#1051 = LINE ( 'NONE', #783, #793 ) ;
#1052 = VERTEX_POINT ( 'NONE', #463 ) ;
#1053 = DIRECTION ( 'NONE',  ( -1.000000000000000000, 4.818676322157799347E-16, -0.000000000000000000 ) ) ;
#1054 = FACE_OUTER_BOUND ( 'NONE', #633, .T. ) ;
#1055 = PRESENTATION_STYLE_ASSIGNMENT (( #451 ) ) ;
#1056 = EDGE_CURVE ( 'NONE', #287, #582, #456, .T. ) ;
#1057 = PLANE ( 'NONE',  #959 ) ;
#1058 = ORIENTED_EDGE ( 'NONE', *, *, #15, .F. ) ;
#1059 = VECTOR ( 'NONE', #1053, 100.0000000000000000 ) ;
#1060 = VECTOR ( 'NONE', #299, 100.0000000000000142 ) ;
#1061 = CARTESIAN_POINT ( 'NONE',  ( -2.000000000000000888, 1.364999999999999991, 0.000000000000000000 ) ) ;
#1062 = AXIS2_PLACEMENT_3D ( 'NONE', #1119, #1033, #82 ) ;
#1063 = DIRECTION ( 'NONE',  ( 1.000000000000000000, 2.258880508902365962E-16, 0.000000000000000000 ) ) ;
#1064 = ORIENTED_EDGE ( 'NONE', *, *, #89, .T. ) ;
#1065 = ORIENTED_EDGE ( 'NONE', *, *, #493, .F. ) ;
#1066 = DIRECTION ( 'NONE',  ( 1.000000000000000000, 4.818676322157798361E-16, 0.000000000000000000 ) ) ;
#1067 = PLANE ( 'NONE',  #809 ) ;
#1068 = ORIENTED_EDGE ( 'NONE', *, *, #345, .T. ) ;
#1069 = VERTEX_POINT ( 'NONE', #547 ) ;
#1070 = CARTESIAN_POINT ( 'NONE',  ( -2.000000000000000444, -0.4100000000000003642, 0.1349999999999999534 ) ) ;
#1071 = LINE ( 'NONE', #13, #848 ) ;
#1072 = ORIENTED_EDGE ( 'NONE', *, *, #543, .T. ) ;
#1073 = ADVANCED_FACE ( 'NONE', ( #36 ), #126, .F. ) ;
#1074 = DIRECTION ( 'NONE',  ( 1.000000000000000000, -4.818676322157798361E-16, 0.000000000000000000 ) ) ;
#1075 = PRODUCT ( 'vertex-edge_61', 'vertex-edge_61', '', ( #820 ) ) ;
#1076 = CARTESIAN_POINT ( 'NONE',  ( 1.820000000000000506, 0.4100000000000000311, 0.1349999999999999534 ) ) ;
#1077 = AXIS2_PLACEMENT_3D ( 'NONE', #767, #327, #461 ) ;
#1078 = DIRECTION ( 'NONE',  ( 4.818676322157799347E-16, 1.000000000000000000, 0.000000000000000000 ) ) ;
#1079 = VECTOR ( 'NONE', #191, 100.0000000000000000 ) ;
#1080 = CARTESIAN_POINT ( 'NONE',  ( 0.4099999999999999201, 1.820000000000000506, 0.1349999999999999534 ) ) ;
#1081 = DIRECTION ( 'NONE',  ( 0.000000000000000000, 0.000000000000000000, 1.000000000000000000 ) ) ;
#1082 = ORIENTED_EDGE ( 'NONE', *, *, #797, .F. ) ;
#1083 = CARTESIAN_POINT ( 'NONE',  ( 2.000000000000000444, 1.500000000000000666, 0.6350000000000000089 ) ) ;
#1084 = DIRECTION ( 'NONE',  ( 2.385670792109557660E-16, -1.000000000000000000, 0.000000000000000000 ) ) ;
#1085 = DIRECTION ( 'NONE',  ( -0.000000000000000000, 0.000000000000000000, 1.000000000000000000 ) ) ;
#1086 =( NAMED_UNIT ( * ) PLANE_ANGLE_UNIT ( ) SI_UNIT ( $, .RADIAN. ) );
#1087 = VERTEX_POINT ( 'NONE', #923 ) ;
#1088 = ORIENTED_EDGE ( 'NONE', *, *, #1028, .T. ) ;
#1089 = CARTESIAN_POINT ( 'NONE',  ( 2.000000000000000444, -0.4099999999999999201, 0.1349999999999999534 ) ) ;
#1090 = CARTESIAN_POINT ( 'NONE',  ( -1.820000000000000506, 0.4099999999999995870, 0.1349999999999999534 ) ) ;
#1091 = LINE ( 'NONE', #735, #955 ) ;
#1092 = ADVANCED_FACE ( 'NONE', ( #817, #993 ), #376, .F. ) ;
#1093 = LINE ( 'NONE', #902, #759 ) ;
#1094 = EDGE_LOOP ( 'NONE', ( #118, #647, #757, #885 ) ) ;
#1095 = PLANE ( 'NONE',  #1030 ) ;
#1096 = LINE ( 'NONE', #1004, #97 ) ;
#1097 = CARTESIAN_POINT ( 'NONE',  ( -1.500000000000000222, 2.000000000000000444, 0.6350000000000000089 ) ) ;
#1098 = VECTOR ( 'NONE', #113, 100.0000000000000000 ) ;
#1099 = EDGE_CURVE ( 'NONE', #731, #903, #823, .T. ) ;
#1100 = VECTOR ( 'NONE', #870, 100.0000000000000000 ) ;
#1101 = ORIENTED_EDGE ( 'NONE', *, *, #73, .T. ) ;
#1102 = VERTEX_POINT ( 'NONE', #738 ) ;
#1103 = CARTESIAN_POINT ( 'NONE',  ( 0.7679571668975722076, 1.199999999999999956, 0.1349999999999999534 ) ) ;
#1104 = ORIENTED_EDGE ( 'NONE', *, *, #576, .T. ) ;
#1105 = CARTESIAN_POINT ( 'NONE',  ( 1.364999999999999991, 2.000000000000001776, 0.6350000000000000089 ) ) ;
#1106 = EDGE_CURVE ( 'NONE', #824, #582, #484, .T. ) ;
#1107 = ORIENTED_EDGE ( 'NONE', *, *, #660, .F. ) ;
#1108 = CARTESIAN_POINT ( 'NONE',  ( 1.820000000000000506, -0.4099999999999998646, 0.1349999999999999534 ) ) ;
#1109 = ORIENTED_EDGE ( 'NONE', *, *, #285, .F. ) ;
#1110 = CARTESIAN_POINT ( 'NONE',  ( 0.000000000000000000, 0.000000000000000000, 0.000000000000000000 ) ) ;
#1111 = ORIENTED_EDGE ( 'NONE', *, *, #693, .F. ) ;
#1112 = ADVANCED_FACE ( 'NONE', ( #632 ), #52, .F. ) ;
#1113 = DIRECTION ( 'NONE',  ( 0.000000000000000000, -1.000000000000000000, 0.000000000000000000 ) ) ;
#1114 = VERTEX_POINT ( 'NONE', #313 ) ;
#1115 = DIRECTION ( 'NONE',  ( -2.312964634635742957E-16, 1.000000000000000000, 0.000000000000000000 ) ) ;
#1116 = VECTOR ( 'NONE', #646, 100.0000000000000000 ) ;
#1117 = AXIS2_PLACEMENT_3D ( 'NONE', #600, #612, #266 ) ;
#1118 = ORIENTED_EDGE ( 'NONE', *, *, #150, .T. ) ;
#1119 = CARTESIAN_POINT ( 'NONE',  ( 0.000000000000000000, 0.000000000000000000, 0.3175000000000000044 ) ) ;
#1120 = ORIENTED_EDGE ( 'NONE', *, *, #980, .T. ) ;
#1121 = LINE ( 'NONE', #264, #970 ) ;
#1122 = ORIENTED_EDGE ( 'NONE', *, *, #859, .F. ) ;
#1123 = CARTESIAN_POINT ( 'NONE',  ( 1.364999999999999769, 2.000000000000000444, 0.000000000000000000 ) ) ;
ENDSEC;
END-ISO-10303-21;
