ISO-10303-21;
HEADER;
FILE_DESCRIPTION (( 'STEP AP214' ),
    '1' );
FILE_NAME ('vertex-corner_62.STEP',
    '2026-06-17T01:46:15',
    ( '' ),
    ( '' ),
    'SwSTEP 2.0',
    'SolidWorks 2023',
    '' );
FILE_SCHEMA (( 'AUTOMOTIVE_DESIGN' ));
ENDSEC;

DATA;
#1 = EDGE_CURVE ( 'NONE', #186, #242, #296, .T. ) ;
#2 = VECTOR ( 'NONE', #545, 100.0000000000000000 ) ;
#3 = DIRECTION ( 'NONE',  ( -1.000000000000000000, 0.000000000000000000, 0.000000000000000000 ) ) ;
#4 = AXIS2_PLACEMENT_3D ( 'NONE', #346, #603, #354 ) ;
#5 = DIRECTION ( 'NONE',  ( 0.000000000000000000, -1.000000000000000000, 0.000000000000000000 ) ) ;
#6 = ORIENTED_EDGE ( 'NONE', *, *, #334, .T. ) ;
#7 = CARTESIAN_POINT ( 'NONE',  ( -1.500000000000000222, 2.000000000000000444, 0.000000000000000000 ) ) ;
#8 = DIRECTION ( 'NONE',  ( -1.000000000000000000, 0.000000000000000000, -0.000000000000000000 ) ) ;
#9 = VERTEX_POINT ( 'NONE', #470 ) ;
#10 = PRESENTATION_STYLE_ASSIGNMENT (( #579 ) ) ;
#11 = FACE_OUTER_BOUND ( 'NONE', #461, .T. ) ;
#12 = EDGE_CURVE ( 'NONE', #768, #648, #35, .T. ) ;
#13 = VERTEX_POINT ( 'NONE', #21 ) ;
#14 = ORIENTED_EDGE ( 'NONE', *, *, #12, .F. ) ;
#15 = LINE ( 'NONE', #573, #575 ) ;
#16 = DIRECTION ( 'NONE',  ( -0.5000000000000042188, -0.8660254037844362651, 0.000000000000000000 ) ) ;
#17 =( GEOMETRIC_REPRESENTATION_CONTEXT ( 3 ) GLOBAL_UNCERTAINTY_ASSIGNED_CONTEXT ( ( #364 ) ) GLOBAL_UNIT_ASSIGNED_CONTEXT ( ( #662, #416, #45 ) ) REPRESENTATION_CONTEXT ( 'NONE', 'WORKASPACE' ) );
#18 = VECTOR ( 'NONE', #113, 100.0000000000000000 ) ;
#19 = AXIS2_PLACEMENT_3D ( 'NONE', #337, #392, #469 ) ;
#20 = EDGE_CURVE ( 'NONE', #752, #772, #164, .T. ) ;
#21 = CARTESIAN_POINT ( 'NONE',  ( 3.796405077356794548E-17, 0.3099999999999999978, 0.000000000000000000 ) ) ;
#22 = ORIENTED_EDGE ( 'NONE', *, *, #26, .T. ) ;
#23 = CARTESIAN_POINT ( 'NONE',  ( 1.000000000000000000, 2.000000000000000444, 0.6350000000000000089 ) ) ;
#24 = CARTESIAN_POINT ( 'NONE',  ( -1.364999999999998215, 1.364999999999999991, 0.6350000000000000089 ) ) ;
#25 = DIRECTION ( 'NONE',  ( 1.000000000000000000, 1.249637081581196951E-16, 0.000000000000000000 ) ) ;
#26 = EDGE_CURVE ( 'NONE', #741, #647, #723, .T. ) ;
#27 = DIRECTION ( 'NONE',  ( -0.000000000000000000, 0.000000000000000000, 1.000000000000000000 ) ) ;
#28 = CARTESIAN_POINT ( 'NONE',  ( 1.000000000000000222, -1.000000000000000000, 0.000000000000000000 ) ) ;
#29 = VERTEX_POINT ( 'NONE', #664 ) ;
#30 = SHAPE_DEFINITION_REPRESENTATION ( #659, #132 ) ;
#31 = EDGE_CURVE ( 'NONE', #152, #741, #92, .T. ) ;
#32 = PLANE ( 'NONE',  #112 ) ;
#33 = AXIS2_PLACEMENT_3D ( 'NONE', #207, #403, #514 ) ;
#34 = VECTOR ( 'NONE', #232, 100.0000000000000000 ) ;
#35 = LINE ( 'NONE', #418, #421 ) ;
#36 = ORIENTED_EDGE ( 'NONE', *, *, #533, .T. ) ;
#37 = DIRECTION ( 'NONE',  ( -0.5000000000000042188, 0.8660254037844361541, 0.000000000000000000 ) ) ;
#38 = ADVANCED_FACE ( 'NONE', ( #352 ), #161, .T. ) ;
#39 = PRODUCT_DEFINITION_CONTEXT ( 'detailed design', #665, 'design' ) ;
#40 = DIRECTION ( 'NONE',  ( -0.5000000000000042188, -0.8660254037844362651, 0.000000000000000000 ) ) ;
#41 = VERTEX_POINT ( 'NONE', #674 ) ;
#42 = CARTESIAN_POINT ( 'NONE',  ( -2.000000000000000444, 0.4099999999999996980, 0.1349999999999999534 ) ) ;
#43 = LINE ( 'NONE', #686, #766 ) ;
#44 = ORIENTED_EDGE ( 'NONE', *, *, #444, .T. ) ;
#45 =( NAMED_UNIT ( * ) SI_UNIT ( $, .STERADIAN. ) SOLID_ANGLE_UNIT ( ) );
#46 = FACE_OUTER_BOUND ( 'NONE', #476, .T. ) ;
#47 = DIRECTION ( 'NONE',  ( -0.000000000000000000, 0.000000000000000000, 1.000000000000000000 ) ) ;
#48 = EDGE_CURVE ( 'NONE', #410, #50, #730, .T. ) ;
#49 = PRESENTATION_LAYER_ASSIGNMENT (  '', '', ( #274 ) ) ;
#50 = VERTEX_POINT ( 'NONE', #89 ) ;
#51 = LINE ( 'NONE', #811, #445 ) ;
#52 = DIRECTION ( 'NONE',  ( 0.8660254037844362651, -0.5000000000000039968, 0.000000000000000000 ) ) ;
#53 = ORIENTED_EDGE ( 'NONE', *, *, #681, .F. ) ;
#54 = EDGE_CURVE ( 'NONE', #599, #816, #300, .T. ) ;
#55 = CYLINDRICAL_SURFACE ( 'NONE', #339, 1.000000000000000000 ) ;
#56 = LINE ( 'NONE', #641, #621 ) ;
#57 = ORIENTED_EDGE ( 'NONE', *, *, #499, .T. ) ;
#58 = FACE_OUTER_BOUND ( 'NONE', #557, .T. ) ;
#59 = ADVANCED_FACE ( 'NONE', ( #605 ), #660, .F. ) ;
#60 = VECTOR ( 'NONE', #173, 100.0000000000000000 ) ;
#61 = ORIENTED_EDGE ( 'NONE', *, *, #764, .F. ) ;
#62 = VECTOR ( 'NONE', #94, 100.0000000000000000 ) ;
#63 = VECTOR ( 'NONE', #767, 100.0000000000000000 ) ;
#64 = AXIS2_PLACEMENT_3D ( 'NONE', #497, #700, #706 ) ;
#65 = PLANE ( 'NONE',  #806 ) ;
#66 = EDGE_LOOP ( 'NONE', ( #359, #787, #496, #178 ) ) ;
#67 = CARTESIAN_POINT ( 'NONE',  ( -1.199999999999999956, -0.7679571668975725407, 0.1349999999999999534 ) ) ;
#68 = EDGE_CURVE ( 'NONE', #744, #731, #228, .T. ) ;
#69 = EDGE_LOOP ( 'NONE', ( #643, #442 ) ) ;
#70 = CARTESIAN_POINT ( 'NONE',  ( -1.200000000000000178, 0.7679571668975719856, 0.1349999999999999534 ) ) ;
#71 = FACE_BOUND ( 'NONE', #69, .T. ) ;
#72 = ORIENTED_EDGE ( 'NONE', *, *, #414, .F. ) ;
#73 = LINE ( 'NONE', #148, #316 ) ;
#74 = DIRECTION ( 'NONE',  ( 4.818676322157799347E-16, -1.000000000000000000, 0.000000000000000000 ) ) ;
#75 = ORIENTED_EDGE ( 'NONE', *, *, #670, .F. ) ;
#76 = ORIENTED_EDGE ( 'NONE', *, *, #271, .T. ) ;
#77 = FILL_AREA_STYLE_COLOUR ( '', #422 ) ;
#78 = EDGE_CURVE ( 'NONE', #50, #744, #478, .T. ) ;
#79 = CARTESIAN_POINT ( 'NONE',  ( -1.820000000000000506, -0.4100000000000003086, 0.6350000000000000089 ) ) ;
#80 = ORIENTED_EDGE ( 'NONE', *, *, #254, .F. ) ;
#81 = DIRECTION ( 'NONE',  ( 4.818676322157799347E-16, 1.000000000000000000, 0.000000000000000000 ) ) ;
#82 = EDGE_CURVE ( 'NONE', #642, #752, #739, .T. ) ;
#83 = DIRECTION ( 'NONE',  ( 0.000000000000000000, -1.000000000000000000, 0.000000000000000000 ) ) ;
#84 = CARTESIAN_POINT ( 'NONE',  ( 0.000000000000000000, -0.3099999999999999978, 0.6350000000000000089 ) ) ;
#85 = DIRECTION ( 'NONE',  ( -1.000000000000000000, 4.818676322157799347E-16, -0.000000000000000000 ) ) ;
#86 = DIRECTION ( 'NONE',  ( 0.000000000000000000, -1.000000000000000000, 0.000000000000000000 ) ) ;
#87 = CIRCLE ( 'NONE', #780, 0.3099999999999999978 ) ;
#88 = VECTOR ( 'NONE', #344, 100.0000000000000000 ) ;
#89 = CARTESIAN_POINT ( 'NONE',  ( -0.7679571668975722076, 1.199999999999999956, 0.1349999999999999534 ) ) ;
#90 = VERTEX_POINT ( 'NONE', #84 ) ;
#91 = DIRECTION ( 'NONE',  ( -0.000000000000000000, 0.000000000000000000, 1.000000000000000000 ) ) ;
#92 = LINE ( 'NONE', #406, #817 ) ;
#93 = VERTEX_POINT ( 'NONE', #338 ) ;
#94 = DIRECTION ( 'NONE',  ( 1.000000000000000000, 0.000000000000000000, 0.000000000000000000 ) ) ;
#95 = DIRECTION ( 'NONE',  ( -2.258880508902365962E-16, 1.000000000000000000, 0.000000000000000000 ) ) ;
#96 = ORIENTED_EDGE ( 'NONE', *, *, #520, .F. ) ;
#97 = CARTESIAN_POINT ( 'NONE',  ( -0.4099999999999999201, 1.820000000000000506, 0.1349999999999999534 ) ) ;
#98 = AXIS2_PLACEMENT_3D ( 'NONE', #309, #753, #558 ) ;
#99 = VECTOR ( 'NONE', #154, 100.0000000000000000 ) ;
#100 = CARTESIAN_POINT ( 'NONE',  ( -0.4099999999999999201, 1.820000000000000506, 0.1349999999999999534 ) ) ;
#101 = ORIENTED_EDGE ( 'NONE', *, *, #233, .T. ) ;
#102 = CARTESIAN_POINT ( 'NONE',  ( 0.000000000000000000, 0.000000000000000000, 0.000000000000000000 ) ) ;
#103 = LINE ( 'NONE', #556, #128 ) ;
#104 = ORIENTED_EDGE ( 'NONE', *, *, #205, .F. ) ;
#105 = APPLICATION_PROTOCOL_DEFINITION ( 'draft international standard', 'automotive_design', 1998, #465 ) ;
#106 = DIRECTION ( 'NONE',  ( 4.818676322157798361E-16, -1.000000000000000000, 0.000000000000000000 ) ) ;
#107 = EDGE_CURVE ( 'NONE', #268, #813, #601, .T. ) ;
#108 = PRODUCT_RELATED_PRODUCT_CATEGORY ( 'part', '', ( #293 ) ) ;
#109 = FACE_OUTER_BOUND ( 'NONE', #472, .T. ) ;
#110 = ORIENTED_EDGE ( 'NONE', *, *, #384, .T. ) ;
#111 = CARTESIAN_POINT ( 'NONE',  ( 0.4099999999999999201, 1.820000000000000506, 0.1349999999999999534 ) ) ;
#112 = AXIS2_PLACEMENT_3D ( 'NONE', #294, #367, #106 ) ;
#113 = DIRECTION ( 'NONE',  ( -1.249637081581196951E-16, 1.000000000000000000, -0.000000000000000000 ) ) ;
#114 = ADVANCED_FACE ( 'NONE', ( #721 ), #290, .F. ) ;
#115 = VECTOR ( 'NONE', #214, 100.0000000000000000 ) ;
#116 = ORIENTED_EDGE ( 'NONE', *, *, #205, .T. ) ;
#117 = DIRECTION ( 'NONE',  ( 0.000000000000000000, 0.000000000000000000, 1.000000000000000000 ) ) ;
#118 = LINE ( 'NONE', #622, #703 ) ;
#119 = EDGE_CURVE ( 'NONE', #824, #90, #401, .T. ) ;
#120 = ORIENTED_EDGE ( 'NONE', *, *, #499, .F. ) ;
#121 = DIRECTION ( 'NONE',  ( 0.000000000000000000, 0.000000000000000000, -1.000000000000000000 ) ) ;
#122 = ORIENTED_EDGE ( 'NONE', *, *, #770, .T. ) ;
#123 = DIRECTION ( 'NONE',  ( -2.312964634635742957E-16, 1.000000000000000000, 0.000000000000000000 ) ) ;
#124 = AXIS2_PLACEMENT_3D ( 'NONE', #400, #653, #83 ) ;
#125 = ORIENTED_EDGE ( 'NONE', *, *, #307, .T. ) ;
#126 = PRODUCT_DEFINITION_FORMATION_WITH_SPECIFIED_SOURCE ( 'ANY', '', #293, .NOT_KNOWN. ) ;
#127 = PLANE ( 'NONE',  #98 ) ;
#128 = VECTOR ( 'NONE', #683, 100.0000000000000000 ) ;
#129 = EDGE_LOOP ( 'NONE', ( #505, #371, #125, #158 ) ) ;
#130 = CARTESIAN_POINT ( 'NONE',  ( -1.820000000000000506, 0.4099999999999995870, 0.6350000000000000089 ) ) ;
#131 = DIRECTION ( 'NONE',  ( -0.8660254037844362651, 0.5000000000000043299, 0.000000000000000000 ) ) ;
#132 = ADVANCED_BREP_SHAPE_REPRESENTATION ( 'vertex-corner_62', ( #794, #4 ), #17 ) ;
#133 = ORIENTED_EDGE ( 'NONE', *, *, #156, .F. ) ;
#134 = DIRECTION ( 'NONE',  ( 0.000000000000000000, -1.000000000000000000, 0.000000000000000000 ) ) ;
#135 = CYLINDRICAL_SURFACE ( 'NONE', #524, 2.500000000000000000 ) ;
#136 = EDGE_LOOP ( 'NONE', ( #479, #374, #594, #196, #457, #122 ) ) ;
#137 = VECTOR ( 'NONE', #460, 100.0000000000000000 ) ;
#138 = ORIENTED_EDGE ( 'NONE', *, *, #78, .F. ) ;
#139 = PLANE ( 'NONE',  #33 ) ;
#140 = VECTOR ( 'NONE', #429, 100.0000000000000000 ) ;
#141 = AXIS2_PLACEMENT_3D ( 'NONE', #370, #131, #805 ) ;
#142 = LINE ( 'NONE', #722, #423 ) ;
#143 = ORIENTED_EDGE ( 'NONE', *, *, #200, .T. ) ;
#144 = EDGE_CURVE ( 'NONE', #762, #678, #284, .T. ) ;
#145 = FACE_OUTER_BOUND ( 'NONE', #184, .T. ) ;
#146 = CYLINDRICAL_SURFACE ( 'NONE', #124, 0.3099999999999999978 ) ;
#147 = CARTESIAN_POINT ( 'NONE',  ( -1.364999999999999991, 16.63499999999999801, 0.3175000000000000044 ) ) ;
#148 = CARTESIAN_POINT ( 'NONE',  ( -16.63499999999999801, 1.364999999999996438, 0.3175000000000000044 ) ) ;
#149 = CARTESIAN_POINT ( 'NONE',  ( -2.000000000000000888, 1.499999999999999112, 0.3175000000000000044 ) ) ;
#150 = ADVANCED_FACE ( 'NONE', ( #313 ), #424, .F. ) ;
#151 = CARTESIAN_POINT ( 'NONE',  ( -1.820000000000000506, 0.4099999999999995870, 0.6350000000000000089 ) ) ;
#152 = VERTEX_POINT ( 'NONE', #626 ) ;
#153 = FACE_OUTER_BOUND ( 'NONE', #577, .T. ) ;
#154 = DIRECTION ( 'NONE',  ( -0.000000000000000000, 0.000000000000000000, 1.000000000000000000 ) ) ;
#155 = VECTOR ( 'NONE', #40, 100.0000000000000142 ) ;
#156 = EDGE_CURVE ( 'NONE', #446, #509, #249, .T. ) ;
#157 = CARTESIAN_POINT ( 'NONE',  ( 0.7679571668975722076, 1.199999999999999956, 0.1349999999999999534 ) ) ;
#158 = ORIENTED_EDGE ( 'NONE', *, *, #248, .T. ) ;
#159 = CARTESIAN_POINT ( 'NONE',  ( 0.000000000000000000, -0.3099999999999999978, 0.000000000000000000 ) ) ;
#160 = CARTESIAN_POINT ( 'NONE',  ( 0.000000000000000000, 0.000000000000000000, 0.6350000000000000089 ) ) ;
#161 = PLANE ( 'NONE',  #183 ) ;
#162 = ORIENTED_EDGE ( 'NONE', *, *, #244, .T. ) ;
#163 = CYLINDRICAL_SURFACE ( 'NONE', #519, 0.3099999999999999978 ) ;
#164 = LINE ( 'NONE', #280, #435 ) ;
#165 = EDGE_LOOP ( 'NONE', ( #197, #566, #6, #415 ) ) ;
#166 = DIRECTION ( 'NONE',  ( -0.000000000000000000, -0.000000000000000000, -1.000000000000000000 ) ) ;
#167 = VECTOR ( 'NONE', #696, 100.0000000000000000 ) ;
#168 = VECTOR ( 'NONE', #247, 100.0000000000000000 ) ;
#169 = CIRCLE ( 'NONE', #19, 2.500000000000000000 ) ;
#170 = DIRECTION ( 'NONE',  ( 0.000000000000000000, 0.000000000000000000, 1.000000000000000000 ) ) ;
#171 = ORIENTED_EDGE ( 'NONE', *, *, #462, .F. ) ;
#172 = EDGE_CURVE ( 'NONE', #29, #226, #118, .T. ) ;
#173 = DIRECTION ( 'NONE',  ( -2.312964634635742957E-16, 1.000000000000000000, 0.000000000000000000 ) ) ;
#174 = CARTESIAN_POINT ( 'NONE',  ( 0.4099999999999999201, 1.820000000000000506, 0.1349999999999999534 ) ) ;
#175 = EDGE_LOOP ( 'NONE', ( #432, #143, #705, #582, #639 ) ) ;
#176 = CARTESIAN_POINT ( 'NONE',  ( -1.364999999999998215, 1.364999999999999991, 0.3175000000000000044 ) ) ;
#177 = CARTESIAN_POINT ( 'NONE',  ( 0.000000000000000000, 0.000000000000000000, 0.3175000000000000044 ) ) ;
#178 = ORIENTED_EDGE ( 'NONE', *, *, #156, .T. ) ;
#179 = DIRECTION ( 'NONE',  ( 1.000000000000000000, 0.000000000000000000, 0.000000000000000000 ) ) ;
#180 = ADVANCED_FACE ( 'NONE', ( #109 ), #617, .F. ) ;
#181 = LINE ( 'NONE', #325, #341 ) ;
#182 = VECTOR ( 'NONE', #426, 100.0000000000000000 ) ;
#183 = AXIS2_PLACEMENT_3D ( 'NONE', #735, #225, #413 ) ;
#184 = EDGE_LOOP ( 'NONE', ( #44, #624, #138, #272 ) ) ;
#185 = CARTESIAN_POINT ( 'NONE',  ( -1.200000000000000178, 0.7679571668975719856, 0.1349999999999999534 ) ) ;
#186 = VERTEX_POINT ( 'NONE', #560 ) ;
#187 = CARTESIAN_POINT ( 'NONE',  ( -0.4100000000000000311, 2.000000000000000444, 0.1349999999999999534 ) ) ;
#188 = ORIENTED_EDGE ( 'NONE', *, *, #320, .T. ) ;
#189 = CARTESIAN_POINT ( 'NONE',  ( -2.000000000000000000, -1.500000000000000888, 0.000000000000000000 ) ) ;
#190 = ORIENTED_EDGE ( 'NONE', *, *, #327, .F. ) ;
#191 = AXIS2_PLACEMENT_3D ( 'NONE', #324, #649, #510 ) ;
#192 = VECTOR ( 'NONE', #785, 100.0000000000000000 ) ;
#193 = CARTESIAN_POINT ( 'NONE',  ( -1.500000000000000222, 2.000000000000000444, 0.3175000000000000044 ) ) ;
#194 = ADVANCED_FACE ( 'NONE', ( #449 ), #387, .T. ) ;
#195 = CARTESIAN_POINT ( 'NONE',  ( -1.364999999999999991, 16.63499999999999801, 0.3175000000000000044 ) ) ;
#196 = ORIENTED_EDGE ( 'NONE', *, *, #78, .T. ) ;
#197 = ORIENTED_EDGE ( 'NONE', *, *, #200, .F. ) ;
#198 =( LENGTH_UNIT ( ) NAMED_UNIT ( * ) SI_UNIT ( .CENTI., .METRE. ) );
#199 = CARTESIAN_POINT ( 'NONE',  ( 0.000000000000000000, 0.000000000000000000, 0.6350000000000000089 ) ) ;
#200 = EDGE_CURVE ( 'NONE', #390, #816, #747, .T. ) ;
#201 = ORIENTED_EDGE ( 'NONE', *, *, #542, .T. ) ;
#202 = ORIENTED_EDGE ( 'NONE', *, *, #172, .T. ) ;
#203 = DIRECTION ( 'NONE',  ( -0.000000000000000000, 0.000000000000000000, 1.000000000000000000 ) ) ;
#204 = CARTESIAN_POINT ( 'NONE',  ( -1.999999999999999112, -1.000000000000000000, 0.000000000000000000 ) ) ;
#205 = EDGE_CURVE ( 'NONE', #425, #9, #43, .T. ) ;
#206 = EDGE_LOOP ( 'NONE', ( #799, #610 ) ) ;
#207 = CARTESIAN_POINT ( 'NONE',  ( -1.820000000000000506, -0.4100000000000003086, 0.1349999999999999534 ) ) ;
#208 = AXIS2_PLACEMENT_3D ( 'NONE', #147, #25, #592 ) ;
#209 = CIRCLE ( 'NONE', #646, 0.3099999999999999978 ) ;
#210 = LINE ( 'NONE', #515, #99 ) ;
#211 = ORIENTED_EDGE ( 'NONE', *, *, #31, .F. ) ;
#212 = CARTESIAN_POINT ( 'NONE',  ( 0.7679571668975722076, 1.199999999999999956, 0.6350000000000000089 ) ) ;
#213 = CARTESIAN_POINT ( 'NONE',  ( 1.000000000000000000, 2.000000000000000444, 0.000000000000000000 ) ) ;
#214 = DIRECTION ( 'NONE',  ( -2.312964634635742957E-16, 1.000000000000000000, 0.000000000000000000 ) ) ;
#215 = ORIENTED_EDGE ( 'NONE', *, *, #388, .T. ) ;
#216 = DIRECTION ( 'NONE',  ( 1.000000000000000000, 0.000000000000000000, 0.000000000000000000 ) ) ;
#217 = EDGE_CURVE ( 'NONE', #684, #629, #181, .T. ) ;
#218 = DIRECTION ( 'NONE',  ( 0.000000000000000000, 1.000000000000000000, 0.000000000000000000 ) ) ;
#219 = DIRECTION ( 'NONE',  ( -0.8660254037844360431, -0.5000000000000045519, 0.000000000000000000 ) ) ;
#220 = ORIENTED_EDGE ( 'NONE', *, *, #82, .T. ) ;
#221 =( NAMED_UNIT ( * ) PLANE_ANGLE_UNIT ( ) SI_UNIT ( $, .RADIAN. ) );
#222 = DIRECTION ( 'NONE',  ( -2.312964634635742957E-16, 1.000000000000000000, 0.000000000000000000 ) ) ;
#223 = AXIS2_PLACEMENT_3D ( 'NONE', #160, #733, #800 ) ;
#224 = VECTOR ( 'NONE', #535, 100.0000000000000000 ) ;
#225 = DIRECTION ( 'NONE',  ( 0.000000000000000000, -1.000000000000000000, 0.000000000000000000 ) ) ;
#226 = VERTEX_POINT ( 'NONE', #241 ) ;
#227 = CARTESIAN_POINT ( 'NONE',  ( 0.000000000000000000, -1.000000000000000000, 0.6350000000000000089 ) ) ;
#228 = LINE ( 'NONE', #801, #88 ) ;
#229 = EDGE_LOOP ( 'NONE', ( #796, #53, #760, #258, #748, #503, #522, #286, #162, #220 ) ) ;
#230 =( NAMED_UNIT ( * ) SI_UNIT ( $, .STERADIAN. ) SOLID_ANGLE_UNIT ( ) );
#231 = LINE ( 'NONE', #412, #485 ) ;
#232 = DIRECTION ( 'NONE',  ( 5.782411586589356160E-17, -1.000000000000000000, 0.000000000000000000 ) ) ;
#233 = EDGE_CURVE ( 'NONE', #731, #509, #56, .T. ) ;
#234 = EDGE_LOOP ( 'NONE', ( #437, #561, #291, #201 ) ) ;
#235 = LINE ( 'NONE', #42, #182 ) ;
#236 = VECTOR ( 'NONE', #16, 100.0000000000000142 ) ;
#237 = DIRECTION ( 'NONE',  ( -0.5000000000000042188, 0.8660254037844362651, -0.000000000000000000 ) ) ;
#238 = ORIENTED_EDGE ( 'NONE', *, *, #821, .T. ) ;
#239 = ADVANCED_FACE ( 'NONE', ( #71, #574 ), #694, .F. ) ;
#240 = CARTESIAN_POINT ( 'NONE',  ( -2.000000000000000444, 0.4099999999999997535, 0.1349999999999999534 ) ) ;
#241 = CARTESIAN_POINT ( 'NONE',  ( -0.4100000000000000311, 2.000000000000000444, 0.6350000000000000089 ) ) ;
#242 = VERTEX_POINT ( 'NONE', #310 ) ;
#243 = CARTESIAN_POINT ( 'NONE',  ( 1.156482317317871478E-16, 0.000000000000000000, 0.6350000000000000089 ) ) ;
#244 = EDGE_CURVE ( 'NONE', #607, #642, #103, .T. ) ;
#245 = FACE_OUTER_BOUND ( 'NONE', #175, .T. ) ;
#246 = ORIENTED_EDGE ( 'NONE', *, *, #233, .F. ) ;
#247 = DIRECTION ( 'NONE',  ( 0.000000000000000000, 0.000000000000000000, 1.000000000000000000 ) ) ;
#248 = EDGE_CURVE ( 'NONE', #186, #376, #306, .T. ) ;
#249 = LINE ( 'NONE', #174, #63 ) ;
#250 = VECTOR ( 'NONE', #219, 100.0000000000000000 ) ;
#251 = AXIS2_PLACEMENT_3D ( 'NONE', #737, #732, #480 ) ;
#252 = EDGE_LOOP ( 'NONE', ( #362, #454, #75, #202 ) ) ;
#253 = CARTESIAN_POINT ( 'NONE',  ( 0.000000000000000000, -1.000000000000000000, 0.000000000000000000 ) ) ;
#254 = EDGE_CURVE ( 'NONE', #629, #647, #754, .T. ) ;
#255 = ORIENTED_EDGE ( 'NONE', *, *, #1, .F. ) ;
#256 = FACE_OUTER_BOUND ( 'NONE', #353, .T. ) ;
#257 = ADVANCED_FACE ( 'NONE', ( #373 ), #492, .F. ) ;
#258 = ORIENTED_EDGE ( 'NONE', *, *, #54, .T. ) ;
#259 = PLANE ( 'NONE',  #564 ) ;
#260 = VERTEX_POINT ( 'NONE', #809 ) ;
#261 = VECTOR ( 'NONE', #222, 100.0000000000000000 ) ;
#262 = CARTESIAN_POINT ( 'NONE',  ( 1.000000000000000222, 0.000000000000000000, 0.6350000000000000089 ) ) ;
#263 = LINE ( 'NONE', #771, #357 ) ;
#264 = ORIENTED_EDGE ( 'NONE', *, *, #307, .F. ) ;
#265 = CARTESIAN_POINT ( 'NONE',  ( -1.500000000000000222, 2.000000000000000444, 0.6350000000000000089 ) ) ;
#266 = ADVANCED_FACE ( 'NONE', ( #245 ), #751, .F. ) ;
#267 = CARTESIAN_POINT ( 'NONE',  ( -0.7679571668975722076, 1.199999999999999956, 0.1349999999999999534 ) ) ;
#268 = VERTEX_POINT ( 'NONE', #213 ) ;
#269 = PLANE ( 'NONE',  #677 ) ;
#270 = FACE_OUTER_BOUND ( 'NONE', #234, .T. ) ;
#271 = EDGE_CURVE ( 'NONE', #314, #152, #452, .T. ) ;
#272 = ORIENTED_EDGE ( 'NONE', *, *, #365, .T. ) ;
#273 = VECTOR ( 'NONE', #305, 100.0000000000000000 ) ;
#274 = STYLED_ITEM ( 'NONE', ( #10 ), #794 ) ;
#275 = EDGE_LOOP ( 'NONE', ( #350, #548, #215, #757, #539, #516 ) ) ;
#276 = LINE ( 'NONE', #396, #498 ) ;
#277 = AXIS2_PLACEMENT_3D ( 'NONE', #812, #500, #815 ) ;
#278 = VECTOR ( 'NONE', #650, 100.0000000000000000 ) ;
#279 = LINE ( 'NONE', #333, #137 ) ;
#280 = CARTESIAN_POINT ( 'NONE',  ( 1.000000000000000222, -1.000000000000000000, 0.6350000000000000089 ) ) ;
#281 = ORIENTED_EDGE ( 'NONE', *, *, #568, .F. ) ;
#282 = CARTESIAN_POINT ( 'NONE',  ( 3.796405077356794548E-17, 0.3099999999999999978, 0.6350000000000000089 ) ) ;
#283 = CARTESIAN_POINT ( 'NONE',  ( -0.4099999999999999201, 1.820000000000000506, 0.6350000000000000089 ) ) ;
#284 = LINE ( 'NONE', #531, #676 ) ;
#285 = EDGE_CURVE ( 'NONE', #824, #13, #458, .T. ) ;
#286 = ORIENTED_EDGE ( 'NONE', *, *, #712, .F. ) ;
#287 = LINE ( 'NONE', #803, #591 ) ;
#288 = EDGE_CURVE ( 'NONE', #810, #762, #589, .T. ) ;
#289 = CARTESIAN_POINT ( 'NONE',  ( -2.000000000000000000, -1.500000000000000888, 0.6350000000000000089 ) ) ;
#290 = PLANE ( 'NONE',  #208 ) ;
#291 = ORIENTED_EDGE ( 'NONE', *, *, #708, .F. ) ;
#292 = APPLICATION_PROTOCOL_DEFINITION ( 'draft international standard', 'automotive_design', 1998, #665 ) ;
#293 = PRODUCT ( 'vertex-corner_62', 'vertex-corner_62', '', ( #679 ) ) ;
#294 = CARTESIAN_POINT ( 'NONE',  ( -0.4100000000000000311, 2.000000000000000444, 0.1349999999999999534 ) ) ;
#295 = AXIS2_PLACEMENT_3D ( 'NONE', #377, #630, #698 ) ;
#296 = LINE ( 'NONE', #795, #115 ) ;
#297 = ORIENTED_EDGE ( 'NONE', *, *, #439, .F. ) ;
#298 = LINE ( 'NONE', #289, #60 ) ;
#299 = ADVANCED_FACE ( 'NONE', ( #347, #11 ), #600, .T. ) ;
#300 = LINE ( 'NONE', #543, #576 ) ;
#301 = ORIENTED_EDGE ( 'NONE', *, *, #288, .F. ) ;
#302 = CARTESIAN_POINT ( 'NONE',  ( 1.156482317317871478E-16, 0.000000000000000000, 0.000000000000000000 ) ) ;
#303 = DIRECTION ( 'NONE',  ( 2.385670792109557660E-16, -1.000000000000000000, 0.000000000000000000 ) ) ;
#304 = ORIENTED_EDGE ( 'NONE', *, *, #365, .F. ) ;
#305 = DIRECTION ( 'NONE',  ( -0.000000000000000000, 0.000000000000000000, 1.000000000000000000 ) ) ;
#306 = LINE ( 'NONE', #488, #593 ) ;
#307 = EDGE_CURVE ( 'NONE', #93, #186, #727, .T. ) ;
#308 = ORIENTED_EDGE ( 'NONE', *, *, #384, .F. ) ;
#309 = CARTESIAN_POINT ( 'NONE',  ( -2.000000000000000444, 0.4099999999999996980, 0.1349999999999999534 ) ) ;
#310 = CARTESIAN_POINT ( 'NONE',  ( -2.000000000000000444, -0.4100000000000003642, 0.6350000000000000089 ) ) ;
#311 = EDGE_LOOP ( 'NONE', ( #755, #398, #609, #36 ) ) ;
#312 = DIRECTION ( 'NONE',  ( 4.818676322157799347E-16, 1.000000000000000000, 0.000000000000000000 ) ) ;
#313 = FACE_OUTER_BOUND ( 'NONE', #484, .T. ) ;
#314 = VERTEX_POINT ( 'NONE', #79 ) ;
#315 = CARTESIAN_POINT ( 'NONE',  ( -1.364999999999998215, 2.000000000000000444, 0.000000000000000000 ) ) ;
#316 = VECTOR ( 'NONE', #336, 100.0000000000000000 ) ;
#317 = AXIS2_PLACEMENT_3D ( 'NONE', #789, #657, #86 ) ;
#318 = ORIENTED_EDGE ( 'NONE', *, *, #144, .T. ) ;
#319 = CARTESIAN_POINT ( 'NONE',  ( 1.156482317317871478E-16, 0.000000000000000000, 0.6350000000000000089 ) ) ;
#320 = EDGE_CURVE ( 'NONE', #678, #152, #210, .T. ) ;
#321 = EDGE_LOOP ( 'NONE', ( #569, #489, #330, #14 ) ) ;
#322 = CARTESIAN_POINT ( 'NONE',  ( -2.000000000000000444, -0.4100000000000003642, 0.1349999999999999534 ) ) ;
#323 = VERTEX_POINT ( 'NONE', #24 ) ;
#324 = CARTESIAN_POINT ( 'NONE',  ( 1.000000000000000222, -1.000000000000000000, 0.6350000000000000089 ) ) ;
#325 = CARTESIAN_POINT ( 'NONE',  ( -1.820000000000000506, 0.4099999999999995870, 0.1349999999999999534 ) ) ;
#326 = VERTEX_POINT ( 'NONE', #720 ) ;
#327 = EDGE_CURVE ( 'NONE', #326, #536, #464, .T. ) ;
#328 = PLANE ( 'NONE',  #191 ) ;
#329 = CARTESIAN_POINT ( 'NONE',  ( -2.000000000000000444, -0.4100000000000003642, 0.1349999999999999534 ) ) ;
#330 = ORIENTED_EDGE ( 'NONE', *, *, #759, .F. ) ;
#331 = EDGE_LOOP ( 'NONE', ( #826, #238, #724, #393 ) ) ;
#332 = SURFACE_STYLE_FILL_AREA ( #769 ) ;
#333 = CARTESIAN_POINT ( 'NONE',  ( -1.999999999999999112, -1.000000000000000000, 0.000000000000000000 ) ) ;
#334 = EDGE_CURVE ( 'NONE', #323, #260, #142, .T. ) ;
#335 = VERTEX_POINT ( 'NONE', #149 ) ;
#336 = DIRECTION ( 'NONE',  ( 1.000000000000000000, 2.385670792109557660E-16, 0.000000000000000000 ) ) ;
#337 = CARTESIAN_POINT ( 'NONE',  ( 0.000000000000000000, 0.000000000000000000, 0.3175000000000000044 ) ) ;
#338 = CARTESIAN_POINT ( 'NONE',  ( 0.000000000000000000, -1.000000000000000000, 0.6350000000000000089 ) ) ;
#339 = AXIS2_PLACEMENT_3D ( 'NONE', #243, #628, #692 ) ;
#340 = FACE_OUTER_BOUND ( 'NONE', #709, .T. ) ;
#341 = VECTOR ( 'NONE', #707, 100.0000000000000000 ) ;
#342 = DIRECTION ( 'NONE',  ( 0.000000000000000000, 0.000000000000000000, 1.000000000000000000 ) ) ;
#343 = ADVANCED_FACE ( 'NONE', ( #270 ), #135, .T. ) ;
#344 = DIRECTION ( 'NONE',  ( -0.000000000000000000, 0.000000000000000000, 1.000000000000000000 ) ) ;
#345 = ORIENTED_EDGE ( 'NONE', *, *, #107, .F. ) ;
#346 = CARTESIAN_POINT ( 'NONE',  ( 0.000000000000000000, 0.000000000000000000, 0.000000000000000000 ) ) ;
#347 = FACE_BOUND ( 'NONE', #206, .T. ) ;
#348 = CARTESIAN_POINT ( 'NONE',  ( -1.500000000000000222, 2.000000000000000444, 0.6350000000000000089 ) ) ;
#349 = EDGE_CURVE ( 'NONE', #335, #599, #169, .T. ) ;
#350 = ORIENTED_EDGE ( 'NONE', *, *, #107, .T. ) ;
#351 = DIRECTION ( 'NONE',  ( -0.000000000000000000, -0.000000000000000000, 1.000000000000000000 ) ) ;
#352 = FACE_OUTER_BOUND ( 'NONE', #129, .T. ) ;
#353 = EDGE_LOOP ( 'NONE', ( #699, #501, #440, #318, #419, #636 ) ) ;
#354 = DIRECTION ( 'NONE',  ( 1.000000000000000000, 0.000000000000000000, 0.000000000000000000 ) ) ;
#355 = EDGE_CURVE ( 'NONE', #768, #323, #645, .T. ) ;
#356 = DIRECTION ( 'NONE',  ( 0.000000000000000000, -1.000000000000000000, 0.000000000000000000 ) ) ;
#357 = VECTOR ( 'NONE', #74, 100.0000000000000000 ) ;
#358 = DIRECTION ( 'NONE',  ( -2.258880508902365962E-16, 1.000000000000000000, -0.000000000000000000 ) ) ;
#359 = ORIENTED_EDGE ( 'NONE', *, *, #580, .T. ) ;
#360 = DIRECTION ( 'NONE',  ( 0.000000000000000000, -1.000000000000000000, 0.000000000000000000 ) ) ;
#361 = DIRECTION ( 'NONE',  ( -0.000000000000000000, 0.000000000000000000, 1.000000000000000000 ) ) ;
#362 = ORIENTED_EDGE ( 'NONE', *, *, #378, .T. ) ;
#363 = PLANE ( 'NONE',  #521 ) ;
#364 = UNCERTAINTY_MEASURE_WITH_UNIT (LENGTH_MEASURE( 1.000000000000000082E-05 ), #662, 'distance_accuracy_value', 'NONE');
#365 = EDGE_CURVE ( 'NONE', #50, #536, #663, .T. ) ;
#366 = DIRECTION ( 'NONE',  ( 0.000000000000000000, 0.000000000000000000, -1.000000000000000000 ) ) ;
#367 = DIRECTION ( 'NONE',  ( -1.000000000000000000, -4.818676322157798361E-16, 0.000000000000000000 ) ) ;
#368 = VECTOR ( 'NONE', #351, 100.0000000000000000 ) ;
#369 = VECTOR ( 'NONE', #85, 100.0000000000000000 ) ;
#370 = CARTESIAN_POINT ( 'NONE',  ( -0.4099999999999999201, 1.820000000000000506, 0.1349999999999999534 ) ) ;
#371 = ORIENTED_EDGE ( 'NONE', *, *, #453, .T. ) ;
#372 = LINE ( 'NONE', #823, #729 ) ;
#373 = FACE_OUTER_BOUND ( 'NONE', #321, .T. ) ;
#374 = ORIENTED_EDGE ( 'NONE', *, *, #670, .T. ) ;
#375 = LINE ( 'NONE', #322, #793 ) ;
#376 = VERTEX_POINT ( 'NONE', #204 ) ;
#377 = CARTESIAN_POINT ( 'NONE',  ( -1.500000000000000222, 2.000000000000000444, 0.000000000000000000 ) ) ;
#378 = EDGE_CURVE ( 'NONE', #226, #326, #263, .T. ) ;
#379 = VECTOR ( 'NONE', #595, 100.0000000000000000 ) ;
#380 = AXIS2_PLACEMENT_3D ( 'NONE', #427, #436, #5 ) ;
#381 = VECTOR ( 'NONE', #8, 100.0000000000000000 ) ;
#382 = ORIENTED_EDGE ( 'NONE', *, *, #271, .F. ) ;
#383 = DIRECTION ( 'NONE',  ( 4.818676322157799347E-16, -1.000000000000000000, 0.000000000000000000 ) ) ;
#384 = EDGE_CURVE ( 'NONE', #762, #314, #397, .T. ) ;
#385 = ORIENTED_EDGE ( 'NONE', *, *, #506, .T. ) ;
#386 = CARTESIAN_POINT ( 'NONE',  ( 1.000000000000000222, 0.000000000000000000, 0.6350000000000000089 ) ) ;
#387 = PLANE ( 'NONE',  #380 ) ;
#388 = EDGE_CURVE ( 'NONE', #661, #376, #279, .T. ) ;
#389 = ORIENTED_EDGE ( 'NONE', *, *, #144, .F. ) ;
#390 = VERTEX_POINT ( 'NONE', #518 ) ;
#391 = FACE_OUTER_BOUND ( 'NONE', #714, .T. ) ;
#392 = DIRECTION ( 'NONE',  ( 0.000000000000000000, 0.000000000000000000, -1.000000000000000000 ) ) ;
#393 = ORIENTED_EDGE ( 'NONE', *, *, #119, .F. ) ;
#394 = VECTOR ( 'NONE', #459, 100.0000000000000000 ) ;
#395 = ORIENTED_EDGE ( 'NONE', *, *, #48, .F. ) ;
#396 = CARTESIAN_POINT ( 'NONE',  ( 0.4100000000000000311, 2.000000000000000444, 0.1349999999999999534 ) ) ;
#397 = LINE ( 'NONE', #456, #278 ) ;
#398 = ORIENTED_EDGE ( 'NONE', *, *, #285, .F. ) ;
#399 = LINE ( 'NONE', #386, #523 ) ;
#400 = CARTESIAN_POINT ( 'NONE',  ( 0.000000000000000000, 0.000000000000000000, 0.000000000000000000 ) ) ;
#401 = LINE ( 'NONE', #527, #192 ) ;
#402 = ORIENTED_EDGE ( 'NONE', *, *, #580, .F. ) ;
#403 = DIRECTION ( 'NONE',  ( -0.5000000000000041078, -0.8660254037844363761, 0.000000000000000000 ) ) ;
#404 = ADVANCED_FACE ( 'NONE', ( #778 ), #146, .F. ) ;
#405 = CARTESIAN_POINT ( 'NONE',  ( -1.999999999999999112, -1.000000000000000000, 0.6350000000000000089 ) ) ;
#406 = CARTESIAN_POINT ( 'NONE',  ( -1.200000000000000178, 0.7679571668975719856, 0.6350000000000000089 ) ) ;
#407 = AXIS2_PLACEMENT_3D ( 'NONE', #534, #742, #491 ) ;
#408 = ORIENTED_EDGE ( 'NONE', *, *, #689, .F. ) ;
#409 = CARTESIAN_POINT ( 'NONE',  ( 0.000000000000000000, 0.000000000000000000, 0.6350000000000000089 ) ) ;
#410 = VERTEX_POINT ( 'NONE', #526 ) ;
#411 = ORIENTED_EDGE ( 'NONE', *, *, #20, .T. ) ;
#412 = CARTESIAN_POINT ( 'NONE',  ( 0.4099999999999999201, 1.820000000000000506, 0.1349999999999999534 ) ) ;
#413 = DIRECTION ( 'NONE',  ( 1.000000000000000000, 0.000000000000000000, 0.000000000000000000 ) ) ;
#414 = EDGE_CURVE ( 'NONE', #647, #9, #784, .T. ) ;
#415 = ORIENTED_EDGE ( 'NONE', *, *, #633, .F. ) ;
#416 =( NAMED_UNIT ( * ) PLANE_ANGLE_UNIT ( ) SI_UNIT ( $, .RADIAN. ) );
#417 = LINE ( 'NONE', #97, #273 ) ;
#418 = CARTESIAN_POINT ( 'NONE',  ( -2.000000000000000888, 1.364999999999999991, 0.000000000000000000 ) ) ;
#419 = ORIENTED_EDGE ( 'NONE', *, *, #701, .T. ) ;
#420 = CARTESIAN_POINT ( 'NONE',  ( -2.000000000000000444, -0.4100000000000003642, 0.6350000000000000089 ) ) ;
#421 = VECTOR ( 'NONE', #466, 100.0000000000000000 ) ;
#422 = COLOUR_RGB ( '',0.7921568627450980005, 0.8196078431372548767, 0.9333333333333333481 ) ;
#423 = VECTOR ( 'NONE', #711, 100.0000000000000000 ) ;
#424 = PLANE ( 'NONE',  #141 ) ;
#425 = VERTEX_POINT ( 'NONE', #240 ) ;
#426 = DIRECTION ( 'NONE',  ( 0.000000000000000000, -1.000000000000000000, 0.000000000000000000 ) ) ;
#427 = CARTESIAN_POINT ( 'NONE',  ( 0.000000000000000000, 0.000000000000000000, 0.1349999999999999534 ) ) ;
#428 = EDGE_LOOP ( 'NONE', ( #822, #776, #513, #188 ) ) ;
#429 = DIRECTION ( 'NONE',  ( -0.000000000000000000, 0.000000000000000000, 1.000000000000000000 ) ) ;
#430 = EDGE_CURVE ( 'NONE', #813, #661, #675, .T. ) ;
#431 = DIRECTION ( 'NONE',  ( 0.000000000000000000, 0.000000000000000000, -1.000000000000000000 ) ) ;
#432 = ORIENTED_EDGE ( 'NONE', *, *, #759, .T. ) ;
#433 = CARTESIAN_POINT ( 'NONE',  ( -1.200000000000000178, 0.7679571668975719856, 0.1349999999999999534 ) ) ;
#434 = CIRCLE ( 'NONE', #407, 2.500000000000000000 ) ;
#435 = VECTOR ( 'NONE', #790, 100.0000000000000000 ) ;
#436 = DIRECTION ( 'NONE',  ( 0.000000000000000000, 0.000000000000000000, 1.000000000000000000 ) ) ;
#437 = ORIENTED_EDGE ( 'NONE', *, *, #783, .T. ) ;
#438 = CARTESIAN_POINT ( 'NONE',  ( 0.4100000000000000311, 2.000000000000000444, 0.6350000000000000089 ) ) ;
#439 = EDGE_CURVE ( 'NONE', #744, #446, #231, .T. ) ;
#440 = ORIENTED_EDGE ( 'NONE', *, *, #288, .T. ) ;
#441 = LINE ( 'NONE', #187, #606 ) ;
#442 = ORIENTED_EDGE ( 'NONE', *, *, #547, .T. ) ;
#443 = DIRECTION ( 'NONE',  ( 1.000000000000000000, 2.312964634635742957E-16, 0.000000000000000000 ) ) ;
#444 = EDGE_CURVE ( 'NONE', #536, #731, #473, .T. ) ;
#445 = VECTOR ( 'NONE', #179, 100.0000000000000000 ) ;
#446 = VERTEX_POINT ( 'NONE', #486 ) ;
#447 = DIRECTION ( 'NONE',  ( 0.000000000000000000, 1.000000000000000000, 0.000000000000000000 ) ) ;
#448 = EDGE_CURVE ( 'NONE', #648, #335, #685, .T. ) ;
#449 = FACE_OUTER_BOUND ( 'NONE', #136, .T. ) ;
#450 = ORIENTED_EDGE ( 'NONE', *, *, #248, .F. ) ;
#451 = ORIENTED_EDGE ( 'NONE', *, *, #320, .F. ) ;
#452 = LINE ( 'NONE', #511, #745 ) ;
#453 = EDGE_CURVE ( 'NONE', #661, #93, #797, .T. ) ;
#454 = ORIENTED_EDGE ( 'NONE', *, *, #506, .F. ) ;
#455 = DIRECTION ( 'NONE',  ( -0.000000000000000000, 0.000000000000000000, 1.000000000000000000 ) ) ;
#456 = CARTESIAN_POINT ( 'NONE',  ( -1.820000000000000506, -0.4100000000000003086, 0.1349999999999999534 ) ) ;
#457 = ORIENTED_EDGE ( 'NONE', *, *, #439, .T. ) ;
#458 = CIRCLE ( 'NONE', #317, 0.3099999999999999978 ) ;
#459 = DIRECTION ( 'NONE',  ( 1.000000000000000000, 0.000000000000000000, 0.000000000000000000 ) ) ;
#460 = DIRECTION ( 'NONE',  ( -1.000000000000000000, 0.000000000000000000, -0.000000000000000000 ) ) ;
#461 = EDGE_LOOP ( 'NONE', ( #264, #554, #807, #802, #402, #246, #493, #190, #651, #408, #572, #540, #120, #72, #695, #211, #382, #171, #255 ) ) ;
#462 = EDGE_CURVE ( 'NONE', #242, #314, #604, .T. ) ;
#463 = CARTESIAN_POINT ( 'NONE',  ( -2.000000000000000444, 0.4099999999999996980, 0.1349999999999999534 ) ) ;
#464 = LINE ( 'NONE', #283, #236 ) ;
#465 = APPLICATION_CONTEXT ( 'automotive_design' ) ;
#466 = DIRECTION ( 'NONE',  ( 0.000000000000000000, 0.000000000000000000, -1.000000000000000000 ) ) ;
#467 = ORIENTED_EDGE ( 'NONE', *, *, #726, .F. ) ;
#468 = CARTESIAN_POINT ( 'NONE',  ( 0.7679571668975722076, 1.199999999999999956, 0.1349999999999999534 ) ) ;
#469 = DIRECTION ( 'NONE',  ( 0.000000000000000000, 1.000000000000000000, 0.000000000000000000 ) ) ;
#470 = CARTESIAN_POINT ( 'NONE',  ( -2.000000000000000444, 0.4099999999999996980, 0.6350000000000000089 ) ) ;
#471 = CIRCLE ( 'NONE', #223, 0.3099999999999999978 ) ;
#472 = EDGE_LOOP ( 'NONE', ( #602, #308, #301, #528 ) ) ;
#473 = LINE ( 'NONE', #538, #62 ) ;
#474 = ADVANCED_FACE ( 'NONE', ( #746 ), #32, .F. ) ;
#475 = DIRECTION ( 'NONE',  ( 1.000000000000000000, 0.000000000000000000, 0.000000000000000000 ) ) ;
#476 = EDGE_LOOP ( 'NONE', ( #101, #133, #297, #532 ) ) ;
#477 = FACE_OUTER_BOUND ( 'NONE', #311, .T. ) ;
#478 = LINE ( 'NONE', #157, #224 ) ;
#479 = ORIENTED_EDGE ( 'NONE', *, *, #712, .T. ) ;
#480 = DIRECTION ( 'NONE',  ( -0.8660254037844360431, -0.5000000000000045519, 0.000000000000000000 ) ) ;
#481 = CARTESIAN_POINT ( 'NONE',  ( -0.7679571668975722076, 1.199999999999999956, 0.6350000000000000089 ) ) ;
#482 = DIRECTION ( 'NONE',  ( -0.000000000000000000, 0.000000000000000000, 1.000000000000000000 ) ) ;
#483 = ADVANCED_FACE ( 'NONE', ( #46 ), #363, .F. ) ;
#484 = EDGE_LOOP ( 'NONE', ( #627, #304, #395, #385 ) ) ;
#485 = VECTOR ( 'NONE', #668, 100.0000000000000142 ) ;
#486 = CARTESIAN_POINT ( 'NONE',  ( 0.4099999999999999201, 1.820000000000000506, 0.1349999999999999534 ) ) ;
#487 = VECTOR ( 'NONE', #581, 100.0000000000000000 ) ;
#488 = CARTESIAN_POINT ( 'NONE',  ( -1.999999999999999112, -1.000000000000000000, 0.6350000000000000089 ) ) ;
#489 = ORIENTED_EDGE ( 'NONE', *, *, #549, .F. ) ;
#490 = ADVANCED_FACE ( 'NONE', ( #477 ), #163, .F. ) ;
#491 = DIRECTION ( 'NONE',  ( 0.000000000000000000, -1.000000000000000000, 0.000000000000000000 ) ) ;
#492 = PLANE ( 'NONE',  #565 ) ;
#493 = ORIENTED_EDGE ( 'NONE', *, *, #444, .F. ) ;
#494 = FACE_OUTER_BOUND ( 'NONE', #615, .T. ) ;
#495 = DIRECTION ( 'NONE',  ( 0.000000000000000000, 1.000000000000000000, 0.000000000000000000 ) ) ;
#496 = ORIENTED_EDGE ( 'NONE', *, *, #770, .F. ) ;
#497 = CARTESIAN_POINT ( 'NONE',  ( 0.4100000000000000311, 2.000000000000000444, 0.1349999999999999534 ) ) ;
#498 = VECTOR ( 'NONE', #81, 100.0000000000000000 ) ;
#499 = EDGE_CURVE ( 'NONE', #9, #768, #298, .T. ) ;
#500 = DIRECTION ( 'NONE',  ( 4.818676322157798361E-16, -1.000000000000000000, 0.000000000000000000 ) ) ;
#501 = ORIENTED_EDGE ( 'NONE', *, *, #520, .T. ) ;
#502 = DIRECTION ( 'NONE',  ( 0.000000000000000000, 0.000000000000000000, 1.000000000000000000 ) ) ;
#503 = ORIENTED_EDGE ( 'NONE', *, *, #689, .T. ) ;
#504 = CARTESIAN_POINT ( 'NONE',  ( -1.500000000000000222, 2.000000000000000444, 0.000000000000000000 ) ) ;
#505 = ORIENTED_EDGE ( 'NONE', *, *, #388, .F. ) ;
#506 = EDGE_CURVE ( 'NONE', #410, #326, #417, .T. ) ;
#507 = DIRECTION ( 'NONE',  ( 0.000000000000000000, -1.000000000000000000, 0.000000000000000000 ) ) ;
#508 =( GEOMETRIC_REPRESENTATION_CONTEXT ( 3 ) GLOBAL_UNCERTAINTY_ASSIGNED_CONTEXT ( ( #541 ) ) GLOBAL_UNIT_ASSIGNED_CONTEXT ( ( #198, #221, #230 ) ) REPRESENTATION_CONTEXT ( 'NONE', 'WORKASPACE' ) );
#509 = VERTEX_POINT ( 'NONE', #682 ) ;
#510 = DIRECTION ( 'NONE',  ( -5.782411586589356160E-17, 1.000000000000000000, 0.000000000000000000 ) ) ;
#511 = CARTESIAN_POINT ( 'NONE',  ( -1.820000000000000506, -0.4100000000000003086, 0.6350000000000000089 ) ) ;
#512 = ORIENTED_EDGE ( 'NONE', *, *, #448, .T. ) ;
#513 = ORIENTED_EDGE ( 'NONE', *, *, #701, .F. ) ;
#514 = DIRECTION ( 'NONE',  ( 0.8660254037844362651, -0.5000000000000039968, 0.000000000000000000 ) ) ;
#515 = CARTESIAN_POINT ( 'NONE',  ( -1.199999999999999956, -0.7679571668975725407, 0.1349999999999999534 ) ) ;
#516 = ORIENTED_EDGE ( 'NONE', *, *, #681, .T. ) ;
#517 = DIRECTION ( 'NONE',  ( 0.000000000000000000, 0.000000000000000000, -1.000000000000000000 ) ) ;
#518 = CARTESIAN_POINT ( 'NONE',  ( -1.364999999999998215, 1.364999999999999991, 0.3175000000000000044 ) ) ;
#519 = AXIS2_PLACEMENT_3D ( 'NONE', #804, #27, #612 ) ;
#520 = EDGE_CURVE ( 'NONE', #425, #810, #235, .T. ) ;
#521 = AXIS2_PLACEMENT_3D ( 'NONE', #111, #616, #37 ) ;
#522 = ORIENTED_EDGE ( 'NONE', *, *, #172, .F. ) ;
#523 = VECTOR ( 'NONE', #773, 100.0000000000000000 ) ;
#524 = AXIS2_PLACEMENT_3D ( 'NONE', #409, #530, #218 ) ;
#525 = PLANE ( 'NONE',  #251 ) ;
#526 = CARTESIAN_POINT ( 'NONE',  ( -0.4099999999999999201, 1.820000000000000506, 0.1349999999999999534 ) ) ;
#527 = CARTESIAN_POINT ( 'NONE',  ( 0.000000000000000000, -0.3099999999999999978, 0.000000000000000000 ) ) ;
#528 = ORIENTED_EDGE ( 'NONE', *, *, #568, .T. ) ;
#529 = CARTESIAN_POINT ( 'NONE',  ( 0.7679571668975722076, 1.199999999999999956, 0.1349999999999999534 ) ) ;
#530 = DIRECTION ( 'NONE',  ( 0.000000000000000000, 0.000000000000000000, -1.000000000000000000 ) ) ;
#531 = CARTESIAN_POINT ( 'NONE',  ( -1.820000000000000506, -0.4100000000000003086, 0.1349999999999999534 ) ) ;
#532 = ORIENTED_EDGE ( 'NONE', *, *, #68, .T. ) ;
#533 = EDGE_CURVE ( 'NONE', #90, #718, #471, .T. ) ;
#534 = CARTESIAN_POINT ( 'NONE',  ( 0.000000000000000000, 0.000000000000000000, 0.000000000000000000 ) ) ;
#535 = DIRECTION ( 'NONE',  ( 1.000000000000000000, 0.000000000000000000, 0.000000000000000000 ) ) ;
#536 = VERTEX_POINT ( 'NONE', #481 ) ;
#537 = AXIS2_PLACEMENT_3D ( 'NONE', #654, #669, #95 ) ;
#538 = CARTESIAN_POINT ( 'NONE',  ( 0.7679571668975722076, 1.199999999999999956, 0.6350000000000000089 ) ) ;
#539 = ORIENTED_EDGE ( 'NONE', *, *, #542, .F. ) ;
#540 = ORIENTED_EDGE ( 'NONE', *, *, #355, .F. ) ;
#541 = UNCERTAINTY_MEASURE_WITH_UNIT (LENGTH_MEASURE( 1.000000000000000082E-05 ), #198, 'distance_accuracy_value', 'NONE');
#542 = EDGE_CURVE ( 'NONE', #587, #41, #434, .T. ) ;
#543 = CARTESIAN_POINT ( 'NONE',  ( -1.500000000000000222, 2.000000000000000444, 0.3175000000000000044 ) ) ;
#544 = ORIENTED_EDGE ( 'NONE', *, *, #430, .F. ) ;
#545 = DIRECTION ( 'NONE',  ( 1.000000000000000000, 4.818676322157799347E-16, 0.000000000000000000 ) ) ;
#546 = DIRECTION ( 'NONE',  ( 1.000000000000000000, 2.385670792109557660E-16, 0.000000000000000000 ) ) ;
#547 = EDGE_CURVE ( 'NONE', #13, #824, #209, .T. ) ;
#548 = ORIENTED_EDGE ( 'NONE', *, *, #430, .T. ) ;
#549 = EDGE_CURVE ( 'NONE', #390, #323, #808, .T. ) ;
#550 = CARTESIAN_POINT ( 'NONE',  ( 1.000000000000000222, 0.000000000000000000, 0.000000000000000000 ) ) ;
#551 = VECTOR ( 'NONE', #517, 100.0000000000000000 ) ;
#552 = DIRECTION ( 'NONE',  ( 0.000000000000000000, 0.000000000000000000, 1.000000000000000000 ) ) ;
#553 = DIRECTION ( 'NONE',  ( 0.000000000000000000, -1.000000000000000000, 0.000000000000000000 ) ) ;
#554 = ORIENTED_EDGE ( 'NONE', *, *, #613, .T. ) ;
#555 = CARTESIAN_POINT ( 'NONE',  ( 0.000000000000000000, 0.000000000000000000, 0.6350000000000000089 ) ) ;
#556 = CARTESIAN_POINT ( 'NONE',  ( 0.4100000000000000311, 2.000000000000000444, 0.1349999999999999534 ) ) ;
#557 = EDGE_LOOP ( 'NONE', ( #671, #104, #586, #578 ) ) ;
#558 = DIRECTION ( 'NONE',  ( -1.000000000000000000, 4.818676322157798361E-16, 0.000000000000000000 ) ) ;
#559 = EDGE_CURVE ( 'NONE', #376, #41, #792, .T. ) ;
#560 = CARTESIAN_POINT ( 'NONE',  ( -1.999999999999999112, -1.000000000000000000, 0.6350000000000000089 ) ) ;
#561 = ORIENTED_EDGE ( 'NONE', *, *, #349, .T. ) ;
#562 = FACE_OUTER_BOUND ( 'NONE', #66, .T. ) ;
#563 = VECTOR ( 'NONE', #749, 100.0000000000000000 ) ;
#564 = AXIS2_PLACEMENT_3D ( 'NONE', #189, #443, #123 ) ;
#565 = AXIS2_PLACEMENT_3D ( 'NONE', #614, #303, #546 ) ;
#566 = ORIENTED_EDGE ( 'NONE', *, *, #549, .T. ) ;
#567 = CARTESIAN_POINT ( 'NONE',  ( -2.000000000000001776, 1.364999999999999991, 0.3175000000000000044 ) ) ;
#568 = EDGE_CURVE ( 'NONE', #810, #242, #375, .T. ) ;
#569 = ORIENTED_EDGE ( 'NONE', *, *, #355, .T. ) ;
#570 = DIRECTION ( 'NONE',  ( -0.000000000000000000, 0.000000000000000000, 1.000000000000000000 ) ) ;
#571 = ADVANCED_FACE ( 'NONE', ( #825 ), #55, .T. ) ;
#572 = ORIENTED_EDGE ( 'NONE', *, *, #334, .F. ) ;
#573 = CARTESIAN_POINT ( 'NONE',  ( 0.4100000000000000311, 2.000000000000000444, 0.1349999999999999534 ) ) ;
#574 = FACE_OUTER_BOUND ( 'NONE', #275, .T. ) ;
#575 = VECTOR ( 'NONE', #3, 100.0000000000000000 ) ;
#576 = VECTOR ( 'NONE', #475, 100.0000000000000000 ) ;
#577 = EDGE_LOOP ( 'NONE', ( #22, #80, #736, #666 ) ) ;
#578 = ORIENTED_EDGE ( 'NONE', *, *, #254, .T. ) ;
#579 = SURFACE_STYLE_USAGE ( .BOTH. , #583 ) ;
#580 = EDGE_CURVE ( 'NONE', #509, #642, #372, .T. ) ;
#581 = DIRECTION ( 'NONE',  ( 1.000000000000000000, 2.385670792109557660E-16, 0.000000000000000000 ) ) ;
#582 = ORIENTED_EDGE ( 'NONE', *, *, #349, .F. ) ;
#583 = SURFACE_SIDE_STYLE ('',( #332 ) ) ;
#584 = ADVANCED_FACE ( 'NONE', ( #256 ), #65, .F. ) ;
#585 = DIRECTION ( 'NONE',  ( 0.8660254037844362651, -0.5000000000000039968, 0.000000000000000000 ) ) ;
#586 = ORIENTED_EDGE ( 'NONE', *, *, #750, .F. ) ;
#587 = VERTEX_POINT ( 'NONE', #504 ) ;
#588 = LINE ( 'NONE', #640, #631 ) ;
#589 = LINE ( 'NONE', #329, #717 ) ;
#590 = ADVANCED_FACE ( 'NONE', ( #494 ), #259, .F. ) ;
#591 = VECTOR ( 'NONE', #672, 100.0000000000000000 ) ;
#592 = DIRECTION ( 'NONE',  ( -1.249637081581196951E-16, 1.000000000000000000, 0.000000000000000000 ) ) ;
#593 = VECTOR ( 'NONE', #366, 100.0000000000000000 ) ;
#594 = ORIENTED_EDGE ( 'NONE', *, *, #48, .T. ) ;
#595 = DIRECTION ( 'NONE',  ( -2.258880508902365962E-16, 1.000000000000000000, -0.000000000000000000 ) ) ;
#596 = DIRECTION ( 'NONE',  ( 0.000000000000000000, -1.000000000000000000, 0.000000000000000000 ) ) ;
#597 = DIRECTION ( 'NONE',  ( 1.000000000000000000, 0.000000000000000000, 0.000000000000000000 ) ) ;
#598 = EDGE_CURVE ( 'NONE', #718, #90, #87, .T. ) ;
#599 = VERTEX_POINT ( 'NONE', #193 ) ;
#600 = PLANE ( 'NONE',  #781 ) ;
#601 = LINE ( 'NONE', #28, #34 ) ;
#602 = ORIENTED_EDGE ( 'NONE', *, *, #462, .T. ) ;
#603 = DIRECTION ( 'NONE',  ( 0.000000000000000000, -1.000000000000000000, 0.000000000000000000 ) ) ;
#604 = LINE ( 'NONE', #420, #2 ) ;
#605 = FACE_OUTER_BOUND ( 'NONE', #428, .T. ) ;
#606 = VECTOR ( 'NONE', #383, 100.0000000000000000 ) ;
#607 = VERTEX_POINT ( 'NONE', #763 ) ;
#608 = CARTESIAN_POINT ( 'NONE',  ( -2.000000000000000444, 0.4099999999999996980, 0.6350000000000000089 ) ) ;
#609 = ORIENTED_EDGE ( 'NONE', *, *, #119, .T. ) ;
#610 = ORIENTED_EDGE ( 'NONE', *, *, #598, .F. ) ;
#611 = CARTESIAN_POINT ( 'NONE',  ( -2.000000000000000444, -0.4100000000000003642, 0.1349999999999999534 ) ) ;
#612 = DIRECTION ( 'NONE',  ( 0.000000000000000000, -1.000000000000000000, 0.000000000000000000 ) ) ;
#613 = EDGE_CURVE ( 'NONE', #93, #772, #702, .T. ) ;
#614 = CARTESIAN_POINT ( 'NONE',  ( -16.63499999999999801, 1.364999999999996438, 0.3175000000000000044 ) ) ;
#615 = EDGE_LOOP ( 'NONE', ( #450, #791, #281, #96, #116, #57, #697, #512, #782, #713 ) ) ;
#616 = DIRECTION ( 'NONE',  ( 0.8660254037844362651, 0.5000000000000043299, 0.000000000000000000 ) ) ;
#617 = PLANE ( 'NONE',  #277 ) ;
#618 = ADVANCED_FACE ( 'NONE', ( #562 ), #637, .F. ) ;
#619 = ORIENTED_EDGE ( 'NONE', *, *, #453, .F. ) ;
#620 = PLANE ( 'NONE',  #295 ) ;
#621 = VECTOR ( 'NONE', #237, 100.0000000000000142 ) ;
#622 = CARTESIAN_POINT ( 'NONE',  ( -0.4100000000000000311, 2.000000000000000444, 0.1349999999999999534 ) ) ;
#623 = ADVANCED_FACE ( 'NONE', ( #58 ), #127, .F. ) ;
#624 = ORIENTED_EDGE ( 'NONE', *, *, #68, .F. ) ;
#625 = LINE ( 'NONE', #185, #167 ) ;
#626 = CARTESIAN_POINT ( 'NONE',  ( -1.199999999999999956, -0.7679571668975725407, 0.6350000000000000089 ) ) ;
#627 = ORIENTED_EDGE ( 'NONE', *, *, #327, .T. ) ;
#628 = DIRECTION ( 'NONE',  ( 0.000000000000000000, 0.000000000000000000, -1.000000000000000000 ) ) ;
#629 = VERTEX_POINT ( 'NONE', #756 ) ;
#630 = DIRECTION ( 'NONE',  ( 0.000000000000000000, -1.000000000000000000, 0.000000000000000000 ) ) ;
#631 = VECTOR ( 'NONE', #203, 100.0000000000000000 ) ;
#632 = CLOSED_SHELL ( 'NONE', ( #404, #299, #239, #590, #658, #343, #618, #483, #734, #150, #474, #194, #623, #798, #59, #740, #180, #584, #490, #257, #114, #266, #786, #38, #571 ) ) ;
#633 = EDGE_CURVE ( 'NONE', #816, #260, #814, .T. ) ;
#634 = AXIS2_PLACEMENT_3D ( 'NONE', #319, #117, #761 ) ;
#635 = VECTOR ( 'NONE', #91, 100.0000000000000000 ) ;
#636 = ORIENTED_EDGE ( 'NONE', *, *, #217, .T. ) ;
#637 = PLANE ( 'NONE',  #64 ) ;
#638 = EDGE_CURVE ( 'NONE', #684, #741, #625, .T. ) ;
#639 = ORIENTED_EDGE ( 'NONE', *, *, #448, .F. ) ;
#640 = CARTESIAN_POINT ( 'NONE',  ( -2.000000000000000888, 1.499999999999999112, 0.000000000000000000 ) ) ;
#641 = CARTESIAN_POINT ( 'NONE',  ( 0.4099999999999999201, 1.820000000000000506, 0.6350000000000000089 ) ) ;
#642 = VERTEX_POINT ( 'NONE', #438 ) ;
#643 = ORIENTED_EDGE ( 'NONE', *, *, #285, .T. ) ;
#644 = CARTESIAN_POINT ( 'NONE',  ( -1.820000000000000506, -0.4100000000000003086, 0.1349999999999999534 ) ) ;
#645 = LINE ( 'NONE', #774, #487 ) ;
#646 = AXIS2_PLACEMENT_3D ( 'NONE', #102, #552, #360 ) ;
#647 = VERTEX_POINT ( 'NONE', #130 ) ;
#648 = VERTEX_POINT ( 'NONE', #567 ) ;
#649 = DIRECTION ( 'NONE',  ( 1.000000000000000000, 5.782411586589356160E-17, 0.000000000000000000 ) ) ;
#650 = DIRECTION ( 'NONE',  ( -0.000000000000000000, 0.000000000000000000, 1.000000000000000000 ) ) ;
#651 = ORIENTED_EDGE ( 'NONE', *, *, #378, .F. ) ;
#652 = CARTESIAN_POINT ( 'NONE',  ( 1.000000000000000000, 2.000000000000000444, 0.6350000000000000089 ) ) ;
#653 = DIRECTION ( 'NONE',  ( -0.000000000000000000, 0.000000000000000000, 1.000000000000000000 ) ) ;
#654 = CARTESIAN_POINT ( 'NONE',  ( -1.200000000000000178, 0.7679571668975719856, 0.1349999999999999534 ) ) ;
#655 = ORIENTED_EDGE ( 'NONE', *, *, #764, .T. ) ;
#656 = CARTESIAN_POINT ( 'NONE',  ( -2.000000000000001776, 1.364999999999999991, 0.6350000000000000089 ) ) ;
#657 = DIRECTION ( 'NONE',  ( 0.000000000000000000, 0.000000000000000000, 1.000000000000000000 ) ) ;
#658 = ADVANCED_FACE ( 'NONE', ( #819 ), #620, .F. ) ;
#659 = PRODUCT_DEFINITION_SHAPE ( 'NONE', 'NONE',  #775 ) ;
#660 = PLANE ( 'NONE',  #537 ) ;
#661 = VERTEX_POINT ( 'NONE', #253 ) ;
#662 =( LENGTH_UNIT ( ) NAMED_UNIT ( * ) SI_UNIT ( .CENTI., .METRE. ) );
#663 = LINE ( 'NONE', #267, #635 ) ;
#664 = CARTESIAN_POINT ( 'NONE',  ( -0.4100000000000000311, 2.000000000000000444, 0.1349999999999999534 ) ) ;
#665 = APPLICATION_CONTEXT ( 'automotive_design' ) ;
#666 = ORIENTED_EDGE ( 'NONE', *, *, #638, .T. ) ;
#667 = CARTESIAN_POINT ( 'NONE',  ( -1.364999999999998215, 2.000000000000000444, 0.3175000000000000044 ) ) ;
#668 = DIRECTION ( 'NONE',  ( -0.5000000000000042188, 0.8660254037844362651, -0.000000000000000000 ) ) ;
#669 = DIRECTION ( 'NONE',  ( 1.000000000000000000, 2.258880508902365962E-16, 0.000000000000000000 ) ) ;
#670 = EDGE_CURVE ( 'NONE', #29, #410, #441, .T. ) ;
#671 = ORIENTED_EDGE ( 'NONE', *, *, #414, .T. ) ;
#672 = DIRECTION ( 'NONE',  ( -0.000000000000000000, 0.000000000000000000, 1.000000000000000000 ) ) ;
#673 = DIRECTION ( 'NONE',  ( -2.312964634635742957E-16, 1.000000000000000000, 0.000000000000000000 ) ) ;
#674 = CARTESIAN_POINT ( 'NONE',  ( -2.000000000000000888, 1.499999999999999334, 0.000000000000000000 ) ) ;
#675 = CIRCLE ( 'NONE', #779, 1.000000000000000000 ) ;
#676 = VECTOR ( 'NONE', #52, 100.0000000000000142 ) ;
#677 = AXIS2_PLACEMENT_3D ( 'NONE', #529, #134, #216 ) ;
#678 = VERTEX_POINT ( 'NONE', #67 ) ;
#679 = PRODUCT_CONTEXT ( 'NONE', #465, 'mechanical' ) ;
#680 = VECTOR ( 'NONE', #47, 100.0000000000000000 ) ;
#681 = EDGE_CURVE ( 'NONE', #587, #268, #51, .T. ) ;
#682 = CARTESIAN_POINT ( 'NONE',  ( 0.4099999999999999201, 1.820000000000000506, 0.6350000000000000089 ) ) ;
#683 = DIRECTION ( 'NONE',  ( -0.000000000000000000, 0.000000000000000000, 1.000000000000000000 ) ) ;
#684 = VERTEX_POINT ( 'NONE', #433 ) ;
#685 = LINE ( 'NONE', #738, #728 ) ;
#686 = CARTESIAN_POINT ( 'NONE',  ( -2.000000000000000444, 0.4099999999999996980, 0.1349999999999999534 ) ) ;
#687 = ORIENTED_EDGE ( 'NONE', *, *, #613, .F. ) ;
#688 = CARTESIAN_POINT ( 'NONE',  ( -2.000000000000000000, -1.500000000000000888, 0.000000000000000000 ) ) ;
#689 = EDGE_CURVE ( 'NONE', #260, #226, #788, .T. ) ;
#690 = CARTESIAN_POINT ( 'NONE',  ( -1.820000000000000506, 0.4099999999999995870, 0.1349999999999999534 ) ) ;
#691 = EDGE_LOOP ( 'NONE', ( #687, #619, #544, #61 ) ) ;
#692 = DIRECTION ( 'NONE',  ( 0.000000000000000000, 1.000000000000000000, 0.000000000000000000 ) ) ;
#693 = VECTOR ( 'NONE', #597, 100.0000000000000000 ) ;
#694 = PLANE ( 'NONE',  #704 ) ;
#695 = ORIENTED_EDGE ( 'NONE', *, *, #26, .F. ) ;
#696 = DIRECTION ( 'NONE',  ( -0.000000000000000000, 0.000000000000000000, 1.000000000000000000 ) ) ;
#697 = ORIENTED_EDGE ( 'NONE', *, *, #12, .T. ) ;
#698 = DIRECTION ( 'NONE',  ( 1.000000000000000000, 0.000000000000000000, 0.000000000000000000 ) ) ;
#699 = ORIENTED_EDGE ( 'NONE', *, *, #750, .T. ) ;
#700 = DIRECTION ( 'NONE',  ( 1.000000000000000000, -4.818676322157798361E-16, 0.000000000000000000 ) ) ;
#701 = EDGE_CURVE ( 'NONE', #678, #684, #777, .T. ) ;
#702 = CIRCLE ( 'NONE', #634, 1.000000000000000000 ) ;
#703 = VECTOR ( 'NONE', #361, 100.0000000000000000 ) ;
#704 = AXIS2_PLACEMENT_3D ( 'NONE', #743, #170, #553 ) ;
#705 = ORIENTED_EDGE ( 'NONE', *, *, #54, .F. ) ;
#706 = DIRECTION ( 'NONE',  ( 4.818676322157798361E-16, 1.000000000000000000, 0.000000000000000000 ) ) ;
#707 = DIRECTION ( 'NONE',  ( -0.8660254037844360431, -0.5000000000000045519, 0.000000000000000000 ) ) ;
#708 = EDGE_CURVE ( 'NONE', #587, #599, #710, .T. ) ;
#709 = EDGE_LOOP ( 'NONE', ( #411, #655, #345, #467 ) ) ;
#710 = LINE ( 'NONE', #7, #765 ) ;
#711 = DIRECTION ( 'NONE',  ( -1.249637081581196951E-16, 1.000000000000000000, -0.000000000000000000 ) ) ;
#712 = EDGE_CURVE ( 'NONE', #607, #29, #15, .T. ) ;
#713 = ORIENTED_EDGE ( 'NONE', *, *, #559, .F. ) ;
#714 = EDGE_LOOP ( 'NONE', ( #76, #451, #389, #110 ) ) ;
#715 = CARTESIAN_POINT ( 'NONE',  ( -1.200000000000000178, 0.7679571668975719856, 0.6350000000000000089 ) ) ;
#716 = DIRECTION ( 'NONE',  ( 1.000000000000000000, 4.818676322157799347E-16, 0.000000000000000000 ) ) ;
#717 = VECTOR ( 'NONE', #716, 100.0000000000000000 ) ;
#718 = VERTEX_POINT ( 'NONE', #282 ) ;
#719 = LINE ( 'NONE', #23, #551 ) ;
#720 = CARTESIAN_POINT ( 'NONE',  ( -0.4099999999999999201, 1.820000000000000506, 0.6350000000000000089 ) ) ;
#721 = FACE_OUTER_BOUND ( 'NONE', #165, .T. ) ;
#722 = CARTESIAN_POINT ( 'NONE',  ( -1.364999999999999991, 16.63499999999999801, 0.6350000000000000089 ) ) ;
#723 = LINE ( 'NONE', #151, #250 ) ;
#724 = ORIENTED_EDGE ( 'NONE', *, *, #598, .T. ) ;
#725 = LINE ( 'NONE', #463, #369 ) ;
#726 = EDGE_CURVE ( 'NONE', #752, #268, #719, .T. ) ;
#727 = LINE ( 'NONE', #405, #381 ) ;
#728 = VECTOR ( 'NONE', #673, 100.0000000000000000 ) ;
#729 = VECTOR ( 'NONE', #312, 100.0000000000000000 ) ;
#730 = LINE ( 'NONE', #100, #155 ) ;
#731 = VERTEX_POINT ( 'NONE', #212 ) ;
#732 = DIRECTION ( 'NONE',  ( -0.5000000000000045519, 0.8660254037844360431, 0.000000000000000000 ) ) ;
#733 = DIRECTION ( 'NONE',  ( 0.000000000000000000, 0.000000000000000000, 1.000000000000000000 ) ) ;
#734 = ADVANCED_FACE ( 'NONE', ( #145 ), #269, .F. ) ;
#735 = CARTESIAN_POINT ( 'NONE',  ( -1.999999999999999112, -1.000000000000000000, 0.6350000000000000089 ) ) ;
#736 = ORIENTED_EDGE ( 'NONE', *, *, #217, .F. ) ;
#737 = CARTESIAN_POINT ( 'NONE',  ( -1.820000000000000506, 0.4099999999999995870, 0.1349999999999999534 ) ) ;
#738 = CARTESIAN_POINT ( 'NONE',  ( -2.000000000000000000, -1.500000000000000888, 0.3175000000000000044 ) ) ;
#739 = LINE ( 'NONE', #348, #693 ) ;
#740 = ADVANCED_FACE ( 'NONE', ( #391 ), #139, .F. ) ;
#741 = VERTEX_POINT ( 'NONE', #715 ) ;
#742 = DIRECTION ( 'NONE',  ( 0.000000000000000000, 0.000000000000000000, 1.000000000000000000 ) ) ;
#743 = CARTESIAN_POINT ( 'NONE',  ( 0.000000000000000000, 0.000000000000000000, 0.000000000000000000 ) ) ;
#744 = VERTEX_POINT ( 'NONE', #468 ) ;
#745 = VECTOR ( 'NONE', #585, 100.0000000000000142 ) ;
#746 = FACE_OUTER_BOUND ( 'NONE', #252, .T. ) ;
#747 = LINE ( 'NONE', #195, #18 ) ;
#748 = ORIENTED_EDGE ( 'NONE', *, *, #633, .T. ) ;
#749 = DIRECTION ( 'NONE',  ( -1.000000000000000000, 4.818676322157799347E-16, -0.000000000000000000 ) ) ;
#750 = EDGE_CURVE ( 'NONE', #629, #425, #725, .T. ) ;
#751 = PLANE ( 'NONE',  #820 ) ;
#752 = VERTEX_POINT ( 'NONE', #652 ) ;
#753 = DIRECTION ( 'NONE',  ( 4.818676322157798361E-16, 1.000000000000000000, 0.000000000000000000 ) ) ;
#754 = LINE ( 'NONE', #690, #680 ) ;
#755 = ORIENTED_EDGE ( 'NONE', *, *, #821, .F. ) ;
#756 = CARTESIAN_POINT ( 'NONE',  ( -1.820000000000000506, 0.4099999999999995870, 0.1349999999999999534 ) ) ;
#757 = ORIENTED_EDGE ( 'NONE', *, *, #559, .T. ) ;
#758 = CARTESIAN_POINT ( 'NONE',  ( 0.000000000000000000, 0.000000000000000000, 0.1349999999999999534 ) ) ;
#759 = EDGE_CURVE ( 'NONE', #648, #390, #73, .T. ) ;
#760 = ORIENTED_EDGE ( 'NONE', *, *, #708, .T. ) ;
#761 = DIRECTION ( 'NONE',  ( 0.000000000000000000, -1.000000000000000000, 0.000000000000000000 ) ) ;
#762 = VERTEX_POINT ( 'NONE', #644 ) ;
#763 = CARTESIAN_POINT ( 'NONE',  ( 0.4100000000000001421, 2.000000000000000444, 0.1349999999999999534 ) ) ;
#764 = EDGE_CURVE ( 'NONE', #772, #813, #399, .T. ) ;
#765 = VECTOR ( 'NONE', #455, 100.0000000000000000 ) ;
#766 = VECTOR ( 'NONE', #482, 100.0000000000000000 ) ;
#767 = DIRECTION ( 'NONE',  ( -0.000000000000000000, 0.000000000000000000, 1.000000000000000000 ) ) ;
#768 = VERTEX_POINT ( 'NONE', #656 ) ;
#769 = FILL_AREA_STYLE ('',( #77 ) ) ;
#770 = EDGE_CURVE ( 'NONE', #446, #607, #276, .T. ) ;
#771 = CARTESIAN_POINT ( 'NONE',  ( -0.4100000000000000311, 2.000000000000000444, 0.6350000000000000089 ) ) ;
#772 = VERTEX_POINT ( 'NONE', #262 ) ;
#773 = DIRECTION ( 'NONE',  ( 0.000000000000000000, 0.000000000000000000, -1.000000000000000000 ) ) ;
#774 = CARTESIAN_POINT ( 'NONE',  ( -16.63499999999999801, 1.364999999999996438, 0.6350000000000000089 ) ) ;
#775 = PRODUCT_DEFINITION ( 'UNKNOWN', '', #126, #39 ) ;
#776 = ORIENTED_EDGE ( 'NONE', *, *, #638, .F. ) ;
#777 = LINE ( 'NONE', #70, #379 ) ;
#778 = FACE_OUTER_BOUND ( 'NONE', #331, .T. ) ;
#779 = AXIS2_PLACEMENT_3D ( 'NONE', #302, #166, #356 ) ;
#780 = AXIS2_PLACEMENT_3D ( 'NONE', #555, #502, #507 ) ;
#781 = AXIS2_PLACEMENT_3D ( 'NONE', #199, #342, #596 ) ;
#782 = ORIENTED_EDGE ( 'NONE', *, *, #783, .F. ) ;
#783 = EDGE_CURVE ( 'NONE', #41, #335, #588, .T. ) ;
#784 = LINE ( 'NONE', #608, #563 ) ;
#785 = DIRECTION ( 'NONE',  ( -0.000000000000000000, 0.000000000000000000, 1.000000000000000000 ) ) ;
#786 = ADVANCED_FACE ( 'NONE', ( #340 ), #328, .T. ) ;
#787 = ORIENTED_EDGE ( 'NONE', *, *, #244, .F. ) ;
#788 = LINE ( 'NONE', #265, #394 ) ;
#789 = CARTESIAN_POINT ( 'NONE',  ( 0.000000000000000000, 0.000000000000000000, 0.000000000000000000 ) ) ;
#790 = DIRECTION ( 'NONE',  ( 5.782411586589356160E-17, -1.000000000000000000, 0.000000000000000000 ) ) ;
#791 = ORIENTED_EDGE ( 'NONE', *, *, #1, .T. ) ;
#792 = LINE ( 'NONE', #688, #261 ) ;
#793 = VECTOR ( 'NONE', #570, 100.0000000000000000 ) ;
#794 = MANIFOLD_SOLID_BREP ( 'Fillet1', #632 ) ;
#795 = CARTESIAN_POINT ( 'NONE',  ( -2.000000000000000000, -1.500000000000000888, 0.6350000000000000089 ) ) ;
#796 = ORIENTED_EDGE ( 'NONE', *, *, #726, .T. ) ;
#797 = LINE ( 'NONE', #227, #368 ) ;
#798 = ADVANCED_FACE ( 'NONE', ( #153 ), #525, .F. ) ;
#799 = ORIENTED_EDGE ( 'NONE', *, *, #533, .F. ) ;
#800 = DIRECTION ( 'NONE',  ( 0.000000000000000000, -1.000000000000000000, 0.000000000000000000 ) ) ;
#801 = CARTESIAN_POINT ( 'NONE',  ( 0.7679571668975722076, 1.199999999999999956, 0.1349999999999999534 ) ) ;
#802 = ORIENTED_EDGE ( 'NONE', *, *, #82, .F. ) ;
#803 = CARTESIAN_POINT ( 'NONE',  ( 3.796405077356794548E-17, 0.3099999999999999978, 0.000000000000000000 ) ) ;
#804 = CARTESIAN_POINT ( 'NONE',  ( 0.000000000000000000, 0.000000000000000000, 0.000000000000000000 ) ) ;
#805 = DIRECTION ( 'NONE',  ( -0.5000000000000042188, -0.8660254037844361541, 0.000000000000000000 ) ) ;
#806 = AXIS2_PLACEMENT_3D ( 'NONE', #758, #121, #447 ) ;
#807 = ORIENTED_EDGE ( 'NONE', *, *, #20, .F. ) ;
#808 = LINE ( 'NONE', #176, #140 ) ;
#809 = CARTESIAN_POINT ( 'NONE',  ( -1.364999999999998215, 2.000000000000001776, 0.6350000000000000089 ) ) ;
#810 = VERTEX_POINT ( 'NONE', #611 ) ;
#811 = CARTESIAN_POINT ( 'NONE',  ( -1.500000000000000222, 2.000000000000000444, 0.000000000000000000 ) ) ;
#812 = CARTESIAN_POINT ( 'NONE',  ( -2.000000000000000444, -0.4100000000000003642, 0.1349999999999999534 ) ) ;
#813 = VERTEX_POINT ( 'NONE', #550 ) ;
#814 = LINE ( 'NONE', #315, #168 ) ;
#815 = DIRECTION ( 'NONE',  ( 1.000000000000000000, 4.818676322157798361E-16, 0.000000000000000000 ) ) ;
#816 = VERTEX_POINT ( 'NONE', #667 ) ;
#817 = VECTOR ( 'NONE', #358, 100.0000000000000000 ) ;
#818 = MECHANICAL_DESIGN_GEOMETRIC_PRESENTATION_REPRESENTATION (  '', ( #274 ), #508 ) ;
#819 = FACE_OUTER_BOUND ( 'NONE', #229, .T. ) ;
#820 = AXIS2_PLACEMENT_3D ( 'NONE', #177, #431, #495 ) ;
#821 = EDGE_CURVE ( 'NONE', #13, #718, #287, .T. ) ;
#822 = ORIENTED_EDGE ( 'NONE', *, *, #31, .T. ) ;
#823 = CARTESIAN_POINT ( 'NONE',  ( 0.4100000000000000311, 2.000000000000000444, 0.6350000000000000089 ) ) ;
#824 = VERTEX_POINT ( 'NONE', #159 ) ;
#825 = FACE_OUTER_BOUND ( 'NONE', #691, .T. ) ;
#826 = ORIENTED_EDGE ( 'NONE', *, *, #547, .F. ) ;
ENDSEC;
END-ISO-10303-21;
