ISO-10303-21;
HEADER;
FILE_DESCRIPTION (( 'STEP AP214' ),
    '1' );
FILE_NAME ('cell-insert.STEP',
    '2026-06-10T13:08:07',
    ( '' ),
    ( '' ),
    'SwSTEP 2.0',
    'SolidWorks 2023',
    '' );
FILE_SCHEMA (( 'AUTOMOTIVE_DESIGN' ));
ENDSEC;

DATA;
#1 = ORIENTED_EDGE ( 'NONE', *, *, #179, .T. ) ;
#2 = PRODUCT_RELATED_PRODUCT_CATEGORY ( 'part', '', ( #234 ) ) ;
#3 = VERTEX_POINT ( 'NONE', #249 ) ;
#4 = LINE ( 'NONE', #283, #340 ) ;
#5 = DIRECTION ( 'NONE',  ( 0.000000000000000000, 0.000000000000000000, -1.000000000000000000 ) ) ;
#6 = EDGE_CURVE ( 'NONE', #32, #105, #4, .T. ) ;
#7 = ORIENTED_EDGE ( 'NONE', *, *, #68, .F. ) ;
#8 = DIRECTION ( 'NONE',  ( 0.000000000000000000, 0.000000000000000000, 1.000000000000000000 ) ) ;
#9 = FACE_BOUND ( 'NONE', #217, .T. ) ;
#10 = FACE_OUTER_BOUND ( 'NONE', #36, .T. ) ;
#11 = AXIS2_PLACEMENT_3D ( 'NONE', #191, #81, #126 ) ;
#12 = AXIS2_PLACEMENT_3D ( 'NONE', #74, #245, #70 ) ;
#13 = CARTESIAN_POINT ( 'NONE',  ( 15.24000000000000021, -15.24000000000000377, 0.3175000000000000044 ) ) ;
#14 = CARTESIAN_POINT ( 'NONE',  ( 0.6300000000000014477, -0.3300000000000025135, 0.3175000000000000044 ) ) ;
#15 = LINE ( 'NONE', #337, #72 ) ;
#16 = ADVANCED_FACE ( 'NONE', ( #394 ), #286, .F. ) ;
#17 = CARTESIAN_POINT ( 'NONE',  ( 14.91000000000000014, -0.6300000000000000044, 0.3175000000000000044 ) ) ;
#18 = DIRECTION ( 'NONE',  ( -9.106159978880876162E-17, -1.000000000000000000, -0.000000000000000000 ) ) ;
#19 = VECTOR ( 'NONE', #28, 100.0000000000000000 ) ;
#20 =( GEOMETRIC_REPRESENTATION_CONTEXT ( 3 ) GLOBAL_UNCERTAINTY_ASSIGNED_CONTEXT ( ( #453 ) ) GLOBAL_UNIT_ASSIGNED_CONTEXT ( ( #327, #324, #106 ) ) REPRESENTATION_CONTEXT ( 'NONE', 'WORKASPACE' ) );
#21 = DIRECTION ( 'NONE',  ( 0.7071067811865442421, 0.7071067811865507924, 0.000000000000000000 ) ) ;
#22 = ADVANCED_FACE ( 'NONE', ( #10 ), #225, .F. ) ;
#23 = ORIENTED_EDGE ( 'NONE', *, *, #424, .F. ) ;
#24 = LINE ( 'NONE', #271, #372 ) ;
#25 =( NAMED_UNIT ( * ) PLANE_ANGLE_UNIT ( ) SI_UNIT ( $, .RADIAN. ) );
#26 = VERTEX_POINT ( 'NONE', #290 ) ;
#27 = VECTOR ( 'NONE', #264, 100.0000000000000000 ) ;
#28 = DIRECTION ( 'NONE',  ( -0.7071067811865442421, -0.7071067811865507924, -0.000000000000000000 ) ) ;
#29 = EDGE_LOOP ( 'NONE', ( #447, #391, #454, #201 ) ) ;
#30 = DIRECTION ( 'NONE',  ( 0.000000000000000000, 0.000000000000000000, -1.000000000000000000 ) ) ;
#31 = EDGE_CURVE ( 'NONE', #130, #142, #89, .T. ) ;
#32 = VERTEX_POINT ( 'NONE', #17 ) ;
#33 = DIRECTION ( 'NONE',  ( 1.000000000000000000, 0.000000000000000000, 0.000000000000000000 ) ) ;
#34 = VERTEX_POINT ( 'NONE', #330 ) ;
#35 = AXIS2_PLACEMENT_3D ( 'NONE', #186, #292, #52 ) ;
#36 = EDGE_LOOP ( 'NONE', ( #208, #23, #412, #200 ) ) ;
#37 = ADVANCED_FACE ( 'NONE', ( #258 ), #157, .F. ) ;
#38 = LINE ( 'NONE', #358, #295 ) ;
#39 = DIRECTION ( 'NONE',  ( 0.000000000000000000, 1.000000000000000000, 0.000000000000000000 ) ) ;
#40 = ORIENTED_EDGE ( 'NONE', *, *, #344, .T. ) ;
#41 = DIRECTION ( 'NONE',  ( 1.000000000000000000, -0.000000000000000000, 0.000000000000000000 ) ) ;
#42 = CARTESIAN_POINT ( 'NONE',  ( 0.3300000000000011258, -14.61000000000000298, 0.3175000000000000044 ) ) ;
#43 = ORIENTED_EDGE ( 'NONE', *, *, #347, .F. ) ;
#44 = CARTESIAN_POINT ( 'NONE',  ( 0.3300000000000011258, -14.91000000000000014, 0.3175000000000000044 ) ) ;
#45 = FACE_OUTER_BOUND ( 'NONE', #380, .T. ) ;
#46 = DIRECTION ( 'NONE',  ( 0.000000000000000000, 0.000000000000000000, 1.000000000000000000 ) ) ;
#47 = STYLED_ITEM ( 'NONE', ( #136 ), #320 ) ;
#48 = CARTESIAN_POINT ( 'NONE',  ( 14.91000000000000014, -0.3300000000000025135, 0.6350000000000000089 ) ) ;
#49 = EDGE_CURVE ( 'NONE', #215, #65, #332, .T. ) ;
#50 = CARTESIAN_POINT ( 'NONE',  ( 0.3300000000000011258, -0.3300000000000025135, 0.3175000000000000044 ) ) ;
#51 = DIRECTION ( 'NONE',  ( 1.000000000000000000, -0.000000000000000000, 0.000000000000000000 ) ) ;
#52 = DIRECTION ( 'NONE',  ( 0.000000000000000000, 0.000000000000000000, 1.000000000000000000 ) ) ;
#53 = CARTESIAN_POINT ( 'NONE',  ( 14.91000000000000014, -0.6300000000000000044, 0.000000000000000000 ) ) ;
#54 = AXIS2_PLACEMENT_3D ( 'NONE', #455, #97, #414 ) ;
#55 = ORIENTED_EDGE ( 'NONE', *, *, #220, .T. ) ;
#56 = CARTESIAN_POINT ( 'NONE',  ( 0.3300000000000011258, -0.3300000000000025135, 0.6350000000000000089 ) ) ;
#57 = ORIENTED_EDGE ( 'NONE', *, *, #96, .T. ) ;
#58 = LINE ( 'NONE', #345, #317 ) ;
#59 = ORIENTED_EDGE ( 'NONE', *, *, #233, .F. ) ;
#60 = CARTESIAN_POINT ( 'NONE',  ( 15.24000000000000021, -15.24000000000000377, 0.3175000000000000044 ) ) ;
#61 = VERTEX_POINT ( 'NONE', #255 ) ;
#62 = AXIS2_PLACEMENT_3D ( 'NONE', #109, #147, #354 ) ;
#63 = EDGE_CURVE ( 'NONE', #239, #34, #223, .T. ) ;
#64 = FILL_AREA_STYLE ('',( #172 ) ) ;
#65 = VERTEX_POINT ( 'NONE', #14 ) ;
#66 = DIRECTION ( 'NONE',  ( 0.000000000000000000, 0.000000000000000000, -1.000000000000000000 ) ) ;
#67 = EDGE_LOOP ( 'NONE', ( #409, #57, #360, #422 ) ) ;
#68 = EDGE_CURVE ( 'NONE', #139, #215, #301, .T. ) ;
#69 = VERTEX_POINT ( 'NONE', #435 ) ;
#70 = DIRECTION ( 'NONE',  ( 1.000000000000000000, 0.000000000000000000, 0.000000000000000000 ) ) ;
#71 = VECTOR ( 'NONE', #83, 100.0000000000000000 ) ;
#72 = VECTOR ( 'NONE', #230, 100.0000000000000000 ) ;
#73 = VERTEX_POINT ( 'NONE', #79 ) ;
#74 = CARTESIAN_POINT ( 'NONE',  ( 15.24000000000000021, 0.000000000000000000, 0.3175000000000000044 ) ) ;
#75 = ORIENTED_EDGE ( 'NONE', *, *, #63, .T. ) ;
#76 = FACE_OUTER_BOUND ( 'NONE', #307, .T. ) ;
#77 = DIRECTION ( 'NONE',  ( 0.000000000000000000, 0.000000000000000000, 1.000000000000000000 ) ) ;
#78 = VECTOR ( 'NONE', #259, 100.0000000000000000 ) ;
#79 = CARTESIAN_POINT ( 'NONE',  ( 0.000000000000000000, -15.24000000000000021, 0.000000000000000000 ) ) ;
#80 = LINE ( 'NONE', #369, #99 ) ;
#81 = DIRECTION ( 'NONE',  ( -0.000000000000000000, 1.000000000000000000, 0.000000000000000000 ) ) ;
#82 = ADVANCED_FACE ( 'NONE', ( #119 ), #261, .T. ) ;
#83 = DIRECTION ( 'NONE',  ( 0.000000000000000000, 0.000000000000000000, -1.000000000000000000 ) ) ;
#84 = PLANE ( 'NONE',  #433 ) ;
#85 = VECTOR ( 'NONE', #302, 100.0000000000000000 ) ;
#86 = CARTESIAN_POINT ( 'NONE',  ( 14.91000000000000014, -14.60999999999999766, 0.3175000000000000044 ) ) ;
#87 = ORIENTED_EDGE ( 'NONE', *, *, #102, .F. ) ;
#88 = DIRECTION ( 'NONE',  ( -0.7071067811865507924, 0.7071067811865442421, 0.000000000000000000 ) ) ;
#89 = LINE ( 'NONE', #44, #326 ) ;
#90 = PLANE ( 'NONE',  #11 ) ;
#91 = DIRECTION ( 'NONE',  ( 0.7071067811865507924, -0.7071067811865442421, -0.000000000000000000 ) ) ;
#92 = AXIS2_PLACEMENT_3D ( 'NONE', #308, #33, #410 ) ;
#93 = EDGE_LOOP ( 'NONE', ( #325, #445, #171, #1 ) ) ;
#94 = DIRECTION ( 'NONE',  ( -1.000000000000000000, 0.000000000000000000, 0.000000000000000000 ) ) ;
#95 = VERTEX_POINT ( 'NONE', #437 ) ;
#96 = EDGE_CURVE ( 'NONE', #34, #95, #221, .T. ) ;
#97 = DIRECTION ( 'NONE',  ( 0.000000000000000000, 0.000000000000000000, 1.000000000000000000 ) ) ;
#98 = ORIENTED_EDGE ( 'NONE', *, *, #411, .F. ) ;
#99 = VECTOR ( 'NONE', #51, 100.0000000000000000 ) ;
#100 = CARTESIAN_POINT ( 'NONE',  ( 0.000000000000000000, -15.24000000000000021, 0.3175000000000000044 ) ) ;
#101 = ORIENTED_EDGE ( 'NONE', *, *, #291, .T. ) ;
#102 = EDGE_CURVE ( 'NONE', #239, #384, #268, .T. ) ;
#103 = ORIENTED_EDGE ( 'NONE', *, *, #334, .F. ) ;
#104 = LINE ( 'NONE', #145, #165 ) ;
#105 = VERTEX_POINT ( 'NONE', #86 ) ;
#106 =( NAMED_UNIT ( * ) SI_UNIT ( $, .STERADIAN. ) SOLID_ANGLE_UNIT ( ) );
#107 =( GEOMETRIC_REPRESENTATION_CONTEXT ( 3 ) GLOBAL_UNCERTAINTY_ASSIGNED_CONTEXT ( ( #116 ) ) GLOBAL_UNIT_ASSIGNED_CONTEXT ( ( #131, #25, #280 ) ) REPRESENTATION_CONTEXT ( 'NONE', 'WORKASPACE' ) );
#108 = PRODUCT_DEFINITION_FORMATION_WITH_SPECIFIED_SOURCE ( 'ANY', '', #234, .NOT_KNOWN. ) ;
#109 = CARTESIAN_POINT ( 'NONE',  ( 0.3300000000000011258, -0.3300000000000025135, 0.000000000000000000 ) ) ;
#110 = ORIENTED_EDGE ( 'NONE', *, *, #370, .T. ) ;
#111 = EDGE_CURVE ( 'NONE', #142, #139, #229, .T. ) ;
#112 = CARTESIAN_POINT ( 'NONE',  ( 14.61000000000000121, -14.91000000000000014, 0.000000000000000000 ) ) ;
#113 = CARTESIAN_POINT ( 'NONE',  ( 0.4799999999999679523, -0.4800000000000359535, 0.3175000000000000044 ) ) ;
#114 = DIRECTION ( 'NONE',  ( -1.000000000000000000, 9.106159978880878627E-17, 0.000000000000000000 ) ) ;
#115 = VECTOR ( 'NONE', #30, 100.0000000000000000 ) ;
#116 = UNCERTAINTY_MEASURE_WITH_UNIT (LENGTH_MEASURE( 1.000000000000000082E-05 ), #131, 'distance_accuracy_value', 'NONE');
#117 = CARTESIAN_POINT ( 'NONE',  ( 14.91000000000000014, -14.60999999999999766, 0.000000000000000000 ) ) ;
#118 = EDGE_CURVE ( 'NONE', #361, #73, #387, .T. ) ;
#119 = FACE_OUTER_BOUND ( 'NONE', #328, .T. ) ;
#120 = PLANE ( 'NONE',  #152 ) ;
#121 = ORIENTED_EDGE ( 'NONE', *, *, #111, .T. ) ;
#122 = CARTESIAN_POINT ( 'NONE',  ( 15.24000000000000021, -15.24000000000000377, 0.3175000000000000044 ) ) ;
#123 = VECTOR ( 'NONE', #299, 100.0000000000000000 ) ;
#124 = DIRECTION ( 'NONE',  ( 0.000000000000000000, -1.000000000000000000, 0.000000000000000000 ) ) ;
#125 = DIRECTION ( 'NONE',  ( -0.7071067811865507924, 0.7071067811865442421, -0.000000000000000000 ) ) ;
#126 = DIRECTION ( 'NONE',  ( 1.000000000000000000, 0.000000000000000000, 0.000000000000000000 ) ) ;
#127 = DIRECTION ( 'NONE',  ( -1.000000000000000000, 9.106159978880876162E-17, 0.000000000000000000 ) ) ;
#128 = CARTESIAN_POINT ( 'NONE',  ( 15.24000000000000021, 0.000000000000000000, 0.3175000000000000044 ) ) ;
#129 = VECTOR ( 'NONE', #21, 100.0000000000000000 ) ;
#130 = VERTEX_POINT ( 'NONE', #216 ) ;
#131 =( LENGTH_UNIT ( ) NAMED_UNIT ( * ) SI_UNIT ( .CENTI., .METRE. ) );
#132 = EDGE_CURVE ( 'NONE', #73, #3, #363, .T. ) ;
#133 = ORIENTED_EDGE ( 'NONE', *, *, #390, .F. ) ;
#134 = PRODUCT_DEFINITION_SHAPE ( 'NONE', 'NONE',  #406 ) ;
#135 = VERTEX_POINT ( 'NONE', #285 ) ;
#136 = PRESENTATION_STYLE_ASSIGNMENT (( #378 ) ) ;
#137 = VERTEX_POINT ( 'NONE', #143 ) ;
#138 = MECHANICAL_DESIGN_GEOMETRIC_PRESENTATION_REPRESENTATION (  '', ( #47 ), #107 ) ;
#139 = VERTEX_POINT ( 'NONE', #42 ) ;
#140 = SHAPE_DEFINITION_REPRESENTATION ( #134, #310 ) ;
#141 = CARTESIAN_POINT ( 'NONE',  ( 0.3300000000000011258, -0.3300000000000025135, 0.000000000000000000 ) ) ;
#142 = VERTEX_POINT ( 'NONE', #182 ) ;
#143 = CARTESIAN_POINT ( 'NONE',  ( 15.24000000000000021, -15.24000000000000377, 0.000000000000000000 ) ) ;
#144 = DIRECTION ( 'NONE',  ( 0.000000000000000000, -1.000000000000000000, 0.000000000000000000 ) ) ;
#145 = CARTESIAN_POINT ( 'NONE',  ( 0.4799999999999679523, -0.4800000000000359535, 0.6350000000000000089 ) ) ;
#146 = VECTOR ( 'NONE', #91, 100.0000000000000000 ) ;
#147 = DIRECTION ( 'NONE',  ( 1.000000000000000000, 0.000000000000000000, 0.000000000000000000 ) ) ;
#148 = LINE ( 'NONE', #461, #274 ) ;
#149 = ORIENTED_EDGE ( 'NONE', *, *, #162, .F. ) ;
#150 = EDGE_CURVE ( 'NONE', #361, #135, #148, .T. ) ;
#151 = DIRECTION ( 'NONE',  ( 0.000000000000000000, 0.000000000000000000, -1.000000000000000000 ) ) ;
#152 = AXIS2_PLACEMENT_3D ( 'NONE', #122, #18, #127 ) ;
#153 = CARTESIAN_POINT ( 'NONE',  ( 14.75999999999996781, -0.4799999999999679523, 0.6350000000000000089 ) ) ;
#154 = LINE ( 'NONE', #13, #78 ) ;
#155 = DIRECTION ( 'NONE',  ( -1.000000000000000000, 0.000000000000000000, 0.000000000000000000 ) ) ;
#156 = FACE_OUTER_BOUND ( 'NONE', #357, .T. ) ;
#157 = PLANE ( 'NONE',  #35 ) ;
#158 = PLANE ( 'NONE',  #199 ) ;
#159 = DIRECTION ( 'NONE',  ( 0.000000000000000000, 0.000000000000000000, 1.000000000000000000 ) ) ;
#160 = EDGE_LOOP ( 'NONE', ( #377, #460, #288, #265 ) ) ;
#161 = EDGE_LOOP ( 'NONE', ( #7, #393, #343, #204 ) ) ;
#162 = EDGE_CURVE ( 'NONE', #318, #361, #211, .T. ) ;
#163 = CARTESIAN_POINT ( 'NONE',  ( 15.24000000000000021, 0.000000000000000000, 0.3175000000000000044 ) ) ;
#164 = VECTOR ( 'NONE', #383, 100.0000000000000000 ) ;
#165 = VECTOR ( 'NONE', #210, 100.0000000000000000 ) ;
#166 = EDGE_LOOP ( 'NONE', ( #196, #101, #244, #175 ) ) ;
#167 = CARTESIAN_POINT ( 'NONE',  ( 14.91000000000000014, -14.60999999999999766, 0.6350000000000000089 ) ) ;
#168 = ORIENTED_EDGE ( 'NONE', *, *, #298, .T. ) ;
#169 = DIRECTION ( 'NONE',  ( 0.000000000000000000, 1.000000000000000000, 0.000000000000000000 ) ) ;
#170 = APPLICATION_CONTEXT ( 'automotive_design' ) ;
#171 = ORIENTED_EDGE ( 'NONE', *, *, #31, .F. ) ;
#172 = FILL_AREA_STYLE_COLOUR ( '', #356 ) ;
#173 = DIRECTION ( 'NONE',  ( 0.000000000000000000, 0.000000000000000000, -1.000000000000000000 ) ) ;
#174 = VECTOR ( 'NONE', #296, 100.0000000000000000 ) ;
#175 = ORIENTED_EDGE ( 'NONE', *, *, #411, .T. ) ;
#176 = CARTESIAN_POINT ( 'NONE',  ( 0.000000000000000000, 0.000000000000000000, 0.000000000000000000 ) ) ;
#177 = ORIENTED_EDGE ( 'NONE', *, *, #395, .F. ) ;
#178 = LINE ( 'NONE', #205, #241 ) ;
#179 = EDGE_CURVE ( 'NONE', #130, #438, #429, .T. ) ;
#180 = ORIENTED_EDGE ( 'NONE', *, *, #162, .T. ) ;
#181 = VECTOR ( 'NONE', #404, 100.0000000000000000 ) ;
#182 = CARTESIAN_POINT ( 'NONE',  ( 0.6300000000000014477, -14.91000000000000014, 0.3175000000000000044 ) ) ;
#183 = PLANE ( 'NONE',  #12 ) ;
#184 = ADVANCED_FACE ( 'NONE', ( #257 ), #206, .F. ) ;
#185 = CARTESIAN_POINT ( 'NONE',  ( 0.3300000000000011258, -0.6300000000000055556, 0.6350000000000000089 ) ) ;
#186 = CARTESIAN_POINT ( 'NONE',  ( 0.3300000000000011258, -14.61000000000000298, 0.000000000000000000 ) ) ;
#187 = CARTESIAN_POINT ( 'NONE',  ( 15.24000000000000021, 0.000000000000000000, 0.000000000000000000 ) ) ;
#188 = AXIS2_PLACEMENT_3D ( 'NONE', #189, #375, #8 ) ;
#189 = CARTESIAN_POINT ( 'NONE',  ( 0.6300000000000014477, -0.3300000000000025135, 0.000000000000000000 ) ) ;
#190 = LINE ( 'NONE', #436, #181 ) ;
#191 = CARTESIAN_POINT ( 'NONE',  ( 0.3300000000000011258, -14.91000000000000014, 0.000000000000000000 ) ) ;
#192 = CARTESIAN_POINT ( 'NONE',  ( 14.91000000000000014, -0.3300000000000025135, 0.000000000000000000 ) ) ;
#193 = ORIENTED_EDGE ( 'NONE', *, *, #284, .F. ) ;
#194 = DIRECTION ( 'NONE',  ( 0.000000000000000000, 1.000000000000000000, 0.000000000000000000 ) ) ;
#195 = EDGE_CURVE ( 'NONE', #384, #105, #420, .T. ) ;
#196 = ORIENTED_EDGE ( 'NONE', *, *, #132, .T. ) ;
#197 = CARTESIAN_POINT ( 'NONE',  ( 0.3300000000000011258, -14.61000000000000298, 0.000000000000000000 ) ) ;
#198 = PLANE ( 'NONE',  #92 ) ;
#199 = AXIS2_PLACEMENT_3D ( 'NONE', #398, #88, #46 ) ;
#200 = ORIENTED_EDGE ( 'NONE', *, *, #430, .F. ) ;
#201 = ORIENTED_EDGE ( 'NONE', *, *, #263, .T. ) ;
#202 = LINE ( 'NONE', #128, #219 ) ;
#203 = EDGE_CURVE ( 'NONE', #318, #137, #154, .T. ) ;
#204 = ORIENTED_EDGE ( 'NONE', *, *, #424, .T. ) ;
#205 = CARTESIAN_POINT ( 'NONE',  ( 0.3300000000000011258, -0.6300000000000055556, 0.000000000000000000 ) ) ;
#206 = PLANE ( 'NONE',  #423 ) ;
#207 = ADVANCED_FACE ( 'NONE', ( #376 ), #84, .F. ) ;
#208 = ORIENTED_EDGE ( 'NONE', *, *, #49, .F. ) ;
#209 = VECTOR ( 'NONE', #114, 100.0000000000000000 ) ;
#210 = DIRECTION ( 'NONE',  ( -0.7071067811865442421, -0.7071067811865507924, -0.000000000000000000 ) ) ;
#211 = LINE ( 'NONE', #289, #209 ) ;
#212 = ORIENTED_EDGE ( 'NONE', *, *, #213, .F. ) ;
#213 = EDGE_CURVE ( 'NONE', #272, #137, #226, .T. ) ;
#214 = PRODUCT_CONTEXT ( 'NONE', #252, 'mechanical' ) ;
#215 = VERTEX_POINT ( 'NONE', #373 ) ;
#216 = CARTESIAN_POINT ( 'NONE',  ( 14.61000000000000121, -14.91000000000000014, 0.3175000000000000044 ) ) ;
#217 = EDGE_LOOP ( 'NONE', ( #382, #458, #55, #351, #346, #110, #275, #121 ) ) ;
#218 = APPLICATION_PROTOCOL_DEFINITION ( 'draft international standard', 'automotive_design', 1998, #170 ) ;
#219 = VECTOR ( 'NONE', #277, 100.0000000000000000 ) ;
#220 = EDGE_CURVE ( 'NONE', #65, #95, #228, .T. ) ;
#221 = LINE ( 'NONE', #368, #71 ) ;
#222 = FACE_OUTER_BOUND ( 'NONE', #253, .T. ) ;
#223 = LINE ( 'NONE', #153, #123 ) ;
#224 = DIRECTION ( 'NONE',  ( -1.000000000000000000, 0.000000000000000000, 0.000000000000000000 ) ) ;
#225 = PLANE ( 'NONE',  #188 ) ;
#226 = LINE ( 'NONE', #338, #293 ) ;
#227 = ADVANCED_FACE ( 'NONE', ( #446 ), #90, .F. ) ;
#228 = LINE ( 'NONE', #50, #386 ) ;
#229 = LINE ( 'NONE', #431, #309 ) ;
#230 = DIRECTION ( 'NONE',  ( 0.000000000000000000, 0.000000000000000000, 1.000000000000000000 ) ) ;
#231 = ORIENTED_EDGE ( 'NONE', *, *, #362, .F. ) ;
#232 = CARTESIAN_POINT ( 'NONE',  ( 0.000000000000000000, -15.24000000000000021, 0.3175000000000000044 ) ) ;
#233 = EDGE_CURVE ( 'NONE', #61, #69, #190, .T. ) ;
#234 = PRODUCT ( 'cell-insert', 'cell-insert', '', ( #214 ) ) ;
#235 = ORIENTED_EDGE ( 'NONE', *, *, #362, .T. ) ;
#236 = LINE ( 'NONE', #348, #19 ) ;
#237 = ORIENTED_EDGE ( 'NONE', *, *, #428, .T. ) ;
#238 = LINE ( 'NONE', #197, #164 ) ;
#239 = VERTEX_POINT ( 'NONE', #371 ) ;
#240 = DIRECTION ( 'NONE',  ( -1.000000000000000000, 9.106159978880878627E-17, 0.000000000000000000 ) ) ;
#241 = VECTOR ( 'NONE', #287, 100.0000000000000000 ) ;
#242 = ORIENTED_EDGE ( 'NONE', *, *, #118, .T. ) ;
#243 = LINE ( 'NONE', #163, #349 ) ;
#244 = ORIENTED_EDGE ( 'NONE', *, *, #213, .T. ) ;
#245 = DIRECTION ( 'NONE',  ( -0.000000000000000000, 1.000000000000000000, 0.000000000000000000 ) ) ;
#246 = ORIENTED_EDGE ( 'NONE', *, *, #203, .F. ) ;
#247 = CARTESIAN_POINT ( 'NONE',  ( 14.61000000000000121, -14.91000000000000014, 0.6350000000000000089 ) ) ;
#248 = ADVANCED_FACE ( 'NONE', ( #222 ), #120, .T. ) ;
#249 = CARTESIAN_POINT ( 'NONE',  ( 0.000000000000000000, 0.000000000000000000, 0.000000000000000000 ) ) ;
#250 = AXIS2_PLACEMENT_3D ( 'NONE', #452, #457, #169 ) ;
#251 = PRODUCT_DEFINITION_CONTEXT ( 'detailed design', #170, 'design' ) ;
#252 = APPLICATION_CONTEXT ( 'automotive_design' ) ;
#253 = EDGE_LOOP ( 'NONE', ( #98, #246, #180, #242 ) ) ;
#254 = APPLICATION_PROTOCOL_DEFINITION ( 'draft international standard', 'automotive_design', 1998, #252 ) ;
#255 = CARTESIAN_POINT ( 'NONE',  ( 0.3300000000000011258, -14.61000000000000298, 0.6350000000000000089 ) ) ;
#256 = VECTOR ( 'NONE', #94, 100.0000000000000000 ) ;
#257 = FACE_OUTER_BOUND ( 'NONE', #67, .T. ) ;
#258 = FACE_OUTER_BOUND ( 'NONE', #418, .T. ) ;
#259 = DIRECTION ( 'NONE',  ( 0.000000000000000000, 0.000000000000000000, -1.000000000000000000 ) ) ;
#260 = ADVANCED_FACE ( 'NONE', ( #45 ), #266, .T. ) ;
#261 = PLANE ( 'NONE',  #451 ) ;
#262 = DIRECTION ( 'NONE',  ( 0.000000000000000000, 1.000000000000000000, 0.000000000000000000 ) ) ;
#263 = EDGE_CURVE ( 'NONE', #32, #239, #15, .T. ) ;
#264 = DIRECTION ( 'NONE',  ( 0.000000000000000000, -1.000000000000000000, 0.000000000000000000 ) ) ;
#265 = ORIENTED_EDGE ( 'NONE', *, *, #263, .F. ) ;
#266 = PLANE ( 'NONE',  #442 ) ;
#267 = CLOSED_SHELL ( 'NONE', ( #278, #227, #16, #184, #82, #313, #260, #248, #319, #440, #399, #37, #270, #207, #22 ) ) ;
#268 = LINE ( 'NONE', #48, #27 ) ;
#269 = DIRECTION ( 'NONE',  ( -0.7071067811865442421, -0.7071067811865507924, 0.000000000000000000 ) ) ;
#270 = ADVANCED_FACE ( 'NONE', ( #156 ), #158, .F. ) ;
#271 = CARTESIAN_POINT ( 'NONE',  ( 15.24000000000000021, 0.000000000000000000, 0.3175000000000000044 ) ) ;
#272 = VERTEX_POINT ( 'NONE', #187 ) ;
#273 = CARTESIAN_POINT ( 'NONE',  ( 14.75999999999996781, -0.4799999999999679523, 0.3175000000000000044 ) ) ;
#274 = VECTOR ( 'NONE', #432, 100.0000000000000000 ) ;
#275 = ORIENTED_EDGE ( 'NONE', *, *, #31, .T. ) ;
#276 = ORIENTED_EDGE ( 'NONE', *, *, #111, .F. ) ;
#277 = DIRECTION ( 'NONE',  ( 1.000000000000000000, -0.000000000000000000, 0.000000000000000000 ) ) ;
#278 = ADVANCED_FACE ( 'NONE', ( #300 ), #444, .F. ) ;
#279 = ORIENTED_EDGE ( 'NONE', *, *, #150, .F. ) ;
#280 =( NAMED_UNIT ( * ) SI_UNIT ( $, .STERADIAN. ) SOLID_ANGLE_UNIT ( ) );
#281 = VECTOR ( 'NONE', #336, 100.0000000000000000 ) ;
#282 = ORIENTED_EDGE ( 'NONE', *, *, #344, .F. ) ;
#283 = CARTESIAN_POINT ( 'NONE',  ( 14.91000000000000014, -0.3300000000000025135, 0.3175000000000000044 ) ) ;
#284 = EDGE_CURVE ( 'NONE', #26, #34, #402, .T. ) ;
#285 = CARTESIAN_POINT ( 'NONE',  ( 0.000000000000000000, 0.000000000000000000, 0.3175000000000000044 ) ) ;
#286 = PLANE ( 'NONE',  #62 ) ;
#287 = DIRECTION ( 'NONE',  ( 0.000000000000000000, 0.000000000000000000, -1.000000000000000000 ) ) ;
#288 = ORIENTED_EDGE ( 'NONE', *, *, #63, .F. ) ;
#289 = CARTESIAN_POINT ( 'NONE',  ( 15.24000000000000021, -15.24000000000000377, 0.3175000000000000044 ) ) ;
#290 = CARTESIAN_POINT ( 'NONE',  ( 0.6300000000000014477, -0.3300000000000025135, 0.6350000000000000089 ) ) ;
#291 = EDGE_CURVE ( 'NONE', #3, #272, #80, .T. ) ;
#292 = DIRECTION ( 'NONE',  ( 0.7071067811865442421, 0.7071067811865507924, -0.000000000000000000 ) ) ;
#293 = VECTOR ( 'NONE', #400, 100.0000000000000000 ) ;
#294 = LINE ( 'NONE', #339, #129 ) ;
#295 = VECTOR ( 'NONE', #367, 100.0000000000000000 ) ;
#296 = DIRECTION ( 'NONE',  ( 0.000000000000000000, 1.000000000000000000, 0.000000000000000000 ) ) ;
#297 = DIRECTION ( 'NONE',  ( 1.000000000000000000, 0.000000000000000000, 0.000000000000000000 ) ) ;
#298 = EDGE_CURVE ( 'NONE', #438, #384, #294, .T. ) ;
#299 = DIRECTION ( 'NONE',  ( -0.7071067811865507924, 0.7071067811865442421, -0.000000000000000000 ) ) ;
#300 = FACE_OUTER_BOUND ( 'NONE', #29, .T. ) ;
#301 = LINE ( 'NONE', #405, #174 ) ;
#302 = DIRECTION ( 'NONE',  ( 1.000000000000000000, 0.000000000000000000, 0.000000000000000000 ) ) ;
#303 = VECTOR ( 'NONE', #39, 100.0000000000000000 ) ;
#304 = DIRECTION ( 'NONE',  ( 0.000000000000000000, 1.000000000000000000, 0.000000000000000000 ) ) ;
#305 = VERTEX_POINT ( 'NONE', #335 ) ;
#306 = DIRECTION ( 'NONE',  ( 0.000000000000000000, -1.000000000000000000, 0.000000000000000000 ) ) ;
#307 = EDGE_LOOP ( 'NONE', ( #427, #323, #235, #341 ) ) ;
#308 = CARTESIAN_POINT ( 'NONE',  ( 15.24000000000000021, 0.000000000000000000, 0.3175000000000000044 ) ) ;
#309 = VECTOR ( 'NONE', #125, 100.0000000000000000 ) ;
#310 = ADVANCED_BREP_SHAPE_REPRESENTATION ( 'cell-insert', ( #320, #366 ), #20 ) ;
#311 = VERTEX_POINT ( 'NONE', #185 ) ;
#312 = LINE ( 'NONE', #56, #397 ) ;
#313 = ADVANCED_FACE ( 'NONE', ( #331, #9 ), #434, .F. ) ;
#314 = EDGE_LOOP ( 'NONE', ( #212, #103, #40, #413 ) ) ;
#315 = PLANE ( 'NONE',  #54 ) ;
#316 = ORIENTED_EDGE ( 'NONE', *, *, #370, .F. ) ;
#317 = VECTOR ( 'NONE', #240, 100.0000000000000000 ) ;
#318 = VERTEX_POINT ( 'NONE', #60 ) ;
#319 = ADVANCED_FACE ( 'NONE', ( #389 ), #198, .T. ) ;
#320 = MANIFOLD_SOLID_BREP ( 'Chamfer1', #267 ) ;
#321 = ORIENTED_EDGE ( 'NONE', *, *, #298, .F. ) ;
#322 = CARTESIAN_POINT ( 'NONE',  ( 0.000000000000000000, 0.000000000000000000, 0.3175000000000000044 ) ) ;
#323 = ORIENTED_EDGE ( 'NONE', *, *, #448, .F. ) ;
#324 =( NAMED_UNIT ( * ) PLANE_ANGLE_UNIT ( ) SI_UNIT ( $, .RADIAN. ) );
#325 = ORIENTED_EDGE ( 'NONE', *, *, #395, .T. ) ;
#326 = VECTOR ( 'NONE', #155, 100.0000000000000000 ) ;
#327 =( LENGTH_UNIT ( ) NAMED_UNIT ( * ) SI_UNIT ( .CENTI., .METRE. ) );
#328 = EDGE_LOOP ( 'NONE', ( #133, #415, #177, #168, #87, #75, #193, #237 ) ) ;
#329 = DIRECTION ( 'NONE',  ( 0.000000000000000000, 1.000000000000000000, 0.000000000000000000 ) ) ;
#330 = CARTESIAN_POINT ( 'NONE',  ( 14.61000000000000121, -0.3300000000000025135, 0.6350000000000000089 ) ) ;
#331 = FACE_OUTER_BOUND ( 'NONE', #456, .T. ) ;
#332 = LINE ( 'NONE', #113, #281 ) ;
#333 = AXIS2_PLACEMENT_3D ( 'NONE', #192, #439, #304 ) ;
#334 = EDGE_CURVE ( 'NONE', #305, #272, #243, .T. ) ;
#335 = CARTESIAN_POINT ( 'NONE',  ( 15.24000000000000021, 0.000000000000000000, 0.3175000000000000044 ) ) ;
#336 = DIRECTION ( 'NONE',  ( 0.7071067811865442421, 0.7071067811865507924, 0.000000000000000000 ) ) ;
#337 = CARTESIAN_POINT ( 'NONE',  ( 14.91000000000000014, -0.6300000000000000044, 0.000000000000000000 ) ) ;
#338 = CARTESIAN_POINT ( 'NONE',  ( 15.24000000000000021, 0.000000000000000000, 0.000000000000000000 ) ) ;
#339 = CARTESIAN_POINT ( 'NONE',  ( 14.76000000000003176, -14.75999999999996781, 0.6350000000000000089 ) ) ;
#340 = VECTOR ( 'NONE', #144, 100.0000000000000000 ) ;
#341 = ORIENTED_EDGE ( 'NONE', *, *, #334, .T. ) ;
#342 = LINE ( 'NONE', #352, #256 ) ;
#343 = ORIENTED_EDGE ( 'NONE', *, *, #390, .T. ) ;
#344 = EDGE_CURVE ( 'NONE', #305, #318, #24, .T. ) ;
#345 = CARTESIAN_POINT ( 'NONE',  ( 15.24000000000000021, -15.24000000000000377, 0.000000000000000000 ) ) ;
#346 = ORIENTED_EDGE ( 'NONE', *, *, #6, .T. ) ;
#347 = EDGE_CURVE ( 'NONE', #139, #61, #238, .T. ) ;
#348 = CARTESIAN_POINT ( 'NONE',  ( 14.76000000000003176, -14.75999999999996781, 0.3175000000000000044 ) ) ;
#349 = VECTOR ( 'NONE', #66, 100.0000000000000000 ) ;
#350 = CARTESIAN_POINT ( 'NONE',  ( 0.6300000000000014477, -14.91000000000000014, 0.000000000000000000 ) ) ;
#351 = ORIENTED_EDGE ( 'NONE', *, *, #353, .T. ) ;
#352 = CARTESIAN_POINT ( 'NONE',  ( 0.3300000000000011258, -14.91000000000000014, 0.6350000000000000089 ) ) ;
#353 = EDGE_CURVE ( 'NONE', #95, #32, #408, .T. ) ;
#354 = DIRECTION ( 'NONE',  ( 0.000000000000000000, -1.000000000000000000, 0.000000000000000000 ) ) ;
#355 = DIRECTION ( 'NONE',  ( 0.000000000000000000, -1.000000000000000000, -0.000000000000000000 ) ) ;
#356 = COLOUR_RGB ( '',0.7921568627450980005, 0.8196078431372548767, 0.9333333333333333481 ) ;
#357 = EDGE_LOOP ( 'NONE', ( #316, #450, #321, #403 ) ) ;
#358 = CARTESIAN_POINT ( 'NONE',  ( 0.6300000000000014477, -0.3300000000000025135, 0.000000000000000000 ) ) ;
#359 = DIRECTION ( 'NONE',  ( -1.000000000000000000, 0.000000000000000000, -0.000000000000000000 ) ) ;
#360 = ORIENTED_EDGE ( 'NONE', *, *, #220, .F. ) ;
#361 = VERTEX_POINT ( 'NONE', #232 ) ;
#362 = EDGE_CURVE ( 'NONE', #135, #305, #202, .T. ) ;
#363 = LINE ( 'NONE', #176, #303 ) ;
#364 = ORIENTED_EDGE ( 'NONE', *, *, #150, .T. ) ;
#365 = PRESENTATION_LAYER_ASSIGNMENT (  '', '', ( #47 ) ) ;
#366 = AXIS2_PLACEMENT_3D ( 'NONE', #392, #329, #41 ) ;
#367 = DIRECTION ( 'NONE',  ( 0.000000000000000000, 0.000000000000000000, 1.000000000000000000 ) ) ;
#368 = CARTESIAN_POINT ( 'NONE',  ( 14.61000000000000121, -0.3300000000000025135, 0.000000000000000000 ) ) ;
#369 = CARTESIAN_POINT ( 'NONE',  ( 15.24000000000000021, 0.000000000000000000, 0.000000000000000000 ) ) ;
#370 = EDGE_CURVE ( 'NONE', #105, #130, #236, .T. ) ;
#371 = CARTESIAN_POINT ( 'NONE',  ( 14.91000000000000014, -0.6300000000000000044, 0.6350000000000000089 ) ) ;
#372 = VECTOR ( 'NONE', #306, 100.0000000000000000 ) ;
#373 = CARTESIAN_POINT ( 'NONE',  ( 0.3300000000000011258, -0.6300000000000055556, 0.3175000000000000044 ) ) ;
#374 = CARTESIAN_POINT ( 'NONE',  ( 0.3300000000000011258, -0.3300000000000025135, 0.6350000000000000089 ) ) ;
#375 = DIRECTION ( 'NONE',  ( 0.7071067811865507924, -0.7071067811865442421, 0.000000000000000000 ) ) ;
#376 = FACE_OUTER_BOUND ( 'NONE', #160, .T. ) ;
#377 = ORIENTED_EDGE ( 'NONE', *, *, #353, .F. ) ;
#378 = SURFACE_STYLE_USAGE ( .BOTH. , #449 ) ;
#379 = VECTOR ( 'NONE', #151, 100.0000000000000000 ) ;
#380 = EDGE_LOOP ( 'NONE', ( #425, #396, #364, #388 ) ) ;
#381 = FACE_OUTER_BOUND ( 'NONE', #166, .T. ) ;
#382 = ORIENTED_EDGE ( 'NONE', *, *, #68, .T. ) ;
#383 = DIRECTION ( 'NONE',  ( 0.000000000000000000, 0.000000000000000000, 1.000000000000000000 ) ) ;
#384 = VERTEX_POINT ( 'NONE', #167 ) ;
#385 = LINE ( 'NONE', #350, #115 ) ;
#386 = VECTOR ( 'NONE', #297, 100.0000000000000000 ) ;
#387 = LINE ( 'NONE', #100, #417 ) ;
#388 = ORIENTED_EDGE ( 'NONE', *, *, #448, .T. ) ;
#389 = FACE_OUTER_BOUND ( 'NONE', #314, .T. ) ;
#390 = EDGE_CURVE ( 'NONE', #61, #311, #312, .T. ) ;
#391 = ORIENTED_EDGE ( 'NONE', *, *, #195, .T. ) ;
#392 = CARTESIAN_POINT ( 'NONE',  ( 0.07619999999999998996, -0.07620000000000001772, 0.006349999999999999742 ) ) ;
#393 = ORIENTED_EDGE ( 'NONE', *, *, #347, .T. ) ;
#394 = FACE_OUTER_BOUND ( 'NONE', #161, .T. ) ;
#395 = EDGE_CURVE ( 'NONE', #438, #69, #342, .T. ) ;
#396 = ORIENTED_EDGE ( 'NONE', *, *, #118, .F. ) ;
#397 = VECTOR ( 'NONE', #194, 100.0000000000000000 ) ;
#398 = CARTESIAN_POINT ( 'NONE',  ( 14.61000000000000121, -14.91000000000000014, 0.000000000000000000 ) ) ;
#399 = ADVANCED_FACE ( 'NONE', ( #381 ), #315, .F. ) ;
#400 = DIRECTION ( 'NONE',  ( 0.000000000000000000, -1.000000000000000000, 0.000000000000000000 ) ) ;
#401 = DIRECTION ( 'NONE',  ( 0.000000000000000000, 0.000000000000000000, 1.000000000000000000 ) ) ;
#402 = LINE ( 'NONE', #374, #85 ) ;
#403 = ORIENTED_EDGE ( 'NONE', *, *, #179, .F. ) ;
#404 = DIRECTION ( 'NONE',  ( 0.7071067811865507924, -0.7071067811865442421, -0.000000000000000000 ) ) ;
#405 = CARTESIAN_POINT ( 'NONE',  ( 0.3300000000000011258, -0.3300000000000025135, 0.3175000000000000044 ) ) ;
#406 = PRODUCT_DEFINITION ( 'UNKNOWN', '', #108, #251 ) ;
#407 = CARTESIAN_POINT ( 'NONE',  ( 0.000000000000000000, 0.000000000000000000, 0.3175000000000000044 ) ) ;
#408 = LINE ( 'NONE', #273, #146 ) ;
#409 = ORIENTED_EDGE ( 'NONE', *, *, #284, .T. ) ;
#410 = DIRECTION ( 'NONE',  ( 0.000000000000000000, -1.000000000000000000, 0.000000000000000000 ) ) ;
#411 = EDGE_CURVE ( 'NONE', #137, #73, #58, .T. ) ;
#412 = ORIENTED_EDGE ( 'NONE', *, *, #428, .F. ) ;
#413 = ORIENTED_EDGE ( 'NONE', *, *, #203, .T. ) ;
#414 = DIRECTION ( 'NONE',  ( 0.000000000000000000, -1.000000000000000000, 0.000000000000000000 ) ) ;
#415 = ORIENTED_EDGE ( 'NONE', *, *, #233, .T. ) ;
#416 = SURFACE_STYLE_FILL_AREA ( #64 ) ;
#417 = VECTOR ( 'NONE', #173, 100.0000000000000000 ) ;
#418 = EDGE_LOOP ( 'NONE', ( #276, #419, #59, #43 ) ) ;
#419 = ORIENTED_EDGE ( 'NONE', *, *, #421, .F. ) ;
#420 = LINE ( 'NONE', #117, #379 ) ;
#421 = EDGE_CURVE ( 'NONE', #69, #142, #385, .T. ) ;
#422 = ORIENTED_EDGE ( 'NONE', *, *, #430, .T. ) ;
#423 = AXIS2_PLACEMENT_3D ( 'NONE', #141, #355, #359 ) ;
#424 = EDGE_CURVE ( 'NONE', #311, #215, #178, .T. ) ;
#425 = ORIENTED_EDGE ( 'NONE', *, *, #132, .F. ) ;
#426 = LINE ( 'NONE', #322, #443 ) ;
#427 = ORIENTED_EDGE ( 'NONE', *, *, #291, .F. ) ;
#428 = EDGE_CURVE ( 'NONE', #26, #311, #104, .T. ) ;
#429 = LINE ( 'NONE', #112, #459 ) ;
#430 = EDGE_CURVE ( 'NONE', #65, #26, #38, .T. ) ;
#431 = CARTESIAN_POINT ( 'NONE',  ( 0.4800000000000331779, -14.76000000000003354, 0.3175000000000000044 ) ) ;
#432 = DIRECTION ( 'NONE',  ( 0.000000000000000000, 1.000000000000000000, 0.000000000000000000 ) ) ;
#433 = AXIS2_PLACEMENT_3D ( 'NONE', #53, #269, #159 ) ;
#434 = PLANE ( 'NONE',  #250 ) ;
#435 = CARTESIAN_POINT ( 'NONE',  ( 0.6300000000000014477, -14.91000000000000014, 0.6350000000000000089 ) ) ;
#436 = CARTESIAN_POINT ( 'NONE',  ( 0.4800000000000331779, -14.76000000000003354, 0.6350000000000000089 ) ) ;
#437 = CARTESIAN_POINT ( 'NONE',  ( 14.61000000000000121, -0.3300000000000025135, 0.3175000000000000044 ) ) ;
#438 = VERTEX_POINT ( 'NONE', #247 ) ;
#439 = DIRECTION ( 'NONE',  ( -1.000000000000000000, 0.000000000000000000, 0.000000000000000000 ) ) ;
#440 = ADVANCED_FACE ( 'NONE', ( #76 ), #183, .T. ) ;
#441 = CARTESIAN_POINT ( 'NONE',  ( 7.619999999999999218, -7.620000000000001883, 0.6350000000000000089 ) ) ;
#442 = AXIS2_PLACEMENT_3D ( 'NONE', #407, #224, #262 ) ;
#443 = VECTOR ( 'NONE', #5, 100.0000000000000000 ) ;
#444 = PLANE ( 'NONE',  #333 ) ;
#445 = ORIENTED_EDGE ( 'NONE', *, *, #421, .T. ) ;
#446 = FACE_OUTER_BOUND ( 'NONE', #93, .T. ) ;
#447 = ORIENTED_EDGE ( 'NONE', *, *, #102, .T. ) ;
#448 = EDGE_CURVE ( 'NONE', #135, #3, #426, .T. ) ;
#449 = SURFACE_SIDE_STYLE ('',( #416 ) ) ;
#450 = ORIENTED_EDGE ( 'NONE', *, *, #195, .F. ) ;
#451 = AXIS2_PLACEMENT_3D ( 'NONE', #441, #401, #124 ) ;
#452 = CARTESIAN_POINT ( 'NONE',  ( 7.619999999999999218, -7.620000000000001883, 0.3175000000000000044 ) ) ;
#453 = UNCERTAINTY_MEASURE_WITH_UNIT (LENGTH_MEASURE( 1.000000000000000082E-05 ), #327, 'distance_accuracy_value', 'NONE');
#454 = ORIENTED_EDGE ( 'NONE', *, *, #6, .F. ) ;
#455 = CARTESIAN_POINT ( 'NONE',  ( 7.619999999999999218, -7.620000000000001883, 0.000000000000000000 ) ) ;
#456 = EDGE_LOOP ( 'NONE', ( #279, #149, #282, #231 ) ) ;
#457 = DIRECTION ( 'NONE',  ( 0.000000000000000000, 0.000000000000000000, -1.000000000000000000 ) ) ;
#458 = ORIENTED_EDGE ( 'NONE', *, *, #49, .T. ) ;
#459 = VECTOR ( 'NONE', #77, 100.0000000000000000 ) ;
#460 = ORIENTED_EDGE ( 'NONE', *, *, #96, .F. ) ;
#461 = CARTESIAN_POINT ( 'NONE',  ( 0.000000000000000000, 0.000000000000000000, 0.3175000000000000044 ) ) ;
ENDSEC;
END-ISO-10303-21;
