ISO-10303-21;
HEADER;
FILE_DESCRIPTION (( 'STEP AP214' ),
    '1' );
FILE_NAME ('connector.STEP',
    '2026-06-10T13:08:03',
    ( '' ),
    ( '' ),
    'SwSTEP 2.0',
    'SolidWorks 2023',
    '' );
FILE_SCHEMA (( 'AUTOMOTIVE_DESIGN' ));
ENDSEC;

DATA;
#1 = CARTESIAN_POINT ( 'NONE',  ( -0.7999999999999938272, 0.9485898384862205823, 2.193668360938501039 ) ) ;
#2 = ORIENTED_EDGE ( 'NONE', *, *, #569, .T. ) ;
#3 = AXIS2_PLACEMENT_3D ( 'NONE', #335, #387, #225 ) ;
#4 = VECTOR ( 'NONE', #606, 100.0000000000000000 ) ;
#5 = PRODUCT_DEFINITION_FORMATION_WITH_SPECIFIED_SOURCE ( 'ANY', '', #455, .NOT_KNOWN. ) ;
#6 = VECTOR ( 'NONE', #528, 100.0000000000000000 ) ;
#7 = FACE_OUTER_BOUND ( 'NONE', #695, .T. ) ;
#8 = VERTEX_POINT ( 'NONE', #622 ) ;
#9 = EDGE_LOOP ( 'NONE', ( #282, #332, #146, #197 ) ) ;
#10 = CARTESIAN_POINT ( 'NONE',  ( 6.990000000000000213, 1.694999999999999396, 0.1825000000000000233 ) ) ;
#11 = EDGE_LOOP ( 'NONE', ( #46, #613, #635, #268, #16, #20 ) ) ;
#12 = DIRECTION ( 'NONE',  ( 0.000000000000000000, -1.000000000000000000, 0.000000000000000000 ) ) ;
#13 = ORIENTED_EDGE ( 'NONE', *, *, #495, .T. ) ;
#14 = VECTOR ( 'NONE', #256, 100.0000000000000000 ) ;
#15 = CARTESIAN_POINT ( 'NONE',  ( -0.7999999999999938272, 0.9485898384862205823, 0.000000000000000000 ) ) ;
#16 = ORIENTED_EDGE ( 'NONE', *, *, #169, .F. ) ;
#17 = PLANE ( 'NONE',  #194 ) ;
#18 = ADVANCED_FACE ( 'NONE', ( #234 ), #615, .F. ) ;
#19 = CARTESIAN_POINT ( 'NONE',  ( 14.77999999999999403, 0.9485898384862205823, 0.5000000000000000000 ) ) ;
#20 = ORIENTED_EDGE ( 'NONE', *, *, #661, .F. ) ;
#21 = CARTESIAN_POINT ( 'NONE',  ( 13.98000000000000043, 3.389999999999998792, 0.000000000000000000 ) ) ;
#22 = PRESENTATION_STYLE_ASSIGNMENT (( #694 ) ) ;
#23 = EDGE_LOOP ( 'NONE', ( #683, #285, #93, #54 ) ) ;
#24 = FACE_OUTER_BOUND ( 'NONE', #397, .T. ) ;
#25 = VECTOR ( 'NONE', #376, 100.0000000000000000 ) ;
#26 = ADVANCED_FACE ( 'NONE', ( #572 ), #17, .T. ) ;
#27 = AXIS2_PLACEMENT_3D ( 'NONE', #552, #95, #543 ) ;
#28 = LINE ( 'NONE', #252, #274 ) ;
#29 = ORIENTED_EDGE ( 'NONE', *, *, #297, .F. ) ;
#30 = DIRECTION ( 'NONE',  ( 1.000000000000000000, 0.000000000000000000, 0.000000000000000000 ) ) ;
#31 = CARTESIAN_POINT ( 'NONE',  ( 13.98000000000000043, 3.389999999999998792, 0.000000000000000000 ) ) ;
#32 = ORIENTED_EDGE ( 'NONE', *, *, #681, .T. ) ;
#33 = LINE ( 'NONE', #532, #544 ) ;
#34 = LINE ( 'NONE', #102, #564 ) ;
#35 = VERTEX_POINT ( 'NONE', #70 ) ;
#36 = CARTESIAN_POINT ( 'NONE',  ( 0.000000000000000000, 3.390000000000000124, 0.5000000000000000000 ) ) ;
#37 = LINE ( 'NONE', #148, #109 ) ;
#38 = VERTEX_POINT ( 'NONE', #342 ) ;
#39 = LINE ( 'NONE', #605, #629 ) ;
#40 = AXIS2_PLACEMENT_3D ( 'NONE', #160, #150, #324 ) ;
#41 = EDGE_CURVE ( 'NONE', #35, #184, #174, .T. ) ;
#42 = LINE ( 'NONE', #266, #333 ) ;
#43 = LINE ( 'NONE', #702, #4 ) ;
#44 = LINE ( 'NONE', #269, #321 ) ;
#45 = LINE ( 'NONE', #442, #215 ) ;
#46 = ORIENTED_EDGE ( 'NONE', *, *, #122, .T. ) ;
#47 = CARTESIAN_POINT ( 'NONE',  ( 0.000000000000000000, 3.390000000000000124, 0.000000000000000000 ) ) ;
#48 = EDGE_CURVE ( 'NONE', #588, #411, #294, .T. ) ;
#49 = LINE ( 'NONE', #550, #390 ) ;
#50 = VERTEX_POINT ( 'NONE', #447 ) ;
#51 = MECHANICAL_DESIGN_GEOMETRIC_PRESENTATION_REPRESENTATION (  '', ( #589 ), #467 ) ;
#52 = DIRECTION ( 'NONE',  ( -0.000000000000000000, -0.000000000000000000, 1.000000000000000000 ) ) ;
#53 = DIRECTION ( 'NONE',  ( 0.000000000000000000, 1.000000000000000000, 0.000000000000000000 ) ) ;
#54 = ORIENTED_EDGE ( 'NONE', *, *, #192, .F. ) ;
#55 = LINE ( 'NONE', #504, #545 ) ;
#56 = EDGE_CURVE ( 'NONE', #245, #508, #568, .T. ) ;
#57 = DIRECTION ( 'NONE',  ( -0.000000000000000000, 1.000000000000000000, 0.000000000000000000 ) ) ;
#58 = VERTEX_POINT ( 'NONE', #353 ) ;
#59 = VECTOR ( 'NONE', #651, 100.0000000000000000 ) ;
#60 = PRESENTATION_LAYER_ASSIGNMENT (  '', '', ( #589 ) ) ;
#61 = ADVANCED_FACE ( 'NONE', ( #575 ), #72, .T. ) ;
#62 = APPLICATION_PROTOCOL_DEFINITION ( 'draft international standard', 'automotive_design', 1998, #626 ) ;
#63 = DIRECTION ( 'NONE',  ( -0.8660254037844384856, 0.5000000000000002220, 0.000000000000000000 ) ) ;
#64 = ORIENTED_EDGE ( 'NONE', *, *, #495, .F. ) ;
#65 = CARTESIAN_POINT ( 'NONE',  ( 6.938893903907228378E-15, 2.095000000000000195, 2.193668360938501039 ) ) ;
#66 =( NAMED_UNIT ( * ) SI_UNIT ( $, .STERADIAN. ) SOLID_ANGLE_UNIT ( ) );
#67 = EDGE_CURVE ( 'NONE', #511, #462, #55, .T. ) ;
#68 = DIRECTION ( 'NONE',  ( 0.000000000000000000, -1.000000000000000000, 0.000000000000000000 ) ) ;
#69 = EDGE_LOOP ( 'NONE', ( #512, #516, #290, #592 ) ) ;
#70 = CARTESIAN_POINT ( 'NONE',  ( 13.98000000000000043, -1.387778780781445676E-15, 0.000000000000000000 ) ) ;
#71 = VERTEX_POINT ( 'NONE', #136 ) ;
#72 = PLANE ( 'NONE',  #393 ) ;
#73 = AXIS2_PLACEMENT_3D ( 'NONE', #432, #485, #444 ) ;
#74 = VECTOR ( 'NONE', #388, 100.0000000000000000 ) ;
#75 = LINE ( 'NONE', #518, #520 ) ;
#76 = ORIENTED_EDGE ( 'NONE', *, *, #365, .T. ) ;
#77 = VECTOR ( 'NONE', #368, 100.0000000000000000 ) ;
#78 = CARTESIAN_POINT ( 'NONE',  ( 13.97999999999999332, 2.095000000000000195, 2.193668360938501039 ) ) ;
#79 = CARTESIAN_POINT ( 'NONE',  ( 0.000000000000000000, 0.3299999999999999045, 0.1825000000000000233 ) ) ;
#80 = ORIENTED_EDGE ( 'NONE', *, *, #220, .F. ) ;
#81 = FACE_OUTER_BOUND ( 'NONE', #161, .T. ) ;
#82 = EDGE_CURVE ( 'NONE', #120, #219, #202, .T. ) ;
#83 = ORIENTED_EDGE ( 'NONE', *, *, #548, .T. ) ;
#84 = CARTESIAN_POINT ( 'NONE',  ( 13.98000000000000043, -1.387778780781445676E-15, 0.000000000000000000 ) ) ;
#85 = VECTOR ( 'NONE', #705, 100.0000000000000000 ) ;
#86 = LINE ( 'NONE', #31, #240 ) ;
#87 = ORIENTED_EDGE ( 'NONE', *, *, #438, .F. ) ;
#88 = DIRECTION ( 'NONE',  ( 0.000000000000000000, -1.000000000000000000, 0.000000000000000000 ) ) ;
#89 = CARTESIAN_POINT ( 'NONE',  ( 13.97999999999999332, 1.294999999999996598, 2.193668360938501039 ) ) ;
#90 = ORIENTED_EDGE ( 'NONE', *, *, #556, .T. ) ;
#91 = ADVANCED_FACE ( 'NONE', ( #643 ), #243, .F. ) ;
#92 = DIRECTION ( 'NONE',  ( 0.000000000000000000, 1.000000000000000000, 0.000000000000000000 ) ) ;
#93 = ORIENTED_EDGE ( 'NONE', *, *, #203, .F. ) ;
#94 = EDGE_CURVE ( 'NONE', #607, #471, #259, .T. ) ;
#95 = DIRECTION ( 'NONE',  ( 0.000000000000000000, 0.000000000000000000, 1.000000000000000000 ) ) ;
#96 = ORIENTED_EDGE ( 'NONE', *, *, #48, .F. ) ;
#97 = PLANE ( 'NONE',  #143 ) ;
#98 = AXIS2_PLACEMENT_3D ( 'NONE', #395, #57, #561 ) ;
#99 = PLANE ( 'NONE',  #228 ) ;
#100 = VECTOR ( 'NONE', #147, 100.0000000000000000 ) ;
#101 = EDGE_CURVE ( 'NONE', #35, #392, #415, .T. ) ;
#102 = CARTESIAN_POINT ( 'NONE',  ( 13.97999999999999510, 0.3299999999999999045, 0.1825000000000000233 ) ) ;
#103 = DIRECTION ( 'NONE',  ( -1.000000000000000000, -0.000000000000000000, 0.000000000000000000 ) ) ;
#104 = ORIENTED_EDGE ( 'NONE', *, *, #539, .T. ) ;
#105 = EDGE_CURVE ( 'NONE', #476, #338, #633, .T. ) ;
#106 = FACE_OUTER_BOUND ( 'NONE', #188, .T. ) ;
#107 = CARTESIAN_POINT ( 'NONE',  ( 13.98000000000000043, 2.095000000000000195, 0.5000000000000000000 ) ) ;
#108 = ORIENTED_EDGE ( 'NONE', *, *, #457, .F. ) ;
#109 = VECTOR ( 'NONE', #498, 100.0000000000000000 ) ;
#110 = FACE_OUTER_BOUND ( 'NONE', #352, .T. ) ;
#111 = ORIENTED_EDGE ( 'NONE', *, *, #609, .T. ) ;
#112 = VECTOR ( 'NONE', #207, 100.0000000000000000 ) ;
#113 = DIRECTION ( 'NONE',  ( 2.481721710982557527E-16, -1.000000000000000000, 0.000000000000000000 ) ) ;
#114 = ORIENTED_EDGE ( 'NONE', *, *, #310, .T. ) ;
#115 = PLANE ( 'NONE',  #644 ) ;
#116 = ORIENTED_EDGE ( 'NONE', *, *, #153, .T. ) ;
#117 = ADVANCED_FACE ( 'NONE', ( #693 ), #130, .T. ) ;
#118 = DIRECTION ( 'NONE',  ( 0.5000000000000043299, 0.8660254037844362651, 0.000000000000000000 ) ) ;
#119 = PLANE ( 'NONE',  #700 ) ;
#120 = VERTEX_POINT ( 'NONE', #360 ) ;
#121 = VECTOR ( 'NONE', #490, 100.0000000000000000 ) ;
#122 = EDGE_CURVE ( 'NONE', #559, #584, #593, .T. ) ;
#123 = DIRECTION ( 'NONE',  ( -1.000000000000000000, 0.000000000000000000, 0.000000000000000000 ) ) ;
#124 = ORIENTED_EDGE ( 'NONE', *, *, #199, .T. ) ;
#125 = ADVANCED_FACE ( 'NONE', ( #24 ), #250, .F. ) ;
#126 = FACE_OUTER_BOUND ( 'NONE', #500, .T. ) ;
#127 = ORIENTED_EDGE ( 'NONE', *, *, #657, .F. ) ;
#128 = DIRECTION ( 'NONE',  ( -1.000000000000000000, 9.926886843930229124E-17, 0.000000000000000000 ) ) ;
#129 = ORIENTED_EDGE ( 'NONE', *, *, #377, .F. ) ;
#130 = PLANE ( 'NONE',  #287 ) ;
#131 =( GEOMETRIC_REPRESENTATION_CONTEXT ( 3 ) GLOBAL_UNCERTAINTY_ASSIGNED_CONTEXT ( ( #334 ) ) GLOBAL_UNIT_ASSIGNED_CONTEXT ( ( #456, #557, #66 ) ) REPRESENTATION_CONTEXT ( 'NONE', 'WORKASPACE' ) );
#132 = VECTOR ( 'NONE', #437, 100.0000000000000142 ) ;
#133 = ORIENTED_EDGE ( 'NONE', *, *, #276, .T. ) ;
#134 = VECTOR ( 'NONE', #625, 100.0000000000000000 ) ;
#135 = ADVANCED_FACE ( 'NONE', ( #81 ), #483, .F. ) ;
#136 = CARTESIAN_POINT ( 'NONE',  ( 14.77999999999999403, 0.9485898384862205823, 0.5000000000000000000 ) ) ;
#137 = DIRECTION ( 'NONE',  ( 0.000000000000000000, 1.000000000000000000, -0.000000000000000000 ) ) ;
#138 = EDGE_LOOP ( 'NONE', ( #691, #249, #96, #642 ) ) ;
#139 = CARTESIAN_POINT ( 'NONE',  ( 14.77999999999999403, 0.9485898384862205823, 0.000000000000000000 ) ) ;
#140 =( NAMED_UNIT ( * ) PLANE_ANGLE_UNIT ( ) SI_UNIT ( $, .RADIAN. ) );
#141 = ORIENTED_EDGE ( 'NONE', *, *, #692, .T. ) ;
#142 = LINE ( 'NONE', #628, #230 ) ;
#143 = AXIS2_PLACEMENT_3D ( 'NONE', #491, #594, #92 ) ;
#144 = VECTOR ( 'NONE', #487, 100.0000000000000000 ) ;
#145 = DIRECTION ( 'NONE',  ( -1.000000000000000000, 0.000000000000000000, 0.000000000000000000 ) ) ;
#146 = ORIENTED_EDGE ( 'NONE', *, *, #67, .F. ) ;
#147 = DIRECTION ( 'NONE',  ( -0.000000000000000000, -1.000000000000000000, 0.000000000000000000 ) ) ;
#148 = CARTESIAN_POINT ( 'NONE',  ( 0.000000000000000000, 0.3299999999999999045, 0.5000000000000000000 ) ) ;
#149 = ORIENTED_EDGE ( 'NONE', *, *, #463, .T. ) ;
#150 = DIRECTION ( 'NONE',  ( 9.926886843930226659E-17, 1.000000000000000000, 0.000000000000000000 ) ) ;
#151 = LINE ( 'NONE', #89, #25 ) ;
#152 = DIRECTION ( 'NONE',  ( 0.000000000000000000, 0.000000000000000000, -1.000000000000000000 ) ) ;
#153 = EDGE_CURVE ( 'NONE', #38, #430, #477, .T. ) ;
#154 = VECTOR ( 'NONE', #370, 100.0000000000000000 ) ;
#155 = LINE ( 'NONE', #712, #346 ) ;
#156 = VECTOR ( 'NONE', #264, 100.0000000000000000 ) ;
#157 = CARTESIAN_POINT ( 'NONE',  ( 14.77999999999999403, 0.9485898384862205823, 0.000000000000000000 ) ) ;
#158 = EDGE_CURVE ( 'NONE', #257, #563, #412, .T. ) ;
#159 = DIRECTION ( 'NONE',  ( 1.000000000000000000, 0.000000000000000000, 0.000000000000000000 ) ) ;
#160 = CARTESIAN_POINT ( 'NONE',  ( 13.98000000000000043, -1.387778780781445676E-15, 0.000000000000000000 ) ) ;
#161 = EDGE_LOOP ( 'NONE', ( #482, #497, #64, #211 ) ) ;
#162 = LINE ( 'NONE', #328, #369 ) ;
#163 = EDGE_LOOP ( 'NONE', ( #149, #171, #124, #116 ) ) ;
#164 = EDGE_CURVE ( 'NONE', #219, #511, #142, .T. ) ;
#165 = DIRECTION ( 'NONE',  ( 0.000000000000000000, 1.000000000000000000, 0.000000000000000000 ) ) ;
#166 = ORIENTED_EDGE ( 'NONE', *, *, #276, .F. ) ;
#167 = VECTOR ( 'NONE', #152, 100.0000000000000000 ) ;
#168 = CLOSED_SHELL ( 'NONE', ( #186, #18, #91, #351, #135, #125, #361, #678, #396, #26, #590, #61, #709, #383, #414, #208, #688, #117, #420, #406, #247, #409 ) ) ;
#169 = EDGE_CURVE ( 'NONE', #411, #35, #33, .T. ) ;
#170 = DIRECTION ( 'NONE',  ( 0.8660254037844363761, 0.5000000000000039968, 0.000000000000000000 ) ) ;
#171 = ORIENTED_EDGE ( 'NONE', *, *, #669, .T. ) ;
#172 = LINE ( 'NONE', #343, #379 ) ;
#173 = VERTEX_POINT ( 'NONE', #424 ) ;
#174 = LINE ( 'NONE', #468, #417 ) ;
#175 = DIRECTION ( 'NONE',  ( 0.000000000000000000, 0.000000000000000000, -1.000000000000000000 ) ) ;
#176 = PLANE ( 'NONE',  #577 ) ;
#177 = ORIENTED_EDGE ( 'NONE', *, *, #258, .F. ) ;
#178 = EDGE_CURVE ( 'NONE', #182, #588, #356, .T. ) ;
#179 = VECTOR ( 'NONE', #137, 100.0000000000000000 ) ;
#180 = PLANE ( 'NONE',  #533 ) ;
#181 = VERTEX_POINT ( 'NONE', #578 ) ;
#182 = VERTEX_POINT ( 'NONE', #300 ) ;
#183 = CARTESIAN_POINT ( 'NONE',  ( 13.98000000000000043, 3.389999999999998792, 0.000000000000000000 ) ) ;
#184 = VERTEX_POINT ( 'NONE', #475 ) ;
#185 = DIRECTION ( 'NONE',  ( 0.000000000000000000, -1.000000000000000000, 0.000000000000000000 ) ) ;
#186 = ADVANCED_FACE ( 'NONE', ( #684 ), #189, .F. ) ;
#187 = CARTESIAN_POINT ( 'NONE',  ( 13.98000000000000043, -1.387778780781445676E-15, 0.1825000000000000233 ) ) ;
#188 = EDGE_LOOP ( 'NONE', ( #277, #83, #676, #108 ) ) ;
#189 = PLANE ( 'NONE',  #40 ) ;
#190 = AXIS2_PLACEMENT_3D ( 'NONE', #21, #198, #307 ) ;
#191 = LINE ( 'NONE', #79, #450 ) ;
#192 = EDGE_CURVE ( 'NONE', #173, #181, #496, .T. ) ;
#193 = ORIENTED_EDGE ( 'NONE', *, *, #56, .F. ) ;
#194 = AXIS2_PLACEMENT_3D ( 'NONE', #283, #118, #671 ) ;
#195 = CARTESIAN_POINT ( 'NONE',  ( -0.7999999999999938272, 0.9485898384862205823, 0.5000000000000000000 ) ) ;
#196 = CARTESIAN_POINT ( 'NONE',  ( -0.7999999999999938272, 0.9485898384862205823, 0.5000000000000000000 ) ) ;
#197 = ORIENTED_EDGE ( 'NONE', *, *, #164, .F. ) ;
#198 = DIRECTION ( 'NONE',  ( -1.000000000000000000, 0.000000000000000000, 0.000000000000000000 ) ) ;
#199 = EDGE_CURVE ( 'NONE', #340, #38, #39, .T. ) ;
#200 = LINE ( 'NONE', #682, #608 ) ;
#201 = VERTEX_POINT ( 'NONE', #547 ) ;
#202 = LINE ( 'NONE', #581, #601 ) ;
#203 = EDGE_CURVE ( 'NONE', #181, #464, #445, .T. ) ;
#204 = VECTOR ( 'NONE', #170, 100.0000000000000000 ) ;
#205 = CARTESIAN_POINT ( 'NONE',  ( 0.000000000000000000, 3.390000000000000124, 0.000000000000000000 ) ) ;
#206 = EDGE_LOOP ( 'NONE', ( #531, #452, #486, #114, #90, #104, #271, #236, #443, #562, #127, #293, #141, #227, #638, #2 ) ) ;
#207 = DIRECTION ( 'NONE',  ( -0.000000000000000000, -0.000000000000000000, 1.000000000000000000 ) ) ;
#208 = ADVANCED_FACE ( 'NONE', ( #110 ), #99, .T. ) ;
#209 = CARTESIAN_POINT ( 'NONE',  ( 0.000000000000000000, 3.390000000000000124, 0.000000000000000000 ) ) ;
#210 = CARTESIAN_POINT ( 'NONE',  ( -0.7999999999999938272, 2.441410161513779986, 0.000000000000000000 ) ) ;
#211 = ORIENTED_EDGE ( 'NONE', *, *, #484, .F. ) ;
#212 = FACE_OUTER_BOUND ( 'NONE', #206, .T. ) ;
#213 = CARTESIAN_POINT ( 'NONE',  ( 14.17999999999999261, 2.095000000000000195, 0.000000000000000000 ) ) ;
#214 = PLANE ( 'NONE',  #389 ) ;
#215 = VECTOR ( 'NONE', #655, 100.0000000000000000 ) ;
#216 = CARTESIAN_POINT ( 'NONE',  ( 13.97999999999999510, 0.3299999999999999045, 0.1825000000000000233 ) ) ;
#217 = CARTESIAN_POINT ( 'NONE',  ( 0.000000000000000000, 3.059999999999998721, 0.5000000000000000000 ) ) ;
#218 = CARTESIAN_POINT ( 'NONE',  ( 14.77999999999999403, 0.9485898384862205823, 2.193668360938501039 ) ) ;
#219 = VERTEX_POINT ( 'NONE', #107 ) ;
#220 = EDGE_CURVE ( 'NONE', #242, #698, #659, .T. ) ;
#221 = APPLICATION_CONTEXT ( 'automotive_design' ) ;
#222 = LINE ( 'NONE', #616, #272 ) ;
#223 = CARTESIAN_POINT ( 'NONE',  ( 0.000000000000000000, 3.059999999999996945, 0.1825000000000000233 ) ) ;
#224 = EDGE_LOOP ( 'NONE', ( #611, #571, #315, #239 ) ) ;
#225 = DIRECTION ( 'NONE',  ( 1.000000000000000000, 0.000000000000000000, -0.000000000000000000 ) ) ;
#226 = CARTESIAN_POINT ( 'NONE',  ( 14.17999999999999261, 2.095000000000000195, 0.000000000000000000 ) ) ;
#227 = ORIENTED_EDGE ( 'NONE', *, *, #158, .T. ) ;
#228 = AXIS2_PLACEMENT_3D ( 'NONE', #218, #319, #337 ) ;
#229 = ORIENTED_EDGE ( 'NONE', *, *, #203, .T. ) ;
#230 = VECTOR ( 'NONE', #536, 100.0000000000000000 ) ;
#231 = VECTOR ( 'NONE', #291, 100.0000000000000000 ) ;
#232 = DIRECTION ( 'NONE',  ( -1.000000000000000000, -2.481721710982557527E-16, 0.000000000000000000 ) ) ;
#233 = ORIENTED_EDGE ( 'NONE', *, *, #665, .T. ) ;
#234 = FACE_OUTER_BOUND ( 'NONE', #11, .T. ) ;
#235 = DIRECTION ( 'NONE',  ( 0.000000000000000000, 0.000000000000000000, -1.000000000000000000 ) ) ;
#236 = ORIENTED_EDGE ( 'NONE', *, *, #82, .T. ) ;
#237 = CARTESIAN_POINT ( 'NONE',  ( 6.938893903907228378E-15, 1.294999999999999929, 2.193668360938501039 ) ) ;
#238 = CARTESIAN_POINT ( 'NONE',  ( 0.000000000000000000, 3.390000000000000124, 0.000000000000000000 ) ) ;
#239 = ORIENTED_EDGE ( 'NONE', *, *, #582, .F. ) ;
#240 = VECTOR ( 'NONE', #305, 100.0000000000000000 ) ;
#241 = LINE ( 'NONE', #679, #14 ) ;
#242 = VERTEX_POINT ( 'NONE', #596 ) ;
#243 = PLANE ( 'NONE',  #634 ) ;
#244 = CARTESIAN_POINT ( 'NONE',  ( 0.000000000000000000, 0.3299999999999999045, 0.5000000000000000000 ) ) ;
#245 = VERTEX_POINT ( 'NONE', #381 ) ;
#246 = CARTESIAN_POINT ( 'NONE',  ( 14.17999999999999261, 1.294999999999996598, 2.193668360938501039 ) ) ;
#247 = ADVANCED_FACE ( 'NONE', ( #375 ), #275, .T. ) ;
#248 =( LENGTH_UNIT ( ) NAMED_UNIT ( * ) SI_UNIT ( .CENTI., .METRE. ) );
#249 = ORIENTED_EDGE ( 'NONE', *, *, #661, .T. ) ;
#250 = PLANE ( 'NONE',  #190 ) ;
#251 = VECTOR ( 'NONE', #331, 100.0000000000000000 ) ;
#252 = CARTESIAN_POINT ( 'NONE',  ( -0.7999999999999938272, 2.441410161513779986, 2.193668360938501039 ) ) ;
#253 = VERTEX_POINT ( 'NONE', #210 ) ;
#254 = EDGE_CURVE ( 'NONE', #567, #698, #162, .T. ) ;
#255 = DIRECTION ( 'NONE',  ( -1.240860855491278517E-16, -1.000000000000000000, 0.000000000000000000 ) ) ;
#256 = DIRECTION ( 'NONE',  ( 1.000000000000000000, 2.481721710982557527E-16, -0.000000000000000000 ) ) ;
#257 = VERTEX_POINT ( 'NONE', #652 ) ;
#258 = EDGE_CURVE ( 'NONE', #253, #299, #49, .T. ) ;
#259 = LINE ( 'NONE', #304, #77 ) ;
#260 = DIRECTION ( 'NONE',  ( 0.000000000000000000, 1.000000000000000000, 0.000000000000000000 ) ) ;
#261 = ORIENTED_EDGE ( 'NONE', *, *, #609, .F. ) ;
#262 = DIRECTION ( 'NONE',  ( 1.000000000000000000, -1.240860855491278517E-16, 0.000000000000000000 ) ) ;
#263 = LINE ( 'NONE', #384, #530 ) ;
#264 = DIRECTION ( 'NONE',  ( 0.000000000000000000, -1.000000000000000000, 0.000000000000000000 ) ) ;
#265 = EDGE_CURVE ( 'NONE', #471, #219, #708, .T. ) ;
#266 = CARTESIAN_POINT ( 'NONE',  ( -0.1999999999999932387, 2.095000000000000195, 0.5000000000000000000 ) ) ;
#267 = LINE ( 'NONE', #699, #112 ) ;
#268 = ORIENTED_EDGE ( 'NONE', *, *, #101, .F. ) ;
#269 = CARTESIAN_POINT ( 'NONE',  ( 14.17999999999999261, 2.095000000000000195, 0.5000000000000000000 ) ) ;
#270 = LINE ( 'NONE', #213, #132 ) ;
#271 = ORIENTED_EDGE ( 'NONE', *, *, #703, .T. ) ;
#272 = VECTOR ( 'NONE', #175, 100.0000000000000000 ) ;
#273 = DIRECTION ( 'NONE',  ( -0.000000000000000000, -0.000000000000000000, 1.000000000000000000 ) ) ;
#274 = VECTOR ( 'NONE', #295, 100.0000000000000000 ) ;
#275 = PLANE ( 'NONE',  #27 ) ;
#276 = EDGE_CURVE ( 'NONE', #242, #471, #499, .T. ) ;
#277 = ORIENTED_EDGE ( 'NONE', *, *, #158, .F. ) ;
#278 = DIRECTION ( 'NONE',  ( -1.000000000000000000, 0.000000000000000000, 0.000000000000000000 ) ) ;
#279 = LINE ( 'NONE', #1, #685 ) ;
#280 = EDGE_CURVE ( 'NONE', #538, #299, #43, .T. ) ;
#281 = CARTESIAN_POINT ( 'NONE',  ( 6.990000000000000213, 1.694999999999999396, 0.000000000000000000 ) ) ;
#282 = ORIENTED_EDGE ( 'NONE', *, *, #82, .F. ) ;
#283 = CARTESIAN_POINT ( 'NONE',  ( -0.1999999999999932387, 2.095000000000000195, 2.193668360938501039 ) ) ;
#284 = PLANE ( 'NONE',  #416 ) ;
#285 = ORIENTED_EDGE ( 'NONE', *, *, #457, .T. ) ;
#286 = VECTOR ( 'NONE', #52, 100.0000000000000000 ) ;
#287 = AXIS2_PLACEMENT_3D ( 'NONE', #78, #372, #421 ) ;
#288 = EDGE_CURVE ( 'NONE', #479, #434, #713, .T. ) ;
#289 = FACE_OUTER_BOUND ( 'NONE', #371, .T. ) ;
#290 = ORIENTED_EDGE ( 'NONE', *, *, #325, .F. ) ;
#291 = DIRECTION ( 'NONE',  ( 0.000000000000000000, 0.000000000000000000, -1.000000000000000000 ) ) ;
#292 = CARTESIAN_POINT ( 'NONE',  ( -0.7999999999999938272, 0.9485898384862205823, 0.000000000000000000 ) ) ;
#293 = ORIENTED_EDGE ( 'NONE', *, *, #377, .T. ) ;
#294 = LINE ( 'NONE', #401, #134 ) ;
#295 = DIRECTION ( 'NONE',  ( 0.000000000000000000, 0.000000000000000000, -1.000000000000000000 ) ) ;
#296 = VECTOR ( 'NONE', #273, 100.0000000000000000 ) ;
#297 = EDGE_CURVE ( 'NONE', #624, #567, #267, .T. ) ;
#298 = LINE ( 'NONE', #19, #179 ) ;
#299 = VERTEX_POINT ( 'NONE', #431 ) ;
#300 = CARTESIAN_POINT ( 'NONE',  ( 14.17999999999999261, 1.294999999999996598, 0.5000000000000000000 ) ) ;
#301 = PRODUCT_RELATED_PRODUCT_CATEGORY ( 'part', '', ( #455 ) ) ;
#302 = DIRECTION ( 'NONE',  ( -0.000000000000000000, -1.000000000000000000, 0.000000000000000000 ) ) ;
#303 = ORIENTED_EDGE ( 'NONE', *, *, #354, .F. ) ;
#304 = CARTESIAN_POINT ( 'NONE',  ( 0.000000000000000000, 3.059999999999996945, 0.5000000000000000000 ) ) ;
#305 = DIRECTION ( 'NONE',  ( -0.000000000000000000, -0.000000000000000000, 1.000000000000000000 ) ) ;
#306 = ORIENTED_EDGE ( 'NONE', *, *, #681, .F. ) ;
#307 = DIRECTION ( 'NONE',  ( 0.000000000000000000, 1.000000000000000000, -0.000000000000000000 ) ) ;
#308 = VECTOR ( 'NONE', #159, 100.0000000000000000 ) ;
#309 = VECTOR ( 'NONE', #366, 100.0000000000000000 ) ;
#310 = EDGE_CURVE ( 'NONE', #559, #182, #433, .T. ) ;
#311 = FILL_AREA_STYLE ('',( #362 ) ) ;
#312 = ORIENTED_EDGE ( 'NONE', *, *, #649, .T. ) ;
#313 = DIRECTION ( 'NONE',  ( 0.000000000000000000, 0.000000000000000000, -1.000000000000000000 ) ) ;
#314 = CARTESIAN_POINT ( 'NONE',  ( 0.000000000000000000, 3.390000000000000124, 0.5000000000000000000 ) ) ;
#315 = ORIENTED_EDGE ( 'NONE', *, *, #649, .F. ) ;
#316 = CARTESIAN_POINT ( 'NONE',  ( 13.98000000000000043, 3.389999999999998792, 0.000000000000000000 ) ) ;
#317 = CARTESIAN_POINT ( 'NONE',  ( 14.17999999999999261, 1.294999999999996598, 0.000000000000000000 ) ) ;
#318 = ORIENTED_EDGE ( 'NONE', *, *, #509, .F. ) ;
#319 = DIRECTION ( 'NONE',  ( 1.000000000000000000, 0.000000000000000000, 0.000000000000000000 ) ) ;
#320 = ORIENTED_EDGE ( 'NONE', *, *, #509, .T. ) ;
#321 = VECTOR ( 'NONE', #494, 100.0000000000000142 ) ;
#322 = AXIS2_PLACEMENT_3D ( 'NONE', #223, #113, #232 ) ;
#323 = PLANE ( 'NONE',  #448 ) ;
#324 = DIRECTION ( 'NONE',  ( 1.000000000000000000, -9.926886843930226659E-17, 0.000000000000000000 ) ) ;
#325 = EDGE_CURVE ( 'NONE', #462, #476, #270, .T. ) ;
#326 = PRODUCT_DEFINITION_CONTEXT ( 'detailed design', #221, 'design' ) ;
#327 = DIRECTION ( 'NONE',  ( -0.8660254037844361541, 0.5000000000000042188, 0.000000000000000000 ) ) ;
#328 = CARTESIAN_POINT ( 'NONE',  ( 13.98000000000000043, 3.389999999999998792, 0.1825000000000000233 ) ) ;
#329 = ORIENTED_EDGE ( 'NONE', *, *, #556, .F. ) ;
#330 = PLANE ( 'NONE',  #73 ) ;
#331 = DIRECTION ( 'NONE',  ( 0.000000000000000000, 1.000000000000000000, -0.000000000000000000 ) ) ;
#332 = ORIENTED_EDGE ( 'NONE', *, *, #515, .T. ) ;
#333 = VECTOR ( 'NONE', #327, 100.0000000000000000 ) ;
#334 = UNCERTAINTY_MEASURE_WITH_UNIT (LENGTH_MEASURE( 1.000000000000000082E-05 ), #456, 'distance_accuracy_value', 'NONE');
#335 = CARTESIAN_POINT ( 'NONE',  ( 0.06990000000000000380, 0.01694999999999999285, 0.005000000000000000104 ) ) ;
#336 = VECTOR ( 'NONE', #630, 100.0000000000000000 ) ;
#337 = DIRECTION ( 'NONE',  ( 0.000000000000000000, -1.000000000000000000, 0.000000000000000000 ) ) ;
#338 = VERTEX_POINT ( 'NONE', #157 ) ;
#339 = FACE_OUTER_BOUND ( 'NONE', #138, .T. ) ;
#340 = VERTEX_POINT ( 'NONE', #216 ) ;
#341 = EDGE_CURVE ( 'NONE', #299, #508, #45, .T. ) ;
#342 = CARTESIAN_POINT ( 'NONE',  ( 0.000000000000000000, 0.3299999999999999045, 0.1825000000000000233 ) ) ;
#343 = CARTESIAN_POINT ( 'NONE',  ( 13.98000000000000043, 3.389999999999998792, 0.000000000000000000 ) ) ;
#344 = ORIENTED_EDGE ( 'NONE', *, *, #631, .T. ) ;
#345 = ORIENTED_EDGE ( 'NONE', *, *, #164, .T. ) ;
#346 = VECTOR ( 'NONE', #145, 100.0000000000000000 ) ;
#347 = FACE_OUTER_BOUND ( 'NONE', #404, .T. ) ;
#348 = ORIENTED_EDGE ( 'NONE', *, *, #525, .F. ) ;
#349 = FACE_OUTER_BOUND ( 'NONE', #527, .T. ) ;
#350 = ORIENTED_EDGE ( 'NONE', *, *, #153, .F. ) ;
#351 = ADVANCED_FACE ( 'NONE', ( #620 ), #115, .F. ) ;
#352 = EDGE_LOOP ( 'NONE', ( #466, #363, #534, #627 ) ) ;
#353 = CARTESIAN_POINT ( 'NONE',  ( 13.98000000000000043, 3.389999999999998792, 0.000000000000000000 ) ) ;
#354 = EDGE_CURVE ( 'NONE', #58, #511, #172, .T. ) ;
#355 = ORIENTED_EDGE ( 'NONE', *, *, #484, .T. ) ;
#356 = LINE ( 'NONE', #246, #357 ) ;
#357 = VECTOR ( 'NONE', #313, 100.0000000000000000 ) ;
#358 = LINE ( 'NONE', #183, #619 ) ;
#359 = ORIENTED_EDGE ( 'NONE', *, *, #692, .F. ) ;
#360 = CARTESIAN_POINT ( 'NONE',  ( 14.17999999999999261, 2.095000000000000195, 0.5000000000000000000 ) ) ;
#361 = ADVANCED_FACE ( 'NONE', ( #126 ), #284, .T. ) ;
#362 = FILL_AREA_STYLE_COLOUR ( '', #440 ) ;
#363 = ORIENTED_EDGE ( 'NONE', *, *, #535, .T. ) ;
#364 = CARTESIAN_POINT ( 'NONE',  ( 0.000000000000000000, 3.390000000000000124, 0.000000000000000000 ) ) ;
#365 = EDGE_CURVE ( 'NONE', #464, #253, #570, .T. ) ;
#366 = DIRECTION ( 'NONE',  ( 0.000000000000000000, 0.000000000000000000, -1.000000000000000000 ) ) ;
#367 = ORIENTED_EDGE ( 'NONE', *, *, #169, .T. ) ;
#368 = DIRECTION ( 'NONE',  ( 1.000000000000000000, 2.481721710982557527E-16, -0.000000000000000000 ) ) ;
#369 = VECTOR ( 'NONE', #262, 100.0000000000000000 ) ;
#370 = DIRECTION ( 'NONE',  ( 0.000000000000000000, 1.000000000000000000, 0.000000000000000000 ) ) ;
#371 = EDGE_LOOP ( 'NONE', ( #329, #408, #306, #618 ) ) ;
#372 = DIRECTION ( 'NONE',  ( 0.000000000000000000, 1.000000000000000000, -0.000000000000000000 ) ) ;
#373 = LINE ( 'NONE', #704, #296 ) ;
#374 = ORIENTED_EDGE ( 'NONE', *, *, #505, .T. ) ;
#375 = FACE_OUTER_BOUND ( 'NONE', #163, .T. ) ;
#376 = DIRECTION ( 'NONE',  ( 0.000000000000000000, 0.000000000000000000, -1.000000000000000000 ) ) ;
#377 = EDGE_CURVE ( 'NONE', #245, #538, #465, .T. ) ;
#378 = CARTESIAN_POINT ( 'NONE',  ( 13.97999999999999510, 3.060000000000000053, 0.1825000000000000233 ) ) ;
#379 = VECTOR ( 'NONE', #68, 100.0000000000000000 ) ;
#380 = DIRECTION ( 'NONE',  ( -0.000000000000000000, -0.000000000000000000, 1.000000000000000000 ) ) ;
#381 = CARTESIAN_POINT ( 'NONE',  ( 0.000000000000000000, 2.095000000000000195, 0.5000000000000000000 ) ) ;
#382 = ORIENTED_EDGE ( 'NONE', *, *, #41, .T. ) ;
#383 = ADVANCED_FACE ( 'NONE', ( #339 ), #662, .T. ) ;
#384 = CARTESIAN_POINT ( 'NONE',  ( 6.938893903907228378E-15, 1.294999999999999929, 2.193668360938501039 ) ) ;
#385 = CARTESIAN_POINT ( 'NONE',  ( -0.1999999999999932387, 1.294999999999999929, 0.000000000000000000 ) ) ;
#386 = EDGE_CURVE ( 'NONE', #563, #173, #507, .T. ) ;
#387 = DIRECTION ( 'NONE',  ( 0.000000000000000000, 1.000000000000000000, -0.000000000000000000 ) ) ;
#388 = DIRECTION ( 'NONE',  ( -0.8660254037844363761, -0.5000000000000039968, 0.000000000000000000 ) ) ;
#389 = AXIS2_PLACEMENT_3D ( 'NONE', #237, #658, #278 ) ;
#390 = VECTOR ( 'NONE', #650, 100.0000000000000000 ) ;
#391 = DIRECTION ( 'NONE',  ( 1.000000000000000000, 0.000000000000000000, 0.000000000000000000 ) ) ;
#392 = VERTEX_POINT ( 'NONE', #668 ) ;
#393 = AXIS2_PLACEMENT_3D ( 'NONE', #521, #394, #560 ) ;
#394 = DIRECTION ( 'NONE',  ( 0.5000000000000039968, -0.8660254037844363761, 0.000000000000000000 ) ) ;
#395 = CARTESIAN_POINT ( 'NONE',  ( 6.938893903907228378E-15, 2.095000000000000195, 2.193668360938501039 ) ) ;
#396 = ADVANCED_FACE ( 'NONE', ( #347 ), #612, .T. ) ;
#397 = EDGE_LOOP ( 'NONE', ( #80, #133, #580, #345, #303, #13 ) ) ;
#398 = ORIENTED_EDGE ( 'NONE', *, *, #199, .F. ) ;
#399 = DIRECTION ( 'NONE',  ( -1.000000000000000000, 0.000000000000000000, 0.000000000000000000 ) ) ;
#400 = ORIENTED_EDGE ( 'NONE', *, *, #67, .T. ) ;
#401 = CARTESIAN_POINT ( 'NONE',  ( 13.97999999999999332, 1.294999999999996598, 0.000000000000000000 ) ) ;
#402 = PRODUCT_CONTEXT ( 'NONE', #626, 'mechanical' ) ;
#403 = DIRECTION ( 'NONE',  ( 0.000000000000000000, 1.000000000000000000, -0.000000000000000000 ) ) ;
#404 = EDGE_LOOP ( 'NONE', ( #129, #621, #597, #576 ) ) ;
#405 = EDGE_LOOP ( 'NONE', ( #595, #87, #318, #29, #261, #193 ) ) ;
#406 = ADVANCED_FACE ( 'NONE', ( #7 ), #558, .F. ) ;
#407 = CARTESIAN_POINT ( 'NONE',  ( 0.000000000000000000, 1.294999999999999929, 0.5000000000000000000 ) ) ;
#408 = ORIENTED_EDGE ( 'NONE', *, *, #178, .T. ) ;
#409 = ADVANCED_FACE ( 'NONE', ( #675 ), #119, .F. ) ;
#410 = CARTESIAN_POINT ( 'NONE',  ( 13.98000000000000043, 2.095000000000000195, 0.000000000000000000 ) ) ;
#411 = VERTEX_POINT ( 'NONE', #502 ) ;
#412 = LINE ( 'NONE', #195, #663 ) ;
#413 = ORIENTED_EDGE ( 'NONE', *, *, #48, .T. ) ;
#414 = ADVANCED_FACE ( 'NONE', ( #289 ), #176, .T. ) ;
#415 = LINE ( 'NONE', #84, #6 ) ;
#416 = AXIS2_PLACEMENT_3D ( 'NONE', #281, #451, #53 ) ;
#417 = VECTOR ( 'NONE', #128, 100.0000000000000000 ) ;
#418 = DIRECTION ( 'NONE',  ( -0.000000000000000000, -0.000000000000000000, 1.000000000000000000 ) ) ;
#419 = ORIENTED_EDGE ( 'NONE', *, *, #94, .T. ) ;
#420 = ADVANCED_FACE ( 'NONE', ( #349 ), #180, .F. ) ;
#421 = DIRECTION ( 'NONE',  ( 1.000000000000000000, 0.000000000000000000, 0.000000000000000000 ) ) ;
#422 = CARTESIAN_POINT ( 'NONE',  ( 0.000000000000000000, 3.389999999999999236, 0.1825000000000000233 ) ) ;
#423 = ORIENTED_EDGE ( 'NONE', *, *, #254, .F. ) ;
#424 = CARTESIAN_POINT ( 'NONE',  ( -0.1999999999999932387, 1.294999999999999929, 0.5000000000000000000 ) ) ;
#425 = CARTESIAN_POINT ( 'NONE',  ( -0.1999999999999932387, 2.095000000000000195, 0.5000000000000000000 ) ) ;
#426 = ORIENTED_EDGE ( 'NONE', *, *, #614, .T. ) ;
#427 = DIRECTION ( 'NONE',  ( 1.000000000000000000, 0.000000000000000000, -0.000000000000000000 ) ) ;
#428 = VECTOR ( 'NONE', #636, 100.0000000000000000 ) ;
#429 = LINE ( 'NONE', #314, #154 ) ;
#430 = VERTEX_POINT ( 'NONE', #461 ) ;
#431 = CARTESIAN_POINT ( 'NONE',  ( -0.1999999999999932387, 2.095000000000000195, 0.000000000000000000 ) ) ;
#432 = CARTESIAN_POINT ( 'NONE',  ( -0.7999999999999938272, 0.9485898384862205823, 2.193668360938501039 ) ) ;
#433 = LINE ( 'NONE', #492, #85 ) ;
#434 = VERTEX_POINT ( 'NONE', #407 ) ;
#435 = PRODUCT_DEFINITION_SHAPE ( 'NONE', 'NONE',  #469 ) ;
#436 = DIRECTION ( 'NONE',  ( 0.8660254037844384856, 0.5000000000000001110, -0.000000000000000000 ) ) ;
#437 = DIRECTION ( 'NONE',  ( 0.8660254037844384856, 0.5000000000000001110, -0.000000000000000000 ) ) ;
#438 = EDGE_CURVE ( 'NONE', #50, #607, #610, .T. ) ;
#439 = VECTOR ( 'NONE', #380, 100.0000000000000000 ) ;
#440 = COLOUR_RGB ( '',0.7921568627450980005, 0.8196078431372548767, 0.9333333333333333481 ) ;
#441 = CARTESIAN_POINT ( 'NONE',  ( 6.938893903907228378E-15, 1.294999999999999929, 0.5000000000000000000 ) ) ;
#442 = CARTESIAN_POINT ( 'NONE',  ( 6.938893903907228378E-15, 2.095000000000000195, 0.000000000000000000 ) ) ;
#443 = ORIENTED_EDGE ( 'NONE', *, *, #265, .F. ) ;
#444 = DIRECTION ( 'NONE',  ( 0.000000000000000000, 1.000000000000000000, -0.000000000000000000 ) ) ;
#445 = LINE ( 'NONE', #385, #74 ) ;
#446 = ORIENTED_EDGE ( 'NONE', *, *, #220, .T. ) ;
#447 = CARTESIAN_POINT ( 'NONE',  ( 0.000000000000000000, 3.059999999999996945, 0.1825000000000000233 ) ) ;
#448 = AXIS2_PLACEMENT_3D ( 'NONE', #546, #701, #436 ) ;
#449 = SHAPE_DEFINITION_REPRESENTATION ( #435, #474 ) ;
#450 = VECTOR ( 'NONE', #418, 100.0000000000000000 ) ;
#451 = DIRECTION ( 'NONE',  ( 0.000000000000000000, 0.000000000000000000, -1.000000000000000000 ) ) ;
#452 = ORIENTED_EDGE ( 'NONE', *, *, #640, .F. ) ;
#453 = AXIS2_PLACEMENT_3D ( 'NONE', #517, #677, #460 ) ;
#454 = ORIENTED_EDGE ( 'NONE', *, *, #105, .T. ) ;
#455 = PRODUCT ( 'connector', 'connector', '', ( #402 ) ) ;
#456 =( LENGTH_UNIT ( ) NAMED_UNIT ( * ) SI_UNIT ( .CENTI., .METRE. ) );
#457 = EDGE_CURVE ( 'NONE', #563, #464, #279, .T. ) ;
#458 = CARTESIAN_POINT ( 'NONE',  ( 13.97999999999999332, 1.294999999999996598, 2.193668360938501039 ) ) ;
#459 = EDGE_LOOP ( 'NONE', ( #680, #519, #553, #574 ) ) ;
#460 = DIRECTION ( 'NONE',  ( 0.000000000000000000, 1.000000000000000000, -0.000000000000000000 ) ) ;
#461 = CARTESIAN_POINT ( 'NONE',  ( 0.000000000000000000, -6.938893903907228378E-16, 0.1825000000000000233 ) ) ;
#462 = VERTEX_POINT ( 'NONE', #226 ) ;
#463 = EDGE_CURVE ( 'NONE', #430, #392, #481, .T. ) ;
#464 = VERTEX_POINT ( 'NONE', #15 ) ;
#465 = LINE ( 'NONE', #672, #506 ) ;
#466 = ORIENTED_EDGE ( 'NONE', *, *, #539, .F. ) ;
#467 =( GEOMETRIC_REPRESENTATION_CONTEXT ( 3 ) GLOBAL_UNCERTAINTY_ASSIGNED_CONTEXT ( ( #565 ) ) GLOBAL_UNIT_ASSIGNED_CONTEXT ( ( #248, #140, #529 ) ) REPRESENTATION_CONTEXT ( 'NONE', 'WORKASPACE' ) );
#468 = CARTESIAN_POINT ( 'NONE',  ( 13.98000000000000043, -1.387778780781445676E-15, 0.000000000000000000 ) ) ;
#469 = PRODUCT_DEFINITION ( 'UNKNOWN', '', #5, #326 ) ;
#470 = DIRECTION ( 'NONE',  ( 0.8660254037844384856, -0.5000000000000002220, 0.000000000000000000 ) ) ;
#471 = VERTEX_POINT ( 'NONE', #478 ) ;
#472 = CARTESIAN_POINT ( 'NONE',  ( 6.938893903907228378E-15, 2.095000000000000195, 0.000000000000000000 ) ) ;
#473 = ORIENTED_EDGE ( 'NONE', *, *, #631, .F. ) ;
#474 = ADVANCED_BREP_SHAPE_REPRESENTATION ( 'connector', ( #513, #3 ), #131 ) ;
#475 = CARTESIAN_POINT ( 'NONE',  ( 0.000000000000000000, 0.000000000000000000, 0.000000000000000000 ) ) ;
#476 = VERTEX_POINT ( 'NONE', #586 ) ;
#477 = LINE ( 'NONE', #639, #428 ) ;
#478 = CARTESIAN_POINT ( 'NONE',  ( 13.97999999999999510, 3.060000000000000053, 0.5000000000000000000 ) ) ;
#479 = VERTEX_POINT ( 'NONE', #244 ) ;
#480 = DIRECTION ( 'NONE',  ( 0.000000000000000000, -1.000000000000000000, 0.000000000000000000 ) ) ;
#481 = LINE ( 'NONE', #187, #336 ) ;
#482 = ORIENTED_EDGE ( 'NONE', *, *, #297, .T. ) ;
#483 = PLANE ( 'NONE',  #488 ) ;
#484 = EDGE_CURVE ( 'NONE', #624, #58, #358, .T. ) ;
#485 = DIRECTION ( 'NONE',  ( -1.000000000000000000, 0.000000000000000000, 0.000000000000000000 ) ) ;
#486 = ORIENTED_EDGE ( 'NONE', *, *, #122, .F. ) ;
#487 = DIRECTION ( 'NONE',  ( 0.000000000000000000, 1.000000000000000000, 0.000000000000000000 ) ) ;
#488 = AXIS2_PLACEMENT_3D ( 'NONE', #316, #255, #689 ) ;
#489 = CARTESIAN_POINT ( 'NONE',  ( 13.98000000000000043, 0.3299999999999997380, 0.5000000000000000000 ) ) ;
#490 = DIRECTION ( 'NONE',  ( -0.000000000000000000, -0.000000000000000000, 1.000000000000000000 ) ) ;
#491 = CARTESIAN_POINT ( 'NONE',  ( 6.990000000000000213, 1.694999999999999396, 0.5000000000000000000 ) ) ;
#492 = CARTESIAN_POINT ( 'NONE',  ( 13.97999999999999332, 1.294999999999996598, 0.5000000000000000000 ) ) ;
#493 = ORIENTED_EDGE ( 'NONE', *, *, #280, .T. ) ;
#494 = DIRECTION ( 'NONE',  ( -0.8660254037844384856, -0.5000000000000001110, 0.000000000000000000 ) ) ;
#495 = EDGE_CURVE ( 'NONE', #58, #698, #86, .T. ) ;
#496 = LINE ( 'NONE', #647, #167 ) ;
#497 = ORIENTED_EDGE ( 'NONE', *, *, #254, .T. ) ;
#498 = DIRECTION ( 'NONE',  ( -1.000000000000000000, -0.000000000000000000, 0.000000000000000000 ) ) ;
#499 = LINE ( 'NONE', #378, #121 ) ;
#500 = EDGE_LOOP ( 'NONE', ( #344, #312, #229, #76, #660, #542, #111, #355, #503, #400, #667, #454, #32, #413, #367, #382 ) ) ;
#501 = DIRECTION ( 'NONE',  ( 0.000000000000000000, 0.000000000000000000, -1.000000000000000000 ) ) ;
#502 = CARTESIAN_POINT ( 'NONE',  ( 13.97999999999999332, 1.294999999999996598, 0.000000000000000000 ) ) ;
#503 = ORIENTED_EDGE ( 'NONE', *, *, #354, .T. ) ;
#504 = CARTESIAN_POINT ( 'NONE',  ( 13.97999999999999332, 2.095000000000000195, 0.000000000000000000 ) ) ;
#505 = EDGE_CURVE ( 'NONE', #38, #479, #191, .T. ) ;
#506 = VECTOR ( 'NONE', #123, 100.0000000000000000 ) ;
#507 = LINE ( 'NONE', #715, #204 ) ;
#508 = VERTEX_POINT ( 'NONE', #472 ) ;
#509 = EDGE_CURVE ( 'NONE', #567, #50, #637, .T. ) ;
#510 = DIRECTION ( 'NONE',  ( 0.000000000000000000, 1.000000000000000000, -0.000000000000000000 ) ) ;
#511 = VERTEX_POINT ( 'NONE', #410 ) ;
#512 = ORIENTED_EDGE ( 'NONE', *, *, #703, .F. ) ;
#513 = MANIFOLD_SOLID_BREP ( 'Cut-Extrude1', #168 ) ;
#514 = CARTESIAN_POINT ( 'NONE',  ( 14.17999999999999261, 1.294999999999996598, 2.193668360938501039 ) ) ;
#515 = EDGE_CURVE ( 'NONE', #120, #462, #686, .T. ) ;
#516 = ORIENTED_EDGE ( 'NONE', *, *, #714, .T. ) ;
#517 = CARTESIAN_POINT ( 'NONE',  ( 13.98000000000000043, 3.389999999999998792, 0.000000000000000000 ) ) ;
#518 = CARTESIAN_POINT ( 'NONE',  ( 14.17999999999999261, 1.294999999999996598, 0.5000000000000000000 ) ) ;
#519 = ORIENTED_EDGE ( 'NONE', *, *, #665, .F. ) ;
#520 = VECTOR ( 'NONE', #470, 100.0000000000000000 ) ;
#521 = CARTESIAN_POINT ( 'NONE',  ( -0.1999999999999932387, 1.294999999999999929, 2.193668360938501039 ) ) ;
#522 = CARTESIAN_POINT ( 'NONE',  ( 14.17999999999999261, 2.095000000000000195, 2.193668360938501039 ) ) ;
#523 = ORIENTED_EDGE ( 'NONE', *, *, #548, .F. ) ;
#524 = DIRECTION ( 'NONE',  ( 0.000000000000000000, -1.000000000000000000, 0.000000000000000000 ) ) ;
#525 = EDGE_CURVE ( 'NONE', #50, #242, #241, .T. ) ;
#526 = SURFACE_SIDE_STYLE ('',( #583 ) ) ;
#527 = EDGE_LOOP ( 'NONE', ( #320, #706, #446, #423 ) ) ;
#528 = DIRECTION ( 'NONE',  ( -0.000000000000000000, -0.000000000000000000, 1.000000000000000000 ) ) ;
#529 =( NAMED_UNIT ( * ) SI_UNIT ( $, .STERADIAN. ) SOLID_ANGLE_UNIT ( ) );
#530 = VECTOR ( 'NONE', #551, 100.0000000000000000 ) ;
#531 = ORIENTED_EDGE ( 'NONE', *, *, #288, .F. ) ;
#532 = CARTESIAN_POINT ( 'NONE',  ( 13.98000000000000043, 3.389999999999998792, 0.000000000000000000 ) ) ;
#533 = AXIS2_PLACEMENT_3D ( 'NONE', #10, #235, #165 ) ;
#534 = ORIENTED_EDGE ( 'NONE', *, *, #105, .F. ) ;
#535 = EDGE_CURVE ( 'NONE', #71, #338, #200, .T. ) ;
#536 = DIRECTION ( 'NONE',  ( 0.000000000000000000, 0.000000000000000000, -1.000000000000000000 ) ) ;
#537 = LINE ( 'NONE', #645, #439 ) ;
#538 = VERTEX_POINT ( 'NONE', #425 ) ;
#539 = EDGE_CURVE ( 'NONE', #71, #8, #298, .T. ) ;
#540 = DIRECTION ( 'NONE',  ( -1.000000000000000000, 0.000000000000000000, 0.000000000000000000 ) ) ;
#541 = DIRECTION ( 'NONE',  ( -0.8660254037844384856, 0.5000000000000002220, 0.000000000000000000 ) ) ;
#542 = ORIENTED_EDGE ( 'NONE', *, *, #341, .T. ) ;
#543 = DIRECTION ( 'NONE',  ( 0.000000000000000000, -1.000000000000000000, 0.000000000000000000 ) ) ;
#544 = VECTOR ( 'NONE', #480, 100.0000000000000000 ) ;
#545 = VECTOR ( 'NONE', #427, 100.0000000000000000 ) ;
#546 = CARTESIAN_POINT ( 'NONE',  ( 14.17999999999999261, 2.095000000000000195, 2.193668360938501039 ) ) ;
#547 = CARTESIAN_POINT ( 'NONE',  ( 0.000000000000000000, 1.294999999999999929, 0.000000000000000000 ) ) ;
#548 = EDGE_CURVE ( 'NONE', #257, #253, #28, .T. ) ;
#549 = CARTESIAN_POINT ( 'NONE',  ( 13.97999999999999510, 3.389999999999998792, 0.1825000000000000233 ) ) ;
#550 = CARTESIAN_POINT ( 'NONE',  ( -0.1999999999999932387, 2.095000000000000195, 0.000000000000000000 ) ) ;
#551 = DIRECTION ( 'NONE',  ( 0.000000000000000000, 0.000000000000000000, -1.000000000000000000 ) ) ;
#552 = CARTESIAN_POINT ( 'NONE',  ( 6.990000000000000213, 1.694999999999999396, 0.1825000000000000233 ) ) ;
#553 = ORIENTED_EDGE ( 'NONE', *, *, #41, .F. ) ;
#554 = VECTOR ( 'NONE', #403, 100.0000000000000000 ) ;
#555 = CARTESIAN_POINT ( 'NONE',  ( 0.000000000000000000, 3.059999999999996945, 0.1825000000000000233 ) ) ;
#556 = EDGE_CURVE ( 'NONE', #182, #71, #75, .T. ) ;
#557 =( NAMED_UNIT ( * ) PLANE_ANGLE_UNIT ( ) SI_UNIT ( $, .RADIAN. ) );
#558 = PLANE ( 'NONE',  #322 ) ;
#559 = VERTEX_POINT ( 'NONE', #690 ) ;
#560 = DIRECTION ( 'NONE',  ( -0.8660254037844363761, -0.5000000000000039968, 0.000000000000000000 ) ) ;
#561 = DIRECTION ( 'NONE',  ( 1.000000000000000000, 0.000000000000000000, 0.000000000000000000 ) ) ;
#562 = ORIENTED_EDGE ( 'NONE', *, *, #94, .F. ) ;
#563 = VERTEX_POINT ( 'NONE', #196 ) ;
#564 = VECTOR ( 'NONE', #260, 100.0000000000000000 ) ;
#565 = UNCERTAINTY_MEASURE_WITH_UNIT (LENGTH_MEASURE( 1.000000000000000082E-05 ), #248, 'distance_accuracy_value', 'NONE');
#566 = DIRECTION ( 'NONE',  ( -0.5000000000000003331, -0.8660254037844385966, 0.000000000000000000 ) ) ;
#567 = VERTEX_POINT ( 'NONE', #422 ) ;
#568 = LINE ( 'NONE', #65, #231 ) ;
#569 = EDGE_CURVE ( 'NONE', #173, #434, #591, .T. ) ;
#570 = LINE ( 'NONE', #292, #554 ) ;
#571 = ORIENTED_EDGE ( 'NONE', *, *, #192, .T. ) ;
#572 = FACE_OUTER_BOUND ( 'NONE', #632, .T. ) ;
#573 = DIRECTION ( 'NONE',  ( 0.000000000000000000, 0.000000000000000000, -1.000000000000000000 ) ) ;
#574 = ORIENTED_EDGE ( 'NONE', *, *, #101, .T. ) ;
#575 = FACE_OUTER_BOUND ( 'NONE', #23, .T. ) ;
#576 = ORIENTED_EDGE ( 'NONE', *, *, #280, .F. ) ;
#577 = AXIS2_PLACEMENT_3D ( 'NONE', #514, #566, #63 ) ;
#578 = CARTESIAN_POINT ( 'NONE',  ( -0.1999999999999932387, 1.294999999999999929, 0.000000000000000000 ) ) ;
#579 = CARTESIAN_POINT ( 'NONE',  ( 0.000000000000000000, 3.059999999999996945, 0.1825000000000000233 ) ) ;
#580 = ORIENTED_EDGE ( 'NONE', *, *, #265, .T. ) ;
#581 = CARTESIAN_POINT ( 'NONE',  ( 13.97999999999999332, 2.095000000000000195, 0.5000000000000000000 ) ) ;
#582 = EDGE_CURVE ( 'NONE', #434, #201, #263, .T. ) ;
#583 = SURFACE_STYLE_FILL_AREA ( #311 ) ;
#584 = VERTEX_POINT ( 'NONE', #489 ) ;
#585 = CARTESIAN_POINT ( 'NONE',  ( 13.98000000000000043, 3.389999999999998792, 0.5000000000000000000 ) ) ;
#586 = CARTESIAN_POINT ( 'NONE',  ( 14.77999999999999403, 2.441410161513775989, 0.000000000000000000 ) ) ;
#587 = VECTOR ( 'NONE', #602, 100.0000000000000000 ) ;
#588 = VERTEX_POINT ( 'NONE', #697 ) ;
#589 = STYLED_ITEM ( 'NONE', ( #22 ), #513 ) ;
#590 = ADVANCED_FACE ( 'NONE', ( #106 ), #330, .T. ) ;
#591 = LINE ( 'NONE', #441, #308 ) ;
#592 = ORIENTED_EDGE ( 'NONE', *, *, #515, .F. ) ;
#593 = LINE ( 'NONE', #585, #674 ) ;
#594 = DIRECTION ( 'NONE',  ( 0.000000000000000000, 0.000000000000000000, -1.000000000000000000 ) ) ;
#595 = ORIENTED_EDGE ( 'NONE', *, *, #657, .T. ) ;
#596 = CARTESIAN_POINT ( 'NONE',  ( 13.97999999999999510, 3.060000000000000053, 0.1825000000000000233 ) ) ;
#597 = ORIENTED_EDGE ( 'NONE', *, *, #341, .F. ) ;
#598 = LINE ( 'NONE', #317, #696 ) ;
#599 = CARTESIAN_POINT ( 'NONE',  ( 13.98000000000000043, 3.389999999999998792, 0.5000000000000000000 ) ) ;
#600 = AXIS2_PLACEMENT_3D ( 'NONE', #458, #617, #399 ) ;
#601 = VECTOR ( 'NONE', #540, 100.0000000000000000 ) ;
#602 = DIRECTION ( 'NONE',  ( 0.000000000000000000, 1.000000000000000000, 0.000000000000000000 ) ) ;
#603 = CARTESIAN_POINT ( 'NONE',  ( 13.97999999999999510, 3.060000000000000053, 0.1825000000000000233 ) ) ;
#604 = LINE ( 'NONE', #47, #59 ) ;
#605 = CARTESIAN_POINT ( 'NONE',  ( 0.000000000000000000, 0.3299999999999999045, 0.1825000000000000233 ) ) ;
#606 = DIRECTION ( 'NONE',  ( 0.000000000000000000, 0.000000000000000000, -1.000000000000000000 ) ) ;
#607 = VERTEX_POINT ( 'NONE', #217 ) ;
#608 = VECTOR ( 'NONE', #573, 100.0000000000000000 ) ;
#609 = EDGE_CURVE ( 'NONE', #508, #624, #604, .T. ) ;
#610 = LINE ( 'NONE', #555, #286 ) ;
#611 = ORIENTED_EDGE ( 'NONE', *, *, #569, .F. ) ;
#612 = PLANE ( 'NONE',  #98 ) ;
#613 = ORIENTED_EDGE ( 'NONE', *, *, #614, .F. ) ;
#614 = EDGE_CURVE ( 'NONE', #340, #584, #373, .T. ) ;
#615 = PLANE ( 'NONE',  #453 ) ;
#616 = CARTESIAN_POINT ( 'NONE',  ( 14.77999999999999403, 2.441410161513775989, 2.193668360938501039 ) ) ;
#617 = DIRECTION ( 'NONE',  ( 0.000000000000000000, -1.000000000000000000, 0.000000000000000000 ) ) ;
#618 = ORIENTED_EDGE ( 'NONE', *, *, #535, .F. ) ;
#619 = VECTOR ( 'NONE', #641, 100.0000000000000000 ) ;
#620 = FACE_OUTER_BOUND ( 'NONE', #656, .T. ) ;
#621 = ORIENTED_EDGE ( 'NONE', *, *, #56, .T. ) ;
#622 = CARTESIAN_POINT ( 'NONE',  ( 14.77999999999999403, 2.441410161513775989, 0.5000000000000000000 ) ) ;
#623 = CARTESIAN_POINT ( 'NONE',  ( 0.000000000000000000, 0.3299999999999999045, 0.1825000000000000233 ) ) ;
#624 = VERTEX_POINT ( 'NONE', #209 ) ;
#625 = DIRECTION ( 'NONE',  ( -1.000000000000000000, -0.000000000000000000, 0.000000000000000000 ) ) ;
#626 = APPLICATION_CONTEXT ( 'automotive_design' ) ;
#627 = ORIENTED_EDGE ( 'NONE', *, *, #714, .F. ) ;
#628 = CARTESIAN_POINT ( 'NONE',  ( 13.97999999999999332, 2.095000000000000195, 2.193668360938501039 ) ) ;
#629 = VECTOR ( 'NONE', #103, 100.0000000000000000 ) ;
#630 = DIRECTION ( 'NONE',  ( 1.000000000000000000, -9.926886843930226659E-17, 0.000000000000000000 ) ) ;
#631 = EDGE_CURVE ( 'NONE', #184, #201, #648, .T. ) ;
#632 = EDGE_LOOP ( 'NONE', ( #359, #493, #177, #523 ) ) ;
#633 = LINE ( 'NONE', #139, #100 ) ;
#634 = AXIS2_PLACEMENT_3D ( 'NONE', #364, #30, #524 ) ;
#635 = ORIENTED_EDGE ( 'NONE', *, *, #669, .F. ) ;
#636 = DIRECTION ( 'NONE',  ( 0.000000000000000000, -1.000000000000000000, 0.000000000000000000 ) ) ;
#637 = LINE ( 'NONE', #579, #711 ) ;
#638 = ORIENTED_EDGE ( 'NONE', *, *, #386, .T. ) ;
#639 = CARTESIAN_POINT ( 'NONE',  ( 0.000000000000000000, 0.3299999999999999045, 0.1825000000000000233 ) ) ;
#640 = EDGE_CURVE ( 'NONE', #584, #479, #37, .T. ) ;
#641 = DIRECTION ( 'NONE',  ( 1.000000000000000000, -1.240860855491278517E-16, 0.000000000000000000 ) ) ;
#642 = ORIENTED_EDGE ( 'NONE', *, *, #178, .F. ) ;
#643 = FACE_OUTER_BOUND ( 'NONE', #405, .T. ) ;
#644 = AXIS2_PLACEMENT_3D ( 'NONE', #238, #666, #12 ) ;
#645 = CARTESIAN_POINT ( 'NONE',  ( 0.000000000000000000, 0.000000000000000000, 0.000000000000000000 ) ) ;
#646 = ORIENTED_EDGE ( 'NONE', *, *, #505, .F. ) ;
#647 = CARTESIAN_POINT ( 'NONE',  ( -0.1999999999999932387, 1.294999999999999929, 2.193668360938501039 ) ) ;
#648 = LINE ( 'NONE', #205, #587 ) ;
#649 = EDGE_CURVE ( 'NONE', #201, #181, #155, .T. ) ;
#650 = DIRECTION ( 'NONE',  ( 0.8660254037844361541, -0.5000000000000042188, 0.000000000000000000 ) ) ;
#651 = DIRECTION ( 'NONE',  ( 0.000000000000000000, 1.000000000000000000, 0.000000000000000000 ) ) ;
#652 = CARTESIAN_POINT ( 'NONE',  ( -0.7999999999999938272, 2.441410161513779986, 0.5000000000000000000 ) ) ;
#653 = ORIENTED_EDGE ( 'NONE', *, *, #288, .T. ) ;
#654 = FACE_OUTER_BOUND ( 'NONE', #69, .T. ) ;
#655 = DIRECTION ( 'NONE',  ( 1.000000000000000000, 0.000000000000000000, 0.000000000000000000 ) ) ;
#656 = EDGE_LOOP ( 'NONE', ( #350, #374, #653, #710, #473, #233 ) ) ;
#657 = EDGE_CURVE ( 'NONE', #245, #607, #429, .T. ) ;
#658 = DIRECTION ( 'NONE',  ( 0.000000000000000000, -1.000000000000000000, 0.000000000000000000 ) ) ;
#659 = LINE ( 'NONE', #603, #251 ) ;
#660 = ORIENTED_EDGE ( 'NONE', *, *, #258, .T. ) ;
#661 = EDGE_CURVE ( 'NONE', #559, #411, #151, .T. ) ;
#662 = PLANE ( 'NONE',  #600 ) ;
#663 = VECTOR ( 'NONE', #88, 100.0000000000000000 ) ;
#664 = APPLICATION_PROTOCOL_DEFINITION ( 'draft international standard', 'automotive_design', 1998, #221 ) ;
#665 = EDGE_CURVE ( 'NONE', #184, #430, #537, .T. ) ;
#666 = DIRECTION ( 'NONE',  ( 1.000000000000000000, 0.000000000000000000, 0.000000000000000000 ) ) ;
#667 = ORIENTED_EDGE ( 'NONE', *, *, #325, .T. ) ;
#668 = CARTESIAN_POINT ( 'NONE',  ( 13.97999999999999510, -6.938893903907228378E-16, 0.1825000000000000233 ) ) ;
#669 = EDGE_CURVE ( 'NONE', #392, #340, #34, .T. ) ;
#670 = EDGE_LOOP ( 'NONE', ( #687, #646, #398, #426 ) ) ;
#671 = DIRECTION ( 'NONE',  ( 0.8660254037844361541, -0.5000000000000042188, 0.000000000000000000 ) ) ;
#672 = CARTESIAN_POINT ( 'NONE',  ( 6.938893903907228378E-15, 2.095000000000000195, 0.5000000000000000000 ) ) ;
#673 = ORIENTED_EDGE ( 'NONE', *, *, #438, .T. ) ;
#674 = VECTOR ( 'NONE', #185, 100.0000000000000000 ) ;
#675 = FACE_OUTER_BOUND ( 'NONE', #670, .T. ) ;
#676 = ORIENTED_EDGE ( 'NONE', *, *, #365, .F. ) ;
#677 = DIRECTION ( 'NONE',  ( -1.000000000000000000, 0.000000000000000000, 0.000000000000000000 ) ) ;
#678 = ADVANCED_FACE ( 'NONE', ( #212 ), #97, .F. ) ;
#679 = CARTESIAN_POINT ( 'NONE',  ( 0.000000000000000000, 3.059999999999996945, 0.1825000000000000233 ) ) ;
#680 = ORIENTED_EDGE ( 'NONE', *, *, #463, .F. ) ;
#681 = EDGE_CURVE ( 'NONE', #338, #588, #598, .T. ) ;
#682 = CARTESIAN_POINT ( 'NONE',  ( 14.77999999999999403, 0.9485898384862205823, 2.193668360938501039 ) ) ;
#683 = ORIENTED_EDGE ( 'NONE', *, *, #386, .F. ) ;
#684 = FACE_OUTER_BOUND ( 'NONE', #459, .T. ) ;
#685 = VECTOR ( 'NONE', #501, 100.0000000000000000 ) ;
#686 = LINE ( 'NONE', #522, #309 ) ;
#687 = ORIENTED_EDGE ( 'NONE', *, *, #640, .T. ) ;
#688 = ADVANCED_FACE ( 'NONE', ( #654 ), #323, .T. ) ;
#689 = DIRECTION ( 'NONE',  ( -1.000000000000000000, 1.240860855491278517E-16, 0.000000000000000000 ) ) ;
#690 = CARTESIAN_POINT ( 'NONE',  ( 13.98000000000000043, 1.294999999999996598, 0.5000000000000000000 ) ) ;
#691 = ORIENTED_EDGE ( 'NONE', *, *, #310, .F. ) ;
#692 = EDGE_CURVE ( 'NONE', #538, #257, #42, .T. ) ;
#693 = FACE_OUTER_BOUND ( 'NONE', #9, .T. ) ;
#694 = SURFACE_STYLE_USAGE ( .BOTH. , #526 ) ;
#695 = EDGE_LOOP ( 'NONE', ( #419, #166, #348, #673 ) ) ;
#696 = VECTOR ( 'NONE', #541, 100.0000000000000284 ) ;
#697 = CARTESIAN_POINT ( 'NONE',  ( 14.17999999999999261, 1.294999999999996598, 0.000000000000000000 ) ) ;
#698 = VERTEX_POINT ( 'NONE', #549 ) ;
#699 = CARTESIAN_POINT ( 'NONE',  ( 0.000000000000000000, 3.390000000000000124, 0.000000000000000000 ) ) ;
#700 = AXIS2_PLACEMENT_3D ( 'NONE', #623, #510, #391 ) ;
#701 = DIRECTION ( 'NONE',  ( -0.5000000000000002220, 0.8660254037844385966, 0.000000000000000000 ) ) ;
#702 = CARTESIAN_POINT ( 'NONE',  ( -0.1999999999999932387, 2.095000000000000195, 2.193668360938501039 ) ) ;
#703 = EDGE_CURVE ( 'NONE', #8, #120, #44, .T. ) ;
#704 = CARTESIAN_POINT ( 'NONE',  ( 13.97999999999999510, 0.3299999999999999045, 0.1825000000000000233 ) ) ;
#705 = DIRECTION ( 'NONE',  ( 1.000000000000000000, 0.000000000000000000, 0.000000000000000000 ) ) ;
#706 = ORIENTED_EDGE ( 'NONE', *, *, #525, .T. ) ;
#707 = FACE_OUTER_BOUND ( 'NONE', #224, .T. ) ;
#708 = LINE ( 'NONE', #599, #156 ) ;
#709 = ADVANCED_FACE ( 'NONE', ( #707 ), #214, .T. ) ;
#710 = ORIENTED_EDGE ( 'NONE', *, *, #582, .T. ) ;
#711 = VECTOR ( 'NONE', #302, 100.0000000000000000 ) ;
#712 = CARTESIAN_POINT ( 'NONE',  ( 6.938893903907228378E-15, 1.294999999999999929, 0.000000000000000000 ) ) ;
#713 = LINE ( 'NONE', #36, #144 ) ;
#714 = EDGE_CURVE ( 'NONE', #8, #476, #222, .T. ) ;
#715 = CARTESIAN_POINT ( 'NONE',  ( -0.1999999999999932387, 1.294999999999999929, 0.5000000000000000000 ) ) ;
ENDSEC;
END-ISO-10303-21;
