ISO-10303-21;
HEADER;
FILE_DESCRIPTION (( 'STEP AP214' ),
    '1' );
FILE_NAME ('ramp-lower.STEP',
    '2026-06-19T13:48:43',
    ( '' ),
    ( '' ),
    'SwSTEP 2.0',
    'SolidWorks 2023',
    '' );
FILE_SCHEMA (( 'AUTOMOTIVE_DESIGN' ));
ENDSEC;

DATA;
#1 = DIRECTION ( 'NONE',  ( 0.000000000000000000, 1.000000000000000000, 0.000000000000000000 ) ) ;
#2 = ORIENTED_EDGE ( 'NONE', *, *, #1236, .F. ) ;
#3 = SURFACE_SIDE_STYLE ('',( #922 ) ) ;
#4 = EDGE_CURVE ( 'NONE', #594, #903, #556, .T. ) ;
#5 = ADVANCED_FACE ( 'NONE', ( #652 ), #754, .F. ) ;
#6 = AXIS2_PLACEMENT_3D ( 'NONE', #651, #251, #1041 ) ;
#7 = CARTESIAN_POINT ( 'NONE',  ( 0.000000000000000000, -17.88000000000000256, 0.000000000000000000 ) ) ;
#8 = VECTOR ( 'NONE', #1031, 100.0000000000000000 ) ;
#9 = ORIENTED_EDGE ( 'NONE', *, *, #530, .F. ) ;
#10 = PLANE ( 'NONE',  #1224 ) ;
#11 = VERTEX_POINT ( 'NONE', #90 ) ;
#12 = DIRECTION ( 'NONE',  ( -1.000000000000000000, 0.000000000000000000, 0.000000000000000000 ) ) ;
#13 = EDGE_LOOP ( 'NONE', ( #1056, #273, #1149, #605, #171, #847, #466 ) ) ;
#14 = LINE ( 'NONE', #1061, #577 ) ;
#15 = ORIENTED_EDGE ( 'NONE', *, *, #481, .T. ) ;
#16 = CARTESIAN_POINT ( 'NONE',  ( 15.50000000000000533, -17.98000000000000043, 1.800000000000000266 ) ) ;
#17 = VERTEX_POINT ( 'NONE', #283 ) ;
#18 = CARTESIAN_POINT ( 'NONE',  ( 16.09000000000000341, -3.229999999999985771, 12.63499999999999979 ) ) ;
#19 = ORIENTED_EDGE ( 'NONE', *, *, #437, .F. ) ;
#20 = CARTESIAN_POINT ( 'NONE',  ( 14.49999999999999289, -17.88000000000000256, 1.800000000000000266 ) ) ;
#21 = ORIENTED_EDGE ( 'NONE', *, *, #1173, .T. ) ;
#22 = EDGE_CURVE ( 'NONE', #963, #679, #358, .T. ) ;
#23 = DIRECTION ( 'NONE',  ( -1.000000000000000000, 0.000000000000000000, 0.000000000000000000 ) ) ;
#24 = ORIENTED_EDGE ( 'NONE', *, *, #489, .F. ) ;
#25 = CARTESIAN_POINT ( 'NONE',  ( 0.000000000000000000, -16.97000000000000242, 0.000000000000000000 ) ) ;
#26 = CARTESIAN_POINT ( 'NONE',  ( 17.11000000000000298, -16.97000000000000242, 12.63499999999999979 ) ) ;
#27 = AXIS2_PLACEMENT_3D ( 'NONE', #870, #1151, #23 ) ;
#28 = FACE_OUTER_BOUND ( 'NONE', #156, .T. ) ;
#29 = VECTOR ( 'NONE', #1076, 100.0000000000000142 ) ;
#30 = VERTEX_POINT ( 'NONE', #1127 ) ;
#31 = LINE ( 'NONE', #494, #141 ) ;
#32 = EDGE_CURVE ( 'NONE', #594, #192, #1119, .T. ) ;
#33 = DIRECTION ( 'NONE',  ( 0.000000000000000000, 0.000000000000000000, -1.000000000000000000 ) ) ;
#34 = VERTEX_POINT ( 'NONE', #187 ) ;
#35 = FACE_OUTER_BOUND ( 'NONE', #1072, .T. ) ;
#36 = ORIENTED_EDGE ( 'NONE', *, *, #1038, .T. ) ;
#37 = PLANE ( 'NONE',  #852 ) ;
#38 = ADVANCED_FACE ( 'NONE', ( #174 ), #928, .T. ) ;
#39 = FACE_OUTER_BOUND ( 'NONE', #1033, .T. ) ;
#40 = VERTEX_POINT ( 'NONE', #548 ) ;
#41 = PLANE ( 'NONE',  #500 ) ;
#42 = DIRECTION ( 'NONE',  ( 0.000000000000000000, -1.000000000000000000, 0.000000000000000000 ) ) ;
#43 = ADVANCED_FACE ( 'NONE', ( #1137 ), #933, .T. ) ;
#44 = LINE ( 'NONE', #124, #939 ) ;
#45 = ADVANCED_FACE ( 'NONE', ( #1132 ), #80, .T. ) ;
#46 = CARTESIAN_POINT ( 'NONE',  ( 14.49999999999999289, -1.319999999999998952, 1.800000000000000266 ) ) ;
#47 = AXIS2_PLACEMENT_3D ( 'NONE', #696, #379, #1053 ) ;
#48 = ORIENTED_EDGE ( 'NONE', *, *, #369, .T. ) ;
#49 = MANIFOLD_SOLID_BREP ( 'Lower', #217 ) ;
#50 = VECTOR ( 'NONE', #874, 100.0000000000000142 ) ;
#51 = CARTESIAN_POINT ( 'NONE',  ( 14.79999999999999361, -17.98000000000000043, 1.800000000000000266 ) ) ;
#52 = EDGE_LOOP ( 'NONE', ( #1042, #978, #363, #426, #96 ) ) ;
#53 = CARTESIAN_POINT ( 'NONE',  ( 14.49999999999999289, -17.98000000000000043, 1.800000000000000266 ) ) ;
#54 = ORIENTED_EDGE ( 'NONE', *, *, #748, .T. ) ;
#55 = DIRECTION ( 'NONE',  ( 0.000000000000000000, 0.000000000000000000, -1.000000000000000000 ) ) ;
#56 = ORIENTED_EDGE ( 'NONE', *, *, #1012, .T. ) ;
#57 = CARTESIAN_POINT ( 'NONE',  ( 17.10999999999999943, -3.229999999999985771, 4.048405430711610187 ) ) ;
#58 = CARTESIAN_POINT ( 'NONE',  ( 16.09000000000001052, -17.98000000000000043, 12.63499999999999979 ) ) ;
#59 = VERTEX_POINT ( 'NONE', #1044 ) ;
#60 = LINE ( 'NONE', #1189, #1140 ) ;
#61 = EDGE_CURVE ( 'NONE', #40, #944, #563, .T. ) ;
#62 = CARTESIAN_POINT ( 'NONE',  ( 15.20000000000000462, -1.219999999999998863, 0.8000000000000000444 ) ) ;
#63 = PLANE ( 'NONE',  #660 ) ;
#64 = LINE ( 'NONE', #432, #519 ) ;
#65 = ORIENTED_EDGE ( 'NONE', *, *, #22, .F. ) ;
#66 = DIRECTION ( 'NONE',  ( 0.000000000000000000, -1.000000000000000000, 0.000000000000000000 ) ) ;
#67 = VECTOR ( 'NONE', #402, 100.0000000000000142 ) ;
#68 = AXIS2_PLACEMENT_3D ( 'NONE', #427, #521, #405 ) ;
#69 = EDGE_CURVE ( 'NONE', #931, #107, #641, .T. ) ;
#70 = VECTOR ( 'NONE', #377, 100.0000000000000000 ) ;
#71 = DIRECTION ( 'NONE',  ( 1.000000000000000000, 0.000000000000000000, 0.000000000000000000 ) ) ;
#72 = ORIENTED_EDGE ( 'NONE', *, *, #992, .T. ) ;
#73 = DIRECTION ( 'NONE',  ( -1.000000000000000000, -0.000000000000000000, 0.000000000000000000 ) ) ;
#74 = CARTESIAN_POINT ( 'NONE',  ( -1.445058172336317837, -1.480844240106835130, -0.3419159177428722218 ) ) ;
#75 = EDGE_CURVE ( 'NONE', #1130, #677, #85, .T. ) ;
#76 = DIRECTION ( 'NONE',  ( 1.000000000000000000, 0.000000000000000000, 0.000000000000000000 ) ) ;
#77 = LINE ( 'NONE', #1207, #658 ) ;
#78 = DIRECTION ( 'NONE',  ( 0.000000000000000000, -0.3420201433256678802, 0.9396926207859087610 ) ) ;
#79 = ORIENTED_EDGE ( 'NONE', *, *, #797, .T. ) ;
#80 = PLANE ( 'NONE',  #656 ) ;
#81 = EDGE_CURVE ( 'NONE', #931, #367, #1153, .T. ) ;
#82 = DIRECTION ( 'NONE',  ( -1.000000000000000000, 0.000000000000000000, 0.000000000000000000 ) ) ;
#83 = DIRECTION ( 'NONE',  ( 0.9697314053328568439, -0.08351246796241922066, 0.2294486199696749995 ) ) ;
#84 = VECTOR ( 'NONE', #161, 100.0000000000000000 ) ;
#85 = LINE ( 'NONE', #476, #274 ) ;
#86 = VECTOR ( 'NONE', #1156, 100.0000000000000000 ) ;
#87 = DIRECTION ( 'NONE',  ( -0.7071067811865578978, -0.000000000000000000, -0.7071067811865371366 ) ) ;
#88 = EDGE_CURVE ( 'NONE', #346, #144, #289, .T. ) ;
#89 = DIRECTION ( 'NONE',  ( 0.000000000000000000, 0.000000000000000000, 1.000000000000000000 ) ) ;
#90 = CARTESIAN_POINT ( 'NONE',  ( 14.79999999999999361, -1.219999999999998863, 1.800000000000000266 ) ) ;
#91 = CARTESIAN_POINT ( 'NONE',  ( 17.11000000000000298, -16.97000000000000242, 0.09999999999999731326 ) ) ;
#92 = ORIENTED_EDGE ( 'NONE', *, *, #324, .T. ) ;
#93 = DIRECTION ( 'NONE',  ( 1.883010557369666819E-16, -1.000000000000000000, 0.000000000000000000 ) ) ;
#94 = EDGE_CURVE ( 'NONE', #946, #951, #975, .T. ) ;
#95 = ORIENTED_EDGE ( 'NONE', *, *, #344, .T. ) ;
#96 = ORIENTED_EDGE ( 'NONE', *, *, #353, .T. ) ;
#97 = SURFACE_STYLE_USAGE ( .BOTH. , #3 ) ;
#98 = LINE ( 'NONE', #119, #70 ) ;
#99 = ORIENTED_EDGE ( 'NONE', *, *, #175, .F. ) ;
#100 = DIRECTION ( 'NONE',  ( 1.380874408737758346E-15, 1.000000000000000000, 0.000000000000000000 ) ) ;
#101 = ORIENTED_EDGE ( 'NONE', *, *, #1012, .F. ) ;
#102 = ORIENTED_EDGE ( 'NONE', *, *, #461, .T. ) ;
#103 = CARTESIAN_POINT ( 'NONE',  ( 14.79999999999999361, -1.319999999999998952, 1.800000000000000266 ) ) ;
#104 = ORIENTED_EDGE ( 'NONE', *, *, #860, .T. ) ;
#105 = VECTOR ( 'NONE', #638, 100.0000000000000000 ) ;
#106 = DIRECTION ( 'NONE',  ( 0.000000000000000000, 0.000000000000000000, -1.000000000000000000 ) ) ;
#107 = VERTEX_POINT ( 'NONE', #598 ) ;
#108 = CARTESIAN_POINT ( 'NONE',  ( 14.79999999999999361, -17.88000000000000256, 1.800000000000000266 ) ) ;
#109 = ORIENTED_EDGE ( 'NONE', *, *, #324, .F. ) ;
#110 = DIRECTION ( 'NONE',  ( 0.000000000000000000, 0.000000000000000000, 1.000000000000000000 ) ) ;
#111 = ORIENTED_EDGE ( 'NONE', *, *, #772, .T. ) ;
#112 = ADVANCED_FACE ( 'NONE', ( #1057 ), #37, .F. ) ;
#113 = LINE ( 'NONE', #389, #620 ) ;
#114 = EDGE_LOOP ( 'NONE', ( #299, #151, #1015, #1116 ) ) ;
#115 = CARTESIAN_POINT ( 'NONE',  ( 14.79999999999999361, -1.219999999999998863, 1.800000000000000266 ) ) ;
#116 = ORIENTED_EDGE ( 'NONE', *, *, #269, .T. ) ;
#117 = EDGE_LOOP ( 'NONE', ( #473, #390, #95, #294, #48, #821, #1111, #900, #491, #21, #1231, #79 ) ) ;
#118 = DIRECTION ( 'NONE',  ( -1.000000000000000000, 0.000000000000000000, 0.000000000000000000 ) ) ;
#119 = CARTESIAN_POINT ( 'NONE',  ( 14.79999999999999361, -17.88000000000000256, 1.800000000000000266 ) ) ;
#120 = CARTESIAN_POINT ( 'NONE',  ( 14.49999999999999289, -17.98000000000000043, 1.800000000000000266 ) ) ;
#121 = ORIENTED_EDGE ( 'NONE', *, *, #604, .F. ) ;
#122 = DIRECTION ( 'NONE',  ( 0.000000000000000000, 1.000000000000000000, 0.000000000000000000 ) ) ;
#123 = PRESENTATION_LAYER_ASSIGNMENT (  '', '', ( #1060 ) ) ;
#124 = CARTESIAN_POINT ( 'NONE',  ( 17.11000000000000298, -19.19999999999999929, 4.048405430711611075 ) ) ;
#125 = AXIS2_PLACEMENT_3D ( 'NONE', #808, #989, #411 ) ;
#126 = PLANE ( 'NONE',  #27 ) ;
#127 = VECTOR ( 'NONE', #252, 100.0000000000000000 ) ;
#128 = DIRECTION ( 'NONE',  ( -0.9731308116794299412, -0.000000000000000000, -0.2302529551604793612 ) ) ;
#129 = DIRECTION ( 'NONE',  ( -0.7071067811865450192, 0.000000000000000000, -0.7071067811865500152 ) ) ;
#130 = LINE ( 'NONE', #525, #998 ) ;
#131 = ORIENTED_EDGE ( 'NONE', *, *, #1088, .F. ) ;
#132 = EDGE_CURVE ( 'NONE', #34, #920, #790, .T. ) ;
#133 = DIRECTION ( 'NONE',  ( 0.000000000000000000, 1.000000000000000000, 0.000000000000000000 ) ) ;
#134 = EDGE_CURVE ( 'NONE', #1077, #912, #1050, .T. ) ;
#135 = DIRECTION ( 'NONE',  ( -1.000000000000000000, 0.000000000000000000, 0.000000000000000000 ) ) ;
#136 = CARTESIAN_POINT ( 'NONE',  ( 0.000000000000000000, -17.88000000000000256, 0.1000000000000000056 ) ) ;
#137 = VERTEX_POINT ( 'NONE', #1074 ) ;
#138 = DIRECTION ( 'NONE',  ( 1.000000000000000000, 0.000000000000000000, 0.000000000000000000 ) ) ;
#139 = DIRECTION ( 'NONE',  ( 0.000000000000000000, 1.000000000000000000, -0.000000000000000000 ) ) ;
#140 = ORIENTED_EDGE ( 'NONE', *, *, #964, .T. ) ;
#141 = VECTOR ( 'NONE', #873, 100.0000000000000000 ) ;
#142 = PLANE ( 'NONE',  #125 ) ;
#143 = VECTOR ( 'NONE', #93, 100.0000000000000000 ) ;
#144 = VERTEX_POINT ( 'NONE', #576 ) ;
#145 = VECTOR ( 'NONE', #626, 100.0000000000000000 ) ;
#146 = LINE ( 'NONE', #522, #600 ) ;
#147 = ADVANCED_FACE ( 'NONE', ( #785 ), #193, .T. ) ;
#148 = CARTESIAN_POINT ( 'NONE',  ( 0.000000000000000000, -1.319999999999998952, 0.000000000000000000 ) ) ;
#149 = DIRECTION ( 'NONE',  ( -1.000000000000000000, 0.000000000000000000, 0.000000000000000000 ) ) ;
#150 = CARTESIAN_POINT ( 'NONE',  ( 17.21000000000000441, -16.87000000000000099, 0.000000000000000000 ) ) ;
#151 = ORIENTED_EDGE ( 'NONE', *, *, #977, .F. ) ;
#152 = CARTESIAN_POINT ( 'NONE',  ( 17.10999999999999943, -3.229999999999985771, 12.63499999999999979 ) ) ;
#153 = DIRECTION ( 'NONE',  ( 0.7071067811865500152, 0.000000000000000000, -0.7071067811865450192 ) ) ;
#154 = LINE ( 'NONE', #532, #145 ) ;
#155 = FACE_OUTER_BOUND ( 'NONE', #810, .T. ) ;
#156 = EDGE_LOOP ( 'NONE', ( #387, #393, #774, #406 ) ) ;
#157 = VECTOR ( 'NONE', #504, 100.0000000000000000 ) ;
#158 = FACE_OUTER_BOUND ( 'NONE', #1175, .T. ) ;
#159 = VECTOR ( 'NONE', #725, 100.0000000000000000 ) ;
#160 = VECTOR ( 'NONE', #1107, 100.0000000000000000 ) ;
#161 = DIRECTION ( 'NONE',  ( -0.5773502691896328365, 0.5773502691896301720, -0.5773502691896142958 ) ) ;
#162 = VECTOR ( 'NONE', #796, 100.0000000000000000 ) ;
#163 = DIRECTION ( 'NONE',  ( 0.7071067811865500152, 0.000000000000000000, -0.7071067811865450192 ) ) ;
#164 = LINE ( 'NONE', #529, #720 ) ;
#165 = VERTEX_POINT ( 'NONE', #961 ) ;
#166 = DIRECTION ( 'NONE',  ( -1.000000000000000000, 0.000000000000000000, 0.000000000000000000 ) ) ;
#167 = ORIENTED_EDGE ( 'NONE', *, *, #1108, .F. ) ;
#168 = CARTESIAN_POINT ( 'NONE',  ( 17.11000000000000298, -15.97000000000000419, 12.63499999999999979 ) ) ;
#169 = EDGE_CURVE ( 'NONE', #968, #40, #865, .T. ) ;
#170 = CARTESIAN_POINT ( 'NONE',  ( 1.583817128602114988, -17.98000000000000043, 0.3747477419454630643 ) ) ;
#171 = ORIENTED_EDGE ( 'NONE', *, *, #429, .F. ) ;
#172 = PRODUCT ( 'ramp-lower', 'ramp-lower', '', ( #1113 ) ) ;
#173 = LINE ( 'NONE', #633, #315 ) ;
#174 = FACE_OUTER_BOUND ( 'NONE', #966, .T. ) ;
#175 = EDGE_CURVE ( 'NONE', #239, #664, #407, .T. ) ;
#176 = LINE ( 'NONE', #266, #1037 ) ;
#177 = EDGE_LOOP ( 'NONE', ( #893, #351, #650, #621 ) ) ;
#178 = PLANE ( 'NONE',  #355 ) ;
#179 = VECTOR ( 'NONE', #925, 100.0000000000000142 ) ;
#180 = VECTOR ( 'NONE', #1103, 100.0000000000000000 ) ;
#181 = ADVANCED_FACE ( 'NONE', ( #676 ), #879, .F. ) ;
#182 = CARTESIAN_POINT ( 'NONE',  ( 17.99000000000000554, -16.87000000000000099, 0.000000000000000000 ) ) ;
#183 = ORIENTED_EDGE ( 'NONE', *, *, #755, .F. ) ;
#184 = CARTESIAN_POINT ( 'NONE',  ( 16.09000000000000341, -3.229999999999985771, 0.09999999999999734102 ) ) ;
#185 = EDGE_LOOP ( 'NONE', ( #204, #9, #674, #420 ) ) ;
#186 = VERTEX_POINT ( 'NONE', #381 ) ;
#187 = CARTESIAN_POINT ( 'NONE',  ( 16.09000000000000696, -3.229999999999985771, 3.807062734082400368 ) ) ;
#188 = PLANE ( 'NONE',  #1225 ) ;
#189 = VERTEX_POINT ( 'NONE', #685 ) ;
#190 = FACE_OUTER_BOUND ( 'NONE', #1155, .T. ) ;
#191 = ORIENTED_EDGE ( 'NONE', *, *, #514, .T. ) ;
#192 = VERTEX_POINT ( 'NONE', #487 ) ;
#193 = PLANE ( 'NONE',  #703 ) ;
#194 = DIRECTION ( 'NONE',  ( 4.722868631912351297E-16, 0.3420201433256678802, 0.9396926207859087610 ) ) ;
#195 = ORIENTED_EDGE ( 'NONE', *, *, #134, .F. ) ;
#196 = CARTESIAN_POINT ( 'NONE',  ( 18.09000000000000696, -16.97000000000000242, 0.09999999999999731326 ) ) ;
#197 = ORIENTED_EDGE ( 'NONE', *, *, #570, .F. ) ;
#198 = ADVANCED_FACE ( 'NONE', ( #388 ), #199, .T. ) ;
#199 = PLANE ( 'NONE',  #1099 ) ;
#200 = VECTOR ( 'NONE', #312, 100.0000000000000000 ) ;
#201 = VECTOR ( 'NONE', #714, 100.0000000000000142 ) ;
#202 = CARTESIAN_POINT ( 'NONE',  ( 0.000000000000000000, -3.229999999999985771, 0.000000000000000000 ) ) ;
#203 = PLANE ( 'NONE',  #800 ) ;
#204 = ORIENTED_EDGE ( 'NONE', *, *, #510, .T. ) ;
#205 = FACE_OUTER_BOUND ( 'NONE', #752, .T. ) ;
#206 = DIRECTION ( 'NONE',  ( 1.000000000000000000, 0.000000000000000000, 0.000000000000000000 ) ) ;
#207 = FACE_OUTER_BOUND ( 'NONE', #117, .T. ) ;
#208 = EDGE_LOOP ( 'NONE', ( #690, #1197, #554, #551 ) ) ;
#209 = ORIENTED_EDGE ( 'NONE', *, *, #728, .T. ) ;
#210 = CARTESIAN_POINT ( 'NONE',  ( 14.49999999999999289, -1.319999999999998952, 1.800000000000000266 ) ) ;
#211 = UNCERTAINTY_MEASURE_WITH_UNIT (LENGTH_MEASURE( 1.000000000000000082E-05 ), #450, 'distance_accuracy_value', 'NONE');
#212 = DIRECTION ( 'NONE',  ( 0.000000000000000000, -0.7071067811865376918, -0.7071067811865573427 ) ) ;
#213 = ORIENTED_EDGE ( 'NONE', *, *, #233, .F. ) ;
#214 = FACE_OUTER_BOUND ( 'NONE', #208, .T. ) ;
#215 = ORIENTED_EDGE ( 'NONE', *, *, #220, .T. ) ;
#216 = DIRECTION ( 'NONE',  ( 1.380874408737758346E-15, 1.000000000000000000, 0.000000000000000000 ) ) ;
#217 = CLOSED_SHELL ( 'NONE', ( #1075, #816, #5, #244, #543, #452, #625, #586, #1102, #263, #45, #929, #445, #38, #647, #147, #559, #809, #506, #342, #1139, #496, #639, #362, #223, #566, #384, #741, #181, #286, #653, #112, #673, #1093, #43, #1068, #198, #392, #706, #505, #478, #1191 ) ) ;
#218 = CARTESIAN_POINT ( 'NONE',  ( 0.000000000000000000, -17.98000000000000043, 0.000000000000000000 ) ) ;
#219 = VECTOR ( 'NONE', #531, 100.0000000000000000 ) ;
#220 = EDGE_CURVE ( 'NONE', #192, #291, #1079, .T. ) ;
#221 = FACE_OUTER_BOUND ( 'NONE', #1048, .T. ) ;
#222 = AXIS2_PLACEMENT_3D ( 'NONE', #523, #139, #135 ) ;
#223 = ADVANCED_FACE ( 'NONE', ( #205 ), #585, .T. ) ;
#224 = LINE ( 'NONE', #321, #219 ) ;
#225 = CARTESIAN_POINT ( 'NONE',  ( 15.20000000000000462, -1.319999999999998952, 0.8000000000000000444 ) ) ;
#226 = CARTESIAN_POINT ( 'NONE',  ( 0.000000000000000000, -19.19999999999999929, 0.000000000000000000 ) ) ;
#227 = LINE ( 'NONE', #62, #634 ) ;
#228 = EDGE_CURVE ( 'NONE', #346, #463, #31, .T. ) ;
#229 = LINE ( 'NONE', #898, #29 ) ;
#230 = EDGE_LOOP ( 'NONE', ( #990, #739, #1043, #767 ) ) ;
#231 = PLANE ( 'NONE',  #737 ) ;
#232 = PLANE ( 'NONE',  #238 ) ;
#233 = EDGE_CURVE ( 'NONE', #1162, #449, #395, .T. ) ;
#234 = LINE ( 'NONE', #507, #1205 ) ;
#235 = ORIENTED_EDGE ( 'NONE', *, *, #786, .F. ) ;
#236 = VECTOR ( 'NONE', #858, 100.0000000000000000 ) ;
#237 = CARTESIAN_POINT ( 'NONE',  ( 15.20000000000000462, -1.319999999999998952, 0.8000000000000000444 ) ) ;
#238 = AXIS2_PLACEMENT_3D ( 'NONE', #610, #1209, #1008 ) ;
#239 = VERTEX_POINT ( 'NONE', #329 ) ;
#240 = VECTOR ( 'NONE', #206, 100.0000000000000000 ) ;
#241 = DIRECTION ( 'NONE',  ( -0.5773502691896273964, 0.5773502691896328365, -0.5773502691896168493 ) ) ;
#242 = ORIENTED_EDGE ( 'NONE', *, *, #132, .F. ) ;
#243 = CARTESIAN_POINT ( 'NONE',  ( 0.000000000000000000, -17.88000000000000256, 0.000000000000000000 ) ) ;
#244 = ADVANCED_FACE ( 'NONE', ( #629 ), #906, .F. ) ;
#245 = ORIENTED_EDGE ( 'NONE', *, *, #94, .T. ) ;
#246 = LINE ( 'NONE', #508, #704 ) ;
#247 = DIRECTION ( 'NONE',  ( 0.000000000000000000, 0.000000000000000000, 1.000000000000000000 ) ) ;
#248 = CARTESIAN_POINT ( 'NONE',  ( 17.11000000000000298, -16.87000000000000099, 0.000000000000000000 ) ) ;
#249 = CARTESIAN_POINT ( 'NONE',  ( 14.49999999999999289, -17.88000000000000256, 1.800000000000000266 ) ) ;
#250 = ORIENTED_EDGE ( 'NONE', *, *, #1001, .F. ) ;
#251 = DIRECTION ( 'NONE',  ( 1.000000000000000000, 1.883010557369666819E-16, 0.000000000000000000 ) ) ;
#252 = DIRECTION ( 'NONE',  ( 1.000000000000000000, 0.000000000000000000, 0.000000000000000000 ) ) ;
#253 = DIRECTION ( 'NONE',  ( 0.000000000000000000, 0.000000000000000000, -1.000000000000000000 ) ) ;
#254 = ORIENTED_EDGE ( 'NONE', *, *, #309, .F. ) ;
#255 = EDGE_CURVE ( 'NONE', #940, #594, #412, .T. ) ;
#256 = LINE ( 'NONE', #1134, #516 ) ;
#257 = VECTOR ( 'NONE', #560, 100.0000000000000000 ) ;
#258 = EDGE_CURVE ( 'NONE', #946, #1183, #1230, .T. ) ;
#259 = ORIENTED_EDGE ( 'NONE', *, *, #617, .T. ) ;
#260 = LINE ( 'NONE', #948, #434 ) ;
#261 = ORIENTED_EDGE ( 'NONE', *, *, #883, .F. ) ;
#262 = CARTESIAN_POINT ( 'NONE',  ( 15.20000000000000462, -17.88000000000000256, 1.800000000000000266 ) ) ;
#263 = ADVANCED_FACE ( 'NONE', ( #889 ), #717, .T. ) ;
#264 = CARTESIAN_POINT ( 'NONE',  ( 0.000000000000000000, -1.219999999999998863, 0.3747477419454632308 ) ) ;
#265 = CARTESIAN_POINT ( 'NONE',  ( 15.50000000000000533, -17.88000000000000256, 1.800000000000000266 ) ) ;
#266 = CARTESIAN_POINT ( 'NONE',  ( 15.50000000000000533, -1.219999999999998863, 1.800000000000000266 ) ) ;
#267 = ORIENTED_EDGE ( 'NONE', *, *, #885, .T. ) ;
#268 = LINE ( 'NONE', #347, #956 ) ;
#269 = EDGE_CURVE ( 'NONE', #701, #486, #996, .T. ) ;
#270 = DIRECTION ( 'NONE',  ( -1.000000000000000000, 0.000000000000000000, 0.000000000000000000 ) ) ;
#271 = ORIENTED_EDGE ( 'NONE', *, *, #890, .F. ) ;
#272 = LINE ( 'NONE', #751, #534 ) ;
#273 = ORIENTED_EDGE ( 'NONE', *, *, #436, .F. ) ;
#274 = VECTOR ( 'NONE', #303, 100.0000000000000000 ) ;
#275 = AXIS2_PLACEMENT_3D ( 'NONE', #1110, #654, #631 ) ;
#276 = VECTOR ( 'NONE', #1232, 100.0000000000000000 ) ;
#277 = EDGE_CURVE ( 'NONE', #367, #823, #805, .T. ) ;
#278 = CARTESIAN_POINT ( 'NONE',  ( 16.09000000000000696, -1.220000000000001528, 0.3747477419454560699 ) ) ;
#279 = DIRECTION ( 'NONE',  ( 0.7071067811865362485, 1.331489534161930595E-16, -0.7071067811865588970 ) ) ;
#280 = ORIENTED_EDGE ( 'NONE', *, *, #755, .T. ) ;
#281 = ORIENTED_EDGE ( 'NONE', *, *, #1030, .F. ) ;
#282 = ORIENTED_EDGE ( 'NONE', *, *, #75, .T. ) ;
#283 = CARTESIAN_POINT ( 'NONE',  ( 15.20000000000000462, -1.219999999999998863, 1.800000000000000266 ) ) ;
#284 = DIRECTION ( 'NONE',  ( 0.000000000000000000, -1.000000000000000000, 0.000000000000000000 ) ) ;
#285 = ORIENTED_EDGE ( 'NONE', *, *, #921, .F. ) ;
#286 = ADVANCED_FACE ( 'NONE', ( #1202 ), #820, .F. ) ;
#287 = CARTESIAN_POINT ( 'NONE',  ( 18.09000000000000341, -2.229999999999987548, 12.63499999999999979 ) ) ;
#288 = ORIENTED_EDGE ( 'NONE', *, *, #401, .T. ) ;
#289 = LINE ( 'NONE', #794, #913 ) ;
#290 = LINE ( 'NONE', #20, #1121 ) ;
#291 = VERTEX_POINT ( 'NONE', #911 ) ;
#292 = PLANE ( 'NONE',  #618 ) ;
#293 = EDGE_CURVE ( 'NONE', #463, #368, #1192, .T. ) ;
#294 = ORIENTED_EDGE ( 'NONE', *, *, #414, .T. ) ;
#295 = CARTESIAN_POINT ( 'NONE',  ( 17.10999999999999943, -2.229999999999987548, 0.09999999999999734102 ) ) ;
#296 = VECTOR ( 'NONE', #825, 100.0000000000000142 ) ;
#297 = AXIS2_PLACEMENT_3D ( 'NONE', #512, #603, #1096 ) ;
#298 = LINE ( 'NONE', #1069, #240 ) ;
#299 = ORIENTED_EDGE ( 'NONE', *, *, #75, .F. ) ;
#300 = DIRECTION ( 'NONE',  ( 0.7071067811865500152, 0.000000000000000000, -0.7071067811865450192 ) ) ;
#301 = ORIENTED_EDGE ( 'NONE', *, *, #134, .T. ) ;
#302 = VERTEX_POINT ( 'NONE', #150 ) ;
#303 = DIRECTION ( 'NONE',  ( 0.000000000000000000, 0.000000000000000000, -1.000000000000000000 ) ) ;
#304 = DIRECTION ( 'NONE',  ( 0.000000000000000000, -1.000000000000000000, 0.000000000000000000 ) ) ;
#305 = ORIENTED_EDGE ( 'NONE', *, *, #693, .F. ) ;
#306 = PLANE ( 'NONE',  #47 ) ;
#307 = ORIENTED_EDGE ( 'NONE', *, *, #665, .T. ) ;
#308 = DIRECTION ( 'NONE',  ( 0.000000000000000000, -1.000000000000000000, 0.000000000000000000 ) ) ;
#309 = EDGE_CURVE ( 'NONE', #480, #781, #227, .T. ) ;
#310 = DIRECTION ( 'NONE',  ( 0.000000000000000000, 1.000000000000000000, 0.000000000000000000 ) ) ;
#311 = ADVANCED_BREP_SHAPE_REPRESENTATION ( 'ramp-lower', ( #49, #375 ), #916 ) ;
#312 = DIRECTION ( 'NONE',  ( 1.000000000000000000, 0.000000000000000000, 0.000000000000000000 ) ) ;
#313 = DIRECTION ( 'NONE',  ( 0.000000000000000000, 0.000000000000000000, -1.000000000000000000 ) ) ;
#314 = VECTOR ( 'NONE', #153, 100.0000000000000000 ) ;
#315 = VECTOR ( 'NONE', #83, 100.0000000000000142 ) ;
#316 = LINE ( 'NONE', #976, #722 ) ;
#317 = AXIS2_PLACEMENT_3D ( 'NONE', #108, #766, #1 ) ;
#318 = DIRECTION ( 'NONE',  ( 0.7071067811865450192, 0.000000000000000000, 0.7071067811865500152 ) ) ;
#319 = VECTOR ( 'NONE', #163, 100.0000000000000000 ) ;
#320 = VERTEX_POINT ( 'NONE', #1094 ) ;
#321 = CARTESIAN_POINT ( 'NONE',  ( 16.08999999999998209, -19.20000000000002416, 3.807062734082392819 ) ) ;
#322 = DIRECTION ( 'NONE',  ( -0.9731308116794299412, -0.000000000000000000, -0.2302529551604793612 ) ) ;
#323 = CARTESIAN_POINT ( 'NONE',  ( 14.49999999999999289, -1.319999999999998952, 1.800000000000000266 ) ) ;
#324 = EDGE_CURVE ( 'NONE', #574, #951, #1198, .T. ) ;
#325 = CARTESIAN_POINT ( 'NONE',  ( 15.20000000000000462, -1.319999999999998952, 1.800000000000000266 ) ) ;
#326 = LINE ( 'NONE', #53, #896 ) ;
#327 = LINE ( 'NONE', #237, #878 ) ;
#328 = ORIENTED_EDGE ( 'NONE', *, *, #662, .F. ) ;
#329 = CARTESIAN_POINT ( 'NONE',  ( 14.79999999999999361, -1.319999999999998952, 1.800000000000000266 ) ) ;
#330 = CARTESIAN_POINT ( 'NONE',  ( 0.000000000000000000, -16.87000000000000099, 0.000000000000000000 ) ) ;
#331 = ORIENTED_EDGE ( 'NONE', *, *, #1058, .T. ) ;
#332 = AXIS2_PLACEMENT_3D ( 'NONE', #668, #947, #1035 ) ;
#333 = FACE_OUTER_BOUND ( 'NONE', #177, .T. ) ;
#334 = VECTOR ( 'NONE', #87, 100.0000000000000000 ) ;
#335 = VECTOR ( 'NONE', #284, 100.0000000000000000 ) ;
#336 = CARTESIAN_POINT ( 'NONE',  ( 17.21000000000000085, -19.19999999999999929, 0.000000000000000000 ) ) ;
#337 = LINE ( 'NONE', #243, #127 ) ;
#338 = ORIENTED_EDGE ( 'NONE', *, *, #233, .T. ) ;
#339 = CARTESIAN_POINT ( 'NONE',  ( 14.49999999999999289, -1.319999999999998952, 1.800000000000000266 ) ) ;
#340 = ORIENTED_EDGE ( 'NONE', *, *, #1236, .T. ) ;
#341 = LINE ( 'NONE', #547, #553 ) ;
#342 = ADVANCED_FACE ( 'NONE', ( #702 ), #232, .T. ) ;
#343 = FACE_OUTER_BOUND ( 'NONE', #13, .T. ) ;
#344 = EDGE_CURVE ( 'NONE', #757, #736, #1186, .T. ) ;
#345 = DIRECTION ( 'NONE',  ( 0.000000000000000000, -1.000000000000000000, 0.000000000000000000 ) ) ;
#346 = VERTEX_POINT ( 'NONE', #1085 ) ;
#347 = CARTESIAN_POINT ( 'NONE',  ( 17.21000000000000085, -2.229999999999987548, 0.000000000000000000 ) ) ;
#348 = DIRECTION ( 'NONE',  ( 0.9731308116794299412, 0.000000000000000000, 0.2302529551604793612 ) ) ;
#349 = SHAPE_DEFINITION_REPRESENTATION ( #845, #311 ) ;
#350 = CARTESIAN_POINT ( 'NONE',  ( 16.09000000000000696, -1.319999999999999396, 0.09999999999999900635 ) ) ;
#351 = ORIENTED_EDGE ( 'NONE', *, *, #423, .F. ) ;
#352 = VECTOR ( 'NONE', #348, 100.0000000000000142 ) ;
#353 = EDGE_CURVE ( 'NONE', #968, #34, #224, .T. ) ;
#354 = LINE ( 'NONE', #657, #257 ) ;
#355 = AXIS2_PLACEMENT_3D ( 'NONE', #552, #735, #78 ) ;
#356 = EDGE_LOOP ( 'NONE', ( #520, #782, #121, #581 ) ) ;
#357 = VECTOR ( 'NONE', #965, 100.0000000000000000 ) ;
#358 = LINE ( 'NONE', #1029, #352 ) ;
#359 = DIRECTION ( 'NONE',  ( 0.000000000000000000, 1.000000000000000000, -0.000000000000000000 ) ) ;
#360 = EDGE_LOOP ( 'NONE', ( #15, #465, #788, #444, #191 ) ) ;
#361 = LINE ( 'NONE', #836, #143 ) ;
#362 = ADVANCED_FACE ( 'NONE', ( #815 ), #709, .T. ) ;
#363 = ORIENTED_EDGE ( 'NONE', *, *, #962, .T. ) ;
#364 = DIRECTION ( 'NONE',  ( -1.000000000000000000, 0.000000000000000000, 0.000000000000000000 ) ) ;
#365 = CARTESIAN_POINT ( 'NONE',  ( 15.99000000000000909, -17.88000000000000256, 0.000000000000000000 ) ) ;
#366 = CARTESIAN_POINT ( 'NONE',  ( 15.20000000000000462, -1.219999999999998863, 0.8000000000000000444 ) ) ;
#367 = VERTEX_POINT ( 'NONE', #513 ) ;
#368 = VERTEX_POINT ( 'NONE', #51 ) ;
#369 = EDGE_CURVE ( 'NONE', #1184, #877, #146, .T. ) ;
#370 = DIRECTION ( 'NONE',  ( 1.000000000000000000, 0.000000000000000000, 0.000000000000000000 ) ) ;
#371 = ORIENTED_EDGE ( 'NONE', *, *, #708, .T. ) ;
#372 = CARTESIAN_POINT ( 'NONE',  ( 17.11000000000000298, -15.97000000000000419, 0.09999999999999731326 ) ) ;
#373 = VERTEX_POINT ( 'NONE', #57 ) ;
#374 = AXIS2_PLACEMENT_3D ( 'NONE', #336, #615, #66 ) ;
#375 = AXIS2_PLACEMENT_3D ( 'NONE', #1019, #924, #1217 ) ;
#376 = EDGE_CURVE ( 'NONE', #659, #968, #424, .T. ) ;
#377 = DIRECTION ( 'NONE',  ( 0.000000000000000000, -1.000000000000000000, 0.000000000000000000 ) ) ;
#378 = EDGE_LOOP ( 'NONE', ( #723, #410, #843, #104 ) ) ;
#379 = DIRECTION ( 'NONE',  ( 0.2302529551604793889, 0.000000000000000000, -0.9731308116794300522 ) ) ;
#380 = ORIENTED_EDGE ( 'NONE', *, *, #732, .T. ) ;
#381 = CARTESIAN_POINT ( 'NONE',  ( 16.09000000000001052, -17.98000000000000398, 0.3747477419454832703 ) ) ;
#382 = ORIENTED_EDGE ( 'NONE', *, *, #467, .F. ) ;
#383 = DIRECTION ( 'NONE',  ( 0.000000000000000000, 1.000000000000000000, -0.000000000000000000 ) ) ;
#384 = ADVANCED_FACE ( 'NONE', ( #158 ), #841, .F. ) ;
#385 = DIRECTION ( 'NONE',  ( -1.000000000000000000, 0.000000000000000000, 0.000000000000000000 ) ) ;
#386 = ORIENTED_EDGE ( 'NONE', *, *, #797, .F. ) ;
#387 = ORIENTED_EDGE ( 'NONE', *, *, #277, .T. ) ;
#388 = FACE_OUTER_BOUND ( 'NONE', #614, .T. ) ;
#389 = CARTESIAN_POINT ( 'NONE',  ( 17.10999999999999943, -3.229999999999985771, 12.63499999999999979 ) ) ;
#390 = ORIENTED_EDGE ( 'NONE', *, *, #743, .T. ) ;
#391 = FACE_OUTER_BOUND ( 'NONE', #849, .T. ) ;
#392 = ADVANCED_FACE ( 'NONE', ( #1228 ), #945, .T. ) ;
#393 = ORIENTED_EDGE ( 'NONE', *, *, #842, .F. ) ;
#394 = ORIENTED_EDGE ( 'NONE', *, *, #220, .F. ) ;
#395 = LINE ( 'NONE', #1168, #67 ) ;
#396 = VECTOR ( 'NONE', #692, 100.0000000000000142 ) ;
#397 = VECTOR ( 'NONE', #904, 100.0000000000000000 ) ;
#398 = VECTOR ( 'NONE', #194, 100.0000000000000000 ) ;
#399 = CARTESIAN_POINT ( 'NONE',  ( 15.20000000000000462, -1.319999999999998952, 1.800000000000000266 ) ) ;
#400 = DIRECTION ( 'NONE',  ( 1.000000000000000000, 0.000000000000000000, 0.000000000000000000 ) ) ;
#401 = EDGE_CURVE ( 'NONE', #677, #463, #464, .T. ) ;
#402 = DIRECTION ( 'NONE',  ( 0.9731308116794299412, 0.000000000000000000, 0.2302529551604793612 ) ) ;
#403 = DIRECTION ( 'NONE',  ( 1.000000000000000000, 1.380874408737758346E-15, 0.000000000000000000 ) ) ;
#404 = EDGE_LOOP ( 'NONE', ( #92, #54, #640, #282, #288, #1158, #331 ) ) ;
#405 = DIRECTION ( 'NONE',  ( -0.000000000000000000, 1.000000000000000000, 0.000000000000000000 ) ) ;
#406 = ORIENTED_EDGE ( 'NONE', *, *, #708, .F. ) ;
#407 = LINE ( 'NONE', #210, #236 ) ;
#408 = EDGE_CURVE ( 'NONE', #877, #903, #361, .T. ) ;
#409 = LINE ( 'NONE', #415, #162 ) ;
#410 = ORIENTED_EDGE ( 'NONE', *, *, #94, .F. ) ;
#411 = DIRECTION ( 'NONE',  ( -1.000000000000000000, 0.000000000000000000, 0.000000000000000000 ) ) ;
#412 = LINE ( 'NONE', #606, #159 ) ;
#413 = VECTOR ( 'NONE', #73, 100.0000000000000000 ) ;
#414 = EDGE_CURVE ( 'NONE', #736, #1184, #268, .T. ) ;
#415 = CARTESIAN_POINT ( 'NONE',  ( 18.09000000000000696, -19.19999999999999929, 4.280283707865168985 ) ) ;
#416 = CARTESIAN_POINT ( 'NONE',  ( 17.10999999999999943, -3.229999999999985771, 0.09999999999999731326 ) ) ;
#417 = ORIENTED_EDGE ( 'NONE', *, *, #32, .T. ) ;
#418 = DIRECTION ( 'NONE',  ( 0.000000000000000000, -1.000000000000000000, 0.000000000000000000 ) ) ;
#419 = DIRECTION ( 'NONE',  ( -1.000000000000000000, 0.000000000000000000, 0.000000000000000000 ) ) ;
#420 = ORIENTED_EDGE ( 'NONE', *, *, #921, .T. ) ;
#421 = PLANE ( 'NONE',  #297 ) ;
#422 = ORIENTED_EDGE ( 'NONE', *, *, #885, .F. ) ;
#423 = EDGE_CURVE ( 'NONE', #454, #857, #272, .T. ) ;
#424 = LINE ( 'NONE', #811, #105 ) ;
#425 = FACE_OUTER_BOUND ( 'NONE', #597, .T. ) ;
#426 = ORIENTED_EDGE ( 'NONE', *, *, #376, .T. ) ;
#427 = CARTESIAN_POINT ( 'NONE',  ( 15.20000000000000462, -1.319999999999998952, 1.800000000000000266 ) ) ;
#428 = DIRECTION ( 'NONE',  ( -1.000000000000000000, 0.000000000000000000, 0.000000000000000000 ) ) ;
#429 = EDGE_CURVE ( 'NONE', #973, #165, #341, .T. ) ;
#430 = CARTESIAN_POINT ( 'NONE',  ( 17.11000000000000298, -2.229999999999987548, 4.048405430711611963 ) ) ;
#431 = VECTOR ( 'NONE', #1223, 100.0000000000000000 ) ;
#432 = CARTESIAN_POINT ( 'NONE',  ( 15.50000000000000533, -17.88000000000000256, 1.800000000000000266 ) ) ;
#433 = VECTOR ( 'NONE', #385, 100.0000000000000000 ) ;
#434 = VECTOR ( 'NONE', #587, 100.0000000000000000 ) ;
#435 = CARTESIAN_POINT ( 'NONE',  ( 17.10999999999999943, -3.329999999999985860, 0.000000000000000000 ) ) ;
#436 = EDGE_CURVE ( 'NONE', #144, #761, #1034, .T. ) ;
#437 = EDGE_CURVE ( 'NONE', #1105, #30, #256, .T. ) ;
#438 =( NAMED_UNIT ( * ) SI_UNIT ( $, .STERADIAN. ) SOLID_ANGLE_UNIT ( ) );
#439 = FACE_OUTER_BOUND ( 'NONE', #753, .T. ) ;
#440 = ORIENTED_EDGE ( 'NONE', *, *, #743, .F. ) ;
#441 = PLANE ( 'NONE',  #6 ) ;
#442 = ORIENTED_EDGE ( 'NONE', *, *, #169, .F. ) ;
#443 = CARTESIAN_POINT ( 'NONE',  ( 15.00000000000000178, -17.88000000000000256, 2.299999999999999822 ) ) ;
#444 = ORIENTED_EDGE ( 'NONE', *, *, #69, .T. ) ;
#445 = ADVANCED_FACE ( 'NONE', ( #540 ), #441, .T. ) ;
#446 = CARTESIAN_POINT ( 'NONE',  ( 15.00000000000000178, -1.319999999999998952, 2.299999999999999822 ) ) ;
#447 = ORIENTED_EDGE ( 'NONE', *, *, #923, .F. ) ;
#448 = CARTESIAN_POINT ( 'NONE',  ( 15.00000000000000178, -1.219999999999998863, 2.299999999999998046 ) ) ;
#449 = VERTEX_POINT ( 'NONE', #824 ) ;
#450 =( LENGTH_UNIT ( ) NAMED_UNIT ( * ) SI_UNIT ( .CENTI., .METRE. ) );
#451 = CARTESIAN_POINT ( 'NONE',  ( 16.09999999999998366, -16.98000000000002174, 1.109999999999988773 ) ) ;
#452 = ADVANCED_FACE ( 'NONE', ( #1214 ), #178, .F. ) ;
#453 = DIRECTION ( 'NONE',  ( 0.000000000000000000, 1.000000000000000000, 0.000000000000000000 ) ) ;
#454 = VERTEX_POINT ( 'NONE', #455 ) ;
#455 = CARTESIAN_POINT ( 'NONE',  ( 15.50000000000000533, -1.319999999999998952, 1.800000000000000266 ) ) ;
#456 = VECTOR ( 'NONE', #166, 100.0000000000000000 ) ;
#457 = FILL_AREA_STYLE_COLOUR ( '', #1036 ) ;
#458 =( LENGTH_UNIT ( ) NAMED_UNIT ( * ) SI_UNIT ( .CENTI., .METRE. ) );
#459 = PLANE ( 'NONE',  #275 ) ;
#460 = DIRECTION ( 'NONE',  ( 0.000000000000000000, -1.000000000000000000, 0.000000000000000000 ) ) ;
#461 = EDGE_CURVE ( 'NONE', #679, #734, #173, .T. ) ;
#462 = CARTESIAN_POINT ( 'NONE',  ( 15.00000000000000178, -17.88000000000000256, 2.299999999999999822 ) ) ;
#463 = VERTEX_POINT ( 'NONE', #1028 ) ;
#464 = LINE ( 'NONE', #848, #456 ) ;
#465 = ORIENTED_EDGE ( 'NONE', *, *, #1229, .T. ) ;
#466 = ORIENTED_EDGE ( 'NONE', *, *, #258, .F. ) ;
#467 = EDGE_CURVE ( 'NONE', #644, #920, #941, .T. ) ;
#468 = FILL_AREA_STYLE ('',( #457 ) ) ;
#469 = LINE ( 'NONE', #490, #477 ) ;
#470 = VERTEX_POINT ( 'NONE', #448 ) ;
#471 = FACE_OUTER_BOUND ( 'NONE', #1011, .T. ) ;
#472 = VECTOR ( 'NONE', #712, 100.0000000000000000 ) ;
#473 = ORIENTED_EDGE ( 'NONE', *, *, #437, .T. ) ;
#474 = ORIENTED_EDGE ( 'NONE', *, *, #369, .F. ) ;
#475 = VECTOR ( 'NONE', #1064, 100.0000000000000142 ) ;
#476 = CARTESIAN_POINT ( 'NONE',  ( 15.20000000000000462, -17.98000000000000043, 1.800000000000000266 ) ) ;
#477 = VECTOR ( 'NONE', #383, 100.0000000000000000 ) ;
#478 = ADVANCED_FACE ( 'NONE', ( #830 ), #1221, .T. ) ;
#479 = VECTOR ( 'NONE', #943, 100.0000000000000000 ) ;
#480 = VERTEX_POINT ( 'NONE', #366 ) ;
#481 = EDGE_CURVE ( 'NONE', #186, #137, #354, .T. ) ;
#482 = CARTESIAN_POINT ( 'NONE',  ( 16.09000000000000696, -15.97000000000000419, 3.807062734082399036 ) ) ;
#483 = ORIENTED_EDGE ( 'NONE', *, *, #81, .T. ) ;
#484 = DIRECTION ( 'NONE',  ( -0.000000000000000000, 0.000000000000000000, 1.000000000000000000 ) ) ;
#485 = ORIENTED_EDGE ( 'NONE', *, *, #175, .T. ) ;
#486 = VERTEX_POINT ( 'NONE', #1112 ) ;
#487 = CARTESIAN_POINT ( 'NONE',  ( 18.09000000000000341, -2.229999999999987548, 0.09999999999999731326 ) ) ;
#488 = ORIENTED_EDGE ( 'NONE', *, *, #1125, .T. ) ;
#489 = EDGE_CURVE ( 'NONE', #320, #931, #742, .T. ) ;
#490 = CARTESIAN_POINT ( 'NONE',  ( 14.79999999999999361, -1.319999999999998952, 0.8000000000000000444 ) ) ;
#491 = ORIENTED_EDGE ( 'NONE', *, *, #842, .T. ) ;
#492 = LINE ( 'NONE', #497, #1182 ) ;
#493 = ORIENTED_EDGE ( 'NONE', *, *, #61, .T. ) ;
#494 = CARTESIAN_POINT ( 'NONE',  ( 14.79999999999999361, -17.88000000000000256, 0.8000000000000000444 ) ) ;
#495 = CARTESIAN_POINT ( 'NONE',  ( 17.11000000000000298, -16.97000000000000242, 4.048405430711610187 ) ) ;
#496 = ADVANCED_FACE ( 'NONE', ( #503 ), #203, .T. ) ;
#497 = CARTESIAN_POINT ( 'NONE',  ( 14.79999999999999361, -1.319999999999998952, 1.800000000000000266 ) ) ;
#498 = VERTEX_POINT ( 'NONE', #372 ) ;
#499 = CARTESIAN_POINT ( 'NONE',  ( 0.000000000000000000, -3.329999999999985860, 0.000000000000000000 ) ) ;
#500 = AXIS2_PLACEMENT_3D ( 'NONE', #152, #149, #707 ) ;
#501 = VECTOR ( 'NONE', #988, 100.0000000000000000 ) ;
#502 = CARTESIAN_POINT ( 'NONE',  ( 0.000000000000000000, -1.319999999999998952, 0.000000000000000000 ) ) ;
#503 = FACE_OUTER_BOUND ( 'NONE', #356, .T. ) ;
#504 = DIRECTION ( 'NONE',  ( 0.000000000000000000, -1.000000000000000000, 0.000000000000000000 ) ) ;
#505 = ADVANCED_FACE ( 'NONE', ( #214 ), #1164, .T. ) ;
#506 = ADVANCED_FACE ( 'NONE', ( #28 ), #292, .T. ) ;
#507 = CARTESIAN_POINT ( 'NONE',  ( 15.00000000000000178, -1.219999999999998863, 2.299999999999999822 ) ) ;
#508 = CARTESIAN_POINT ( 'NONE',  ( 17.21000000000000441, -15.97000000000000419, 0.000000000000000000 ) ) ;
#509 = CARTESIAN_POINT ( 'NONE',  ( 0.000000000000000000, -1.319999999999998952, 0.1000000000000000056 ) ) ;
#510 = EDGE_CURVE ( 'NONE', #781, #11, #967, .T. ) ;
#511 = DIRECTION ( 'NONE',  ( 0.7071067811865539010, 0.000000000000000000, 0.7071067811865411334 ) ) ;
#512 = CARTESIAN_POINT ( 'NONE',  ( 15.20000000000000462, -17.88000000000000256, 0.8000000000000000444 ) ) ;
#513 = CARTESIAN_POINT ( 'NONE',  ( 16.09000000000000696, -15.97000000000000419, 0.09999999999999731326 ) ) ;
#514 = EDGE_CURVE ( 'NONE', #107, #186, #979, .T. ) ;
#515 = AXIS2_PLACEMENT_3D ( 'NONE', #499, #970, #118 ) ;
#516 = VECTOR ( 'NONE', #1235, 100.0000000000000000 ) ;
#517 = LINE ( 'NONE', #602, #1185 ) ;
#518 = PRODUCT_DEFINITION ( 'UNKNOWN', '', #958, #636 ) ;
#519 = VECTOR ( 'NONE', #345, 100.0000000000000000 ) ;
#520 = ORIENTED_EDGE ( 'NONE', *, *, #4, .T. ) ;
#521 = DIRECTION ( 'NONE',  ( 1.000000000000000000, 0.000000000000000000, 0.000000000000000000 ) ) ;
#522 = CARTESIAN_POINT ( 'NONE',  ( 18.09000000000000341, -2.329999999999987637, 0.000000000000000000 ) ) ;
#523 = CARTESIAN_POINT ( 'NONE',  ( 0.000000000000000000, -17.98000000000000043, 5.020000000000000462 ) ) ;
#524 = ORIENTED_EDGE ( 'NONE', *, *, #786, .T. ) ;
#525 = CARTESIAN_POINT ( 'NONE',  ( 17.11000000000000298, -15.97000000000000419, 0.09999999999999734102 ) ) ;
#526 = DIRECTION ( 'NONE',  ( 1.000000000000000000, 0.000000000000000000, 0.000000000000000000 ) ) ;
#527 = LINE ( 'NONE', #727, #276 ) ;
#528 = ORIENTED_EDGE ( 'NONE', *, *, #510, .F. ) ;
#529 = CARTESIAN_POINT ( 'NONE',  ( 15.99000000000000377, -3.229999999999985771, 0.000000000000000000 ) ) ;
#530 = EDGE_CURVE ( 'NONE', #239, #11, #492, .T. ) ;
#531 = DIRECTION ( 'NONE',  ( -1.380874408737758346E-15, -1.000000000000000000, -3.267293661872954206E-16 ) ) ;
#532 = CARTESIAN_POINT ( 'NONE',  ( 16.09000000000000696, -15.97000000000000419, 0.09999999999999728550 ) ) ;
#533 = CARTESIAN_POINT ( 'NONE',  ( 15.00000000000000178, -17.98000000000000043, 2.299999999999999822 ) ) ;
#534 = VECTOR ( 'NONE', #919, 100.0000000000000000 ) ;
#535 = AXIS2_PLACEMENT_3D ( 'NONE', #330, #212, #698 ) ;
#536 = DIRECTION ( 'NONE',  ( 0.000000000000000000, 1.000000000000000000, 0.000000000000000000 ) ) ;
#537 = DIRECTION ( 'NONE',  ( 0.7071067811865539010, 0.000000000000000000, 0.7071067811865411334 ) ) ;
#538 = CARTESIAN_POINT ( 'NONE',  ( 15.99000000000000909, -17.88000000000000256, 0.000000000000000000 ) ) ;
#539 = CARTESIAN_POINT ( 'NONE',  ( 10.69999999999988205, -8.620000000000091589, -5.289999999999959179 ) ) ;
#540 = FACE_OUTER_BOUND ( 'NONE', #1126, .T. ) ;
#541 = ORIENTED_EDGE ( 'NONE', *, *, #69, .F. ) ;
#542 = CARTESIAN_POINT ( 'NONE',  ( 16.09000000000001407, -19.19999999999997797, 3.807062734082399480 ) ) ;
#543 = ADVANCED_FACE ( 'NONE', ( #190 ), #950, .F. ) ;
#544 = CARTESIAN_POINT ( 'NONE',  ( 0.000000000000000000, -17.88000000000000256, 0.000000000000000000 ) ) ;
#545 = CARTESIAN_POINT ( 'NONE',  ( 17.21000000000000085, -3.329999999999985860, 0.000000000000000000 ) ) ;
#546 = ORIENTED_EDGE ( 'NONE', *, *, #732, .F. ) ;
#547 = CARTESIAN_POINT ( 'NONE',  ( 15.20000000000000462, -17.88000000000000256, 1.800000000000000266 ) ) ;
#548 = CARTESIAN_POINT ( 'NONE',  ( 1.583817128602116320, -1.219999999999998863, 0.3747477419454632308 ) ) ;
#549 = LINE ( 'NONE', #248, #1142 ) ;
#550 = LINE ( 'NONE', #938, #334 ) ;
#551 = ORIENTED_EDGE ( 'NONE', *, *, #905, .T. ) ;
#552 = CARTESIAN_POINT ( 'NONE',  ( 0.000000000000000000, -17.98000000000000043, 0.3747477419454632308 ) ) ;
#553 = VECTOR ( 'NONE', #1131, 100.0000000000000000 ) ;
#554 = ORIENTED_EDGE ( 'NONE', *, *, #88, .T. ) ;
#555 = VECTOR ( 'NONE', #106, 100.0000000000000000 ) ;
#556 = LINE ( 'NONE', #1237, #84 ) ;
#557 = FACE_OUTER_BOUND ( 'NONE', #1135, .T. ) ;
#558 = ORIENTED_EDGE ( 'NONE', *, *, #376, .F. ) ;
#559 = ADVANCED_FACE ( 'NONE', ( #391 ), #126, .T. ) ;
#560 = DIRECTION ( 'NONE',  ( -4.722868631912351297E-16, 0.3420201433256678802, -0.9396926207859087610 ) ) ;
#561 = ORIENTED_EDGE ( 'NONE', *, *, #693, .T. ) ;
#562 = ORIENTED_EDGE ( 'NONE', *, *, #1054, .T. ) ;
#563 = LINE ( 'NONE', #74, #296 ) ;
#564 = CARTESIAN_POINT ( 'NONE',  ( 15.20000000000000462, -17.88000000000000256, 1.800000000000000266 ) ) ;
#565 = DIRECTION ( 'NONE',  ( 0.000000000000000000, 1.000000000000000000, -0.000000000000000000 ) ) ;
#566 = ADVANCED_FACE ( 'NONE', ( #758 ), #10, .T. ) ;
#567 = EDGE_LOOP ( 'NONE', ( #730, #1123, #422, #2 ) ) ;
#568 = ORIENTED_EDGE ( 'NONE', *, *, #1030, .T. ) ;
#569 = DIRECTION ( 'NONE',  ( 1.000000000000000000, -1.380874408737758346E-15, 0.000000000000000000 ) ) ;
#570 = EDGE_CURVE ( 'NONE', #449, #192, #779, .T. ) ;
#571 = CARTESIAN_POINT ( 'NONE',  ( 15.20000000000000462, -1.219999999999998863, 1.800000000000000266 ) ) ;
#572 = DIRECTION ( 'NONE',  ( -1.000000000000000000, 0.000000000000000000, 0.000000000000000000 ) ) ;
#573 = EDGE_LOOP ( 'NONE', ( #1239, #261, #1195, #56 ) ) ;
#574 = VERTEX_POINT ( 'NONE', #120 ) ;
#575 = VECTOR ( 'NONE', #300, 100.0000000000000000 ) ;
#576 = CARTESIAN_POINT ( 'NONE',  ( 14.79999999999999361, -17.88000000000000256, 1.800000000000000266 ) ) ;
#577 = VECTOR ( 'NONE', #1141, 100.0000000000000142 ) ;
#578 = EDGE_CURVE ( 'NONE', #189, #454, #596, .T. ) ;
#579 = EDGE_LOOP ( 'NONE', ( #1059, #131, #1022, #528, #254, #671, #235 ) ) ;
#580 = CARTESIAN_POINT ( 'NONE',  ( 17.10999999999999943, -2.229999999999987548, 12.63499999999999979 ) ) ;
#581 = ORIENTED_EDGE ( 'NONE', *, *, #32, .F. ) ;
#582 = CARTESIAN_POINT ( 'NONE',  ( 17.99000000000000554, -19.19999999999999929, 0.000000000000000000 ) ) ;
#583 = ORIENTED_EDGE ( 'NONE', *, *, #1088, .T. ) ;
#584 = ORIENTED_EDGE ( 'NONE', *, *, #604, .T. ) ;
#585 = PLANE ( 'NONE',  #515 ) ;
#586 = ADVANCED_FACE ( 'NONE', ( #471 ), #306, .F. ) ;
#587 = DIRECTION ( 'NONE',  ( 1.000000000000000000, 0.000000000000000000, 0.000000000000000000 ) ) ;
#588 = CARTESIAN_POINT ( 'NONE',  ( 12.36666666666655345, -7.953333333333407751, -5.623333333333270012 ) ) ;
#589 = ORIENTED_EDGE ( 'NONE', *, *, #1211, .F. ) ;
#590 = ORIENTED_EDGE ( 'NONE', *, *, #277, .F. ) ;
#591 = EDGE_LOOP ( 'NONE', ( #72, #546, #609, #908 ) ) ;
#592 = CARTESIAN_POINT ( 'NONE',  ( 15.50000000000000533, -17.88000000000000256, 1.800000000000000266 ) ) ;
#593 = DIRECTION ( 'NONE',  ( 0.7071067811865500152, 0.000000000000000000, -0.7071067811865450192 ) ) ;
#594 = VERTEX_POINT ( 'NONE', #196 ) ;
#595 = APPLICATION_CONTEXT ( 'automotive_design' ) ;
#596 = LINE ( 'NONE', #1144, #575 ) ;
#597 = EDGE_LOOP ( 'NONE', ( #267, #589, #872, #829 ) ) ;
#598 = CARTESIAN_POINT ( 'NONE',  ( 16.09000000000001052, -17.98000000000000043, 3.807062734082399036 ) ) ;
#599 = VECTOR ( 'NONE', #1067, 100.0000000000000000 ) ;
#600 = VECTOR ( 'NONE', #901, 100.0000000000000000 ) ;
#601 = VECTOR ( 'NONE', #971, 100.0000000000000000 ) ;
#602 = CARTESIAN_POINT ( 'NONE',  ( 17.11000000000000298, -15.97000000000000419, 12.63499999999999979 ) ) ;
#603 = DIRECTION ( 'NONE',  ( 0.000000000000000000, 0.000000000000000000, 1.000000000000000000 ) ) ;
#604 = EDGE_CURVE ( 'NONE', #192, #877, #689, .T. ) ;
#605 = ORIENTED_EDGE ( 'NONE', *, *, #795, .F. ) ;
#606 = CARTESIAN_POINT ( 'NONE',  ( 18.09000000000000696, -16.97000000000000242, 0.09999999999999734102 ) ) ;
#607 = CARTESIAN_POINT ( 'NONE',  ( 0.000000000000000000, -1.319999999999998952, 0.000000000000000000 ) ) ;
#608 = LINE ( 'NONE', #793, #683 ) ;
#609 = ORIENTED_EDGE ( 'NONE', *, *, #269, .F. ) ;
#610 = CARTESIAN_POINT ( 'NONE',  ( 17.21000000000000441, -19.19999999999999929, 0.000000000000000000 ) ) ;
#611 = EDGE_CURVE ( 'NONE', #1227, #1130, #863, .T. ) ;
#612 = FACE_OUTER_BOUND ( 'NONE', #669, .T. ) ;
#613 = DIRECTION ( 'NONE',  ( 0.000000000000000000, -1.000000000000000000, 0.000000000000000000 ) ) ;
#614 = EDGE_LOOP ( 'NONE', ( #959, #974, #209, #771 ) ) ;
#615 = DIRECTION ( 'NONE',  ( -0.7071067811865376918, -0.000000000000000000, -0.7071067811865573427 ) ) ;
#616 = AXIS2_PLACEMENT_3D ( 'NONE', #443, #661, #537 ) ;
#617 = EDGE_CURVE ( 'NONE', #664, #189, #773, .T. ) ;
#618 = AXIS2_PLACEMENT_3D ( 'NONE', #1078, #666, #400 ) ;
#619 = PLANE ( 'NONE',  #801 ) ;
#620 = VECTOR ( 'NONE', #777, 100.0000000000000000 ) ;
#621 = ORIENTED_EDGE ( 'NONE', *, *, #827, .T. ) ;
#622 = CARTESIAN_POINT ( 'NONE',  ( 16.09000000000000696, -1.219999999999987761, 0.3747477419454636749 ) ) ;
#623 = ORIENTED_EDGE ( 'NONE', *, *, #937, .F. ) ;
#624 = DIRECTION ( 'NONE',  ( 1.000000000000000000, 0.000000000000000000, 0.000000000000000000 ) ) ;
#625 = ADVANCED_FACE ( 'NONE', ( #207 ), #231, .F. ) ;
#626 = DIRECTION ( 'NONE',  ( -1.380874408737758346E-15, 1.000000000000000000, 0.000000000000000000 ) ) ;
#627 = ORIENTED_EDGE ( 'NONE', *, *, #718, .F. ) ;
#628 = DIRECTION ( 'NONE',  ( 0.000000000000000000, -1.000000000000000000, 0.000000000000000000 ) ) ;
#629 = FACE_OUTER_BOUND ( 'NONE', #840, .T. ) ;
#630 = DIRECTION ( 'NONE',  ( 0.000000000000000000, 0.000000000000000000, -1.000000000000000000 ) ) ;
#631 = DIRECTION ( 'NONE',  ( -1.380874408737758346E-15, 1.000000000000000000, 0.000000000000000000 ) ) ;
#632 = EDGE_CURVE ( 'NONE', #302, #926, #246, .T. ) ;
#633 = CARTESIAN_POINT ( 'NONE',  ( 0.1098473557279123630, -17.85306294015250828, 0.02599103632251259510 ) ) ;
#634 = VECTOR ( 'NONE', #428, 100.0000000000000000 ) ;
#635 = VECTOR ( 'NONE', #957, 100.0000000000000000 ) ;
#636 = PRODUCT_DEFINITION_CONTEXT ( 'detailed design', #595, 'design' ) ;
#637 = CARTESIAN_POINT ( 'NONE',  ( 17.99000000000000199, -2.329999999999987637, 0.000000000000000000 ) ) ;
#638 = DIRECTION ( 'NONE',  ( 0.000000000000000000, 0.000000000000000000, 1.000000000000000000 ) ) ;
#639 = ADVANCED_FACE ( 'NONE', ( #35 ), #142, .T. ) ;
#640 = ORIENTED_EDGE ( 'NONE', *, *, #611, .T. ) ;
#641 = LINE ( 'NONE', #542, #431 ) ;
#642 = DIRECTION ( 'NONE',  ( 0.5773502691896310601, 0.5773502691896310601, -0.5773502691896150729 ) ) ;
#643 = CARTESIAN_POINT ( 'NONE',  ( 15.20000000000000462, -17.88000000000000256, 0.8000000000000000444 ) ) ;
#644 = VERTEX_POINT ( 'NONE', #416 ) ;
#645 = CARTESIAN_POINT ( 'NONE',  ( 14.49999999999999289, -17.88000000000000256, 1.800000000000000266 ) ) ;
#646 = DIRECTION ( 'NONE',  ( 0.000000000000000000, -0.9396926207859087610, 0.3420201433256678802 ) ) ;
#647 = ADVANCED_FACE ( 'NONE', ( #1007 ), #41, .T. ) ;
#648 = LINE ( 'NONE', #838, #8 ) ;
#649 = DIRECTION ( 'NONE',  ( -1.380874408737758346E-15, -1.000000000000000000, 0.000000000000000000 ) ) ;
#650 = ORIENTED_EDGE ( 'NONE', *, *, #578, .F. ) ;
#651 = CARTESIAN_POINT ( 'NONE',  ( 18.09000000000000696, -16.97000000000000242, 12.63499999999999979 ) ) ;
#652 = FACE_OUTER_BOUND ( 'NONE', #573, .T. ) ;
#653 = ADVANCED_FACE ( 'NONE', ( #1002 ), #882, .F. ) ;
#654 = DIRECTION ( 'NONE',  ( 0.7071067811865415775, 9.764256583854251372E-16, -0.7071067811865535679 ) ) ;
#655 = EDGE_LOOP ( 'NONE', ( #1170, #340, #305, #1216 ) ) ;
#656 = AXIS2_PLACEMENT_3D ( 'NONE', #168, #364, #851 ) ;
#657 = CARTESIAN_POINT ( 'NONE',  ( 16.09000000000001052, -17.98000000000000043, 0.3747477419454560699 ) ) ;
#658 = VECTOR ( 'NONE', #359, 100.0000000000000000 ) ;
#659 = VERTEX_POINT ( 'NONE', #622 ) ;
#660 = AXIS2_PLACEMENT_3D ( 'NONE', #544, #818, #76 ) ;
#661 = DIRECTION ( 'NONE',  ( 0.7071067811865411334, 0.000000000000000000, -0.7071067811865539010 ) ) ;
#662 = EDGE_CURVE ( 'NONE', #373, #1162, #608, .T. ) ;
#663 = DIRECTION ( 'NONE',  ( 0.9731308116794299412, 0.000000000000000000, 0.2302529551604793612 ) ) ;
#664 = VERTEX_POINT ( 'NONE', #323 ) ;
#665 = EDGE_CURVE ( 'NONE', #679, #137, #1181, .T. ) ;
#666 = DIRECTION ( 'NONE',  ( 0.000000000000000000, -0.7071067811865376918, -0.7071067811865573427 ) ) ;
#667 = ORIENTED_EDGE ( 'NONE', *, *, #1081, .F. ) ;
#668 = CARTESIAN_POINT ( 'NONE',  ( 17.10999999999999943, -2.229999999999987548, 12.63499999999999979 ) ) ;
#669 = EDGE_LOOP ( 'NONE', ( #1200, #775, #1097 ) ) ;
#670 = LINE ( 'NONE', #571, #555 ) ;
#671 = ORIENTED_EDGE ( 'NONE', *, *, #992, .F. ) ;
#672 = DIRECTION ( 'NONE',  ( 0.000000000000000000, 1.000000000000000000, -0.000000000000000000 ) ) ;
#673 = ADVANCED_FACE ( 'NONE', ( #333 ), #711, .F. ) ;
#674 = ORIENTED_EDGE ( 'NONE', *, *, #952, .F. ) ;
#675 = ORIENTED_EDGE ( 'NONE', *, *, #1006, .T. ) ;
#676 = FACE_OUTER_BOUND ( 'NONE', #185, .T. ) ;
#677 = VERTEX_POINT ( 'NONE', #899 ) ;
#678 = LINE ( 'NONE', #580, #357 ) ;
#679 = VERTEX_POINT ( 'NONE', #1087 ) ;
#680 = CARTESIAN_POINT ( 'NONE',  ( 15.00000000000000178, -1.319999999999998952, 2.299999999999999822 ) ) ;
#681 = ORIENTED_EDGE ( 'NONE', *, *, #1125, .F. ) ;
#682 = ORIENTED_EDGE ( 'NONE', *, *, #353, .F. ) ;
#683 = VECTOR ( 'NONE', #1176, 100.0000000000000000 ) ;
#684 = EDGE_CURVE ( 'NONE', #291, #644, #986, .T. ) ;
#685 = CARTESIAN_POINT ( 'NONE',  ( 15.00000000000000178, -1.319999999999998952, 2.299999999999999822 ) ) ;
#686 = AXIS2_PLACEMENT_3D ( 'NONE', #1090, #129, #593 ) ;
#687 = CARTESIAN_POINT ( 'NONE',  ( 15.00000000000000178, -17.98000000000000043, 2.299999999999999822 ) ) ;
#688 = ORIENTED_EDGE ( 'NONE', *, *, #897, .F. ) ;
#689 = LINE ( 'NONE', #588, #635 ) ;
#690 = ORIENTED_EDGE ( 'NONE', *, *, #293, .F. ) ;
#691 = EDGE_LOOP ( 'NONE', ( #850, #813, #280, #440 ) ) ;
#692 = DIRECTION ( 'NONE',  ( -0.9731308116794299412, -0.000000000000000000, -0.2302529551604793612 ) ) ;
#693 = EDGE_CURVE ( 'NONE', #912, #940, #1201, .T. ) ;
#694 = CARTESIAN_POINT ( 'NONE',  ( 11.47333333333322791, 2.406666666666787524, 5.736666666666613956 ) ) ;
#695 = ORIENTED_EDGE ( 'NONE', *, *, #570, .T. ) ;
#696 = CARTESIAN_POINT ( 'NONE',  ( 0.000000000000000000, -19.19999999999999929, 0.000000000000000000 ) ) ;
#697 = DIRECTION ( 'NONE',  ( 0.000000000000000000, 0.000000000000000000, -1.000000000000000000 ) ) ;
#698 = DIRECTION ( 'NONE',  ( 1.000000000000000000, 0.000000000000000000, 0.000000000000000000 ) ) ;
#699 = ORIENTED_EDGE ( 'NONE', *, *, #923, .T. ) ;
#700 = CARTESIAN_POINT ( 'NONE',  ( 17.10999999999999943, -3.229999999999985771, 0.09999999999999734102 ) ) ;
#701 = VERTEX_POINT ( 'NONE', #1091 ) ;
#702 = FACE_OUTER_BOUND ( 'NONE', #567, .T. ) ;
#703 = AXIS2_PLACEMENT_3D ( 'NONE', #982, #569, #216 ) ;
#704 = VECTOR ( 'NONE', #994, 100.0000000000000000 ) ;
#705 = PLANE ( 'NONE',  #999 ) ;
#706 = ADVANCED_FACE ( 'NONE', ( #221 ), #421, .T. ) ;
#707 = DIRECTION ( 'NONE',  ( 0.000000000000000000, -1.000000000000000000, 0.000000000000000000 ) ) ;
#708 = EDGE_CURVE ( 'NONE', #367, #498, #130, .T. ) ;
#709 = PLANE ( 'NONE',  #374 ) ;
#710 = LINE ( 'NONE', #218, #201 ) ;
#711 = PLANE ( 'NONE',  #784 ) ;
#712 = DIRECTION ( 'NONE',  ( 0.000000000000000000, 0.000000000000000000, -1.000000000000000000 ) ) ;
#713 = EDGE_CURVE ( 'NONE', #664, #59, #887, .T. ) ;
#714 = DIRECTION ( 'NONE',  ( 0.9731308116794299412, 0.000000000000000000, 0.2302529551604793612 ) ) ;
#715 = DIRECTION ( 'NONE',  ( -0.7071067811865500152, 0.000000000000000000, 0.7071067811865450192 ) ) ;
#716 = EDGE_LOOP ( 'NONE', ( #483, #371, #667, #866 ) ) ;
#717 = PLANE ( 'NONE',  #854 ) ;
#718 = EDGE_CURVE ( 'NONE', #165, #677, #60, .T. ) ;
#719 =( GEOMETRIC_REPRESENTATION_CONTEXT ( 3 ) GLOBAL_UNCERTAINTY_ASSIGNED_CONTEXT ( ( #211 ) ) GLOBAL_UNIT_ASSIGNED_CONTEXT ( ( #450, #844, #763 ) ) REPRESENTATION_CONTEXT ( 'NONE', 'WORKASPACE' ) );
#720 = VECTOR ( 'NONE', #649, 100.0000000000000000 ) ;
#721 =( NAMED_UNIT ( * ) PLANE_ANGLE_UNIT ( ) SI_UNIT ( $, .RADIAN. ) );
#722 = VECTOR ( 'NONE', #1080, 100.0000000000000000 ) ;
#723 = ORIENTED_EDGE ( 'NONE', *, *, #748, .F. ) ;
#724 = CARTESIAN_POINT ( 'NONE',  ( 15.50000000000000533, -17.88000000000000256, 1.800000000000000266 ) ) ;
#725 = DIRECTION ( 'NONE',  ( 1.000000000000000000, 0.000000000000000000, 0.000000000000000000 ) ) ;
#726 = ORIENTED_EDGE ( 'NONE', *, *, #423, .T. ) ;
#727 = CARTESIAN_POINT ( 'NONE',  ( 15.99000000000001265, -17.88000000000000256, 9.113771097669045774E-16 ) ) ;
#728 = EDGE_CURVE ( 'NONE', #1183, #973, #1196, .T. ) ;
#729 = LINE ( 'NONE', #533, #817 ) ;
#730 = ORIENTED_EDGE ( 'NONE', *, *, #1178, .T. ) ;
#731 = CARTESIAN_POINT ( 'NONE',  ( 0.000000000000000000, -15.97000000000000419, 0.000000000000000000 ) ) ;
#732 = EDGE_CURVE ( 'NONE', #486, #480, #327, .T. ) ;
#733 = LINE ( 'NONE', #1115, #1101 ) ;
#734 = VERTEX_POINT ( 'NONE', #170 ) ;
#735 = DIRECTION ( 'NONE',  ( 0.000000000000000000, 0.9396926207859087610, 0.3420201433256678802 ) ) ;
#736 = VERTEX_POINT ( 'NONE', #545 ) ;
#737 = AXIS2_PLACEMENT_3D ( 'NONE', #226, #798, #628 ) ;
#738 = DIRECTION ( 'NONE',  ( 0.7071067811865539010, 0.000000000000000000, 0.7071067811865411334 ) ) ;
#739 = ORIENTED_EDGE ( 'NONE', *, *, #905, .F. ) ;
#740 = VECTOR ( 'NONE', #663, 100.0000000000000142 ) ;
#741 = ADVANCED_FACE ( 'NONE', ( #155 ), #745, .F. ) ;
#742 = LINE ( 'NONE', #731, #475 ) ;
#743 = EDGE_CURVE ( 'NONE', #30, #757, #164, .T. ) ;
#744 = DIRECTION ( 'NONE',  ( -1.883010557369666819E-16, 1.000000000000000000, 0.000000000000000000 ) ) ;
#745 = PLANE ( 'NONE',  #1100 ) ;
#746 = DIRECTION ( 'NONE',  ( 0.000000000000000000, -1.000000000000000000, 0.000000000000000000 ) ) ;
#747 = ORIENTED_EDGE ( 'NONE', *, *, #461, .F. ) ;
#748 = EDGE_CURVE ( 'NONE', #951, #1227, #729, .T. ) ;
#749 = ORIENTED_EDGE ( 'NONE', *, *, #713, .F. ) ;
#750 = LINE ( 'NONE', #1133, #1187 ) ;
#751 = CARTESIAN_POINT ( 'NONE',  ( 15.50000000000000533, -1.319999999999998952, 1.800000000000000266 ) ) ;
#752 = EDGE_LOOP ( 'NONE', ( #699, #871, #183, #382 ) ) ;
#753 = EDGE_LOOP ( 'NONE', ( #1046, #1066, #590, #1145 ) ) ;
#754 = PLANE ( 'NONE',  #954 ) ;
#755 = EDGE_CURVE ( 'NONE', #920, #757, #828, .T. ) ;
#756 = LINE ( 'NONE', #278, #398 ) ;
#757 = VERTEX_POINT ( 'NONE', #1032 ) ;
#758 = FACE_OUTER_BOUND ( 'NONE', #691, .T. ) ;
#759 = VECTOR ( 'NONE', #1106, 100.0000000000000000 ) ;
#760 = ORIENTED_EDGE ( 'NONE', *, *, #1054, .F. ) ;
#761 = VERTEX_POINT ( 'NONE', #249 ) ;
#762 = VECTOR ( 'NONE', #630, 100.0000000000000000 ) ;
#763 =( NAMED_UNIT ( * ) SI_UNIT ( $, .STERADIAN. ) SOLID_ANGLE_UNIT ( ) );
#764 = CARTESIAN_POINT ( 'NONE',  ( 0.4226355362089352363, -1.319999999999998952, 0.09999999999999902023 ) ) ;
#765 = ORIENTED_EDGE ( 'NONE', *, *, #876, .T. ) ;
#766 = DIRECTION ( 'NONE',  ( 1.000000000000000000, 0.000000000000000000, 0.000000000000000000 ) ) ;
#767 = ORIENTED_EDGE ( 'NONE', *, *, #890, .T. ) ;
#768 = CARTESIAN_POINT ( 'NONE',  ( 15.00000000000000178, -17.88000000000000256, 2.299999999999999822 ) ) ;
#769 = ORIENTED_EDGE ( 'NONE', *, *, #795, .T. ) ;
#770 = LINE ( 'NONE', #202, #740 ) ;
#771 = ORIENTED_EDGE ( 'NONE', *, *, #977, .T. ) ;
#772 = EDGE_CURVE ( 'NONE', #837, #30, #550, .T. ) ;
#773 = LINE ( 'NONE', #680, #86 ) ;
#774 = ORIENTED_EDGE ( 'NONE', *, *, #1178, .F. ) ;
#775 = ORIENTED_EDGE ( 'NONE', *, *, #1014, .F. ) ;
#776 = CARTESIAN_POINT ( 'NONE',  ( 16.09000000000000696, -15.97000000000000419, 12.63499999999999979 ) ) ;
#777 = DIRECTION ( 'NONE',  ( 0.000000000000000000, 0.000000000000000000, -1.000000000000000000 ) ) ;
#778 = ORIENTED_EDGE ( 'NONE', *, *, #713, .T. ) ;
#779 = LINE ( 'NONE', #287, #1018 ) ;
#780 = MECHANICAL_DESIGN_GEOMETRIC_PRESENTATION_REPRESENTATION (  '', ( #1060 ), #719 ) ;
#781 = VERTEX_POINT ( 'NONE', #909 ) ;
#782 = ORIENTED_EDGE ( 'NONE', *, *, #408, .F. ) ;
#783 = ORIENTED_EDGE ( 'NONE', *, *, #481, .F. ) ;
#784 = AXIS2_PLACEMENT_3D ( 'NONE', #803, #318, #715 ) ;
#785 = FACE_OUTER_BOUND ( 'NONE', #52, .T. ) ;
#786 = EDGE_CURVE ( 'NONE', #857, #17, #176, .T. ) ;
#787 = CARTESIAN_POINT ( 'NONE',  ( 0.000000000000000000, -17.98000000000000043, 0.3747477419454632308 ) ) ;
#788 = ORIENTED_EDGE ( 'NONE', *, *, #81, .F. ) ;
#789 = CARTESIAN_POINT ( 'NONE',  ( 0.000000000000000000, -17.88000000000000256, 0.1000000000000000056 ) ) ;
#790 = LINE ( 'NONE', #18, #1138 ) ;
#791 = FACE_OUTER_BOUND ( 'NONE', #378, .T. ) ;
#792 = ORIENTED_EDGE ( 'NONE', *, *, #1006, .F. ) ;
#793 = CARTESIAN_POINT ( 'NONE',  ( 17.10999999999999943, -19.19999999999999929, 4.048405430711610187 ) ) ;
#794 = CARTESIAN_POINT ( 'NONE',  ( 14.79999999999999361, -17.88000000000000256, 1.800000000000000266 ) ) ;
#795 = EDGE_CURVE ( 'NONE', #165, #346, #930, .T. ) ;
#796 = DIRECTION ( 'NONE',  ( 1.883010557369666819E-16, -1.000000000000000000, 4.455400448008565065E-17 ) ) ;
#797 = EDGE_CURVE ( 'NONE', #963, #1105, #77, .T. ) ;
#798 = DIRECTION ( 'NONE',  ( 0.000000000000000000, 0.000000000000000000, 1.000000000000000000 ) ) ;
#799 = CARTESIAN_POINT ( 'NONE',  ( 15.00000000000000178, -17.88000000000000256, 2.299999999999999822 ) ) ;
#800 = AXIS2_PLACEMENT_3D ( 'NONE', #582, #279, #1071 ) ;
#801 = AXIS2_PLACEMENT_3D ( 'NONE', #148, #1174, #891 ) ;
#802 = LINE ( 'NONE', #1206, #319 ) ;
#803 = CARTESIAN_POINT ( 'NONE',  ( 15.00000000000000178, -1.319999999999998952, 2.299999999999999822 ) ) ;
#804 = ORIENTED_EDGE ( 'NONE', *, *, #665, .F. ) ;
#805 = LINE ( 'NONE', #1098, #1180 ) ;
#806 = PLANE ( 'NONE',  #686 ) ;
#807 = ORIENTED_EDGE ( 'NONE', *, *, #401, .F. ) ;
#808 = CARTESIAN_POINT ( 'NONE',  ( 0.000000000000000000, -2.329999999999987637, 0.000000000000000000 ) ) ;
#809 = ADVANCED_FACE ( 'NONE', ( #439 ), #459, .T. ) ;
#810 = EDGE_LOOP ( 'NONE', ( #1073, #749, #99, #995 ) ) ;
#811 = CARTESIAN_POINT ( 'NONE',  ( 16.09000000000000696, -1.219999999999998863, 5.019999999999997797 ) ) ;
#812 = DIRECTION ( 'NONE',  ( -1.380874408737758346E-15, 1.000000000000000000, 0.000000000000000000 ) ) ;
#813 = ORIENTED_EDGE ( 'NONE', *, *, #1147, .F. ) ;
#814 = CARTESIAN_POINT ( 'NONE',  ( 17.11000000000000298, -16.97000000000000242, 12.63499999999999979 ) ) ;
#815 = FACE_OUTER_BOUND ( 'NONE', #1215, .T. ) ;
#816 = ADVANCED_FACE ( 'NONE', ( #1129, #839 ), #834, .F. ) ;
#817 = VECTOR ( 'NONE', #1039, 100.0000000000000000 ) ;
#818 = DIRECTION ( 'NONE',  ( -0.000000000000000000, 1.000000000000000000, 0.000000000000000000 ) ) ;
#819 = DIRECTION ( 'NONE',  ( 0.000000000000000000, 1.000000000000000000, -0.000000000000000000 ) ) ;
#820 = PLANE ( 'NONE',  #935 ) ;
#821 = ORIENTED_EDGE ( 'NONE', *, *, #408, .T. ) ;
#822 = DIRECTION ( 'NONE',  ( -1.000000000000000000, 0.000000000000000000, 0.000000000000000000 ) ) ;
#823 = VERTEX_POINT ( 'NONE', #1226 ) ;
#824 = CARTESIAN_POINT ( 'NONE',  ( 18.09000000000000341, -2.229999999999987548, 4.280283707865168985 ) ) ;
#825 = DIRECTION ( 'NONE',  ( -0.9697314053328568439, -0.08351246796241922066, -0.2294486199696749995 ) ) ;
#826 = EDGE_CURVE ( 'NONE', #11, #59, #1021, .T. ) ;
#827 = EDGE_CURVE ( 'NONE', #189, #470, #1219, .T. ) ;
#828 = LINE ( 'NONE', #539, #179 ) ;
#829 = ORIENTED_EDGE ( 'NONE', *, *, #255, .F. ) ;
#830 = FACE_OUTER_BOUND ( 'NONE', #230, .T. ) ;
#831 = APPLICATION_PROTOCOL_DEFINITION ( 'draft international standard', 'automotive_design', 1998, #595 ) ;
#832 = AXIS2_PLACEMENT_3D ( 'NONE', #509, #418, #624 ) ;
#833 = VECTOR ( 'NONE', #1047, 100.0000000000000000 ) ;
#834 = PLANE ( 'NONE',  #981 ) ;
#835 = VERTEX_POINT ( 'NONE', #365 ) ;
#836 = CARTESIAN_POINT ( 'NONE',  ( 17.99000000000000554, -16.97000000000000242, 0.000000000000000000 ) ) ;
#837 = VERTEX_POINT ( 'NONE', #350 ) ;
#838 = CARTESIAN_POINT ( 'NONE',  ( 17.11000000000000298, -16.97000000000000242, 0.09999999999999734102 ) ) ;
#839 = FACE_OUTER_BOUND ( 'NONE', #1193, .T. ) ;
#840 = EDGE_LOOP ( 'NONE', ( #1220, #111, #19, #281 ) ) ;
#841 = PLANE ( 'NONE',  #1084 ) ;
#842 = EDGE_CURVE ( 'NONE', #926, #823, #750, .T. ) ;
#843 = ORIENTED_EDGE ( 'NONE', *, *, #258, .T. ) ;
#844 =( NAMED_UNIT ( * ) PLANE_ANGLE_UNIT ( ) SI_UNIT ( $, .RADIAN. ) );
#845 = PRODUCT_DEFINITION_SHAPE ( 'NONE', 'NONE',  #518 ) ;
#846 = CARTESIAN_POINT ( 'NONE',  ( 16.09000000000000341, -3.229999999999985771, 0.09999999999999731326 ) ) ;
#847 = ORIENTED_EDGE ( 'NONE', *, *, #728, .F. ) ;
#848 = CARTESIAN_POINT ( 'NONE',  ( 15.20000000000000462, -17.98000000000000043, 0.8000000000000000444 ) ) ;
#849 = EDGE_LOOP ( 'NONE', ( #675, #1222, #242, #140 ) ) ;
#850 = ORIENTED_EDGE ( 'NONE', *, *, #772, .F. ) ;
#851 = DIRECTION ( 'NONE',  ( 0.000000000000000000, -1.000000000000000000, 0.000000000000000000 ) ) ;
#852 = AXIS2_PLACEMENT_3D ( 'NONE', #1172, #884, #122 ) ;
#853 = LINE ( 'NONE', #787, #601 ) ;
#854 = AXIS2_PLACEMENT_3D ( 'NONE', #1089, #42, #526 ) ;
#855 = CARTESIAN_POINT ( 'NONE',  ( 16.09000000000001052, -17.98000000000000043, 12.63499999999999979 ) ) ;
#856 = VECTOR ( 'NONE', #1082, 100.0000000000000000 ) ;
#857 = VERTEX_POINT ( 'NONE', #1026 ) ;
#858 = DIRECTION ( 'NONE',  ( -1.000000000000000000, 0.000000000000000000, -0.000000000000000000 ) ) ;
#859 = ORIENTED_EDGE ( 'NONE', *, *, #684, .F. ) ;
#860 = EDGE_CURVE ( 'NONE', #1183, #1227, #64, .T. ) ;
#861 = CARTESIAN_POINT ( 'NONE',  ( 17.21000000000000441, -15.87000000000000277, 0.000000000000000000 ) ) ;
#862 = ORIENTED_EDGE ( 'NONE', *, *, #1218, .F. ) ;
#863 = LINE ( 'NONE', #16, #433 ) ;
#864 = ORIENTED_EDGE ( 'NONE', *, *, #1014, .T. ) ;
#865 = LINE ( 'NONE', #953, #997 ) ;
#866 = ORIENTED_EDGE ( 'NONE', *, *, #489, .T. ) ;
#867 = LINE ( 'NONE', #694, #50 ) ;
#868 = EDGE_LOOP ( 'NONE', ( #109, #271, #765, #245 ) ) ;
#869 = PRODUCT_RELATED_PRODUCT_CATEGORY ( 'part', '', ( #172 ) ) ;
#870 = CARTESIAN_POINT ( 'NONE',  ( 16.09000000000000341, -3.229999999999985771, 12.63499999999999979 ) ) ;
#871 = ORIENTED_EDGE ( 'NONE', *, *, #344, .F. ) ;
#872 = ORIENTED_EDGE ( 'NONE', *, *, #4, .F. ) ;
#873 = DIRECTION ( 'NONE',  ( 0.000000000000000000, -1.000000000000000000, 0.000000000000000000 ) ) ;
#874 = DIRECTION ( 'NONE',  ( 0.5773502691896310601, -0.5773502691896310601, -0.5773502691896150729 ) ) ;
#875 = DIRECTION ( 'NONE',  ( 0.000000000000000000, 0.000000000000000000, -1.000000000000000000 ) ) ;
#876 = EDGE_CURVE ( 'NONE', #761, #946, #733, .T. ) ;
#877 = VERTEX_POINT ( 'NONE', #637 ) ;
#878 = VECTOR ( 'NONE', #1122, 100.0000000000000000 ) ;
#879 = PLANE ( 'NONE',  #1118 ) ;
#880 = VECTOR ( 'NONE', #419, 100.0000000000000000 ) ;
#881 = LINE ( 'NONE', #886, #880 ) ;
#882 = PLANE ( 'NONE',  #68 ) ;
#883 = EDGE_CURVE ( 'NONE', #944, #837, #260, .T. ) ;
#884 = DIRECTION ( 'NONE',  ( 0.000000000000000000, 0.000000000000000000, -1.000000000000000000 ) ) ;
#885 = EDGE_CURVE ( 'NONE', #940, #302, #14, .T. ) ;
#886 = CARTESIAN_POINT ( 'NONE',  ( 15.50000000000000533, -1.319999999999998952, 1.800000000000000266 ) ) ;
#887 = LINE ( 'NONE', #46, #397 ) ;
#888 = ORIENTED_EDGE ( 'NONE', *, *, #684, .T. ) ;
#889 = FACE_OUTER_BOUND ( 'NONE', #716, .T. ) ;
#890 = EDGE_CURVE ( 'NONE', #761, #574, #290, .T. ) ;
#891 = DIRECTION ( 'NONE',  ( 1.000000000000000000, 0.000000000000000000, 0.000000000000000000 ) ) ;
#892 = DIRECTION ( 'NONE',  ( 1.000000000000000000, 0.000000000000000000, 0.000000000000000000 ) ) ;
#893 = ORIENTED_EDGE ( 'NONE', *, *, #1157, .T. ) ;
#894 = CARTESIAN_POINT ( 'NONE',  ( 15.00000000000000178, -17.98000000000000043, 2.299999999999999822 ) ) ;
#895 = VECTOR ( 'NONE', #55, 100.0000000000000000 ) ;
#896 = VECTOR ( 'NONE', #985, 100.0000000000000000 ) ;
#897 = EDGE_CURVE ( 'NONE', #734, #186, #853, .T. ) ;
#898 = CARTESIAN_POINT ( 'NONE',  ( 11.47333333333322791, 3.406666666666785304, 5.736666666666613956 ) ) ;
#899 = CARTESIAN_POINT ( 'NONE',  ( 15.20000000000000462, -17.98000000000000043, 0.8000000000000000444 ) ) ;
#900 = ORIENTED_EDGE ( 'NONE', *, *, #632, .T. ) ;
#901 = DIRECTION ( 'NONE',  ( 1.000000000000000000, 0.000000000000000000, 0.000000000000000000 ) ) ;
#902 = FACE_OUTER_BOUND ( 'NONE', #360, .T. ) ;
#903 = VERTEX_POINT ( 'NONE', #182 ) ;
#904 = DIRECTION ( 'NONE',  ( 0.000000000000000000, 1.000000000000000000, -0.000000000000000000 ) ) ;
#905 = EDGE_CURVE ( 'NONE', #144, #368, #98, .T. ) ;
#906 = PLANE ( 'NONE',  #832 ) ;
#907 = CARTESIAN_POINT ( 'NONE',  ( 17.21000000000000085, -2.329999999999987637, 0.000000000000000000 ) ) ;
#908 = ORIENTED_EDGE ( 'NONE', *, *, #937, .T. ) ;
#909 = CARTESIAN_POINT ( 'NONE',  ( 14.79999999999999361, -1.219999999999998863, 0.8000000000000000444 ) ) ;
#910 = ORIENTED_EDGE ( 'NONE', *, *, #578, .T. ) ;
#911 = CARTESIAN_POINT ( 'NONE',  ( 17.10999999999999943, -2.229999999999987548, 0.09999999999999731326 ) ) ;
#912 = VERTEX_POINT ( 'NONE', #495 ) ;
#913 = VECTOR ( 'NONE', #1177, 100.0000000000000000 ) ;
#914 = VECTOR ( 'NONE', #138, 100.0000000000000000 ) ;
#915 = LINE ( 'NONE', #451, #984 ) ;
#916 =( GEOMETRIC_REPRESENTATION_CONTEXT ( 3 ) GLOBAL_UNCERTAINTY_ASSIGNED_CONTEXT ( ( #1114 ) ) GLOBAL_UNIT_ASSIGNED_CONTEXT ( ( #458, #721, #438 ) ) REPRESENTATION_CONTEXT ( 'NONE', 'WORKASPACE' ) );
#917 = CARTESIAN_POINT ( 'NONE',  ( 14.49999999999999289, -1.219999999999998863, 1.800000000000000266 ) ) ;
#918 = EDGE_LOOP ( 'NONE', ( #524, #623, #760, #726 ) ) ;
#919 = DIRECTION ( 'NONE',  ( 0.000000000000000000, 1.000000000000000000, -0.000000000000000000 ) ) ;
#920 = VERTEX_POINT ( 'NONE', #846 ) ;
#921 = EDGE_CURVE ( 'NONE', #1049, #781, #469, .T. ) ;
#922 = SURFACE_STYLE_FILL_AREA ( #468 ) ;
#923 = EDGE_CURVE ( 'NONE', #644, #736, #867, .T. ) ;
#924 = DIRECTION ( 'NONE',  ( 0.000000000000000000, -1.000000000000000000, 0.000000000000000000 ) ) ;
#925 = DIRECTION ( 'NONE',  ( -0.5773502691896321704, -0.5773502691896303940, -0.5773502691896146288 ) ) ;
#926 = VERTEX_POINT ( 'NONE', #861 ) ;
#927 = DIRECTION ( 'NONE',  ( -0.7071067811865539010, -0.000000000000000000, -0.7071067811865411334 ) ) ;
#928 = PLANE ( 'NONE',  #332 ) ;
#929 = ADVANCED_FACE ( 'NONE', ( #557 ), #188, .T. ) ;
#930 = LINE ( 'NONE', #643, #1203 ) ;
#931 = VERTEX_POINT ( 'NONE', #482 ) ;
#932 = DIRECTION ( 'NONE',  ( -0.7071067811865411334, 0.000000000000000000, 0.7071067811865539010 ) ) ;
#933 = PLANE ( 'NONE',  #616 ) ;
#934 = CARTESIAN_POINT ( 'NONE',  ( 18.09000000000000696, -16.97000000000000242, 12.63499999999999979 ) ) ;
#935 = AXIS2_PLACEMENT_3D ( 'NONE', #1003, #991, #133 ) ;
#936 = AXIS2_PLACEMENT_3D ( 'NONE', #262, #1013, #746 ) ;
#937 = EDGE_CURVE ( 'NONE', #701, #17, #1169, .T. ) ;
#938 = CARTESIAN_POINT ( 'NONE',  ( 15.98999999999999311, -1.319999999999998952, -1.234501721411557578E-14 ) ) ;
#939 = VECTOR ( 'NONE', #310, 100.0000000000000000 ) ;
#940 = VERTEX_POINT ( 'NONE', #91 ) ;
#941 = LINE ( 'NONE', #184, #1017 ) ;
#942 = PRESENTATION_STYLE_ASSIGNMENT (( #97 ) ) ;
#943 = DIRECTION ( 'NONE',  ( 0.000000000000000000, 1.000000000000000000, -0.000000000000000000 ) ) ;
#944 = VERTEX_POINT ( 'NONE', #764 ) ;
#945 = PLANE ( 'NONE',  #936 ) ;
#946 = VERTEX_POINT ( 'NONE', #462 ) ;
#947 = DIRECTION ( 'NONE',  ( 0.000000000000000000, 1.000000000000000000, 0.000000000000000000 ) ) ;
#948 = CARTESIAN_POINT ( 'NONE',  ( 0.000000000000000000, -1.319999999999998952, 0.1000000000000000056 ) ) ;
#949 = ORIENTED_EDGE ( 'NONE', *, *, #1001, .T. ) ;
#950 = PLANE ( 'NONE',  #1063 ) ;
#951 = VERTEX_POINT ( 'NONE', #687 ) ;
#952 = EDGE_CURVE ( 'NONE', #1049, #239, #1051, .T. ) ;
#953 = CARTESIAN_POINT ( 'NONE',  ( 0.000000000000000000, -1.219999999999998863, 0.000000000000000000 ) ) ;
#954 = AXIS2_PLACEMENT_3D ( 'NONE', #264, #646, #1146 ) ;
#955 = CARTESIAN_POINT ( 'NONE',  ( 16.09000000000000696, -1.219999999999987761, 3.807062734082397704 ) ) ;
#956 = VECTOR ( 'NONE', #536, 100.0000000000000000 ) ;
#957 = DIRECTION ( 'NONE',  ( -0.5773502691896326144, -0.5773502691896302830, -0.5773502691896144068 ) ) ;
#958 = PRODUCT_DEFINITION_FORMATION_WITH_SPECIFIED_SOURCE ( 'ANY', '', #172, .NOT_KNOWN. ) ;
#959 = ORIENTED_EDGE ( 'NONE', *, *, #611, .F. ) ;
#960 = EDGE_LOOP ( 'NONE', ( #1152, #285, #1166, #380 ) ) ;
#961 = CARTESIAN_POINT ( 'NONE',  ( 15.20000000000000462, -17.88000000000000256, 0.8000000000000000444 ) ) ;
#962 = EDGE_CURVE ( 'NONE', #837, #659, #756, .T. ) ;
#963 = VERTEX_POINT ( 'NONE', #7 ) ;
#964 = EDGE_CURVE ( 'NONE', #34, #373, #770, .T. ) ;
#965 = DIRECTION ( 'NONE',  ( 0.000000000000000000, 0.000000000000000000, -1.000000000000000000 ) ) ;
#966 = EDGE_LOOP ( 'NONE', ( #695, #215, #250, #338 ) ) ;
#967 = LINE ( 'NONE', #115, #1120 ) ;
#968 = VERTEX_POINT ( 'NONE', #955 ) ;
#969 = ORIENTED_EDGE ( 'NONE', *, *, #964, .F. ) ;
#970 = DIRECTION ( 'NONE',  ( 0.000000000000000000, 0.7071067811865376918, -0.7071067811865573427 ) ) ;
#971 = DIRECTION ( 'NONE',  ( 1.000000000000000000, 0.000000000000000000, 0.000000000000000000 ) ) ;
#972 = DIRECTION ( 'NONE',  ( 0.7071067811865371366, -9.764256583854190235E-16, -0.7071067811865578978 ) ) ;
#973 = VERTEX_POINT ( 'NONE', #564 ) ;
#974 = ORIENTED_EDGE ( 'NONE', *, *, #860, .F. ) ;
#975 = LINE ( 'NONE', #768, #157 ) ;
#976 = CARTESIAN_POINT ( 'NONE',  ( 16.09000000000000696, -1.319999999999999174, 0.09999999999999731326 ) ) ;
#977 = EDGE_CURVE ( 'NONE', #973, #1130, #1045, .T. ) ;
#978 = ORIENTED_EDGE ( 'NONE', *, *, #1147, .T. ) ;
#979 = LINE ( 'NONE', #855, #833 ) ;
#980 = VECTOR ( 'NONE', #697, 100.0000000000000000 ) ;
#981 = AXIS2_PLACEMENT_3D ( 'NONE', #1010, #1233, #71 ) ;
#982 = CARTESIAN_POINT ( 'NONE',  ( 16.09000000000000696, -1.219999999999987761, 12.63499999999999979 ) ) ;
#983 = APPLICATION_CONTEXT ( 'automotive_design' ) ;
#984 = VECTOR ( 'NONE', #642, 100.0000000000000142 ) ;
#985 = DIRECTION ( 'NONE',  ( -1.000000000000000000, -0.000000000000000000, 0.000000000000000000 ) ) ;
#986 = LINE ( 'NONE', #700, #856 ) ;
#987 = CARTESIAN_POINT ( 'NONE',  ( 14.79999999999999361, -17.98000000000000043, 1.800000000000000266 ) ) ;
#988 = DIRECTION ( 'NONE',  ( -1.000000000000000000, 0.000000000000000000, 0.000000000000000000 ) ) ;
#989 = DIRECTION ( 'NONE',  ( 0.000000000000000000, 0.7071067811865376918, -0.7071067811865573427 ) ) ;
#990 = ORIENTED_EDGE ( 'NONE', *, *, #1058, .F. ) ;
#991 = DIRECTION ( 'NONE',  ( 0.000000000000000000, 0.000000000000000000, -1.000000000000000000 ) ) ;
#992 = EDGE_CURVE ( 'NONE', #17, #480, #670, .T. ) ;
#993 = FACE_BOUND ( 'NONE', #404, .T. ) ;
#994 = DIRECTION ( 'NONE',  ( 0.000000000000000000, 1.000000000000000000, 0.000000000000000000 ) ) ;
#995 = ORIENTED_EDGE ( 'NONE', *, *, #530, .T. ) ;
#996 = LINE ( 'NONE', #325, #472 ) ;
#997 = VECTOR ( 'NONE', #128, 100.0000000000000142 ) ;
#998 = VECTOR ( 'NONE', #892, 100.0000000000000000 ) ;
#999 = AXIS2_PLACEMENT_3D ( 'NONE', #58, #403, #812 ) ;
#1000 = CARTESIAN_POINT ( 'NONE',  ( 14.79999999999999361, -1.319999999999998952, 0.8000000000000000444 ) ) ;
#1001 = EDGE_CURVE ( 'NONE', #1162, #291, #678, .T. ) ;
#1002 = FACE_OUTER_BOUND ( 'NONE', #591, .T. ) ;
#1003 = CARTESIAN_POINT ( 'NONE',  ( 15.20000000000000462, -1.319999999999998952, 0.8000000000000000444 ) ) ;
#1004 = LINE ( 'NONE', #538, #180 ) ;
#1005 = ORIENTED_EDGE ( 'NONE', *, *, #228, .T. ) ;
#1006 = EDGE_CURVE ( 'NONE', #373, #644, #113, .T. ) ;
#1007 = FACE_OUTER_BOUND ( 'NONE', #1055, .T. ) ;
#1008 = DIRECTION ( 'NONE',  ( 0.000000000000000000, -1.000000000000000000, 0.000000000000000000 ) ) ;
#1009 = CARTESIAN_POINT ( 'NONE',  ( 15.50000000000000533, -17.98000000000000043, 1.800000000000000266 ) ) ;
#1010 = CARTESIAN_POINT ( 'NONE',  ( 0.000000000000000000, -1.219999999999998863, 5.019999999999997797 ) ) ;
#1011 = EDGE_LOOP ( 'NONE', ( #682, #1213, #493, #568, #386, #1024, #102, #864, #541, #24, #167, #195, #681, #213, #328, #969 ) ) ;
#1012 = EDGE_CURVE ( 'NONE', #40, #659, #298, .T. ) ;
#1013 = DIRECTION ( 'NONE',  ( -1.000000000000000000, 0.000000000000000000, 0.000000000000000000 ) ) ;
#1014 = EDGE_CURVE ( 'NONE', #734, #107, #710, .T. ) ;
#1015 = ORIENTED_EDGE ( 'NONE', *, *, #429, .T. ) ;
#1016 = VECTOR ( 'NONE', #247, 100.0000000000000000 ) ;
#1017 = VECTOR ( 'NONE', #1117, 100.0000000000000000 ) ;
#1018 = VECTOR ( 'NONE', #875, 100.0000000000000000 ) ;
#1019 = CARTESIAN_POINT ( 'NONE',  ( 0.000000000000000000, 0.000000000000000000, 0.000000000000000000 ) ) ;
#1020 = VECTOR ( 'NONE', #1212, 100.0000000000000000 ) ;
#1021 = LINE ( 'NONE', #917, #1020 ) ;
#1022 = ORIENTED_EDGE ( 'NONE', *, *, #826, .F. ) ;
#1023 = CARTESIAN_POINT ( 'NONE',  ( 14.49999999999999289, -17.88000000000000256, 1.800000000000000266 ) ) ;
#1024 = ORIENTED_EDGE ( 'NONE', *, *, #22, .T. ) ;
#1025 = CARTESIAN_POINT ( 'NONE',  ( 18.09000000000000341, -2.229999999999987548, 0.09999999999999731326 ) ) ;
#1026 = CARTESIAN_POINT ( 'NONE',  ( 15.50000000000000533, -1.219999999999998863, 1.800000000000000266 ) ) ;
#1027 = ORIENTED_EDGE ( 'NONE', *, *, #827, .F. ) ;
#1028 = CARTESIAN_POINT ( 'NONE',  ( 14.79999999999999361, -17.98000000000000043, 0.8000000000000000444 ) ) ;
#1029 = CARTESIAN_POINT ( 'NONE',  ( 0.000000000000000000, -17.88000000000000256, 0.000000000000000000 ) ) ;
#1030 = EDGE_CURVE ( 'NONE', #944, #1105, #1188, .T. ) ;
#1031 = DIRECTION ( 'NONE',  ( 0.000000000000000000, -1.000000000000000000, 0.000000000000000000 ) ) ;
#1032 = CARTESIAN_POINT ( 'NONE',  ( 15.99000000000000377, -3.329999999999985860, 0.000000000000000000 ) ) ;
#1033 = EDGE_LOOP ( 'NONE', ( #259, #910, #562, #116, #1092, #1208, #485 ) ) ;
#1034 = LINE ( 'NONE', #1023, #413 ) ;
#1035 = DIRECTION ( 'NONE',  ( -1.000000000000000000, 0.000000000000000000, 0.000000000000000000 ) ) ;
#1036 = COLOUR_RGB ( '',0.7921568627450980005, 0.8196078431372548767, 0.9333333333333333481 ) ;
#1037 = VECTOR ( 'NONE', #822, 100.0000000000000000 ) ;
#1038 = EDGE_CURVE ( 'NONE', #291, #1184, #229, .T. ) ;
#1039 = DIRECTION ( 'NONE',  ( 0.7071067811865500152, 0.000000000000000000, -0.7071067811865450192 ) ) ;
#1040 = VECTOR ( 'NONE', #322, 100.0000000000000142 ) ;
#1041 = DIRECTION ( 'NONE',  ( -1.883010557369666819E-16, 1.000000000000000000, 0.000000000000000000 ) ) ;
#1042 = ORIENTED_EDGE ( 'NONE', *, *, #132, .T. ) ;
#1043 = ORIENTED_EDGE ( 'NONE', *, *, #436, .T. ) ;
#1044 = CARTESIAN_POINT ( 'NONE',  ( 14.49999999999999289, -1.219999999999998863, 1.800000000000000266 ) ) ;
#1045 = LINE ( 'NONE', #1154, #335 ) ;
#1046 = ORIENTED_EDGE ( 'NONE', *, *, #1167, .F. ) ;
#1047 = DIRECTION ( 'NONE',  ( 0.000000000000000000, 0.000000000000000000, -1.000000000000000000 ) ) ;
#1048 = EDGE_LOOP ( 'NONE', ( #807, #627, #769, #1005 ) ) ;
#1049 = VERTEX_POINT ( 'NONE', #1000 ) ;
#1050 = LINE ( 'NONE', #25, #396 ) ;
#1051 = LINE ( 'NONE', #1148, #1165 ) ;
#1052 = ORIENTED_EDGE ( 'NONE', *, *, #414, .F. ) ;
#1053 = DIRECTION ( 'NONE',  ( 0.9731308116794299412, 0.000000000000000000, 0.2302529551604793612 ) ) ;
#1054 = EDGE_CURVE ( 'NONE', #454, #701, #881, .T. ) ;
#1055 = EDGE_LOOP ( 'NONE', ( #949, #888, #792, #1136 ) ) ;
#1056 = ORIENTED_EDGE ( 'NONE', *, *, #876, .F. ) ;
#1057 = FACE_OUTER_BOUND ( 'NONE', #918, .T. ) ;
#1058 = EDGE_CURVE ( 'NONE', #368, #574, #326, .T. ) ;
#1059 = ORIENTED_EDGE ( 'NONE', *, *, #1157, .F. ) ;
#1060 = STYLED_ITEM ( 'NONE', ( #942 ), #49 ) ;
#1061 = CARTESIAN_POINT ( 'NONE',  ( 16.43333333333332291, -17.64666666666668249, 0.7766666666666590668 ) ) ;
#1062 = EDGE_LOOP ( 'NONE', ( #783, #688, #747, #307 ) ) ;
#1063 = AXIS2_PLACEMENT_3D ( 'NONE', #789, #672, #572 ) ;
#1064 = DIRECTION ( 'NONE',  ( -0.9731308116794299412, -0.000000000000000000, -0.2302529551604793612 ) ) ;
#1065 = VECTOR ( 'NONE', #819, 100.0000000000000000 ) ;
#1066 = ORIENTED_EDGE ( 'NONE', *, *, #1173, .F. ) ;
#1067 = DIRECTION ( 'NONE',  ( -1.000000000000000000, 0.000000000000000000, 0.000000000000000000 ) ) ;
#1068 = ADVANCED_FACE ( 'NONE', ( #791 ), #806, .T. ) ;
#1069 = CARTESIAN_POINT ( 'NONE',  ( 0.000000000000000000, -1.219999999999998863, 0.3747477419454632308 ) ) ;
#1070 = ORIENTED_EDGE ( 'NONE', *, *, #1204, .T. ) ;
#1071 = DIRECTION ( 'NONE',  ( -1.883010557369666819E-16, 1.000000000000000000, 0.000000000000000000 ) ) ;
#1072 = EDGE_LOOP ( 'NONE', ( #584, #474, #1234, #394 ) ) ;
#1073 = ORIENTED_EDGE ( 'NONE', *, *, #826, .T. ) ;
#1074 = CARTESIAN_POINT ( 'NONE',  ( 16.09000000000001052, -17.88000000000000256, 0.1000000000000000056 ) ) ;
#1075 = ADVANCED_FACE ( 'NONE', ( #612, #993 ), #1194, .F. ) ;
#1076 = DIRECTION ( 'NONE',  ( 0.5773502691896310601, -0.5773502691896310601, -0.5773502691896150729 ) ) ;
#1077 = VERTEX_POINT ( 'NONE', #1095 ) ;
#1078 = CARTESIAN_POINT ( 'NONE',  ( 0.000000000000000000, -15.87000000000000277, 0.000000000000000000 ) ) ;
#1079 = LINE ( 'NONE', #295, #599 ) ;
#1080 = DIRECTION ( 'NONE',  ( 1.380874408737758346E-15, 1.000000000000000000, 0.000000000000000000 ) ) ;
#1081 = EDGE_CURVE ( 'NONE', #320, #498, #517, .T. ) ;
#1082 = DIRECTION ( 'NONE',  ( 0.000000000000000000, -1.000000000000000000, 0.000000000000000000 ) ) ;
#1083 = ORIENTED_EDGE ( 'NONE', *, *, #617, .F. ) ;
#1084 = AXIS2_PLACEMENT_3D ( 'NONE', #1124, #932, #927 ) ;
#1085 = CARTESIAN_POINT ( 'NONE',  ( 14.79999999999999361, -17.88000000000000256, 0.8000000000000000444 ) ) ;
#1086 = LINE ( 'NONE', #225, #501 ) ;
#1087 = CARTESIAN_POINT ( 'NONE',  ( 0.4226355362089435075, -17.88000000000000256, 0.1000000000000000056 ) ) ;
#1088 = EDGE_CURVE ( 'NONE', #59, #470, #234, .T. ) ;
#1089 = CARTESIAN_POINT ( 'NONE',  ( 16.09000000000000696, -15.97000000000000419, 12.63499999999999979 ) ) ;
#1090 = CARTESIAN_POINT ( 'NONE',  ( 15.00000000000000178, -17.88000000000000256, 2.299999999999999822 ) ) ;
#1091 = CARTESIAN_POINT ( 'NONE',  ( 15.20000000000000462, -1.319999999999998952, 1.800000000000000266 ) ) ;
#1092 = ORIENTED_EDGE ( 'NONE', *, *, #1150, .T. ) ;
#1093 = ADVANCED_FACE ( 'NONE', ( #39 ), #619, .F. ) ;
#1094 = CARTESIAN_POINT ( 'NONE',  ( 17.11000000000000654, -15.97000000000000419, 4.048405430711612851 ) ) ;
#1095 = CARTESIAN_POINT ( 'NONE',  ( 18.09000000000001052, -16.97000000000000242, 4.280283707865171650 ) ) ;
#1096 = DIRECTION ( 'NONE',  ( 0.000000000000000000, -1.000000000000000000, 0.000000000000000000 ) ) ;
#1097 = ORIENTED_EDGE ( 'NONE', *, *, #897, .T. ) ;
#1098 = CARTESIAN_POINT ( 'NONE',  ( 10.65999999999997350, -10.53999999999991921, -5.329999999999937010 ) ) ;
#1099 = AXIS2_PLACEMENT_3D ( 'NONE', #592, #110, #1159 ) ;
#1100 = AXIS2_PLACEMENT_3D ( 'NONE', #339, #253, #453 ) ;
#1101 = VECTOR ( 'NONE', #738, 100.0000000000000000 ) ;
#1102 = ADVANCED_FACE ( 'NONE', ( #902 ), #705, .T. ) ;
#1103 = DIRECTION ( 'NONE',  ( 1.380874408737758346E-15, -1.000000000000000000, 0.000000000000000000 ) ) ;
#1104 = ORIENTED_EDGE ( 'NONE', *, *, #1167, .T. ) ;
#1105 = VERTEX_POINT ( 'NONE', #607 ) ;
#1106 = DIRECTION ( 'NONE',  ( -1.000000000000000000, 0.000000000000000000, 0.000000000000000000 ) ) ;
#1107 = DIRECTION ( 'NONE',  ( 0.7071067811865539010, 0.000000000000000000, 0.7071067811865411334 ) ) ;
#1108 = EDGE_CURVE ( 'NONE', #912, #320, #44, .T. ) ;
#1109 = LINE ( 'NONE', #934, #762 ) ;
#1110 = CARTESIAN_POINT ( 'NONE',  ( 15.99000000000001265, -19.19999999999997797, 0.000000000000000000 ) ) ;
#1111 = ORIENTED_EDGE ( 'NONE', *, *, #1211, .T. ) ;
#1112 = CARTESIAN_POINT ( 'NONE',  ( 15.20000000000000462, -1.319999999999998952, 0.8000000000000000444 ) ) ;
#1113 = PRODUCT_CONTEXT ( 'NONE', #983, 'mechanical' ) ;
#1114 = UNCERTAINTY_MEASURE_WITH_UNIT (LENGTH_MEASURE( 1.000000000000000082E-05 ), #458, 'distance_accuracy_value', 'NONE');
#1115 = CARTESIAN_POINT ( 'NONE',  ( 15.00000000000000178, -17.88000000000000256, 2.299999999999999822 ) ) ;
#1116 = ORIENTED_EDGE ( 'NONE', *, *, #718, .T. ) ;
#1117 = DIRECTION ( 'NONE',  ( -1.000000000000000000, 0.000000000000000000, 0.000000000000000000 ) ) ;
#1118 = AXIS2_PLACEMENT_3D ( 'NONE', #103, #12, #308 ) ;
#1119 = LINE ( 'NONE', #1025, #1160 ) ;
#1120 = VECTOR ( 'NONE', #484, 100.0000000000000000 ) ;
#1121 = VECTOR ( 'NONE', #304, 100.0000000000000000 ) ;
#1122 = DIRECTION ( 'NONE',  ( 0.000000000000000000, 1.000000000000000000, -0.000000000000000000 ) ) ;
#1123 = ORIENTED_EDGE ( 'NONE', *, *, #632, .F. ) ;
#1124 = CARTESIAN_POINT ( 'NONE',  ( 15.00000000000000178, -1.319999999999998952, 2.299999999999999822 ) ) ;
#1125 = EDGE_CURVE ( 'NONE', #449, #1077, #409, .T. ) ;
#1126 = EDGE_LOOP ( 'NONE', ( #1190, #417, #197, #488 ) ) ;
#1127 = CARTESIAN_POINT ( 'NONE',  ( 15.99000000000000732, -1.319999999999998952, 0.000000000000000000 ) ) ;
#1128 = DIRECTION ( 'NONE',  ( -1.000000000000000000, 0.000000000000000000, 0.000000000000000000 ) ) ;
#1129 = FACE_BOUND ( 'NONE', #579, .T. ) ;
#1130 = VERTEX_POINT ( 'NONE', #1179 ) ;
#1131 = DIRECTION ( 'NONE',  ( 0.000000000000000000, 0.000000000000000000, -1.000000000000000000 ) ) ;
#1132 = FACE_OUTER_BOUND ( 'NONE', #655, .T. ) ;
#1133 = CARTESIAN_POINT ( 'NONE',  ( 16.09000000000000696, -15.87000000000000277, 0.000000000000000000 ) ) ;
#1134 = CARTESIAN_POINT ( 'NONE',  ( 0.000000000000000000, -1.319999999999998952, 0.000000000000000000 ) ) ;
#1135 = EDGE_LOOP ( 'NONE', ( #561, #1143, #862, #301 ) ) ;
#1136 = ORIENTED_EDGE ( 'NONE', *, *, #662, .T. ) ;
#1137 = FACE_OUTER_BOUND ( 'NONE', #868, .T. ) ;
#1138 = VECTOR ( 'NONE', #313, 100.0000000000000000 ) ;
#1139 = ADVANCED_FACE ( 'NONE', ( #425 ), #1199, .T. ) ;
#1140 = VECTOR ( 'NONE', #613, 100.0000000000000000 ) ;
#1141 = DIRECTION ( 'NONE',  ( 0.5773502691896310601, 0.5773502691896310601, -0.5773502691896150729 ) ) ;
#1142 = VECTOR ( 'NONE', #1128, 100.0000000000000000 ) ;
#1143 = ORIENTED_EDGE ( 'NONE', *, *, #255, .T. ) ;
#1144 = CARTESIAN_POINT ( 'NONE',  ( 15.00000000000000178, -1.319999999999998952, 2.299999999999999822 ) ) ;
#1145 = ORIENTED_EDGE ( 'NONE', *, *, #1229, .F. ) ;
#1146 = DIRECTION ( 'NONE',  ( 0.000000000000000000, -0.3420201433256678802, -0.9396926207859087610 ) ) ;
#1147 = EDGE_CURVE ( 'NONE', #920, #837, #316, .T. ) ;
#1148 = CARTESIAN_POINT ( 'NONE',  ( 14.79999999999999361, -1.319999999999998952, 1.800000000000000266 ) ) ;
#1149 = ORIENTED_EDGE ( 'NONE', *, *, #88, .F. ) ;
#1150 = EDGE_CURVE ( 'NONE', #486, #1049, #1086, .T. ) ;
#1151 = DIRECTION ( 'NONE',  ( 0.000000000000000000, 1.000000000000000000, 0.000000000000000000 ) ) ;
#1152 = ORIENTED_EDGE ( 'NONE', *, *, #309, .T. ) ;
#1153 = LINE ( 'NONE', #776, #980 ) ;
#1154 = CARTESIAN_POINT ( 'NONE',  ( 15.20000000000000462, -17.88000000000000256, 1.800000000000000266 ) ) ;
#1155 = EDGE_LOOP ( 'NONE', ( #1070, #1104, #804, #65 ) ) ;
#1156 = DIRECTION ( 'NONE',  ( 0.7071067811865539010, 0.000000000000000000, 0.7071067811865411334 ) ) ;
#1157 = EDGE_CURVE ( 'NONE', #470, #857, #802, .T. ) ;
#1158 = ORIENTED_EDGE ( 'NONE', *, *, #293, .T. ) ;
#1159 = DIRECTION ( 'NONE',  ( 0.000000000000000000, -1.000000000000000000, 0.000000000000000000 ) ) ;
#1160 = VECTOR ( 'NONE', #744, 100.0000000000000000 ) ;
#1161 = DIRECTION ( 'NONE',  ( 0.000000000000000000, -1.000000000000000000, 0.000000000000000000 ) ) ;
#1162 = VERTEX_POINT ( 'NONE', #430 ) ;
#1163 = AXIS2_PLACEMENT_3D ( 'NONE', #645, #89, #460 ) ;
#1164 = PLANE ( 'NONE',  #317 ) ;
#1165 = VECTOR ( 'NONE', #1238, 100.0000000000000000 ) ;
#1166 = ORIENTED_EDGE ( 'NONE', *, *, #1150, .F. ) ;
#1167 = EDGE_CURVE ( 'NONE', #835, #137, #527, .T. ) ;
#1168 = CARTESIAN_POINT ( 'NONE',  ( 0.000000000000000000, -2.229999999999987548, 0.000000000000000000 ) ) ;
#1169 = LINE ( 'NONE', #399, #479 ) ;
#1170 = ORIENTED_EDGE ( 'NONE', *, *, #1081, .T. ) ;
#1171 = CARTESIAN_POINT ( 'NONE',  ( 15.98999999999998245, -19.20000000000002416, 0.000000000000000000 ) ) ;
#1172 = CARTESIAN_POINT ( 'NONE',  ( 15.50000000000000533, -1.319999999999998952, 1.800000000000000266 ) ) ;
#1173 = EDGE_CURVE ( 'NONE', #823, #835, #1004, .T. ) ;
#1174 = DIRECTION ( 'NONE',  ( 0.000000000000000000, -1.000000000000000000, 0.000000000000000000 ) ) ;
#1175 = EDGE_LOOP ( 'NONE', ( #583, #1027, #1083, #778 ) ) ;
#1176 = DIRECTION ( 'NONE',  ( 0.000000000000000000, 1.000000000000000000, 0.000000000000000000 ) ) ;
#1177 = DIRECTION ( 'NONE',  ( 0.000000000000000000, 0.000000000000000000, 1.000000000000000000 ) ) ;
#1178 = EDGE_CURVE ( 'NONE', #498, #926, #915, .T. ) ;
#1179 = CARTESIAN_POINT ( 'NONE',  ( 15.20000000000000462, -17.98000000000000043, 1.800000000000000266 ) ) ;
#1180 = VECTOR ( 'NONE', #241, 100.0000000000000142 ) ;
#1181 = LINE ( 'NONE', #136, #200 ) ;
#1182 = VECTOR ( 'NONE', #565, 100.0000000000000000 ) ;
#1183 = VERTEX_POINT ( 'NONE', #265 ) ;
#1184 = VERTEX_POINT ( 'NONE', #907 ) ;
#1185 = VECTOR ( 'NONE', #33, 100.0000000000000000 ) ;
#1186 = LINE ( 'NONE', #435, #914 ) ;
#1187 = VECTOR ( 'NONE', #270, 100.0000000000000000 ) ;
#1188 = LINE ( 'NONE', #502, #1040 ) ;
#1189 = CARTESIAN_POINT ( 'NONE',  ( 15.20000000000000462, -17.88000000000000256, 0.8000000000000000444 ) ) ;
#1190 = ORIENTED_EDGE ( 'NONE', *, *, #1218, .T. ) ;
#1191 = ADVANCED_FACE ( 'NONE', ( #343 ), #63, .F. ) ;
#1192 = LINE ( 'NONE', #987, #1016 ) ;
#1193 = EDGE_LOOP ( 'NONE', ( #558, #101, #442 ) ) ;
#1194 = PLANE ( 'NONE',  #222 ) ;
#1195 = ORIENTED_EDGE ( 'NONE', *, *, #61, .F. ) ;
#1196 = LINE ( 'NONE', #724, #759 ) ;
#1197 = ORIENTED_EDGE ( 'NONE', *, *, #228, .F. ) ;
#1198 = LINE ( 'NONE', #894, #160 ) ;
#1199 = PLANE ( 'NONE',  #535 ) ;
#1200 = ORIENTED_EDGE ( 'NONE', *, *, #514, .F. ) ;
#1201 = LINE ( 'NONE', #814, #895 ) ;
#1202 = FACE_OUTER_BOUND ( 'NONE', #960, .T. ) ;
#1203 = VECTOR ( 'NONE', #82, 100.0000000000000000 ) ;
#1204 = EDGE_CURVE ( 'NONE', #963, #835, #337, .T. ) ;
#1205 = VECTOR ( 'NONE', #511, 100.0000000000000000 ) ;
#1206 = CARTESIAN_POINT ( 'NONE',  ( 15.00000000000000178, -1.219999999999998863, 2.299999999999999822 ) ) ;
#1207 = CARTESIAN_POINT ( 'NONE',  ( 0.000000000000000000, -19.19999999999999929, 0.000000000000000000 ) ) ;
#1208 = ORIENTED_EDGE ( 'NONE', *, *, #952, .T. ) ;
#1209 = DIRECTION ( 'NONE',  ( -0.7071067811865376918, -0.000000000000000000, -0.7071067811865573427 ) ) ;
#1210 = APPLICATION_PROTOCOL_DEFINITION ( 'draft international standard', 'automotive_design', 1998, #983 ) ;
#1211 = EDGE_CURVE ( 'NONE', #903, #302, #549, .T. ) ;
#1212 = DIRECTION ( 'NONE',  ( -1.000000000000000000, 0.000000000000000000, -0.000000000000000000 ) ) ;
#1213 = ORIENTED_EDGE ( 'NONE', *, *, #169, .T. ) ;
#1214 = FACE_OUTER_BOUND ( 'NONE', #1062, .T. ) ;
#1215 = EDGE_LOOP ( 'NONE', ( #36, #1052, #447, #859 ) ) ;
#1216 = ORIENTED_EDGE ( 'NONE', *, *, #1108, .T. ) ;
#1217 = DIRECTION ( 'NONE',  ( 1.000000000000000000, 0.000000000000000000, 0.000000000000000000 ) ) ;
#1218 = EDGE_CURVE ( 'NONE', #1077, #594, #1109, .T. ) ;
#1219 = LINE ( 'NONE', #446, #1065 ) ;
#1220 = ORIENTED_EDGE ( 'NONE', *, *, #883, .T. ) ;
#1221 = PLANE ( 'NONE',  #1163 ) ;
#1222 = ORIENTED_EDGE ( 'NONE', *, *, #467, .T. ) ;
#1223 = DIRECTION ( 'NONE',  ( 1.380874408737758346E-15, -1.000000000000000000, 3.267293661872954206E-16 ) ) ;
#1224 = AXIS2_PLACEMENT_3D ( 'NONE', #1171, #972, #100 ) ;
#1225 = AXIS2_PLACEMENT_3D ( 'NONE', #26, #1161, #370 ) ;
#1226 = CARTESIAN_POINT ( 'NONE',  ( 15.99000000000000732, -15.87000000000000277, 0.000000000000000000 ) ) ;
#1227 = VERTEX_POINT ( 'NONE', #1009 ) ;
#1228 = FACE_OUTER_BOUND ( 'NONE', #114, .T. ) ;
#1229 = EDGE_CURVE ( 'NONE', #137, #367, #154, .T. ) ;
#1230 = LINE ( 'NONE', #799, #314 ) ;
#1231 = ORIENTED_EDGE ( 'NONE', *, *, #1204, .F. ) ;
#1232 = DIRECTION ( 'NONE',  ( 0.7071067811865535679, 0.000000000000000000, 0.7071067811865415775 ) ) ;
#1233 = DIRECTION ( 'NONE',  ( 0.000000000000000000, -1.000000000000000000, 0.000000000000000000 ) ) ;
#1234 = ORIENTED_EDGE ( 'NONE', *, *, #1038, .F. ) ;
#1235 = DIRECTION ( 'NONE',  ( 1.000000000000000000, 0.000000000000000000, 0.000000000000000000 ) ) ;
#1236 = EDGE_CURVE ( 'NONE', #498, #940, #648, .T. ) ;
#1237 = CARTESIAN_POINT ( 'NONE',  ( 11.99333333333319196, -10.87333333333321228, -5.996666666666623513 ) ) ;
#1238 = DIRECTION ( 'NONE',  ( -0.000000000000000000, 0.000000000000000000, 1.000000000000000000 ) ) ;
#1239 = ORIENTED_EDGE ( 'NONE', *, *, #962, .F. ) ;
ENDSEC;
END-ISO-10303-21;
