ISO-10303-21;
HEADER;
FILE_DESCRIPTION (( 'STEP AP214' ),
    '1' );
FILE_NAME ('pillar_60.STEP',
    '2026-06-10T13:06:59',
    ( '' ),
    ( '' ),
    'SwSTEP 2.0',
    'SolidWorks 2023',
    '' );
FILE_SCHEMA (( 'AUTOMOTIVE_DESIGN' ));
ENDSEC;

DATA;
#1 = AXIS2_PLACEMENT_3D ( 'NONE', #423, #234, #486 ) ;
#2 = ADVANCED_FACE ( 'NONE', ( #448 ), #82, .F. ) ;
#3 = ORIENTED_EDGE ( 'NONE', *, *, #689, .F. ) ;
#4 = DIRECTION ( 'NONE',  ( 0.000000000000000000, 1.000000000000000000, 0.000000000000000000 ) ) ;
#5 = EDGE_LOOP ( 'NONE', ( #283, #694, #319, #765 ) ) ;
#6 = DIRECTION ( 'NONE',  ( -1.000000000000000000, 0.000000000000000000, 0.000000000000000000 ) ) ;
#7 = LINE ( 'NONE', #181, #379 ) ;
#8 = DIRECTION ( 'NONE',  ( 0.000000000000000000, 1.000000000000000000, 0.000000000000000000 ) ) ;
#9 = ORIENTED_EDGE ( 'NONE', *, *, #65, .T. ) ;
#10 = FACE_OUTER_BOUND ( 'NONE', #114, .T. ) ;
#11 = AXIS2_PLACEMENT_3D ( 'NONE', #660, #516, #404 ) ;
#12 = CIRCLE ( 'NONE', #11, 0.2399999999999999911 ) ;
#13 = MECHANICAL_DESIGN_GEOMETRIC_PRESENTATION_REPRESENTATION (  '', ( #370 ), #165 ) ;
#14 = CARTESIAN_POINT ( 'NONE',  ( -0.5749999999999999556, 1.517883041479706208E-16, 2.630000000000000338 ) ) ;
#15 = ORIENTED_EDGE ( 'NONE', *, *, #503, .F. ) ;
#16 = CARTESIAN_POINT ( 'NONE',  ( -0.3149999999999998912, -0.2399999999999997691, 2.390000000000000568 ) ) ;
#17 = CARTESIAN_POINT ( 'NONE',  ( 0.5750000000000000666, -0.5749999999999999556, 0.000000000000000000 ) ) ;
#18 = DIRECTION ( 'NONE',  ( 0.000000000000000000, 0.000000000000000000, 1.000000000000000000 ) ) ;
#19 = PLANE ( 'NONE',  #763 ) ;
#20 = DIRECTION ( 'NONE',  ( 1.000000000000000000, 0.000000000000000000, 0.000000000000000000 ) ) ;
#21 = ORIENTED_EDGE ( 'NONE', *, *, #624, .T. ) ;
#22 = PLANE ( 'NONE',  #546 ) ;
#23 = AXIS2_PLACEMENT_3D ( 'NONE', #386, #562, #690 ) ;
#24 = CARTESIAN_POINT ( 'NONE',  ( -0.2399999999999996303, 0.3149999999999998912, 2.630000000000000338 ) ) ;
#25 = ORIENTED_EDGE ( 'NONE', *, *, #46, .F. ) ;
#26 = SURFACE_STYLE_USAGE ( .BOTH. , #589 ) ;
#27 = CARTESIAN_POINT ( 'NONE',  ( 0.5749999999999999556, 1.517883041479706208E-16, 2.630000000000000338 ) ) ;
#28 = ORIENTED_EDGE ( 'NONE', *, *, #199, .F. ) ;
#29 = CARTESIAN_POINT ( 'NONE',  ( -0.3149999999999998912, 1.517883041479706208E-16, 2.630000000000000338 ) ) ;
#30 = CARTESIAN_POINT ( 'NONE',  ( -0.3149999999999998912, -0.2399999999999997691, 2.390000000000000568 ) ) ;
#31 = VERTEX_POINT ( 'NONE', #381 ) ;
#32 = PLANE ( 'NONE',  #474 ) ;
#33 = DIRECTION ( 'NONE',  ( -1.000000000000000000, 0.000000000000000000, 0.000000000000000000 ) ) ;
#34 = EDGE_CURVE ( 'NONE', #296, #688, #129, .T. ) ;
#35 = VECTOR ( 'NONE', #20, 100.0000000000000000 ) ;
#36 = VECTOR ( 'NONE', #670, 100.0000000000000000 ) ;
#37 = CARTESIAN_POINT ( 'NONE',  ( 0.2400000000000003797, -0.3149999999999998912, 2.390000000000000568 ) ) ;
#38 = ORIENTED_EDGE ( 'NONE', *, *, #199, .T. ) ;
#39 = VECTOR ( 'NONE', #99, 100.0000000000000000 ) ;
#40 = CARTESIAN_POINT ( 'NONE',  ( 0.3149999999999998912, -0.2399999999999997691, 5.000000000000000000 ) ) ;
#41 = EDGE_CURVE ( 'NONE', #605, #61, #457, .T. ) ;
#42 = ORIENTED_EDGE ( 'NONE', *, *, #444, .T. ) ;
#43 = CYLINDRICAL_SURFACE ( 'NONE', #1, 0.2399999999999999356 ) ;
#44 = ORIENTED_EDGE ( 'NONE', *, *, #342, .T. ) ;
#45 = PLANE ( 'NONE',  #735 ) ;
#46 = EDGE_CURVE ( 'NONE', #504, #617, #132, .T. ) ;
#47 = DIRECTION ( 'NONE',  ( 0.000000000000000000, 0.000000000000000000, 1.000000000000000000 ) ) ;
#48 = ORIENTED_EDGE ( 'NONE', *, *, #162, .F. ) ;
#49 = LINE ( 'NONE', #737, #209 ) ;
#50 = AXIS2_PLACEMENT_3D ( 'NONE', #324, #119, #577 ) ;
#51 = EDGE_LOOP ( 'NONE', ( #744, #356, #307, #644 ) ) ;
#52 = CARTESIAN_POINT ( 'NONE',  ( 3.686287386450715076E-16, 0.3149999999999998912, 2.630000000000000338 ) ) ;
#53 = ORIENTED_EDGE ( 'NONE', *, *, #648, .F. ) ;
#54 = CARTESIAN_POINT ( 'NONE',  ( -0.2399999999999996303, -0.3149999999999998912, 2.390000000000000568 ) ) ;
#55 = PRODUCT_DEFINITION_CONTEXT ( 'detailed design', #188, 'design' ) ;
#56 = DIRECTION ( 'NONE',  ( -0.000000000000000000, 0.000000000000000000, -1.000000000000000000 ) ) ;
#57 = VERTEX_POINT ( 'NONE', #706 ) ;
#58 = DIRECTION ( 'NONE',  ( 0.000000000000000000, 0.000000000000000000, -1.000000000000000000 ) ) ;
#59 = EDGE_CURVE ( 'NONE', #702, #86, #542, .T. ) ;
#60 = FACE_OUTER_BOUND ( 'NONE', #51, .T. ) ;
#61 = VERTEX_POINT ( 'NONE', #260 ) ;
#62 = CARTESIAN_POINT ( 'NONE',  ( 0.000000000000000000, 0.000000000000000000, 1.899999999999999911 ) ) ;
#63 = AXIS2_PLACEMENT_3D ( 'NONE', #52, #741, #416 ) ;
#64 = VECTOR ( 'NONE', #18, 100.0000000000000000 ) ;
#65 = EDGE_CURVE ( 'NONE', #348, #418, #140, .T. ) ;
#66 = LINE ( 'NONE', #322, #747 ) ;
#67 = ORIENTED_EDGE ( 'NONE', *, *, #34, .T. ) ;
#68 = CARTESIAN_POINT ( 'NONE',  ( 0.000000000000000000, 0.000000000000000000, 1.899999999999999911 ) ) ;
#69 = ADVANCED_FACE ( 'NONE', ( #196 ), #772, .F. ) ;
#70 = DIRECTION ( 'NONE',  ( 9.035018104045873159E-17, 1.000000000000000000, 0.000000000000000000 ) ) ;
#71 = EDGE_LOOP ( 'NONE', ( #343, #592, #533, #438 ) ) ;
#72 = FILL_AREA_STYLE ('',( #402 ) ) ;
#73 = CARTESIAN_POINT ( 'NONE',  ( 0.2400000000000003797, 0.3149999999999998912, 2.630000000000000338 ) ) ;
#74 = CLOSED_SHELL ( 'NONE', ( #742, #112, #2, #280, #738, #128, #384, #272, #205, #661, #488, #315, #771, #263, #213, #426, #602, #227, #69, #376, #408, #590, #672, #534, #290 ) ) ;
#75 = CIRCLE ( 'NONE', #63, 0.2400000000000000189 ) ;
#76 = VECTOR ( 'NONE', #107, 100.0000000000000000 ) ;
#77 = LINE ( 'NONE', #442, #650 ) ;
#78 = ORIENTED_EDGE ( 'NONE', *, *, #563, .F. ) ;
#79 = LINE ( 'NONE', #466, #64 ) ;
#80 = EDGE_CURVE ( 'NONE', #287, #86, #387, .T. ) ;
#81 = UNCERTAINTY_MEASURE_WITH_UNIT (LENGTH_MEASURE( 1.000000000000000082E-05 ), #708, 'distance_accuracy_value', 'NONE');
#82 = CYLINDRICAL_SURFACE ( 'NONE', #192, 0.2400000000000000189 ) ;
#83 = DIRECTION ( 'NONE',  ( 0.000000000000000000, 0.000000000000000000, 1.000000000000000000 ) ) ;
#84 = EDGE_LOOP ( 'NONE', ( #496, #374, #628, #424 ) ) ;
#85 = LINE ( 'NONE', #344, #369 ) ;
#86 = VERTEX_POINT ( 'NONE', #652 ) ;
#87 = DIRECTION ( 'NONE',  ( -1.000000000000000000, -1.508455196501571429E-16, 0.000000000000000000 ) ) ;
#88 = VERTEX_POINT ( 'NONE', #73 ) ;
#89 = LINE ( 'NONE', #531, #597 ) ;
#90 = VERTEX_POINT ( 'NONE', #768 ) ;
#91 = DIRECTION ( 'NONE',  ( 0.000000000000000000, -1.000000000000000000, 0.000000000000000000 ) ) ;
#92 = FACE_OUTER_BOUND ( 'NONE', #809, .T. ) ;
#93 = ORIENTED_EDGE ( 'NONE', *, *, #444, .F. ) ;
#94 = CARTESIAN_POINT ( 'NONE',  ( -0.5749999999999999556, 0.2400000000000000744, 5.000000000000000000 ) ) ;
#95 = CARTESIAN_POINT ( 'NONE',  ( -0.2399999999999996303, -0.5749999999999999556, 2.630000000000000338 ) ) ;
#96 = VECTOR ( 'NONE', #373, 100.0000000000000000 ) ;
#97 = EDGE_LOOP ( 'NONE', ( #235, #403, #15, #219 ) ) ;
#98 = AXIS2_PLACEMENT_3D ( 'NONE', #220, #470, #155 ) ;
#99 = DIRECTION ( 'NONE',  ( 1.000000000000000000, 1.508455196501571429E-16, 0.000000000000000000 ) ) ;
#100 = VERTEX_POINT ( 'NONE', #506 ) ;
#101 = CARTESIAN_POINT ( 'NONE',  ( 0.000000000000000000, 0.000000000000000000, 0.000000000000000000 ) ) ;
#102 = EDGE_CURVE ( 'NONE', #619, #88, #640, .T. ) ;
#103 = CYLINDRICAL_SURFACE ( 'NONE', #808, 0.3000000000000000444 ) ;
#104 = EDGE_LOOP ( 'NONE', ( #243, #392, #526, #551, #21, #274, #346, #576 ) ) ;
#105 = ORIENTED_EDGE ( 'NONE', *, *, #46, .T. ) ;
#106 = CARTESIAN_POINT ( 'NONE',  ( 0.2400000000000003797, 0.3149999999999998912, 2.390000000000000568 ) ) ;
#107 = DIRECTION ( 'NONE',  ( 1.000000000000000000, 0.000000000000000000, 0.000000000000000000 ) ) ;
#108 = ORIENTED_EDGE ( 'NONE', *, *, #460, .F. ) ;
#109 = CARTESIAN_POINT ( 'NONE',  ( 0.000000000000000000, 0.000000000000000000, 1.899999999999999911 ) ) ;
#110 = CIRCLE ( 'NONE', #150, 0.3000000000000000444 ) ;
#111 = CARTESIAN_POINT ( 'NONE',  ( 0.5749999999999999556, 0.5750000000000000666, 5.000000000000000000 ) ) ;
#112 = ADVANCED_FACE ( 'NONE', ( #517 ), #135, .F. ) ;
#113 = STYLED_ITEM ( 'NONE', ( #333 ), #594 ) ;
#114 = EDGE_LOOP ( 'NONE', ( #231, #653, #479, #541 ) ) ;
#115 = DIRECTION ( 'NONE',  ( -1.000000000000000000, 0.000000000000000000, 0.000000000000000000 ) ) ;
#116 = PRODUCT_CONTEXT ( 'NONE', #609, 'mechanical' ) ;
#117 = ORIENTED_EDGE ( 'NONE', *, *, #295, .T. ) ;
#118 = EDGE_CURVE ( 'NONE', #445, #456, #77, .T. ) ;
#119 = DIRECTION ( 'NONE',  ( -1.000000000000000000, -1.508455196501571676E-16, -0.000000000000000000 ) ) ;
#120 = CARTESIAN_POINT ( 'NONE',  ( 0.5749999999999999556, 0.5750000000000000666, 0.000000000000000000 ) ) ;
#121 = VERTEX_POINT ( 'NONE', #17 ) ;
#122 = DIRECTION ( 'NONE',  ( 1.807003620809174632E-16, -1.000000000000000000, 0.000000000000000000 ) ) ;
#123 = EDGE_CURVE ( 'NONE', #773, #718, #66, .T. ) ;
#124 = CARTESIAN_POINT ( 'NONE',  ( 0.2400000000000003797, 0.3149999999999998912, 2.630000000000000338 ) ) ;
#125 = ORIENTED_EDGE ( 'NONE', *, *, #575, .F. ) ;
#126 = CARTESIAN_POINT ( 'NONE',  ( 0.5749999999999999556, 0.5750000000000000666, 5.000000000000000000 ) ) ;
#127 = VECTOR ( 'NONE', #512, 100.0000000000000000 ) ;
#128 = ADVANCED_FACE ( 'NONE', ( #291 ), #666, .F. ) ;
#129 = LINE ( 'NONE', #385, #662 ) ;
#130 = CARTESIAN_POINT ( 'NONE',  ( -0.5750000000000000666, 0.5749999999999999556, 5.000000000000000000 ) ) ;
#131 = DIRECTION ( 'NONE',  ( -1.000000000000000000, -1.508455196501571676E-16, 0.000000000000000000 ) ) ;
#132 = LINE ( 'NONE', #643, #405 ) ;
#133 = ORIENTED_EDGE ( 'NONE', *, *, #142, .T. ) ;
#134 = DIRECTION ( 'NONE',  ( 9.035018104045874392E-17, 1.000000000000000000, 0.000000000000000000 ) ) ;
#135 = CYLINDRICAL_SURFACE ( 'NONE', #786, 0.2399999999999999356 ) ;
#136 = VERTEX_POINT ( 'NONE', #228 ) ;
#137 = FACE_OUTER_BOUND ( 'NONE', #282, .T. ) ;
#138 = CIRCLE ( 'NONE', #749, 0.2400000000000000189 ) ;
#139 = VECTOR ( 'NONE', #83, 100.0000000000000000 ) ;
#140 = LINE ( 'NONE', #515, #176 ) ;
#141 = FILL_AREA_STYLE ('',( #714 ) ) ;
#142 = EDGE_CURVE ( 'NONE', #736, #725, #278, .T. ) ;
#143 = DIRECTION ( 'NONE',  ( 1.508455196501571429E-16, -1.000000000000000000, 0.000000000000000000 ) ) ;
#144 = ORIENTED_EDGE ( 'NONE', *, *, #80, .T. ) ;
#145 = CARTESIAN_POINT ( 'NONE',  ( 0.5749999999999999556, 0.5750000000000000666, 5.000000000000000000 ) ) ;
#146 = DIRECTION ( 'NONE',  ( -1.508455196501571676E-16, 1.000000000000000000, 0.000000000000000000 ) ) ;
#147 = VERTEX_POINT ( 'NONE', #24 ) ;
#148 = LINE ( 'NONE', #389, #447 ) ;
#149 = AXIS2_PLACEMENT_3D ( 'NONE', #579, #254, #713 ) ;
#150 = AXIS2_PLACEMENT_3D ( 'NONE', #507, #185, #695 ) ;
#151 = EDGE_CURVE ( 'NONE', #801, #121, #160, .T. ) ;
#152 = VECTOR ( 'NONE', #584, 100.0000000000000000 ) ;
#153 = DIRECTION ( 'NONE',  ( 0.000000000000000000, -1.000000000000000000, 0.000000000000000000 ) ) ;
#154 = ORIENTED_EDGE ( 'NONE', *, *, #439, .T. ) ;
#155 = DIRECTION ( 'NONE',  ( -1.000000000000000000, 0.000000000000000000, 0.000000000000000000 ) ) ;
#156 = LINE ( 'NONE', #40, #637 ) ;
#157 = ORIENTED_EDGE ( 'NONE', *, *, #657, .T. ) ;
#158 = DIRECTION ( 'NONE',  ( -1.000000000000000000, 9.035018104045874392E-17, -0.000000000000000000 ) ) ;
#159 = CARTESIAN_POINT ( 'NONE',  ( 0.5749999999999999556, 0.5750000000000000666, 5.000000000000000000 ) ) ;
#160 = LINE ( 'NONE', #794, #164 ) ;
#161 = DIRECTION ( 'NONE',  ( -0.000000000000000000, 0.000000000000000000, -1.000000000000000000 ) ) ;
#162 = EDGE_CURVE ( 'NONE', #605, #170, #89, .T. ) ;
#163 = CARTESIAN_POINT ( 'NONE',  ( 0.5750000000000000666, -0.5749999999999999556, 5.000000000000000000 ) ) ;
#164 = VECTOR ( 'NONE', #780, 100.0000000000000000 ) ;
#165 =( GEOMETRIC_REPRESENTATION_CONTEXT ( 3 ) GLOBAL_UNCERTAINTY_ASSIGNED_CONTEXT ( ( #709 ) ) GLOBAL_UNIT_ASSIGNED_CONTEXT ( ( #549, #791, #169 ) ) REPRESENTATION_CONTEXT ( 'NONE', 'WORKASPACE' ) );
#166 = CARTESIAN_POINT ( 'NONE',  ( -0.2399999999999996858, 0.5749999999999999556, 2.630000000000000338 ) ) ;
#167 = ORIENTED_EDGE ( 'NONE', *, *, #475, .T. ) ;
#168 = DIRECTION ( 'NONE',  ( 1.000000000000000000, 1.508455196501571429E-16, 0.000000000000000000 ) ) ;
#169 =( NAMED_UNIT ( * ) SI_UNIT ( $, .STERADIAN. ) SOLID_ANGLE_UNIT ( ) );
#170 = VERTEX_POINT ( 'NONE', #351 ) ;
#171 = DIRECTION ( 'NONE',  ( 1.508455196501571429E-16, -1.000000000000000000, 0.000000000000000000 ) ) ;
#172 = LINE ( 'NONE', #182, #76 ) ;
#173 = EDGE_LOOP ( 'NONE', ( #323, #327, #257, #532 ) ) ;
#174 = CARTESIAN_POINT ( 'NONE',  ( 0.2400000000000003797, 0.5749999999999999556, 5.000000000000000000 ) ) ;
#175 = EDGE_CURVE ( 'NONE', #798, #674, #788, .T. ) ;
#176 = VECTOR ( 'NONE', #571, 100.0000000000000000 ) ;
#177 = AXIS2_PLACEMENT_3D ( 'NONE', #359, #552, #620 ) ;
#178 = DIRECTION ( 'NONE',  ( 0.000000000000000000, 1.000000000000000000, -0.000000000000000000 ) ) ;
#179 =( GEOMETRIC_REPRESENTATION_CONTEXT ( 3 ) GLOBAL_UNCERTAINTY_ASSIGNED_CONTEXT ( ( #81 ) ) GLOBAL_UNIT_ASSIGNED_CONTEXT ( ( #708, #275, #198 ) ) REPRESENTATION_CONTEXT ( 'NONE', 'WORKASPACE' ) );
#180 = VERTEX_POINT ( 'NONE', #591 ) ;
#181 = CARTESIAN_POINT ( 'NONE',  ( -0.5750000000000000666, 0.5749999999999999556, 5.000000000000000000 ) ) ;
#182 = CARTESIAN_POINT ( 'NONE',  ( 0.8349999999999999645, -0.2399999999999997691, 5.000000000000000000 ) ) ;
#183 = ORIENTED_EDGE ( 'NONE', *, *, #638, .F. ) ;
#184 = EDGE_CURVE ( 'NONE', #170, #256, #223, .T. ) ;
#185 = DIRECTION ( 'NONE',  ( 0.000000000000000000, 0.000000000000000000, -1.000000000000000000 ) ) ;
#186 = CARTESIAN_POINT ( 'NONE',  ( 3.469446951953614189E-16, -0.5749999999999999556, 2.630000000000000338 ) ) ;
#187 = DIRECTION ( 'NONE',  ( -0.000000000000000000, -1.000000000000000000, -0.000000000000000000 ) ) ;
#188 = APPLICATION_CONTEXT ( 'automotive_design' ) ;
#189 = CARTESIAN_POINT ( 'NONE',  ( -0.5749999999999999556, -0.5750000000000000666, 5.000000000000000000 ) ) ;
#190 = EDGE_CURVE ( 'NONE', #795, #766, #476, .T. ) ;
#191 = ORIENTED_EDGE ( 'NONE', *, *, #151, .T. ) ;
#192 = AXIS2_PLACEMENT_3D ( 'NONE', #14, #697, #264 ) ;
#193 = CARTESIAN_POINT ( 'NONE',  ( 0.2400000000000003797, -0.5749999999999999556, 5.000000000000000000 ) ) ;
#194 = VECTOR ( 'NONE', #645, 100.0000000000000000 ) ;
#195 = DIRECTION ( 'NONE',  ( -1.000000000000000000, -9.035018104045874392E-17, 0.000000000000000000 ) ) ;
#196 = FACE_OUTER_BOUND ( 'NONE', #715, .T. ) ;
#197 = ORIENTED_EDGE ( 'NONE', *, *, #762, .F. ) ;
#198 =( NAMED_UNIT ( * ) SI_UNIT ( $, .STERADIAN. ) SOLID_ANGLE_UNIT ( ) );
#199 = EDGE_CURVE ( 'NONE', #605, #688, #686, .T. ) ;
#200 = CARTESIAN_POINT ( 'NONE',  ( 0.2400000000000003797, 0.3149999999999998912, 5.000000000000000000 ) ) ;
#201 = DIRECTION ( 'NONE',  ( -1.000000000000000000, 0.000000000000000000, 0.000000000000000000 ) ) ;
#202 = EDGE_LOOP ( 'NONE', ( #611, #207 ) ) ;
#203 = SURFACE_STYLE_FILL_AREA ( #141 ) ;
#204 = FACE_OUTER_BOUND ( 'NONE', #71, .T. ) ;
#205 = ADVANCED_FACE ( 'NONE', ( #463 ), #540, .F. ) ;
#206 = DIRECTION ( 'NONE',  ( -1.000000000000000000, 0.000000000000000000, 0.000000000000000000 ) ) ;
#207 = ORIENTED_EDGE ( 'NONE', *, *, #399, .F. ) ;
#208 = CARTESIAN_POINT ( 'NONE',  ( 0.2400000000000003242, 2.001604010742471858E-17, 5.000000000000000000 ) ) ;
#209 = VECTOR ( 'NONE', #545, 100.0000000000000000 ) ;
#210 = AXIS2_PLACEMENT_3D ( 'NONE', #574, #178, #6 ) ;
#211 = ORIENTED_EDGE ( 'NONE', *, *, #800, .F. ) ;
#212 = DIRECTION ( 'NONE',  ( 8.340016711426955288E-17, -1.000000000000000000, -0.000000000000000000 ) ) ;
#213 = ADVANCED_FACE ( 'NONE', ( #658 ), #719, .F. ) ;
#214 = ORIENTED_EDGE ( 'NONE', *, *, #451, .T. ) ;
#215 = CARTESIAN_POINT ( 'NONE',  ( -0.5750000000000000666, 0.5749999999999999556, 0.000000000000000000 ) ) ;
#216 = EDGE_CURVE ( 'NONE', #773, #504, #604, .T. ) ;
#217 = FACE_OUTER_BOUND ( 'NONE', #746, .T. ) ;
#218 = DIRECTION ( 'NONE',  ( 1.508455196501571676E-16, -1.000000000000000000, -0.000000000000000000 ) ) ;
#219 = ORIENTED_EDGE ( 'NONE', *, *, #560, .F. ) ;
#220 = CARTESIAN_POINT ( 'NONE',  ( 3.469446951953614189E-16, -0.3149999999999998912, 2.630000000000000338 ) ) ;
#221 = DIRECTION ( 'NONE',  ( -1.508455196501571429E-16, 1.000000000000000000, 0.000000000000000000 ) ) ;
#222 = AXIS2_PLACEMENT_3D ( 'NONE', #633, #195, #452 ) ;
#223 = LINE ( 'NONE', #273, #711 ) ;
#224 = ORIENTED_EDGE ( 'NONE', *, *, #175, .T. ) ;
#225 = DIRECTION ( 'NONE',  ( 0.000000000000000000, 0.000000000000000000, -1.000000000000000000 ) ) ;
#226 = FACE_OUTER_BOUND ( 'NONE', #813, .T. ) ;
#227 = ADVANCED_FACE ( 'NONE', ( #92 ), #610, .F. ) ;
#228 = CARTESIAN_POINT ( 'NONE',  ( 0.3149999999999998912, 0.2400000000000000744, 2.630000000000000338 ) ) ;
#229 = ORIENTED_EDGE ( 'NONE', *, *, #118, .F. ) ;
#230 = DIRECTION ( 'NONE',  ( 0.000000000000000000, 0.000000000000000000, 1.000000000000000000 ) ) ;
#231 = ORIENTED_EDGE ( 'NONE', *, *, #724, .F. ) ;
#232 = DIRECTION ( 'NONE',  ( 0.000000000000000000, 0.000000000000000000, -1.000000000000000000 ) ) ;
#233 = ORIENTED_EDGE ( 'NONE', *, *, #295, .F. ) ;
#234 = DIRECTION ( 'NONE',  ( 0.000000000000000000, 1.000000000000000000, 0.000000000000000000 ) ) ;
#235 = ORIENTED_EDGE ( 'NONE', *, *, #216, .F. ) ;
#236 = DIRECTION ( 'NONE',  ( 0.000000000000000000, 0.000000000000000000, -1.000000000000000000 ) ) ;
#237 = VECTOR ( 'NONE', #168, 100.0000000000000000 ) ;
#238 = DIRECTION ( 'NONE',  ( -0.000000000000000000, 0.000000000000000000, -1.000000000000000000 ) ) ;
#239 = ORIENTED_EDGE ( 'NONE', *, *, #247, .T. ) ;
#240 = LINE ( 'NONE', #539, #237 ) ;
#241 = EDGE_CURVE ( 'NONE', #136, #428, #586, .T. ) ;
#242 = CARTESIAN_POINT ( 'NONE',  ( -0.8349999999999999645, 0.2400000000000000744, 5.000000000000000000 ) ) ;
#243 = ORIENTED_EDGE ( 'NONE', *, *, #498, .F. ) ;
#244 = CARTESIAN_POINT ( 'NONE',  ( 0.3149999999999998912, 0.2400000000000000744, 5.000000000000000000 ) ) ;
#245 = ORIENTED_EDGE ( 'NONE', *, *, #421, .F. ) ;
#246 = LINE ( 'NONE', #189, #194 ) ;
#247 = EDGE_CURVE ( 'NONE', #147, #698, #325, .T. ) ;
#248 = VECTOR ( 'NONE', #143, 100.0000000000000000 ) ;
#249 = COLOUR_RGB ( '',0.6941176470588235059, 0.09803921568627450844, 0.09803921568627450844 ) ;
#250 = ORIENTED_EDGE ( 'NONE', *, *, #414, .T. ) ;
#251 = DIRECTION ( 'NONE',  ( 0.000000000000000000, 0.000000000000000000, -1.000000000000000000 ) ) ;
#252 = CARTESIAN_POINT ( 'NONE',  ( 0.3149999999999998912, -0.2399999999999997691, 5.000000000000000000 ) ) ;
#253 = EDGE_CURVE ( 'NONE', #340, #456, #259, .T. ) ;
#254 = DIRECTION ( 'NONE',  ( 0.000000000000000000, 0.000000000000000000, -1.000000000000000000 ) ) ;
#255 = FACE_OUTER_BOUND ( 'NONE', #5, .T. ) ;
#256 = VERTEX_POINT ( 'NONE', #252 ) ;
#257 = ORIENTED_EDGE ( 'NONE', *, *, #705, .T. ) ;
#258 = DIRECTION ( 'NONE',  ( -0.000000000000000000, 0.000000000000000000, -1.000000000000000000 ) ) ;
#259 = LINE ( 'NONE', #200, #127 ) ;
#260 = CARTESIAN_POINT ( 'NONE',  ( 0.5750000000000000666, -0.2399999999999997691, 5.000000000000000000 ) ) ;
#261 = LINE ( 'NONE', #461, #462 ) ;
#262 = VECTOR ( 'NONE', #329, 100.0000000000000000 ) ;
#263 = ADVANCED_FACE ( 'NONE', ( #764 ), #268, .F. ) ;
#264 = DIRECTION ( 'NONE',  ( 0.000000000000000000, -1.000000000000000000, 0.000000000000000000 ) ) ;
#265 = VERTEX_POINT ( 'NONE', #330 ) ;
#266 = LINE ( 'NONE', #145, #395 ) ;
#267 = PRODUCT_RELATED_PRODUCT_CATEGORY ( 'part', '', ( #530 ) ) ;
#268 = PLANE ( 'NONE',  #222 ) ;
#269 = CARTESIAN_POINT ( 'NONE',  ( 0.5749999999999999556, -0.2399999999999996858, 5.000000000000000000 ) ) ;
#270 = EDGE_LOOP ( 'NONE', ( #630, #622, #554, #9 ) ) ;
#271 = LINE ( 'NONE', #208, #152 ) ;
#272 = ADVANCED_FACE ( 'NONE', ( #569 ), #700, .F. ) ;
#273 = CARTESIAN_POINT ( 'NONE',  ( 0.3149999999999998912, -0.2399999999999997691, 2.390000000000000568 ) ) ;
#274 = ORIENTED_EDGE ( 'NONE', *, *, #439, .F. ) ;
#275 =( NAMED_UNIT ( * ) PLANE_ANGLE_UNIT ( ) SI_UNIT ( $, .RADIAN. ) );
#276 = VECTOR ( 'NONE', #171, 100.0000000000000000 ) ;
#277 =( GEOMETRIC_REPRESENTATION_CONTEXT ( 3 ) GLOBAL_UNCERTAINTY_ASSIGNED_CONTEXT ( ( #564 ) ) GLOBAL_UNIT_ASSIGNED_CONTEXT ( ( #570, #815, #751 ) ) REPRESENTATION_CONTEXT ( 'NONE', 'WORKASPACE' ) );
#278 = LINE ( 'NONE', #481, #35 ) ;
#279 = ORIENTED_EDGE ( 'NONE', *, *, #421, .T. ) ;
#280 = ADVANCED_FACE ( 'NONE', ( #204 ), #755, .F. ) ;
#281 = CARTESIAN_POINT ( 'NONE',  ( 0.5749999999999999556, -0.2399999999999996858, 2.630000000000000338 ) ) ;
#282 = EDGE_LOOP ( 'NONE', ( #377, #596, #587, #105 ) ) ;
#283 = ORIENTED_EDGE ( 'NONE', *, *, #624, .F. ) ;
#284 = LINE ( 'NONE', #293, #305 ) ;
#285 = EDGE_LOOP ( 'NONE', ( #382, #607, #279, #469 ) ) ;
#286 = CARTESIAN_POINT ( 'NONE',  ( -0.5749999999999999556, -0.5750000000000000666, 5.000000000000000000 ) ) ;
#287 = VERTEX_POINT ( 'NONE', #338 ) ;
#288 = CARTESIAN_POINT ( 'NONE',  ( 0.2400000000000003797, 0.3149999999999998912, 5.000000000000000000 ) ) ;
#289 = VECTOR ( 'NONE', #521, 100.0000000000000000 ) ;
#290 = ADVANCED_FACE ( 'NONE', ( #217 ), #19, .T. ) ;
#291 = FACE_OUTER_BOUND ( 'NONE', #104, .T. ) ;
#292 = ORIENTED_EDGE ( 'NONE', *, *, #118, .T. ) ;
#293 = CARTESIAN_POINT ( 'NONE',  ( 0.2400000000000003797, 0.5749999999999999556, 5.000000000000000000 ) ) ;
#294 = FACE_OUTER_BOUND ( 'NONE', #331, .T. ) ;
#295 = EDGE_CURVE ( 'NONE', #428, #256, #156, .T. ) ;
#296 = VERTEX_POINT ( 'NONE', #728 ) ;
#297 = ORIENTED_EDGE ( 'NONE', *, *, #657, .F. ) ;
#298 = CARTESIAN_POINT ( 'NONE',  ( 0.2400000000000003797, -0.5749999999999999556, 2.630000000000000338 ) ) ;
#299 = PRODUCT_DEFINITION_SHAPE ( 'NONE', 'NONE',  #511 ) ;
#300 = EDGE_CURVE ( 'NONE', #619, #698, #138, .T. ) ;
#301 = ORIENTED_EDGE ( 'NONE', *, *, #806, .T. ) ;
#302 = DIRECTION ( 'NONE',  ( -1.508455196501571676E-16, 1.000000000000000000, 0.000000000000000000 ) ) ;
#303 = VECTOR ( 'NONE', #757, 100.0000000000000000 ) ;
#304 = AXIS2_PLACEMENT_3D ( 'NONE', #636, #631, #122 ) ;
#305 = VECTOR ( 'NONE', #47, 100.0000000000000000 ) ;
#306 = APPLICATION_PROTOCOL_DEFINITION ( 'draft international standard', 'automotive_design', 1998, #609 ) ;
#307 = ORIENTED_EDGE ( 'NONE', *, *, #34, .F. ) ;
#308 = EDGE_CURVE ( 'NONE', #296, #445, #623, .T. ) ;
#309 = LINE ( 'NONE', #378, #665 ) ;
#310 = DIRECTION ( 'NONE',  ( 0.000000000000000000, -1.000000000000000000, -0.000000000000000000 ) ) ;
#311 = VERTEX_POINT ( 'NONE', #298 ) ;
#312 = DIRECTION ( 'NONE',  ( 0.000000000000000000, 0.000000000000000000, -1.000000000000000000 ) ) ;
#313 = VERTEX_POINT ( 'NONE', #480 ) ;
#314 = LINE ( 'NONE', #193, #473 ) ;
#315 = ADVANCED_FACE ( 'NONE', ( #472 ), #797, .F. ) ;
#316 = VECTOR ( 'NONE', #629, 100.0000000000000000 ) ;
#317 = PLANE ( 'NONE',  #210 ) ;
#318 = AXIS2_PLACEMENT_3D ( 'NONE', #29, #158, #739 ) ;
#319 = ORIENTED_EDGE ( 'NONE', *, *, #349, .F. ) ;
#320 = DIRECTION ( 'NONE',  ( 0.000000000000000000, 1.000000000000000000, 0.000000000000000000 ) ) ;
#321 = CARTESIAN_POINT ( 'NONE',  ( 0.000000000000000000, 0.000000000000000000, 0.000000000000000000 ) ) ;
#322 = CARTESIAN_POINT ( 'NONE',  ( -0.5749999999999999556, -0.2399999999999997691, 2.630000000000000338 ) ) ;
#323 = ORIENTED_EDGE ( 'NONE', *, *, #360, .F. ) ;
#324 = CARTESIAN_POINT ( 'NONE',  ( -0.5749999999999999556, 1.517883041479706208E-16, 2.630000000000000338 ) ) ;
#325 = LINE ( 'NONE', #578, #613 ) ;
#326 = ORIENTED_EDGE ( 'NONE', *, *, #142, .F. ) ;
#327 = ORIENTED_EDGE ( 'NONE', *, *, #328, .T. ) ;
#328 = EDGE_CURVE ( 'NONE', #88, #147, #75, .T. ) ;
#329 = DIRECTION ( 'NONE',  ( -1.000000000000000000, 0.000000000000000000, 0.000000000000000000 ) ) ;
#330 = CARTESIAN_POINT ( 'NONE',  ( -0.5750000000000000666, 0.2400000000000000744, 5.000000000000000000 ) ) ;
#331 = EDGE_LOOP ( 'NONE', ( #487, #239, #655, #93 ) ) ;
#332 = VECTOR ( 'NONE', #221, 100.0000000000000000 ) ;
#333 = PRESENTATION_STYLE_ASSIGNMENT (( #26 ) ) ;
#334 = AXIS2_PLACEMENT_3D ( 'NONE', #580, #464, #593 ) ;
#335 = EDGE_CURVE ( 'NONE', #313, #180, #240, .T. ) ;
#336 = DIRECTION ( 'NONE',  ( -1.000000000000000000, -1.508455196501571429E-16, 0.000000000000000000 ) ) ;
#337 = PLANE ( 'NONE',  #334 ) ;
#338 = CARTESIAN_POINT ( 'NONE',  ( 3.673940397442060115E-17, -0.3000000000000000444, 1.899999999999999911 ) ) ;
#339 = CARTESIAN_POINT ( 'NONE',  ( -0.5750000000000000666, 0.5749999999999999556, 5.000000000000000000 ) ) ;
#340 = VERTEX_POINT ( 'NONE', #288 ) ;
#341 = DIRECTION ( 'NONE',  ( -1.000000000000000000, -1.508455196501571429E-16, 0.000000000000000000 ) ) ;
#342 = EDGE_CURVE ( 'NONE', #449, #265, #350, .T. ) ;
#343 = ORIENTED_EDGE ( 'NONE', *, *, #396, .F. ) ;
#344 = CARTESIAN_POINT ( 'NONE',  ( 0.8349999999999999645, 0.2400000000000000744, 2.630000000000000338 ) ) ;
#345 = AXIS2_PLACEMENT_3D ( 'NONE', #814, #4, #115 ) ;
#346 = ORIENTED_EDGE ( 'NONE', *, *, #175, .F. ) ;
#347 = CARTESIAN_POINT ( 'NONE',  ( 0.5750000000000000666, -0.5749999999999999556, 5.000000000000000000 ) ) ;
#348 = VERTEX_POINT ( 'NONE', #683 ) ;
#349 = EDGE_CURVE ( 'NONE', #121, #795, #49, .T. ) ;
#350 = LINE ( 'NONE', #420, #276 ) ;
#351 = CARTESIAN_POINT ( 'NONE',  ( 0.3149999999999998912, -0.2399999999999997691, 2.630000000000000338 ) ) ;
#352 = ORIENTED_EDGE ( 'NONE', *, *, #396, .T. ) ;
#353 = DIRECTION ( 'NONE',  ( 0.000000000000000000, 1.000000000000000000, 0.000000000000000000 ) ) ;
#354 = EDGE_CURVE ( 'NONE', #418, #31, #425, .T. ) ;
#355 = VECTOR ( 'NONE', #161, 100.0000000000000000 ) ;
#356 = ORIENTED_EDGE ( 'NONE', *, *, #563, .T. ) ;
#357 = CARTESIAN_POINT ( 'NONE',  ( 0.5749999999999999556, 0.2400000000000000744, 2.630000000000000338 ) ) ;
#358 = ORIENTED_EDGE ( 'NONE', *, *, #335, .T. ) ;
#359 = CARTESIAN_POINT ( 'NONE',  ( -0.2399999999999996303, 0.3149999999999998912, 2.390000000000000568 ) ) ;
#360 = EDGE_CURVE ( 'NONE', #88, #340, #412, .T. ) ;
#361 = CARTESIAN_POINT ( 'NONE',  ( 0.000000000000000000, 0.000000000000000000, 1.899999999999999911 ) ) ;
#362 = ORIENTED_EDGE ( 'NONE', *, *, #467, .T. ) ;
#363 = DIRECTION ( 'NONE',  ( 0.000000000000000000, 1.000000000000000000, 0.000000000000000000 ) ) ;
#364 = CARTESIAN_POINT ( 'NONE',  ( -0.3149999999999998912, -0.2399999999999997691, 2.630000000000000338 ) ) ;
#365 = EDGE_LOOP ( 'NONE', ( #326, #781, #667, #3 ) ) ;
#366 = LINE ( 'NONE', #95, #393 ) ;
#367 = VECTOR ( 'NONE', #187, 100.0000000000000000 ) ;
#368 = AXIS2_PLACEMENT_3D ( 'NONE', #646, #201, #397 ) ;
#369 = VECTOR ( 'NONE', #524, 100.0000000000000000 ) ;
#370 = STYLED_ITEM ( 'NONE', ( #668 ), #661 ) ;
#371 = DIRECTION ( 'NONE',  ( -1.508455196501571429E-16, 1.000000000000000000, 0.000000000000000000 ) ) ;
#372 = ORIENTED_EDGE ( 'NONE', *, *, #762, .T. ) ;
#373 = DIRECTION ( 'NONE',  ( 0.000000000000000000, 0.000000000000000000, 1.000000000000000000 ) ) ;
#374 = ORIENTED_EDGE ( 'NONE', *, *, #300, .T. ) ;
#375 = LINE ( 'NONE', #567, #513 ) ;
#376 = ADVANCED_FACE ( 'NONE', ( #669 ), #45, .F. ) ;
#377 = ORIENTED_EDGE ( 'NONE', *, *, #632, .F. ) ;
#378 = CARTESIAN_POINT ( 'NONE',  ( -0.2399999999999996303, 0.000000000000000000, 5.000000000000000000 ) ) ;
#379 = VECTOR ( 'NONE', #432, 100.0000000000000000 ) ;
#380 = PRODUCT_DEFINITION_FORMATION_WITH_SPECIFIED_SOURCE ( 'ANY', '', #530, .NOT_KNOWN. ) ;
#381 = CARTESIAN_POINT ( 'NONE',  ( -0.2399999999999996303, -0.5749999999999999556, 5.000000000000000000 ) ) ;
#382 = ORIENTED_EDGE ( 'NONE', *, *, #80, .F. ) ;
#383 = FACE_OUTER_BOUND ( 'NONE', #285, .T. ) ;
#384 = ADVANCED_FACE ( 'NONE', ( #226 ), #673, .F. ) ;
#385 = CARTESIAN_POINT ( 'NONE',  ( 0.5749999999999999556, 0.2400000000000000744, 5.000000000000000000 ) ) ;
#386 = CARTESIAN_POINT ( 'NONE',  ( 0.000000000000000000, 0.000000000000000000, 0.000000000000000000 ) ) ;
#387 = LINE ( 'NONE', #453, #627 ) ;
#388 = ORIENTED_EDGE ( 'NONE', *, *, #190, .T. ) ;
#389 = CARTESIAN_POINT ( 'NONE',  ( 0.2400000000000003797, 0.3149999999999998912, 5.000000000000000000 ) ) ;
#390 = AXIS2_PLACEMENT_3D ( 'NONE', #413, #525, #146 ) ;
#391 = DIRECTION ( 'NONE',  ( 0.000000000000000000, -1.000000000000000000, 0.000000000000000000 ) ) ;
#392 = ORIENTED_EDGE ( 'NONE', *, *, #717, .T. ) ;
#393 = VECTOR ( 'NONE', #353, 100.0000000000000000 ) ;
#394 = DIRECTION ( 'NONE',  ( 1.000000000000000000, -9.035018104045874392E-17, 0.000000000000000000 ) ) ;
#395 = VECTOR ( 'NONE', #341, 100.0000000000000000 ) ;
#396 = EDGE_CURVE ( 'NONE', #523, #90, #366, .T. ) ;
#397 = DIRECTION ( 'NONE',  ( 0.000000000000000000, -1.000000000000000000, 0.000000000000000000 ) ) ;
#398 = ORIENTED_EDGE ( 'NONE', *, *, #484, .F. ) ;
#399 = EDGE_CURVE ( 'NONE', #86, #702, #696, .T. ) ;
#400 = DIRECTION ( 'NONE',  ( 0.000000000000000000, 0.000000000000000000, 1.000000000000000000 ) ) ;
#401 = ORIENTED_EDGE ( 'NONE', *, *, #65, .F. ) ;
#402 = FILL_AREA_STYLE_COLOUR ( '', #249 ) ;
#403 = ORIENTED_EDGE ( 'NONE', *, *, #123, .T. ) ;
#404 = DIRECTION ( 'NONE',  ( -1.000000000000000000, 0.000000000000000000, 0.000000000000000000 ) ) ;
#405 = VECTOR ( 'NONE', #70, 100.0000000000000000 ) ;
#406 = AXIS2_PLACEMENT_3D ( 'NONE', #62, #58, #320 ) ;
#407 = PRESENTATION_LAYER_ASSIGNMENT (  '', '', ( #370 ) ) ;
#408 = ADVANCED_FACE ( 'NONE', ( #294 ), #550, .F. ) ;
#409 = DIRECTION ( 'NONE',  ( 1.000000000000000000, 0.000000000000000000, 0.000000000000000000 ) ) ;
#410 = ORIENTED_EDGE ( 'NONE', *, *, #585, .T. ) ;
#411 = LINE ( 'NONE', #242, #582 ) ;
#412 = LINE ( 'NONE', #106, #433 ) ;
#413 = CARTESIAN_POINT ( 'NONE',  ( -0.5750000000000000666, 0.5749999999999999556, 5.000000000000000000 ) ) ;
#414 = EDGE_CURVE ( 'NONE', #682, #698, #802, .T. ) ;
#415 = LINE ( 'NONE', #734, #790 ) ;
#416 = DIRECTION ( 'NONE',  ( 1.000000000000000000, 0.000000000000000000, 0.000000000000000000 ) ) ;
#417 = DIRECTION ( 'NONE',  ( 0.000000000000000000, -1.000000000000000000, 0.000000000000000000 ) ) ;
#418 = VERTEX_POINT ( 'NONE', #810 ) ;
#419 = SURFACE_SIDE_STYLE ('',( #612 ) ) ;
#420 = CARTESIAN_POINT ( 'NONE',  ( -0.5750000000000000666, 0.5749999999999999556, 5.000000000000000000 ) ) ;
#421 = EDGE_CURVE ( 'NONE', #583, #702, #559, .T. ) ;
#422 = CIRCLE ( 'NONE', #406, 0.3000000000000000444 ) ;
#423 = CARTESIAN_POINT ( 'NONE',  ( 3.686287386450715076E-16, 0.5749999999999999556, 2.630000000000000338 ) ) ;
#424 = ORIENTED_EDGE ( 'NONE', *, *, #328, .F. ) ;
#425 = LINE ( 'NONE', #723, #818 ) ;
#426 = ADVANCED_FACE ( 'NONE', ( #817 ), #572, .F. ) ;
#427 = DIRECTION ( 'NONE',  ( 1.000000000000000000, 0.000000000000000000, -0.000000000000000000 ) ) ;
#428 = VERTEX_POINT ( 'NONE', #244 ) ;
#429 = DIRECTION ( 'NONE',  ( -1.000000000000000000, -1.508455196501571676E-16, 0.000000000000000000 ) ) ;
#430 = CARTESIAN_POINT ( 'NONE',  ( -0.5749999999999999556, -0.5750000000000000666, 0.000000000000000000 ) ) ;
#431 = ORIENTED_EDGE ( 'NONE', *, *, #184, .F. ) ;
#432 = DIRECTION ( 'NONE',  ( -0.000000000000000000, 0.000000000000000000, -1.000000000000000000 ) ) ;
#433 = VECTOR ( 'NONE', #792, 100.0000000000000000 ) ;
#434 = LINE ( 'NONE', #495, #599 ) ;
#435 = EDGE_CURVE ( 'NONE', #90, #418, #745, .T. ) ;
#436 = ORIENTED_EDGE ( 'NONE', *, *, #308, .F. ) ;
#437 = CARTESIAN_POINT ( 'NONE',  ( 0.2400000000000003797, -0.3149999999999998912, 2.390000000000000568 ) ) ;
#438 = ORIENTED_EDGE ( 'NONE', *, *, #752, .F. ) ;
#439 = EDGE_CURVE ( 'NONE', #674, #801, #246, .T. ) ;
#440 = FACE_BOUND ( 'NONE', #202, .T. ) ;
#441 = DIRECTION ( 'NONE',  ( 0.000000000000000000, -1.000000000000000000, 0.000000000000000000 ) ) ;
#442 = CARTESIAN_POINT ( 'NONE',  ( 0.5749999999999999556, 0.5750000000000000666, 5.000000000000000000 ) ) ;
#443 = DIRECTION ( 'NONE',  ( 0.000000000000000000, 0.000000000000000000, 1.000000000000000000 ) ) ;
#444 = EDGE_CURVE ( 'NONE', #57, #682, #309, .T. ) ;
#445 = VERTEX_POINT ( 'NONE', #126 ) ;
#446 = AXIS2_PLACEMENT_3D ( 'NONE', #536, #218, #468 ) ;
#447 = VECTOR ( 'NONE', #598, 100.0000000000000000 ) ;
#448 = FACE_OUTER_BOUND ( 'NONE', #365, .T. ) ;
#449 = VERTEX_POINT ( 'NONE', #130 ) ;
#450 = LINE ( 'NONE', #699, #262 ) ;
#451 = EDGE_CURVE ( 'NONE', #170, #136, #459, .T. ) ;
#452 = DIRECTION ( 'NONE',  ( 9.035018104045874392E-17, -1.000000000000000000, 0.000000000000000000 ) ) ;
#453 = CARTESIAN_POINT ( 'NONE',  ( 3.673940397442060115E-17, -0.3000000000000000444, 1.899999999999999911 ) ) ;
#454 = CARTESIAN_POINT ( 'NONE',  ( 0.5749999999999999556, 0.5750000000000000666, 5.000000000000000000 ) ) ;
#455 = EDGE_CURVE ( 'NONE', #428, #296, #758, .T. ) ;
#456 = VERTEX_POINT ( 'NONE', #174 ) ;
#457 = LINE ( 'NONE', #269, #303 ) ;
#458 = EDGE_LOOP ( 'NONE', ( #78, #499, #48, #38 ) ) ;
#459 = CIRCLE ( 'NONE', #304, 0.2399999999999999356 ) ;
#460 = EDGE_CURVE ( 'NONE', #100, #348, #505, .T. ) ;
#461 = CARTESIAN_POINT ( 'NONE',  ( 0.2400000000000003797, -0.5749999999999999556, 2.630000000000000338 ) ) ;
#462 = VECTOR ( 'NONE', #212, 100.0000000000000000 ) ;
#463 = FACE_OUTER_BOUND ( 'NONE', #720, .T. ) ;
#464 = DIRECTION ( 'NONE',  ( 1.000000000000000000, 0.000000000000000000, 0.000000000000000000 ) ) ;
#465 = ORIENTED_EDGE ( 'NONE', *, *, #648, .T. ) ;
#466 = CARTESIAN_POINT ( 'NONE',  ( -0.3149999999999998912, 0.2400000000000000744, 2.390000000000000568 ) ) ;
#467 = EDGE_CURVE ( 'NONE', #583, #287, #422, .T. ) ;
#468 = DIRECTION ( 'NONE',  ( 1.000000000000000000, 1.508455196501571676E-16, 0.000000000000000000 ) ) ;
#469 = ORIENTED_EDGE ( 'NONE', *, *, #59, .T. ) ;
#470 = DIRECTION ( 'NONE',  ( 0.000000000000000000, -1.000000000000000000, -0.000000000000000000 ) ) ;
#471 = CIRCLE ( 'NONE', #50, 0.2399999999999999356 ) ;
#472 = FACE_OUTER_BOUND ( 'NONE', #561, .T. ) ;
#473 = VECTOR ( 'NONE', #312, 100.0000000000000000 ) ;
#474 = AXIS2_PLACEMENT_3D ( 'NONE', #732, #538, #478 ) ;
#475 = EDGE_CURVE ( 'NONE', #313, #311, #314, .T. ) ;
#476 = LINE ( 'NONE', #663, #490 ) ;
#477 = EDGE_LOOP ( 'NONE', ( #573, #133, #679, #372 ) ) ;
#478 = DIRECTION ( 'NONE',  ( 1.000000000000000000, 0.000000000000000000, 0.000000000000000000 ) ) ;
#479 = ORIENTED_EDGE ( 'NONE', *, *, #360, .T. ) ;
#480 = CARTESIAN_POINT ( 'NONE',  ( 0.2400000000000003797, -0.5749999999999999556, 5.000000000000000000 ) ) ;
#481 = CARTESIAN_POINT ( 'NONE',  ( -0.5749999999999999556, 0.2400000000000000744, 2.630000000000000338 ) ) ;
#482 = ORIENTED_EDGE ( 'NONE', *, *, #693, .T. ) ;
#483 = CARTESIAN_POINT ( 'NONE',  ( -0.3149999999999998912, 0.2400000000000000744, 2.630000000000000338 ) ) ;
#484 = EDGE_CURVE ( 'NONE', #449, #766, #7, .T. ) ;
#485 = DIRECTION ( 'NONE',  ( 9.035018104045873159E-17, -1.000000000000000000, -0.000000000000000000 ) ) ;
#486 = DIRECTION ( 'NONE',  ( -1.000000000000000000, 0.000000000000000000, 0.000000000000000000 ) ) ;
#487 = ORIENTED_EDGE ( 'NONE', *, *, #705, .F. ) ;
#488 = ADVANCED_FACE ( 'NONE', ( #440, #255 ), #510, .T. ) ;
#489 = DIRECTION ( 'NONE',  ( 1.000000000000000000, 0.000000000000000000, 0.000000000000000000 ) ) ;
#490 = VECTOR ( 'NONE', #87, 100.0000000000000000 ) ;
#491 = COLOUR_RGB ( '',1.000000000000000000, 1.000000000000000000, 1.000000000000000000 ) ;
#492 = DIRECTION ( 'NONE',  ( 0.000000000000000000, 1.000000000000000000, 0.000000000000000000 ) ) ;
#493 = ORIENTED_EDGE ( 'NONE', *, *, #638, .T. ) ;
#494 = DIRECTION ( 'NONE',  ( -1.508455196501571676E-16, 1.000000000000000000, 0.000000000000000000 ) ) ;
#495 = CARTESIAN_POINT ( 'NONE',  ( 0.5749999999999999556, 0.5750000000000000666, 5.000000000000000000 ) ) ;
#496 = ORIENTED_EDGE ( 'NONE', *, *, #102, .F. ) ;
#497 = CARTESIAN_POINT ( 'NONE',  ( 0.000000000000000000, 0.2400000000000000744, 5.000000000000000000 ) ) ;
#498 = EDGE_CURVE ( 'NONE', #736, #718, #471, .T. ) ;
#499 = ORIENTED_EDGE ( 'NONE', *, *, #451, .F. ) ;
#500 = DIRECTION ( 'NONE',  ( 0.000000000000000000, 1.000000000000000000, 0.000000000000000000 ) ) ;
#501 = VECTOR ( 'NONE', #748, 100.0000000000000000 ) ;
#502 = PRESENTATION_LAYER_ASSIGNMENT (  '', '', ( #113 ) ) ;
#503 = EDGE_CURVE ( 'NONE', #798, #718, #375, .T. ) ;
#504 = VERTEX_POINT ( 'NONE', #754 ) ;
#505 = LINE ( 'NONE', #437, #775 ) ;
#506 = CARTESIAN_POINT ( 'NONE',  ( 0.2400000000000003797, -0.3149999999999998912, 2.630000000000000338 ) ) ;
#507 = CARTESIAN_POINT ( 'NONE',  ( 0.000000000000000000, 0.000000000000000000, 1.899999999999999911 ) ) ;
#508 = DIRECTION ( 'NONE',  ( -8.340016711426955288E-17, 1.000000000000000000, 0.000000000000000000 ) ) ;
#509 = EDGE_LOOP ( 'NONE', ( #548, #42, #157, #44, #197, #25, #812, #224, #641, #740, #401, #493, #358, #301, #211, #233, #691, #588, #292, #760 ) ) ;
#510 = PLANE ( 'NONE',  #23 ) ;
#511 = PRODUCT_DEFINITION ( 'UNKNOWN', '', #380, #55 ) ;
#512 = DIRECTION ( 'NONE',  ( 0.000000000000000000, 1.000000000000000000, 0.000000000000000000 ) ) ;
#513 = VECTOR ( 'NONE', #251, 100.0000000000000000 ) ;
#514 = AXIS2_PLACEMENT_3D ( 'NONE', #16, #394, #134 ) ;
#515 = CARTESIAN_POINT ( 'NONE',  ( 0.2400000000000003797, -0.3149999999999998912, 5.000000000000000000 ) ) ;
#516 = DIRECTION ( 'NONE',  ( 1.508455196501571676E-16, -1.000000000000000000, -0.000000000000000000 ) ) ;
#517 = FACE_OUTER_BOUND ( 'NONE', #458, .T. ) ;
#518 = ORIENTED_EDGE ( 'NONE', *, *, #349, .T. ) ;
#519 = LINE ( 'NONE', #656, #139 ) ;
#520 = EDGE_CURVE ( 'NONE', #287, #583, #110, .T. ) ;
#521 = DIRECTION ( 'NONE',  ( 0.000000000000000000, 0.000000000000000000, 1.000000000000000000 ) ) ;
#522 = DIRECTION ( 'NONE',  ( 0.000000000000000000, 0.000000000000000000, -1.000000000000000000 ) ) ;
#523 = VERTEX_POINT ( 'NONE', #692 ) ;
#524 = DIRECTION ( 'NONE',  ( 1.000000000000000000, -0.000000000000000000, -0.000000000000000000 ) ) ;
#525 = DIRECTION ( 'NONE',  ( 1.000000000000000000, 1.508455196501571676E-16, 0.000000000000000000 ) ) ;
#526 = ORIENTED_EDGE ( 'NONE', *, *, #342, .F. ) ;
#527 = AXIS2_PLACEMENT_3D ( 'NONE', #729, #153, #409 ) ;
#528 = CARTESIAN_POINT ( 'NONE',  ( 0.2400000000000003797, 0.5749999999999999556, 2.630000000000000338 ) ) ;
#529 = VECTOR ( 'NONE', #779, 100.0000000000000000 ) ;
#530 = PRODUCT ( 'pillar_60', 'pillar_60', '', ( #116 ) ) ;
#531 = CARTESIAN_POINT ( 'NONE',  ( 0.8349999999999999645, -0.2399999999999997691, 2.630000000000000338 ) ) ;
#532 = ORIENTED_EDGE ( 'NONE', *, *, #616, .T. ) ;
#533 = ORIENTED_EDGE ( 'NONE', *, *, #585, .F. ) ;
#534 = ADVANCED_FACE ( 'NONE', ( #383 ), #642, .F. ) ;
#535 = DIRECTION ( 'NONE',  ( 1.000000000000000000, 0.000000000000000000, 0.000000000000000000 ) ) ;
#536 = CARTESIAN_POINT ( 'NONE',  ( 0.5749999999999999556, 0.5750000000000000666, 5.000000000000000000 ) ) ;
#537 = ORIENTED_EDGE ( 'NONE', *, *, #41, .F. ) ;
#538 = DIRECTION ( 'NONE',  ( 0.000000000000000000, -1.000000000000000000, 0.000000000000000000 ) ) ;
#539 = CARTESIAN_POINT ( 'NONE',  ( 0.5750000000000000666, -0.5749999999999999556, 5.000000000000000000 ) ) ;
#540 = PLANE ( 'NONE',  #446 ) ;
#541 = ORIENTED_EDGE ( 'NONE', *, *, #253, .T. ) ;
#542 = CIRCLE ( 'NONE', #149, 0.3000000000000000444 ) ;
#543 = SURFACE_STYLE_USAGE ( .BOTH. , #419 ) ;
#544 = AXIS2_PLACEMENT_3D ( 'NONE', #163, #302, #429 ) ;
#545 = DIRECTION ( 'NONE',  ( -1.508455196501571429E-16, 1.000000000000000000, 0.000000000000000000 ) ) ;
#546 = AXIS2_PLACEMENT_3D ( 'NONE', #803, #225, #671 ) ;
#547 = DIRECTION ( 'NONE',  ( 1.000000000000000000, 1.508455196501571676E-16, -0.000000000000000000 ) ) ;
#548 = ORIENTED_EDGE ( 'NONE', *, *, #616, .F. ) ;
#549 =( LENGTH_UNIT ( ) NAMED_UNIT ( * ) SI_UNIT ( .CENTI., .METRE. ) );
#550 = PLANE ( 'NONE',  #177 ) ;
#551 = ORIENTED_EDGE ( 'NONE', *, *, #484, .T. ) ;
#552 = DIRECTION ( 'NONE',  ( -1.000000000000000000, 0.000000000000000000, 0.000000000000000000 ) ) ;
#553 = LINE ( 'NONE', #347, #355 ) ;
#554 = ORIENTED_EDGE ( 'NONE', *, *, #460, .T. ) ;
#555 = CARTESIAN_POINT ( 'NONE',  ( 3.686287386450715076E-16, 0.5749999999999999556, 2.630000000000000338 ) ) ;
#556 = AXIS2_PLACEMENT_3D ( 'NONE', #101, #232, #614 ) ;
#557 = AXIS2_PLACEMENT_3D ( 'NONE', #321, #310, #427 ) ;
#558 = ORIENTED_EDGE ( 'NONE', *, *, #724, .T. ) ;
#559 = LINE ( 'NONE', #685, #501 ) ;
#560 = EDGE_CURVE ( 'NONE', #504, #798, #450, .T. ) ;
#561 = EDGE_LOOP ( 'NONE', ( #537, #783, #730, #753 ) ) ;
#562 = DIRECTION ( 'NONE',  ( 0.000000000000000000, 0.000000000000000000, -1.000000000000000000 ) ) ;
#563 = EDGE_CURVE ( 'NONE', #136, #688, #85, .T. ) ;
#564 = UNCERTAINTY_MEASURE_WITH_UNIT (LENGTH_MEASURE( 1.000000000000000082E-05 ), #570, 'distance_accuracy_value', 'NONE');
#565 = DIRECTION ( 'NONE',  ( -1.000000000000000000, 0.000000000000000000, 0.000000000000000000 ) ) ;
#566 = ORIENTED_EDGE ( 'NONE', *, *, #241, .T. ) ;
#567 = CARTESIAN_POINT ( 'NONE',  ( -0.5749999999999999556, -0.2399999999999998523, 5.000000000000000000 ) ) ;
#568 = AXIS2_PLACEMENT_3D ( 'NONE', #454, #131, #704 ) ;
#569 = FACE_OUTER_BOUND ( 'NONE', #707, .T. ) ;
#570 =( LENGTH_UNIT ( ) NAMED_UNIT ( * ) SI_UNIT ( .CENTI., .METRE. ) );
#571 = DIRECTION ( 'NONE',  ( -1.000000000000000000, 0.000000000000000000, 0.000000000000000000 ) ) ;
#572 = PLANE ( 'NONE',  #345 ) ;
#573 = ORIENTED_EDGE ( 'NONE', *, *, #717, .F. ) ;
#574 = CARTESIAN_POINT ( 'NONE',  ( 0.8349999999999999645, 0.2400000000000000744, 2.390000000000000568 ) ) ;
#575 = EDGE_CURVE ( 'NONE', #523, #311, #12, .T. ) ;
#576 = ORIENTED_EDGE ( 'NONE', *, *, #503, .T. ) ;
#577 = DIRECTION ( 'NONE',  ( 0.000000000000000000, 1.000000000000000000, 0.000000000000000000 ) ) ;
#578 = CARTESIAN_POINT ( 'NONE',  ( -0.2399999999999996303, 0.3149999999999998912, 2.630000000000000338 ) ) ;
#579 = CARTESIAN_POINT ( 'NONE',  ( 0.000000000000000000, 0.000000000000000000, 0.000000000000000000 ) ) ;
#580 = CARTESIAN_POINT ( 'NONE',  ( 0.2400000000000003797, 0.3149999999999998912, 2.390000000000000568 ) ) ;
#581 = AXIS2_PLACEMENT_3D ( 'NONE', #37, #750, #508 ) ;
#582 = VECTOR ( 'NONE', #565, 100.0000000000000000 ) ;
#583 = VERTEX_POINT ( 'NONE', #767 ) ;
#584 = DIRECTION ( 'NONE',  ( 8.340016711426955288E-17, -1.000000000000000000, 0.000000000000000000 ) ) ;
#585 = EDGE_CURVE ( 'NONE', #100, #311, #261, .T. ) ;
#586 = LINE ( 'NONE', #759, #289 ) ;
#587 = ORIENTED_EDGE ( 'NONE', *, *, #216, .T. ) ;
#588 = ORIENTED_EDGE ( 'NONE', *, *, #308, .T. ) ;
#589 = SURFACE_SIDE_STYLE ('',( #203 ) ) ;
#590 = ADVANCED_FACE ( 'NONE', ( #10 ), #337, .F. ) ;
#591 = CARTESIAN_POINT ( 'NONE',  ( 0.5750000000000000666, -0.5749999999999999556, 5.000000000000000000 ) ) ;
#592 = ORIENTED_EDGE ( 'NONE', *, *, #575, .T. ) ;
#593 = DIRECTION ( 'NONE',  ( 0.000000000000000000, 1.000000000000000000, 0.000000000000000000 ) ) ;
#594 = MANIFOLD_SOLID_BREP ( 'Fillet7', #74 ) ;
#595 = DIRECTION ( 'NONE',  ( -1.000000000000000000, -0.000000000000000000, -0.000000000000000000 ) ) ;
#596 = ORIENTED_EDGE ( 'NONE', *, *, #689, .T. ) ;
#597 = VECTOR ( 'NONE', #777, 100.0000000000000000 ) ;
#598 = DIRECTION ( 'NONE',  ( 1.000000000000000000, 0.000000000000000000, 0.000000000000000000 ) ) ;
#599 = VECTOR ( 'NONE', #56, 100.0000000000000000 ) ;
#600 = ORIENTED_EDGE ( 'NONE', *, *, #399, .T. ) ;
#601 = ORIENTED_EDGE ( 'NONE', *, *, #693, .F. ) ;
#602 = ADVANCED_FACE ( 'NONE', ( #137 ), #774, .F. ) ;
#603 = FACE_OUTER_BOUND ( 'NONE', #625, .T. ) ;
#604 = LINE ( 'NONE', #30, #36 ) ;
#605 = VERTEX_POINT ( 'NONE', #281 ) ;
#606 = FACE_OUTER_BOUND ( 'NONE', #173, .T. ) ;
#607 = ORIENTED_EDGE ( 'NONE', *, *, #467, .F. ) ;
#608 = CARTESIAN_POINT ( 'NONE',  ( 0.2400000000000003797, -0.3149999999999998912, 2.390000000000000568 ) ) ;
#609 = APPLICATION_CONTEXT ( 'automotive_design' ) ;
#610 = PLANE ( 'NONE',  #581 ) ;
#611 = ORIENTED_EDGE ( 'NONE', *, *, #59, .F. ) ;
#612 = SURFACE_STYLE_FILL_AREA ( #72 ) ;
#613 = VECTOR ( 'NONE', #8, 100.0000000000000000 ) ;
#614 = DIRECTION ( 'NONE',  ( 0.000000000000000000, 1.000000000000000000, 0.000000000000000000 ) ) ;
#615 = CIRCLE ( 'NONE', #318, 0.2399999999999999356 ) ;
#616 = EDGE_CURVE ( 'NONE', #57, #340, #148, .T. ) ;
#617 = VERTEX_POINT ( 'NONE', #782 ) ;
#618 = FACE_OUTER_BOUND ( 'NONE', #84, .T. ) ;
#619 = VERTEX_POINT ( 'NONE', #528 ) ;
#620 = DIRECTION ( 'NONE',  ( 0.000000000000000000, -1.000000000000000000, 0.000000000000000000 ) ) ;
#621 = CARTESIAN_POINT ( 'NONE',  ( -0.5749999999999999556, -0.2399999999999998523, 2.630000000000000338 ) ) ;
#622 = ORIENTED_EDGE ( 'NONE', *, *, #752, .T. ) ;
#623 = LINE ( 'NONE', #159, #332 ) ;
#624 = EDGE_CURVE ( 'NONE', #766, #801, #649, .T. ) ;
#625 = EDGE_LOOP ( 'NONE', ( #664, #144, #600, #245 ) ) ;
#626 = CARTESIAN_POINT ( 'NONE',  ( -0.2399999999999996858, 0.5749999999999999556, 5.000000000000000000 ) ) ;
#627 = VECTOR ( 'NONE', #701, 100.0000000000000000 ) ;
#628 = ORIENTED_EDGE ( 'NONE', *, *, #247, .F. ) ;
#629 = DIRECTION ( 'NONE',  ( 1.000000000000000000, 0.000000000000000000, 0.000000000000000000 ) ) ;
#630 = ORIENTED_EDGE ( 'NONE', *, *, #435, .F. ) ;
#631 = DIRECTION ( 'NONE',  ( 1.000000000000000000, 9.035018104045874392E-17, -0.000000000000000000 ) ) ;
#632 = EDGE_CURVE ( 'NONE', #725, #617, #79, .T. ) ;
#633 = CARTESIAN_POINT ( 'NONE',  ( 0.3149999999999998912, -0.2399999999999997691, 2.390000000000000568 ) ) ;
#634 = LINE ( 'NONE', #111, #776 ) ;
#635 = ORIENTED_EDGE ( 'NONE', *, *, #354, .T. ) ;
#636 = CARTESIAN_POINT ( 'NONE',  ( 0.3149999999999998912, 1.517883041479706208E-16, 2.630000000000000338 ) ) ;
#637 = VECTOR ( 'NONE', #485, 100.0000000000000000 ) ;
#638 = EDGE_CURVE ( 'NONE', #348, #313, #271, .T. ) ;
#639 = CIRCLE ( 'NONE', #98, 0.2399999999999999911 ) ;
#640 = LINE ( 'NONE', #124, #367 ) ;
#641 = ORIENTED_EDGE ( 'NONE', *, *, #731, .T. ) ;
#642 = CYLINDRICAL_SURFACE ( 'NONE', #721, 0.3000000000000000444 ) ;
#643 = CARTESIAN_POINT ( 'NONE',  ( -0.3149999999999998912, -0.2399999999999997691, 5.000000000000000000 ) ) ;
#644 = ORIENTED_EDGE ( 'NONE', *, *, #455, .F. ) ;
#645 = DIRECTION ( 'NONE',  ( -0.000000000000000000, 0.000000000000000000, -1.000000000000000000 ) ) ;
#646 = CARTESIAN_POINT ( 'NONE',  ( -0.2399999999999996303, -0.3149999999999998912, 2.390000000000000568 ) ) ;
#647 = ORIENTED_EDGE ( 'NONE', *, *, #793, .T. ) ;
#648 = EDGE_CURVE ( 'NONE', #523, #31, #519, .T. ) ;
#649 = LINE ( 'NONE', #215, #529 ) ;
#650 = VECTOR ( 'NONE', #336, 100.0000000000000000 ) ;
#651 = VECTOR ( 'NONE', #807, 100.0000000000000000 ) ;
#652 = CARTESIAN_POINT ( 'NONE',  ( 3.673940397442060115E-17, -0.3000000000000000444, 0.000000000000000000 ) ) ;
#653 = ORIENTED_EDGE ( 'NONE', *, *, #102, .T. ) ;
#654 = CARTESIAN_POINT ( 'NONE',  ( 0.3149999999999998912, 1.517883041479706208E-16, 2.630000000000000338 ) ) ;
#655 = ORIENTED_EDGE ( 'NONE', *, *, #414, .F. ) ;
#656 = CARTESIAN_POINT ( 'NONE',  ( -0.2399999999999996858, -0.5749999999999999556, 5.000000000000000000 ) ) ;
#657 = EDGE_CURVE ( 'NONE', #682, #449, #266, .T. ) ;
#658 = FACE_OUTER_BOUND ( 'NONE', #97, .T. ) ;
#659 = ORIENTED_EDGE ( 'NONE', *, *, #300, .F. ) ;
#660 = CARTESIAN_POINT ( 'NONE',  ( 3.469446951953614189E-16, -0.5749999999999999556, 2.630000000000000338 ) ) ;
#661 = ADVANCED_FACE ( 'NONE', ( #770 ), #22, .F. ) ;
#662 = VECTOR ( 'NONE', #522, 100.0000000000000000 ) ;
#663 = CARTESIAN_POINT ( 'NONE',  ( 0.5749999999999999556, 0.5750000000000000666, 0.000000000000000000 ) ) ;
#664 = ORIENTED_EDGE ( 'NONE', *, *, #520, .F. ) ;
#665 = VECTOR ( 'NONE', #500, 100.0000000000000000 ) ;
#666 = PLANE ( 'NONE',  #390 ) ;
#667 = ORIENTED_EDGE ( 'NONE', *, *, #123, .F. ) ;
#668 = PRESENTATION_STYLE_ASSIGNMENT (( #543 ) ) ;
#669 = FACE_OUTER_BOUND ( 'NONE', #270, .T. ) ;
#670 = DIRECTION ( 'NONE',  ( 0.000000000000000000, 0.000000000000000000, 1.000000000000000000 ) ) ;
#671 = DIRECTION ( 'NONE',  ( 0.000000000000000000, 1.000000000000000000, 0.000000000000000000 ) ) ;
#672 = ADVANCED_FACE ( 'NONE', ( #606 ), #32, .F. ) ;
#673 = PLANE ( 'NONE',  #544 ) ;
#674 = VERTEX_POINT ( 'NONE', #286 ) ;
#675 = CARTESIAN_POINT ( 'NONE',  ( 0.5750000000000000666, -0.5749999999999999556, 5.000000000000000000 ) ) ;
#676 = AXIS2_PLACEMENT_3D ( 'NONE', #27, #547, #417 ) ;
#677 = DIRECTION ( 'NONE',  ( 0.000000000000000000, 1.000000000000000000, -0.000000000000000000 ) ) ;
#678 = LINE ( 'NONE', #675, #39 ) ;
#679 = ORIENTED_EDGE ( 'NONE', *, *, #632, .T. ) ;
#680 = DIRECTION ( 'NONE',  ( 0.000000000000000000, -1.000000000000000000, 0.000000000000000000 ) ) ;
#681 = CARTESIAN_POINT ( 'NONE',  ( -0.5750000000000000666, 0.5749999999999999556, 0.000000000000000000 ) ) ;
#682 = VERTEX_POINT ( 'NONE', #726 ) ;
#683 = CARTESIAN_POINT ( 'NONE',  ( 0.2400000000000003797, -0.3149999999999998912, 5.000000000000000000 ) ) ;
#684 = ORIENTED_EDGE ( 'NONE', *, *, #806, .F. ) ;
#685 = CARTESIAN_POINT ( 'NONE',  ( 0.000000000000000000, 0.3000000000000000444, 1.899999999999999911 ) ) ;
#686 = CIRCLE ( 'NONE', #676, 0.2399999999999999356 ) ;
#687 = VECTOR ( 'NONE', #796, 100.0000000000000000 ) ;
#688 = VERTEX_POINT ( 'NONE', #357 ) ;
#689 = EDGE_CURVE ( 'NONE', #725, #773, #615, .T. ) ;
#690 = DIRECTION ( 'NONE',  ( 0.000000000000000000, 1.000000000000000000, 0.000000000000000000 ) ) ;
#691 = ORIENTED_EDGE ( 'NONE', *, *, #455, .T. ) ;
#692 = CARTESIAN_POINT ( 'NONE',  ( -0.2399999999999996858, -0.5749999999999999556, 2.630000000000000338 ) ) ;
#693 = EDGE_CURVE ( 'NONE', #180, #121, #553, .T. ) ;
#694 = ORIENTED_EDGE ( 'NONE', *, *, #190, .F. ) ;
#695 = DIRECTION ( 'NONE',  ( 0.000000000000000000, 1.000000000000000000, 0.000000000000000000 ) ) ;
#696 = CIRCLE ( 'NONE', #556, 0.3000000000000000444 ) ;
#697 = DIRECTION ( 'NONE',  ( -1.000000000000000000, 0.000000000000000000, 0.000000000000000000 ) ) ;
#698 = VERTEX_POINT ( 'NONE', #166 ) ;
#699 = CARTESIAN_POINT ( 'NONE',  ( 0.000000000000000000, -0.2399999999999997691, 5.000000000000000000 ) ) ;
#700 = PLANE ( 'NONE',  #568 ) ;
#701 = DIRECTION ( 'NONE',  ( -0.000000000000000000, 0.000000000000000000, -1.000000000000000000 ) ) ;
#702 = VERTEX_POINT ( 'NONE', #722 ) ;
#703 = ADVANCED_BREP_SHAPE_REPRESENTATION ( 'pillar_60', ( #594, #557 ), #277 ) ;
#704 = DIRECTION ( 'NONE',  ( 1.508455196501571676E-16, -1.000000000000000000, 0.000000000000000000 ) ) ;
#705 = EDGE_CURVE ( 'NONE', #147, #57, #415, .T. ) ;
#706 = CARTESIAN_POINT ( 'NONE',  ( -0.2399999999999996303, 0.3149999999999998912, 5.000000000000000000 ) ) ;
#707 = EDGE_LOOP ( 'NONE', ( #28, #816, #684, #482, #518, #769, #436, #67 ) ) ;
#708 =( LENGTH_UNIT ( ) NAMED_UNIT ( * ) SI_UNIT ( .CENTI., .METRE. ) );
#709 = UNCERTAINTY_MEASURE_WITH_UNIT (LENGTH_MEASURE( 1.000000000000000082E-05 ), #549, 'distance_accuracy_value', 'NONE');
#710 = ORIENTED_EDGE ( 'NONE', *, *, #475, .F. ) ;
#711 = VECTOR ( 'NONE', #400, 100.0000000000000000 ) ;
#712 = MECHANICAL_DESIGN_GEOMETRIC_PRESENTATION_REPRESENTATION (  '', ( #113 ), #179 ) ;
#713 = DIRECTION ( 'NONE',  ( 0.000000000000000000, 1.000000000000000000, 0.000000000000000000 ) ) ;
#714 = FILL_AREA_STYLE_COLOUR ( '', #491 ) ;
#715 = EDGE_LOOP ( 'NONE', ( #53, #352, #716, #635 ) ) ;
#716 = ORIENTED_EDGE ( 'NONE', *, *, #435, .T. ) ;
#717 = EDGE_CURVE ( 'NONE', #736, #265, #784, .T. ) ;
#718 = VERTEX_POINT ( 'NONE', #621 ) ;
#719 = PLANE ( 'NONE',  #527 ) ;
#720 = EDGE_LOOP ( 'NONE', ( #659, #558, #229, #647, #388, #398, #297, #250 ) ) ;
#721 = AXIS2_PLACEMENT_3D ( 'NONE', #68, #258, #761 ) ;
#722 = CARTESIAN_POINT ( 'NONE',  ( 0.000000000000000000, 0.3000000000000000444, 0.000000000000000000 ) ) ;
#723 = CARTESIAN_POINT ( 'NONE',  ( -0.2399999999999996303, -0.3149999999999998912, 5.000000000000000000 ) ) ;
#724 = EDGE_CURVE ( 'NONE', #619, #456, #284, .T. ) ;
#725 = VERTEX_POINT ( 'NONE', #483 ) ;
#726 = CARTESIAN_POINT ( 'NONE',  ( -0.2399999999999996303, 0.5749999999999999556, 5.000000000000000000 ) ) ;
#727 = ORIENTED_EDGE ( 'NONE', *, *, #731, .F. ) ;
#728 = CARTESIAN_POINT ( 'NONE',  ( 0.5749999999999999556, 0.2400000000000000744, 5.000000000000000000 ) ) ;
#729 = CARTESIAN_POINT ( 'NONE',  ( -0.8349999999999999645, -0.2399999999999997691, 2.390000000000000568 ) ) ;
#730 = ORIENTED_EDGE ( 'NONE', *, *, #184, .T. ) ;
#731 = EDGE_CURVE ( 'NONE', #674, #31, #678, .T. ) ;
#732 = CARTESIAN_POINT ( 'NONE',  ( 0.2400000000000003797, 0.3149999999999998912, 2.390000000000000568 ) ) ;
#733 = DIRECTION ( 'NONE',  ( 1.000000000000000000, 0.000000000000000000, 0.000000000000000000 ) ) ;
#734 = CARTESIAN_POINT ( 'NONE',  ( -0.2399999999999996303, 0.3149999999999998912, 2.390000000000000568 ) ) ;
#735 = AXIS2_PLACEMENT_3D ( 'NONE', #608, #677, #33 ) ;
#736 = VERTEX_POINT ( 'NONE', #799 ) ;
#737 = CARTESIAN_POINT ( 'NONE',  ( 0.5749999999999999556, 0.5750000000000000666, 0.000000000000000000 ) ) ;
#738 = ADVANCED_FACE ( 'NONE', ( #618 ), #43, .F. ) ;
#739 = DIRECTION ( 'NONE',  ( 1.807003620809174632E-16, 1.000000000000000000, 0.000000000000000000 ) ) ;
#740 = ORIENTED_EDGE ( 'NONE', *, *, #354, .F. ) ;
#741 = DIRECTION ( 'NONE',  ( -0.000000000000000000, 1.000000000000000000, -0.000000000000000000 ) ) ;
#742 = ADVANCED_FACE ( 'NONE', ( #603 ), #103, .F. ) ;
#743 = CARTESIAN_POINT ( 'NONE',  ( -0.5750000000000000666, -0.2399999999999997691, 5.000000000000000000 ) ) ;
#744 = ORIENTED_EDGE ( 'NONE', *, *, #241, .F. ) ;
#745 = LINE ( 'NONE', #54, #96 ) ;
#746 = EDGE_LOOP ( 'NONE', ( #362, #805 ) ) ;
#747 = VECTOR ( 'NONE', #595, 100.0000000000000000 ) ;
#748 = DIRECTION ( 'NONE',  ( -0.000000000000000000, 0.000000000000000000, -1.000000000000000000 ) ) ;
#749 = AXIS2_PLACEMENT_3D ( 'NONE', #555, #494, #733 ) ;
#750 = DIRECTION ( 'NONE',  ( 1.000000000000000000, 8.340016711426955288E-17, 0.000000000000000000 ) ) ;
#751 =( NAMED_UNIT ( * ) SI_UNIT ( $, .STERADIAN. ) SOLID_ANGLE_UNIT ( ) );
#752 = EDGE_CURVE ( 'NONE', #90, #100, #639, .T. ) ;
#753 = ORIENTED_EDGE ( 'NONE', *, *, #800, .T. ) ;
#754 = CARTESIAN_POINT ( 'NONE',  ( -0.3149999999999998912, -0.2399999999999997691, 5.000000000000000000 ) ) ;
#755 = CYLINDRICAL_SURFACE ( 'NONE', #804, 0.2399999999999999911 ) ;
#756 = APPLICATION_PROTOCOL_DEFINITION ( 'draft international standard', 'automotive_design', 1998, #188 ) ;
#757 = DIRECTION ( 'NONE',  ( 0.000000000000000000, 0.000000000000000000, 1.000000000000000000 ) ) ;
#758 = LINE ( 'NONE', #497, #316 ) ;
#759 = CARTESIAN_POINT ( 'NONE',  ( 0.3149999999999998912, 0.2400000000000000744, 2.390000000000000568 ) ) ;
#760 = ORIENTED_EDGE ( 'NONE', *, *, #253, .F. ) ;
#761 = DIRECTION ( 'NONE',  ( 0.000000000000000000, 1.000000000000000000, 0.000000000000000000 ) ) ;
#762 = EDGE_CURVE ( 'NONE', #617, #265, #411, .T. ) ;
#763 = AXIS2_PLACEMENT_3D ( 'NONE', #109, #236, #363 ) ;
#764 = FACE_OUTER_BOUND ( 'NONE', #789, .T. ) ;
#765 = ORIENTED_EDGE ( 'NONE', *, *, #151, .F. ) ;
#766 = VERTEX_POINT ( 'NONE', #681 ) ;
#767 = CARTESIAN_POINT ( 'NONE',  ( 0.000000000000000000, 0.3000000000000000444, 1.899999999999999911 ) ) ;
#768 = CARTESIAN_POINT ( 'NONE',  ( -0.2399999999999996303, -0.3149999999999998912, 2.630000000000000338 ) ) ;
#769 = ORIENTED_EDGE ( 'NONE', *, *, #793, .F. ) ;
#770 = FACE_OUTER_BOUND ( 'NONE', #509, .T. ) ;
#771 = ADVANCED_FACE ( 'NONE', ( #60 ), #317, .F. ) ;
#772 = PLANE ( 'NONE',  #368 ) ;
#773 = VERTEX_POINT ( 'NONE', #364 ) ;
#774 = PLANE ( 'NONE',  #514 ) ;
#775 = VECTOR ( 'NONE', #443, 100.0000000000000000 ) ;
#776 = VECTOR ( 'NONE', #371, 100.0000000000000000 ) ;
#777 = DIRECTION ( 'NONE',  ( -1.000000000000000000, 0.000000000000000000, 0.000000000000000000 ) ) ;
#778 = ORIENTED_EDGE ( 'NONE', *, *, #335, .F. ) ;
#779 = DIRECTION ( 'NONE',  ( 1.508455196501571429E-16, -1.000000000000000000, 0.000000000000000000 ) ) ;
#780 = DIRECTION ( 'NONE',  ( 1.000000000000000000, 1.508455196501571429E-16, 0.000000000000000000 ) ) ;
#781 = ORIENTED_EDGE ( 'NONE', *, *, #498, .T. ) ;
#782 = CARTESIAN_POINT ( 'NONE',  ( -0.3149999999999998912, 0.2400000000000000744, 5.000000000000000000 ) ) ;
#783 = ORIENTED_EDGE ( 'NONE', *, *, #162, .T. ) ;
#784 = LINE ( 'NONE', #94, #687 ) ;
#785 = CARTESIAN_POINT ( 'NONE',  ( 0.8349999999999999645, -0.2399999999999997691, 2.390000000000000568 ) ) ;
#786 = AXIS2_PLACEMENT_3D ( 'NONE', #654, #206, #391 ) ;
#787 = AXIS2_PLACEMENT_3D ( 'NONE', #785, #680, #489 ) ;
#788 = LINE ( 'NONE', #339, #248 ) ;
#789 = EDGE_LOOP ( 'NONE', ( #431, #214, #566, #117 ) ) ;
#790 = VECTOR ( 'NONE', #230, 100.0000000000000000 ) ;
#791 =( NAMED_UNIT ( * ) PLANE_ANGLE_UNIT ( ) SI_UNIT ( $, .RADIAN. ) );
#792 = DIRECTION ( 'NONE',  ( 0.000000000000000000, 0.000000000000000000, 1.000000000000000000 ) ) ;
#793 = EDGE_CURVE ( 'NONE', #445, #795, #434, .T. ) ;
#794 = CARTESIAN_POINT ( 'NONE',  ( 0.5750000000000000666, -0.5749999999999999556, 0.000000000000000000 ) ) ;
#795 = VERTEX_POINT ( 'NONE', #120 ) ;
#796 = DIRECTION ( 'NONE',  ( 0.000000000000000000, 0.000000000000000000, 1.000000000000000000 ) ) ;
#797 = PLANE ( 'NONE',  #787 ) ;
#798 = VERTEX_POINT ( 'NONE', #743 ) ;
#799 = CARTESIAN_POINT ( 'NONE',  ( -0.5749999999999999556, 0.2400000000000000744, 2.630000000000000338 ) ) ;
#800 = EDGE_CURVE ( 'NONE', #256, #61, #172, .T. ) ;
#801 = VERTEX_POINT ( 'NONE', #430 ) ;
#802 = LINE ( 'NONE', #626, #651 ) ;
#803 = CARTESIAN_POINT ( 'NONE',  ( 0.000000000000000000, 0.000000000000000000, 5.000000000000000000 ) ) ;
#804 = AXIS2_PLACEMENT_3D ( 'NONE', #186, #441, #535 ) ;
#805 = ORIENTED_EDGE ( 'NONE', *, *, #520, .T. ) ;
#806 = EDGE_CURVE ( 'NONE', #180, #61, #634, .T. ) ;
#807 = DIRECTION ( 'NONE',  ( 0.000000000000000000, 0.000000000000000000, -1.000000000000000000 ) ) ;
#808 = AXIS2_PLACEMENT_3D ( 'NONE', #361, #238, #492 ) ;
#809 = EDGE_LOOP ( 'NONE', ( #108, #410, #710, #183 ) ) ;
#810 = CARTESIAN_POINT ( 'NONE',  ( -0.2399999999999996303, -0.3149999999999998912, 5.000000000000000000 ) ) ;
#811 = SHAPE_DEFINITION_REPRESENTATION ( #299, #703 ) ;
#812 = ORIENTED_EDGE ( 'NONE', *, *, #560, .T. ) ;
#813 = EDGE_LOOP ( 'NONE', ( #125, #465, #727, #154, #191, #601, #778, #167 ) ) ;
#814 = CARTESIAN_POINT ( 'NONE',  ( -0.8349999999999999645, 0.2400000000000000744, 2.390000000000000568 ) ) ;
#815 =( NAMED_UNIT ( * ) PLANE_ANGLE_UNIT ( ) SI_UNIT ( $, .RADIAN. ) );
#816 = ORIENTED_EDGE ( 'NONE', *, *, #41, .T. ) ;
#817 = FACE_OUTER_BOUND ( 'NONE', #477, .T. ) ;
#818 = VECTOR ( 'NONE', #91, 100.0000000000000000 ) ;
ENDSEC;
END-ISO-10303-21;
