ISO-10303-21;
HEADER;
FILE_DESCRIPTION (( 'STEP AP214' ),
    '1' );
FILE_NAME ('pillar_61.STEP',
    '2026-06-19T13:49:27',
    ( '' ),
    ( '' ),
    'SwSTEP 2.0',
    'SolidWorks 2023',
    '' );
FILE_SCHEMA (( 'AUTOMOTIVE_DESIGN' ));
ENDSEC;

DATA;
#1 = EDGE_CURVE ( 'NONE', #518, #544, #793, .T. ) ;
#2 = DIRECTION ( 'NONE',  ( -0.000000000000000000, 1.000000000000000000, -0.000000000000000000 ) ) ;
#3 = VECTOR ( 'NONE', #659, 100.0000000000000000 ) ;
#4 = AXIS2_PLACEMENT_3D ( 'NONE', #750, #496, #438 ) ;
#5 = CARTESIAN_POINT ( 'NONE',  ( 0.5749999999999999556, 0.2400000000000000744, 5.000000000000000000 ) ) ;
#6 = ORIENTED_EDGE ( 'NONE', *, *, #621, .F. ) ;
#7 = EDGE_CURVE ( 'NONE', #518, #679, #166, .T. ) ;
#8 = CARTESIAN_POINT ( 'NONE',  ( -0.5750000000000000666, 0.5749999999999999556, 5.000000000000000000 ) ) ;
#9 = ORIENTED_EDGE ( 'NONE', *, *, #695, .T. ) ;
#10 = PRODUCT_RELATED_PRODUCT_CATEGORY ( 'part', '', ( #805 ) ) ;
#11 = DIRECTION ( 'NONE',  ( -1.000000000000000000, 0.000000000000000000, 0.000000000000000000 ) ) ;
#12 = DIRECTION ( 'NONE',  ( -1.508455196501571676E-16, 1.000000000000000000, 0.000000000000000000 ) ) ;
#13 = ORIENTED_EDGE ( 'NONE', *, *, #690, .T. ) ;
#14 = AXIS2_PLACEMENT_3D ( 'NONE', #643, #589, #163 ) ;
#15 = CARTESIAN_POINT ( 'NONE',  ( 0.2400000000000003242, 2.001604010742471858E-17, 5.000000000000000000 ) ) ;
#16 = EDGE_CURVE ( 'NONE', #220, #90, #433, .T. ) ;
#17 = VERTEX_POINT ( 'NONE', #502 ) ;
#18 = DIRECTION ( 'NONE',  ( 0.000000000000000000, 0.000000000000000000, 1.000000000000000000 ) ) ;
#19 =( NAMED_UNIT ( * ) PLANE_ANGLE_UNIT ( ) SI_UNIT ( $, .RADIAN. ) );
#20 = ORIENTED_EDGE ( 'NONE', *, *, #7, .F. ) ;
#21 = ORIENTED_EDGE ( 'NONE', *, *, #181, .F. ) ;
#22 = PLANE ( 'NONE',  #398 ) ;
#23 = CARTESIAN_POINT ( 'NONE',  ( 0.8349999999999999645, 0.2400000000000000744, 2.390000000000000568 ) ) ;
#24 = ORIENTED_EDGE ( 'NONE', *, *, #33, .F. ) ;
#25 = AXIS2_PLACEMENT_3D ( 'NONE', #507, #523, #331 ) ;
#26 = VECTOR ( 'NONE', #354, 100.0000000000000000 ) ;
#27 = ORIENTED_EDGE ( 'NONE', *, *, #564, .F. ) ;
#28 = CARTESIAN_POINT ( 'NONE',  ( -0.3149999999999998912, -0.2399999999999997691, 5.000000000000000000 ) ) ;
#29 = FACE_OUTER_BOUND ( 'NONE', #251, .T. ) ;
#30 = LINE ( 'NONE', #230, #214 ) ;
#31 = ORIENTED_EDGE ( 'NONE', *, *, #490, .F. ) ;
#32 = DIRECTION ( 'NONE',  ( 0.000000000000000000, -1.000000000000000000, 0.000000000000000000 ) ) ;
#33 = EDGE_CURVE ( 'NONE', #810, #518, #747, .T. ) ;
#34 = FACE_OUTER_BOUND ( 'NONE', #525, .T. ) ;
#35 = ORIENTED_EDGE ( 'NONE', *, *, #521, .T. ) ;
#36 = VERTEX_POINT ( 'NONE', #186 ) ;
#37 = ORIENTED_EDGE ( 'NONE', *, *, #292, .T. ) ;
#38 = CARTESIAN_POINT ( 'NONE',  ( 3.469446951953614189E-16, -0.5749999999999999556, 2.630000000000000338 ) ) ;
#39 = PLANE ( 'NONE',  #753 ) ;
#40 = EDGE_CURVE ( 'NONE', #392, #347, #817, .T. ) ;
#41 = DIRECTION ( 'NONE',  ( 0.000000000000000000, 0.000000000000000000, -1.000000000000000000 ) ) ;
#42 = ORIENTED_EDGE ( 'NONE', *, *, #428, .F. ) ;
#43 = AXIS2_PLACEMENT_3D ( 'NONE', #644, #2, #255 ) ;
#44 = LINE ( 'NONE', #594, #193 ) ;
#45 = VECTOR ( 'NONE', #612, 100.0000000000000000 ) ;
#46 = DIRECTION ( 'NONE',  ( -1.000000000000000000, 0.000000000000000000, 0.000000000000000000 ) ) ;
#47 =( GEOMETRIC_REPRESENTATION_CONTEXT ( 3 ) GLOBAL_UNCERTAINTY_ASSIGNED_CONTEXT ( ( #361 ) ) GLOBAL_UNIT_ASSIGNED_CONTEXT ( ( #617, #568, #130 ) ) REPRESENTATION_CONTEXT ( 'NONE', 'WORKASPACE' ) );
#48 = FACE_OUTER_BOUND ( 'NONE', #593, .T. ) ;
#49 = ADVANCED_FACE ( 'NONE', ( #666 ), #302, .F. ) ;
#50 = DIRECTION ( 'NONE',  ( 1.000000000000000000, 1.508455196501571676E-16, 0.000000000000000000 ) ) ;
#51 = ORIENTED_EDGE ( 'NONE', *, *, #686, .T. ) ;
#52 = CARTESIAN_POINT ( 'NONE',  ( 0.5749999999999999556, 0.2400000000000000744, 5.000000000000000000 ) ) ;
#53 = LINE ( 'NONE', #557, #655 ) ;
#54 = DIRECTION ( 'NONE',  ( 0.000000000000000000, 1.000000000000000000, 0.000000000000000000 ) ) ;
#55 = ORIENTED_EDGE ( 'NONE', *, *, #720, .F. ) ;
#56 = DIRECTION ( 'NONE',  ( 0.000000000000000000, -1.000000000000000000, -0.000000000000000000 ) ) ;
#57 = CARTESIAN_POINT ( 'NONE',  ( 0.2400000000000003797, 0.5749999999999999556, 5.000000000000000000 ) ) ;
#58 = ORIENTED_EDGE ( 'NONE', *, *, #517, .F. ) ;
#59 = VECTOR ( 'NONE', #88, 100.0000000000000000 ) ;
#60 = DIRECTION ( 'NONE',  ( 0.000000000000000000, 0.000000000000000000, 1.000000000000000000 ) ) ;
#61 = ORIENTED_EDGE ( 'NONE', *, *, #378, .F. ) ;
#62 = FACE_OUTER_BOUND ( 'NONE', #524, .T. ) ;
#63 = SHAPE_DEFINITION_REPRESENTATION ( #65, #291 ) ;
#64 = EDGE_CURVE ( 'NONE', #685, #116, #109, .T. ) ;
#65 = PRODUCT_DEFINITION_SHAPE ( 'NONE', 'NONE',  #100 ) ;
#66 = DIRECTION ( 'NONE',  ( 0.000000000000000000, 0.000000000000000000, 1.000000000000000000 ) ) ;
#67 = ORIENTED_EDGE ( 'NONE', *, *, #458, .F. ) ;
#68 = DIRECTION ( 'NONE',  ( -1.000000000000000000, -1.508455196501571429E-16, 0.000000000000000000 ) ) ;
#69 = EDGE_CURVE ( 'NONE', #161, #372, #704, .T. ) ;
#70 = CARTESIAN_POINT ( 'NONE',  ( 0.3149999999999998912, -0.2399999999999997691, 5.000000000000000000 ) ) ;
#71 = ADVANCED_FACE ( 'NONE', ( #244 ), #626, .F. ) ;
#72 = EDGE_LOOP ( 'NONE', ( #61, #323, #776, #152 ) ) ;
#73 = LINE ( 'NONE', #321, #591 ) ;
#74 = VERTEX_POINT ( 'NONE', #682 ) ;
#75 = EDGE_CURVE ( 'NONE', #635, #625, #367, .T. ) ;
#76 = CARTESIAN_POINT ( 'NONE',  ( -0.5750000000000000666, -0.2399999999999997691, 5.000000000000000000 ) ) ;
#77 = LINE ( 'NONE', #339, #59 ) ;
#78 = DIRECTION ( 'NONE',  ( 1.000000000000000000, 9.035018104045874392E-17, -0.000000000000000000 ) ) ;
#79 = DIRECTION ( 'NONE',  ( -1.000000000000000000, -1.508455196501571676E-16, 0.000000000000000000 ) ) ;
#80 = AXIS2_PLACEMENT_3D ( 'NONE', #744, #182, #676 ) ;
#81 = VECTOR ( 'NONE', #222, 100.0000000000000000 ) ;
#82 = ORIENTED_EDGE ( 'NONE', *, *, #33, .T. ) ;
#83 = DIRECTION ( 'NONE',  ( -0.000000000000000000, 0.000000000000000000, -1.000000000000000000 ) ) ;
#84 = DIRECTION ( 'NONE',  ( -1.000000000000000000, -1.508455196501571429E-16, 0.000000000000000000 ) ) ;
#85 = ADVANCED_FACE ( 'NONE', ( #127 ), #376, .F. ) ;
#86 = ORIENTED_EDGE ( 'NONE', *, *, #663, .T. ) ;
#87 = LINE ( 'NONE', #338, #332 ) ;
#88 = DIRECTION ( 'NONE',  ( 1.000000000000000000, -0.000000000000000000, -0.000000000000000000 ) ) ;
#89 = ORIENTED_EDGE ( 'NONE', *, *, #40, .T. ) ;
#90 = VERTEX_POINT ( 'NONE', #813 ) ;
#91 = LINE ( 'NONE', #212, #764 ) ;
#92 = LINE ( 'NONE', #219, #45 ) ;
#93 = EDGE_CURVE ( 'NONE', #347, #334, #672, .T. ) ;
#94 = AXIS2_PLACEMENT_3D ( 'NONE', #419, #301, #660 ) ;
#95 = ORIENTED_EDGE ( 'NONE', *, *, #141, .F. ) ;
#96 = DIRECTION ( 'NONE',  ( 9.035018104045873159E-17, 1.000000000000000000, 0.000000000000000000 ) ) ;
#97 = DIRECTION ( 'NONE',  ( 8.340016711426955288E-17, -1.000000000000000000, -0.000000000000000000 ) ) ;
#98 = DIRECTION ( 'NONE',  ( -8.340016711426955288E-17, 1.000000000000000000, 0.000000000000000000 ) ) ;
#99 = ORIENTED_EDGE ( 'NONE', *, *, #581, .T. ) ;
#100 = PRODUCT_DEFINITION ( 'UNKNOWN', '', #147, #503 ) ;
#101 = DIRECTION ( 'NONE',  ( 1.508455196501571429E-16, -1.000000000000000000, 0.000000000000000000 ) ) ;
#102 = LINE ( 'NONE', #611, #26 ) ;
#103 = CARTESIAN_POINT ( 'NONE',  ( 0.5750000000000000666, -0.5749999999999999556, 5.000000000000000000 ) ) ;
#104 = ORIENTED_EDGE ( 'NONE', *, *, #657, .F. ) ;
#105 = ORIENTED_EDGE ( 'NONE', *, *, #155, .F. ) ;
#106 = CYLINDRICAL_SURFACE ( 'NONE', #260, 0.2400000000000000189 ) ;
#107 = ADVANCED_FACE ( 'NONE', ( #558 ), #678, .T. ) ;
#108 = CARTESIAN_POINT ( 'NONE',  ( 0.5749999999999999556, -0.2399999999999996858, 2.630000000000000338 ) ) ;
#109 = LINE ( 'NONE', #801, #548 ) ;
#110 = EDGE_LOOP ( 'NONE', ( #269, #715, #434, #588 ) ) ;
#111 = VECTOR ( 'NONE', #60, 100.0000000000000000 ) ;
#112 = VECTOR ( 'NONE', #732, 100.0000000000000000 ) ;
#113 = CARTESIAN_POINT ( 'NONE',  ( 0.000000000000000000, 0.000000000000000000, 5.000000000000000000 ) ) ;
#114 = DIRECTION ( 'NONE',  ( 0.000000000000000000, 0.000000000000000000, -1.000000000000000000 ) ) ;
#115 = CARTESIAN_POINT ( 'NONE',  ( 0.5750000000000000666, -0.5749999999999999556, 5.000000000000000000 ) ) ;
#116 = VERTEX_POINT ( 'NONE', #57 ) ;
#117 = CARTESIAN_POINT ( 'NONE',  ( 0.8349999999999999645, -0.2399999999999997691, 5.000000000000000000 ) ) ;
#118 = CARTESIAN_POINT ( 'NONE',  ( 3.469446951953614189E-16, -0.3149999999999998912, 2.630000000000000338 ) ) ;
#119 = DIRECTION ( 'NONE',  ( 0.000000000000000000, 0.000000000000000000, -1.000000000000000000 ) ) ;
#120 = EDGE_CURVE ( 'NONE', #534, #703, #560, .T. ) ;
#121 = EDGE_LOOP ( 'NONE', ( #298, #794, #271, #739 ) ) ;
#122 = LINE ( 'NONE', #117, #510 ) ;
#123 = CARTESIAN_POINT ( 'NONE',  ( 0.000000000000000000, 0.000000000000000000, 0.000000000000000000 ) ) ;
#124 = DIRECTION ( 'NONE',  ( 1.000000000000000000, 0.000000000000000000, 0.000000000000000000 ) ) ;
#125 = ADVANCED_FACE ( 'NONE', ( #498 ), #371, .F. ) ;
#126 = STYLED_ITEM ( 'NONE', ( #595 ), #256 ) ;
#127 = FACE_OUTER_BOUND ( 'NONE', #207, .T. ) ;
#128 = ORIENTED_EDGE ( 'NONE', *, *, #239, .F. ) ;
#129 = ORIENTED_EDGE ( 'NONE', *, *, #569, .T. ) ;
#130 =( NAMED_UNIT ( * ) SI_UNIT ( $, .STERADIAN. ) SOLID_ANGLE_UNIT ( ) );
#131 = DIRECTION ( 'NONE',  ( 1.000000000000000000, 1.508455196501571429E-16, 0.000000000000000000 ) ) ;
#132 = EDGE_CURVE ( 'NONE', #757, #276, #619, .T. ) ;
#133 = EDGE_LOOP ( 'NONE', ( #668, #345, #533, #627 ) ) ;
#134 = CARTESIAN_POINT ( 'NONE',  ( 0.2400000000000003797, 0.3149999999999998912, 5.000000000000000000 ) ) ;
#135 = VECTOR ( 'NONE', #494, 100.0000000000000000 ) ;
#136 = CIRCLE ( 'NONE', #578, 0.2399999999999999911 ) ;
#137 = DIRECTION ( 'NONE',  ( 0.000000000000000000, 1.000000000000000000, 0.000000000000000000 ) ) ;
#138 = FILL_AREA_STYLE ('',( #694 ) ) ;
#139 = EDGE_LOOP ( 'NONE', ( #420, #399, #189, #374 ) ) ;
#140 = DIRECTION ( 'NONE',  ( 0.000000000000000000, 0.000000000000000000, -1.000000000000000000 ) ) ;
#141 = EDGE_CURVE ( 'NONE', #625, #565, #622, .T. ) ;
#142 = ORIENTED_EDGE ( 'NONE', *, *, #69, .F. ) ;
#143 = FACE_OUTER_BOUND ( 'NONE', #72, .T. ) ;
#144 = PLANE ( 'NONE',  #623 ) ;
#145 = MECHANICAL_DESIGN_GEOMETRIC_PRESENTATION_REPRESENTATION (  '', ( #179 ), #451 ) ;
#146 = EDGE_LOOP ( 'NONE', ( #437, #473, #308, #573, #426, #404, #673, #196, #468, #27, #31, #495, #234, #708, #620, #467, #603, #86, #211, #6 ) ) ;
#147 = PRODUCT_DEFINITION_FORMATION_WITH_SPECIFIED_SOURCE ( 'ANY', '', #805, .NOT_KNOWN. ) ;
#148 = CARTESIAN_POINT ( 'NONE',  ( 0.8349999999999999645, -0.2399999999999997691, 2.390000000000000568 ) ) ;
#149 =( LENGTH_UNIT ( ) NAMED_UNIT ( * ) SI_UNIT ( .CENTI., .METRE. ) );
#150 = ADVANCED_FACE ( 'NONE', ( #516 ), #273, .F. ) ;
#151 = ORIENTED_EDGE ( 'NONE', *, *, #756, .F. ) ;
#152 = ORIENTED_EDGE ( 'NONE', *, *, #564, .T. ) ;
#153 = DIRECTION ( 'NONE',  ( -1.508455196501571429E-16, 1.000000000000000000, 0.000000000000000000 ) ) ;
#154 = LINE ( 'NONE', #396, #577 ) ;
#155 = EDGE_CURVE ( 'NONE', #702, #745, #499, .T. ) ;
#156 = FACE_OUTER_BOUND ( 'NONE', #139, .T. ) ;
#157 = VERTEX_POINT ( 'NONE', #464 ) ;
#158 = CARTESIAN_POINT ( 'NONE',  ( 0.3149999999999998912, -0.2399999999999997691, 2.390000000000000568 ) ) ;
#159 = LINE ( 'NONE', #364, #296 ) ;
#160 = CARTESIAN_POINT ( 'NONE',  ( 0.000000000000000000, 0.000000000000000000, 1.899999999999999911 ) ) ;
#161 = VERTEX_POINT ( 'NONE', #566 ) ;
#162 = AXIS2_PLACEMENT_3D ( 'NONE', #637, #760, #582 ) ;
#163 = DIRECTION ( 'NONE',  ( 0.000000000000000000, -1.000000000000000000, 0.000000000000000000 ) ) ;
#164 = DIRECTION ( 'NONE',  ( 0.000000000000000000, 0.000000000000000000, -1.000000000000000000 ) ) ;
#165 = DIRECTION ( 'NONE',  ( -0.000000000000000000, 0.000000000000000000, -1.000000000000000000 ) ) ;
#166 = LINE ( 'NONE', #749, #774 ) ;
#167 = ORIENTED_EDGE ( 'NONE', *, *, #761, .F. ) ;
#168 = ADVANCED_FACE ( 'NONE', ( #520 ), #701, .F. ) ;
#169 = CARTESIAN_POINT ( 'NONE',  ( 3.735172737399427023E-17, -0.3049999999999999933, 1.899999999999999911 ) ) ;
#170 = CARTESIAN_POINT ( 'NONE',  ( -0.3149999999999998912, 1.517883041479706208E-16, 2.630000000000000338 ) ) ;
#171 = CARTESIAN_POINT ( 'NONE',  ( 0.000000000000000000, 0.3049999999999999933, 0.000000000000000000 ) ) ;
#172 = CARTESIAN_POINT ( 'NONE',  ( 0.3149999999999998912, 0.2400000000000000744, 2.390000000000000568 ) ) ;
#173 = VERTEX_POINT ( 'NONE', #752 ) ;
#174 = DIRECTION ( 'NONE',  ( 0.000000000000000000, -1.000000000000000000, 0.000000000000000000 ) ) ;
#175 = SURFACE_SIDE_STYLE ('',( #486 ) ) ;
#176 = CARTESIAN_POINT ( 'NONE',  ( -0.3149999999999998912, -0.2399999999999997691, 2.390000000000000568 ) ) ;
#177 = CARTESIAN_POINT ( 'NONE',  ( 0.5749999999999999556, 0.5750000000000000666, 5.000000000000000000 ) ) ;
#178 = ORIENTED_EDGE ( 'NONE', *, *, #378, .T. ) ;
#179 = STYLED_ITEM ( 'NONE', ( #634 ), #242 ) ;
#180 = AXIS2_PLACEMENT_3D ( 'NONE', #359, #365, #719 ) ;
#181 = EDGE_CURVE ( 'NONE', #685, #781, #795, .T. ) ;
#182 = DIRECTION ( 'NONE',  ( -1.000000000000000000, 0.000000000000000000, 0.000000000000000000 ) ) ;
#183 = EDGE_LOOP ( 'NONE', ( #203, #340, #95, #226 ) ) ;
#184 = CYLINDRICAL_SURFACE ( 'NONE', #162, 0.2399999999999999356 ) ;
#185 = EDGE_CURVE ( 'NONE', #392, #240, #77, .T. ) ;
#186 = CARTESIAN_POINT ( 'NONE',  ( -0.5749999999999999556, -0.5750000000000000666, 5.000000000000000000 ) ) ;
#187 = ORIENTED_EDGE ( 'NONE', *, *, #120, .F. ) ;
#188 = CARTESIAN_POINT ( 'NONE',  ( -0.8349999999999999645, 0.2400000000000000744, 2.390000000000000568 ) ) ;
#189 = ORIENTED_EDGE ( 'NONE', *, *, #636, .T. ) ;
#190 = EDGE_CURVE ( 'NONE', #553, #716, #769, .T. ) ;
#191 = CARTESIAN_POINT ( 'NONE',  ( 0.2400000000000003797, -0.5749999999999999556, 2.630000000000000338 ) ) ;
#192 = VECTOR ( 'NONE', #124, 100.0000000000000000 ) ;
#193 = VECTOR ( 'NONE', #153, 100.0000000000000000 ) ;
#194 = VECTOR ( 'NONE', #96, 100.0000000000000000 ) ;
#195 = CARTESIAN_POINT ( 'NONE',  ( 0.5750000000000000666, -0.5749999999999999556, 5.000000000000000000 ) ) ;
#196 = ORIENTED_EDGE ( 'NONE', *, *, #552, .T. ) ;
#197 = EDGE_CURVE ( 'NONE', #757, #703, #154, .T. ) ;
#198 = LINE ( 'NONE', #272, #268 ) ;
#199 = DIRECTION ( 'NONE',  ( -1.000000000000000000, -1.508455196501571429E-16, 0.000000000000000000 ) ) ;
#200 = AXIS2_PLACEMENT_3D ( 'NONE', #638, #456, #407 ) ;
#201 = VECTOR ( 'NONE', #229, 100.0000000000000000 ) ;
#202 = AXIS2_PLACEMENT_3D ( 'NONE', #281, #535, #285 ) ;
#203 = ORIENTED_EDGE ( 'NONE', *, *, #353, .F. ) ;
#204 = CARTESIAN_POINT ( 'NONE',  ( 0.3149999999999998912, 1.517883041479706208E-16, 2.630000000000000338 ) ) ;
#205 = DIRECTION ( 'NONE',  ( 0.000000000000000000, 0.000000000000000000, 1.000000000000000000 ) ) ;
#206 = EDGE_CURVE ( 'NONE', #721, #810, #395, .T. ) ;
#207 = EDGE_LOOP ( 'NONE', ( #21, #648, #128, #99, #639, #42, #540, #37 ) ) ;
#208 = ORIENTED_EDGE ( 'NONE', *, *, #132, .T. ) ;
#209 = CARTESIAN_POINT ( 'NONE',  ( -0.3149999999999998912, -0.2399999999999997691, 5.000000000000000000 ) ) ;
#210 = CARTESIAN_POINT ( 'NONE',  ( 3.686287386450715076E-16, 0.5749999999999999556, 2.630000000000000338 ) ) ;
#211 = ORIENTED_EDGE ( 'NONE', *, *, #239, .T. ) ;
#212 = CARTESIAN_POINT ( 'NONE',  ( 0.000000000000000000, 0.3049999999999999933, 1.899999999999999911 ) ) ;
#213 = AXIS2_PLACEMENT_3D ( 'NONE', #738, #119, #54 ) ;
#214 = VECTOR ( 'NONE', #114, 100.0000000000000000 ) ;
#215 = ORIENTED_EDGE ( 'NONE', *, *, #292, .F. ) ;
#216 = CYLINDRICAL_SURFACE ( 'NONE', #642, 0.2399999999999999911 ) ;
#217 = EDGE_CURVE ( 'NONE', #757, #565, #669, .T. ) ;
#218 = DIRECTION ( 'NONE',  ( 0.000000000000000000, 0.000000000000000000, -1.000000000000000000 ) ) ;
#219 = CARTESIAN_POINT ( 'NONE',  ( 0.5750000000000000666, -0.5749999999999999556, 5.000000000000000000 ) ) ;
#220 = VERTEX_POINT ( 'NONE', #195 ) ;
#221 = ORIENTED_EDGE ( 'NONE', *, *, #16, .F. ) ;
#222 = DIRECTION ( 'NONE',  ( -0.000000000000000000, 0.000000000000000000, -1.000000000000000000 ) ) ;
#223 = FILL_AREA_STYLE_COLOUR ( '', #267 ) ;
#224 = DIRECTION ( 'NONE',  ( 0.000000000000000000, -1.000000000000000000, 0.000000000000000000 ) ) ;
#225 = ORIENTED_EDGE ( 'NONE', *, *, #581, .F. ) ;
#226 = ORIENTED_EDGE ( 'NONE', *, *, #75, .F. ) ;
#227 = ORIENTED_EDGE ( 'NONE', *, *, #206, .T. ) ;
#228 = CARTESIAN_POINT ( 'NONE',  ( -0.2399999999999996303, -0.3149999999999998912, 2.390000000000000568 ) ) ;
#229 = DIRECTION ( 'NONE',  ( 0.000000000000000000, 0.000000000000000000, -1.000000000000000000 ) ) ;
#230 = CARTESIAN_POINT ( 'NONE',  ( 0.2400000000000003797, -0.5749999999999999556, 5.000000000000000000 ) ) ;
#231 = ORIENTED_EDGE ( 'NONE', *, *, #552, .F. ) ;
#232 = PRESENTATION_LAYER_ASSIGNMENT (  '', '', ( #126 ) ) ;
#233 = VECTOR ( 'NONE', #11, 100.0000000000000000 ) ;
#234 = ORIENTED_EDGE ( 'NONE', *, *, #476, .T. ) ;
#235 = FACE_OUTER_BOUND ( 'NONE', #615, .T. ) ;
#236 = DIRECTION ( 'NONE',  ( 9.035018104045874392E-17, -1.000000000000000000, 0.000000000000000000 ) ) ;
#237 = CARTESIAN_POINT ( 'NONE',  ( 0.2400000000000003797, -0.3149999999999998912, 5.000000000000000000 ) ) ;
#238 = DIRECTION ( 'NONE',  ( 0.000000000000000000, 1.000000000000000000, 0.000000000000000000 ) ) ;
#239 = EDGE_CURVE ( 'NONE', #586, #116, #585, .T. ) ;
#240 = VERTEX_POINT ( 'NONE', #698 ) ;
#241 = CARTESIAN_POINT ( 'NONE',  ( -0.2399999999999996858, 0.5749999999999999556, 2.630000000000000338 ) ) ;
#242 = MANIFOLD_SOLID_BREP ( 'Fillet7', #653 ) ;
#243 = DIRECTION ( 'NONE',  ( 1.000000000000000000, 1.508455196501571429E-16, 0.000000000000000000 ) ) ;
#244 = FACE_OUTER_BOUND ( 'NONE', #567, .T. ) ;
#245 = ORIENTED_EDGE ( 'NONE', *, *, #759, .F. ) ;
#246 = DIRECTION ( 'NONE',  ( 1.508455196501571429E-16, -1.000000000000000000, 0.000000000000000000 ) ) ;
#247 = ORIENTED_EDGE ( 'NONE', *, *, #614, .T. ) ;
#248 = AXIS2_PLACEMENT_3D ( 'NONE', #413, #408, #98 ) ;
#249 = ADVANCED_FACE ( 'NONE', ( #646 ), #144, .F. ) ;
#250 = CARTESIAN_POINT ( 'NONE',  ( -0.5749999999999999556, 0.2400000000000000744, 2.630000000000000338 ) ) ;
#251 = EDGE_LOOP ( 'NONE', ( #539, #379, #762, #337 ) ) ;
#252 = DIRECTION ( 'NONE',  ( 0.000000000000000000, 0.000000000000000000, -1.000000000000000000 ) ) ;
#253 = ORIENTED_EDGE ( 'NONE', *, *, #720, .T. ) ;
#254 = LINE ( 'NONE', #628, #466 ) ;
#255 = DIRECTION ( 'NONE',  ( 1.000000000000000000, 0.000000000000000000, 0.000000000000000000 ) ) ;
#256 = ADVANCED_FACE ( 'NONE', ( #741 ), #590, .F. ) ;
#257 = ORIENTED_EDGE ( 'NONE', *, *, #759, .T. ) ;
#258 = PLANE ( 'NONE',  #384 ) ;
#259 = AXIS2_PLACEMENT_3D ( 'NONE', #733, #613, #360 ) ;
#260 = AXIS2_PLACEMENT_3D ( 'NONE', #605, #46, #543 ) ;
#261 = DIRECTION ( 'NONE',  ( 9.035018104045873159E-17, -1.000000000000000000, -0.000000000000000000 ) ) ;
#262 = EDGE_LOOP ( 'NONE', ( #304, #729, #58, #755 ) ) ;
#263 = DIRECTION ( 'NONE',  ( 0.000000000000000000, 1.000000000000000000, 0.000000000000000000 ) ) ;
#264 = LINE ( 'NONE', #572, #692 ) ;
#265 = CARTESIAN_POINT ( 'NONE',  ( 0.5749999999999999556, 0.5750000000000000666, 5.000000000000000000 ) ) ;
#266 = ADVANCED_FACE ( 'NONE', ( #300, #29 ), #654, .T. ) ;
#267 = COLOUR_RGB ( '',0.6941176470588235059, 0.09803921568627450844, 0.09803921568627450844 ) ;
#268 = VECTOR ( 'NONE', #137, 100.0000000000000000 ) ;
#269 = ORIENTED_EDGE ( 'NONE', *, *, #287, .F. ) ;
#270 = DIRECTION ( 'NONE',  ( 0.000000000000000000, -1.000000000000000000, 0.000000000000000000 ) ) ;
#271 = ORIENTED_EDGE ( 'NONE', *, *, #316, .F. ) ;
#272 = CARTESIAN_POINT ( 'NONE',  ( -0.2399999999999996303, 0.3149999999999998912, 2.630000000000000338 ) ) ;
#273 = PLANE ( 'NONE',  #681 ) ;
#274 = EDGE_LOOP ( 'NONE', ( #167, #818, #479, #561 ) ) ;
#275 = ADVANCED_FACE ( 'NONE', ( #34 ), #599, .F. ) ;
#276 = VERTEX_POINT ( 'NONE', #475 ) ;
#277 = DIRECTION ( 'NONE',  ( 0.000000000000000000, 1.000000000000000000, -0.000000000000000000 ) ) ;
#278 = CIRCLE ( 'NONE', #483, 0.2399999999999999356 ) ;
#279 = ORIENTED_EDGE ( 'NONE', *, *, #181, .T. ) ;
#280 = ORIENTED_EDGE ( 'NONE', *, *, #663, .F. ) ;
#281 = CARTESIAN_POINT ( 'NONE',  ( 3.469446951953614189E-16, -0.5749999999999999556, 2.630000000000000338 ) ) ;
#282 = CARTESIAN_POINT ( 'NONE',  ( 0.000000000000000000, 0.000000000000000000, 0.000000000000000000 ) ) ;
#283 = PLANE ( 'NONE',  #180 ) ;
#284 = EDGE_LOOP ( 'NONE', ( #245, #178, #699, #51, #247, #221, #691, #748 ) ) ;
#285 = DIRECTION ( 'NONE',  ( -1.000000000000000000, 0.000000000000000000, 0.000000000000000000 ) ) ;
#286 = LINE ( 'NONE', #798, #201 ) ;
#287 = EDGE_CURVE ( 'NONE', #782, #74, #159, .T. ) ;
#288 = ORIENTED_EDGE ( 'NONE', *, *, #155, .T. ) ;
#289 = DIRECTION ( 'NONE',  ( 1.000000000000000000, 0.000000000000000000, 0.000000000000000000 ) ) ;
#290 = CARTESIAN_POINT ( 'NONE',  ( 0.3149999999999998912, -0.2399999999999997691, 2.390000000000000568 ) ) ;
#291 = ADVANCED_BREP_SHAPE_REPRESENTATION ( 'pillar_61', ( #242, #346 ), #47 ) ;
#292 = EDGE_CURVE ( 'NONE', #679, #781, #286, .T. ) ;
#293 = CARTESIAN_POINT ( 'NONE',  ( 0.3149999999999998912, -0.2399999999999997691, 2.630000000000000338 ) ) ;
#294 = ORIENTED_EDGE ( 'NONE', *, *, #695, .F. ) ;
#295 = AXIS2_PLACEMENT_3D ( 'NONE', #210, #779, #766 ) ;
#296 = VECTOR ( 'NONE', #412, 100.0000000000000000 ) ;
#297 = CIRCLE ( 'NONE', #202, 0.2399999999999999911 ) ;
#298 = ORIENTED_EDGE ( 'NONE', *, *, #185, .F. ) ;
#299 = LINE ( 'NONE', #711, #799 ) ;
#300 = FACE_BOUND ( 'NONE', #409, .T. ) ;
#301 = DIRECTION ( 'NONE',  ( -1.000000000000000000, 0.000000000000000000, 0.000000000000000000 ) ) ;
#302 = PLANE ( 'NONE',  #259 ) ;
#303 = EDGE_CURVE ( 'NONE', #782, #803, #481, .T. ) ;
#304 = ORIENTED_EDGE ( 'NONE', *, *, #40, .F. ) ;
#305 = DIRECTION ( 'NONE',  ( -0.000000000000000000, 0.000000000000000000, -1.000000000000000000 ) ) ;
#306 = LINE ( 'NONE', #176, #112 ) ;
#307 = DIRECTION ( 'NONE',  ( 1.000000000000000000, 0.000000000000000000, 0.000000000000000000 ) ) ;
#308 = ORIENTED_EDGE ( 'NONE', *, *, #816, .T. ) ;
#309 = EDGE_CURVE ( 'NONE', #501, #17, #418, .T. ) ;
#310 = CARTESIAN_POINT ( 'NONE',  ( -0.2399999999999996303, 0.3149999999999998912, 2.630000000000000338 ) ) ;
#311 = DIRECTION ( 'NONE',  ( -0.000000000000000000, 0.000000000000000000, -1.000000000000000000 ) ) ;
#312 = ORIENTED_EDGE ( 'NONE', *, *, #458, .T. ) ;
#313 = VECTOR ( 'NONE', #246, 100.0000000000000000 ) ;
#314 = VECTOR ( 'NONE', #18, 100.0000000000000000 ) ;
#315 = CARTESIAN_POINT ( 'NONE',  ( -0.5749999999999999556, -0.2399999999999998523, 5.000000000000000000 ) ) ;
#316 = EDGE_CURVE ( 'NONE', #501, #484, #102, .T. ) ;
#317 = CARTESIAN_POINT ( 'NONE',  ( 0.000000000000000000, 0.000000000000000000, 0.000000000000000000 ) ) ;
#318 = ORIENTED_EDGE ( 'NONE', *, *, #576, .F. ) ;
#319 = AXIS2_PLACEMENT_3D ( 'NONE', #188, #238, #436 ) ;
#320 = VECTOR ( 'NONE', #424, 100.0000000000000000 ) ;
#321 = CARTESIAN_POINT ( 'NONE',  ( 0.5749999999999999556, 0.5750000000000000666, 0.000000000000000000 ) ) ;
#322 = VECTOR ( 'NONE', #796, 100.0000000000000000 ) ;
#323 = ORIENTED_EDGE ( 'NONE', *, *, #190, .T. ) ;
#324 = ADVANCED_FACE ( 'NONE', ( #358 ), #39, .F. ) ;
#325 = CARTESIAN_POINT ( 'NONE',  ( -0.5750000000000000666, 0.5749999999999999556, 5.000000000000000000 ) ) ;
#326 = EDGE_CURVE ( 'NONE', #276, #450, #278, .T. ) ;
#327 = LINE ( 'NONE', #15, #375 ) ;
#328 = DIRECTION ( 'NONE',  ( 1.508455196501571676E-16, -1.000000000000000000, 0.000000000000000000 ) ) ;
#329 = ORIENTED_EDGE ( 'NONE', *, *, #686, .F. ) ;
#330 = LINE ( 'NONE', #633, #705 ) ;
#331 = DIRECTION ( 'NONE',  ( 0.000000000000000000, 1.000000000000000000, 0.000000000000000000 ) ) ;
#332 = VECTOR ( 'NONE', #783, 100.0000000000000000 ) ;
#333 = VECTOR ( 'NONE', #83, 100.0000000000000000 ) ;
#334 = VERTEX_POINT ( 'NONE', #52 ) ;
#335 = DIRECTION ( 'NONE',  ( 1.508455196501571429E-16, -1.000000000000000000, 0.000000000000000000 ) ) ;
#336 = ADVANCED_FACE ( 'NONE', ( #664 ), #106, .F. ) ;
#337 = ORIENTED_EDGE ( 'NONE', *, *, #614, .F. ) ;
#338 = CARTESIAN_POINT ( 'NONE',  ( -0.5749999999999999556, -0.5750000000000000666, 5.000000000000000000 ) ) ;
#339 = CARTESIAN_POINT ( 'NONE',  ( 0.8349999999999999645, 0.2400000000000000744, 2.630000000000000338 ) ) ;
#340 = ORIENTED_EDGE ( 'NONE', *, *, #756, .T. ) ;
#341 = DIRECTION ( 'NONE',  ( -1.508455196501571429E-16, 1.000000000000000000, 0.000000000000000000 ) ) ;
#342 =( LENGTH_UNIT ( ) NAMED_UNIT ( * ) SI_UNIT ( .CENTI., .METRE. ) );
#343 = CARTESIAN_POINT ( 'NONE',  ( 0.5750000000000000666, -0.5749999999999999556, 5.000000000000000000 ) ) ;
#344 = AXIS2_PLACEMENT_3D ( 'NONE', #113, #497, #674 ) ;
#345 = ORIENTED_EDGE ( 'NONE', *, *, #316, .T. ) ;
#346 = AXIS2_PLACEMENT_3D ( 'NONE', #123, #56, #506 ) ;
#347 = VERTEX_POINT ( 'NONE', #792 ) ;
#348 = CARTESIAN_POINT ( 'NONE',  ( -0.2399999999999996303, 0.5749999999999999556, 5.000000000000000000 ) ) ;
#349 = CARTESIAN_POINT ( 'NONE',  ( 0.5749999999999999556, -0.2399999999999996858, 5.000000000000000000 ) ) ;
#350 = FACE_OUTER_BOUND ( 'NONE', #489, .T. ) ;
#351 = ORIENTED_EDGE ( 'NONE', *, *, #197, .T. ) ;
#352 = FACE_OUTER_BOUND ( 'NONE', #734, .T. ) ;
#353 = EDGE_CURVE ( 'NONE', #450, #635, #306, .T. ) ;
#354 = DIRECTION ( 'NONE',  ( -1.000000000000000000, 0.000000000000000000, 0.000000000000000000 ) ) ;
#355 = FACE_OUTER_BOUND ( 'NONE', #110, .T. ) ;
#356 = EDGE_LOOP ( 'NONE', ( #288, #312 ) ) ;
#357 = CARTESIAN_POINT ( 'NONE',  ( 3.735172737399427023E-17, -0.3049999999999999933, 1.899999999999999911 ) ) ;
#358 = FACE_OUTER_BOUND ( 'NONE', #545, .T. ) ;
#359 = CARTESIAN_POINT ( 'NONE',  ( 0.2400000000000003797, 0.3149999999999998912, 2.390000000000000568 ) ) ;
#360 = DIRECTION ( 'NONE',  ( -1.000000000000000000, 0.000000000000000000, 0.000000000000000000 ) ) ;
#361 = UNCERTAINTY_MEASURE_WITH_UNIT (LENGTH_MEASURE( 1.000000000000000082E-05 ), #617, 'distance_accuracy_value', 'NONE');
#362 = AXIS2_PLACEMENT_3D ( 'NONE', #282, #164, #718 ) ;
#363 = EDGE_LOOP ( 'NONE', ( #787, #504, #151, #432 ) ) ;
#364 = CARTESIAN_POINT ( 'NONE',  ( 0.2400000000000003797, -0.3149999999999998912, 2.390000000000000568 ) ) ;
#365 = DIRECTION ( 'NONE',  ( 1.000000000000000000, 0.000000000000000000, 0.000000000000000000 ) ) ;
#366 = EDGE_CURVE ( 'NONE', #501, #240, #500, .T. ) ;
#367 = LINE ( 'NONE', #488, #135 ) ;
#368 = ORIENTED_EDGE ( 'NONE', *, *, #587, .F. ) ;
#369 = PRODUCT_CONTEXT ( 'NONE', #551, 'mechanical' ) ;
#370 = DIRECTION ( 'NONE',  ( 0.000000000000000000, -1.000000000000000000, -0.000000000000000000 ) ) ;
#371 = CYLINDRICAL_SURFACE ( 'NONE', #80, 0.2399999999999999356 ) ;
#372 = VERTEX_POINT ( 'NONE', #171 ) ;
#373 = DIRECTION ( 'NONE',  ( 0.000000000000000000, 1.000000000000000000, 0.000000000000000000 ) ) ;
#374 = ORIENTED_EDGE ( 'NONE', *, *, #621, .T. ) ;
#375 = VECTOR ( 'NONE', #768, 100.0000000000000000 ) ;
#376 = PLANE ( 'NONE',  #440 ) ;
#377 = VERTEX_POINT ( 'NONE', #487 ) ;
#378 = EDGE_CURVE ( 'NONE', #553, #441, #780, .T. ) ;
#379 = ORIENTED_EDGE ( 'NONE', *, *, #600, .F. ) ;
#380 = LINE ( 'NONE', #459, #549 ) ;
#381 = VECTOR ( 'NONE', #218, 100.0000000000000000 ) ;
#382 = AXIS2_PLACEMENT_3D ( 'NONE', #204, #78, #693 ) ;
#383 = DIRECTION ( 'NONE',  ( 0.000000000000000000, 1.000000000000000000, 0.000000000000000000 ) ) ;
#384 = AXIS2_PLACEMENT_3D ( 'NONE', #687, #740, #435 ) ;
#385 = EDGE_CURVE ( 'NONE', #173, #803, #30, .T. ) ;
#386 = ORIENTED_EDGE ( 'NONE', *, *, #1, .T. ) ;
#387 = LINE ( 'NONE', #522, #333 ) ;
#388 = SURFACE_SIDE_STYLE ('',( #772 ) ) ;
#389 = EDGE_CURVE ( 'NONE', #36, #441, #92, .T. ) ;
#390 = LINE ( 'NONE', #519, #452 ) ;
#391 = ORIENTED_EDGE ( 'NONE', *, *, #527, .F. ) ;
#392 = VERTEX_POINT ( 'NONE', #482 ) ;
#393 = PLANE ( 'NONE',  #14 ) ;
#394 = ADVANCED_FACE ( 'NONE', ( #156 ), #283, .F. ) ;
#395 = CIRCLE ( 'NONE', #43, 0.2400000000000000189 ) ;
#396 = CARTESIAN_POINT ( 'NONE',  ( -0.5749999999999999556, 0.2400000000000000744, 5.000000000000000000 ) ) ;
#397 = AXIS2_PLACEMENT_3D ( 'NONE', #477, #41, #601 ) ;
#398 = AXIS2_PLACEMENT_3D ( 'NONE', #148, #528, #652 ) ;
#399 = ORIENTED_EDGE ( 'NONE', *, *, #675, .T. ) ;
#400 = ORIENTED_EDGE ( 'NONE', *, *, #675, .F. ) ;
#401 = CARTESIAN_POINT ( 'NONE',  ( 0.000000000000000000, 0.3049999999999999933, 1.899999999999999911 ) ) ;
#402 = DIRECTION ( 'NONE',  ( 1.000000000000000000, 1.508455196501571676E-16, 0.000000000000000000 ) ) ;
#403 = ORIENTED_EDGE ( 'NONE', *, *, #206, .F. ) ;
#404 = ORIENTED_EDGE ( 'NONE', *, *, #742, .F. ) ;
#405 = ORIENTED_EDGE ( 'NONE', *, *, #542, .T. ) ;
#406 = CARTESIAN_POINT ( 'NONE',  ( 0.5749999999999999556, 0.5750000000000000666, 0.000000000000000000 ) ) ;
#407 = DIRECTION ( 'NONE',  ( 0.000000000000000000, 1.000000000000000000, 0.000000000000000000 ) ) ;
#408 = DIRECTION ( 'NONE',  ( 1.000000000000000000, 8.340016711426955288E-17, 0.000000000000000000 ) ) ;
#409 = EDGE_LOOP ( 'NONE', ( #368, #142 ) ) ;
#410 = ORIENTED_EDGE ( 'NONE', *, *, #428, .T. ) ;
#411 = LINE ( 'NONE', #158, #624 ) ;
#412 = DIRECTION ( 'NONE',  ( 0.000000000000000000, 0.000000000000000000, 1.000000000000000000 ) ) ;
#413 = CARTESIAN_POINT ( 'NONE',  ( 0.2400000000000003797, -0.3149999999999998912, 2.390000000000000568 ) ) ;
#414 = CIRCLE ( 'NONE', #812, 0.3049999999999999933 ) ;
#415 = ORIENTED_EDGE ( 'NONE', *, *, #16, .T. ) ;
#416 = ADVANCED_FACE ( 'NONE', ( #48 ), #727, .F. ) ;
#417 = CARTESIAN_POINT ( 'NONE',  ( -0.2399999999999996303, -0.3149999999999998912, 2.630000000000000338 ) ) ;
#418 = LINE ( 'NONE', #349, #3 ) ;
#419 = CARTESIAN_POINT ( 'NONE',  ( -0.2399999999999996303, 0.3149999999999998912, 2.390000000000000568 ) ) ;
#420 = ORIENTED_EDGE ( 'NONE', *, *, #64, .F. ) ;
#421 = ORIENTED_EDGE ( 'NONE', *, *, #536, .T. ) ;
#422 = LINE ( 'NONE', #730, #726 ) ;
#423 = DIRECTION ( 'NONE',  ( 1.807003620809174632E-16, 1.000000000000000000, 0.000000000000000000 ) ) ;
#424 = DIRECTION ( 'NONE',  ( -1.000000000000000000, 0.000000000000000000, 0.000000000000000000 ) ) ;
#425 = CARTESIAN_POINT ( 'NONE',  ( -0.2399999999999996303, 0.3149999999999998912, 2.390000000000000568 ) ) ;
#426 = ORIENTED_EDGE ( 'NONE', *, *, #521, .F. ) ;
#427 = DIRECTION ( 'NONE',  ( 1.000000000000000000, 0.000000000000000000, 0.000000000000000000 ) ) ;
#428 = EDGE_CURVE ( 'NONE', #534, #722, #53, .T. ) ;
#429 = CARTESIAN_POINT ( 'NONE',  ( 0.5749999999999999556, 1.517883041479706208E-16, 2.630000000000000338 ) ) ;
#430 = CARTESIAN_POINT ( 'NONE',  ( 0.000000000000000000, 0.2400000000000000744, 5.000000000000000000 ) ) ;
#431 = VECTOR ( 'NONE', #97, 100.0000000000000000 ) ;
#432 = ORIENTED_EDGE ( 'NONE', *, *, #326, .F. ) ;
#433 = LINE ( 'NONE', #115, #606 ) ;
#434 = ORIENTED_EDGE ( 'NONE', *, *, #385, .F. ) ;
#435 = DIRECTION ( 'NONE',  ( 9.035018104045874392E-17, 1.000000000000000000, 0.000000000000000000 ) ) ;
#436 = DIRECTION ( 'NONE',  ( -1.000000000000000000, 0.000000000000000000, 0.000000000000000000 ) ) ;
#437 = ORIENTED_EDGE ( 'NONE', *, *, #1, .F. ) ;
#438 = DIRECTION ( 'NONE',  ( 1.000000000000000000, 0.000000000000000000, 0.000000000000000000 ) ) ;
#439 = DIRECTION ( 'NONE',  ( 0.000000000000000000, 0.000000000000000000, 1.000000000000000000 ) ) ;
#440 = AXIS2_PLACEMENT_3D ( 'NONE', #177, #609, #50 ) ;
#441 = VERTEX_POINT ( 'NONE', #713 ) ;
#442 = ADVANCED_FACE ( 'NONE', ( #355 ), #737, .F. ) ;
#443 = VECTOR ( 'NONE', #101, 100.0000000000000000 ) ;
#444 = DIRECTION ( 'NONE',  ( 1.000000000000000000, 0.000000000000000000, 0.000000000000000000 ) ) ;
#445 = CARTESIAN_POINT ( 'NONE',  ( 0.5749999999999999556, 0.5750000000000000666, 5.000000000000000000 ) ) ;
#446 = APPLICATION_PROTOCOL_DEFINITION ( 'draft international standard', 'automotive_design', 1998, #551 ) ;
#447 = LINE ( 'NONE', #5, #763 ) ;
#448 = CARTESIAN_POINT ( 'NONE',  ( 0.2400000000000003797, 0.3149999999999998912, 5.000000000000000000 ) ) ;
#449 = ADVANCED_FACE ( 'NONE', ( #806 ), #651, .F. ) ;
#450 = VERTEX_POINT ( 'NONE', #538 ) ;
#451 =( GEOMETRIC_REPRESENTATION_CONTEXT ( 3 ) GLOBAL_UNCERTAINTY_ASSIGNED_CONTEXT ( ( #802 ) ) GLOBAL_UNIT_ASSIGNED_CONTEXT ( ( #149, #19, #460 ) ) REPRESENTATION_CONTEXT ( 'NONE', 'WORKASPACE' ) );
#452 = VECTOR ( 'NONE', #199, 100.0000000000000000 ) ;
#453 = LINE ( 'NONE', #455, #314 ) ;
#454 = VERTEX_POINT ( 'NONE', #786 ) ;
#455 = CARTESIAN_POINT ( 'NONE',  ( -0.3149999999999998912, 0.2400000000000000744, 2.390000000000000568 ) ) ;
#456 = DIRECTION ( 'NONE',  ( 0.000000000000000000, 0.000000000000000000, -1.000000000000000000 ) ) ;
#457 = ORIENTED_EDGE ( 'NONE', *, *, #197, .F. ) ;
#458 = EDGE_CURVE ( 'NONE', #745, #702, #670, .T. ) ;
#459 = CARTESIAN_POINT ( 'NONE',  ( 0.2400000000000003797, 0.3149999999999998912, 2.390000000000000568 ) ) ;
#460 =( NAMED_UNIT ( * ) SI_UNIT ( $, .STERADIAN. ) SOLID_ANGLE_UNIT ( ) );
#461 = ORIENTED_EDGE ( 'NONE', *, *, #527, .T. ) ;
#462 = CARTESIAN_POINT ( 'NONE',  ( -0.5750000000000000666, 0.2400000000000000744, 5.000000000000000000 ) ) ;
#463 = VECTOR ( 'NONE', #66, 100.0000000000000000 ) ;
#464 = CARTESIAN_POINT ( 'NONE',  ( 0.3149999999999998912, -0.2399999999999997691, 5.000000000000000000 ) ) ;
#465 =( GEOMETRIC_REPRESENTATION_CONTEXT ( 3 ) GLOBAL_UNCERTAINTY_ASSIGNED_CONTEXT ( ( #667 ) ) GLOBAL_UNIT_ASSIGNED_CONTEXT ( ( #342, #784, #492 ) ) REPRESENTATION_CONTEXT ( 'NONE', 'WORKASPACE' ) );
#466 = VECTOR ( 'NONE', #68, 100.0000000000000000 ) ;
#467 = ORIENTED_EDGE ( 'NONE', *, *, #569, .F. ) ;
#468 = ORIENTED_EDGE ( 'NONE', *, *, #389, .T. ) ;
#469 = CARTESIAN_POINT ( 'NONE',  ( -0.5750000000000000666, 0.5749999999999999556, 5.000000000000000000 ) ) ;
#470 = ADVANCED_FACE ( 'NONE', ( #350 ), #596, .F. ) ;
#471 = DIRECTION ( 'NONE',  ( 0.000000000000000000, 1.000000000000000000, 0.000000000000000000 ) ) ;
#472 = CARTESIAN_POINT ( 'NONE',  ( 0.2400000000000003797, 0.3149999999999998912, 5.000000000000000000 ) ) ;
#473 = ORIENTED_EDGE ( 'NONE', *, *, #7, .T. ) ;
#474 = DIRECTION ( 'NONE',  ( -0.000000000000000000, 0.000000000000000000, -1.000000000000000000 ) ) ;
#475 = CARTESIAN_POINT ( 'NONE',  ( -0.3149999999999998912, 0.2400000000000000744, 2.630000000000000338 ) ) ;
#476 = EDGE_CURVE ( 'NONE', #173, #220, #493, .T. ) ;
#477 = CARTESIAN_POINT ( 'NONE',  ( 0.000000000000000000, 0.000000000000000000, 1.899999999999999911 ) ) ;
#478 = ORIENTED_EDGE ( 'NONE', *, *, #505, .F. ) ;
#479 = ORIENTED_EDGE ( 'NONE', *, *, #287, .T. ) ;
#480 = DIRECTION ( 'NONE',  ( 0.000000000000000000, 0.000000000000000000, 1.000000000000000000 ) ) ;
#481 = LINE ( 'NONE', #725, #431 ) ;
#482 = CARTESIAN_POINT ( 'NONE',  ( 0.3149999999999998912, 0.2400000000000000744, 2.630000000000000338 ) ) ;
#483 = AXIS2_PLACEMENT_3D ( 'NONE', #170, #731, #423 ) ;
#484 = VERTEX_POINT ( 'NONE', #293 ) ;
#485 = PLANE ( 'NONE',  #777 ) ;
#486 = SURFACE_STYLE_FILL_AREA ( #808 ) ;
#487 = CARTESIAN_POINT ( 'NONE',  ( -0.2399999999999996303, -0.3149999999999998912, 5.000000000000000000 ) ) ;
#488 = CARTESIAN_POINT ( 'NONE',  ( 0.000000000000000000, -0.2399999999999997691, 5.000000000000000000 ) ) ;
#489 = EDGE_LOOP ( 'NONE', ( #24, #461, #215, #20 ) ) ;
#490 = EDGE_CURVE ( 'NONE', #74, #377, #550, .T. ) ;
#491 = CARTESIAN_POINT ( 'NONE',  ( 0.2400000000000003797, -0.3149999999999998912, 2.630000000000000338 ) ) ;
#492 =( NAMED_UNIT ( * ) SI_UNIT ( $, .STERADIAN. ) SOLID_ANGLE_UNIT ( ) );
#493 = LINE ( 'NONE', #103, #797 ) ;
#494 = DIRECTION ( 'NONE',  ( -1.000000000000000000, 0.000000000000000000, 0.000000000000000000 ) ) ;
#495 = ORIENTED_EDGE ( 'NONE', *, *, #629, .T. ) ;
#496 = DIRECTION ( 'NONE',  ( 0.000000000000000000, -1.000000000000000000, 0.000000000000000000 ) ) ;
#497 = DIRECTION ( 'NONE',  ( 0.000000000000000000, 0.000000000000000000, -1.000000000000000000 ) ) ;
#498 = FACE_OUTER_BOUND ( 'NONE', #121, .T. ) ;
#499 = CIRCLE ( 'NONE', #200, 0.3049999999999999933 ) ;
#500 = CIRCLE ( 'NONE', #641, 0.2399999999999999356 ) ;
#501 = VERTEX_POINT ( 'NONE', #108 ) ;
#502 = CARTESIAN_POINT ( 'NONE',  ( 0.5750000000000000666, -0.2399999999999997691, 5.000000000000000000 ) ) ;
#503 = PRODUCT_DEFINITION_CONTEXT ( 'detailed design', #680, 'design' ) ;
#504 = ORIENTED_EDGE ( 'NONE', *, *, #217, .T. ) ;
#505 = EDGE_CURVE ( 'NONE', #716, #782, #136, .T. ) ;
#506 = DIRECTION ( 'NONE',  ( 1.000000000000000000, 0.000000000000000000, -0.000000000000000000 ) ) ;
#507 = CARTESIAN_POINT ( 'NONE',  ( -0.5749999999999999556, 1.517883041479706208E-16, 2.630000000000000338 ) ) ;
#508 = ORIENTED_EDGE ( 'NONE', *, *, #707, .F. ) ;
#509 = AXIS2_PLACEMENT_3D ( 'NONE', #160, #665, #471 ) ;
#510 = VECTOR ( 'NONE', #444, 100.0000000000000000 ) ;
#511 = ADVANCED_FACE ( 'NONE', ( #746 ), #184, .F. ) ;
#512 = ORIENTED_EDGE ( 'NONE', *, *, #303, .F. ) ;
#513 = CARTESIAN_POINT ( 'NONE',  ( 0.5749999999999999556, 0.5750000000000000666, 5.000000000000000000 ) ) ;
#514 = PRESENTATION_LAYER_ASSIGNMENT (  '', '', ( #179 ) ) ;
#515 = LINE ( 'NONE', #8, #684 ) ;
#516 = FACE_OUTER_BOUND ( 'NONE', #677, .T. ) ;
#517 = EDGE_CURVE ( 'NONE', #334, #240, #447, .T. ) ;
#518 = VERTEX_POINT ( 'NONE', #579 ) ;
#519 = CARTESIAN_POINT ( 'NONE',  ( 0.5749999999999999556, 0.5750000000000000666, 0.000000000000000000 ) ) ;
#520 = FACE_OUTER_BOUND ( 'NONE', #767, .T. ) ;
#521 = EDGE_CURVE ( 'NONE', #454, #703, #688, .T. ) ;
#522 = CARTESIAN_POINT ( 'NONE',  ( 0.5749999999999999556, 0.5750000000000000666, 5.000000000000000000 ) ) ;
#523 = DIRECTION ( 'NONE',  ( -1.000000000000000000, -1.508455196501571676E-16, -0.000000000000000000 ) ) ;
#524 = EDGE_LOOP ( 'NONE', ( #318, #602, #554, #788 ) ) ;
#525 = EDGE_LOOP ( 'NONE', ( #67, #9, #532, #55 ) ) ;
#526 = ORIENTED_EDGE ( 'NONE', *, *, #217, .F. ) ;
#527 = EDGE_CURVE ( 'NONE', #810, #781, #198, .T. ) ;
#528 = DIRECTION ( 'NONE',  ( 0.000000000000000000, -1.000000000000000000, 0.000000000000000000 ) ) ;
#529 = VECTOR ( 'NONE', #84, 100.0000000000000000 ) ;
#530 = DIRECTION ( 'NONE',  ( -1.000000000000000000, 0.000000000000000000, 0.000000000000000000 ) ) ;
#531 = VECTOR ( 'NONE', #671, 100.0000000000000000 ) ;
#532 = ORIENTED_EDGE ( 'NONE', *, *, #69, .T. ) ;
#533 = ORIENTED_EDGE ( 'NONE', *, *, #657, .T. ) ;
#534 = VERTEX_POINT ( 'NONE', #325 ) ;
#535 = DIRECTION ( 'NONE',  ( 1.508455196501571676E-16, -1.000000000000000000, -0.000000000000000000 ) ) ;
#536 = EDGE_CURVE ( 'NONE', #484, #392, #631, .T. ) ;
#537 = CARTESIAN_POINT ( 'NONE',  ( 0.000000000000000000, 0.000000000000000000, 1.899999999999999911 ) ) ;
#538 = CARTESIAN_POINT ( 'NONE',  ( -0.3149999999999998912, -0.2399999999999997691, 2.630000000000000338 ) ) ;
#539 = ORIENTED_EDGE ( 'NONE', *, *, #690, .F. ) ;
#540 = ORIENTED_EDGE ( 'NONE', *, *, #816, .F. ) ;
#541 = LINE ( 'NONE', #28, #194 ) ;
#542 = EDGE_CURVE ( 'NONE', #90, #710, #73, .T. ) ;
#543 = DIRECTION ( 'NONE',  ( 0.000000000000000000, -1.000000000000000000, 0.000000000000000000 ) ) ;
#544 = VERTEX_POINT ( 'NONE', #448 ) ;
#545 = EDGE_LOOP ( 'NONE', ( #104, #421, #89, #129 ) ) ;
#546 = CARTESIAN_POINT ( 'NONE',  ( -0.5749999999999999556, 0.2400000000000000744, 2.630000000000000338 ) ) ;
#547 = DIRECTION ( 'NONE',  ( -1.000000000000000000, -9.035018104045874392E-17, 0.000000000000000000 ) ) ;
#548 = VECTOR ( 'NONE', #439, 100.0000000000000000 ) ;
#549 = VECTOR ( 'NONE', #700, 100.0000000000000000 ) ;
#550 = LINE ( 'NONE', #237, #320 ) ;
#551 = APPLICATION_CONTEXT ( 'automotive_design' ) ;
#552 = EDGE_CURVE ( 'NONE', #625, #36, #515, .T. ) ;
#553 = VERTEX_POINT ( 'NONE', #632 ) ;
#554 = ORIENTED_EDGE ( 'NONE', *, *, #353, .T. ) ;
#555 = DIRECTION ( 'NONE',  ( -1.000000000000000000, -0.000000000000000000, -0.000000000000000000 ) ) ;
#556 = SURFACE_STYLE_USAGE ( .BOTH. , #175 ) ;
#557 = CARTESIAN_POINT ( 'NONE',  ( -0.5750000000000000666, 0.5749999999999999556, 5.000000000000000000 ) ) ;
#558 = FACE_OUTER_BOUND ( 'NONE', #356, .T. ) ;
#559 = ORIENTED_EDGE ( 'NONE', *, *, #366, .F. ) ;
#560 = LINE ( 'NONE', #809, #313 ) ;
#561 = ORIENTED_EDGE ( 'NONE', *, *, #490, .T. ) ;
#562 = DIRECTION ( 'NONE',  ( 0.000000000000000000, 1.000000000000000000, 0.000000000000000000 ) ) ;
#563 = VECTOR ( 'NONE', #383, 100.0000000000000000 ) ;
#564 = EDGE_CURVE ( 'NONE', #377, #441, #264, .T. ) ;
#565 = VERTEX_POINT ( 'NONE', #697 ) ;
#566 = CARTESIAN_POINT ( 'NONE',  ( 3.735172737399427023E-17, -0.3049999999999999933, 0.000000000000000000 ) ) ;
#567 = EDGE_LOOP ( 'NONE', ( #457, #208, #773, #35 ) ) ;
#568 =( NAMED_UNIT ( * ) PLANE_ANGLE_UNIT ( ) SI_UNIT ( $, .RADIAN. ) );
#569 = EDGE_CURVE ( 'NONE', #347, #157, #765, .T. ) ;
#570 = AXIS2_PLACEMENT_3D ( 'NONE', #317, #252, #373 ) ;
#571 = ORIENTED_EDGE ( 'NONE', *, *, #141, .T. ) ;
#572 = CARTESIAN_POINT ( 'NONE',  ( -0.2399999999999996303, -0.3149999999999998912, 5.000000000000000000 ) ) ;
#573 = ORIENTED_EDGE ( 'NONE', *, *, #120, .T. ) ;
#574 = DIRECTION ( 'NONE',  ( -1.508455196501571429E-16, 1.000000000000000000, 0.000000000000000000 ) ) ;
#575 = CARTESIAN_POINT ( 'NONE',  ( -0.8349999999999999645, 0.2400000000000000744, 5.000000000000000000 ) ) ;
#576 = EDGE_CURVE ( 'NONE', #276, #454, #453, .T. ) ;
#577 = VECTOR ( 'NONE', #205, 100.0000000000000000 ) ;
#578 = AXIS2_PLACEMENT_3D ( 'NONE', #118, #370, #618 ) ;
#579 = CARTESIAN_POINT ( 'NONE',  ( -0.2399999999999996303, 0.3149999999999998912, 5.000000000000000000 ) ) ;
#580 = SURFACE_STYLE_USAGE ( .BOTH. , #388 ) ;
#581 = EDGE_CURVE ( 'NONE', #586, #710, #387, .T. ) ;
#582 = DIRECTION ( 'NONE',  ( -1.000000000000000000, 0.000000000000000000, 0.000000000000000000 ) ) ;
#583 = EDGE_LOOP ( 'NONE', ( #400, #279, #391, #403 ) ) ;
#584 = FACE_OUTER_BOUND ( 'NONE', #133, .T. ) ;
#585 = LINE ( 'NONE', #445, #529 ) ;
#586 = VERTEX_POINT ( 'NONE', #513 ) ;
#587 = EDGE_CURVE ( 'NONE', #372, #161, #414, .T. ) ;
#588 = ORIENTED_EDGE ( 'NONE', *, *, #629, .F. ) ;
#589 = DIRECTION ( 'NONE',  ( -1.000000000000000000, 0.000000000000000000, 0.000000000000000000 ) ) ;
#590 = PLANE ( 'NONE',  #344 ) ;
#591 = VECTOR ( 'NONE', #574, 100.0000000000000000 ) ;
#592 = DIRECTION ( 'NONE',  ( -1.508455196501571676E-16, 1.000000000000000000, 0.000000000000000000 ) ) ;
#593 = EDGE_LOOP ( 'NONE', ( #294, #105, #253, #814 ) ) ;
#594 = CARTESIAN_POINT ( 'NONE',  ( 0.5749999999999999556, 0.5750000000000000666, 5.000000000000000000 ) ) ;
#595 = PRESENTATION_STYLE_ASSIGNMENT (( #556 ) ) ;
#596 = PLANE ( 'NONE',  #94 ) ;
#597 = ORIENTED_EDGE ( 'NONE', *, *, #517, .T. ) ;
#598 = DIRECTION ( 'NONE',  ( -0.000000000000000000, -1.000000000000000000, -0.000000000000000000 ) ) ;
#599 = CYLINDRICAL_SURFACE ( 'NONE', #775, 0.3049999999999999933 ) ;
#600 = EDGE_CURVE ( 'NONE', #710, #722, #390, .T. ) ;
#601 = DIRECTION ( 'NONE',  ( 0.000000000000000000, 1.000000000000000000, 0.000000000000000000 ) ) ;
#602 = ORIENTED_EDGE ( 'NONE', *, *, #326, .T. ) ;
#603 = ORIENTED_EDGE ( 'NONE', *, *, #93, .T. ) ;
#604 = LINE ( 'NONE', #649, #443 ) ;
#605 = CARTESIAN_POINT ( 'NONE',  ( -0.5749999999999999556, 1.517883041479706208E-16, 2.630000000000000338 ) ) ;
#606 = VECTOR ( 'NONE', #311, 100.0000000000000000 ) ;
#607 = VECTOR ( 'NONE', #261, 100.0000000000000000 ) ;
#608 = DIRECTION ( 'NONE',  ( 1.000000000000000000, 1.508455196501571676E-16, -0.000000000000000000 ) ) ;
#609 = DIRECTION ( 'NONE',  ( 1.508455196501571676E-16, -1.000000000000000000, -0.000000000000000000 ) ) ;
#610 = ORIENTED_EDGE ( 'NONE', *, *, #190, .F. ) ;
#611 = CARTESIAN_POINT ( 'NONE',  ( 0.8349999999999999645, -0.2399999999999997691, 2.630000000000000338 ) ) ;
#612 = DIRECTION ( 'NONE',  ( 1.000000000000000000, 1.508455196501571429E-16, 0.000000000000000000 ) ) ;
#613 = DIRECTION ( 'NONE',  ( 0.000000000000000000, 1.000000000000000000, -0.000000000000000000 ) ) ;
#614 = EDGE_CURVE ( 'NONE', #709, #90, #330, .T. ) ;
#615 = EDGE_LOOP ( 'NONE', ( #661, #227, #82, #386 ) ) ;
#616 = PLANE ( 'NONE',  #4 ) ;
#617 =( LENGTH_UNIT ( ) NAMED_UNIT ( * ) SI_UNIT ( .CENTI., .METRE. ) );
#618 = DIRECTION ( 'NONE',  ( -1.000000000000000000, 0.000000000000000000, 0.000000000000000000 ) ) ;
#619 = LINE ( 'NONE', #250, #192 ) ;
#620 = ORIENTED_EDGE ( 'NONE', *, *, #807, .F. ) ;
#621 = EDGE_CURVE ( 'NONE', #544, #116, #771, .T. ) ;
#622 = LINE ( 'NONE', #315, #381 ) ;
#623 = AXIS2_PLACEMENT_3D ( 'NONE', #23, #277, #530 ) ;
#624 = VECTOR ( 'NONE', #480, 100.0000000000000000 ) ;
#625 = VERTEX_POINT ( 'NONE', #76 ) ;
#626 = PLANE ( 'NONE',  #319 ) ;
#627 = ORIENTED_EDGE ( 'NONE', *, *, #807, .T. ) ;
#628 = CARTESIAN_POINT ( 'NONE',  ( 0.5749999999999999556, 0.5750000000000000666, 5.000000000000000000 ) ) ;
#629 = EDGE_CURVE ( 'NONE', #74, #173, #327, .T. ) ;
#630 = VECTOR ( 'NONE', #714, 100.0000000000000000 ) ;
#631 = CIRCLE ( 'NONE', #382, 0.2399999999999999356 ) ;
#632 = CARTESIAN_POINT ( 'NONE',  ( -0.2399999999999996858, -0.5749999999999999556, 2.630000000000000338 ) ) ;
#633 = CARTESIAN_POINT ( 'NONE',  ( 0.5750000000000000666, -0.5749999999999999556, 0.000000000000000000 ) ) ;
#634 = PRESENTATION_STYLE_ASSIGNMENT (( #580 ) ) ;
#635 = VERTEX_POINT ( 'NONE', #209 ) ;
#636 = EDGE_CURVE ( 'NONE', #721, #544, #380, .T. ) ;
#637 = CARTESIAN_POINT ( 'NONE',  ( 3.686287386450715076E-16, 0.5749999999999999556, 2.630000000000000338 ) ) ;
#638 = CARTESIAN_POINT ( 'NONE',  ( 0.000000000000000000, 0.000000000000000000, 1.899999999999999911 ) ) ;
#639 = ORIENTED_EDGE ( 'NONE', *, *, #600, .T. ) ;
#640 = AXIS2_PLACEMENT_3D ( 'NONE', #469, #402, #12 ) ;
#641 = AXIS2_PLACEMENT_3D ( 'NONE', #429, #608, #224 ) ;
#642 = AXIS2_PLACEMENT_3D ( 'NONE', #38, #32, #289 ) ;
#643 = CARTESIAN_POINT ( 'NONE',  ( -0.2399999999999996303, -0.3149999999999998912, 2.390000000000000568 ) ) ;
#644 = CARTESIAN_POINT ( 'NONE',  ( 3.686287386450715076E-16, 0.3149999999999998912, 2.630000000000000338 ) ) ;
#645 = LINE ( 'NONE', #778, #754 ) ;
#646 = FACE_OUTER_BOUND ( 'NONE', #262, .T. ) ;
#647 = ADVANCED_FACE ( 'NONE', ( #143 ), #393, .F. ) ;
#648 = ORIENTED_EDGE ( 'NONE', *, *, #64, .T. ) ;
#649 = CARTESIAN_POINT ( 'NONE',  ( -0.5750000000000000666, 0.5749999999999999556, 0.000000000000000000 ) ) ;
#650 = CARTESIAN_POINT ( 'NONE',  ( -0.2399999999999996303, -0.5749999999999999556, 2.630000000000000338 ) ) ;
#651 = PLANE ( 'NONE',  #743 ) ;
#652 = DIRECTION ( 'NONE',  ( 1.000000000000000000, 0.000000000000000000, 0.000000000000000000 ) ) ;
#653 = CLOSED_SHELL ( 'NONE', ( #275, #125, #336, #728, #511, #168, #449, #150, #85, #256, #266, #736, #249, #324, #785, #71, #791, #442, #647, #49, #470, #394, #770, #416, #107 ) ) ;
#654 = PLANE ( 'NONE',  #362 ) ;
#655 = VECTOR ( 'NONE', #165, 100.0000000000000000 ) ;
#656 = DIRECTION ( 'NONE',  ( -1.000000000000000000, -1.508455196501571676E-16, 0.000000000000000000 ) ) ;
#657 = EDGE_CURVE ( 'NONE', #484, #157, #411, .T. ) ;
#658 = CARTESIAN_POINT ( 'NONE',  ( -0.5750000000000000666, 0.5749999999999999556, 0.000000000000000000 ) ) ;
#659 = DIRECTION ( 'NONE',  ( 0.000000000000000000, 0.000000000000000000, 1.000000000000000000 ) ) ;
#660 = DIRECTION ( 'NONE',  ( 0.000000000000000000, -1.000000000000000000, 0.000000000000000000 ) ) ;
#661 = ORIENTED_EDGE ( 'NONE', *, *, #636, .F. ) ;
#662 = LINE ( 'NONE', #357, #81 ) ;
#663 = EDGE_CURVE ( 'NONE', #334, #586, #422, .T. ) ;
#664 = FACE_OUTER_BOUND ( 'NONE', #363, .T. ) ;
#665 = DIRECTION ( 'NONE',  ( -0.000000000000000000, 0.000000000000000000, -1.000000000000000000 ) ) ;
#666 = FACE_OUTER_BOUND ( 'NONE', #274, .T. ) ;
#667 = UNCERTAINTY_MEASURE_WITH_UNIT (LENGTH_MEASURE( 1.000000000000000082E-05 ), #342, 'distance_accuracy_value', 'NONE');
#668 = ORIENTED_EDGE ( 'NONE', *, *, #309, .F. ) ;
#669 = CIRCLE ( 'NONE', #25, 0.2399999999999999356 ) ;
#670 = CIRCLE ( 'NONE', #397, 0.3049999999999999933 ) ;
#671 = DIRECTION ( 'NONE',  ( 0.000000000000000000, 0.000000000000000000, 1.000000000000000000 ) ) ;
#672 = LINE ( 'NONE', #430, #811 ) ;
#673 = ORIENTED_EDGE ( 'NONE', *, *, #75, .T. ) ;
#674 = DIRECTION ( 'NONE',  ( 0.000000000000000000, 1.000000000000000000, 0.000000000000000000 ) ) ;
#675 = EDGE_CURVE ( 'NONE', #685, #721, #299, .T. ) ;
#676 = DIRECTION ( 'NONE',  ( 0.000000000000000000, -1.000000000000000000, 0.000000000000000000 ) ) ;
#677 = EDGE_LOOP ( 'NONE', ( #559, #696, #508, #415, #405, #225, #280, #597 ) ) ;
#678 = PLANE ( 'NONE',  #213 ) ;
#679 = VERTEX_POINT ( 'NONE', #348 ) ;
#680 = APPLICATION_CONTEXT ( 'automotive_design' ) ;
#681 = AXIS2_PLACEMENT_3D ( 'NONE', #265, #79, #328 ) ;
#682 = CARTESIAN_POINT ( 'NONE',  ( 0.2400000000000003797, -0.3149999999999998912, 5.000000000000000000 ) ) ;
#683 = MECHANICAL_DESIGN_GEOMETRIC_PRESENTATION_REPRESENTATION (  '', ( #126 ), #465 ) ;
#684 = VECTOR ( 'NONE', #335, 100.0000000000000000 ) ;
#685 = VERTEX_POINT ( 'NONE', #706 ) ;
#686 = EDGE_CURVE ( 'NONE', #36, #709, #87, .T. ) ;
#687 = CARTESIAN_POINT ( 'NONE',  ( -0.3149999999999998912, -0.2399999999999997691, 2.390000000000000568 ) ) ;
#688 = LINE ( 'NONE', #575, #233 ) ;
#689 = CARTESIAN_POINT ( 'NONE',  ( 0.000000000000000000, 0.000000000000000000, 0.000000000000000000 ) ) ;
#690 = EDGE_CURVE ( 'NONE', #722, #709, #604, .T. ) ;
#691 = ORIENTED_EDGE ( 'NONE', *, *, #476, .F. ) ;
#692 = VECTOR ( 'NONE', #270, 100.0000000000000000 ) ;
#693 = DIRECTION ( 'NONE',  ( 1.807003620809174632E-16, -1.000000000000000000, 0.000000000000000000 ) ) ;
#694 = FILL_AREA_STYLE_COLOUR ( '', #724 ) ;
#695 = EDGE_CURVE ( 'NONE', #745, #161, #662, .T. ) ;
#696 = ORIENTED_EDGE ( 'NONE', *, *, #309, .T. ) ;
#697 = CARTESIAN_POINT ( 'NONE',  ( -0.5749999999999999556, -0.2399999999999998523, 2.630000000000000338 ) ) ;
#698 = CARTESIAN_POINT ( 'NONE',  ( 0.5749999999999999556, 0.2400000000000000744, 2.630000000000000338 ) ) ;
#699 = ORIENTED_EDGE ( 'NONE', *, *, #389, .F. ) ;
#700 = DIRECTION ( 'NONE',  ( 0.000000000000000000, 0.000000000000000000, 1.000000000000000000 ) ) ;
#701 = PLANE ( 'NONE',  #640 ) ;
#702 = VERTEX_POINT ( 'NONE', #401 ) ;
#703 = VERTEX_POINT ( 'NONE', #462 ) ;
#704 = CIRCLE ( 'NONE', #570, 0.3049999999999999933 ) ;
#705 = VECTOR ( 'NONE', #131, 100.0000000000000000 ) ;
#706 = CARTESIAN_POINT ( 'NONE',  ( 0.2400000000000003797, 0.5749999999999999556, 2.630000000000000338 ) ) ;
#707 = EDGE_CURVE ( 'NONE', #220, #17, #44, .T. ) ;
#708 = ORIENTED_EDGE ( 'NONE', *, *, #707, .T. ) ;
#709 = VERTEX_POINT ( 'NONE', #723 ) ;
#710 = VERTEX_POINT ( 'NONE', #406 ) ;
#711 = CARTESIAN_POINT ( 'NONE',  ( 0.2400000000000003797, 0.3149999999999998912, 2.630000000000000338 ) ) ;
#712 = DIRECTION ( 'NONE',  ( 0.000000000000000000, 1.000000000000000000, 0.000000000000000000 ) ) ;
#713 = CARTESIAN_POINT ( 'NONE',  ( -0.2399999999999996303, -0.5749999999999999556, 5.000000000000000000 ) ) ;
#714 = DIRECTION ( 'NONE',  ( 1.000000000000000000, 0.000000000000000000, 0.000000000000000000 ) ) ;
#715 = ORIENTED_EDGE ( 'NONE', *, *, #303, .T. ) ;
#716 = VERTEX_POINT ( 'NONE', #417 ) ;
#717 = CARTESIAN_POINT ( 'NONE',  ( 0.2400000000000003797, 0.3149999999999998912, 2.630000000000000338 ) ) ;
#718 = DIRECTION ( 'NONE',  ( 0.000000000000000000, 1.000000000000000000, 0.000000000000000000 ) ) ;
#719 = DIRECTION ( 'NONE',  ( 0.000000000000000000, 1.000000000000000000, 0.000000000000000000 ) ) ;
#720 = EDGE_CURVE ( 'NONE', #702, #372, #91, .T. ) ;
#721 = VERTEX_POINT ( 'NONE', #717 ) ;
#722 = VERTEX_POINT ( 'NONE', #658 ) ;
#723 = CARTESIAN_POINT ( 'NONE',  ( -0.5749999999999999556, -0.5750000000000000666, 0.000000000000000000 ) ) ;
#724 = COLOUR_RGB ( '',1.000000000000000000, 1.000000000000000000, 1.000000000000000000 ) ;
#725 = CARTESIAN_POINT ( 'NONE',  ( 0.2400000000000003797, -0.5749999999999999556, 2.630000000000000338 ) ) ;
#726 = VECTOR ( 'NONE', #341, 100.0000000000000000 ) ;
#727 = CYLINDRICAL_SURFACE ( 'NONE', #509, 0.3049999999999999933 ) ;
#728 = ADVANCED_FACE ( 'NONE', ( #352 ), #216, .F. ) ;
#729 = ORIENTED_EDGE ( 'NONE', *, *, #185, .T. ) ;
#730 = CARTESIAN_POINT ( 'NONE',  ( 0.5749999999999999556, 0.5750000000000000666, 5.000000000000000000 ) ) ;
#731 = DIRECTION ( 'NONE',  ( -1.000000000000000000, 9.035018104045874392E-17, -0.000000000000000000 ) ) ;
#732 = DIRECTION ( 'NONE',  ( 0.000000000000000000, 0.000000000000000000, 1.000000000000000000 ) ) ;
#733 = CARTESIAN_POINT ( 'NONE',  ( 0.2400000000000003797, -0.3149999999999998912, 2.390000000000000568 ) ) ;
#734 = EDGE_LOOP ( 'NONE', ( #610, #257, #512, #478 ) ) ;
#735 = FACE_OUTER_BOUND ( 'NONE', #183, .T. ) ;
#736 = ADVANCED_FACE ( 'NONE', ( #584 ), #22, .F. ) ;
#737 = PLANE ( 'NONE',  #248 ) ;
#738 = CARTESIAN_POINT ( 'NONE',  ( 0.000000000000000000, 0.000000000000000000, 1.899999999999999911 ) ) ;
#739 = ORIENTED_EDGE ( 'NONE', *, *, #366, .T. ) ;
#740 = DIRECTION ( 'NONE',  ( 1.000000000000000000, -9.035018104045874392E-17, 0.000000000000000000 ) ) ;
#741 = FACE_OUTER_BOUND ( 'NONE', #146, .T. ) ;
#742 = EDGE_CURVE ( 'NONE', #635, #454, #541, .T. ) ;
#743 = AXIS2_PLACEMENT_3D ( 'NONE', #343, #592, #656 ) ;
#744 = CARTESIAN_POINT ( 'NONE',  ( 0.3149999999999998912, 1.517883041479706208E-16, 2.630000000000000338 ) ) ;
#745 = VERTEX_POINT ( 'NONE', #169 ) ;
#746 = FACE_OUTER_BOUND ( 'NONE', #583, .T. ) ;
#747 = LINE ( 'NONE', #425, #463 ) ;
#748 = ORIENTED_EDGE ( 'NONE', *, *, #385, .T. ) ;
#749 = CARTESIAN_POINT ( 'NONE',  ( -0.2399999999999996303, 0.000000000000000000, 5.000000000000000000 ) ) ;
#750 = CARTESIAN_POINT ( 'NONE',  ( -0.8349999999999999645, -0.2399999999999997691, 2.390000000000000568 ) ) ;
#751 = VECTOR ( 'NONE', #712, 100.0000000000000000 ) ;
#752 = CARTESIAN_POINT ( 'NONE',  ( 0.2400000000000003797, -0.5749999999999999556, 5.000000000000000000 ) ) ;
#753 = AXIS2_PLACEMENT_3D ( 'NONE', #290, #547, #236 ) ;
#754 = VECTOR ( 'NONE', #555, 100.0000000000000000 ) ;
#755 = ORIENTED_EDGE ( 'NONE', *, *, #93, .F. ) ;
#756 = EDGE_CURVE ( 'NONE', #450, #565, #645, .T. ) ;
#757 = VERTEX_POINT ( 'NONE', #546 ) ;
#758 = DIRECTION ( 'NONE',  ( 0.000000000000000000, 0.000000000000000000, -1.000000000000000000 ) ) ;
#759 = EDGE_CURVE ( 'NONE', #553, #803, #297, .T. ) ;
#760 = DIRECTION ( 'NONE',  ( 0.000000000000000000, 1.000000000000000000, 0.000000000000000000 ) ) ;
#761 = EDGE_CURVE ( 'NONE', #716, #377, #789, .T. ) ;
#762 = ORIENTED_EDGE ( 'NONE', *, *, #542, .F. ) ;
#763 = VECTOR ( 'NONE', #758, 100.0000000000000000 ) ;
#764 = VECTOR ( 'NONE', #474, 100.0000000000000000 ) ;
#765 = LINE ( 'NONE', #70, #607 ) ;
#766 = DIRECTION ( 'NONE',  ( 1.000000000000000000, 0.000000000000000000, 0.000000000000000000 ) ) ;
#767 = EDGE_LOOP ( 'NONE', ( #526, #351, #187, #410, #13, #329, #231, #571 ) ) ;
#768 = DIRECTION ( 'NONE',  ( 8.340016711426955288E-17, -1.000000000000000000, 0.000000000000000000 ) ) ;
#769 = LINE ( 'NONE', #650, #751 ) ;
#770 = ADVANCED_FACE ( 'NONE', ( #235 ), #485, .F. ) ;
#771 = LINE ( 'NONE', #134, #563 ) ;
#772 = SURFACE_STYLE_FILL_AREA ( #138 ) ;
#773 = ORIENTED_EDGE ( 'NONE', *, *, #576, .T. ) ;
#774 = VECTOR ( 'NONE', #562, 100.0000000000000000 ) ;
#775 = AXIS2_PLACEMENT_3D ( 'NONE', #537, #305, #790 ) ;
#776 = ORIENTED_EDGE ( 'NONE', *, *, #761, .T. ) ;
#777 = AXIS2_PLACEMENT_3D ( 'NONE', #804, #174, #427 ) ;
#778 = CARTESIAN_POINT ( 'NONE',  ( -0.5749999999999999556, -0.2399999999999997691, 2.630000000000000338 ) ) ;
#779 = DIRECTION ( 'NONE',  ( -1.508455196501571676E-16, 1.000000000000000000, 0.000000000000000000 ) ) ;
#780 = LINE ( 'NONE', #800, #531 ) ;
#781 = VERTEX_POINT ( 'NONE', #241 ) ;
#782 = VERTEX_POINT ( 'NONE', #491 ) ;
#783 = DIRECTION ( 'NONE',  ( -0.000000000000000000, 0.000000000000000000, -1.000000000000000000 ) ) ;
#784 =( NAMED_UNIT ( * ) PLANE_ANGLE_UNIT ( ) SI_UNIT ( $, .RADIAN. ) );
#785 = ADVANCED_FACE ( 'NONE', ( #735 ), #616, .F. ) ;
#786 = CARTESIAN_POINT ( 'NONE',  ( -0.3149999999999998912, 0.2400000000000000744, 5.000000000000000000 ) ) ;
#787 = ORIENTED_EDGE ( 'NONE', *, *, #132, .F. ) ;
#788 = ORIENTED_EDGE ( 'NONE', *, *, #742, .T. ) ;
#789 = LINE ( 'NONE', #228, #322 ) ;
#790 = DIRECTION ( 'NONE',  ( 0.000000000000000000, 1.000000000000000000, 0.000000000000000000 ) ) ;
#791 = ADVANCED_FACE ( 'NONE', ( #62 ), #258, .F. ) ;
#792 = CARTESIAN_POINT ( 'NONE',  ( 0.3149999999999998912, 0.2400000000000000744, 5.000000000000000000 ) ) ;
#793 = LINE ( 'NONE', #472, #630 ) ;
#794 = ORIENTED_EDGE ( 'NONE', *, *, #536, .F. ) ;
#795 = CIRCLE ( 'NONE', #295, 0.2400000000000000189 ) ;
#796 = DIRECTION ( 'NONE',  ( 0.000000000000000000, 0.000000000000000000, 1.000000000000000000 ) ) ;
#797 = VECTOR ( 'NONE', #243, 100.0000000000000000 ) ;
#798 = CARTESIAN_POINT ( 'NONE',  ( -0.2399999999999996858, 0.5749999999999999556, 5.000000000000000000 ) ) ;
#799 = VECTOR ( 'NONE', #598, 100.0000000000000000 ) ;
#800 = CARTESIAN_POINT ( 'NONE',  ( -0.2399999999999996858, -0.5749999999999999556, 5.000000000000000000 ) ) ;
#801 = CARTESIAN_POINT ( 'NONE',  ( 0.2400000000000003797, 0.5749999999999999556, 5.000000000000000000 ) ) ;
#802 = UNCERTAINTY_MEASURE_WITH_UNIT (LENGTH_MEASURE( 1.000000000000000082E-05 ), #149, 'distance_accuracy_value', 'NONE');
#803 = VERTEX_POINT ( 'NONE', #191 ) ;
#804 = CARTESIAN_POINT ( 'NONE',  ( 0.2400000000000003797, 0.3149999999999998912, 2.390000000000000568 ) ) ;
#805 = PRODUCT ( 'pillar_61', 'pillar_61', '', ( #369 ) ) ;
#806 = FACE_OUTER_BOUND ( 'NONE', #284, .T. ) ;
#807 = EDGE_CURVE ( 'NONE', #157, #17, #122, .T. ) ;
#808 = FILL_AREA_STYLE ('',( #223 ) ) ;
#809 = CARTESIAN_POINT ( 'NONE',  ( -0.5750000000000000666, 0.5749999999999999556, 5.000000000000000000 ) ) ;
#810 = VERTEX_POINT ( 'NONE', #310 ) ;
#811 = VECTOR ( 'NONE', #307, 100.0000000000000000 ) ;
#812 = AXIS2_PLACEMENT_3D ( 'NONE', #689, #140, #263 ) ;
#813 = CARTESIAN_POINT ( 'NONE',  ( 0.5750000000000000666, -0.5749999999999999556, 0.000000000000000000 ) ) ;
#814 = ORIENTED_EDGE ( 'NONE', *, *, #587, .T. ) ;
#815 = APPLICATION_PROTOCOL_DEFINITION ( 'draft international standard', 'automotive_design', 1998, #680 ) ;
#816 = EDGE_CURVE ( 'NONE', #679, #534, #254, .T. ) ;
#817 = LINE ( 'NONE', #172, #111 ) ;
#818 = ORIENTED_EDGE ( 'NONE', *, *, #505, .T. ) ;
ENDSEC;
END-ISO-10303-21;
