ISO-10303-21;
HEADER;
FILE_DESCRIPTION (( 'STEP AP214' ),
    '1' );
FILE_NAME ('pillar_62.STEP',
    '2026-06-05T23:33:49',
    ( '' ),
    ( '' ),
    'SwSTEP 2.0',
    'SolidWorks 2023',
    '' );
FILE_SCHEMA (( 'AUTOMOTIVE_DESIGN' ));
ENDSEC;

DATA;
#1 = EDGE_CURVE ( 'NONE', #403, #594, #513, .T. ) ;
#2 = DIRECTION ( 'NONE',  ( -8.340016711426955288E-17, 1.000000000000000000, 0.000000000000000000 ) ) ;
#3 = DIRECTION ( 'NONE',  ( 1.000000000000000000, 0.000000000000000000, 0.000000000000000000 ) ) ;
#4 = DIRECTION ( 'NONE',  ( 1.000000000000000000, 1.508455196501571676E-16, 0.000000000000000000 ) ) ;
#5 = DIRECTION ( 'NONE',  ( 0.000000000000000000, 0.000000000000000000, 1.000000000000000000 ) ) ;
#6 = CARTESIAN_POINT ( 'NONE',  ( 0.8349999999999999645, -0.2399999999999997691, 2.390000000000000568 ) ) ;
#7 = CIRCLE ( 'NONE', #143, 0.2400000000000000189 ) ;
#8 = LINE ( 'NONE', #456, #763 ) ;
#9 = VECTOR ( 'NONE', #34, 100.0000000000000000 ) ;
#10 = CARTESIAN_POINT ( 'NONE',  ( 3.686287386450715076E-16, 0.3149999999999998912, 2.630000000000000338 ) ) ;
#11 = FACE_OUTER_BOUND ( 'NONE', #460, .T. ) ;
#12 = ADVANCED_FACE ( 'NONE', ( #706 ), #136, .F. ) ;
#13 = EDGE_LOOP ( 'NONE', ( #774, #790, #550, #729 ) ) ;
#14 = PLANE ( 'NONE',  #671 ) ;
#15 = ORIENTED_EDGE ( 'NONE', *, *, #21, .F. ) ;
#16 = DIRECTION ( 'NONE',  ( 0.000000000000000000, -1.000000000000000000, 0.000000000000000000 ) ) ;
#17 = CARTESIAN_POINT ( 'NONE',  ( 0.5750000000000000666, -0.5749999999999999556, 5.000000000000000000 ) ) ;
#18 = PRESENTATION_LAYER_ASSIGNMENT (  '', '', ( #279 ) ) ;
#19 = ORIENTED_EDGE ( 'NONE', *, *, #686, .F. ) ;
#20 = VECTOR ( 'NONE', #788, 100.0000000000000000 ) ;
#21 = EDGE_CURVE ( 'NONE', #780, #353, #8, .T. ) ;
#22 = LINE ( 'NONE', #534, #449 ) ;
#23 = PLANE ( 'NONE',  #461 ) ;
#24 = ORIENTED_EDGE ( 'NONE', *, *, #798, .T. ) ;
#25 = EDGE_CURVE ( 'NONE', #92, #172, #818, .T. ) ;
#26 = EDGE_CURVE ( 'NONE', #630, #53, #140, .T. ) ;
#27 = PLANE ( 'NONE',  #156 ) ;
#28 = DIRECTION ( 'NONE',  ( -1.000000000000000000, 0.000000000000000000, 0.000000000000000000 ) ) ;
#29 = ORIENTED_EDGE ( 'NONE', *, *, #652, .T. ) ;
#30 = DIRECTION ( 'NONE',  ( 0.000000000000000000, 0.000000000000000000, 1.000000000000000000 ) ) ;
#31 = PLANE ( 'NONE',  #618 ) ;
#32 = ORIENTED_EDGE ( 'NONE', *, *, #473, .F. ) ;
#33 = CIRCLE ( 'NONE', #518, 0.3099999999999999978 ) ;
#34 = DIRECTION ( 'NONE',  ( -1.000000000000000000, 0.000000000000000000, 0.000000000000000000 ) ) ;
#35 = ADVANCED_FACE ( 'NONE', ( #516 ), #200, .F. ) ;
#36 = CARTESIAN_POINT ( 'NONE',  ( -0.3149999999999998912, 0.2400000000000000744, 5.000000000000000000 ) ) ;
#37 = ORIENTED_EDGE ( 'NONE', *, *, #457, .F. ) ;
#38 =( NAMED_UNIT ( * ) SI_UNIT ( $, .STERADIAN. ) SOLID_ANGLE_UNIT ( ) );
#39 = ORIENTED_EDGE ( 'NONE', *, *, #174, .F. ) ;
#40 = CARTESIAN_POINT ( 'NONE',  ( 0.5749999999999999556, 0.2400000000000000744, 2.630000000000000338 ) ) ;
#41 = CARTESIAN_POINT ( 'NONE',  ( 0.000000000000000000, 0.3099999999999999978, 0.000000000000000000 ) ) ;
#42 = ADVANCED_FACE ( 'NONE', ( #582 ), #415, .F. ) ;
#43 = EDGE_LOOP ( 'NONE', ( #718, #764, #674, #37 ) ) ;
#44 = EDGE_CURVE ( 'NONE', #431, #548, #538, .T. ) ;
#45 = AXIS2_PLACEMENT_3D ( 'NONE', #99, #731, #722 ) ;
#46 = PRESENTATION_STYLE_ASSIGNMENT (( #170 ) ) ;
#47 = CIRCLE ( 'NONE', #645, 0.2399999999999999356 ) ;
#48 = AXIS2_PLACEMENT_3D ( 'NONE', #222, #787, #719 ) ;
#49 =( NAMED_UNIT ( * ) SI_UNIT ( $, .STERADIAN. ) SOLID_ANGLE_UNIT ( ) );
#50 = ORIENTED_EDGE ( 'NONE', *, *, #510, .F. ) ;
#51 = FACE_OUTER_BOUND ( 'NONE', #740, .T. ) ;
#52 = SURFACE_SIDE_STYLE ('',( #309 ) ) ;
#53 = VERTEX_POINT ( 'NONE', #225 ) ;
#54 = ORIENTED_EDGE ( 'NONE', *, *, #395, .T. ) ;
#55 = DIRECTION ( 'NONE',  ( -1.000000000000000000, 0.000000000000000000, 0.000000000000000000 ) ) ;
#56 = DIRECTION ( 'NONE',  ( 0.000000000000000000, -1.000000000000000000, 0.000000000000000000 ) ) ;
#57 = ORIENTED_EDGE ( 'NONE', *, *, #542, .F. ) ;
#58 = DIRECTION ( 'NONE',  ( 1.000000000000000000, 8.340016711426955288E-17, 0.000000000000000000 ) ) ;
#59 = LINE ( 'NONE', #512, #541 ) ;
#60 = VECTOR ( 'NONE', #572, 100.0000000000000000 ) ;
#61 = EDGE_CURVE ( 'NONE', #500, #573, #517, .T. ) ;
#62 = AXIS2_PLACEMENT_3D ( 'NONE', #760, #385, #514 ) ;
#63 = VERTEX_POINT ( 'NONE', #483 ) ;
#64 = DIRECTION ( 'NONE',  ( -1.000000000000000000, -1.508455196501571676E-16, -0.000000000000000000 ) ) ;
#65 = CARTESIAN_POINT ( 'NONE',  ( 0.000000000000000000, 0.000000000000000000, 1.899999999999999911 ) ) ;
#66 = CARTESIAN_POINT ( 'NONE',  ( 0.5749999999999999556, 0.5750000000000000666, 5.000000000000000000 ) ) ;
#67 = DIRECTION ( 'NONE',  ( -0.000000000000000000, 0.000000000000000000, -1.000000000000000000 ) ) ;
#68 = CARTESIAN_POINT ( 'NONE',  ( -0.3149999999999998912, -0.2399999999999997691, 5.000000000000000000 ) ) ;
#69 = VERTEX_POINT ( 'NONE', #593 ) ;
#70 = ADVANCED_FACE ( 'NONE', ( #411 ), #346, .F. ) ;
#71 = FACE_OUTER_BOUND ( 'NONE', #815, .T. ) ;
#72 = DIRECTION ( 'NONE',  ( 0.000000000000000000, -1.000000000000000000, 0.000000000000000000 ) ) ;
#73 = AXIS2_PLACEMENT_3D ( 'NONE', #188, #441, #552 ) ;
#74 = DIRECTION ( 'NONE',  ( 0.000000000000000000, 1.000000000000000000, -0.000000000000000000 ) ) ;
#75 = VECTOR ( 'NONE', #5, 100.0000000000000000 ) ;
#76 = DIRECTION ( 'NONE',  ( 0.000000000000000000, 0.000000000000000000, -1.000000000000000000 ) ) ;
#77 = DIRECTION ( 'NONE',  ( -1.000000000000000000, -0.000000000000000000, -0.000000000000000000 ) ) ;
#78 = ORIENTED_EDGE ( 'NONE', *, *, #807, .F. ) ;
#79 = UNCERTAINTY_MEASURE_WITH_UNIT (LENGTH_MEASURE( 1.000000000000000082E-05 ), #427, 'distance_accuracy_value', 'NONE');
#80 = PLANE ( 'NONE',  #267 ) ;
#81 = CARTESIAN_POINT ( 'NONE',  ( 0.8349999999999999645, 0.2400000000000000744, 2.630000000000000338 ) ) ;
#82 = ORIENTED_EDGE ( 'NONE', *, *, #261, .F. ) ;
#83 = APPLICATION_PROTOCOL_DEFINITION ( 'draft international standard', 'automotive_design', 1998, #497 ) ;
#84 = DIRECTION ( 'NONE',  ( 0.000000000000000000, 1.000000000000000000, 0.000000000000000000 ) ) ;
#85 = DIRECTION ( 'NONE',  ( -1.000000000000000000, -1.508455196501571429E-16, 0.000000000000000000 ) ) ;
#86 = EDGE_CURVE ( 'NONE', #172, #797, #351, .T. ) ;
#87 = VECTOR ( 'NONE', #147, 100.0000000000000000 ) ;
#88 = ORIENTED_EDGE ( 'NONE', *, *, #710, .F. ) ;
#89 = VECTOR ( 'NONE', #720, 100.0000000000000000 ) ;
#90 = DIRECTION ( 'NONE',  ( 0.000000000000000000, -1.000000000000000000, 0.000000000000000000 ) ) ;
#91 = CARTESIAN_POINT ( 'NONE',  ( 0.000000000000000000, -0.2399999999999997691, 5.000000000000000000 ) ) ;
#92 = VERTEX_POINT ( 'NONE', #422 ) ;
#93 = DIRECTION ( 'NONE',  ( 0.000000000000000000, 0.000000000000000000, -1.000000000000000000 ) ) ;
#94 = LINE ( 'NONE', #91, #280 ) ;
#95 = ORIENTED_EDGE ( 'NONE', *, *, #311, .T. ) ;
#96 = ADVANCED_FACE ( 'NONE', ( #605 ), #793, .F. ) ;
#97 = ADVANCED_FACE ( 'NONE', ( #479 ), #158, .F. ) ;
#98 = DIRECTION ( 'NONE',  ( -1.000000000000000000, 0.000000000000000000, 0.000000000000000000 ) ) ;
#99 = CARTESIAN_POINT ( 'NONE',  ( -0.8349999999999999645, -0.2399999999999997691, 2.390000000000000568 ) ) ;
#100 = ORIENTED_EDGE ( 'NONE', *, *, #494, .T. ) ;
#101 = AXIS2_PLACEMENT_3D ( 'NONE', #369, #317, #745 ) ;
#102 = AXIS2_PLACEMENT_3D ( 'NONE', #65, #139, #393 ) ;
#103 = SURFACE_STYLE_FILL_AREA ( #120 ) ;
#104 = EDGE_CURVE ( 'NONE', #630, #184, #547, .T. ) ;
#105 = CARTESIAN_POINT ( 'NONE',  ( 0.5750000000000000666, -0.5749999999999999556, 5.000000000000000000 ) ) ;
#106 = VERTEX_POINT ( 'NONE', #784 ) ;
#107 = DIRECTION ( 'NONE',  ( -1.000000000000000000, 0.000000000000000000, 0.000000000000000000 ) ) ;
#108 = FACE_OUTER_BOUND ( 'NONE', #43, .T. ) ;
#109 = VERTEX_POINT ( 'NONE', #358 ) ;
#110 = EDGE_CURVE ( 'NONE', #356, #276, #94, .T. ) ;
#111 = DIRECTION ( 'NONE',  ( -1.000000000000000000, 9.035018104045874392E-17, -0.000000000000000000 ) ) ;
#112 = DIRECTION ( 'NONE',  ( 0.000000000000000000, 0.000000000000000000, -1.000000000000000000 ) ) ;
#113 = VERTEX_POINT ( 'NONE', #36 ) ;
#114 = PRODUCT_DEFINITION ( 'UNKNOWN', '', #712, #465 ) ;
#115 = VECTOR ( 'NONE', #241, 100.0000000000000000 ) ;
#116 = FACE_OUTER_BOUND ( 'NONE', #301, .T. ) ;
#117 = VECTOR ( 'NONE', #233, 100.0000000000000000 ) ;
#118 = DIRECTION ( 'NONE',  ( 0.000000000000000000, 1.000000000000000000, 0.000000000000000000 ) ) ;
#119 = ORIENTED_EDGE ( 'NONE', *, *, #533, .T. ) ;
#120 = FILL_AREA_STYLE ('',( #551 ) ) ;
#121 = LINE ( 'NONE', #377, #567 ) ;
#122 = ORIENTED_EDGE ( 'NONE', *, *, #494, .F. ) ;
#123 = DIRECTION ( 'NONE',  ( 0.000000000000000000, 0.000000000000000000, -1.000000000000000000 ) ) ;
#124 = EDGE_CURVE ( 'NONE', #245, #654, #289, .T. ) ;
#125 = DIRECTION ( 'NONE',  ( 0.000000000000000000, 0.000000000000000000, 1.000000000000000000 ) ) ;
#126 = ORIENTED_EDGE ( 'NONE', *, *, #387, .T. ) ;
#127 = EDGE_LOOP ( 'NONE', ( #340, #735, #159, #237 ) ) ;
#128 = DIRECTION ( 'NONE',  ( -1.000000000000000000, -1.508455196501571676E-16, 0.000000000000000000 ) ) ;
#129 = AXIS2_PLACEMENT_3D ( 'NONE', #474, #230, #418 ) ;
#130 = LINE ( 'NONE', #767, #423 ) ;
#131 = AXIS2_PLACEMENT_3D ( 'NONE', #331, #76, #259 ) ;
#132 = VERTEX_POINT ( 'NONE', #600 ) ;
#133 = ORIENTED_EDGE ( 'NONE', *, *, #686, .T. ) ;
#134 = CARTESIAN_POINT ( 'NONE',  ( -0.8349999999999999645, 0.2400000000000000744, 5.000000000000000000 ) ) ;
#135 = DIRECTION ( 'NONE',  ( 0.000000000000000000, 0.000000000000000000, 1.000000000000000000 ) ) ;
#136 = PLANE ( 'NONE',  #578 ) ;
#137 = ADVANCED_FACE ( 'NONE', ( #796 ), #31, .F. ) ;
#138 = CARTESIAN_POINT ( 'NONE',  ( 0.2400000000000003797, 0.5749999999999999556, 2.630000000000000338 ) ) ;
#139 = DIRECTION ( 'NONE',  ( 0.000000000000000000, 0.000000000000000000, -1.000000000000000000 ) ) ;
#140 = LINE ( 'NONE', #697, #683 ) ;
#141 = EDGE_CURVE ( 'NONE', #797, #503, #166, .T. ) ;
#142 = CARTESIAN_POINT ( 'NONE',  ( 0.2400000000000003797, 0.3149999999999998912, 5.000000000000000000 ) ) ;
#143 = AXIS2_PLACEMENT_3D ( 'NONE', #215, #469, #717 ) ;
#144 = ORIENTED_EDGE ( 'NONE', *, *, #261, .T. ) ;
#145 = VECTOR ( 'NONE', #219, 100.0000000000000000 ) ;
#146 = CARTESIAN_POINT ( 'NONE',  ( 0.000000000000000000, 0.3099999999999999978, 1.899999999999999911 ) ) ;
#147 = DIRECTION ( 'NONE',  ( 1.000000000000000000, -0.000000000000000000, -0.000000000000000000 ) ) ;
#148 = ORIENTED_EDGE ( 'NONE', *, *, #678, .T. ) ;
#149 = CARTESIAN_POINT ( 'NONE',  ( 0.5749999999999999556, -0.2399999999999996858, 2.630000000000000338 ) ) ;
#150 = ADVANCED_FACE ( 'NONE', ( #587 ), #281, .F. ) ;
#151 = FACE_OUTER_BOUND ( 'NONE', #127, .T. ) ;
#152 = ORIENTED_EDGE ( 'NONE', *, *, #231, .T. ) ;
#153 = DIRECTION ( 'NONE',  ( -1.000000000000000000, -9.035018104045874392E-17, 0.000000000000000000 ) ) ;
#154 = DIRECTION ( 'NONE',  ( 0.000000000000000000, -1.000000000000000000, 0.000000000000000000 ) ) ;
#155 = ORIENTED_EDGE ( 'NONE', *, *, #124, .T. ) ;
#156 = AXIS2_PLACEMENT_3D ( 'NONE', #595, #153, #592 ) ;
#157 = CARTESIAN_POINT ( 'NONE',  ( 3.796405077356794548E-17, -0.3099999999999999978, 1.899999999999999911 ) ) ;
#158 = PLANE ( 'NONE',  #265 ) ;
#159 = ORIENTED_EDGE ( 'NONE', *, *, #485, .T. ) ;
#160 = EDGE_CURVE ( 'NONE', #723, #484, #7, .T. ) ;
#161 = CARTESIAN_POINT ( 'NONE',  ( -0.2399999999999996303, -0.3149999999999998912, 2.630000000000000338 ) ) ;
#162 = DIRECTION ( 'NONE',  ( -1.000000000000000000, 0.000000000000000000, 0.000000000000000000 ) ) ;
#163 = ORIENTED_EDGE ( 'NONE', *, *, #588, .F. ) ;
#164 = ADVANCED_FACE ( 'NONE', ( #151 ), #23, .F. ) ;
#165 = CARTESIAN_POINT ( 'NONE',  ( -0.5750000000000000666, 0.2400000000000000744, 5.000000000000000000 ) ) ;
#166 = LINE ( 'NONE', #673, #802 ) ;
#167 = ORIENTED_EDGE ( 'NONE', *, *, #798, .F. ) ;
#168 = AXIS2_PLACEMENT_3D ( 'NONE', #202, #455, #773 ) ;
#169 = CIRCLE ( 'NONE', #725, 0.2399999999999999356 ) ;
#170 = SURFACE_STYLE_USAGE ( .BOTH. , #426 ) ;
#171 = SURFACE_STYLE_USAGE ( .BOTH. , #52 ) ;
#172 = VERTEX_POINT ( 'NONE', #244 ) ;
#173 = CARTESIAN_POINT ( 'NONE',  ( 0.3149999999999998912, -0.2399999999999997691, 5.000000000000000000 ) ) ;
#174 = EDGE_CURVE ( 'NONE', #245, #172, #804, .T. ) ;
#175 = CARTESIAN_POINT ( 'NONE',  ( 0.5749999999999999556, 0.5750000000000000666, 5.000000000000000000 ) ) ;
#176 = ORIENTED_EDGE ( 'NONE', *, *, #86, .T. ) ;
#177 = CARTESIAN_POINT ( 'NONE',  ( 0.2400000000000003797, -0.3149999999999998912, 2.390000000000000568 ) ) ;
#178 = PLANE ( 'NONE',  #603 ) ;
#179 = ORIENTED_EDGE ( 'NONE', *, *, #264, .F. ) ;
#180 = VECTOR ( 'NONE', #817, 100.0000000000000000 ) ;
#181 = CARTESIAN_POINT ( 'NONE',  ( -0.5749999999999999556, 0.2400000000000000744, 5.000000000000000000 ) ) ;
#182 = VECTOR ( 'NONE', #454, 100.0000000000000000 ) ;
#183 = DIRECTION ( 'NONE',  ( 0.000000000000000000, 1.000000000000000000, 0.000000000000000000 ) ) ;
#184 = VERTEX_POINT ( 'NONE', #610 ) ;
#185 = EDGE_CURVE ( 'NONE', #771, #594, #508, .T. ) ;
#186 = ORIENTED_EDGE ( 'NONE', *, *, #401, .T. ) ;
#187 = LINE ( 'NONE', #134, #791 ) ;
#188 = CARTESIAN_POINT ( 'NONE',  ( 0.000000000000000000, 0.000000000000000000, 1.899999999999999911 ) ) ;
#189 = ORIENTED_EDGE ( 'NONE', *, *, #485, .F. ) ;
#190 = ORIENTED_EDGE ( 'NONE', *, *, #372, .T. ) ;
#191 = DIRECTION ( 'NONE',  ( 1.000000000000000000, 0.000000000000000000, 0.000000000000000000 ) ) ;
#192 = CARTESIAN_POINT ( 'NONE',  ( 0.5749999999999999556, 0.5750000000000000666, 0.000000000000000000 ) ) ;
#193 = DIRECTION ( 'NONE',  ( 1.508455196501571429E-16, -1.000000000000000000, 0.000000000000000000 ) ) ;
#194 = ORIENTED_EDGE ( 'NONE', *, *, #598, .T. ) ;
#195 = FACE_OUTER_BOUND ( 'NONE', #391, .T. ) ;
#196 = VECTOR ( 'NONE', #338, 100.0000000000000000 ) ;
#197 = LINE ( 'NONE', #452, #463 ) ;
#198 = EDGE_CURVE ( 'NONE', #63, #654, #375, .T. ) ;
#199 = PRESENTATION_LAYER_ASSIGNMENT (  '', '', ( #604 ) ) ;
#200 = PLANE ( 'NONE',  #371 ) ;
#201 = LINE ( 'NONE', #263, #765 ) ;
#202 = CARTESIAN_POINT ( 'NONE',  ( 0.3149999999999998912, 1.517883041479706208E-16, 2.630000000000000338 ) ) ;
#203 = ORIENTED_EDGE ( 'NONE', *, *, #160, .F. ) ;
#204 = CARTESIAN_POINT ( 'NONE',  ( -0.2399999999999996303, 0.3149999999999998912, 5.000000000000000000 ) ) ;
#205 = LINE ( 'NONE', #142, #644 ) ;
#206 = ORIENTED_EDGE ( 'NONE', *, *, #1, .T. ) ;
#207 = DIRECTION ( 'NONE',  ( -0.000000000000000000, 0.000000000000000000, -1.000000000000000000 ) ) ;
#208 = VECTOR ( 'NONE', #584, 100.0000000000000000 ) ;
#209 = ORIENTED_EDGE ( 'NONE', *, *, #185, .F. ) ;
#210 = ADVANCED_FACE ( 'NONE', ( #495 ), #676, .F. ) ;
#211 = AXIS2_PLACEMENT_3D ( 'NONE', #670, #436, #55 ) ;
#212 = ORIENTED_EDGE ( 'NONE', *, *, #395, .F. ) ;
#213 = ADVANCED_FACE ( 'NONE', ( #437 ), #178, .F. ) ;
#214 = CARTESIAN_POINT ( 'NONE',  ( -0.5749999999999999556, 0.2400000000000000744, 2.630000000000000338 ) ) ;
#215 = CARTESIAN_POINT ( 'NONE',  ( 3.686287386450715076E-16, 0.5749999999999999556, 2.630000000000000338 ) ) ;
#216 = ORIENTED_EDGE ( 'NONE', *, *, #663, .T. ) ;
#217 =( NAMED_UNIT ( * ) SI_UNIT ( $, .STERADIAN. ) SOLID_ANGLE_UNIT ( ) );
#218 = EDGE_CURVE ( 'NONE', #771, #109, #549, .T. ) ;
#219 = DIRECTION ( 'NONE',  ( 1.508455196501571429E-16, -1.000000000000000000, 0.000000000000000000 ) ) ;
#220 = CARTESIAN_POINT ( 'NONE',  ( 0.5749999999999999556, 0.5750000000000000666, 5.000000000000000000 ) ) ;
#221 = ORIENTED_EDGE ( 'NONE', *, *, #239, .F. ) ;
#222 = CARTESIAN_POINT ( 'NONE',  ( 0.000000000000000000, 0.000000000000000000, 0.000000000000000000 ) ) ;
#223 = CARTESIAN_POINT ( 'NONE',  ( -0.5750000000000000666, 0.5749999999999999556, 5.000000000000000000 ) ) ;
#224 = ADVANCED_FACE ( 'NONE', ( #108 ), #739, .F. ) ;
#225 = CARTESIAN_POINT ( 'NONE',  ( 0.2400000000000003797, -0.5749999999999999556, 2.630000000000000338 ) ) ;
#226 = ORIENTED_EDGE ( 'NONE', *, *, #574, .F. ) ;
#227 = MECHANICAL_DESIGN_GEOMETRIC_PRESENTATION_REPRESENTATION (  '', ( #604 ), #491 ) ;
#228 = AXIS2_PLACEMENT_3D ( 'NONE', #10, #269, #191 ) ;
#229 = CARTESIAN_POINT ( 'NONE',  ( -0.2399999999999996858, 0.5749999999999999556, 2.630000000000000338 ) ) ;
#230 = DIRECTION ( 'NONE',  ( 0.000000000000000000, 0.000000000000000000, -1.000000000000000000 ) ) ;
#231 = EDGE_CURVE ( 'NONE', #109, #709, #689, .T. ) ;
#232 = ORIENTED_EDGE ( 'NONE', *, *, #746, .F. ) ;
#233 = DIRECTION ( 'NONE',  ( 1.508455196501571429E-16, -1.000000000000000000, 0.000000000000000000 ) ) ;
#234 = CARTESIAN_POINT ( 'NONE',  ( 0.5749999999999999556, 0.5750000000000000666, 5.000000000000000000 ) ) ;
#235 = VERTEX_POINT ( 'NONE', #607 ) ;
#236 = DIRECTION ( 'NONE',  ( -0.000000000000000000, 0.000000000000000000, -1.000000000000000000 ) ) ;
#237 = ORIENTED_EDGE ( 'NONE', *, *, #21, .T. ) ;
#238 = VECTOR ( 'NONE', #363, 100.0000000000000000 ) ;
#239 = EDGE_CURVE ( 'NONE', #184, #797, #121, .T. ) ;
#240 = CARTESIAN_POINT ( 'NONE',  ( 0.8349999999999999645, -0.2399999999999997691, 5.000000000000000000 ) ) ;
#241 = DIRECTION ( 'NONE',  ( 0.000000000000000000, -1.000000000000000000, 0.000000000000000000 ) ) ;
#242 = ORIENTED_EDGE ( 'NONE', *, *, #772, .T. ) ;
#243 = CARTESIAN_POINT ( 'NONE',  ( 0.3149999999999998912, -0.2399999999999997691, 2.390000000000000568 ) ) ;
#244 = CARTESIAN_POINT ( 'NONE',  ( -0.5749999999999999556, -0.5750000000000000666, 0.000000000000000000 ) ) ;
#245 = VERTEX_POINT ( 'NONE', #254 ) ;
#246 = CARTESIAN_POINT ( 'NONE',  ( -0.5750000000000000666, 0.5749999999999999556, 5.000000000000000000 ) ) ;
#247 = DIRECTION ( 'NONE',  ( -1.508455196501571429E-16, 1.000000000000000000, 0.000000000000000000 ) ) ;
#248 = ADVANCED_FACE ( 'NONE', ( #754 ), #800, .T. ) ;
#249 = VERTEX_POINT ( 'NONE', #41 ) ;
#250 = VECTOR ( 'NONE', #661, 100.0000000000000000 ) ;
#251 = EDGE_LOOP ( 'NONE', ( #167, #428, #626, #394, #743, #212, #384, #714 ) ) ;
#252 = CARTESIAN_POINT ( 'NONE',  ( 0.2400000000000003797, 0.5749999999999999556, 5.000000000000000000 ) ) ;
#253 = VECTOR ( 'NONE', #744, 100.0000000000000000 ) ;
#254 = CARTESIAN_POINT ( 'NONE',  ( -0.5749999999999999556, -0.5750000000000000666, 5.000000000000000000 ) ) ;
#255 = EDGE_LOOP ( 'NONE', ( #57, #692, #367, #536 ) ) ;
#256 = CARTESIAN_POINT ( 'NONE',  ( -0.5749999999999999556, 0.2400000000000000744, 2.630000000000000338 ) ) ;
#257 = CARTESIAN_POINT ( 'NONE',  ( 0.2400000000000003797, 0.3149999999999998912, 5.000000000000000000 ) ) ;
#258 = ORIENTED_EDGE ( 'NONE', *, *, #482, .F. ) ;
#259 = DIRECTION ( 'NONE',  ( 0.000000000000000000, 1.000000000000000000, 0.000000000000000000 ) ) ;
#260 = CARTESIAN_POINT ( 'NONE',  ( 0.3149999999999998912, 0.2400000000000000744, 2.630000000000000338 ) ) ;
#261 = EDGE_CURVE ( 'NONE', #780, #431, #490, .T. ) ;
#262 = DIRECTION ( 'NONE',  ( 1.000000000000000000, 0.000000000000000000, 0.000000000000000000 ) ) ;
#263 = CARTESIAN_POINT ( 'NONE',  ( -0.5749999999999999556, -0.2399999999999998523, 5.000000000000000000 ) ) ;
#264 = EDGE_CURVE ( 'NONE', #563, #106, #520, .T. ) ;
#265 = AXIS2_PLACEMENT_3D ( 'NONE', #665, #28, #154 ) ;
#266 = CARTESIAN_POINT ( 'NONE',  ( 0.5749999999999999556, -0.2399999999999996858, 5.000000000000000000 ) ) ;
#267 = AXIS2_PLACEMENT_3D ( 'NONE', #341, #586, #16 ) ;
#268 = EDGE_LOOP ( 'NONE', ( #693, #794, #194, #442 ) ) ;
#269 = DIRECTION ( 'NONE',  ( -0.000000000000000000, 1.000000000000000000, -0.000000000000000000 ) ) ;
#270 = CARTESIAN_POINT ( 'NONE',  ( 0.2400000000000003242, 2.001604010742471858E-17, 5.000000000000000000 ) ) ;
#271 = EDGE_LOOP ( 'NONE', ( #786, #690, #703, #555 ) ) ;
#272 = DIRECTION ( 'NONE',  ( 9.035018104045873159E-17, -1.000000000000000000, -0.000000000000000000 ) ) ;
#273 = EDGE_LOOP ( 'NONE', ( #186, #685 ) ) ;
#274 = UNCERTAINTY_MEASURE_WITH_UNIT (LENGTH_MEASURE( 1.000000000000000082E-05 ), #396, 'distance_accuracy_value', 'NONE');
#275 = EDGE_CURVE ( 'NONE', #511, #356, #59, .T. ) ;
#276 = VERTEX_POINT ( 'NONE', #459 ) ;
#277 = SHAPE_DEFINITION_REPRESENTATION ( #812, #777 ) ;
#278 = CARTESIAN_POINT ( 'NONE',  ( 0.2400000000000003797, -0.3149999999999998912, 5.000000000000000000 ) ) ;
#279 = STYLED_ITEM ( 'NONE', ( #433 ), #213 ) ;
#280 = VECTOR ( 'NONE', #162, 100.0000000000000000 ) ;
#281 = PLANE ( 'NONE',  #319 ) ;
#282 = VECTOR ( 'NONE', #799, 100.0000000000000000 ) ;
#283 = ORIENTED_EDGE ( 'NONE', *, *, #26, .T. ) ;
#284 = DIRECTION ( 'NONE',  ( -0.000000000000000000, 0.000000000000000000, -1.000000000000000000 ) ) ;
#285 = CARTESIAN_POINT ( 'NONE',  ( 0.2400000000000003797, 0.3149999999999998912, 2.390000000000000568 ) ) ;
#286 = ORIENTED_EDGE ( 'NONE', *, *, #637, .T. ) ;
#287 = ADVANCED_FACE ( 'NONE', ( #708 ), #381, .F. ) ;
#288 = CARTESIAN_POINT ( 'NONE',  ( -0.2399999999999996303, -0.5749999999999999556, 2.630000000000000338 ) ) ;
#289 = LINE ( 'NONE', #105, #724 ) ;
#290 = ORIENTED_EDGE ( 'NONE', *, *, #26, .F. ) ;
#291 = CARTESIAN_POINT ( 'NONE',  ( -0.5750000000000000666, 0.5749999999999999556, 5.000000000000000000 ) ) ;
#292 = CARTESIAN_POINT ( 'NONE',  ( 3.686287386450715076E-16, 0.5749999999999999556, 2.630000000000000338 ) ) ;
#293 = VECTOR ( 'NONE', #629, 100.0000000000000000 ) ;
#294 = ORIENTED_EDGE ( 'NONE', *, *, #521, .F. ) ;
#295 = CIRCLE ( 'NONE', #228, 0.2400000000000000189 ) ;
#296 = DIRECTION ( 'NONE',  ( 0.000000000000000000, 0.000000000000000000, -1.000000000000000000 ) ) ;
#297 = DIRECTION ( 'NONE',  ( 1.000000000000000000, -9.035018104045874392E-17, 0.000000000000000000 ) ) ;
#298 = VERTEX_POINT ( 'NONE', #446 ) ;
#299 = LINE ( 'NONE', #240, #672 ) ;
#300 = CARTESIAN_POINT ( 'NONE',  ( -0.5749999999999999556, -0.5750000000000000666, 5.000000000000000000 ) ) ;
#301 = EDGE_LOOP ( 'NONE', ( #404, #662, #258, #24 ) ) ;
#302 = EDGE_CURVE ( 'NONE', #353, #709, #205, .T. ) ;
#303 = CARTESIAN_POINT ( 'NONE',  ( -0.3149999999999998912, -0.2399999999999997691, 5.000000000000000000 ) ) ;
#304 = CARTESIAN_POINT ( 'NONE',  ( 0.5749999999999999556, 0.5750000000000000666, 5.000000000000000000 ) ) ;
#305 = ORIENTED_EDGE ( 'NONE', *, *, #362, .F. ) ;
#306 = VECTOR ( 'NONE', #325, 100.0000000000000000 ) ;
#307 = AXIS2_PLACEMENT_3D ( 'NONE', #246, #501, #421 ) ;
#308 = PLANE ( 'NONE',  #738 ) ;
#309 = SURFACE_STYLE_FILL_AREA ( #558 ) ;
#310 = ORIENTED_EDGE ( 'NONE', *, *, #110, .T. ) ;
#311 = EDGE_CURVE ( 'NONE', #559, #630, #390, .T. ) ;
#312 = LINE ( 'NONE', #733, #253 ) ;
#313 = EDGE_CURVE ( 'NONE', #184, #106, #333, .T. ) ;
#314 = ORIENTED_EDGE ( 'NONE', *, *, #675, .T. ) ;
#315 = LINE ( 'NONE', #561, #282 ) ;
#316 = EDGE_CURVE ( 'NONE', #511, #326, #322, .T. ) ;
#317 = DIRECTION ( 'NONE',  ( 0.000000000000000000, 1.000000000000000000, 0.000000000000000000 ) ) ;
#318 = EDGE_LOOP ( 'NONE', ( #88, #606, #657, #330 ) ) ;
#319 = AXIS2_PLACEMENT_3D ( 'NONE', #285, #532, #779 ) ;
#320 = DIRECTION ( 'NONE',  ( 0.000000000000000000, 1.000000000000000000, 0.000000000000000000 ) ) ;
#321 = VECTOR ( 'NONE', #741, 100.0000000000000000 ) ;
#322 = LINE ( 'NONE', #770, #553 ) ;
#323 = ORIENTED_EDGE ( 'NONE', *, *, #198, .T. ) ;
#324 = FACE_BOUND ( 'NONE', #747, .T. ) ;
#325 = DIRECTION ( 'NONE',  ( -1.000000000000000000, -1.508455196501571429E-16, 0.000000000000000000 ) ) ;
#326 = VERTEX_POINT ( 'NONE', #639 ) ;
#327 = EDGE_CURVE ( 'NONE', #443, #771, #581, .T. ) ;
#328 = CARTESIAN_POINT ( 'NONE',  ( 0.2400000000000003797, 0.5749999999999999556, 5.000000000000000000 ) ) ;
#329 = CARTESIAN_POINT ( 'NONE',  ( -0.2399999999999996303, -0.3149999999999998912, 2.390000000000000568 ) ) ;
#330 = ORIENTED_EDGE ( 'NONE', *, *, #420, .T. ) ;
#331 = CARTESIAN_POINT ( 'NONE',  ( 0.000000000000000000, 0.000000000000000000, 0.000000000000000000 ) ) ;
#332 = VECTOR ( 'NONE', #85, 100.0000000000000000 ) ;
#333 = LINE ( 'NONE', #515, #293 ) ;
#334 = AXIS2_PLACEMENT_3D ( 'NONE', #700, #337, #128 ) ;
#335 = DIRECTION ( 'NONE',  ( -1.000000000000000000, 0.000000000000000000, 0.000000000000000000 ) ) ;
#336 = EDGE_CURVE ( 'NONE', #403, #443, #524, .T. ) ;
#337 = DIRECTION ( 'NONE',  ( -1.508455196501571676E-16, 1.000000000000000000, 0.000000000000000000 ) ) ;
#338 = DIRECTION ( 'NONE',  ( 1.000000000000000000, 0.000000000000000000, 0.000000000000000000 ) ) ;
#339 = EDGE_CURVE ( 'NONE', #503, #92, #695, .T. ) ;
#340 = ORIENTED_EDGE ( 'NONE', *, *, #785, .F. ) ;
#341 = CARTESIAN_POINT ( 'NONE',  ( -0.2399999999999996303, -0.3149999999999998912, 2.390000000000000568 ) ) ;
#342 = DIRECTION ( 'NONE',  ( 1.508455196501571676E-16, -1.000000000000000000, -0.000000000000000000 ) ) ;
#343 = ORIENTED_EDGE ( 'NONE', *, *, #25, .T. ) ;
#344 = DIRECTION ( 'NONE',  ( 0.000000000000000000, 1.000000000000000000, 0.000000000000000000 ) ) ;
#345 = VECTOR ( 'NONE', #462, 100.0000000000000000 ) ;
#346 = PLANE ( 'NONE',  #813 ) ;
#347 =( GEOMETRIC_REPRESENTATION_CONTEXT ( 3 ) GLOBAL_UNCERTAINTY_ASSIGNED_CONTEXT ( ( #274 ) ) GLOBAL_UNIT_ASSIGNED_CONTEXT ( ( #396, #590, #217 ) ) REPRESENTATION_CONTEXT ( 'NONE', 'WORKASPACE' ) );
#348 = ORIENTED_EDGE ( 'NONE', *, *, #574, .T. ) ;
#349 = ADVANCED_FACE ( 'NONE', ( #11 ), #14, .F. ) ;
#350 = FACE_OUTER_BOUND ( 'NONE', #601, .T. ) ;
#351 = LINE ( 'NONE', #789, #750 ) ;
#352 = UNCERTAINTY_MEASURE_WITH_UNIT (LENGTH_MEASURE( 1.000000000000000082E-05 ), #623, 'distance_accuracy_value', 'NONE');
#353 = VERTEX_POINT ( 'NONE', #257 ) ;
#354 = DIRECTION ( 'NONE',  ( -1.000000000000000000, 0.000000000000000000, 0.000000000000000000 ) ) ;
#355 = DIRECTION ( 'NONE',  ( 1.000000000000000000, 1.508455196501571429E-16, 0.000000000000000000 ) ) ;
#356 = VERTEX_POINT ( 'NONE', #68 ) ;
#357 = LINE ( 'NONE', #468, #9 ) ;
#358 = CARTESIAN_POINT ( 'NONE',  ( 0.5749999999999999556, 0.5750000000000000666, 5.000000000000000000 ) ) ;
#359 =( GEOMETRIC_REPRESENTATION_CONTEXT ( 3 ) GLOBAL_UNCERTAINTY_ASSIGNED_CONTEXT ( ( #79 ) ) GLOBAL_UNIT_ASSIGNED_CONTEXT ( ( #427, #564, #49 ) ) REPRESENTATION_CONTEXT ( 'NONE', 'WORKASPACE' ) );
#360 = EDGE_LOOP ( 'NONE', ( #163, #370, #19, #78 ) ) ;
#361 = VECTOR ( 'NONE', #284, 100.0000000000000000 ) ;
#362 = EDGE_CURVE ( 'NONE', #443, #666, #130, .T. ) ;
#363 = DIRECTION ( 'NONE',  ( -1.000000000000000000, -1.508455196501571429E-16, 0.000000000000000000 ) ) ;
#364 = ORIENTED_EDGE ( 'NONE', *, *, #652, .F. ) ;
#365 = LINE ( 'NONE', #368, #579 ) ;
#366 = DIRECTION ( 'NONE',  ( -0.000000000000000000, 0.000000000000000000, -1.000000000000000000 ) ) ;
#367 = ORIENTED_EDGE ( 'NONE', *, *, #316, .F. ) ;
#368 = CARTESIAN_POINT ( 'NONE',  ( 0.2400000000000003797, 0.3149999999999998912, 2.630000000000000338 ) ) ;
#369 = CARTESIAN_POINT ( 'NONE',  ( -0.8349999999999999645, 0.2400000000000000744, 2.390000000000000568 ) ) ;
#370 = ORIENTED_EDGE ( 'NONE', *, *, #160, .T. ) ;
#371 = AXIS2_PLACEMENT_3D ( 'NONE', #643, #74, #335 ) ;
#372 = EDGE_CURVE ( 'NONE', #496, #63, #527, .T. ) ;
#373 = AXIS2_PLACEMENT_3D ( 'NONE', #599, #296, #84 ) ;
#374 = FACE_OUTER_BOUND ( 'NONE', #492, .T. ) ;
#375 = LINE ( 'NONE', #502, #115 ) ;
#376 = ORIENTED_EDGE ( 'NONE', *, *, #104, .F. ) ;
#377 = CARTESIAN_POINT ( 'NONE',  ( 0.5750000000000000666, -0.5749999999999999556, 5.000000000000000000 ) ) ;
#378 = ORIENTED_EDGE ( 'NONE', *, *, #781, .F. ) ;
#379 = ORIENTED_EDGE ( 'NONE', *, *, #781, .T. ) ;
#380 = DIRECTION ( 'NONE',  ( -0.000000000000000000, 0.000000000000000000, -1.000000000000000000 ) ) ;
#381 = CYLINDRICAL_SURFACE ( 'NONE', #448, 0.2399999999999999911 ) ;
#382 = ORIENTED_EDGE ( 'NONE', *, *, #650, .F. ) ;
#383 = CIRCLE ( 'NONE', #373, 0.3099999999999999978 ) ;
#384 = ORIENTED_EDGE ( 'NONE', *, *, #218, .F. ) ;
#385 = DIRECTION ( 'NONE',  ( 1.508455196501571676E-16, -1.000000000000000000, -0.000000000000000000 ) ) ;
#386 = CARTESIAN_POINT ( 'NONE',  ( 0.5749999999999999556, 0.5750000000000000666, 5.000000000000000000 ) ) ;
#387 = EDGE_CURVE ( 'NONE', #407, #403, #529, .T. ) ;
#388 = ORIENTED_EDGE ( 'NONE', *, *, #565, .T. ) ;
#389 = CARTESIAN_POINT ( 'NONE',  ( 0.5749999999999999556, 0.2400000000000000744, 5.000000000000000000 ) ) ;
#390 = LINE ( 'NONE', #270, #180 ) ;
#391 = EDGE_LOOP ( 'NONE', ( #699, #348, #290, #636 ) ) ;
#392 = FACE_OUTER_BOUND ( 'NONE', #318, .T. ) ;
#393 = DIRECTION ( 'NONE',  ( 0.000000000000000000, 1.000000000000000000, 0.000000000000000000 ) ) ;
#394 = ORIENTED_EDGE ( 'NONE', *, *, #239, .T. ) ;
#395 = EDGE_CURVE ( 'NONE', #109, #503, #705, .T. ) ;
#396 =( LENGTH_UNIT ( ) NAMED_UNIT ( * ) SI_UNIT ( .CENTI., .METRE. ) );
#397 = VECTOR ( 'NONE', #247, 100.0000000000000000 ) ;
#398 = CARTESIAN_POINT ( 'NONE',  ( 0.3149999999999998912, 0.2400000000000000744, 2.390000000000000568 ) ) ;
#399 = VECTOR ( 'NONE', #646, 100.0000000000000000 ) ;
#400 = ORIENTED_EDGE ( 'NONE', *, *, #525, .F. ) ;
#401 = EDGE_CURVE ( 'NONE', #573, #500, #410, .T. ) ;
#402 = LINE ( 'NONE', #214, #632 ) ;
#403 = VERTEX_POINT ( 'NONE', #260 ) ;
#404 = ORIENTED_EDGE ( 'NONE', *, *, #1, .F. ) ;
#405 = CARTESIAN_POINT ( 'NONE',  ( -0.5749999999999999556, 1.517883041479706208E-16, 2.630000000000000338 ) ) ;
#406 = DIRECTION ( 'NONE',  ( 1.000000000000000000, 1.508455196501571429E-16, 0.000000000000000000 ) ) ;
#407 = VERTEX_POINT ( 'NONE', #762 ) ;
#408 = CARTESIAN_POINT ( 'NONE',  ( 0.5749999999999999556, 0.5750000000000000666, 0.000000000000000000 ) ) ;
#409 = CLOSED_SHELL ( 'NONE', ( #224, #624, #488, #287, #42, #628, #702, #137, #12, #213, #736, #349, #35, #445, #96, #210, #70, #761, #556, #612, #97, #150, #164, #775, #248 ) ) ;
#410 = CIRCLE ( 'NONE', #102, 0.3099999999999999978 ) ;
#411 = FACE_OUTER_BOUND ( 'NONE', #562, .T. ) ;
#412 = EDGE_CURVE ( 'NONE', #506, #654, #197, .T. ) ;
#413 = ORIENTED_EDGE ( 'NONE', *, *, #327, .F. ) ;
#414 = DIRECTION ( 'NONE',  ( 0.000000000000000000, 0.000000000000000000, -1.000000000000000000 ) ) ;
#415 = CYLINDRICAL_SURFACE ( 'NONE', #631, 0.2399999999999999356 ) ;
#416 = ORIENTED_EDGE ( 'NONE', *, *, #510, .T. ) ;
#417 = LINE ( 'NONE', #713, #591 ) ;
#418 = DIRECTION ( 'NONE',  ( 0.000000000000000000, 1.000000000000000000, 0.000000000000000000 ) ) ;
#419 = ORIENTED_EDGE ( 'NONE', *, *, #198, .F. ) ;
#420 = EDGE_CURVE ( 'NONE', #249, #69, #33, .T. ) ;
#421 = DIRECTION ( 'NONE',  ( -1.508455196501571676E-16, 1.000000000000000000, 0.000000000000000000 ) ) ;
#422 = CARTESIAN_POINT ( 'NONE',  ( -0.5750000000000000666, 0.5749999999999999556, 0.000000000000000000 ) ) ;
#423 = VECTOR ( 'NONE', #272, 100.0000000000000000 ) ;
#424 = ORIENTED_EDGE ( 'NONE', *, *, #721, .F. ) ;
#425 = CIRCLE ( 'NONE', #684, 0.2399999999999999356 ) ;
#426 = SURFACE_SIDE_STYLE ('',( #103 ) ) ;
#427 =( LENGTH_UNIT ( ) NAMED_UNIT ( * ) SI_UNIT ( .CENTI., .METRE. ) );
#428 = ORIENTED_EDGE ( 'NONE', *, *, #264, .T. ) ;
#429 = CARTESIAN_POINT ( 'NONE',  ( 0.3149999999999998912, 1.517883041479706208E-16, 2.630000000000000338 ) ) ;
#430 = EDGE_CURVE ( 'NONE', #69, #249, #383, .T. ) ;
#431 = VERTEX_POINT ( 'NONE', #716 ) ;
#432 = DIRECTION ( 'NONE',  ( -1.000000000000000000, 0.000000000000000000, 0.000000000000000000 ) ) ;
#433 = PRESENTATION_STYLE_ASSIGNMENT (( #171 ) ) ;
#434 = ORIENTED_EDGE ( 'NONE', *, *, #313, .T. ) ;
#435 = CIRCLE ( 'NONE', #211, 0.2399999999999999911 ) ;
#436 = DIRECTION ( 'NONE',  ( 0.000000000000000000, -1.000000000000000000, -0.000000000000000000 ) ) ;
#437 = FACE_OUTER_BOUND ( 'NONE', #585, .T. ) ;
#438 = ORIENTED_EDGE ( 'NONE', *, *, #362, .T. ) ;
#439 = ORIENTED_EDGE ( 'NONE', *, *, #231, .F. ) ;
#440 = DIRECTION ( 'NONE',  ( -1.000000000000000000, 0.000000000000000000, 0.000000000000000000 ) ) ;
#441 = DIRECTION ( 'NONE',  ( 0.000000000000000000, 0.000000000000000000, -1.000000000000000000 ) ) ;
#442 = ORIENTED_EDGE ( 'NONE', *, *, #746, .T. ) ;
#443 = VERTEX_POINT ( 'NONE', #726 ) ;
#444 = FACE_OUTER_BOUND ( 'NONE', #271, .T. ) ;
#445 = ADVANCED_FACE ( 'NONE', ( #350 ), #27, .F. ) ;
#446 = CARTESIAN_POINT ( 'NONE',  ( 0.2400000000000003797, -0.3149999999999998912, 2.630000000000000338 ) ) ;
#447 = ORIENTED_EDGE ( 'NONE', *, *, #218, .T. ) ;
#448 = AXIS2_PLACEMENT_3D ( 'NONE', #647, #72, #758 ) ;
#449 = VECTOR ( 'NONE', #98, 100.0000000000000000 ) ;
#450 = EDGE_LOOP ( 'NONE', ( #378, #509, #545, #648 ) ) ;
#451 = CARTESIAN_POINT ( 'NONE',  ( 0.000000000000000000, 0.000000000000000000, 1.899999999999999911 ) ) ;
#452 = CARTESIAN_POINT ( 'NONE',  ( -0.2399999999999996858, -0.5749999999999999556, 5.000000000000000000 ) ) ;
#453 = DIRECTION ( 'NONE',  ( 0.000000000000000000, 0.000000000000000000, -1.000000000000000000 ) ) ;
#454 = DIRECTION ( 'NONE',  ( 0.000000000000000000, 0.000000000000000000, 1.000000000000000000 ) ) ;
#455 = DIRECTION ( 'NONE',  ( 1.000000000000000000, 9.035018104045874392E-17, -0.000000000000000000 ) ) ;
#456 = CARTESIAN_POINT ( 'NONE',  ( 0.2400000000000003797, 0.3149999999999998912, 5.000000000000000000 ) ) ;
#457 = EDGE_CURVE ( 'NONE', #573, #249, #667, .T. ) ;
#458 = DIRECTION ( 'NONE',  ( 0.000000000000000000, 0.000000000000000000, 1.000000000000000000 ) ) ;
#459 = CARTESIAN_POINT ( 'NONE',  ( -0.5750000000000000666, -0.2399999999999997691, 5.000000000000000000 ) ) ;
#460 = EDGE_LOOP ( 'NONE', ( #179, #464, #216, #622 ) ) ;
#461 = AXIS2_PLACEMENT_3D ( 'NONE', #656, #56, #499 ) ;
#462 = DIRECTION ( 'NONE',  ( 0.000000000000000000, 0.000000000000000000, 1.000000000000000000 ) ) ;
#463 = VECTOR ( 'NONE', #135, 100.0000000000000000 ) ;
#464 = ORIENTED_EDGE ( 'NONE', *, *, #482, .T. ) ;
#465 = PRODUCT_DEFINITION_CONTEXT ( 'detailed design', #497, 'design' ) ;
#466 = EDGE_LOOP ( 'NONE', ( #203, #379, #439, #54, #597, #294, #680, #416 ) ) ;
#467 = PRODUCT_CONTEXT ( 'NONE', #470, 'mechanical' ) ;
#468 = CARTESIAN_POINT ( 'NONE',  ( 0.2400000000000003797, -0.3149999999999998912, 5.000000000000000000 ) ) ;
#469 = DIRECTION ( 'NONE',  ( -1.508455196501571676E-16, 1.000000000000000000, 0.000000000000000000 ) ) ;
#470 = APPLICATION_CONTEXT ( 'automotive_design' ) ;
#471 = ORIENTED_EDGE ( 'NONE', *, *, #275, .T. ) ;
#472 = LINE ( 'NONE', #291, #20 ) ;
#473 = EDGE_CURVE ( 'NONE', #506, #496, #540, .T. ) ;
#474 = CARTESIAN_POINT ( 'NONE',  ( 0.000000000000000000, 0.000000000000000000, 1.899999999999999911 ) ) ;
#475 = ORIENTED_EDGE ( 'NONE', *, *, #124, .F. ) ;
#476 = CARTESIAN_POINT ( 'NONE',  ( -0.5750000000000000666, 0.5749999999999999556, 5.000000000000000000 ) ) ;
#477 = VECTOR ( 'NONE', #236, 100.0000000000000000 ) ;
#478 = COLOUR_RGB ( '',1.000000000000000000, 1.000000000000000000, 1.000000000000000000 ) ;
#479 = FACE_OUTER_BOUND ( 'NONE', #768, .T. ) ;
#480 = ORIENTED_EDGE ( 'NONE', *, *, #521, .T. ) ;
#481 = CARTESIAN_POINT ( 'NONE',  ( 0.2400000000000003797, 0.3149999999999998912, 2.630000000000000338 ) ) ;
#482 = EDGE_CURVE ( 'NONE', #563, #407, #22, .T. ) ;
#483 = CARTESIAN_POINT ( 'NONE',  ( -0.2399999999999996303, -0.3149999999999998912, 5.000000000000000000 ) ) ;
#484 = VERTEX_POINT ( 'NONE', #229 ) ;
#485 = EDGE_CURVE ( 'NONE', #235, #780, #783, .T. ) ;
#486 = DIRECTION ( 'NONE',  ( -1.000000000000000000, -1.508455196501571676E-16, 0.000000000000000000 ) ) ;
#487 = VERTEX_POINT ( 'NONE', #481 ) ;
#488 = ADVANCED_FACE ( 'NONE', ( #602 ), #730, .F. ) ;
#489 = DIRECTION ( 'NONE',  ( 1.000000000000000000, 0.000000000000000000, 0.000000000000000000 ) ) ;
#490 = LINE ( 'NONE', #576, #696 ) ;
#491 =( GEOMETRIC_REPRESENTATION_CONTEXT ( 3 ) GLOBAL_UNCERTAINTY_ASSIGNED_CONTEXT ( ( #352 ) ) GLOBAL_UNIT_ASSIGNED_CONTEXT ( ( #623, #811, #38 ) ) REPRESENTATION_CONTEXT ( 'NONE', 'WORKASPACE' ) );
#492 = EDGE_LOOP ( 'NONE', ( #528, #286, #242, #566 ) ) ;
#493 = CARTESIAN_POINT ( 'NONE',  ( -0.2399999999999996303, -0.5749999999999999556, 5.000000000000000000 ) ) ;
#494 = EDGE_CURVE ( 'NONE', #548, #617, #530, .T. ) ;
#495 = FACE_OUTER_BOUND ( 'NONE', #268, .T. ) ;
#496 = VERTEX_POINT ( 'NONE', #161 ) ;
#497 = APPLICATION_CONTEXT ( 'automotive_design' ) ;
#498 = CYLINDRICAL_SURFACE ( 'NONE', #711, 0.2399999999999999356 ) ;
#499 = DIRECTION ( 'NONE',  ( 1.000000000000000000, 0.000000000000000000, 0.000000000000000000 ) ) ;
#500 = VERTEX_POINT ( 'NONE', #157 ) ;
#501 = DIRECTION ( 'NONE',  ( 1.000000000000000000, 1.508455196501571676E-16, 0.000000000000000000 ) ) ;
#502 = CARTESIAN_POINT ( 'NONE',  ( -0.2399999999999996303, -0.3149999999999998912, 5.000000000000000000 ) ) ;
#503 = VERTEX_POINT ( 'NONE', #408 ) ;
#504 = COLOUR_RGB ( '',0.6941176470588235059, 0.09803921568627450844, 0.09803921568627450844 ) ;
#505 = VECTOR ( 'NONE', #609, 100.0000000000000000 ) ;
#506 = VERTEX_POINT ( 'NONE', #664 ) ;
#507 = LINE ( 'NONE', #571, #399 ) ;
#508 = LINE ( 'NONE', #742, #658 ) ;
#509 = ORIENTED_EDGE ( 'NONE', *, *, #588, .T. ) ;
#510 = EDGE_CURVE ( 'NONE', #431, #484, #417, .T. ) ;
#511 = VERTEX_POINT ( 'NONE', #537 ) ;
#512 = CARTESIAN_POINT ( 'NONE',  ( -0.3149999999999998912, -0.2399999999999997691, 2.390000000000000568 ) ) ;
#513 = LINE ( 'NONE', #81, #87 ) ;
#514 = DIRECTION ( 'NONE',  ( -1.000000000000000000, 0.000000000000000000, 0.000000000000000000 ) ) ;
#515 = CARTESIAN_POINT ( 'NONE',  ( 0.5749999999999999556, 0.5750000000000000666, 5.000000000000000000 ) ) ;
#516 = FACE_OUTER_BOUND ( 'NONE', #633, .T. ) ;
#517 = CIRCLE ( 'NONE', #129, 0.3099999999999999978 ) ;
#518 = AXIS2_PLACEMENT_3D ( 'NONE', #792, #414, #344 ) ;
#519 = CARTESIAN_POINT ( 'NONE',  ( 0.5750000000000000666, -0.5749999999999999556, 0.000000000000000000 ) ) ;
#520 = LINE ( 'NONE', #266, #345 ) ;
#521 = EDGE_CURVE ( 'NONE', #548, #92, #472, .T. ) ;
#522 = ORIENTED_EDGE ( 'NONE', *, *, #412, .T. ) ;
#523 = LINE ( 'NONE', #641, #75 ) ;
#524 = LINE ( 'NONE', #398, #208 ) ;
#525 = EDGE_CURVE ( 'NONE', #559, #63, #357, .T. ) ;
#526 = ORIENTED_EDGE ( 'NONE', *, *, #663, .F. ) ;
#527 = LINE ( 'NONE', #329, #60 ) ;
#528 = ORIENTED_EDGE ( 'NONE', *, *, #372, .F. ) ;
#529 = CIRCLE ( 'NONE', #168, 0.2399999999999999356 ) ;
#530 = LINE ( 'NONE', #223, #145 ) ;
#531 = VECTOR ( 'NONE', #380, 100.0000000000000000 ) ;
#532 = DIRECTION ( 'NONE',  ( 1.000000000000000000, 0.000000000000000000, 0.000000000000000000 ) ) ;
#533 = EDGE_CURVE ( 'NONE', #276, #245, #795, .T. ) ;
#534 = CARTESIAN_POINT ( 'NONE',  ( 0.8349999999999999645, -0.2399999999999997691, 2.630000000000000338 ) ) ;
#535 = DIRECTION ( 'NONE',  ( -1.508455196501571429E-16, 1.000000000000000000, 0.000000000000000000 ) ) ;
#536 = ORIENTED_EDGE ( 'NONE', *, *, #675, .F. ) ;
#537 = CARTESIAN_POINT ( 'NONE',  ( -0.3149999999999998912, -0.2399999999999997691, 2.630000000000000338 ) ) ;
#538 = LINE ( 'NONE', #220, #332 ) ;
#539 = ORIENTED_EDGE ( 'NONE', *, *, #336, .F. ) ;
#540 = LINE ( 'NONE', #288, #89 ) ;
#541 = VECTOR ( 'NONE', #125, 100.0000000000000000 ) ;
#542 = EDGE_CURVE ( 'NONE', #810, #132, #402, .T. ) ;
#543 = AXIS2_PLACEMENT_3D ( 'NONE', #405, #354, #90 ) ;
#544 = DIRECTION ( 'NONE',  ( -1.000000000000000000, 0.000000000000000000, 0.000000000000000000 ) ) ;
#545 = ORIENTED_EDGE ( 'NONE', *, *, #785, .T. ) ;
#546 = CARTESIAN_POINT ( 'NONE',  ( -0.2399999999999996303, 0.3149999999999998912, 2.390000000000000568 ) ) ;
#547 = LINE ( 'NONE', #17, #250 ) ;
#548 = VERTEX_POINT ( 'NONE', #476 ) ;
#549 = LINE ( 'NONE', #175, #397 ) ;
#550 = ORIENTED_EDGE ( 'NONE', *, *, #782, .F. ) ;
#551 = FILL_AREA_STYLE_COLOUR ( '', #478 ) ;
#552 = DIRECTION ( 'NONE',  ( 0.000000000000000000, 1.000000000000000000, 0.000000000000000000 ) ) ;
#553 = VECTOR ( 'NONE', #77, 100.0000000000000000 ) ;
#554 = CIRCLE ( 'NONE', #62, 0.2399999999999999911 ) ;
#555 = ORIENTED_EDGE ( 'NONE', *, *, #86, .F. ) ;
#556 = ADVANCED_FACE ( 'NONE', ( #651 ), #80, .F. ) ;
#557 = DIRECTION ( 'NONE',  ( 9.035018104045873159E-17, 1.000000000000000000, 0.000000000000000000 ) ) ;
#558 = FILL_AREA_STYLE ('',( #614 ) ) ;
#559 = VERTEX_POINT ( 'NONE', #278 ) ;
#560 = PRODUCT ( 'pillar_62', 'pillar_62', '', ( #467 ) ) ;
#561 = CARTESIAN_POINT ( 'NONE',  ( -0.3149999999999998912, 0.2400000000000000744, 2.390000000000000568 ) ) ;
#562 = EDGE_LOOP ( 'NONE', ( #577, #314, #471, #29 ) ) ;
#563 = VERTEX_POINT ( 'NONE', #149 ) ;
#564 =( NAMED_UNIT ( * ) PLANE_ANGLE_UNIT ( ) SI_UNIT ( $, .RADIAN. ) );
#565 = EDGE_CURVE ( 'NONE', #810, #617, #655, .T. ) ;
#566 = ORIENTED_EDGE ( 'NONE', *, *, #525, .T. ) ;
#567 = VECTOR ( 'NONE', #625, 100.0000000000000000 ) ;
#568 = DIRECTION ( 'NONE',  ( 1.807003620809174632E-16, 1.000000000000000000, 0.000000000000000000 ) ) ;
#569 = CARTESIAN_POINT ( 'NONE',  ( 0.000000000000000000, 0.2400000000000000744, 5.000000000000000000 ) ) ;
#570 = ORIENTED_EDGE ( 'NONE', *, *, #44, .T. ) ;
#571 = CARTESIAN_POINT ( 'NONE',  ( -0.2399999999999996303, 0.3149999999999998912, 2.630000000000000338 ) ) ;
#572 = DIRECTION ( 'NONE',  ( 0.000000000000000000, 0.000000000000000000, 1.000000000000000000 ) ) ;
#573 = VERTEX_POINT ( 'NONE', #681 ) ;
#574 = EDGE_CURVE ( 'NONE', #298, #53, #312, .T. ) ;
#575 = PLANE ( 'NONE',  #698 ) ;
#576 = CARTESIAN_POINT ( 'NONE',  ( -0.2399999999999996303, 0.000000000000000000, 5.000000000000000000 ) ) ;
#577 = ORIENTED_EDGE ( 'NONE', *, *, #598, .F. ) ;
#578 = AXIS2_PLACEMENT_3D ( 'NONE', #66, #342, #4 ) ;
#579 = VECTOR ( 'NONE', #619, 100.0000000000000000 ) ;
#580 = CYLINDRICAL_SURFACE ( 'NONE', #803, 0.3099999999999999978 ) ;
#581 = LINE ( 'NONE', #569, #196 ) ;
#582 = FACE_OUTER_BOUND ( 'NONE', #360, .T. ) ;
#583 = CARTESIAN_POINT ( 'NONE',  ( -0.5749999999999999556, 1.517883041479706208E-16, 2.630000000000000338 ) ) ;
#584 = DIRECTION ( 'NONE',  ( 0.000000000000000000, 0.000000000000000000, 1.000000000000000000 ) ) ;
#585 = EDGE_LOOP ( 'NONE', ( #15, #144, #570, #100, #232, #364, #310, #119, #155, #419, #400, #95, #732, #434, #382, #305, #752, #447, #152, #805 ) ) ;
#586 = DIRECTION ( 'NONE',  ( -1.000000000000000000, 0.000000000000000000, 0.000000000000000000 ) ) ;
#587 = FACE_OUTER_BOUND ( 'NONE', #450, .T. ) ;
#588 = EDGE_CURVE ( 'NONE', #723, #487, #365, .T. ) ;
#589 = MECHANICAL_DESIGN_GEOMETRIC_PRESENTATION_REPRESENTATION (  '', ( #279 ), #359 ) ;
#590 =( NAMED_UNIT ( * ) PLANE_ANGLE_UNIT ( ) SI_UNIT ( $, .RADIAN. ) );
#591 = VECTOR ( 'NONE', #93, 100.0000000000000000 ) ;
#592 = DIRECTION ( 'NONE',  ( 9.035018104045874392E-17, -1.000000000000000000, 0.000000000000000000 ) ) ;
#593 = CARTESIAN_POINT ( 'NONE',  ( 3.796405077356794548E-17, -0.3099999999999999978, 0.000000000000000000 ) ) ;
#594 = VERTEX_POINT ( 'NONE', #40 ) ;
#595 = CARTESIAN_POINT ( 'NONE',  ( 0.3149999999999998912, -0.2399999999999997691, 2.390000000000000568 ) ) ;
#596 = CARTESIAN_POINT ( 'NONE',  ( -0.3149999999999998912, -0.2399999999999997691, 2.390000000000000568 ) ) ;
#597 = ORIENTED_EDGE ( 'NONE', *, *, #339, .T. ) ;
#598 = EDGE_CURVE ( 'NONE', #132, #113, #315, .T. ) ;
#599 = CARTESIAN_POINT ( 'NONE',  ( 0.000000000000000000, 0.000000000000000000, 0.000000000000000000 ) ) ;
#600 = CARTESIAN_POINT ( 'NONE',  ( -0.3149999999999998912, 0.2400000000000000744, 2.630000000000000338 ) ) ;
#601 = EDGE_LOOP ( 'NONE', ( #526, #126, #808, #438 ) ) ;
#602 = FACE_OUTER_BOUND ( 'NONE', #255, .T. ) ;
#603 = AXIS2_PLACEMENT_3D ( 'NONE', #620, #682, #118 ) ;
#604 = STYLED_ITEM ( 'NONE', ( #46 ), #649 ) ;
#605 = FACE_OUTER_BOUND ( 'NONE', #13, .T. ) ;
#606 = ORIENTED_EDGE ( 'NONE', *, *, #401, .F. ) ;
#607 = CARTESIAN_POINT ( 'NONE',  ( -0.2399999999999996303, 0.3149999999999998912, 2.630000000000000338 ) ) ;
#608 = EDGE_LOOP ( 'NONE', ( #653, #640, #190, #323 ) ) ;
#609 = DIRECTION ( 'NONE',  ( 0.000000000000000000, 0.000000000000000000, 1.000000000000000000 ) ) ;
#610 = CARTESIAN_POINT ( 'NONE',  ( 0.5750000000000000666, -0.5749999999999999556, 5.000000000000000000 ) ) ;
#611 = ORIENTED_EDGE ( 'NONE', *, *, #533, .F. ) ;
#612 = ADVANCED_FACE ( 'NONE', ( #374 ), #308, .F. ) ;
#613 = DIRECTION ( 'NONE',  ( 0.000000000000000000, -1.000000000000000000, 0.000000000000000000 ) ) ;
#614 = FILL_AREA_STYLE_COLOUR ( '', #504 ) ;
#615 = VECTOR ( 'NONE', #193, 100.0000000000000000 ) ;
#616 = VECTOR ( 'NONE', #557, 100.0000000000000000 ) ;
#617 = VERTEX_POINT ( 'NONE', #165 ) ;
#618 = AXIS2_PLACEMENT_3D ( 'NONE', #234, #486, #734 ) ;
#619 = DIRECTION ( 'NONE',  ( -0.000000000000000000, -1.000000000000000000, -0.000000000000000000 ) ) ;
#620 = CARTESIAN_POINT ( 'NONE',  ( 0.000000000000000000, 0.000000000000000000, 5.000000000000000000 ) ) ;
#621 = EDGE_LOOP ( 'NONE', ( #32, #148, #226, #669 ) ) ;
#622 = ORIENTED_EDGE ( 'NONE', *, *, #650, .T. ) ;
#623 =( LENGTH_UNIT ( ) NAMED_UNIT ( * ) SI_UNIT ( .CENTI., .METRE. ) );
#624 = ADVANCED_FACE ( 'NONE', ( #116 ), #498, .F. ) ;
#625 = DIRECTION ( 'NONE',  ( -0.000000000000000000, 0.000000000000000000, -1.000000000000000000 ) ) ;
#626 = ORIENTED_EDGE ( 'NONE', *, *, #313, .F. ) ;
#627 = CARTESIAN_POINT ( 'NONE',  ( 0.2400000000000003797, -0.3149999999999998912, 2.390000000000000568 ) ) ;
#628 = ADVANCED_FACE ( 'NONE', ( #51 ), #688, .F. ) ;
#629 = DIRECTION ( 'NONE',  ( -1.508455196501571429E-16, 1.000000000000000000, 0.000000000000000000 ) ) ;
#630 = VERTEX_POINT ( 'NONE', #748 ) ;
#631 = AXIS2_PLACEMENT_3D ( 'NONE', #292, #668, #544 ) ;
#632 = VECTOR ( 'NONE', #778, 100.0000000000000000 ) ;
#633 = EDGE_LOOP ( 'NONE', ( #539, #206, #209, #413 ) ) ;
#634 = PLANE ( 'NONE',  #334 ) ;
#635 = DIRECTION ( 'NONE',  ( 0.000000000000000000, -1.000000000000000000, 0.000000000000000000 ) ) ;
#636 = ORIENTED_EDGE ( 'NONE', *, *, #311, .F. ) ;
#637 = EDGE_CURVE ( 'NONE', #496, #298, #435, .T. ) ;
#638 = CARTESIAN_POINT ( 'NONE',  ( 3.796405077356794548E-17, -0.3099999999999999978, 1.899999999999999911 ) ) ;
#639 = CARTESIAN_POINT ( 'NONE',  ( -0.5749999999999999556, -0.2399999999999998523, 2.630000000000000338 ) ) ;
#640 = ORIENTED_EDGE ( 'NONE', *, *, #473, .T. ) ;
#641 = CARTESIAN_POINT ( 'NONE',  ( 0.2400000000000003797, -0.3149999999999998912, 2.390000000000000568 ) ) ;
#642 = DIRECTION ( 'NONE',  ( 0.000000000000000000, 1.000000000000000000, 0.000000000000000000 ) ) ;
#643 = CARTESIAN_POINT ( 'NONE',  ( 0.8349999999999999645, 0.2400000000000000744, 2.390000000000000568 ) ) ;
#644 = VECTOR ( 'NONE', #701, 100.0000000000000000 ) ;
#645 = AXIS2_PLACEMENT_3D ( 'NONE', #766, #704, #816 ) ;
#646 = DIRECTION ( 'NONE',  ( 0.000000000000000000, 1.000000000000000000, 0.000000000000000000 ) ) ;
#647 = CARTESIAN_POINT ( 'NONE',  ( 3.469446951953614189E-16, -0.5749999999999999556, 2.630000000000000338 ) ) ;
#648 = ORIENTED_EDGE ( 'NONE', *, *, #302, .T. ) ;
#649 = MANIFOLD_SOLID_BREP ( 'Fillet7', #409 ) ;
#650 = EDGE_CURVE ( 'NONE', #666, #106, #299, .T. ) ;
#651 = FACE_OUTER_BOUND ( 'NONE', #608, .T. ) ;
#652 = EDGE_CURVE ( 'NONE', #356, #113, #737, .T. ) ;
#653 = ORIENTED_EDGE ( 'NONE', *, *, #412, .F. ) ;
#654 = VERTEX_POINT ( 'NONE', #493 ) ;
#655 = LINE ( 'NONE', #181, #505 ) ;
#656 = CARTESIAN_POINT ( 'NONE',  ( 0.2400000000000003797, 0.3149999999999998912, 2.390000000000000568 ) ) ;
#657 = ORIENTED_EDGE ( 'NONE', *, *, #457, .T. ) ;
#658 = VECTOR ( 'NONE', #112, 100.0000000000000000 ) ;
#659 = VECTOR ( 'NONE', #458, 100.0000000000000000 ) ;
#660 = CARTESIAN_POINT ( 'NONE',  ( -0.5750000000000000666, 0.5749999999999999556, 5.000000000000000000 ) ) ;
#661 = DIRECTION ( 'NONE',  ( 1.000000000000000000, 1.508455196501571429E-16, 0.000000000000000000 ) ) ;
#662 = ORIENTED_EDGE ( 'NONE', *, *, #387, .F. ) ;
#663 = EDGE_CURVE ( 'NONE', #407, #666, #806, .T. ) ;
#664 = CARTESIAN_POINT ( 'NONE',  ( -0.2399999999999996858, -0.5749999999999999556, 2.630000000000000338 ) ) ;
#665 = CARTESIAN_POINT ( 'NONE',  ( -0.2399999999999996303, 0.3149999999999998912, 2.390000000000000568 ) ) ;
#666 = VERTEX_POINT ( 'NONE', #173 ) ;
#667 = LINE ( 'NONE', #146, #361 ) ;
#668 = DIRECTION ( 'NONE',  ( 0.000000000000000000, 1.000000000000000000, 0.000000000000000000 ) ) ;
#669 = ORIENTED_EDGE ( 'NONE', *, *, #637, .F. ) ;
#670 = CARTESIAN_POINT ( 'NONE',  ( 3.469446951953614189E-16, -0.3149999999999998912, 2.630000000000000338 ) ) ;
#671 = AXIS2_PLACEMENT_3D ( 'NONE', #6, #635, #3 ) ;
#672 = VECTOR ( 'NONE', #489, 100.0000000000000000 ) ;
#673 = CARTESIAN_POINT ( 'NONE',  ( 0.5749999999999999556, 0.5750000000000000666, 0.000000000000000000 ) ) ;
#674 = ORIENTED_EDGE ( 'NONE', *, *, #430, .T. ) ;
#675 = EDGE_CURVE ( 'NONE', #132, #511, #425, .T. ) ;
#676 = PLANE ( 'NONE',  #101 ) ;
#677 = ORIENTED_EDGE ( 'NONE', *, *, #678, .F. ) ;
#678 = EDGE_CURVE ( 'NONE', #506, #53, #554, .T. ) ;
#679 = CARTESIAN_POINT ( 'NONE',  ( -0.3149999999999998912, 1.517883041479706208E-16, 2.630000000000000338 ) ) ;
#680 = ORIENTED_EDGE ( 'NONE', *, *, #44, .F. ) ;
#681 = CARTESIAN_POINT ( 'NONE',  ( 0.000000000000000000, 0.3099999999999999978, 1.899999999999999911 ) ) ;
#682 = DIRECTION ( 'NONE',  ( 0.000000000000000000, 0.000000000000000000, -1.000000000000000000 ) ) ;
#683 = VECTOR ( 'NONE', #453, 100.0000000000000000 ) ;
#684 = AXIS2_PLACEMENT_3D ( 'NONE', #679, #111, #568 ) ;
#685 = ORIENTED_EDGE ( 'NONE', *, *, #61, .T. ) ;
#686 = EDGE_CURVE ( 'NONE', #235, #484, #507, .T. ) ;
#687 = ORIENTED_EDGE ( 'NONE', *, *, #420, .F. ) ;
#688 = PLANE ( 'NONE',  #307 ) ;
#689 = LINE ( 'NONE', #304, #238 ) ;
#690 = ORIENTED_EDGE ( 'NONE', *, *, #339, .F. ) ;
#691 = LINE ( 'NONE', #328, #659 ) ;
#692 = ORIENTED_EDGE ( 'NONE', *, *, #721, .T. ) ;
#693 = ORIENTED_EDGE ( 'NONE', *, *, #565, .F. ) ;
#694 = DIRECTION ( 'NONE',  ( 0.000000000000000000, 1.000000000000000000, 0.000000000000000000 ) ) ;
#695 = LINE ( 'NONE', #192, #306 ) ;
#696 = VECTOR ( 'NONE', #642, 100.0000000000000000 ) ;
#697 = CARTESIAN_POINT ( 'NONE',  ( 0.2400000000000003797, -0.5749999999999999556, 5.000000000000000000 ) ) ;
#698 = AXIS2_PLACEMENT_3D ( 'NONE', #627, #58, #2 ) ;
#699 = ORIENTED_EDGE ( 'NONE', *, *, #772, .F. ) ;
#700 = CARTESIAN_POINT ( 'NONE',  ( 0.5750000000000000666, -0.5749999999999999556, 5.000000000000000000 ) ) ;
#701 = DIRECTION ( 'NONE',  ( 0.000000000000000000, 1.000000000000000000, 0.000000000000000000 ) ) ;
#702 = ADVANCED_FACE ( 'NONE', ( #71 ), #634, .F. ) ;
#703 = ORIENTED_EDGE ( 'NONE', *, *, #141, .F. ) ;
#704 = DIRECTION ( 'NONE',  ( 1.000000000000000000, 1.508455196501571676E-16, -0.000000000000000000 ) ) ;
#705 = LINE ( 'NONE', #386, #814 ) ;
#706 = FACE_OUTER_BOUND ( 'NONE', #466, .T. ) ;
#707 = LINE ( 'NONE', #757, #182 ) ;
#708 = FACE_OUTER_BOUND ( 'NONE', #621, .T. ) ;
#709 = VERTEX_POINT ( 'NONE', #252 ) ;
#710 = EDGE_CURVE ( 'NONE', #500, #69, #769, .T. ) ;
#711 = AXIS2_PLACEMENT_3D ( 'NONE', #429, #107, #613 ) ;
#712 = PRODUCT_DEFINITION_FORMATION_WITH_SPECIFIED_SOURCE ( 'ANY', '', #560, .NOT_KNOWN. ) ;
#713 = CARTESIAN_POINT ( 'NONE',  ( -0.2399999999999996858, 0.5749999999999999556, 5.000000000000000000 ) ) ;
#714 = ORIENTED_EDGE ( 'NONE', *, *, #185, .T. ) ;
#715 = APPLICATION_PROTOCOL_DEFINITION ( 'draft international standard', 'automotive_design', 1998, #470 ) ;
#716 = CARTESIAN_POINT ( 'NONE',  ( -0.2399999999999996303, 0.5749999999999999556, 5.000000000000000000 ) ) ;
#717 = DIRECTION ( 'NONE',  ( 1.000000000000000000, 0.000000000000000000, 0.000000000000000000 ) ) ;
#718 = ORIENTED_EDGE ( 'NONE', *, *, #61, .F. ) ;
#719 = DIRECTION ( 'NONE',  ( 1.000000000000000000, 0.000000000000000000, -0.000000000000000000 ) ) ;
#720 = DIRECTION ( 'NONE',  ( 0.000000000000000000, 1.000000000000000000, 0.000000000000000000 ) ) ;
#721 = EDGE_CURVE ( 'NONE', #810, #326, #169, .T. ) ;
#722 = DIRECTION ( 'NONE',  ( 1.000000000000000000, 0.000000000000000000, 0.000000000000000000 ) ) ;
#723 = VERTEX_POINT ( 'NONE', #138 ) ;
#724 = VECTOR ( 'NONE', #355, 100.0000000000000000 ) ;
#725 = AXIS2_PLACEMENT_3D ( 'NONE', #583, #64, #694 ) ;
#726 = CARTESIAN_POINT ( 'NONE',  ( 0.3149999999999998912, 0.2400000000000000744, 5.000000000000000000 ) ) ;
#727 = DIRECTION ( 'NONE',  ( 9.035018104045874392E-17, 1.000000000000000000, 0.000000000000000000 ) ) ;
#728 = PRODUCT_RELATED_PRODUCT_CATEGORY ( 'part', '', ( #560 ) ) ;
#729 = ORIENTED_EDGE ( 'NONE', *, *, #110, .F. ) ;
#730 = CYLINDRICAL_SURFACE ( 'NONE', #543, 0.2400000000000000189 ) ;
#731 = DIRECTION ( 'NONE',  ( 0.000000000000000000, -1.000000000000000000, 0.000000000000000000 ) ) ;
#732 = ORIENTED_EDGE ( 'NONE', *, *, #104, .T. ) ;
#733 = CARTESIAN_POINT ( 'NONE',  ( 0.2400000000000003797, -0.5749999999999999556, 2.630000000000000338 ) ) ;
#734 = DIRECTION ( 'NONE',  ( 1.508455196501571676E-16, -1.000000000000000000, 0.000000000000000000 ) ) ;
#735 = ORIENTED_EDGE ( 'NONE', *, *, #807, .T. ) ;
#736 = ADVANCED_FACE ( 'NONE', ( #324, #444 ), #753, .T. ) ;
#737 = LINE ( 'NONE', #303, #616 ) ;
#738 = AXIS2_PLACEMENT_3D ( 'NONE', #177, #809, #432 ) ;
#739 = CYLINDRICAL_SURFACE ( 'NONE', #776, 0.3099999999999999978 ) ;
#740 = EDGE_LOOP ( 'NONE', ( #424, #388, #122, #480, #343, #39, #611, #801 ) ) ;
#741 = DIRECTION ( 'NONE',  ( 0.000000000000000000, 0.000000000000000000, 1.000000000000000000 ) ) ;
#742 = CARTESIAN_POINT ( 'NONE',  ( 0.5749999999999999556, 0.2400000000000000744, 5.000000000000000000 ) ) ;
#743 = ORIENTED_EDGE ( 'NONE', *, *, #141, .T. ) ;
#744 = DIRECTION ( 'NONE',  ( 8.340016711426955288E-17, -1.000000000000000000, -0.000000000000000000 ) ) ;
#745 = DIRECTION ( 'NONE',  ( -1.000000000000000000, 0.000000000000000000, 0.000000000000000000 ) ) ;
#746 = EDGE_CURVE ( 'NONE', #113, #617, #187, .T. ) ;
#747 = EDGE_LOOP ( 'NONE', ( #687, #755 ) ) ;
#748 = CARTESIAN_POINT ( 'NONE',  ( 0.2400000000000003797, -0.5749999999999999556, 5.000000000000000000 ) ) ;
#749 = CARTESIAN_POINT ( 'NONE',  ( 0.000000000000000000, 0.000000000000000000, 1.899999999999999911 ) ) ;
#750 = VECTOR ( 'NONE', #406, 100.0000000000000000 ) ;
#751 = VECTOR ( 'NONE', #30, 100.0000000000000000 ) ;
#752 = ORIENTED_EDGE ( 'NONE', *, *, #327, .T. ) ;
#753 = PLANE ( 'NONE',  #131 ) ;
#754 = FACE_OUTER_BOUND ( 'NONE', #273, .T. ) ;
#755 = ORIENTED_EDGE ( 'NONE', *, *, #430, .F. ) ;
#756 = ORIENTED_EDGE ( 'NONE', *, *, #174, .T. ) ;
#757 = CARTESIAN_POINT ( 'NONE',  ( 0.2400000000000003797, 0.3149999999999998912, 2.390000000000000568 ) ) ;
#758 = DIRECTION ( 'NONE',  ( 1.000000000000000000, 0.000000000000000000, 0.000000000000000000 ) ) ;
#759 = CARTESIAN_POINT ( 'NONE',  ( -0.5750000000000000666, 0.5749999999999999556, 0.000000000000000000 ) ) ;
#760 = CARTESIAN_POINT ( 'NONE',  ( 3.469446951953614189E-16, -0.5749999999999999556, 2.630000000000000338 ) ) ;
#761 = ADVANCED_FACE ( 'NONE', ( #195 ), #575, .F. ) ;
#762 = CARTESIAN_POINT ( 'NONE',  ( 0.3149999999999998912, -0.2399999999999997691, 2.630000000000000338 ) ) ;
#763 = VECTOR ( 'NONE', #262, 100.0000000000000000 ) ;
#764 = ORIENTED_EDGE ( 'NONE', *, *, #710, .T. ) ;
#765 = VECTOR ( 'NONE', #123, 100.0000000000000000 ) ;
#766 = CARTESIAN_POINT ( 'NONE',  ( 0.5749999999999999556, 1.517883041479706208E-16, 2.630000000000000338 ) ) ;
#767 = CARTESIAN_POINT ( 'NONE',  ( 0.3149999999999998912, -0.2399999999999997691, 5.000000000000000000 ) ) ;
#768 = EDGE_LOOP ( 'NONE', ( #189, #133, #50, #82 ) ) ;
#769 = LINE ( 'NONE', #638, #531 ) ;
#770 = CARTESIAN_POINT ( 'NONE',  ( -0.5749999999999999556, -0.2399999999999997691, 2.630000000000000338 ) ) ;
#771 = VERTEX_POINT ( 'NONE', #389 ) ;
#772 = EDGE_CURVE ( 'NONE', #298, #559, #523, .T. ) ;
#773 = DIRECTION ( 'NONE',  ( 1.807003620809174632E-16, -1.000000000000000000, 0.000000000000000000 ) ) ;
#774 = ORIENTED_EDGE ( 'NONE', *, *, #275, .F. ) ;
#775 = ADVANCED_FACE ( 'NONE', ( #392 ), #580, .F. ) ;
#776 = AXIS2_PLACEMENT_3D ( 'NONE', #749, #366, #183 ) ;
#777 = ADVANCED_BREP_SHAPE_REPRESENTATION ( 'pillar_62', ( #649, #48 ), #347 ) ;
#778 = DIRECTION ( 'NONE',  ( 1.000000000000000000, 0.000000000000000000, 0.000000000000000000 ) ) ;
#779 = DIRECTION ( 'NONE',  ( 0.000000000000000000, 1.000000000000000000, 0.000000000000000000 ) ) ;
#780 = VERTEX_POINT ( 'NONE', #204 ) ;
#781 = EDGE_CURVE ( 'NONE', #723, #709, #691, .T. ) ;
#782 = EDGE_CURVE ( 'NONE', #276, #326, #201, .T. ) ;
#783 = LINE ( 'NONE', #546, #751 ) ;
#784 = CARTESIAN_POINT ( 'NONE',  ( 0.5750000000000000666, -0.2399999999999997691, 5.000000000000000000 ) ) ;
#785 = EDGE_CURVE ( 'NONE', #487, #353, #707, .T. ) ;
#786 = ORIENTED_EDGE ( 'NONE', *, *, #25, .F. ) ;
#787 = DIRECTION ( 'NONE',  ( 0.000000000000000000, -1.000000000000000000, -0.000000000000000000 ) ) ;
#788 = DIRECTION ( 'NONE',  ( -0.000000000000000000, 0.000000000000000000, -1.000000000000000000 ) ) ;
#789 = CARTESIAN_POINT ( 'NONE',  ( 0.5750000000000000666, -0.5749999999999999556, 0.000000000000000000 ) ) ;
#790 = ORIENTED_EDGE ( 'NONE', *, *, #316, .T. ) ;
#791 = VECTOR ( 'NONE', #440, 100.0000000000000000 ) ;
#792 = CARTESIAN_POINT ( 'NONE',  ( 0.000000000000000000, 0.000000000000000000, 0.000000000000000000 ) ) ;
#793 = PLANE ( 'NONE',  #45 ) ;
#794 = ORIENTED_EDGE ( 'NONE', *, *, #542, .T. ) ;
#795 = LINE ( 'NONE', #660, #117 ) ;
#796 = FACE_OUTER_BOUND ( 'NONE', #251, .T. ) ;
#797 = VERTEX_POINT ( 'NONE', #519 ) ;
#798 = EDGE_CURVE ( 'NONE', #563, #594, #47, .T. ) ;
#799 = DIRECTION ( 'NONE',  ( 0.000000000000000000, 0.000000000000000000, 1.000000000000000000 ) ) ;
#800 = PLANE ( 'NONE',  #73 ) ;
#801 = ORIENTED_EDGE ( 'NONE', *, *, #782, .T. ) ;
#802 = VECTOR ( 'NONE', #535, 100.0000000000000000 ) ;
#803 = AXIS2_PLACEMENT_3D ( 'NONE', #451, #67, #320 ) ;
#804 = LINE ( 'NONE', #300, #477 ) ;
#805 = ORIENTED_EDGE ( 'NONE', *, *, #302, .F. ) ;
#806 = LINE ( 'NONE', #243, #321 ) ;
#807 = EDGE_CURVE ( 'NONE', #487, #235, #295, .T. ) ;
#808 = ORIENTED_EDGE ( 'NONE', *, *, #336, .T. ) ;
#809 = DIRECTION ( 'NONE',  ( 0.000000000000000000, 1.000000000000000000, -0.000000000000000000 ) ) ;
#810 = VERTEX_POINT ( 'NONE', #256 ) ;
#811 =( NAMED_UNIT ( * ) PLANE_ANGLE_UNIT ( ) SI_UNIT ( $, .RADIAN. ) );
#812 = PRODUCT_DEFINITION_SHAPE ( 'NONE', 'NONE',  #114 ) ;
#813 = AXIS2_PLACEMENT_3D ( 'NONE', #596, #297, #727 ) ;
#814 = VECTOR ( 'NONE', #207, 100.0000000000000000 ) ;
#815 = EDGE_LOOP ( 'NONE', ( #677, #522, #475, #756, #176, #221, #376, #283 ) ) ;
#816 = DIRECTION ( 'NONE',  ( 0.000000000000000000, -1.000000000000000000, 0.000000000000000000 ) ) ;
#817 = DIRECTION ( 'NONE',  ( 8.340016711426955288E-17, -1.000000000000000000, 0.000000000000000000 ) ) ;
#818 = LINE ( 'NONE', #759, #615 ) ;
ENDSEC;
END-ISO-10303-21;
