ISO-10303-21;
HEADER;
FILE_DESCRIPTION (( 'STEP AP214' ),
    '1' );
FILE_NAME ('ramp-wall-lower_60.STEP',
    '2026-06-19T13:48:47',
    ( '' ),
    ( '' ),
    'SwSTEP 2.0',
    'SolidWorks 2023',
    '' );
FILE_SCHEMA (( 'AUTOMOTIVE_DESIGN' ));
ENDSEC;

DATA;
#1 = ORIENTED_EDGE ( 'NONE', *, *, #413, .F. ) ;
#2 = EDGE_CURVE ( 'NONE', #75, #90, #213, .T. ) ;
#3 = VECTOR ( 'NONE', #43, 100.0000000000000000 ) ;
#4 = CARTESIAN_POINT ( 'NONE',  ( 0.000000000000000000, 0.000000000000000000, 0.000000000000000000 ) ) ;
#5 = ORIENTED_EDGE ( 'NONE', *, *, #336, .F. ) ;
#6 = DIRECTION ( 'NONE',  ( -2.465190328815661892E-32, 0.000000000000000000, 1.000000000000000000 ) ) ;
#7 = ADVANCED_FACE ( 'NONE', ( #495 ), #293, .F. ) ;
#8 = CARTESIAN_POINT ( 'NONE',  ( -27.47382017840123680, 6.730727086790011526E-14, -3.469446951953614189E-16 ) ) ;
#9 = CARTESIAN_POINT ( 'NONE',  ( 0.000000000000000000, 0.3950000000000000178, 0.000000000000000000 ) ) ;
#10 = ORIENTED_EDGE ( 'NONE', *, *, #251, .F. ) ;
#11 =( NAMED_UNIT ( * ) PLANE_ANGLE_UNIT ( ) SI_UNIT ( $, .RADIAN. ) );
#12 = DIRECTION ( 'NONE',  ( -2.465190328815661892E-32, 0.000000000000000000, 1.000000000000000000 ) ) ;
#13 =( NAMED_UNIT ( * ) SI_UNIT ( $, .STERADIAN. ) SOLID_ANGLE_UNIT ( ) );
#14 = CARTESIAN_POINT ( 'NONE',  ( 0.000000000000000000, 1.199999999999999956, 5.000000000000000000 ) ) ;
#15 = ORIENTED_EDGE ( 'NONE', *, *, #402, .T. ) ;
#16 = EDGE_CURVE ( 'NONE', #314, #60, #497, .T. ) ;
#17 = SURFACE_SIDE_STYLE ('',( #136 ) ) ;
#18 = CYLINDRICAL_SURFACE ( 'NONE', #130, 0.2999999999999994893 ) ;
#19 = ORIENTED_EDGE ( 'NONE', *, *, #56, .T. ) ;
#20 = CARTESIAN_POINT ( 'NONE',  ( -1.195000000000001616, 0.5999999999999999778, 5.000000000000000000 ) ) ;
#21 = DIRECTION ( 'NONE',  ( 1.000000000000000000, 0.000000000000000000, 2.139492287038061508E-16 ) ) ;
#22 = DIRECTION ( 'NONE',  ( 1.000000000000000000, 0.000000000000000000, 0.000000000000000000 ) ) ;
#23 = ADVANCED_FACE ( 'NONE', ( #339 ), #129, .F. ) ;
#24 = ORIENTED_EDGE ( 'NONE', *, *, #478, .F. ) ;
#25 = VECTOR ( 'NONE', #163, 100.0000000000000142 ) ;
#26 = DIRECTION ( 'NONE',  ( -2.465190328815661892E-32, 0.000000000000000000, 1.000000000000000000 ) ) ;
#27 = DIRECTION ( 'NONE',  ( -0.000000000000000000, 1.000000000000000000, 0.000000000000000000 ) ) ;
#28 = VERTEX_POINT ( 'NONE', #153 ) ;
#29 = CARTESIAN_POINT ( 'NONE',  ( -5.551115123125782702E-15, 0.3950000000000000178, 2.395000000000004015 ) ) ;
#30 = PLANE ( 'NONE',  #219 ) ;
#31 = ORIENTED_EDGE ( 'NONE', *, *, #489, .T. ) ;
#32 = DIRECTION ( 'NONE',  ( -2.465190328815661892E-32, 0.000000000000000000, 1.000000000000000000 ) ) ;
#33 = AXIS2_PLACEMENT_3D ( 'NONE', #261, #483, #228 ) ;
#34 = EDGE_CURVE ( 'NONE', #300, #165, #115, .T. ) ;
#35 = FACE_OUTER_BOUND ( 'NONE', #92, .T. ) ;
#36 = CARTESIAN_POINT ( 'NONE',  ( 0.2499999999999946709, 0.8049999999999999378, 2.395000000000004015 ) ) ;
#37 = VECTOR ( 'NONE', #59, 100.0000000000000142 ) ;
#38 = EDGE_CURVE ( 'NONE', #188, #359, #107, .T. ) ;
#39 = DIRECTION ( 'NONE',  ( 0.000000000000000000, -1.000000000000000000, 0.000000000000000000 ) ) ;
#40 = VERTEX_POINT ( 'NONE', #111 ) ;
#41 = EDGE_LOOP ( 'NONE', ( #291, #412, #143, #522 ) ) ;
#42 = PRODUCT_DEFINITION_FORMATION_WITH_SPECIFIED_SOURCE ( 'ANY', '', #448, .NOT_KNOWN. ) ;
#43 = DIRECTION ( 'NONE',  ( 1.000000000000000000, 0.000000000000000000, 2.139492287038061508E-16 ) ) ;
#44 = ORIENTED_EDGE ( 'NONE', *, *, #168, .F. ) ;
#45 = AXIS2_PLACEMENT_3D ( 'NONE', #460, #6, #53 ) ;
#46 = DIRECTION ( 'NONE',  ( 0.000000000000000000, 0.000000000000000000, 1.000000000000000000 ) ) ;
#47 = VERTEX_POINT ( 'NONE', #347 ) ;
#48 = CARTESIAN_POINT ( 'NONE',  ( -0.5950000000000010836, 0.5999999999999999778, 3.100000000000000533 ) ) ;
#49 = VERTEX_POINT ( 'NONE', #20 ) ;
#50 = PRESENTATION_STYLE_ASSIGNMENT (( #217 ) ) ;
#51 = CARTESIAN_POINT ( 'NONE',  ( 0.2499999999999946709, 0.3950000000000000178, 3.816391647148975608E-15 ) ) ;
#52 =( LENGTH_UNIT ( ) NAMED_UNIT ( * ) SI_UNIT ( .CENTI., .METRE. ) );
#53 = DIRECTION ( 'NONE',  ( 1.000000000000000000, 0.000000000000000000, 0.000000000000000000 ) ) ;
#54 = AXIS2_PLACEMENT_3D ( 'NONE', #310, #357, #128 ) ;
#55 = VERTEX_POINT ( 'NONE', #174 ) ;
#56 = EDGE_CURVE ( 'NONE', #256, #179, #271, .T. ) ;
#57 = DIRECTION ( 'NONE',  ( 1.000000000000000000, 0.000000000000000000, 2.465190328815661892E-32 ) ) ;
#58 =( LENGTH_UNIT ( ) NAMED_UNIT ( * ) SI_UNIT ( .CENTI., .METRE. ) );
#59 = DIRECTION ( 'NONE',  ( -0.2302195854387860119, 0.000000000000000000, 0.9731387067013588243 ) ) ;
#60 = VERTEX_POINT ( 'NONE', #351 ) ;
#61 = DIRECTION ( 'NONE',  ( -2.465190328815661892E-32, 0.000000000000000000, 1.000000000000000000 ) ) ;
#62 = CARTESIAN_POINT ( 'NONE',  ( -1.195000000000001616, 0.5999999999999999778, 3.100000000000000533 ) ) ;
#63 = VECTOR ( 'NONE', #410, 100.0000000000000000 ) ;
#64 = EDGE_LOOP ( 'NONE', ( #232, #173 ) ) ;
#65 = PLANE ( 'NONE',  #33 ) ;
#66 = DIRECTION ( 'NONE',  ( -0.9731387067013588243, 0.000000000000000000, -0.2302195854387859841 ) ) ;
#67 = DIRECTION ( 'NONE',  ( 1.000000000000000000, 0.000000000000000000, 0.000000000000000000 ) ) ;
#68 = EDGE_LOOP ( 'NONE', ( #524, #24, #205, #44, #343, #204, #506, #334 ) ) ;
#69 = PLANE ( 'NONE',  #142 ) ;
#70 =( NAMED_UNIT ( * ) SI_UNIT ( $, .STERADIAN. ) SOLID_ANGLE_UNIT ( ) );
#71 = CARTESIAN_POINT ( 'NONE',  ( 0.000000000000000000, 0.3950000000000000178, 0.000000000000000000 ) ) ;
#72 = ORIENTED_EDGE ( 'NONE', *, *, #16, .T. ) ;
#73 = LINE ( 'NONE', #517, #487 ) ;
#74 = AXIS2_PLACEMENT_3D ( 'NONE', #470, #21, #464 ) ;
#75 = VERTEX_POINT ( 'NONE', #97 ) ;
#76 = AXIS2_PLACEMENT_3D ( 'NONE', #109, #272, #81 ) ;
#77 = CARTESIAN_POINT ( 'NONE',  ( 0.2499999999999946709, 0.3950000000000000178, 2.395000000000004015 ) ) ;
#78 = VECTOR ( 'NONE', #89, 100.0000000000000000 ) ;
#79 = FACE_BOUND ( 'NONE', #64, .T. ) ;
#80 = ADVANCED_FACE ( 'NONE', ( #479 ), #65, .F. ) ;
#81 = DIRECTION ( 'NONE',  ( 0.000000000000000000, -1.000000000000000000, 0.000000000000000000 ) ) ;
#82 = VECTOR ( 'NONE', #94, 100.0000000000000000 ) ;
#83 = EDGE_LOOP ( 'NONE', ( #277, #253, #273, #327 ) ) ;
#84 = CARTESIAN_POINT ( 'NONE',  ( -2.695000000000001616, 0.5999999999999999778, 5.000000000000000000 ) ) ;
#85 = CIRCLE ( 'NONE', #498, 0.2049999999999999600 ) ;
#86 = ORIENTED_EDGE ( 'NONE', *, *, #2, .F. ) ;
#87 = LINE ( 'NONE', #377, #88 ) ;
#88 = VECTOR ( 'NONE', #396, 100.0000000000000000 ) ;
#89 = DIRECTION ( 'NONE',  ( 0.000000000000000000, 1.000000000000000000, 0.000000000000000000 ) ) ;
#90 = VERTEX_POINT ( 'NONE', #507 ) ;
#91 = DIRECTION ( 'NONE',  ( 2.312964634635742267E-15, 1.000000000000000000, 5.782411586589359611E-16 ) ) ;
#92 = EDGE_LOOP ( 'NONE', ( #113, #151, #225, #176 ) ) ;
#93 = ORIENTED_EDGE ( 'NONE', *, *, #202, .T. ) ;
#94 = DIRECTION ( 'NONE',  ( -1.000000000000000000, -0.000000000000000000, -1.539277964350119435E-14 ) ) ;
#95 = COLOUR_RGB ( '',1.000000000000000000, 1.000000000000000000, 1.000000000000000000 ) ;
#96 = EDGE_LOOP ( 'NONE', ( #349, #10, #86, #385 ) ) ;
#97 = CARTESIAN_POINT ( 'NONE',  ( -7.500000000000000000, 0.000000000000000000, 5.000000000000002665 ) ) ;
#98 = CARTESIAN_POINT ( 'NONE',  ( -27.47382017840123325, 1.199999999999999956, -5.551115123125782702E-15 ) ) ;
#99 = VECTOR ( 'NONE', #185, 100.0000000000000142 ) ;
#100 = ORIENTED_EDGE ( 'NONE', *, *, #194, .T. ) ;
#101 = EDGE_CURVE ( 'NONE', #55, #188, #333, .T. ) ;
#102 = DIRECTION ( 'NONE',  ( -0.9731387067013588243, 0.000000000000000000, -0.2302195854387859841 ) ) ;
#103 = FACE_OUTER_BOUND ( 'NONE', #323, .T. ) ;
#104 = DIRECTION ( 'NONE',  ( 0.000000000000000000, 0.000000000000000000, 1.000000000000000000 ) ) ;
#105 = ORIENTED_EDGE ( 'NONE', *, *, #484, .F. ) ;
#106 = ADVANCED_FACE ( 'NONE', ( #364 ), #428, .F. ) ;
#107 = LINE ( 'NONE', #316, #527 ) ;
#108 = CARTESIAN_POINT ( 'NONE',  ( -0.1500000000000000222, 0.006000000000000000125, 0.02499999999999998404 ) ) ;
#109 = CARTESIAN_POINT ( 'NONE',  ( 0.000000000000000000, 0.000000000000000000, 5.000000000000000000 ) ) ;
#110 = ORIENTED_EDGE ( 'NONE', *, *, #319, .T. ) ;
#111 = CARTESIAN_POINT ( 'NONE',  ( 0.000000000000000000, 0.8049999999999999378, 0.000000000000000000 ) ) ;
#112 = CARTESIAN_POINT ( 'NONE',  ( -2.395000000000002682, 0.5999999999999999778, 5.000000000000000000 ) ) ;
#113 = ORIENTED_EDGE ( 'NONE', *, *, #157, .F. ) ;
#114 = VECTOR ( 'NONE', #220, 100.0000000000000000 ) ;
#115 = LINE ( 'NONE', #516, #326 ) ;
#116 = CARTESIAN_POINT ( 'NONE',  ( 0.000000000000000000, 0.000000000000000000, 5.000000000000000000 ) ) ;
#117 = VERTEX_POINT ( 'NONE', #29 ) ;
#118 = CIRCLE ( 'NONE', #283, 0.2999999999999994893 ) ;
#119 = ADVANCED_FACE ( 'NONE', ( #440 ), #69, .T. ) ;
#120 = PRODUCT_DEFINITION_SHAPE ( 'NONE', 'NONE',  #287 ) ;
#121 = EDGE_CURVE ( 'NONE', #314, #47, #278, .T. ) ;
#122 = FACE_BOUND ( 'NONE', #355, .T. ) ;
#123 = AXIS2_PLACEMENT_3D ( 'NONE', #457, #248, #416 ) ;
#124 = VERTEX_POINT ( 'NONE', #266 ) ;
#125 = LINE ( 'NONE', #423, #356 ) ;
#126 = CYLINDRICAL_SURFACE ( 'NONE', #427, 0.2999999999999994893 ) ;
#127 = STYLED_ITEM ( 'NONE', ( #50 ), #511 ) ;
#128 = DIRECTION ( 'NONE',  ( -1.000000000000000000, 0.000000000000000000, 0.000000000000000000 ) ) ;
#129 = PLANE ( 'NONE',  #262 ) ;
#130 = AXIS2_PLACEMENT_3D ( 'NONE', #268, #104, #307 ) ;
#131 = CARTESIAN_POINT ( 'NONE',  ( -7.500000000000000000, 0.000000000000000000, 5.000000000000002665 ) ) ;
#132 = ORIENTED_EDGE ( 'NONE', *, *, #38, .F. ) ;
#133 = CARTESIAN_POINT ( 'NONE',  ( 0.000000000000000000, 0.8049999999999999378, 0.000000000000000000 ) ) ;
#134 = ORIENTED_EDGE ( 'NONE', *, *, #215, .F. ) ;
#135 = AXIS2_PLACEMENT_3D ( 'NONE', #190, #365, #358 ) ;
#136 = SURFACE_STYLE_FILL_AREA ( #305 ) ;
#137 = LINE ( 'NONE', #149, #295 ) ;
#138 = FACE_OUTER_BOUND ( 'NONE', #472, .T. ) ;
#139 = EDGE_LOOP ( 'NONE', ( #474, #405, #337, #469, #303 ) ) ;
#140 = DIRECTION ( 'NONE',  ( 1.272130549049658700E-16, 0.000000000000000000, -1.000000000000000000 ) ) ;
#141 = FACE_OUTER_BOUND ( 'NONE', #426, .T. ) ;
#142 = AXIS2_PLACEMENT_3D ( 'NONE', #395, #26, #57 ) ;
#143 = ORIENTED_EDGE ( 'NONE', *, *, #38, .T. ) ;
#144 = ADVANCED_FACE ( 'NONE', ( #222 ), #233, .T. ) ;
#145 = DIRECTION ( 'NONE',  ( 0.2302195854387860119, 0.000000000000000000, -0.9731387067013588243 ) ) ;
#146 = DIRECTION ( 'NONE',  ( 0.000000000000000000, 1.000000000000000000, 0.000000000000000000 ) ) ;
#147 = EDGE_LOOP ( 'NONE', ( #238, #398, #444, #1, #514 ) ) ;
#148 = DIRECTION ( 'NONE',  ( 0.000000000000000000, 0.000000000000000000, 1.000000000000000000 ) ) ;
#149 = CARTESIAN_POINT ( 'NONE',  ( -7.500000000000000000, 1.199999999999999956, 5.000000000000002665 ) ) ;
#150 = PLANE ( 'NONE',  #525 ) ;
#151 = ORIENTED_EDGE ( 'NONE', *, *, #390, .T. ) ;
#152 = EDGE_CURVE ( 'NONE', #359, #49, #450, .T. ) ;
#153 = CARTESIAN_POINT ( 'NONE',  ( -2.095000000000002416, 0.5999999999999999778, 5.000000000000000000 ) ) ;
#154 = LINE ( 'NONE', #71, #482 ) ;
#155 = VERTEX_POINT ( 'NONE', #246 ) ;
#156 = AXIS2_PLACEMENT_3D ( 'NONE', #465, #496, #468 ) ;
#157 = EDGE_CURVE ( 'NONE', #75, #300, #167, .T. ) ;
#158 = DIRECTION ( 'NONE',  ( 1.000000000000000000, 0.000000000000000000, 1.272130549049658700E-16 ) ) ;
#159 = CARTESIAN_POINT ( 'NONE',  ( 0.000000000000000000, 0.5999999999999999778, 2.395000000000003570 ) ) ;
#160 = PRODUCT_CONTEXT ( 'NONE', #201, 'mechanical' ) ;
#161 = CARTESIAN_POINT ( 'NONE',  ( -15.00000000000000178, 1.199999999999999956, 2.499999999999998224 ) ) ;
#162 = AXIS2_PLACEMENT_3D ( 'NONE', #332, #449, #203 ) ;
#163 = DIRECTION ( 'NONE',  ( -0.9731387067013588243, 0.000000000000000000, -0.2302195854387859841 ) ) ;
#164 = CIRCLE ( 'NONE', #45, 0.2999999999999996003 ) ;
#165 = VERTEX_POINT ( 'NONE', #14 ) ;
#166 = CARTESIAN_POINT ( 'NONE',  ( -0.8950000000000013500, 0.5999999999999999778, 5.000000000000000000 ) ) ;
#167 = LINE ( 'NONE', #131, #78 ) ;
#168 = EDGE_CURVE ( 'NONE', #296, #40, #290, .T. ) ;
#169 = DIRECTION ( 'NONE',  ( -2.449761618368254527E-15, -1.000000000000000000, 0.000000000000000000 ) ) ;
#170 = DIRECTION ( 'NONE',  ( -2.465190328815661892E-32, 0.000000000000000000, 1.000000000000000000 ) ) ;
#171 = ORIENTED_EDGE ( 'NONE', *, *, #177, .T. ) ;
#172 = CARTESIAN_POINT ( 'NONE',  ( -2.095000000000002416, 0.5999999999999999778, 3.100000000000000533 ) ) ;
#173 = ORIENTED_EDGE ( 'NONE', *, *, #270, .F. ) ;
#174 = CARTESIAN_POINT ( 'NONE',  ( -1.195000000000001616, 0.5999999999999999778, 3.100000000000000533 ) ) ;
#175 = DIRECTION ( 'NONE',  ( 1.000000000000000000, 0.000000000000000000, 0.000000000000000000 ) ) ;
#176 = ORIENTED_EDGE ( 'NONE', *, *, #34, .F. ) ;
#177 = EDGE_CURVE ( 'NONE', #124, #481, #338, .T. ) ;
#178 = DIRECTION ( 'NONE',  ( 0.000000000000000000, 0.000000000000000000, 1.000000000000000000 ) ) ;
#179 = VERTEX_POINT ( 'NONE', #84 ) ;
#180 = CARTESIAN_POINT ( 'NONE',  ( -26.00442839046255727, 1.199999999999999956, -6.211122400498121365 ) ) ;
#181 = SURFACE_STYLE_FILL_AREA ( #267 ) ;
#182 = DIRECTION ( 'NONE',  ( 0.000000000000000000, 0.000000000000000000, 1.000000000000000000 ) ) ;
#183 = VECTOR ( 'NONE', #335, 100.0000000000000000 ) ;
#184 = ORIENTED_EDGE ( 'NONE', *, *, #121, .F. ) ;
#185 = DIRECTION ( 'NONE',  ( -0.2302195854387860119, 0.000000000000000000, 0.9731387067013588243 ) ) ;
#186 = CARTESIAN_POINT ( 'NONE',  ( 0.000000000000000000, 0.000000000000000000, 5.000000000000000000 ) ) ;
#187 = PRODUCT_DEFINITION_CONTEXT ( 'detailed design', #329, 'design' ) ;
#188 = VERTEX_POINT ( 'NONE', #48 ) ;
#189 = PRESENTATION_STYLE_ASSIGNMENT (( #520 ) ) ;
#190 = CARTESIAN_POINT ( 'NONE',  ( -2.395000000000002682, 0.5999999999999999778, 3.100000000000000089 ) ) ;
#191 = ORIENTED_EDGE ( 'NONE', *, *, #447, .T. ) ;
#192 = AXIS2_PLACEMENT_3D ( 'NONE', #108, #407, #158 ) ;
#193 = ADVANCED_BREP_SHAPE_REPRESENTATION ( 'ramp-wall-lower_60', ( #511, #192 ), #207 ) ;
#194 = EDGE_CURVE ( 'NONE', #256, #372, #164, .T. ) ;
#195 = PLANE ( 'NONE',  #200 ) ;
#196 = ADVANCED_FACE ( 'NONE', ( #459 ), #126, .F. ) ;
#197 = CARTESIAN_POINT ( 'NONE',  ( 0.000000000000000000, 1.199999999999999956, 5.000000000000000000 ) ) ;
#198 = EDGE_CURVE ( 'NONE', #372, #28, #214, .T. ) ;
#199 = PRESENTATION_LAYER_ASSIGNMENT (  '', '', ( #127 ) ) ;
#200 = AXIS2_PLACEMENT_3D ( 'NONE', #279, #27, #263 ) ;
#201 = APPLICATION_CONTEXT ( 'automotive_design' ) ;
#202 = EDGE_CURVE ( 'NONE', #481, #296, #259, .T. ) ;
#203 = DIRECTION ( 'NONE',  ( 1.000000000000000000, 0.000000000000000000, 0.000000000000000000 ) ) ;
#204 = ORIENTED_EDGE ( 'NONE', *, *, #308, .T. ) ;
#205 = ORIENTED_EDGE ( 'NONE', *, *, #319, .F. ) ;
#206 = EDGE_CURVE ( 'NONE', #40, #155, #379, .T. ) ;
#207 =( GEOMETRIC_REPRESENTATION_CONTEXT ( 3 ) GLOBAL_UNCERTAINTY_ASSIGNED_CONTEXT ( ( #397 ) ) GLOBAL_UNIT_ASSIGNED_CONTEXT ( ( #281, #229, #70 ) ) REPRESENTATION_CONTEXT ( 'NONE', 'WORKASPACE' ) );
#208 = VERTEX_POINT ( 'NONE', #9 ) ;
#209 = DIRECTION ( 'NONE',  ( 1.000000000000000000, 0.000000000000000000, 0.000000000000000000 ) ) ;
#210 = CIRCLE ( 'NONE', #342, 0.2999999999999994893 ) ;
#211 = VERTEX_POINT ( 'NONE', #252 ) ;
#212 = CARTESIAN_POINT ( 'NONE',  ( -7.500000000000041744, 1.199999999999999956, 4.999999999999996447 ) ) ;
#213 = LINE ( 'NONE', #378, #25 ) ;
#214 = LINE ( 'NONE', #172, #494 ) ;
#215 = EDGE_CURVE ( 'NONE', #155, #466, #297, .T. ) ;
#216 = ORIENTED_EDGE ( 'NONE', *, *, #270, .T. ) ;
#217 = SURFACE_STYLE_USAGE ( .BOTH. , #422 ) ;
#218 = DIRECTION ( 'NONE',  ( 0.000000000000000000, 1.000000000000000000, 0.000000000000000000 ) ) ;
#219 = AXIS2_PLACEMENT_3D ( 'NONE', #353, #362, #313 ) ;
#220 = DIRECTION ( 'NONE',  ( 1.272130549049658700E-16, -0.000000000000000000, -1.000000000000000000 ) ) ;
#221 = ORIENTED_EDGE ( 'NONE', *, *, #381, .T. ) ;
#222 = FACE_OUTER_BOUND ( 'NONE', #68, .T. ) ;
#223 = DIRECTION ( 'NONE',  ( 1.000000000000000000, 0.000000000000000000, 1.272130549049658700E-16 ) ) ;
#224 = CARTESIAN_POINT ( 'NONE',  ( -0.5950000000000010836, 0.5999999999999999778, 5.000000000000000000 ) ) ;
#225 = ORIENTED_EDGE ( 'NONE', *, *, #406, .T. ) ;
#226 = DIRECTION ( 'NONE',  ( 1.000000000000000000, 0.000000000000000000, 0.000000000000000000 ) ) ;
#227 = ORIENTED_EDGE ( 'NONE', *, *, #194, .F. ) ;
#228 = DIRECTION ( 'NONE',  ( 1.000000000000000000, 0.000000000000000000, 1.272130549049658700E-16 ) ) ;
#229 =( NAMED_UNIT ( * ) PLANE_ANGLE_UNIT ( ) SI_UNIT ( $, .RADIAN. ) );
#230 = FACE_OUTER_BOUND ( 'NONE', #528, .T. ) ;
#231 = MECHANICAL_DESIGN_GEOMETRIC_PRESENTATION_REPRESENTATION (  '', ( #408 ), #394 ) ;
#232 = ORIENTED_EDGE ( 'NONE', *, *, #152, .F. ) ;
#233 = PLANE ( 'NONE',  #54 ) ;
#234 = DIRECTION ( 'NONE',  ( 0.000000000000000000, 1.000000000000000000, 0.000000000000000000 ) ) ;
#235 = ORIENTED_EDGE ( 'NONE', *, *, #402, .F. ) ;
#236 = CIRCLE ( 'NONE', #135, 0.2999999999999996003 ) ;
#237 = LINE ( 'NONE', #441, #369 ) ;
#238 = ORIENTED_EDGE ( 'NONE', *, *, #2, .T. ) ;
#239 = VECTOR ( 'NONE', #218, 100.0000000000000000 ) ;
#240 = CARTESIAN_POINT ( 'NONE',  ( 0.2499999999999946709, 0.3950000000000000178, 3.816391647148975608E-15 ) ) ;
#241 = DIRECTION ( 'NONE',  ( -1.000000000000000000, 0.000000000000000000, -2.139492287038061508E-16 ) ) ;
#242 = AXIS2_PLACEMENT_3D ( 'NONE', #387, #178, #67 ) ;
#243 = EDGE_CURVE ( 'NONE', #28, #179, #375, .T. ) ;
#244 = ORIENTED_EDGE ( 'NONE', *, *, #447, .F. ) ;
#245 = EDGE_LOOP ( 'NONE', ( #414, #477, #171, #93 ) ) ;
#246 = CARTESIAN_POINT ( 'NONE',  ( -5.551115123125782702E-15, 0.8049999999999999378, 2.395000000000004015 ) ) ;
#247 = ADVANCED_FACE ( 'NONE', ( #384 ), #299, .F. ) ;
#248 = DIRECTION ( 'NONE',  ( 0.000000000000000000, 0.000000000000000000, 1.000000000000000000 ) ) ;
#249 = DIRECTION ( 'NONE',  ( 1.000000000000000000, 0.000000000000000000, 0.000000000000000000 ) ) ;
#250 = AXIS2_PLACEMENT_3D ( 'NONE', #320, #399, #102 ) ;
#251 = EDGE_CURVE ( 'NONE', #90, #47, #125, .T. ) ;
#252 = CARTESIAN_POINT ( 'NONE',  ( 0.000000000000000000, 1.199999999999999956, 0.000000000000000000 ) ) ;
#253 = ORIENTED_EDGE ( 'NONE', *, *, #463, .T. ) ;
#254 = CARTESIAN_POINT ( 'NONE',  ( 0.2499999999999946709, 0.5999999999999999778, 2.395000000000004015 ) ) ;
#255 = CARTESIAN_POINT ( 'NONE',  ( -0.8950000000000013500, 0.5999999999999999778, 3.100000000000000533 ) ) ;
#256 = VERTEX_POINT ( 'NONE', #456 ) ;
#257 = MECHANICAL_DESIGN_GEOMETRIC_PRESENTATION_REPRESENTATION (  '', ( #127 ), #350 ) ;
#258 = ORIENTED_EDGE ( 'NONE', *, *, #463, .F. ) ;
#259 = LINE ( 'NONE', #51, #239 ) ;
#260 = EDGE_LOOP ( 'NONE', ( #227, #19, #269, #455 ) ) ;
#261 = CARTESIAN_POINT ( 'NONE',  ( -15.00000000000000178, 0.000000000000000000, 2.499999999999998224 ) ) ;
#262 = AXIS2_PLACEMENT_3D ( 'NONE', #298, #324, #145 ) ;
#263 = DIRECTION ( 'NONE',  ( 1.000000000000000000, 0.000000000000000000, 1.272130549049658700E-16 ) ) ;
#264 = ORIENTED_EDGE ( 'NONE', *, *, #56, .F. ) ;
#265 = EDGE_CURVE ( 'NONE', #188, #55, #210, .T. ) ;
#266 = CARTESIAN_POINT ( 'NONE',  ( 0.2499999999999946709, 0.3950000000000000178, 2.395000000000004015 ) ) ;
#267 = FILL_AREA_STYLE ('',( #508 ) ) ;
#268 = CARTESIAN_POINT ( 'NONE',  ( -0.8950000000000013500, 0.5999999999999999778, 3.100000000000000533 ) ) ;
#269 = ORIENTED_EDGE ( 'NONE', *, *, #336, .T. ) ;
#270 = EDGE_CURVE ( 'NONE', #49, #359, #118, .T. ) ;
#271 = LINE ( 'NONE', #274, #490 ) ;
#272 = DIRECTION ( 'NONE',  ( 1.000000000000000000, 0.000000000000000000, 1.272130549049658700E-16 ) ) ;
#273 = ORIENTED_EDGE ( 'NONE', *, *, #368, .F. ) ;
#274 = CARTESIAN_POINT ( 'NONE',  ( -2.695000000000001616, 0.5999999999999999778, 3.100000000000000089 ) ) ;
#275 = CARTESIAN_POINT ( 'NONE',  ( -26.00442839046256438, 0.000000000000000000, -6.211122400498123142 ) ) ;
#276 = AXIS2_PLACEMENT_3D ( 'NONE', #112, #429, #22 ) ;
#277 = ORIENTED_EDGE ( 'NONE', *, *, #177, .F. ) ;
#278 = LINE ( 'NONE', #180, #99 ) ;
#279 = CARTESIAN_POINT ( 'NONE',  ( -15.00000000000000178, 0.8049999999999999378, 2.499999999999998224 ) ) ;
#280 = ORIENTED_EDGE ( 'NONE', *, *, #251, .T. ) ;
#281 =( LENGTH_UNIT ( ) NAMED_UNIT ( * ) SI_UNIT ( .CENTI., .METRE. ) );
#282 = DIRECTION ( 'NONE',  ( -0.000000000000000000, 1.000000000000000000, 0.000000000000000000 ) ) ;
#283 = AXIS2_PLACEMENT_3D ( 'NONE', #166, #417, #249 ) ;
#284 = FACE_OUTER_BOUND ( 'NONE', #139, .T. ) ;
#285 = PLANE ( 'NONE',  #328 ) ;
#286 = LINE ( 'NONE', #371, #63 ) ;
#287 = PRODUCT_DEFINITION ( 'UNKNOWN', '', #42, #187 ) ;
#288 = VECTOR ( 'NONE', #445, 100.0000000000000000 ) ;
#289 = LINE ( 'NONE', #197, #529 ) ;
#290 = LINE ( 'NONE', #133, #82 ) ;
#291 = ORIENTED_EDGE ( 'NONE', *, *, #354, .F. ) ;
#292 = EDGE_CURVE ( 'NONE', #486, #60, #505, .T. ) ;
#293 = CYLINDRICAL_SURFACE ( 'NONE', #123, 0.2999999999999996003 ) ;
#294 = CARTESIAN_POINT ( 'NONE',  ( 0.2499999999999946709, 0.8049999999999999378, 3.816391647148975608E-15 ) ) ;
#295 = VECTOR ( 'NONE', #66, 100.0000000000000142 ) ;
#296 = VERTEX_POINT ( 'NONE', #294 ) ;
#297 = LINE ( 'NONE', #421, #3 ) ;
#298 = CARTESIAN_POINT ( 'NONE',  ( -26.00442839046255727, 1.199999999999999956, -6.211122400498121365 ) ) ;
#299 = PLANE ( 'NONE',  #156 ) ;
#300 = VERTEX_POINT ( 'NONE', #212 ) ;
#301 =( NAMED_UNIT ( * ) SI_UNIT ( $, .STERADIAN. ) SOLID_ANGLE_UNIT ( ) );
#302 = DIRECTION ( 'NONE',  ( 0.000000000000000000, 0.000000000000000000, 1.000000000000000000 ) ) ;
#303 = ORIENTED_EDGE ( 'NONE', *, *, #478, .T. ) ;
#304 = VECTOR ( 'NONE', #509, 100.0000000000000000 ) ;
#305 = FILL_AREA_STYLE ('',( #386 ) ) ;
#306 = CYLINDRICAL_SURFACE ( 'NONE', #74, 0.2049999999999999600 ) ;
#307 = DIRECTION ( 'NONE',  ( 1.000000000000000000, 0.000000000000000000, 0.000000000000000000 ) ) ;
#308 = EDGE_CURVE ( 'NONE', #481, #208, #87, .T. ) ;
#309 = EDGE_LOOP ( 'NONE', ( #264, #235, #401, #376 ) ) ;
#310 = CARTESIAN_POINT ( 'NONE',  ( 0.000000000000000000, 0.000000000000000000, 0.000000000000000000 ) ) ;
#311 = AXIS2_PLACEMENT_3D ( 'NONE', #432, #61, #361 ) ;
#312 = CARTESIAN_POINT ( 'NONE',  ( 0.000000000000000000, 0.000000000000000000, 0.000000000000000000 ) ) ;
#313 = DIRECTION ( 'NONE',  ( 0.000000000000000000, -1.000000000000000000, 0.000000000000000000 ) ) ;
#314 = VERTEX_POINT ( 'NONE', #98 ) ;
#315 = ADVANCED_FACE ( 'NONE', ( #230 ), #18, .F. ) ;
#316 = CARTESIAN_POINT ( 'NONE',  ( -0.5950000000000010836, 0.5999999999999999778, 3.100000000000000533 ) ) ;
#317 = CARTESIAN_POINT ( 'NONE',  ( 0.000000000000000000, 0.000000000000000000, 5.000000000000000000 ) ) ;
#318 = ORIENTED_EDGE ( 'NONE', *, *, #168, .T. ) ;
#319 = EDGE_CURVE ( 'NONE', #40, #211, #237, .T. ) ;
#320 = CARTESIAN_POINT ( 'NONE',  ( -7.500000000000000000, 0.000000000000000000, 5.000000000000002665 ) ) ;
#321 = DIRECTION ( 'NONE',  ( 1.000000000000000000, 0.000000000000000000, 2.465190328815661892E-32 ) ) ;
#322 = UNCERTAINTY_MEASURE_WITH_UNIT (LENGTH_MEASURE( 1.000000000000000082E-05 ), #52, 'distance_accuracy_value', 'NONE');
#323 = EDGE_LOOP ( 'NONE', ( #258, #419, #134, #191 ) ) ;
#324 = DIRECTION ( 'NONE',  ( 0.9731387067013589354, -2.383957853025511309E-15, 0.2302195854387860396 ) ) ;
#325 = DIRECTION ( 'NONE',  ( -2.262257333030263515E-15, 0.000000000000000000, 1.000000000000000000 ) ) ;
#326 = VECTOR ( 'NONE', #436, 100.0000000000000000 ) ;
#327 = ORIENTED_EDGE ( 'NONE', *, *, #308, .F. ) ;
#328 = AXIS2_PLACEMENT_3D ( 'NONE', #161, #282, #411 ) ;
#329 = APPLICATION_CONTEXT ( 'automotive_design' ) ;
#330 = VECTOR ( 'NONE', #380, 100.0000000000000000 ) ;
#331 = ADVANCED_FACE ( 'NONE', ( #512 ), #195, .T. ) ;
#332 = CARTESIAN_POINT ( 'NONE',  ( 0.000000000000000000, 0.000000000000000000, 5.000000000000000000 ) ) ;
#333 = CIRCLE ( 'NONE', #311, 0.2999999999999994893 ) ;
#334 = ORIENTED_EDGE ( 'NONE', *, *, #292, .T. ) ;
#335 = DIRECTION ( 'NONE',  ( -1.000000000000000000, 0.000000000000000000, 0.000000000000000000 ) ) ;
#336 = EDGE_CURVE ( 'NONE', #179, #28, #503, .T. ) ;
#337 = ORIENTED_EDGE ( 'NONE', *, *, #34, .T. ) ;
#338 = LINE ( 'NONE', #499, #114 ) ;
#339 = FACE_OUTER_BOUND ( 'NONE', #430, .T. ) ;
#340 = DIRECTION ( 'NONE',  ( 0.000000000000000000, 1.000000000000000000, 0.000000000000000000 ) ) ;
#341 = DIRECTION ( 'NONE',  ( 1.000000000000000000, 0.000000000000000000, 0.000000000000000000 ) ) ;
#342 = AXIS2_PLACEMENT_3D ( 'NONE', #255, #12, #209 ) ;
#343 = ORIENTED_EDGE ( 'NONE', *, *, #202, .F. ) ;
#344 = CARTESIAN_POINT ( 'NONE',  ( 0.000000000000000000, 0.8049999999999999378, 0.000000000000000000 ) ) ;
#345 = ORIENTED_EDGE ( 'NONE', *, *, #101, .F. ) ;
#346 = EDGE_CURVE ( 'NONE', #60, #90, #392, .T. ) ;
#347 = CARTESIAN_POINT ( 'NONE',  ( -27.53536453439562237, 1.199999999999999956, 0.2601481315458259447 ) ) ;
#348 = CARTESIAN_POINT ( 'NONE',  ( -2.395000000000002682, 0.5999999999999999778, 5.000000000000000000 ) ) ;
#349 = ORIENTED_EDGE ( 'NONE', *, *, #519, .T. ) ;
#350 =( GEOMETRIC_REPRESENTATION_CONTEXT ( 3 ) GLOBAL_UNCERTAINTY_ASSIGNED_CONTEXT ( ( #443 ) ) GLOBAL_UNIT_ASSIGNED_CONTEXT ( ( #58, #11, #301 ) ) REPRESENTATION_CONTEXT ( 'NONE', 'WORKASPACE' ) );
#351 = CARTESIAN_POINT ( 'NONE',  ( -27.47382017840123325, 0.000000000000000000, -4.163336342344337027E-15 ) ) ;
#352 = VECTOR ( 'NONE', #241, 100.0000000000000000 ) ;
#353 = CARTESIAN_POINT ( 'NONE',  ( 0.2499999999999946709, 0.3950000000000000178, 3.816391647148975608E-15 ) ) ;
#354 = EDGE_CURVE ( 'NONE', #55, #49, #400, .T. ) ;
#355 = EDGE_LOOP ( 'NONE', ( #510, #5 ) ) ;
#356 = VECTOR ( 'NONE', #91, 100.0000000000000000 ) ;
#357 = DIRECTION ( 'NONE',  ( 0.000000000000000000, 0.000000000000000000, -1.000000000000000000 ) ) ;
#358 = DIRECTION ( 'NONE',  ( 1.000000000000000000, 0.000000000000000000, 0.000000000000000000 ) ) ;
#359 = VERTEX_POINT ( 'NONE', #224 ) ;
#360 = ADVANCED_FACE ( 'NONE', ( #473 ), #433, .F. ) ;
#361 = DIRECTION ( 'NONE',  ( 1.000000000000000000, 0.000000000000000000, 0.000000000000000000 ) ) ;
#362 = DIRECTION ( 'NONE',  ( 1.000000000000000000, 0.000000000000000000, 1.272130549049658700E-16 ) ) ;
#363 = VERTEX_POINT ( 'NONE', #186 ) ;
#364 = FACE_OUTER_BOUND ( 'NONE', #96, .T. ) ;
#365 = DIRECTION ( 'NONE',  ( -2.465190328815661892E-32, 0.000000000000000000, 1.000000000000000000 ) ) ;
#366 = ORIENTED_EDGE ( 'NONE', *, *, #406, .F. ) ;
#367 = AXIS2_PLACEMENT_3D ( 'NONE', #425, #170, #415 ) ;
#368 = EDGE_CURVE ( 'NONE', #208, #117, #154, .T. ) ;
#369 = VECTOR ( 'NONE', #234, 100.0000000000000000 ) ;
#370 = ADVANCED_FACE ( 'NONE', ( #476 ), #30, .T. ) ;
#371 = CARTESIAN_POINT ( 'NONE',  ( 0.000000000000000000, 1.199999999999999956, 0.000000000000000000 ) ) ;
#372 = VERTEX_POINT ( 'NONE', #521 ) ;
#373 = ADVANCED_FACE ( 'NONE', ( #141 ), #150, .T. ) ;
#374 = DIRECTION ( 'NONE',  ( -2.465190328815661892E-32, 0.000000000000000000, 1.000000000000000000 ) ) ;
#375 = CIRCLE ( 'NONE', #515, 0.2999999999999996003 ) ;
#376 = ORIENTED_EDGE ( 'NONE', *, *, #243, .T. ) ;
#377 = CARTESIAN_POINT ( 'NONE',  ( 0.000000000000000000, 0.3950000000000000178, 0.000000000000000000 ) ) ;
#378 = CARTESIAN_POINT ( 'NONE',  ( -7.500000000000000000, 0.000000000000000000, 5.000000000000002665 ) ) ;
#379 = LINE ( 'NONE', #344, #330 ) ;
#380 = DIRECTION ( 'NONE',  ( -2.262257333030263515E-15, 0.000000000000000000, 1.000000000000000000 ) ) ;
#381 = EDGE_CURVE ( 'NONE', #466, #296, #485, .T. ) ;
#382 =( NAMED_UNIT ( * ) PLANE_ANGLE_UNIT ( ) SI_UNIT ( $, .RADIAN. ) );
#383 = DIRECTION ( 'NONE',  ( 0.000000000000000000, -1.000000000000000000, 0.000000000000000000 ) ) ;
#384 = FACE_OUTER_BOUND ( 'NONE', #83, .T. ) ;
#385 = ORIENTED_EDGE ( 'NONE', *, *, #157, .T. ) ;
#386 = FILL_AREA_STYLE_COLOUR ( '', #451 ) ;
#387 = CARTESIAN_POINT ( 'NONE',  ( -2.395000000000002682, 0.5999999999999999778, 3.100000000000000089 ) ) ;
#388 = ORIENTED_EDGE ( 'NONE', *, *, #206, .T. ) ;
#389 = VECTOR ( 'NONE', #340, 100.0000000000000000 ) ;
#390 = EDGE_CURVE ( 'NONE', #75, #363, #480, .T. ) ;
#391 = LINE ( 'NONE', #420, #389 ) ;
#392 = LINE ( 'NONE', #275, #37 ) ;
#393 = ORIENTED_EDGE ( 'NONE', *, *, #346, .T. ) ;
#394 =( GEOMETRIC_REPRESENTATION_CONTEXT ( 3 ) GLOBAL_UNCERTAINTY_ASSIGNED_CONTEXT ( ( #322 ) ) GLOBAL_UNIT_ASSIGNED_CONTEXT ( ( #52, #382, #13 ) ) REPRESENTATION_CONTEXT ( 'NONE', 'WORKASPACE' ) );
#395 = CARTESIAN_POINT ( 'NONE',  ( -2.395000000000002682, 0.5999999999999999778, 3.100000000000000089 ) ) ;
#396 = DIRECTION ( 'NONE',  ( -1.000000000000000000, -0.000000000000000000, -1.539277964350119435E-14 ) ) ;
#397 = UNCERTAINTY_MEASURE_WITH_UNIT (LENGTH_MEASURE( 1.000000000000000082E-05 ), #281, 'distance_accuracy_value', 'NONE');
#398 = ORIENTED_EDGE ( 'NONE', *, *, #346, .F. ) ;
#399 = DIRECTION ( 'NONE',  ( 0.2302195854387860119, 0.000000000000000000, -0.9731387067013589354 ) ) ;
#400 = LINE ( 'NONE', #62, #453 ) ;
#401 = ORIENTED_EDGE ( 'NONE', *, *, #198, .T. ) ;
#402 = EDGE_CURVE ( 'NONE', #372, #256, #236, .T. ) ;
#403 = APPLICATION_PROTOCOL_DEFINITION ( 'draft international standard', 'automotive_design', 1998, #329 ) ;
#404 = LINE ( 'NONE', #317, #304 ) ;
#405 = ORIENTED_EDGE ( 'NONE', *, *, #519, .F. ) ;
#406 = EDGE_CURVE ( 'NONE', #363, #165, #73, .T. ) ;
#407 = DIRECTION ( 'NONE',  ( 0.000000000000000000, 1.000000000000000000, -0.000000000000000000 ) ) ;
#408 = STYLED_ITEM ( 'NONE', ( #189 ), #144 ) ;
#409 = PLANE ( 'NONE',  #162 ) ;
#410 = DIRECTION ( 'NONE',  ( -1.000000000000000000, 0.000000000000000000, 0.000000000000000000 ) ) ;
#411 = DIRECTION ( 'NONE',  ( 1.000000000000000000, 0.000000000000000000, 1.272130549049658700E-16 ) ) ;
#412 = ORIENTED_EDGE ( 'NONE', *, *, #265, .F. ) ;
#413 = EDGE_CURVE ( 'NONE', #363, #486, #404, .T. ) ;
#414 = ORIENTED_EDGE ( 'NONE', *, *, #381, .F. ) ;
#415 = DIRECTION ( 'NONE',  ( 1.000000000000000000, 0.000000000000000000, 0.000000000000000000 ) ) ;
#416 = DIRECTION ( 'NONE',  ( 1.000000000000000000, 0.000000000000000000, 0.000000000000000000 ) ) ;
#417 = DIRECTION ( 'NONE',  ( -2.465190328815661892E-32, 0.000000000000000000, 1.000000000000000000 ) ) ;
#418 = VECTOR ( 'NONE', #169, 100.0000000000000000 ) ;
#419 = ORIENTED_EDGE ( 'NONE', *, *, #513, .F. ) ;
#420 = CARTESIAN_POINT ( 'NONE',  ( 0.000000000000000000, 0.000000000000000000, 0.000000000000000000 ) ) ;
#421 = CARTESIAN_POINT ( 'NONE',  ( -15.00000000000000178, 0.8049999999999999378, 2.395000000000000462 ) ) ;
#422 = SURFACE_SIDE_STYLE ('',( #181 ) ) ;
#423 = CARTESIAN_POINT ( 'NONE',  ( -27.53536453439562237, 1.199999999999999956, 0.2601481315458259447 ) ) ;
#424 = EDGE_LOOP ( 'NONE', ( #388, #518, #221, #318 ) ) ;
#425 = CARTESIAN_POINT ( 'NONE',  ( -0.8950000000000013500, 0.5999999999999999778, 5.000000000000000000 ) ) ;
#426 = EDGE_LOOP ( 'NONE', ( #438, #467 ) ) ;
#427 = AXIS2_PLACEMENT_3D ( 'NONE', #502, #302, #175 ) ;
#428 = PLANE ( 'NONE',  #250 ) ;
#429 = DIRECTION ( 'NONE',  ( -2.465190328815661892E-32, 0.000000000000000000, 1.000000000000000000 ) ) ;
#430 = EDGE_LOOP ( 'NONE', ( #72, #393, #280, #184 ) ) ;
#431 = ADVANCED_FACE ( 'NONE', ( #138 ), #471, .T. ) ;
#432 = CARTESIAN_POINT ( 'NONE',  ( -0.8950000000000013500, 0.5999999999999999778, 3.100000000000000533 ) ) ;
#433 = CYLINDRICAL_SURFACE ( 'NONE', #242, 0.2999999999999996003 ) ;
#434 = ORIENTED_EDGE ( 'NONE', *, *, #354, .T. ) ;
#435 = CIRCLE ( 'NONE', #458, 0.2049999999999999600 ) ;
#436 = DIRECTION ( 'NONE',  ( 1.000000000000000000, 0.000000000000000000, 0.000000000000000000 ) ) ;
#437 = CARTESIAN_POINT ( 'NONE',  ( 0.2499999999999946709, 0.8049999999999999378, 3.816391647148975608E-15 ) ) ;
#438 = ORIENTED_EDGE ( 'NONE', *, *, #265, .T. ) ;
#439 = PRESENTATION_LAYER_ASSIGNMENT (  '', '', ( #408 ) ) ;
#440 = FACE_OUTER_BOUND ( 'NONE', #446, .T. ) ;
#441 = CARTESIAN_POINT ( 'NONE',  ( 0.000000000000000000, 0.000000000000000000, 0.000000000000000000 ) ) ;
#442 = ADVANCED_FACE ( 'NONE', ( #284 ), #285, .T. ) ;
#443 = UNCERTAINTY_MEASURE_WITH_UNIT (LENGTH_MEASURE( 1.000000000000000082E-05 ), #58, 'distance_accuracy_value', 'NONE');
#444 = ORIENTED_EDGE ( 'NONE', *, *, #292, .F. ) ;
#445 = DIRECTION ( 'NONE',  ( 1.272130549049658700E-16, -0.000000000000000000, -1.000000000000000000 ) ) ;
#446 = EDGE_LOOP ( 'NONE', ( #15, #100 ) ) ;
#447 = EDGE_CURVE ( 'NONE', #155, #117, #85, .T. ) ;
#448 = PRODUCT ( 'ramp-wall-lower_60', 'ramp-wall-lower_60', '', ( #160 ) ) ;
#449 = DIRECTION ( 'NONE',  ( 0.000000000000000000, 0.000000000000000000, 1.000000000000000000 ) ) ;
#450 = CIRCLE ( 'NONE', #367, 0.2999999999999994893 ) ;
#451 = COLOUR_RGB ( '',0.6941176470588235059, 0.09803921568627450844, 0.09803921568627450844 ) ;
#452 = LINE ( 'NONE', #77, #352 ) ;
#453 = VECTOR ( 'NONE', #182, 100.0000000000000000 ) ;
#454 = ADVANCED_FACE ( 'NONE', ( #79, #122, #35 ), #409, .T. ) ;
#455 = ORIENTED_EDGE ( 'NONE', *, *, #198, .F. ) ;
#456 = CARTESIAN_POINT ( 'NONE',  ( -2.695000000000001616, 0.5999999999999999778, 3.100000000000000089 ) ) ;
#457 = CARTESIAN_POINT ( 'NONE',  ( -2.395000000000002682, 0.5999999999999999778, 3.100000000000000089 ) ) ;
#458 = AXIS2_PLACEMENT_3D ( 'NONE', #254, #223, #383 ) ;
#459 = FACE_OUTER_BOUND ( 'NONE', #41, .T. ) ;
#460 = CARTESIAN_POINT ( 'NONE',  ( -2.395000000000002682, 0.5999999999999999778, 3.100000000000000089 ) ) ;
#461 = VECTOR ( 'NONE', #226, 100.0000000000000000 ) ;
#462 = CLOSED_SHELL ( 'NONE', ( #315, #7, #500, #144, #431, #454, #80, #442, #370, #247, #331, #106, #360, #119, #196, #373, #23 ) ) ;
#463 = EDGE_CURVE ( 'NONE', #124, #117, #452, .T. ) ;
#464 = DIRECTION ( 'NONE',  ( 2.115516434118057955E-16, 0.000000000000000000, -1.000000000000000000 ) ) ;
#465 = CARTESIAN_POINT ( 'NONE',  ( -15.00000000000000178, 0.3950000000000000178, 2.499999999999998224 ) ) ;
#466 = VERTEX_POINT ( 'NONE', #36 ) ;
#467 = ORIENTED_EDGE ( 'NONE', *, *, #101, .T. ) ;
#468 = DIRECTION ( 'NONE',  ( 1.000000000000000000, 0.000000000000000000, 1.272130549049658700E-16 ) ) ;
#469 = ORIENTED_EDGE ( 'NONE', *, *, #484, .T. ) ;
#470 = CARTESIAN_POINT ( 'NONE',  ( 0.2499999999999946709, 0.5999999999999999778, 2.395000000000004015 ) ) ;
#471 = PLANE ( 'NONE',  #76 ) ;
#472 = EDGE_LOOP ( 'NONE', ( #244, #501, #110, #105, #366, #492, #31, #504 ) ) ;
#473 = FACE_OUTER_BOUND ( 'NONE', #309, .T. ) ;
#474 = ORIENTED_EDGE ( 'NONE', *, *, #121, .T. ) ;
#475 = DIRECTION ( 'NONE',  ( 0.000000000000000000, 0.000000000000000000, 1.000000000000000000 ) ) ;
#476 = FACE_OUTER_BOUND ( 'NONE', #245, .T. ) ;
#477 = ORIENTED_EDGE ( 'NONE', *, *, #513, .T. ) ;
#478 = EDGE_CURVE ( 'NONE', #211, #314, #286, .T. ) ;
#479 = FACE_OUTER_BOUND ( 'NONE', #147, .T. ) ;
#480 = LINE ( 'NONE', #116, #461 ) ;
#481 = VERTEX_POINT ( 'NONE', #240 ) ;
#482 = VECTOR ( 'NONE', #325, 100.0000000000000000 ) ;
#483 = DIRECTION ( 'NONE',  ( -0.000000000000000000, 1.000000000000000000, 0.000000000000000000 ) ) ;
#484 = EDGE_CURVE ( 'NONE', #165, #211, #289, .T. ) ;
#485 = LINE ( 'NONE', #437, #288 ) ;
#486 = VERTEX_POINT ( 'NONE', #312 ) ;
#487 = VECTOR ( 'NONE', #146, 100.0000000000000000 ) ;
#488 = SHAPE_DEFINITION_REPRESENTATION ( #120, #193 ) ;
#489 = EDGE_CURVE ( 'NONE', #486, #208, #391, .T. ) ;
#490 = VECTOR ( 'NONE', #148, 100.0000000000000000 ) ;
#491 = DIRECTION ( 'NONE',  ( 1.000000000000000000, 0.000000000000000000, 1.272130549049658700E-16 ) ) ;
#492 = ORIENTED_EDGE ( 'NONE', *, *, #413, .T. ) ;
#493 = PRODUCT_RELATED_PRODUCT_CATEGORY ( 'part', '', ( #448 ) ) ;
#494 = VECTOR ( 'NONE', #46, 100.0000000000000000 ) ;
#495 = FACE_OUTER_BOUND ( 'NONE', #260, .T. ) ;
#496 = DIRECTION ( 'NONE',  ( -0.000000000000000000, 1.000000000000000000, 0.000000000000000000 ) ) ;
#497 = LINE ( 'NONE', #8, #418 ) ;
#498 = AXIS2_PLACEMENT_3D ( 'NONE', #159, #491, #39 ) ;
#499 = CARTESIAN_POINT ( 'NONE',  ( 0.2499999999999946709, 0.3950000000000000178, 3.816391647148975608E-15 ) ) ;
#500 = ADVANCED_FACE ( 'NONE', ( #103 ), #306, .T. ) ;
#501 = ORIENTED_EDGE ( 'NONE', *, *, #206, .F. ) ;
#502 = CARTESIAN_POINT ( 'NONE',  ( -0.8950000000000013500, 0.5999999999999999778, 3.100000000000000533 ) ) ;
#503 = CIRCLE ( 'NONE', #276, 0.2999999999999996003 ) ;
#504 = ORIENTED_EDGE ( 'NONE', *, *, #368, .T. ) ;
#505 = LINE ( 'NONE', #4, #183 ) ;
#506 = ORIENTED_EDGE ( 'NONE', *, *, #489, .F. ) ;
#507 = CARTESIAN_POINT ( 'NONE',  ( -27.53536453439562948, 0.000000000000000000, 0.2601481315458259447 ) ) ;
#508 = FILL_AREA_STYLE_COLOUR ( '', #95 ) ;
#509 = DIRECTION ( 'NONE',  ( 1.272130549049658700E-16, 0.000000000000000000, -1.000000000000000000 ) ) ;
#510 = ORIENTED_EDGE ( 'NONE', *, *, #243, .F. ) ;
#511 = MANIFOLD_SOLID_BREP ( 'Cut-Extrude3', #462 ) ;
#512 = FACE_OUTER_BOUND ( 'NONE', #424, .T. ) ;
#513 = EDGE_CURVE ( 'NONE', #466, #124, #435, .T. ) ;
#514 = ORIENTED_EDGE ( 'NONE', *, *, #390, .F. ) ;
#515 = AXIS2_PLACEMENT_3D ( 'NONE', #348, #374, #341 ) ;
#516 = CARTESIAN_POINT ( 'NONE',  ( 0.000000000000000000, 1.199999999999999956, 5.000000000000000000 ) ) ;
#517 = CARTESIAN_POINT ( 'NONE',  ( 0.000000000000000000, 0.000000000000000000, 5.000000000000000000 ) ) ;
#518 = ORIENTED_EDGE ( 'NONE', *, *, #215, .T. ) ;
#519 = EDGE_CURVE ( 'NONE', #300, #47, #137, .T. ) ;
#520 = SURFACE_STYLE_USAGE ( .BOTH. , #17 ) ;
#521 = CARTESIAN_POINT ( 'NONE',  ( -2.095000000000002416, 0.5999999999999999778, 3.100000000000000533 ) ) ;
#522 = ORIENTED_EDGE ( 'NONE', *, *, #152, .T. ) ;
#523 = CARTESIAN_POINT ( 'NONE',  ( -0.8950000000000013500, 0.5999999999999999778, 3.100000000000000533 ) ) ;
#524 = ORIENTED_EDGE ( 'NONE', *, *, #16, .F. ) ;
#525 = AXIS2_PLACEMENT_3D ( 'NONE', #523, #32, #321 ) ;
#526 = APPLICATION_PROTOCOL_DEFINITION ( 'draft international standard', 'automotive_design', 1998, #201 ) ;
#527 = VECTOR ( 'NONE', #475, 100.0000000000000000 ) ;
#528 = EDGE_LOOP ( 'NONE', ( #345, #434, #216, #132 ) ) ;
#529 = VECTOR ( 'NONE', #140, 100.0000000000000000 ) ;
ENDSEC;
END-ISO-10303-21;
