ISO-10303-21;
HEADER;
FILE_DESCRIPTION (( 'STEP AP214' ),
    '1' );
FILE_NAME ('ramp-wall-upper.STEP',
    '2026-06-19T13:50:28',
    ( '' ),
    ( '' ),
    'SwSTEP 2.0',
    'SolidWorks 2023',
    '' );
FILE_SCHEMA (( 'AUTOMOTIVE_DESIGN' ));
ENDSEC;

DATA;
#1 = DIRECTION ( 'NONE',  ( 0.000000000000000000, 1.000000000000000000, 0.000000000000000000 ) ) ;
#2 = EDGE_CURVE ( 'NONE', #210, #259, #212, .T. ) ;
#3 = LINE ( 'NONE', #9, #433 ) ;
#4 = SURFACE_SIDE_STYLE ('',( #470 ) ) ;
#5 = PRODUCT_DEFINITION_CONTEXT ( 'detailed design', #176, 'design' ) ;
#6 = AXIS2_PLACEMENT_3D ( 'NONE', #429, #389, #110 ) ;
#7 = ORIENTED_EDGE ( 'NONE', *, *, #244, .F. ) ;
#8 = EDGE_CURVE ( 'NONE', #21, #171, #246, .T. ) ;
#9 = CARTESIAN_POINT ( 'NONE',  ( 7.582871382329281928, -0.3950000000000000178, 0.000000000000000000 ) ) ;
#10 = DIRECTION ( 'NONE',  ( -1.000000000000000000, -0.000000000000000000, 2.385244779468106797E-16 ) ) ;
#11 = EDGE_CURVE ( 'NONE', #18, #192, #25, .T. ) ;
#12 = AXIS2_PLACEMENT_3D ( 'NONE', #341, #141, #64 ) ;
#13 = PRODUCT_DEFINITION_FORMATION_WITH_SPECIFIED_SOURCE ( 'ANY', '', #426, .NOT_KNOWN. ) ;
#14 = CARTESIAN_POINT ( 'NONE',  ( 3.200000000000000178, -0.3950000000000000178, 2.500000000000000000 ) ) ;
#15 = CARTESIAN_POINT ( 'NONE',  ( 7.032798186863919554, -0.3950000000000000178, 2.325160637423529408 ) ) ;
#16 = LINE ( 'NONE', #235, #144 ) ;
#17 = SHAPE_DEFINITION_REPRESENTATION ( #187, #267 ) ;
#18 = VERTEX_POINT ( 'NONE', #371 ) ;
#19 = PLANE ( 'NONE',  #188 ) ;
#20 = ORIENTED_EDGE ( 'NONE', *, *, #344, .T. ) ;
#21 = VERTEX_POINT ( 'NONE', #22 ) ;
#22 = CARTESIAN_POINT ( 'NONE',  ( 7.582871382329281928, 0.000000000000000000, 0.000000000000000000 ) ) ;
#23 = ORIENTED_EDGE ( 'NONE', *, *, #436, .T. ) ;
#24 = AXIS2_PLACEMENT_3D ( 'NONE', #14, #403, #449 ) ;
#25 = LINE ( 'NONE', #15, #467 ) ;
#26 = EDGE_CURVE ( 'NONE', #425, #18, #136, .T. ) ;
#27 = ORIENTED_EDGE ( 'NONE', *, *, #450, .T. ) ;
#28 = DIRECTION ( 'NONE',  ( -1.000000000000000000, 0.000000000000000000, -1.084202172485504434E-16 ) ) ;
#29 = CARTESIAN_POINT ( 'NONE',  ( 0.000000000000000000, -0.3950000000000000178, 2.394999999999999130 ) ) ;
#30 = SURFACE_STYLE_USAGE ( .BOTH. , #380 ) ;
#31 = PLANE ( 'NONE',  #81 ) ;
#32 = ORIENTED_EDGE ( 'NONE', *, *, #255, .T. ) ;
#33 = ORIENTED_EDGE ( 'NONE', *, *, #319, .F. ) ;
#34 = VECTOR ( 'NONE', #239, 100.0000000000000000 ) ;
#35 = CARTESIAN_POINT ( 'NONE',  ( 7.282798186863920442, -0.3950000000000000178, 2.325160637423529852 ) ) ;
#36 = LINE ( 'NONE', #185, #434 ) ;
#37 = DIRECTION ( 'NONE',  ( 0.000000000000000000, 1.000000000000000000, 0.000000000000000000 ) ) ;
#38 = DIRECTION ( 'NONE',  ( 1.000000000000000000, 0.000000000000000000, 1.084202172485504434E-16 ) ) ;
#39 = PLANE ( 'NONE',  #190 ) ;
#40 = VECTOR ( 'NONE', #416, 100.0000000000000142 ) ;
#41 = LINE ( 'NONE', #180, #445 ) ;
#42 =( GEOMETRIC_REPRESENTATION_CONTEXT ( 3 ) GLOBAL_UNCERTAINTY_ASSIGNED_CONTEXT ( ( #209 ) ) GLOBAL_UNIT_ASSIGNED_CONTEXT ( ( #286, #316, #288 ) ) REPRESENTATION_CONTEXT ( 'NONE', 'WORKASPACE' ) );
#43 = DIRECTION ( 'NONE',  ( 0.000000000000000000, 0.000000000000000000, -1.000000000000000000 ) ) ;
#44 = VERTEX_POINT ( 'NONE', #134 ) ;
#45 = FILL_AREA_STYLE ('',( #437 ) ) ;
#46 = ORIENTED_EDGE ( 'NONE', *, *, #368, .T. ) ;
#47 = VECTOR ( 'NONE', #377, 100.0000000000000000 ) ;
#48 = AXIS2_PLACEMENT_3D ( 'NONE', #388, #466, #38 ) ;
#49 = ORIENTED_EDGE ( 'NONE', *, *, #63, .T. ) ;
#50 = DIRECTION ( 'NONE',  ( 0.000000000000000000, 1.000000000000000000, 0.000000000000000000 ) ) ;
#51 = LINE ( 'NONE', #357, #462 ) ;
#52 = DIRECTION ( 'NONE',  ( 1.084202172485504557E-16, -0.000000000000000000, -1.000000000000000000 ) ) ;
#53 = ORIENTED_EDGE ( 'NONE', *, *, #352, .T. ) ;
#54 = ADVANCED_FACE ( 'NONE', ( #454 ), #167, .T. ) ;
#55 = CARTESIAN_POINT ( 'NONE',  ( -0.2500000000000002220, -0.5999999999999999778, 2.395000000000000018 ) ) ;
#56 = ORIENTED_EDGE ( 'NONE', *, *, #26, .T. ) ;
#57 = VECTOR ( 'NONE', #115, 100.0000000000000000 ) ;
#58 = PLANE ( 'NONE',  #182 ) ;
#59 = DIRECTION ( 'NONE',  ( 0.2302195854387927842, 0.000000000000000000, -0.9731387067013572700 ) ) ;
#60 = ORIENTED_EDGE ( 'NONE', *, *, #344, .F. ) ;
#61 = CARTESIAN_POINT ( 'NONE',  ( 0.000000000000000000, -1.199999999999999956, 5.000000000000000000 ) ) ;
#62 = EDGE_LOOP ( 'NONE', ( #60, #32, #157, #455, #234, #86, #370, #179 ) ) ;
#63 = EDGE_CURVE ( 'NONE', #237, #21, #373, .T. ) ;
#64 = DIRECTION ( 'NONE',  ( -1.000000000000000000, -0.000000000000000000, -1.084202172485504434E-16 ) ) ;
#65 = ORIENTED_EDGE ( 'NONE', *, *, #244, .T. ) ;
#66 =( GEOMETRIC_REPRESENTATION_CONTEXT ( 3 ) GLOBAL_UNCERTAINTY_ASSIGNED_CONTEXT ( ( #256 ) ) GLOBAL_UNIT_ASSIGNED_CONTEXT ( ( #291, #359, #79 ) ) REPRESENTATION_CONTEXT ( 'NONE', 'WORKASPACE' ) );
#67 = LINE ( 'NONE', #301, #40 ) ;
#68 = EDGE_CURVE ( 'NONE', #326, #44, #421, .T. ) ;
#69 = CARTESIAN_POINT ( 'NONE',  ( 6.400000000000000355, 0.000000000000000000, 5.000000000000000000 ) ) ;
#70 = ORIENTED_EDGE ( 'NONE', *, *, #63, .F. ) ;
#71 = LINE ( 'NONE', #422, #364 ) ;
#72 = CARTESIAN_POINT ( 'NONE',  ( 0.000000000000000000, -1.199999999999999956, 0.000000000000000000 ) ) ;
#73 = AXIS2_PLACEMENT_3D ( 'NONE', #202, #299, #140 ) ;
#74 = PRESENTATION_LAYER_ASSIGNMENT (  '', '', ( #213 ) ) ;
#75 = LINE ( 'NONE', #143, #340 ) ;
#76 = CARTESIAN_POINT ( 'NONE',  ( 0.000000000000000000, 0.000000000000000000, 5.000000000000000000 ) ) ;
#77 = CARTESIAN_POINT ( 'NONE',  ( 7.582871382329281928, -0.8049999999999999378, 0.000000000000000000 ) ) ;
#78 = CARTESIAN_POINT ( 'NONE',  ( 7.032798186863919554, -0.8049999999999999378, 2.325160637423529408 ) ) ;
#79 =( NAMED_UNIT ( * ) SI_UNIT ( $, .STERADIAN. ) SOLID_ANGLE_UNIT ( ) );
#80 = AXIS2_PLACEMENT_3D ( 'NONE', #61, #97, #100 ) ;
#81 = AXIS2_PLACEMENT_3D ( 'NONE', #354, #208, #109 ) ;
#82 = APPLICATION_PROTOCOL_DEFINITION ( 'draft international standard', 'automotive_design', 1998, #365 ) ;
#83 = ORIENTED_EDGE ( 'NONE', *, *, #196, .T. ) ;
#84 = STYLED_ITEM ( 'NONE', ( #349 ), #402 ) ;
#85 = CARTESIAN_POINT ( 'NONE',  ( 0.000000000000000000, -1.199999999999999956, 5.000000000000000000 ) ) ;
#86 = ORIENTED_EDGE ( 'NONE', *, *, #196, .F. ) ;
#87 = DIRECTION ( 'NONE',  ( -1.084202172485504434E-16, 0.000000000000000000, 1.000000000000000000 ) ) ;
#88 = ORIENTED_EDGE ( 'NONE', *, *, #313, .F. ) ;
#89 = LINE ( 'NONE', #111, #112 ) ;
#90 = ADVANCED_FACE ( 'NONE', ( #270 ), #19, .T. ) ;
#91 = ORIENTED_EDGE ( 'NONE', *, *, #319, .T. ) ;
#92 = FACE_OUTER_BOUND ( 'NONE', #62, .T. ) ;
#93 = ORIENTED_EDGE ( 'NONE', *, *, #11, .T. ) ;
#94 = PRESENTATION_LAYER_ASSIGNMENT (  '', '', ( #84 ) ) ;
#95 = DIRECTION ( 'NONE',  ( 0.000000000000000000, 1.000000000000000000, 0.000000000000000000 ) ) ;
#96 = ORIENTED_EDGE ( 'NONE', *, *, #406, .T. ) ;
#97 = DIRECTION ( 'NONE',  ( -1.000000000000000000, 0.000000000000000000, -1.084202172485504434E-16 ) ) ;
#98 = ADVANCED_FACE ( 'NONE', ( #131 ), #232, .T. ) ;
#99 = EDGE_LOOP ( 'NONE', ( #83, #378, #49, #221 ) ) ;
#100 = DIRECTION ( 'NONE',  ( 0.000000000000000000, 1.000000000000000000, 0.000000000000000000 ) ) ;
#101 = CARTESIAN_POINT ( 'NONE',  ( 6.400000000000000355, -1.199999999999999956, 5.000000000000000000 ) ) ;
#102 = CARTESIAN_POINT ( 'NONE',  ( 6.400000000000000355, 0.000000000000000000, 0.000000000000000000 ) ) ;
#103 = ORIENTED_EDGE ( 'NONE', *, *, #2, .T. ) ;
#104 = ORIENTED_EDGE ( 'NONE', *, *, #105, .T. ) ;
#105 = EDGE_CURVE ( 'NONE', #177, #442, #67, .T. ) ;
#106 =( GEOMETRIC_REPRESENTATION_CONTEXT ( 3 ) GLOBAL_UNCERTAINTY_ASSIGNED_CONTEXT ( ( #360 ) ) GLOBAL_UNIT_ASSIGNED_CONTEXT ( ( #293, #161, #254 ) ) REPRESENTATION_CONTEXT ( 'NONE', 'WORKASPACE' ) );
#107 = DIRECTION ( 'NONE',  ( 0.2302195854387928675, 0.000000000000000000, -0.9731387067013572700 ) ) ;
#108 = ORIENTED_EDGE ( 'NONE', *, *, #184, .F. ) ;
#109 = DIRECTION ( 'NONE',  ( -1.000000000000000000, -0.000000000000000000, -1.084202172485504434E-16 ) ) ;
#110 = DIRECTION ( 'NONE',  ( 0.000000000000000000, 1.000000000000000000, 0.000000000000000000 ) ) ;
#111 = CARTESIAN_POINT ( 'NONE',  ( 0.000000000000000000, -1.199999999999999956, 5.000000000000000000 ) ) ;
#112 = VECTOR ( 'NONE', #247, 100.0000000000000000 ) ;
#113 = DIRECTION ( 'NONE',  ( -1.000000000000000000, 0.000000000000000000, -1.496198998029994936E-15 ) ) ;
#114 = VECTOR ( 'NONE', #332, 100.0000000000000000 ) ;
#115 = DIRECTION ( 'NONE',  ( 1.084202172485504557E-16, -0.000000000000000000, -1.000000000000000000 ) ) ;
#116 = EDGE_CURVE ( 'NONE', #162, #44, #280, .T. ) ;
#117 = ADVANCED_FACE ( 'NONE', ( #92 ), #452, .T. ) ;
#118 = CARTESIAN_POINT ( 'NONE',  ( 7.582871382329281928, -1.199999999999999956, 0.000000000000000000 ) ) ;
#119 = DIRECTION ( 'NONE',  ( -0.2302195854387928675, 0.000000000000000000, 0.9731387067013572700 ) ) ;
#120 = CARTESIAN_POINT ( 'NONE',  ( 3.200000000000000178, -0.3950000000000000178, 2.500000000000000000 ) ) ;
#121 = EDGE_CURVE ( 'NONE', #192, #177, #439, .T. ) ;
#122 = CARTESIAN_POINT ( 'NONE',  ( 6.984300460188419990, -0.8049999999999999378, 2.530160637423529479 ) ) ;
#123 = DIRECTION ( 'NONE',  ( 1.000000000000000000, 0.000000000000000000, 1.084202172485504434E-16 ) ) ;
#124 = ORIENTED_EDGE ( 'NONE', *, *, #376, .T. ) ;
#125 = ORIENTED_EDGE ( 'NONE', *, *, #376, .F. ) ;
#126 = CARTESIAN_POINT ( 'NONE',  ( 6.400000000000000355, -1.199999999999999956, 5.000000000000000000 ) ) ;
#127 = VECTOR ( 'NONE', #289, 100.0000000000000000 ) ;
#128 = ORIENTED_EDGE ( 'NONE', *, *, #121, .F. ) ;
#129 = CARTESIAN_POINT ( 'NONE',  ( 6.935802733512918650, -0.3950000000000000178, 2.735160637423529550 ) ) ;
#130 = ORIENTED_EDGE ( 'NONE', *, *, #397, .T. ) ;
#131 = FACE_OUTER_BOUND ( 'NONE', #424, .T. ) ;
#132 = EDGE_LOOP ( 'NONE', ( #96, #262, #158, #108, #147, #444, #181, #307, #125, #337, #7, #243 ) ) ;
#133 = CARTESIAN_POINT ( 'NONE',  ( 0.000000000000000000, -0.8049999999999999378, 0.000000000000000000 ) ) ;
#134 = CARTESIAN_POINT ( 'NONE',  ( 6.400000000000000355, -1.199999999999999956, 5.000000000000000000 ) ) ;
#135 = LINE ( 'NONE', #253, #165 ) ;
#136 = LINE ( 'NONE', #175, #274 ) ;
#137 = VERTEX_POINT ( 'NONE', #29 ) ;
#138 = AXIS2_PLACEMENT_3D ( 'NONE', #330, #367, #95 ) ;
#139 = EDGE_LOOP ( 'NONE', ( #264, #278, #201, #20 ) ) ;
#140 = DIRECTION ( 'NONE',  ( 1.000000000000000000, 0.000000000000000000, 1.084202172485504434E-16 ) ) ;
#141 = DIRECTION ( 'NONE',  ( 0.000000000000000000, -1.000000000000000000, 0.000000000000000000 ) ) ;
#142 = ORIENTED_EDGE ( 'NONE', *, *, #396, .T. ) ;
#143 = CARTESIAN_POINT ( 'NONE',  ( 0.000000000000000000, -0.3950000000000000178, 0.000000000000000000 ) ) ;
#144 = VECTOR ( 'NONE', #52, 100.0000000000000000 ) ;
#145 = EDGE_CURVE ( 'NONE', #162, #271, #172, .T. ) ;
#146 = DIRECTION ( 'NONE',  ( 1.000000000000000000, 0.000000000000000000, -2.385244779468106797E-16 ) ) ;
#147 = ORIENTED_EDGE ( 'NONE', *, *, #385, .T. ) ;
#148 = CARTESIAN_POINT ( 'NONE',  ( 0.000000000000000000, 0.000000000000000000, 5.000000000000000000 ) ) ;
#149 = DIRECTION ( 'NONE',  ( 0.000000000000000000, 1.000000000000000000, 0.000000000000000000 ) ) ;
#150 = EDGE_CURVE ( 'NONE', #271, #326, #89, .T. ) ;
#151 = LINE ( 'NONE', #183, #127 ) ;
#152 = VECTOR ( 'NONE', #351, 100.0000000000000000 ) ;
#153 = CARTESIAN_POINT ( 'NONE',  ( 7.282798186863920442, -0.8049999999999999378, 2.325160637423529852 ) ) ;
#154 = SURFACE_STYLE_USAGE ( .BOTH. , #4 ) ;
#155 = CARTESIAN_POINT ( 'NONE',  ( 6.935802733512918650, -0.8050000000000000488, 2.735160637423529550 ) ) ;
#156 = ADVANCED_FACE ( 'NONE', ( #216 ), #391, .T. ) ;
#157 = ORIENTED_EDGE ( 'NONE', *, *, #406, .F. ) ;
#158 = ORIENTED_EDGE ( 'NONE', *, *, #304, .T. ) ;
#159 = EDGE_LOOP ( 'NONE', ( #46, #142, #53, #198 ) ) ;
#160 = FACE_OUTER_BOUND ( 'NONE', #139, .T. ) ;
#161 =( NAMED_UNIT ( * ) PLANE_ANGLE_UNIT ( ) SI_UNIT ( $, .RADIAN. ) );
#162 = VERTEX_POINT ( 'NONE', #118 ) ;
#163 = PRODUCT_RELATED_PRODUCT_CATEGORY ( 'part', '', ( #426 ) ) ;
#164 = CARTESIAN_POINT ( 'NONE',  ( 7.582871382329281928, -6.338013692774045360, 0.000000000000000000 ) ) ;
#165 = VECTOR ( 'NONE', #50, 100.0000000000000000 ) ;
#166 = CARTESIAN_POINT ( 'NONE',  ( 7.032798186863919554, -0.8049999999999999378, 2.325160637423529408 ) ) ;
#167 = PLANE ( 'NONE',  #73 ) ;
#168 = EDGE_CURVE ( 'NONE', #326, #227, #186, .T. ) ;
#169 = CARTESIAN_POINT ( 'NONE',  ( 7.832871382329281928, -0.3950000000000000178, -3.469446951953614189E-16 ) ) ;
#170 = CARTESIAN_POINT ( 'NONE',  ( 6.400000000000000355, -6.338013692774045360, 5.000000000000000000 ) ) ;
#171 = VERTEX_POINT ( 'NONE', #394 ) ;
#172 = LINE ( 'NONE', #266, #362 ) ;
#173 = ORIENTED_EDGE ( 'NONE', *, *, #121, .T. ) ;
#174 = VECTOR ( 'NONE', #113, 100.0000000000000000 ) ;
#175 = CARTESIAN_POINT ( 'NONE',  ( 6.984300460188419990, -0.3950000000000000178, 2.530160637423529479 ) ) ;
#176 = APPLICATION_CONTEXT ( 'automotive_design' ) ;
#177 = VERTEX_POINT ( 'NONE', #153 ) ;
#178 = CARTESIAN_POINT ( 'NONE',  ( 7.185802733512919538, -0.8049999999999992717, 2.735160637423529106 ) ) ;
#179 = ORIENTED_EDGE ( 'NONE', *, *, #352, .F. ) ;
#180 = CARTESIAN_POINT ( 'NONE',  ( 7.582871382329281928, -6.338013692774045360, 0.000000000000000000 ) ) ;
#181 = ORIENTED_EDGE ( 'NONE', *, *, #358, .F. ) ;
#182 = AXIS2_PLACEMENT_3D ( 'NONE', #379, #28, #383 ) ;
#183 = CARTESIAN_POINT ( 'NONE',  ( 7.582871382329281928, -0.8049999999999999378, 0.000000000000000000 ) ) ;
#184 = EDGE_CURVE ( 'NONE', #336, #303, #75, .T. ) ;
#185 = CARTESIAN_POINT ( 'NONE',  ( 3.200000000000000178, -0.8049999999999999378, 2.394999999999999574 ) ) ;
#186 = LINE ( 'NONE', #251, #249 ) ;
#187 = PRODUCT_DEFINITION_SHAPE ( 'NONE', 'NONE',  #230 ) ;
#188 = AXIS2_PLACEMENT_3D ( 'NONE', #170, #229, #59 ) ;
#189 = FACE_OUTER_BOUND ( 'NONE', #132, .T. ) ;
#190 = AXIS2_PLACEMENT_3D ( 'NONE', #321, #43, #395 ) ;
#191 = FACE_OUTER_BOUND ( 'NONE', #268, .T. ) ;
#192 = VERTEX_POINT ( 'NONE', #35 ) ;
#193 = VECTOR ( 'NONE', #419, 100.0000000000000142 ) ;
#194 = CYLINDRICAL_SURFACE ( 'NONE', #305, 0.2049999999999999600 ) ;
#195 = CARTESIAN_POINT ( 'NONE',  ( 7.832871382329281928, -0.8049999999999999378, -3.469446951953614189E-16 ) ) ;
#196 = EDGE_CURVE ( 'NONE', #171, #227, #384, .T. ) ;
#197 = EDGE_CURVE ( 'NONE', #227, #237, #252, .T. ) ;
#198 = ORIENTED_EDGE ( 'NONE', *, *, #184, .T. ) ;
#199 = LINE ( 'NONE', #164, #206 ) ;
#200 = ORIENTED_EDGE ( 'NONE', *, *, #145, .F. ) ;
#201 = ORIENTED_EDGE ( 'NONE', *, *, #417, .F. ) ;
#202 = CARTESIAN_POINT ( 'NONE',  ( 3.200000000000000178, 0.000000000000000000, 2.500000000000000000 ) ) ;
#203 = ORIENTED_EDGE ( 'NONE', *, *, #214, .F. ) ;
#204 = CARTESIAN_POINT ( 'NONE',  ( 7.282798186863920442, -0.3950000000000000178, 2.325160637423529852 ) ) ;
#205 = VERTEX_POINT ( 'NONE', #78 ) ;
#206 = VECTOR ( 'NONE', #296, 100.0000000000000000 ) ;
#207 = ORIENTED_EDGE ( 'NONE', *, *, #397, .F. ) ;
#208 = DIRECTION ( 'NONE',  ( 0.000000000000000000, -1.000000000000000000, 0.000000000000000000 ) ) ;
#209 = UNCERTAINTY_MEASURE_WITH_UNIT (LENGTH_MEASURE( 1.000000000000000082E-05 ), #286, 'distance_accuracy_value', 'NONE');
#210 = VERTEX_POINT ( 'NONE', #350 ) ;
#211 = FILL_AREA_STYLE ('',( #343 ) ) ;
#212 = CIRCLE ( 'NONE', #6, 0.2049999999999999600 ) ;
#213 = STYLED_ITEM ( 'NONE', ( #223 ), #448 ) ;
#214 = EDGE_CURVE ( 'NONE', #442, #447, #151, .T. ) ;
#215 = LINE ( 'NONE', #310, #407 ) ;
#216 = FACE_OUTER_BOUND ( 'NONE', #412, .T. ) ;
#217 = DIRECTION ( 'NONE',  ( -1.000000000000000000, 0.000000000000000000, -1.496198998029994936E-15 ) ) ;
#218 = FACE_OUTER_BOUND ( 'NONE', #327, .T. ) ;
#219 = AXIS2_PLACEMENT_3D ( 'NONE', #294, #440, #123 ) ;
#220 = ORIENTED_EDGE ( 'NONE', *, *, #417, .T. ) ;
#221 = ORIENTED_EDGE ( 'NONE', *, *, #8, .T. ) ;
#222 = DIRECTION ( 'NONE',  ( 0.000000000000000000, 0.000000000000000000, -1.000000000000000000 ) ) ;
#223 = PRESENTATION_STYLE_ASSIGNMENT (( #154 ) ) ;
#224 = VECTOR ( 'NONE', #10, 100.0000000000000000 ) ;
#225 = ORIENTED_EDGE ( 'NONE', *, *, #358, .T. ) ;
#226 = CARTESIAN_POINT ( 'NONE',  ( 0.000000000000000000, -0.3950000000000000178, 0.000000000000000000 ) ) ;
#227 = VERTEX_POINT ( 'NONE', #148 ) ;
#228 = CARTESIAN_POINT ( 'NONE',  ( 7.032798186863919554, -0.3950000000000000178, 2.325160637423529408 ) ) ;
#229 = DIRECTION ( 'NONE',  ( 0.9731387067013573811, 0.000000000000000000, 0.2302195854387928120 ) ) ;
#230 = PRODUCT_DEFINITION ( 'UNKNOWN', '', #13, #5 ) ;
#231 = DIRECTION ( 'NONE',  ( 1.000000000000000000, 0.000000000000000000, 0.000000000000000000 ) ) ;
#232 = PLANE ( 'NONE',  #12 ) ;
#233 = AXIS2_PLACEMENT_3D ( 'NONE', #282, #317, #107 ) ;
#234 = ORIENTED_EDGE ( 'NONE', *, *, #168, .T. ) ;
#235 = CARTESIAN_POINT ( 'NONE',  ( 0.000000000000000000, -0.3950000000000000178, 0.000000000000000000 ) ) ;
#236 = DIRECTION ( 'NONE',  ( -0.2302195854387928675, 0.000000000000000000, 0.9731387067013572700 ) ) ;
#237 = VERTEX_POINT ( 'NONE', #69 ) ;
#238 = ADVANCED_FACE ( 'NONE', ( #218 ), #31, .T. ) ;
#239 = DIRECTION ( 'NONE',  ( 0.000000000000000000, 1.000000000000000000, 0.000000000000000000 ) ) ;
#240 = CARTESIAN_POINT ( 'NONE',  ( 6.400000000000000355, -1.199999999999999956, 5.000000000000000000 ) ) ;
#241 = VERTEX_POINT ( 'NONE', #347 ) ;
#242 = DIRECTION ( 'NONE',  ( 0.000000000000000000, 1.000000000000000000, 0.000000000000000000 ) ) ;
#243 = ORIENTED_EDGE ( 'NONE', *, *, #145, .T. ) ;
#244 = EDGE_CURVE ( 'NONE', #162, #447, #41, .T. ) ;
#245 = CARTESIAN_POINT ( 'NONE',  ( 0.000000000000000000, -0.8049999999999999378, 0.000000000000000000 ) ) ;
#246 = LINE ( 'NONE', #102, #355 ) ;
#247 = DIRECTION ( 'NONE',  ( -1.084202172485504434E-16, 0.000000000000000000, 1.000000000000000000 ) ) ;
#248 = VECTOR ( 'NONE', #276, 100.0000000000000142 ) ;
#249 = VECTOR ( 'NONE', #242, 100.0000000000000000 ) ;
#250 = SURFACE_STYLE_FILL_AREA ( #211 ) ;
#251 = CARTESIAN_POINT ( 'NONE',  ( 0.000000000000000000, -1.199999999999999956, 5.000000000000000000 ) ) ;
#252 = LINE ( 'NONE', #435, #152 ) ;
#253 = CARTESIAN_POINT ( 'NONE',  ( -0.2500000000000002220, -0.8049999999999999378, -3.469446951953614189E-16 ) ) ;
#254 =( NAMED_UNIT ( * ) SI_UNIT ( $, .STERADIAN. ) SOLID_ANGLE_UNIT ( ) );
#255 = EDGE_CURVE ( 'NONE', #241, #342, #314, .T. ) ;
#256 = UNCERTAINTY_MEASURE_WITH_UNIT (LENGTH_MEASURE( 1.000000000000000082E-05 ), #291, 'distance_accuracy_value', 'NONE');
#257 = ORIENTED_EDGE ( 'NONE', *, *, #197, .F. ) ;
#258 = PRODUCT_CONTEXT ( 'NONE', #365, 'mechanical' ) ;
#259 = VERTEX_POINT ( 'NONE', #432 ) ;
#260 = DIRECTION ( 'NONE',  ( 0.000000000000000000, -1.000000000000000000, 0.000000000000000000 ) ) ;
#261 = COLOUR_RGB ( '',0.6941176470588235059, 0.09803921568627450844, 0.09803921568627450844 ) ;
#262 = ORIENTED_EDGE ( 'NONE', *, *, #409, .T. ) ;
#263 = LINE ( 'NONE', #300, #398 ) ;
#264 = ORIENTED_EDGE ( 'NONE', *, *, #396, .F. ) ;
#265 = ADVANCED_FACE ( 'NONE', ( #318 ), #353, .F. ) ;
#266 = CARTESIAN_POINT ( 'NONE',  ( 6.400000000000000355, -1.199999999999999956, 0.000000000000000000 ) ) ;
#267 = ADVANCED_BREP_SHAPE_REPRESENTATION ( 'ramp-wall-upper', ( #402, #219 ), #106 ) ;
#268 = EDGE_LOOP ( 'NONE', ( #33, #173, #104, #124 ) ) ;
#269 = LINE ( 'NONE', #375, #372 ) ;
#270 = FACE_OUTER_BOUND ( 'NONE', #339, .T. ) ;
#271 = VERTEX_POINT ( 'NONE', #72 ) ;
#272 = DIRECTION ( 'NONE',  ( 1.000000000000000000, 0.000000000000000000, -6.505213034913011813E-17 ) ) ;
#273 = ORIENTED_EDGE ( 'NONE', *, *, #26, .F. ) ;
#274 = VECTOR ( 'NONE', #236, 100.0000000000000142 ) ;
#275 = COLOUR_RGB ( '',1.000000000000000000, 1.000000000000000000, 1.000000000000000000 ) ;
#276 = DIRECTION ( 'NONE',  ( 0.2302195854387927842, 0.000000000000000000, -0.9731387067013572700 ) ) ;
#277 = ADVANCED_FACE ( 'NONE', ( #191 ), #459, .T. ) ;
#278 = ORIENTED_EDGE ( 'NONE', *, *, #2, .F. ) ;
#279 = ADVANCED_FACE ( 'NONE', ( #287 ), #430, .T. ) ;
#280 = LINE ( 'NONE', #240, #283 ) ;
#281 = ORIENTED_EDGE ( 'NONE', *, *, #116, .F. ) ;
#282 = CARTESIAN_POINT ( 'NONE',  ( 7.832871382329281928, -0.8049999999999999378, -3.469446951953614189E-16 ) ) ;
#283 = VECTOR ( 'NONE', #423, 100.0000000000000142 ) ;
#284 = DIRECTION ( 'NONE',  ( -1.084202172485504434E-16, 0.000000000000000000, 1.000000000000000000 ) ) ;
#285 = EDGE_LOOP ( 'NONE', ( #56, #93, #91, #414 ) ) ;
#286 =( LENGTH_UNIT ( ) NAMED_UNIT ( * ) SI_UNIT ( .CENTI., .METRE. ) );
#287 = FACE_OUTER_BOUND ( 'NONE', #366, .T. ) ;
#288 =( NAMED_UNIT ( * ) SI_UNIT ( $, .STERADIAN. ) SOLID_ANGLE_UNIT ( ) );
#289 = DIRECTION ( 'NONE',  ( -1.000000000000000000, 0.000000000000000000, 1.279358563532894049E-15 ) ) ;
#290 = EDGE_CURVE ( 'NONE', #18, #205, #331, .T. ) ;
#291 =( LENGTH_UNIT ( ) NAMED_UNIT ( * ) SI_UNIT ( .CENTI., .METRE. ) );
#292 = FACE_OUTER_BOUND ( 'NONE', #386, .T. ) ;
#293 =( LENGTH_UNIT ( ) NAMED_UNIT ( * ) SI_UNIT ( .CENTI., .METRE. ) );
#294 = CARTESIAN_POINT ( 'NONE',  ( 0.03200000000000000067, -0.006000000000000000125, 0.02500000000000000139 ) ) ;
#295 = CARTESIAN_POINT ( 'NONE',  ( -0.2500000000000002220, -0.8049999999999999378, -3.469446951953614189E-16 ) ) ;
#296 = DIRECTION ( 'NONE',  ( 0.000000000000000000, 1.000000000000000000, 0.000000000000000000 ) ) ;
#297 = PLANE ( 'NONE',  #24 ) ;
#298 = ADVANCED_FACE ( 'NONE', ( #363 ), #408, .F. ) ;
#299 = DIRECTION ( 'NONE',  ( -0.000000000000000000, 1.000000000000000000, 0.000000000000000000 ) ) ;
#300 = CARTESIAN_POINT ( 'NONE',  ( -0.2500000000000002220, -0.3950000000000000178, -3.469446951953614189E-16 ) ) ;
#301 = CARTESIAN_POINT ( 'NONE',  ( 7.832871382329281928, -0.8049999999999999378, -3.469446951953614189E-16 ) ) ;
#302 = ORIENTED_EDGE ( 'NONE', *, *, #11, .F. ) ;
#303 = VERTEX_POINT ( 'NONE', #451 ) ;
#304 = EDGE_CURVE ( 'NONE', #329, #303, #135, .T. ) ;
#305 = AXIS2_PLACEMENT_3D ( 'NONE', #55, #272, #222 ) ;
#306 = ADVANCED_FACE ( 'NONE', ( #411 ), #297, .F. ) ;
#307 = ORIENTED_EDGE ( 'NONE', *, *, #465, .F. ) ;
#308 = DIRECTION ( 'NONE',  ( 1.000000000000000000, -0.000000000000000000, -2.385244779468106797E-16 ) ) ;
#309 = EDGE_LOOP ( 'NONE', ( #315, #200, #348, #361 ) ) ;
#310 = CARTESIAN_POINT ( 'NONE',  ( 0.000000000000000000, -1.199999999999999956, 0.000000000000000000 ) ) ;
#311 = ADVANCED_FACE ( 'NONE', ( #160 ), #194, .T. ) ;
#312 = ORIENTED_EDGE ( 'NONE', *, *, #409, .F. ) ;
#313 = EDGE_CURVE ( 'NONE', #177, #205, #328, .T. ) ;
#314 = LINE ( 'NONE', #245, #57 ) ;
#315 = ORIENTED_EDGE ( 'NONE', *, *, #150, .F. ) ;
#316 =( NAMED_UNIT ( * ) PLANE_ANGLE_UNIT ( ) SI_UNIT ( $, .RADIAN. ) );
#317 = DIRECTION ( 'NONE',  ( 0.9731387067013572700, 0.000000000000000000, 0.2302195854387928675 ) ) ;
#318 = FACE_OUTER_BOUND ( 'NONE', #309, .T. ) ;
#319 = EDGE_CURVE ( 'NONE', #192, #410, #322, .T. ) ;
#320 = CIRCLE ( 'NONE', #138, 0.2049999999999999600 ) ;
#321 = CARTESIAN_POINT ( 'NONE',  ( 6.400000000000000355, -1.199999999999999956, 0.000000000000000000 ) ) ;
#322 = LINE ( 'NONE', #169, #193 ) ;
#323 = DIRECTION ( 'NONE',  ( -1.084202172485504434E-16, 0.000000000000000000, 1.000000000000000000 ) ) ;
#324 = DIRECTION ( 'NONE',  ( -1.000000000000000000, -0.000000000000000000, 6.505213034913011813E-17 ) ) ;
#325 = MECHANICAL_DESIGN_GEOMETRIC_PRESENTATION_REPRESENTATION (  '', ( #213 ), #66 ) ;
#326 = VERTEX_POINT ( 'NONE', #85 ) ;
#327 = EDGE_LOOP ( 'NONE', ( #374, #220, #441, #312 ) ) ;
#328 = LINE ( 'NONE', #446, #224 ) ;
#329 = VERTEX_POINT ( 'NONE', #295 ) ;
#330 = CARTESIAN_POINT ( 'NONE',  ( 0.000000000000000000, -0.5999999999999999778, 2.395000000000000018 ) ) ;
#331 =( BOUNDED_CURVE ( )  B_SPLINE_CURVE ( 3, ( #228, #129, #155, #166 ),
 .UNSPECIFIED., .F., .F. ) 
 B_SPLINE_CURVE_WITH_KNOTS ( ( 4, 4 ),
 ( 1.570796326794896558, 4.712388980384689674 ),
 .UNSPECIFIED. ) 
 CURVE ( )  GEOMETRIC_REPRESENTATION_ITEM ( )  RATIONAL_B_SPLINE_CURVE ( ( 1.000000000000000000, 0.3333333333333333703, 0.3333333333333333703, 1.000000000000000000 ) ) 
 REPRESENTATION_ITEM ( '' )  );
#332 = DIRECTION ( 'NONE',  ( 0.000000000000000000, 1.000000000000000000, 0.000000000000000000 ) ) ;
#333 = AXIS2_PLACEMENT_3D ( 'NONE', #126, #443, #231 ) ;
#334 = DIRECTION ( 'NONE',  ( -1.000000000000000000, 0.000000000000000000, 0.000000000000000000 ) ) ;
#335 = DIRECTION ( 'NONE',  ( -1.000000000000000000, -0.000000000000000000, -1.084202172485504434E-16 ) ) ;
#336 = VERTEX_POINT ( 'NONE', #226 ) ;
#337 = ORIENTED_EDGE ( 'NONE', *, *, #214, .T. ) ;
#338 = CARTESIAN_POINT ( 'NONE',  ( 7.282798186863920442, -0.8049999999999999378, 2.325160637423529852 ) ) ;
#339 = EDGE_LOOP ( 'NONE', ( #420, #273, #225, #70, #207, #281, #65, #23 ) ) ;
#340 = VECTOR ( 'NONE', #217, 100.0000000000000000 ) ;
#341 = CARTESIAN_POINT ( 'NONE',  ( 3.200000000000000178, -0.8049999999999999378, 2.500000000000000000 ) ) ;
#342 = VERTEX_POINT ( 'NONE', #133 ) ;
#343 = FILL_AREA_STYLE_COLOUR ( '', #275 ) ;
#344 = EDGE_CURVE ( 'NONE', #241, #137, #320, .T. ) ;
#345 = CARTESIAN_POINT ( 'NONE',  ( 6.400000000000000355, 0.000000000000000000, 5.000000000000000000 ) ) ;
#346 = ORIENTED_EDGE ( 'NONE', *, *, #436, .F. ) ;
#347 = CARTESIAN_POINT ( 'NONE',  ( 0.000000000000000000, -0.8049999999999999378, 2.394999999999999130 ) ) ;
#348 = ORIENTED_EDGE ( 'NONE', *, *, #116, .T. ) ;
#349 = PRESENTATION_STYLE_ASSIGNMENT (( #30 ) ) ;
#350 = CARTESIAN_POINT ( 'NONE',  ( -0.2500000000000002220, -0.8049999999999999378, 2.395000000000000018 ) ) ;
#351 = DIRECTION ( 'NONE',  ( 1.000000000000000000, 0.000000000000000000, 0.000000000000000000 ) ) ;
#352 = EDGE_CURVE ( 'NONE', #137, #336, #16, .T. ) ;
#353 = PLANE ( 'NONE',  #48 ) ;
#354 = CARTESIAN_POINT ( 'NONE',  ( 3.200000000000000178, -0.8049999999999999378, 2.500000000000000000 ) ) ;
#355 = VECTOR ( 'NONE', #334, 100.0000000000000000 ) ;
#356 = VECTOR ( 'NONE', #284, 100.0000000000000000 ) ;
#357 = CARTESIAN_POINT ( 'NONE',  ( -0.2500000000000002220, -0.8049999999999999378, -3.469446951953614189E-16 ) ) ;
#358 = EDGE_CURVE ( 'NONE', #425, #21, #199, .T. ) ;
#359 =( NAMED_UNIT ( * ) PLANE_ANGLE_UNIT ( ) SI_UNIT ( $, .RADIAN. ) );
#360 = UNCERTAINTY_MEASURE_WITH_UNIT (LENGTH_MEASURE( 1.000000000000000082E-05 ), #293, 'distance_accuracy_value', 'NONE');
#361 = ORIENTED_EDGE ( 'NONE', *, *, #68, .F. ) ;
#362 = VECTOR ( 'NONE', #413, 100.0000000000000000 ) ;
#363 = FACE_OUTER_BOUND ( 'NONE', #159, .T. ) ;
#364 = VECTOR ( 'NONE', #387, 100.0000000000000000 ) ;
#365 = APPLICATION_CONTEXT ( 'automotive_design' ) ;
#366 = EDGE_LOOP ( 'NONE', ( #130, #257, #405, #460 ) ) ;
#367 = DIRECTION ( 'NONE',  ( -1.000000000000000000, 0.000000000000000000, -1.084202172485504434E-16 ) ) ;
#368 = EDGE_CURVE ( 'NONE', #303, #259, #263, .T. ) ;
#369 = LINE ( 'NONE', #415, #114 ) ;
#370 = ORIENTED_EDGE ( 'NONE', *, *, #385, .F. ) ;
#371 = CARTESIAN_POINT ( 'NONE',  ( 7.032798186863919554, -0.3950000000000000178, 2.325160637423529408 ) ) ;
#372 = VECTOR ( 'NONE', #1, 100.0000000000000000 ) ;
#373 = LINE ( 'NONE', #345, #248 ) ;
#374 = ORIENTED_EDGE ( 'NONE', *, *, #255, .F. ) ;
#375 = CARTESIAN_POINT ( 'NONE',  ( 7.832871382329281928, -0.8049999999999999378, -3.469446951953614189E-16 ) ) ;
#376 = EDGE_CURVE ( 'NONE', #442, #410, #269, .T. ) ;
#377 = DIRECTION ( 'NONE',  ( 1.000000000000000000, 0.000000000000000000, 0.000000000000000000 ) ) ;
#378 = ORIENTED_EDGE ( 'NONE', *, *, #197, .T. ) ;
#379 = CARTESIAN_POINT ( 'NONE',  ( -0.2500000000000002220, -0.8049999999999999378, -3.469446951953614189E-16 ) ) ;
#380 = SURFACE_SIDE_STYLE ('',( #250 ) ) ;
#381 = MECHANICAL_DESIGN_GEOMETRIC_PRESENTATION_REPRESENTATION (  '', ( #84 ), #42 ) ;
#382 = CARTESIAN_POINT ( 'NONE',  ( 7.185802733512919538, -0.3950000000000007394, 2.735160637423529106 ) ) ;
#383 = DIRECTION ( 'NONE',  ( 0.000000000000000000, 1.000000000000000000, 0.000000000000000000 ) ) ;
#384 = LINE ( 'NONE', #76, #356 ) ;
#385 = EDGE_CURVE ( 'NONE', #336, #171, #369, .T. ) ;
#386 = EDGE_LOOP ( 'NONE', ( #27, #103, #427, #457 ) ) ;
#387 = DIRECTION ( 'NONE',  ( 1.000000000000000000, -0.000000000000000000, -6.505213034913011813E-17 ) ) ;
#388 = CARTESIAN_POINT ( 'NONE',  ( 3.200000000000000178, -1.199999999999999956, 2.500000000000000000 ) ) ;
#389 = DIRECTION ( 'NONE',  ( -1.000000000000000000, 0.000000000000000000, -1.084202172485504434E-16 ) ) ;
#390 = LINE ( 'NONE', #101, #34 ) ;
#391 = CYLINDRICAL_SURFACE ( 'NONE', #438, 0.2049999999999999600 ) ;
#392 = ADVANCED_FACE ( 'NONE', ( #292 ), #58, .T. ) ;
#393 = LINE ( 'NONE', #122, #469 ) ;
#394 = CARTESIAN_POINT ( 'NONE',  ( 0.000000000000000000, 0.000000000000000000, 0.000000000000000000 ) ) ;
#395 = DIRECTION ( 'NONE',  ( -1.000000000000000000, 0.000000000000000000, 0.000000000000000000 ) ) ;
#396 = EDGE_CURVE ( 'NONE', #259, #137, #71, .T. ) ;
#397 = EDGE_CURVE ( 'NONE', #44, #237, #390, .T. ) ;
#398 = VECTOR ( 'NONE', #87, 100.0000000000000000 ) ;
#399 = CARTESIAN_POINT ( 'NONE',  ( 7.582871382329281928, -0.3949999999999996847, 0.000000000000000000 ) ) ;
#400 = ORIENTED_EDGE ( 'NONE', *, *, #290, .T. ) ;
#401 = DIRECTION ( 'NONE',  ( -1.000000000000000000, 0.000000000000000000, 1.279358563532894049E-15 ) ) ;
#402 = MANIFOLD_SOLID_BREP ( 'Fillet2', #461 ) ;
#403 = DIRECTION ( 'NONE',  ( 0.000000000000000000, -1.000000000000000000, 0.000000000000000000 ) ) ;
#404 = APPLICATION_PROTOCOL_DEFINITION ( 'draft international standard', 'automotive_design', 1998, #176 ) ;
#405 = ORIENTED_EDGE ( 'NONE', *, *, #168, .F. ) ;
#406 = EDGE_CURVE ( 'NONE', #271, #342, #215, .T. ) ;
#407 = VECTOR ( 'NONE', #149, 100.0000000000000000 ) ;
#408 = PLANE ( 'NONE',  #453 ) ;
#409 = EDGE_CURVE ( 'NONE', #342, #329, #458, .T. ) ;
#410 = VERTEX_POINT ( 'NONE', #431 ) ;
#411 = FACE_OUTER_BOUND ( 'NONE', #285, .T. ) ;
#412 = EDGE_LOOP ( 'NONE', ( #302, #400, #88, #128 ) ) ;
#413 = DIRECTION ( 'NONE',  ( -1.000000000000000000, 0.000000000000000000, 0.000000000000000000 ) ) ;
#414 = ORIENTED_EDGE ( 'NONE', *, *, #465, .T. ) ;
#415 = CARTESIAN_POINT ( 'NONE',  ( 0.000000000000000000, -1.199999999999999956, 0.000000000000000000 ) ) ;
#416 = DIRECTION ( 'NONE',  ( 0.2302195854387928675, 0.000000000000000000, -0.9731387067013572700 ) ) ;
#417 = EDGE_CURVE ( 'NONE', #241, #210, #36, .T. ) ;
#418 = ORIENTED_EDGE ( 'NONE', *, *, #313, .T. ) ;
#419 = DIRECTION ( 'NONE',  ( 0.2302195854387928675, 0.000000000000000000, -0.9731387067013572700 ) ) ;
#420 = ORIENTED_EDGE ( 'NONE', *, *, #290, .F. ) ;
#421 = LINE ( 'NONE', #456, #47 ) ;
#422 = CARTESIAN_POINT ( 'NONE',  ( -0.2500000000000002220, -0.3950000000000000178, 2.395000000000000018 ) ) ;
#423 = DIRECTION ( 'NONE',  ( -0.2302195854387927842, 0.000000000000000000, 0.9731387067013572700 ) ) ;
#424 = EDGE_LOOP ( 'NONE', ( #463, #418, #346, #203 ) ) ;
#425 = VERTEX_POINT ( 'NONE', #399 ) ;
#426 = PRODUCT ( 'ramp-wall-upper', 'ramp-wall-upper', '', ( #258 ) ) ;
#427 = ORIENTED_EDGE ( 'NONE', *, *, #368, .F. ) ;
#428 = CARTESIAN_POINT ( 'NONE',  ( 0.000000000000000000, -0.8049999999999999378, 0.000000000000000000 ) ) ;
#429 = CARTESIAN_POINT ( 'NONE',  ( -0.2500000000000002220, -0.5999999999999999778, 2.395000000000000018 ) ) ;
#430 = PLANE ( 'NONE',  #333 ) ;
#431 = CARTESIAN_POINT ( 'NONE',  ( 7.832871382329281928, -0.3950000000000000178, -3.469446951953614189E-16 ) ) ;
#432 = CARTESIAN_POINT ( 'NONE',  ( -0.2500000000000002220, -0.3950000000000000178, 2.395000000000000018 ) ) ;
#433 = VECTOR ( 'NONE', #401, 100.0000000000000000 ) ;
#434 = VECTOR ( 'NONE', #324, 100.0000000000000000 ) ;
#435 = CARTESIAN_POINT ( 'NONE',  ( 6.400000000000000355, 0.000000000000000000, 5.000000000000000000 ) ) ;
#436 = EDGE_CURVE ( 'NONE', #447, #205, #393, .T. ) ;
#437 = FILL_AREA_STYLE_COLOUR ( '', #261 ) ;
#438 = AXIS2_PLACEMENT_3D ( 'NONE', #468, #146, #464 ) ;
#439 =( BOUNDED_CURVE ( )  B_SPLINE_CURVE ( 3, ( #204, #382, #178, #338 ),
 .UNSPECIFIED., .F., .T. ) 
 B_SPLINE_CURVE_WITH_KNOTS ( ( 4, 4 ),
 ( 1.570796326794898112, 4.712388980384687898 ),
 .UNSPECIFIED. ) 
 CURVE ( )  GEOMETRIC_REPRESENTATION_ITEM ( )  RATIONAL_B_SPLINE_CURVE ( ( 1.000000000000000000, 0.3333333333333345916, 0.3333333333333345916, 1.000000000000000000 ) ) 
 REPRESENTATION_ITEM ( '' )  );
#440 = DIRECTION ( 'NONE',  ( 0.000000000000000000, 1.000000000000000000, -0.000000000000000000 ) ) ;
#441 = ORIENTED_EDGE ( 'NONE', *, *, #450, .F. ) ;
#442 = VERTEX_POINT ( 'NONE', #195 ) ;
#443 = DIRECTION ( 'NONE',  ( 0.000000000000000000, 0.000000000000000000, 1.000000000000000000 ) ) ;
#444 = ORIENTED_EDGE ( 'NONE', *, *, #8, .F. ) ;
#445 = VECTOR ( 'NONE', #37, 100.0000000000000000 ) ;
#446 = CARTESIAN_POINT ( 'NONE',  ( 3.200000000000000178, -0.8049999999999999378, 2.325160637423530297 ) ) ;
#447 = VERTEX_POINT ( 'NONE', #77 ) ;
#448 = ADVANCED_FACE ( 'NONE', ( #189 ), #39, .T. ) ;
#449 = DIRECTION ( 'NONE',  ( -1.000000000000000000, -0.000000000000000000, -1.084202172485504434E-16 ) ) ;
#450 = EDGE_CURVE ( 'NONE', #329, #210, #51, .T. ) ;
#451 = CARTESIAN_POINT ( 'NONE',  ( -0.2500000000000002220, -0.3950000000000000178, -3.469446951953614189E-16 ) ) ;
#452 = PLANE ( 'NONE',  #80 ) ;
#453 = AXIS2_PLACEMENT_3D ( 'NONE', #120, #260, #335 ) ;
#454 = FACE_OUTER_BOUND ( 'NONE', #99, .T. ) ;
#455 = ORIENTED_EDGE ( 'NONE', *, *, #150, .T. ) ;
#456 = CARTESIAN_POINT ( 'NONE',  ( 6.400000000000000355, -1.199999999999999956, 5.000000000000000000 ) ) ;
#457 = ORIENTED_EDGE ( 'NONE', *, *, #304, .F. ) ;
#458 = LINE ( 'NONE', #428, #174 ) ;
#459 = PLANE ( 'NONE',  #233 ) ;
#460 = ORIENTED_EDGE ( 'NONE', *, *, #68, .T. ) ;
#461 = CLOSED_SHELL ( 'NONE', ( #156, #311, #117, #448, #279, #265, #54, #392, #238, #298, #90, #277, #98, #306 ) ) ;
#462 = VECTOR ( 'NONE', #323, 100.0000000000000000 ) ;
#463 = ORIENTED_EDGE ( 'NONE', *, *, #105, .F. ) ;
#464 = DIRECTION ( 'NONE',  ( 0.000000000000000000, 0.000000000000000000, -1.000000000000000000 ) ) ;
#465 = EDGE_CURVE ( 'NONE', #410, #425, #3, .T. ) ;
#466 = DIRECTION ( 'NONE',  ( -0.000000000000000000, 1.000000000000000000, 0.000000000000000000 ) ) ;
#467 = VECTOR ( 'NONE', #308, 100.0000000000000000 ) ;
#468 = CARTESIAN_POINT ( 'NONE',  ( 7.032798186863919554, -0.5999999999999999778, 2.325160637423529408 ) ) ;
#469 = VECTOR ( 'NONE', #119, 100.0000000000000142 ) ;
#470 = SURFACE_STYLE_FILL_AREA ( #45 ) ;
ENDSEC;
END-ISO-10303-21;
