ISO-10303-21;
HEADER;
FILE_DESCRIPTION (( 'STEP AP214' ),
    '1' );
FILE_NAME ('ramp-wall-lower_61.STEP',
    '2026-06-16T01:09:11',
    ( '' ),
    ( '' ),
    'SwSTEP 2.0',
    'SolidWorks 2023',
    '' );
FILE_SCHEMA (( 'AUTOMOTIVE_DESIGN' ));
ENDSEC;

DATA;
#1 = DIRECTION ( 'NONE',  ( -2.465190328815661892E-32, 0.000000000000000000, 1.000000000000000000 ) ) ;
#2 = ORIENTED_EDGE ( 'NONE', *, *, #69, .T. ) ;
#3 = PLANE ( 'NONE',  #15 ) ;
#4 = DIRECTION ( 'NONE',  ( 0.000000000000000000, 1.000000000000000000, 0.000000000000000000 ) ) ;
#5 = EDGE_CURVE ( 'NONE', #75, #145, #212, .T. ) ;
#6 = CARTESIAN_POINT ( 'NONE',  ( 0.000000000000000000, 0.000000000000000000, 0.000000000000000000 ) ) ;
#7 = CARTESIAN_POINT ( 'NONE',  ( -26.00442839046255727, 1.199999999999999956, -6.211122400498121365 ) ) ;
#8 = DIRECTION ( 'NONE',  ( 0.000000000000000000, 0.000000000000000000, -1.000000000000000000 ) ) ;
#9 = DIRECTION ( 'NONE',  ( 0.000000000000000000, -1.000000000000000000, 0.000000000000000000 ) ) ;
#10 = CARTESIAN_POINT ( 'NONE',  ( 0.000000000000000000, 0.000000000000000000, 5.000000000000000000 ) ) ;
#11 = EDGE_CURVE ( 'NONE', #27, #73, #36, .T. ) ;
#12 = DIRECTION ( 'NONE',  ( 1.000000000000000000, 0.000000000000000000, 1.272130549049658700E-16 ) ) ;
#13 = DIRECTION ( 'NONE',  ( -2.449761618368254527E-15, -1.000000000000000000, 0.000000000000000000 ) ) ;
#14 = ORIENTED_EDGE ( 'NONE', *, *, #441, .T. ) ;
#15 = AXIS2_PLACEMENT_3D ( 'NONE', #160, #370, #250 ) ;
#16 = DIRECTION ( 'NONE',  ( 1.000000000000000000, 0.000000000000000000, 0.000000000000000000 ) ) ;
#17 = VERTEX_POINT ( 'NONE', #526 ) ;
#18 = ADVANCED_FACE ( 'NONE', ( #35 ), #157, .F. ) ;
#19 = APPLICATION_PROTOCOL_DEFINITION ( 'draft international standard', 'automotive_design', 1998, #49 ) ;
#20 = DIRECTION ( 'NONE',  ( 1.000000000000000000, 0.000000000000000000, 0.000000000000000000 ) ) ;
#21 = ORIENTED_EDGE ( 'NONE', *, *, #375, .F. ) ;
#22 = DIRECTION ( 'NONE',  ( 1.000000000000000000, 0.000000000000000000, 1.272130549049658700E-16 ) ) ;
#23 = CARTESIAN_POINT ( 'NONE',  ( 0.000000000000000000, 0.3950000000000000178, 0.000000000000000000 ) ) ;
#24 = ORIENTED_EDGE ( 'NONE', *, *, #61, .T. ) ;
#25 =( GEOMETRIC_REPRESENTATION_CONTEXT ( 3 ) GLOBAL_UNCERTAINTY_ASSIGNED_CONTEXT ( ( #171 ) ) GLOBAL_UNIT_ASSIGNED_CONTEXT ( ( #509, #294, #380 ) ) REPRESENTATION_CONTEXT ( 'NONE', 'WORKASPACE' ) );
#26 =( NAMED_UNIT ( * ) PLANE_ANGLE_UNIT ( ) SI_UNIT ( $, .RADIAN. ) );
#27 = VERTEX_POINT ( 'NONE', #455 ) ;
#28 = PLANE ( 'NONE',  #371 ) ;
#29 = ADVANCED_FACE ( 'NONE', ( #330 ), #333, .F. ) ;
#30 = ORIENTED_EDGE ( 'NONE', *, *, #232, .T. ) ;
#31 = VECTOR ( 'NONE', #267, 100.0000000000000000 ) ;
#32 = LINE ( 'NONE', #192, #298 ) ;
#33 = EDGE_LOOP ( 'NONE', ( #491, #218, #198, #399 ) ) ;
#34 = DIRECTION ( 'NONE',  ( 1.272130549049658700E-16, 0.000000000000000000, -1.000000000000000000 ) ) ;
#35 = FACE_OUTER_BOUND ( 'NONE', #33, .T. ) ;
#36 = CIRCLE ( 'NONE', #54, 0.3049999999999990496 ) ;
#37 = DIRECTION ( 'NONE',  ( 1.000000000000000000, 0.000000000000000000, 0.000000000000000000 ) ) ;
#38 = VERTEX_POINT ( 'NONE', #453 ) ;
#39 = CYLINDRICAL_SURFACE ( 'NONE', #141, 0.3049999999999990496 ) ;
#40 = ORIENTED_EDGE ( 'NONE', *, *, #168, .F. ) ;
#41 = DIRECTION ( 'NONE',  ( -2.262257333030263515E-15, 0.000000000000000000, 1.000000000000000000 ) ) ;
#42 = AXIS2_PLACEMENT_3D ( 'NONE', #214, #165, #12 ) ;
#43 = LINE ( 'NONE', #331, #416 ) ;
#44 = FACE_OUTER_BOUND ( 'NONE', #383, .T. ) ;
#45 = ADVANCED_FACE ( 'NONE', ( #203 ), #367, .F. ) ;
#46 = VECTOR ( 'NONE', #20, 100.0000000000000000 ) ;
#47 = VECTOR ( 'NONE', #34, 100.0000000000000000 ) ;
#48 = FACE_OUTER_BOUND ( 'NONE', #396, .T. ) ;
#49 = APPLICATION_CONTEXT ( 'automotive_design' ) ;
#50 = PRESENTATION_STYLE_ASSIGNMENT (( #90 ) ) ;
#51 = SURFACE_SIDE_STYLE ('',( #287 ) ) ;
#52 = ORIENTED_EDGE ( 'NONE', *, *, #206, .F. ) ;
#53 = ADVANCED_FACE ( 'NONE', ( #48 ), #328, .F. ) ;
#54 = AXIS2_PLACEMENT_3D ( 'NONE', #486, #272, #445 ) ;
#55 = CARTESIAN_POINT ( 'NONE',  ( -0.8950000000000013500, 0.5999999999999999778, 3.100000000000000533 ) ) ;
#56 = CARTESIAN_POINT ( 'NONE',  ( -2.395000000000002682, 0.5999999999999999778, 3.100000000000000089 ) ) ;
#57 = ORIENTED_EDGE ( 'NONE', *, *, #199, .F. ) ;
#58 = VECTOR ( 'NONE', #465, 100.0000000000000000 ) ;
#59 =( NAMED_UNIT ( * ) SI_UNIT ( $, .STERADIAN. ) SOLID_ANGLE_UNIT ( ) );
#60 = CARTESIAN_POINT ( 'NONE',  ( 0.2499999999999946709, 0.5999999999999999778, 2.395000000000004015 ) ) ;
#61 = EDGE_CURVE ( 'NONE', #436, #314, #228, .T. ) ;
#62 = ORIENTED_EDGE ( 'NONE', *, *, #349, .F. ) ;
#63 = CARTESIAN_POINT ( 'NONE',  ( -0.8950000000000013500, 0.5999999999999999778, 5.000000000000000000 ) ) ;
#64 = ORIENTED_EDGE ( 'NONE', *, *, #253, .T. ) ;
#65 = VECTOR ( 'NONE', #180, 100.0000000000000000 ) ;
#66 = DIRECTION ( 'NONE',  ( 1.000000000000000000, 0.000000000000000000, 0.000000000000000000 ) ) ;
#67 = VERTEX_POINT ( 'NONE', #458 ) ;
#68 = ORIENTED_EDGE ( 'NONE', *, *, #315, .T. ) ;
#69 = EDGE_CURVE ( 'NONE', #256, #311, #502, .T. ) ;
#70 = VECTOR ( 'NONE', #321, 100.0000000000000000 ) ;
#71 = CARTESIAN_POINT ( 'NONE',  ( 0.2499999999999946709, 0.3950000000000000178, 3.816391647148975608E-15 ) ) ;
#72 = VECTOR ( 'NONE', #4, 100.0000000000000000 ) ;
#73 = VERTEX_POINT ( 'NONE', #496 ) ;
#74 = FACE_OUTER_BOUND ( 'NONE', #521, .T. ) ;
#75 = VERTEX_POINT ( 'NONE', #377 ) ;
#76 = VECTOR ( 'NONE', #490, 100.0000000000000142 ) ;
#77 = LINE ( 'NONE', #234, #47 ) ;
#78 = ORIENTED_EDGE ( 'NONE', *, *, #368, .F. ) ;
#79 = ADVANCED_FACE ( 'NONE', ( #130 ), #332, .T. ) ;
#80 = FACE_BOUND ( 'NONE', #265, .T. ) ;
#81 = EDGE_LOOP ( 'NONE', ( #353, #461, #303, #143 ) ) ;
#82 = FACE_OUTER_BOUND ( 'NONE', #320, .T. ) ;
#83 = ORIENTED_EDGE ( 'NONE', *, *, #216, .F. ) ;
#84 = FACE_OUTER_BOUND ( 'NONE', #402, .T. ) ;
#85 = DIRECTION ( 'NONE',  ( 1.000000000000000000, 0.000000000000000000, 0.000000000000000000 ) ) ;
#86 = EDGE_CURVE ( 'NONE', #437, #341, #414, .T. ) ;
#87 = DIRECTION ( 'NONE',  ( 1.272130549049658700E-16, 0.000000000000000000, -1.000000000000000000 ) ) ;
#88 = CARTESIAN_POINT ( 'NONE',  ( -2.395000000000002682, 0.5999999999999999778, 3.100000000000000089 ) ) ;
#89 = VECTOR ( 'NONE', #454, 100.0000000000000000 ) ;
#90 = SURFACE_STYLE_USAGE ( .BOTH. , #456 ) ;
#91 = CARTESIAN_POINT ( 'NONE',  ( -27.53536453439562948, 0.000000000000000000, 0.2601481315458259447 ) ) ;
#92 = AXIS2_PLACEMENT_3D ( 'NONE', #138, #514, #144 ) ;
#93 = CARTESIAN_POINT ( 'NONE',  ( 0.2499999999999946709, 0.8049999999999999378, 3.816391647148975608E-15 ) ) ;
#94 = DIRECTION ( 'NONE',  ( 0.000000000000000000, 1.000000000000000000, 0.000000000000000000 ) ) ;
#95 = PRODUCT_RELATED_PRODUCT_CATEGORY ( 'part', '', ( #430 ) ) ;
#96 = CARTESIAN_POINT ( 'NONE',  ( -5.551115123125782702E-15, 0.3950000000000000178, 2.395000000000004015 ) ) ;
#97 = PLANE ( 'NONE',  #92 ) ;
#98 = CIRCLE ( 'NONE', #207, 0.3049999999999991052 ) ;
#99 = DIRECTION ( 'NONE',  ( 0.000000000000000000, 0.000000000000000000, 1.000000000000000000 ) ) ;
#100 = ORIENTED_EDGE ( 'NONE', *, *, #408, .F. ) ;
#101 = CARTESIAN_POINT ( 'NONE',  ( 0.000000000000000000, 0.8049999999999999378, 0.000000000000000000 ) ) ;
#102 = VERTEX_POINT ( 'NONE', #504 ) ;
#103 = APPLICATION_CONTEXT ( 'automotive_design' ) ;
#104 = ORIENTED_EDGE ( 'NONE', *, *, #86, .F. ) ;
#105 = LINE ( 'NONE', #262, #359 ) ;
#106 = ORIENTED_EDGE ( 'NONE', *, *, #168, .T. ) ;
#107 = ADVANCED_FACE ( 'NONE', ( #167 ), #503, .F. ) ;
#108 = DIRECTION ( 'NONE',  ( -0.2302195854387860119, 0.000000000000000000, 0.9731387067013588243 ) ) ;
#109 = ORIENTED_EDGE ( 'NONE', *, *, #466, .F. ) ;
#110 = LINE ( 'NONE', #116, #76 ) ;
#111 = AXIS2_PLACEMENT_3D ( 'NONE', #173, #282, #85 ) ;
#112 = VERTEX_POINT ( 'NONE', #251 ) ;
#113 = EDGE_CURVE ( 'NONE', #150, #112, #135, .T. ) ;
#114 = DIRECTION ( 'NONE',  ( 1.000000000000000000, 0.000000000000000000, 1.272130549049658700E-16 ) ) ;
#115 = ORIENTED_EDGE ( 'NONE', *, *, #451, .T. ) ;
#116 = CARTESIAN_POINT ( 'NONE',  ( -7.500000000000000000, 0.000000000000000000, 5.000000000000002665 ) ) ;
#117 = VERTEX_POINT ( 'NONE', #91 ) ;
#118 = LINE ( 'NONE', #313, #31 ) ;
#119 = ORIENTED_EDGE ( 'NONE', *, *, #113, .T. ) ;
#120 = CARTESIAN_POINT ( 'NONE',  ( -1.200000000000001066, 0.5999999999999999778, 3.100000000000000533 ) ) ;
#121 = EDGE_LOOP ( 'NONE', ( #450, #480, #494, #100, #104, #394, #2, #379 ) ) ;
#122 = AXIS2_PLACEMENT_3D ( 'NONE', #264, #307, #156 ) ;
#123 = ADVANCED_FACE ( 'NONE', ( #44 ), #205, .T. ) ;
#124 = DIRECTION ( 'NONE',  ( 0.000000000000000000, -1.000000000000000000, 0.000000000000000000 ) ) ;
#125 = CARTESIAN_POINT ( 'NONE',  ( 0.2499999999999946709, 0.3950000000000000178, 3.816391647148975608E-15 ) ) ;
#126 = MANIFOLD_SOLID_BREP ( 'Cut-Extrude3', #474 ) ;
#127 = CARTESIAN_POINT ( 'NONE',  ( -0.8950000000000013500, 0.5999999999999999778, 3.100000000000000533 ) ) ;
#128 = CARTESIAN_POINT ( 'NONE',  ( -0.5900000000000016342, 0.5999999999999999778, 3.100000000000000533 ) ) ;
#129 = EDGE_CURVE ( 'NONE', #17, #201, #435, .T. ) ;
#130 = FACE_OUTER_BOUND ( 'NONE', #121, .T. ) ;
#131 = AXIS2_PLACEMENT_3D ( 'NONE', #510, #336, #16 ) ;
#132 =( NAMED_UNIT ( * ) SI_UNIT ( $, .STERADIAN. ) SOLID_ANGLE_UNIT ( ) );
#133 = DIRECTION ( 'NONE',  ( 0.000000000000000000, 0.000000000000000000, 1.000000000000000000 ) ) ;
#134 = SHAPE_DEFINITION_REPRESENTATION ( #334, #433 ) ;
#135 = LINE ( 'NONE', #410, #440 ) ;
#136 = CIRCLE ( 'NONE', #393, 0.2049999999999999600 ) ;
#137 = VECTOR ( 'NONE', #94, 100.0000000000000000 ) ;
#138 = CARTESIAN_POINT ( 'NONE',  ( -0.8950000000000013500, 0.5999999999999999778, 3.100000000000000533 ) ) ;
#139 = ORIENTED_EDGE ( 'NONE', *, *, #427, .F. ) ;
#140 = EDGE_CURVE ( 'NONE', #73, #27, #290, .T. ) ;
#141 = AXIS2_PLACEMENT_3D ( 'NONE', #200, #444, #362 ) ;
#142 = DIRECTION ( 'NONE',  ( -2.465190328815661892E-32, 0.000000000000000000, 1.000000000000000000 ) ) ;
#143 = ORIENTED_EDGE ( 'NONE', *, *, #184, .T. ) ;
#144 = DIRECTION ( 'NONE',  ( 1.000000000000000000, 0.000000000000000000, 2.465190328815661892E-32 ) ) ;
#145 = VERTEX_POINT ( 'NONE', #389 ) ;
#146 = DIRECTION ( 'NONE',  ( -1.000000000000000000, -0.000000000000000000, -1.539277964350119435E-14 ) ) ;
#147 = ORIENTED_EDGE ( 'NONE', *, *, #153, .T. ) ;
#148 = VECTOR ( 'NONE', #305, 100.0000000000000000 ) ;
#149 = CARTESIAN_POINT ( 'NONE',  ( -15.00000000000000178, 0.8049999999999999378, 2.499999999999998224 ) ) ;
#150 = VERTEX_POINT ( 'NONE', #101 ) ;
#151 = CYLINDRICAL_SURFACE ( 'NONE', #324, 0.2049999999999999600 ) ;
#152 = ORIENTED_EDGE ( 'NONE', *, *, #232, .F. ) ;
#153 = EDGE_CURVE ( 'NONE', #201, #150, #477, .T. ) ;
#154 = CARTESIAN_POINT ( 'NONE',  ( 0.000000000000000000, 1.199999999999999956, 5.000000000000000000 ) ) ;
#155 = DIRECTION ( 'NONE',  ( 1.000000000000000000, 0.000000000000000000, 0.000000000000000000 ) ) ;
#156 = DIRECTION ( 'NONE',  ( 1.000000000000000000, 0.000000000000000000, 2.465190328815661892E-32 ) ) ;
#157 = CYLINDRICAL_SURFACE ( 'NONE', #304, 0.3049999999999990496 ) ;
#158 = CARTESIAN_POINT ( 'NONE',  ( -26.00442839046256438, 0.000000000000000000, -6.211122400498123142 ) ) ;
#159 = ORIENTED_EDGE ( 'NONE', *, *, #408, .T. ) ;
#160 = CARTESIAN_POINT ( 'NONE',  ( -15.00000000000000178, 0.3950000000000000178, 2.499999999999998224 ) ) ;
#161 = AXIS2_PLACEMENT_3D ( 'NONE', #55, #1, #323 ) ;
#162 = ORIENTED_EDGE ( 'NONE', *, *, #253, .F. ) ;
#163 = EDGE_CURVE ( 'NONE', #27, #75, #105, .T. ) ;
#164 = CARTESIAN_POINT ( 'NONE',  ( 0.000000000000000000, 1.199999999999999956, 0.000000000000000000 ) ) ;
#165 = DIRECTION ( 'NONE',  ( -0.000000000000000000, 1.000000000000000000, 0.000000000000000000 ) ) ;
#166 = CARTESIAN_POINT ( 'NONE',  ( -27.53536453439562237, 1.199999999999999956, 0.2601481315458259447 ) ) ;
#167 = FACE_OUTER_BOUND ( 'NONE', #259, .T. ) ;
#168 = EDGE_CURVE ( 'NONE', #233, #437, #300, .T. ) ;
#169 = LINE ( 'NONE', #329, #464 ) ;
#170 = DIRECTION ( 'NONE',  ( 1.000000000000000000, 0.000000000000000000, 0.000000000000000000 ) ) ;
#171 = UNCERTAINTY_MEASURE_WITH_UNIT (LENGTH_MEASURE( 1.000000000000000082E-05 ), #509, 'distance_accuracy_value', 'NONE');
#172 = DIRECTION ( 'NONE',  ( -2.465190328815661892E-32, 0.000000000000000000, 1.000000000000000000 ) ) ;
#173 = CARTESIAN_POINT ( 'NONE',  ( -0.8950000000000013500, 0.5999999999999999778, 3.100000000000000533 ) ) ;
#174 = CARTESIAN_POINT ( 'NONE',  ( 0.000000000000000000, 0.8049999999999999378, 0.000000000000000000 ) ) ;
#175 = EDGE_CURVE ( 'NONE', #17, #311, #187, .T. ) ;
#176 = ORIENTED_EDGE ( 'NONE', *, *, #513, .T. ) ;
#177 = COLOUR_RGB ( '',0.6941176470588235059, 0.09803921568627450844, 0.09803921568627450844 ) ;
#178 = COLOUR_RGB ( '',1.000000000000000000, 1.000000000000000000, 1.000000000000000000 ) ;
#179 = CARTESIAN_POINT ( 'NONE',  ( -0.1500000000000000222, 0.006000000000000000125, 0.02499999999999998404 ) ) ;
#180 = DIRECTION ( 'NONE',  ( -1.000000000000000000, -0.000000000000000000, -1.539277964350119435E-14 ) ) ;
#181 = ORIENTED_EDGE ( 'NONE', *, *, #513, .F. ) ;
#182 = CARTESIAN_POINT ( 'NONE',  ( 0.000000000000000000, 0.000000000000000000, 0.000000000000000000 ) ) ;
#183 = ORIENTED_EDGE ( 'NONE', *, *, #492, .F. ) ;
#184 = EDGE_CURVE ( 'NONE', #145, #75, #487, .T. ) ;
#185 = CARTESIAN_POINT ( 'NONE',  ( 0.000000000000000000, 0.3950000000000000178, 0.000000000000000000 ) ) ;
#186 = ORIENTED_EDGE ( 'NONE', *, *, #375, .T. ) ;
#187 = LINE ( 'NONE', #23, #65 ) ;
#188 = EDGE_LOOP ( 'NONE', ( #322, #226 ) ) ;
#189 = VECTOR ( 'NONE', #340, 100.0000000000000000 ) ;
#190 = CARTESIAN_POINT ( 'NONE',  ( 0.000000000000000000, 1.199999999999999956, 5.000000000000000000 ) ) ;
#191 = ORIENTED_EDGE ( 'NONE', *, *, #368, .T. ) ;
#192 = CARTESIAN_POINT ( 'NONE',  ( -27.53536453439562237, 1.199999999999999956, 0.2601481315458259447 ) ) ;
#193 = VERTEX_POINT ( 'NONE', #254 ) ;
#194 = DIRECTION ( 'NONE',  ( 1.000000000000000000, 0.000000000000000000, 2.139492287038061508E-16 ) ) ;
#195 = EDGE_LOOP ( 'NONE', ( #119, #469, #14, #147 ) ) ;
#196 = DIRECTION ( 'NONE',  ( 1.000000000000000000, 0.000000000000000000, 0.000000000000000000 ) ) ;
#197 = VECTOR ( 'NONE', #260, 100.0000000000000000 ) ;
#198 = ORIENTED_EDGE ( 'NONE', *, *, #5, .T. ) ;
#199 = EDGE_CURVE ( 'NONE', #311, #434, #348, .T. ) ;
#200 = CARTESIAN_POINT ( 'NONE',  ( -2.395000000000002682, 0.5999999999999999778, 3.100000000000000089 ) ) ;
#201 = VERTEX_POINT ( 'NONE', #219 ) ;
#202 = CARTESIAN_POINT ( 'NONE',  ( -7.500000000000000000, 1.199999999999999956, 5.000000000000002665 ) ) ;
#203 = FACE_OUTER_BOUND ( 'NONE', #471, .T. ) ;
#204 = CARTESIAN_POINT ( 'NONE',  ( 0.000000000000000000, 0.5999999999999999778, 2.395000000000003570 ) ) ;
#205 = PLANE ( 'NONE',  #338 ) ;
#206 = EDGE_CURVE ( 'NONE', #256, #358, #432, .T. ) ;
#207 = AXIS2_PLACEMENT_3D ( 'NONE', #63, #255, #221 ) ;
#208 = MECHANICAL_DESIGN_GEOMETRIC_PRESENTATION_REPRESENTATION (  '', ( #404 ), #343 ) ;
#209 = DIRECTION ( 'NONE',  ( 1.000000000000000000, 0.000000000000000000, 1.272130549049658700E-16 ) ) ;
#210 =( NAMED_UNIT ( * ) PLANE_ANGLE_UNIT ( ) SI_UNIT ( $, .RADIAN. ) );
#211 = CARTESIAN_POINT ( 'NONE',  ( 0.000000000000000000, 0.000000000000000000, 0.000000000000000000 ) ) ;
#212 = CIRCLE ( 'NONE', #501, 0.3049999999999990496 ) ;
#213 = LINE ( 'NONE', #493, #70 ) ;
#214 = CARTESIAN_POINT ( 'NONE',  ( -15.00000000000000178, 0.000000000000000000, 2.499999999999998224 ) ) ;
#215 = CIRCLE ( 'NONE', #519, 0.2049999999999999600 ) ;
#216 = EDGE_CURVE ( 'NONE', #436, #38, #344, .T. ) ;
#217 = DIRECTION ( 'NONE',  ( 0.000000000000000000, 0.000000000000000000, 1.000000000000000000 ) ) ;
#218 = ORIENTED_EDGE ( 'NONE', *, *, #163, .T. ) ;
#219 = CARTESIAN_POINT ( 'NONE',  ( 0.2499999999999946709, 0.8049999999999999378, 3.816391647148975608E-15 ) ) ;
#220 = EDGE_LOOP ( 'NONE', ( #280, #230, #78, #186 ) ) ;
#221 = DIRECTION ( 'NONE',  ( 1.000000000000000000, 0.000000000000000000, 0.000000000000000000 ) ) ;
#222 = ORIENTED_EDGE ( 'NONE', *, *, #505, .T. ) ;
#223 = EDGE_CURVE ( 'NONE', #67, #38, #387, .T. ) ;
#224 = VERTEX_POINT ( 'NONE', #425 ) ;
#225 = CARTESIAN_POINT ( 'NONE',  ( 0.2499999999999946709, 0.3950000000000000178, 3.816391647148975608E-15 ) ) ;
#226 = ORIENTED_EDGE ( 'NONE', *, *, #5, .F. ) ;
#227 = STYLED_ITEM ( 'NONE', ( #50 ), #527 ) ;
#228 = CIRCLE ( 'NONE', #285, 0.3049999999999991052 ) ;
#229 = CARTESIAN_POINT ( 'NONE',  ( 0.2499999999999946709, 0.5999999999999999778, 2.395000000000004015 ) ) ;
#230 = ORIENTED_EDGE ( 'NONE', *, *, #400, .F. ) ;
#231 = PLANE ( 'NONE',  #270 ) ;
#232 = EDGE_CURVE ( 'NONE', #297, #358, #378, .T. ) ;
#233 = VERTEX_POINT ( 'NONE', #470 ) ;
#234 = CARTESIAN_POINT ( 'NONE',  ( 0.000000000000000000, 1.199999999999999956, 5.000000000000000000 ) ) ;
#235 = ORIENTED_EDGE ( 'NONE', *, *, #451, .F. ) ;
#236 = DIRECTION ( 'NONE',  ( 0.000000000000000000, -1.000000000000000000, 0.000000000000000000 ) ) ;
#237 = ORIENTED_EDGE ( 'NONE', *, *, #484, .F. ) ;
#238 = ADVANCED_FACE ( 'NONE', ( #302 ), #97, .T. ) ;
#239 = CARTESIAN_POINT ( 'NONE',  ( -27.47382017840123325, 0.000000000000000000, -4.163336342344337027E-15 ) ) ;
#240 = ORIENTED_EDGE ( 'NONE', *, *, #400, .T. ) ;
#241 = LINE ( 'NONE', #164, #89 ) ;
#242 = CARTESIAN_POINT ( 'NONE',  ( 0.000000000000000000, 0.000000000000000000, 5.000000000000000000 ) ) ;
#243 = DIRECTION ( 'NONE',  ( -0.2302195854387860119, 0.000000000000000000, 0.9731387067013588243 ) ) ;
#244 = VECTOR ( 'NONE', #421, 100.0000000000000000 ) ;
#245 = EDGE_CURVE ( 'NONE', #73, #145, #296, .T. ) ;
#246 = SURFACE_STYLE_USAGE ( .BOTH. , #51 ) ;
#247 = DIRECTION ( 'NONE',  ( 0.9731387067013589354, -2.383957853025511309E-15, 0.2302195854387860396 ) ) ;
#248 = FACE_OUTER_BOUND ( 'NONE', #274, .T. ) ;
#249 = CARTESIAN_POINT ( 'NONE',  ( -15.00000000000000178, 1.199999999999999956, 2.499999999999998224 ) ) ;
#250 = DIRECTION ( 'NONE',  ( 1.000000000000000000, 0.000000000000000000, 1.272130549049658700E-16 ) ) ;
#251 = CARTESIAN_POINT ( 'NONE',  ( -5.551115123125782702E-15, 0.8049999999999999378, 2.395000000000004015 ) ) ;
#252 = AXIS2_PLACEMENT_3D ( 'NONE', #179, #388, #22 ) ;
#253 = EDGE_CURVE ( 'NONE', #38, #67, #98, .T. ) ;
#254 = CARTESIAN_POINT ( 'NONE',  ( 0.2499999999999946709, 0.3950000000000000178, 2.395000000000004015 ) ) ;
#255 = DIRECTION ( 'NONE',  ( -2.465190328815661892E-32, 0.000000000000000000, 1.000000000000000000 ) ) ;
#256 = VERTEX_POINT ( 'NONE', #428 ) ;
#257 = CARTESIAN_POINT ( 'NONE',  ( 0.000000000000000000, 0.000000000000000000, 5.000000000000000000 ) ) ;
#258 = EDGE_CURVE ( 'NONE', #102, #193, #215, .T. ) ;
#259 = EDGE_LOOP ( 'NONE', ( #191, #407, #52, #139, #40 ) ) ;
#260 = DIRECTION ( 'NONE',  ( -2.262257333030263515E-15, 0.000000000000000000, 1.000000000000000000 ) ) ;
#261 = ORIENTED_EDGE ( 'NONE', *, *, #505, .F. ) ;
#262 = CARTESIAN_POINT ( 'NONE',  ( -2.700000000000002398, 0.5999999999999999778, 3.100000000000000089 ) ) ;
#263 = ORIENTED_EDGE ( 'NONE', *, *, #61, .F. ) ;
#264 = CARTESIAN_POINT ( 'NONE',  ( -2.395000000000002682, 0.5999999999999999778, 3.100000000000000089 ) ) ;
#265 = EDGE_LOOP ( 'NONE', ( #162, #447 ) ) ;
#266 = AXIS2_PLACEMENT_3D ( 'NONE', #327, #8, #431 ) ;
#267 = DIRECTION ( 'NONE',  ( 0.000000000000000000, 1.000000000000000000, 0.000000000000000000 ) ) ;
#268 = ORIENTED_EDGE ( 'NONE', *, *, #466, .T. ) ;
#269 = VECTOR ( 'NONE', #146, 100.0000000000000000 ) ;
#270 = AXIS2_PLACEMENT_3D ( 'NONE', #485, #528, #319 ) ;
#271 = LINE ( 'NONE', #158, #426 ) ;
#272 = DIRECTION ( 'NONE',  ( -2.465190328815661892E-32, 0.000000000000000000, 1.000000000000000000 ) ) ;
#273 = DIRECTION ( 'NONE',  ( 1.000000000000000000, 0.000000000000000000, 2.139492287038061508E-16 ) ) ;
#274 = EDGE_LOOP ( 'NONE', ( #235, #439, #57, #318 ) ) ;
#275 = EDGE_CURVE ( 'NONE', #112, #102, #403, .T. ) ;
#276 = CARTESIAN_POINT ( 'NONE',  ( 0.000000000000000000, 0.000000000000000000, 5.000000000000000000 ) ) ;
#277 = ORIENTED_EDGE ( 'NONE', *, *, #129, .T. ) ;
#278 = DIRECTION ( 'NONE',  ( 0.000000000000000000, 0.000000000000000000, 1.000000000000000000 ) ) ;
#279 = AXIS2_PLACEMENT_3D ( 'NONE', #507, #142, #346 ) ;
#280 = ORIENTED_EDGE ( 'NONE', *, *, #418, .T. ) ;
#281 = DIRECTION ( 'NONE',  ( -0.9731387067013588243, 0.000000000000000000, -0.2302195854387859841 ) ) ;
#282 = DIRECTION ( 'NONE',  ( 0.000000000000000000, 0.000000000000000000, 1.000000000000000000 ) ) ;
#283 = FILL_AREA_STYLE_COLOUR ( '', #177 ) ;
#284 = DIRECTION ( 'NONE',  ( 0.000000000000000000, 0.000000000000000000, 1.000000000000000000 ) ) ;
#285 = AXIS2_PLACEMENT_3D ( 'NONE', #417, #172, #372 ) ;
#286 = LINE ( 'NONE', #93, #244 ) ;
#287 = SURFACE_STYLE_FILL_AREA ( #422 ) ;
#288 = AXIS2_PLACEMENT_3D ( 'NONE', #88, #392, #66 ) ;
#289 = UNCERTAINTY_MEASURE_WITH_UNIT (LENGTH_MEASURE( 1.000000000000000082E-05 ), #376, 'distance_accuracy_value', 'NONE');
#290 = CIRCLE ( 'NONE', #288, 0.3049999999999990496 ) ;
#291 = PLANE ( 'NONE',  #266 ) ;
#292 = DIRECTION ( 'NONE',  ( 0.2302195854387860119, 0.000000000000000000, -0.9731387067013588243 ) ) ;
#293 = ADVANCED_FACE ( 'NONE', ( #406 ), #231, .F. ) ;
#294 =( NAMED_UNIT ( * ) PLANE_ANGLE_UNIT ( ) SI_UNIT ( $, .RADIAN. ) );
#295 = PRESENTATION_LAYER_ASSIGNMENT (  '', '', ( #227 ) ) ;
#296 = LINE ( 'NONE', #467, #397 ) ;
#297 = VERTEX_POINT ( 'NONE', #446 ) ;
#298 = VECTOR ( 'NONE', #354, 100.0000000000000000 ) ;
#299 = ADVANCED_FACE ( 'NONE', ( #488 ), #28, .T. ) ;
#300 = LINE ( 'NONE', #257, #46 ) ;
#301 = ORIENTED_EDGE ( 'NONE', *, *, #497, .F. ) ;
#302 = FACE_OUTER_BOUND ( 'NONE', #361, .T. ) ;
#303 = ORIENTED_EDGE ( 'NONE', *, *, #245, .T. ) ;
#304 = AXIS2_PLACEMENT_3D ( 'NONE', #56, #133, #170 ) ;
#305 = DIRECTION ( 'NONE',  ( 0.000000000000000000, 1.000000000000000000, 0.000000000000000000 ) ) ;
#306 = ORIENTED_EDGE ( 'NONE', *, *, #175, .T. ) ;
#307 = DIRECTION ( 'NONE',  ( -2.465190328815661892E-32, 0.000000000000000000, 1.000000000000000000 ) ) ;
#308 = ORIENTED_EDGE ( 'NONE', *, *, #258, .F. ) ;
#309 = ADVANCED_FACE ( 'NONE', ( #357 ), #401, .T. ) ;
#310 = DIRECTION ( 'NONE',  ( -0.000000000000000000, 1.000000000000000000, 0.000000000000000000 ) ) ;
#311 = VERTEX_POINT ( 'NONE', #352 ) ;
#312 = CIRCLE ( 'NONE', #161, 0.3049999999999991052 ) ;
#313 = CARTESIAN_POINT ( 'NONE',  ( -7.500000000000000000, 0.000000000000000000, 5.000000000000002665 ) ) ;
#314 = VERTEX_POINT ( 'NONE', #438 ) ;
#315 = EDGE_CURVE ( 'NONE', #358, #117, #271, .T. ) ;
#316 = VECTOR ( 'NONE', #13, 100.0000000000000000 ) ;
#317 = PLANE ( 'NONE',  #468 ) ;
#318 = ORIENTED_EDGE ( 'NONE', *, *, #175, .F. ) ;
#319 = DIRECTION ( 'NONE',  ( -0.9731387067013588243, 0.000000000000000000, -0.2302195854387859841 ) ) ;
#320 = EDGE_LOOP ( 'NONE', ( #429, #386, #115, #277 ) ) ;
#321 = DIRECTION ( 'NONE',  ( -1.000000000000000000, 0.000000000000000000, -2.139492287038061508E-16 ) ) ;
#322 = ORIENTED_EDGE ( 'NONE', *, *, #184, .F. ) ;
#323 = DIRECTION ( 'NONE',  ( 1.000000000000000000, 0.000000000000000000, 0.000000000000000000 ) ) ;
#324 = AXIS2_PLACEMENT_3D ( 'NONE', #229, #273, #481 ) ;
#325 = DIRECTION ( 'NONE',  ( -0.000000000000000000, 1.000000000000000000, 0.000000000000000000 ) ) ;
#326 = ADVANCED_FACE ( 'NONE', ( #82 ), #525, .T. ) ;
#327 = CARTESIAN_POINT ( 'NONE',  ( 0.000000000000000000, 0.000000000000000000, 0.000000000000000000 ) ) ;
#328 = CYLINDRICAL_SURFACE ( 'NONE', #413, 0.3049999999999991052 ) ;
#329 = CARTESIAN_POINT ( 'NONE',  ( -26.00442839046255727, 1.199999999999999956, -6.211122400498121365 ) ) ;
#330 = FACE_OUTER_BOUND ( 'NONE', #347, .T. ) ;
#331 = CARTESIAN_POINT ( 'NONE',  ( 0.000000000000000000, 0.000000000000000000, 5.000000000000000000 ) ) ;
#332 = PLANE ( 'NONE',  #366 ) ;
#333 = PLANE ( 'NONE',  #476 ) ;
#334 = PRODUCT_DEFINITION_SHAPE ( 'NONE', 'NONE',  #339 ) ;
#335 = MECHANICAL_DESIGN_GEOMETRIC_PRESENTATION_REPRESENTATION (  '', ( #227 ), #506 ) ;
#336 = DIRECTION ( 'NONE',  ( -2.465190328815661892E-32, 0.000000000000000000, 1.000000000000000000 ) ) ;
#337 = ORIENTED_EDGE ( 'NONE', *, *, #223, .T. ) ;
#338 = AXIS2_PLACEMENT_3D ( 'NONE', #249, #325, #209 ) ;
#339 = PRODUCT_DEFINITION ( 'UNKNOWN', '', #369, #522 ) ;
#340 = DIRECTION ( 'NONE',  ( 0.000000000000000000, 0.000000000000000000, 1.000000000000000000 ) ) ;
#341 = VERTEX_POINT ( 'NONE', #190 ) ;
#342 = VECTOR ( 'NONE', #281, 100.0000000000000142 ) ;
#343 =( GEOMETRIC_REPRESENTATION_CONTEXT ( 3 ) GLOBAL_UNCERTAINTY_ASSIGNED_CONTEXT ( ( #374 ) ) GLOBAL_UNIT_ASSIGNED_CONTEXT ( ( #460, #26, #59 ) ) REPRESENTATION_CONTEXT ( 'NONE', 'WORKASPACE' ) );
#344 = LINE ( 'NONE', #517, #189 ) ;
#345 = ORIENTED_EDGE ( 'NONE', *, *, #349, .T. ) ;
#346 = DIRECTION ( 'NONE',  ( 1.000000000000000000, 0.000000000000000000, 0.000000000000000000 ) ) ;
#347 = EDGE_LOOP ( 'NONE', ( #30, #68, #240, #261 ) ) ;
#348 = LINE ( 'NONE', #185, #197 ) ;
#349 = EDGE_CURVE ( 'NONE', #224, #341, #395, .T. ) ;
#350 = ORIENTED_EDGE ( 'NONE', *, *, #129, .F. ) ;
#351 = VECTOR ( 'NONE', #194, 100.0000000000000000 ) ;
#352 = CARTESIAN_POINT ( 'NONE',  ( 0.000000000000000000, 0.3950000000000000178, 0.000000000000000000 ) ) ;
#353 = ORIENTED_EDGE ( 'NONE', *, *, #163, .F. ) ;
#354 = DIRECTION ( 'NONE',  ( 2.312964634635742267E-15, 1.000000000000000000, 5.782411586589359611E-16 ) ) ;
#355 = CARTESIAN_POINT ( 'NONE',  ( -2.395000000000002682, 0.5999999999999999778, 5.000000000000000000 ) ) ;
#356 = ADVANCED_FACE ( 'NONE', ( #74 ), #151, .T. ) ;
#357 = FACE_OUTER_BOUND ( 'NONE', #483, .T. ) ;
#358 = VERTEX_POINT ( 'NONE', #239 ) ;
#359 = VECTOR ( 'NONE', #217, 100.0000000000000000 ) ;
#360 = FACE_BOUND ( 'NONE', #188, .T. ) ;
#361 = EDGE_LOOP ( 'NONE', ( #24, #363 ) ) ;
#362 = DIRECTION ( 'NONE',  ( 1.000000000000000000, 0.000000000000000000, 0.000000000000000000 ) ) ;
#363 = ORIENTED_EDGE ( 'NONE', *, *, #484, .T. ) ;
#364 = VECTOR ( 'NONE', #452, 100.0000000000000000 ) ;
#365 = FILL_AREA_STYLE ('',( #283 ) ) ;
#366 = AXIS2_PLACEMENT_3D ( 'NONE', #10, #420, #124 ) ;
#367 = CYLINDRICAL_SURFACE ( 'NONE', #111, 0.3049999999999991052 ) ;
#368 = EDGE_CURVE ( 'NONE', #233, #117, #110, .T. ) ;
#369 = PRODUCT_DEFINITION_FORMATION_WITH_SPECIFIED_SOURCE ( 'ANY', '', #430, .NOT_KNOWN. ) ;
#370 = DIRECTION ( 'NONE',  ( -0.000000000000000000, 1.000000000000000000, 0.000000000000000000 ) ) ;
#371 = AXIS2_PLACEMENT_3D ( 'NONE', #149, #310, #114 ) ;
#372 = DIRECTION ( 'NONE',  ( 1.000000000000000000, 0.000000000000000000, 0.000000000000000000 ) ) ;
#373 = PRESENTATION_STYLE_ASSIGNMENT (( #246 ) ) ;
#374 = UNCERTAINTY_MEASURE_WITH_UNIT (LENGTH_MEASURE( 1.000000000000000082E-05 ), #460, 'distance_accuracy_value', 'NONE');
#375 = EDGE_CURVE ( 'NONE', #233, #224, #118, .T. ) ;
#376 =( LENGTH_UNIT ( ) NAMED_UNIT ( * ) SI_UNIT ( .CENTI., .METRE. ) );
#377 = CARTESIAN_POINT ( 'NONE',  ( -2.700000000000002398, 0.5999999999999999778, 5.000000000000000000 ) ) ;
#378 = LINE ( 'NONE', #472, #316 ) ;
#379 = ORIENTED_EDGE ( 'NONE', *, *, #199, .T. ) ;
#380 =( NAMED_UNIT ( * ) SI_UNIT ( $, .STERADIAN. ) SOLID_ANGLE_UNIT ( ) );
#381 = DIRECTION ( 'NONE',  ( 0.000000000000000000, -1.000000000000000000, 0.000000000000000000 ) ) ;
#382 = ADVANCED_FACE ( 'NONE', ( #80, #360, #442 ), #317, .T. ) ;
#383 = EDGE_LOOP ( 'NONE', ( #222, #516, #345, #159, #268 ) ) ;
#384 = PRODUCT_CONTEXT ( 'NONE', #49, 'mechanical' ) ;
#385 = DIRECTION ( 'NONE',  ( 1.000000000000000000, 0.000000000000000000, 1.272130549049658700E-16 ) ) ;
#386 = ORIENTED_EDGE ( 'NONE', *, *, #258, .T. ) ;
#387 = CIRCLE ( 'NONE', #279, 0.3049999999999991052 ) ;
#388 = DIRECTION ( 'NONE',  ( 0.000000000000000000, 1.000000000000000000, -0.000000000000000000 ) ) ;
#389 = CARTESIAN_POINT ( 'NONE',  ( -2.090000000000002967, 0.5999999999999999778, 5.000000000000000000 ) ) ;
#390 = ORIENTED_EDGE ( 'NONE', *, *, #457, .T. ) ;
#391 = ADVANCED_FACE ( 'NONE', ( #448 ), #39, .F. ) ;
#392 = DIRECTION ( 'NONE',  ( -2.465190328815661892E-32, 0.000000000000000000, 1.000000000000000000 ) ) ;
#393 = AXIS2_PLACEMENT_3D ( 'NONE', #204, #462, #9 ) ;
#394 = ORIENTED_EDGE ( 'NONE', *, *, #427, .T. ) ;
#395 = LINE ( 'NONE', #154, #495 ) ;
#396 = EDGE_LOOP ( 'NONE', ( #181, #263, #423, #64 ) ) ;
#397 = VECTOR ( 'NONE', #99, 100.0000000000000000 ) ;
#398 = DIRECTION ( 'NONE',  ( 0.000000000000000000, 0.000000000000000000, 1.000000000000000000 ) ) ;
#399 = ORIENTED_EDGE ( 'NONE', *, *, #245, .F. ) ;
#400 = EDGE_CURVE ( 'NONE', #117, #508, #32, .T. ) ;
#401 = PLANE ( 'NONE',  #122 ) ;
#402 = EDGE_LOOP ( 'NONE', ( #152, #109, #183, #518, #350, #306, #489, #529 ) ) ;
#403 = LINE ( 'NONE', #479, #351 ) ;
#404 = STYLED_ITEM ( 'NONE', ( #373 ), #126 ) ;
#405 = VERTEX_POINT ( 'NONE', #523 ) ;
#406 = FACE_OUTER_BOUND ( 'NONE', #220, .T. ) ;
#407 = ORIENTED_EDGE ( 'NONE', *, *, #315, .F. ) ;
#408 = EDGE_CURVE ( 'NONE', #341, #405, #77, .T. ) ;
#409 = LINE ( 'NONE', #120, #482 ) ;
#410 = CARTESIAN_POINT ( 'NONE',  ( 0.000000000000000000, 0.8049999999999999378, 0.000000000000000000 ) ) ;
#411 = VECTOR ( 'NONE', #498, 100.0000000000000000 ) ;
#412 = LINE ( 'NONE', #202, #342 ) ;
#413 = AXIS2_PLACEMENT_3D ( 'NONE', #127, #284, #499 ) ;
#414 = LINE ( 'NONE', #242, #137 ) ;
#415 = LINE ( 'NONE', #125, #364 ) ;
#416 = VECTOR ( 'NONE', #87, 100.0000000000000000 ) ;
#417 = CARTESIAN_POINT ( 'NONE',  ( -0.8950000000000013500, 0.5999999999999999778, 3.100000000000000533 ) ) ;
#418 = EDGE_CURVE ( 'NONE', #224, #508, #412, .T. ) ;
#419 = SURFACE_STYLE_FILL_AREA ( #365 ) ;
#420 = DIRECTION ( 'NONE',  ( 1.000000000000000000, 0.000000000000000000, 1.272130549049658700E-16 ) ) ;
#421 = DIRECTION ( 'NONE',  ( 1.272130549049658700E-16, -0.000000000000000000, -1.000000000000000000 ) ) ;
#422 = FILL_AREA_STYLE ('',( #463 ) ) ;
#423 = ORIENTED_EDGE ( 'NONE', *, *, #216, .T. ) ;
#424 = APPLICATION_PROTOCOL_DEFINITION ( 'draft international standard', 'automotive_design', 1998, #103 ) ;
#425 = CARTESIAN_POINT ( 'NONE',  ( -7.500000000000041744, 1.199999999999999956, 4.999999999999996447 ) ) ;
#426 = VECTOR ( 'NONE', #108, 100.0000000000000142 ) ;
#427 = EDGE_CURVE ( 'NONE', #437, #256, #43, .T. ) ;
#428 = CARTESIAN_POINT ( 'NONE',  ( 0.000000000000000000, 0.000000000000000000, 0.000000000000000000 ) ) ;
#429 = ORIENTED_EDGE ( 'NONE', *, *, #441, .F. ) ;
#430 = PRODUCT ( 'ramp-wall-lower_61', 'ramp-wall-lower_61', '', ( #384 ) ) ;
#431 = DIRECTION ( 'NONE',  ( -1.000000000000000000, 0.000000000000000000, 0.000000000000000000 ) ) ;
#432 = LINE ( 'NONE', #182, #58 ) ;
#433 = ADVANCED_BREP_SHAPE_REPRESENTATION ( 'ramp-wall-lower_61', ( #126, #252 ), #25 ) ;
#434 = VERTEX_POINT ( 'NONE', #96 ) ;
#435 = LINE ( 'NONE', #225, #148 ) ;
#436 = VERTEX_POINT ( 'NONE', #128 ) ;
#437 = VERTEX_POINT ( 'NONE', #459 ) ;
#438 = CARTESIAN_POINT ( 'NONE',  ( -1.200000000000001066, 0.5999999999999999778, 3.100000000000000533 ) ) ;
#439 = ORIENTED_EDGE ( 'NONE', *, *, #497, .T. ) ;
#440 = VECTOR ( 'NONE', #41, 100.0000000000000000 ) ;
#441 = EDGE_CURVE ( 'NONE', #102, #201, #286, .T. ) ;
#442 = FACE_OUTER_BOUND ( 'NONE', #475, .T. ) ;
#443 = ORIENTED_EDGE ( 'NONE', *, *, #140, .T. ) ;
#444 = DIRECTION ( 'NONE',  ( 0.000000000000000000, 0.000000000000000000, 1.000000000000000000 ) ) ;
#445 = DIRECTION ( 'NONE',  ( 1.000000000000000000, 0.000000000000000000, 0.000000000000000000 ) ) ;
#446 = CARTESIAN_POINT ( 'NONE',  ( -27.47382017840123325, 1.199999999999999956, -5.551115123125782702E-15 ) ) ;
#447 = ORIENTED_EDGE ( 'NONE', *, *, #223, .F. ) ;
#448 = FACE_OUTER_BOUND ( 'NONE', #81, .T. ) ;
#449 = PRESENTATION_LAYER_ASSIGNMENT (  '', '', ( #404 ) ) ;
#450 = ORIENTED_EDGE ( 'NONE', *, *, #457, .F. ) ;
#451 = EDGE_CURVE ( 'NONE', #193, #17, #415, .T. ) ;
#452 = DIRECTION ( 'NONE',  ( 1.272130549049658700E-16, -0.000000000000000000, -1.000000000000000000 ) ) ;
#453 = CARTESIAN_POINT ( 'NONE',  ( -0.5900000000000016342, 0.5999999999999999778, 5.000000000000000000 ) ) ;
#454 = DIRECTION ( 'NONE',  ( -1.000000000000000000, 0.000000000000000000, 0.000000000000000000 ) ) ;
#455 = CARTESIAN_POINT ( 'NONE',  ( -2.700000000000002398, 0.5999999999999999778, 3.100000000000000089 ) ) ;
#456 = SURFACE_SIDE_STYLE ('',( #419 ) ) ;
#457 = EDGE_CURVE ( 'NONE', #112, #434, #136, .T. ) ;
#458 = CARTESIAN_POINT ( 'NONE',  ( -1.200000000000001066, 0.5999999999999999778, 5.000000000000000000 ) ) ;
#459 = CARTESIAN_POINT ( 'NONE',  ( 0.000000000000000000, 0.000000000000000000, 5.000000000000000000 ) ) ;
#460 =( LENGTH_UNIT ( ) NAMED_UNIT ( * ) SI_UNIT ( .CENTI., .METRE. ) );
#461 = ORIENTED_EDGE ( 'NONE', *, *, #140, .F. ) ;
#462 = DIRECTION ( 'NONE',  ( 1.000000000000000000, 0.000000000000000000, 1.272130549049658700E-16 ) ) ;
#463 = FILL_AREA_STYLE_COLOUR ( '', #178 ) ;
#464 = VECTOR ( 'NONE', #243, 100.0000000000000142 ) ;
#465 = DIRECTION ( 'NONE',  ( -1.000000000000000000, 0.000000000000000000, 0.000000000000000000 ) ) ;
#466 = EDGE_CURVE ( 'NONE', #405, #297, #241, .T. ) ;
#467 = CARTESIAN_POINT ( 'NONE',  ( -2.090000000000002967, 0.5999999999999999778, 3.100000000000000533 ) ) ;
#468 = AXIS2_PLACEMENT_3D ( 'NONE', #276, #398, #196 ) ;
#469 = ORIENTED_EDGE ( 'NONE', *, *, #275, .T. ) ;
#470 = CARTESIAN_POINT ( 'NONE',  ( -7.500000000000000000, 0.000000000000000000, 5.000000000000002665 ) ) ;
#471 = EDGE_LOOP ( 'NONE', ( #237, #176, #337, #83 ) ) ;
#472 = CARTESIAN_POINT ( 'NONE',  ( -27.47382017840123680, 6.730727086790011526E-14, -3.469446951953614189E-16 ) ) ;
#473 = ADVANCED_FACE ( 'NONE', ( #248 ), #3, .F. ) ;
#474 = CLOSED_SHELL ( 'NONE', ( #45, #18, #356, #527, #79, #382, #107, #123, #326, #473, #299, #293, #391, #309, #53, #238, #29 ) ) ;
#475 = EDGE_LOOP ( 'NONE', ( #21, #106, #478, #62 ) ) ;
#476 = AXIS2_PLACEMENT_3D ( 'NONE', #7, #247, #292 ) ;
#477 = LINE ( 'NONE', #174, #269 ) ;
#478 = ORIENTED_EDGE ( 'NONE', *, *, #86, .T. ) ;
#479 = CARTESIAN_POINT ( 'NONE',  ( -15.00000000000000178, 0.8049999999999999378, 2.395000000000000462 ) ) ;
#480 = ORIENTED_EDGE ( 'NONE', *, *, #113, .F. ) ;
#481 = DIRECTION ( 'NONE',  ( 2.115516434118057955E-16, 0.000000000000000000, -1.000000000000000000 ) ) ;
#482 = VECTOR ( 'NONE', #278, 100.0000000000000000 ) ;
#483 = EDGE_LOOP ( 'NONE', ( #443, #515 ) ) ;
#484 = EDGE_CURVE ( 'NONE', #314, #436, #312, .T. ) ;
#485 = CARTESIAN_POINT ( 'NONE',  ( -7.500000000000000000, 0.000000000000000000, 5.000000000000002665 ) ) ;
#486 = CARTESIAN_POINT ( 'NONE',  ( -2.395000000000002682, 0.5999999999999999778, 3.100000000000000089 ) ) ;
#487 = CIRCLE ( 'NONE', #131, 0.3049999999999990496 ) ;
#488 = FACE_OUTER_BOUND ( 'NONE', #195, .T. ) ;
#489 = ORIENTED_EDGE ( 'NONE', *, *, #69, .F. ) ;
#490 = DIRECTION ( 'NONE',  ( -0.9731387067013588243, 0.000000000000000000, -0.2302195854387859841 ) ) ;
#491 = ORIENTED_EDGE ( 'NONE', *, *, #11, .F. ) ;
#492 = EDGE_CURVE ( 'NONE', #150, #405, #500, .T. ) ;
#493 = CARTESIAN_POINT ( 'NONE',  ( 0.2499999999999946709, 0.3950000000000000178, 2.395000000000004015 ) ) ;
#494 = ORIENTED_EDGE ( 'NONE', *, *, #492, .T. ) ;
#495 = VECTOR ( 'NONE', #37, 100.0000000000000000 ) ;
#496 = CARTESIAN_POINT ( 'NONE',  ( -2.090000000000002967, 0.5999999999999999778, 3.100000000000000533 ) ) ;
#497 = EDGE_CURVE ( 'NONE', #193, #434, #213, .T. ) ;
#498 = DIRECTION ( 'NONE',  ( 0.000000000000000000, 1.000000000000000000, 0.000000000000000000 ) ) ;
#499 = DIRECTION ( 'NONE',  ( 1.000000000000000000, 0.000000000000000000, 0.000000000000000000 ) ) ;
#500 = LINE ( 'NONE', #6, #411 ) ;
#501 = AXIS2_PLACEMENT_3D ( 'NONE', #355, #524, #155 ) ;
#502 = LINE ( 'NONE', #211, #72 ) ;
#503 = PLANE ( 'NONE',  #42 ) ;
#504 = CARTESIAN_POINT ( 'NONE',  ( 0.2499999999999946709, 0.8049999999999999378, 2.395000000000004015 ) ) ;
#505 = EDGE_CURVE ( 'NONE', #297, #508, #169, .T. ) ;
#506 =( GEOMETRIC_REPRESENTATION_CONTEXT ( 3 ) GLOBAL_UNCERTAINTY_ASSIGNED_CONTEXT ( ( #289 ) ) GLOBAL_UNIT_ASSIGNED_CONTEXT ( ( #376, #210, #132 ) ) REPRESENTATION_CONTEXT ( 'NONE', 'WORKASPACE' ) );
#507 = CARTESIAN_POINT ( 'NONE',  ( -0.8950000000000013500, 0.5999999999999999778, 5.000000000000000000 ) ) ;
#508 = VERTEX_POINT ( 'NONE', #166 ) ;
#509 =( LENGTH_UNIT ( ) NAMED_UNIT ( * ) SI_UNIT ( .CENTI., .METRE. ) );
#510 = CARTESIAN_POINT ( 'NONE',  ( -2.395000000000002682, 0.5999999999999999778, 5.000000000000000000 ) ) ;
#511 = AXIS2_PLACEMENT_3D ( 'NONE', #71, #520, #236 ) ;
#512 = ORIENTED_EDGE ( 'NONE', *, *, #275, .F. ) ;
#513 = EDGE_CURVE ( 'NONE', #314, #67, #409, .T. ) ;
#514 = DIRECTION ( 'NONE',  ( -2.465190328815661892E-32, 0.000000000000000000, 1.000000000000000000 ) ) ;
#515 = ORIENTED_EDGE ( 'NONE', *, *, #11, .T. ) ;
#516 = ORIENTED_EDGE ( 'NONE', *, *, #418, .F. ) ;
#517 = CARTESIAN_POINT ( 'NONE',  ( -0.5900000000000016342, 0.5999999999999999778, 3.100000000000000533 ) ) ;
#518 = ORIENTED_EDGE ( 'NONE', *, *, #153, .F. ) ;
#519 = AXIS2_PLACEMENT_3D ( 'NONE', #60, #385, #381 ) ;
#520 = DIRECTION ( 'NONE',  ( 1.000000000000000000, 0.000000000000000000, 1.272130549049658700E-16 ) ) ;
#521 = EDGE_LOOP ( 'NONE', ( #301, #308, #512, #390 ) ) ;
#522 = PRODUCT_DEFINITION_CONTEXT ( 'detailed design', #103, 'design' ) ;
#523 = CARTESIAN_POINT ( 'NONE',  ( 0.000000000000000000, 1.199999999999999956, 0.000000000000000000 ) ) ;
#524 = DIRECTION ( 'NONE',  ( -2.465190328815661892E-32, 0.000000000000000000, 1.000000000000000000 ) ) ;
#525 = PLANE ( 'NONE',  #511 ) ;
#526 = CARTESIAN_POINT ( 'NONE',  ( 0.2499999999999946709, 0.3950000000000000178, 3.816391647148975608E-15 ) ) ;
#527 = ADVANCED_FACE ( 'NONE', ( #84 ), #291, .T. ) ;
#528 = DIRECTION ( 'NONE',  ( 0.2302195854387860119, 0.000000000000000000, -0.9731387067013589354 ) ) ;
#529 = ORIENTED_EDGE ( 'NONE', *, *, #206, .T. ) ;
ENDSEC;
END-ISO-10303-21;
