ISO-10303-21;
HEADER;
FILE_DESCRIPTION (( 'STEP AP214' ),
    '1' );
FILE_NAME ('ramp-wall-lower_62.STEP',
    '2026-06-05T23:33:45',
    ( '' ),
    ( '' ),
    'SwSTEP 2.0',
    'SolidWorks 2023',
    '' );
FILE_SCHEMA (( 'AUTOMOTIVE_DESIGN' ));
ENDSEC;

DATA;
#1 = CARTESIAN_POINT ( 'NONE',  ( 0.2499999999999946709, 0.8049999999999999378, 3.816391647148975608E-15 ) ) ;
#2 = DIRECTION ( 'NONE',  ( 0.000000000000000000, 0.000000000000000000, 1.000000000000000000 ) ) ;
#3 = CARTESIAN_POINT ( 'NONE',  ( -27.47382017840123680, 6.730727086790011526E-14, -3.469446951953614189E-16 ) ) ;
#4 = AXIS2_PLACEMENT_3D ( 'NONE', #198, #347, #201 ) ;
#5 = EDGE_CURVE ( 'NONE', #140, #255, #484, .T. ) ;
#6 = CIRCLE ( 'NONE', #361, 0.3099999999999988320 ) ;
#7 = DIRECTION ( 'NONE',  ( -0.000000000000000000, 1.000000000000000000, 0.000000000000000000 ) ) ;
#8 = ORIENTED_EDGE ( 'NONE', *, *, #521, .T. ) ;
#9 = CARTESIAN_POINT ( 'NONE',  ( -15.00000000000000178, 0.8049999999999999378, 2.499999999999998224 ) ) ;
#10 = ORIENTED_EDGE ( 'NONE', *, *, #498, .T. ) ;
#11 = LINE ( 'NONE', #501, #286 ) ;
#12 = APPLICATION_PROTOCOL_DEFINITION ( 'draft international standard', 'automotive_design', 1998, #473 ) ;
#13 = ORIENTED_EDGE ( 'NONE', *, *, #505, .T. ) ;
#14 = EDGE_CURVE ( 'NONE', #487, #200, #31, .T. ) ;
#15 = FACE_OUTER_BOUND ( 'NONE', #235, .T. ) ;
#16 = VECTOR ( 'NONE', #75, 100.0000000000000000 ) ;
#17 = AXIS2_PLACEMENT_3D ( 'NONE', #150, #234, #271 ) ;
#18 = ORIENTED_EDGE ( 'NONE', *, *, #114, .T. ) ;
#19 = FACE_OUTER_BOUND ( 'NONE', #252, .T. ) ;
#20 = ORIENTED_EDGE ( 'NONE', *, *, #421, .F. ) ;
#21 = LINE ( 'NONE', #128, #428 ) ;
#22 = LINE ( 'NONE', #510, #393 ) ;
#23 = EDGE_LOOP ( 'NONE', ( #27, #435, #185, #95 ) ) ;
#24 = PLANE ( 'NONE',  #126 ) ;
#25 = ADVANCED_FACE ( 'NONE', ( #202 ), #124, .F. ) ;
#26 = VECTOR ( 'NONE', #497, 100.0000000000000142 ) ;
#27 = ORIENTED_EDGE ( 'NONE', *, *, #42, .F. ) ;
#28 = CARTESIAN_POINT ( 'NONE',  ( -7.500000000000000000, 0.000000000000000000, 5.000000000000002665 ) ) ;
#29 = FACE_OUTER_BOUND ( 'NONE', #346, .T. ) ;
#30 = FACE_OUTER_BOUND ( 'NONE', #161, .T. ) ;
#31 = LINE ( 'NONE', #441, #369 ) ;
#32 = EDGE_CURVE ( 'NONE', #504, #262, #78, .T. ) ;
#33 = DIRECTION ( 'NONE',  ( -2.465190328815661892E-32, 0.000000000000000000, 1.000000000000000000 ) ) ;
#34 = EDGE_LOOP ( 'NONE', ( #433, #104, #351, #500 ) ) ;
#35 = COLOUR_RGB ( '',0.6941176470588235059, 0.09803921568627450844, 0.09803921568627450844 ) ;
#36 = COLOUR_RGB ( '',1.000000000000000000, 1.000000000000000000, 1.000000000000000000 ) ;
#37 = CIRCLE ( 'NONE', #59, 0.2049999999999999600 ) ;
#38 = LINE ( 'NONE', #168, #203 ) ;
#39 = DIRECTION ( 'NONE',  ( -2.465190328815661892E-32, 0.000000000000000000, 1.000000000000000000 ) ) ;
#40 = LINE ( 'NONE', #366, #443 ) ;
#41 = CARTESIAN_POINT ( 'NONE',  ( -2.395000000000002682, 0.5999999999999999778, 3.100000000000000089 ) ) ;
#42 = EDGE_CURVE ( 'NONE', #299, #383, #492, .T. ) ;
#43 = CARTESIAN_POINT ( 'NONE',  ( -15.00000000000000178, 1.199999999999999956, 2.499999999999998224 ) ) ;
#44 = PRODUCT_DEFINITION_SHAPE ( 'NONE', 'NONE',  #167 ) ;
#45 =( GEOMETRIC_REPRESENTATION_CONTEXT ( 3 ) GLOBAL_UNCERTAINTY_ASSIGNED_CONTEXT ( ( #311 ) ) GLOBAL_UNIT_ASSIGNED_CONTEXT ( ( #413, #212, #74 ) ) REPRESENTATION_CONTEXT ( 'NONE', 'WORKASPACE' ) );
#46 = DIRECTION ( 'NONE',  ( 1.000000000000000000, 0.000000000000000000, 1.272130549049658700E-16 ) ) ;
#47 = CARTESIAN_POINT ( 'NONE',  ( -1.205000000000000515, 0.5999999999999999778, 3.100000000000000533 ) ) ;
#48 = ORIENTED_EDGE ( 'NONE', *, *, #447, .T. ) ;
#49 = ADVANCED_FACE ( 'NONE', ( #70 ), #358, .T. ) ;
#50 = CARTESIAN_POINT ( 'NONE',  ( 0.000000000000000000, 0.3950000000000000178, 0.000000000000000000 ) ) ;
#51 = VERTEX_POINT ( 'NONE', #113 ) ;
#52 = PRODUCT_DEFINITION_FORMATION_WITH_SPECIFIED_SOURCE ( 'ANY', '', #250, .NOT_KNOWN. ) ;
#53 = DIRECTION ( 'NONE',  ( 1.000000000000000000, 0.000000000000000000, 1.272130549049658700E-16 ) ) ;
#54 = CARTESIAN_POINT ( 'NONE',  ( -27.47382017840123325, 1.199999999999999956, -5.551115123125782702E-15 ) ) ;
#55 = VERTEX_POINT ( 'NONE', #518 ) ;
#56 = CARTESIAN_POINT ( 'NONE',  ( 0.000000000000000000, 0.3950000000000000178, 0.000000000000000000 ) ) ;
#57 = EDGE_LOOP ( 'NONE', ( #332, #455, #179, #417 ) ) ;
#58 = LINE ( 'NONE', #394, #125 ) ;
#59 = AXIS2_PLACEMENT_3D ( 'NONE', #266, #298, #388 ) ;
#60 = EDGE_LOOP ( 'NONE', ( #277, #194 ) ) ;
#61 = ADVANCED_FACE ( 'NONE', ( #525 ), #169, .T. ) ;
#62 = DIRECTION ( 'NONE',  ( 0.000000000000000000, 0.000000000000000000, 1.000000000000000000 ) ) ;
#63 = EDGE_LOOP ( 'NONE', ( #102, #20, #138, #131 ) ) ;
#64 = ADVANCED_BREP_SHAPE_REPRESENTATION ( 'ramp-wall-lower_62', ( #83, #97 ), #118 ) ;
#65 = EDGE_CURVE ( 'NONE', #496, #294, #483, .T. ) ;
#66 =( NAMED_UNIT ( * ) SI_UNIT ( $, .STERADIAN. ) SOLID_ANGLE_UNIT ( ) );
#67 = APPLICATION_CONTEXT ( 'automotive_design' ) ;
#68 = CARTESIAN_POINT ( 'NONE',  ( -0.8950000000000013500, 0.5999999999999999778, 5.000000000000000000 ) ) ;
#69 = AXIS2_PLACEMENT_3D ( 'NONE', #285, #90, #139 ) ;
#70 = FACE_OUTER_BOUND ( 'NONE', #57, .T. ) ;
#71 = ADVANCED_FACE ( 'NONE', ( #29 ), #437, .T. ) ;
#72 = EDGE_LOOP ( 'NONE', ( #326, #424 ) ) ;
#73 = CARTESIAN_POINT ( 'NONE',  ( 0.2499999999999946709, 0.3950000000000000178, 3.816391647148975608E-15 ) ) ;
#74 =( NAMED_UNIT ( * ) SI_UNIT ( $, .STERADIAN. ) SOLID_ANGLE_UNIT ( ) );
#75 = DIRECTION ( 'NONE',  ( -1.000000000000000000, -0.000000000000000000, -1.539277964350119435E-14 ) ) ;
#76 = FACE_OUTER_BOUND ( 'NONE', #386, .T. ) ;
#77 = DIRECTION ( 'NONE',  ( 1.272130549049658700E-16, 0.000000000000000000, -1.000000000000000000 ) ) ;
#78 = LINE ( 'NONE', #242, #16 ) ;
#79 = VECTOR ( 'NONE', #82, 100.0000000000000000 ) ;
#80 = DIRECTION ( 'NONE',  ( 1.000000000000000000, 0.000000000000000000, 0.000000000000000000 ) ) ;
#81 = EDGE_CURVE ( 'NONE', #355, #92, #11, .T. ) ;
#82 = DIRECTION ( 'NONE',  ( 1.272130549049658700E-16, -0.000000000000000000, -1.000000000000000000 ) ) ;
#83 = MANIFOLD_SOLID_BREP ( 'Cut-Extrude3', #230 ) ;
#84 = DIRECTION ( 'NONE',  ( 1.272130549049658700E-16, 0.000000000000000000, -1.000000000000000000 ) ) ;
#85 = DIRECTION ( 'NONE',  ( 0.000000000000000000, 1.000000000000000000, 0.000000000000000000 ) ) ;
#86 = PRESENTATION_STYLE_ASSIGNMENT (( #209 ) ) ;
#87 = ORIENTED_EDGE ( 'NONE', *, *, #151, .T. ) ;
#88 = CIRCLE ( 'NONE', #96, 0.3099999999999988320 ) ;
#89 = VECTOR ( 'NONE', #360, 100.0000000000000000 ) ;
#90 = DIRECTION ( 'NONE',  ( -2.465190328815661892E-32, 0.000000000000000000, 1.000000000000000000 ) ) ;
#91 = EDGE_CURVE ( 'NONE', #489, #487, #21, .T. ) ;
#92 = VERTEX_POINT ( 'NONE', #331 ) ;
#93 = DIRECTION ( 'NONE',  ( -2.449761618368254527E-15, -1.000000000000000000, 0.000000000000000000 ) ) ;
#94 = FACE_BOUND ( 'NONE', #72, .T. ) ;
#95 = ORIENTED_EDGE ( 'NONE', *, *, #479, .F. ) ;
#96 = AXIS2_PLACEMENT_3D ( 'NONE', #457, #379, #373 ) ;
#97 = AXIS2_PLACEMENT_3D ( 'NONE', #216, #529, #175 ) ;
#98 = SURFACE_STYLE_USAGE ( .BOTH. , #416 ) ;
#99 = ORIENTED_EDGE ( 'NONE', *, *, #290, .F. ) ;
#100 = UNCERTAINTY_MEASURE_WITH_UNIT (LENGTH_MEASURE( 1.000000000000000082E-05 ), #464, 'distance_accuracy_value', 'NONE');
#101 = LINE ( 'NONE', #50, #465 ) ;
#102 = ORIENTED_EDGE ( 'NONE', *, *, #516, .F. ) ;
#103 = DIRECTION ( 'NONE',  ( 1.000000000000000000, 0.000000000000000000, 0.000000000000000000 ) ) ;
#104 = ORIENTED_EDGE ( 'NONE', *, *, #327, .T. ) ;
#105 = PRODUCT_DEFINITION_CONTEXT ( 'detailed design', #473, 'design' ) ;
#106 = AXIS2_PLACEMENT_3D ( 'NONE', #157, #237, #391 ) ;
#107 = CARTESIAN_POINT ( 'NONE',  ( -5.551115123125782702E-15, 0.3950000000000000178, 2.395000000000004015 ) ) ;
#108 = AXIS2_PLACEMENT_3D ( 'NONE', #229, #472, #264 ) ;
#109 = ORIENTED_EDGE ( 'NONE', *, *, #110, .F. ) ;
#110 = EDGE_CURVE ( 'NONE', #508, #55, #399, .T. ) ;
#111 = ORIENTED_EDGE ( 'NONE', *, *, #259, .T. ) ;
#112 = LINE ( 'NONE', #28, #180 ) ;
#113 = CARTESIAN_POINT ( 'NONE',  ( -27.47382017840123325, 0.000000000000000000, -4.163336342344337027E-15 ) ) ;
#114 = EDGE_CURVE ( 'NONE', #143, #294, #282, .T. ) ;
#115 = CARTESIAN_POINT ( 'NONE',  ( 0.2499999999999946709, 0.3950000000000000178, 2.395000000000004015 ) ) ;
#116 = VECTOR ( 'NONE', #423, 100.0000000000000000 ) ;
#117 = ORIENTED_EDGE ( 'NONE', *, *, #395, .F. ) ;
#118 =( GEOMETRIC_REPRESENTATION_CONTEXT ( 3 ) GLOBAL_UNCERTAINTY_ASSIGNED_CONTEXT ( ( #191 ) ) GLOBAL_UNIT_ASSIGNED_CONTEXT ( ( #163, #141, #341 ) ) REPRESENTATION_CONTEXT ( 'NONE', 'WORKASPACE' ) );
#119 = CARTESIAN_POINT ( 'NONE',  ( -0.8950000000000013500, 0.5999999999999999778, 3.100000000000000533 ) ) ;
#120 = DIRECTION ( 'NONE',  ( 1.000000000000000000, 0.000000000000000000, 0.000000000000000000 ) ) ;
#121 = DIRECTION ( 'NONE',  ( -0.000000000000000000, 1.000000000000000000, 0.000000000000000000 ) ) ;
#122 = VERTEX_POINT ( 'NONE', #404 ) ;
#123 = DIRECTION ( 'NONE',  ( 0.000000000000000000, 1.000000000000000000, 0.000000000000000000 ) ) ;
#124 = PLANE ( 'NONE',  #106 ) ;
#125 = VECTOR ( 'NONE', #158, 100.0000000000000142 ) ;
#126 = AXIS2_PLACEMENT_3D ( 'NONE', #269, #46, #526 ) ;
#127 = DIRECTION ( 'NONE',  ( 0.000000000000000000, 0.000000000000000000, 1.000000000000000000 ) ) ;
#128 = CARTESIAN_POINT ( 'NONE',  ( 0.000000000000000000, 1.199999999999999956, 5.000000000000000000 ) ) ;
#129 = VERTEX_POINT ( 'NONE', #1 ) ;
#130 = LINE ( 'NONE', #206, #384 ) ;
#131 = ORIENTED_EDGE ( 'NONE', *, *, #456, .T. ) ;
#132 = ADVANCED_FACE ( 'NONE', ( #318 ), #408, .F. ) ;
#133 = CARTESIAN_POINT ( 'NONE',  ( -2.705000000000001847, 0.5999999999999999778, 3.100000000000000089 ) ) ;
#134 = ORIENTED_EDGE ( 'NONE', *, *, #371, .T. ) ;
#135 = CIRCLE ( 'NONE', #69, 0.3099999999999988320 ) ;
#136 = AXIS2_PLACEMENT_3D ( 'NONE', #41, #243, #80 ) ;
#137 = CARTESIAN_POINT ( 'NONE',  ( -7.500000000000000000, 0.000000000000000000, 5.000000000000002665 ) ) ;
#138 = ORIENTED_EDGE ( 'NONE', *, *, #479, .T. ) ;
#139 = DIRECTION ( 'NONE',  ( 1.000000000000000000, 0.000000000000000000, 0.000000000000000000 ) ) ;
#140 = VERTEX_POINT ( 'NONE', #440 ) ;
#141 =( NAMED_UNIT ( * ) PLANE_ANGLE_UNIT ( ) SI_UNIT ( $, .RADIAN. ) );
#142 = CARTESIAN_POINT ( 'NONE',  ( 0.000000000000000000, 0.000000000000000000, 5.000000000000000000 ) ) ;
#143 = VERTEX_POINT ( 'NONE', #241 ) ;
#144 = PRODUCT_RELATED_PRODUCT_CATEGORY ( 'part', '', ( #250 ) ) ;
#145 = AXIS2_PLACEMENT_3D ( 'NONE', #309, #470, #365 ) ;
#146 = CARTESIAN_POINT ( 'NONE',  ( 0.000000000000000000, 0.000000000000000000, 5.000000000000000000 ) ) ;
#147 = ORIENTED_EDGE ( 'NONE', *, *, #290, .T. ) ;
#148 = DIRECTION ( 'NONE',  ( -1.000000000000000000, -0.000000000000000000, -1.539277964350119435E-14 ) ) ;
#149 = ORIENTED_EDGE ( 'NONE', *, *, #65, .T. ) ;
#150 = CARTESIAN_POINT ( 'NONE',  ( -0.8950000000000013500, 0.5999999999999999778, 5.000000000000000000 ) ) ;
#151 = EDGE_CURVE ( 'NONE', #182, #152, #38, .T. ) ;
#152 = VERTEX_POINT ( 'NONE', #321 ) ;
#153 = FILL_AREA_STYLE ('',( #509 ) ) ;
#154 = VECTOR ( 'NONE', #410, 100.0000000000000142 ) ;
#155 = DIRECTION ( 'NONE',  ( 1.000000000000000000, 0.000000000000000000, 0.000000000000000000 ) ) ;
#156 = ORIENTED_EDGE ( 'NONE', *, *, #421, .T. ) ;
#157 = CARTESIAN_POINT ( 'NONE',  ( -26.00442839046255727, 1.199999999999999956, -6.211122400498121365 ) ) ;
#158 = DIRECTION ( 'NONE',  ( -0.2302195854387860119, 0.000000000000000000, 0.9731387067013588243 ) ) ;
#159 = CARTESIAN_POINT ( 'NONE',  ( 0.000000000000000000, 0.8049999999999999378, 0.000000000000000000 ) ) ;
#160 = AXIS2_PLACEMENT_3D ( 'NONE', #345, #293, #502 ) ;
#161 = EDGE_LOOP ( 'NONE', ( #219, #218, #426, #463 ) ) ;
#162 = AXIS2_PLACEMENT_3D ( 'NONE', #488, #363, #276 ) ;
#163 =( LENGTH_UNIT ( ) NAMED_UNIT ( * ) SI_UNIT ( .CENTI., .METRE. ) );
#164 = CARTESIAN_POINT ( 'NONE',  ( -7.500000000000000000, 1.199999999999999956, 5.000000000000002665 ) ) ;
#165 = ORIENTED_EDGE ( 'NONE', *, *, #380, .T. ) ;
#166 = CYLINDRICAL_SURFACE ( 'NONE', #136, 0.3099999999999988320 ) ;
#167 = PRODUCT_DEFINITION ( 'UNKNOWN', '', #52, #105 ) ;
#168 = CARTESIAN_POINT ( 'NONE',  ( 0.000000000000000000, 0.000000000000000000, 5.000000000000000000 ) ) ;
#169 = PLANE ( 'NONE',  #503 ) ;
#170 = DIRECTION ( 'NONE',  ( 1.000000000000000000, 0.000000000000000000, 0.000000000000000000 ) ) ;
#171 = DIRECTION ( 'NONE',  ( 1.000000000000000000, 0.000000000000000000, 1.272130549049658700E-16 ) ) ;
#172 = ORIENTED_EDGE ( 'NONE', *, *, #238, .F. ) ;
#173 = DIRECTION ( 'NONE',  ( -2.465190328815661892E-32, 0.000000000000000000, 1.000000000000000000 ) ) ;
#174 = ADVANCED_FACE ( 'NONE', ( #325 ), #486, .T. ) ;
#175 = DIRECTION ( 'NONE',  ( 1.000000000000000000, 0.000000000000000000, 1.272130549049658700E-16 ) ) ;
#176 = SURFACE_SIDE_STYLE ('',( #353 ) ) ;
#177 = ORIENTED_EDGE ( 'NONE', *, *, #268, .F. ) ;
#178 = FILL_AREA_STYLE_COLOUR ( '', #35 ) ;
#179 = ORIENTED_EDGE ( 'NONE', *, *, #462, .F. ) ;
#180 = VECTOR ( 'NONE', #227, 100.0000000000000142 ) ;
#181 = FACE_OUTER_BOUND ( 'NONE', #319, .T. ) ;
#182 = VERTEX_POINT ( 'NONE', #142 ) ;
#183 = DIRECTION ( 'NONE',  ( -0.000000000000000000, 1.000000000000000000, 0.000000000000000000 ) ) ;
#184 = EDGE_CURVE ( 'NONE', #262, #306, #101, .T. ) ;
#185 = ORIENTED_EDGE ( 'NONE', *, *, #5, .T. ) ;
#186 = FACE_BOUND ( 'NONE', #60, .T. ) ;
#187 = EDGE_LOOP ( 'NONE', ( #147, #247 ) ) ;
#188 = AXIS2_PLACEMENT_3D ( 'NONE', #137, #291, #454 ) ;
#189 = DIRECTION ( 'NONE',  ( 0.000000000000000000, 1.000000000000000000, 0.000000000000000000 ) ) ;
#190 = ORIENTED_EDGE ( 'NONE', *, *, #110, .T. ) ;
#191 = UNCERTAINTY_MEASURE_WITH_UNIT (LENGTH_MEASURE( 1.000000000000000082E-05 ), #163, 'distance_accuracy_value', 'NONE');
#192 = ADVANCED_FACE ( 'NONE', ( #186, #94, #342 ), #251, .T. ) ;
#193 = DIRECTION ( 'NONE',  ( -1.000000000000000000, 0.000000000000000000, -2.139492287038061508E-16 ) ) ;
#194 = ORIENTED_EDGE ( 'NONE', *, *, #367, .F. ) ;
#195 = PLANE ( 'NONE',  #108 ) ;
#196 = ORIENTED_EDGE ( 'NONE', *, *, #81, .T. ) ;
#197 = VECTOR ( 'NONE', #385, 100.0000000000000000 ) ;
#198 = CARTESIAN_POINT ( 'NONE',  ( 0.000000000000000000, 0.000000000000000000, 0.000000000000000000 ) ) ;
#199 = VECTOR ( 'NONE', #123, 100.0000000000000000 ) ;
#200 = VERTEX_POINT ( 'NONE', #54 ) ;
#201 = DIRECTION ( 'NONE',  ( -1.000000000000000000, 0.000000000000000000, 0.000000000000000000 ) ) ;
#202 = FACE_OUTER_BOUND ( 'NONE', #260, .T. ) ;
#203 = VECTOR ( 'NONE', #84, 100.0000000000000000 ) ;
#204 = DIRECTION ( 'NONE',  ( 1.000000000000000000, 0.000000000000000000, 1.272130549049658700E-16 ) ) ;
#205 = EDGE_CURVE ( 'NONE', #200, #294, #419, .T. ) ;
#206 = CARTESIAN_POINT ( 'NONE',  ( 0.000000000000000000, 1.199999999999999956, 5.000000000000000000 ) ) ;
#207 = DIRECTION ( 'NONE',  ( 1.000000000000000000, 0.000000000000000000, 0.000000000000000000 ) ) ;
#208 = DIRECTION ( 'NONE',  ( 1.000000000000000000, 0.000000000000000000, 0.000000000000000000 ) ) ;
#209 = SURFACE_STYLE_USAGE ( .BOTH. , #176 ) ;
#210 = DIRECTION ( 'NONE',  ( 0.000000000000000000, 0.000000000000000000, 1.000000000000000000 ) ) ;
#211 = EDGE_CURVE ( 'NONE', #221, #355, #135, .T. ) ;
#212 =( NAMED_UNIT ( * ) PLANE_ANGLE_UNIT ( ) SI_UNIT ( $, .RADIAN. ) );
#213 = SHAPE_DEFINITION_REPRESENTATION ( #44, #64 ) ;
#214 = CARTESIAN_POINT ( 'NONE',  ( 0.2499999999999946709, 0.8049999999999999378, 2.395000000000004015 ) ) ;
#215 = ORIENTED_EDGE ( 'NONE', *, *, #259, .F. ) ;
#216 = CARTESIAN_POINT ( 'NONE',  ( -0.1500000000000000222, 0.006000000000000000125, 0.02499999999999998404 ) ) ;
#217 = LINE ( 'NONE', #3, #344 ) ;
#218 = ORIENTED_EDGE ( 'NONE', *, *, #438, .T. ) ;
#219 = ORIENTED_EDGE ( 'NONE', *, *, #211, .F. ) ;
#220 = DIRECTION ( 'NONE',  ( 0.000000000000000000, 1.000000000000000000, 0.000000000000000000 ) ) ;
#221 = VERTEX_POINT ( 'NONE', #47 ) ;
#222 = CARTESIAN_POINT ( 'NONE',  ( 0.000000000000000000, 0.000000000000000000, 0.000000000000000000 ) ) ;
#223 = ORIENTED_EDGE ( 'NONE', *, *, #253, .T. ) ;
#224 = AXIS2_PLACEMENT_3D ( 'NONE', #244, #33, #524 ) ;
#225 = CYLINDRICAL_SURFACE ( 'NONE', #392, 0.3099999999999988320 ) ;
#226 = ORIENTED_EDGE ( 'NONE', *, *, #184, .T. ) ;
#227 = DIRECTION ( 'NONE',  ( -0.9731387067013588243, 0.000000000000000000, -0.2302195854387859841 ) ) ;
#228 = ORIENTED_EDGE ( 'NONE', *, *, #253, .F. ) ;
#229 = CARTESIAN_POINT ( 'NONE',  ( -15.00000000000000178, 0.000000000000000000, 2.499999999999998224 ) ) ;
#230 = CLOSED_SHELL ( 'NONE', ( #312, #350, #49, #301, #71, #192, #333, #174, #414, #132, #295, #274, #471, #495, #476, #61, #25 ) ) ;
#231 = DIRECTION ( 'NONE',  ( 0.000000000000000000, 0.000000000000000000, 1.000000000000000000 ) ) ;
#232 = VECTOR ( 'NONE', #85, 100.0000000000000000 ) ;
#233 = CARTESIAN_POINT ( 'NONE',  ( -27.53536453439562237, 1.199999999999999956, 0.2601481315458259447 ) ) ;
#234 = DIRECTION ( 'NONE',  ( -2.465190328815661892E-32, 0.000000000000000000, 1.000000000000000000 ) ) ;
#235 = EDGE_LOOP ( 'NONE', ( #228, #434, #297, #452, #448, #265, #177, #111 ) ) ;
#236 = CARTESIAN_POINT ( 'NONE',  ( -2.395000000000002682, 0.5999999999999999778, 3.100000000000000089 ) ) ;
#237 = DIRECTION ( 'NONE',  ( 0.9731387067013589354, -2.383957853025511309E-15, 0.2302195854387860396 ) ) ;
#238 = EDGE_CURVE ( 'NONE', #182, #489, #453, .T. ) ;
#239 = CARTESIAN_POINT ( 'NONE',  ( -27.53536453439562948, 0.000000000000000000, 0.2601481315458259447 ) ) ;
#240 = CIRCLE ( 'NONE', #17, 0.3099999999999988320 ) ;
#241 = CARTESIAN_POINT ( 'NONE',  ( -7.500000000000041744, 1.199999999999999956, 4.999999999999996447 ) ) ;
#242 = CARTESIAN_POINT ( 'NONE',  ( 0.000000000000000000, 0.3950000000000000178, 0.000000000000000000 ) ) ;
#243 = DIRECTION ( 'NONE',  ( 0.000000000000000000, 0.000000000000000000, 1.000000000000000000 ) ) ;
#244 = CARTESIAN_POINT ( 'NONE',  ( -2.395000000000002682, 0.5999999999999999778, 5.000000000000000000 ) ) ;
#245 = LINE ( 'NONE', #357, #232 ) ;
#246 = AXIS2_PLACEMENT_3D ( 'NONE', #480, #121, #171 ) ;
#247 = ORIENTED_EDGE ( 'NONE', *, *, #211, .T. ) ;
#248 = APPLICATION_PROTOCOL_DEFINITION ( 'draft international standard', 'automotive_design', 1998, #67 ) ;
#249 = FILL_AREA_STYLE ('',( #178 ) ) ;
#250 = PRODUCT ( 'ramp-wall-lower_62', 'ramp-wall-lower_62', '', ( #330 ) ) ;
#251 = PLANE ( 'NONE',  #160 ) ;
#252 = EDGE_LOOP ( 'NONE', ( #378, #316, #215, #348, #460 ) ) ;
#253 = EDGE_CURVE ( 'NONE', #200, #51, #217, .T. ) ;
#254 = CARTESIAN_POINT ( 'NONE',  ( -2.085000000000003517, 0.5999999999999999778, 5.000000000000000000 ) ) ;
#255 = VERTEX_POINT ( 'NONE', #254 ) ;
#256 = PRESENTATION_STYLE_ASSIGNMENT (( #98 ) ) ;
#257 = ORIENTED_EDGE ( 'NONE', *, *, #65, .F. ) ;
#258 = DIRECTION ( 'NONE',  ( -2.262257333030263515E-15, 0.000000000000000000, 1.000000000000000000 ) ) ;
#259 = EDGE_CURVE ( 'NONE', #152, #51, #377, .T. ) ;
#260 = EDGE_LOOP ( 'NONE', ( #223, #372, #149, #491 ) ) ;
#261 = DIRECTION ( 'NONE',  ( 1.272130549049658700E-16, -0.000000000000000000, -1.000000000000000000 ) ) ;
#262 = VERTEX_POINT ( 'NONE', #56 ) ;
#263 = AXIS2_PLACEMENT_3D ( 'NONE', #9, #183, #53 ) ;
#264 = DIRECTION ( 'NONE',  ( 1.000000000000000000, 0.000000000000000000, 1.272130549049658700E-16 ) ) ;
#265 = ORIENTED_EDGE ( 'NONE', *, *, #32, .T. ) ;
#266 = CARTESIAN_POINT ( 'NONE',  ( 0.2499999999999946709, 0.5999999999999999778, 2.395000000000004015 ) ) ;
#267 = ORIENTED_EDGE ( 'NONE', *, *, #462, .T. ) ;
#268 = EDGE_CURVE ( 'NONE', #152, #262, #289, .T. ) ;
#269 = CARTESIAN_POINT ( 'NONE',  ( 0.2499999999999946709, 0.3950000000000000178, 3.816391647148975608E-15 ) ) ;
#270 = DIRECTION ( 'NONE',  ( 1.000000000000000000, 0.000000000000000000, 2.465190328815661892E-32 ) ) ;
#271 = DIRECTION ( 'NONE',  ( 1.000000000000000000, 0.000000000000000000, 0.000000000000000000 ) ) ;
#272 = DIRECTION ( 'NONE',  ( 1.000000000000000000, 0.000000000000000000, 0.000000000000000000 ) ) ;
#273 = CARTESIAN_POINT ( 'NONE',  ( -0.8950000000000013500, 0.5999999999999999778, 3.100000000000000533 ) ) ;
#274 = ADVANCED_FACE ( 'NONE', ( #382 ), #494, .F. ) ;
#275 = CARTESIAN_POINT ( 'NONE',  ( -2.395000000000002682, 0.5999999999999999778, 5.000000000000000000 ) ) ;
#276 = DIRECTION ( 'NONE',  ( 0.000000000000000000, -1.000000000000000000, 0.000000000000000000 ) ) ;
#277 = ORIENTED_EDGE ( 'NONE', *, *, #371, .F. ) ;
#278 = LINE ( 'NONE', #517, #304 ) ;
#279 = MECHANICAL_DESIGN_GEOMETRIC_PRESENTATION_REPRESENTATION (  '', ( #412 ), #45 ) ;
#280 = ORIENTED_EDGE ( 'NONE', *, *, #42, .T. ) ;
#281 = CYLINDRICAL_SURFACE ( 'NONE', #513, 0.3099999999999988320 ) ;
#282 = LINE ( 'NONE', #164, #154 ) ;
#283 = LINE ( 'NONE', #446, #79 ) ;
#284 = VERTEX_POINT ( 'NONE', #214 ) ;
#285 = CARTESIAN_POINT ( 'NONE',  ( -0.8950000000000013500, 0.5999999999999999778, 3.100000000000000533 ) ) ;
#286 = VECTOR ( 'NONE', #2, 100.0000000000000000 ) ;
#287 = ORIENTED_EDGE ( 'NONE', *, *, #205, .T. ) ;
#288 = VECTOR ( 'NONE', #436, 100.0000000000000000 ) ;
#289 = LINE ( 'NONE', #222, #511 ) ;
#290 = EDGE_CURVE ( 'NONE', #355, #221, #88, .T. ) ;
#291 = DIRECTION ( 'NONE',  ( 0.2302195854387860119, 0.000000000000000000, -0.9731387067013589354 ) ) ;
#292 = ORIENTED_EDGE ( 'NONE', *, *, #91, .F. ) ;
#293 = DIRECTION ( 'NONE',  ( 0.000000000000000000, 0.000000000000000000, 1.000000000000000000 ) ) ;
#294 = VERTEX_POINT ( 'NONE', #296 ) ;
#295 = ADVANCED_FACE ( 'NONE', ( #181 ), #459, .T. ) ;
#296 = CARTESIAN_POINT ( 'NONE',  ( -27.53536453439562237, 1.199999999999999956, 0.2601481315458259447 ) ) ;
#297 = ORIENTED_EDGE ( 'NONE', *, *, #505, .F. ) ;
#298 = DIRECTION ( 'NONE',  ( 1.000000000000000000, 0.000000000000000000, 1.272130549049658700E-16 ) ) ;
#299 = VERTEX_POINT ( 'NONE', #133 ) ;
#300 = CARTESIAN_POINT ( 'NONE',  ( 0.2499999999999946709, 0.3950000000000000178, 2.395000000000004015 ) ) ;
#301 = ADVANCED_FACE ( 'NONE', ( #15 ), #339, .T. ) ;
#302 = ORIENTED_EDGE ( 'NONE', *, *, #268, .T. ) ;
#303 = AXIS2_PLACEMENT_3D ( 'NONE', #400, #204, #362 ) ;
#304 = VECTOR ( 'NONE', #127, 100.0000000000000000 ) ;
#305 = LINE ( 'NONE', #390, #197 ) ;
#306 = VERTEX_POINT ( 'NONE', #107 ) ;
#307 = EDGE_CURVE ( 'NONE', #51, #496, #58, .T. ) ;
#308 = CARTESIAN_POINT ( 'NONE',  ( -2.085000000000003517, 0.5999999999999999778, 3.100000000000000533 ) ) ;
#309 = CARTESIAN_POINT ( 'NONE',  ( 0.2499999999999946709, 0.5999999999999999778, 2.395000000000004015 ) ) ;
#310 = FACE_OUTER_BOUND ( 'NONE', #23, .T. ) ;
#311 = UNCERTAINTY_MEASURE_WITH_UNIT (LENGTH_MEASURE( 1.000000000000000082E-05 ), #413, 'distance_accuracy_value', 'NONE');
#312 = ADVANCED_FACE ( 'NONE', ( #30 ), #225, .F. ) ;
#313 = VECTOR ( 'NONE', #364, 100.0000000000000000 ) ;
#314 = DIRECTION ( 'NONE',  ( 1.000000000000000000, 0.000000000000000000, 2.465190328815661892E-32 ) ) ;
#315 = CIRCLE ( 'NONE', #224, 0.3099999999999988320 ) ;
#316 = ORIENTED_EDGE ( 'NONE', *, *, #307, .F. ) ;
#317 = DIRECTION ( 'NONE',  ( -2.465190328815661892E-32, 0.000000000000000000, 1.000000000000000000 ) ) ;
#318 = FACE_OUTER_BOUND ( 'NONE', #376, .T. ) ;
#319 = EDGE_LOOP ( 'NONE', ( #190, #267, #10, #468 ) ) ;
#320 = LINE ( 'NONE', #407, #493 ) ;
#321 = CARTESIAN_POINT ( 'NONE',  ( 0.000000000000000000, 0.000000000000000000, 0.000000000000000000 ) ) ;
#322 = DIRECTION ( 'NONE',  ( -2.465190328815661892E-32, 0.000000000000000000, 1.000000000000000000 ) ) ;
#323 = FACE_OUTER_BOUND ( 'NONE', #63, .T. ) ;
#324 = MECHANICAL_DESIGN_GEOMETRIC_PRESENTATION_REPRESENTATION (  '', ( #335 ), #352 ) ;
#325 = FACE_OUTER_BOUND ( 'NONE', #507, .T. ) ;
#326 = ORIENTED_EDGE ( 'NONE', *, *, #456, .F. ) ;
#327 = EDGE_CURVE ( 'NONE', #458, #182, #305, .T. ) ;
#328 = LINE ( 'NONE', #482, #288 ) ;
#329 = EDGE_LOOP ( 'NONE', ( #481, #99, #196, #134 ) ) ;
#330 = PRODUCT_CONTEXT ( 'NONE', #67, 'mechanical' ) ;
#331 = CARTESIAN_POINT ( 'NONE',  ( -0.5850000000000021849, 0.5999999999999999778, 5.000000000000000000 ) ) ;
#332 = ORIENTED_EDGE ( 'NONE', *, *, #380, .F. ) ;
#333 = ADVANCED_FACE ( 'NONE', ( #19 ), #195, .F. ) ;
#334 = CARTESIAN_POINT ( 'NONE',  ( -26.00442839046255727, 1.199999999999999956, -6.211122400498121365 ) ) ;
#335 = STYLED_ITEM ( 'NONE', ( #256 ), #301 ) ;
#336 = AXIS2_PLACEMENT_3D ( 'NONE', #68, #349, #514 ) ;
#337 = EDGE_LOOP ( 'NONE', ( #18, #257, #117, #8 ) ) ;
#338 = CARTESIAN_POINT ( 'NONE',  ( 0.000000000000000000, 0.000000000000000000, 0.000000000000000000 ) ) ;
#339 = PLANE ( 'NONE',  #4 ) ;
#340 = ORIENTED_EDGE ( 'NONE', *, *, #442, .F. ) ;
#341 =( NAMED_UNIT ( * ) SI_UNIT ( $, .STERADIAN. ) SOLID_ANGLE_UNIT ( ) );
#342 = FACE_OUTER_BOUND ( 'NONE', #34, .T. ) ;
#343 = ORIENTED_EDGE ( 'NONE', *, *, #427, .T. ) ;
#344 = VECTOR ( 'NONE', #93, 100.0000000000000000 ) ;
#345 = CARTESIAN_POINT ( 'NONE',  ( 0.000000000000000000, 0.000000000000000000, 5.000000000000000000 ) ) ;
#346 = EDGE_LOOP ( 'NONE', ( #340, #109, #13, #292, #172, #87, #302, #226 ) ) ;
#347 = DIRECTION ( 'NONE',  ( 0.000000000000000000, 0.000000000000000000, -1.000000000000000000 ) ) ;
#348 = ORIENTED_EDGE ( 'NONE', *, *, #151, .F. ) ;
#349 = DIRECTION ( 'NONE',  ( -2.465190328815661892E-32, 0.000000000000000000, 1.000000000000000000 ) ) ;
#350 = ADVANCED_FACE ( 'NONE', ( #310 ), #430, .F. ) ;
#351 = ORIENTED_EDGE ( 'NONE', *, *, #238, .T. ) ;
#352 =( GEOMETRIC_REPRESENTATION_CONTEXT ( 3 ) GLOBAL_UNCERTAINTY_ASSIGNED_CONTEXT ( ( #100 ) ) GLOBAL_UNIT_ASSIGNED_CONTEXT ( ( #464, #425, #66 ) ) REPRESENTATION_CONTEXT ( 'NONE', 'WORKASPACE' ) );
#353 = SURFACE_STYLE_FILL_AREA ( #153 ) ;
#354 = CARTESIAN_POINT ( 'NONE',  ( -2.395000000000002682, 0.5999999999999999778, 3.100000000000000089 ) ) ;
#355 = VERTEX_POINT ( 'NONE', #461 ) ;
#356 = LINE ( 'NONE', #469, #420 ) ;
#357 = CARTESIAN_POINT ( 'NONE',  ( 0.000000000000000000, 0.000000000000000000, 0.000000000000000000 ) ) ;
#358 = CYLINDRICAL_SURFACE ( 'NONE', #145, 0.2049999999999999600 ) ;
#359 = AXIS2_PLACEMENT_3D ( 'NONE', #43, #7, #451 ) ;
#360 = DIRECTION ( 'NONE',  ( 1.000000000000000000, 0.000000000000000000, 2.139492287038061508E-16 ) ) ;
#361 = AXIS2_PLACEMENT_3D ( 'NONE', #478, #317, #208 ) ;
#362 = DIRECTION ( 'NONE',  ( 0.000000000000000000, -1.000000000000000000, 0.000000000000000000 ) ) ;
#363 = DIRECTION ( 'NONE',  ( 1.000000000000000000, 0.000000000000000000, 1.272130549049658700E-16 ) ) ;
#364 = DIRECTION ( 'NONE',  ( -2.262257333030263515E-15, 0.000000000000000000, 1.000000000000000000 ) ) ;
#365 = DIRECTION ( 'NONE',  ( 2.115516434118057955E-16, 0.000000000000000000, -1.000000000000000000 ) ) ;
#366 = CARTESIAN_POINT ( 'NONE',  ( -7.500000000000000000, 0.000000000000000000, 5.000000000000002665 ) ) ;
#367 = EDGE_CURVE ( 'NONE', #122, #92, #240, .T. ) ;
#368 = CARTESIAN_POINT ( 'NONE',  ( 0.000000000000000000, 1.199999999999999956, 5.000000000000000000 ) ) ;
#369 = VECTOR ( 'NONE', #397, 100.0000000000000000 ) ;
#370 = VERTEX_POINT ( 'NONE', #300 ) ;
#371 = EDGE_CURVE ( 'NONE', #92, #122, #429, .T. ) ;
#372 = ORIENTED_EDGE ( 'NONE', *, *, #307, .T. ) ;
#373 = DIRECTION ( 'NONE',  ( 1.000000000000000000, 0.000000000000000000, 0.000000000000000000 ) ) ;
#374 = PRESENTATION_LAYER_ASSIGNMENT (  '', '', ( #335 ) ) ;
#375 = VECTOR ( 'NONE', #193, 100.0000000000000000 ) ;
#376 = EDGE_LOOP ( 'NONE', ( #381, #165, #415, #422 ) ) ;
#377 = LINE ( 'NONE', #338, #116 ) ;
#378 = ORIENTED_EDGE ( 'NONE', *, *, #395, .T. ) ;
#379 = DIRECTION ( 'NONE',  ( -2.465190328815661892E-32, 0.000000000000000000, 1.000000000000000000 ) ) ;
#380 = EDGE_CURVE ( 'NONE', #370, #306, #467, .T. ) ;
#381 = ORIENTED_EDGE ( 'NONE', *, *, #406, .F. ) ;
#382 = FACE_OUTER_BOUND ( 'NONE', #337, .T. ) ;
#383 = VERTEX_POINT ( 'NONE', #308 ) ;
#384 = VECTOR ( 'NONE', #170, 100.0000000000000000 ) ;
#385 = DIRECTION ( 'NONE',  ( 1.000000000000000000, 0.000000000000000000, 0.000000000000000000 ) ) ;
#386 = EDGE_LOOP ( 'NONE', ( #156, #280 ) ) ;
#387 = EDGE_CURVE ( 'NONE', #129, #508, #356, .T. ) ;
#388 = DIRECTION ( 'NONE',  ( 0.000000000000000000, -1.000000000000000000, 0.000000000000000000 ) ) ;
#389 = EDGE_LOOP ( 'NONE', ( #466, #418, #477, #48 ) ) ;
#390 = CARTESIAN_POINT ( 'NONE',  ( 0.000000000000000000, 0.000000000000000000, 5.000000000000000000 ) ) ;
#391 = DIRECTION ( 'NONE',  ( 0.2302195854387860119, 0.000000000000000000, -0.9731387067013588243 ) ) ;
#392 = AXIS2_PLACEMENT_3D ( 'NONE', #506, #231, #155 ) ;
#393 = VECTOR ( 'NONE', #261, 100.0000000000000000 ) ;
#394 = CARTESIAN_POINT ( 'NONE',  ( -26.00442839046256438, 0.000000000000000000, -6.211122400498123142 ) ) ;
#395 = EDGE_CURVE ( 'NONE', #458, #496, #112, .T. ) ;
#396 = DIRECTION ( 'NONE',  ( 2.312964634635742267E-15, 1.000000000000000000, 5.782411586589359611E-16 ) ) ;
#397 = DIRECTION ( 'NONE',  ( -1.000000000000000000, 0.000000000000000000, 0.000000000000000000 ) ) ;
#398 = DIRECTION ( 'NONE',  ( 0.000000000000000000, 0.000000000000000000, 1.000000000000000000 ) ) ;
#399 = LINE ( 'NONE', #490, #313 ) ;
#400 = CARTESIAN_POINT ( 'NONE',  ( 0.000000000000000000, 0.000000000000000000, 5.000000000000000000 ) ) ;
#401 = EDGE_CURVE ( 'NONE', #284, #370, #37, .T. ) ;
#402 = VECTOR ( 'NONE', #189, 100.0000000000000000 ) ;
#403 = CIRCLE ( 'NONE', #162, 0.2049999999999999600 ) ;
#404 = CARTESIAN_POINT ( 'NONE',  ( -1.205000000000000515, 0.5999999999999999778, 5.000000000000000000 ) ) ;
#405 = CARTESIAN_POINT ( 'NONE',  ( -2.395000000000002682, 0.5999999999999999778, 3.100000000000000089 ) ) ;
#406 = EDGE_CURVE ( 'NONE', #370, #504, #22, .T. ) ;
#407 = CARTESIAN_POINT ( 'NONE',  ( -2.705000000000001847, 0.5999999999999999778, 3.100000000000000089 ) ) ;
#408 = PLANE ( 'NONE',  #246 ) ;
#409 = LINE ( 'NONE', #411, #89 ) ;
#410 = DIRECTION ( 'NONE',  ( -0.9731387067013588243, 0.000000000000000000, -0.2302195854387859841 ) ) ;
#411 = CARTESIAN_POINT ( 'NONE',  ( -15.00000000000000178, 0.8049999999999999378, 2.395000000000000462 ) ) ;
#412 = STYLED_ITEM ( 'NONE', ( #86 ), #83 ) ;
#413 =( LENGTH_UNIT ( ) NAMED_UNIT ( * ) SI_UNIT ( .CENTI., .METRE. ) );
#414 = ADVANCED_FACE ( 'NONE', ( #432 ), #24, .T. ) ;
#415 = ORIENTED_EDGE ( 'NONE', *, *, #184, .F. ) ;
#416 = SURFACE_SIDE_STYLE ('',( #499 ) ) ;
#417 = ORIENTED_EDGE ( 'NONE', *, *, #442, .T. ) ;
#418 = ORIENTED_EDGE ( 'NONE', *, *, #401, .T. ) ;
#419 = LINE ( 'NONE', #334, #26 ) ;
#420 = VECTOR ( 'NONE', #148, 100.0000000000000000 ) ;
#421 = EDGE_CURVE ( 'NONE', #383, #299, #6, .T. ) ;
#422 = ORIENTED_EDGE ( 'NONE', *, *, #32, .F. ) ;
#423 = DIRECTION ( 'NONE',  ( -1.000000000000000000, 0.000000000000000000, 0.000000000000000000 ) ) ;
#424 = ORIENTED_EDGE ( 'NONE', *, *, #5, .F. ) ;
#425 =( NAMED_UNIT ( * ) PLANE_ANGLE_UNIT ( ) SI_UNIT ( $, .RADIAN. ) );
#426 = ORIENTED_EDGE ( 'NONE', *, *, #367, .T. ) ;
#427 = EDGE_CURVE ( 'NONE', #143, #489, #130, .T. ) ;
#428 = VECTOR ( 'NONE', #77, 100.0000000000000000 ) ;
#429 = CIRCLE ( 'NONE', #336, 0.3099999999999988320 ) ;
#430 = CYLINDRICAL_SURFACE ( 'NONE', #450, 0.3099999999999988320 ) ;
#431 = ORIENTED_EDGE ( 'NONE', *, *, #91, .T. ) ;
#432 = FACE_OUTER_BOUND ( 'NONE', #389, .T. ) ;
#433 = ORIENTED_EDGE ( 'NONE', *, *, #521, .F. ) ;
#434 = ORIENTED_EDGE ( 'NONE', *, *, #14, .F. ) ;
#435 = ORIENTED_EDGE ( 'NONE', *, *, #516, .T. ) ;
#436 = DIRECTION ( 'NONE',  ( 0.000000000000000000, 0.000000000000000000, 1.000000000000000000 ) ) ;
#437 = PLANE ( 'NONE',  #303 ) ;
#438 = EDGE_CURVE ( 'NONE', #221, #122, #328, .T. ) ;
#439 = CARTESIAN_POINT ( 'NONE',  ( 0.000000000000000000, 1.199999999999999956, 0.000000000000000000 ) ) ;
#440 = CARTESIAN_POINT ( 'NONE',  ( -2.705000000000001847, 0.5999999999999999778, 5.000000000000000000 ) ) ;
#441 = CARTESIAN_POINT ( 'NONE',  ( 0.000000000000000000, 1.199999999999999956, 0.000000000000000000 ) ) ;
#442 = EDGE_CURVE ( 'NONE', #55, #306, #403, .T. ) ;
#443 = VECTOR ( 'NONE', #475, 100.0000000000000000 ) ;
#444 = CARTESIAN_POINT ( 'NONE',  ( 0.2499999999999946709, 0.3950000000000000178, 3.816391647148975608E-15 ) ) ;
#445 = CARTESIAN_POINT ( 'NONE',  ( -7.500000000000000000, 0.000000000000000000, 5.000000000000002665 ) ) ;
#446 = CARTESIAN_POINT ( 'NONE',  ( 0.2499999999999946709, 0.8049999999999999378, 3.816391647148975608E-15 ) ) ;
#447 = EDGE_CURVE ( 'NONE', #504, #129, #528, .T. ) ;
#448 = ORIENTED_EDGE ( 'NONE', *, *, #447, .F. ) ;
#449 = VECTOR ( 'NONE', #396, 100.0000000000000000 ) ;
#450 = AXIS2_PLACEMENT_3D ( 'NONE', #354, #62, #103 ) ;
#451 = DIRECTION ( 'NONE',  ( 1.000000000000000000, 0.000000000000000000, 1.272130549049658700E-16 ) ) ;
#452 = ORIENTED_EDGE ( 'NONE', *, *, #387, .F. ) ;
#453 = LINE ( 'NONE', #146, #402 ) ;
#454 = DIRECTION ( 'NONE',  ( -0.9731387067013588243, 0.000000000000000000, -0.2302195854387859841 ) ) ;
#455 = ORIENTED_EDGE ( 'NONE', *, *, #401, .F. ) ;
#456 = EDGE_CURVE ( 'NONE', #255, #140, #315, .T. ) ;
#457 = CARTESIAN_POINT ( 'NONE',  ( -0.8950000000000013500, 0.5999999999999999778, 3.100000000000000533 ) ) ;
#458 = VERTEX_POINT ( 'NONE', #445 ) ;
#459 = PLANE ( 'NONE',  #263 ) ;
#460 = ORIENTED_EDGE ( 'NONE', *, *, #327, .F. ) ;
#461 = CARTESIAN_POINT ( 'NONE',  ( -0.5850000000000021849, 0.5999999999999999778, 3.100000000000000533 ) ) ;
#462 = EDGE_CURVE ( 'NONE', #55, #284, #409, .T. ) ;
#463 = ORIENTED_EDGE ( 'NONE', *, *, #81, .F. ) ;
#464 =( LENGTH_UNIT ( ) NAMED_UNIT ( * ) SI_UNIT ( .CENTI., .METRE. ) );
#465 = VECTOR ( 'NONE', #258, 100.0000000000000000 ) ;
#466 = ORIENTED_EDGE ( 'NONE', *, *, #498, .F. ) ;
#467 = LINE ( 'NONE', #115, #375 ) ;
#468 = ORIENTED_EDGE ( 'NONE', *, *, #387, .T. ) ;
#469 = CARTESIAN_POINT ( 'NONE',  ( 0.000000000000000000, 0.8049999999999999378, 0.000000000000000000 ) ) ;
#470 = DIRECTION ( 'NONE',  ( 1.000000000000000000, 0.000000000000000000, 2.139492287038061508E-16 ) ) ;
#471 = ADVANCED_FACE ( 'NONE', ( #323 ), #166, .F. ) ;
#472 = DIRECTION ( 'NONE',  ( -0.000000000000000000, 1.000000000000000000, 0.000000000000000000 ) ) ;
#473 = APPLICATION_CONTEXT ( 'automotive_design' ) ;
#474 = AXIS2_PLACEMENT_3D ( 'NONE', #275, #515, #272 ) ;
#475 = DIRECTION ( 'NONE',  ( 0.000000000000000000, 1.000000000000000000, 0.000000000000000000 ) ) ;
#476 = ADVANCED_FACE ( 'NONE', ( #485 ), #281, .F. ) ;
#477 = ORIENTED_EDGE ( 'NONE', *, *, #406, .T. ) ;
#478 = CARTESIAN_POINT ( 'NONE',  ( -2.395000000000002682, 0.5999999999999999778, 3.100000000000000089 ) ) ;
#479 = EDGE_CURVE ( 'NONE', #383, #255, #278, .T. ) ;
#480 = CARTESIAN_POINT ( 'NONE',  ( -15.00000000000000178, 0.3950000000000000178, 2.499999999999998224 ) ) ;
#481 = ORIENTED_EDGE ( 'NONE', *, *, #438, .F. ) ;
#482 = CARTESIAN_POINT ( 'NONE',  ( -1.205000000000000515, 0.5999999999999999778, 3.100000000000000533 ) ) ;
#483 = LINE ( 'NONE', #233, #449 ) ;
#484 = CIRCLE ( 'NONE', #474, 0.3099999999999988320 ) ;
#485 = FACE_OUTER_BOUND ( 'NONE', #329, .T. ) ;
#486 = PLANE ( 'NONE',  #359 ) ;
#487 = VERTEX_POINT ( 'NONE', #439 ) ;
#488 = CARTESIAN_POINT ( 'NONE',  ( 0.000000000000000000, 0.5999999999999999778, 2.395000000000003570 ) ) ;
#489 = VERTEX_POINT ( 'NONE', #368 ) ;
#490 = CARTESIAN_POINT ( 'NONE',  ( 0.000000000000000000, 0.8049999999999999378, 0.000000000000000000 ) ) ;
#491 = ORIENTED_EDGE ( 'NONE', *, *, #205, .F. ) ;
#492 = CIRCLE ( 'NONE', #527, 0.3099999999999988320 ) ;
#493 = VECTOR ( 'NONE', #398, 100.0000000000000000 ) ;
#494 = PLANE ( 'NONE',  #188 ) ;
#495 = ADVANCED_FACE ( 'NONE', ( #76 ), #522, .T. ) ;
#496 = VERTEX_POINT ( 'NONE', #239 ) ;
#497 = DIRECTION ( 'NONE',  ( -0.2302195854387860119, 0.000000000000000000, 0.9731387067013588243 ) ) ;
#498 = EDGE_CURVE ( 'NONE', #284, #129, #283, .T. ) ;
#499 = SURFACE_STYLE_FILL_AREA ( #249 ) ;
#500 = ORIENTED_EDGE ( 'NONE', *, *, #427, .F. ) ;
#501 = CARTESIAN_POINT ( 'NONE',  ( -0.5850000000000021849, 0.5999999999999999778, 3.100000000000000533 ) ) ;
#502 = DIRECTION ( 'NONE',  ( 1.000000000000000000, 0.000000000000000000, 0.000000000000000000 ) ) ;
#503 = AXIS2_PLACEMENT_3D ( 'NONE', #119, #322, #270 ) ;
#504 = VERTEX_POINT ( 'NONE', #444 ) ;
#505 = EDGE_CURVE ( 'NONE', #508, #487, #245, .T. ) ;
#506 = CARTESIAN_POINT ( 'NONE',  ( -0.8950000000000013500, 0.5999999999999999778, 3.100000000000000533 ) ) ;
#507 = EDGE_LOOP ( 'NONE', ( #287, #512, #343, #431, #523 ) ) ;
#508 = VERTEX_POINT ( 'NONE', #159 ) ;
#509 = FILL_AREA_STYLE_COLOUR ( '', #36 ) ;
#510 = CARTESIAN_POINT ( 'NONE',  ( 0.2499999999999946709, 0.3950000000000000178, 3.816391647148975608E-15 ) ) ;
#511 = VECTOR ( 'NONE', #220, 100.0000000000000000 ) ;
#512 = ORIENTED_EDGE ( 'NONE', *, *, #114, .F. ) ;
#513 = AXIS2_PLACEMENT_3D ( 'NONE', #273, #210, #120 ) ;
#514 = DIRECTION ( 'NONE',  ( 1.000000000000000000, 0.000000000000000000, 0.000000000000000000 ) ) ;
#515 = DIRECTION ( 'NONE',  ( -2.465190328815661892E-32, 0.000000000000000000, 1.000000000000000000 ) ) ;
#516 = EDGE_CURVE ( 'NONE', #299, #140, #320, .T. ) ;
#517 = CARTESIAN_POINT ( 'NONE',  ( -2.085000000000003517, 0.5999999999999999778, 3.100000000000000533 ) ) ;
#518 = CARTESIAN_POINT ( 'NONE',  ( -5.551115123125782702E-15, 0.8049999999999999378, 2.395000000000004015 ) ) ;
#519 = PRESENTATION_LAYER_ASSIGNMENT (  '', '', ( #412 ) ) ;
#520 = AXIS2_PLACEMENT_3D ( 'NONE', #236, #173, #314 ) ;
#521 = EDGE_CURVE ( 'NONE', #458, #143, #40, .T. ) ;
#522 = PLANE ( 'NONE',  #520 ) ;
#523 = ORIENTED_EDGE ( 'NONE', *, *, #14, .T. ) ;
#524 = DIRECTION ( 'NONE',  ( 1.000000000000000000, 0.000000000000000000, 0.000000000000000000 ) ) ;
#525 = FACE_OUTER_BOUND ( 'NONE', #187, .T. ) ;
#526 = DIRECTION ( 'NONE',  ( 0.000000000000000000, -1.000000000000000000, 0.000000000000000000 ) ) ;
#527 = AXIS2_PLACEMENT_3D ( 'NONE', #405, #39, #207 ) ;
#528 = LINE ( 'NONE', #73, #199 ) ;
#529 = DIRECTION ( 'NONE',  ( 0.000000000000000000, 1.000000000000000000, -0.000000000000000000 ) ) ;
ENDSEC;
END-ISO-10303-21;
