ISO-10303-21;
HEADER;
FILE_DESCRIPTION (( 'STEP AP214' ),
    '1' );
FILE_NAME ('wall.STEP',
    '2026-06-16T01:10:06',
    ( '' ),
    ( '' ),
    'SwSTEP 2.0',
    'SolidWorks 2023',
    '' );
FILE_SCHEMA (( 'AUTOMOTIVE_DESIGN' ));
ENDSEC;

DATA;
#1 = EDGE_CURVE ( 'NONE', #62, #393, #407, .T. ) ;
#2 = ORIENTED_EDGE ( 'NONE', *, *, #228, .T. ) ;
#3 = ORIENTED_EDGE ( 'NONE', *, *, #307, .F. ) ;
#4 =( GEOMETRIC_REPRESENTATION_CONTEXT ( 3 ) GLOBAL_UNCERTAINTY_ASSIGNED_CONTEXT ( ( #278 ) ) GLOBAL_UNIT_ASSIGNED_CONTEXT ( ( #231, #159, #424 ) ) REPRESENTATION_CONTEXT ( 'NONE', 'WORKASPACE' ) );
#5 = DIRECTION ( 'NONE',  ( -1.032573497605242347E-16, 0.000000000000000000, 1.000000000000000000 ) ) ;
#6 = VERTEX_POINT ( 'NONE', #361 ) ;
#7 = EDGE_CURVE ( 'NONE', #151, #410, #367, .T. ) ;
#8 = AXIS2_PLACEMENT_3D ( 'NONE', #48, #409, #376 ) ;
#9 = DIRECTION ( 'NONE',  ( 1.000000000000000000, 0.000000000000000000, 1.144091435346613409E-15 ) ) ;
#10 = ORIENTED_EDGE ( 'NONE', *, *, #285, .T. ) ;
#11 = ORIENTED_EDGE ( 'NONE', *, *, #281, .F. ) ;
#12 = AXIS2_PLACEMENT_3D ( 'NONE', #107, #80, #368 ) ;
#13 = DIRECTION ( 'NONE',  ( 1.000000000000000000, 0.000000000000000000, 1.032573497605242347E-16 ) ) ;
#14 = DIRECTION ( 'NONE',  ( 1.032573497605242347E-16, 0.000000000000000000, -1.000000000000000000 ) ) ;
#15 = CARTESIAN_POINT ( 'NONE',  ( 0.000000000000000000, -1.002499999999999947, 5.000000000000000888 ) ) ;
#16 = AXIS2_PLACEMENT_3D ( 'NONE', #363, #394, #397 ) ;
#17 = ORIENTED_EDGE ( 'NONE', *, *, #172, .T. ) ;
#18 = DIRECTION ( 'NONE',  ( 1.000000000000000000, 0.000000000000000000, 1.144091435346613409E-15 ) ) ;
#19 = CARTESIAN_POINT ( 'NONE',  ( 0.000000000000000000, -1.002499999999999947, 5.000000000000000888 ) ) ;
#20 = PRODUCT ( 'wall', 'wall', '', ( #163 ) ) ;
#21 = CARTESIAN_POINT ( 'NONE',  ( -16.80000000000000071, -0.1974999999999998979, 3.469446951953614189E-16 ) ) ;
#22 = SURFACE_STYLE_FILL_AREA ( #24 ) ;
#23 = EDGE_CURVE ( 'NONE', #395, #446, #47, .T. ) ;
#24 = FILL_AREA_STYLE ('',( #452 ) ) ;
#25 = AXIS2_PLACEMENT_3D ( 'NONE', #19, #348, #120 ) ;
#26 = ORIENTED_EDGE ( 'NONE', *, *, #97, .T. ) ;
#27 = CARTESIAN_POINT ( 'NONE',  ( -0.08399999999999999134, -0.004024999999999999065, 0.02500000000000000833 ) ) ;
#28 = VERTEX_POINT ( 'NONE', #68 ) ;
#29 = DIRECTION ( 'NONE',  ( -1.000000000000000000, 0.000000000000000000, 2.065146995210483770E-17 ) ) ;
#30 = VECTOR ( 'NONE', #89, 100.0000000000000000 ) ;
#31 = CARTESIAN_POINT ( 'NONE',  ( 0.2500000000000016098, -0.4024999999999999134, 2.395000000000012008 ) ) ;
#32 = AXIS2_PLACEMENT_3D ( 'NONE', #436, #98, #244 ) ;
#33 = FACE_OUTER_BOUND ( 'NONE', #173, .T. ) ;
#34 = CARTESIAN_POINT ( 'NONE',  ( -16.80000000000000071, -1.002499999999999947, 5.000000000000000000 ) ) ;
#35 = VERTEX_POINT ( 'NONE', #333 ) ;
#36 = EDGE_LOOP ( 'NONE', ( #165, #57, #169, #127 ) ) ;
#37 = PRODUCT_RELATED_PRODUCT_CATEGORY ( 'part', '', ( #20 ) ) ;
#38 = PLANE ( 'NONE',  #32 ) ;
#39 = CARTESIAN_POINT ( 'NONE',  ( -16.80000000000000071, -0.6074999999999999289, 3.469446951953614189E-16 ) ) ;
#40 =( GEOMETRIC_REPRESENTATION_CONTEXT ( 3 ) GLOBAL_UNCERTAINTY_ASSIGNED_CONTEXT ( ( #345 ) ) GLOBAL_UNIT_ASSIGNED_CONTEXT ( ( #128, #271, #312 ) ) REPRESENTATION_CONTEXT ( 'NONE', 'WORKASPACE' ) );
#41 = LINE ( 'NONE', #212, #170 ) ;
#42 = ORIENTED_EDGE ( 'NONE', *, *, #295, .T. ) ;
#43 = DIRECTION ( 'NONE',  ( -1.000000000000000000, 0.000000000000000000, -1.144091435346613409E-15 ) ) ;
#44 = CARTESIAN_POINT ( 'NONE',  ( -17.04999999999999716, -0.1974999999999998979, 2.395000000000000462 ) ) ;
#45 = LINE ( 'NONE', #110, #264 ) ;
#46 = EDGE_CURVE ( 'NONE', #401, #28, #362, .T. ) ;
#47 = LINE ( 'NONE', #149, #434 ) ;
#48 = CARTESIAN_POINT ( 'NONE',  ( -17.04999999999999716, -0.4024999999999999134, 2.395000000000000462 ) ) ;
#49 = DIRECTION ( 'NONE',  ( 0.000000000000000000, 1.000000000000000000, 0.000000000000000000 ) ) ;
#50 = CARTESIAN_POINT ( 'NONE',  ( 0.2500000000000016098, -0.4024999999999999134, 2.395000000000012008 ) ) ;
#51 = CARTESIAN_POINT ( 'NONE',  ( -17.05000000000000071, -0.1974999999999998979, 3.469446951953614189E-16 ) ) ;
#52 = DIRECTION ( 'NONE',  ( -0.000000000000000000, 1.000000000000000000, 0.000000000000000000 ) ) ;
#53 = CARTESIAN_POINT ( 'NONE',  ( 0.000000000000000000, 0.1975000000000001199, 5.000000000000000888 ) ) ;
#54 = PRESENTATION_LAYER_ASSIGNMENT (  '', '', ( #187 ) ) ;
#55 = EDGE_CURVE ( 'NONE', #410, #371, #276, .T. ) ;
#56 = ORIENTED_EDGE ( 'NONE', *, *, #206, .T. ) ;
#57 = ORIENTED_EDGE ( 'NONE', *, *, #160, .T. ) ;
#58 = EDGE_CURVE ( 'NONE', #449, #351, #87, .T. ) ;
#59 = DIRECTION ( 'NONE',  ( 1.000000000000000000, 0.000000000000000000, 0.000000000000000000 ) ) ;
#60 = ORIENTED_EDGE ( 'NONE', *, *, #274, .T. ) ;
#61 = CARTESIAN_POINT ( 'NONE',  ( 0.2500000000000057732, -0.1974999999999998979, 1.214306433183764966E-14 ) ) ;
#62 = VERTEX_POINT ( 'NONE', #53 ) ;
#63 = CIRCLE ( 'NONE', #463, 0.2049999999999999600 ) ;
#64 = PLANE ( 'NONE',  #456 ) ;
#65 = EDGE_CURVE ( 'NONE', #28, #449, #161, .T. ) ;
#66 = ORIENTED_EDGE ( 'NONE', *, *, #152, .T. ) ;
#67 = FACE_OUTER_BOUND ( 'NONE', #437, .T. ) ;
#68 = CARTESIAN_POINT ( 'NONE',  ( -16.80000000000000071, -0.6074999999999999289, 3.469446951953614189E-16 ) ) ;
#69 = LINE ( 'NONE', #247, #430 ) ;
#70 = ORIENTED_EDGE ( 'NONE', *, *, #457, .F. ) ;
#71 = AXIS2_PLACEMENT_3D ( 'NONE', #116, #52, #145 ) ;
#72 = LINE ( 'NONE', #148, #157 ) ;
#73 = ORIENTED_EDGE ( 'NONE', *, *, #7, .T. ) ;
#74 = PRODUCT_DEFINITION_SHAPE ( 'NONE', 'NONE',  #115 ) ;
#75 = ADVANCED_FACE ( 'NONE', ( #233 ), #158, .T. ) ;
#76 = CARTESIAN_POINT ( 'NONE',  ( 0.000000000000000000, 0.1975000000000001199, 0.000000000000000000 ) ) ;
#77 = ORIENTED_EDGE ( 'NONE', *, *, #136, .T. ) ;
#78 = CARTESIAN_POINT ( 'NONE',  ( -17.04999999999999716, -0.4024999999999999134, 2.395000000000000462 ) ) ;
#79 = DIRECTION ( 'NONE',  ( -1.000000000000000000, 0.000000000000000000, 4.305037197708010146E-16 ) ) ;
#80 = DIRECTION ( 'NONE',  ( -1.000000000000000000, 0.000000000000000000, -1.032573497605242347E-16 ) ) ;
#81 = CARTESIAN_POINT ( 'NONE',  ( 0.000000000000000000, -1.002499999999999947, 0.000000000000000000 ) ) ;
#82 = DIRECTION ( 'NONE',  ( -1.000000000000000000, 0.000000000000000000, -1.032573497605242347E-16 ) ) ;
#83 = CARTESIAN_POINT ( 'NONE',  ( -16.80000000000000071, -0.6074999999999999289, 3.469446951953614189E-16 ) ) ;
#84 = SURFACE_STYLE_USAGE ( .BOTH. , #122 ) ;
#85 = CARTESIAN_POINT ( 'NONE',  ( -17.05000000000000071, -0.1974999999999998979, 3.469446951953614189E-16 ) ) ;
#86 = VECTOR ( 'NONE', #182, 100.0000000000000000 ) ;
#87 = LINE ( 'NONE', #310, #193 ) ;
#88 = LINE ( 'NONE', #461, #114 ) ;
#89 = DIRECTION ( 'NONE',  ( 1.032573497605242347E-16, 0.000000000000000000, -1.000000000000000000 ) ) ;
#90 = ORIENTED_EDGE ( 'NONE', *, *, #23, .T. ) ;
#91 = DIRECTION ( 'NONE',  ( 0.000000000000000000, 1.000000000000000000, 0.000000000000000000 ) ) ;
#92 = VERTEX_POINT ( 'NONE', #306 ) ;
#93 = LINE ( 'NONE', #176, #334 ) ;
#94 = ORIENTED_EDGE ( 'NONE', *, *, #23, .F. ) ;
#95 = AXIS2_PLACEMENT_3D ( 'NONE', #191, #79, #304 ) ;
#96 = EDGE_LOOP ( 'NONE', ( #17, #73, #111, #66 ) ) ;
#97 = EDGE_CURVE ( 'NONE', #220, #205, #347, .T. ) ;
#98 = DIRECTION ( 'NONE',  ( -2.065146995210482230E-17, 0.000000000000000000, -1.000000000000000000 ) ) ;
#99 = ORIENTED_EDGE ( 'NONE', *, *, #55, .F. ) ;
#100 = AXIS2_PLACEMENT_3D ( 'NONE', #453, #444, #118 ) ;
#101 = DIRECTION ( 'NONE',  ( -0.000000000000000000, 1.000000000000000000, 0.000000000000000000 ) ) ;
#102 = ORIENTED_EDGE ( 'NONE', *, *, #240, .F. ) ;
#103 = DIRECTION ( 'NONE',  ( 0.000000000000000000, 1.000000000000000000, 0.000000000000000000 ) ) ;
#104 = ORIENTED_EDGE ( 'NONE', *, *, #295, .F. ) ;
#105 = CARTESIAN_POINT ( 'NONE',  ( -16.80000000000000071, -0.6074999999999999289, 2.395000000000000462 ) ) ;
#106 = ORIENTED_EDGE ( 'NONE', *, *, #358, .T. ) ;
#107 = CARTESIAN_POINT ( 'NONE',  ( -16.80000000000000071, -1.002499999999999947, 5.000000000000000000 ) ) ;
#108 = VECTOR ( 'NONE', #18, 100.0000000000000000 ) ;
#109 = VECTOR ( 'NONE', #335, 100.0000000000000000 ) ;
#110 = CARTESIAN_POINT ( 'NONE',  ( 5.551115123125782702E-15, -0.6074999999999999289, 1.144917494144692682E-14 ) ) ;
#111 = ORIENTED_EDGE ( 'NONE', *, *, #55, .T. ) ;
#112 = FACE_OUTER_BOUND ( 'NONE', #404, .T. ) ;
#113 = ORIENTED_EDGE ( 'NONE', *, *, #285, .F. ) ;
#114 = VECTOR ( 'NONE', #29, 100.0000000000000000 ) ;
#115 = PRODUCT_DEFINITION ( 'UNKNOWN', '', #408, #378 ) ;
#116 = CARTESIAN_POINT ( 'NONE',  ( -8.399999999999998579, -0.6074999999999999289, 2.500000000000000888 ) ) ;
#117 = DIRECTION ( 'NONE',  ( 1.704540558354500032E-15, 0.000000000000000000, -1.000000000000000000 ) ) ;
#118 = DIRECTION ( 'NONE',  ( 1.704540558354500032E-15, 0.000000000000000000, -1.000000000000000000 ) ) ;
#119 = CARTESIAN_POINT ( 'NONE',  ( -16.80000000000000071, -1.002499999999999947, 5.000000000000000000 ) ) ;
#120 = DIRECTION ( 'NONE',  ( 0.000000000000000000, -1.000000000000000000, 0.000000000000000000 ) ) ;
#121 = LINE ( 'NONE', #272, #314 ) ;
#122 = SURFACE_SIDE_STYLE ('',( #22 ) ) ;
#123 = EDGE_CURVE ( 'NONE', #393, #217, #340, .T. ) ;
#124 = CARTESIAN_POINT ( 'NONE',  ( -16.80000000000000071, -0.1974999999999998979, 3.469446951953614189E-16 ) ) ;
#125 = AXIS2_PLACEMENT_3D ( 'NONE', #261, #337, #82 ) ;
#126 = APPLICATION_PROTOCOL_DEFINITION ( 'draft international standard', 'automotive_design', 1998, #140 ) ;
#127 = ORIENTED_EDGE ( 'NONE', *, *, #65, .F. ) ;
#128 =( LENGTH_UNIT ( ) NAMED_UNIT ( * ) SI_UNIT ( .CENTI., .METRE. ) );
#129 = VECTOR ( 'NONE', #14, 100.0000000000000000 ) ;
#130 = ORIENTED_EDGE ( 'NONE', *, *, #136, .F. ) ;
#131 = DIRECTION ( 'NONE',  ( 1.704540558354500032E-15, 0.000000000000000000, -1.000000000000000000 ) ) ;
#132 = ORIENTED_EDGE ( 'NONE', *, *, #1, .T. ) ;
#133 = VECTOR ( 'NONE', #91, 100.0000000000000000 ) ;
#134 = CYLINDRICAL_SURFACE ( 'NONE', #275, 0.2049999999999999600 ) ;
#135 = ORIENTED_EDGE ( 'NONE', *, *, #152, .F. ) ;
#136 = EDGE_CURVE ( 'NONE', #446, #35, #164, .T. ) ;
#137 = PLANE ( 'NONE',  #12 ) ;
#138 = DIRECTION ( 'NONE',  ( 1.057758217059028904E-15, 0.000000000000000000, -1.000000000000000000 ) ) ;
#139 = ORIENTED_EDGE ( 'NONE', *, *, #123, .F. ) ;
#140 = APPLICATION_CONTEXT ( 'automotive_design' ) ;
#141 = DIRECTION ( 'NONE',  ( -0.000000000000000000, 1.000000000000000000, 0.000000000000000000 ) ) ;
#142 = EDGE_LOOP ( 'NONE', ( #282, #243, #70, #113 ) ) ;
#143 = CARTESIAN_POINT ( 'NONE',  ( 0.2500000000000057732, -0.6074999999999999289, 1.214306433183764966E-14 ) ) ;
#144 = ORIENTED_EDGE ( 'NONE', *, *, #206, .F. ) ;
#145 = DIRECTION ( 'NONE',  ( 1.000000000000000000, 0.000000000000000000, 1.032573497605242347E-16 ) ) ;
#146 = EDGE_CURVE ( 'NONE', #398, #258, #121, .T. ) ;
#147 = ORIENTED_EDGE ( 'NONE', *, *, #146, .F. ) ;
#148 = CARTESIAN_POINT ( 'NONE',  ( 0.000000000000000000, -1.002499999999999947, 5.000000000000000888 ) ) ;
#149 = CARTESIAN_POINT ( 'NONE',  ( 0.000000000000000000, -1.002499999999999947, 0.000000000000000000 ) ) ;
#150 = DIRECTION ( 'NONE',  ( 1.000000000000000000, -0.000000000000000000, 1.032573497605242347E-16 ) ) ;
#151 = VERTEX_POINT ( 'NONE', #462 ) ;
#152 = EDGE_CURVE ( 'NONE', #371, #351, #262, .T. ) ;
#153 = CYLINDRICAL_SURFACE ( 'NONE', #417, 0.2049999999999999600 ) ;
#154 = DIRECTION ( 'NONE',  ( -0.000000000000000000, 1.000000000000000000, 0.000000000000000000 ) ) ;
#155 = VECTOR ( 'NONE', #225, 100.0000000000000000 ) ;
#156 = DIRECTION ( 'NONE',  ( 0.000000000000000000, -1.000000000000000000, 0.000000000000000000 ) ) ;
#157 = VECTOR ( 'NONE', #181, 100.0000000000000000 ) ;
#158 = PLANE ( 'NONE',  #95 ) ;
#159 =( NAMED_UNIT ( * ) PLANE_ANGLE_UNIT ( ) SI_UNIT ( $, .RADIAN. ) );
#160 = EDGE_CURVE ( 'NONE', #401, #413, #374, .T. ) ;
#161 = LINE ( 'NONE', #83, #241 ) ;
#162 = CARTESIAN_POINT ( 'NONE',  ( -16.80000000000000071, 0.1975000000000001199, 3.469446951953614189E-16 ) ) ;
#163 = PRODUCT_CONTEXT ( 'NONE', #140, 'mechanical' ) ;
#164 = LINE ( 'NONE', #458, #349 ) ;
#165 = ORIENTED_EDGE ( 'NONE', *, *, #46, .F. ) ;
#166 = FACE_OUTER_BOUND ( 'NONE', #235, .T. ) ;
#167 = FACE_OUTER_BOUND ( 'NONE', #96, .T. ) ;
#168 = ORIENTED_EDGE ( 'NONE', *, *, #447, .T. ) ;
#169 = ORIENTED_EDGE ( 'NONE', *, *, #447, .F. ) ;
#170 = VECTOR ( 'NONE', #440, 100.0000000000000000 ) ;
#171 = FACE_OUTER_BOUND ( 'NONE', #468, .T. ) ;
#172 = EDGE_CURVE ( 'NONE', #351, #151, #377, .T. ) ;
#173 = EDGE_LOOP ( 'NONE', ( #277, #432, #177, #364, #211, #442, #90, #77 ) ) ;
#174 = CARTESIAN_POINT ( 'NONE',  ( -16.80000000000000071, -1.002499999999999947, 5.000000000000000000 ) ) ;
#175 = EDGE_LOOP ( 'NONE', ( #311, #104, #213, #10 ) ) ;
#176 = CARTESIAN_POINT ( 'NONE',  ( 0.2500000000000057732, -0.6074999999999999289, 1.214306433183764966E-14 ) ) ;
#177 = ORIENTED_EDGE ( 'NONE', *, *, #240, .T. ) ;
#178 = ADVANCED_FACE ( 'NONE', ( #166 ), #137, .T. ) ;
#179 = DIRECTION ( 'NONE',  ( 1.000000000000000000, 0.000000000000000000, 0.000000000000000000 ) ) ;
#180 = EDGE_LOOP ( 'NONE', ( #26, #201, #237, #317 ) ) ;
#181 = DIRECTION ( 'NONE',  ( 1.032573497605242347E-16, 0.000000000000000000, -1.000000000000000000 ) ) ;
#182 = DIRECTION ( 'NONE',  ( 1.000000000000000000, -0.000000000000000000, 1.032573497605242347E-16 ) ) ;
#183 = CLOSED_SHELL ( 'NONE', ( #256, #388, #178, #336, #185, #218, #315, #266, #75, #352, #196, #405, #435, #199 ) ) ;
#184 = DIRECTION ( 'NONE',  ( 4.305037197708010146E-16, 0.000000000000000000, 1.000000000000000000 ) ) ;
#185 = ADVANCED_FACE ( 'NONE', ( #33 ), #339, .T. ) ;
#186 = DIRECTION ( 'NONE',  ( 0.000000000000000000, 1.000000000000000000, 0.000000000000000000 ) ) ;
#187 = STYLED_ITEM ( 'NONE', ( #470 ), #336 ) ;
#188 = FACE_OUTER_BOUND ( 'NONE', #313, .T. ) ;
#189 = PRESENTATION_STYLE_ASSIGNMENT (( #84 ) ) ;
#190 = DIRECTION ( 'NONE',  ( 1.000000000000000000, 0.000000000000000000, 1.704540558354500032E-15 ) ) ;
#191 = CARTESIAN_POINT ( 'NONE',  ( -17.05000000000000071, -0.6074999999999999289, 3.469446951953614189E-16 ) ) ;
#192 = DIRECTION ( 'NONE',  ( -1.000000000000000000, 0.000000000000000000, -1.032573497605242347E-16 ) ) ;
#193 = VECTOR ( 'NONE', #381, 100.0000000000000000 ) ;
#194 = CARTESIAN_POINT ( 'NONE',  ( 0.2500000000000016098, -0.6074999999999999289, 2.395000000000012008 ) ) ;
#195 = CARTESIAN_POINT ( 'NONE',  ( -16.80000000000000071, 0.1975000000000001199, 5.000000000000000000 ) ) ;
#196 = ADVANCED_FACE ( 'NONE', ( #167 ), #308, .F. ) ;
#197 = CARTESIAN_POINT ( 'NONE',  ( -8.399999999999998579, -0.1974999999999998979, 2.500000000000000888 ) ) ;
#198 = VECTOR ( 'NONE', #49, 100.0000000000000000 ) ;
#199 = ADVANCED_FACE ( 'NONE', ( #301 ), #420, .T. ) ;
#200 = CIRCLE ( 'NONE', #8, 0.2049999999999999600 ) ;
#201 = ORIENTED_EDGE ( 'NONE', *, *, #425, .T. ) ;
#202 = MANIFOLD_SOLID_BREP ( 'Fillet2', #183 ) ;
#203 = ORIENTED_EDGE ( 'NONE', *, *, #234, .F. ) ;
#204 = SURFACE_STYLE_USAGE ( .BOTH. , #360 ) ;
#205 = VERTEX_POINT ( 'NONE', #383 ) ;
#206 = EDGE_CURVE ( 'NONE', #465, #28, #268, .T. ) ;
#207 = CARTESIAN_POINT ( 'NONE',  ( 0.000000000000000000, -1.002499999999999947, 5.000000000000000888 ) ) ;
#208 = ORIENTED_EDGE ( 'NONE', *, *, #330, .T. ) ;
#209 = VECTOR ( 'NONE', #131, 100.0000000000000000 ) ;
#210 = LINE ( 'NONE', #34, #445 ) ;
#211 = ORIENTED_EDGE ( 'NONE', *, *, #441, .F. ) ;
#212 = CARTESIAN_POINT ( 'NONE',  ( -16.80000000000000071, 0.1975000000000001199, 5.000000000000000000 ) ) ;
#213 = ORIENTED_EDGE ( 'NONE', *, *, #464, .F. ) ;
#214 = CARTESIAN_POINT ( 'NONE',  ( -8.399999999999998579, 0.1975000000000001199, 2.500000000000000888 ) ) ;
#215 = VERTEX_POINT ( 'NONE', #195 ) ;
#216 = CARTESIAN_POINT ( 'NONE',  ( -17.05000000000000071, -0.6074999999999999289, 3.469446951953614189E-16 ) ) ;
#217 = VERTEX_POINT ( 'NONE', #162 ) ;
#218 = ADVANCED_FACE ( 'NONE', ( #341 ), #305, .T. ) ;
#219 = DIRECTION ( 'NONE',  ( 0.000000000000000000, 1.000000000000000000, 0.000000000000000000 ) ) ;
#220 = VERTEX_POINT ( 'NONE', #422 ) ;
#221 = COLOUR_RGB ( '',1.000000000000000000, 1.000000000000000000, 1.000000000000000000 ) ;
#222 = DIRECTION ( 'NONE',  ( -1.000000000000000000, 0.000000000000000000, -2.878814911323413404E-15 ) ) ;
#223 = DIRECTION ( 'NONE',  ( -1.000000000000000000, 0.000000000000000000, -1.032573497605242347E-16 ) ) ;
#224 = LINE ( 'NONE', #415, #469 ) ;
#225 = DIRECTION ( 'NONE',  ( -1.000000000000000000, -0.000000000000000000, -1.032573497605242347E-16 ) ) ;
#226 = CARTESIAN_POINT ( 'NONE',  ( -16.80000000000000071, -0.1974999999999998979, 2.395000000000000462 ) ) ;
#227 = DIRECTION ( 'NONE',  ( -0.000000000000000000, -1.000000000000000000, 0.000000000000000000 ) ) ;
#228 = EDGE_CURVE ( 'NONE', #395, #465, #88, .T. ) ;
#229 = APPLICATION_PROTOCOL_DEFINITION ( 'draft international standard', 'automotive_design', 1998, #380 ) ;
#230 = DIRECTION ( 'NONE',  ( -1.000000000000000000, 0.000000000000000000, -1.032573497605242347E-16 ) ) ;
#231 =( LENGTH_UNIT ( ) NAMED_UNIT ( * ) SI_UNIT ( .CENTI., .METRE. ) );
#232 = UNCERTAINTY_MEASURE_WITH_UNIT (LENGTH_MEASURE( 1.000000000000000082E-05 ), #318, 'distance_accuracy_value', 'NONE');
#233 = FACE_OUTER_BOUND ( 'NONE', #433, .T. ) ;
#234 = EDGE_CURVE ( 'NONE', #371, #217, #316, .T. ) ;
#235 = EDGE_LOOP ( 'NONE', ( #284, #328, #144, #389, #353, #11, #203, #99 ) ) ;
#236 = CIRCLE ( 'NONE', #246, 0.2050000000000001543 ) ;
#237 = ORIENTED_EDGE ( 'NONE', *, *, #307, .T. ) ;
#238 = FILL_AREA_STYLE ('',( #250 ) ) ;
#239 = ORIENTED_EDGE ( 'NONE', *, *, #7, .F. ) ;
#240 = EDGE_CURVE ( 'NONE', #220, #393, #414, .T. ) ;
#241 = VECTOR ( 'NONE', #230, 100.0000000000000000 ) ;
#242 = PLANE ( 'NONE',  #365 ) ;
#243 = ORIENTED_EDGE ( 'NONE', *, *, #228, .F. ) ;
#244 = DIRECTION ( 'NONE',  ( -1.000000000000000000, 0.000000000000000000, 2.065146995210482230E-17 ) ) ;
#245 = ORIENTED_EDGE ( 'NONE', *, *, #386, .T. ) ;
#246 = AXIS2_PLACEMENT_3D ( 'NONE', #265, #13, #448 ) ;
#247 = CARTESIAN_POINT ( 'NONE',  ( 0.000000000000000000, 0.1975000000000001199, 5.000000000000000888 ) ) ;
#248 = ORIENTED_EDGE ( 'NONE', *, *, #330, .F. ) ;
#249 = ADVANCED_BREP_SHAPE_REPRESENTATION ( 'wall', ( #202, #375 ), #40 ) ;
#250 = FILL_AREA_STYLE_COLOUR ( '', #342 ) ;
#251 = ORIENTED_EDGE ( 'NONE', *, *, #411, .T. ) ;
#252 = CARTESIAN_POINT ( 'NONE',  ( -17.05000000000000071, -0.6074999999999999289, 3.469446951953614189E-16 ) ) ;
#253 = ORIENTED_EDGE ( 'NONE', *, *, #423, .F. ) ;
#254 = CARTESIAN_POINT ( 'NONE',  ( 0.000000000000000000, -1.002499999999999947, 0.000000000000000000 ) ) ;
#255 = ORIENTED_EDGE ( 'NONE', *, *, #65, .T. ) ;
#256 = ADVANCED_FACE ( 'NONE', ( #392 ), #134, .T. ) ;
#257 = LINE ( 'NONE', #216, #384 ) ;
#258 = VERTEX_POINT ( 'NONE', #143 ) ;
#259 = VECTOR ( 'NONE', #382, 100.0000000000000000 ) ;
#260 = CARTESIAN_POINT ( 'NONE',  ( -16.80000000000000071, -1.002499999999999947, 3.469446951953614189E-16 ) ) ;
#261 = CARTESIAN_POINT ( 'NONE',  ( -8.399999999999998579, -0.6074999999999999289, 2.500000000000000888 ) ) ;
#262 = LINE ( 'NONE', #124, #291 ) ;
#263 = CARTESIAN_POINT ( 'NONE',  ( -8.399999999999998579, -0.1974999999999998979, 2.500000000000000888 ) ) ;
#264 = VECTOR ( 'NONE', #222, 100.0000000000000000 ) ;
#265 = CARTESIAN_POINT ( 'NONE',  ( 0.000000000000000000, -0.4024999999999999134, 2.395000000000011564 ) ) ;
#266 = ADVANCED_FACE ( 'NONE', ( #67 ), #242, .T. ) ;
#267 = DIRECTION ( 'NONE',  ( -1.000000000000000000, 0.000000000000000000, 2.065146995210483770E-17 ) ) ;
#268 = LINE ( 'NONE', #455, #259 ) ;
#269 = DIRECTION ( 'NONE',  ( 0.000000000000000000, 1.000000000000000000, 0.000000000000000000 ) ) ;
#270 = DIRECTION ( 'NONE',  ( 1.000000000000000000, 0.000000000000000000, 0.000000000000000000 ) ) ;
#271 =( NAMED_UNIT ( * ) PLANE_ANGLE_UNIT ( ) SI_UNIT ( $, .RADIAN. ) );
#272 = CARTESIAN_POINT ( 'NONE',  ( 0.2500000000000057732, -0.6074999999999999289, 1.214306433183764966E-14 ) ) ;
#273 = DIRECTION ( 'NONE',  ( 1.000000000000000000, 0.000000000000000000, 1.032573497605242347E-16 ) ) ;
#274 = EDGE_CURVE ( 'NONE', #401, #410, #438, .T. ) ;
#275 = AXIS2_PLACEMENT_3D ( 'NONE', #31, #9, #138 ) ;
#276 = LINE ( 'NONE', #303, #338 ) ;
#277 = ORIENTED_EDGE ( 'NONE', *, *, #411, .F. ) ;
#278 = UNCERTAINTY_MEASURE_WITH_UNIT (LENGTH_MEASURE( 1.000000000000000082E-05 ), #231, 'distance_accuracy_value', 'NONE');
#279 = VERTEX_POINT ( 'NONE', #174 ) ;
#280 = FACE_OUTER_BOUND ( 'NONE', #142, .T. ) ;
#281 = EDGE_CURVE ( 'NONE', #217, #215, #41, .T. ) ;
#282 = ORIENTED_EDGE ( 'NONE', *, *, #321, .F. ) ;
#283 = ORIENTED_EDGE ( 'NONE', *, *, #358, .F. ) ;
#284 = ORIENTED_EDGE ( 'NONE', *, *, #274, .F. ) ;
#285 = EDGE_CURVE ( 'NONE', #279, #320, #327, .T. ) ;
#286 = SURFACE_STYLE_FILL_AREA ( #238 ) ;
#287 = ORIENTED_EDGE ( 'NONE', *, *, #373, .T. ) ;
#288 = DIRECTION ( 'NONE',  ( 1.000000000000000000, 0.000000000000000000, 1.032573497605242347E-16 ) ) ;
#289 = EDGE_LOOP ( 'NONE', ( #239, #283, #427, #60 ) ) ;
#290 = LINE ( 'NONE', #15, #319 ) ;
#291 = VECTOR ( 'NONE', #223, 100.0000000000000000 ) ;
#292 = ORIENTED_EDGE ( 'NONE', *, *, #172, .F. ) ;
#293 = DIRECTION ( 'NONE',  ( 1.692413147294446364E-15, 0.000000000000000000, -1.000000000000000000 ) ) ;
#294 = EDGE_LOOP ( 'NONE', ( #359, #391, #324, #251 ) ) ;
#295 = EDGE_CURVE ( 'NONE', #215, #62, #69, .T. ) ;
#296 = CARTESIAN_POINT ( 'NONE',  ( -17.04999999999999716, -0.6074999999999999289, 2.395000000000000462 ) ) ;
#297 = CARTESIAN_POINT ( 'NONE',  ( 0.000000000000000000, 0.1975000000000001199, 5.000000000000000888 ) ) ;
#298 = CARTESIAN_POINT ( 'NONE',  ( 5.551115123125782702E-15, -0.6074999999999999289, 1.144917494144692682E-14 ) ) ;
#299 = DIRECTION ( 'NONE',  ( 1.032573497605242347E-16, 0.000000000000000000, -1.000000000000000000 ) ) ;
#300 = VECTOR ( 'NONE', #419, 100.0000000000000000 ) ;
#301 = FACE_OUTER_BOUND ( 'NONE', #180, .T. ) ;
#302 = PLANE ( 'NONE',  #100 ) ;
#303 = CARTESIAN_POINT ( 'NONE',  ( -16.80000000000000071, -0.1974999999999998979, 3.469446951953614189E-16 ) ) ;
#304 = DIRECTION ( 'NONE',  ( 4.305037197708010146E-16, 0.000000000000000000, 1.000000000000000000 ) ) ;
#305 = PLANE ( 'NONE',  #322 ) ;
#306 = CARTESIAN_POINT ( 'NONE',  ( 0.2500000000000057732, -0.1974999999999998979, 1.214306433183764966E-14 ) ) ;
#307 = EDGE_CURVE ( 'NONE', #6, #92, #403, .T. ) ;
#308 = PLANE ( 'NONE',  #402 ) ;
#309 = VECTOR ( 'NONE', #267, 100.0000000000000000 ) ;
#310 = CARTESIAN_POINT ( 'NONE',  ( -17.05000000000000071, -0.6074999999999999289, 3.469446951953614189E-16 ) ) ;
#311 = ORIENTED_EDGE ( 'NONE', *, *, #441, .T. ) ;
#312 =( NAMED_UNIT ( * ) SI_UNIT ( $, .STERADIAN. ) SOLID_ANGLE_UNIT ( ) );
#313 = EDGE_LOOP ( 'NONE', ( #3, #245, #331, #208 ) ) ;
#314 = VECTOR ( 'NONE', #117, 100.0000000000000000 ) ;
#315 = ADVANCED_FACE ( 'NONE', ( #280 ), #64, .F. ) ;
#316 = LINE ( 'NONE', #260, #198 ) ;
#317 = ORIENTED_EDGE ( 'NONE', *, *, #346, .T. ) ;
#318 =( LENGTH_UNIT ( ) NAMED_UNIT ( * ) SI_UNIT ( .CENTI., .METRE. ) );
#319 = VECTOR ( 'NONE', #219, 100.0000000000000000 ) ;
#320 = VERTEX_POINT ( 'NONE', #323 ) ;
#321 = EDGE_CURVE ( 'NONE', #465, #279, #210, .T. ) ;
#322 = AXIS2_PLACEMENT_3D ( 'NONE', #344, #459, #270 ) ;
#323 = CARTESIAN_POINT ( 'NONE',  ( 0.000000000000000000, -1.002499999999999947, 5.000000000000000888 ) ) ;
#324 = ORIENTED_EDGE ( 'NONE', *, *, #425, .F. ) ;
#325 =( NAMED_UNIT ( * ) SI_UNIT ( $, .STERADIAN. ) SOLID_ANGLE_UNIT ( ) );
#326 = ORIENTED_EDGE ( 'NONE', *, *, #281, .T. ) ;
#327 = LINE ( 'NONE', #207, #356 ) ;
#328 = ORIENTED_EDGE ( 'NONE', *, *, #46, .T. ) ;
#329 = LINE ( 'NONE', #412, #396 ) ;
#330 = EDGE_CURVE ( 'NONE', #258, #92, #93, .T. ) ;
#331 = ORIENTED_EDGE ( 'NONE', *, *, #146, .T. ) ;
#332 = LINE ( 'NONE', #119, #133 ) ;
#333 = CARTESIAN_POINT ( 'NONE',  ( 2.775557561562891351E-15, -0.6074999999999999289, 2.395000000000011564 ) ) ;
#334 = VECTOR ( 'NONE', #103, 100.0000000000000000 ) ;
#335 = DIRECTION ( 'NONE',  ( 0.000000000000000000, 1.000000000000000000, 0.000000000000000000 ) ) ;
#336 = ADVANCED_FACE ( 'NONE', ( #171 ), #38, .T. ) ;
#337 = DIRECTION ( 'NONE',  ( -0.000000000000000000, -1.000000000000000000, 0.000000000000000000 ) ) ;
#338 = VECTOR ( 'NONE', #299, 100.0000000000000000 ) ;
#339 = PLANE ( 'NONE',  #25 ) ;
#340 = LINE ( 'NONE', #451, #309 ) ;
#341 = FACE_OUTER_BOUND ( 'NONE', #175, .T. ) ;
#342 = COLOUR_RGB ( '',0.6941176470588235059, 0.09803921568627450844, 0.09803921568627450844 ) ;
#343 = DIRECTION ( 'NONE',  ( 1.000000000000000000, -0.000000000000000000, 1.032573497605242347E-16 ) ) ;
#344 = CARTESIAN_POINT ( 'NONE',  ( 0.000000000000000000, -1.002499999999999947, 5.000000000000000888 ) ) ;
#345 = UNCERTAINTY_MEASURE_WITH_UNIT (LENGTH_MEASURE( 1.000000000000000082E-05 ), #128, 'distance_accuracy_value', 'NONE');
#346 = EDGE_CURVE ( 'NONE', #92, #220, #224, .T. ) ;
#347 = LINE ( 'NONE', #454, #300 ) ;
#348 = DIRECTION ( 'NONE',  ( 1.000000000000000000, 0.000000000000000000, 1.032573497605242347E-16 ) ) ;
#349 = VECTOR ( 'NONE', #460, 100.0000000000000000 ) ;
#350 = ORIENTED_EDGE ( 'NONE', *, *, #58, .F. ) ;
#351 = VERTEX_POINT ( 'NONE', #85 ) ;
#352 = ADVANCED_FACE ( 'NONE', ( #372 ), #369, .T. ) ;
#353 = ORIENTED_EDGE ( 'NONE', *, *, #464, .T. ) ;
#354 = AXIS2_PLACEMENT_3D ( 'NONE', #197, #154, #273 ) ;
#355 = ORIENTED_EDGE ( 'NONE', *, *, #423, .T. ) ;
#356 = VECTOR ( 'NONE', #59, 100.0000000000000000 ) ;
#357 = DIRECTION ( 'NONE',  ( 1.000000000000000000, 0.000000000000000000, 1.032573497605242347E-16 ) ) ;
#358 = EDGE_CURVE ( 'NONE', #413, #151, #200, .T. ) ;
#359 = ORIENTED_EDGE ( 'NONE', *, *, #373, .F. ) ;
#360 = SURFACE_SIDE_STYLE ('',( #286 ) ) ;
#361 = CARTESIAN_POINT ( 'NONE',  ( 0.2500000000000016098, -0.1974999999999998979, 2.395000000000012008 ) ) ;
#362 = LINE ( 'NONE', #39, #30 ) ;
#363 = CARTESIAN_POINT ( 'NONE',  ( -16.80000000000000071, -0.4024999999999999134, 2.395000000000000462 ) ) ;
#364 = ORIENTED_EDGE ( 'NONE', *, *, #1, .F. ) ;
#365 = AXIS2_PLACEMENT_3D ( 'NONE', #214, #101, #288 ) ;
#366 = LINE ( 'NONE', #418, #108 ) ;
#367 = LINE ( 'NONE', #44, #86 ) ;
#368 = DIRECTION ( 'NONE',  ( 0.000000000000000000, 1.000000000000000000, 0.000000000000000000 ) ) ;
#369 = PLANE ( 'NONE',  #125 ) ;
#370 = PRESENTATION_LAYER_ASSIGNMENT (  '', '', ( #466 ) ) ;
#371 = VERTEX_POINT ( 'NONE', #21 ) ;
#372 = FACE_OUTER_BOUND ( 'NONE', #36, .T. ) ;
#373 = EDGE_CURVE ( 'NONE', #398, #35, #329, .T. ) ;
#374 = LINE ( 'NONE', #416, #155 ) ;
#375 = AXIS2_PLACEMENT_3D ( 'NONE', #27, #269, #343 ) ;
#376 = DIRECTION ( 'NONE',  ( 0.000000000000000000, 0.000000000000000000, 1.000000000000000000 ) ) ;
#377 = LINE ( 'NONE', #51, #426 ) ;
#378 = PRODUCT_DEFINITION_CONTEXT ( 'detailed design', #380, 'design' ) ;
#379 = PLANE ( 'NONE',  #71 ) ;
#380 = APPLICATION_CONTEXT ( 'automotive_design' ) ;
#381 = DIRECTION ( 'NONE',  ( 0.000000000000000000, 1.000000000000000000, 0.000000000000000000 ) ) ;
#382 = DIRECTION ( 'NONE',  ( 0.000000000000000000, 1.000000000000000000, 0.000000000000000000 ) ) ;
#383 = CARTESIAN_POINT ( 'NONE',  ( 2.775557561562891351E-15, -0.1974999999999998979, 2.395000000000011564 ) ) ;
#384 = VECTOR ( 'NONE', #184, 100.0000000000000000 ) ;
#385 =( GEOMETRIC_REPRESENTATION_CONTEXT ( 3 ) GLOBAL_UNCERTAINTY_ASSIGNED_CONTEXT ( ( #232 ) ) GLOBAL_UNIT_ASSIGNED_CONTEXT ( ( #318, #400, #325 ) ) REPRESENTATION_CONTEXT ( 'NONE', 'WORKASPACE' ) );
#386 = EDGE_CURVE ( 'NONE', #6, #398, #63, .T. ) ;
#387 = CARTESIAN_POINT ( 'NONE',  ( -16.80000000000000071, -1.002499999999999947, 3.469446951953614189E-16 ) ) ;
#388 = ADVANCED_FACE ( 'NONE', ( #450 ), #153, .T. ) ;
#389 = ORIENTED_EDGE ( 'NONE', *, *, #321, .T. ) ;
#390 = MECHANICAL_DESIGN_GEOMETRIC_PRESENTATION_REPRESENTATION (  '', ( #187 ), #385 ) ;
#391 = ORIENTED_EDGE ( 'NONE', *, *, #386, .F. ) ;
#392 = FACE_OUTER_BOUND ( 'NONE', #294, .T. ) ;
#393 = VERTEX_POINT ( 'NONE', #76 ) ;
#394 = DIRECTION ( 'NONE',  ( -1.000000000000000000, 0.000000000000000000, -1.032573497605242347E-16 ) ) ;
#395 = VERTEX_POINT ( 'NONE', #254 ) ;
#396 = VECTOR ( 'NONE', #43, 100.0000000000000000 ) ;
#397 = DIRECTION ( 'NONE',  ( 0.000000000000000000, 1.000000000000000000, 0.000000000000000000 ) ) ;
#398 = VERTEX_POINT ( 'NONE', #194 ) ;
#399 = DIRECTION ( 'NONE',  ( 4.305037197708010146E-16, 0.000000000000000000, 1.000000000000000000 ) ) ;
#400 =( NAMED_UNIT ( * ) PLANE_ANGLE_UNIT ( ) SI_UNIT ( $, .RADIAN. ) );
#401 = VERTEX_POINT ( 'NONE', #105 ) ;
#402 = AXIS2_PLACEMENT_3D ( 'NONE', #263, #227, #192 ) ;
#403 = LINE ( 'NONE', #61, #209 ) ;
#404 = EDGE_LOOP ( 'NONE', ( #147, #287, #130, #253 ) ) ;
#405 = ADVANCED_FACE ( 'NONE', ( #188 ), #302, .T. ) ;
#406 = DIRECTION ( 'NONE',  ( -1.000000000000000000, 0.000000000000000000, -2.878814911323413404E-15 ) ) ;
#407 = LINE ( 'NONE', #297, #129 ) ;
#408 = PRODUCT_DEFINITION_FORMATION_WITH_SPECIFIED_SOURCE ( 'ANY', '', #20, .NOT_KNOWN. ) ;
#409 = DIRECTION ( 'NONE',  ( -1.000000000000000000, 0.000000000000000000, 4.305037197708010146E-16 ) ) ;
#410 = VERTEX_POINT ( 'NONE', #226 ) ;
#411 = EDGE_CURVE ( 'NONE', #205, #35, #236, .T. ) ;
#412 = CARTESIAN_POINT ( 'NONE',  ( 0.2500000000000016098, -0.6074999999999999289, 2.395000000000012008 ) ) ;
#413 = VERTEX_POINT ( 'NONE', #296 ) ;
#414 = LINE ( 'NONE', #81, #109 ) ;
#415 = CARTESIAN_POINT ( 'NONE',  ( 5.551115123125782702E-15, -0.1974999999999998979, 1.144917494144692682E-14 ) ) ;
#416 = CARTESIAN_POINT ( 'NONE',  ( -8.399999999999998579, -0.6074999999999999289, 2.395000000000001794 ) ) ;
#417 = AXIS2_PLACEMENT_3D ( 'NONE', #78, #150, #156 ) ;
#418 = CARTESIAN_POINT ( 'NONE',  ( -8.399999999999998579, -0.1974999999999998979, 2.395000000000001794 ) ) ;
#419 = DIRECTION ( 'NONE',  ( -1.170779488823174499E-15, 0.000000000000000000, 1.000000000000000000 ) ) ;
#420 = PLANE ( 'NONE',  #354 ) ;
#421 = MECHANICAL_DESIGN_GEOMETRIC_PRESENTATION_REPRESENTATION (  '', ( #466 ), #4 ) ;
#422 = CARTESIAN_POINT ( 'NONE',  ( 5.551115123125782702E-15, -0.1974999999999998979, 1.144917494144692682E-14 ) ) ;
#423 = EDGE_CURVE ( 'NONE', #258, #446, #45, .T. ) ;
#424 =( NAMED_UNIT ( * ) SI_UNIT ( $, .STERADIAN. ) SOLID_ANGLE_UNIT ( ) );
#425 = EDGE_CURVE ( 'NONE', #205, #6, #366, .T. ) ;
#426 = VECTOR ( 'NONE', #399, 100.0000000000000000 ) ;
#427 = ORIENTED_EDGE ( 'NONE', *, *, #160, .F. ) ;
#428 = SHAPE_DEFINITION_REPRESENTATION ( #74, #249 ) ;
#429 = ORIENTED_EDGE ( 'NONE', *, *, #234, .T. ) ;
#430 = VECTOR ( 'NONE', #179, 100.0000000000000000 ) ;
#431 = CARTESIAN_POINT ( 'NONE',  ( -8.399999999999998579, -1.002499999999999947, 2.500000000000000888 ) ) ;
#432 = ORIENTED_EDGE ( 'NONE', *, *, #97, .F. ) ;
#433 = EDGE_LOOP ( 'NONE', ( #168, #106, #292, #350 ) ) ;
#434 = VECTOR ( 'NONE', #186, 100.0000000000000000 ) ;
#435 = ADVANCED_FACE ( 'NONE', ( #112 ), #379, .F. ) ;
#436 = CARTESIAN_POINT ( 'NONE',  ( 0.000000000000000000, -1.002499999999999947, 0.000000000000000000 ) ) ;
#437 = EDGE_LOOP ( 'NONE', ( #326, #42, #132, #467 ) ) ;
#438 = CIRCLE ( 'NONE', #16, 0.2050000000000000155 ) ;
#439 = ORIENTED_EDGE ( 'NONE', *, *, #346, .F. ) ;
#440 = DIRECTION ( 'NONE',  ( -1.032573497605242347E-16, 0.000000000000000000, 1.000000000000000000 ) ) ;
#441 = EDGE_CURVE ( 'NONE', #320, #62, #290, .T. ) ;
#442 = ORIENTED_EDGE ( 'NONE', *, *, #457, .T. ) ;
#443 = ORIENTED_EDGE ( 'NONE', *, *, #58, .T. ) ;
#444 = DIRECTION ( 'NONE',  ( 1.000000000000000000, 0.000000000000000000, 1.704540558354500032E-15 ) ) ;
#445 = VECTOR ( 'NONE', #5, 100.0000000000000000 ) ;
#446 = VERTEX_POINT ( 'NONE', #298 ) ;
#447 = EDGE_CURVE ( 'NONE', #449, #413, #257, .T. ) ;
#448 = DIRECTION ( 'NONE',  ( 0.000000000000000000, -1.000000000000000000, 0.000000000000000000 ) ) ;
#449 = VERTEX_POINT ( 'NONE', #252 ) ;
#450 = FACE_OUTER_BOUND ( 'NONE', #289, .T. ) ;
#451 = CARTESIAN_POINT ( 'NONE',  ( 0.000000000000000000, 0.1975000000000001199, 0.000000000000000000 ) ) ;
#452 = FILL_AREA_STYLE_COLOUR ( '', #221 ) ;
#453 = CARTESIAN_POINT ( 'NONE',  ( 0.2500000000000057732, -0.6074999999999999289, 1.214306433183764966E-14 ) ) ;
#454 = CARTESIAN_POINT ( 'NONE',  ( 5.551115123125782702E-15, -0.1974999999999998979, 1.144917494144692682E-14 ) ) ;
#455 = CARTESIAN_POINT ( 'NONE',  ( -16.80000000000000071, -1.002499999999999947, 3.469446951953614189E-16 ) ) ;
#456 = AXIS2_PLACEMENT_3D ( 'NONE', #431, #141, #357 ) ;
#457 = EDGE_CURVE ( 'NONE', #320, #395, #72, .T. ) ;
#458 = CARTESIAN_POINT ( 'NONE',  ( 5.551115123125782702E-15, -0.6074999999999999289, 1.144917494144692682E-14 ) ) ;
#459 = DIRECTION ( 'NONE',  ( 0.000000000000000000, 0.000000000000000000, 1.000000000000000000 ) ) ;
#460 = DIRECTION ( 'NONE',  ( -1.170779488823174499E-15, 0.000000000000000000, 1.000000000000000000 ) ) ;
#461 = CARTESIAN_POINT ( 'NONE',  ( 0.000000000000000000, -1.002499999999999947, 0.000000000000000000 ) ) ;
#462 = CARTESIAN_POINT ( 'NONE',  ( -17.04999999999999716, -0.1974999999999998979, 2.395000000000000462 ) ) ;
#463 = AXIS2_PLACEMENT_3D ( 'NONE', #50, #190, #293 ) ;
#464 = EDGE_CURVE ( 'NONE', #279, #215, #332, .T. ) ;
#465 = VERTEX_POINT ( 'NONE', #387 ) ;
#466 = STYLED_ITEM ( 'NONE', ( #189 ), #202 ) ;
#467 = ORIENTED_EDGE ( 'NONE', *, *, #123, .T. ) ;
#468 = EDGE_LOOP ( 'NONE', ( #56, #255, #443, #135, #429, #139, #102, #439, #248, #355, #94, #2 ) ) ;
#469 = VECTOR ( 'NONE', #406, 100.0000000000000000 ) ;
#470 = PRESENTATION_STYLE_ASSIGNMENT (( #204 ) ) ;
ENDSEC;
END-ISO-10303-21;
